<?xml version="1.0" standalone="no"?>
<!DOCTYPE svg PUBLIC "-//W3C//DTD SVG 1.1//EN" "http://www.w3.org/Graphics/SVG/1.1/DTD/svg11.dtd">
<svg xmlns="http://www.w3.org/2000/svg" version="1.1" width="27px" height="14.5px" viewBox="0 0 27 14.5">
  <desc>4 22</desc>
  <defs/>
  <g id="Polygon24912">
    <path d="M 4.7 4.8 L 3.7 4.8 L 3.7 6.1 L 3.1 6.1 L 3.1 4.8 L 0.3 4.8 L 0.3 4.4 L 3.1 0.4 L 3.7 0.4 L 3.7 4.2 L 4.7 4.2 L 4.7 4.8 Z M 3.1 4.2 L 3.1 1.5 L 1.1 4.1 L 1.1 4.2 L 3.1 4.2 Z M 7.9 -0.6 L 8.6 -0.6 L 6 7.2 L 5.3 7.2 L 7.9 -0.6 Z M 12 2.1 C 12 1.5 11.6 1 10.8 1 C 10.2 1 9.7 1.3 9.4 1.7 C 9.4 1.7 9.4 0.9 9.4 0.9 C 9.7 0.6 10.3 0.3 10.9 0.3 C 12 0.3 12.7 1.1 12.7 2.1 C 12.7 3 11.9 3.9 10.5 5.5 C 10.5 5.47 12.9 5.5 12.9 5.5 L 12.9 6.1 C 12.9 6.1 9.11 6.14 9.1 6.1 C 11.7 3.3 12 2.8 12 2.1 Z M 16.5 2.1 C 16.5 1.5 16.1 1 15.3 1 C 14.7 1 14.2 1.3 13.9 1.7 C 13.9 1.7 13.9 0.9 13.9 0.9 C 14.2 0.6 14.8 0.3 15.4 0.3 C 16.5 0.3 17.2 1.1 17.2 2.1 C 17.2 3 16.4 3.9 15 5.5 C 15 5.47 17.4 5.5 17.4 5.5 L 17.4 6.1 C 17.4 6.1 13.61 6.14 13.6 6.1 C 16.2 3.3 16.5 2.8 16.5 2.1 Z " stroke="none" fill="#000"/>
  </g>
</svg>