<?xml version="1.0" standalone="no"?>
<!DOCTYPE svg PUBLIC "-//W3C//DTD SVG 1.1//EN" "http://www.w3.org/Graphics/SVG/1.1/DTD/svg11.dtd">
<svg xmlns="http://www.w3.org/2000/svg" version="1.1" width="305.4px" height="123.7px" viewBox="0 0 305.4 123.7">
  <desc>Projet de dipl me</desc>
  <defs/>
  <g id="Polygon24561">
    <path d="M 4.1 20 L 4.1 26.9 L 2 26.9 L 2 10.1 C 2 10.1 8.04 10.08 8 10.1 C 8.9 10.1 9.7 10.2 10.3 10.5 C 10.9 10.7 11.5 11 11.9 11.4 C 12.3 11.9 12.6 12.3 12.9 12.9 C 13.1 13.5 13.2 14 13.2 14.6 C 13.2 14.6 13.2 15.4 13.2 15.4 C 13.2 16 13.1 16.6 12.9 17.1 C 12.6 17.7 12.3 18.2 11.9 18.6 C 11.4 19 10.9 19.3 10.3 19.6 C 9.6 19.8 8.9 20 8 20 C 8.04 19.97 4.1 20 4.1 20 Z M 4.1 18.1 C 4.1 18.1 7.8 18.1 7.8 18.1 C 10 18.1 11.2 17.1 11.2 15.2 C 11.2 15.2 11.2 14.8 11.2 14.8 C 11.2 13.9 10.9 13.3 10.3 12.7 C 9.8 12.2 8.9 12 7.8 12 C 7.8 11.95 4.1 12 4.1 12 L 4.1 18.1 Z M 16.1 15 L 20.4 15 L 20.4 16.6 C 20.4 16.6 20.71 16.56 20.7 16.6 C 21 15.9 21.4 15.4 22 15.1 C 22.6 14.8 23.2 14.6 23.9 14.6 C 25.1 14.6 26.1 15 26.8 15.8 C 27.6 16.6 28 17.7 28 19.2 C 28 19.2 26 19.5 26 19.5 C 26 18.4 25.8 17.6 25.2 17.1 C 24.7 16.7 24.1 16.4 23.3 16.4 C 22.8 16.4 22.4 16.5 22 16.7 C 21.7 16.9 21.4 17.2 21.1 17.5 C 20.9 17.8 20.7 18.2 20.6 18.7 C 20.5 19.1 20.4 19.6 20.4 20.1 C 20.42 20.11 20.4 25.2 20.4 25.2 L 23.4 25.2 L 23.4 26.9 L 15.8 26.9 L 15.8 25.2 L 18.6 25.2 L 18.6 16.7 L 16.1 16.7 L 16.1 15 Z M 42.7 21.1 C 42.7 22.1 42.5 22.9 42.2 23.7 C 41.9 24.5 41.4 25.1 40.9 25.6 C 40.4 26.1 39.7 26.5 39 26.8 C 38.3 27.1 37.5 27.2 36.7 27.2 C 35.9 27.2 35.2 27.1 34.4 26.8 C 33.7 26.5 33.1 26.1 32.5 25.6 C 32 25.1 31.6 24.5 31.2 23.7 C 30.9 22.9 30.7 22.1 30.7 21.1 C 30.7 21.1 30.7 20.8 30.7 20.8 C 30.7 19.8 30.9 18.9 31.2 18.2 C 31.6 17.4 32 16.8 32.6 16.2 C 33.1 15.7 33.7 15.3 34.5 15 C 35.2 14.8 35.9 14.6 36.7 14.6 C 37.5 14.6 38.3 14.8 39 15 C 39.7 15.3 40.3 15.7 40.9 16.2 C 41.4 16.8 41.9 17.4 42.2 18.2 C 42.5 18.9 42.7 19.8 42.7 20.8 C 42.7 20.8 42.7 21.1 42.7 21.1 Z M 36.7 25.4 C 37.3 25.4 37.8 25.3 38.3 25.1 C 38.8 24.9 39.2 24.6 39.6 24.3 C 40 23.9 40.3 23.4 40.5 22.9 C 40.7 22.3 40.8 21.7 40.8 21.1 C 40.8 21.1 40.8 20.8 40.8 20.8 C 40.8 20.1 40.7 19.6 40.5 19 C 40.3 18.5 40 18 39.6 17.6 C 39.2 17.3 38.8 17 38.3 16.7 C 37.8 16.5 37.3 16.4 36.7 16.4 C 36.2 16.4 35.6 16.5 35.1 16.7 C 34.6 17 34.2 17.3 33.8 17.6 C 33.5 18 33.2 18.5 33 19 C 32.8 19.6 32.7 20.1 32.7 20.8 C 32.7 20.8 32.7 21.1 32.7 21.1 C 32.7 21.7 32.8 22.3 33 22.9 C 33.2 23.4 33.5 23.9 33.8 24.3 C 34.2 24.6 34.6 24.9 35.1 25.1 C 35.6 25.3 36.1 25.4 36.7 25.4 Z M 51.4 11.4 C 51.4 11 51.6 10.6 51.9 10.2 C 52.3 9.9 52.6 9.7 53.1 9.7 C 53.6 9.7 54 9.9 54.3 10.2 C 54.6 10.6 54.8 11 54.8 11.4 C 54.8 11.9 54.6 12.3 54.3 12.6 C 54 12.9 53.6 13.1 53.1 13.1 C 52.6 13.1 52.3 12.9 51.9 12.6 C 51.6 12.3 51.4 11.9 51.4 11.4 Z M 47.4 15 L 54.1 15 C 54.1 15 54.07 29.81 54.1 29.8 C 54.1 30.4 53.9 30.8 53.6 31.2 C 53.2 31.5 52.8 31.7 52.2 31.7 C 52.22 31.68 46.9 31.7 46.9 31.7 L 46.9 30 C 46.9 30 51.55 29.95 51.6 30 C 52 30 52.2 29.7 52.2 29.2 C 52.2 29.23 52.2 16.7 52.2 16.7 L 47.4 16.7 L 47.4 15 Z M 62.2 21.5 C 62.3 22.7 62.6 23.6 63.3 24.4 C 64 25.1 65 25.4 66.2 25.4 C 66.8 25.4 67.2 25.4 67.7 25.2 C 68.1 25.1 68.4 24.9 68.7 24.7 C 69 24.5 69.3 24.2 69.4 23.9 C 69.6 23.6 69.8 23.3 69.9 23 C 69.9 23 71.7 23.5 71.7 23.5 C 71.3 24.6 70.7 25.5 69.8 26.2 C 68.9 26.9 67.7 27.2 66.1 27.2 C 65.3 27.2 64.5 27.1 63.8 26.8 C 63.1 26.5 62.5 26.1 62 25.5 C 61.5 25 61.1 24.3 60.8 23.6 C 60.5 22.8 60.3 22 60.3 21.1 C 60.3 21.1 60.3 20.5 60.3 20.5 C 60.3 19.7 60.5 18.9 60.8 18.2 C 61.1 17.4 61.5 16.8 62 16.3 C 62.5 15.8 63.2 15.4 63.9 15.1 C 64.6 14.8 65.4 14.6 66.2 14.6 C 67.2 14.6 68 14.8 68.7 15.2 C 69.4 15.5 70 16 70.5 16.5 C 70.9 17 71.3 17.6 71.5 18.2 C 71.7 18.9 71.8 19.4 71.8 20 C 71.81 19.97 71.8 21.5 71.8 21.5 C 71.8 21.5 62.21 21.5 62.2 21.5 Z M 66.2 16.4 C 65.7 16.4 65.2 16.5 64.7 16.7 C 64.3 16.8 63.9 17.1 63.5 17.4 C 63.2 17.7 62.9 18 62.7 18.4 C 62.5 18.9 62.3 19.3 62.3 19.8 C 62.3 19.8 69.9 19.8 69.9 19.8 C 69.9 19.3 69.8 18.8 69.6 18.4 C 69.3 18 69.1 17.6 68.7 17.3 C 68.4 17 68 16.8 67.5 16.7 C 67.1 16.5 66.7 16.4 66.2 16.4 Z M 75.1 15 L 78.9 15 L 78.9 10.1 L 80.7 10.1 L 80.7 15 L 85.3 15 L 85.3 16.7 L 80.7 16.7 C 80.7 16.7 80.74 24.43 80.7 24.4 C 80.7 24.9 81 25.2 81.4 25.2 C 81.38 25.15 84.8 25.2 84.8 25.2 L 84.8 26.9 C 84.8 26.9 80.71 26.88 80.7 26.9 C 80.2 26.9 79.7 26.7 79.4 26.4 C 79 26 78.9 25.6 78.9 25 C 78.86 25.01 78.9 16.7 78.9 16.7 L 75.1 16.7 L 75.1 15 Z M 114.1 25.1 C 114.1 25.1 113.83 25.06 113.8 25.1 C 113.6 25.4 113.4 25.7 113.1 26 C 112.8 26.3 112.5 26.5 112.1 26.7 C 111.8 26.9 111.4 27 111 27.1 C 110.7 27.2 110.3 27.2 109.9 27.2 C 109.1 27.2 108.4 27.1 107.7 26.8 C 107 26.5 106.4 26.1 105.9 25.6 C 105.4 25.1 105 24.5 104.7 23.7 C 104.4 23 104.2 22.1 104.2 21.1 C 104.2 21.1 104.2 20.7 104.2 20.7 C 104.2 19.8 104.4 18.9 104.7 18.2 C 105 17.4 105.4 16.8 105.9 16.2 C 106.4 15.7 107 15.3 107.7 15 C 108.4 14.8 109.1 14.6 109.9 14.6 C 110.7 14.6 111.5 14.8 112.2 15.2 C 112.9 15.5 113.4 16.1 113.8 16.8 C 113.83 16.85 114.1 16.8 114.1 16.8 L 114.1 10.1 L 116 10.1 L 116 26.9 L 114.1 26.9 L 114.1 25.1 Z M 110.1 25.4 C 110.7 25.4 111.2 25.3 111.7 25.1 C 112.2 24.9 112.6 24.6 113 24.2 C 113.3 23.9 113.6 23.4 113.8 22.9 C 114 22.3 114.1 21.7 114.1 21.1 C 114.1 21.1 114.1 20.8 114.1 20.8 C 114.1 20.1 114 19.6 113.8 19 C 113.6 18.5 113.3 18 113 17.6 C 112.6 17.3 112.2 17 111.7 16.7 C 111.2 16.5 110.7 16.4 110.1 16.4 C 109.6 16.4 109.1 16.5 108.6 16.7 C 108.1 16.9 107.7 17.2 107.3 17.6 C 106.9 18 106.7 18.5 106.5 19 C 106.3 19.5 106.2 20.1 106.2 20.7 C 106.2 20.7 106.2 21.1 106.2 21.1 C 106.2 21.8 106.3 22.4 106.5 22.9 C 106.7 23.4 106.9 23.9 107.3 24.3 C 107.7 24.7 108.1 24.9 108.6 25.1 C 109 25.3 109.6 25.4 110.1 25.4 Z M 121 21.5 C 121 22.7 121.4 23.6 122.1 24.4 C 122.8 25.1 123.7 25.4 124.9 25.4 C 125.5 25.4 126 25.4 126.4 25.2 C 126.8 25.1 127.2 24.9 127.5 24.7 C 127.8 24.5 128 24.2 128.2 23.9 C 128.4 23.6 128.5 23.3 128.6 23 C 128.6 23 130.4 23.5 130.4 23.5 C 130.1 24.6 129.5 25.5 128.6 26.2 C 127.7 26.9 126.4 27.2 124.9 27.2 C 124 27.2 123.3 27.1 122.6 26.8 C 121.8 26.5 121.2 26.1 120.7 25.5 C 120.2 25 119.8 24.3 119.5 23.6 C 119.2 22.8 119.1 22 119.1 21.1 C 119.1 21.1 119.1 20.5 119.1 20.5 C 119.1 19.7 119.2 18.9 119.5 18.2 C 119.8 17.4 120.2 16.8 120.8 16.3 C 121.3 15.8 121.9 15.4 122.6 15.1 C 123.3 14.8 124.1 14.6 124.9 14.6 C 125.9 14.6 126.8 14.8 127.5 15.2 C 128.2 15.5 128.8 16 129.2 16.5 C 129.7 17 130 17.6 130.2 18.2 C 130.5 18.9 130.6 19.4 130.6 20 C 130.56 19.97 130.6 21.5 130.6 21.5 C 130.6 21.5 120.96 21.5 121 21.5 Z M 124.9 16.4 C 124.4 16.4 123.9 16.5 123.5 16.7 C 123 16.8 122.6 17.1 122.3 17.4 C 121.9 17.7 121.6 18 121.4 18.4 C 121.2 18.9 121.1 19.3 121 19.8 C 121 19.8 128.7 19.8 128.7 19.8 C 128.7 19.3 128.5 18.8 128.3 18.4 C 128.1 18 127.8 17.6 127.5 17.3 C 127.1 17 126.7 16.8 126.3 16.7 C 125.9 16.5 125.4 16.4 124.9 16.4 Z M 158.2 25.1 C 158.2 25.1 157.9 25.06 157.9 25.1 C 157.7 25.4 157.5 25.7 157.2 26 C 156.9 26.3 156.5 26.5 156.2 26.7 C 155.9 26.9 155.5 27 155.1 27.1 C 154.7 27.2 154.4 27.2 154 27.2 C 153.2 27.2 152.5 27.1 151.8 26.8 C 151.1 26.5 150.5 26.1 150 25.6 C 149.4 25.1 149 24.5 148.7 23.7 C 148.4 23 148.3 22.1 148.3 21.1 C 148.3 21.1 148.3 20.7 148.3 20.7 C 148.3 19.8 148.4 18.9 148.8 18.2 C 149.1 17.4 149.5 16.8 150 16.2 C 150.5 15.7 151.1 15.3 151.8 15 C 152.5 14.8 153.2 14.6 154 14.6 C 154.8 14.6 155.5 14.8 156.3 15.2 C 157 15.5 157.5 16.1 157.9 16.8 C 157.9 16.85 158.2 16.8 158.2 16.8 L 158.2 10.1 L 160.1 10.1 L 160.1 26.9 L 158.2 26.9 L 158.2 25.1 Z M 154.2 25.4 C 154.8 25.4 155.3 25.3 155.8 25.1 C 156.2 24.9 156.7 24.6 157 24.2 C 157.4 23.9 157.7 23.4 157.9 22.9 C 158.1 22.3 158.2 21.7 158.2 21.1 C 158.2 21.1 158.2 20.8 158.2 20.8 C 158.2 20.1 158.1 19.6 157.9 19 C 157.7 18.5 157.4 18 157 17.6 C 156.7 17.3 156.2 17 155.7 16.7 C 155.3 16.5 154.7 16.4 154.2 16.4 C 153.6 16.4 153.1 16.5 152.6 16.7 C 152.1 16.9 151.7 17.2 151.4 17.6 C 151 18 150.7 18.5 150.5 19 C 150.3 19.5 150.2 20.1 150.2 20.7 C 150.2 20.7 150.2 21.1 150.2 21.1 C 150.2 21.8 150.3 22.4 150.5 22.9 C 150.7 23.4 151 23.9 151.4 24.3 C 151.7 24.7 152.1 24.9 152.6 25.1 C 153.1 25.3 153.6 25.4 154.2 25.4 Z M 167.4 11.4 C 167.4 11 167.5 10.6 167.8 10.2 C 168.2 9.9 168.6 9.7 169 9.7 C 169.5 9.7 169.9 9.9 170.2 10.2 C 170.5 10.6 170.7 11 170.7 11.4 C 170.7 11.9 170.5 12.3 170.2 12.6 C 169.9 12.9 169.5 13.1 169 13.1 C 168.6 13.1 168.2 12.9 167.8 12.6 C 167.5 12.3 167.4 11.9 167.4 11.4 Z M 163.9 25.2 L 168.1 25.2 L 168.1 16.7 L 164.4 16.7 L 164.4 15 L 170 15 L 170 25.2 L 173.9 25.2 L 173.9 26.9 L 163.9 26.9 L 163.9 25.2 Z M 179.8 31.7 L 177.9 31.7 L 177.9 15 L 179.8 15 L 179.8 16.8 C 179.8 16.8 180.07 16.85 180.1 16.8 C 180.5 16.1 181.1 15.6 181.8 15.2 C 182.5 14.8 183.3 14.6 184.2 14.6 C 184.9 14.6 185.6 14.8 186.3 15 C 186.9 15.3 187.5 15.7 188 16.2 C 188.5 16.7 188.9 17.4 189.2 18.1 C 189.5 18.9 189.7 19.7 189.7 20.7 C 189.7 20.7 189.7 21.2 189.7 21.2 C 189.7 22.1 189.5 23 189.2 23.8 C 189 24.5 188.6 25.1 188.1 25.7 C 187.5 26.2 187 26.6 186.3 26.8 C 185.6 27.1 184.9 27.2 184.2 27.2 C 183.8 27.2 183.4 27.2 183 27.1 C 182.6 27 182.2 26.9 181.8 26.7 C 181.5 26.5 181.1 26.3 180.8 26 C 180.5 25.7 180.3 25.4 180.1 25.1 C 180.07 25.06 179.8 25.1 179.8 25.1 L 179.8 31.7 Z M 183.8 25.4 C 184.3 25.4 184.9 25.3 185.4 25.1 C 185.8 24.9 186.3 24.7 186.6 24.3 C 187 23.9 187.3 23.5 187.5 22.9 C 187.7 22.4 187.8 21.8 187.8 21.2 C 187.8 21.2 187.8 20.7 187.8 20.7 C 187.8 20 187.7 19.5 187.5 18.9 C 187.3 18.4 187 18 186.6 17.6 C 186.3 17.2 185.8 16.9 185.3 16.7 C 184.9 16.5 184.3 16.4 183.8 16.4 C 183.2 16.4 182.7 16.5 182.2 16.7 C 181.7 17 181.3 17.3 180.9 17.6 C 180.6 18 180.3 18.5 180.1 19 C 179.9 19.6 179.8 20.1 179.8 20.8 C 179.8 20.8 179.8 21.1 179.8 21.1 C 179.8 21.7 179.9 22.3 180.1 22.9 C 180.3 23.4 180.6 23.9 180.9 24.2 C 181.3 24.6 181.7 24.9 182.2 25.1 C 182.7 25.3 183.2 25.4 183.8 25.4 Z M 193 25.2 L 197.4 25.2 L 197.4 11.8 L 193.2 11.8 L 193.2 10.1 L 199.2 10.1 L 199.2 25.2 L 203.5 25.2 L 203.5 26.9 L 193 26.9 L 193 25.2 Z M 219 21.1 C 219 22.1 218.8 22.9 218.5 23.7 C 218.1 24.5 217.7 25.1 217.2 25.6 C 216.6 26.1 216 26.5 215.2 26.8 C 214.5 27.1 213.8 27.2 213 27.2 C 212.2 27.2 211.4 27.1 210.7 26.8 C 210 26.5 209.3 26.1 208.8 25.6 C 208.3 25.1 207.8 24.5 207.5 23.7 C 207.2 22.9 207 22.1 207 21.1 C 207 21.1 207 20.8 207 20.8 C 207 19.8 207.2 18.9 207.5 18.2 C 207.8 17.4 208.3 16.8 208.8 16.2 C 209.4 15.7 210 15.3 210.7 15 C 211.4 14.8 212.2 14.6 213 14.6 C 213.8 14.6 214.5 14.8 215.2 15 C 216 15.3 216.6 15.7 217.1 16.2 C 217.7 16.8 218.1 17.4 218.5 18.2 C 218.8 18.9 219 19.8 219 20.8 C 219 20.8 219 21.1 219 21.1 Z M 213 25.4 C 213.6 25.4 214.1 25.3 214.6 25.1 C 215.1 24.9 215.5 24.6 215.9 24.3 C 216.2 23.9 216.5 23.4 216.7 22.9 C 216.9 22.3 217 21.7 217 21.1 C 217 21.1 217 20.8 217 20.8 C 217 20.1 216.9 19.6 216.7 19 C 216.5 18.5 216.2 18 215.9 17.6 C 215.5 17.3 215.1 17 214.6 16.7 C 214.1 16.5 213.5 16.4 213 16.4 C 212.4 16.4 211.9 16.5 211.4 16.7 C 210.9 17 210.5 17.3 210.1 17.6 C 209.7 18 209.4 18.5 209.2 19 C 209 19.6 208.9 20.1 208.9 20.8 C 208.9 20.8 208.9 21.1 208.9 21.1 C 208.9 21.7 209 22.3 209.2 22.9 C 209.4 23.4 209.7 23.9 210.1 24.3 C 210.5 24.6 210.9 24.9 211.4 25.1 C 211.9 25.3 212.4 25.4 213 25.4 Z M 214.4 13.2 L 213.1 11.1 L 212.8 11.1 L 211.6 13.2 L 209.6 13.2 L 211.5 10.4 L 214.5 10.4 L 216.4 13.2 L 214.4 13.2 Z M 233.9 26.9 L 232 26.9 C 232 26.9 231.98 18.34 232 18.3 C 232 17.8 231.9 17.3 231.6 17 C 231.3 16.6 230.9 16.4 230.4 16.4 C 229.8 16.4 229.4 16.6 229.1 17 C 228.8 17.4 228.6 18 228.6 18.8 C 228.6 18.82 228.6 26.9 228.6 26.9 L 226.7 26.9 C 226.7 26.9 226.73 18.24 226.7 18.2 C 226.7 17.7 226.6 17.3 226.3 16.9 C 226 16.6 225.6 16.4 225.1 16.4 C 224.6 16.4 224.1 16.6 223.8 17 C 223.5 17.5 223.3 18 223.3 18.7 C 223.34 18.67 223.3 26.9 223.3 26.9 L 221.5 26.9 L 221.5 15 L 223.3 15 L 223.3 16.3 C 223.3 16.3 223.63 16.27 223.6 16.3 C 223.8 15.7 224.1 15.3 224.5 15 C 224.9 14.8 225.4 14.6 226 14.6 C 226.5 14.6 227 14.8 227.4 15.1 C 227.8 15.4 228 15.8 228.2 16.3 C 228.2 16.3 228.5 16.3 228.5 16.3 C 229 15.2 229.9 14.6 231 14.6 C 231.9 14.6 232.6 14.9 233.1 15.5 C 233.6 16.1 233.9 16.8 233.9 17.7 C 233.86 17.71 233.9 26.9 233.9 26.9 Z M 238.5 21.5 C 238.5 22.7 238.9 23.6 239.6 24.4 C 240.3 25.1 241.2 25.4 242.4 25.4 C 243 25.4 243.5 25.4 243.9 25.2 C 244.3 25.1 244.7 24.9 245 24.7 C 245.3 24.5 245.5 24.2 245.7 23.9 C 245.9 23.6 246 23.3 246.1 23 C 246.1 23 247.9 23.5 247.9 23.5 C 247.6 24.6 247 25.5 246.1 26.2 C 245.2 26.9 243.9 27.2 242.4 27.2 C 241.6 27.2 240.8 27.1 240.1 26.8 C 239.3 26.5 238.7 26.1 238.2 25.5 C 237.7 25 237.3 24.3 237 23.6 C 236.7 22.8 236.6 22 236.6 21.1 C 236.6 21.1 236.6 20.5 236.6 20.5 C 236.6 19.7 236.7 18.9 237 18.2 C 237.3 17.4 237.7 16.8 238.3 16.3 C 238.8 15.8 239.4 15.4 240.1 15.1 C 240.8 14.8 241.6 14.6 242.4 14.6 C 243.4 14.6 244.3 14.8 245 15.2 C 245.7 15.5 246.3 16 246.7 16.5 C 247.2 17 247.5 17.6 247.7 18.2 C 248 18.9 248.1 19.4 248.1 20 C 248.06 19.97 248.1 21.5 248.1 21.5 C 248.1 21.5 238.46 21.5 238.5 21.5 Z M 242.4 16.4 C 241.9 16.4 241.4 16.5 241 16.7 C 240.5 16.8 240.1 17.1 239.8 17.4 C 239.4 17.7 239.1 18 238.9 18.4 C 238.7 18.9 238.6 19.3 238.5 19.8 C 238.5 19.8 246.2 19.8 246.2 19.8 C 246.2 19.3 246 18.8 245.8 18.4 C 245.6 18 245.3 17.6 245 17.3 C 244.6 17 244.2 16.8 243.8 16.7 C 243.4 16.5 242.9 16.4 242.4 16.4 Z " stroke="none" fill="#000"/>
  </g>
</svg>