<?xml version="1.0" standalone="no"?>
<!DOCTYPE svg PUBLIC "-//W3C//DTD SVG 1.1//EN" "http://www.w3.org/Graphics/SVG/1.1/DTD/svg11.dtd">
<svg xmlns="http://www.w3.org/2000/svg" version="1.1" width="119.2px" height="20.4px" viewBox="0 0 119.2 20.4">
  <desc>1- Muji mural, Naoto Fukasawa</desc>
  <defs/>
  <g id="Polygon24169">
    <path d="M 2.3 4.1 L 0.6 4.8 L 0.7 4.5 L 2.6 3.6 L 2.7 3.6 L 1.8 9.6 L 1.5 9.6 L 2.3 4.1 Z M 4.1 7 L 5.9 7 L 5.9 7.3 L 4 7.3 L 4.1 7 Z M 15.7 9.6 L 15.3 9.6 L 15.2 4.2 L 15.2 4.2 L 12.5 9.6 L 12.2 9.6 L 11 4.2 L 11 4.2 L 9.4 9.6 L 9 9.6 L 10.9 3.7 L 11.3 3.7 L 12.4 9.1 L 15.1 3.7 L 15.5 3.7 L 15.7 9.6 Z M 20.3 8 C 20.1 9.2 19.4 9.7 18.6 9.7 C 17.8 9.7 17.1 9.1 17.1 8.2 C 17.1 8.1 17.1 8 17.1 7.9 C 17.1 7.88 17.5 5.4 17.5 5.4 L 17.8 5.4 C 17.8 5.4 17.43 7.86 17.4 7.9 C 17.4 8 17.4 8.1 17.4 8.2 C 17.4 8.9 17.9 9.3 18.6 9.3 C 19.2 9.3 19.8 9 20 8 C 19.95 7.95 20.3 5.4 20.3 5.4 L 20.7 5.4 C 20.7 5.4 20.26 8.03 20.3 8 Z M 22.8 3.8 C 22.8 4 22.7 4.1 22.5 4.1 C 22.4 4.1 22.3 4 22.3 3.8 C 22.3 3.7 22.4 3.5 22.6 3.5 C 22.7 3.5 22.8 3.6 22.8 3.8 Z M 21.6 9 C 21.62 8.98 22.2 5.4 22.2 5.4 L 22.5 5.4 C 22.5 5.4 21.94 9.07 21.9 9.1 C 21.8 10.1 21.5 10.8 20.9 11.3 C 20.9 11.3 20.4 11.3 20.4 11.3 C 21.2 10.7 21.5 10.1 21.6 9 Z M 24.7 3.8 C 24.7 4 24.6 4.1 24.4 4.1 C 24.3 4.1 24.2 4 24.2 3.8 C 24.2 3.7 24.3 3.5 24.4 3.5 C 24.6 3.5 24.7 3.6 24.7 3.8 Z M 24.1 5.4 L 24.4 5.4 L 23.8 9.6 L 23.4 9.6 L 24.1 5.4 Z M 28.5 5.4 L 28.5 6.1 C 28.5 6.1 28.47 6.06 28.5 6.1 C 28.7 5.6 29.2 5.3 29.7 5.3 C 30.2 5.3 30.7 5.6 30.7 6.2 C 31.1 5.6 31.6 5.3 32.1 5.3 C 32.8 5.3 33.2 5.8 33.2 6.4 C 33.2 6.6 33.2 6.7 33.2 6.8 C 33.18 6.81 32.8 9.6 32.8 9.6 L 32.4 9.6 C 32.4 9.6 32.85 6.84 32.8 6.8 C 32.9 6.7 32.9 6.6 32.9 6.5 C 32.9 6 32.6 5.6 32 5.6 C 31.4 5.6 30.9 6.2 30.8 6.9 C 30.78 6.87 30.4 9.6 30.4 9.6 L 30 9.6 C 30 9.6 30.45 6.84 30.4 6.8 C 30.5 6.7 30.5 6.6 30.5 6.5 C 30.5 6 30.2 5.6 29.6 5.6 C 29 5.6 28.5 6.2 28.4 6.9 C 28.37 6.87 28 9.6 28 9.6 L 27.6 9.6 L 28.3 5.4 L 28.5 5.4 Z M 37.6 8 C 37.5 9.2 36.7 9.7 35.9 9.7 C 35.1 9.7 34.4 9.1 34.4 8.2 C 34.4 8.1 34.4 8 34.4 7.9 C 34.45 7.88 34.8 5.4 34.8 5.4 L 35.2 5.4 C 35.2 5.4 34.78 7.86 34.8 7.9 C 34.8 8 34.8 8.1 34.8 8.2 C 34.8 8.9 35.3 9.3 36 9.3 C 36.6 9.3 37.2 9 37.3 8 C 37.3 7.95 37.7 5.4 37.7 5.4 L 38 5.4 C 38 5.4 37.62 8.03 37.6 8 Z M 39.7 5.4 L 39.7 6.2 C 39.7 6.2 39.67 6.15 39.7 6.2 C 40 5.6 40.6 5.3 41 5.3 C 41.1 5.3 41.2 5.3 41.3 5.3 C 41.3 5.3 41.2 5.7 41.2 5.7 C 41.2 5.7 41.1 5.6 41 5.6 C 40.4 5.6 39.7 6.1 39.6 7 C 39.57 6.97 39.2 9.6 39.2 9.6 L 38.8 9.6 L 39.5 5.4 L 39.7 5.4 Z M 45 9.6 L 44.8 9.6 L 44.9 8.6 C 44.9 8.6 44.85 8.58 44.8 8.6 C 44.4 9.3 43.8 9.7 43.1 9.7 C 42.2 9.7 41.4 9 41.4 7.8 C 41.4 6.3 42.4 5.3 43.6 5.3 C 44.3 5.3 45 5.7 45.2 6.4 C 45.15 6.43 45.2 6.4 45.2 6.4 L 45.4 5.4 L 45.6 5.4 L 45 9.6 Z M 41.7 7.7 C 41.7 8.8 42.4 9.4 43.2 9.4 C 44.3 9.4 45 8.3 45 7.2 C 45 6.2 44.4 5.6 43.6 5.6 C 42.6 5.6 41.7 6.5 41.7 7.7 Z M 47.5 3.2 L 47.8 3.2 L 46.9 9.6 L 46.6 9.6 L 47.5 3.2 Z M 48.9 8.9 C 48.8 9.5 48.5 10.1 48.1 10.7 C 48.1 10.7 47.8 10.7 47.8 10.7 C 48.1 10.2 48.4 9.6 48.5 8.9 C 48.5 8.8 48.5 8.7 48.5 8.7 C 48.5 8.7 48.9 8.7 48.9 8.7 C 48.9 8.7 48.9 8.8 48.9 8.9 Z M 57 9.6 L 56.7 9.6 L 53.8 4.2 L 53.8 4.2 L 53 9.6 L 52.7 9.6 L 53.6 3.7 L 53.9 3.7 L 56.8 9 L 56.8 9 L 57.6 3.7 L 57.9 3.7 L 57 9.6 Z M 62.3 9.6 L 62 9.6 L 62.1 8.6 C 62.1 8.6 62.12 8.58 62.1 8.6 C 61.7 9.3 61.1 9.7 60.4 9.7 C 59.5 9.7 58.7 9 58.7 7.8 C 58.7 6.3 59.7 5.3 60.8 5.3 C 61.6 5.3 62.2 5.7 62.4 6.4 C 62.42 6.43 62.4 6.4 62.4 6.4 L 62.6 5.4 L 62.9 5.4 L 62.3 9.6 Z M 59 7.7 C 59 8.8 59.7 9.4 60.5 9.4 C 61.5 9.4 62.3 8.3 62.3 7.2 C 62.3 6.2 61.6 5.6 60.9 5.6 C 59.9 5.6 59 6.5 59 7.7 Z M 63.8 7.8 C 63.8 6.3 64.8 5.3 66.1 5.3 C 67.1 5.3 67.9 6 67.9 7.2 C 67.9 8.6 66.8 9.7 65.6 9.7 C 64.6 9.7 63.8 8.9 63.8 7.8 Z M 67.5 7.2 C 67.5 6.2 66.9 5.6 66.1 5.6 C 65 5.6 64.1 6.5 64.1 7.8 C 64.1 8.8 64.7 9.4 65.6 9.4 C 66.6 9.4 67.5 8.5 67.5 7.2 Z M 70.1 9.6 C 69.4 9.6 69 9.3 69 8.6 C 69 8.5 69 8.4 69 8.3 C 69.01 8.29 69.4 5.7 69.4 5.7 L 68.7 5.7 L 68.8 5.4 L 69.4 5.4 L 69.6 4.4 L 69.9 4.4 L 69.8 5.4 L 71.1 5.4 L 71 5.7 L 69.7 5.7 C 69.7 5.7 69.34 8.32 69.3 8.3 C 69.3 8.4 69.3 8.5 69.3 8.6 C 69.3 9.1 69.7 9.3 70.2 9.3 C 70.3 9.3 70.6 9.3 70.7 9.2 C 70.7 9.2 70.7 9.6 70.7 9.6 C 70.5 9.6 70.3 9.6 70.1 9.6 Z M 71.5 7.8 C 71.5 6.3 72.5 5.3 73.7 5.3 C 74.8 5.3 75.5 6 75.5 7.2 C 75.5 8.6 74.5 9.7 73.2 9.7 C 72.2 9.7 71.5 8.9 71.5 7.8 Z M 75.2 7.2 C 75.2 6.2 74.6 5.6 73.7 5.6 C 72.7 5.6 71.8 6.5 71.8 7.8 C 71.8 8.8 72.4 9.4 73.2 9.4 C 74.3 9.4 75.2 8.5 75.2 7.2 Z M 79.8 3.7 L 82.7 3.7 L 82.7 4 L 80.1 4 L 79.7 6.5 L 82.2 6.5 L 82.1 6.8 L 79.6 6.8 L 79.2 9.6 L 78.9 9.6 L 79.8 3.7 Z M 86.3 8 C 86.2 9.2 85.4 9.7 84.7 9.7 C 83.8 9.7 83.1 9.1 83.1 8.2 C 83.1 8.1 83.2 8 83.2 7.9 C 83.16 7.88 83.5 5.4 83.5 5.4 L 83.9 5.4 C 83.9 5.4 83.49 7.86 83.5 7.9 C 83.5 8 83.5 8.1 83.5 8.2 C 83.5 8.9 84 9.3 84.7 9.3 C 85.3 9.3 85.9 9 86 8 C 86.01 7.95 86.4 5.4 86.4 5.4 L 86.7 5.4 C 86.7 5.4 86.33 8.03 86.3 8 Z M 88.7 7.3 L 90.7 9.6 L 90.2 9.6 L 88.2 7.3 L 87.9 9.6 L 87.6 9.6 L 88.5 3.2 L 88.8 3.2 L 88.2 7.3 L 90.7 5.4 L 91.2 5.4 L 88.7 7.3 Z M 94.9 9.6 L 94.6 9.6 L 94.7 8.6 C 94.7 8.6 94.69 8.58 94.7 8.6 C 94.3 9.3 93.7 9.7 92.9 9.7 C 92.1 9.7 91.2 9 91.2 7.8 C 91.2 6.3 92.3 5.3 93.4 5.3 C 94.2 5.3 94.8 5.7 95 6.4 C 94.99 6.43 95 6.4 95 6.4 L 95.2 5.4 L 95.5 5.4 L 94.9 9.6 Z M 91.6 7.7 C 91.6 8.8 92.3 9.4 93 9.4 C 94.1 9.4 94.9 8.3 94.9 7.2 C 94.9 6.2 94.2 5.6 93.4 5.6 C 92.5 5.6 91.6 6.5 91.6 7.7 Z M 98 5.6 C 97.4 5.6 97 5.9 97 6.4 C 97 6.8 97.3 7 97.9 7.3 C 98.6 7.6 99.1 7.8 99.1 8.5 C 99.1 9.2 98.5 9.7 97.7 9.7 C 97.1 9.7 96.5 9.4 96.2 9.1 C 96.2 9.1 96.2 8.7 96.2 8.7 C 96.6 9.1 97.2 9.4 97.7 9.4 C 98.3 9.4 98.8 9 98.8 8.5 C 98.8 8 98.4 7.8 97.7 7.5 C 97.1 7.3 96.6 7 96.6 6.4 C 96.6 5.7 97.2 5.3 98 5.3 C 98.5 5.3 99 5.5 99.3 5.7 C 99.3 5.7 99.3 6.1 99.3 6.1 C 99 5.8 98.5 5.6 98 5.6 Z M 103.8 9.6 L 103.5 9.6 L 103.6 8.6 C 103.6 8.6 103.58 8.58 103.6 8.6 C 103.2 9.3 102.6 9.7 101.8 9.7 C 101 9.7 100.1 9 100.1 7.8 C 100.1 6.3 101.2 5.3 102.3 5.3 C 103.1 5.3 103.7 5.7 103.9 6.4 C 103.89 6.43 103.9 6.4 103.9 6.4 L 104.1 5.4 L 104.4 5.4 L 103.8 9.6 Z M 100.5 7.7 C 100.5 8.8 101.2 9.4 101.9 9.4 C 103 9.4 103.8 8.3 103.8 7.2 C 103.8 6.2 103.1 5.6 102.3 5.6 C 101.4 5.6 100.5 6.5 100.5 7.7 Z M 108.4 5.8 L 108.3 5.8 L 106.4 9.6 L 106.1 9.6 L 105.5 5.4 L 105.8 5.4 L 106.3 9.1 L 106.3 9.1 L 108.2 5.4 L 108.6 5.4 L 109.3 9.1 L 109.4 9.1 L 111 5.4 L 111.4 5.4 L 109.5 9.6 L 109.1 9.6 L 108.4 5.8 Z M 115.3 9.6 L 115 9.6 L 115.1 8.6 C 115.1 8.6 115.13 8.58 115.1 8.6 C 114.7 9.3 114.1 9.7 113.4 9.7 C 112.5 9.7 111.7 9 111.7 7.8 C 111.7 6.3 112.7 5.3 113.8 5.3 C 114.6 5.3 115.2 5.7 115.4 6.4 C 115.44 6.43 115.4 6.4 115.4 6.4 L 115.7 5.4 L 115.9 5.4 L 115.3 9.6 Z M 112 7.7 C 112 8.8 112.7 9.4 113.5 9.4 C 114.6 9.4 115.3 8.3 115.3 7.2 C 115.3 6.2 114.6 5.6 113.9 5.6 C 112.9 5.6 112 6.5 112 7.7 Z " stroke="none" fill="#000"/>
  </g>
</svg>