<?xml version="1.0" standalone="no"?>
<!DOCTYPE svg PUBLIC "-//W3C//DTD SVG 1.1//EN" "http://www.w3.org/Graphics/SVG/1.1/DTD/svg11.dtd">
<svg xmlns="http://www.w3.org/2000/svg" version="1.1" width="135px" height="34.1px" viewBox="0 0 135 34.1">
  <desc>FONCTIONS</desc>
  <defs/>
  <g id="Polygon25696">
    <path d="M 1.3 1.1 L 11.4 1.1 L 11.4 5.1 L 5.8 5.1 L 5.8 7.7 L 11 7.7 L 11 11.5 L 5.8 11.5 L 5.8 16.3 L 1.3 16.3 L 1.3 1.1 Z M 12.6 8.7 C 12.6 4 16.2 0.7 20.7 0.7 C 25.2 0.7 28.8 4 28.8 8.7 C 28.8 13.4 25.2 16.6 20.7 16.6 C 16.2 16.6 12.6 13.4 12.6 8.7 Z M 24.3 8.7 C 24.3 6.1 22.5 4.7 20.7 4.7 C 18.8 4.7 17.1 6.1 17.1 8.7 C 17.1 11.2 18.8 12.6 20.7 12.6 C 22.5 12.6 24.3 11.2 24.3 8.7 Z M 44.6 16.3 L 40.4 16.3 L 34.9 8.1 L 34.9 8.1 L 34.9 16.3 L 30.7 16.3 L 30.7 1.1 L 34.9 1.1 L 40.4 9.1 L 40.4 9.1 L 40.4 1.1 L 44.6 1.1 L 44.6 16.3 Z M 54.5 16.6 C 50.1 16.6 46.5 13.4 46.5 8.7 C 46.5 3.9 50.1 0.7 54.5 0.7 C 56.3 0.7 57.6 1.2 58.8 1.7 C 58.8 1.7 58.8 6.1 58.8 6.1 C 57.6 5.2 56.5 4.8 55.1 4.8 C 52.7 4.8 50.9 6.4 50.9 8.7 C 50.9 10.9 52.7 12.6 55.1 12.6 C 56.5 12.6 57.6 12.1 58.8 11.2 C 58.8 11.2 58.8 15.6 58.8 15.6 C 57.6 16.2 56.3 16.6 54.5 16.6 Z M 64.2 5.1 L 60 5.1 L 60 1.1 L 72.8 1.1 L 72.8 5.1 L 68.6 5.1 L 68.6 16.3 L 64.2 16.3 L 64.2 5.1 Z M 74.5 1.1 L 78.9 1.1 L 78.9 16.3 L 74.5 16.3 L 74.5 1.1 Z M 80.8 8.7 C 80.8 4 84.4 0.7 88.9 0.7 C 93.4 0.7 97 4 97 8.7 C 97 13.4 93.4 16.6 88.9 16.6 C 84.3 16.6 80.8 13.4 80.8 8.7 Z M 92.5 8.7 C 92.5 6.1 90.7 4.7 88.9 4.7 C 87 4.7 85.3 6.1 85.3 8.7 C 85.3 11.2 87 12.6 88.9 12.6 C 90.7 12.6 92.5 11.2 92.5 8.7 Z M 112.8 16.3 L 108.5 16.3 L 103.1 8.1 L 103.1 8.1 L 103.1 16.3 L 98.8 16.3 L 98.8 1.1 L 103.1 1.1 L 108.5 9.1 L 108.6 9.1 L 108.6 1.1 L 112.8 1.1 L 112.8 16.3 Z M 125 1.8 C 125 1.8 125 5.7 125 5.7 C 124.1 5 122.5 4.6 121.1 4.6 C 119.9 4.6 119.3 5 119.3 5.5 C 119.3 6 120 6.2 121.2 6.7 C 123.2 7.4 126 8.3 126 11.6 C 126 14.5 123.8 16.6 120 16.6 C 118 16.6 116.2 16 115.1 15.3 C 115.1 15.3 115.1 11.2 115.1 11.2 C 116.2 12.1 117.9 12.8 119.5 12.8 C 120.8 12.8 121.5 12.3 121.5 11.7 C 121.5 11 120.4 10.6 119.2 10.2 C 117.6 9.6 115 8.5 115 5.6 C 115 2.9 117.1 0.8 120.8 0.8 C 122.5 0.8 123.9 1.2 125 1.8 Z " stroke="none" fill="#444443"/>
  </g>
</svg>