<?xml version="1.0" standalone="no"?>
<!DOCTYPE svg PUBLIC "-//W3C//DTD SVG 1.1//EN" "http://www.w3.org/Graphics/SVG/1.1/DTD/svg11.dtd">
<svg xmlns="http://www.w3.org/2000/svg" version="1.1" width="233px" height="34.1px" viewBox="0 0 233 34.1">
  <desc>INTERFACE</desc>
  <defs/>
  <g id="Polygon26026">
    <path d="M 59 1.1 L 63.4 1.1 L 63.4 16.3 L 59 16.3 L 59 1.1 Z M 80 16.3 L 75.7 16.3 L 70.3 8.1 L 70.3 8.1 L 70.3 16.3 L 66 16.3 L 66 1.1 L 70.3 1.1 L 75.7 9.1 L 75.8 9.1 L 75.8 1.1 L 80 1.1 L 80 16.3 Z M 85.8 5.1 L 81.7 5.1 L 81.7 1.1 L 94.4 1.1 L 94.4 5.1 L 90.3 5.1 L 90.3 16.3 L 85.8 16.3 L 85.8 5.1 Z M 96.1 1.1 L 106.6 1.1 L 106.6 5 L 100.6 5 L 100.6 6.9 L 106 6.9 L 106 10.4 L 100.6 10.4 L 100.6 12.3 L 106.6 12.3 L 106.6 16.3 L 96.1 16.3 L 96.1 1.1 Z M 121.6 16.3 L 116.3 16.3 L 113.5 11.6 L 113.4 11.6 L 113.4 16.3 L 108.9 16.3 L 108.9 1.1 C 108.9 1.1 114.33 1.08 114.3 1.1 C 118.1 1.1 120.8 2.8 120.8 6.4 C 120.8 7.8 120.1 9.9 117.6 10.9 C 117.62 10.92 121.6 16.3 121.6 16.3 Z M 114.3 8.3 C 115.4 8.3 116.3 7.7 116.3 6.7 C 116.3 5.6 115.4 5.1 114.3 5.1 C 114.29 5.08 113.4 5.1 113.4 5.1 L 113.4 8.3 C 113.4 8.3 114.31 8.25 114.3 8.3 Z M 123 1.1 L 133.1 1.1 L 133.1 5.1 L 127.5 5.1 L 127.5 7.7 L 132.7 7.7 L 132.7 11.5 L 127.5 11.5 L 127.5 16.3 L 123 16.3 L 123 1.1 Z M 144.6 16.3 L 143.6 13.3 L 138.5 13.3 L 137.6 16.3 L 133 16.3 L 138.5 1.1 L 143.6 1.1 L 149.2 16.3 L 144.6 16.3 Z M 139.7 9.7 L 142.4 9.7 L 141 5.6 L 139.7 9.7 Z M 157 16.6 C 152.6 16.6 149 13.4 149 8.7 C 149 3.9 152.6 0.7 157 0.7 C 158.8 0.7 160.1 1.2 161.3 1.7 C 161.3 1.7 161.3 6.1 161.3 6.1 C 160.1 5.2 159 4.8 157.6 4.8 C 155.2 4.8 153.5 6.4 153.5 8.7 C 153.5 10.9 155.2 12.6 157.6 12.6 C 159 12.6 160.1 12.1 161.3 11.2 C 161.3 11.2 161.3 15.6 161.3 15.6 C 160.1 16.2 158.8 16.6 157 16.6 Z M 163.5 1.1 L 174 1.1 L 174 5 L 167.9 5 L 167.9 6.9 L 173.4 6.9 L 173.4 10.4 L 167.9 10.4 L 167.9 12.3 L 174 12.3 L 174 16.3 L 163.5 16.3 L 163.5 1.1 Z " stroke="none" fill="#444443"/>
  </g>
</svg>