<?xml version="1.0" standalone="no"?>
<!DOCTYPE svg PUBLIC "-//W3C//DTD SVG 1.1//EN" "http://www.w3.org/Graphics/SVG/1.1/DTD/svg11.dtd">
<svg xmlns="http://www.w3.org/2000/svg" version="1.1" width="305.4px" height="123.7px" viewBox="0 0 305.4 123.7">
  <desc>Dipl me de BTS</desc>
  <defs/>
  <g id="Polygon29288">
    <path d="M 1.8 10.1 C 1.8 10.1 7.27 10.08 7.3 10.1 C 9.4 10.1 10.9 10.6 11.8 11.6 C 12.8 12.6 13.3 14.1 13.3 16.3 C 13.3 16.3 13.3 20.6 13.3 20.6 C 13.3 22.8 12.8 24.4 11.8 25.4 C 10.9 26.4 9.4 26.9 7.3 26.9 C 7.27 26.88 1.8 26.9 1.8 26.9 L 1.8 25 L 3.2 25 L 3.2 12 L 1.8 12 L 1.8 10.1 Z M 7 25 C 7.7 25 8.4 24.9 8.9 24.8 C 9.4 24.6 9.9 24.4 10.2 24.1 C 10.6 23.7 10.8 23.3 11 22.7 C 11.2 22.1 11.3 21.4 11.3 20.5 C 11.3 20.5 11.3 16.5 11.3 16.5 C 11.3 15.6 11.2 14.9 11 14.3 C 10.8 13.7 10.6 13.2 10.2 12.9 C 9.9 12.6 9.4 12.3 8.9 12.2 C 8.4 12 7.7 12 7 12 C 6.98 11.95 5.2 12 5.2 12 L 5.2 25 C 5.2 25 6.98 25.01 7 25 Z M 20.5 11.4 C 20.5 11 20.6 10.6 21 10.2 C 21.3 9.9 21.7 9.7 22.2 9.7 C 22.6 9.7 23 9.9 23.3 10.2 C 23.7 10.6 23.8 11 23.8 11.4 C 23.8 11.9 23.7 12.3 23.3 12.6 C 23 12.9 22.6 13.1 22.2 13.1 C 21.7 13.1 21.3 12.9 21 12.6 C 20.6 12.3 20.5 11.9 20.5 11.4 Z M 17.1 25.2 L 21.2 25.2 L 21.2 16.7 L 17.5 16.7 L 17.5 15 L 23.1 15 L 23.1 25.2 L 27 25.2 L 27 26.9 L 17.1 26.9 L 17.1 25.2 Z M 32.9 31.7 L 31 31.7 L 31 15 L 32.9 15 L 32.9 16.8 C 32.9 16.8 33.19 16.85 33.2 16.8 C 33.6 16.1 34.2 15.6 34.9 15.2 C 35.7 14.8 36.5 14.6 37.3 14.6 C 38.1 14.6 38.8 14.8 39.4 15 C 40.1 15.3 40.6 15.7 41.1 16.2 C 41.7 16.7 42.1 17.4 42.3 18.1 C 42.6 18.9 42.8 19.7 42.8 20.7 C 42.8 20.7 42.8 21.2 42.8 21.2 C 42.8 22.1 42.6 23 42.4 23.8 C 42.1 24.5 41.7 25.1 41.2 25.7 C 40.7 26.2 40.1 26.6 39.4 26.8 C 38.7 27.1 38 27.2 37.3 27.2 C 36.9 27.2 36.5 27.2 36.1 27.1 C 35.7 27 35.3 26.9 35 26.7 C 34.6 26.5 34.3 26.3 34 26 C 33.7 25.7 33.4 25.4 33.2 25.1 C 33.19 25.06 32.9 25.1 32.9 25.1 L 32.9 31.7 Z M 36.9 25.4 C 37.5 25.4 38 25.3 38.5 25.1 C 39 24.9 39.4 24.7 39.7 24.3 C 40.1 23.9 40.4 23.5 40.6 22.9 C 40.8 22.4 40.9 21.8 40.9 21.2 C 40.9 21.2 40.9 20.7 40.9 20.7 C 40.9 20 40.8 19.5 40.6 18.9 C 40.4 18.4 40.1 18 39.7 17.6 C 39.4 17.2 38.9 16.9 38.5 16.7 C 38 16.5 37.4 16.4 36.9 16.4 C 36.3 16.4 35.8 16.5 35.3 16.7 C 34.8 17 34.4 17.3 34.1 17.6 C 33.7 18 33.4 18.5 33.2 19 C 33 19.6 32.9 20.1 32.9 20.8 C 32.9 20.8 32.9 21.1 32.9 21.1 C 32.9 21.7 33 22.3 33.2 22.9 C 33.4 23.4 33.7 23.9 34.1 24.2 C 34.4 24.6 34.8 24.9 35.3 25.1 C 35.8 25.3 36.3 25.4 36.9 25.4 Z M 46.2 25.2 L 50.5 25.2 L 50.5 11.8 L 46.3 11.8 L 46.3 10.1 L 52.3 10.1 L 52.3 25.2 L 56.7 25.2 L 56.7 26.9 L 46.2 26.9 L 46.2 25.2 Z M 72.1 21.1 C 72.1 22.1 71.9 22.9 71.6 23.7 C 71.3 24.5 70.8 25.1 70.3 25.6 C 69.7 26.1 69.1 26.5 68.4 26.8 C 67.6 27.1 66.9 27.2 66.1 27.2 C 65.3 27.2 64.5 27.1 63.8 26.8 C 63.1 26.5 62.5 26.1 61.9 25.6 C 61.4 25.1 60.9 24.5 60.6 23.7 C 60.3 22.9 60.1 22.1 60.1 21.1 C 60.1 21.1 60.1 20.8 60.1 20.8 C 60.1 19.8 60.3 18.9 60.6 18.2 C 60.9 17.4 61.4 16.8 61.9 16.2 C 62.5 15.7 63.1 15.3 63.8 15 C 64.6 14.8 65.3 14.6 66.1 14.6 C 66.9 14.6 67.6 14.8 68.4 15 C 69.1 15.3 69.7 15.7 70.3 16.2 C 70.8 16.8 71.3 17.4 71.6 18.2 C 71.9 18.9 72.1 19.8 72.1 20.8 C 72.1 20.8 72.1 21.1 72.1 21.1 Z M 66.1 25.4 C 66.7 25.4 67.2 25.3 67.7 25.1 C 68.2 24.9 68.6 24.6 69 24.3 C 69.3 23.9 69.6 23.4 69.8 22.9 C 70 22.3 70.2 21.7 70.2 21.1 C 70.2 21.1 70.2 20.8 70.2 20.8 C 70.2 20.1 70 19.6 69.8 19 C 69.6 18.5 69.3 18 69 17.6 C 68.6 17.3 68.2 17 67.7 16.7 C 67.2 16.5 66.7 16.4 66.1 16.4 C 65.5 16.4 65 16.5 64.5 16.7 C 64 17 63.6 17.3 63.2 17.6 C 62.8 18 62.6 18.5 62.4 19 C 62.1 19.6 62 20.1 62 20.8 C 62 20.8 62 21.1 62 21.1 C 62 21.7 62.1 22.3 62.4 22.9 C 62.6 23.4 62.8 23.9 63.2 24.3 C 63.6 24.6 64 24.9 64.5 25.1 C 65 25.3 65.5 25.4 66.1 25.4 Z M 67.5 13.2 L 66.2 11.1 L 66 11.1 L 64.7 13.2 L 62.7 13.2 L 64.6 10.4 L 67.6 10.4 L 69.5 13.2 L 67.5 13.2 Z M 87 26.9 L 85.1 26.9 C 85.1 26.9 85.1 18.34 85.1 18.3 C 85.1 17.8 85 17.3 84.7 17 C 84.5 16.6 84.1 16.4 83.5 16.4 C 83 16.4 82.5 16.6 82.2 17 C 81.9 17.4 81.7 18 81.7 18.8 C 81.72 18.82 81.7 26.9 81.7 26.9 L 79.8 26.9 C 79.8 26.9 79.85 18.24 79.8 18.2 C 79.8 17.7 79.7 17.3 79.4 16.9 C 79.1 16.6 78.7 16.4 78.3 16.4 C 77.7 16.4 77.2 16.6 76.9 17 C 76.6 17.5 76.5 18 76.5 18.7 C 76.46 18.67 76.5 26.9 76.5 26.9 L 74.6 26.9 L 74.6 15 L 76.5 15 L 76.5 16.3 C 76.5 16.3 76.75 16.27 76.8 16.3 C 77 15.7 77.3 15.3 77.7 15 C 78.1 14.8 78.5 14.6 79.1 14.6 C 79.7 14.6 80.1 14.8 80.5 15.1 C 80.9 15.4 81.1 15.8 81.3 16.3 C 81.3 16.3 81.6 16.3 81.6 16.3 C 82.1 15.2 83 14.6 84.2 14.6 C 85.1 14.6 85.8 14.9 86.2 15.5 C 86.7 16.1 87 16.8 87 17.7 C 86.98 17.71 87 26.9 87 26.9 Z M 91.6 21.5 C 91.6 22.7 92 23.6 92.7 24.4 C 93.4 25.1 94.3 25.4 95.6 25.4 C 96.1 25.4 96.6 25.4 97 25.2 C 97.4 25.1 97.8 24.9 98.1 24.7 C 98.4 24.5 98.6 24.2 98.8 23.9 C 99 23.6 99.2 23.3 99.3 23 C 99.3 23 101 23.5 101 23.5 C 100.7 24.6 100.1 25.5 99.2 26.2 C 98.3 26.9 97.1 27.2 95.5 27.2 C 94.7 27.2 93.9 27.1 93.2 26.8 C 92.5 26.5 91.9 26.1 91.3 25.5 C 90.8 25 90.4 24.3 90.1 23.6 C 89.9 22.8 89.7 22 89.7 21.1 C 89.7 21.1 89.7 20.5 89.7 20.5 C 89.7 19.7 89.9 18.9 90.2 18.2 C 90.5 17.4 90.9 16.8 91.4 16.3 C 91.9 15.8 92.5 15.4 93.3 15.1 C 94 14.8 94.7 14.6 95.6 14.6 C 96.5 14.6 97.4 14.8 98.1 15.2 C 98.8 15.5 99.4 16 99.9 16.5 C 100.3 17 100.6 17.6 100.9 18.2 C 101.1 18.9 101.2 19.4 101.2 20 C 101.18 19.97 101.2 21.5 101.2 21.5 C 101.2 21.5 91.58 21.5 91.6 21.5 Z M 95.6 16.4 C 95 16.4 94.5 16.5 94.1 16.7 C 93.6 16.8 93.2 17.1 92.9 17.4 C 92.5 17.7 92.3 18 92.1 18.4 C 91.8 18.9 91.7 19.3 91.6 19.8 C 91.6 19.8 99.3 19.8 99.3 19.8 C 99.3 19.3 99.2 18.8 98.9 18.4 C 98.7 18 98.4 17.6 98.1 17.3 C 97.8 17 97.4 16.8 96.9 16.7 C 96.5 16.5 96 16.4 95.6 16.4 Z M 128.8 25.1 C 128.8 25.1 128.52 25.06 128.5 25.1 C 128.3 25.4 128.1 25.7 127.8 26 C 127.5 26.3 127.2 26.5 126.8 26.7 C 126.5 26.9 126.1 27 125.7 27.1 C 125.4 27.2 125 27.2 124.6 27.2 C 123.8 27.2 123.1 27.1 122.4 26.8 C 121.7 26.5 121.1 26.1 120.6 25.6 C 120.1 25.1 119.7 24.5 119.4 23.7 C 119.1 23 118.9 22.1 118.9 21.1 C 118.9 21.1 118.9 20.7 118.9 20.7 C 118.9 19.8 119.1 18.9 119.4 18.2 C 119.7 17.4 120.1 16.8 120.6 16.2 C 121.1 15.7 121.7 15.3 122.4 15 C 123.1 14.8 123.8 14.6 124.6 14.6 C 125.4 14.6 126.2 14.8 126.9 15.2 C 127.6 15.5 128.1 16.1 128.5 16.8 C 128.52 16.85 128.8 16.8 128.8 16.8 L 128.8 10.1 L 130.7 10.1 L 130.7 26.9 L 128.8 26.9 L 128.8 25.1 Z M 124.8 25.4 C 125.4 25.4 125.9 25.3 126.4 25.1 C 126.9 24.9 127.3 24.6 127.6 24.2 C 128 23.9 128.3 23.4 128.5 22.9 C 128.7 22.3 128.8 21.7 128.8 21.1 C 128.8 21.1 128.8 20.8 128.8 20.8 C 128.8 20.1 128.7 19.6 128.5 19 C 128.3 18.5 128 18 127.6 17.6 C 127.3 17.3 126.9 17 126.4 16.7 C 125.9 16.5 125.4 16.4 124.8 16.4 C 124.3 16.4 123.7 16.5 123.3 16.7 C 122.8 16.9 122.3 17.2 122 17.6 C 121.6 18 121.3 18.5 121.1 19 C 120.9 19.5 120.8 20.1 120.8 20.7 C 120.8 20.7 120.8 21.1 120.8 21.1 C 120.8 21.8 120.9 22.4 121.1 22.9 C 121.3 23.4 121.6 23.9 122 24.3 C 122.3 24.7 122.8 24.9 123.2 25.1 C 123.7 25.3 124.2 25.4 124.8 25.4 Z M 135.6 21.5 C 135.7 22.7 136.1 23.6 136.8 24.4 C 137.4 25.1 138.4 25.4 139.6 25.4 C 140.2 25.4 140.7 25.4 141.1 25.2 C 141.5 25.1 141.9 24.9 142.2 24.7 C 142.5 24.5 142.7 24.2 142.9 23.9 C 143.1 23.6 143.2 23.3 143.3 23 C 143.3 23 145.1 23.5 145.1 23.5 C 144.8 24.6 144.1 25.5 143.2 26.2 C 142.3 26.9 141.1 27.2 139.6 27.2 C 138.7 27.2 138 27.1 137.2 26.8 C 136.5 26.5 135.9 26.1 135.4 25.5 C 134.9 25 134.5 24.3 134.2 23.6 C 133.9 22.8 133.8 22 133.8 21.1 C 133.8 21.1 133.8 20.5 133.8 20.5 C 133.8 19.7 133.9 18.9 134.2 18.2 C 134.5 17.4 134.9 16.8 135.5 16.3 C 136 15.8 136.6 15.4 137.3 15.1 C 138 14.8 138.8 14.6 139.6 14.6 C 140.6 14.6 141.5 14.8 142.2 15.2 C 142.9 15.5 143.5 16 143.9 16.5 C 144.4 17 144.7 17.6 144.9 18.2 C 145.1 18.9 145.2 19.4 145.2 20 C 145.25 19.97 145.2 21.5 145.2 21.5 C 145.2 21.5 135.65 21.5 135.6 21.5 Z M 139.6 16.4 C 139.1 16.4 138.6 16.5 138.2 16.7 C 137.7 16.8 137.3 17.1 137 17.4 C 136.6 17.7 136.3 18 136.1 18.4 C 135.9 18.9 135.8 19.3 135.7 19.8 C 135.7 19.8 143.4 19.8 143.4 19.8 C 143.3 19.3 143.2 18.8 143 18.4 C 142.8 18 142.5 17.6 142.2 17.3 C 141.8 17 141.4 16.8 141 16.7 C 140.5 16.5 140.1 16.4 139.6 16.4 Z M 162.9 25 L 164.4 25 L 164.4 12 L 162.9 12 L 162.9 10.1 C 162.9 10.1 169.73 10.08 169.7 10.1 C 170.5 10.1 171.2 10.2 171.9 10.4 C 172.5 10.6 173 10.9 173.4 11.3 C 173.8 11.7 174.2 12.2 174.4 12.7 C 174.6 13.2 174.7 13.8 174.7 14.4 C 174.7 14.4 174.7 14.7 174.7 14.7 C 174.7 15.2 174.6 15.6 174.5 16 C 174.3 16.4 174.1 16.7 173.9 17 C 173.6 17.3 173.3 17.6 173 17.8 C 172.6 18 172.3 18.2 171.9 18.3 C 171.9 18.3 171.9 18.6 171.9 18.6 C 172.7 18.8 173.3 19.3 173.9 19.9 C 174.4 20.5 174.7 21.3 174.7 22.2 C 174.7 22.2 174.7 22.5 174.7 22.5 C 174.7 23.1 174.6 23.7 174.4 24.2 C 174.2 24.8 173.8 25.2 173.4 25.6 C 173 26 172.5 26.3 171.9 26.5 C 171.2 26.8 170.5 26.9 169.7 26.9 C 169.73 26.88 162.9 26.9 162.9 26.9 L 162.9 25 Z M 166.4 25 C 166.4 25 169.58 25.01 169.6 25 C 170.5 25 171.3 24.8 171.9 24.3 C 172.5 23.8 172.8 23.2 172.8 22.3 C 172.8 22.3 172.8 22.2 172.8 22.2 C 172.8 21.3 172.5 20.7 171.9 20.1 C 171.4 19.6 170.6 19.4 169.7 19.4 C 169.66 19.39 166.4 19.4 166.4 19.4 L 166.4 25 Z M 166.4 17.5 C 166.4 17.5 169.66 17.52 169.7 17.5 C 170.6 17.5 171.4 17.3 171.9 16.8 C 172.5 16.3 172.8 15.6 172.8 14.7 C 172.8 14.7 172.8 14.6 172.8 14.6 C 172.8 13.8 172.5 13.1 171.9 12.7 C 171.3 12.2 170.5 12 169.6 12 C 169.58 11.95 166.4 12 166.4 12 L 166.4 17.5 Z M 177.7 10.1 L 189.5 10.1 L 189.5 12 L 184.6 12 L 184.6 26.9 L 182.6 26.9 L 182.6 12 L 177.7 12 L 177.7 10.1 Z M 202.2 14.9 C 202.2 14.4 202.1 13.9 201.9 13.5 C 201.7 13.1 201.4 12.7 201 12.5 C 200.7 12.2 200.3 12 199.8 11.8 C 199.3 11.7 198.8 11.6 198.3 11.6 C 197.8 11.6 197.4 11.7 196.9 11.8 C 196.5 11.9 196.2 12.1 195.8 12.3 C 195.5 12.5 195.2 12.8 195 13.1 C 194.9 13.5 194.8 13.8 194.8 14.3 C 194.8 14.3 194.8 14.4 194.8 14.4 C 194.8 14.9 194.9 15.3 195 15.6 C 195.2 15.9 195.5 16.2 195.9 16.5 C 196.3 16.7 196.7 16.9 197.3 17 C 197.9 17.2 198.5 17.3 199.3 17.4 C 201 17.7 202.3 18.2 203.2 19 C 204 19.7 204.4 20.8 204.4 22 C 204.4 22 204.4 22.3 204.4 22.3 C 204.4 23 204.3 23.7 204 24.3 C 203.8 24.9 203.4 25.4 202.9 25.8 C 202.4 26.3 201.8 26.6 201.1 26.9 C 200.4 27.1 199.6 27.2 198.6 27.2 C 197.6 27.2 196.6 27.1 195.8 26.7 C 195 26.4 194.3 26 193.7 25.5 C 193.2 24.9 192.7 24.3 192.5 23.5 C 192.2 22.8 192 22 192 21.1 C 192.02 21.07 192 20.4 192 20.4 L 194 20.4 C 194 20.4 194.04 20.93 194 20.9 C 194 22.4 194.4 23.5 195.3 24.2 C 196.1 25 197.2 25.3 198.6 25.3 C 199.9 25.3 200.8 25.1 201.4 24.5 C 202.1 24 202.4 23.2 202.4 22.3 C 202.4 22.3 202.4 22.2 202.4 22.2 C 202.4 21.3 202.1 20.6 201.4 20.2 C 200.8 19.7 199.7 19.4 198.3 19.2 C 197.4 19 196.7 18.9 196 18.6 C 195.3 18.4 194.7 18.1 194.2 17.7 C 193.8 17.3 193.4 16.9 193.1 16.4 C 192.9 15.8 192.7 15.2 192.7 14.5 C 192.7 14.5 192.7 14.2 192.7 14.2 C 192.7 13.6 192.9 13 193.2 12.4 C 193.4 11.9 193.8 11.4 194.3 11 C 194.8 10.6 195.4 10.3 196 10.1 C 196.7 9.9 197.5 9.7 198.3 9.7 C 199.2 9.7 200.1 9.9 200.8 10.2 C 201.6 10.4 202.2 10.8 202.7 11.2 C 203.2 11.7 203.6 12.2 203.9 12.9 C 204.1 13.5 204.3 14.1 204.3 14.8 C 204.26 14.78 204.3 15.8 204.3 15.8 L 202.2 15.8 C 202.2 15.8 202.25 14.93 202.2 14.9 Z " stroke="none" fill="#000"/>
  </g>
</svg>