<?xml version="1.0" standalone="no"?>
<!DOCTYPE svg PUBLIC "-//W3C//DTD SVG 1.1//EN" "http://www.w3.org/Graphics/SVG/1.1/DTD/svg11.dtd">
<svg xmlns="http://www.w3.org/2000/svg" version="1.1" width="85px" height="14.6px" viewBox="0 0 85 14.6">
  <desc>Lexon, enceinte Mino</desc>
  <defs/>
  <g id="Polygon23815">
    <path d="M 1.4 0.5 L 1.8 0.5 L 1 6.1 L 3.7 6.1 L 3.6 6.4 L 0.6 6.4 L 1.4 0.5 Z M 4.6 4.4 C 4.6 4.4 4.58 4.5 4.6 4.5 C 4.6 5.6 5.2 6.2 6.2 6.2 C 6.6 6.2 7.1 6 7.6 5.6 C 7.6 5.6 7.5 6 7.5 6 C 7.1 6.3 6.6 6.5 6.1 6.5 C 5 6.5 4.2 5.8 4.2 4.6 C 4.2 3.2 5.2 2.1 6.4 2.1 C 7.3 2.1 8 2.8 8 3.8 C 8 4 8 4.2 7.9 4.4 C 7.91 4.39 4.6 4.4 4.6 4.4 Z M 4.6 4.1 C 4.6 4.1 7.6 4.1 7.6 4.1 C 7.7 4 7.7 3.9 7.7 3.8 C 7.7 2.9 7.1 2.4 6.4 2.4 C 5.6 2.4 4.8 3 4.6 4.1 Z M 10.4 4.3 L 11.7 6.4 L 11.3 6.4 L 10.2 4.5 L 8.7 6.4 L 8.3 6.4 L 10.1 4.2 L 8.9 2.2 L 9.3 2.2 L 10.3 4 L 11.8 2.2 L 12.2 2.2 L 10.4 4.3 Z M 12.5 4.6 C 12.5 3.1 13.5 2.1 14.8 2.1 C 15.8 2.1 16.6 2.8 16.6 4 C 16.6 5.4 15.5 6.5 14.3 6.5 C 13.2 6.5 12.5 5.7 12.5 4.6 Z M 16.2 4 C 16.2 3 15.6 2.4 14.8 2.4 C 13.7 2.4 12.8 3.3 12.8 4.6 C 12.8 5.6 13.4 6.2 14.3 6.2 C 15.3 6.2 16.2 5.3 16.2 4 Z M 18.3 2.2 L 18.3 2.9 C 18.3 2.9 18.27 2.9 18.3 2.9 C 18.6 2.4 19.1 2.1 19.7 2.1 C 20.5 2.1 21.1 2.6 21.1 3.4 C 21.1 3.4 21.1 3.5 21 3.7 C 21.04 3.68 20.6 6.4 20.6 6.4 L 20.3 6.4 C 20.3 6.4 20.7 3.71 20.7 3.7 C 20.7 3.6 20.7 3.5 20.7 3.4 C 20.7 2.8 20.3 2.4 19.7 2.4 C 18.9 2.4 18.3 3 18.2 3.7 C 18.17 3.72 17.8 6.4 17.8 6.4 L 17.4 6.4 L 18.1 2.2 L 18.3 2.2 Z M 22.5 5.7 C 22.4 6.3 22.1 6.9 21.8 7.5 C 21.8 7.5 21.5 7.5 21.5 7.5 C 21.8 7 22.1 6.4 22.2 5.7 C 22.2 5.6 22.2 5.5 22.2 5.5 C 22.2 5.5 22.6 5.5 22.6 5.5 C 22.6 5.5 22.5 5.6 22.5 5.7 Z M 26.5 4.4 C 26.5 4.4 26.5 4.5 26.5 4.5 C 26.5 5.6 27.1 6.2 28.1 6.2 C 28.6 6.2 29 6 29.5 5.6 C 29.5 5.6 29.5 6 29.5 6 C 29.1 6.3 28.6 6.5 28 6.5 C 26.9 6.5 26.2 5.8 26.2 4.6 C 26.2 3.2 27.1 2.1 28.3 2.1 C 29.3 2.1 29.9 2.8 29.9 3.8 C 29.9 4 29.9 4.2 29.8 4.4 C 29.83 4.39 26.5 4.4 26.5 4.4 Z M 26.5 4.1 C 26.5 4.1 29.6 4.1 29.6 4.1 C 29.6 4 29.6 3.9 29.6 3.8 C 29.6 2.9 29 2.4 28.3 2.4 C 27.5 2.4 26.7 3 26.5 4.1 Z M 31.6 2.2 L 31.6 2.9 C 31.6 2.9 31.58 2.9 31.6 2.9 C 31.9 2.4 32.4 2.1 33 2.1 C 33.8 2.1 34.4 2.6 34.4 3.4 C 34.4 3.4 34.4 3.5 34.3 3.7 C 34.34 3.68 33.9 6.4 33.9 6.4 L 33.6 6.4 C 33.6 6.4 34.01 3.71 34 3.7 C 34 3.6 34 3.5 34 3.4 C 34 2.8 33.6 2.4 33 2.4 C 32.2 2.4 31.6 3 31.5 3.7 C 31.47 3.72 31.1 6.4 31.1 6.4 L 30.7 6.4 L 31.4 2.2 L 31.6 2.2 Z M 37.7 2.4 C 36.7 2.4 35.7 3.3 35.7 4.5 C 35.7 5.5 36.4 6.2 37.2 6.2 C 37.6 6.2 38 6.1 38.4 5.8 C 38.4 5.8 38.3 6.2 38.3 6.2 C 38 6.4 37.6 6.5 37.2 6.5 C 36.2 6.5 35.4 5.7 35.4 4.5 C 35.4 3.2 36.4 2.1 37.7 2.1 C 38.2 2.1 38.5 2.2 38.8 2.4 C 38.8 2.4 38.8 2.7 38.8 2.7 C 38.5 2.5 38.1 2.4 37.7 2.4 Z M 39.7 4.4 C 39.7 4.4 39.67 4.5 39.7 4.5 C 39.7 5.6 40.3 6.2 41.3 6.2 C 41.7 6.2 42.2 6 42.7 5.6 C 42.7 5.6 42.6 6 42.6 6 C 42.2 6.3 41.7 6.5 41.2 6.5 C 40.1 6.5 39.3 5.8 39.3 4.6 C 39.3 3.2 40.3 2.1 41.5 2.1 C 42.4 2.1 43.1 2.8 43.1 3.8 C 43.1 4 43 4.2 43 4.4 C 43.01 4.39 39.7 4.4 39.7 4.4 Z M 39.7 4.1 C 39.7 4.1 42.7 4.1 42.7 4.1 C 42.8 4 42.8 3.9 42.8 3.8 C 42.8 2.9 42.2 2.4 41.5 2.4 C 40.6 2.4 39.9 3 39.7 4.1 Z M 45.2 0.6 C 45.2 0.8 45.1 0.9 44.9 0.9 C 44.8 0.9 44.7 0.8 44.7 0.6 C 44.7 0.5 44.8 0.3 45 0.3 C 45.1 0.3 45.2 0.4 45.2 0.6 Z M 44.6 2.2 L 44.9 2.2 L 44.3 6.4 L 44 6.4 L 44.6 2.2 Z M 46.7 2.2 L 46.6 2.9 C 46.6 2.9 46.66 2.9 46.7 2.9 C 47 2.4 47.5 2.1 48.1 2.1 C 48.9 2.1 49.5 2.6 49.5 3.4 C 49.5 3.4 49.4 3.5 49.4 3.7 C 49.42 3.68 49 6.4 49 6.4 L 48.7 6.4 C 48.7 6.4 49.09 3.71 49.1 3.7 C 49.1 3.6 49.1 3.5 49.1 3.4 C 49.1 2.8 48.7 2.4 48 2.4 C 47.3 2.4 46.7 3 46.6 3.7 C 46.55 3.72 46.2 6.4 46.2 6.4 L 45.8 6.4 L 46.4 2.2 L 46.7 2.2 Z M 51.9 6.4 C 51.2 6.4 50.7 6.1 50.7 5.4 C 50.7 5.3 50.7 5.2 50.8 5.1 C 50.75 5.09 51.1 2.5 51.1 2.5 L 50.5 2.5 L 50.5 2.2 L 51.2 2.2 L 51.3 1.2 L 51.7 1.2 L 51.5 2.2 L 52.8 2.2 L 52.8 2.5 L 51.5 2.5 C 51.5 2.5 51.09 5.12 51.1 5.1 C 51.1 5.2 51.1 5.3 51.1 5.4 C 51.1 5.9 51.4 6.1 51.9 6.1 C 52.1 6.1 52.3 6.1 52.4 6 C 52.4 6 52.4 6.4 52.4 6.4 C 52.3 6.4 52 6.4 51.9 6.4 Z M 53.5 4.4 C 53.5 4.4 53.54 4.5 53.5 4.5 C 53.5 5.6 54.2 6.2 55.1 6.2 C 55.6 6.2 56.1 6 56.6 5.6 C 56.6 5.6 56.5 6 56.5 6 C 56.1 6.3 55.6 6.5 55.1 6.5 C 54 6.5 53.2 5.8 53.2 4.6 C 53.2 3.2 54.2 2.1 55.4 2.1 C 56.3 2.1 57 2.8 57 3.8 C 57 4 56.9 4.2 56.9 4.4 C 56.87 4.39 53.5 4.4 53.5 4.4 Z M 53.6 4.1 C 53.6 4.1 56.6 4.1 56.6 4.1 C 56.6 4 56.6 3.9 56.6 3.8 C 56.6 2.9 56 2.4 55.3 2.4 C 54.5 2.4 53.7 3 53.6 4.1 Z M 66.5 6.4 L 66.1 6.4 L 66 1 L 66 1 L 63.3 6.4 L 63 6.4 L 61.9 1 L 61.8 1 L 60.2 6.4 L 59.8 6.4 L 61.7 0.5 L 62.1 0.5 L 63.2 5.9 L 65.9 0.5 L 66.3 0.5 L 66.5 6.4 Z M 69 0.6 C 69 0.8 68.9 0.9 68.7 0.9 C 68.6 0.9 68.5 0.8 68.5 0.6 C 68.5 0.5 68.6 0.3 68.7 0.3 C 68.9 0.3 69 0.4 69 0.6 Z M 68.4 2.2 L 68.7 2.2 L 68.1 6.4 L 67.7 6.4 L 68.4 2.2 Z M 70.5 2.2 L 70.4 2.9 C 70.4 2.9 70.45 2.9 70.4 2.9 C 70.7 2.4 71.3 2.1 71.9 2.1 C 72.7 2.1 73.2 2.6 73.2 3.4 C 73.2 3.4 73.2 3.5 73.2 3.7 C 73.22 3.68 72.8 6.4 72.8 6.4 L 72.5 6.4 C 72.5 6.4 72.88 3.71 72.9 3.7 C 72.9 3.6 72.9 3.5 72.9 3.4 C 72.9 2.8 72.5 2.4 71.8 2.4 C 71.1 2.4 70.4 3 70.3 3.7 C 70.34 3.72 70 6.4 70 6.4 L 69.6 6.4 L 70.2 2.2 L 70.5 2.2 Z M 74.3 4.6 C 74.3 3.1 75.3 2.1 76.6 2.1 C 77.6 2.1 78.3 2.8 78.3 4 C 78.3 5.4 77.3 6.5 76.1 6.5 C 75 6.5 74.3 5.7 74.3 4.6 Z M 78 4 C 78 3 77.4 2.4 76.5 2.4 C 75.5 2.4 74.6 3.3 74.6 4.6 C 74.6 5.6 75.2 6.2 76.1 6.2 C 77.1 6.2 78 5.3 78 4 Z " stroke="none" fill="#000"/>
  </g>
</svg>