<?xml version="1.0" standalone="no"?>
<!DOCTYPE svg PUBLIC "-//W3C//DTD SVG 1.1//EN" "http://www.w3.org/Graphics/SVG/1.1/DTD/svg11.dtd">
<svg xmlns="http://www.w3.org/2000/svg" version="1.1" width="330px" height="92.3px" viewBox="0 0 330 92.3">
  <desc>Autant que leur interface, le format des cha nes hi-fi est rattacher l univers sonore Que ce soit en amenant des</desc>
  <defs/>
  <g id="Polygon24055">
    <path d="M 1.1 57.9 L 1.5 57.9 C 1.5 57.9 1.53 59.44 1.5 59.4 C 2 58.3 3 57.8 3.9 57.8 C 5.4 57.8 6.7 59 6.7 60.9 C 6.7 62.9 5.4 64.1 3.9 64.1 C 2.9 64.1 2 63.5 1.6 62.5 C 1.56 62.5 1.6 66.4 1.6 66.4 L 1.1 66.4 L 1.1 57.9 Z M 6.2 60.9 C 6.2 59.3 5.1 58.3 3.9 58.3 C 2.6 58.3 1.5 59.3 1.5 60.9 C 1.5 62.6 2.6 63.6 3.9 63.6 C 5.1 63.6 6.2 62.6 6.2 60.9 Z M 8 60.9 C 8 59.1 9.3 57.8 10.9 57.8 C 12.5 57.8 13.8 59.1 13.8 60.9 C 13.8 62.8 12.5 64.1 10.9 64.1 C 9.3 64.1 8 62.8 8 60.9 Z M 13.3 60.9 C 13.3 59.3 12.1 58.3 10.9 58.3 C 9.7 58.3 8.5 59.3 8.5 60.9 C 8.5 62.6 9.7 63.6 10.9 63.6 C 12.1 63.6 13.3 62.6 13.3 60.9 Z M 18.9 58.3 C 18.9 58.3 18.9 58.9 18.9 58.9 C 18.4 58.5 17.8 58.3 17.2 58.3 C 16.3 58.3 15.7 58.7 15.7 59.4 C 15.7 60.1 16.3 60.4 17.3 60.7 C 18.2 61 19.2 61.3 19.2 62.4 C 19.2 63.4 18.4 64.1 17.1 64.1 C 16.4 64.1 15.7 63.9 15.1 63.4 C 15.1 63.4 15.1 62.8 15.1 62.8 C 15.6 63.3 16.3 63.6 17.1 63.6 C 18.1 63.6 18.7 63.1 18.7 62.4 C 18.7 61.6 18 61.4 17.1 61.1 C 16.1 60.7 15.2 60.4 15.2 59.4 C 15.2 58.5 16 57.8 17.2 57.8 C 17.8 57.8 18.4 58 18.9 58.3 Z M 24.3 58.3 C 24.3 58.3 24.3 58.9 24.3 58.9 C 23.8 58.5 23.2 58.3 22.5 58.3 C 21.6 58.3 21 58.7 21 59.4 C 21 60.1 21.7 60.4 22.6 60.7 C 23.6 61 24.5 61.3 24.5 62.4 C 24.5 63.4 23.7 64.1 22.5 64.1 C 21.8 64.1 21 63.9 20.4 63.4 C 20.4 63.4 20.4 62.8 20.4 62.8 C 21 63.3 21.7 63.6 22.5 63.6 C 23.5 63.6 24.1 63.1 24.1 62.4 C 24.1 61.6 23.4 61.4 22.4 61.1 C 21.4 60.7 20.5 60.4 20.5 59.4 C 20.5 58.5 21.4 57.8 22.5 57.8 C 23.2 57.8 23.8 58 24.3 58.3 Z M 26.1 55.7 C 26.1 55.5 26.3 55.3 26.5 55.3 C 26.7 55.3 26.9 55.5 26.9 55.7 C 26.9 55.9 26.7 56.1 26.5 56.1 C 26.3 56.1 26.1 55.9 26.1 55.7 Z M 26.3 57.9 L 26.7 57.9 L 26.7 64 L 26.3 64 L 26.3 57.9 Z M 29.4 59.4 C 29.8 58.4 30.8 57.8 31.8 57.8 C 33.2 57.8 34.5 59 34.5 60.9 C 34.5 62.9 33.2 64.1 31.8 64.1 C 30.8 64.1 29.8 63.6 29.4 62.4 C 29.38 62.44 29.3 64 29.3 64 L 28.9 64 L 28.9 54.9 L 29.4 54.9 C 29.4 54.9 29.42 59.39 29.4 59.4 Z M 29.4 60.9 C 29.4 62.6 30.5 63.6 31.7 63.6 C 33 63.6 34.1 62.6 34.1 60.9 C 34.1 59.3 33 58.3 31.7 58.3 C 30.5 58.3 29.4 59.3 29.4 60.9 Z M 36.3 54.9 L 36.8 54.9 L 36.8 64 L 36.3 64 L 36.3 54.9 Z M 43.9 61.1 C 43.9 61.1 39.1 61.1 39.1 61.1 C 39.1 62.7 40.1 63.6 41.5 63.6 C 42.2 63.6 43 63.4 43.7 62.7 C 43.7 62.7 43.7 63.3 43.7 63.3 C 43 63.8 42.3 64.1 41.5 64.1 C 39.8 64.1 38.6 62.9 38.6 61 C 38.6 59 39.9 57.8 41.4 57.8 C 42.7 57.8 43.9 58.8 43.9 60.8 C 43.9 60.9 43.9 61 43.9 61.1 Z M 43.4 60.7 C 43.4 59 42.4 58.3 41.4 58.3 C 40.2 58.3 39.2 59.2 39.1 60.7 C 39.1 60.7 43.4 60.7 43.4 60.7 Z M 49 58.3 C 49 58.3 49 58.9 49 58.9 C 48.5 58.5 47.9 58.3 47.3 58.3 C 46.3 58.3 45.8 58.7 45.8 59.4 C 45.8 60.1 46.4 60.4 47.4 60.7 C 48.3 61 49.3 61.3 49.3 62.4 C 49.3 63.4 48.5 64.1 47.2 64.1 C 46.5 64.1 45.8 63.9 45.2 63.4 C 45.2 63.4 45.2 62.8 45.2 62.8 C 45.7 63.3 46.4 63.6 47.2 63.6 C 48.2 63.6 48.8 63.1 48.8 62.4 C 48.8 61.6 48.1 61.4 47.1 61.1 C 46.1 60.7 45.3 60.4 45.3 59.4 C 45.3 58.5 46.1 57.8 47.3 57.8 C 47.9 57.8 48.5 58 49 58.3 Z M 54.3 57.9 L 54.6 57.9 C 54.6 57.9 54.7 59.44 54.7 59.4 C 55.1 58.3 56.1 57.8 57.1 57.8 C 58.5 57.8 59.9 59 59.9 60.9 C 59.9 62.9 58.5 64.1 57.1 64.1 C 56.1 64.1 55.1 63.5 54.7 62.5 C 54.73 62.5 54.7 66.4 54.7 66.4 L 54.3 66.4 L 54.3 57.9 Z M 59.4 60.9 C 59.4 59.3 58.3 58.3 57.1 58.3 C 55.8 58.3 54.7 59.3 54.7 60.9 C 54.7 62.6 55.8 63.6 57 63.6 C 58.3 63.6 59.4 62.6 59.4 60.9 Z M 61.2 60.9 C 61.2 59.1 62.5 57.8 64.1 57.8 C 65.7 57.8 67 59.1 67 60.9 C 67 62.8 65.7 64.1 64.1 64.1 C 62.5 64.1 61.2 62.8 61.2 60.9 Z M 66.5 60.9 C 66.5 59.3 65.3 58.3 64.1 58.3 C 62.8 58.3 61.6 59.3 61.6 60.9 C 61.6 62.6 62.8 63.6 64.1 63.6 C 65.3 63.6 66.5 62.6 66.5 60.9 Z M 68.6 61.8 C 68.61 61.77 68.6 57.9 68.6 57.9 L 69.1 57.9 C 69.1 57.9 69.09 61.8 69.1 61.8 C 69.1 62.9 69.8 63.6 70.9 63.6 C 72 63.6 72.7 62.9 72.7 61.8 C 72.7 61.78 72.7 57.9 72.7 57.9 L 73.2 57.9 C 73.2 57.9 73.18 61.76 73.2 61.8 C 73.2 63.2 72.3 64.1 70.9 64.1 C 69.5 64.1 68.6 63.2 68.6 61.8 Z M 75.3 57.9 L 75.7 57.9 L 75.7 59 C 75.7 59 75.72 59.04 75.7 59 C 76.1 58.2 76.9 57.9 77.5 57.9 C 77.6 57.9 77.8 57.9 77.9 57.9 C 77.9 57.9 77.9 58.3 77.9 58.3 C 77.8 58.3 77.6 58.3 77.5 58.3 C 76.7 58.3 75.8 58.9 75.8 60.1 C 75.75 60.14 75.8 64 75.8 64 L 75.3 64 L 75.3 57.9 Z M 81.7 60.9 C 81.7 59 83.1 57.8 84.5 57.8 C 85.5 57.8 86.4 58.3 86.9 59.4 C 86.88 59.43 86.9 57.9 86.9 57.9 L 87.3 57.9 L 87.3 64 L 86.9 64 C 86.9 64 86.88 62.46 86.9 62.5 C 86.4 63.6 85.5 64.1 84.5 64.1 C 83.1 64.1 81.7 62.9 81.7 60.9 Z M 86.9 60.9 C 86.9 59.3 85.8 58.3 84.5 58.3 C 83.3 58.3 82.2 59.3 82.2 60.9 C 82.2 62.6 83.3 63.6 84.5 63.6 C 85.8 63.6 86.9 62.6 86.9 60.9 Z M 96.9 59.9 C 96.85 59.86 96.9 64 96.9 64 L 96.4 64 C 96.4 64 96.37 59.91 96.4 59.9 C 96.4 58.9 95.9 58.3 95 58.3 C 94 58.3 93.4 59 93.4 59.9 C 93.41 59.92 93.4 64 93.4 64 L 92.9 64 C 92.9 64 92.94 59.91 92.9 59.9 C 92.9 58.9 92.5 58.3 91.5 58.3 C 90.5 58.3 90 59.1 90 59.9 C 89.98 59.94 90 64 90 64 L 89.5 64 L 89.5 57.9 L 89.9 57.9 L 89.9 58.9 C 89.9 58.9 89.94 58.91 89.9 58.9 C 90.2 58.3 90.8 57.8 91.6 57.8 C 92.5 57.8 93 58.3 93.3 59 C 93.5 58.3 94.1 57.8 95 57.8 C 96.2 57.8 96.9 58.7 96.9 59.9 Z M 103.8 61.1 C 103.8 61.1 99 61.1 99 61.1 C 99.1 62.7 100.1 63.6 101.4 63.6 C 102.2 63.6 103 63.4 103.6 62.7 C 103.6 62.7 103.6 63.3 103.6 63.3 C 103 63.8 102.2 64.1 101.4 64.1 C 99.7 64.1 98.5 62.9 98.5 61 C 98.5 59 99.9 57.8 101.3 57.8 C 102.7 57.8 103.8 58.8 103.8 60.8 C 103.8 60.9 103.8 61 103.8 61.1 Z M 103.4 60.7 C 103.3 59 102.4 58.3 101.3 58.3 C 100.2 58.3 99.1 59.2 99 60.7 C 99 60.7 103.4 60.7 103.4 60.7 Z M 110.1 59.9 C 110.12 59.94 110.1 64 110.1 64 L 109.6 64 C 109.6 64 109.64 60.14 109.6 60.1 C 109.6 58.9 109 58.3 107.9 58.3 C 106.9 58.3 106 59 106 60.1 C 106.04 60.08 106 64 106 64 L 105.6 64 L 105.6 57.9 L 105.9 57.9 L 106 59 C 106 59 106 58.98 106 59 C 106.3 58.3 107.1 57.8 108 57.8 C 109.3 57.8 110.1 58.6 110.1 59.9 Z M 117.1 61.1 C 117.1 61.1 112.3 61.1 112.3 61.1 C 112.3 62.7 113.3 63.6 114.7 63.6 C 115.4 63.6 116.2 63.4 116.9 62.7 C 116.9 62.7 116.9 63.3 116.9 63.3 C 116.2 63.8 115.5 64.1 114.7 64.1 C 113 64.1 111.8 62.9 111.8 61 C 111.8 59 113.1 57.8 114.6 57.8 C 115.9 57.8 117.1 58.8 117.1 60.8 C 117.1 60.9 117.1 61 117.1 61.1 Z M 116.6 60.7 C 116.6 59 115.6 58.3 114.6 58.3 C 113.4 58.3 112.4 59.2 112.3 60.7 C 112.3 60.7 116.6 60.7 116.6 60.7 Z M 118.8 57.9 L 119.2 57.9 L 119.2 59 C 119.2 59 119.26 59.04 119.3 59 C 119.6 58.2 120.4 57.9 121 57.9 C 121.2 57.9 121.3 57.9 121.4 57.9 C 121.4 57.9 121.4 58.3 121.4 58.3 C 121.3 58.3 121.2 58.3 121 58.3 C 120.2 58.3 119.3 58.9 119.3 60.1 C 119.29 60.14 119.3 64 119.3 64 L 118.8 64 L 118.8 57.9 Z M 125.6 61.8 C 125.62 61.77 125.6 57.9 125.6 57.9 L 126.1 57.9 C 126.1 57.9 126.1 61.8 126.1 61.8 C 126.1 62.9 126.8 63.6 127.9 63.6 C 129 63.6 129.7 62.9 129.7 61.8 C 129.71 61.78 129.7 57.9 129.7 57.9 L 130.2 57.9 C 130.2 57.9 130.19 61.76 130.2 61.8 C 130.2 63.2 129.3 64.1 127.9 64.1 C 126.5 64.1 125.6 63.2 125.6 61.8 Z M 136.8 59.9 C 136.84 59.94 136.8 64 136.8 64 L 136.4 64 C 136.4 64 136.36 60.14 136.4 60.1 C 136.4 58.9 135.7 58.3 134.6 58.3 C 133.6 58.3 132.8 59 132.8 60.1 C 132.76 60.08 132.8 64 132.8 64 L 132.3 64 L 132.3 57.9 L 132.7 57.9 L 132.7 59 C 132.7 59 132.72 58.98 132.7 59 C 133.1 58.3 133.8 57.8 134.7 57.8 C 136 57.8 136.8 58.6 136.8 59.9 Z M 143.8 61.1 C 143.8 61.1 139 61.1 139 61.1 C 139.1 62.7 140 63.6 141.4 63.6 C 142.2 63.6 142.9 63.4 143.6 62.7 C 143.6 62.7 143.6 63.3 143.6 63.3 C 142.9 63.8 142.2 64.1 141.4 64.1 C 139.7 64.1 138.5 62.9 138.5 61 C 138.5 59 139.9 57.8 141.3 57.8 C 142.7 57.8 143.8 58.8 143.8 60.8 C 143.8 60.9 143.8 61 143.8 61.1 Z M 143.3 60.7 C 143.3 59 142.3 58.3 141.3 58.3 C 140.2 58.3 139.1 59.2 139 60.7 C 139 60.7 143.3 60.7 143.3 60.7 Z M 153.4 59.9 C 153.39 59.94 153.4 64 153.4 64 L 152.9 64 C 152.9 64 152.91 60.14 152.9 60.1 C 152.9 58.9 152.3 58.3 151.2 58.3 C 150.2 58.3 149.3 59 149.3 60.1 C 149.31 60.08 149.3 64 149.3 64 L 148.8 64 L 148.8 57.9 L 149.2 57.9 L 149.3 59 C 149.3 59 149.28 58.98 149.3 59 C 149.6 58.3 150.3 57.8 151.3 57.8 C 152.5 57.8 153.4 58.6 153.4 59.9 Z M 155 60.9 C 155 59.1 156.3 57.8 157.9 57.8 C 159.5 57.8 160.8 59.1 160.8 60.9 C 160.8 62.8 159.5 64.1 157.9 64.1 C 156.4 64.1 155 62.8 155 60.9 Z M 160.4 60.9 C 160.4 59.3 159.2 58.3 157.9 58.3 C 156.7 58.3 155.5 59.3 155.5 60.9 C 155.5 62.6 156.7 63.6 157.9 63.6 C 159.2 63.6 160.4 62.6 160.4 60.9 Z M 162.5 61.8 C 162.5 61.77 162.5 57.9 162.5 57.9 L 163 57.9 C 163 57.9 162.98 61.8 163 61.8 C 163 62.9 163.7 63.6 164.8 63.6 C 165.9 63.6 166.6 62.9 166.6 61.8 C 166.59 61.78 166.6 57.9 166.6 57.9 L 167.1 57.9 C 167.1 57.9 167.07 61.76 167.1 61.8 C 167.1 63.2 166.2 64.1 164.8 64.1 C 163.4 64.1 162.5 63.2 162.5 61.8 Z M 168.5 57.9 L 169 57.9 L 171 63.4 L 171 63.4 L 173 57.9 L 173.5 57.9 L 171.2 64 L 170.7 64 L 168.5 57.9 Z M 179.6 61.1 C 179.6 61.1 174.8 61.1 174.8 61.1 C 174.9 62.7 175.9 63.6 177.2 63.6 C 178 63.6 178.7 63.4 179.4 62.7 C 179.4 62.7 179.4 63.3 179.4 63.3 C 178.8 63.8 178 64.1 177.2 64.1 C 175.5 64.1 174.3 62.9 174.3 61 C 174.3 59 175.7 57.8 177.1 57.8 C 178.5 57.8 179.6 58.8 179.6 60.8 C 179.6 60.9 179.6 61 179.6 61.1 Z M 179.2 60.7 C 179.1 59 178.2 58.3 177.1 58.3 C 176 58.3 174.9 59.2 174.8 60.7 C 174.8 60.7 179.2 60.7 179.2 60.7 Z M 181.4 54.9 L 181.9 54.9 L 181.9 64 L 181.4 64 L 181.4 54.9 Z M 184.1 54.9 L 184.6 54.9 L 184.6 64 L 184.1 64 L 184.1 54.9 Z M 191.7 61.1 C 191.7 61.1 186.8 61.1 186.8 61.1 C 186.9 62.7 187.9 63.6 189.3 63.6 C 190 63.6 190.8 63.4 191.4 62.7 C 191.4 62.7 191.4 63.3 191.4 63.3 C 190.8 63.8 190 64.1 189.3 64.1 C 187.5 64.1 186.4 62.9 186.4 61 C 186.4 59 187.7 57.8 189.2 57.8 C 190.5 57.8 191.7 58.8 191.7 60.8 C 191.7 60.9 191.7 61 191.7 61.1 Z M 191.2 60.7 C 191.2 59 190.2 58.3 189.2 58.3 C 188 58.3 187 59.2 186.9 60.7 C 186.9 60.7 191.2 60.7 191.2 60.7 Z M 196.3 60.9 C 196.3 59 197.6 57.8 199 57.8 C 200 57.8 201 58.3 201.4 59.4 C 201.41 59.43 201.5 57.9 201.5 57.9 L 201.9 57.9 L 201.9 64 L 201.5 64 C 201.5 64 201.41 62.46 201.4 62.5 C 201 63.6 200 64.1 199 64.1 C 197.6 64.1 196.3 62.9 196.3 60.9 Z M 201.4 60.9 C 201.4 59.3 200.3 58.3 199.1 58.3 C 197.8 58.3 196.7 59.3 196.7 60.9 C 196.7 62.6 197.8 63.6 199.1 63.6 C 200.3 63.6 201.4 62.6 201.4 60.9 Z M 204 57.9 L 204.4 57.9 L 204.5 59 C 204.5 59 204.47 59.04 204.5 59 C 204.8 58.2 205.6 57.9 206.3 57.9 C 206.4 57.9 206.5 57.9 206.6 57.9 C 206.6 57.9 206.6 58.3 206.6 58.3 C 206.5 58.3 206.4 58.3 206.3 58.3 C 205.4 58.3 204.5 58.9 204.5 60.1 C 204.5 60.14 204.5 64 204.5 64 L 204 64 L 204 57.9 Z M 210.1 63.6 C 210.6 63.6 211.2 63.5 211.7 63.1 C 211.7 63.1 211.7 63.7 211.7 63.7 C 211.3 63.9 210.7 64.1 210.1 64.1 C 208.5 64.1 207.2 62.8 207.2 60.9 C 207.2 59.2 208.4 57.8 210.1 57.8 C 210.6 57.8 211.2 57.9 211.7 58.2 C 211.7 58.2 211.7 58.8 211.7 58.8 C 211.2 58.4 210.6 58.3 210.1 58.3 C 208.8 58.3 207.6 59.3 207.6 60.9 C 207.6 62.6 208.8 63.6 210.1 63.6 Z M 213.9 58.9 C 213.9 58.9 213.92 58.87 213.9 58.9 C 214.3 58.2 215 57.8 215.8 57.8 C 217.1 57.8 218 58.6 218 60 C 217.98 59.95 218 64 218 64 L 217.5 64 C 217.5 64 217.5 60.13 217.5 60.1 C 217.5 58.9 216.9 58.3 215.8 58.3 C 214.8 58.3 213.9 58.8 213.9 60 C 213.9 60.02 213.9 64 213.9 64 L 213.4 64 L 213.4 54.9 L 213.9 54.9 L 213.9 58.9 Z M 220 55.7 C 220 55.5 220.1 55.3 220.4 55.3 C 220.6 55.3 220.7 55.5 220.7 55.7 C 220.7 55.9 220.6 56.1 220.4 56.1 C 220.1 56.1 220 55.9 220 55.7 Z M 220.1 57.9 L 220.6 57.9 L 220.6 64 L 220.1 64 L 220.1 57.9 Z M 223.5 57.9 L 225.3 57.9 L 225.3 58.4 L 223.5 58.4 C 223.5 58.4 223.46 62.07 223.5 62.1 C 223.5 63.2 224.1 63.6 224.9 63.6 C 225.1 63.6 225.2 63.6 225.4 63.6 C 225.4 63.6 225.4 64 225.4 64 C 225.4 64 225.1 64 224.9 64 C 223.8 64 223 63.4 223 62.1 C 222.98 62.09 223 58.4 223 58.4 L 222 58.4 L 222 57.9 L 223 57.9 L 223 56.5 L 223.5 56.5 L 223.5 57.9 Z M 231.5 61.1 C 231.5 61.1 226.7 61.1 226.7 61.1 C 226.8 62.7 227.8 63.6 229.1 63.6 C 229.9 63.6 230.6 63.4 231.3 62.7 C 231.3 62.7 231.3 63.3 231.3 63.3 C 230.7 63.8 229.9 64.1 229.1 64.1 C 227.4 64.1 226.2 62.9 226.2 61 C 226.2 59 227.6 57.8 229 57.8 C 230.4 57.8 231.5 58.8 231.5 60.8 C 231.5 60.9 231.5 61 231.5 61.1 Z M 231.1 60.7 C 231 59 230.1 58.3 229 58.3 C 227.9 58.3 226.8 59.2 226.7 60.7 C 226.7 60.7 231.1 60.7 231.1 60.7 Z M 235.7 63.6 C 236.2 63.6 236.9 63.5 237.4 63.1 C 237.4 63.1 237.4 63.7 237.4 63.7 C 236.9 63.9 236.3 64.1 235.7 64.1 C 234.1 64.1 232.8 62.8 232.8 60.9 C 232.8 59.2 234.1 57.8 235.7 57.8 C 236.3 57.8 236.9 57.9 237.4 58.2 C 237.4 58.2 237.4 58.8 237.4 58.8 C 236.8 58.4 236.3 58.3 235.7 58.3 C 234.5 58.3 233.3 59.3 233.3 60.9 C 233.3 62.6 234.5 63.6 235.7 63.6 Z M 239.7 57.9 L 241.5 57.9 L 241.5 58.4 L 239.7 58.4 C 239.7 58.4 239.72 62.07 239.7 62.1 C 239.7 63.2 240.3 63.6 241.2 63.6 C 241.4 63.6 241.5 63.6 241.7 63.6 C 241.7 63.6 241.7 64 241.7 64 C 241.6 64 241.4 64 241.1 64 C 240 64 239.2 63.4 239.2 62.1 C 239.24 62.09 239.2 58.4 239.2 58.4 L 238.3 58.4 L 238.3 57.9 L 239.3 57.9 L 239.3 56.5 L 239.7 56.5 L 239.7 57.9 Z M 242.9 61.8 C 242.91 61.77 242.9 57.9 242.9 57.9 L 243.4 57.9 C 243.4 57.9 243.39 61.8 243.4 61.8 C 243.4 62.9 244.1 63.6 245.2 63.6 C 246.3 63.6 247 62.9 247 61.8 C 247 61.78 247 57.9 247 57.9 L 247.5 57.9 C 247.5 57.9 247.48 61.76 247.5 61.8 C 247.5 63.2 246.6 64.1 245.2 64.1 C 243.8 64.1 242.9 63.2 242.9 61.8 Z M 249.6 57.9 L 250 57.9 L 250 59 C 250 59 250.02 59.04 250 59 C 250.4 58.2 251.2 57.9 251.8 57.9 C 251.9 57.9 252.1 57.9 252.2 57.9 C 252.2 57.9 252.2 58.3 252.2 58.3 C 252.1 58.3 251.9 58.3 251.8 58.3 C 251 58.3 250.1 58.9 250.1 60.1 C 250.05 60.14 250.1 64 250.1 64 L 249.6 64 L 249.6 57.9 Z M 258 61.1 C 258 61.1 253.2 61.1 253.2 61.1 C 253.3 62.7 254.3 63.6 255.6 63.6 C 256.4 63.6 257.1 63.4 257.8 62.7 C 257.8 62.7 257.8 63.3 257.8 63.3 C 257.2 63.8 256.4 64.1 255.6 64.1 C 253.9 64.1 252.7 62.9 252.7 61 C 252.7 59 254.1 57.8 255.5 57.8 C 256.9 57.8 258 58.8 258 60.8 C 258 60.9 258 61 258 61.1 Z M 257.6 60.7 C 257.5 59 256.6 58.3 255.5 58.3 C 254.4 58.3 253.3 59.2 253.2 60.7 C 253.2 60.7 257.6 60.7 257.6 60.7 Z M 262.6 60.9 C 262.6 59 264 57.8 265.4 57.8 C 266.4 57.8 267.3 58.4 267.7 59.4 C 267.75 59.38 267.7 54.9 267.7 54.9 L 268.2 54.9 L 268.2 64 L 267.9 64 L 267.8 62.4 C 267.8 62.4 267.77 62.45 267.8 62.4 C 267.3 63.6 266.4 64.1 265.4 64.1 C 264 64.1 262.6 62.9 262.6 60.9 Z M 267.8 60.9 C 267.8 59.3 266.7 58.3 265.4 58.3 C 264.2 58.3 263.1 59.3 263.1 60.9 C 263.1 62.6 264.2 63.6 265.4 63.6 C 266.7 63.6 267.8 62.6 267.8 60.9 Z M 270.6 55.9 C 270.58 55.91 270.6 55.5 270.6 55.5 L 271.1 55.5 C 271.1 55.5 271.06 55.9 271.1 55.9 C 271.1 56.8 270.7 57.8 270.5 58.3 C 270.5 58.3 270.1 58.3 270.1 58.3 C 270.3 57.8 270.6 56.8 270.6 55.9 Z M 272.1 60.9 C 272.1 59.1 273.4 57.8 275 57.8 C 276.6 57.8 277.9 59.1 277.9 60.9 C 277.9 62.8 276.6 64.1 275 64.1 C 273.4 64.1 272.1 62.8 272.1 60.9 Z M 277.4 60.9 C 277.4 59.3 276.2 58.3 275 58.3 C 273.7 58.3 272.6 59.3 272.6 60.9 C 272.6 62.6 273.8 63.6 275 63.6 C 276.2 63.6 277.4 62.6 277.4 60.9 Z M 280.1 59.4 C 280.5 58.4 281.5 57.8 282.5 57.8 C 283.9 57.8 285.2 59 285.2 60.9 C 285.2 62.9 283.9 64.1 282.5 64.1 C 281.5 64.1 280.5 63.6 280.1 62.4 C 280.06 62.44 280 64 280 64 L 279.6 64 L 279.6 54.9 L 280.1 54.9 C 280.1 54.9 280.1 59.39 280.1 59.4 Z M 280.1 60.9 C 280.1 62.6 281.2 63.6 282.4 63.6 C 283.7 63.6 284.7 62.6 284.7 60.9 C 284.7 59.3 283.7 58.3 282.4 58.3 C 281.1 58.3 280.1 59.3 280.1 60.9 Z M 286.9 55.7 C 286.9 55.5 287 55.3 287.2 55.3 C 287.5 55.3 287.6 55.5 287.6 55.7 C 287.6 55.9 287.5 56.1 287.2 56.1 C 287 56.1 286.9 55.9 286.9 55.7 Z M 287 63.3 C 287.01 63.32 287 57.9 287 57.9 L 287.5 57.9 C 287.5 57.9 287.49 63.34 287.5 63.3 C 287.5 64.7 287.2 65.6 286.5 66.4 C 286.5 66.4 285.9 66.4 285.9 66.4 C 286.6 65.7 287 64.7 287 63.3 Z M 294.6 61.1 C 294.6 61.1 289.7 61.1 289.7 61.1 C 289.8 62.7 290.8 63.6 292.2 63.6 C 292.9 63.6 293.7 63.4 294.3 62.7 C 294.3 62.7 294.3 63.3 294.3 63.3 C 293.7 63.8 292.9 64.1 292.2 64.1 C 290.5 64.1 289.3 62.9 289.3 61 C 289.3 59 290.6 57.8 292.1 57.8 C 293.4 57.8 294.6 58.8 294.6 60.8 C 294.6 60.9 294.6 61 294.6 61.1 Z M 294.1 60.7 C 294.1 59 293.1 58.3 292.1 58.3 C 290.9 58.3 289.9 59.2 289.8 60.7 C 289.8 60.7 294.1 60.7 294.1 60.7 Z M 296.9 57.9 L 298.7 57.9 L 298.7 58.4 L 296.9 58.4 C 296.9 58.4 296.89 62.07 296.9 62.1 C 296.9 63.2 297.5 63.6 298.4 63.6 C 298.5 63.6 298.7 63.6 298.9 63.6 C 298.9 63.6 298.9 64 298.9 64 C 298.8 64 298.6 64 298.3 64 C 297.2 64 296.4 63.4 296.4 62.1 C 296.41 62.09 296.4 58.4 296.4 58.4 L 295.5 58.4 L 295.5 57.9 L 296.4 57.9 L 296.4 56.5 L 296.9 56.5 L 296.9 57.9 Z M 299.9 63.6 C 299.9 63.3 300.1 63.1 300.4 63.1 C 300.7 63.1 300.9 63.3 300.9 63.6 C 300.9 63.8 300.7 64 300.4 64 C 300.1 64 299.9 63.8 299.9 63.6 Z " stroke="none" fill="#000"/>
  </g>
  <g id="Polygon24054">
    <path d="M 0.7 47.2 C 0.7 45.4 2 44.1 3.6 44.1 C 5.1 44.1 6.4 45.4 6.4 47.2 C 6.4 49.1 5.1 50.4 3.6 50.4 C 2 50.4 0.7 49.1 0.7 47.2 Z M 6 47.2 C 6 45.5 4.8 44.6 3.6 44.6 C 2.3 44.6 1.1 45.5 1.1 47.2 C 1.1 48.9 2.3 49.9 3.6 49.9 C 4.8 49.9 6 48.9 6 47.2 Z M 8.1 48.1 C 8.1 48.06 8.1 44.2 8.1 44.2 L 8.6 44.2 C 8.6 44.2 8.58 48.09 8.6 48.1 C 8.6 49.2 9.3 49.9 10.4 49.9 C 11.5 49.9 12.2 49.2 12.2 48.1 C 12.19 48.07 12.2 44.2 12.2 44.2 L 12.7 44.2 C 12.7 44.2 12.67 48.05 12.7 48.1 C 12.7 49.5 11.8 50.4 10.4 50.4 C 9 50.4 8.1 49.5 8.1 48.1 Z M 23.8 47.4 C 23.8 47.4 19 47.4 19 47.4 C 19 49 20 49.9 21.4 49.9 C 22.1 49.9 22.9 49.7 23.5 49 C 23.5 49 23.5 49.6 23.5 49.6 C 22.9 50.1 22.2 50.4 21.4 50.4 C 19.7 50.4 18.5 49.2 18.5 47.3 C 18.5 45.3 19.8 44.1 21.3 44.1 C 22.6 44.1 23.8 45.1 23.8 47.1 C 23.8 47.2 23.8 47.3 23.8 47.4 Z M 23.3 47 C 23.3 45.3 22.3 44.6 21.3 44.6 C 20.1 44.6 19.1 45.5 19 47 C 19 47 23.3 47 23.3 47 Z M 30.1 46.2 C 30.06 46.23 30.1 50.3 30.1 50.3 L 29.6 50.3 C 29.6 50.3 29.58 46.43 29.6 46.4 C 29.6 45.2 28.9 44.6 27.9 44.6 C 26.8 44.6 26 45.3 26 46.4 C 25.98 46.37 26 50.3 26 50.3 L 25.5 50.3 L 25.5 44.2 L 25.9 44.2 L 25.9 45.3 C 25.9 45.3 25.94 45.27 25.9 45.3 C 26.3 44.6 27 44.1 27.9 44.1 C 29.2 44.1 30.1 44.9 30.1 46.2 Z M 36.3 44.2 L 36.7 44.2 L 36.7 45.3 C 36.7 45.3 36.73 45.33 36.7 45.3 C 37.1 44.5 37.9 44.1 38.5 44.1 C 38.6 44.1 38.8 44.2 38.9 44.2 C 38.9 44.2 38.9 44.6 38.9 44.6 C 38.8 44.6 38.6 44.6 38.5 44.6 C 37.7 44.6 36.8 45.2 36.8 46.4 C 36.76 46.43 36.8 50.3 36.8 50.3 L 36.3 50.3 L 36.3 44.2 Z M 44.7 47.4 C 44.7 47.4 39.9 47.4 39.9 47.4 C 40 49 41 49.9 42.3 49.9 C 43.1 49.9 43.9 49.7 44.5 49 C 44.5 49 44.5 49.6 44.5 49.6 C 43.9 50.1 43.1 50.4 42.3 50.4 C 40.6 50.4 39.4 49.2 39.4 47.3 C 39.4 45.3 40.8 44.1 42.2 44.1 C 43.6 44.1 44.7 45.1 44.7 47.1 C 44.7 47.2 44.7 47.3 44.7 47.4 Z M 44.3 47 C 44.2 45.3 43.3 44.6 42.2 44.6 C 41.1 44.6 40 45.5 39.9 47 C 39.9 47 44.3 47 44.3 47 Z M 51 46.2 C 51.02 46.23 51 50.3 51 50.3 L 50.5 50.3 C 50.5 50.3 50.54 46.43 50.5 46.4 C 50.5 45.2 49.9 44.6 48.8 44.6 C 47.8 44.6 46.9 45.3 46.9 46.4 C 46.94 46.37 46.9 50.3 46.9 50.3 L 46.5 50.3 L 46.5 44.2 L 46.8 44.2 L 46.9 45.3 C 46.9 45.3 46.91 45.27 46.9 45.3 C 47.2 44.6 48 44.1 48.9 44.1 C 50.2 44.1 51 44.9 51 46.2 Z M 52.7 47.2 C 52.7 45.3 54 44.1 55.5 44.1 C 56.4 44.1 57.4 44.6 57.8 45.7 C 57.81 45.67 57.8 41.2 57.8 41.2 L 58.3 41.2 L 58.3 50.3 L 57.9 50.3 L 57.8 48.7 C 57.8 48.7 57.83 48.74 57.8 48.7 C 57.4 49.8 56.4 50.4 55.5 50.4 C 54 50.4 52.7 49.2 52.7 47.2 Z M 57.8 47.2 C 57.8 45.6 56.8 44.6 55.5 44.6 C 54.2 44.6 53.2 45.6 53.2 47.2 C 53.2 48.9 54.2 49.9 55.5 49.9 C 56.8 49.9 57.8 48.9 57.8 47.2 Z M 60 47.2 C 60 45.3 61.4 44.1 62.8 44.1 C 63.8 44.1 64.7 44.6 65.2 45.7 C 65.18 45.72 65.2 44.2 65.2 44.2 L 65.6 44.2 L 65.6 50.3 L 65.2 50.3 C 65.2 50.3 65.18 48.75 65.2 48.7 C 64.7 49.8 63.8 50.4 62.8 50.4 C 61.4 50.4 60 49.2 60 47.2 Z M 65.2 47.2 C 65.2 45.6 64.1 44.6 62.8 44.6 C 61.6 44.6 60.5 45.6 60.5 47.2 C 60.5 48.9 61.6 49.9 62.8 49.9 C 64.1 49.9 65.2 48.9 65.2 47.2 Z M 72.3 46.2 C 72.35 46.23 72.3 50.3 72.3 50.3 L 71.9 50.3 C 71.9 50.3 71.87 46.43 71.9 46.4 C 71.9 45.2 71.2 44.6 70.1 44.6 C 69.1 44.6 68.3 45.3 68.3 46.4 C 68.27 46.37 68.3 50.3 68.3 50.3 L 67.8 50.3 L 67.8 44.2 L 68.2 44.2 L 68.2 45.3 C 68.2 45.3 68.24 45.27 68.2 45.3 C 68.6 44.6 69.3 44.1 70.2 44.1 C 71.5 44.1 72.3 44.9 72.3 46.2 Z M 75 44.2 L 76.8 44.2 L 76.8 44.6 L 75 44.6 C 75 44.6 75.03 48.36 75 48.4 C 75 49.5 75.6 49.9 76.5 49.9 C 76.7 49.9 76.8 49.9 77 49.8 C 77 49.8 77 50.3 77 50.3 C 76.9 50.3 76.7 50.3 76.4 50.3 C 75.3 50.3 74.6 49.7 74.6 48.4 C 74.55 48.38 74.6 44.6 74.6 44.6 L 73.6 44.6 L 73.6 44.2 L 74.6 44.2 L 74.6 42.8 L 75 42.8 L 75 44.2 Z M 82.3 42 C 82.3 41.8 82.4 41.6 82.6 41.6 C 82.9 41.6 83 41.8 83 42 C 83 42.2 82.9 42.4 82.6 42.4 C 82.4 42.4 82.3 42.2 82.3 42 Z M 82.4 44.2 L 82.9 44.2 L 82.9 50.3 L 82.4 50.3 L 82.4 44.2 Z M 92.4 46.2 C 92.44 46.15 92.4 50.3 92.4 50.3 L 92 50.3 C 92 50.3 91.96 46.2 92 46.2 C 92 45.2 91.5 44.6 90.5 44.6 C 89.6 44.6 89 45.3 89 46.2 C 89 46.21 89 50.3 89 50.3 L 88.5 50.3 C 88.5 50.3 88.53 46.2 88.5 46.2 C 88.5 45.2 88 44.6 87.1 44.6 C 86.1 44.6 85.6 45.3 85.6 46.2 C 85.57 46.23 85.6 50.3 85.6 50.3 L 85.1 50.3 L 85.1 44.2 L 85.5 44.2 L 85.5 45.2 C 85.5 45.2 85.53 45.21 85.5 45.2 C 85.8 44.6 86.4 44.1 87.2 44.1 C 88.1 44.1 88.6 44.6 88.9 45.3 C 89.1 44.6 89.7 44.1 90.6 44.1 C 91.8 44.1 92.4 44.9 92.4 46.2 Z M 94.1 47.2 C 94.1 45.3 95.4 44.1 96.9 44.1 C 97.8 44.1 98.8 44.6 99.3 45.7 C 99.26 45.72 99.3 44.2 99.3 44.2 L 99.7 44.2 L 99.7 50.3 L 99.3 50.3 C 99.3 50.3 99.26 48.75 99.3 48.7 C 98.8 49.8 97.8 50.4 96.9 50.4 C 95.4 50.4 94.1 49.2 94.1 47.2 Z M 99.3 47.2 C 99.3 45.6 98.2 44.6 96.9 44.6 C 95.7 44.6 94.6 45.6 94.6 47.2 C 94.6 48.9 95.7 49.9 96.9 49.9 C 98.2 49.9 99.3 48.9 99.3 47.2 Z M 106.6 45.7 C 106.56 45.66 106.6 44.2 106.6 44.2 L 107 44.2 C 107 44.2 107.01 50.07 107 50.1 C 107 52 105.7 52.8 104.3 52.8 C 103.5 52.8 102.7 52.6 102 52.1 C 102 52.1 102 51.5 102 51.5 C 102.7 52.1 103.5 52.3 104.3 52.3 C 105.5 52.3 106.5 51.7 106.5 50.2 C 106.5 50.2 106.5 48.6 106.5 48.6 C 106.1 49.7 105.2 50.2 104.2 50.2 C 102.8 50.2 101.4 49 101.4 47.1 C 101.4 45.3 102.8 44.1 104.2 44.1 C 105.1 44.1 106.1 44.6 106.6 45.7 Z M 101.9 47.2 C 101.9 48.7 103 49.7 104.2 49.7 C 105.5 49.7 106.6 48.7 106.6 47.1 C 106.6 45.6 105.5 44.6 104.2 44.6 C 103 44.6 101.9 45.6 101.9 47.2 Z M 111.4 43.1 L 110.9 43.1 L 112.3 41.3 L 112.8 41.3 L 111.4 43.1 Z M 114 47.4 C 114 47.4 109.2 47.4 109.2 47.4 C 109.3 49 110.3 49.9 111.7 49.9 C 112.4 49.9 113.2 49.7 113.8 49 C 113.8 49 113.8 49.6 113.8 49.6 C 113.2 50.1 112.4 50.4 111.6 50.4 C 109.9 50.4 108.8 49.2 108.8 47.3 C 108.8 45.3 110.1 44.1 111.6 44.1 C 112.9 44.1 114.1 45.1 114.1 47.1 C 114.1 47.2 114.1 47.3 114 47.4 Z M 113.6 47 C 113.6 45.3 112.6 44.6 111.6 44.6 C 110.4 44.6 109.4 45.5 109.2 47 C 109.2 47 113.6 47 113.6 47 Z M 120 41.2 L 120.4 41.2 L 120.4 50.3 L 120 50.3 L 120 41.2 Z M 127.5 47.4 C 127.5 47.4 122.7 47.4 122.7 47.4 C 122.8 49 123.8 49.9 125.1 49.9 C 125.9 49.9 126.6 49.7 127.3 49 C 127.3 49 127.3 49.6 127.3 49.6 C 126.6 50.1 125.9 50.4 125.1 50.4 C 123.4 50.4 122.2 49.2 122.2 47.3 C 122.2 45.3 123.6 44.1 125 44.1 C 126.4 44.1 127.5 45.1 127.5 47.1 C 127.5 47.2 127.5 47.3 127.5 47.4 Z M 127 47 C 127 45.3 126.1 44.6 125 44.6 C 123.9 44.6 122.8 45.5 122.7 47 C 122.7 47 127 47 127 47 Z M 136.8 44.6 C 136.8 44.6 136.8 45.2 136.8 45.2 C 136.3 44.8 135.7 44.6 135 44.6 C 134.1 44.6 133.5 45 133.5 45.7 C 133.5 46.4 134.2 46.6 135.1 47 C 136.1 47.3 137.1 47.6 137.1 48.7 C 137.1 49.7 136.2 50.4 135 50.4 C 134.3 50.4 133.5 50.1 133 49.7 C 133 49.7 133 49.1 133 49.1 C 133.5 49.6 134.2 49.9 135 49.9 C 136 49.9 136.6 49.4 136.6 48.7 C 136.6 47.9 135.9 47.7 134.9 47.3 C 133.9 47 133 46.7 133 45.7 C 133 44.8 133.9 44.1 135 44.1 C 135.7 44.1 136.3 44.3 136.8 44.6 Z M 138.3 47.2 C 138.3 45.4 139.6 44.1 141.2 44.1 C 142.8 44.1 144.1 45.4 144.1 47.2 C 144.1 49.1 142.8 50.4 141.2 50.4 C 139.6 50.4 138.3 49.1 138.3 47.2 Z M 143.6 47.2 C 143.6 45.5 142.4 44.6 141.2 44.6 C 139.9 44.6 138.8 45.5 138.8 47.2 C 138.8 48.9 140 49.9 141.2 49.9 C 142.4 49.9 143.6 48.9 143.6 47.2 Z M 150.4 46.2 C 150.37 46.23 150.4 50.3 150.4 50.3 L 149.9 50.3 C 149.9 50.3 149.9 46.43 149.9 46.4 C 149.9 45.2 149.3 44.6 148.2 44.6 C 147.1 44.6 146.3 45.3 146.3 46.4 C 146.3 46.37 146.3 50.3 146.3 50.3 L 145.8 50.3 L 145.8 44.2 L 146.2 44.2 L 146.3 45.3 C 146.3 45.3 146.26 45.27 146.3 45.3 C 146.6 44.6 147.3 44.1 148.2 44.1 C 149.5 44.1 150.4 44.9 150.4 46.2 Z M 156.7 46.8 C 156.7 48.8 157.5 50.5 158.9 51.8 C 158.9 51.8 158.3 51.8 158.3 51.8 C 157.1 50.5 156.2 48.8 156.2 46.8 C 156.2 44.7 157.1 43 158.3 41.8 C 158.3 41.8 158.9 41.8 158.9 41.8 C 157.5 43.1 156.7 44.8 156.7 46.8 Z M 165.3 48.1 L 163.8 48.1 L 163.8 50.3 L 163.3 50.3 L 163.3 48.1 L 159.1 48.1 L 159.1 47.8 L 163.4 41.8 L 163.8 41.8 L 163.8 47.6 L 165.3 47.6 L 165.3 48.1 Z M 163.3 47.6 L 163.3 42.7 L 163.3 42.7 L 159.7 47.6 L 159.7 47.6 L 163.3 47.6 Z M 166.4 41.8 C 167.6 43 168.4 44.7 168.4 46.8 C 168.4 48.8 167.6 50.5 166.4 51.8 C 166.4 51.8 165.8 51.8 165.8 51.8 C 167.1 50.5 168 48.8 168 46.8 C 168 44.8 167.1 43.1 165.8 41.8 C 165.8 41.8 166.4 41.8 166.4 41.8 Z M 170.1 49.4 C 170.14 49.35 170.1 48.9 170.1 48.9 L 170.6 48.9 C 170.6 48.9 170.62 49.34 170.6 49.3 C 170.6 50.2 170.2 51.2 170 51.8 C 170 51.8 169.6 51.8 169.6 51.8 C 169.8 51.2 170.1 50.3 170.1 49.4 Z M 181.4 46.2 C 181.36 46.23 181.4 50.3 181.4 50.3 L 180.9 50.3 C 180.9 50.3 180.88 46.43 180.9 46.4 C 180.9 45.2 180.2 44.6 179.2 44.6 C 178.1 44.6 177.3 45.3 177.3 46.4 C 177.28 46.37 177.3 50.3 177.3 50.3 L 176.8 50.3 L 176.8 44.2 L 177.2 44.2 L 177.2 45.3 C 177.2 45.3 177.24 45.27 177.2 45.3 C 177.6 44.6 178.3 44.1 179.2 44.1 C 180.5 44.1 181.4 44.9 181.4 46.2 Z M 183 47.2 C 183 45.4 184.3 44.1 185.9 44.1 C 187.5 44.1 188.8 45.4 188.8 47.2 C 188.8 49.1 187.5 50.4 185.9 50.4 C 184.3 50.4 183 49.1 183 47.2 Z M 188.3 47.2 C 188.3 45.5 187.1 44.6 185.9 44.6 C 184.7 44.6 183.5 45.5 183.5 47.2 C 183.5 48.9 184.7 49.9 185.9 49.9 C 187.1 49.9 188.3 48.9 188.3 47.2 Z M 197.9 46.2 C 197.9 46.15 197.9 50.3 197.9 50.3 L 197.4 50.3 C 197.4 50.3 197.42 46.2 197.4 46.2 C 197.4 45.2 197 44.6 196 44.6 C 195 44.6 194.5 45.3 194.5 46.2 C 194.46 46.21 194.5 50.3 194.5 50.3 L 194 50.3 C 194 50.3 193.98 46.2 194 46.2 C 194 45.2 193.5 44.6 192.6 44.6 C 191.6 44.6 191 45.3 191 46.2 C 191.02 46.23 191 50.3 191 50.3 L 190.5 50.3 L 190.5 44.2 L 190.9 44.2 L 191 45.2 C 191 45.2 190.99 45.21 191 45.2 C 191.2 44.6 191.9 44.1 192.6 44.1 C 193.5 44.1 194.1 44.6 194.3 45.3 C 194.6 44.6 195.2 44.1 196.1 44.1 C 197.3 44.1 197.9 44.9 197.9 46.2 Z M 200.5 45.7 C 200.9 44.6 201.9 44.1 202.8 44.1 C 204.3 44.1 205.6 45.3 205.6 47.2 C 205.6 49.2 204.3 50.4 202.8 50.4 C 201.9 50.4 200.9 49.8 200.4 48.7 C 200.45 48.74 200.4 50.3 200.4 50.3 L 200 50.3 L 200 41.2 L 200.5 41.2 C 200.5 41.2 200.48 45.69 200.5 45.7 Z M 200.5 47.2 C 200.5 48.9 201.5 49.9 202.8 49.9 C 204 49.9 205.1 48.9 205.1 47.2 C 205.1 45.6 204.1 44.6 202.8 44.6 C 201.5 44.6 200.5 45.6 200.5 47.2 Z M 207.3 44.2 L 207.7 44.2 L 207.8 45.3 C 207.8 45.3 207.79 45.33 207.8 45.3 C 208.2 44.5 209 44.1 209.6 44.1 C 209.7 44.1 209.8 44.2 210 44.2 C 210 44.2 210 44.6 210 44.6 C 209.8 44.6 209.7 44.6 209.6 44.6 C 208.7 44.6 207.8 45.2 207.8 46.4 C 207.83 46.43 207.8 50.3 207.8 50.3 L 207.3 50.3 L 207.3 44.2 Z M 215.8 47.4 C 215.8 47.4 211 47.4 211 47.4 C 211.1 49 212 49.9 213.4 49.9 C 214.1 49.9 214.9 49.7 215.6 49 C 215.6 49 215.6 49.6 215.6 49.6 C 214.9 50.1 214.2 50.4 213.4 50.4 C 211.7 50.4 210.5 49.2 210.5 47.3 C 210.5 45.3 211.8 44.1 213.3 44.1 C 214.7 44.1 215.8 45.1 215.8 47.1 C 215.8 47.2 215.8 47.3 215.8 47.4 Z M 215.3 47 C 215.3 45.3 214.3 44.6 213.3 44.6 C 212.2 44.6 211.1 45.5 211 47 C 211 47 215.3 47 215.3 47 Z M 217.4 48.1 C 217.45 48.06 217.4 44.2 217.4 44.2 L 217.9 44.2 C 217.9 44.2 217.93 48.09 217.9 48.1 C 217.9 49.2 218.6 49.9 219.7 49.9 C 220.8 49.9 221.5 49.2 221.5 48.1 C 221.54 48.07 221.5 44.2 221.5 44.2 L 222 44.2 C 222 44.2 222.02 48.05 222 48.1 C 222 49.5 221.1 50.4 219.7 50.4 C 218.3 50.4 217.4 49.5 217.4 48.1 Z M 227.5 44.6 C 227.5 44.6 227.5 45.2 227.5 45.2 C 227 44.8 226.4 44.6 225.8 44.6 C 224.8 44.6 224.3 45 224.3 45.7 C 224.3 46.4 224.9 46.6 225.9 47 C 226.8 47.3 227.8 47.6 227.8 48.7 C 227.8 49.7 227 50.4 225.7 50.4 C 225 50.4 224.3 50.1 223.7 49.7 C 223.7 49.7 223.7 49.1 223.7 49.1 C 224.2 49.6 224.9 49.9 225.7 49.9 C 226.7 49.9 227.3 49.4 227.3 48.7 C 227.3 47.9 226.6 47.7 225.6 47.3 C 224.6 47 223.8 46.7 223.8 45.7 C 223.8 44.8 224.6 44.1 225.8 44.1 C 226.4 44.1 227 44.3 227.5 44.6 Z M 234.3 47.4 C 234.3 47.4 229.5 47.4 229.5 47.4 C 229.6 49 230.6 49.9 231.9 49.9 C 232.7 49.9 233.5 49.7 234.1 49 C 234.1 49 234.1 49.6 234.1 49.6 C 233.5 50.1 232.7 50.4 231.9 50.4 C 230.2 50.4 229 49.2 229 47.3 C 229 45.3 230.4 44.1 231.8 44.1 C 233.2 44.1 234.3 45.1 234.3 47.1 C 234.3 47.2 234.3 47.3 234.3 47.4 Z M 233.9 47 C 233.8 45.3 232.9 44.6 231.8 44.6 C 230.7 44.6 229.6 45.5 229.5 47 C 229.5 47 233.9 47 233.9 47 Z M 239.4 44.6 C 239.4 44.6 239.4 45.2 239.4 45.2 C 239 44.8 238.4 44.6 237.7 44.6 C 236.8 44.6 236.2 45 236.2 45.7 C 236.2 46.4 236.8 46.6 237.8 47 C 238.8 47.3 239.7 47.6 239.7 48.7 C 239.7 49.7 238.9 50.4 237.7 50.4 C 237 50.4 236.2 50.1 235.6 49.7 C 235.6 49.7 235.6 49.1 235.6 49.1 C 236.2 49.6 236.9 49.9 237.7 49.9 C 238.6 49.9 239.3 49.4 239.3 48.7 C 239.3 47.9 238.6 47.7 237.6 47.3 C 236.6 47 235.7 46.7 235.7 45.7 C 235.7 44.8 236.5 44.1 237.7 44.1 C 238.4 44.1 239 44.3 239.4 44.6 Z M 248.9 44.6 C 248.9 44.6 248.9 45.2 248.9 45.2 C 248.4 44.8 247.9 44.6 247.2 44.6 C 246.3 44.6 245.7 45 245.7 45.7 C 245.7 46.4 246.3 46.6 247.3 47 C 248.3 47.3 249.2 47.6 249.2 48.7 C 249.2 49.7 248.4 50.4 247.2 50.4 C 246.4 50.4 245.7 50.1 245.1 49.7 C 245.1 49.7 245.1 49.1 245.1 49.1 C 245.6 49.6 246.4 49.9 247.2 49.9 C 248.1 49.9 248.7 49.4 248.7 48.7 C 248.7 47.9 248.1 47.7 247.1 47.3 C 246.1 47 245.2 46.7 245.2 45.7 C 245.2 44.8 246 44.1 247.2 44.1 C 247.8 44.1 248.5 44.3 248.9 44.6 Z M 250.5 47.2 C 250.5 45.4 251.8 44.1 253.4 44.1 C 254.9 44.1 256.2 45.4 256.2 47.2 C 256.2 49.1 254.9 50.4 253.4 50.4 C 251.8 50.4 250.5 49.1 250.5 47.2 Z M 255.8 47.2 C 255.8 45.5 254.6 44.6 253.4 44.6 C 252.1 44.6 250.9 45.5 250.9 47.2 C 250.9 48.9 252.1 49.9 253.4 49.9 C 254.6 49.9 255.8 48.9 255.8 47.2 Z M 262.5 46.2 C 262.54 46.23 262.5 50.3 262.5 50.3 L 262.1 50.3 C 262.1 50.3 262.06 46.43 262.1 46.4 C 262.1 45.2 261.4 44.6 260.3 44.6 C 259.3 44.6 258.5 45.3 258.5 46.4 C 258.46 46.37 258.5 50.3 258.5 50.3 L 258 50.3 L 258 44.2 L 258.4 44.2 L 258.4 45.3 C 258.4 45.3 258.42 45.27 258.4 45.3 C 258.8 44.6 259.5 44.1 260.4 44.1 C 261.7 44.1 262.5 44.9 262.5 46.2 Z M 265.2 44.2 L 267 44.2 L 267 44.6 L 265.2 44.6 C 265.2 44.6 265.22 48.36 265.2 48.4 C 265.2 49.5 265.8 49.9 266.7 49.9 C 266.9 49.9 267 49.9 267.2 49.8 C 267.2 49.8 267.2 50.3 267.2 50.3 C 267.1 50.3 266.9 50.3 266.6 50.3 C 265.5 50.3 264.7 49.7 264.7 48.4 C 264.74 48.38 264.7 44.6 264.7 44.6 L 263.8 44.6 L 263.8 44.2 L 264.8 44.2 L 264.8 42.8 L 265.2 42.8 L 265.2 44.2 Z M 272.6 41.2 L 273.1 41.2 L 273.1 50.3 L 272.6 50.3 L 272.6 41.2 Z M 280.1 47.4 C 280.1 47.4 275.3 47.4 275.3 47.4 C 275.4 49 276.4 49.9 277.8 49.9 C 278.5 49.9 279.3 49.7 279.9 49 C 279.9 49 279.9 49.6 279.9 49.6 C 279.3 50.1 278.5 50.4 277.7 50.4 C 276 50.4 274.9 49.2 274.9 47.3 C 274.9 45.3 276.2 44.1 277.7 44.1 C 279 44.1 280.2 45.1 280.2 47.1 C 280.2 47.2 280.2 47.3 280.1 47.4 Z M 279.7 47 C 279.7 45.3 278.7 44.6 277.7 44.6 C 276.5 44.6 275.4 45.5 275.3 47 C 275.3 47 279.7 47 279.7 47 Z M 285.3 44.6 C 285.3 44.6 285.3 45.2 285.3 45.2 C 284.8 44.8 284.2 44.6 283.5 44.6 C 282.6 44.6 282 45 282 45.7 C 282 46.4 282.7 46.6 283.6 47 C 284.6 47.3 285.6 47.6 285.6 48.7 C 285.6 49.7 284.7 50.4 283.5 50.4 C 282.8 50.4 282 50.1 281.5 49.7 C 281.5 49.7 281.5 49.1 281.5 49.1 C 282 49.6 282.7 49.9 283.5 49.9 C 284.5 49.9 285.1 49.4 285.1 48.7 C 285.1 47.9 284.4 47.7 283.4 47.3 C 282.4 47 281.5 46.7 281.5 45.7 C 281.5 44.8 282.4 44.1 283.5 44.1 C 284.2 44.1 284.8 44.3 285.3 44.6 Z M 296.2 47.4 C 296.2 47.4 291.4 47.4 291.4 47.4 C 291.5 49 292.5 49.9 293.9 49.9 C 294.6 49.9 295.4 49.7 296 49 C 296 49 296 49.6 296 49.6 C 295.4 50.1 294.6 50.4 293.8 50.4 C 292.1 50.4 290.9 49.2 290.9 47.3 C 290.9 45.3 292.3 44.1 293.7 44.1 C 295.1 44.1 296.2 45.1 296.2 47.1 C 296.2 47.2 296.2 47.3 296.2 47.4 Z M 295.8 47 C 295.7 45.3 294.8 44.6 293.7 44.6 C 292.6 44.6 291.5 45.5 291.4 47 C 291.4 47 295.8 47 295.8 47 Z M 302.5 46.2 C 302.52 46.23 302.5 50.3 302.5 50.3 L 302 50.3 C 302 50.3 302.04 46.43 302 46.4 C 302 45.2 301.4 44.6 300.3 44.6 C 299.3 44.6 298.4 45.3 298.4 46.4 C 298.44 46.37 298.4 50.3 298.4 50.3 L 298 50.3 L 298 44.2 L 298.3 44.2 L 298.4 45.3 C 298.4 45.3 298.41 45.27 298.4 45.3 C 298.7 44.6 299.5 44.1 300.4 44.1 C 301.7 44.1 302.5 44.9 302.5 46.2 Z M 305.2 44.2 L 307 44.2 L 307 44.6 L 305.2 44.6 C 305.2 44.6 305.21 48.36 305.2 48.4 C 305.2 49.5 305.8 49.9 306.7 49.9 C 306.8 49.9 307 49.9 307.2 49.8 C 307.2 49.8 307.2 50.3 307.2 50.3 C 307.1 50.3 306.9 50.3 306.6 50.3 C 305.5 50.3 304.7 49.7 304.7 48.4 C 304.73 48.38 304.7 44.6 304.7 44.6 L 303.8 44.6 L 303.8 44.2 L 304.7 44.2 L 304.7 42.8 L 305.2 42.8 L 305.2 44.2 Z M 308.5 44.2 L 308.9 44.2 L 308.9 45.3 C 308.9 45.3 308.92 45.33 308.9 45.3 C 309.3 44.5 310.1 44.1 310.7 44.1 C 310.8 44.1 311 44.2 311.1 44.2 C 311.1 44.2 311.1 44.6 311.1 44.6 C 311 44.6 310.8 44.6 310.7 44.6 C 309.9 44.6 309 45.2 309 46.4 C 308.95 46.43 309 50.3 309 50.3 L 308.5 50.3 L 308.5 44.2 Z M 314.2 43.1 L 313.8 43.1 L 315.1 41.3 L 315.7 41.3 L 314.2 43.1 Z M 316.9 47.4 C 316.9 47.4 312.1 47.4 312.1 47.4 C 312.2 49 313.2 49.9 314.5 49.9 C 315.3 49.9 316 49.7 316.7 49 C 316.7 49 316.7 49.6 316.7 49.6 C 316.1 50.1 315.3 50.4 314.5 50.4 C 312.8 50.4 311.6 49.2 311.6 47.3 C 311.6 45.3 313 44.1 314.4 44.1 C 315.8 44.1 316.9 45.1 316.9 47.1 C 316.9 47.2 316.9 47.3 316.9 47.4 Z M 316.5 47 C 316.4 45.3 315.5 44.6 314.4 44.6 C 313.3 44.6 312.2 45.5 312.1 47 C 312.1 47 316.5 47 316.5 47 Z M 323.5 47.4 C 323.5 47.4 318.7 47.4 318.7 47.4 C 318.8 49 319.8 49.9 321.1 49.9 C 321.9 49.9 322.7 49.7 323.3 49 C 323.3 49 323.3 49.6 323.3 49.6 C 322.7 50.1 321.9 50.4 321.1 50.4 C 319.4 50.4 318.2 49.2 318.2 47.3 C 318.2 45.3 319.6 44.1 321 44.1 C 322.4 44.1 323.5 45.1 323.5 47.1 C 323.5 47.2 323.5 47.3 323.5 47.4 Z M 323.1 47 C 323 45.3 322.1 44.6 321 44.6 C 319.9 44.6 318.8 45.5 318.7 47 C 318.7 47 323.1 47 323.1 47 Z M 328.6 44.6 C 328.6 44.6 328.6 45.2 328.6 45.2 C 328.2 44.8 327.6 44.6 326.9 44.6 C 326 44.6 325.4 45 325.4 45.7 C 325.4 46.4 326 46.6 327 47 C 328 47.3 328.9 47.6 328.9 48.7 C 328.9 49.7 328.1 50.4 326.9 50.4 C 326.2 50.4 325.4 50.1 324.8 49.7 C 324.8 49.7 324.8 49.1 324.8 49.1 C 325.4 49.6 326.1 49.9 326.9 49.9 C 327.8 49.9 328.5 49.4 328.5 48.7 C 328.5 47.9 327.8 47.7 326.8 47.3 C 325.8 47 324.9 46.7 324.9 45.7 C 324.9 44.8 325.7 44.1 326.9 44.1 C 327.6 44.1 328.2 44.3 328.6 44.6 Z " stroke="none" fill="#000"/>
  </g>
  <g id="Polygon24053">
    <path d="M 1.7 30.5 L 3.5 30.5 L 3.5 30.9 L 1.7 30.9 C 1.7 30.9 1.74 34.65 1.7 34.7 C 1.7 35.8 2.3 36.2 3.2 36.2 C 3.4 36.2 3.5 36.2 3.7 36.1 C 3.7 36.1 3.7 36.6 3.7 36.6 C 3.6 36.6 3.4 36.6 3.1 36.6 C 2 36.6 1.3 36 1.3 34.7 C 1.26 34.67 1.3 30.9 1.3 30.9 L 0.3 30.9 L 0.3 30.5 L 1.3 30.5 L 1.3 29.1 L 1.7 29.1 L 1.7 30.5 Z M 4.9 28.3 C 4.9 28.1 5.1 27.9 5.3 27.9 C 5.5 27.9 5.7 28.1 5.7 28.3 C 5.7 28.5 5.5 28.7 5.3 28.7 C 5.1 28.7 4.9 28.5 4.9 28.3 Z M 5 30.5 L 5.5 30.5 L 5.5 36.6 L 5 36.6 L 5 30.5 Z M 7.3 33.5 C 7.3 31.7 8.6 30.4 10.2 30.4 C 11.8 30.4 13.1 31.7 13.1 33.5 C 13.1 35.4 11.8 36.7 10.2 36.7 C 8.6 36.7 7.3 35.4 7.3 33.5 Z M 12.6 33.5 C 12.6 31.8 11.4 30.9 10.2 30.9 C 8.9 30.9 7.8 31.8 7.8 33.5 C 7.8 35.2 9 36.2 10.2 36.2 C 11.4 36.2 12.6 35.2 12.6 33.5 Z M 19.4 32.5 C 19.37 32.52 19.4 36.6 19.4 36.6 L 18.9 36.6 C 18.9 36.6 18.9 32.72 18.9 32.7 C 18.9 31.5 18.3 30.9 17.2 30.9 C 16.1 30.9 15.3 31.6 15.3 32.7 C 15.3 32.66 15.3 36.6 15.3 36.6 L 14.8 36.6 L 14.8 30.5 L 15.2 30.5 L 15.3 31.6 C 15.3 31.6 15.26 31.56 15.3 31.6 C 15.6 30.9 16.3 30.4 17.2 30.4 C 18.5 30.4 19.4 31.2 19.4 32.5 Z M 24.8 30.9 C 24.8 30.9 24.8 31.5 24.8 31.5 C 24.4 31.1 23.8 30.9 23.1 30.9 C 22.2 30.9 21.6 31.3 21.6 32 C 21.6 32.7 22.3 32.9 23.2 33.2 C 24.2 33.6 25.1 33.9 25.1 35 C 25.1 36 24.3 36.7 23.1 36.7 C 22.4 36.7 21.6 36.4 21 35.9 C 21 35.9 21 35.3 21 35.3 C 21.6 35.9 22.3 36.2 23.1 36.2 C 24 36.2 24.7 35.7 24.7 35 C 24.7 34.2 24 34 23 33.6 C 22 33.3 21.1 33 21.1 32 C 21.1 31.1 21.9 30.4 23.1 30.4 C 23.8 30.4 24.4 30.6 24.8 30.9 Z M 32.3 30.9 L 31.3 30.9 L 31.3 30.5 L 32.2 30.5 C 32.2 30.5 32.25 29.33 32.2 29.3 C 32.2 28.1 33.1 27.4 34.1 27.4 C 34.4 27.4 34.7 27.5 35 27.6 C 35 27.6 35 28.1 35 28.1 C 34.7 28 34.4 27.9 34.1 27.9 C 33.3 27.9 32.7 28.3 32.7 29.4 C 32.74 29.41 32.7 30.5 32.7 30.5 L 34.6 30.5 L 34.6 30.9 L 32.7 30.9 L 32.7 36.6 L 32.3 36.6 L 32.3 30.9 Z M 35.9 28.3 C 35.9 28.1 36.1 27.9 36.3 27.9 C 36.5 27.9 36.7 28.1 36.7 28.3 C 36.7 28.5 36.5 28.7 36.3 28.7 C 36.1 28.7 35.9 28.5 35.9 28.3 Z M 36 30.5 L 36.5 30.5 L 36.5 36.6 L 36 36.6 L 36 30.5 Z M 43.3 32.5 C 43.27 32.52 43.3 36.6 43.3 36.6 L 42.8 36.6 C 42.8 36.6 42.79 32.72 42.8 32.7 C 42.8 31.5 42.2 30.9 41.1 30.9 C 40 30.9 39.2 31.6 39.2 32.7 C 39.19 32.66 39.2 36.6 39.2 36.6 L 38.7 36.6 L 38.7 30.5 L 39.1 30.5 L 39.1 31.6 C 39.1 31.6 39.16 31.56 39.2 31.6 C 39.5 30.9 40.2 30.4 41.1 30.4 C 42.4 30.4 43.3 31.2 43.3 32.5 Z M 50.2 33.7 C 50.2 33.7 45.4 33.7 45.4 33.7 C 45.5 35.3 46.5 36.2 47.9 36.2 C 48.6 36.2 49.4 35.9 50 35.3 C 50 35.3 50 35.9 50 35.9 C 49.4 36.4 48.6 36.7 47.8 36.7 C 46.1 36.7 44.9 35.4 44.9 33.5 C 44.9 31.6 46.3 30.4 47.7 30.4 C 49.1 30.4 50.3 31.4 50.3 33.4 C 50.3 33.5 50.2 33.6 50.2 33.7 Z M 49.8 33.3 C 49.7 31.6 48.8 30.8 47.7 30.8 C 46.6 30.8 45.5 31.8 45.4 33.3 C 45.4 33.3 49.8 33.3 49.8 33.3 Z M 55.3 30.9 C 55.3 30.9 55.3 31.5 55.3 31.5 C 54.9 31.1 54.3 30.9 53.6 30.9 C 52.7 30.9 52.1 31.3 52.1 32 C 52.1 32.7 52.8 32.9 53.7 33.2 C 54.7 33.6 55.6 33.9 55.6 35 C 55.6 36 54.8 36.7 53.6 36.7 C 52.9 36.7 52.1 36.4 51.5 35.9 C 51.5 35.9 51.5 35.3 51.5 35.3 C 52.1 35.9 52.8 36.2 53.6 36.2 C 54.5 36.2 55.2 35.7 55.2 35 C 55.2 34.2 54.5 34 53.5 33.6 C 52.5 33.3 51.6 33 51.6 32 C 51.6 31.1 52.4 30.4 53.6 30.4 C 54.3 30.4 54.9 30.6 55.3 30.9 Z M 62.6 33.1 C 62.6 35.1 63.5 36.7 64.8 38.1 C 64.8 38.1 64.2 38.1 64.2 38.1 C 63 36.8 62.1 35.1 62.1 33.1 C 62.1 31 63 29.3 64.2 28.1 C 64.2 28.1 64.8 28.1 64.8 28.1 C 63.5 29.4 62.6 31.1 62.6 33.1 Z M 67.7 28.7 L 65.4 29.8 L 65.4 29.2 L 68.1 28.1 L 68.2 28.1 L 68.2 36.6 L 67.7 36.6 L 67.7 28.7 Z M 70.7 32.8 L 73.4 32.8 L 73.4 33.3 L 70.7 33.3 L 70.7 32.8 Z M 78.5 30.3 C 78.5 29.4 77.8 28.4 76.5 28.4 C 75.6 28.4 74.9 28.9 74.4 29.4 C 74.4 29.4 74.4 28.8 74.4 28.8 C 74.9 28.3 75.7 27.9 76.5 27.9 C 78.1 27.9 79 29.1 79 30.3 C 79 31.7 77.9 32.9 75.1 36.1 C 75.05 36.08 79.2 36.1 79.2 36.1 L 79.2 36.6 C 79.2 36.6 74.02 36.56 74 36.6 C 77.9 32.3 78.5 31.5 78.5 30.3 Z M 80.7 28.1 C 81.9 29.3 82.8 31 82.8 33.1 C 82.8 35.1 81.9 36.8 80.7 38.1 C 80.7 38.1 80.1 38.1 80.1 38.1 C 81.4 36.7 82.3 35.1 82.3 33.1 C 82.3 31.1 81.4 29.4 80.1 28.1 C 80.1 28.1 80.7 28.1 80.7 28.1 Z M 84.5 35.6 C 84.46 35.64 84.5 35.2 84.5 35.2 L 84.9 35.2 C 84.9 35.2 84.94 35.63 84.9 35.6 C 84.9 36.5 84.6 37.5 84.3 38.1 C 84.3 38.1 84 38.1 84 38.1 C 84.2 37.5 84.5 36.6 84.5 35.6 Z M 97.1 33.7 C 97.1 33.7 92.3 33.7 92.3 33.7 C 92.3 35.3 93.3 36.2 94.7 36.2 C 95.4 36.2 96.2 35.9 96.9 35.3 C 96.9 35.3 96.9 35.9 96.9 35.9 C 96.2 36.4 95.5 36.7 94.7 36.7 C 93 36.7 91.8 35.4 91.8 33.5 C 91.8 31.6 93.1 30.4 94.6 30.4 C 95.9 30.4 97.1 31.4 97.1 33.4 C 97.1 33.5 97.1 33.6 97.1 33.7 Z M 96.6 33.3 C 96.6 31.6 95.6 30.8 94.6 30.8 C 93.4 30.8 92.4 31.8 92.3 33.3 C 92.3 33.3 96.6 33.3 96.6 33.3 Z M 103.4 32.5 C 103.37 32.52 103.4 36.6 103.4 36.6 L 102.9 36.6 C 102.9 36.6 102.89 32.72 102.9 32.7 C 102.9 31.5 102.3 30.9 101.2 30.9 C 100.1 30.9 99.3 31.6 99.3 32.7 C 99.29 32.66 99.3 36.6 99.3 36.6 L 98.8 36.6 L 98.8 30.5 L 99.2 30.5 L 99.2 31.6 C 99.2 31.6 99.25 31.56 99.3 31.6 C 99.6 30.9 100.3 30.4 101.2 30.4 C 102.5 30.4 103.4 31.2 103.4 32.5 Z M 115.5 33.7 C 115.5 33.7 110.7 33.7 110.7 33.7 C 110.8 35.3 111.8 36.2 113.2 36.2 C 113.9 36.2 114.7 35.9 115.3 35.3 C 115.3 35.3 115.3 35.9 115.3 35.9 C 114.7 36.4 113.9 36.7 113.1 36.7 C 111.4 36.7 110.3 35.4 110.3 33.5 C 110.3 31.6 111.6 30.4 113.1 30.4 C 114.4 30.4 115.6 31.4 115.6 33.4 C 115.6 33.5 115.6 33.6 115.5 33.7 Z M 115.1 33.3 C 115.1 31.6 114.1 30.8 113.1 30.8 C 111.9 30.8 110.8 31.8 110.7 33.3 C 110.7 33.3 115.1 33.3 115.1 33.3 Z M 121.8 32.5 C 121.84 32.52 121.8 36.6 121.8 36.6 L 121.4 36.6 C 121.4 36.6 121.36 32.72 121.4 32.7 C 121.4 31.5 120.7 30.9 119.6 30.9 C 118.6 30.9 117.8 31.6 117.8 32.7 C 117.76 32.66 117.8 36.6 117.8 36.6 L 117.3 36.6 L 117.3 30.5 L 117.7 30.5 L 117.7 31.6 C 117.7 31.6 117.72 31.56 117.7 31.6 C 118.1 30.9 118.8 30.4 119.7 30.4 C 121 30.4 121.8 31.2 121.8 32.5 Z M 123.1 30.5 L 123.6 30.5 L 125.6 36 L 125.6 36 L 127.6 30.5 L 128.1 30.5 L 125.9 36.6 L 125.3 36.6 L 123.1 30.5 Z M 129.5 28.3 C 129.5 28.1 129.6 27.9 129.8 27.9 C 130.1 27.9 130.2 28.1 130.2 28.3 C 130.2 28.5 130.1 28.7 129.8 28.7 C 129.6 28.7 129.5 28.5 129.5 28.3 Z M 129.6 30.5 L 130.1 30.5 L 130.1 36.6 L 129.6 36.6 L 129.6 30.5 Z M 135.7 30.9 C 135.7 30.9 135.7 31.5 135.7 31.5 C 135.2 31.1 134.6 30.9 133.9 30.9 C 133 30.9 132.4 31.3 132.4 32 C 132.4 32.7 133.1 32.9 134 33.2 C 135 33.6 136 33.9 136 35 C 136 36 135.1 36.7 133.9 36.7 C 133.2 36.7 132.4 36.4 131.9 35.9 C 131.9 35.9 131.9 35.3 131.9 35.3 C 132.4 35.9 133.1 36.2 133.9 36.2 C 134.9 36.2 135.5 35.7 135.5 35 C 135.5 34.2 134.8 34 133.8 33.6 C 132.8 33.3 131.9 33 131.9 32 C 131.9 31.1 132.8 30.4 133.9 30.4 C 134.6 30.4 135.2 30.6 135.7 30.9 Z M 137.2 33.5 C 137.2 31.6 138.5 30.4 140 30.4 C 140.9 30.4 141.9 30.9 142.3 32 C 142.34 32.01 142.4 30.5 142.4 30.5 L 142.8 30.5 L 142.8 36.6 L 142.4 36.6 C 142.4 36.6 142.34 35.04 142.3 35 C 141.9 36.1 140.9 36.7 140 36.7 C 138.5 36.7 137.2 35.5 137.2 33.5 Z M 142.3 33.5 C 142.3 31.9 141.3 30.9 140 30.9 C 138.7 30.9 137.7 31.9 137.7 33.5 C 137.7 35.2 138.8 36.2 140 36.2 C 141.3 36.2 142.3 35.2 142.3 33.5 Z M 149.6 32 C 149.64 31.95 149.7 30.5 149.7 30.5 L 150.1 30.5 C 150.1 30.5 150.09 36.36 150.1 36.4 C 150.1 38.3 148.8 39.1 147.4 39.1 C 146.6 39.1 145.8 38.9 145.1 38.4 C 145.1 38.4 145.1 37.8 145.1 37.8 C 145.8 38.4 146.6 38.6 147.4 38.6 C 148.6 38.6 149.6 38 149.6 36.5 C 149.6 36.5 149.6 34.9 149.6 34.9 C 149.2 35.9 148.2 36.5 147.3 36.5 C 145.9 36.5 144.5 35.3 144.5 33.4 C 144.5 31.6 145.9 30.4 147.3 30.4 C 148.2 30.4 149.2 30.9 149.6 32 Z M 145 33.5 C 145 35 146.1 36 147.3 36 C 148.6 36 149.6 35 149.6 33.4 C 149.6 31.9 148.6 30.9 147.3 30.9 C 146.1 30.9 145 31.9 145 33.5 Z M 157.1 33.7 C 157.1 33.7 152.3 33.7 152.3 33.7 C 152.4 35.3 153.4 36.2 154.8 36.2 C 155.5 36.2 156.3 35.9 156.9 35.3 C 156.9 35.3 156.9 35.9 156.9 35.9 C 156.3 36.4 155.5 36.7 154.7 36.7 C 153 36.7 151.8 35.4 151.8 33.5 C 151.8 31.6 153.2 30.4 154.6 30.4 C 156 30.4 157.1 31.4 157.1 33.4 C 157.1 33.5 157.1 33.6 157.1 33.7 Z M 156.7 33.3 C 156.6 31.6 155.7 30.8 154.6 30.8 C 153.5 30.8 152.4 31.8 152.3 33.3 C 152.3 33.3 156.7 33.3 156.7 33.3 Z M 158.4 33.5 C 158.4 31.6 159.8 30.4 161.2 30.4 C 162.2 30.4 163.1 30.9 163.6 32 C 163.58 32.01 163.7 30.5 163.7 30.5 L 164 30.5 L 164 36.6 L 163.7 36.6 C 163.7 36.6 163.58 35.04 163.6 35 C 163.1 36.1 162.2 36.7 161.2 36.7 C 159.8 36.7 158.4 35.5 158.4 33.5 Z M 163.6 33.5 C 163.6 31.9 162.5 30.9 161.2 30.9 C 160 30.9 158.9 31.9 158.9 33.5 C 158.9 35.2 160 36.2 161.3 36.2 C 162.5 36.2 163.6 35.2 163.6 33.5 Z M 170.8 32.5 C 170.76 32.52 170.8 36.6 170.8 36.6 L 170.3 36.6 C 170.3 36.6 170.28 32.72 170.3 32.7 C 170.3 31.5 169.6 30.9 168.6 30.9 C 167.5 30.9 166.7 31.6 166.7 32.7 C 166.68 32.66 166.7 36.6 166.7 36.6 L 166.2 36.6 L 166.2 30.5 L 166.6 30.5 L 166.6 31.6 C 166.6 31.6 166.64 31.56 166.6 31.6 C 167 30.9 167.7 30.4 168.6 30.4 C 169.9 30.4 170.8 31.2 170.8 32.5 Z M 173.4 30.5 L 175.2 30.5 L 175.2 30.9 L 173.4 30.9 C 173.4 30.9 173.44 34.65 173.4 34.7 C 173.4 35.8 174 36.2 174.9 36.2 C 175.1 36.2 175.2 36.2 175.4 36.1 C 175.4 36.1 175.4 36.6 175.4 36.6 C 175.3 36.6 175.1 36.6 174.8 36.6 C 173.7 36.6 173 36 173 34.7 C 172.96 34.67 173 30.9 173 30.9 L 172 30.9 L 172 30.5 L 173 30.5 L 173 29.1 L 173.4 29.1 L 173.4 30.5 Z M 181.4 33.5 C 181.4 31.6 182.8 30.4 184.2 30.4 C 185.2 30.4 186.1 30.9 186.6 32 C 186.55 31.96 186.6 27.5 186.6 27.5 L 187 27.5 L 187 36.6 L 186.7 36.6 L 186.6 35 C 186.6 35 186.58 35.03 186.6 35 C 186.1 36.1 185.2 36.7 184.2 36.7 C 182.8 36.7 181.4 35.5 181.4 33.5 Z M 186.6 33.5 C 186.6 31.9 185.5 30.9 184.2 30.9 C 183 30.9 181.9 31.9 181.9 33.5 C 181.9 35.2 183 36.2 184.2 36.2 C 185.5 36.2 186.6 35.2 186.6 33.5 Z M 194.1 33.7 C 194.1 33.7 189.3 33.7 189.3 33.7 C 189.3 35.3 190.3 36.2 191.7 36.2 C 192.4 36.2 193.2 35.9 193.9 35.3 C 193.9 35.3 193.9 35.9 193.9 35.9 C 193.2 36.4 192.5 36.7 191.7 36.7 C 190 36.7 188.8 35.4 188.8 33.5 C 188.8 31.6 190.1 30.4 191.6 30.4 C 192.9 30.4 194.1 31.4 194.1 33.4 C 194.1 33.5 194.1 33.6 194.1 33.7 Z M 193.6 33.3 C 193.6 31.6 192.6 30.8 191.6 30.8 C 190.4 30.8 189.4 31.8 189.3 33.3 C 189.3 33.3 193.6 33.3 193.6 33.3 Z M 205.6 32.5 C 205.58 32.52 205.6 36.6 205.6 36.6 L 205.1 36.6 C 205.1 36.6 205.1 32.72 205.1 32.7 C 205.1 31.5 204.5 30.9 203.4 30.9 C 202.3 30.9 201.5 31.6 201.5 32.7 C 201.5 32.66 201.5 36.6 201.5 36.6 L 201 36.6 L 201 30.5 L 201.4 30.5 L 201.5 31.6 C 201.5 31.6 201.47 31.56 201.5 31.6 C 201.8 30.9 202.5 30.4 203.4 30.4 C 204.7 30.4 205.6 31.2 205.6 32.5 Z M 207.2 33.5 C 207.2 31.7 208.5 30.4 210.1 30.4 C 211.7 30.4 213 31.7 213 33.5 C 213 35.4 211.7 36.7 210.1 36.7 C 208.6 36.7 207.2 35.4 207.2 33.5 Z M 212.6 33.5 C 212.6 31.8 211.4 30.9 210.1 30.9 C 208.9 30.9 207.7 31.8 207.7 33.5 C 207.7 35.2 208.9 36.2 210.1 36.2 C 211.4 36.2 212.6 35.2 212.6 33.5 Z M 214.7 34.4 C 214.69 34.35 214.7 30.5 214.7 30.5 L 215.2 30.5 C 215.2 30.5 215.17 34.38 215.2 34.4 C 215.2 35.5 215.9 36.2 217 36.2 C 218.1 36.2 218.8 35.5 218.8 34.4 C 218.78 34.37 218.8 30.5 218.8 30.5 L 219.3 30.5 C 219.3 30.5 219.26 34.34 219.3 34.3 C 219.3 35.7 218.4 36.7 217 36.7 C 215.6 36.7 214.7 35.7 214.7 34.4 Z M 220.7 30.5 L 221.2 30.5 L 223.2 36 L 223.2 36 L 225.2 30.5 L 225.7 30.5 L 223.4 36.6 L 222.9 36.6 L 220.7 30.5 Z M 231.8 33.7 C 231.8 33.7 227 33.7 227 33.7 C 227.1 35.3 228.1 36.2 229.4 36.2 C 230.2 36.2 230.9 35.9 231.6 35.3 C 231.6 35.3 231.6 35.9 231.6 35.9 C 230.9 36.4 230.2 36.7 229.4 36.7 C 227.7 36.7 226.5 35.4 226.5 33.5 C 226.5 31.6 227.9 30.4 229.3 30.4 C 230.7 30.4 231.8 31.4 231.8 33.4 C 231.8 33.5 231.8 33.6 231.8 33.7 Z M 231.3 33.3 C 231.3 31.6 230.4 30.8 229.3 30.8 C 228.2 30.8 227.1 31.8 227 33.3 C 227 33.3 231.3 33.3 231.3 33.3 Z M 233.6 27.5 L 234.1 27.5 L 234.1 36.6 L 233.6 36.6 L 233.6 27.5 Z M 236.3 27.5 L 236.8 27.5 L 236.8 36.6 L 236.3 36.6 L 236.3 27.5 Z M 243.8 33.7 C 243.8 33.7 239 33.7 239 33.7 C 239.1 35.3 240.1 36.2 241.5 36.2 C 242.2 36.2 243 35.9 243.6 35.3 C 243.6 35.3 243.6 35.9 243.6 35.9 C 243 36.4 242.2 36.7 241.4 36.7 C 239.7 36.7 238.6 35.4 238.6 33.5 C 238.6 31.6 239.9 30.4 241.4 30.4 C 242.7 30.4 243.9 31.4 243.9 33.4 C 243.9 33.5 243.9 33.6 243.8 33.7 Z M 243.4 33.3 C 243.4 31.6 242.4 30.8 241.4 30.8 C 240.2 30.8 239.1 31.8 239 33.3 C 239 33.3 243.4 33.3 243.4 33.3 Z M 249 30.9 C 249 30.9 249 31.5 249 31.5 C 248.5 31.1 247.9 30.9 247.2 30.9 C 246.3 30.9 245.7 31.3 245.7 32 C 245.7 32.7 246.4 32.9 247.3 33.2 C 248.3 33.6 249.3 33.9 249.3 35 C 249.3 36 248.4 36.7 247.2 36.7 C 246.5 36.7 245.7 36.4 245.2 35.9 C 245.2 35.9 245.2 35.3 245.2 35.3 C 245.7 35.9 246.4 36.2 247.2 36.2 C 248.2 36.2 248.8 35.7 248.8 35 C 248.8 34.2 248.1 34 247.1 33.6 C 246.1 33.3 245.2 33 245.2 32 C 245.2 31.1 246.1 30.4 247.2 30.4 C 247.9 30.4 248.5 30.6 249 30.9 Z M 256.7 30.5 L 258.5 30.5 L 258.5 30.9 L 256.7 30.9 C 256.7 30.9 256.67 34.65 256.7 34.7 C 256.7 35.8 257.3 36.2 258.1 36.2 C 258.3 36.2 258.5 36.2 258.6 36.1 C 258.6 36.1 258.6 36.6 258.6 36.6 C 258.6 36.6 258.3 36.6 258.1 36.6 C 257 36.6 256.2 36 256.2 34.7 C 256.19 34.67 256.2 30.9 256.2 30.9 L 255.3 30.9 L 255.3 30.5 L 256.2 30.5 L 256.2 29.1 L 256.7 29.1 L 256.7 30.5 Z M 261 39 L 260.4 39 L 261.5 36.3 L 259.2 30.5 L 259.8 30.5 L 261.8 35.7 L 261.8 35.7 L 263.8 30.5 L 264.3 30.5 L 261 39 Z M 265.7 30.5 L 266.1 30.5 C 266.1 30.5 266.15 32.02 266.1 32 C 266.6 30.9 267.6 30.4 268.5 30.4 C 270 30.4 271.3 31.6 271.3 33.5 C 271.3 35.5 270 36.7 268.5 36.7 C 267.6 36.7 266.6 36.1 266.2 35.1 C 266.18 35.08 266.2 39 266.2 39 L 265.7 39 L 265.7 30.5 Z M 270.8 33.5 C 270.8 31.9 269.8 30.9 268.5 30.9 C 267.2 30.9 266.2 31.9 266.2 33.5 C 266.2 35.2 267.2 36.2 268.5 36.2 C 269.7 36.2 270.8 35.2 270.8 33.5 Z M 272.6 33.5 C 272.6 31.7 273.9 30.4 275.5 30.4 C 277.1 30.4 278.4 31.7 278.4 33.5 C 278.4 35.4 277.1 36.7 275.5 36.7 C 273.9 36.7 272.6 35.4 272.6 33.5 Z M 277.9 33.5 C 277.9 31.8 276.8 30.9 275.5 30.9 C 274.3 30.9 273.1 31.8 273.1 33.5 C 273.1 35.2 274.3 36.2 275.5 36.2 C 276.8 36.2 277.9 35.2 277.9 33.5 Z M 280.2 27.5 L 280.7 27.5 L 280.7 36.6 L 280.2 36.6 L 280.2 27.5 Z M 282.4 33.5 C 282.4 31.7 283.7 30.4 285.3 30.4 C 286.9 30.4 288.2 31.7 288.2 33.5 C 288.2 35.4 286.9 36.7 285.3 36.7 C 283.7 36.7 282.4 35.4 282.4 33.5 Z M 287.7 33.5 C 287.7 31.8 286.6 30.9 285.3 30.9 C 284.1 30.9 282.9 31.8 282.9 33.5 C 282.9 35.2 284.1 36.2 285.3 36.2 C 286.6 36.2 287.7 35.2 287.7 33.5 Z M 294.6 32 C 294.64 31.95 294.7 30.5 294.7 30.5 L 295.1 30.5 C 295.1 30.5 295.09 36.36 295.1 36.4 C 295.1 38.3 293.8 39.1 292.4 39.1 C 291.6 39.1 290.8 38.9 290.1 38.4 C 290.1 38.4 290.1 37.8 290.1 37.8 C 290.8 38.4 291.6 38.6 292.4 38.6 C 293.6 38.6 294.6 38 294.6 36.5 C 294.6 36.5 294.6 34.9 294.6 34.9 C 294.2 35.9 293.2 36.5 292.3 36.5 C 290.8 36.5 289.5 35.3 289.5 33.4 C 289.5 31.6 290.8 30.4 292.3 30.4 C 293.2 30.4 294.2 30.9 294.6 32 Z M 290 33.5 C 290 35 291.1 36 292.3 36 C 293.6 36 294.6 35 294.6 33.4 C 294.6 31.9 293.6 30.9 292.3 30.9 C 291.1 30.9 290 31.9 290 33.5 Z M 297.2 28.3 C 297.2 28.1 297.3 27.9 297.5 27.9 C 297.8 27.9 297.9 28.1 297.9 28.3 C 297.9 28.5 297.8 28.7 297.5 28.7 C 297.3 28.7 297.2 28.5 297.2 28.3 Z M 297.3 30.5 L 297.8 30.5 L 297.8 36.6 L 297.3 36.6 L 297.3 30.5 Z M 304.8 33.7 C 304.8 33.7 300 33.7 300 33.7 C 300.1 35.3 301.1 36.2 302.5 36.2 C 303.2 36.2 304 35.9 304.6 35.3 C 304.6 35.3 304.6 35.9 304.6 35.9 C 304 36.4 303.2 36.7 302.4 36.7 C 300.7 36.7 299.6 35.4 299.6 33.5 C 299.6 31.6 300.9 30.4 302.4 30.4 C 303.7 30.4 304.9 31.4 304.9 33.4 C 304.9 33.5 304.9 33.6 304.8 33.7 Z M 304.4 33.3 C 304.4 31.6 303.4 30.8 302.4 30.8 C 301.2 30.8 300.1 31.8 300 33.3 C 300 33.3 304.4 33.3 304.4 33.3 Z M 310 30.9 C 310 30.9 310 31.5 310 31.5 C 309.5 31.1 308.9 30.9 308.2 30.9 C 307.3 30.9 306.7 31.3 306.7 32 C 306.7 32.7 307.4 32.9 308.3 33.2 C 309.3 33.6 310.3 33.9 310.3 35 C 310.3 36 309.4 36.7 308.2 36.7 C 307.5 36.7 306.8 36.4 306.2 35.9 C 306.2 35.9 306.2 35.3 306.2 35.3 C 306.7 35.9 307.4 36.2 308.2 36.2 C 309.2 36.2 309.8 35.7 309.8 35 C 309.8 34.2 309.1 34 308.1 33.6 C 307.1 33.3 306.2 33 306.2 32 C 306.2 31.1 307.1 30.4 308.2 30.4 C 308.9 30.4 309.5 30.6 310 30.9 Z M 317.2 33.1 C 317.2 35.1 318.1 36.7 319.4 38.1 C 319.4 38.1 318.8 38.1 318.8 38.1 C 317.6 36.8 316.7 35.1 316.7 33.1 C 316.7 31 317.6 29.3 318.8 28.1 C 318.8 28.1 319.4 28.1 319.4 28.1 C 318.1 29.4 317.2 31.1 317.2 33.1 Z M 325.2 34.4 C 325.2 35.6 324.3 36.7 322.6 36.7 C 321.6 36.7 320.9 36.3 320.4 35.7 C 320.4 35.7 320.4 35.1 320.4 35.1 C 320.8 35.8 321.6 36.2 322.6 36.2 C 323.9 36.2 324.7 35.4 324.7 34.3 C 324.7 33.2 323.9 32.4 322.4 32.4 C 322.4 32.43 321.4 32.4 321.4 32.4 L 321.4 32 C 321.4 32 322.24 31.97 322.2 32 C 323.7 32 324.4 31.1 324.4 30.1 C 324.4 29.2 323.7 28.4 322.5 28.4 C 321.7 28.4 321 28.8 320.6 29.3 C 320.6 29.3 320.6 28.7 320.6 28.7 C 321.1 28.3 321.8 27.9 322.5 27.9 C 324 27.9 324.9 28.9 324.9 30.1 C 324.9 31.1 324.3 31.9 323.2 32.1 C 324.4 32.4 325.2 33.2 325.2 34.4 Z M 326.7 28.1 C 328 29.3 328.8 31 328.8 33.1 C 328.8 35.1 328 36.8 326.7 38.1 C 326.7 38.1 326.1 38.1 326.1 38.1 C 327.5 36.7 328.4 35.1 328.4 33.1 C 328.4 31.1 327.5 29.4 326.1 28.1 C 326.1 28.1 326.7 28.1 326.7 28.1 Z " stroke="none" fill="#000"/>
  </g>
  <g id="Polygon24052">
    <path d="M 1.7 16.8 L 3.5 16.8 L 3.5 17.2 L 1.7 17.2 C 1.7 17.2 1.74 20.94 1.7 20.9 C 1.7 22.1 2.3 22.5 3.2 22.5 C 3.4 22.5 3.5 22.5 3.7 22.4 C 3.7 22.4 3.7 22.9 3.7 22.9 C 3.6 22.9 3.4 22.9 3.1 22.9 C 2 22.9 1.3 22.3 1.3 21 C 1.26 20.96 1.3 17.2 1.3 17.2 L 0.3 17.2 L 0.3 16.8 L 1.3 16.8 L 1.3 15.4 L 1.7 15.4 L 1.7 16.8 Z M 4.5 19.8 C 4.5 17.9 5.8 16.7 7.3 16.7 C 8.2 16.7 9.2 17.2 9.6 18.3 C 9.64 18.3 9.7 16.8 9.7 16.8 L 10.1 16.8 L 10.1 22.8 L 9.7 22.8 C 9.7 22.8 9.64 21.33 9.6 21.3 C 9.2 22.4 8.2 23 7.3 23 C 5.8 23 4.5 21.8 4.5 19.8 Z M 9.6 19.8 C 9.6 18.2 8.6 17.1 7.3 17.1 C 6 17.1 5 18.2 5 19.8 C 5 21.5 6.1 22.5 7.3 22.5 C 8.6 22.5 9.6 21.5 9.6 19.8 Z M 14.8 22.5 C 15.2 22.5 15.9 22.4 16.4 22 C 16.4 22 16.4 22.5 16.4 22.5 C 15.9 22.8 15.4 23 14.8 23 C 13.1 23 11.8 21.6 11.8 19.8 C 11.8 18 13.1 16.7 14.7 16.7 C 15.3 16.7 15.9 16.8 16.4 17.1 C 16.4 17.1 16.4 17.6 16.4 17.6 C 15.9 17.3 15.3 17.1 14.7 17.1 C 13.5 17.1 12.3 18.2 12.3 19.8 C 12.3 21.5 13.5 22.5 14.8 22.5 Z M 18.6 17.7 C 18.6 17.7 18.58 17.74 18.6 17.7 C 18.9 17.1 19.7 16.7 20.5 16.7 C 21.8 16.7 22.6 17.4 22.6 18.8 C 22.64 18.83 22.6 22.8 22.6 22.8 L 22.2 22.8 C 22.2 22.8 22.16 19 22.2 19 C 22.2 17.8 21.6 17.1 20.5 17.1 C 19.5 17.1 18.6 17.7 18.6 18.9 C 18.56 18.9 18.6 22.8 18.6 22.8 L 18.1 22.8 L 18.1 13.8 L 18.6 13.8 L 18.6 17.7 Z M 29.6 20 C 29.6 20 24.8 20 24.8 20 C 24.9 21.5 25.9 22.5 27.2 22.5 C 28 22.5 28.7 22.2 29.4 21.6 C 29.4 21.6 29.4 22.2 29.4 22.2 C 28.8 22.7 28 23 27.2 23 C 25.5 23 24.3 21.7 24.3 19.8 C 24.3 17.9 25.7 16.7 27.1 16.7 C 28.5 16.7 29.6 17.7 29.6 19.7 C 29.6 19.8 29.6 19.9 29.6 20 Z M 29.2 19.5 C 29.1 17.9 28.2 17.1 27.1 17.1 C 26 17.1 24.9 18.1 24.8 19.5 C 24.8 19.5 29.2 19.5 29.2 19.5 Z M 31.3 16.8 L 31.7 16.8 L 31.8 17.9 C 31.8 17.9 31.79 17.91 31.8 17.9 C 32.2 17.1 33 16.7 33.6 16.7 C 33.7 16.7 33.8 16.7 34 16.7 C 34 16.7 34 17.2 34 17.2 C 33.8 17.2 33.7 17.2 33.6 17.2 C 32.7 17.2 31.8 17.8 31.8 19 C 31.83 19.01 31.8 22.8 31.8 22.8 L 31.3 22.8 L 31.3 16.8 Z M 41.4 15.7 L 41 15.7 L 39.5 13.9 L 40 13.9 L 41.4 15.7 Z M 37.7 19.8 C 37.7 17.9 39 16.7 40.5 16.7 C 41.4 16.7 42.4 17.2 42.8 18.3 C 42.84 18.3 42.9 16.8 42.9 16.8 L 43.3 16.8 L 43.3 22.8 L 42.9 22.8 C 42.9 22.8 42.84 21.33 42.8 21.3 C 42.4 22.4 41.4 23 40.5 23 C 39 23 37.7 21.8 37.7 19.8 Z M 42.8 19.8 C 42.8 18.2 41.8 17.1 40.5 17.1 C 39.2 17.1 38.2 18.2 38.2 19.8 C 38.2 21.5 39.3 22.5 40.5 22.5 C 41.8 22.5 42.8 21.5 42.8 19.8 Z M 48.7 13.8 L 49.2 13.8 L 49.2 22.8 L 48.7 22.8 L 48.7 13.8 Z M 51.5 14.8 C 51.54 14.78 51.5 14.4 51.5 14.4 L 52 14.4 C 52 14.4 52.02 14.77 52 14.8 C 52 15.7 51.6 16.7 51.4 17.2 C 51.4 17.2 51 17.2 51 17.2 C 51.2 16.6 51.5 15.7 51.5 14.8 Z M 53.8 20.6 C 53.76 20.64 53.8 16.8 53.8 16.8 L 54.2 16.8 C 54.2 16.8 54.24 20.67 54.2 20.7 C 54.2 21.8 54.9 22.5 56 22.5 C 57.1 22.5 57.8 21.8 57.8 20.7 C 57.85 20.66 57.8 16.8 57.8 16.8 L 58.3 16.8 C 58.3 16.8 58.33 20.63 58.3 20.6 C 58.3 22 57.4 23 56 23 C 54.6 23 53.8 22 53.8 20.6 Z M 65 18.8 C 64.98 18.82 65 22.8 65 22.8 L 64.5 22.8 C 64.5 22.8 64.5 19.01 64.5 19 C 64.5 17.8 63.9 17.2 62.8 17.2 C 61.7 17.2 60.9 17.8 60.9 19 C 60.9 18.95 60.9 22.8 60.9 22.8 L 60.4 22.8 L 60.4 16.8 L 60.8 16.8 L 60.9 17.9 C 60.9 17.9 60.86 17.86 60.9 17.9 C 61.2 17.2 61.9 16.7 62.8 16.7 C 64.1 16.7 65 17.5 65 18.8 Z M 67 14.6 C 67 14.4 67.1 14.2 67.3 14.2 C 67.6 14.2 67.7 14.4 67.7 14.6 C 67.7 14.8 67.6 15 67.3 15 C 67.1 15 67 14.8 67 14.6 Z M 67.1 16.8 L 67.6 16.8 L 67.6 22.8 L 67.1 22.8 L 67.1 16.8 Z M 69.1 16.8 L 69.6 16.8 L 71.6 22.3 L 71.6 22.3 L 73.6 16.8 L 74.1 16.8 L 71.9 22.8 L 71.3 22.8 L 69.1 16.8 Z M 80.2 20 C 80.2 20 75.4 20 75.4 20 C 75.5 21.5 76.5 22.5 77.9 22.5 C 78.6 22.5 79.4 22.2 80 21.6 C 80 21.6 80 22.2 80 22.2 C 79.4 22.7 78.6 23 77.8 23 C 76.1 23 74.9 21.7 74.9 19.8 C 74.9 17.9 76.3 16.7 77.8 16.7 C 79.1 16.7 80.3 17.7 80.3 19.7 C 80.3 19.8 80.2 19.9 80.2 20 Z M 79.8 19.5 C 79.8 17.9 78.8 17.1 77.8 17.1 C 76.6 17.1 75.5 18.1 75.4 19.5 C 75.4 19.5 79.8 19.5 79.8 19.5 Z M 82 16.8 L 82.4 16.8 L 82.4 17.9 C 82.4 17.9 82.42 17.91 82.4 17.9 C 82.8 17.1 83.6 16.7 84.2 16.7 C 84.3 16.7 84.5 16.7 84.6 16.7 C 84.6 16.7 84.6 17.2 84.6 17.2 C 84.5 17.2 84.3 17.2 84.2 17.2 C 83.4 17.2 82.5 17.8 82.5 19 C 82.45 19.01 82.5 22.8 82.5 22.8 L 82 22.8 L 82 16.8 Z M 89.2 17.2 C 89.2 17.2 89.2 17.8 89.2 17.8 C 88.7 17.4 88.1 17.1 87.4 17.1 C 86.5 17.1 85.9 17.6 85.9 18.3 C 85.9 19 86.6 19.2 87.5 19.5 C 88.5 19.9 89.5 20.2 89.5 21.3 C 89.5 22.3 88.6 23 87.4 23 C 86.7 23 85.9 22.7 85.4 22.2 C 85.4 22.2 85.4 21.6 85.4 21.6 C 85.9 22.2 86.6 22.5 87.4 22.5 C 88.4 22.5 89 22 89 21.3 C 89 20.5 88.3 20.2 87.3 19.9 C 86.3 19.6 85.4 19.3 85.4 18.3 C 85.4 17.4 86.3 16.7 87.4 16.7 C 88.1 16.7 88.7 16.9 89.2 17.2 Z M 97.7 17.2 C 97.7 17.2 97.7 17.8 97.7 17.8 C 97.2 17.4 96.6 17.1 96 17.1 C 95.1 17.1 94.5 17.6 94.5 18.3 C 94.5 19 95.1 19.2 96.1 19.5 C 97 19.9 98 20.2 98 21.3 C 98 22.3 97.2 23 95.9 23 C 95.2 23 94.5 22.7 93.9 22.2 C 93.9 22.2 93.9 21.6 93.9 21.6 C 94.4 22.2 95.1 22.5 95.9 22.5 C 96.9 22.5 97.5 22 97.5 21.3 C 97.5 20.5 96.8 20.2 95.9 19.9 C 94.8 19.6 94 19.3 94 18.3 C 94 17.4 94.8 16.7 96 16.7 C 96.6 16.7 97.2 16.9 97.7 17.2 Z M 99.2 19.8 C 99.2 18 100.5 16.7 102.1 16.7 C 103.7 16.7 105 18 105 19.8 C 105 21.7 103.7 23 102.1 23 C 100.5 23 99.2 21.7 99.2 19.8 Z M 104.5 19.8 C 104.5 18.1 103.4 17.1 102.1 17.1 C 100.9 17.1 99.7 18.1 99.7 19.8 C 99.7 21.5 100.9 22.5 102.1 22.5 C 103.4 22.5 104.5 21.5 104.5 19.8 Z M 111.3 18.8 C 111.31 18.82 111.3 22.8 111.3 22.8 L 110.8 22.8 C 110.8 22.8 110.83 19.01 110.8 19 C 110.8 17.8 110.2 17.2 109.1 17.2 C 108.1 17.2 107.2 17.8 107.2 19 C 107.23 18.95 107.2 22.8 107.2 22.8 L 106.8 22.8 L 106.8 16.8 L 107.1 16.8 L 107.2 17.9 C 107.2 17.9 107.2 17.86 107.2 17.9 C 107.5 17.2 108.3 16.7 109.2 16.7 C 110.5 16.7 111.3 17.5 111.3 18.8 Z M 113 19.8 C 113 18 114.3 16.7 115.9 16.7 C 117.5 16.7 118.8 18 118.8 19.8 C 118.8 21.7 117.5 23 115.9 23 C 114.3 23 113 21.7 113 19.8 Z M 118.3 19.8 C 118.3 18.1 117.1 17.1 115.9 17.1 C 114.6 17.1 113.4 18.1 113.4 19.8 C 113.4 21.5 114.6 22.5 115.9 22.5 C 117.1 22.5 118.3 21.5 118.3 19.8 Z M 120.5 16.8 L 120.9 16.8 L 120.9 17.9 C 120.9 17.9 120.94 17.91 120.9 17.9 C 121.3 17.1 122.1 16.7 122.7 16.7 C 122.9 16.7 123 16.7 123.1 16.7 C 123.1 16.7 123.1 17.2 123.1 17.2 C 123 17.2 122.9 17.2 122.7 17.2 C 121.9 17.2 121 17.8 121 19 C 120.97 19.01 121 22.8 121 22.8 L 120.5 22.8 L 120.5 16.8 Z M 128.9 20 C 128.9 20 124.1 20 124.1 20 C 124.2 21.5 125.2 22.5 126.6 22.5 C 127.3 22.5 128.1 22.2 128.7 21.6 C 128.7 21.6 128.7 22.2 128.7 22.2 C 128.1 22.7 127.3 23 126.5 23 C 124.8 23 123.6 21.7 123.6 19.8 C 123.6 17.9 125 16.7 126.5 16.7 C 127.8 16.7 129 17.7 129 19.7 C 129 19.8 128.9 19.9 128.9 20 Z M 128.5 19.5 C 128.5 17.9 127.5 17.1 126.5 17.1 C 125.3 17.1 124.2 18.1 124.1 19.5 C 124.1 19.5 128.5 19.5 128.5 19.5 Z M 130.4 22.4 C 130.4 22.2 130.6 22 130.9 22 C 131.2 22 131.4 22.2 131.4 22.4 C 131.4 22.7 131.2 22.9 130.9 22.9 C 130.6 22.9 130.4 22.7 130.4 22.4 Z M 144 23.4 C 144 23.4 142.76 22.08 142.8 22.1 C 142.1 22.7 141.2 23 140.2 23 C 137.9 23 136.1 21.1 136.1 18.6 C 136.1 16.1 137.9 14.2 140.2 14.2 C 142.6 14.2 144.3 16.1 144.3 18.6 C 144.3 19.9 143.9 21 143.1 21.8 C 143.11 21.75 144.4 23.1 144.4 23.1 L 144 23.4 Z M 142.4 21.7 C 142.43 21.73 140.6 19.9 140.6 19.9 L 141 19.5 C 141 19.5 142.78 21.41 142.8 21.4 C 143.4 20.7 143.8 19.8 143.8 18.6 C 143.8 16.2 142.1 14.7 140.2 14.7 C 138.3 14.7 136.6 16.2 136.6 18.6 C 136.6 21 138.3 22.5 140.2 22.5 C 141 22.5 141.8 22.2 142.4 21.7 Z M 146 20.6 C 146.05 20.64 146 16.8 146 16.8 L 146.5 16.8 C 146.5 16.8 146.53 20.67 146.5 20.7 C 146.5 21.8 147.2 22.5 148.3 22.5 C 149.4 22.5 150.1 21.8 150.1 20.7 C 150.14 20.66 150.1 16.8 150.1 16.8 L 150.6 16.8 C 150.6 16.8 150.62 20.63 150.6 20.6 C 150.6 22 149.7 23 148.3 23 C 146.9 23 146 22 146 20.6 Z M 157.6 20 C 157.6 20 152.8 20 152.8 20 C 152.8 21.5 153.8 22.5 155.2 22.5 C 155.9 22.5 156.7 22.2 157.4 21.6 C 157.4 21.6 157.4 22.2 157.4 22.2 C 156.7 22.7 156 23 155.2 23 C 153.5 23 152.3 21.7 152.3 19.8 C 152.3 17.9 153.6 16.7 155.1 16.7 C 156.4 16.7 157.6 17.7 157.6 19.7 C 157.6 19.8 157.6 19.9 157.6 20 Z M 157.1 19.5 C 157.1 17.9 156.1 17.1 155.1 17.1 C 153.9 17.1 152.9 18.1 152.8 19.5 C 152.8 19.5 157.1 19.5 157.1 19.5 Z M 165 22.5 C 165.5 22.5 166.1 22.4 166.6 22 C 166.6 22 166.6 22.5 166.6 22.5 C 166.2 22.8 165.6 23 165 23 C 163.4 23 162.1 21.6 162.1 19.8 C 162.1 18 163.3 16.7 165 16.7 C 165.5 16.7 166.1 16.8 166.6 17.1 C 166.6 17.1 166.6 17.6 166.6 17.6 C 166.1 17.3 165.5 17.1 165 17.1 C 163.7 17.1 162.5 18.2 162.5 19.8 C 162.5 21.5 163.7 22.5 165 22.5 Z M 173 20 C 173 20 168.2 20 168.2 20 C 168.3 21.5 169.3 22.5 170.7 22.5 C 171.4 22.5 172.2 22.2 172.8 21.6 C 172.8 21.6 172.8 22.2 172.8 22.2 C 172.2 22.7 171.4 23 170.6 23 C 168.9 23 167.8 21.7 167.8 19.8 C 167.8 17.9 169.1 16.7 170.6 16.7 C 171.9 16.7 173.1 17.7 173.1 19.7 C 173.1 19.8 173.1 19.9 173 20 Z M 172.6 19.5 C 172.6 17.9 171.6 17.1 170.6 17.1 C 169.4 17.1 168.3 18.1 168.2 19.5 C 168.2 19.5 172.6 19.5 172.6 19.5 Z M 181.3 17.2 C 181.3 17.2 181.3 17.8 181.3 17.8 C 180.9 17.4 180.3 17.1 179.6 17.1 C 178.7 17.1 178.1 17.6 178.1 18.3 C 178.1 19 178.7 19.2 179.7 19.5 C 180.7 19.9 181.6 20.2 181.6 21.3 C 181.6 22.3 180.8 23 179.6 23 C 178.9 23 178.1 22.7 177.5 22.2 C 177.5 22.2 177.5 21.6 177.5 21.6 C 178.1 22.2 178.8 22.5 179.6 22.5 C 180.5 22.5 181.2 22 181.2 21.3 C 181.2 20.5 180.5 20.2 179.5 19.9 C 178.5 19.6 177.6 19.3 177.6 18.3 C 177.6 17.4 178.4 16.7 179.6 16.7 C 180.3 16.7 180.9 16.9 181.3 17.2 Z M 182.9 19.8 C 182.9 18 184.2 16.7 185.8 16.7 C 187.4 16.7 188.7 18 188.7 19.8 C 188.7 21.7 187.4 23 185.8 23 C 184.2 23 182.9 21.7 182.9 19.8 Z M 188.2 19.8 C 188.2 18.1 187 17.1 185.8 17.1 C 184.5 17.1 183.4 18.1 183.4 19.8 C 183.4 21.5 184.5 22.5 185.8 22.5 C 187 22.5 188.2 21.5 188.2 19.8 Z M 190.3 14.6 C 190.3 14.4 190.5 14.2 190.7 14.2 C 190.9 14.2 191.1 14.4 191.1 14.6 C 191.1 14.8 190.9 15 190.7 15 C 190.5 15 190.3 14.8 190.3 14.6 Z M 190.4 16.8 L 190.9 16.8 L 190.9 22.8 L 190.4 22.8 L 190.4 16.8 Z M 193.8 16.8 L 195.6 16.8 L 195.6 17.2 L 193.8 17.2 C 193.8 17.2 193.77 20.94 193.8 20.9 C 193.8 22.1 194.4 22.5 195.2 22.5 C 195.4 22.5 195.6 22.5 195.7 22.4 C 195.7 22.4 195.7 22.9 195.7 22.9 C 195.7 22.9 195.4 22.9 195.2 22.9 C 194.1 22.9 193.3 22.3 193.3 21 C 193.29 20.96 193.3 17.2 193.3 17.2 L 192.4 17.2 L 192.4 16.8 L 193.3 16.8 L 193.3 15.4 L 193.8 15.4 L 193.8 16.8 Z M 205 20 C 205 20 200.2 20 200.2 20 C 200.3 21.5 201.3 22.5 202.6 22.5 C 203.4 22.5 204.2 22.2 204.8 21.6 C 204.8 21.6 204.8 22.2 204.8 22.2 C 204.2 22.7 203.4 23 202.6 23 C 200.9 23 199.7 21.7 199.7 19.8 C 199.7 17.9 201.1 16.7 202.5 16.7 C 203.9 16.7 205 17.7 205 19.7 C 205 19.8 205 19.9 205 20 Z M 204.6 19.5 C 204.5 17.9 203.6 17.1 202.5 17.1 C 201.4 17.1 200.3 18.1 200.2 19.5 C 200.2 19.5 204.6 19.5 204.6 19.5 Z M 211.3 18.8 C 211.32 18.82 211.3 22.8 211.3 22.8 L 210.8 22.8 C 210.8 22.8 210.84 19.01 210.8 19 C 210.8 17.8 210.2 17.2 209.1 17.2 C 208.1 17.2 207.2 17.8 207.2 19 C 207.24 18.95 207.2 22.8 207.2 22.8 L 206.8 22.8 L 206.8 16.8 L 207.1 16.8 L 207.2 17.9 C 207.2 17.9 207.2 17.86 207.2 17.9 C 207.5 17.2 208.3 16.7 209.2 16.7 C 210.5 16.7 211.3 17.5 211.3 18.8 Z M 216.2 19.8 C 216.2 17.9 217.5 16.7 218.9 16.7 C 219.9 16.7 220.9 17.2 221.3 18.3 C 221.31 18.3 221.4 16.8 221.4 16.8 L 221.8 16.8 L 221.8 22.8 L 221.4 22.8 C 221.4 22.8 221.31 21.33 221.3 21.3 C 220.9 22.4 219.9 23 218.9 23 C 217.5 23 216.2 21.8 216.2 19.8 Z M 221.3 19.8 C 221.3 18.2 220.2 17.1 219 17.1 C 217.7 17.1 216.6 18.2 216.6 19.8 C 216.6 21.5 217.7 22.5 219 22.5 C 220.2 22.5 221.3 21.5 221.3 19.8 Z M 231.3 18.7 C 231.28 18.74 231.3 22.8 231.3 22.8 L 230.8 22.8 C 230.8 22.8 230.81 18.78 230.8 18.8 C 230.8 17.8 230.3 17.2 229.4 17.2 C 228.4 17.2 227.8 17.9 227.8 18.8 C 227.85 18.79 227.8 22.8 227.8 22.8 L 227.4 22.8 C 227.4 22.8 227.37 18.78 227.4 18.8 C 227.4 17.8 226.9 17.2 225.9 17.2 C 225 17.2 224.4 17.9 224.4 18.8 C 224.41 18.82 224.4 22.8 224.4 22.8 L 223.9 22.8 L 223.9 16.8 L 224.3 16.8 L 224.4 17.8 C 224.4 17.8 224.37 17.79 224.4 17.8 C 224.6 17.1 225.2 16.7 226 16.7 C 226.9 16.7 227.5 17.1 227.7 17.9 C 228 17.2 228.6 16.7 229.4 16.7 C 230.7 16.7 231.3 17.5 231.3 18.7 Z M 238.3 20 C 238.3 20 233.4 20 233.4 20 C 233.5 21.5 234.5 22.5 235.9 22.5 C 236.6 22.5 237.4 22.2 238 21.6 C 238 21.6 238 22.2 238 22.2 C 237.4 22.7 236.6 23 235.9 23 C 234.2 23 233 21.7 233 19.8 C 233 17.9 234.3 16.7 235.8 16.7 C 237.1 16.7 238.3 17.7 238.3 19.7 C 238.3 19.8 238.3 19.9 238.3 20 Z M 237.8 19.5 C 237.8 17.9 236.8 17.1 235.8 17.1 C 234.6 17.1 233.6 18.1 233.5 19.5 C 233.5 19.5 237.8 19.5 237.8 19.5 Z M 244.5 18.8 C 244.55 18.82 244.5 22.8 244.5 22.8 L 244.1 22.8 C 244.1 22.8 244.07 19.01 244.1 19 C 244.1 17.8 243.4 17.2 242.3 17.2 C 241.3 17.2 240.5 17.8 240.5 19 C 240.47 18.95 240.5 22.8 240.5 22.8 L 240 22.8 L 240 16.8 L 240.4 16.8 L 240.4 17.9 C 240.4 17.9 240.43 17.86 240.4 17.9 C 240.8 17.2 241.5 16.7 242.4 16.7 C 243.7 16.7 244.5 17.5 244.5 18.8 Z M 246.2 19.8 C 246.2 17.9 247.5 16.7 249 16.7 C 249.9 16.7 250.9 17.2 251.4 18.3 C 251.36 18.3 251.4 16.8 251.4 16.8 L 251.8 16.8 L 251.8 22.8 L 251.4 22.8 C 251.4 22.8 251.36 21.33 251.4 21.3 C 250.9 22.4 249.9 23 249 23 C 247.5 23 246.2 21.8 246.2 19.8 Z M 251.3 19.8 C 251.3 18.2 250.3 17.1 249 17.1 C 247.8 17.1 246.7 18.2 246.7 19.8 C 246.7 21.5 247.8 22.5 249 22.5 C 250.3 22.5 251.3 21.5 251.3 19.8 Z M 258.5 18.8 C 258.53 18.82 258.5 22.8 258.5 22.8 L 258.1 22.8 C 258.1 22.8 258.05 19.01 258.1 19 C 258.1 17.8 257.4 17.2 256.3 17.2 C 255.3 17.2 254.5 17.8 254.5 19 C 254.45 18.95 254.5 22.8 254.5 22.8 L 254 22.8 L 254 16.8 L 254.3 16.8 L 254.4 17.9 C 254.4 17.9 254.42 17.86 254.4 17.9 C 254.7 17.2 255.5 16.7 256.4 16.7 C 257.7 16.7 258.5 17.5 258.5 18.8 Z M 261.2 16.8 L 263 16.8 L 263 17.2 L 261.2 17.2 C 261.2 17.2 261.22 20.94 261.2 20.9 C 261.2 22.1 261.8 22.5 262.7 22.5 C 262.8 22.5 263 22.5 263.2 22.4 C 263.2 22.4 263.2 22.9 263.2 22.9 C 263.1 22.9 262.9 22.9 262.6 22.9 C 261.5 22.9 260.7 22.3 260.7 21 C 260.74 20.96 260.7 17.2 260.7 17.2 L 259.8 17.2 L 259.8 16.8 L 260.7 16.8 L 260.7 15.4 L 261.2 15.4 L 261.2 16.8 Z M 267.2 19.8 C 267.2 17.9 268.5 16.7 269.9 16.7 C 270.9 16.7 271.9 17.2 272.3 18.3 C 272.3 18.26 272.3 13.8 272.3 13.8 L 272.8 13.8 L 272.8 22.8 L 272.4 22.8 L 272.3 21.3 C 272.3 21.3 272.32 21.32 272.3 21.3 C 271.9 22.4 270.9 23 269.9 23 C 268.5 23 267.2 21.8 267.2 19.8 Z M 272.3 19.8 C 272.3 18.2 271.2 17.1 270 17.1 C 268.7 17.1 267.7 18.2 267.7 19.8 C 267.7 21.5 268.7 22.5 270 22.5 C 271.2 22.5 272.3 21.5 272.3 19.8 Z M 279.8 20 C 279.8 20 275 20 275 20 C 275.1 21.5 276.1 22.5 277.4 22.5 C 278.2 22.5 278.9 22.2 279.6 21.6 C 279.6 21.6 279.6 22.2 279.6 22.2 C 279 22.7 278.2 23 277.4 23 C 275.7 23 274.5 21.7 274.5 19.8 C 274.5 17.9 275.9 16.7 277.3 16.7 C 278.7 16.7 279.8 17.7 279.8 19.7 C 279.8 19.8 279.8 19.9 279.8 20 Z M 279.4 19.5 C 279.3 17.9 278.4 17.1 277.3 17.1 C 276.2 17.1 275.1 18.1 275 19.5 C 275 19.5 279.4 19.5 279.4 19.5 Z M 284.9 17.2 C 284.9 17.2 284.9 17.8 284.9 17.8 C 284.5 17.4 283.9 17.1 283.2 17.1 C 282.3 17.1 281.7 17.6 281.7 18.3 C 281.7 19 282.3 19.2 283.3 19.5 C 284.3 19.9 285.2 20.2 285.2 21.3 C 285.2 22.3 284.4 23 283.2 23 C 282.5 23 281.7 22.7 281.1 22.2 C 281.1 22.2 281.1 21.6 281.1 21.6 C 281.7 22.2 282.4 22.5 283.2 22.5 C 284.1 22.5 284.7 22 284.7 21.3 C 284.7 20.5 284.1 20.2 283.1 19.9 C 282.1 19.6 281.2 19.3 281.2 18.3 C 281.2 17.4 282 16.7 283.2 16.7 C 283.8 16.7 284.5 16.9 284.9 17.2 Z M 290 14.6 C 290 14.4 290.1 14.2 290.4 14.2 C 290.6 14.2 290.7 14.4 290.7 14.6 C 290.7 14.8 290.6 15 290.4 15 C 290.1 15 290 14.8 290 14.6 Z M 290.1 16.8 L 290.6 16.8 L 290.6 22.8 L 290.1 22.8 L 290.1 16.8 Z M 297.4 18.8 C 297.36 18.82 297.4 22.8 297.4 22.8 L 296.9 22.8 C 296.9 22.8 296.88 19.01 296.9 19 C 296.9 17.8 296.2 17.2 295.2 17.2 C 294.1 17.2 293.3 17.8 293.3 19 C 293.28 18.95 293.3 22.8 293.3 22.8 L 292.8 22.8 L 292.8 16.8 L 293.2 16.8 L 293.2 17.9 C 293.2 17.9 293.24 17.86 293.2 17.9 C 293.6 17.2 294.3 16.7 295.2 16.7 C 296.5 16.7 297.4 17.5 297.4 18.8 Z M 300 16.8 L 301.8 16.8 L 301.8 17.2 L 300 17.2 C 300 17.2 300.04 20.94 300 20.9 C 300 22.1 300.6 22.5 301.5 22.5 C 301.7 22.5 301.8 22.5 302 22.4 C 302 22.4 302 22.9 302 22.9 C 301.9 22.9 301.7 22.9 301.4 22.9 C 300.3 22.9 299.6 22.3 299.6 21 C 299.56 20.96 299.6 17.2 299.6 17.2 L 298.6 17.2 L 298.6 16.8 L 299.6 16.8 L 299.6 15.4 L 300 15.4 L 300 16.8 Z M 308.1 20 C 308.1 20 303.3 20 303.3 20 C 303.4 21.5 304.3 22.5 305.7 22.5 C 306.5 22.5 307.2 22.2 307.9 21.6 C 307.9 21.6 307.9 22.2 307.9 22.2 C 307.2 22.7 306.5 23 305.7 23 C 304 23 302.8 21.7 302.8 19.8 C 302.8 17.9 304.2 16.7 305.6 16.7 C 307 16.7 308.1 17.7 308.1 19.7 C 308.1 19.8 308.1 19.9 308.1 20 Z M 307.6 19.5 C 307.6 17.9 306.6 17.1 305.6 17.1 C 304.5 17.1 303.4 18.1 303.3 19.5 C 303.3 19.5 307.6 19.5 307.6 19.5 Z M 309.8 16.8 L 310.2 16.8 L 310.3 17.9 C 310.3 17.9 310.28 17.91 310.3 17.9 C 310.6 17.1 311.5 16.7 312.1 16.7 C 312.2 16.7 312.3 16.7 312.4 16.7 C 312.4 16.7 312.4 17.2 312.4 17.2 C 312.3 17.2 312.2 17.2 312.1 17.2 C 311.2 17.2 310.3 17.8 310.3 19 C 310.31 19.01 310.3 22.8 310.3 22.8 L 309.8 22.8 L 309.8 16.8 Z M 313 19.8 C 313 17.9 314.3 16.7 315.7 16.7 C 316.7 16.7 317.7 17.2 318.1 18.3 C 318.13 18.3 318.2 16.8 318.2 16.8 L 318.6 16.8 L 318.6 22.8 L 318.2 22.8 C 318.2 22.8 318.13 21.33 318.1 21.3 C 317.7 22.4 316.7 23 315.8 23 C 314.3 23 313 21.8 313 19.8 Z M 318.1 19.8 C 318.1 18.2 317.1 17.1 315.8 17.1 C 314.5 17.1 313.5 18.2 313.5 19.8 C 313.5 21.5 314.5 22.5 315.8 22.5 C 317 22.5 318.1 21.5 318.1 19.8 Z M 323.2 22.5 C 323.7 22.5 324.4 22.4 324.9 22 C 324.9 22 324.9 22.5 324.9 22.5 C 324.4 22.8 323.8 23 323.2 23 C 321.6 23 320.3 21.6 320.3 19.8 C 320.3 18 321.6 16.7 323.2 16.7 C 323.8 16.7 324.4 16.8 324.9 17.1 C 324.9 17.1 324.9 17.6 324.9 17.6 C 324.3 17.3 323.8 17.1 323.2 17.1 C 322 17.1 320.8 18.2 320.8 19.8 C 320.8 21.5 322 22.5 323.2 22.5 Z M 325.9 19.1 L 328.6 19.1 L 328.6 19.6 L 325.9 19.6 L 325.9 19.1 Z " stroke="none" fill="#000"/>
  </g>
  <g id="Polygon24051">
    <path d="M 7 9.1 L 5.8 6.2 L 1.9 6.2 L 0.7 9.1 L 0.2 9.1 L 3.6 0.7 L 4.1 0.7 L 7.6 9.1 L 7 9.1 Z M 2.1 5.7 L 5.7 5.7 L 3.9 1.2 L 2.1 5.7 Z M 8.7 6.9 C 8.73 6.94 8.7 3.1 8.7 3.1 L 9.2 3.1 C 9.2 3.1 9.21 6.96 9.2 7 C 9.2 8.1 9.9 8.8 11 8.8 C 12.1 8.8 12.8 8.1 12.8 6.9 C 12.82 6.95 12.8 3.1 12.8 3.1 L 13.3 3.1 C 13.3 3.1 13.3 6.92 13.3 6.9 C 13.3 8.3 12.4 9.2 11 9.2 C 9.6 9.2 8.7 8.3 8.7 6.9 Z M 16 3.1 L 17.8 3.1 L 17.8 3.5 L 16 3.5 C 16 3.5 16.04 7.23 16 7.2 C 16 8.4 16.6 8.8 17.5 8.8 C 17.7 8.8 17.8 8.8 18 8.7 C 18 8.7 18 9.2 18 9.2 C 17.9 9.2 17.7 9.2 17.4 9.2 C 16.3 9.2 15.6 8.6 15.6 7.3 C 15.56 7.25 15.6 3.5 15.6 3.5 L 14.6 3.5 L 14.6 3.1 L 15.6 3.1 L 15.6 1.6 L 16 1.6 L 16 3.1 Z M 18.8 6.1 C 18.8 4.2 20.1 3 21.6 3 C 22.5 3 23.5 3.5 23.9 4.6 C 23.95 4.59 24 3.1 24 3.1 L 24.4 3.1 L 24.4 9.1 L 24 9.1 C 24 9.1 23.95 7.62 23.9 7.6 C 23.5 8.7 22.5 9.2 21.6 9.2 C 20.1 9.2 18.8 8 18.8 6.1 Z M 23.9 6.1 C 23.9 4.5 22.9 3.4 21.6 3.4 C 20.3 3.4 19.3 4.5 19.3 6.1 C 19.3 7.7 20.4 8.8 21.6 8.8 C 22.9 8.8 23.9 7.7 23.9 6.1 Z M 31.1 5.1 C 31.12 5.11 31.1 9.1 31.1 9.1 L 30.6 9.1 C 30.6 9.1 30.64 5.3 30.6 5.3 C 30.6 4.1 30 3.4 28.9 3.4 C 27.9 3.4 27 4.1 27 5.2 C 27.04 5.24 27 9.1 27 9.1 L 26.6 9.1 L 26.6 3.1 L 26.9 3.1 L 27 4.1 C 27 4.1 27.01 4.15 27 4.1 C 27.3 3.5 28.1 3 29 3 C 30.3 3 31.1 3.8 31.1 5.1 Z M 33.8 3.1 L 35.6 3.1 L 35.6 3.5 L 33.8 3.5 C 33.8 3.5 33.8 7.23 33.8 7.2 C 33.8 8.4 34.4 8.8 35.3 8.8 C 35.4 8.8 35.6 8.8 35.8 8.7 C 35.8 8.7 35.8 9.2 35.8 9.2 C 35.7 9.2 35.5 9.2 35.2 9.2 C 34.1 9.2 33.3 8.6 33.3 7.3 C 33.33 7.25 33.3 3.5 33.3 3.5 L 32.4 3.5 L 32.4 3.1 L 33.3 3.1 L 33.3 1.6 L 33.8 1.6 L 33.8 3.1 Z M 45 4.6 C 45.04 4.6 45.1 3.1 45.1 3.1 L 45.5 3.1 L 45.5 11.6 L 45 11.6 C 45 11.6 45.01 7.65 45 7.7 C 44.6 8.7 43.6 9.2 42.7 9.2 C 41.2 9.2 39.9 8 39.9 6.1 C 39.9 4.2 41.2 3 42.7 3 C 43.6 3 44.6 3.5 45 4.6 Z M 40.4 6.1 C 40.4 7.7 41.5 8.8 42.7 8.8 C 44 8.8 45 7.7 45 6.1 C 45 4.5 44 3.4 42.7 3.4 C 41.4 3.4 40.4 4.5 40.4 6.1 Z M 47.6 6.9 C 47.58 6.94 47.6 3.1 47.6 3.1 L 48.1 3.1 C 48.1 3.1 48.05 6.96 48.1 7 C 48.1 8.1 48.8 8.8 49.8 8.8 C 51 8.8 51.7 8.1 51.7 6.9 C 51.67 6.95 51.7 3.1 51.7 3.1 L 52.1 3.1 C 52.1 3.1 52.14 6.92 52.1 6.9 C 52.1 8.3 51.3 9.2 49.8 9.2 C 48.4 9.2 47.6 8.3 47.6 6.9 Z M 59.1 6.3 C 59.1 6.3 54.3 6.3 54.3 6.3 C 54.4 7.8 55.4 8.8 56.7 8.8 C 57.5 8.8 58.2 8.5 58.9 7.9 C 58.9 7.9 58.9 8.5 58.9 8.5 C 58.2 9 57.5 9.2 56.7 9.2 C 55 9.2 53.8 8 53.8 6.1 C 53.8 4.2 55.2 3 56.6 3 C 58 3 59.1 4 59.1 6 C 59.1 6.1 59.1 6.2 59.1 6.3 Z M 58.6 5.8 C 58.6 4.2 57.7 3.4 56.6 3.4 C 55.5 3.4 54.4 4.3 54.3 5.8 C 54.3 5.8 58.6 5.8 58.6 5.8 Z M 64.2 0.1 L 64.7 0.1 L 64.7 9.1 L 64.2 9.1 L 64.2 0.1 Z M 71.7 6.3 C 71.7 6.3 66.9 6.3 66.9 6.3 C 67 7.8 68 8.8 69.4 8.8 C 70.1 8.8 70.9 8.5 71.5 7.9 C 71.5 7.9 71.5 8.5 71.5 8.5 C 70.9 9 70.1 9.2 69.3 9.2 C 67.6 9.2 66.5 8 66.5 6.1 C 66.5 4.2 67.8 3 69.3 3 C 70.6 3 71.8 4 71.8 6 C 71.8 6.1 71.8 6.2 71.7 6.3 Z M 71.3 5.8 C 71.3 4.2 70.3 3.4 69.3 3.4 C 68.1 3.4 67 4.3 66.9 5.8 C 66.9 5.8 71.3 5.8 71.3 5.8 Z M 73.4 6.9 C 73.4 6.94 73.4 3.1 73.4 3.1 L 73.9 3.1 C 73.9 3.1 73.88 6.96 73.9 7 C 73.9 8.1 74.6 8.8 75.7 8.8 C 76.8 8.8 77.5 8.1 77.5 6.9 C 77.49 6.95 77.5 3.1 77.5 3.1 L 78 3.1 C 78 3.1 77.97 6.92 78 6.9 C 78 8.3 77.1 9.2 75.7 9.2 C 74.3 9.2 73.4 8.3 73.4 6.9 Z M 80.1 3.1 L 80.4 3.1 L 80.5 4.2 C 80.5 4.2 80.5 4.2 80.5 4.2 C 80.9 3.4 81.7 3 82.3 3 C 82.4 3 82.6 3 82.7 3 C 82.7 3 82.7 3.5 82.7 3.5 C 82.6 3.5 82.4 3.5 82.3 3.5 C 81.4 3.5 80.5 4.1 80.5 5.3 C 80.54 5.3 80.5 9.1 80.5 9.1 L 80.1 9.1 L 80.1 3.1 Z M 86.9 0.9 C 86.9 0.7 87 0.5 87.2 0.5 C 87.5 0.5 87.6 0.7 87.6 0.9 C 87.6 1.1 87.5 1.2 87.2 1.2 C 87 1.2 86.9 1.1 86.9 0.9 Z M 87 3.1 L 87.5 3.1 L 87.5 9.1 L 87 9.1 L 87 3.1 Z M 94.2 5.1 C 94.24 5.11 94.2 9.1 94.2 9.1 L 93.8 9.1 C 93.8 9.1 93.76 5.3 93.8 5.3 C 93.8 4.1 93.1 3.4 92 3.4 C 91 3.4 90.2 4.1 90.2 5.2 C 90.16 5.24 90.2 9.1 90.2 9.1 L 89.7 9.1 L 89.7 3.1 L 90.1 3.1 L 90.1 4.1 C 90.1 4.1 90.13 4.15 90.1 4.1 C 90.5 3.5 91.2 3 92.1 3 C 93.4 3 94.2 3.8 94.2 5.1 Z M 96.9 3.1 L 98.7 3.1 L 98.7 3.5 L 96.9 3.5 C 96.9 3.5 96.93 7.23 96.9 7.2 C 96.9 8.4 97.5 8.8 98.4 8.8 C 98.6 8.8 98.7 8.8 98.9 8.7 C 98.9 8.7 98.9 9.2 98.9 9.2 C 98.8 9.2 98.6 9.2 98.3 9.2 C 97.2 9.2 96.4 8.6 96.4 7.3 C 96.45 7.25 96.4 3.5 96.4 3.5 L 95.5 3.5 L 95.5 3.1 L 96.5 3.1 L 96.5 1.6 L 96.9 1.6 L 96.9 3.1 Z M 105 6.3 C 105 6.3 100.2 6.3 100.2 6.3 C 100.3 7.8 101.2 8.8 102.6 8.8 C 103.3 8.8 104.1 8.5 104.8 7.9 C 104.8 7.9 104.8 8.5 104.8 8.5 C 104.1 9 103.4 9.2 102.6 9.2 C 100.9 9.2 99.7 8 99.7 6.1 C 99.7 4.2 101 3 102.5 3 C 103.9 3 105 4 105 6 C 105 6.1 105 6.2 105 6.3 Z M 104.5 5.8 C 104.5 4.2 103.5 3.4 102.5 3.4 C 101.3 3.4 100.3 4.3 100.2 5.8 C 100.2 5.8 104.5 5.8 104.5 5.8 Z M 106.7 3.1 L 107.1 3.1 L 107.2 4.2 C 107.2 4.2 107.16 4.2 107.2 4.2 C 107.5 3.4 108.3 3 109 3 C 109.1 3 109.2 3 109.3 3 C 109.3 3 109.3 3.5 109.3 3.5 C 109.2 3.5 109.1 3.5 109 3.5 C 108.1 3.5 107.2 4.1 107.2 5.3 C 107.2 5.3 107.2 9.1 107.2 9.1 L 106.7 9.1 L 106.7 3.1 Z M 110.8 3.5 L 109.9 3.5 L 109.9 3.1 L 110.8 3.1 C 110.8 3.1 110.81 1.91 110.8 1.9 C 110.8 0.7 111.6 0 112.6 0 C 112.9 0 113.3 0.1 113.5 0.2 C 113.5 0.2 113.5 0.7 113.5 0.7 C 113.3 0.5 112.9 0.5 112.6 0.5 C 111.8 0.5 111.3 0.9 111.3 2 C 111.3 1.99 111.3 3.1 111.3 3.1 L 113.1 3.1 L 113.1 3.5 L 111.3 3.5 L 111.3 9.1 L 110.8 9.1 L 110.8 3.5 Z M 113.7 6.1 C 113.7 4.2 115.1 3 116.5 3 C 117.5 3 118.4 3.5 118.9 4.6 C 118.88 4.59 119 3.1 119 3.1 L 119.3 3.1 L 119.3 9.1 L 119 9.1 C 119 9.1 118.88 7.62 118.9 7.6 C 118.4 8.7 117.5 9.2 116.5 9.2 C 115.1 9.2 113.7 8 113.7 6.1 Z M 118.9 6.1 C 118.9 4.5 117.8 3.4 116.5 3.4 C 115.3 3.4 114.2 4.5 114.2 6.1 C 114.2 7.7 115.3 8.8 116.6 8.8 C 117.8 8.8 118.9 7.7 118.9 6.1 Z M 124 8.8 C 124.5 8.8 125.1 8.7 125.6 8.3 C 125.6 8.3 125.6 8.8 125.6 8.8 C 125.2 9.1 124.6 9.2 124 9.2 C 122.4 9.2 121.1 7.9 121.1 6.1 C 121.1 4.3 122.3 3 124 3 C 124.5 3 125.1 3.1 125.6 3.4 C 125.6 3.4 125.6 3.9 125.6 3.9 C 125.1 3.6 124.5 3.4 124 3.4 C 122.7 3.4 121.5 4.5 121.5 6.1 C 121.5 7.8 122.7 8.8 124 8.8 Z M 132 6.3 C 132 6.3 127.2 6.3 127.2 6.3 C 127.3 7.8 128.3 8.8 129.7 8.8 C 130.4 8.8 131.2 8.5 131.8 7.9 C 131.8 7.9 131.8 8.5 131.8 8.5 C 131.2 9 130.4 9.2 129.6 9.2 C 127.9 9.2 126.8 8 126.8 6.1 C 126.8 4.2 128.1 3 129.6 3 C 130.9 3 132.1 4 132.1 6 C 132.1 6.1 132.1 6.2 132 6.3 Z M 131.6 5.8 C 131.6 4.2 130.6 3.4 129.6 3.4 C 128.4 3.4 127.3 4.3 127.2 5.8 C 127.2 5.8 131.6 5.8 131.6 5.8 Z M 133.7 8.2 C 133.7 8.23 133.7 7.8 133.7 7.8 L 134.2 7.8 C 134.2 7.8 134.18 8.21 134.2 8.2 C 134.2 9.1 133.8 10.1 133.6 10.7 C 133.6 10.7 133.2 10.7 133.2 10.7 C 133.4 10.1 133.7 9.2 133.7 8.2 Z M 139.6 0.1 L 140.1 0.1 L 140.1 9.1 L 139.6 9.1 L 139.6 0.1 Z M 147.1 6.3 C 147.1 6.3 142.3 6.3 142.3 6.3 C 142.4 7.8 143.4 8.8 144.8 8.8 C 145.5 8.8 146.3 8.5 146.9 7.9 C 146.9 7.9 146.9 8.5 146.9 8.5 C 146.3 9 145.5 9.2 144.7 9.2 C 143 9.2 141.8 8 141.8 6.1 C 141.8 4.2 143.2 3 144.7 3 C 146 3 147.2 4 147.2 6 C 147.2 6.1 147.1 6.2 147.1 6.3 Z M 146.7 5.8 C 146.7 4.2 145.7 3.4 144.7 3.4 C 143.5 3.4 142.4 4.3 142.3 5.8 C 142.3 5.8 146.7 5.8 146.7 5.8 Z M 152.4 3.5 L 151.5 3.5 L 151.5 3.1 L 152.4 3.1 C 152.4 3.1 152.4 1.91 152.4 1.9 C 152.4 0.7 153.2 0 154.2 0 C 154.5 0 154.9 0.1 155.1 0.2 C 155.1 0.2 155.1 0.7 155.1 0.7 C 154.9 0.5 154.5 0.5 154.2 0.5 C 153.4 0.5 152.9 0.9 152.9 2 C 152.89 1.99 152.9 3.1 152.9 3.1 L 154.7 3.1 L 154.7 3.5 L 152.9 3.5 L 152.9 9.1 L 152.4 9.1 L 152.4 3.5 Z M 155.3 6.1 C 155.3 4.3 156.6 3 158.2 3 C 159.8 3 161.1 4.3 161.1 6.1 C 161.1 8 159.8 9.2 158.2 9.2 C 156.6 9.2 155.3 8 155.3 6.1 Z M 160.6 6.1 C 160.6 4.4 159.5 3.4 158.2 3.4 C 157 3.4 155.8 4.4 155.8 6.1 C 155.8 7.8 157 8.8 158.2 8.8 C 159.5 8.8 160.6 7.8 160.6 6.1 Z M 162.9 3.1 L 163.2 3.1 L 163.3 4.2 C 163.3 4.2 163.3 4.2 163.3 4.2 C 163.7 3.4 164.5 3 165.1 3 C 165.2 3 165.4 3 165.5 3 C 165.5 3 165.5 3.5 165.5 3.5 C 165.4 3.5 165.2 3.5 165.1 3.5 C 164.2 3.5 163.3 4.1 163.3 5.3 C 163.33 5.3 163.3 9.1 163.3 9.1 L 162.9 9.1 L 162.9 3.1 Z M 174.1 5 C 174.08 5.03 174.1 9.1 174.1 9.1 L 173.6 9.1 C 173.6 9.1 173.6 5.07 173.6 5.1 C 173.6 4.1 173.1 3.4 172.2 3.4 C 171.2 3.4 170.6 4.2 170.6 5.1 C 170.64 5.08 170.6 9.1 170.6 9.1 L 170.2 9.1 C 170.2 9.1 170.17 5.07 170.2 5.1 C 170.2 4.1 169.7 3.4 168.7 3.4 C 167.8 3.4 167.2 4.2 167.2 5.1 C 167.21 5.11 167.2 9.1 167.2 9.1 L 166.7 9.1 L 166.7 3.1 L 167.1 3.1 L 167.2 4.1 C 167.2 4.1 167.17 4.08 167.2 4.1 C 167.4 3.4 168 3 168.8 3 C 169.7 3 170.3 3.4 170.5 4.2 C 170.8 3.5 171.4 3 172.2 3 C 173.5 3 174.1 3.8 174.1 5 Z M 175.8 6.1 C 175.8 4.2 177.1 3 178.5 3 C 179.5 3 180.5 3.5 180.9 4.6 C 180.9 4.59 181 3.1 181 3.1 L 181.3 3.1 L 181.3 9.1 L 181 9.1 C 181 9.1 180.9 7.62 180.9 7.6 C 180.5 8.7 179.5 9.2 178.5 9.2 C 177.1 9.2 175.8 8 175.8 6.1 Z M 180.9 6.1 C 180.9 4.5 179.8 3.4 178.6 3.4 C 177.3 3.4 176.2 4.5 176.2 6.1 C 176.2 7.7 177.3 8.8 178.6 8.8 C 179.8 8.8 180.9 7.7 180.9 6.1 Z M 184.2 3.1 L 186 3.1 L 186 3.5 L 184.2 3.5 C 184.2 3.5 184.17 7.23 184.2 7.2 C 184.2 8.4 184.8 8.8 185.6 8.8 C 185.8 8.8 186 8.8 186.1 8.7 C 186.1 8.7 186.1 9.2 186.1 9.2 C 186.1 9.2 185.8 9.2 185.6 9.2 C 184.5 9.2 183.7 8.6 183.7 7.3 C 183.69 7.25 183.7 3.5 183.7 3.5 L 182.8 3.5 L 182.8 3.1 L 183.7 3.1 L 183.7 1.6 L 184.2 1.6 L 184.2 3.1 Z M 190.3 6.1 C 190.3 4.2 191.6 3 193 3 C 194 3 195 3.5 195.4 4.5 C 195.38 4.55 195.4 0.1 195.4 0.1 L 195.9 0.1 L 195.9 9.1 L 195.5 9.1 L 195.4 7.6 C 195.4 7.6 195.41 7.61 195.4 7.6 C 195 8.7 194 9.2 193 9.2 C 191.6 9.2 190.3 8 190.3 6.1 Z M 195.4 6.1 C 195.4 4.5 194.3 3.4 193.1 3.4 C 191.8 3.4 190.7 4.5 190.7 6.1 C 190.7 7.7 191.8 8.8 193.1 8.8 C 194.3 8.8 195.4 7.7 195.4 6.1 Z M 202.9 6.3 C 202.9 6.3 198.1 6.3 198.1 6.3 C 198.2 7.8 199.2 8.8 200.5 8.8 C 201.3 8.8 202 8.5 202.7 7.9 C 202.7 7.9 202.7 8.5 202.7 8.5 C 202 9 201.3 9.2 200.5 9.2 C 198.8 9.2 197.6 8 197.6 6.1 C 197.6 4.2 199 3 200.4 3 C 201.8 3 202.9 4 202.9 6 C 202.9 6.1 202.9 6.2 202.9 6.3 Z M 202.4 5.8 C 202.4 4.2 201.5 3.4 200.4 3.4 C 199.3 3.4 198.2 4.3 198.1 5.8 C 198.1 5.8 202.4 5.8 202.4 5.8 Z M 208 3.5 C 208 3.5 208 4 208 4 C 207.5 3.7 207 3.4 206.3 3.4 C 205.4 3.4 204.8 3.9 204.8 4.6 C 204.8 5.3 205.4 5.5 206.4 5.8 C 207.4 6.1 208.3 6.5 208.3 7.6 C 208.3 8.6 207.5 9.2 206.3 9.2 C 205.5 9.2 204.8 9 204.2 8.5 C 204.2 8.5 204.2 7.9 204.2 7.9 C 204.7 8.4 205.5 8.8 206.3 8.8 C 207.2 8.8 207.8 8.3 207.8 7.6 C 207.8 6.8 207.2 6.5 206.2 6.2 C 205.2 5.9 204.3 5.6 204.3 4.6 C 204.3 3.7 205.1 3 206.3 3 C 206.9 3 207.6 3.2 208 3.5 Z M 215.8 8.8 C 216.3 8.8 216.9 8.7 217.4 8.3 C 217.4 8.3 217.4 8.8 217.4 8.8 C 217 9.1 216.4 9.2 215.8 9.2 C 214.2 9.2 212.9 7.9 212.9 6.1 C 212.9 4.3 214.1 3 215.8 3 C 216.4 3 216.9 3.1 217.4 3.4 C 217.4 3.4 217.4 3.9 217.4 3.9 C 216.9 3.6 216.4 3.4 215.8 3.4 C 214.5 3.4 213.3 4.5 213.3 6.1 C 213.3 7.8 214.5 8.8 215.8 8.8 Z M 219.6 4 C 219.6 4 219.62 4.03 219.6 4 C 220 3.4 220.7 3 221.5 3 C 222.8 3 223.7 3.7 223.7 5.1 C 223.69 5.12 223.7 9.1 223.7 9.1 L 223.2 9.1 C 223.2 9.1 223.21 5.29 223.2 5.3 C 223.2 4.1 222.6 3.4 221.5 3.4 C 220.5 3.4 219.6 4 219.6 5.2 C 219.61 5.19 219.6 9.1 219.6 9.1 L 219.1 9.1 L 219.1 0.1 L 219.6 0.1 L 219.6 4 Z M 225.4 6.1 C 225.4 4.2 226.7 3 228.1 3 C 229.1 3 230.1 3.5 230.5 4.6 C 230.51 4.59 230.6 3.1 230.6 3.1 L 231 3.1 L 231 9.1 L 230.6 9.1 C 230.6 9.1 230.51 7.62 230.5 7.6 C 230.1 8.7 229.1 9.2 228.1 9.2 C 226.7 9.2 225.4 8 225.4 6.1 Z M 230.5 6.1 C 230.5 4.5 229.4 3.4 228.2 3.4 C 226.9 3.4 225.8 4.5 225.8 6.1 C 225.8 7.7 226.9 8.8 228.2 8.8 C 229.4 8.8 230.5 7.7 230.5 6.1 Z M 235 1.7 L 234.5 1.7 L 233.4 0.3 L 232.3 1.7 L 231.8 1.7 L 233.2 -0.1 L 233.6 -0.1 L 235 1.7 Z M 233.2 3.1 L 233.6 3.1 L 233.6 9.1 L 233.2 9.1 L 233.2 3.1 Z M 240.4 5.1 C 240.4 5.11 240.4 9.1 240.4 9.1 L 239.9 9.1 C 239.9 9.1 239.92 5.3 239.9 5.3 C 239.9 4.1 239.3 3.4 238.2 3.4 C 237.2 3.4 236.3 4.1 236.3 5.2 C 236.32 5.24 236.3 9.1 236.3 9.1 L 235.8 9.1 L 235.8 3.1 L 236.2 3.1 L 236.3 4.1 C 236.3 4.1 236.29 4.15 236.3 4.1 C 236.6 3.5 237.3 3 238.3 3 C 239.6 3 240.4 3.8 240.4 5.1 Z M 247.4 6.3 C 247.4 6.3 242.5 6.3 242.5 6.3 C 242.6 7.8 243.6 8.8 245 8.8 C 245.7 8.8 246.5 8.5 247.1 7.9 C 247.1 7.9 247.1 8.5 247.1 8.5 C 246.5 9 245.7 9.2 245 9.2 C 243.3 9.2 242.1 8 242.1 6.1 C 242.1 4.2 243.4 3 244.9 3 C 246.2 3 247.4 4 247.4 6 C 247.4 6.1 247.4 6.2 247.4 6.3 Z M 246.9 5.8 C 246.9 4.2 245.9 3.4 244.9 3.4 C 243.7 3.4 242.7 4.3 242.6 5.8 C 242.6 5.8 246.9 5.8 246.9 5.8 Z M 252.5 3.5 C 252.5 3.5 252.5 4 252.5 4 C 252 3.7 251.4 3.4 250.7 3.4 C 249.8 3.4 249.2 3.9 249.2 4.6 C 249.2 5.3 249.9 5.5 250.8 5.8 C 251.8 6.1 252.8 6.5 252.8 7.6 C 252.8 8.6 251.9 9.2 250.7 9.2 C 250 9.2 249.3 9 248.7 8.5 C 248.7 8.5 248.7 7.9 248.7 7.9 C 249.2 8.4 249.9 8.8 250.7 8.8 C 251.7 8.8 252.3 8.3 252.3 7.6 C 252.3 6.8 251.6 6.5 250.6 6.2 C 249.6 5.9 248.8 5.6 248.8 4.6 C 248.8 3.7 249.6 3 250.7 3 C 251.4 3 252 3.2 252.5 3.5 Z M 258.2 4 C 258.2 4 258.25 4.03 258.2 4 C 258.6 3.4 259.3 3 260.2 3 C 261.5 3 262.3 3.7 262.3 5.1 C 262.32 5.12 262.3 9.1 262.3 9.1 L 261.8 9.1 C 261.8 9.1 261.84 5.29 261.8 5.3 C 261.8 4.1 261.2 3.4 260.1 3.4 C 259.1 3.4 258.2 4 258.2 5.2 C 258.24 5.19 258.2 9.1 258.2 9.1 L 257.8 9.1 L 257.8 0.1 L 258.2 0.1 L 258.2 4 Z M 264.3 0.9 C 264.3 0.7 264.5 0.5 264.7 0.5 C 264.9 0.5 265.1 0.7 265.1 0.9 C 265.1 1.1 264.9 1.2 264.7 1.2 C 264.5 1.2 264.3 1.1 264.3 0.9 Z M 264.5 3.1 L 264.9 3.1 L 264.9 9.1 L 264.5 9.1 L 264.5 3.1 Z M 267 5.4 L 269.7 5.4 L 269.7 5.9 L 267 5.9 L 267 5.4 Z M 271.8 3.5 L 270.9 3.5 L 270.9 3.1 L 271.8 3.1 C 271.8 3.1 271.79 1.91 271.8 1.9 C 271.8 0.7 272.6 0 273.6 0 C 273.9 0 274.3 0.1 274.5 0.2 C 274.5 0.2 274.5 0.7 274.5 0.7 C 274.3 0.5 273.9 0.5 273.6 0.5 C 272.8 0.5 272.3 0.9 272.3 2 C 272.28 1.99 272.3 3.1 272.3 3.1 L 274.1 3.1 L 274.1 3.5 L 272.3 3.5 L 272.3 9.1 L 271.8 9.1 L 271.8 3.5 Z M 275.4 0.9 C 275.4 0.7 275.6 0.5 275.8 0.5 C 276 0.5 276.2 0.7 276.2 0.9 C 276.2 1.1 276 1.2 275.8 1.2 C 275.6 1.2 275.4 1.1 275.4 0.9 Z M 275.6 3.1 L 276 3.1 L 276 9.1 L 275.6 9.1 L 275.6 3.1 Z M 286.4 6.3 C 286.4 6.3 281.6 6.3 281.6 6.3 C 281.7 7.8 282.7 8.8 284.1 8.8 C 284.8 8.8 285.6 8.5 286.2 7.9 C 286.2 7.9 286.2 8.5 286.2 8.5 C 285.6 9 284.8 9.2 284 9.2 C 282.3 9.2 281.1 8 281.1 6.1 C 281.1 4.2 282.5 3 284 3 C 285.3 3 286.5 4 286.5 6 C 286.5 6.1 286.4 6.2 286.4 6.3 Z M 286 5.8 C 286 4.2 285 3.4 284 3.4 C 282.8 3.4 281.7 4.3 281.6 5.8 C 281.6 5.8 286 5.8 286 5.8 Z M 291.6 3.5 C 291.6 3.5 291.6 4 291.6 4 C 291.1 3.7 290.5 3.4 289.8 3.4 C 288.9 3.4 288.3 3.9 288.3 4.6 C 288.3 5.3 289 5.5 289.9 5.8 C 290.9 6.1 291.9 6.5 291.9 7.6 C 291.9 8.6 291 9.2 289.8 9.2 C 289.1 9.2 288.3 9 287.8 8.5 C 287.8 8.5 287.8 7.9 287.8 7.9 C 288.3 8.4 289 8.8 289.8 8.8 C 290.8 8.8 291.4 8.3 291.4 7.6 C 291.4 6.8 290.7 6.5 289.7 6.2 C 288.7 5.9 287.8 5.6 287.8 4.6 C 287.8 3.7 288.7 3 289.8 3 C 290.5 3 291.1 3.2 291.6 3.5 Z M 294.2 3.1 L 296 3.1 L 296 3.5 L 294.2 3.5 C 294.2 3.5 294.17 7.23 294.2 7.2 C 294.2 8.4 294.8 8.8 295.6 8.8 C 295.8 8.8 296 8.8 296.1 8.7 C 296.1 8.7 296.1 9.2 296.1 9.2 C 296.1 9.2 295.8 9.2 295.6 9.2 C 294.5 9.2 293.7 8.6 293.7 7.3 C 293.69 7.25 293.7 3.5 293.7 3.5 L 292.8 3.5 L 292.8 3.1 L 293.7 3.1 L 293.7 1.6 L 294.2 1.6 L 294.2 3.1 Z M 304 2 L 303.5 2 L 302 0.2 L 302.6 0.2 L 304 2 Z M 300.3 6.1 C 300.3 4.2 301.6 3 303 3 C 304 3 305 3.5 305.4 4.6 C 305.41 4.59 305.5 3.1 305.5 3.1 L 305.9 3.1 L 305.9 9.1 L 305.5 9.1 C 305.5 9.1 305.41 7.62 305.4 7.6 C 305 8.7 304 9.2 303 9.2 C 301.6 9.2 300.3 8 300.3 6.1 Z M 305.4 6.1 C 305.4 4.5 304.3 3.4 303.1 3.4 C 301.8 3.4 300.7 4.5 300.7 6.1 C 300.7 7.7 301.8 8.8 303.1 8.8 C 304.3 8.8 305.4 7.7 305.4 6.1 Z M 311.3 3.1 L 311.7 3.1 L 311.8 4.2 C 311.8 4.2 311.79 4.2 311.8 4.2 C 312.2 3.4 313 3 313.6 3 C 313.7 3 313.8 3 313.9 3 C 313.9 3 313.9 3.5 313.9 3.5 C 313.8 3.5 313.7 3.5 313.6 3.5 C 312.7 3.5 311.8 4.1 311.8 5.3 C 311.82 5.3 311.8 9.1 311.8 9.1 L 311.3 9.1 L 311.3 3.1 Z M 314.5 6.1 C 314.5 4.2 315.8 3 317.2 3 C 318.2 3 319.2 3.5 319.6 4.6 C 319.64 4.59 319.7 3.1 319.7 3.1 L 320.1 3.1 L 320.1 9.1 L 319.7 9.1 C 319.7 9.1 319.64 7.62 319.6 7.6 C 319.2 8.7 318.2 9.2 317.3 9.2 C 315.8 9.2 314.5 8 314.5 6.1 Z M 319.6 6.1 C 319.6 4.5 318.6 3.4 317.3 3.4 C 316 3.4 315 4.5 315 6.1 C 315 7.7 316 8.8 317.3 8.8 C 318.5 8.8 319.6 7.7 319.6 6.1 Z M 322.9 3.1 L 324.7 3.1 L 324.7 3.5 L 322.9 3.5 C 322.9 3.5 322.9 7.23 322.9 7.2 C 322.9 8.4 323.5 8.8 324.4 8.8 C 324.5 8.8 324.7 8.8 324.9 8.7 C 324.9 8.7 324.9 9.2 324.9 9.2 C 324.8 9.2 324.6 9.2 324.3 9.2 C 323.2 9.2 322.4 8.6 322.4 7.3 C 322.42 7.25 322.4 3.5 322.4 3.5 L 321.5 3.5 L 321.5 3.1 L 322.4 3.1 L 322.4 1.6 L 322.9 1.6 L 322.9 3.1 Z M 325.9 5.4 L 328.6 5.4 L 328.6 5.9 L 325.9 5.9 L 325.9 5.4 Z " stroke="none" fill="#000"/>
  </g>
</svg>