<?xml version="1.0" standalone="no"?>
<!DOCTYPE svg PUBLIC "-//W3C//DTD SVG 1.1//EN" "http://www.w3.org/Graphics/SVG/1.1/DTD/svg11.dtd">
<svg xmlns="http://www.w3.org/2000/svg" version="1.1" width="135px" height="34.1px" viewBox="0 0 135 34.1">
  <desc>ENCEINTES</desc>
  <defs/>
  <g id="Polygon26331">
    <path d="M 1.3 1.1 L 11.8 1.1 L 11.8 5 L 5.8 5 L 5.8 6.9 L 11.2 6.9 L 11.2 10.4 L 5.8 10.4 L 5.8 12.3 L 11.8 12.3 L 11.8 16.3 L 1.3 16.3 L 1.3 1.1 Z M 28 16.3 L 23.8 16.3 L 18.3 8.1 L 18.3 8.1 L 18.3 16.3 L 14.1 16.3 L 14.1 1.1 L 18.3 1.1 L 23.8 9.1 L 23.8 9.1 L 23.8 1.1 L 28 1.1 L 28 16.3 Z M 38 16.6 C 33.5 16.6 29.9 13.4 29.9 8.7 C 29.9 3.9 33.5 0.7 38 0.7 C 39.7 0.7 41.1 1.2 42.2 1.7 C 42.2 1.7 42.2 6.1 42.2 6.1 C 41 5.2 39.9 4.8 38.5 4.8 C 36.1 4.8 34.4 6.4 34.4 8.7 C 34.4 10.9 36.1 12.6 38.5 12.6 C 39.9 12.6 41 12.1 42.2 11.2 C 42.2 11.2 42.2 15.6 42.2 15.6 C 41.1 16.2 39.7 16.6 38 16.6 Z M 44.4 1.1 L 54.9 1.1 L 54.9 5 L 48.9 5 L 48.9 6.9 L 54.3 6.9 L 54.3 10.4 L 48.9 10.4 L 48.9 12.3 L 54.9 12.3 L 54.9 16.3 L 44.4 16.3 L 44.4 1.1 Z M 57.2 1.1 L 61.6 1.1 L 61.6 16.3 L 57.2 16.3 L 57.2 1.1 Z M 78.2 16.3 L 74 16.3 L 68.5 8.1 L 68.5 8.1 L 68.5 16.3 L 64.3 16.3 L 64.3 1.1 L 68.5 1.1 L 74 9.1 L 74 9.1 L 74 1.1 L 78.2 1.1 L 78.2 16.3 Z M 84.1 5.1 L 79.9 5.1 L 79.9 1.1 L 92.7 1.1 L 92.7 5.1 L 88.5 5.1 L 88.5 16.3 L 84.1 16.3 L 84.1 5.1 Z M 94.4 1.1 L 104.9 1.1 L 104.9 5 L 98.8 5 L 98.8 6.9 L 104.2 6.9 L 104.2 10.4 L 98.8 10.4 L 98.8 12.3 L 104.9 12.3 L 104.9 16.3 L 94.4 16.3 L 94.4 1.1 Z M 116.8 1.8 C 116.8 1.8 116.8 5.7 116.8 5.7 C 115.8 5 114.2 4.6 112.9 4.6 C 111.7 4.6 111.1 5 111.1 5.5 C 111.1 6 111.8 6.2 113 6.7 C 115 7.4 117.7 8.3 117.7 11.6 C 117.7 14.5 115.6 16.6 111.8 16.6 C 109.8 16.6 108 16 106.9 15.3 C 106.9 15.3 106.9 11.2 106.9 11.2 C 107.9 12.1 109.6 12.8 111.2 12.8 C 112.6 12.8 113.2 12.3 113.2 11.7 C 113.2 11 112.2 10.6 110.9 10.2 C 109.3 9.6 106.7 8.5 106.7 5.6 C 106.7 2.9 108.8 0.8 112.6 0.8 C 114.2 0.8 115.7 1.2 116.8 1.8 Z " stroke="none" fill="#444443"/>
  </g>
</svg>