<?xml version="1.0" standalone="no"?>
<!DOCTYPE svg PUBLIC "-//W3C//DTD SVG 1.1//EN" "http://www.w3.org/Graphics/SVG/1.1/DTD/svg11.dtd">
<svg xmlns="http://www.w3.org/2000/svg" version="1.1" width="141.4px" height="14.6px" viewBox="0 0 141.4 14.6">
  <desc>3- Beosound Shape, Bang &amp; Olufsen</desc>
  <defs/>
  <g id="Polygon24325">
    <path d="M 3.8 4.8 C 3.8 5.7 3 6.5 1.9 6.5 C 1.3 6.5 0.6 6.3 0.2 5.8 C 0.2 5.8 0.3 5.4 0.3 5.4 C 0.7 5.9 1.4 6.2 1.9 6.2 C 2.8 6.2 3.4 5.5 3.4 4.7 C 3.4 4 2.8 3.5 1.8 3.5 C 1.82 3.51 1.2 3.5 1.2 3.5 L 1.3 3.2 C 1.3 3.2 1.98 3.18 2 3.2 C 3.1 3.2 3.7 2.5 3.7 1.8 C 3.7 1.2 3.2 0.7 2.5 0.7 C 2 0.7 1.5 0.9 1.1 1.3 C 1.1 1.3 1.2 0.8 1.2 0.8 C 1.5 0.5 2.1 0.4 2.5 0.4 C 3.4 0.4 4 1 4 1.8 C 4 2.4 3.5 3.2 2.5 3.3 C 3.4 3.5 3.8 4.2 3.8 4.8 Z M 5.1 3.8 L 6.9 3.8 L 6.9 4.1 L 5 4.1 L 5.1 3.8 Z M 14.5 1.8 C 14.5 2.5 14 3.2 13.2 3.3 C 13.9 3.5 14.3 4.1 14.3 4.7 C 14.3 5.6 13.5 6.4 12 6.4 C 12.04 6.4 10.5 6.4 10.5 6.4 L 11.4 0.5 C 11.4 0.5 12.75 0.46 12.8 0.5 C 13.9 0.5 14.5 1.1 14.5 1.8 Z M 14.1 1.8 C 14.1 1.2 13.6 0.8 12.7 0.8 C 12.69 0.78 11.6 0.8 11.6 0.8 L 11.3 3.2 C 11.3 3.2 12.5 3.19 12.5 3.2 C 13.7 3.2 14.1 2.5 14.1 1.8 Z M 14 4.7 C 14 4 13.4 3.5 12.5 3.5 C 12.5 3.52 11.2 3.5 11.2 3.5 L 10.9 6.1 C 10.9 6.1 12.06 6.08 12.1 6.1 C 13.3 6.1 14 5.5 14 4.7 Z M 15.7 4.4 C 15.7 4.4 15.66 4.5 15.7 4.5 C 15.7 5.6 16.3 6.2 17.2 6.2 C 17.7 6.2 18.2 6 18.7 5.6 C 18.7 5.6 18.6 6 18.6 6 C 18.2 6.3 17.7 6.5 17.2 6.5 C 16.1 6.5 15.3 5.8 15.3 4.6 C 15.3 3.2 16.3 2.1 17.5 2.1 C 18.4 2.1 19.1 2.8 19.1 3.8 C 19.1 4 19 4.2 19 4.4 C 18.99 4.39 15.7 4.4 15.7 4.4 Z M 15.7 4.1 C 15.7 4.1 18.7 4.1 18.7 4.1 C 18.7 4 18.7 3.9 18.7 3.8 C 18.7 2.9 18.2 2.4 17.4 2.4 C 16.6 2.4 15.9 3 15.7 4.1 Z M 19.9 4.6 C 19.9 3.1 20.9 2.1 22.2 2.1 C 23.2 2.1 24 2.8 24 4 C 24 5.4 22.9 6.5 21.7 6.5 C 20.6 6.5 19.9 5.7 19.9 4.6 Z M 23.6 4 C 23.6 3 23 2.4 22.2 2.4 C 21.1 2.4 20.2 3.3 20.2 4.6 C 20.2 5.6 20.8 6.2 21.7 6.2 C 22.7 6.2 23.6 5.3 23.6 4 Z M 26.5 2.4 C 25.9 2.4 25.4 2.7 25.4 3.2 C 25.4 3.6 25.8 3.8 26.3 4.1 C 27.1 4.4 27.6 4.6 27.6 5.3 C 27.6 6 27 6.5 26.2 6.5 C 25.6 6.5 25 6.2 24.6 5.9 C 24.6 5.9 24.7 5.5 24.7 5.5 C 25.1 5.9 25.6 6.2 26.2 6.2 C 26.8 6.2 27.3 5.8 27.3 5.3 C 27.3 4.8 26.8 4.6 26.1 4.3 C 25.6 4.1 25.1 3.8 25.1 3.2 C 25.1 2.5 25.7 2.1 26.5 2.1 C 27 2.1 27.5 2.3 27.8 2.5 C 27.8 2.5 27.7 2.9 27.7 2.9 C 27.4 2.6 27 2.4 26.5 2.4 Z M 28.6 4.6 C 28.6 3.1 29.6 2.1 30.9 2.1 C 31.9 2.1 32.7 2.8 32.7 4 C 32.7 5.4 31.6 6.5 30.4 6.5 C 29.3 6.5 28.6 5.7 28.6 4.6 Z M 32.3 4 C 32.3 3 31.7 2.4 30.9 2.4 C 29.8 2.4 28.9 3.3 28.9 4.6 C 28.9 5.6 29.5 6.2 30.4 6.2 C 31.4 6.2 32.3 5.3 32.3 4 Z M 36.9 4.8 C 36.8 6 36 6.5 35.2 6.5 C 34.4 6.5 33.7 5.9 33.7 5 C 33.7 4.9 33.7 4.8 33.7 4.7 C 33.74 4.68 34.1 2.2 34.1 2.2 L 34.4 2.2 C 34.4 2.2 34.08 4.66 34.1 4.7 C 34.1 4.8 34 4.9 34 5 C 34 5.7 34.6 6.1 35.2 6.1 C 35.9 6.1 36.4 5.8 36.6 4.8 C 36.6 4.75 37 2.2 37 2.2 L 37.3 2.2 C 37.3 2.2 36.91 4.83 36.9 4.8 Z M 39 2.2 L 39 2.9 C 39 2.9 38.98 2.9 39 2.9 C 39.3 2.4 39.8 2.1 40.4 2.1 C 41.2 2.1 41.8 2.6 41.8 3.4 C 41.8 3.4 41.8 3.5 41.7 3.7 C 41.74 3.68 41.3 6.4 41.3 6.4 L 41 6.4 C 41 6.4 41.41 3.71 41.4 3.7 C 41.4 3.6 41.4 3.5 41.4 3.4 C 41.4 2.8 41 2.4 40.4 2.4 C 39.6 2.4 39 3 38.9 3.7 C 38.87 3.72 38.5 6.4 38.5 6.4 L 38.1 6.4 L 38.8 2.2 L 39 2.2 Z M 46.4 6.4 L 46.2 6.4 C 46.2 6.4 46.25 5.37 46.2 5.4 C 45.8 6.1 45.2 6.5 44.5 6.5 C 43.6 6.5 42.8 5.8 42.8 4.6 C 42.8 3.2 43.8 2.1 45 2.1 C 45.8 2.1 46.3 2.5 46.5 3.2 C 46.54 3.22 47 0 47 0 L 47.3 0 L 46.4 6.4 Z M 43.1 4.6 C 43.1 5.6 43.8 6.2 44.5 6.2 C 45.5 6.2 46.4 5.3 46.4 4 C 46.4 3 45.8 2.4 45 2.4 C 44 2.4 43.1 3.3 43.1 4.6 Z M 54 1.2 C 53.6 0.9 53.1 0.7 52.6 0.7 C 51.7 0.7 51.1 1.2 51.1 1.8 C 51.1 2.4 51.6 2.8 52.3 3.2 C 53.1 3.7 53.6 4.1 53.6 4.9 C 53.6 5.8 52.8 6.5 51.7 6.5 C 51.1 6.5 50.4 6.2 50.1 5.9 C 50.1 5.9 50.1 5.5 50.1 5.5 C 50.5 5.9 51.1 6.2 51.8 6.2 C 52.6 6.2 53.2 5.6 53.2 4.9 C 53.2 4.2 52.8 3.9 52 3.4 C 51.3 3 50.8 2.6 50.8 1.9 C 50.8 1.1 51.5 0.4 52.6 0.4 C 53.1 0.4 53.7 0.5 54 0.8 C 54 0.8 54 1.2 54 1.2 Z M 57.5 6.4 C 57.5 6.4 57.89 3.7 57.9 3.7 C 57.9 3.6 57.9 3.5 57.9 3.4 C 57.9 2.8 57.5 2.4 56.9 2.4 C 56.1 2.4 55.5 3 55.4 3.7 C 55.36 3.69 55 6.4 55 6.4 L 54.6 6.4 L 55.6 0 L 55.9 0 L 55.5 2.9 C 55.5 2.9 55.47 2.88 55.5 2.9 C 55.8 2.4 56.3 2.1 56.9 2.1 C 57.7 2.1 58.3 2.6 58.3 3.3 C 58.3 3.4 58.2 3.5 58.2 3.6 C 58.23 3.62 57.8 6.4 57.8 6.4 L 57.5 6.4 Z M 62.9 6.4 L 62.6 6.4 L 62.8 5.4 C 62.8 5.4 62.74 5.38 62.7 5.4 C 62.3 6.1 61.7 6.5 61 6.5 C 60.1 6.5 59.3 5.8 59.3 4.6 C 59.3 3.1 60.3 2.1 61.5 2.1 C 62.2 2.1 62.9 2.5 63 3.2 C 63.05 3.23 63.1 3.2 63.1 3.2 L 63.3 2.2 L 63.5 2.2 L 62.9 6.4 Z M 59.6 4.5 C 59.6 5.6 60.3 6.2 61.1 6.2 C 62.2 6.2 62.9 5.1 62.9 4 C 62.9 3 62.3 2.4 61.5 2.4 C 60.5 2.4 59.6 3.3 59.6 4.5 Z M 65.3 2.2 C 65.3 2.2 65.22 3.17 65.2 3.2 C 65.6 2.5 66.3 2.1 67 2.1 C 67.9 2.1 68.7 2.8 68.7 4 C 68.7 5.4 67.6 6.5 66.4 6.5 C 65.7 6.5 65.1 6 64.9 5.3 C 64.92 5.32 64.5 8.1 64.5 8.1 L 64.2 8.1 L 65.1 2.2 L 65.3 2.2 Z M 65 4.6 C 65 5.6 65.6 6.2 66.5 6.2 C 67.4 6.2 68.3 5.2 68.3 3.9 C 68.3 2.9 67.7 2.4 66.9 2.4 C 66 2.4 65 3.3 65 4.6 Z M 69.9 4.4 C 69.9 4.4 69.89 4.5 69.9 4.5 C 69.9 5.6 70.5 6.2 71.5 6.2 C 72 6.2 72.4 6 72.9 5.6 C 72.9 5.6 72.9 6 72.9 6 C 72.5 6.3 72 6.5 71.4 6.5 C 70.3 6.5 69.6 5.8 69.6 4.6 C 69.6 3.2 70.5 2.1 71.7 2.1 C 72.7 2.1 73.3 2.8 73.3 3.8 C 73.3 4 73.3 4.2 73.2 4.4 C 73.23 4.39 69.9 4.4 69.9 4.4 Z M 69.9 4.1 C 69.9 4.1 73 4.1 73 4.1 C 73 4 73 3.9 73 3.8 C 73 2.9 72.4 2.4 71.7 2.4 C 70.9 2.4 70.1 3 69.9 4.1 Z M 74.6 5.7 C 74.5 6.3 74.2 6.9 73.8 7.5 C 73.8 7.5 73.5 7.5 73.5 7.5 C 73.8 7 74.1 6.4 74.2 5.7 C 74.2 5.6 74.2 5.5 74.2 5.5 C 74.2 5.5 74.6 5.5 74.6 5.5 C 74.6 5.5 74.6 5.6 74.6 5.7 Z M 82.4 1.8 C 82.4 2.5 81.9 3.2 81.1 3.3 C 81.8 3.5 82.2 4.1 82.2 4.7 C 82.2 5.6 81.4 6.4 80 6.4 C 79.95 6.4 78.4 6.4 78.4 6.4 L 79.3 0.5 C 79.3 0.5 80.66 0.46 80.7 0.5 C 81.8 0.5 82.4 1.1 82.4 1.8 Z M 82.1 1.8 C 82.1 1.2 81.6 0.8 80.6 0.8 C 80.6 0.78 79.6 0.8 79.6 0.8 L 79.2 3.2 C 79.2 3.2 80.41 3.19 80.4 3.2 C 81.6 3.2 82.1 2.5 82.1 1.8 Z M 81.9 4.7 C 81.9 4 81.3 3.5 80.4 3.5 C 80.41 3.52 79.1 3.5 79.1 3.5 L 78.8 6.1 C 78.8 6.1 79.98 6.08 80 6.1 C 81.2 6.1 81.9 5.5 81.9 4.7 Z M 86.9 6.4 L 86.6 6.4 L 86.7 5.4 C 86.7 5.4 86.69 5.38 86.7 5.4 C 86.3 6.1 85.7 6.5 84.9 6.5 C 84.1 6.5 83.2 5.8 83.2 4.6 C 83.2 3.1 84.3 2.1 85.4 2.1 C 86.2 2.1 86.8 2.5 87 3.2 C 86.99 3.23 87 3.2 87 3.2 L 87.2 2.2 L 87.5 2.2 L 86.9 6.4 Z M 83.6 4.5 C 83.6 5.6 84.3 6.2 85 6.2 C 86.1 6.2 86.9 5.1 86.9 4 C 86.9 3 86.2 2.4 85.4 2.4 C 84.5 2.4 83.6 3.3 83.6 4.5 Z M 89.3 2.2 L 89.2 2.9 C 89.2 2.9 89.21 2.9 89.2 2.9 C 89.5 2.4 90 2.1 90.7 2.1 C 91.4 2.1 92 2.6 92 3.4 C 92 3.4 92 3.5 92 3.7 C 91.97 3.68 91.6 6.4 91.6 6.4 L 91.2 6.4 C 91.2 6.4 91.64 3.71 91.6 3.7 C 91.7 3.6 91.7 3.5 91.7 3.4 C 91.7 2.8 91.2 2.4 90.6 2.4 C 89.8 2.4 89.2 3 89.1 3.7 C 89.1 3.72 88.7 6.4 88.7 6.4 L 88.4 6.4 L 89 2.2 L 89.3 2.2 Z M 96.7 6.3 C 96.4 7.8 95.4 8.2 94.5 8.2 C 93.9 8.2 93.3 8 92.9 7.6 C 92.9 7.6 92.9 7.2 92.9 7.2 C 93.4 7.6 93.9 7.9 94.5 7.9 C 95.4 7.9 96.2 7.4 96.3 6.3 C 96.3 6.3 96.5 5.3 96.5 5.3 C 96.1 6 95.4 6.3 94.8 6.3 C 93.8 6.3 93 5.7 93 4.5 C 93 3.1 94.1 2.1 95.3 2.1 C 96 2.1 96.6 2.5 96.8 3.2 C 96.77 3.2 97 2.2 97 2.2 L 97.3 2.2 C 97.3 2.2 96.65 6.3 96.7 6.3 Z M 93.4 4.5 C 93.4 5.5 94 6 94.8 6 C 95.8 6 96.7 5.1 96.7 3.9 C 96.7 3 96 2.4 95.2 2.4 C 94.3 2.4 93.4 3.3 93.4 4.5 Z M 104.2 5.1 L 105.3 6.4 L 104.8 6.4 C 104.8 6.4 103.97 5.36 104 5.4 C 103.4 6.1 102.8 6.5 102.1 6.5 C 101.1 6.5 100.5 5.9 100.5 5 C 100.5 4.1 101.3 3.6 102.2 3.2 C 101.7 2.6 101.4 2.2 101.4 1.7 C 101.4 0.9 102.1 0.4 103 0.4 C 103.7 0.4 104.3 0.9 104.3 1.6 C 104.3 2.4 103.7 2.8 102.7 3.3 C 102.68 3.28 104 4.8 104 4.8 L 105.2 3.3 L 105.6 3.3 L 104.2 5.1 Z M 101.8 1.7 C 101.8 2 101.9 2.3 102.5 3 C 103.4 2.6 104 2.3 104 1.6 C 104 1.1 103.6 0.7 102.9 0.7 C 102.3 0.7 101.8 1.1 101.8 1.7 Z M 103.8 5.1 C 103.8 5.1 102.36 3.42 102.4 3.4 C 101.5 3.8 100.8 4.2 100.8 5 C 100.8 5.7 101.4 6.2 102.1 6.2 C 102.7 6.2 103.2 5.8 103.7 5.1 C 103.74 5.14 103.8 5.1 103.8 5.1 Z M 114.5 3 C 114.5 4.9 113.1 6.5 111.2 6.5 C 109.8 6.5 108.7 5.5 108.7 3.9 C 108.7 2 110.2 0.4 112 0.4 C 113.4 0.4 114.5 1.4 114.5 3 Z M 109.1 3.8 C 109.1 5.3 110 6.2 111.3 6.2 C 112.8 6.2 114.1 4.7 114.1 3 C 114.1 1.6 113.2 0.7 112 0.7 C 110.4 0.7 109.1 2.1 109.1 3.8 Z M 116.2 0 L 116.6 0 L 115.6 6.4 L 115.3 6.4 L 116.2 0 Z M 120.6 4.8 C 120.4 6 119.7 6.5 118.9 6.5 C 118 6.5 117.4 5.9 117.4 5 C 117.4 4.9 117.4 4.8 117.4 4.7 C 117.39 4.68 117.8 2.2 117.8 2.2 L 118.1 2.2 C 118.1 2.2 117.73 4.66 117.7 4.7 C 117.7 4.8 117.7 4.9 117.7 5 C 117.7 5.7 118.2 6.1 118.9 6.1 C 119.5 6.1 120.1 5.8 120.2 4.8 C 120.25 4.75 120.6 2.2 120.6 2.2 L 121 2.2 C 121 2.2 120.56 4.83 120.6 4.8 Z M 122.5 2.5 L 121.8 2.5 L 121.9 2.2 L 122.6 2.2 C 122.6 2.2 122.72 1.35 122.7 1.4 C 122.9 0.4 123.4 0 124.1 0 C 124.3 0 124.5 0 124.7 0.1 C 124.7 0.1 124.6 0.4 124.6 0.4 C 124.5 0.4 124.3 0.3 124.1 0.3 C 123.6 0.3 123.2 0.6 123 1.4 C 123.05 1.35 122.9 2.2 122.9 2.2 L 124.2 2.2 L 124.1 2.5 L 122.9 2.5 L 122.3 6.4 L 122 6.4 L 122.5 2.5 Z M 126.1 2.4 C 125.5 2.4 125 2.7 125 3.2 C 125 3.6 125.4 3.8 125.9 4.1 C 126.7 4.4 127.2 4.6 127.2 5.3 C 127.2 6 126.6 6.5 125.8 6.5 C 125.2 6.5 124.6 6.2 124.2 5.9 C 124.2 5.9 124.3 5.5 124.3 5.5 C 124.7 5.9 125.2 6.2 125.8 6.2 C 126.4 6.2 126.8 5.8 126.8 5.3 C 126.8 4.8 126.4 4.6 125.7 4.3 C 125.2 4.1 124.7 3.8 124.7 3.2 C 124.7 2.5 125.3 2.1 126.1 2.1 C 126.6 2.1 127.1 2.3 127.4 2.5 C 127.4 2.5 127.3 2.9 127.3 2.9 C 127 2.6 126.6 2.4 126.1 2.4 Z M 128.5 4.4 C 128.5 4.4 128.53 4.5 128.5 4.5 C 128.5 5.6 129.2 6.2 130.1 6.2 C 130.6 6.2 131.1 6 131.5 5.6 C 131.5 5.6 131.5 6 131.5 6 C 131.1 6.3 130.6 6.5 130 6.5 C 129 6.5 128.2 5.8 128.2 4.6 C 128.2 3.2 129.2 2.1 130.4 2.1 C 131.3 2.1 131.9 2.8 131.9 3.8 C 131.9 4 131.9 4.2 131.9 4.4 C 131.86 4.39 128.5 4.4 128.5 4.4 Z M 128.6 4.1 C 128.6 4.1 131.6 4.1 131.6 4.1 C 131.6 4 131.6 3.9 131.6 3.8 C 131.6 2.9 131 2.4 130.3 2.4 C 129.5 2.4 128.7 3 128.6 4.1 Z M 133.7 2.2 L 133.6 2.9 C 133.6 2.9 133.61 2.9 133.6 2.9 C 133.9 2.4 134.4 2.1 135.1 2.1 C 135.8 2.1 136.4 2.6 136.4 3.4 C 136.4 3.4 136.4 3.5 136.4 3.7 C 136.37 3.68 136 6.4 136 6.4 L 135.6 6.4 C 135.6 6.4 136.04 3.71 136 3.7 C 136.1 3.6 136.1 3.5 136.1 3.4 C 136.1 2.8 135.6 2.4 135 2.4 C 134.2 2.4 133.6 3 133.5 3.7 C 133.5 3.72 133.1 6.4 133.1 6.4 L 132.8 6.4 L 133.4 2.2 L 133.7 2.2 Z " stroke="none" fill="#000"/>
  </g>
</svg>