<?xml version="1.0" standalone="no"?>
<!DOCTYPE svg PUBLIC "-//W3C//DTD SVG 1.1//EN" "http://www.w3.org/Graphics/SVG/1.1/DTD/svg11.dtd">
<svg xmlns="http://www.w3.org/2000/svg" version="1.1" width="305.4px" height="123.7px" viewBox="0 0 305.4 123.7">
  <desc>Fondation B n teau</desc>
  <defs/>
  <g id="Polygon17411">
    <path d="M 2.3 10.1 L 12.6 10.1 L 12.6 12 L 4.3 12 L 4.3 17.5 L 12.5 17.5 L 12.5 19.4 L 4.3 19.4 L 4.3 26.9 L 2.3 26.9 L 2.3 10.1 Z M 28 21.1 C 28 22.1 27.8 22.9 27.5 23.7 C 27.2 24.5 26.8 25.1 26.2 25.6 C 25.7 26.1 25 26.5 24.3 26.8 C 23.6 27.1 22.8 27.2 22 27.2 C 21.2 27.2 20.5 27.1 19.8 26.8 C 19 26.5 18.4 26.1 17.9 25.6 C 17.3 25.1 16.9 24.5 16.5 23.7 C 16.2 22.9 16.1 22.1 16.1 21.1 C 16.1 21.1 16.1 20.8 16.1 20.8 C 16.1 19.8 16.2 18.9 16.5 18.2 C 16.9 17.4 17.3 16.8 17.9 16.2 C 18.4 15.7 19.1 15.3 19.8 15 C 20.5 14.8 21.2 14.6 22 14.6 C 22.8 14.6 23.6 14.8 24.3 15 C 25 15.3 25.6 15.7 26.2 16.2 C 26.7 16.8 27.2 17.4 27.5 18.2 C 27.8 18.9 28 19.8 28 20.8 C 28 20.8 28 21.1 28 21.1 Z M 22 25.4 C 22.6 25.4 23.1 25.3 23.6 25.1 C 24.1 24.9 24.5 24.6 24.9 24.3 C 25.3 23.9 25.6 23.4 25.8 22.9 C 26 22.3 26.1 21.7 26.1 21.1 C 26.1 21.1 26.1 20.8 26.1 20.8 C 26.1 20.1 26 19.6 25.8 19 C 25.6 18.5 25.3 18 24.9 17.6 C 24.5 17.3 24.1 17 23.6 16.7 C 23.1 16.5 22.6 16.4 22 16.4 C 21.5 16.4 20.9 16.5 20.4 16.7 C 20 17 19.5 17.3 19.2 17.6 C 18.8 18 18.5 18.5 18.3 19 C 18.1 19.6 18 20.1 18 20.8 C 18 20.8 18 21.1 18 21.1 C 18 21.7 18.1 22.3 18.3 22.9 C 18.5 23.4 18.8 23.9 19.2 24.3 C 19.5 24.6 19.9 24.9 20.4 25.1 C 20.9 25.3 21.5 25.4 22 25.4 Z M 33.3 26.9 L 31.5 26.9 L 31.5 15 L 33.3 15 L 33.3 17 C 33.3 17 33.62 16.99 33.6 17 C 34.4 15.4 35.6 14.6 37.5 14.6 C 38.8 14.6 39.9 15.1 40.8 15.9 C 41.6 16.8 42 18.1 42 19.8 C 41.98 19.78 42 26.9 42 26.9 L 40.1 26.9 C 40.1 26.9 40.1 20.16 40.1 20.2 C 40.1 18.9 39.8 18 39.3 17.4 C 38.7 16.7 37.9 16.4 37 16.4 C 35.8 16.4 35 16.8 34.3 17.6 C 33.7 18.4 33.3 19.4 33.3 20.7 C 33.34 20.69 33.3 26.9 33.3 26.9 Z M 55.4 25.1 C 55.4 25.1 55.08 25.06 55.1 25.1 C 54.9 25.4 54.6 25.7 54.3 26 C 54.1 26.3 53.7 26.5 53.4 26.7 C 53 26.9 52.7 27 52.3 27.1 C 51.9 27.2 51.5 27.2 51.2 27.2 C 50.4 27.2 49.6 27.1 49 26.8 C 48.3 26.5 47.7 26.1 47.1 25.6 C 46.6 25.1 46.2 24.5 45.9 23.7 C 45.6 23 45.5 22.1 45.5 21.1 C 45.5 21.1 45.5 20.7 45.5 20.7 C 45.5 19.8 45.6 18.9 45.9 18.2 C 46.2 17.4 46.6 16.8 47.2 16.2 C 47.7 15.7 48.3 15.3 49 15 C 49.6 14.8 50.4 14.6 51.1 14.6 C 52 14.6 52.7 14.8 53.4 15.2 C 54.1 15.5 54.7 16.1 55.1 16.8 C 55.08 16.85 55.4 16.8 55.4 16.8 L 55.4 10.1 L 57.2 10.1 L 57.2 26.9 L 55.4 26.9 L 55.4 25.1 Z M 51.4 25.4 C 51.9 25.4 52.5 25.3 52.9 25.1 C 53.4 24.9 53.8 24.6 54.2 24.2 C 54.6 23.9 54.8 23.4 55.1 22.9 C 55.3 22.3 55.4 21.7 55.4 21.1 C 55.4 21.1 55.4 20.8 55.4 20.8 C 55.4 20.1 55.3 19.6 55.1 19 C 54.8 18.5 54.6 18 54.2 17.6 C 53.8 17.3 53.4 17 52.9 16.7 C 52.4 16.5 51.9 16.4 51.4 16.4 C 50.8 16.4 50.3 16.5 49.8 16.7 C 49.3 16.9 48.9 17.2 48.5 17.6 C 48.2 18 47.9 18.5 47.7 19 C 47.5 19.5 47.4 20.1 47.4 20.7 C 47.4 20.7 47.4 21.1 47.4 21.1 C 47.4 21.8 47.5 22.4 47.7 22.9 C 47.9 23.4 48.2 23.9 48.5 24.3 C 48.9 24.7 49.3 24.9 49.8 25.1 C 50.3 25.3 50.8 25.4 51.4 25.4 Z M 69.5 24.9 C 69.5 24.9 69.19 24.86 69.2 24.9 C 68.8 25.7 68.3 26.3 67.6 26.6 C 66.9 27 66.2 27.2 65.4 27.2 C 64.7 27.2 63.9 27.1 63.3 26.8 C 62.6 26.6 62 26.2 61.5 25.6 C 61 25.1 60.6 24.5 60.3 23.7 C 60 23 59.9 22.1 59.9 21.1 C 59.9 21.1 59.9 20.7 59.9 20.7 C 59.9 19.8 60 18.9 60.3 18.1 C 60.6 17.4 61 16.8 61.5 16.2 C 62 15.7 62.6 15.3 63.3 15 C 63.9 14.8 64.6 14.6 65.4 14.6 C 66.2 14.6 67 14.8 67.6 15.2 C 68.3 15.5 68.8 16.1 69.2 16.8 C 69.19 16.85 69.5 16.8 69.5 16.8 L 69.5 15 L 71.4 15 C 71.4 15 71.35 24.43 71.4 24.4 C 71.4 24.9 71.6 25.2 72 25.2 C 72 25.15 72.6 25.2 72.6 25.2 L 72.6 26.9 C 72.6 26.9 71.33 26.88 71.3 26.9 C 70.8 26.9 70.3 26.7 70 26.4 C 69.7 26 69.5 25.6 69.5 25 C 69.48 25.01 69.5 24.9 69.5 24.9 Z M 65.6 25.4 C 66.2 25.4 66.7 25.3 67.2 25.1 C 67.7 24.9 68.1 24.6 68.4 24.2 C 68.7 23.9 69 23.4 69.2 22.9 C 69.4 22.3 69.5 21.7 69.5 21.1 C 69.5 21.1 69.5 20.8 69.5 20.8 C 69.5 20.1 69.4 19.6 69.2 19 C 69 18.5 68.7 18 68.4 17.6 C 68 17.3 67.6 17 67.2 16.7 C 66.7 16.5 66.2 16.4 65.6 16.4 C 65.1 16.4 64.6 16.5 64.1 16.7 C 63.6 16.9 63.2 17.2 62.9 17.6 C 62.5 18 62.3 18.4 62.1 19 C 61.9 19.5 61.8 20.1 61.8 20.7 C 61.8 20.7 61.8 21.1 61.8 21.1 C 61.8 22.5 62.2 23.5 62.9 24.3 C 63.6 25.1 64.5 25.4 65.6 25.4 Z M 75.1 15 L 78.9 15 L 78.9 10.1 L 80.7 10.1 L 80.7 15 L 85.3 15 L 85.3 16.7 L 80.7 16.7 C 80.7 16.7 80.74 24.43 80.7 24.4 C 80.7 24.9 81 25.2 81.4 25.2 C 81.38 25.15 84.8 25.2 84.8 25.2 L 84.8 26.9 C 84.8 26.9 80.71 26.88 80.7 26.9 C 80.2 26.9 79.7 26.7 79.4 26.4 C 79 26 78.9 25.6 78.9 25 C 78.86 25.01 78.9 16.7 78.9 16.7 L 75.1 16.7 L 75.1 15 Z M 93.9 11.4 C 93.9 11 94.1 10.6 94.4 10.2 C 94.7 9.9 95.1 9.7 95.6 9.7 C 96.1 9.7 96.5 9.9 96.8 10.2 C 97.1 10.6 97.3 11 97.3 11.4 C 97.3 11.9 97.1 12.3 96.8 12.6 C 96.5 12.9 96.1 13.1 95.6 13.1 C 95.1 13.1 94.7 12.9 94.4 12.6 C 94.1 12.3 93.9 11.9 93.9 11.4 Z M 90.5 25.2 L 94.7 25.2 L 94.7 16.7 L 90.9 16.7 L 90.9 15 L 96.6 15 L 96.6 25.2 L 100.4 25.2 L 100.4 26.9 L 90.5 26.9 L 90.5 25.2 Z M 116.1 21.1 C 116.1 22.1 116 22.9 115.6 23.7 C 115.3 24.5 114.9 25.1 114.3 25.6 C 113.8 26.1 113.2 26.5 112.4 26.8 C 111.7 27.1 110.9 27.2 110.2 27.2 C 109.4 27.2 108.6 27.1 107.9 26.8 C 107.2 26.5 106.5 26.1 106 25.6 C 105.4 25.1 105 24.5 104.7 23.7 C 104.3 22.9 104.2 22.1 104.2 21.1 C 104.2 21.1 104.2 20.8 104.2 20.8 C 104.2 19.8 104.3 18.9 104.7 18.2 C 105 17.4 105.4 16.8 106 16.2 C 106.5 15.7 107.2 15.3 107.9 15 C 108.6 14.8 109.4 14.6 110.2 14.6 C 110.9 14.6 111.7 14.8 112.4 15 C 113.1 15.3 113.8 15.7 114.3 16.2 C 114.9 16.8 115.3 17.4 115.6 18.2 C 116 18.9 116.1 19.8 116.1 20.8 C 116.1 20.8 116.1 21.1 116.1 21.1 Z M 110.2 25.4 C 110.7 25.4 111.3 25.3 111.8 25.1 C 112.2 24.9 112.7 24.6 113 24.3 C 113.4 23.9 113.7 23.4 113.9 22.9 C 114.1 22.3 114.2 21.7 114.2 21.1 C 114.2 21.1 114.2 20.8 114.2 20.8 C 114.2 20.1 114.1 19.6 113.9 19 C 113.7 18.5 113.4 18 113 17.6 C 112.7 17.3 112.2 17 111.7 16.7 C 111.2 16.5 110.7 16.4 110.2 16.4 C 109.6 16.4 109.1 16.5 108.6 16.7 C 108.1 17 107.6 17.3 107.3 17.6 C 106.9 18 106.6 18.5 106.4 19 C 106.2 19.6 106.1 20.1 106.1 20.8 C 106.1 20.8 106.1 21.1 106.1 21.1 C 106.1 21.7 106.2 22.3 106.4 22.9 C 106.6 23.4 106.9 23.9 107.3 24.3 C 107.6 24.6 108.1 24.9 108.6 25.1 C 109.1 25.3 109.6 25.4 110.2 25.4 Z M 121.5 26.9 L 119.6 26.9 L 119.6 15 L 121.5 15 L 121.5 17 C 121.5 17 121.75 16.99 121.8 17 C 122.5 15.4 123.8 14.6 125.6 14.6 C 127 14.6 128.1 15.1 128.9 15.9 C 129.7 16.8 130.1 18.1 130.1 19.8 C 130.1 19.78 130.1 26.9 130.1 26.9 L 128.2 26.9 C 128.2 26.9 128.23 20.16 128.2 20.2 C 128.2 18.9 128 18 127.4 17.4 C 126.8 16.7 126.1 16.4 125.1 16.4 C 124 16.4 123.1 16.8 122.4 17.6 C 121.8 18.4 121.5 19.4 121.5 20.7 C 121.46 20.69 121.5 26.9 121.5 26.9 Z M 148.2 25 L 149.7 25 L 149.7 12 L 148.2 12 L 148.2 10.1 C 148.2 10.1 155.04 10.08 155 10.1 C 155.8 10.1 156.5 10.2 157.2 10.4 C 157.8 10.6 158.3 10.9 158.7 11.3 C 159.1 11.7 159.5 12.2 159.7 12.7 C 159.9 13.2 160 13.8 160 14.4 C 160 14.4 160 14.7 160 14.7 C 160 15.2 159.9 15.6 159.8 16 C 159.6 16.4 159.4 16.7 159.2 17 C 158.9 17.3 158.6 17.6 158.3 17.8 C 157.9 18 157.6 18.2 157.2 18.3 C 157.2 18.3 157.2 18.6 157.2 18.6 C 158 18.8 158.6 19.3 159.2 19.9 C 159.7 20.5 160 21.3 160 22.2 C 160 22.2 160 22.5 160 22.5 C 160 23.1 159.9 23.7 159.7 24.2 C 159.5 24.8 159.1 25.2 158.7 25.6 C 158.3 26 157.8 26.3 157.2 26.5 C 156.5 26.8 155.8 26.9 155 26.9 C 155.04 26.88 148.2 26.9 148.2 26.9 L 148.2 25 Z M 151.7 25 C 151.7 25 154.9 25.01 154.9 25 C 155.8 25 156.6 24.8 157.2 24.3 C 157.8 23.8 158.1 23.2 158.1 22.3 C 158.1 22.3 158.1 22.2 158.1 22.2 C 158.1 21.3 157.8 20.7 157.2 20.1 C 156.7 19.6 155.9 19.4 155 19.4 C 154.97 19.39 151.7 19.4 151.7 19.4 L 151.7 25 Z M 151.7 17.5 C 151.7 17.5 154.97 17.52 155 17.5 C 155.9 17.5 156.7 17.3 157.2 16.8 C 157.8 16.3 158.1 15.6 158.1 14.7 C 158.1 14.7 158.1 14.6 158.1 14.6 C 158.1 13.8 157.8 13.1 157.2 12.7 C 156.6 12.2 155.8 12 154.9 12 C 154.9 11.95 151.7 12 151.7 12 L 151.7 17.5 Z M 165 21.5 C 165.1 22.7 165.4 23.6 166.1 24.4 C 166.8 25.1 167.8 25.4 169 25.4 C 169.6 25.4 170.1 25.4 170.5 25.2 C 170.9 25.1 171.2 24.9 171.5 24.7 C 171.8 24.5 172.1 24.2 172.3 23.9 C 172.4 23.6 172.6 23.3 172.7 23 C 172.7 23 174.5 23.5 174.5 23.5 C 174.1 24.6 173.5 25.5 172.6 26.2 C 171.7 26.9 170.5 27.2 169 27.2 C 168.1 27.2 167.3 27.1 166.6 26.8 C 165.9 26.5 165.3 26.1 164.8 25.5 C 164.3 25 163.9 24.3 163.6 23.6 C 163.3 22.8 163.2 22 163.2 21.1 C 163.2 21.1 163.2 20.5 163.2 20.5 C 163.2 19.7 163.3 18.9 163.6 18.2 C 163.9 17.4 164.3 16.8 164.8 16.3 C 165.4 15.8 166 15.4 166.7 15.1 C 167.4 14.8 168.2 14.6 169 14.6 C 170 14.6 170.8 14.8 171.5 15.2 C 172.3 15.5 172.8 16 173.3 16.5 C 173.7 17 174.1 17.6 174.3 18.2 C 174.5 18.9 174.6 19.4 174.6 20 C 174.62 19.97 174.6 21.5 174.6 21.5 C 174.6 21.5 165.02 21.5 165 21.5 Z M 169 16.4 C 168.5 16.4 168 16.5 167.5 16.7 C 167.1 16.8 166.7 17.1 166.3 17.4 C 166 17.7 165.7 18 165.5 18.4 C 165.3 18.9 165.1 19.3 165.1 19.8 C 165.1 19.8 172.8 19.8 172.8 19.8 C 172.7 19.3 172.6 18.8 172.4 18.4 C 172.2 18 171.9 17.6 171.5 17.3 C 171.2 17 170.8 16.8 170.4 16.7 C 169.9 16.5 169.5 16.4 169 16.4 Z M 171.9 10.4 L 169.8 13.2 L 168.1 13.2 L 169.7 10.4 L 171.9 10.4 Z M 180.2 26.9 L 178.3 26.9 L 178.3 15 L 180.2 15 L 180.2 17 C 180.2 17 180.5 16.99 180.5 17 C 181.2 15.4 182.5 14.6 184.3 14.6 C 185.7 14.6 186.8 15.1 187.6 15.9 C 188.4 16.8 188.9 18.1 188.9 19.8 C 188.86 19.78 188.9 26.9 188.9 26.9 L 187 26.9 C 187 26.9 186.98 20.16 187 20.2 C 187 18.9 186.7 18 186.1 17.4 C 185.6 16.7 184.8 16.4 183.9 16.4 C 182.7 16.4 181.8 16.8 181.2 17.6 C 180.5 18.4 180.2 19.4 180.2 20.7 C 180.22 20.69 180.2 26.9 180.2 26.9 Z M 194.4 21.5 C 194.4 22.7 194.8 23.6 195.5 24.4 C 196.2 25.1 197.2 25.4 198.4 25.4 C 198.9 25.4 199.4 25.4 199.8 25.2 C 200.3 25.1 200.6 24.9 200.9 24.7 C 201.2 24.5 201.5 24.2 201.6 23.9 C 201.8 23.6 202 23.3 202.1 23 C 202.1 23 203.9 23.5 203.9 23.5 C 203.5 24.6 202.9 25.5 202 26.2 C 201.1 26.9 199.9 27.2 198.3 27.2 C 197.5 27.2 196.7 27.1 196 26.8 C 195.3 26.5 194.7 26.1 194.2 25.5 C 193.6 25 193.2 24.3 193 23.6 C 192.7 22.8 192.5 22 192.5 21.1 C 192.5 21.1 192.5 20.5 192.5 20.5 C 192.5 19.7 192.7 18.9 193 18.2 C 193.3 17.4 193.7 16.8 194.2 16.3 C 194.7 15.8 195.4 15.4 196.1 15.1 C 196.8 14.8 197.6 14.6 198.4 14.6 C 199.4 14.6 200.2 14.8 200.9 15.2 C 201.6 15.5 202.2 16 202.7 16.5 C 203.1 17 203.5 17.6 203.7 18.2 C 203.9 18.9 204 19.4 204 20 C 204 19.97 204 21.5 204 21.5 C 204 21.5 194.4 21.5 194.4 21.5 Z M 198.4 16.4 C 197.9 16.4 197.4 16.5 196.9 16.7 C 196.5 16.8 196.1 17.1 195.7 17.4 C 195.4 17.7 195.1 18 194.9 18.4 C 194.7 18.9 194.5 19.3 194.4 19.8 C 194.4 19.8 202.1 19.8 202.1 19.8 C 202.1 19.3 202 18.8 201.8 18.4 C 201.5 18 201.3 17.6 200.9 17.3 C 200.6 17 200.2 16.8 199.7 16.7 C 199.3 16.5 198.8 16.4 198.4 16.4 Z M 201.2 10.4 L 199.2 13.2 L 197.5 13.2 L 199.1 10.4 L 201.2 10.4 Z M 207.3 15 L 211.1 15 L 211.1 10.1 L 212.9 10.1 L 212.9 15 L 217.5 15 L 217.5 16.7 L 212.9 16.7 C 212.9 16.7 212.93 24.43 212.9 24.4 C 212.9 24.9 213.1 25.2 213.6 25.2 C 213.58 25.15 217 25.2 217 25.2 L 217 26.9 C 217 26.9 212.9 26.88 212.9 26.9 C 212.4 26.9 211.9 26.7 211.6 26.4 C 211.2 26 211.1 25.6 211.1 25 C 211.06 25.01 211.1 16.7 211.1 16.7 L 207.3 16.7 L 207.3 15 Z M 223.8 21.5 C 223.8 22.7 224.2 23.6 224.9 24.4 C 225.6 25.1 226.5 25.4 227.8 25.4 C 228.3 25.4 228.8 25.4 229.2 25.2 C 229.6 25.1 230 24.9 230.3 24.7 C 230.6 24.5 230.8 24.2 231 23.9 C 231.2 23.6 231.3 23.3 231.5 23 C 231.5 23 233.2 23.5 233.2 23.5 C 232.9 24.6 232.3 25.5 231.4 26.2 C 230.5 26.9 229.2 27.2 227.7 27.2 C 226.9 27.2 226.1 27.1 225.4 26.8 C 224.7 26.5 224 26.1 223.5 25.5 C 223 25 222.6 24.3 222.3 23.6 C 222 22.8 221.9 22 221.9 21.1 C 221.9 21.1 221.9 20.5 221.9 20.5 C 221.9 19.7 222.1 18.9 222.3 18.2 C 222.6 17.4 223.1 16.8 223.6 16.3 C 224.1 15.8 224.7 15.4 225.4 15.1 C 226.2 14.8 226.9 14.6 227.8 14.6 C 228.7 14.6 229.6 14.8 230.3 15.2 C 231 15.5 231.6 16 232 16.5 C 232.5 17 232.8 17.6 233.1 18.2 C 233.3 18.9 233.4 19.4 233.4 20 C 233.38 19.97 233.4 21.5 233.4 21.5 C 233.4 21.5 223.78 21.5 223.8 21.5 Z M 227.8 16.4 C 227.2 16.4 226.7 16.5 226.3 16.7 C 225.8 16.8 225.4 17.1 225.1 17.4 C 224.7 17.7 224.5 18 224.2 18.4 C 224 18.9 223.9 19.3 223.8 19.8 C 223.8 19.8 231.5 19.8 231.5 19.8 C 231.5 19.3 231.3 18.8 231.1 18.4 C 230.9 18 230.6 17.6 230.3 17.3 C 229.9 17 229.6 16.8 229.1 16.7 C 228.7 16.5 228.2 16.4 227.8 16.4 Z M 245.7 24.9 C 245.7 24.9 245.45 24.86 245.4 24.9 C 245.1 25.7 244.5 26.3 243.9 26.6 C 243.2 27 242.5 27.2 241.7 27.2 C 240.9 27.2 240.2 27.1 239.5 26.8 C 238.8 26.6 238.3 26.2 237.8 25.6 C 237.3 25.1 236.9 24.5 236.6 23.7 C 236.3 23 236.1 22.1 236.1 21.1 C 236.1 21.1 236.1 20.7 236.1 20.7 C 236.1 19.8 236.3 18.9 236.6 18.1 C 236.9 17.4 237.3 16.8 237.8 16.2 C 238.3 15.7 238.8 15.3 239.5 15 C 240.2 14.8 240.9 14.6 241.7 14.6 C 242.5 14.6 243.2 14.8 243.9 15.2 C 244.5 15.5 245.1 16.1 245.4 16.8 C 245.45 16.85 245.7 16.8 245.7 16.8 L 245.7 15 L 247.6 15 C 247.6 15 247.61 24.43 247.6 24.4 C 247.6 24.9 247.8 25.2 248.3 25.2 C 248.26 25.15 248.9 25.2 248.9 25.2 L 248.9 26.9 C 248.9 26.9 247.58 26.88 247.6 26.9 C 247 26.9 246.6 26.7 246.3 26.4 C 245.9 26 245.7 25.6 245.7 25 C 245.74 25.01 245.7 24.9 245.7 24.9 Z M 241.9 25.4 C 242.5 25.4 243 25.3 243.4 25.1 C 243.9 24.9 244.3 24.6 244.7 24.2 C 245 23.9 245.3 23.4 245.4 22.9 C 245.6 22.3 245.7 21.7 245.7 21.1 C 245.7 21.1 245.7 20.8 245.7 20.8 C 245.7 20.1 245.6 19.6 245.4 19 C 245.3 18.5 245 18 244.6 17.6 C 244.3 17.3 243.9 17 243.4 16.7 C 242.9 16.5 242.4 16.4 241.9 16.4 C 241.3 16.4 240.8 16.5 240.4 16.7 C 239.9 16.9 239.5 17.2 239.1 17.6 C 238.8 18 238.5 18.4 238.3 19 C 238.2 19.5 238.1 20.1 238.1 20.7 C 238.1 20.7 238.1 21.1 238.1 21.1 C 238.1 22.5 238.4 23.5 239.1 24.3 C 239.8 25.1 240.8 25.4 241.9 25.4 Z M 260.3 15 L 262.2 15 L 262.2 26.9 L 260.3 26.9 L 260.3 24.7 C 260.3 24.7 259.99 24.72 260 24.7 C 259.6 25.5 259.1 26.1 258.5 26.5 C 257.9 27 257.1 27.2 256.1 27.2 C 255.4 27.2 254.8 27.1 254.3 26.9 C 253.7 26.7 253.3 26.4 252.9 25.9 C 252.5 25.5 252.2 25 252 24.3 C 251.7 23.7 251.6 22.9 251.6 22.1 C 251.64 22.08 251.6 15 251.6 15 L 253.5 15 C 253.5 15 253.51 21.84 253.5 21.8 C 253.5 23.1 253.8 24 254.3 24.6 C 254.8 25.2 255.6 25.4 256.6 25.4 C 257.8 25.4 258.7 25.1 259.3 24.3 C 260 23.5 260.3 22.5 260.3 21.2 C 260.28 21.17 260.3 15 260.3 15 Z " stroke="none" fill="#000"/>
  </g>
</svg>