<?xml version="1.0" standalone="no"?>
<!DOCTYPE svg PUBLIC "-//W3C//DTD SVG 1.1//EN" "http://www.w3.org/Graphics/SVG/1.1/DTD/svg11.dtd">
<svg xmlns="http://www.w3.org/2000/svg" version="1.1" width="402px" height="73.4px" viewBox="0 0 402 73.4">
  <desc>Souvent triqu s, les int rieurs de cabine sont sombre et peu ergonomiques En s inspirant d int rieurs d clisonn s e</desc>
  <defs/>
  <g id="Polygon17975">
    <path d="M 0.7 49.6 C 0.7 47.6 2.1 46.3 3.6 46.3 C 4.6 46.3 5.6 46.9 6.1 48 C 6.07 47.98 6.1 43.3 6.1 43.3 L 6.6 43.3 L 6.6 52.8 L 6.2 52.8 L 6.1 51.2 C 6.1 51.2 6.1 51.19 6.1 51.2 C 5.6 52.4 4.6 52.9 3.6 52.9 C 2.1 52.9 0.7 51.6 0.7 49.6 Z M 6.1 49.6 C 6.1 47.9 5 46.8 3.6 46.8 C 2.3 46.8 1.2 47.9 1.2 49.6 C 1.2 51.3 2.3 52.4 3.6 52.4 C 5 52.4 6.1 51.3 6.1 49.6 Z M 14 49.8 C 14 49.8 8.9 49.8 8.9 49.8 C 9 51.4 10 52.4 11.5 52.4 C 12.2 52.4 13.1 52.2 13.7 51.5 C 13.7 51.5 13.7 52.1 13.7 52.1 C 13.1 52.6 12.3 52.9 11.4 52.9 C 9.7 52.9 8.4 51.6 8.4 49.6 C 8.4 47.6 9.8 46.3 11.4 46.3 C 12.8 46.3 14 47.4 14 49.5 C 14 49.6 14 49.7 14 49.8 Z M 13.5 49.3 C 13.5 47.6 12.4 46.8 11.4 46.8 C 10.2 46.8 9 47.8 8.9 49.3 C 8.9 49.3 13.5 49.3 13.5 49.3 Z M 19.3 46.4 L 19.7 46.4 C 19.7 46.4 19.73 48.04 19.7 48 C 20.2 46.9 21.2 46.3 22.2 46.3 C 23.7 46.3 25.1 47.6 25.1 49.6 C 25.1 51.6 23.7 52.9 22.2 52.9 C 21.2 52.9 20.2 52.3 19.8 51.3 C 19.76 51.25 19.8 55.4 19.8 55.4 L 19.3 55.4 L 19.3 46.4 Z M 24.6 49.6 C 24.6 47.9 23.5 46.8 22.2 46.8 C 20.9 46.8 19.7 47.9 19.7 49.6 C 19.7 51.3 20.9 52.4 22.2 52.4 C 23.5 52.4 24.6 51.3 24.6 49.6 Z M 27 46.4 L 27.4 46.4 L 27.4 47.6 C 27.4 47.6 27.44 47.62 27.4 47.6 C 27.8 46.7 28.7 46.4 29.3 46.4 C 29.5 46.4 29.6 46.4 29.7 46.4 C 29.7 46.4 29.7 46.9 29.7 46.9 C 29.6 46.9 29.5 46.9 29.3 46.9 C 28.4 46.9 27.5 47.5 27.5 48.8 C 27.48 48.77 27.5 52.8 27.5 52.8 L 27 52.8 L 27 46.4 Z M 35.8 49.8 C 35.8 49.8 30.8 49.8 30.8 49.8 C 30.9 51.4 31.9 52.4 33.3 52.4 C 34.1 52.4 34.9 52.2 35.6 51.5 C 35.6 51.5 35.6 52.1 35.6 52.1 C 34.9 52.6 34.2 52.9 33.3 52.9 C 31.5 52.9 30.3 51.6 30.3 49.6 C 30.3 47.6 31.7 46.3 33.2 46.3 C 34.7 46.3 35.9 47.4 35.9 49.5 C 35.9 49.6 35.9 49.7 35.8 49.8 Z M 35.4 49.3 C 35.3 47.6 34.3 46.8 33.2 46.8 C 32 46.8 30.9 47.8 30.8 49.3 C 30.8 49.3 35.4 49.3 35.4 49.3 Z M 42.5 48.6 C 42.45 48.56 42.5 52.8 42.5 52.8 L 42 52.8 C 42 52.8 41.95 48.77 42 48.8 C 42 47.5 41.3 46.8 40.1 46.8 C 39.1 46.8 38.2 47.5 38.2 48.7 C 38.17 48.71 38.2 52.8 38.2 52.8 L 37.7 52.8 L 37.7 46.4 L 38.1 46.4 L 38.1 47.6 C 38.1 47.6 38.13 47.56 38.1 47.6 C 38.5 46.8 39.3 46.3 40.2 46.3 C 41.6 46.3 42.5 47.2 42.5 48.6 Z M 44.2 49.6 C 44.2 47.6 45.6 46.3 47.1 46.3 C 48.1 46.3 49.1 46.9 49.6 48 C 49.58 47.98 49.6 43.3 49.6 43.3 L 50.1 43.3 L 50.1 52.8 L 49.7 52.8 L 49.6 51.2 C 49.6 51.2 49.61 51.19 49.6 51.2 C 49.2 52.4 48.1 52.9 47.1 52.9 C 45.6 52.9 44.2 51.6 44.2 49.6 Z M 49.6 49.6 C 49.6 47.9 48.5 46.8 47.2 46.8 C 45.8 46.8 44.7 47.9 44.7 49.6 C 44.7 51.3 45.8 52.4 47.2 52.4 C 48.5 52.4 49.6 51.3 49.6 49.6 Z M 52.4 46.4 L 52.8 46.4 L 52.8 47.6 C 52.8 47.6 52.83 47.62 52.8 47.6 C 53.2 46.7 54.1 46.4 54.7 46.4 C 54.9 46.4 55 46.4 55.1 46.4 C 55.1 46.4 55.1 46.9 55.1 46.9 C 55 46.9 54.9 46.9 54.7 46.9 C 53.8 46.9 52.9 47.5 52.9 48.8 C 52.87 48.77 52.9 52.8 52.9 52.8 L 52.4 52.8 L 52.4 46.4 Z M 61.2 49.8 C 61.2 49.8 56.2 49.8 56.2 49.8 C 56.3 51.4 57.3 52.4 58.7 52.4 C 59.5 52.4 60.3 52.2 61 51.5 C 61 51.5 61 52.1 61 52.1 C 60.3 52.6 59.5 52.9 58.7 52.9 C 56.9 52.9 55.7 51.6 55.7 49.6 C 55.7 47.6 57.1 46.3 58.6 46.3 C 60 46.3 61.3 47.4 61.3 49.5 C 61.3 49.6 61.2 49.7 61.2 49.8 Z M 60.8 49.3 C 60.7 47.6 59.7 46.8 58.6 46.8 C 57.4 46.8 56.3 47.8 56.2 49.3 C 56.2 49.3 60.8 49.3 60.8 49.3 Z M 65.5 46.4 L 66 46.4 L 68.1 52.2 L 68.2 52.2 L 70.3 46.4 L 70.8 46.4 L 68.4 52.8 L 67.9 52.8 L 65.5 46.4 Z M 72.2 44.1 C 72.2 43.9 72.4 43.7 72.6 43.7 C 72.8 43.7 73 43.9 73 44.1 C 73 44.3 72.8 44.5 72.6 44.5 C 72.4 44.5 72.2 44.3 72.2 44.1 Z M 72.3 46.4 L 72.8 46.4 L 72.8 52.8 L 72.3 52.8 L 72.3 46.4 Z M 80.3 49.8 C 80.3 49.8 75.2 49.8 75.2 49.8 C 75.3 51.4 76.3 52.4 77.8 52.4 C 78.6 52.4 79.4 52.2 80.1 51.5 C 80.1 51.5 80.1 52.1 80.1 52.1 C 79.4 52.6 78.6 52.9 77.8 52.9 C 76 52.9 74.7 51.6 74.7 49.6 C 74.7 47.6 76.1 46.3 77.7 46.3 C 79.1 46.3 80.3 47.4 80.3 49.5 C 80.3 49.6 80.3 49.7 80.3 49.8 Z M 79.8 49.3 C 79.8 47.6 78.8 46.8 77.7 46.8 C 76.5 46.8 75.3 47.8 75.2 49.3 C 75.2 49.3 79.8 49.3 79.8 49.3 Z M 89.1 46.9 C 89.1 46.9 89.1 47.4 89.1 47.4 C 88.6 47.1 88 46.8 87.3 46.8 C 86.3 46.8 85.7 47.3 85.7 48 C 85.7 48.7 86.4 49 87.4 49.3 C 88.4 49.7 89.4 50 89.4 51.1 C 89.4 52.2 88.6 52.9 87.3 52.9 C 86.5 52.9 85.7 52.7 85.1 52.2 C 85.1 52.2 85.1 51.5 85.1 51.5 C 85.7 52.1 86.4 52.4 87.3 52.4 C 88.3 52.4 88.9 51.9 88.9 51.1 C 88.9 50.4 88.2 50.1 87.2 49.7 C 86.1 49.4 85.2 49.1 85.2 48 C 85.2 47 86.1 46.3 87.3 46.3 C 88 46.3 88.6 46.5 89.1 46.9 Z M 96.3 49.8 C 96.3 49.8 91.2 49.8 91.2 49.8 C 91.3 51.4 92.4 52.4 93.8 52.4 C 94.6 52.4 95.4 52.2 96.1 51.5 C 96.1 51.5 96.1 52.1 96.1 52.1 C 95.4 52.6 94.6 52.9 93.8 52.9 C 92 52.9 90.7 51.6 90.7 49.6 C 90.7 47.6 92.2 46.3 93.7 46.3 C 95.1 46.3 96.3 47.4 96.3 49.5 C 96.3 49.6 96.3 49.7 96.3 49.8 Z M 95.8 49.3 C 95.8 47.6 94.8 46.8 93.7 46.8 C 92.5 46.8 91.4 47.8 91.3 49.3 C 91.3 49.3 95.8 49.3 95.8 49.3 Z M 98.2 43.3 L 98.7 43.3 L 98.7 52.8 L 98.2 52.8 L 98.2 43.3 Z M 100.5 49.6 C 100.5 47.7 101.9 46.3 103.6 46.3 C 105.2 46.3 106.6 47.7 106.6 49.6 C 106.6 51.6 105.2 52.9 103.6 52.9 C 101.9 52.9 100.5 51.6 100.5 49.6 Z M 106.1 49.6 C 106.1 47.8 104.9 46.8 103.6 46.8 C 102.3 46.8 101 47.8 101 49.6 C 101 51.4 102.3 52.4 103.6 52.4 C 104.9 52.4 106.1 51.4 106.1 49.6 Z M 113.2 48.6 C 113.22 48.56 113.2 52.8 113.2 52.8 L 112.7 52.8 C 112.7 52.8 112.71 48.77 112.7 48.8 C 112.7 47.5 112.1 46.8 110.9 46.8 C 109.8 46.8 108.9 47.5 108.9 48.7 C 108.93 48.71 108.9 52.8 108.9 52.8 L 108.4 52.8 L 108.4 46.4 L 108.8 46.4 L 108.9 47.6 C 108.9 47.6 108.9 47.56 108.9 47.6 C 109.2 46.8 110 46.3 111 46.3 C 112.3 46.3 113.2 47.2 113.2 48.6 Z M 118.9 43.3 L 119.4 43.3 L 119.4 52.8 L 118.9 52.8 L 118.9 43.3 Z M 126.8 49.8 C 126.8 49.8 121.8 49.8 121.8 49.8 C 121.9 51.4 122.9 52.4 124.4 52.4 C 125.1 52.4 125.9 52.2 126.6 51.5 C 126.6 51.5 126.6 52.1 126.6 52.1 C 125.9 52.6 125.2 52.9 124.3 52.9 C 122.5 52.9 121.3 51.6 121.3 49.6 C 121.3 47.6 122.7 46.3 124.2 46.3 C 125.7 46.3 126.9 47.4 126.9 49.5 C 126.9 49.6 126.9 49.7 126.8 49.8 Z M 126.4 49.3 C 126.3 47.6 125.3 46.8 124.2 46.8 C 123 46.8 121.9 47.8 121.8 49.3 C 121.8 49.3 126.4 49.3 126.4 49.3 Z M 132.2 46.9 C 132.2 46.9 132.2 47.4 132.2 47.4 C 131.7 47.1 131.1 46.8 130.4 46.8 C 129.5 46.8 128.8 47.3 128.8 48 C 128.8 48.7 129.5 49 130.5 49.3 C 131.5 49.7 132.5 50 132.5 51.1 C 132.5 52.2 131.7 52.9 130.4 52.9 C 129.6 52.9 128.9 52.7 128.2 52.2 C 128.2 52.2 128.2 51.5 128.2 51.5 C 128.8 52.1 129.5 52.4 130.4 52.4 C 131.4 52.4 132 51.9 132 51.1 C 132 50.4 131.3 50.1 130.3 49.7 C 129.2 49.4 128.3 49.1 128.3 48 C 128.3 47 129.2 46.3 130.4 46.3 C 131.1 46.3 131.7 46.5 132.2 46.9 Z M 145.5 48.5 C 145.48 48.48 145.5 52.8 145.5 52.8 L 145 52.8 C 145 52.8 144.98 48.53 145 48.5 C 145 47.5 144.5 46.8 143.5 46.8 C 142.5 46.8 141.9 47.6 141.9 48.5 C 141.87 48.54 141.9 52.8 141.9 52.8 L 141.4 52.8 C 141.4 52.8 141.37 48.53 141.4 48.5 C 141.4 47.5 140.9 46.8 139.9 46.8 C 138.8 46.8 138.3 47.6 138.3 48.6 C 138.26 48.56 138.3 52.8 138.3 52.8 L 137.8 52.8 L 137.8 46.4 L 138.2 46.4 L 138.2 47.5 C 138.2 47.5 138.22 47.48 138.2 47.5 C 138.5 46.8 139.1 46.3 139.9 46.3 C 140.9 46.3 141.5 46.8 141.7 47.6 C 142 46.8 142.6 46.3 143.6 46.3 C 144.8 46.3 145.5 47.2 145.5 48.5 Z M 147.2 49.6 C 147.2 47.7 148.6 46.3 150.3 46.3 C 152 46.3 153.3 47.7 153.3 49.6 C 153.3 51.6 152 52.9 150.3 52.9 C 148.6 52.9 147.2 51.6 147.2 49.6 Z M 152.8 49.6 C 152.8 47.8 151.6 46.8 150.3 46.8 C 149 46.8 147.7 47.8 147.7 49.6 C 147.7 51.4 149 52.4 150.3 52.4 C 151.6 52.4 152.8 51.4 152.8 49.6 Z M 162.9 48.5 C 162.87 48.48 162.9 52.8 162.9 52.8 L 162.4 52.8 C 162.4 52.8 162.37 48.53 162.4 48.5 C 162.4 47.5 161.9 46.8 160.9 46.8 C 159.9 46.8 159.3 47.6 159.3 48.5 C 159.26 48.54 159.3 52.8 159.3 52.8 L 158.8 52.8 C 158.8 52.8 158.76 48.53 158.8 48.5 C 158.8 47.5 158.3 46.8 157.3 46.8 C 156.2 46.8 155.6 47.6 155.6 48.6 C 155.65 48.56 155.6 52.8 155.6 52.8 L 155.1 52.8 L 155.1 46.4 L 155.5 46.4 L 155.6 47.5 C 155.6 47.5 155.61 47.48 155.6 47.5 C 155.9 46.8 156.5 46.3 157.3 46.3 C 158.3 46.3 158.9 46.8 159.1 47.6 C 159.4 46.8 160 46.3 160.9 46.3 C 162.2 46.3 162.9 47.2 162.9 48.5 Z M 170.2 49.8 C 170.2 49.8 165.1 49.8 165.1 49.8 C 165.2 51.4 166.3 52.4 167.7 52.4 C 168.5 52.4 169.3 52.2 170 51.5 C 170 51.5 170 52.1 170 52.1 C 169.3 52.6 168.5 52.9 167.7 52.9 C 165.9 52.9 164.6 51.6 164.6 49.6 C 164.6 47.6 166.1 46.3 167.6 46.3 C 169 46.3 170.2 47.4 170.2 49.5 C 170.2 49.6 170.2 49.7 170.2 49.8 Z M 169.7 49.3 C 169.7 47.6 168.7 46.8 167.6 46.8 C 166.4 46.8 165.3 47.8 165.2 49.3 C 165.2 49.3 169.7 49.3 169.7 49.3 Z M 176.8 48.6 C 176.8 48.56 176.8 52.8 176.8 52.8 L 176.3 52.8 C 176.3 52.8 176.3 48.77 176.3 48.8 C 176.3 47.5 175.6 46.8 174.5 46.8 C 173.4 46.8 172.5 47.5 172.5 48.7 C 172.52 48.71 172.5 52.8 172.5 52.8 L 172 52.8 L 172 46.4 L 172.4 46.4 L 172.5 47.6 C 172.5 47.6 172.48 47.56 172.5 47.6 C 172.8 46.8 173.6 46.3 174.6 46.3 C 175.9 46.3 176.8 47.2 176.8 48.6 Z M 179.6 46.4 L 181.5 46.4 L 181.5 46.9 L 179.6 46.9 C 179.6 46.9 179.62 50.8 179.6 50.8 C 179.6 52 180.3 52.4 181.2 52.4 C 181.3 52.4 181.5 52.4 181.7 52.4 C 181.7 52.4 181.7 52.8 181.7 52.8 C 181.6 52.8 181.4 52.9 181.1 52.9 C 179.9 52.9 179.1 52.2 179.1 50.8 C 179.12 50.82 179.1 46.9 179.1 46.9 L 178.1 46.9 L 178.1 46.4 L 179.1 46.4 L 179.1 44.9 L 179.6 44.9 L 179.6 46.4 Z M 186.6 46.9 C 186.6 46.9 186.6 47.4 186.6 47.4 C 186.1 47.1 185.5 46.8 184.8 46.8 C 183.8 46.8 183.2 47.3 183.2 48 C 183.2 48.7 183.9 49 184.9 49.3 C 185.9 49.7 186.9 50 186.9 51.1 C 186.9 52.2 186.1 52.9 184.8 52.9 C 184 52.9 183.2 52.7 182.6 52.2 C 182.6 52.2 182.6 51.5 182.6 51.5 C 183.2 52.1 183.9 52.4 184.8 52.4 C 185.8 52.4 186.4 51.9 186.4 51.1 C 186.4 50.4 185.7 50.1 184.7 49.7 C 183.6 49.4 182.7 49.1 182.7 48 C 182.7 47 183.6 46.3 184.8 46.3 C 185.5 46.3 186.1 46.5 186.6 46.9 Z M 197.1 48 C 197.1 48.04 197.2 46.4 197.2 46.4 L 197.6 46.4 L 197.6 55.4 L 197.1 55.4 C 197.1 55.4 197.06 51.24 197.1 51.2 C 196.6 52.3 195.6 52.9 194.6 52.9 C 193.1 52.9 191.7 51.6 191.7 49.6 C 191.7 47.6 193.1 46.3 194.6 46.3 C 195.6 46.3 196.6 46.9 197.1 48 Z M 192.2 49.6 C 192.2 51.3 193.3 52.4 194.6 52.4 C 196 52.4 197.1 51.3 197.1 49.6 C 197.1 47.9 196 46.8 194.6 46.8 C 193.3 46.8 192.2 47.9 192.2 49.6 Z M 199.8 50.5 C 199.76 50.48 199.8 46.4 199.8 46.4 L 200.3 46.4 C 200.3 46.4 200.26 50.51 200.3 50.5 C 200.3 51.7 201 52.4 202.1 52.4 C 203.3 52.4 204.1 51.7 204.1 50.5 C 204.06 50.5 204.1 46.4 204.1 46.4 L 204.6 46.4 C 204.6 46.4 204.56 50.47 204.6 50.5 C 204.6 51.9 203.6 52.9 202.1 52.9 C 200.7 52.9 199.8 51.9 199.8 50.5 Z M 206.6 44.1 C 206.6 43.9 206.8 43.7 207 43.7 C 207.3 43.7 207.5 43.9 207.5 44.1 C 207.5 44.3 207.3 44.5 207 44.5 C 206.8 44.5 206.6 44.3 206.6 44.1 Z M 206.8 46.4 L 207.3 46.4 L 207.3 52.8 L 206.8 52.8 L 206.8 46.4 Z M 213.1 46.4 L 213.5 46.4 L 213.5 47.6 C 213.5 47.6 213.55 47.62 213.5 47.6 C 213.9 46.7 214.8 46.4 215.4 46.4 C 215.6 46.4 215.7 46.4 215.8 46.4 C 215.8 46.4 215.8 46.9 215.8 46.9 C 215.7 46.9 215.6 46.9 215.4 46.9 C 214.5 46.9 213.6 47.5 213.6 48.8 C 213.58 48.77 213.6 52.8 213.6 52.8 L 213.1 52.8 L 213.1 46.4 Z M 218.2 55.4 L 217.7 55.4 L 218.8 52.5 L 216.4 46.4 L 217 46.4 L 219.1 51.9 L 219.1 51.9 L 221.2 46.4 L 221.7 46.4 L 218.2 55.4 Z M 223.9 46.4 L 225.8 46.4 L 225.8 46.9 L 223.9 46.9 C 223.9 46.9 223.89 50.8 223.9 50.8 C 223.9 52 224.5 52.4 225.4 52.4 C 225.6 52.4 225.8 52.4 226 52.4 C 226 52.4 226 52.8 226 52.8 C 225.9 52.8 225.6 52.9 225.4 52.9 C 224.2 52.9 223.4 52.2 223.4 50.8 C 223.39 50.82 223.4 46.9 223.4 46.9 L 222.4 46.9 L 222.4 46.4 L 223.4 46.4 L 223.4 44.9 L 223.9 44.9 L 223.9 46.4 Z M 227.8 47.4 C 227.8 47.4 227.84 47.44 227.8 47.4 C 228.2 46.7 229 46.3 229.9 46.3 C 231.2 46.3 232.1 47.1 232.1 48.6 C 232.11 48.58 232.1 52.8 232.1 52.8 L 231.6 52.8 C 231.6 52.8 231.61 48.76 231.6 48.8 C 231.6 47.5 231 46.8 229.8 46.8 C 228.8 46.8 227.8 47.4 227.8 48.6 C 227.83 48.65 227.8 52.8 227.8 52.8 L 227.3 52.8 L 227.3 43.3 L 227.8 43.3 L 227.8 47.4 Z M 242 48.5 C 242.05 48.48 242 52.8 242 52.8 L 241.5 52.8 C 241.5 52.8 241.54 48.53 241.5 48.5 C 241.5 47.5 241.1 46.8 240.1 46.8 C 239 46.8 238.4 47.6 238.4 48.5 C 238.43 48.54 238.4 52.8 238.4 52.8 L 237.9 52.8 C 237.9 52.8 237.93 48.53 237.9 48.5 C 237.9 47.5 237.4 46.8 236.4 46.8 C 235.4 46.8 234.8 47.6 234.8 48.6 C 234.82 48.56 234.8 52.8 234.8 52.8 L 234.3 52.8 L 234.3 46.4 L 234.7 46.4 L 234.8 47.5 C 234.8 47.5 234.79 47.48 234.8 47.5 C 235.1 46.8 235.7 46.3 236.5 46.3 C 237.5 46.3 238 46.8 238.3 47.6 C 238.6 46.8 239.2 46.3 240.1 46.3 C 241.4 46.3 242 47.2 242 48.5 Z M 249.4 49.8 C 249.4 49.8 244.3 49.8 244.3 49.8 C 244.4 51.4 245.4 52.4 246.9 52.4 C 247.6 52.4 248.5 52.2 249.1 51.5 C 249.1 51.5 249.1 52.1 249.1 52.1 C 248.5 52.6 247.7 52.9 246.8 52.9 C 245.1 52.9 243.8 51.6 243.8 49.6 C 243.8 47.6 245.2 46.3 246.8 46.3 C 248.2 46.3 249.4 47.4 249.4 49.5 C 249.4 49.6 249.4 49.7 249.4 49.8 Z M 248.9 49.3 C 248.9 47.6 247.8 46.8 246.8 46.8 C 245.6 46.8 244.4 47.8 244.3 49.3 C 244.3 49.3 248.9 49.3 248.9 49.3 Z M 256 48.6 C 255.98 48.56 256 52.8 256 52.8 L 255.5 52.8 C 255.5 52.8 255.48 48.77 255.5 48.8 C 255.5 47.5 254.8 46.8 253.7 46.8 C 252.6 46.8 251.7 47.5 251.7 48.7 C 251.69 48.71 251.7 52.8 251.7 52.8 L 251.2 52.8 L 251.2 46.4 L 251.6 46.4 L 251.6 47.6 C 251.6 47.6 251.66 47.56 251.7 47.6 C 252 46.8 252.8 46.3 253.7 46.3 C 255.1 46.3 256 47.2 256 48.6 Z M 258.8 46.4 L 260.7 46.4 L 260.7 46.9 L 258.8 46.9 C 258.8 46.9 258.8 50.8 258.8 50.8 C 258.8 52 259.4 52.4 260.3 52.4 C 260.5 52.4 260.7 52.4 260.9 52.4 C 260.9 52.4 260.9 52.8 260.9 52.8 C 260.8 52.8 260.5 52.9 260.3 52.9 C 259.1 52.9 258.3 52.2 258.3 50.8 C 258.3 50.82 258.3 46.9 258.3 46.9 L 257.3 46.9 L 257.3 46.4 L 258.3 46.4 L 258.3 44.9 L 258.8 44.9 L 258.8 46.4 Z M 265.7 43.3 L 266.2 43.3 L 266.2 52.8 L 265.7 52.8 L 265.7 43.3 Z M 268 49.6 C 268 47.6 269.4 46.3 270.9 46.3 C 272 46.3 273 46.9 273.4 48 C 273.44 48.02 273.5 46.4 273.5 46.4 L 273.9 46.4 L 273.9 52.8 L 273.5 52.8 C 273.5 52.8 273.44 51.2 273.4 51.2 C 273 52.4 272 52.9 270.9 52.9 C 269.4 52.9 268 51.6 268 49.6 Z M 273.4 49.6 C 273.4 47.9 272.3 46.8 271 46.8 C 269.7 46.8 268.5 47.9 268.5 49.6 C 268.5 51.3 269.7 52.4 271 52.4 C 272.3 52.4 273.4 51.3 273.4 49.6 Z M 279.5 44.1 C 279.5 43.9 279.7 43.7 280 43.7 C 280.2 43.7 280.3 43.9 280.3 44.1 C 280.3 44.3 280.2 44.5 280 44.5 C 279.7 44.5 279.5 44.3 279.5 44.1 Z M 279.7 52.1 C 279.7 52.12 279.7 46.4 279.7 46.4 L 280.2 46.4 C 280.2 46.4 280.21 52.13 280.2 52.1 C 280.2 53.6 279.9 54.5 279.2 55.4 C 279.2 55.4 278.6 55.4 278.6 55.4 C 279.3 54.6 279.7 53.6 279.7 52.1 Z M 282.1 49.6 C 282.1 47.7 283.4 46.3 285.1 46.3 C 286.8 46.3 288.1 47.7 288.1 49.6 C 288.1 51.6 286.8 52.9 285.1 52.9 C 283.4 52.9 282.1 51.6 282.1 49.6 Z M 287.6 49.6 C 287.6 47.8 286.4 46.8 285.1 46.8 C 283.8 46.8 282.6 47.8 282.6 49.6 C 282.6 51.4 283.8 52.4 285.1 52.4 C 286.4 52.4 287.6 51.4 287.6 49.6 Z M 289.9 50.5 C 289.89 50.48 289.9 46.4 289.9 46.4 L 290.4 46.4 C 290.4 46.4 290.39 50.51 290.4 50.5 C 290.4 51.7 291.1 52.4 292.3 52.4 C 293.4 52.4 294.2 51.7 294.2 50.5 C 294.19 50.5 294.2 46.4 294.2 46.4 L 294.7 46.4 C 294.7 46.4 294.69 50.47 294.7 50.5 C 294.7 51.9 293.8 52.9 292.3 52.9 C 290.8 52.9 289.9 51.9 289.9 50.5 Z M 296.9 46.4 L 297.3 46.4 L 297.3 47.6 C 297.3 47.6 297.35 47.62 297.4 47.6 C 297.7 46.7 298.6 46.4 299.2 46.4 C 299.4 46.4 299.5 46.4 299.6 46.4 C 299.6 46.4 299.6 46.9 299.6 46.9 C 299.5 46.9 299.4 46.9 299.2 46.9 C 298.3 46.9 297.4 47.5 297.4 48.8 C 297.39 48.77 297.4 52.8 297.4 52.8 L 296.9 52.8 L 296.9 46.4 Z M 305.7 48.6 C 305.74 48.56 305.7 52.8 305.7 52.8 L 305.2 52.8 C 305.2 52.8 305.24 48.77 305.2 48.8 C 305.2 47.5 304.6 46.8 303.4 46.8 C 302.3 46.8 301.5 47.5 301.5 48.7 C 301.46 48.71 301.5 52.8 301.5 52.8 L 301 52.8 L 301 46.4 L 301.3 46.4 L 301.4 47.6 C 301.4 47.6 301.42 47.56 301.4 47.6 C 301.8 46.8 302.5 46.3 303.5 46.3 C 304.9 46.3 305.7 47.2 305.7 48.6 Z M 310.2 45.3 L 309.7 45.3 L 311.2 43.4 L 311.8 43.4 L 310.2 45.3 Z M 313 49.8 C 313 49.8 308 49.8 308 49.8 C 308.1 51.4 309.1 52.4 310.6 52.4 C 311.3 52.4 312.1 52.2 312.8 51.5 C 312.8 51.5 312.8 52.1 312.8 52.1 C 312.1 52.6 311.4 52.9 310.5 52.9 C 308.7 52.9 307.5 51.6 307.5 49.6 C 307.5 47.6 308.9 46.3 310.4 46.3 C 311.9 46.3 313.1 47.4 313.1 49.5 C 313.1 49.6 313.1 49.7 313 49.8 Z M 312.6 49.3 C 312.5 47.6 311.5 46.8 310.4 46.8 C 309.2 46.8 308.1 47.8 308 49.3 C 308 49.3 312.6 49.3 312.6 49.3 Z M 320 49.8 C 320 49.8 314.9 49.8 314.9 49.8 C 315 51.4 316 52.4 317.5 52.4 C 318.3 52.4 319.1 52.2 319.8 51.5 C 319.8 51.5 319.8 52.1 319.8 52.1 C 319.1 52.6 318.3 52.9 317.5 52.9 C 315.7 52.9 314.4 51.6 314.4 49.6 C 314.4 47.6 315.8 46.3 317.4 46.3 C 318.8 46.3 320 47.4 320 49.5 C 320 49.6 320 49.7 320 49.8 Z M 319.5 49.3 C 319.5 47.6 318.5 46.8 317.4 46.8 C 316.2 46.8 315.1 47.8 314.9 49.3 C 314.9 49.3 319.5 49.3 319.5 49.3 Z M 321.6 52.4 C 321.6 52.1 321.8 51.9 322.1 51.9 C 322.3 51.9 322.5 52.1 322.5 52.4 C 322.5 52.6 322.3 52.8 322.1 52.8 C 321.8 52.8 321.6 52.6 321.6 52.4 Z " stroke="none" fill="#000"/>
  </g>
  <g id="Polygon17974">
    <path d="M 1.2 28.9 L 1.7 28.9 L 1.7 38.4 L 1.2 38.4 L 1.2 28.9 Z M 9.1 35.4 C 9.1 35.4 4.1 35.4 4.1 35.4 C 4.1 37 5.2 38 6.6 38 C 7.4 38 8.2 37.8 8.9 37.1 C 8.9 37.1 8.9 37.7 8.9 37.7 C 8.2 38.2 7.4 38.5 6.6 38.5 C 4.8 38.5 3.6 37.2 3.6 35.2 C 3.6 33.2 5 31.9 6.5 31.9 C 7.9 31.9 9.1 33 9.1 35.1 C 9.1 35.2 9.1 35.3 9.1 35.4 Z M 8.6 34.9 C 8.6 33.2 7.6 32.4 6.5 32.4 C 5.3 32.4 4.2 33.4 4.1 34.9 C 4.1 34.9 8.6 34.9 8.6 34.9 Z M 14.9 32 L 16.8 32 L 16.8 32.5 L 14.9 32.5 C 14.9 32.5 14.86 36.4 14.9 36.4 C 14.9 37.6 15.5 38 16.4 38 C 16.6 38 16.7 38 16.9 38 C 16.9 38 16.9 38.4 16.9 38.4 C 16.9 38.4 16.6 38.5 16.3 38.5 C 15.2 38.5 14.4 37.8 14.4 36.4 C 14.36 36.42 14.4 32.5 14.4 32.5 L 13.4 32.5 L 13.4 32 L 14.4 32 L 14.4 30.5 L 14.9 30.5 L 14.9 32 Z M 18.3 32 L 18.7 32 L 18.8 33.2 C 18.8 33.2 18.76 33.22 18.8 33.2 C 19.1 32.3 20 32 20.6 32 C 20.8 32 20.9 32 21 32 C 21 32 21 32.5 21 32.5 C 20.9 32.5 20.8 32.5 20.6 32.5 C 19.7 32.5 18.8 33.1 18.8 34.4 C 18.8 34.37 18.8 38.4 18.8 38.4 L 18.3 38.4 L 18.3 32 Z M 21.6 35.2 C 21.6 33.3 23 31.9 24.6 31.9 C 26.3 31.9 27.7 33.3 27.7 35.2 C 27.7 37.2 26.3 38.5 24.6 38.5 C 23 38.5 21.6 37.2 21.6 35.2 Z M 27.2 35.2 C 27.2 33.4 25.9 32.4 24.6 32.4 C 23.3 32.4 22.1 33.4 22.1 35.2 C 22.1 37 23.3 38 24.6 38 C 25.9 38 27.2 37 27.2 35.2 Z M 29.4 36.1 C 29.42 36.08 29.4 32 29.4 32 L 29.9 32 C 29.9 32 29.92 36.11 29.9 36.1 C 29.9 37.3 30.7 38 31.8 38 C 33 38 33.7 37.3 33.7 36.1 C 33.72 36.1 33.7 32 33.7 32 L 34.2 32 C 34.2 32 34.22 36.07 34.2 36.1 C 34.2 37.5 33.3 38.5 31.8 38.5 C 30.3 38.5 29.4 37.5 29.4 36.1 Z M 35.7 32 L 36.2 32 L 38.3 37.8 L 38.3 37.8 L 40.4 32 L 40.9 32 L 38.6 38.4 L 38 38.4 L 35.7 32 Z M 47.4 35.4 C 47.4 35.4 42.3 35.4 42.3 35.4 C 42.4 37 43.5 38 44.9 38 C 45.7 38 46.5 37.8 47.2 37.1 C 47.2 37.1 47.2 37.7 47.2 37.7 C 46.5 38.2 45.7 38.5 44.9 38.5 C 43.1 38.5 41.8 37.2 41.8 35.2 C 41.8 33.2 43.3 31.9 44.8 31.9 C 46.2 31.9 47.4 33 47.4 35.1 C 47.4 35.2 47.4 35.3 47.4 35.4 Z M 46.9 34.9 C 46.9 33.2 45.9 32.4 44.8 32.4 C 43.6 32.4 42.5 33.4 42.4 34.9 C 42.4 34.9 46.9 34.9 46.9 34.9 Z M 49.2 32 L 49.6 32 L 49.7 33.2 C 49.7 33.2 49.69 33.22 49.7 33.2 C 50.1 32.3 50.9 32 51.6 32 C 51.7 32 51.8 32 52 32 C 52 32 52 32.5 52 32.5 C 51.8 32.5 51.7 32.5 51.6 32.5 C 50.7 32.5 49.7 33.1 49.7 34.4 C 49.72 34.37 49.7 38.4 49.7 38.4 L 49.2 38.4 L 49.2 32 Z M 55.9 35.2 C 55.9 33.2 57.3 31.9 58.8 31.9 C 59.8 31.9 60.9 32.5 61.3 33.6 C 61.32 33.62 61.4 32 61.4 32 L 61.8 32 L 61.8 38.4 L 61.4 38.4 C 61.4 38.4 61.32 36.8 61.3 36.8 C 60.9 38 59.8 38.5 58.8 38.5 C 57.3 38.5 55.9 37.2 55.9 35.2 Z M 61.3 35.2 C 61.3 33.5 60.2 32.4 58.9 32.4 C 57.5 32.4 56.4 33.5 56.4 35.2 C 56.4 36.9 57.6 38 58.9 38 C 60.2 38 61.3 36.9 61.3 35.2 Z M 64 36.1 C 63.99 36.08 64 32 64 32 L 64.5 32 C 64.5 32 64.49 36.11 64.5 36.1 C 64.5 37.3 65.2 38 66.4 38 C 67.5 38 68.3 37.3 68.3 36.1 C 68.28 36.1 68.3 32 68.3 32 L 68.8 32 C 68.8 32 68.78 36.07 68.8 36.1 C 68.8 37.5 67.9 38.5 66.4 38.5 C 64.9 38.5 64 37.5 64 36.1 Z M 74.3 29.7 C 74.3 29.5 74.4 29.3 74.7 29.3 C 74.9 29.3 75.1 29.5 75.1 29.7 C 75.1 29.9 74.9 30.1 74.7 30.1 C 74.4 30.1 74.3 29.9 74.3 29.7 Z M 74.4 37.7 C 74.41 37.72 74.4 32 74.4 32 L 74.9 32 C 74.9 32 74.91 37.73 74.9 37.7 C 74.9 39.2 74.6 40.1 73.9 41 C 73.9 41 73.3 41 73.3 41 C 74 40.2 74.4 39.2 74.4 37.7 Z M 76.8 35.2 C 76.8 33.2 78.2 31.9 79.7 31.9 C 80.7 31.9 81.7 32.5 82.2 33.6 C 82.19 33.62 82.3 32 82.3 32 L 82.7 32 L 82.7 38.4 L 82.3 38.4 C 82.3 38.4 82.19 36.8 82.2 36.8 C 81.7 38 80.7 38.5 79.7 38.5 C 78.2 38.5 76.8 37.2 76.8 35.2 Z M 82.2 35.2 C 82.2 33.5 81.1 32.4 79.7 32.4 C 78.4 32.4 77.3 33.5 77.3 35.2 C 77.3 36.9 78.4 38 79.7 38 C 81 38 82.2 36.9 82.2 35.2 Z M 84.9 32 L 85.3 32 C 85.3 32 85.4 33.64 85.4 33.6 C 85.9 32.5 86.9 31.9 87.9 31.9 C 89.4 31.9 90.8 33.2 90.8 35.2 C 90.8 37.2 89.4 38.5 87.9 38.5 C 86.9 38.5 85.9 37.9 85.4 36.9 C 85.44 36.85 85.4 41 85.4 41 L 84.9 41 L 84.9 32 Z M 90.3 35.2 C 90.3 33.5 89.2 32.4 87.9 32.4 C 86.5 32.4 85.4 33.5 85.4 35.2 C 85.4 36.9 86.6 38 87.9 38 C 89.2 38 90.3 36.9 90.3 35.2 Z M 92.2 35.2 C 92.2 33.3 93.6 31.9 95.2 31.9 C 96.9 31.9 98.3 33.3 98.3 35.2 C 98.3 37.2 96.9 38.5 95.2 38.5 C 93.6 38.5 92.2 37.2 92.2 35.2 Z M 97.8 35.2 C 97.8 33.4 96.5 32.4 95.2 32.4 C 93.9 32.4 92.7 33.4 92.7 35.2 C 92.7 37 93.9 38 95.2 38 C 96.5 38 97.8 37 97.8 35.2 Z M 104.9 34.2 C 104.89 34.16 104.9 38.4 104.9 38.4 L 104.4 38.4 C 104.4 38.4 104.38 34.37 104.4 34.4 C 104.4 33.1 103.7 32.4 102.6 32.4 C 101.5 32.4 100.6 33.1 100.6 34.3 C 100.6 34.31 100.6 38.4 100.6 38.4 L 100.1 38.4 L 100.1 32 L 100.5 32 L 100.6 33.2 C 100.6 33.2 100.57 33.16 100.6 33.2 C 100.9 32.4 101.7 31.9 102.6 31.9 C 104 31.9 104.9 32.8 104.9 34.2 Z M 107 37.4 C 107 37.44 107 37 107 37 L 107.5 37 C 107.5 37 107.5 37.43 107.5 37.4 C 107.5 38.4 107.1 39.4 106.9 40 C 106.9 40 106.5 40 106.5 40 C 106.7 39.4 107 38.4 107 37.4 Z M 117.8 34.2 C 117.82 34.16 117.8 38.4 117.8 38.4 L 117.3 38.4 C 117.3 38.4 117.32 34.37 117.3 34.4 C 117.3 33.1 116.7 32.4 115.5 32.4 C 114.4 32.4 113.5 33.1 113.5 34.3 C 113.53 34.31 113.5 38.4 113.5 38.4 L 113 38.4 L 113 32 L 113.4 32 L 113.5 33.2 C 113.5 33.2 113.5 33.16 113.5 33.2 C 113.8 32.4 114.6 31.9 115.6 31.9 C 116.9 31.9 117.8 32.8 117.8 34.2 Z M 119.6 35.2 C 119.6 33.3 120.9 31.9 122.6 31.9 C 124.3 31.9 125.6 33.3 125.6 35.2 C 125.6 37.2 124.3 38.5 122.6 38.5 C 120.9 38.5 119.6 37.2 119.6 35.2 Z M 125.1 35.2 C 125.1 33.4 123.9 32.4 122.6 32.4 C 121.3 32.4 120.1 33.4 120.1 35.2 C 120.1 37 121.3 38 122.6 38 C 123.9 38 125.1 37 125.1 35.2 Z M 127.4 36.1 C 127.38 36.08 127.4 32 127.4 32 L 127.9 32 C 127.9 32 127.89 36.11 127.9 36.1 C 127.9 37.3 128.6 38 129.8 38 C 130.9 38 131.7 37.3 131.7 36.1 C 131.68 36.1 131.7 32 131.7 32 L 132.2 32 C 132.2 32 132.18 36.07 132.2 36.1 C 132.2 37.5 131.2 38.5 129.8 38.5 C 128.3 38.5 127.4 37.5 127.4 36.1 Z M 137.9 32.5 C 137.9 32.5 137.9 33 137.9 33 C 137.4 32.7 136.8 32.4 136.1 32.4 C 135.2 32.4 134.5 32.9 134.5 33.6 C 134.5 34.3 135.2 34.6 136.2 34.9 C 137.2 35.3 138.2 35.6 138.2 36.7 C 138.2 37.8 137.4 38.5 136.1 38.5 C 135.3 38.5 134.6 38.3 133.9 37.8 C 133.9 37.8 133.9 37.1 133.9 37.1 C 134.5 37.7 135.2 38 136.1 38 C 137.1 38 137.7 37.5 137.7 36.7 C 137.7 36 137 35.7 136 35.3 C 134.9 35 134 34.7 134 33.6 C 134 32.6 134.9 31.9 136.1 31.9 C 136.8 31.9 137.4 32.1 137.9 32.5 Z M 142.9 35.2 C 142.9 33.2 144.3 31.9 145.8 31.9 C 146.8 31.9 147.9 32.5 148.3 33.6 C 148.33 33.62 148.4 32 148.4 32 L 148.8 32 L 148.8 38.4 L 148.4 38.4 C 148.4 38.4 148.33 36.8 148.3 36.8 C 147.9 38 146.8 38.5 145.8 38.5 C 144.3 38.5 142.9 37.2 142.9 35.2 Z M 148.3 35.2 C 148.3 33.5 147.2 32.4 145.9 32.4 C 144.5 32.4 143.4 33.5 143.4 35.2 C 143.4 36.9 144.6 38 145.9 38 C 147.2 38 148.3 36.9 148.3 35.2 Z M 150.3 32 L 150.9 32 L 153 37.8 L 153 37.8 L 155.1 32 L 155.6 32 L 153.2 38.4 L 152.7 38.4 L 150.3 32 Z M 156.5 35.2 C 156.5 33.3 157.9 31.9 159.5 31.9 C 161.2 31.9 162.6 33.3 162.6 35.2 C 162.6 37.2 161.2 38.5 159.5 38.5 C 157.9 38.5 156.5 37.2 156.5 35.2 Z M 162.1 35.2 C 162.1 33.4 160.8 32.4 159.5 32.4 C 158.2 32.4 157 33.4 157 35.2 C 157 37 158.2 38 159.5 38 C 160.8 38 162.1 37 162.1 35.2 Z M 169.2 34.2 C 169.18 34.16 169.2 38.4 169.2 38.4 L 168.7 38.4 C 168.7 38.4 168.68 34.37 168.7 34.4 C 168.7 33.1 168 32.4 166.9 32.4 C 165.8 32.4 164.9 33.1 164.9 34.3 C 164.9 34.31 164.9 38.4 164.9 38.4 L 164.4 38.4 L 164.4 32 L 164.8 32 L 164.9 33.2 C 164.9 33.2 164.86 33.16 164.9 33.2 C 165.2 32.4 166 31.9 166.9 31.9 C 168.3 31.9 169.2 32.8 169.2 34.2 Z M 174.9 32.5 C 174.9 32.5 174.9 33 174.9 33 C 174.4 32.7 173.8 32.4 173.1 32.4 C 172.2 32.4 171.5 32.9 171.5 33.6 C 171.5 34.3 172.2 34.6 173.2 34.9 C 174.2 35.3 175.2 35.6 175.2 36.7 C 175.2 37.8 174.4 38.5 173.1 38.5 C 172.3 38.5 171.6 38.3 170.9 37.8 C 170.9 37.8 170.9 37.1 170.9 37.1 C 171.5 37.7 172.2 38 173.1 38 C 174.1 38 174.7 37.5 174.7 36.7 C 174.7 36 174 35.7 173 35.3 C 171.9 35 171 34.7 171 33.6 C 171 32.6 171.9 31.9 173.1 31.9 C 173.8 31.9 174.4 32.1 174.9 32.5 Z M 180.9 32 L 182.8 32 L 182.8 32.5 L 180.9 32.5 C 180.9 32.5 180.93 36.4 180.9 36.4 C 180.9 37.6 181.6 38 182.5 38 C 182.6 38 182.8 38 183 38 C 183 38 183 38.4 183 38.4 C 182.9 38.4 182.7 38.5 182.4 38.5 C 181.3 38.5 180.4 37.8 180.4 36.4 C 180.43 36.42 180.4 32.5 180.4 32.5 L 179.4 32.5 L 179.4 32 L 180.4 32 L 180.4 30.5 L 180.9 30.5 L 180.9 32 Z M 189.4 35.4 C 189.4 35.4 184.3 35.4 184.3 35.4 C 184.4 37 185.5 38 186.9 38 C 187.7 38 188.5 37.8 189.2 37.1 C 189.2 37.1 189.2 37.7 189.2 37.7 C 188.5 38.2 187.7 38.5 186.9 38.5 C 185.1 38.5 183.8 37.2 183.8 35.2 C 183.8 33.2 185.2 31.9 186.8 31.9 C 188.2 31.9 189.4 33 189.4 35.1 C 189.4 35.2 189.4 35.3 189.4 35.4 Z M 188.9 34.9 C 188.9 33.2 187.9 32.4 186.8 32.4 C 185.6 32.4 184.5 33.4 184.3 34.9 C 184.3 34.9 188.9 34.9 188.9 34.9 Z M 196 34.2 C 196 34.16 196 38.4 196 38.4 L 195.5 38.4 C 195.5 38.4 195.5 34.37 195.5 34.4 C 195.5 33.1 194.8 32.4 193.7 32.4 C 192.6 32.4 191.7 33.1 191.7 34.3 C 191.72 34.31 191.7 38.4 191.7 38.4 L 191.2 38.4 L 191.2 32 L 191.6 32 L 191.7 33.2 C 191.7 33.2 191.68 33.16 191.7 33.2 C 192 32.4 192.8 31.9 193.8 31.9 C 195.1 31.9 196 32.8 196 34.2 Z M 198.1 36.1 C 198.11 36.08 198.1 32 198.1 32 L 198.6 32 C 198.6 32 198.62 36.11 198.6 36.1 C 198.6 37.3 199.3 38 200.5 38 C 201.7 38 202.4 37.3 202.4 36.1 C 202.41 36.1 202.4 32 202.4 32 L 202.9 32 C 202.9 32 202.91 36.07 202.9 36.1 C 202.9 37.5 202 38.5 200.5 38.5 C 199 38.5 198.1 37.5 198.1 36.1 Z M 211.9 30.9 L 211.5 30.9 L 209.9 29 L 210.5 29 L 211.9 30.9 Z M 208 35.2 C 208 33.2 209.4 31.9 210.9 31.9 C 212 31.9 213 32.5 213.4 33.6 C 213.44 33.62 213.5 32 213.5 32 L 213.9 32 L 213.9 38.4 L 213.5 38.4 C 213.5 38.4 213.44 36.8 213.4 36.8 C 213 38 212 38.5 210.9 38.5 C 209.4 38.5 208 37.2 208 35.2 Z M 213.4 35.2 C 213.4 33.5 212.3 32.4 211 32.4 C 209.7 32.4 208.5 33.5 208.5 35.2 C 208.5 36.9 209.7 38 211 38 C 212.3 38 213.4 36.9 213.4 35.2 Z M 219.6 28.9 L 220.1 28.9 L 220.1 38.4 L 219.6 38.4 L 219.6 28.9 Z M 222.3 29.7 C 222.3 29.5 222.5 29.3 222.7 29.3 C 223 29.3 223.1 29.5 223.1 29.7 C 223.1 29.9 223 30.1 222.7 30.1 C 222.5 30.1 222.3 29.9 222.3 29.7 Z M 222.5 32 L 223 32 L 223 38.4 L 222.5 38.4 L 222.5 32 Z M 225.8 33.6 C 226.2 32.5 227.2 31.9 228.3 31.9 C 229.8 31.9 231.2 33.2 231.2 35.2 C 231.2 37.2 229.8 38.5 228.3 38.5 C 227.2 38.5 226.2 38 225.7 36.8 C 225.75 36.79 225.7 38.4 225.7 38.4 L 225.3 38.4 L 225.3 28.9 L 225.8 28.9 C 225.8 28.9 225.79 33.59 225.8 33.6 Z M 225.8 35.2 C 225.8 36.9 226.9 38 228.2 38 C 229.5 38 230.7 36.9 230.7 35.2 C 230.7 33.5 229.5 32.4 228.2 32.4 C 226.9 32.4 225.8 33.5 225.8 35.2 Z M 235.3 30.9 L 234.8 30.9 L 236.2 29 L 236.8 29 L 235.3 30.9 Z M 238.1 35.4 C 238.1 35.4 233.1 35.4 233.1 35.4 C 233.1 37 234.2 38 235.6 38 C 236.4 38 237.2 37.8 237.9 37.1 C 237.9 37.1 237.9 37.7 237.9 37.7 C 237.2 38.2 236.4 38.5 235.6 38.5 C 233.8 38.5 232.6 37.2 232.6 35.2 C 232.6 33.2 234 31.9 235.5 31.9 C 236.9 31.9 238.1 33 238.1 35.1 C 238.1 35.2 238.1 35.3 238.1 35.4 Z M 237.6 34.9 C 237.6 33.2 236.6 32.4 235.5 32.4 C 234.3 32.4 233.2 33.4 233.1 34.9 C 233.1 34.9 237.6 34.9 237.6 34.9 Z M 239.9 32 L 240.3 32 L 240.4 33.2 C 240.4 33.2 240.4 33.22 240.4 33.2 C 240.8 32.3 241.6 32 242.3 32 C 242.4 32 242.6 32 242.7 32 C 242.7 32 242.7 32.5 242.7 32.5 C 242.6 32.5 242.4 32.5 242.3 32.5 C 241.4 32.5 240.4 33.1 240.4 34.4 C 240.44 34.37 240.4 38.4 240.4 38.4 L 239.9 38.4 L 239.9 32 Z M 248.8 35.4 C 248.8 35.4 243.7 35.4 243.7 35.4 C 243.8 37 244.9 38 246.3 38 C 247.1 38 247.9 37.8 248.6 37.1 C 248.6 37.1 248.6 37.7 248.6 37.7 C 247.9 38.2 247.1 38.5 246.3 38.5 C 244.5 38.5 243.2 37.2 243.2 35.2 C 243.2 33.2 244.7 31.9 246.2 31.9 C 247.6 31.9 248.8 33 248.8 35.1 C 248.8 35.2 248.8 35.3 248.8 35.4 Z M 248.3 34.9 C 248.3 33.2 247.3 32.4 246.2 32.4 C 245 32.4 243.9 33.4 243.8 34.9 C 243.8 34.9 248.3 34.9 248.3 34.9 Z M 250.6 32 L 251 32 L 251.1 33.2 C 251.1 33.2 251.09 33.22 251.1 33.2 C 251.5 32.3 252.3 32 253 32 C 253.1 32 253.3 32 253.4 32 C 253.4 32 253.4 32.5 253.4 32.5 C 253.3 32.5 253.1 32.5 253 32.5 C 252.1 32.5 251.1 33.1 251.1 34.4 C 251.13 34.37 251.1 38.4 251.1 38.4 L 250.6 38.4 L 250.6 32 Z M 257.8 28.9 L 258.3 28.9 L 258.3 38.4 L 257.8 38.4 L 257.8 28.9 Z M 260.8 29.9 C 260.82 29.93 260.8 29.5 260.8 29.5 L 261.3 29.5 C 261.3 29.5 261.32 29.92 261.3 29.9 C 261.3 30.9 260.9 31.9 260.7 32.5 C 260.7 32.5 260.3 32.5 260.3 32.5 C 260.5 31.9 260.8 30.9 260.8 29.9 Z M 268 35.4 C 268 35.4 262.9 35.4 262.9 35.4 C 263 37 264 38 265.5 38 C 266.2 38 267.1 37.8 267.7 37.1 C 267.7 37.1 267.7 37.7 267.7 37.7 C 267.1 38.2 266.3 38.5 265.5 38.5 C 263.7 38.5 262.4 37.2 262.4 35.2 C 262.4 33.2 263.8 31.9 265.4 31.9 C 266.8 31.9 268 33 268 35.1 C 268 35.2 268 35.3 268 35.4 Z M 267.5 34.9 C 267.5 33.2 266.4 32.4 265.4 32.4 C 264.2 32.4 263 33.4 262.9 34.9 C 262.9 34.9 267.5 34.9 267.5 34.9 Z M 273.3 32.5 C 273.3 32.5 273.3 33 273.3 33 C 272.8 32.7 272.2 32.4 271.5 32.4 C 270.6 32.4 270 32.9 270 33.6 C 270 34.3 270.6 34.6 271.6 34.9 C 272.7 35.3 273.7 35.6 273.7 36.7 C 273.7 37.8 272.8 38.5 271.5 38.5 C 270.7 38.5 270 38.3 269.4 37.8 C 269.4 37.8 269.4 37.1 269.4 37.1 C 269.9 37.7 270.7 38 271.5 38 C 272.5 38 273.2 37.5 273.2 36.7 C 273.2 36 272.4 35.7 271.4 35.3 C 270.4 35 269.4 34.7 269.4 33.6 C 269.4 32.6 270.3 31.9 271.5 31.9 C 272.2 31.9 272.9 32.1 273.3 32.5 Z M 275.4 32 L 275.8 32 C 275.8 32 275.88 33.64 275.9 33.6 C 276.3 32.5 277.4 31.9 278.4 31.9 C 279.9 31.9 281.3 33.2 281.3 35.2 C 281.3 37.2 279.9 38.5 278.4 38.5 C 277.4 38.5 276.3 37.9 275.9 36.9 C 275.92 36.85 275.9 41 275.9 41 L 275.4 41 L 275.4 32 Z M 280.8 35.2 C 280.8 33.5 279.7 32.4 278.4 32.4 C 277 32.4 275.9 33.5 275.9 35.2 C 275.9 36.9 277 38 278.3 38 C 279.7 38 280.8 36.9 280.8 35.2 Z M 282.7 35.2 C 282.7 33.2 284.1 31.9 285.6 31.9 C 286.6 31.9 287.6 32.5 288.1 33.6 C 288.08 33.62 288.2 32 288.2 32 L 288.6 32 L 288.6 38.4 L 288.2 38.4 C 288.2 38.4 288.08 36.8 288.1 36.8 C 287.6 38 286.6 38.5 285.6 38.5 C 284.1 38.5 282.7 37.2 282.7 35.2 Z M 288.1 35.2 C 288.1 33.5 287 32.4 285.6 32.4 C 284.3 32.4 283.2 33.5 283.2 35.2 C 283.2 36.9 284.3 38 285.6 38 C 286.9 38 288.1 36.9 288.1 35.2 Z M 293.5 38 C 294 38 294.6 37.9 295.2 37.5 C 295.2 37.5 295.2 38.1 295.2 38.1 C 294.7 38.4 294.1 38.5 293.5 38.5 C 291.7 38.5 290.4 37.1 290.4 35.2 C 290.4 33.3 291.7 31.9 293.4 31.9 C 294 31.9 294.6 32 295.2 32.4 C 295.2 32.4 295.2 32.9 295.2 32.9 C 294.6 32.5 294 32.4 293.4 32.4 C 292.1 32.4 290.9 33.5 290.9 35.2 C 290.9 36.9 292.1 38 293.5 38 Z M 301.9 35.4 C 301.9 35.4 296.9 35.4 296.9 35.4 C 296.9 37 298 38 299.4 38 C 300.2 38 301 37.8 301.7 37.1 C 301.7 37.1 301.7 37.7 301.7 37.7 C 301 38.2 300.2 38.5 299.4 38.5 C 297.6 38.5 296.4 37.2 296.4 35.2 C 296.4 33.2 297.8 31.9 299.3 31.9 C 300.7 31.9 301.9 33 301.9 35.1 C 301.9 35.2 301.9 35.3 301.9 35.4 Z M 301.4 34.9 C 301.4 33.2 300.4 32.4 299.3 32.4 C 298.1 32.4 297 33.4 296.9 34.9 C 296.9 34.9 301.4 34.9 301.4 34.9 Z M 312.2 35.4 C 312.2 35.4 307.2 35.4 307.2 35.4 C 307.3 37 308.3 38 309.7 38 C 310.5 38 311.3 37.8 312 37.1 C 312 37.1 312 37.7 312 37.7 C 311.3 38.2 310.5 38.5 309.7 38.5 C 307.9 38.5 306.7 37.2 306.7 35.2 C 306.7 33.2 308.1 31.9 309.6 31.9 C 311 31.9 312.2 33 312.2 35.1 C 312.2 35.2 312.2 35.3 312.2 35.4 Z M 311.7 34.9 C 311.7 33.2 310.7 32.4 309.6 32.4 C 308.4 32.4 307.3 33.4 307.2 34.9 C 307.2 34.9 311.7 34.9 311.7 34.9 Z M 314.7 32 L 316.6 32 L 316.6 32.5 L 314.7 32.5 C 314.7 32.5 314.67 36.4 314.7 36.4 C 314.7 37.6 315.3 38 316.2 38 C 316.4 38 316.6 38 316.7 38 C 316.7 38 316.7 38.4 316.7 38.4 C 316.7 38.4 316.4 38.5 316.1 38.5 C 315 38.5 314.2 37.8 314.2 36.4 C 314.17 36.42 314.2 32.5 314.2 32.5 L 313.2 32.5 L 313.2 32 L 314.2 32 L 314.2 30.5 L 314.7 30.5 L 314.7 32 Z M 324.9 30.9 L 324.4 30.9 L 322.8 29 L 323.4 29 L 324.9 30.9 Z M 321 35.2 C 321 33.2 322.4 31.9 323.9 31.9 C 324.9 31.9 325.9 32.5 326.4 33.6 C 326.37 33.62 326.4 32 326.4 32 L 326.8 32 L 326.8 38.4 L 326.4 38.4 C 326.4 38.4 326.37 36.8 326.4 36.8 C 325.9 38 324.9 38.5 323.9 38.5 C 322.4 38.5 321 37.2 321 35.2 Z M 326.4 35.2 C 326.4 33.5 325.2 32.4 323.9 32.4 C 322.6 32.4 321.5 33.5 321.5 35.2 C 321.5 36.9 322.6 38 323.9 38 C 325.2 38 326.4 36.9 326.4 35.2 Z M 332.5 28.9 L 333 28.9 L 333 38.4 L 332.5 38.4 L 332.5 28.9 Z M 335.3 36.1 C 335.27 36.08 335.3 32 335.3 32 L 335.8 32 C 335.8 32 335.77 36.11 335.8 36.1 C 335.8 37.3 336.5 38 337.7 38 C 338.8 38 339.6 37.3 339.6 36.1 C 339.56 36.1 339.6 32 339.6 32 L 340.1 32 C 340.1 32 340.06 36.07 340.1 36.1 C 340.1 37.5 339.1 38.5 337.7 38.5 C 336.2 38.5 335.3 37.5 335.3 36.1 Z M 342.2 29.7 C 342.2 29.5 342.3 29.3 342.5 29.3 C 342.8 29.3 343 29.5 343 29.7 C 343 29.9 342.8 30.1 342.5 30.1 C 342.3 30.1 342.2 29.9 342.2 29.7 Z M 342.3 32 L 342.8 32 L 342.8 38.4 L 342.3 38.4 L 342.3 32 Z M 348.5 32 L 348.9 32 C 348.9 32 348.96 33.64 349 33.6 C 349.4 32.5 350.5 31.9 351.5 31.9 C 353 31.9 354.4 33.2 354.4 35.2 C 354.4 37.2 353 38.5 351.5 38.5 C 350.5 38.5 349.4 37.9 349 36.9 C 349 36.85 349 41 349 41 L 348.5 41 L 348.5 32 Z M 353.9 35.2 C 353.9 33.5 352.8 32.4 351.4 32.4 C 350.1 32.4 349 33.5 349 35.2 C 349 36.9 350.1 38 351.4 38 C 352.7 38 353.9 36.9 353.9 35.2 Z M 361.3 35.4 C 361.3 35.4 356.3 35.4 356.3 35.4 C 356.4 37 357.4 38 358.8 38 C 359.6 38 360.4 37.8 361.1 37.1 C 361.1 37.1 361.1 37.7 361.1 37.7 C 360.4 38.2 359.6 38.5 358.8 38.5 C 357 38.5 355.8 37.2 355.8 35.2 C 355.8 33.2 357.2 31.9 358.7 31.9 C 360.1 31.9 361.3 33 361.3 35.1 C 361.3 35.2 361.3 35.3 361.3 35.4 Z M 360.8 34.9 C 360.8 33.2 359.8 32.4 358.7 32.4 C 357.5 32.4 356.4 33.4 356.3 34.9 C 356.3 34.9 360.8 34.9 360.8 34.9 Z M 363.1 32 L 363.6 32 L 363.6 33.2 C 363.6 33.2 363.62 33.22 363.6 33.2 C 364 32.3 364.9 32 365.5 32 C 365.6 32 365.8 32 365.9 32 C 365.9 32 365.9 32.5 365.9 32.5 C 365.8 32.5 365.6 32.5 365.5 32.5 C 364.6 32.5 363.7 33.1 363.7 34.4 C 363.65 34.37 363.7 38.4 363.7 38.4 L 363.1 38.4 L 363.1 32 Z M 374.9 34.1 C 374.94 34.08 374.9 38.4 374.9 38.4 L 374.4 38.4 C 374.4 38.4 374.44 34.13 374.4 34.1 C 374.4 33.1 373.9 32.4 373 32.4 C 371.9 32.4 371.3 33.2 371.3 34.1 C 371.33 34.14 371.3 38.4 371.3 38.4 L 370.8 38.4 C 370.8 38.4 370.83 34.13 370.8 34.1 C 370.8 33.1 370.3 32.4 369.3 32.4 C 368.3 32.4 367.7 33.2 367.7 34.2 C 367.72 34.16 367.7 38.4 367.7 38.4 L 367.2 38.4 L 367.2 32 L 367.6 32 L 367.7 33.1 C 367.7 33.1 367.68 33.08 367.7 33.1 C 368 32.4 368.6 31.9 369.4 31.9 C 370.3 31.9 370.9 32.4 371.2 33.2 C 371.5 32.4 372.1 31.9 373 31.9 C 374.3 31.9 374.9 32.8 374.9 34.1 Z M 382.3 35.4 C 382.3 35.4 377.2 35.4 377.2 35.4 C 377.3 37 378.3 38 379.8 38 C 380.5 38 381.4 37.8 382 37.1 C 382 37.1 382 37.7 382 37.7 C 381.4 38.2 380.6 38.5 379.7 38.5 C 378 38.5 376.7 37.2 376.7 35.2 C 376.7 33.2 378.1 31.9 379.7 31.9 C 381.1 31.9 382.3 33 382.3 35.1 C 382.3 35.2 382.3 35.3 382.3 35.4 Z M 381.8 34.9 C 381.8 33.2 380.7 32.4 379.7 32.4 C 378.4 32.4 377.3 33.4 377.2 34.9 C 377.2 34.9 381.8 34.9 381.8 34.9 Z M 384.7 32 L 386.6 32 L 386.6 32.5 L 384.7 32.5 C 384.7 32.5 384.71 36.4 384.7 36.4 C 384.7 37.6 385.3 38 386.2 38 C 386.4 38 386.6 38 386.8 38 C 386.8 38 386.8 38.4 386.8 38.4 C 386.7 38.4 386.5 38.5 386.2 38.5 C 385 38.5 384.2 37.8 384.2 36.4 C 384.21 36.42 384.2 32.5 384.2 32.5 L 383.2 32.5 L 383.2 32 L 384.2 32 L 384.2 30.5 L 384.7 30.5 L 384.7 32 Z M 388.8 32 L 390.7 32 L 390.7 32.5 L 388.8 32.5 C 388.8 32.5 388.83 36.4 388.8 36.4 C 388.8 37.6 389.5 38 390.4 38 C 390.5 38 390.7 38 390.9 38 C 390.9 38 390.9 38.4 390.9 38.4 C 390.8 38.4 390.6 38.5 390.3 38.5 C 389.2 38.5 388.3 37.8 388.3 36.4 C 388.32 36.42 388.3 32.5 388.3 32.5 L 387.3 32.5 L 387.3 32 L 388.3 32 L 388.3 30.5 L 388.8 30.5 L 388.8 32 Z M 392.3 32 L 392.7 32 L 392.7 33.2 C 392.7 33.2 392.73 33.22 392.7 33.2 C 393.1 32.3 394 32 394.6 32 C 394.7 32 394.9 32 395 32 C 395 32 395 32.5 395 32.5 C 394.9 32.5 394.7 32.5 394.6 32.5 C 393.7 32.5 392.8 33.1 392.8 34.4 C 392.76 34.37 392.8 38.4 392.8 38.4 L 392.3 38.4 L 392.3 32 Z M 401.1 35.4 C 401.1 35.4 396.1 35.4 396.1 35.4 C 396.2 37 397.2 38 398.6 38 C 399.4 38 400.2 37.8 400.9 37.1 C 400.9 37.1 400.9 37.7 400.9 37.7 C 400.2 38.2 399.4 38.5 398.6 38.5 C 396.8 38.5 395.6 37.2 395.6 35.2 C 395.6 33.2 397 31.9 398.5 31.9 C 399.9 31.9 401.2 33 401.2 35.1 C 401.2 35.2 401.1 35.3 401.1 35.4 Z M 400.6 34.9 C 400.6 33.2 399.6 32.4 398.5 32.4 C 397.3 32.4 396.2 33.4 396.1 34.9 C 396.1 34.9 400.6 34.9 400.6 34.9 Z " stroke="none" fill="#000"/>
  </g>
  <g id="Polygon17973">
    <path d="M 8.9 19.7 C 8.87 19.68 8.9 24 8.9 24 L 8.4 24 C 8.4 24 8.36 19.73 8.4 19.7 C 8.4 18.7 7.9 18 6.9 18 C 5.9 18 5.3 18.8 5.3 19.7 C 5.26 19.74 5.3 24 5.3 24 L 4.8 24 C 4.8 24 4.75 19.73 4.8 19.7 C 4.8 18.7 4.2 18 3.3 18 C 2.2 18 1.6 18.8 1.6 19.8 C 1.64 19.76 1.6 24 1.6 24 L 1.1 24 L 1.1 17.6 L 1.5 17.6 L 1.6 18.7 C 1.6 18.7 1.61 18.68 1.6 18.7 C 1.9 18 2.5 17.5 3.3 17.5 C 4.3 17.5 4.8 18 5.1 18.8 C 5.4 18 6 17.5 6.9 17.5 C 8.2 17.5 8.9 18.4 8.9 19.7 Z M 11 15.3 C 11 15.1 11.1 14.9 11.4 14.9 C 11.6 14.9 11.8 15.1 11.8 15.3 C 11.8 15.5 11.6 15.7 11.4 15.7 C 11.1 15.7 11 15.5 11 15.3 Z M 11.1 17.6 L 11.6 17.6 L 11.6 24 L 11.1 24 L 11.1 17.6 Z M 18.9 19.2 C 18.89 19.24 19 17.6 19 17.6 L 19.4 17.6 L 19.4 26.6 L 18.9 26.6 C 18.9 26.6 18.85 22.44 18.9 22.4 C 18.4 23.5 17.4 24.1 16.4 24.1 C 14.9 24.1 13.5 22.8 13.5 20.8 C 13.5 18.8 14.9 17.5 16.4 17.5 C 17.4 17.5 18.4 18.1 18.9 19.2 Z M 14 20.8 C 14 22.5 15.1 23.6 16.4 23.6 C 17.7 23.6 18.9 22.5 18.9 20.8 C 18.9 19.1 17.8 18 16.4 18 C 15.1 18 14 19.1 14 20.8 Z M 21.6 21.7 C 21.55 21.68 21.6 17.6 21.6 17.6 L 22.1 17.6 C 22.1 17.6 22.05 21.71 22.1 21.7 C 22.1 22.9 22.8 23.6 23.9 23.6 C 25.1 23.6 25.8 22.9 25.8 21.7 C 25.85 21.7 25.8 17.6 25.8 17.6 L 26.4 17.6 C 26.4 17.6 26.35 21.67 26.4 21.7 C 26.4 23.1 25.4 24.1 23.9 24.1 C 22.5 24.1 21.6 23.1 21.6 21.7 Z M 33.7 21 C 33.7 21 28.6 21 28.6 21 C 28.7 22.6 29.7 23.6 31.2 23.6 C 31.9 23.6 32.7 23.4 33.4 22.7 C 33.4 22.7 33.4 23.3 33.4 23.3 C 32.8 23.8 32 24.1 31.1 24.1 C 29.4 24.1 28.1 22.8 28.1 20.8 C 28.1 18.8 29.5 17.5 31.1 17.5 C 32.5 17.5 33.7 18.6 33.7 20.7 C 33.7 20.8 33.7 20.9 33.7 21 Z M 33.2 20.5 C 33.2 18.8 32.1 18 31.1 18 C 29.8 18 28.7 19 28.6 20.5 C 28.6 20.5 33.2 20.5 33.2 20.5 Z M 39 18.1 C 39 18.1 39 18.6 39 18.6 C 38.5 18.3 37.9 18 37.2 18 C 36.3 18 35.6 18.5 35.6 19.2 C 35.6 19.9 36.3 20.2 37.3 20.5 C 38.3 20.9 39.3 21.2 39.3 22.3 C 39.3 23.4 38.5 24.1 37.2 24.1 C 36.4 24.1 35.7 23.9 35 23.4 C 35 23.4 35 22.7 35 22.7 C 35.6 23.3 36.3 23.6 37.2 23.6 C 38.2 23.6 38.8 23.1 38.8 22.3 C 38.8 21.6 38.1 21.3 37.1 20.9 C 36 20.6 35.1 20.3 35.1 19.2 C 35.1 18.2 36 17.5 37.2 17.5 C 37.9 17.5 38.5 17.7 39 18.1 Z M 40.9 23.6 C 40.9 23.3 41.1 23.1 41.4 23.1 C 41.6 23.1 41.8 23.3 41.8 23.6 C 41.8 23.8 41.6 24 41.4 24 C 41.1 24 40.9 23.8 40.9 23.6 Z M 48.4 15.1 L 52.8 15.1 L 52.8 15.6 L 49 15.6 L 49 19.2 L 52.6 19.2 L 52.6 19.7 L 49 19.7 L 49 23.5 L 52.8 23.5 L 52.8 24 L 48.4 24 L 48.4 15.1 Z M 59.6 19.8 C 59.63 19.76 59.6 24 59.6 24 L 59.1 24 C 59.1 24 59.13 19.97 59.1 20 C 59.1 18.7 58.5 18 57.3 18 C 56.2 18 55.3 18.7 55.3 19.9 C 55.35 19.91 55.3 24 55.3 24 L 54.8 24 L 54.8 17.6 L 55.2 17.6 L 55.3 18.8 C 55.3 18.8 55.31 18.76 55.3 18.8 C 55.7 18 56.4 17.5 57.4 17.5 C 58.7 17.5 59.6 18.4 59.6 19.8 Z M 69.7 18.1 C 69.7 18.1 69.7 18.6 69.7 18.6 C 69.2 18.3 68.6 18 67.9 18 C 66.9 18 66.3 18.5 66.3 19.2 C 66.3 19.9 67 20.2 68 20.5 C 69 20.9 70 21.2 70 22.3 C 70 23.4 69.1 24.1 67.8 24.1 C 67.1 24.1 66.3 23.9 65.7 23.4 C 65.7 23.4 65.7 22.7 65.7 22.7 C 66.2 23.3 67 23.6 67.8 23.6 C 68.9 23.6 69.5 23.1 69.5 22.3 C 69.5 21.6 68.8 21.3 67.8 20.9 C 66.7 20.6 65.8 20.3 65.8 19.2 C 65.8 18.2 66.6 17.5 67.9 17.5 C 68.6 17.5 69.2 17.7 69.7 18.1 Z M 71.9 15.5 C 71.95 15.53 71.9 15.1 71.9 15.1 L 72.5 15.1 C 72.5 15.1 72.45 15.52 72.5 15.5 C 72.5 16.5 72.1 17.5 71.8 18.1 C 71.8 18.1 71.4 18.1 71.4 18.1 C 71.6 17.5 71.9 16.5 71.9 15.5 Z M 74.3 15.3 C 74.3 15.1 74.4 14.9 74.6 14.9 C 74.9 14.9 75.1 15.1 75.1 15.3 C 75.1 15.5 74.9 15.7 74.6 15.7 C 74.4 15.7 74.3 15.5 74.3 15.3 Z M 74.4 17.6 L 74.9 17.6 L 74.9 24 L 74.4 24 L 74.4 17.6 Z M 82 19.8 C 82 19.76 82 24 82 24 L 81.5 24 C 81.5 24 81.5 19.97 81.5 20 C 81.5 18.7 80.8 18 79.7 18 C 78.6 18 77.7 18.7 77.7 19.9 C 77.72 19.91 77.7 24 77.7 24 L 77.2 24 L 77.2 17.6 L 77.6 17.6 L 77.7 18.8 C 77.7 18.8 77.68 18.76 77.7 18.8 C 78 18 78.8 17.5 79.8 17.5 C 81.1 17.5 82 18.4 82 19.8 Z M 87.8 18.1 C 87.8 18.1 87.8 18.6 87.8 18.6 C 87.2 18.3 86.6 18 85.9 18 C 85 18 84.4 18.5 84.4 19.2 C 84.4 19.9 85 20.2 86 20.5 C 87.1 20.9 88.1 21.2 88.1 22.3 C 88.1 23.4 87.2 24.1 85.9 24.1 C 85.1 24.1 84.4 23.9 83.8 23.4 C 83.8 23.4 83.8 22.7 83.8 22.7 C 84.3 23.3 85.1 23.6 85.9 23.6 C 86.9 23.6 87.6 23.1 87.6 22.3 C 87.6 21.6 86.8 21.3 85.8 20.9 C 84.8 20.6 83.9 20.3 83.9 19.2 C 83.9 18.2 84.7 17.5 85.9 17.5 C 86.6 17.5 87.3 17.7 87.8 18.1 Z M 89.8 17.6 L 90.2 17.6 C 90.2 17.6 90.28 19.24 90.3 19.2 C 90.8 18.1 91.8 17.5 92.8 17.5 C 94.3 17.5 95.7 18.8 95.7 20.8 C 95.7 22.8 94.3 24.1 92.8 24.1 C 91.8 24.1 90.8 23.5 90.3 22.5 C 90.32 22.45 90.3 26.6 90.3 26.6 L 89.8 26.6 L 89.8 17.6 Z M 95.2 20.8 C 95.2 19.1 94.1 18 92.8 18 C 91.4 18 90.3 19.1 90.3 20.8 C 90.3 22.5 91.4 23.6 92.7 23.6 C 94.1 23.6 95.2 22.5 95.2 20.8 Z M 97.4 15.3 C 97.4 15.1 97.6 14.9 97.8 14.9 C 98.1 14.9 98.2 15.1 98.2 15.3 C 98.2 15.5 98.1 15.7 97.8 15.7 C 97.6 15.7 97.4 15.5 97.4 15.3 Z M 97.6 17.6 L 98.1 17.6 L 98.1 24 L 97.6 24 L 97.6 17.6 Z M 100.4 17.6 L 100.8 17.6 L 100.8 18.8 C 100.8 18.8 100.86 18.82 100.9 18.8 C 101.2 17.9 102.1 17.6 102.7 17.6 C 102.9 17.6 103 17.6 103.1 17.6 C 103.1 17.6 103.1 18.1 103.1 18.1 C 103 18.1 102.9 18.1 102.7 18.1 C 101.8 18.1 100.9 18.7 100.9 20 C 100.89 19.97 100.9 24 100.9 24 L 100.4 24 L 100.4 17.6 Z M 103.7 20.8 C 103.7 18.8 105.1 17.5 106.6 17.5 C 107.6 17.5 108.6 18.1 109.1 19.2 C 109.1 19.22 109.2 17.6 109.2 17.6 L 109.6 17.6 L 109.6 24 L 109.2 24 C 109.2 24 109.1 22.4 109.1 22.4 C 108.6 23.6 107.6 24.1 106.6 24.1 C 105.1 24.1 103.7 22.8 103.7 20.8 Z M 109.1 20.8 C 109.1 19.1 108 18 106.6 18 C 105.3 18 104.2 19.1 104.2 20.8 C 104.2 22.5 105.3 23.6 106.7 23.6 C 108 23.6 109.1 22.5 109.1 20.8 Z M 116.6 19.8 C 116.64 19.76 116.6 24 116.6 24 L 116.1 24 C 116.1 24 116.13 19.97 116.1 20 C 116.1 18.7 115.5 18 114.3 18 C 113.2 18 112.4 18.7 112.4 19.9 C 112.35 19.91 112.4 24 112.4 24 L 111.8 24 L 111.8 17.6 L 112.2 17.6 L 112.3 18.8 C 112.3 18.8 112.32 18.76 112.3 18.8 C 112.7 18 113.4 17.5 114.4 17.5 C 115.7 17.5 116.6 18.4 116.6 19.8 Z M 119.5 17.6 L 121.4 17.6 L 121.4 18.1 L 119.5 18.1 C 119.5 18.1 119.46 22 119.5 22 C 119.5 23.2 120.1 23.6 121 23.6 C 121.2 23.6 121.3 23.6 121.5 23.6 C 121.5 23.6 121.5 24 121.5 24 C 121.5 24 121.2 24.1 120.9 24.1 C 119.8 24.1 119 23.4 119 22 C 118.95 22.02 119 18.1 119 18.1 L 118 18.1 L 118 17.6 L 119 17.6 L 119 16.1 L 119.5 16.1 L 119.5 17.6 Z M 126.7 20.8 C 126.7 18.8 128.1 17.5 129.6 17.5 C 130.6 17.5 131.6 18.1 132.1 19.2 C 132.06 19.18 132.1 14.5 132.1 14.5 L 132.6 14.5 L 132.6 24 L 132.2 24 L 132.1 22.4 C 132.1 22.4 132.09 22.39 132.1 22.4 C 131.6 23.6 130.6 24.1 129.6 24.1 C 128.1 24.1 126.7 22.8 126.7 20.8 Z M 132.1 20.8 C 132.1 19.1 131 18 129.6 18 C 128.3 18 127.2 19.1 127.2 20.8 C 127.2 22.5 128.3 23.6 129.6 23.6 C 131 23.6 132.1 22.5 132.1 20.8 Z M 135 15.5 C 135.04 15.53 135 15.1 135 15.1 L 135.5 15.1 C 135.5 15.1 135.54 15.52 135.5 15.5 C 135.5 16.5 135.1 17.5 134.9 18.1 C 134.9 18.1 134.5 18.1 134.5 18.1 C 134.7 17.5 135 16.5 135 15.5 Z M 137.3 15.3 C 137.3 15.1 137.5 14.9 137.7 14.9 C 138 14.9 138.1 15.1 138.1 15.3 C 138.1 15.5 138 15.7 137.7 15.7 C 137.5 15.7 137.3 15.5 137.3 15.3 Z M 137.5 17.6 L 138 17.6 L 138 24 L 137.5 24 L 137.5 17.6 Z M 145.1 19.8 C 145.09 19.76 145.1 24 145.1 24 L 144.6 24 C 144.6 24 144.59 19.97 144.6 20 C 144.6 18.7 143.9 18 142.8 18 C 141.7 18 140.8 18.7 140.8 19.9 C 140.81 19.91 140.8 24 140.8 24 L 140.3 24 L 140.3 17.6 L 140.7 17.6 L 140.8 18.8 C 140.8 18.8 140.77 18.76 140.8 18.8 C 141.1 18 141.9 17.5 142.8 17.5 C 144.2 17.5 145.1 18.4 145.1 19.8 Z M 147.9 17.6 L 149.8 17.6 L 149.8 18.1 L 147.9 18.1 C 147.9 18.1 147.91 22 147.9 22 C 147.9 23.2 148.5 23.6 149.4 23.6 C 149.6 23.6 149.8 23.6 150 23.6 C 150 23.6 150 24 150 24 C 149.9 24 149.7 24.1 149.4 24.1 C 148.2 24.1 147.4 23.4 147.4 22 C 147.41 22.02 147.4 18.1 147.4 18.1 L 146.4 18.1 L 146.4 17.6 L 147.4 17.6 L 147.4 16.1 L 147.9 16.1 L 147.9 17.6 Z M 153.5 16.5 L 153.1 16.5 L 154.5 14.6 L 155.1 14.6 L 153.5 16.5 Z M 156.4 21 C 156.4 21 151.3 21 151.3 21 C 151.4 22.6 152.4 23.6 153.9 23.6 C 154.6 23.6 155.5 23.4 156.1 22.7 C 156.1 22.7 156.1 23.3 156.1 23.3 C 155.5 23.8 154.7 24.1 153.9 24.1 C 152.1 24.1 150.8 22.8 150.8 20.8 C 150.8 18.8 152.2 17.5 153.8 17.5 C 155.2 17.5 156.4 18.6 156.4 20.7 C 156.4 20.8 156.4 20.9 156.4 21 Z M 155.9 20.5 C 155.9 18.8 154.8 18 153.8 18 C 152.6 18 151.4 19 151.3 20.5 C 151.3 20.5 155.9 20.5 155.9 20.5 Z M 158.2 17.6 L 158.6 17.6 L 158.7 18.8 C 158.7 18.8 158.66 18.82 158.7 18.8 C 159 17.9 159.9 17.6 160.5 17.6 C 160.7 17.6 160.8 17.6 160.9 17.6 C 160.9 17.6 160.9 18.1 160.9 18.1 C 160.8 18.1 160.7 18.1 160.5 18.1 C 159.6 18.1 158.7 18.7 158.7 20 C 158.7 19.97 158.7 24 158.7 24 L 158.2 24 L 158.2 17.6 Z M 162.2 15.3 C 162.2 15.1 162.3 14.9 162.6 14.9 C 162.8 14.9 163 15.1 163 15.3 C 163 15.5 162.8 15.7 162.6 15.7 C 162.3 15.7 162.2 15.5 162.2 15.3 Z M 162.3 17.6 L 162.8 17.6 L 162.8 24 L 162.3 24 L 162.3 17.6 Z M 170.2 21 C 170.2 21 165.2 21 165.2 21 C 165.3 22.6 166.3 23.6 167.7 23.6 C 168.5 23.6 169.3 23.4 170 22.7 C 170 22.7 170 23.3 170 23.3 C 169.3 23.8 168.5 24.1 167.7 24.1 C 165.9 24.1 164.7 22.8 164.7 20.8 C 164.7 18.8 166.1 17.5 167.6 17.5 C 169 17.5 170.3 18.6 170.3 20.7 C 170.3 20.8 170.2 20.9 170.2 21 Z M 169.8 20.5 C 169.7 18.8 168.7 18 167.6 18 C 166.4 18 165.3 19 165.2 20.5 C 165.2 20.5 169.8 20.5 169.8 20.5 Z M 172 21.7 C 171.97 21.68 172 17.6 172 17.6 L 172.5 17.6 C 172.5 17.6 172.48 21.71 172.5 21.7 C 172.5 22.9 173.2 23.6 174.4 23.6 C 175.5 23.6 176.3 22.9 176.3 21.7 C 176.27 21.7 176.3 17.6 176.3 17.6 L 176.8 17.6 C 176.8 17.6 176.77 21.67 176.8 21.7 C 176.8 23.1 175.8 24.1 174.4 24.1 C 172.9 24.1 172 23.1 172 21.7 Z M 179 17.6 L 179.4 17.6 L 179.4 18.8 C 179.4 18.8 179.44 18.82 179.4 18.8 C 179.8 17.9 180.7 17.6 181.3 17.6 C 181.5 17.6 181.6 17.6 181.7 17.6 C 181.7 17.6 181.7 18.1 181.7 18.1 C 181.6 18.1 181.5 18.1 181.3 18.1 C 180.4 18.1 179.5 18.7 179.5 20 C 179.47 19.97 179.5 24 179.5 24 L 179 24 L 179 17.6 Z M 186.5 18.1 C 186.5 18.1 186.5 18.6 186.5 18.6 C 186 18.3 185.4 18 184.7 18 C 183.7 18 183.1 18.5 183.1 19.2 C 183.1 19.9 183.8 20.2 184.8 20.5 C 185.8 20.9 186.8 21.2 186.8 22.3 C 186.8 23.4 186 24.1 184.7 24.1 C 183.9 24.1 183.1 23.9 182.5 23.4 C 182.5 23.4 182.5 22.7 182.5 22.7 C 183.1 23.3 183.8 23.6 184.7 23.6 C 185.7 23.6 186.3 23.1 186.3 22.3 C 186.3 21.6 185.6 21.3 184.6 20.9 C 183.5 20.6 182.6 20.3 182.6 19.2 C 182.6 18.2 183.5 17.5 184.7 17.5 C 185.4 17.5 186 17.7 186.5 18.1 Z M 192.4 20.8 C 192.4 18.8 193.8 17.5 195.4 17.5 C 196.4 17.5 197.4 18.1 197.8 19.2 C 197.83 19.18 197.8 14.5 197.8 14.5 L 198.3 14.5 L 198.3 24 L 197.9 24 L 197.9 22.4 C 197.9 22.4 197.85 22.39 197.8 22.4 C 197.4 23.6 196.4 24.1 195.4 24.1 C 193.9 24.1 192.4 22.8 192.4 20.8 Z M 197.8 20.8 C 197.8 19.1 196.7 18 195.4 18 C 194.1 18 193 19.1 193 20.8 C 193 22.5 194.1 23.6 195.4 23.6 C 196.7 23.6 197.8 22.5 197.8 20.8 Z M 202.9 16.5 L 202.4 16.5 L 203.8 14.6 L 204.4 14.6 L 202.9 16.5 Z M 205.7 21 C 205.7 21 200.7 21 200.7 21 C 200.8 22.6 201.8 23.6 203.2 23.6 C 204 23.6 204.8 23.4 205.5 22.7 C 205.5 22.7 205.5 23.3 205.5 23.3 C 204.8 23.8 204 24.1 203.2 24.1 C 201.4 24.1 200.2 22.8 200.2 20.8 C 200.2 18.8 201.6 17.5 203.1 17.5 C 204.5 17.5 205.7 18.6 205.7 20.7 C 205.7 20.8 205.7 20.9 205.7 21 Z M 205.2 20.5 C 205.2 18.8 204.2 18 203.1 18 C 201.9 18 200.8 19 200.7 20.5 C 200.7 20.5 205.2 20.5 205.2 20.5 Z M 210.2 23.6 C 210.7 23.6 211.3 23.5 211.9 23.1 C 211.9 23.1 211.9 23.7 211.9 23.7 C 211.4 24 210.8 24.1 210.2 24.1 C 208.4 24.1 207.1 22.7 207.1 20.8 C 207.1 18.9 208.4 17.5 210.2 17.5 C 210.7 17.5 211.3 17.6 211.9 18 C 211.9 18 211.9 18.5 211.9 18.5 C 211.3 18.1 210.7 18 210.1 18 C 208.8 18 207.6 19.1 207.6 20.8 C 207.6 22.5 208.8 23.6 210.2 23.6 Z M 213.7 14.5 L 214.2 14.5 L 214.2 24 L 213.7 24 L 213.7 14.5 Z M 216.4 15.3 C 216.4 15.1 216.6 14.9 216.8 14.9 C 217 14.9 217.2 15.1 217.2 15.3 C 217.2 15.5 217 15.7 216.8 15.7 C 216.6 15.7 216.4 15.5 216.4 15.3 Z M 216.6 17.6 L 217.1 17.6 L 217.1 24 L 216.6 24 L 216.6 17.6 Z M 222.9 18.1 C 222.9 18.1 222.9 18.6 222.9 18.6 C 222.4 18.3 221.8 18 221.1 18 C 220.2 18 219.5 18.5 219.5 19.2 C 219.5 19.9 220.2 20.2 221.2 20.5 C 222.2 20.9 223.2 21.2 223.2 22.3 C 223.2 23.4 222.4 24.1 221.1 24.1 C 220.3 24.1 219.6 23.9 218.9 23.4 C 218.9 23.4 218.9 22.7 218.9 22.7 C 219.5 23.3 220.2 23.6 221.1 23.6 C 222.1 23.6 222.7 23.1 222.7 22.3 C 222.7 21.6 222 21.3 221 20.9 C 219.9 20.6 219 20.3 219 19.2 C 219 18.2 219.9 17.5 221.1 17.5 C 221.8 17.5 222.4 17.7 222.9 18.1 Z M 224.5 20.8 C 224.5 18.9 225.9 17.5 227.6 17.5 C 229.3 17.5 230.6 18.9 230.6 20.8 C 230.6 22.8 229.3 24.1 227.6 24.1 C 225.9 24.1 224.5 22.8 224.5 20.8 Z M 230.1 20.8 C 230.1 19 228.9 18 227.6 18 C 226.3 18 225 19 225 20.8 C 225 22.6 226.3 23.6 227.6 23.6 C 228.9 23.6 230.1 22.6 230.1 20.8 Z M 237.2 19.8 C 237.23 19.76 237.2 24 237.2 24 L 236.7 24 C 236.7 24 236.73 19.97 236.7 20 C 236.7 18.7 236.1 18 234.9 18 C 233.8 18 232.9 18.7 232.9 19.9 C 232.95 19.91 232.9 24 232.9 24 L 232.4 24 L 232.4 17.6 L 232.8 17.6 L 232.9 18.8 C 232.9 18.8 232.91 18.76 232.9 18.8 C 233.3 18 234 17.5 235 17.5 C 236.3 17.5 237.2 18.4 237.2 19.8 Z M 244.2 19.8 C 244.22 19.76 244.2 24 244.2 24 L 243.7 24 C 243.7 24 243.71 19.97 243.7 20 C 243.7 18.7 243.1 18 241.9 18 C 240.8 18 239.9 18.7 239.9 19.9 C 239.93 19.91 239.9 24 239.9 24 L 239.4 24 L 239.4 17.6 L 239.8 17.6 L 239.9 18.8 C 239.9 18.8 239.9 18.76 239.9 18.8 C 240.2 18 241 17.5 242 17.5 C 243.3 17.5 244.2 18.4 244.2 19.8 Z M 248.7 16.5 L 248.2 16.5 L 249.7 14.6 L 250.2 14.6 L 248.7 16.5 Z M 251.5 21 C 251.5 21 246.5 21 246.5 21 C 246.6 22.6 247.6 23.6 249 23.6 C 249.8 23.6 250.6 23.4 251.3 22.7 C 251.3 22.7 251.3 23.3 251.3 23.3 C 250.6 23.8 249.8 24.1 249 24.1 C 247.2 24.1 246 22.8 246 20.8 C 246 18.8 247.4 17.5 248.9 17.5 C 250.3 17.5 251.5 18.6 251.5 20.7 C 251.5 20.8 251.5 20.9 251.5 21 Z M 251 20.5 C 251 18.8 250 18 248.9 18 C 247.7 18 246.6 19 246.5 20.5 C 246.5 20.5 251 20.5 251 20.5 Z M 256.9 18.1 C 256.9 18.1 256.9 18.6 256.9 18.6 C 256.4 18.3 255.8 18 255.1 18 C 254.1 18 253.5 18.5 253.5 19.2 C 253.5 19.9 254.2 20.2 255.2 20.5 C 256.2 20.9 257.2 21.2 257.2 22.3 C 257.2 23.4 256.3 24.1 255.1 24.1 C 254.3 24.1 253.5 23.9 252.9 23.4 C 252.9 23.4 252.9 22.7 252.9 22.7 C 253.5 23.3 254.2 23.6 255.1 23.6 C 256.1 23.6 256.7 23.1 256.7 22.3 C 256.7 21.6 256 21.3 255 20.9 C 253.9 20.6 253 20.3 253 19.2 C 253 18.2 253.9 17.5 255.1 17.5 C 255.8 17.5 256.4 17.7 256.9 18.1 Z M 268.4 21 C 268.4 21 263.3 21 263.3 21 C 263.4 22.6 264.5 23.6 265.9 23.6 C 266.7 23.6 267.5 23.4 268.2 22.7 C 268.2 22.7 268.2 23.3 268.2 23.3 C 267.5 23.8 266.7 24.1 265.9 24.1 C 264.1 24.1 262.8 22.8 262.8 20.8 C 262.8 18.8 264.2 17.5 265.8 17.5 C 267.2 17.5 268.4 18.6 268.4 20.7 C 268.4 20.8 268.4 20.9 268.4 21 Z M 267.9 20.5 C 267.9 18.8 266.9 18 265.8 18 C 264.6 18 263.5 19 263.3 20.5 C 263.3 20.5 267.9 20.5 267.9 20.5 Z M 270.8 17.6 L 272.7 17.6 L 272.7 18.1 L 270.8 18.1 C 270.8 18.1 270.84 22 270.8 22 C 270.8 23.2 271.5 23.6 272.4 23.6 C 272.6 23.6 272.7 23.6 272.9 23.6 C 272.9 23.6 272.9 24 272.9 24 C 272.8 24 272.6 24.1 272.3 24.1 C 271.2 24.1 270.3 23.4 270.3 22 C 270.33 22.02 270.3 18.1 270.3 18.1 L 269.3 18.1 L 269.3 17.6 L 270.3 17.6 L 270.3 16.1 L 270.8 16.1 L 270.8 17.6 Z M 278.1 20.8 C 278.1 18.9 279.4 17.5 281.1 17.5 C 282.8 17.5 284.1 18.9 284.1 20.8 C 284.1 22.8 282.8 24.1 281.1 24.1 C 279.4 24.1 278.1 22.8 278.1 20.8 Z M 283.6 20.8 C 283.6 19 282.4 18 281.1 18 C 279.8 18 278.6 19 278.6 20.8 C 278.6 22.6 279.8 23.6 281.1 23.6 C 282.4 23.6 283.6 22.6 283.6 20.8 Z M 285.9 21.7 C 285.88 21.68 285.9 17.6 285.9 17.6 L 286.4 17.6 C 286.4 17.6 286.38 21.71 286.4 21.7 C 286.4 22.9 287.1 23.6 288.3 23.6 C 289.4 23.6 290.2 22.9 290.2 21.7 C 290.17 21.7 290.2 17.6 290.2 17.6 L 290.7 17.6 C 290.7 17.6 290.68 21.67 290.7 21.7 C 290.7 23.1 289.7 24.1 288.3 24.1 C 286.8 24.1 285.9 23.1 285.9 21.7 Z M 292.1 17.6 L 292.7 17.6 L 294.8 23.4 L 294.8 23.4 L 296.9 17.6 L 297.4 17.6 L 295 24 L 294.5 24 L 292.1 17.6 Z M 303.9 21 C 303.9 21 298.8 21 298.8 21 C 298.9 22.6 299.9 23.6 301.4 23.6 C 302.1 23.6 302.9 23.4 303.6 22.7 C 303.6 22.7 303.6 23.3 303.6 23.3 C 303 23.8 302.2 24.1 301.3 24.1 C 299.5 24.1 298.3 22.8 298.3 20.8 C 298.3 18.8 299.7 17.5 301.2 17.5 C 302.7 17.5 303.9 18.6 303.9 20.7 C 303.9 20.8 303.9 20.9 303.9 21 Z M 303.4 20.5 C 303.4 18.8 302.3 18 301.2 18 C 300 18 298.9 19 298.8 20.5 C 298.8 20.5 303.4 20.5 303.4 20.5 Z M 305.7 17.6 L 306.1 17.6 L 306.1 18.8 C 306.1 18.8 306.14 18.82 306.1 18.8 C 306.5 17.9 307.4 17.6 308 17.6 C 308.2 17.6 308.3 17.6 308.4 17.6 C 308.4 17.6 308.4 18.1 308.4 18.1 C 308.3 18.1 308.2 18.1 308 18.1 C 307.1 18.1 306.2 18.7 306.2 20 C 306.18 19.97 306.2 24 306.2 24 L 305.7 24 L 305.7 17.6 Z M 310.4 17.6 L 312.3 17.6 L 312.3 18.1 L 310.4 18.1 C 310.4 18.1 310.43 22 310.4 22 C 310.4 23.2 311.1 23.6 312 23.6 C 312.1 23.6 312.3 23.6 312.5 23.6 C 312.5 23.6 312.5 24 312.5 24 C 312.4 24 312.2 24.1 311.9 24.1 C 310.8 24.1 309.9 23.4 309.9 22 C 309.93 22.02 309.9 18.1 309.9 18.1 L 308.9 18.1 L 308.9 17.6 L 309.9 17.6 L 309.9 16.1 L 310.4 16.1 L 310.4 17.6 Z M 320.7 23.6 C 321.2 23.6 321.9 23.5 322.4 23.1 C 322.4 23.1 322.4 23.7 322.4 23.7 C 322 24 321.4 24.1 320.7 24.1 C 319 24.1 317.6 22.7 317.6 20.8 C 317.6 18.9 319 17.5 320.7 17.5 C 321.3 17.5 321.9 17.6 322.4 18 C 322.4 18 322.4 18.5 322.4 18.5 C 321.9 18.1 321.3 18 320.7 18 C 319.4 18 318.1 19.1 318.1 20.8 C 318.1 22.5 319.4 23.6 320.7 23.6 Z M 323.6 20.8 C 323.6 18.9 325 17.5 326.7 17.5 C 328.3 17.5 329.7 18.9 329.7 20.8 C 329.7 22.8 328.3 24.1 326.7 24.1 C 325 24.1 323.6 22.8 323.6 20.8 Z M 329.2 20.8 C 329.2 19 328 18 326.7 18 C 325.3 18 324.1 19 324.1 20.8 C 324.1 22.6 325.4 23.6 326.7 23.6 C 328 23.6 329.2 22.6 329.2 20.8 Z M 339.2 19.7 C 339.25 19.68 339.2 24 339.2 24 L 338.7 24 C 338.7 24 338.74 19.73 338.7 19.7 C 338.7 18.7 338.3 18 337.3 18 C 336.2 18 335.6 18.8 335.6 19.7 C 335.63 19.74 335.6 24 335.6 24 L 335.1 24 C 335.1 24 335.13 19.73 335.1 19.7 C 335.1 18.7 334.6 18 333.6 18 C 332.6 18 332 18.8 332 19.8 C 332.02 19.76 332 24 332 24 L 331.5 24 L 331.5 17.6 L 331.9 17.6 L 332 18.7 C 332 18.7 331.99 18.68 332 18.7 C 332.3 18 332.9 17.5 333.7 17.5 C 334.7 17.5 335.2 18 335.5 18.8 C 335.8 18 336.4 17.5 337.3 17.5 C 338.6 17.5 339.2 18.4 339.2 19.7 Z M 349.2 19.7 C 349.18 19.68 349.2 24 349.2 24 L 348.7 24 C 348.7 24 348.68 19.73 348.7 19.7 C 348.7 18.7 348.2 18 347.2 18 C 346.2 18 345.6 18.8 345.6 19.7 C 345.57 19.74 345.6 24 345.6 24 L 345.1 24 C 345.1 24 345.07 19.73 345.1 19.7 C 345.1 18.7 344.6 18 343.6 18 C 342.5 18 342 18.8 342 19.8 C 341.96 19.76 342 24 342 24 L 341.5 24 L 341.5 17.6 L 341.8 17.6 L 341.9 18.7 C 341.9 18.7 341.92 18.68 341.9 18.7 C 342.2 18 342.8 17.5 343.6 17.5 C 344.6 17.5 345.2 18 345.4 18.8 C 345.7 18 346.3 17.5 347.2 17.5 C 348.5 17.5 349.2 18.4 349.2 19.7 Z M 356.5 21 C 356.5 21 351.4 21 351.4 21 C 351.5 22.6 352.6 23.6 354 23.6 C 354.8 23.6 355.6 23.4 356.3 22.7 C 356.3 22.7 356.3 23.3 356.3 23.3 C 355.6 23.8 354.8 24.1 354 24.1 C 352.2 24.1 350.9 22.8 350.9 20.8 C 350.9 18.8 352.4 17.5 353.9 17.5 C 355.3 17.5 356.5 18.6 356.5 20.7 C 356.5 20.8 356.5 20.9 356.5 21 Z M 356 20.5 C 356 18.8 355 18 353.9 18 C 352.7 18 351.6 19 351.5 20.5 C 351.5 20.5 356 20.5 356 20.5 Z M 362.2 20.8 C 362.2 18.9 363.6 17.5 365.2 17.5 C 366.9 17.5 368.3 18.9 368.3 20.8 C 368.3 22.8 366.9 24.1 365.2 24.1 C 363.6 24.1 362.2 22.8 362.2 20.8 Z M 367.8 20.8 C 367.8 19 366.5 18 365.2 18 C 363.9 18 362.7 19 362.7 20.8 C 362.7 22.6 363.9 23.6 365.2 23.6 C 366.5 23.6 367.8 22.6 367.8 20.8 Z M 374.9 19.8 C 374.88 19.76 374.9 24 374.9 24 L 374.4 24 C 374.4 24 374.38 19.97 374.4 20 C 374.4 18.7 373.7 18 372.6 18 C 371.5 18 370.6 18.7 370.6 19.9 C 370.59 19.91 370.6 24 370.6 24 L 370.1 24 L 370.1 17.6 L 370.5 17.6 L 370.5 18.8 C 370.5 18.8 370.56 18.76 370.6 18.8 C 370.9 18 371.7 17.5 372.6 17.5 C 374 17.5 374.9 18.4 374.9 19.8 Z M 381.4 17.6 L 381.8 17.6 C 381.8 17.6 381.85 19.24 381.9 19.2 C 382.3 18.1 383.4 17.5 384.4 17.5 C 385.9 17.5 387.3 18.8 387.3 20.8 C 387.3 22.8 385.9 24.1 384.4 24.1 C 383.3 24.1 382.3 23.5 381.9 22.5 C 381.89 22.45 381.9 26.6 381.9 26.6 L 381.4 26.6 L 381.4 17.6 Z M 386.8 20.8 C 386.8 19.1 385.6 18 384.3 18 C 383 18 381.9 19.1 381.9 20.8 C 381.9 22.5 383 23.6 384.3 23.6 C 385.6 23.6 386.8 22.5 386.8 20.8 Z M 394.2 21 C 394.2 21 389.2 21 389.2 21 C 389.2 22.6 390.3 23.6 391.7 23.6 C 392.5 23.6 393.3 23.4 394 22.7 C 394 22.7 394 23.3 394 23.3 C 393.3 23.8 392.5 24.1 391.7 24.1 C 389.9 24.1 388.7 22.8 388.7 20.8 C 388.7 18.8 390.1 17.5 391.6 17.5 C 393 17.5 394.2 18.6 394.2 20.7 C 394.2 20.8 394.2 20.9 394.2 21 Z M 393.7 20.5 C 393.7 18.8 392.7 18 391.6 18 C 390.4 18 389.3 19 389.2 20.5 C 389.2 20.5 393.7 20.5 393.7 20.5 Z M 396 21.7 C 395.96 21.68 396 17.6 396 17.6 L 396.5 17.6 C 396.5 17.6 396.46 21.71 396.5 21.7 C 396.5 22.9 397.2 23.6 398.3 23.6 C 399.5 23.6 400.3 22.9 400.3 21.7 C 400.25 21.7 400.3 17.6 400.3 17.6 L 400.8 17.6 C 400.8 17.6 400.75 21.67 400.8 21.7 C 400.8 23.1 399.8 24.1 398.3 24.1 C 396.9 24.1 396 23.1 396 21.7 Z " stroke="none" fill="#000"/>
  </g>
  <g id="Polygon17972">
    <path d="M 5.5 1.1 C 5.5 1.1 5.5 1.7 5.5 1.7 C 4.9 1.2 4.1 1 3.5 1 C 2.3 1 1.4 1.7 1.4 2.7 C 1.4 3.7 2.3 4.2 3.6 4.8 C 4.9 5.4 5.9 6 5.9 7.3 C 5.9 8.8 4.7 9.7 3.2 9.7 C 2.2 9.7 1.4 9.4 0.8 8.9 C 0.8 8.9 0.8 8.2 0.8 8.2 C 1.4 8.9 2.3 9.3 3.2 9.3 C 4.4 9.3 5.4 8.5 5.4 7.4 C 5.4 6.3 4.5 5.8 3.2 5.2 C 1.9 4.6 0.9 4.1 0.9 2.8 C 0.9 1.4 2 0.5 3.5 0.5 C 4.2 0.5 4.9 0.8 5.5 1.1 Z M 7.3 6.4 C 7.3 4.5 8.6 3.1 10.3 3.1 C 12 3.1 13.3 4.5 13.3 6.4 C 13.3 8.4 12 9.7 10.3 9.7 C 8.6 9.7 7.3 8.4 7.3 6.4 Z M 12.8 6.4 C 12.8 4.6 11.6 3.6 10.3 3.6 C 9 3.6 7.8 4.6 7.8 6.4 C 7.8 8.2 9 9.2 10.3 9.2 C 11.6 9.2 12.8 8.2 12.8 6.4 Z M 15.1 7.3 C 15.08 7.28 15.1 3.2 15.1 3.2 L 15.6 3.2 C 15.6 3.2 15.59 7.31 15.6 7.3 C 15.6 8.5 16.3 9.2 17.5 9.2 C 18.6 9.2 19.4 8.5 19.4 7.3 C 19.38 7.3 19.4 3.2 19.4 3.2 L 19.9 3.2 C 19.9 3.2 19.88 7.27 19.9 7.3 C 19.9 8.7 18.9 9.7 17.5 9.7 C 16 9.7 15.1 8.7 15.1 7.3 Z M 21.3 3.2 L 21.9 3.2 L 24 9 L 24 9 L 26.1 3.2 L 26.6 3.2 L 24.3 9.6 L 23.7 9.6 L 21.3 3.2 Z M 33.1 6.6 C 33.1 6.6 28 6.6 28 6.6 C 28.1 8.2 29.1 9.2 30.6 9.2 C 31.3 9.2 32.1 9 32.8 8.3 C 32.8 8.3 32.8 8.9 32.8 8.9 C 32.2 9.4 31.4 9.7 30.5 9.7 C 28.8 9.7 27.5 8.4 27.5 6.4 C 27.5 4.4 28.9 3.1 30.5 3.1 C 31.9 3.1 33.1 4.2 33.1 6.3 C 33.1 6.4 33.1 6.5 33.1 6.6 Z M 32.6 6.1 C 32.6 4.4 31.5 3.6 30.5 3.6 C 29.2 3.6 28.1 4.6 28 6.1 C 28 6.1 32.6 6.1 32.6 6.1 Z M 39.7 5.4 C 39.67 5.36 39.7 9.6 39.7 9.6 L 39.2 9.6 C 39.2 9.6 39.17 5.57 39.2 5.6 C 39.2 4.3 38.5 3.6 37.4 3.6 C 36.3 3.6 35.4 4.3 35.4 5.5 C 35.39 5.51 35.4 9.6 35.4 9.6 L 34.9 9.6 L 34.9 3.2 L 35.3 3.2 L 35.3 4.4 C 35.3 4.4 35.35 4.36 35.4 4.4 C 35.7 3.6 36.5 3.1 37.4 3.1 C 38.8 3.1 39.7 4 39.7 5.4 Z M 42.5 3.2 L 44.4 3.2 L 44.4 3.7 L 42.5 3.7 C 42.5 3.7 42.49 7.6 42.5 7.6 C 42.5 8.8 43.1 9.2 44 9.2 C 44.2 9.2 44.4 9.2 44.6 9.2 C 44.6 9.2 44.6 9.6 44.6 9.6 C 44.5 9.6 44.2 9.7 44 9.7 C 42.8 9.7 42 9 42 7.6 C 41.99 7.62 42 3.7 42 3.7 L 41 3.7 L 41 3.2 L 42 3.2 L 42 1.7 L 42.5 1.7 L 42.5 3.2 Z M 52.8 2.1 L 52.4 2.1 L 53.8 0.2 L 54.4 0.2 L 52.8 2.1 Z M 55.7 6.6 C 55.7 6.6 50.6 6.6 50.6 6.6 C 50.7 8.2 51.7 9.2 53.2 9.2 C 54 9.2 54.8 9 55.5 8.3 C 55.5 8.3 55.5 8.9 55.5 8.9 C 54.8 9.4 54 9.7 53.2 9.7 C 51.4 9.7 50.1 8.4 50.1 6.4 C 50.1 4.4 51.5 3.1 53.1 3.1 C 54.5 3.1 55.7 4.2 55.7 6.3 C 55.7 6.4 55.7 6.5 55.7 6.6 Z M 55.2 6.1 C 55.2 4.4 54.2 3.6 53.1 3.6 C 51.9 3.6 50.7 4.6 50.6 6.1 C 50.6 6.1 55.2 6.1 55.2 6.1 Z M 58.1 3.2 L 60 3.2 L 60 3.7 L 58.1 3.7 C 58.1 3.7 58.13 7.6 58.1 7.6 C 58.1 8.8 58.8 9.2 59.7 9.2 C 59.8 9.2 60 9.2 60.2 9.2 C 60.2 9.2 60.2 9.6 60.2 9.6 C 60.1 9.6 59.9 9.7 59.6 9.7 C 58.5 9.7 57.6 9 57.6 7.6 C 57.62 7.62 57.6 3.7 57.6 3.7 L 56.6 3.7 L 56.6 3.2 L 57.6 3.2 L 57.6 1.7 L 58.1 1.7 L 58.1 3.2 Z M 61.6 3.2 L 62 3.2 L 62 4.4 C 62 4.4 62.03 4.42 62 4.4 C 62.4 3.5 63.3 3.2 63.9 3.2 C 64 3.2 64.2 3.2 64.3 3.2 C 64.3 3.2 64.3 3.7 64.3 3.7 C 64.2 3.7 64 3.7 63.9 3.7 C 63 3.7 62.1 4.3 62.1 5.6 C 62.06 5.57 62.1 9.6 62.1 9.6 L 61.6 9.6 L 61.6 3.2 Z M 65.5 0.9 C 65.5 0.7 65.7 0.5 65.9 0.5 C 66.2 0.5 66.3 0.7 66.3 0.9 C 66.3 1.1 66.2 1.3 65.9 1.3 C 65.7 1.3 65.5 1.1 65.5 0.9 Z M 65.7 3.2 L 66.2 3.2 L 66.2 9.6 L 65.7 9.6 L 65.7 3.2 Z M 73.4 4.8 C 73.44 4.84 73.5 3.2 73.5 3.2 L 73.9 3.2 L 73.9 12.2 L 73.4 12.2 C 73.4 12.2 73.4 8.04 73.4 8 C 73 9.1 72 9.7 70.9 9.7 C 69.4 9.7 68 8.4 68 6.4 C 68 4.4 69.4 3.1 70.9 3.1 C 72 3.1 73 3.7 73.4 4.8 Z M 68.5 6.4 C 68.5 8.1 69.7 9.2 71 9.2 C 72.3 9.2 73.4 8.1 73.4 6.4 C 73.4 4.7 72.3 3.6 71 3.6 C 69.7 3.6 68.5 4.7 68.5 6.4 Z M 76.1 7.3 C 76.1 7.28 76.1 3.2 76.1 3.2 L 76.6 3.2 C 76.6 3.2 76.61 7.31 76.6 7.3 C 76.6 8.5 77.3 9.2 78.5 9.2 C 79.7 9.2 80.4 8.5 80.4 7.3 C 80.4 7.3 80.4 3.2 80.4 3.2 L 80.9 3.2 C 80.9 3.2 80.9 7.27 80.9 7.3 C 80.9 8.7 80 9.7 78.5 9.7 C 77 9.7 76.1 8.7 76.1 7.3 Z M 85.4 2.1 L 84.9 2.1 L 86.3 0.2 L 86.9 0.2 L 85.4 2.1 Z M 88.2 6.6 C 88.2 6.6 83.2 6.6 83.2 6.6 C 83.2 8.2 84.3 9.2 85.7 9.2 C 86.5 9.2 87.3 9 88 8.3 C 88 8.3 88 8.9 88 8.9 C 87.3 9.4 86.5 9.7 85.7 9.7 C 83.9 9.7 82.7 8.4 82.7 6.4 C 82.7 4.4 84.1 3.1 85.6 3.1 C 87 3.1 88.2 4.2 88.2 6.3 C 88.2 6.4 88.2 6.5 88.2 6.6 Z M 87.7 6.1 C 87.7 4.4 86.7 3.6 85.6 3.6 C 84.4 3.6 83.3 4.6 83.2 6.1 C 83.2 6.1 87.7 6.1 87.7 6.1 Z M 93.6 3.7 C 93.6 3.7 93.6 4.2 93.6 4.2 C 93.1 3.9 92.5 3.6 91.8 3.6 C 90.8 3.6 90.2 4.1 90.2 4.8 C 90.2 5.5 90.9 5.8 91.9 6.1 C 92.9 6.5 93.9 6.8 93.9 7.9 C 93.9 9 93 9.7 91.7 9.7 C 91 9.7 90.2 9.5 89.6 9 C 89.6 9 89.6 8.3 89.6 8.3 C 90.1 8.9 90.9 9.2 91.7 9.2 C 92.7 9.2 93.4 8.7 93.4 7.9 C 93.4 7.2 92.7 6.9 91.7 6.5 C 90.6 6.2 89.7 5.9 89.7 4.8 C 89.7 3.8 90.5 3.1 91.8 3.1 C 92.4 3.1 93.1 3.3 93.6 3.7 Z M 95.6 8.6 C 95.57 8.64 95.6 8.2 95.6 8.2 L 96.1 8.2 C 96.1 8.2 96.07 8.63 96.1 8.6 C 96.1 9.6 95.7 10.6 95.4 11.2 C 95.4 11.2 95 11.2 95 11.2 C 95.3 10.6 95.6 9.6 95.6 8.6 Z M 103 0.1 L 103.5 0.1 L 103.5 9.6 L 103 9.6 L 103 0.1 Z M 110.9 6.6 C 110.9 6.6 105.8 6.6 105.8 6.6 C 105.9 8.2 107 9.2 108.4 9.2 C 109.2 9.2 110 9 110.7 8.3 C 110.7 8.3 110.7 8.9 110.7 8.9 C 110 9.4 109.2 9.7 108.4 9.7 C 106.6 9.7 105.3 8.4 105.3 6.4 C 105.3 4.4 106.8 3.1 108.3 3.1 C 109.7 3.1 110.9 4.2 110.9 6.3 C 110.9 6.4 110.9 6.5 110.9 6.6 Z M 110.4 6.1 C 110.4 4.4 109.4 3.6 108.3 3.6 C 107.1 3.6 106 4.6 105.9 6.1 C 105.9 6.1 110.4 6.1 110.4 6.1 Z M 116.3 3.7 C 116.3 3.7 116.3 4.2 116.3 4.2 C 115.8 3.9 115.2 3.6 114.5 3.6 C 113.5 3.6 112.9 4.1 112.9 4.8 C 112.9 5.5 113.6 5.8 114.6 6.1 C 115.6 6.5 116.6 6.8 116.6 7.9 C 116.6 9 115.7 9.7 114.4 9.7 C 113.7 9.7 112.9 9.5 112.3 9 C 112.3 9 112.3 8.3 112.3 8.3 C 112.8 8.9 113.6 9.2 114.4 9.2 C 115.4 9.2 116.1 8.7 116.1 7.9 C 116.1 7.2 115.4 6.9 114.3 6.5 C 113.3 6.2 112.4 5.9 112.4 4.8 C 112.4 3.8 113.2 3.1 114.5 3.1 C 115.1 3.1 115.8 3.3 116.3 3.7 Z M 122.9 0.9 C 122.9 0.7 123.1 0.5 123.3 0.5 C 123.6 0.5 123.8 0.7 123.8 0.9 C 123.8 1.1 123.6 1.3 123.3 1.3 C 123.1 1.3 122.9 1.1 122.9 0.9 Z M 123.1 3.2 L 123.6 3.2 L 123.6 9.6 L 123.1 9.6 L 123.1 3.2 Z M 130.7 5.4 C 130.7 5.36 130.7 9.6 130.7 9.6 L 130.2 9.6 C 130.2 9.6 130.2 5.57 130.2 5.6 C 130.2 4.3 129.5 3.6 128.4 3.6 C 127.3 3.6 126.4 4.3 126.4 5.5 C 126.42 5.51 126.4 9.6 126.4 9.6 L 125.9 9.6 L 125.9 3.2 L 126.3 3.2 L 126.4 4.4 C 126.4 4.4 126.38 4.36 126.4 4.4 C 126.7 3.6 127.5 3.1 128.5 3.1 C 129.8 3.1 130.7 4 130.7 5.4 Z M 133.5 3.2 L 135.4 3.2 L 135.4 3.7 L 133.5 3.7 C 133.5 3.7 133.52 7.6 133.5 7.6 C 133.5 8.8 134.2 9.2 135.1 9.2 C 135.2 9.2 135.4 9.2 135.6 9.2 C 135.6 9.2 135.6 9.6 135.6 9.6 C 135.5 9.6 135.3 9.7 135 9.7 C 133.8 9.7 133 9 133 7.6 C 133.02 7.62 133 3.7 133 3.7 L 132 3.7 L 132 3.2 L 133 3.2 L 133 1.7 L 133.5 1.7 L 133.5 3.2 Z M 139.1 2.1 L 138.7 2.1 L 140.1 0.2 L 140.7 0.2 L 139.1 2.1 Z M 142 6.6 C 142 6.6 136.9 6.6 136.9 6.6 C 137 8.2 138 9.2 139.5 9.2 C 140.3 9.2 141.1 9 141.8 8.3 C 141.8 8.3 141.8 8.9 141.8 8.9 C 141.1 9.4 140.3 9.7 139.5 9.7 C 137.7 9.7 136.4 8.4 136.4 6.4 C 136.4 4.4 137.8 3.1 139.4 3.1 C 140.8 3.1 142 4.2 142 6.3 C 142 6.4 142 6.5 142 6.6 Z M 141.5 6.1 C 141.5 4.4 140.5 3.6 139.4 3.6 C 138.2 3.6 137 4.6 136.9 6.1 C 136.9 6.1 141.5 6.1 141.5 6.1 Z M 143.8 3.2 L 144.2 3.2 L 144.3 4.4 C 144.3 4.4 144.27 4.42 144.3 4.4 C 144.7 3.5 145.5 3.2 146.2 3.2 C 146.3 3.2 146.4 3.2 146.5 3.2 C 146.5 3.2 146.5 3.7 146.5 3.7 C 146.4 3.7 146.3 3.7 146.2 3.7 C 145.3 3.7 144.3 4.3 144.3 5.6 C 144.31 5.57 144.3 9.6 144.3 9.6 L 143.8 9.6 L 143.8 3.2 Z M 147.8 0.9 C 147.8 0.7 147.9 0.5 148.2 0.5 C 148.4 0.5 148.6 0.7 148.6 0.9 C 148.6 1.1 148.4 1.3 148.2 1.3 C 147.9 1.3 147.8 1.1 147.8 0.9 Z M 147.9 3.2 L 148.4 3.2 L 148.4 9.6 L 147.9 9.6 L 147.9 3.2 Z M 155.8 6.6 C 155.8 6.6 150.8 6.6 150.8 6.6 C 150.9 8.2 151.9 9.2 153.3 9.2 C 154.1 9.2 154.9 9 155.6 8.3 C 155.6 8.3 155.6 8.9 155.6 8.9 C 154.9 9.4 154.1 9.7 153.3 9.7 C 151.5 9.7 150.3 8.4 150.3 6.4 C 150.3 4.4 151.7 3.1 153.2 3.1 C 154.7 3.1 155.9 4.2 155.9 6.3 C 155.9 6.4 155.9 6.5 155.8 6.6 Z M 155.4 6.1 C 155.3 4.4 154.3 3.6 153.2 3.6 C 152 3.6 150.9 4.6 150.8 6.1 C 150.8 6.1 155.4 6.1 155.4 6.1 Z M 157.6 7.3 C 157.58 7.28 157.6 3.2 157.6 3.2 L 158.1 3.2 C 158.1 3.2 158.08 7.31 158.1 7.3 C 158.1 8.5 158.8 9.2 160 9.2 C 161.1 9.2 161.9 8.5 161.9 7.3 C 161.88 7.3 161.9 3.2 161.9 3.2 L 162.4 3.2 C 162.4 3.2 162.38 7.27 162.4 7.3 C 162.4 8.7 161.4 9.7 160 9.7 C 158.5 9.7 157.6 8.7 157.6 7.3 Z M 164.6 3.2 L 165 3.2 L 165 4.4 C 165 4.4 165.04 4.42 165 4.4 C 165.4 3.5 166.3 3.2 166.9 3.2 C 167.1 3.2 167.2 3.2 167.3 3.2 C 167.3 3.2 167.3 3.7 167.3 3.7 C 167.2 3.7 167.1 3.7 166.9 3.7 C 166 3.7 165.1 4.3 165.1 5.6 C 165.08 5.57 165.1 9.6 165.1 9.6 L 164.6 9.6 L 164.6 3.2 Z M 172.1 3.7 C 172.1 3.7 172.1 4.2 172.1 4.2 C 171.6 3.9 171 3.6 170.3 3.6 C 169.4 3.6 168.7 4.1 168.7 4.8 C 168.7 5.5 169.4 5.8 170.4 6.1 C 171.4 6.5 172.4 6.8 172.4 7.9 C 172.4 9 171.6 9.7 170.3 9.7 C 169.5 9.7 168.8 9.5 168.1 9 C 168.1 9 168.1 8.3 168.1 8.3 C 168.7 8.9 169.4 9.2 170.3 9.2 C 171.3 9.2 171.9 8.7 171.9 7.9 C 171.9 7.2 171.2 6.9 170.2 6.5 C 169.1 6.2 168.2 5.9 168.2 4.8 C 168.2 3.8 169.1 3.1 170.3 3.1 C 171 3.1 171.6 3.3 172.1 3.7 Z M 178.5 6.4 C 178.5 4.4 179.9 3.1 181.4 3.1 C 182.4 3.1 183.4 3.7 183.8 4.8 C 183.84 4.78 183.8 0.1 183.8 0.1 L 184.3 0.1 L 184.3 9.6 L 183.9 9.6 L 183.9 8 C 183.9 8 183.86 7.99 183.9 8 C 183.4 9.2 182.4 9.7 181.4 9.7 C 179.9 9.7 178.5 8.4 178.5 6.4 Z M 183.9 6.4 C 183.9 4.7 182.7 3.6 181.4 3.6 C 180.1 3.6 179 4.7 179 6.4 C 179 8.1 180.1 9.2 181.4 9.2 C 182.7 9.2 183.9 8.1 183.9 6.4 Z M 191.7 6.6 C 191.7 6.6 186.7 6.6 186.7 6.6 C 186.8 8.2 187.8 9.2 189.2 9.2 C 190 9.2 190.8 9 191.5 8.3 C 191.5 8.3 191.5 8.9 191.5 8.9 C 190.8 9.4 190 9.7 189.2 9.7 C 187.4 9.7 186.2 8.4 186.2 6.4 C 186.2 4.4 187.6 3.1 189.1 3.1 C 190.5 3.1 191.8 4.2 191.8 6.3 C 191.8 6.4 191.7 6.5 191.7 6.6 Z M 191.3 6.1 C 191.2 4.4 190.2 3.6 189.1 3.6 C 187.9 3.6 186.8 4.6 186.7 6.1 C 186.7 6.1 191.3 6.1 191.3 6.1 Z M 200.9 9.2 C 201.4 9.2 202.1 9.1 202.6 8.7 C 202.6 8.7 202.6 9.3 202.6 9.3 C 202.1 9.6 201.5 9.7 200.9 9.7 C 199.2 9.7 197.8 8.3 197.8 6.4 C 197.8 4.5 199.2 3.1 200.9 3.1 C 201.5 3.1 202.1 3.2 202.6 3.6 C 202.6 3.6 202.6 4.1 202.6 4.1 C 202.1 3.7 201.5 3.6 200.9 3.6 C 199.5 3.6 198.3 4.7 198.3 6.4 C 198.3 8.1 199.6 9.2 200.9 9.2 Z M 203.8 6.4 C 203.8 4.4 205.2 3.1 206.7 3.1 C 207.7 3.1 208.7 3.7 209.2 4.8 C 209.19 4.82 209.3 3.2 209.3 3.2 L 209.7 3.2 L 209.7 9.6 L 209.3 9.6 C 209.3 9.6 209.19 8 209.2 8 C 208.7 9.2 207.7 9.7 206.7 9.7 C 205.2 9.7 203.8 8.4 203.8 6.4 Z M 209.2 6.4 C 209.2 4.7 208.1 3.6 206.7 3.6 C 205.4 3.6 204.3 4.7 204.3 6.4 C 204.3 8.1 205.4 9.2 206.7 9.2 C 208.1 9.2 209.2 8.1 209.2 6.4 Z M 212.4 4.8 C 212.9 3.7 213.9 3.1 214.9 3.1 C 216.4 3.1 217.8 4.4 217.8 6.4 C 217.8 8.4 216.4 9.7 214.9 9.7 C 213.9 9.7 212.9 9.2 212.4 8 C 212.41 7.99 212.3 9.6 212.3 9.6 L 211.9 9.6 L 211.9 0.1 L 212.4 0.1 C 212.4 0.1 212.44 4.79 212.4 4.8 Z M 212.4 6.4 C 212.4 8.1 213.6 9.2 214.9 9.2 C 216.2 9.2 217.3 8.1 217.3 6.4 C 217.3 4.7 216.2 3.6 214.9 3.6 C 213.5 3.6 212.4 4.7 212.4 6.4 Z M 219.5 0.9 C 219.5 0.7 219.7 0.5 219.9 0.5 C 220.2 0.5 220.4 0.7 220.4 0.9 C 220.4 1.1 220.2 1.3 219.9 1.3 C 219.7 1.3 219.5 1.1 219.5 0.9 Z M 219.7 3.2 L 220.2 3.2 L 220.2 9.6 L 219.7 9.6 L 219.7 3.2 Z M 227.3 5.4 C 227.3 5.36 227.3 9.6 227.3 9.6 L 226.8 9.6 C 226.8 9.6 226.8 5.57 226.8 5.6 C 226.8 4.3 226.1 3.6 225 3.6 C 223.9 3.6 223 4.3 223 5.5 C 223.01 5.51 223 9.6 223 9.6 L 222.5 9.6 L 222.5 3.2 L 222.9 3.2 L 223 4.4 C 223 4.4 222.98 4.36 223 4.4 C 223.3 3.6 224.1 3.1 225.1 3.1 C 226.4 3.1 227.3 4 227.3 5.4 Z M 234.6 6.6 C 234.6 6.6 229.6 6.6 229.6 6.6 C 229.6 8.2 230.7 9.2 232.1 9.2 C 232.9 9.2 233.7 9 234.4 8.3 C 234.4 8.3 234.4 8.9 234.4 8.9 C 233.7 9.4 232.9 9.7 232.1 9.7 C 230.3 9.7 229.1 8.4 229.1 6.4 C 229.1 4.4 230.5 3.1 232 3.1 C 233.4 3.1 234.6 4.2 234.6 6.3 C 234.6 6.4 234.6 6.5 234.6 6.6 Z M 234.1 6.1 C 234.1 4.4 233.1 3.6 232 3.6 C 230.8 3.6 229.7 4.6 229.6 6.1 C 229.6 6.1 234.1 6.1 234.1 6.1 Z M 244.7 3.7 C 244.7 3.7 244.7 4.2 244.7 4.2 C 244.2 3.9 243.6 3.6 242.9 3.6 C 241.9 3.6 241.3 4.1 241.3 4.8 C 241.3 5.5 242 5.8 243 6.1 C 244 6.5 245 6.8 245 7.9 C 245 9 244.1 9.7 242.9 9.7 C 242.1 9.7 241.3 9.5 240.7 9 C 240.7 9 240.7 8.3 240.7 8.3 C 241.3 8.9 242 9.2 242.9 9.2 C 243.9 9.2 244.5 8.7 244.5 7.9 C 244.5 7.2 243.8 6.9 242.8 6.5 C 241.7 6.2 240.8 5.9 240.8 4.8 C 240.8 3.8 241.6 3.1 242.9 3.1 C 243.6 3.1 244.2 3.3 244.7 3.7 Z M 246.3 6.4 C 246.3 4.5 247.7 3.1 249.4 3.1 C 251 3.1 252.4 4.5 252.4 6.4 C 252.4 8.4 251 9.7 249.4 9.7 C 247.7 9.7 246.3 8.4 246.3 6.4 Z M 251.9 6.4 C 251.9 4.6 250.7 3.6 249.4 3.6 C 248 3.6 246.8 4.6 246.8 6.4 C 246.8 8.2 248.1 9.2 249.4 9.2 C 250.7 9.2 251.9 8.2 251.9 6.4 Z M 259 5.4 C 259 5.36 259 9.6 259 9.6 L 258.5 9.6 C 258.5 9.6 258.5 5.57 258.5 5.6 C 258.5 4.3 257.8 3.6 256.7 3.6 C 255.6 3.6 254.7 4.3 254.7 5.5 C 254.72 5.51 254.7 9.6 254.7 9.6 L 254.2 9.6 L 254.2 3.2 L 254.6 3.2 L 254.7 4.4 C 254.7 4.4 254.68 4.36 254.7 4.4 C 255 3.6 255.8 3.1 256.8 3.1 C 258.1 3.1 259 4 259 5.4 Z M 261.8 3.2 L 263.7 3.2 L 263.7 3.7 L 261.8 3.7 C 261.8 3.7 261.82 7.6 261.8 7.6 C 261.8 8.8 262.5 9.2 263.4 9.2 C 263.5 9.2 263.7 9.2 263.9 9.2 C 263.9 9.2 263.9 9.6 263.9 9.6 C 263.8 9.6 263.6 9.7 263.3 9.7 C 262.1 9.7 261.3 9 261.3 7.6 C 261.32 7.62 261.3 3.7 261.3 3.7 L 260.3 3.7 L 260.3 3.2 L 261.3 3.2 L 261.3 1.7 L 261.8 1.7 L 261.8 3.2 Z M 273.4 3.7 C 273.4 3.7 273.4 4.2 273.4 4.2 C 272.9 3.9 272.3 3.6 271.6 3.6 C 270.7 3.6 270.1 4.1 270.1 4.8 C 270.1 5.5 270.7 5.8 271.7 6.1 C 272.8 6.5 273.8 6.8 273.8 7.9 C 273.8 9 272.9 9.7 271.6 9.7 C 270.8 9.7 270.1 9.5 269.5 9 C 269.5 9 269.5 8.3 269.5 8.3 C 270 8.9 270.8 9.2 271.6 9.2 C 272.6 9.2 273.3 8.7 273.3 7.9 C 273.3 7.2 272.5 6.9 271.5 6.5 C 270.5 6.2 269.6 5.9 269.6 4.8 C 269.6 3.8 270.4 3.1 271.6 3.1 C 272.3 3.1 273 3.3 273.4 3.7 Z M 275.1 6.4 C 275.1 4.5 276.4 3.1 278.1 3.1 C 279.8 3.1 281.1 4.5 281.1 6.4 C 281.1 8.4 279.8 9.7 278.1 9.7 C 276.4 9.7 275.1 8.4 275.1 6.4 Z M 280.6 6.4 C 280.6 4.6 279.4 3.6 278.1 3.6 C 276.8 3.6 275.6 4.6 275.6 6.4 C 275.6 8.2 276.8 9.2 278.1 9.2 C 279.4 9.2 280.6 8.2 280.6 6.4 Z M 290.7 5.3 C 290.69 5.28 290.7 9.6 290.7 9.6 L 290.2 9.6 C 290.2 9.6 290.19 5.33 290.2 5.3 C 290.2 4.3 289.7 3.6 288.7 3.6 C 287.7 3.6 287.1 4.4 287.1 5.3 C 287.08 5.34 287.1 9.6 287.1 9.6 L 286.6 9.6 C 286.6 9.6 286.58 5.33 286.6 5.3 C 286.6 4.3 286.1 3.6 285.1 3.6 C 284.1 3.6 283.5 4.4 283.5 5.4 C 283.47 5.36 283.5 9.6 283.5 9.6 L 283 9.6 L 283 3.2 L 283.4 3.2 L 283.4 4.3 C 283.4 4.3 283.43 4.28 283.4 4.3 C 283.7 3.6 284.3 3.1 285.1 3.1 C 286.1 3.1 286.7 3.6 286.9 4.4 C 287.2 3.6 287.8 3.1 288.8 3.1 C 290.1 3.1 290.7 4 290.7 5.3 Z M 293.4 4.8 C 293.8 3.7 294.9 3.1 295.9 3.1 C 297.4 3.1 298.8 4.4 298.8 6.4 C 298.8 8.4 297.4 9.7 295.9 9.7 C 294.9 9.7 293.8 9.2 293.4 8 C 293.37 7.99 293.3 9.6 293.3 9.6 L 292.9 9.6 L 292.9 0.1 L 293.4 0.1 C 293.4 0.1 293.4 4.79 293.4 4.8 Z M 293.4 6.4 C 293.4 8.1 294.5 9.2 295.8 9.2 C 297.1 9.2 298.3 8.1 298.3 6.4 C 298.3 4.7 297.2 3.6 295.8 3.6 C 294.5 3.6 293.4 4.7 293.4 6.4 Z M 300.6 3.2 L 301 3.2 L 301.1 4.4 C 301.1 4.4 301.08 4.42 301.1 4.4 C 301.5 3.5 302.3 3.2 303 3.2 C 303.1 3.2 303.2 3.2 303.4 3.2 C 303.4 3.2 303.4 3.7 303.4 3.7 C 303.2 3.7 303.1 3.7 303 3.7 C 302.1 3.7 301.1 4.3 301.1 5.6 C 301.12 5.57 301.1 9.6 301.1 9.6 L 300.6 9.6 L 300.6 3.2 Z M 309.5 6.6 C 309.5 6.6 304.4 6.6 304.4 6.6 C 304.5 8.2 305.5 9.2 307 9.2 C 307.8 9.2 308.6 9 309.3 8.3 C 309.3 8.3 309.3 8.9 309.3 8.9 C 308.6 9.4 307.8 9.7 307 9.7 C 305.2 9.7 303.9 8.4 303.9 6.4 C 303.9 4.4 305.3 3.1 306.9 3.1 C 308.3 3.1 309.5 4.2 309.5 6.3 C 309.5 6.4 309.5 6.5 309.5 6.6 Z M 309 6.1 C 309 4.4 308 3.6 306.9 3.6 C 305.7 3.6 304.6 4.6 304.4 6.1 C 304.4 6.1 309 6.1 309 6.1 Z M 321.1 6.6 C 321.1 6.6 316.1 6.6 316.1 6.6 C 316.2 8.2 317.2 9.2 318.6 9.2 C 319.4 9.2 320.2 9 320.9 8.3 C 320.9 8.3 320.9 8.9 320.9 8.9 C 320.2 9.4 319.4 9.7 318.6 9.7 C 316.8 9.7 315.6 8.4 315.6 6.4 C 315.6 4.4 317 3.1 318.5 3.1 C 319.9 3.1 321.2 4.2 321.2 6.3 C 321.2 6.4 321.1 6.5 321.1 6.6 Z M 320.7 6.1 C 320.6 4.4 319.6 3.6 318.5 3.6 C 317.3 3.6 316.2 4.6 316.1 6.1 C 316.1 6.1 320.7 6.1 320.7 6.1 Z M 323.6 3.2 L 325.5 3.2 L 325.5 3.7 L 323.6 3.7 C 323.6 3.7 323.58 7.6 323.6 7.6 C 323.6 8.8 324.2 9.2 325.1 9.2 C 325.3 9.2 325.5 9.2 325.7 9.2 C 325.7 9.2 325.7 9.6 325.7 9.6 C 325.6 9.6 325.3 9.7 325.1 9.7 C 323.9 9.7 323.1 9 323.1 7.6 C 323.08 7.62 323.1 3.7 323.1 3.7 L 322.1 3.7 L 322.1 3.2 L 323.1 3.2 L 323.1 1.7 L 323.6 1.7 L 323.6 3.2 Z M 331.7 3.2 L 332.1 3.2 C 332.1 3.2 332.13 4.84 332.1 4.8 C 332.6 3.7 333.6 3.1 334.6 3.1 C 336.1 3.1 337.5 4.4 337.5 6.4 C 337.5 8.4 336.1 9.7 334.6 9.7 C 333.6 9.7 332.6 9.1 332.2 8.1 C 332.16 8.05 332.2 12.2 332.2 12.2 L 331.7 12.2 L 331.7 3.2 Z M 337 6.4 C 337 4.7 335.9 3.6 334.6 3.6 C 333.3 3.6 332.1 4.7 332.1 6.4 C 332.1 8.1 333.3 9.2 334.6 9.2 C 335.9 9.2 337 8.1 337 6.4 Z M 344.5 6.6 C 344.5 6.6 339.4 6.6 339.4 6.6 C 339.5 8.2 340.6 9.2 342 9.2 C 342.8 9.2 343.6 9 344.3 8.3 C 344.3 8.3 344.3 8.9 344.3 8.9 C 343.6 9.4 342.8 9.7 342 9.7 C 340.2 9.7 338.9 8.4 338.9 6.4 C 338.9 4.4 340.3 3.1 341.9 3.1 C 343.3 3.1 344.5 4.2 344.5 6.3 C 344.5 6.4 344.5 6.5 344.5 6.6 Z M 344 6.1 C 344 4.4 343 3.6 341.9 3.6 C 340.7 3.6 339.6 4.6 339.4 6.1 C 339.4 6.1 344 6.1 344 6.1 Z M 346.2 7.3 C 346.23 7.28 346.2 3.2 346.2 3.2 L 346.7 3.2 C 346.7 3.2 346.73 7.31 346.7 7.3 C 346.7 8.5 347.5 9.2 348.6 9.2 C 349.8 9.2 350.5 8.5 350.5 7.3 C 350.52 7.3 350.5 3.2 350.5 3.2 L 351 3.2 C 351 3.2 351.03 7.27 351 7.3 C 351 8.7 350.1 9.7 348.6 9.7 C 347.1 9.7 346.2 8.7 346.2 7.3 Z M 363.1 6.6 C 363.1 6.6 358 6.6 358 6.6 C 358.1 8.2 359.1 9.2 360.6 9.2 C 361.3 9.2 362.1 9 362.8 8.3 C 362.8 8.3 362.8 8.9 362.8 8.9 C 362.2 9.4 361.4 9.7 360.5 9.7 C 358.7 9.7 357.5 8.4 357.5 6.4 C 357.5 4.4 358.9 3.1 360.4 3.1 C 361.9 3.1 363.1 4.2 363.1 6.3 C 363.1 6.4 363.1 6.5 363.1 6.6 Z M 362.6 6.1 C 362.5 4.4 361.5 3.6 360.4 3.6 C 359.2 3.6 358.1 4.6 358 6.1 C 358 6.1 362.6 6.1 362.6 6.1 Z M 364.9 3.2 L 365.3 3.2 L 365.3 4.4 C 365.3 4.4 365.34 4.42 365.3 4.4 C 365.7 3.5 366.6 3.2 367.2 3.2 C 367.4 3.2 367.5 3.2 367.6 3.2 C 367.6 3.2 367.6 3.7 367.6 3.7 C 367.5 3.7 367.4 3.7 367.2 3.7 C 366.3 3.7 365.4 4.3 365.4 5.6 C 365.38 5.57 365.4 9.6 365.4 9.6 L 364.9 9.6 L 364.9 3.2 Z M 373.6 4.8 C 373.55 4.76 373.6 3.2 373.6 3.2 L 374 3.2 C 374 3.2 374.02 9.4 374 9.4 C 374 11.4 372.6 12.3 371.2 12.3 C 370.4 12.3 369.5 12 368.8 11.5 C 368.8 11.5 368.8 10.9 368.8 10.9 C 369.5 11.5 370.4 11.8 371.2 11.8 C 372.4 11.8 373.5 11.1 373.5 9.5 C 373.5 9.5 373.5 7.9 373.5 7.9 C 373.1 9 372.1 9.5 371.1 9.5 C 369.6 9.5 368.2 8.3 368.2 6.3 C 368.2 4.4 369.6 3.1 371.1 3.1 C 372.1 3.1 373.1 3.7 373.6 4.8 Z M 368.7 6.3 C 368.7 8 369.8 9 371.1 9 C 372.4 9 373.5 7.9 373.5 6.3 C 373.5 4.7 372.4 3.6 371.1 3.6 C 369.8 3.6 368.7 4.7 368.7 6.3 Z M 375.8 6.4 C 375.8 4.5 377.2 3.1 378.9 3.1 C 380.6 3.1 381.9 4.5 381.9 6.4 C 381.9 8.4 380.6 9.7 378.9 9.7 C 377.2 9.7 375.8 8.4 375.8 6.4 Z M 381.4 6.4 C 381.4 4.6 380.2 3.6 378.9 3.6 C 377.6 3.6 376.3 4.6 376.3 6.4 C 376.3 8.2 377.6 9.2 378.9 9.2 C 380.2 9.2 381.4 8.2 381.4 6.4 Z M 388.5 5.4 C 388.54 5.36 388.5 9.6 388.5 9.6 L 388 9.6 C 388 9.6 388.04 5.57 388 5.6 C 388 4.3 387.4 3.6 386.2 3.6 C 385.1 3.6 384.3 4.3 384.3 5.5 C 384.25 5.51 384.3 9.6 384.3 9.6 L 383.8 9.6 L 383.8 3.2 L 384.1 3.2 L 384.2 4.4 C 384.2 4.4 384.22 4.36 384.2 4.4 C 384.6 3.6 385.3 3.1 386.3 3.1 C 387.7 3.1 388.5 4 388.5 5.4 Z M 390.3 6.4 C 390.3 4.5 391.6 3.1 393.3 3.1 C 395 3.1 396.4 4.5 396.4 6.4 C 396.4 8.4 395 9.7 393.3 9.7 C 391.7 9.7 390.3 8.4 390.3 6.4 Z M 395.9 6.4 C 395.9 4.6 394.6 3.6 393.3 3.6 C 392 3.6 390.8 4.6 390.8 6.4 C 390.8 8.2 392 9.2 393.3 9.2 C 394.6 9.2 395.9 8.2 395.9 6.4 Z M 398 5.7 L 400.8 5.7 L 400.8 6.2 L 398 6.2 L 398 5.7 Z " stroke="none" fill="#000"/>
  </g>
</svg>