<?xml version="1.0" standalone="no"?>
<!DOCTYPE svg PUBLIC "-//W3C//DTD SVG 1.1//EN" "http://www.w3.org/Graphics/SVG/1.1/DTD/svg11.dtd">
<svg xmlns="http://www.w3.org/2000/svg" version="1.1" width="156px" height="34.1px" viewBox="0 0 156 34.1">
  <desc>NOMADISME</desc>
  <defs/>
  <g id="Polygon31229">
    <path d="M 15.2 16.3 L 11 16.3 L 5.5 8.1 L 5.5 8.1 L 5.5 16.3 L 1.3 16.3 L 1.3 1.1 L 5.5 1.1 L 11 9.1 L 11 9.1 L 11 1.1 L 15.2 1.1 L 15.2 16.3 Z M 17.1 8.7 C 17.1 4 20.7 0.7 25.2 0.7 C 29.8 0.7 33.3 4 33.3 8.7 C 33.3 13.4 29.8 16.6 25.2 16.6 C 20.7 16.6 17.1 13.4 17.1 8.7 Z M 28.8 8.7 C 28.8 6.1 27 4.7 25.2 4.7 C 23.4 4.7 21.6 6.1 21.6 8.7 C 21.6 11.2 23.4 12.6 25.2 12.6 C 27 12.6 28.8 11.2 28.8 8.7 Z M 38.4 16.3 L 34.2 16.3 L 36.3 1.1 L 41.5 1.1 L 43.9 9.5 L 43.9 9.5 L 46.3 1.1 L 51.3 1.1 L 53.4 16.3 L 49.2 16.3 L 48.3 7.1 L 48.2 7.1 L 45.6 16.3 L 41.9 16.3 L 39.4 7.1 L 39.3 7.1 L 38.4 16.3 Z M 65.4 16.3 L 64.4 13.3 L 59.4 13.3 L 58.5 16.3 L 53.9 16.3 L 59.3 1.1 L 64.5 1.1 L 70.1 16.3 L 65.4 16.3 Z M 60.6 9.7 L 63.3 9.7 L 61.9 5.6 L 60.6 9.7 Z M 84.8 8.7 C 84.8 13.3 81.4 16.3 76.4 16.3 C 76.4 16.26 71.3 16.3 71.3 16.3 L 71.3 1.1 C 71.3 1.1 76.4 1.08 76.4 1.1 C 81.4 1.1 84.8 4.1 84.8 8.7 Z M 75.7 12.3 C 75.7 12.3 76.56 12.26 76.6 12.3 C 78.9 12.3 80.3 11 80.3 8.7 C 80.3 6.4 78.9 5.1 76.6 5.1 C 76.56 5.08 75.7 5.1 75.7 5.1 L 75.7 12.3 Z M 86.7 1.1 L 91.2 1.1 L 91.2 16.3 L 86.7 16.3 L 86.7 1.1 Z M 103.4 1.8 C 103.4 1.8 103.4 5.7 103.4 5.7 C 102.5 5 100.9 4.6 99.5 4.6 C 98.3 4.6 97.7 5 97.7 5.5 C 97.7 6 98.4 6.2 99.6 6.7 C 101.6 7.4 104.4 8.3 104.4 11.6 C 104.4 14.5 102.2 16.6 98.4 16.6 C 96.4 16.6 94.6 16 93.5 15.3 C 93.5 15.3 93.5 11.2 93.5 11.2 C 94.6 12.1 96.3 12.8 97.9 12.8 C 99.2 12.8 99.9 12.3 99.9 11.7 C 99.9 11 98.8 10.6 97.6 10.2 C 96 9.6 93.4 8.5 93.4 5.6 C 93.4 2.9 95.5 0.8 99.2 0.8 C 100.9 0.8 102.3 1.2 103.4 1.8 Z M 109.7 16.3 L 105.6 16.3 L 107.6 1.1 L 112.8 1.1 L 115.2 9.5 L 115.2 9.5 L 117.6 1.1 L 122.6 1.1 L 124.7 16.3 L 120.5 16.3 L 119.6 7.1 L 119.6 7.1 L 117 16.3 L 113.2 16.3 L 110.7 7.1 L 110.6 7.1 L 109.7 16.3 Z M 126.6 1.1 L 137 1.1 L 137 5 L 131 5 L 131 6.9 L 136.4 6.9 L 136.4 10.4 L 131 10.4 L 131 12.3 L 137 12.3 L 137 16.3 L 126.6 16.3 L 126.6 1.1 Z " stroke="none" fill="#444443"/>
  </g>
</svg>