<?xml version="1.0" standalone="no"?>
<!DOCTYPE svg PUBLIC "-//W3C//DTD SVG 1.1//EN" "http://www.w3.org/Graphics/SVG/1.1/DTD/svg11.dtd">
<svg xmlns="http://www.w3.org/2000/svg" version="1.1" width="242px" height="34.1px" viewBox="0 0 242 34.1">
  <desc>SCENARIO A BORD</desc>
  <defs/>
  <g id="Polygon18628">
    <path d="M 11 1.8 C 11 1.8 11 5.7 11 5.7 C 10 5 8.4 4.6 7.1 4.6 C 5.9 4.6 5.2 5 5.2 5.5 C 5.2 6 5.9 6.2 7.1 6.7 C 9.1 7.4 11.9 8.3 11.9 11.6 C 11.9 14.5 9.7 16.6 5.9 16.6 C 3.9 16.6 2.1 16 1 15.3 C 1 15.3 1 11.2 1 11.2 C 2.1 12.1 3.8 12.8 5.4 12.8 C 6.7 12.8 7.4 12.3 7.4 11.7 C 7.4 11 6.3 10.6 5.1 10.2 C 3.5 9.6 0.9 8.5 0.9 5.6 C 0.9 2.9 3 0.8 6.7 0.8 C 8.4 0.8 9.9 1.2 11 1.8 Z M 21.1 16.6 C 16.7 16.6 13.1 13.4 13.1 8.7 C 13.1 3.9 16.7 0.7 21.1 0.7 C 22.9 0.7 24.3 1.2 25.4 1.7 C 25.4 1.7 25.4 6.1 25.4 6.1 C 24.2 5.2 23.1 4.8 21.7 4.8 C 19.3 4.8 17.6 6.4 17.6 8.7 C 17.6 10.9 19.3 12.6 21.7 12.6 C 23.1 12.6 24.2 12.1 25.4 11.2 C 25.4 11.2 25.4 15.6 25.4 15.6 C 24.3 16.2 22.9 16.6 21.1 16.6 Z M 27.6 1.1 L 38.1 1.1 L 38.1 5 L 32 5 L 32 6.9 L 37.5 6.9 L 37.5 10.4 L 32 10.4 L 32 12.3 L 38.1 12.3 L 38.1 16.3 L 27.6 16.3 L 27.6 1.1 Z M 54.3 16.3 L 50.1 16.3 L 44.6 8.1 L 44.6 8.1 L 44.6 16.3 L 40.4 16.3 L 40.4 1.1 L 44.6 1.1 L 50.1 9.1 L 50.1 9.1 L 50.1 1.1 L 54.3 1.1 L 54.3 16.3 Z M 67.2 16.3 L 66.2 13.3 L 61.2 13.3 L 60.2 16.3 L 55.6 16.3 L 61.1 1.1 L 66.2 1.1 L 71.8 16.3 L 67.2 16.3 Z M 62.3 9.7 L 65 9.7 L 63.6 5.6 L 62.3 9.7 Z M 85.6 16.3 L 80.4 16.3 L 77.5 11.6 L 77.4 11.6 L 77.4 16.3 L 73 16.3 L 73 1.1 C 73 1.1 78.41 1.08 78.4 1.1 C 82.2 1.1 84.9 2.8 84.9 6.4 C 84.9 7.8 84.2 9.9 81.7 10.9 C 81.7 10.92 85.6 16.3 85.6 16.3 Z M 78.4 8.3 C 79.5 8.3 80.4 7.7 80.4 6.7 C 80.4 5.6 79.5 5.1 78.4 5.1 C 78.37 5.08 77.4 5.1 77.4 5.1 L 77.4 8.3 C 77.4 8.3 78.39 8.25 78.4 8.3 Z M 87.1 1.1 L 91.6 1.1 L 91.6 16.3 L 87.1 16.3 L 87.1 1.1 Z M 93.5 8.7 C 93.5 4 97 0.7 101.5 0.7 C 106.1 0.7 109.6 4 109.6 8.7 C 109.6 13.4 106.1 16.6 101.5 16.6 C 97 16.6 93.5 13.4 93.5 8.7 Z M 105.1 8.7 C 105.1 6.1 103.4 4.7 101.5 4.7 C 99.7 4.7 97.9 6.1 97.9 8.7 C 97.9 11.2 99.7 12.6 101.5 12.6 C 103.4 12.6 105.1 11.2 105.1 8.7 Z M 125.8 16.3 L 124.8 13.3 L 119.7 13.3 L 118.8 16.3 L 114.2 16.3 L 119.7 1.1 L 124.8 1.1 L 130.4 16.3 L 125.8 16.3 Z M 120.9 9.7 L 123.6 9.7 L 122.2 5.6 L 120.9 9.7 Z M 135.7 1.1 C 135.7 1.1 142.16 1.08 142.2 1.1 C 145.8 1.1 147.7 2.9 147.7 5.2 C 147.7 6.8 146.8 7.9 145.5 8.5 C 145.5 8.5 145.5 8.5 145.5 8.5 C 147.1 9.1 148 10.3 148 12 C 148 14.3 146.2 16.3 142.4 16.3 C 142.43 16.26 135.7 16.3 135.7 16.3 L 135.7 1.1 Z M 142 7.1 C 143 7.1 143.5 6.5 143.5 5.9 C 143.5 5.3 143 4.8 142 4.8 C 141.96 4.76 140 4.8 140 4.8 L 140 7.1 C 140 7.1 141.96 7.09 142 7.1 Z M 142 12.6 C 143.2 12.6 143.7 12 143.7 11.3 C 143.7 10.6 143.1 10.1 142 10.1 C 142.04 10.06 140 10.1 140 10.1 L 140 12.6 C 140 12.6 142.02 12.58 142 12.6 Z M 149.2 8.7 C 149.2 4 152.8 0.7 157.3 0.7 C 161.8 0.7 165.3 4 165.3 8.7 C 165.3 13.4 161.8 16.6 157.3 16.6 C 152.7 16.6 149.2 13.4 149.2 8.7 Z M 160.9 8.7 C 160.9 6.1 159.1 4.7 157.3 4.7 C 155.4 4.7 153.7 6.1 153.7 8.7 C 153.7 11.2 155.4 12.6 157.3 12.6 C 159.1 12.6 160.9 11.2 160.9 8.7 Z M 179.9 16.3 L 174.6 16.3 L 171.8 11.6 L 171.7 11.6 L 171.7 16.3 L 167.2 16.3 L 167.2 1.1 C 167.2 1.1 172.64 1.08 172.6 1.1 C 176.4 1.1 179.1 2.8 179.1 6.4 C 179.1 7.8 178.5 9.9 175.9 10.9 C 175.93 10.92 179.9 16.3 179.9 16.3 Z M 172.6 8.3 C 173.7 8.3 174.6 7.7 174.6 6.7 C 174.6 5.6 173.7 5.1 172.6 5.1 C 172.6 5.08 171.7 5.1 171.7 5.1 L 171.7 8.3 C 171.7 8.3 172.62 8.25 172.6 8.3 Z M 194.9 8.7 C 194.9 13.3 191.4 16.3 186.5 16.3 C 186.48 16.26 181.4 16.3 181.4 16.3 L 181.4 1.1 C 181.4 1.1 186.48 1.08 186.5 1.1 C 191.4 1.1 194.9 4.1 194.9 8.7 Z M 185.8 12.3 C 185.8 12.3 186.64 12.26 186.6 12.3 C 188.9 12.3 190.4 11 190.4 8.7 C 190.4 6.4 188.9 5.1 186.6 5.1 C 186.64 5.08 185.8 5.1 185.8 5.1 L 185.8 12.3 Z " stroke="none" fill="#444443"/>
  </g>
</svg>