<?xml version="1.0" standalone="no"?>
<!DOCTYPE svg PUBLIC "-//W3C//DTD SVG 1.1//EN" "http://www.w3.org/Graphics/SVG/1.1/DTD/svg11.dtd">
<svg xmlns="http://www.w3.org/2000/svg" version="1.1" width="45.1px" height="15.8px" viewBox="0 0 45.1 15.8">
  <desc>2 Woofers</desc>
  <defs/>
  <g id="Polygon26583">
    <path d="M 3.9 2.3 C 3.9 1.5 3.4 0.8 2.4 0.8 C 1.7 0.8 1.1 1.1 0.7 1.6 C 0.7 1.6 0.7 1.1 0.7 1.1 C 1.1 0.7 1.7 0.4 2.4 0.4 C 3.6 0.4 4.3 1.3 4.3 2.3 C 4.3 3.4 3.5 4.4 1.2 6.9 C 1.21 6.87 4.5 6.9 4.5 6.9 L 4.5 7.2 C 4.5 7.2 0.39 7.24 0.4 7.2 C 3.5 3.9 3.9 3.2 3.9 2.3 Z M 12.1 1.1 L 10.1 7.2 L 9.7 7.2 L 7.7 0.5 L 8.1 0.5 L 9.9 6.7 L 9.9 6.7 L 11.9 0.5 L 12.3 0.5 L 14.4 6.7 L 14.4 6.7 L 16.2 0.5 L 16.6 0.5 L 14.6 7.2 L 14.1 7.2 L 12.1 1.1 Z M 17 4.8 C 17 3.4 18.1 2.4 19.3 2.4 C 20.6 2.4 21.6 3.4 21.6 4.8 C 21.6 6.3 20.6 7.3 19.3 7.3 C 18.1 7.3 17 6.3 17 4.8 Z M 21.2 4.8 C 21.2 3.5 20.3 2.7 19.3 2.7 C 18.3 2.7 17.4 3.5 17.4 4.8 C 17.4 6.2 18.4 7 19.3 7 C 20.3 7 21.2 6.2 21.2 4.8 Z M 22.7 4.8 C 22.7 3.4 23.7 2.4 25 2.4 C 26.2 2.4 27.2 3.4 27.2 4.8 C 27.2 6.3 26.2 7.3 25 7.3 C 23.7 7.3 22.7 6.3 22.7 4.8 Z M 26.9 4.8 C 26.9 3.5 25.9 2.7 25 2.7 C 24 2.7 23 3.5 23 4.8 C 23 6.2 24 7 25 7 C 25.9 7 26.9 6.2 26.9 4.8 Z M 28.7 2.8 L 28 2.8 L 28 2.4 L 28.7 2.4 C 28.7 2.4 28.73 1.51 28.7 1.5 C 28.7 0.5 29.4 0 30.2 0 C 30.4 0 30.7 0.1 30.9 0.1 C 30.9 0.1 30.9 0.5 30.9 0.5 C 30.7 0.4 30.4 0.4 30.2 0.4 C 29.5 0.4 29.1 0.7 29.1 1.6 C 29.12 1.58 29.1 2.4 29.1 2.4 L 30.6 2.4 L 30.6 2.8 L 29.1 2.8 L 29.1 7.2 L 28.7 7.2 L 28.7 2.8 Z M 35.2 5 C 35.2 5 31.4 5 31.4 5 C 31.5 6.2 32.3 7 33.4 7 C 33.9 7 34.6 6.8 35.1 6.3 C 35.1 6.3 35.1 6.7 35.1 6.7 C 34.6 7.1 34 7.3 33.3 7.3 C 32 7.3 31.1 6.4 31.1 4.9 C 31.1 3.3 32.1 2.4 33.3 2.4 C 34.4 2.4 35.3 3.2 35.3 4.7 C 35.3 4.8 35.3 4.9 35.2 5 Z M 34.9 4.6 C 34.9 3.3 34.1 2.7 33.3 2.7 C 32.4 2.7 31.5 3.4 31.4 4.6 C 31.4 4.6 34.9 4.6 34.9 4.6 Z M 36.6 2.4 L 36.9 2.4 L 37 3.3 C 37 3.3 36.98 3.33 37 3.3 C 37.3 2.7 37.9 2.4 38.4 2.4 C 38.5 2.4 38.6 2.4 38.7 2.4 C 38.7 2.4 38.7 2.8 38.7 2.8 C 38.6 2.8 38.5 2.8 38.4 2.8 C 37.7 2.8 37 3.2 37 4.2 C 37 4.2 37 7.2 37 7.2 L 36.6 7.2 L 36.6 2.4 Z M 42.3 2.8 C 42.3 2.8 42.3 3.2 42.3 3.2 C 41.9 2.9 41.5 2.7 40.9 2.7 C 40.2 2.7 39.8 3.1 39.8 3.6 C 39.8 4.2 40.3 4.4 41 4.6 C 41.8 4.9 42.6 5.1 42.6 6 C 42.6 6.8 41.9 7.3 40.9 7.3 C 40.4 7.3 39.8 7.1 39.3 6.8 C 39.3 6.8 39.3 6.3 39.3 6.3 C 39.7 6.7 40.3 7 40.9 7 C 41.7 7 42.2 6.6 42.2 6 C 42.2 5.4 41.6 5.2 40.9 4.9 C 40.1 4.7 39.4 4.4 39.4 3.6 C 39.4 2.9 40 2.4 41 2.4 C 41.5 2.4 41.9 2.5 42.3 2.8 Z " stroke="none" fill="#000"/>
  </g>
</svg>