<?xml version="1.0" standalone="no"?>
<!DOCTYPE svg PUBLIC "-//W3C//DTD SVG 1.1//EN" "http://www.w3.org/Graphics/SVG/1.1/DTD/svg11.dtd">
<svg xmlns="http://www.w3.org/2000/svg" version="1.1" width="162px" height="387.4px" viewBox="0 0 162 387.4">
  <desc>Une fois l int rieur, la cabine ovale offre un panorama vitr qui permet d apporter de la lumi re tout en offrant u</desc>
  <defs/>
  <g id="Polygon18083">
    <path d="M 1.1 132.8 L 1.5 132.8 L 1.6 134 C 1.6 134 1.61 134.02 1.6 134 C 2 133.1 2.8 132.8 3.5 132.8 C 3.6 132.8 3.8 132.8 3.9 132.8 C 3.9 132.8 3.9 133.3 3.9 133.3 C 3.8 133.3 3.6 133.3 3.5 133.3 C 2.6 133.3 1.7 133.9 1.6 135.2 C 1.64 135.17 1.6 139.2 1.6 139.2 L 1.1 139.2 L 1.1 132.8 Z M 10 136.2 C 10 136.2 5 136.2 5 136.2 C 5 137.8 6.1 138.8 7.5 138.8 C 8.3 138.8 9.1 138.6 9.8 137.9 C 9.8 137.9 9.8 138.5 9.8 138.5 C 9.1 139 8.3 139.3 7.5 139.3 C 5.7 139.3 4.5 138 4.5 136 C 4.5 134 5.9 132.7 7.4 132.7 C 8.8 132.7 10 133.8 10 135.9 C 10 136 10 136.1 10 136.2 Z M 9.5 135.7 C 9.5 134 8.5 133.2 7.4 133.2 C 6.2 133.2 5.1 134.2 5 135.7 C 5 135.7 9.5 135.7 9.5 135.7 Z M 15.4 133.3 C 15.4 133.3 15.4 133.8 15.4 133.8 C 14.9 133.5 14.3 133.2 13.6 133.2 C 12.6 133.2 12 133.7 12 134.4 C 12 135.1 12.7 135.4 13.7 135.7 C 14.7 136.1 15.7 136.4 15.7 137.5 C 15.7 138.6 14.8 139.3 13.5 139.3 C 12.8 139.3 12 139.1 11.4 138.6 C 11.4 138.6 11.4 137.9 11.4 137.9 C 11.9 138.5 12.7 138.8 13.5 138.8 C 14.5 138.8 15.2 138.3 15.2 137.5 C 15.2 136.8 14.5 136.5 13.5 136.1 C 12.4 135.8 11.5 135.5 11.5 134.4 C 11.5 133.4 12.3 132.7 13.6 132.7 C 14.2 132.7 14.9 132.9 15.4 133.3 Z M 17.4 132.8 L 17.8 132.8 C 17.8 132.8 17.92 134.44 17.9 134.4 C 18.4 133.3 19.4 132.7 20.4 132.7 C 21.9 132.7 23.3 134 23.3 136 C 23.3 138 21.9 139.3 20.4 139.3 C 19.4 139.3 18.4 138.7 18 137.7 C 17.95 137.65 18 141.8 18 141.8 L 17.4 141.8 L 17.4 132.8 Z M 22.8 136 C 22.8 134.3 21.7 133.2 20.4 133.2 C 19.1 133.2 17.9 134.3 17.9 136 C 17.9 137.7 19.1 138.8 20.4 138.8 C 21.7 138.8 22.8 137.7 22.8 136 Z M 30.3 136.2 C 30.3 136.2 25.2 136.2 25.2 136.2 C 25.3 137.8 26.3 138.8 27.8 138.8 C 28.5 138.8 29.4 138.6 30 137.9 C 30 137.9 30 138.5 30 138.5 C 29.4 139 28.6 139.3 27.8 139.3 C 26 139.3 24.7 138 24.7 136 C 24.7 134 26.1 132.7 27.7 132.7 C 29.1 132.7 30.3 133.8 30.3 135.9 C 30.3 136 30.3 136.1 30.3 136.2 Z M 29.8 135.7 C 29.8 134 28.8 133.2 27.7 133.2 C 26.5 133.2 25.3 134.2 25.2 135.7 C 25.2 135.7 29.8 135.7 29.8 135.7 Z M 34.7 138.8 C 35.2 138.8 35.9 138.7 36.4 138.3 C 36.4 138.3 36.4 138.9 36.4 138.9 C 36 139.2 35.4 139.3 34.7 139.3 C 33 139.3 31.6 137.9 31.6 136 C 31.6 134.1 33 132.7 34.7 132.7 C 35.3 132.7 35.9 132.8 36.4 133.2 C 36.4 133.2 36.4 133.7 36.4 133.7 C 35.9 133.3 35.3 133.2 34.7 133.2 C 33.4 133.2 32.1 134.3 32.1 136 C 32.1 137.7 33.4 138.8 34.7 138.8 Z M 38.9 132.8 L 40.8 132.8 L 40.8 133.3 L 38.9 133.3 C 38.9 133.3 38.9 137.2 38.9 137.2 C 38.9 138.4 39.5 138.8 40.4 138.8 C 40.6 138.8 40.8 138.8 41 138.8 C 41 138.8 41 139.2 41 139.2 C 40.9 139.2 40.7 139.3 40.4 139.3 C 39.2 139.3 38.4 138.6 38.4 137.2 C 38.4 137.22 38.4 133.3 38.4 133.3 L 37.4 133.3 L 37.4 132.8 L 38.4 132.8 L 38.4 131.3 L 38.9 131.3 L 38.9 132.8 Z M 47.4 136.2 C 47.4 136.2 42.3 136.2 42.3 136.2 C 42.4 137.8 43.4 138.8 44.9 138.8 C 45.6 138.8 46.5 138.6 47.1 137.9 C 47.1 137.9 47.1 138.5 47.1 138.5 C 46.5 139 45.7 139.3 44.8 139.3 C 43.1 139.3 41.8 138 41.8 136 C 41.8 134 43.2 132.7 44.8 132.7 C 46.2 132.7 47.4 133.8 47.4 135.9 C 47.4 136 47.4 136.1 47.4 136.2 Z M 46.9 135.7 C 46.9 134 45.8 133.2 44.8 133.2 C 43.5 133.2 42.4 134.2 42.3 135.7 C 42.3 135.7 46.9 135.7 46.9 135.7 Z M 49.2 132.8 L 49.6 132.8 L 49.6 134 C 49.6 134 49.65 134.02 49.7 134 C 50 133.1 50.9 132.8 51.5 132.8 C 51.7 132.8 51.8 132.8 51.9 132.8 C 51.9 132.8 51.9 133.3 51.9 133.3 C 51.8 133.3 51.7 133.3 51.5 133.3 C 50.6 133.3 49.7 133.9 49.7 135.2 C 49.69 135.17 49.7 139.2 49.7 139.2 L 49.2 139.2 L 49.2 132.8 Z M 52.4 138.8 C 52.4 138.5 52.6 138.3 52.9 138.3 C 53.2 138.3 53.4 138.5 53.4 138.8 C 53.4 139 53.2 139.2 52.9 139.2 C 52.6 139.2 52.4 139 52.4 138.8 Z " stroke="none" fill="#000"/>
  </g>
  <g id="Polygon18082">
    <path d="M 1 116.1 C 1 115.9 1.2 115.7 1.4 115.7 C 1.7 115.7 1.8 115.9 1.8 116.1 C 1.8 116.3 1.7 116.5 1.4 116.5 C 1.2 116.5 1 116.3 1 116.1 Z M 1.2 118.4 L 1.7 118.4 L 1.7 124.8 L 1.2 124.8 L 1.2 118.4 Z M 8.8 120.6 C 8.78 120.56 8.8 124.8 8.8 124.8 L 8.3 124.8 C 8.3 124.8 8.28 120.77 8.3 120.8 C 8.3 119.5 7.6 118.8 6.5 118.8 C 5.4 118.8 4.5 119.5 4.5 120.7 C 4.5 120.71 4.5 124.8 4.5 124.8 L 4 124.8 L 4 118.4 L 4.4 118.4 L 4.5 119.6 C 4.5 119.6 4.46 119.56 4.5 119.6 C 4.8 118.8 5.6 118.3 6.5 118.3 C 7.9 118.3 8.8 119.2 8.8 120.6 Z M 13.6 124.4 C 14.1 124.4 14.8 124.3 15.3 123.9 C 15.3 123.9 15.3 124.5 15.3 124.5 C 14.8 124.8 14.2 124.9 13.6 124.9 C 11.9 124.9 10.5 123.5 10.5 121.6 C 10.5 119.7 11.9 118.3 13.6 118.3 C 14.2 118.3 14.8 118.4 15.3 118.8 C 15.3 118.8 15.3 119.3 15.3 119.3 C 14.8 118.9 14.2 118.8 13.6 118.8 C 12.3 118.8 11 119.9 11 121.6 C 11 123.3 12.3 124.4 13.6 124.4 Z M 17 116.1 C 17 115.9 17.2 115.7 17.4 115.7 C 17.6 115.7 17.8 115.9 17.8 116.1 C 17.8 116.3 17.6 116.5 17.4 116.5 C 17.2 116.5 17 116.3 17 116.1 Z M 17.1 118.4 L 17.6 118.4 L 17.6 124.8 L 17.1 124.8 L 17.1 118.4 Z M 20.6 118.4 L 22.5 118.4 L 22.5 118.9 L 20.6 118.9 C 20.6 118.9 20.64 122.8 20.6 122.8 C 20.6 124 21.3 124.4 22.2 124.4 C 22.4 124.4 22.5 124.4 22.7 124.4 C 22.7 124.4 22.7 124.8 22.7 124.8 C 22.6 124.8 22.4 124.9 22.1 124.9 C 21 124.9 20.1 124.2 20.1 122.8 C 20.14 122.82 20.1 118.9 20.1 118.9 L 19.2 118.9 L 19.2 118.4 L 20.1 118.4 L 20.1 116.9 L 20.6 116.9 L 20.6 118.4 Z M 29.1 121.8 C 29.1 121.8 24 121.8 24 121.8 C 24.1 123.4 25.2 124.4 26.6 124.4 C 27.4 124.4 28.2 124.2 28.9 123.5 C 28.9 123.5 28.9 124.1 28.9 124.1 C 28.2 124.6 27.4 124.9 26.6 124.9 C 24.8 124.9 23.5 123.6 23.5 121.6 C 23.5 119.6 25 118.3 26.5 118.3 C 27.9 118.3 29.1 119.4 29.1 121.5 C 29.1 121.6 29.1 121.7 29.1 121.8 Z M 28.6 121.3 C 28.6 119.6 27.6 118.8 26.5 118.8 C 25.3 118.8 24.2 119.8 24.1 121.3 C 24.1 121.3 28.6 121.3 28.6 121.3 Z M 37.5 117.3 L 37.1 117.3 L 35.5 115.4 L 36.1 115.4 L 37.5 117.3 Z M 33.6 121.6 C 33.6 119.6 35 118.3 36.5 118.3 C 37.5 118.3 38.6 118.9 39 120 C 39.03 120.02 39.1 118.4 39.1 118.4 L 39.5 118.4 L 39.5 124.8 L 39.1 124.8 C 39.1 124.8 39.03 123.2 39 123.2 C 38.6 124.4 37.5 124.9 36.5 124.9 C 35 124.9 33.6 123.6 33.6 121.6 Z M 39 121.6 C 39 119.9 37.9 118.8 36.6 118.8 C 35.2 118.8 34.1 119.9 34.1 121.6 C 34.1 123.3 35.3 124.4 36.6 124.4 C 37.9 124.4 39 123.3 39 121.6 Z M 45 115.3 L 45.5 115.3 L 45.5 124.8 L 45 124.8 L 45 115.3 Z M 48 116.3 C 47.97 116.33 48 115.9 48 115.9 L 48.5 115.9 C 48.5 115.9 48.47 116.32 48.5 116.3 C 48.5 117.3 48.1 118.3 47.8 118.9 C 47.8 118.9 47.4 118.9 47.4 118.9 C 47.7 118.3 48 117.3 48 116.3 Z M 49.6 121.6 C 49.6 119.6 51 118.3 52.5 118.3 C 53.5 118.3 54.5 118.9 55 120 C 54.96 120.02 55 118.4 55 118.4 L 55.4 118.4 L 55.4 124.8 L 55 124.8 C 55 124.8 54.96 123.2 55 123.2 C 54.5 124.4 53.5 124.9 52.5 124.9 C 51 124.9 49.6 123.6 49.6 121.6 Z M 55 121.6 C 55 119.9 53.8 118.8 52.5 118.8 C 51.2 118.8 50.1 119.9 50.1 121.6 C 50.1 123.3 51.2 124.4 52.5 124.4 C 53.8 124.4 55 123.3 55 121.6 Z M 57.3 121.6 C 57.3 119.6 58.7 118.3 60.2 118.3 C 61.2 118.3 62.2 118.9 62.6 120 C 62.64 119.98 62.6 115.3 62.6 115.3 L 63.1 115.3 L 63.1 124.8 L 62.8 124.8 L 62.7 123.2 C 62.7 123.2 62.67 123.19 62.7 123.2 C 62.2 124.4 61.2 124.9 60.2 124.9 C 58.7 124.9 57.3 123.6 57.3 121.6 Z M 62.7 121.6 C 62.7 119.9 61.5 118.8 60.2 118.8 C 58.9 118.8 57.8 119.9 57.8 121.6 C 57.8 123.3 58.9 124.4 60.2 124.4 C 61.5 124.4 62.7 123.3 62.7 121.6 Z M 73.2 120.5 C 73.15 120.48 73.2 124.8 73.2 124.8 L 72.7 124.8 C 72.7 124.8 72.65 120.53 72.7 120.5 C 72.7 119.5 72.2 118.8 71.2 118.8 C 70.2 118.8 69.5 119.6 69.5 120.5 C 69.54 120.54 69.5 124.8 69.5 124.8 L 69 124.8 C 69 124.8 69.04 120.53 69 120.5 C 69 119.5 68.5 118.8 67.5 118.8 C 66.5 118.8 65.9 119.6 65.9 120.6 C 65.93 120.56 65.9 124.8 65.9 124.8 L 65.4 124.8 L 65.4 118.4 L 65.8 118.4 L 65.9 119.5 C 65.9 119.5 65.89 119.48 65.9 119.5 C 66.2 118.8 66.8 118.3 67.6 118.3 C 68.6 118.3 69.1 118.8 69.4 119.6 C 69.7 118.8 70.3 118.3 71.2 118.3 C 72.5 118.3 73.2 119.2 73.2 120.5 Z M 75.3 116.1 C 75.3 115.9 75.4 115.7 75.6 115.7 C 75.9 115.7 76.1 115.9 76.1 116.1 C 76.1 116.3 75.9 116.5 75.6 116.5 C 75.4 116.5 75.3 116.3 75.3 116.1 Z M 75.4 118.4 L 75.9 118.4 L 75.9 124.8 L 75.4 124.8 L 75.4 118.4 Z M 78.2 118.4 L 78.6 118.4 L 78.7 119.6 C 78.7 119.6 78.69 119.62 78.7 119.6 C 79.1 118.7 79.9 118.4 80.6 118.4 C 80.7 118.4 80.8 118.4 81 118.4 C 81 118.4 81 118.9 81 118.9 C 80.8 118.9 80.7 118.9 80.6 118.9 C 79.7 118.9 78.7 119.5 78.7 120.8 C 78.72 120.77 78.7 124.8 78.7 124.8 L 78.2 124.8 L 78.2 118.4 Z M 87.1 121.8 C 87.1 121.8 82 121.8 82 121.8 C 82.1 123.4 83.1 124.4 84.6 124.4 C 85.4 124.4 86.2 124.2 86.9 123.5 C 86.9 123.5 86.9 124.1 86.9 124.1 C 86.2 124.6 85.4 124.9 84.6 124.9 C 82.8 124.9 81.5 123.6 81.5 121.6 C 81.5 119.6 82.9 118.3 84.5 118.3 C 85.9 118.3 87.1 119.4 87.1 121.5 C 87.1 121.6 87.1 121.7 87.1 121.8 Z M 86.6 121.3 C 86.6 119.6 85.6 118.8 84.5 118.8 C 83.3 118.8 82.2 119.8 82 121.3 C 82 121.3 86.6 121.3 86.6 121.3 Z M 88.9 118.4 L 89.3 118.4 L 89.4 119.6 C 89.4 119.6 89.38 119.62 89.4 119.6 C 89.8 118.7 90.6 118.4 91.3 118.4 C 91.4 118.4 91.5 118.4 91.6 118.4 C 91.6 118.4 91.6 118.9 91.6 118.9 C 91.5 118.9 91.4 118.9 91.3 118.9 C 90.4 118.9 89.4 119.5 89.4 120.8 C 89.41 120.77 89.4 124.8 89.4 124.8 L 88.9 124.8 L 88.9 118.4 Z M 100.9 121.8 C 100.9 121.8 95.9 121.8 95.9 121.8 C 96 123.4 97 124.4 98.4 124.4 C 99.2 124.4 100 124.2 100.7 123.5 C 100.7 123.5 100.7 124.1 100.7 124.1 C 100 124.6 99.2 124.9 98.4 124.9 C 96.6 124.9 95.4 123.6 95.4 121.6 C 95.4 119.6 96.8 118.3 98.3 118.3 C 99.7 118.3 101 119.4 101 121.5 C 101 121.6 100.9 121.7 100.9 121.8 Z M 100.5 121.3 C 100.4 119.6 99.4 118.8 98.3 118.8 C 97.1 118.8 96 119.8 95.9 121.3 C 95.9 121.3 100.5 121.3 100.5 121.3 Z M 103.4 118.4 L 105.3 118.4 L 105.3 118.9 L 103.4 118.9 C 103.4 118.9 103.38 122.8 103.4 122.8 C 103.4 124 104 124.4 104.9 124.4 C 105.1 124.4 105.3 124.4 105.5 124.4 C 105.5 124.4 105.5 124.8 105.5 124.8 C 105.4 124.8 105.1 124.9 104.9 124.9 C 103.7 124.9 102.9 124.2 102.9 122.8 C 102.88 122.82 102.9 118.9 102.9 118.9 L 101.9 118.9 L 101.9 118.4 L 102.9 118.4 L 102.9 116.9 L 103.4 116.9 L 103.4 118.4 Z M 109.4 121.6 C 109.4 119.6 110.8 118.3 112.3 118.3 C 113.4 118.3 114.4 118.9 114.8 120 C 114.82 119.98 114.8 115.3 114.8 115.3 L 115.3 115.3 L 115.3 124.8 L 114.9 124.8 L 114.9 123.2 C 114.9 123.2 114.85 123.19 114.8 123.2 C 114.4 124.4 113.4 124.9 112.3 124.9 C 110.8 124.9 109.4 123.6 109.4 121.6 Z M 114.8 121.6 C 114.8 119.9 113.7 118.8 112.4 118.8 C 111.1 118.8 109.9 119.9 109.9 121.6 C 109.9 123.3 111.1 124.4 112.4 124.4 C 113.7 124.4 114.8 123.3 114.8 121.6 Z M 117.1 121.6 C 117.1 119.7 118.5 118.3 120.2 118.3 C 121.9 118.3 123.2 119.7 123.2 121.6 C 123.2 123.6 121.9 124.9 120.2 124.9 C 118.5 124.9 117.1 123.6 117.1 121.6 Z M 122.7 121.6 C 122.7 119.8 121.5 118.8 120.2 118.8 C 118.9 118.8 117.7 119.8 117.7 121.6 C 117.7 123.4 118.9 124.4 120.2 124.4 C 121.5 124.4 122.7 123.4 122.7 121.6 Z M 129.8 120.6 C 129.84 120.56 129.8 124.8 129.8 124.8 L 129.3 124.8 C 129.3 124.8 129.34 120.77 129.3 120.8 C 129.3 119.5 128.7 118.8 127.5 118.8 C 126.4 118.8 125.6 119.5 125.6 120.7 C 125.56 120.71 125.6 124.8 125.6 124.8 L 125.1 124.8 L 125.1 118.4 L 125.5 118.4 L 125.5 119.6 C 125.5 119.6 125.52 119.56 125.5 119.6 C 125.9 118.8 126.6 118.3 127.6 118.3 C 129 118.3 129.8 119.2 129.8 120.6 Z M 134.7 124.4 C 135.2 124.4 135.8 124.3 136.4 123.9 C 136.4 123.9 136.4 124.5 136.4 124.5 C 135.9 124.8 135.3 124.9 134.7 124.9 C 132.9 124.9 131.6 123.5 131.6 121.6 C 131.6 119.7 132.9 118.3 134.7 118.3 C 135.2 118.3 135.8 118.4 136.4 118.8 C 136.4 118.8 136.4 119.3 136.4 119.3 C 135.8 118.9 135.2 118.8 134.6 118.8 C 133.3 118.8 132.1 119.9 132.1 121.6 C 132.1 123.3 133.3 124.4 134.7 124.4 Z M 144.8 117.3 L 144.3 117.3 L 142.7 115.4 L 143.3 115.4 L 144.8 117.3 Z M 140.9 121.6 C 140.9 119.6 142.3 118.3 143.8 118.3 C 144.8 118.3 145.8 118.9 146.3 120 C 146.26 120.02 146.3 118.4 146.3 118.4 L 146.7 118.4 L 146.7 124.8 L 146.3 124.8 C 146.3 124.8 146.26 123.2 146.3 123.2 C 145.8 124.4 144.8 124.9 143.8 124.9 C 142.3 124.9 140.9 123.6 140.9 121.6 Z M 146.3 121.6 C 146.3 119.9 145.1 118.8 143.8 118.8 C 142.5 118.8 141.4 119.9 141.4 121.6 C 141.4 123.3 142.5 124.4 143.8 124.4 C 145.1 124.4 146.3 123.3 146.3 121.6 Z M 152.2 115.3 L 152.7 115.3 L 152.7 124.8 L 152.2 124.8 L 152.2 115.3 Z M 154.6 121.6 C 154.6 119.6 156 118.3 157.5 118.3 C 158.5 118.3 159.5 118.9 160 120 C 159.97 120.02 160 118.4 160 118.4 L 160.4 118.4 L 160.4 124.8 L 160 124.8 C 160 124.8 159.97 123.2 160 123.2 C 159.5 124.4 158.5 124.9 157.5 124.9 C 156 124.9 154.6 123.6 154.6 121.6 Z M 160 121.6 C 160 119.9 158.8 118.8 157.5 118.8 C 156.2 118.8 155.1 119.9 155.1 121.6 C 155.1 123.3 156.2 124.4 157.5 124.4 C 158.8 124.4 160 123.3 160 121.6 Z " stroke="none" fill="#000"/>
  </g>
  <g id="Polygon18081">
    <path d="M 1.1 108.1 C 1.06 108.08 1.1 104 1.1 104 L 1.6 104 C 1.6 104 1.56 108.11 1.6 108.1 C 1.6 109.3 2.3 110 3.4 110 C 4.6 110 5.4 109.3 5.4 108.1 C 5.35 108.1 5.4 104 5.4 104 L 5.9 104 C 5.9 104 5.86 108.07 5.9 108.1 C 5.9 109.5 4.9 110.5 3.4 110.5 C 2 110.5 1.1 109.5 1.1 108.1 Z M 12.8 106.2 C 12.84 106.16 12.8 110.4 12.8 110.4 L 12.3 110.4 C 12.3 110.4 12.34 106.37 12.3 106.4 C 12.3 105.1 11.7 104.4 10.5 104.4 C 9.4 104.4 8.6 105.1 8.6 106.3 C 8.56 106.31 8.6 110.4 8.6 110.4 L 8.1 110.4 L 8.1 104 L 8.4 104 L 8.5 105.2 C 8.5 105.2 8.52 105.16 8.5 105.2 C 8.9 104.4 9.6 103.9 10.6 103.9 C 12 103.9 12.8 104.8 12.8 106.2 Z M 20.6 100.9 L 21.1 100.9 L 21.1 110.4 L 20.6 110.4 L 20.6 100.9 Z M 23.4 101.7 C 23.4 101.5 23.5 101.3 23.8 101.3 C 24 101.3 24.2 101.5 24.2 101.7 C 24.2 101.9 24 102.1 23.8 102.1 C 23.5 102.1 23.4 101.9 23.4 101.7 Z M 23.5 104 L 24 104 L 24 110.4 L 23.5 110.4 L 23.5 104 Z M 31.4 107.4 C 31.4 107.4 26.4 107.4 26.4 107.4 C 26.5 109 27.5 110 28.9 110 C 29.7 110 30.5 109.8 31.2 109.1 C 31.2 109.1 31.2 109.7 31.2 109.7 C 30.5 110.2 29.7 110.5 28.9 110.5 C 27.1 110.5 25.9 109.2 25.9 107.2 C 25.9 105.2 27.3 103.9 28.8 103.9 C 30.2 103.9 31.5 105 31.5 107.1 C 31.5 107.2 31.4 107.3 31.4 107.4 Z M 31 106.9 C 30.9 105.2 29.9 104.4 28.8 104.4 C 27.6 104.4 26.5 105.4 26.4 106.9 C 26.4 106.9 31 106.9 31 106.9 Z M 38 106.2 C 38.04 106.16 38 110.4 38 110.4 L 37.5 110.4 C 37.5 110.4 37.54 106.37 37.5 106.4 C 37.5 105.1 36.9 104.4 35.7 104.4 C 34.6 104.4 33.8 105.1 33.8 106.3 C 33.76 106.31 33.8 110.4 33.8 110.4 L 33.3 110.4 L 33.3 104 L 33.7 104 L 33.7 105.2 C 33.7 105.2 33.72 105.16 33.7 105.2 C 34.1 104.4 34.8 103.9 35.8 103.9 C 37.2 103.9 38 104.8 38 106.2 Z M 46.1 104.5 L 45.1 104.5 L 45.1 104 L 46 104 C 46 104 46.04 102.8 46 102.8 C 46 101.5 46.9 100.8 47.9 100.8 C 48.3 100.8 48.6 100.9 48.9 101 C 48.9 101 48.9 101.5 48.9 101.5 C 48.7 101.4 48.3 101.3 48 101.3 C 47.1 101.3 46.6 101.8 46.6 102.9 C 46.55 102.89 46.6 104 46.6 104 L 48.5 104 L 48.5 104.5 L 46.6 104.5 L 46.6 110.4 L 46.1 110.4 L 46.1 104.5 Z M 49.1 107.2 C 49.1 105.3 50.5 103.9 52.2 103.9 C 53.8 103.9 55.2 105.3 55.2 107.2 C 55.2 109.2 53.8 110.5 52.2 110.5 C 50.5 110.5 49.1 109.2 49.1 107.2 Z M 54.7 107.2 C 54.7 105.4 53.5 104.4 52.2 104.4 C 50.8 104.4 49.6 105.4 49.6 107.2 C 49.6 109 50.9 110 52.2 110 C 53.5 110 54.7 109 54.7 107.2 Z M 57 104 L 57.4 104 L 57.5 105.2 C 57.5 105.2 57.49 105.22 57.5 105.2 C 57.9 104.3 58.7 104 59.4 104 C 59.5 104 59.6 104 59.8 104 C 59.8 104 59.8 104.5 59.8 104.5 C 59.6 104.5 59.5 104.5 59.4 104.5 C 58.5 104.5 57.5 105.1 57.5 106.4 C 57.52 106.37 57.5 110.4 57.5 110.4 L 57 110.4 L 57 104 Z M 61.8 104 L 63.7 104 L 63.7 104.5 L 61.8 104.5 C 61.8 104.5 61.77 108.4 61.8 108.4 C 61.8 109.6 62.4 110 63.3 110 C 63.5 110 63.7 110 63.8 110 C 63.8 110 63.8 110.4 63.8 110.4 C 63.8 110.4 63.5 110.5 63.2 110.5 C 62.1 110.5 61.3 109.8 61.3 108.4 C 61.27 108.42 61.3 104.5 61.3 104.5 L 60.3 104.5 L 60.3 104 L 61.3 104 L 61.3 102.5 L 61.8 102.5 L 61.8 104 Z M 70.2 107.2 C 70.2 105.2 71.6 103.9 73.1 103.9 C 74.2 103.9 75.2 104.5 75.7 105.6 C 75.66 105.62 75.7 104 75.7 104 L 76.1 104 L 76.1 110.4 L 75.7 110.4 C 75.7 110.4 75.66 108.8 75.7 108.8 C 75.2 110 74.2 110.5 73.2 110.5 C 71.6 110.5 70.2 109.2 70.2 107.2 Z M 75.6 107.2 C 75.6 105.5 74.5 104.4 73.2 104.4 C 71.9 104.4 70.7 105.5 70.7 107.2 C 70.7 108.9 71.9 110 73.2 110 C 74.5 110 75.6 108.9 75.6 107.2 Z M 77.7 104 L 78.2 104 L 80.3 109.8 L 80.3 109.8 L 82.4 104 L 82.9 104 L 80.6 110.4 L 80 110.4 L 77.7 104 Z M 89.4 107.4 C 89.4 107.4 84.3 107.4 84.3 107.4 C 84.4 109 85.4 110 86.9 110 C 87.7 110 88.5 109.8 89.2 109.1 C 89.2 109.1 89.2 109.7 89.2 109.7 C 88.5 110.2 87.7 110.5 86.9 110.5 C 85.1 110.5 83.8 109.2 83.8 107.2 C 83.8 105.2 85.2 103.9 86.8 103.9 C 88.2 103.9 89.4 105 89.4 107.1 C 89.4 107.2 89.4 107.3 89.4 107.4 Z M 88.9 106.9 C 88.9 105.2 87.9 104.4 86.8 104.4 C 85.6 104.4 84.5 105.4 84.3 106.9 C 84.3 106.9 88.9 106.9 88.9 106.9 Z M 93.8 110 C 94.3 110 95 109.9 95.6 109.5 C 95.6 109.5 95.6 110.1 95.6 110.1 C 95.1 110.4 94.5 110.5 93.8 110.5 C 92.1 110.5 90.8 109.1 90.8 107.2 C 90.8 105.3 92.1 103.9 93.8 103.9 C 94.4 103.9 95 104 95.6 104.4 C 95.6 104.4 95.6 104.9 95.6 104.9 C 95 104.5 94.4 104.4 93.8 104.4 C 92.5 104.4 91.3 105.5 91.3 107.2 C 91.3 108.9 92.5 110 93.8 110 Z M 102.9 100.9 L 103.4 100.9 L 103.4 110.4 L 102.9 110.4 L 102.9 100.9 Z M 105.3 107.2 C 105.3 105.2 106.7 103.9 108.2 103.9 C 109.2 103.9 110.2 104.5 110.7 105.6 C 110.71 105.62 110.8 104 110.8 104 L 111.2 104 L 111.2 110.4 L 110.8 110.4 C 110.8 110.4 110.71 108.8 110.7 108.8 C 110.2 110 109.2 110.5 108.2 110.5 C 106.7 110.5 105.3 109.2 105.3 107.2 Z M 110.7 107.2 C 110.7 105.5 109.6 104.4 108.3 104.4 C 106.9 104.4 105.8 105.5 105.8 107.2 C 105.8 108.9 106.9 110 108.3 110 C 109.6 110 110.7 108.9 110.7 107.2 Z M 126.8 106.1 C 126.76 106.08 126.8 110.4 126.8 110.4 L 126.3 110.4 C 126.3 110.4 126.26 106.13 126.3 106.1 C 126.3 105.1 125.8 104.4 124.8 104.4 C 123.8 104.4 123.1 105.2 123.1 106.1 C 123.15 106.14 123.1 110.4 123.1 110.4 L 122.6 110.4 C 122.6 110.4 122.64 106.13 122.6 106.1 C 122.6 105.1 122.1 104.4 121.1 104.4 C 120.1 104.4 119.5 105.2 119.5 106.2 C 119.54 106.16 119.5 110.4 119.5 110.4 L 119 110.4 L 119 104 L 119.4 104 L 119.5 105.1 C 119.5 105.1 119.5 105.08 119.5 105.1 C 119.8 104.4 120.4 103.9 121.2 103.9 C 122.2 103.9 122.7 104.4 123 105.2 C 123.3 104.4 123.9 103.9 124.8 103.9 C 126.1 103.9 126.8 104.8 126.8 106.1 Z M 134.1 107.4 C 134.1 107.4 129 107.4 129 107.4 C 129.1 109 130.1 110 131.6 110 C 132.4 110 133.2 109.8 133.9 109.1 C 133.9 109.1 133.9 109.7 133.9 109.7 C 133.2 110.2 132.4 110.5 131.6 110.5 C 129.8 110.5 128.5 109.2 128.5 107.2 C 128.5 105.2 129.9 103.9 131.5 103.9 C 132.9 103.9 134.1 105 134.1 107.1 C 134.1 107.2 134.1 107.3 134.1 107.4 Z M 133.6 106.9 C 133.6 105.2 132.6 104.4 131.5 104.4 C 130.3 104.4 129.1 105.4 129 106.9 C 129 106.9 133.6 106.9 133.6 106.9 Z M 135.9 104 L 136.3 104 L 136.4 105.2 C 136.4 105.2 136.37 105.22 136.4 105.2 C 136.8 104.3 137.6 104 138.3 104 C 138.4 104 138.5 104 138.6 104 C 138.6 104 138.6 104.5 138.6 104.5 C 138.5 104.5 138.4 104.5 138.3 104.5 C 137.4 104.5 136.4 105.1 136.4 106.4 C 136.41 106.37 136.4 110.4 136.4 110.4 L 135.9 110.4 L 135.9 104 Z M 150.2 105.6 C 150.2 105.64 150.3 104 150.3 104 L 150.7 104 L 150.7 113 L 150.2 113 C 150.2 113 150.16 108.84 150.2 108.8 C 149.7 109.9 148.7 110.5 147.7 110.5 C 146.2 110.5 144.8 109.2 144.8 107.2 C 144.8 105.2 146.2 103.9 147.7 103.9 C 148.7 103.9 149.7 104.5 150.2 105.6 Z M 145.3 107.2 C 145.3 108.9 146.4 110 147.8 110 C 149.1 110 150.2 108.9 150.2 107.2 C 150.2 105.5 149.1 104.4 147.7 104.4 C 146.4 104.4 145.3 105.5 145.3 107.2 Z M 152.9 108.1 C 152.86 108.08 152.9 104 152.9 104 L 153.4 104 C 153.4 104 153.37 108.11 153.4 108.1 C 153.4 109.3 154.1 110 155.3 110 C 156.4 110 157.2 109.3 157.2 108.1 C 157.16 108.1 157.2 104 157.2 104 L 157.7 104 C 157.7 104 157.66 108.07 157.7 108.1 C 157.7 109.5 156.7 110.5 155.3 110.5 C 153.8 110.5 152.9 109.5 152.9 108.1 Z M 159.8 101.7 C 159.8 101.5 159.9 101.3 160.1 101.3 C 160.4 101.3 160.6 101.5 160.6 101.7 C 160.6 101.9 160.4 102.1 160.1 102.1 C 159.9 102.1 159.8 101.9 159.8 101.7 Z M 159.9 104 L 160.4 104 L 160.4 110.4 L 159.9 110.4 L 159.9 104 Z " stroke="none" fill="#000"/>
  </g>
  <g id="Polygon18080">
    <path d="M 5.9 91.8 C 5.93 91.76 5.9 96 5.9 96 L 5.4 96 C 5.4 96 5.42 91.97 5.4 92 C 5.4 90.7 4.8 90 3.6 90 C 2.5 90 1.6 90.7 1.6 91.9 C 1.64 91.91 1.6 96 1.6 96 L 1.1 96 L 1.1 89.6 L 1.5 89.6 L 1.6 90.8 C 1.6 90.8 1.61 90.76 1.6 90.8 C 2 90 2.7 89.5 3.7 89.5 C 5 89.5 5.9 90.4 5.9 91.8 Z M 8 87.3 C 8 87.1 8.2 86.9 8.4 86.9 C 8.7 86.9 8.8 87.1 8.8 87.3 C 8.8 87.5 8.7 87.7 8.4 87.7 C 8.2 87.7 8 87.5 8 87.3 Z M 8.2 89.6 L 8.7 89.6 L 8.7 96 L 8.2 96 L 8.2 89.6 Z M 13.7 88.5 L 12.1 86.6 L 12.7 86.6 L 14.2 88.5 L 13.7 88.5 Z M 16.1 93 C 16.1 93 11 93 11 93 C 11.1 94.6 12.2 95.6 13.6 95.6 C 14.4 95.6 15.2 95.4 15.9 94.7 C 15.9 94.7 15.9 95.3 15.9 95.3 C 15.2 95.8 14.4 96.1 13.6 96.1 C 11.8 96.1 10.5 94.8 10.5 92.8 C 10.5 90.8 12 89.5 13.5 89.5 C 14.9 89.5 16.1 90.6 16.1 92.7 C 16.1 92.8 16.1 92.9 16.1 93 Z M 15.6 92.5 C 15.6 90.8 14.6 90 13.5 90 C 12.3 90 11.2 91 11.1 92.5 C 11.1 92.5 15.6 92.5 15.6 92.5 Z M 17.9 89.6 L 18.3 89.6 L 18.4 90.8 C 18.4 90.8 18.38 90.82 18.4 90.8 C 18.8 89.9 19.6 89.6 20.3 89.6 C 20.4 89.6 20.5 89.6 20.7 89.6 C 20.7 89.6 20.7 90.1 20.7 90.1 C 20.5 90.1 20.4 90.1 20.3 90.1 C 19.4 90.1 18.4 90.7 18.4 92 C 18.42 91.97 18.4 96 18.4 96 L 17.9 96 L 17.9 89.6 Z M 26.8 93 C 26.8 93 21.7 93 21.7 93 C 21.8 94.6 22.8 95.6 24.3 95.6 C 25.1 95.6 25.9 95.4 26.6 94.7 C 26.6 94.7 26.6 95.3 26.6 95.3 C 25.9 95.8 25.1 96.1 24.3 96.1 C 22.5 96.1 21.2 94.8 21.2 92.8 C 21.2 90.8 22.6 89.5 24.2 89.5 C 25.6 89.5 26.8 90.6 26.8 92.7 C 26.8 92.8 26.8 92.9 26.8 93 Z M 26.3 92.5 C 26.3 90.8 25.3 90 24.2 90 C 23 90 21.9 91 21.7 92.5 C 21.7 92.5 26.3 92.5 26.3 92.5 Z M 32.1 92.8 C 32.1 90.9 33.5 89.5 35.1 89.5 C 36.8 89.5 38.2 90.9 38.2 92.8 C 38.2 94.8 36.8 96.1 35.1 96.1 C 33.5 96.1 32.1 94.8 32.1 92.8 Z M 37.7 92.8 C 37.7 91 36.4 90 35.1 90 C 33.8 90 32.6 91 32.6 92.8 C 32.6 94.6 33.8 95.6 35.1 95.6 C 36.4 95.6 37.7 94.6 37.7 92.8 Z M 44.8 91.8 C 44.78 91.76 44.8 96 44.8 96 L 44.3 96 C 44.3 96 44.28 91.97 44.3 92 C 44.3 90.7 43.6 90 42.5 90 C 41.4 90 40.5 90.7 40.5 91.9 C 40.49 91.91 40.5 96 40.5 96 L 40 96 L 40 89.6 L 40.4 89.6 L 40.4 90.8 C 40.4 90.8 40.46 90.76 40.5 90.8 C 40.8 90 41.6 89.5 42.5 89.5 C 43.9 89.5 44.8 90.4 44.8 91.8 Z M 55.8 91.2 C 55.83 91.16 55.9 89.6 55.9 89.6 L 56.3 89.6 C 56.3 89.6 56.29 95.8 56.3 95.8 C 56.3 97.8 54.9 98.7 53.5 98.7 C 52.6 98.7 51.8 98.4 51.1 97.9 C 51.1 97.9 51.1 97.3 51.1 97.3 C 51.8 97.9 52.6 98.2 53.5 98.2 C 54.7 98.2 55.8 97.5 55.8 95.9 C 55.8 95.9 55.8 94.3 55.8 94.3 C 55.3 95.4 54.4 95.9 53.3 95.9 C 51.8 95.9 50.5 94.7 50.5 92.7 C 50.5 90.8 51.8 89.5 53.3 89.5 C 54.3 89.5 55.4 90.1 55.8 91.2 Z M 51 92.7 C 51 94.4 52.1 95.4 53.4 95.4 C 54.7 95.4 55.8 94.3 55.8 92.7 C 55.8 91.1 54.7 90 53.4 90 C 52.1 90 51 91.1 51 92.7 Z M 58.1 92.8 C 58.1 90.8 59.5 89.5 61 89.5 C 62 89.5 63.1 90.1 63.5 91.2 C 63.53 91.22 63.6 89.6 63.6 89.6 L 64 89.6 L 64 96 L 63.6 96 C 63.6 96 63.53 94.4 63.5 94.4 C 63.1 95.6 62 96.1 61 96.1 C 59.5 96.1 58.1 94.8 58.1 92.8 Z M 63.5 92.8 C 63.5 91.1 62.4 90 61.1 90 C 59.8 90 58.6 91.1 58.6 92.8 C 58.6 94.5 59.8 95.6 61.1 95.6 C 62.4 95.6 63.5 94.5 63.5 92.8 Z M 66.3 89.6 L 66.7 89.6 L 66.7 90.8 C 66.7 90.8 66.75 90.82 66.7 90.8 C 67.1 89.9 68 89.6 68.6 89.6 C 68.8 89.6 68.9 89.6 69 89.6 C 69 89.6 69 90.1 69 90.1 C 68.9 90.1 68.8 90.1 68.6 90.1 C 67.7 90.1 66.8 90.7 66.8 92 C 66.78 91.97 66.8 96 66.8 96 L 66.3 96 L 66.3 89.6 Z M 69.6 92.8 C 69.6 90.8 71 89.5 72.5 89.5 C 73.5 89.5 74.5 90.1 75 91.2 C 74.97 91.18 75 86.5 75 86.5 L 75.5 86.5 L 75.5 96 L 75.1 96 L 75 94.4 C 75 94.4 74.99 94.39 75 94.4 C 74.5 95.6 73.5 96.1 72.5 96.1 C 71 96.1 69.6 94.8 69.6 92.8 Z M 75 92.8 C 75 91.1 73.9 90 72.5 90 C 71.2 90 70.1 91.1 70.1 92.8 C 70.1 94.5 71.2 95.6 72.5 95.6 C 73.9 95.6 75 94.5 75 92.8 Z M 82.9 93 C 82.9 93 77.8 93 77.8 93 C 77.9 94.6 78.9 95.6 80.4 95.6 C 81.1 95.6 82 95.4 82.6 94.7 C 82.6 94.7 82.6 95.3 82.6 95.3 C 82 95.8 81.2 96.1 80.3 96.1 C 78.6 96.1 77.3 94.8 77.3 92.8 C 77.3 90.8 78.7 89.5 80.3 89.5 C 81.7 89.5 82.9 90.6 82.9 92.7 C 82.9 92.8 82.9 92.9 82.9 93 Z M 82.4 92.5 C 82.4 90.8 81.3 90 80.3 90 C 79 90 77.9 91 77.8 92.5 C 77.8 92.5 82.4 92.5 82.4 92.5 Z M 93.7 93 C 93.7 93 88.7 93 88.7 93 C 88.8 94.6 89.8 95.6 91.2 95.6 C 92 95.6 92.8 95.4 93.5 94.7 C 93.5 94.7 93.5 95.3 93.5 95.3 C 92.8 95.8 92 96.1 91.2 96.1 C 89.4 96.1 88.2 94.8 88.2 92.8 C 88.2 90.8 89.6 89.5 91.1 89.5 C 92.5 89.5 93.8 90.6 93.8 92.7 C 93.8 92.8 93.7 92.9 93.7 93 Z M 93.3 92.5 C 93.2 90.8 92.2 90 91.1 90 C 89.9 90 88.8 91 88.7 92.5 C 88.7 92.5 93.3 92.5 93.3 92.5 Z M 100.3 91.8 C 100.34 91.76 100.3 96 100.3 96 L 99.8 96 C 99.8 96 99.84 91.97 99.8 92 C 99.8 90.7 99.2 90 98 90 C 96.9 90 96.1 90.7 96.1 91.9 C 96.06 91.91 96.1 96 96.1 96 L 95.6 96 L 95.6 89.6 L 96 89.6 L 96 90.8 C 96 90.8 96.02 90.76 96 90.8 C 96.4 90 97.1 89.5 98.1 89.5 C 99.5 89.5 100.3 90.4 100.3 91.8 Z M 106.5 89.6 L 106.9 89.6 C 106.9 89.6 106.94 91.24 106.9 91.2 C 107.4 90.1 108.4 89.5 109.4 89.5 C 111 89.5 112.4 90.8 112.4 92.8 C 112.4 94.8 111 96.1 109.4 96.1 C 108.4 96.1 107.4 95.5 107 94.5 C 106.97 94.45 107 98.6 107 98.6 L 106.5 98.6 L 106.5 89.6 Z M 111.8 92.8 C 111.8 91.1 110.7 90 109.4 90 C 108.1 90 107 91.1 107 92.8 C 107 94.5 108.1 95.6 109.4 95.6 C 110.7 95.6 111.8 94.5 111.8 92.8 Z M 119.3 93 C 119.3 93 114.2 93 114.2 93 C 114.3 94.6 115.4 95.6 116.8 95.6 C 117.6 95.6 118.4 95.4 119.1 94.7 C 119.1 94.7 119.1 95.3 119.1 95.3 C 118.4 95.8 117.6 96.1 116.8 96.1 C 115 96.1 113.7 94.8 113.7 92.8 C 113.7 90.8 115.2 89.5 116.7 89.5 C 118.1 89.5 119.3 90.6 119.3 92.7 C 119.3 92.8 119.3 92.9 119.3 93 Z M 118.8 92.5 C 118.8 90.8 117.8 90 116.7 90 C 115.5 90 114.4 91 114.3 92.5 C 114.3 92.5 118.8 92.5 118.8 92.5 Z M 121.1 89.6 L 121.5 89.6 L 121.6 90.8 C 121.6 90.8 121.59 90.82 121.6 90.8 C 122 89.9 122.8 89.6 123.5 89.6 C 123.6 89.6 123.8 89.6 123.9 89.6 C 123.9 89.6 123.9 90.1 123.9 90.1 C 123.8 90.1 123.6 90.1 123.5 90.1 C 122.6 90.1 121.6 90.7 121.6 92 C 121.63 91.97 121.6 96 121.6 96 L 121.1 96 L 121.1 89.6 Z M 132.9 91.7 C 132.92 91.68 132.9 96 132.9 96 L 132.4 96 C 132.4 96 132.42 91.73 132.4 91.7 C 132.4 90.7 131.9 90 130.9 90 C 129.9 90 129.3 90.8 129.3 91.7 C 129.31 91.74 129.3 96 129.3 96 L 128.8 96 C 128.8 96 128.8 91.73 128.8 91.7 C 128.8 90.7 128.3 90 127.3 90 C 126.3 90 125.7 90.8 125.7 91.8 C 125.69 91.76 125.7 96 125.7 96 L 125.2 96 L 125.2 89.6 L 125.6 89.6 L 125.6 90.7 C 125.6 90.7 125.66 90.68 125.7 90.7 C 125.9 90 126.6 89.5 127.4 89.5 C 128.3 89.5 128.9 90 129.2 90.8 C 129.4 90 130.1 89.5 131 89.5 C 132.3 89.5 132.9 90.4 132.9 91.7 Z M 134.7 92.8 C 134.7 90.8 136.1 89.5 137.6 89.5 C 138.6 89.5 139.6 90.1 140.1 91.2 C 140.08 91.22 140.2 89.6 140.2 89.6 L 140.6 89.6 L 140.6 96 L 140.2 96 C 140.2 96 140.08 94.4 140.1 94.4 C 139.6 95.6 138.6 96.1 137.6 96.1 C 136.1 96.1 134.7 94.8 134.7 92.8 Z M 140.1 92.8 C 140.1 91.1 139 90 137.6 90 C 136.3 90 135.2 91.1 135.2 92.8 C 135.2 94.5 136.3 95.6 137.6 95.6 C 138.9 95.6 140.1 94.5 140.1 92.8 Z M 147.6 91.8 C 147.62 91.76 147.6 96 147.6 96 L 147.1 96 C 147.1 96 147.12 91.97 147.1 92 C 147.1 90.7 146.5 90 145.3 90 C 144.2 90 143.3 90.7 143.3 91.9 C 143.33 91.91 143.3 96 143.3 96 L 142.8 96 L 142.8 89.6 L 143.2 89.6 L 143.3 90.8 C 143.3 90.8 143.3 90.76 143.3 90.8 C 143.6 90 144.4 89.5 145.4 89.5 C 146.7 89.5 147.6 90.4 147.6 91.8 Z M 152.4 95.6 C 152.9 95.6 153.6 95.5 154.2 95.1 C 154.2 95.1 154.2 95.7 154.2 95.7 C 153.7 96 153.1 96.1 152.4 96.1 C 150.7 96.1 149.4 94.7 149.4 92.8 C 149.4 90.9 150.7 89.5 152.4 89.5 C 153 89.5 153.6 89.6 154.2 90 C 154.2 90 154.2 90.5 154.2 90.5 C 153.6 90.1 153 90 152.4 90 C 151.1 90 149.9 91.1 149.9 92.8 C 149.9 94.5 151.1 95.6 152.4 95.6 Z M 160.9 93 C 160.9 93 155.8 93 155.8 93 C 155.9 94.6 157 95.6 158.4 95.6 C 159.2 95.6 160 95.4 160.7 94.7 C 160.7 94.7 160.7 95.3 160.7 95.3 C 160 95.8 159.2 96.1 158.4 96.1 C 156.6 96.1 155.3 94.8 155.3 92.8 C 155.3 90.8 156.8 89.5 158.3 89.5 C 159.7 89.5 160.9 90.6 160.9 92.7 C 160.9 92.8 160.9 92.9 160.9 93 Z M 160.4 92.5 C 160.4 90.8 159.4 90 158.3 90 C 157.1 90 156 91 155.9 92.5 C 155.9 92.5 160.4 92.5 160.4 92.5 Z " stroke="none" fill="#000"/>
  </g>
  <g id="Polygon18079">
    <path d="M 4.7 75.7 C 4.7 75.7 4.7 76.2 4.7 76.2 C 4.2 75.9 3.6 75.6 2.9 75.6 C 1.9 75.6 1.3 76.1 1.3 76.8 C 1.3 77.5 2 77.8 3 78.1 C 4 78.5 5 78.8 5 79.9 C 5 81 4.1 81.7 2.8 81.7 C 2.1 81.7 1.3 81.5 0.7 81 C 0.7 81 0.7 80.3 0.7 80.3 C 1.2 80.9 2 81.2 2.8 81.2 C 3.9 81.2 4.5 80.7 4.5 79.9 C 4.5 79.2 3.8 78.9 2.8 78.5 C 1.7 78.2 0.8 77.9 0.8 76.8 C 0.8 75.8 1.6 75.1 2.9 75.1 C 3.6 75.1 4.2 75.3 4.7 75.7 Z M 6.7 79.3 C 6.67 79.28 6.7 75.2 6.7 75.2 L 7.2 75.2 C 7.2 75.2 7.18 79.31 7.2 79.3 C 7.2 80.5 7.9 81.2 9.1 81.2 C 10.2 81.2 11 80.5 11 79.3 C 10.97 79.3 11 75.2 11 75.2 L 11.5 75.2 C 11.5 75.2 11.47 79.27 11.5 79.3 C 11.5 80.7 10.5 81.7 9.1 81.7 C 7.6 81.7 6.7 80.7 6.7 79.3 Z M 13.7 75.2 L 14.1 75.2 L 14.1 76.4 C 14.1 76.4 14.14 76.42 14.1 76.4 C 14.5 75.5 15.4 75.2 16 75.2 C 16.2 75.2 16.3 75.2 16.4 75.2 C 16.4 75.2 16.4 75.7 16.4 75.7 C 16.3 75.7 16.2 75.7 16 75.7 C 15.1 75.7 14.2 76.3 14.2 77.6 C 14.17 77.57 14.2 81.6 14.2 81.6 L 13.7 81.6 L 13.7 75.2 Z M 24.9 72.1 L 25.4 72.1 L 25.4 81.6 L 24.9 81.6 L 24.9 72.1 Z M 27.9 73.1 C 27.94 73.13 27.9 72.7 27.9 72.7 L 28.4 72.7 C 28.4 72.7 28.44 73.12 28.4 73.1 C 28.4 74.1 28 75.1 27.8 75.7 C 27.8 75.7 27.4 75.7 27.4 75.7 C 27.6 75.1 27.9 74.1 27.9 73.1 Z M 30.9 76.2 C 30.9 76.2 30.87 76.24 30.9 76.2 C 31.2 75.5 32 75.1 32.9 75.1 C 34.3 75.1 35.1 75.9 35.1 77.4 C 35.14 77.38 35.1 81.6 35.1 81.6 L 34.6 81.6 C 34.6 81.6 34.64 77.56 34.6 77.6 C 34.6 76.3 34 75.6 32.8 75.6 C 31.8 75.6 30.9 76.2 30.9 77.4 C 30.86 77.45 30.9 81.6 30.9 81.6 L 30.4 81.6 L 30.4 72.1 L 30.9 72.1 L 30.9 76.2 Z M 36.9 78.4 C 36.9 76.5 38.3 75.1 39.9 75.1 C 41.6 75.1 43 76.5 43 78.4 C 43 80.4 41.6 81.7 39.9 81.7 C 38.3 81.7 36.9 80.4 36.9 78.4 Z M 42.5 78.4 C 42.5 76.6 41.2 75.6 39.9 75.6 C 38.6 75.6 37.4 76.6 37.4 78.4 C 37.4 80.2 38.6 81.2 39.9 81.2 C 41.2 81.2 42.5 80.2 42.5 78.4 Z M 44.8 75.2 L 45.2 75.2 L 45.3 76.4 C 45.3 76.4 45.27 76.42 45.3 76.4 C 45.7 75.5 46.5 75.2 47.2 75.2 C 47.3 75.2 47.4 75.2 47.5 75.2 C 47.5 75.2 47.5 75.7 47.5 75.7 C 47.4 75.7 47.3 75.7 47.2 75.7 C 46.3 75.7 45.3 76.3 45.3 77.6 C 45.3 77.57 45.3 81.6 45.3 81.6 L 44.8 81.6 L 44.8 75.2 Z M 48.8 72.9 C 48.8 72.7 48.9 72.5 49.2 72.5 C 49.4 72.5 49.6 72.7 49.6 72.9 C 49.6 73.1 49.4 73.3 49.2 73.3 C 48.9 73.3 48.8 73.1 48.8 72.9 Z M 48.9 75.2 L 49.4 75.2 L 49.4 81.6 L 48.9 81.6 L 48.9 75.2 Z M 51.8 81.1 L 55.6 81.1 L 55.6 81.6 L 50.9 81.6 L 55 75.7 L 55 75.7 L 51.3 75.7 L 51.3 75.2 L 55.9 75.2 L 51.8 81.1 Z M 56.8 78.4 C 56.8 76.5 58.1 75.1 59.8 75.1 C 61.5 75.1 62.8 76.5 62.8 78.4 C 62.8 80.4 61.5 81.7 59.8 81.7 C 58.1 81.7 56.8 80.4 56.8 78.4 Z M 62.3 78.4 C 62.3 76.6 61.1 75.6 59.8 75.6 C 58.5 75.6 57.3 76.6 57.3 78.4 C 57.3 80.2 58.5 81.2 59.8 81.2 C 61.1 81.2 62.3 80.2 62.3 78.4 Z M 69.5 77.4 C 69.46 77.36 69.5 81.6 69.5 81.6 L 69 81.6 C 69 81.6 68.96 77.57 69 77.6 C 69 76.3 68.3 75.6 67.1 75.6 C 66.1 75.6 65.2 76.3 65.2 77.5 C 65.18 77.51 65.2 81.6 65.2 81.6 L 64.7 81.6 L 64.7 75.2 L 65.1 75.2 L 65.1 76.4 C 65.1 76.4 65.14 76.36 65.1 76.4 C 65.5 75.6 66.3 75.1 67.2 75.1 C 68.6 75.1 69.5 76 69.5 77.4 Z M 71.4 81.2 C 71.4 80.9 71.6 80.7 71.9 80.7 C 72.2 80.7 72.4 80.9 72.4 81.2 C 72.4 81.4 72.2 81.6 71.9 81.6 C 71.6 81.6 71.4 81.4 71.4 81.2 Z M 88.6 77.1 C 88.6 79.9 86.7 81.6 83.9 81.6 C 83.95 81.6 82.1 81.6 82.1 81.6 L 82.1 72.7 C 82.1 72.7 83.95 72.68 83.9 72.7 C 86.8 72.7 88.6 74.4 88.6 77.1 Z M 82.7 81.1 C 82.7 81.1 83.97 81.12 84 81.1 C 86.4 81.1 88.1 79.7 88.1 77.1 C 88.1 74.6 86.4 73.2 84 73.2 C 83.98 73.18 82.7 73.2 82.7 73.2 L 82.7 81.1 Z M 95.6 78.6 C 95.6 78.6 90.6 78.6 90.6 78.6 C 90.7 80.2 91.7 81.2 93.2 81.2 C 93.9 81.2 94.7 81 95.4 80.3 C 95.4 80.3 95.4 80.9 95.4 80.9 C 94.7 81.4 94 81.7 93.1 81.7 C 91.3 81.7 90.1 80.4 90.1 78.4 C 90.1 76.4 91.5 75.1 93 75.1 C 94.5 75.1 95.7 76.2 95.7 78.3 C 95.7 78.4 95.7 78.5 95.6 78.6 Z M 95.2 78.1 C 95.1 76.4 94.1 75.6 93 75.6 C 91.8 75.6 90.7 76.6 90.6 78.1 C 90.6 78.1 95.2 78.1 95.2 78.1 Z M 107.6 81.2 C 108.1 81.2 108.7 81.1 109.3 80.7 C 109.3 80.7 109.3 81.3 109.3 81.3 C 108.8 81.6 108.2 81.7 107.6 81.7 C 105.8 81.7 104.5 80.3 104.5 78.4 C 104.5 76.5 105.8 75.1 107.5 75.1 C 108.1 75.1 108.7 75.2 109.3 75.6 C 109.3 75.6 109.3 76.1 109.3 76.1 C 108.7 75.7 108.1 75.6 107.5 75.6 C 106.2 75.6 105 76.7 105 78.4 C 105 80.1 106.2 81.2 107.6 81.2 Z M 116 78.6 C 116 78.6 111 78.6 111 78.6 C 111 80.2 112.1 81.2 113.5 81.2 C 114.3 81.2 115.1 81 115.8 80.3 C 115.8 80.3 115.8 80.9 115.8 80.9 C 115.1 81.4 114.3 81.7 113.5 81.7 C 111.7 81.7 110.5 80.4 110.5 78.4 C 110.5 76.4 111.9 75.1 113.4 75.1 C 114.8 75.1 116 76.2 116 78.3 C 116 78.4 116 78.5 116 78.6 Z M 115.5 78.1 C 115.5 76.4 114.5 75.6 113.4 75.6 C 112.2 75.6 111.1 76.6 111 78.1 C 111 78.1 115.5 78.1 115.5 78.1 Z M 118.5 75.2 L 120.3 75.2 L 120.3 75.7 L 118.5 75.7 C 118.5 75.7 118.45 79.6 118.5 79.6 C 118.5 80.8 119.1 81.2 120 81.2 C 120.2 81.2 120.3 81.2 120.5 81.2 C 120.5 81.2 120.5 81.6 120.5 81.6 C 120.5 81.6 120.2 81.7 119.9 81.7 C 118.8 81.7 118 81 118 79.6 C 117.95 79.62 118 75.7 118 75.7 L 117 75.7 L 117 75.2 L 118 75.2 L 118 73.7 L 118.5 73.7 L 118.5 75.2 Z M 122.6 75.2 L 124.5 75.2 L 124.5 75.7 L 122.6 75.7 C 122.6 75.7 122.57 79.6 122.6 79.6 C 122.6 80.8 123.2 81.2 124.1 81.2 C 124.3 81.2 124.5 81.2 124.6 81.2 C 124.6 81.2 124.6 81.6 124.6 81.6 C 124.6 81.6 124.3 81.7 124 81.7 C 122.9 81.7 122.1 81 122.1 79.6 C 122.07 79.62 122.1 75.7 122.1 75.7 L 121.1 75.7 L 121.1 75.2 L 122.1 75.2 L 122.1 73.7 L 122.6 73.7 L 122.6 75.2 Z M 131 78.6 C 131 78.6 126 78.6 126 78.6 C 126.1 80.2 127.1 81.2 128.5 81.2 C 129.3 81.2 130.1 81 130.8 80.3 C 130.8 80.3 130.8 80.9 130.8 80.9 C 130.1 81.4 129.3 81.7 128.5 81.7 C 126.7 81.7 125.5 80.4 125.5 78.4 C 125.5 76.4 126.9 75.1 128.4 75.1 C 129.8 75.1 131.1 76.2 131.1 78.3 C 131.1 78.4 131 78.5 131 78.6 Z M 130.6 78.1 C 130.5 76.4 129.5 75.6 128.4 75.6 C 127.2 75.6 126.1 76.6 126 78.1 C 126 78.1 130.6 78.1 130.6 78.1 Z M 148 77.3 C 148.04 77.28 148 81.6 148 81.6 L 147.5 81.6 C 147.5 81.6 147.54 77.33 147.5 77.3 C 147.5 76.3 147 75.6 146 75.6 C 145 75.6 144.4 76.4 144.4 77.3 C 144.43 77.34 144.4 81.6 144.4 81.6 L 143.9 81.6 C 143.9 81.6 143.92 77.33 143.9 77.3 C 143.9 76.3 143.4 75.6 142.4 75.6 C 141.4 75.6 140.8 76.4 140.8 77.4 C 140.81 77.36 140.8 81.6 140.8 81.6 L 140.3 81.6 L 140.3 75.2 L 140.7 75.2 L 140.8 76.3 C 140.8 76.3 140.78 76.28 140.8 76.3 C 141.1 75.6 141.7 75.1 142.5 75.1 C 143.4 75.1 144 75.6 144.3 76.4 C 144.6 75.6 145.2 75.1 146.1 75.1 C 147.4 75.1 148 76 148 77.3 Z M 149.8 78.4 C 149.8 76.4 151.2 75.1 152.7 75.1 C 153.7 75.1 154.7 75.7 155.2 76.8 C 155.2 76.82 155.3 75.2 155.3 75.2 L 155.7 75.2 L 155.7 81.6 L 155.3 81.6 C 155.3 81.6 155.2 80 155.2 80 C 154.7 81.2 153.7 81.7 152.7 81.7 C 151.2 81.7 149.8 80.4 149.8 78.4 Z M 155.2 78.4 C 155.2 76.7 154.1 75.6 152.7 75.6 C 151.4 75.6 150.3 76.7 150.3 78.4 C 150.3 80.1 151.4 81.2 152.8 81.2 C 154.1 81.2 155.2 80.1 155.2 78.4 Z M 157.8 77.7 L 160.6 77.7 L 160.6 78.2 L 157.8 78.2 L 157.8 77.7 Z " stroke="none" fill="#000"/>
  </g>
  <g id="Polygon18078">
    <path d="M 0.7 64 C 0.7 62.1 2.1 60.7 3.7 60.7 C 5.4 60.7 6.8 62.1 6.8 64 C 6.8 66 5.4 67.3 3.7 67.3 C 2.1 67.3 0.7 66 0.7 64 Z M 6.3 64 C 6.3 62.2 5 61.2 3.7 61.2 C 2.4 61.2 1.2 62.2 1.2 64 C 1.2 65.8 2.4 66.8 3.7 66.8 C 5 66.8 6.3 65.8 6.3 64 Z M 8.7 61.3 L 7.8 61.3 L 7.8 60.8 L 8.7 60.8 C 8.7 60.8 8.72 59.6 8.7 59.6 C 8.7 58.3 9.6 57.6 10.6 57.6 C 11 57.6 11.3 57.7 11.6 57.8 C 11.6 57.8 11.6 58.3 11.6 58.3 C 11.4 58.2 11 58.1 10.7 58.1 C 9.8 58.1 9.2 58.6 9.2 59.7 C 9.24 59.69 9.2 60.8 9.2 60.8 L 11.2 60.8 L 11.2 61.3 L 9.2 61.3 L 9.2 67.2 L 8.7 67.2 L 8.7 61.3 Z M 12.7 61.3 L 11.8 61.3 L 11.8 60.8 L 12.7 60.8 C 12.7 60.8 12.73 59.6 12.7 59.6 C 12.7 58.3 13.6 57.6 14.6 57.6 C 15 57.6 15.3 57.7 15.6 57.8 C 15.6 57.8 15.6 58.3 15.6 58.3 C 15.4 58.2 15 58.1 14.7 58.1 C 13.8 58.1 13.2 58.6 13.2 59.7 C 13.25 59.69 13.2 60.8 13.2 60.8 L 15.2 60.8 L 15.2 61.3 L 13.2 61.3 L 13.2 67.2 L 12.7 67.2 L 12.7 61.3 Z M 16.5 60.8 L 16.9 60.8 L 17 62 C 17 62 16.98 62.02 17 62 C 17.4 61.1 18.2 60.8 18.9 60.8 C 19 60.8 19.1 60.8 19.2 60.8 C 19.2 60.8 19.2 61.3 19.2 61.3 C 19.1 61.3 19 61.3 18.9 61.3 C 18 61.3 17 61.9 17 63.2 C 17.02 63.17 17 67.2 17 67.2 L 16.5 67.2 L 16.5 60.8 Z M 19.8 64 C 19.8 62 21.2 60.7 22.7 60.7 C 23.7 60.7 24.8 61.3 25.2 62.4 C 25.22 62.42 25.3 60.8 25.3 60.8 L 25.7 60.8 L 25.7 67.2 L 25.3 67.2 C 25.3 67.2 25.22 65.6 25.2 65.6 C 24.8 66.8 23.7 67.3 22.7 67.3 C 21.2 67.3 19.8 66 19.8 64 Z M 25.2 64 C 25.2 62.3 24.1 61.2 22.8 61.2 C 21.4 61.2 20.3 62.3 20.3 64 C 20.3 65.7 21.5 66.8 22.8 66.8 C 24.1 66.8 25.2 65.7 25.2 64 Z M 32.8 63 C 32.76 62.96 32.8 67.2 32.8 67.2 L 32.3 67.2 C 32.3 67.2 32.26 63.17 32.3 63.2 C 32.3 61.9 31.6 61.2 30.4 61.2 C 29.4 61.2 28.5 61.9 28.5 63.1 C 28.48 63.11 28.5 67.2 28.5 67.2 L 28 67.2 L 28 60.8 L 28.4 60.8 L 28.4 62 C 28.4 62 28.44 61.96 28.4 62 C 28.8 61.2 29.6 60.7 30.5 60.7 C 31.9 60.7 32.8 61.6 32.8 63 Z M 35.6 60.8 L 37.5 60.8 L 37.5 61.3 L 35.6 61.3 C 35.6 61.3 35.58 65.2 35.6 65.2 C 35.6 66.4 36.2 66.8 37.1 66.8 C 37.3 66.8 37.5 66.8 37.7 66.8 C 37.7 66.8 37.7 67.2 37.7 67.2 C 37.6 67.2 37.3 67.3 37.1 67.3 C 35.9 67.3 35.1 66.6 35.1 65.2 C 35.08 65.22 35.1 61.3 35.1 61.3 L 34.1 61.3 L 34.1 60.8 L 35.1 60.8 L 35.1 59.3 L 35.6 59.3 L 35.6 60.8 Z M 45.5 64.9 C 45.5 64.88 45.5 60.8 45.5 60.8 L 46 60.8 C 46 60.8 46 64.91 46 64.9 C 46 66.1 46.7 66.8 47.9 66.8 C 49 66.8 49.8 66.1 49.8 64.9 C 49.79 64.9 49.8 60.8 49.8 60.8 L 50.3 60.8 C 50.3 60.8 50.29 64.87 50.3 64.9 C 50.3 66.3 49.4 67.3 47.9 67.3 C 46.4 67.3 45.5 66.3 45.5 64.9 Z M 57.3 63 C 57.28 62.96 57.3 67.2 57.3 67.2 L 56.8 67.2 C 56.8 67.2 56.78 63.17 56.8 63.2 C 56.8 61.9 56.1 61.2 55 61.2 C 53.9 61.2 53 61.9 53 63.1 C 52.99 63.11 53 67.2 53 67.2 L 52.5 67.2 L 52.5 60.8 L 52.9 60.8 L 52.9 62 C 52.9 62 52.96 61.96 53 62 C 53.3 61.2 54.1 60.7 55 60.7 C 56.4 60.7 57.3 61.6 57.3 63 Z M 64.6 64.2 C 64.6 64.2 59.5 64.2 59.5 64.2 C 59.6 65.8 60.7 66.8 62.1 66.8 C 62.9 66.8 63.7 66.6 64.4 65.9 C 64.4 65.9 64.4 66.5 64.4 66.5 C 63.7 67 62.9 67.3 62.1 67.3 C 60.3 67.3 59 66 59 64 C 59 62 60.4 60.7 62 60.7 C 63.4 60.7 64.6 61.8 64.6 63.9 C 64.6 64 64.6 64.1 64.6 64.2 Z M 64.1 63.7 C 64.1 62 63.1 61.2 62 61.2 C 60.8 61.2 59.7 62.2 59.5 63.7 C 59.5 63.7 64.1 63.7 64.1 63.7 Z M 72 60.8 L 72.6 60.8 L 74.7 66.6 L 74.7 66.6 L 76.8 60.8 L 77.3 60.8 L 74.9 67.2 L 74.4 67.2 L 72 60.8 Z M 78.7 64.9 C 78.75 64.88 78.7 60.8 78.7 60.8 L 79.3 60.8 C 79.3 60.8 79.25 64.91 79.3 64.9 C 79.3 66.1 80 66.8 81.1 66.8 C 82.3 66.8 83 66.1 83 64.9 C 83.05 64.9 83 60.8 83 60.8 L 83.5 60.8 C 83.5 60.8 83.55 64.87 83.5 64.9 C 83.5 66.3 82.6 67.3 81.1 67.3 C 79.7 67.3 78.7 66.3 78.7 64.9 Z M 90.9 64.2 C 90.9 64.2 85.8 64.2 85.8 64.2 C 85.9 65.8 86.9 66.8 88.4 66.8 C 89.1 66.8 89.9 66.6 90.6 65.9 C 90.6 65.9 90.6 66.5 90.6 66.5 C 90 67 89.2 67.3 88.3 67.3 C 86.5 67.3 85.3 66 85.3 64 C 85.3 62 86.7 60.7 88.3 60.7 C 89.7 60.7 90.9 61.8 90.9 63.9 C 90.9 64 90.9 64.1 90.9 64.2 Z M 90.4 63.7 C 90.4 62 89.3 61.2 88.3 61.2 C 87 61.2 85.9 62.2 85.8 63.7 C 85.8 63.7 90.4 63.7 90.4 63.7 Z M 99.2 58.5 C 99.2 58.3 99.4 58.1 99.6 58.1 C 99.8 58.1 100 58.3 100 58.5 C 100 58.7 99.8 58.9 99.6 58.9 C 99.4 58.9 99.2 58.7 99.2 58.5 Z M 99.4 60.8 L 99.9 60.8 L 99.9 67.2 L 99.4 67.2 L 99.4 60.8 Z M 109.9 62.9 C 109.9 62.88 109.9 67.2 109.9 67.2 L 109.4 67.2 C 109.4 67.2 109.4 62.93 109.4 62.9 C 109.4 61.9 108.9 61.2 107.9 61.2 C 106.9 61.2 106.3 62 106.3 62.9 C 106.29 62.94 106.3 67.2 106.3 67.2 L 105.8 67.2 C 105.8 67.2 105.79 62.93 105.8 62.9 C 105.8 61.9 105.3 61.2 104.3 61.2 C 103.3 61.2 102.7 62 102.7 63 C 102.68 62.96 102.7 67.2 102.7 67.2 L 102.2 67.2 L 102.2 60.8 L 102.6 60.8 L 102.6 61.9 C 102.6 61.9 102.64 61.88 102.6 61.9 C 102.9 61.2 103.6 60.7 104.4 60.7 C 105.3 60.7 105.9 61.2 106.1 62 C 106.4 61.2 107.1 60.7 108 60.7 C 109.3 60.7 109.9 61.6 109.9 62.9 Z M 112.1 60.8 L 112.5 60.8 C 112.5 60.8 112.58 62.44 112.6 62.4 C 113 61.3 114.1 60.7 115.1 60.7 C 116.6 60.7 118 62 118 64 C 118 66 116.6 67.3 115.1 67.3 C 114.1 67.3 113 66.7 112.6 65.7 C 112.61 65.65 112.6 69.8 112.6 69.8 L 112.1 69.8 L 112.1 60.8 Z M 117.5 64 C 117.5 62.3 116.4 61.2 115.1 61.2 C 113.7 61.2 112.6 62.3 112.6 64 C 112.6 65.7 113.7 66.8 115 66.8 C 116.4 66.8 117.5 65.7 117.5 64 Z M 119.8 60.8 L 120.2 60.8 L 120.3 62 C 120.3 62 120.29 62.02 120.3 62 C 120.7 61.1 121.5 60.8 122.2 60.8 C 122.3 60.8 122.5 60.8 122.6 60.8 C 122.6 60.8 122.6 61.3 122.6 61.3 C 122.5 61.3 122.3 61.3 122.2 61.3 C 121.3 61.3 120.3 61.9 120.3 63.2 C 120.33 63.17 120.3 67.2 120.3 67.2 L 119.8 67.2 L 119.8 60.8 Z M 128.7 64.2 C 128.7 64.2 123.6 64.2 123.6 64.2 C 123.7 65.8 124.8 66.8 126.2 66.8 C 127 66.8 127.8 66.6 128.5 65.9 C 128.5 65.9 128.5 66.5 128.5 66.5 C 127.8 67 127 67.3 126.2 67.3 C 124.4 67.3 123.1 66 123.1 64 C 123.1 62 124.6 60.7 126.1 60.7 C 127.5 60.7 128.7 61.8 128.7 63.9 C 128.7 64 128.7 64.1 128.7 64.2 Z M 128.2 63.7 C 128.2 62 127.2 61.2 126.1 61.2 C 124.9 61.2 123.8 62.2 123.7 63.7 C 123.7 63.7 128.2 63.7 128.2 63.7 Z M 135.3 63 C 135.31 62.96 135.3 67.2 135.3 67.2 L 134.8 67.2 C 134.8 67.2 134.8 63.17 134.8 63.2 C 134.8 61.9 134.1 61.2 133 61.2 C 131.9 61.2 131 61.9 131 63.1 C 131.02 63.11 131 67.2 131 67.2 L 130.5 67.2 L 130.5 60.8 L 130.9 60.8 L 131 62 C 131 62 130.99 61.96 131 62 C 131.3 61.2 132.1 60.7 133.1 60.7 C 134.4 60.7 135.3 61.6 135.3 63 Z M 137 64 C 137 62 138.5 60.7 140 60.7 C 141 60.7 142 61.3 142.5 62.4 C 142.46 62.42 142.5 60.8 142.5 60.8 L 142.9 60.8 L 142.9 67.2 L 142.5 67.2 C 142.5 67.2 142.46 65.6 142.5 65.6 C 142 66.8 141 67.3 140 67.3 C 138.5 67.3 137 66 137 64 Z M 142.4 64 C 142.4 62.3 141.3 61.2 140 61.2 C 138.7 61.2 137.6 62.3 137.6 64 C 137.6 65.7 138.7 66.8 140 66.8 C 141.3 66.8 142.4 65.7 142.4 64 Z M 145.7 62.4 C 146.1 61.3 147.2 60.7 148.2 60.7 C 149.7 60.7 151.1 62 151.1 64 C 151.1 66 149.7 67.3 148.2 67.3 C 147.2 67.3 146.1 66.8 145.7 65.6 C 145.67 65.59 145.6 67.2 145.6 67.2 L 145.2 67.2 L 145.2 57.7 L 145.7 57.7 C 145.7 57.7 145.71 62.39 145.7 62.4 Z M 145.7 64 C 145.7 65.7 146.8 66.8 148.1 66.8 C 149.5 66.8 150.6 65.7 150.6 64 C 150.6 62.3 149.5 61.2 148.1 61.2 C 146.8 61.2 145.7 62.3 145.7 64 Z M 153 57.7 L 153.5 57.7 L 153.5 67.2 L 153 67.2 L 153 57.7 Z M 160.9 64.2 C 160.9 64.2 155.8 64.2 155.8 64.2 C 155.9 65.8 157 66.8 158.4 66.8 C 159.2 66.8 160 66.6 160.7 65.9 C 160.7 65.9 160.7 66.5 160.7 66.5 C 160 67 159.2 67.3 158.4 67.3 C 156.6 67.3 155.3 66 155.3 64 C 155.3 62 156.8 60.7 158.3 60.7 C 159.7 60.7 160.9 61.8 160.9 63.9 C 160.9 64 160.9 64.1 160.9 64.2 Z M 160.4 63.7 C 160.4 62 159.4 61.2 158.3 61.2 C 157.1 61.2 156 62.2 155.9 63.7 C 155.9 63.7 160.4 63.7 160.4 63.7 Z " stroke="none" fill="#000"/>
  </g>
  <g id="Polygon18077">
    <path d="M 1.1 46.4 L 1.5 46.4 C 1.5 46.4 1.61 48.04 1.6 48 C 2.1 46.9 3.1 46.3 4.1 46.3 C 5.6 46.3 7 47.6 7 49.6 C 7 51.6 5.6 52.9 4.1 52.9 C 3.1 52.9 2.1 52.3 1.6 51.3 C 1.64 51.25 1.6 55.4 1.6 55.4 L 1.1 55.4 L 1.1 46.4 Z M 6.5 49.6 C 6.5 47.9 5.4 46.8 4.1 46.8 C 2.7 46.8 1.6 47.9 1.6 49.6 C 1.6 51.3 2.8 52.4 4.1 52.4 C 5.4 52.4 6.5 51.3 6.5 49.6 Z M 8.4 49.6 C 8.4 47.7 9.8 46.3 11.4 46.3 C 13.1 46.3 14.5 47.7 14.5 49.6 C 14.5 51.6 13.1 52.9 11.4 52.9 C 9.8 52.9 8.4 51.6 8.4 49.6 Z M 14 49.6 C 14 47.8 12.7 46.8 11.4 46.8 C 10.1 46.8 8.9 47.8 8.9 49.6 C 8.9 51.4 10.2 52.4 11.4 52.4 C 12.7 52.4 14 51.4 14 49.6 Z M 16.3 46.4 L 16.7 46.4 L 16.8 47.6 C 16.8 47.6 16.78 47.62 16.8 47.6 C 17.2 46.7 18 46.4 18.7 46.4 C 18.8 46.4 18.9 46.4 19 46.4 C 19 46.4 19 46.9 19 46.9 C 18.9 46.9 18.8 46.9 18.7 46.9 C 17.8 46.9 16.8 47.5 16.8 48.8 C 16.81 48.77 16.8 52.8 16.8 52.8 L 16.3 52.8 L 16.3 46.4 Z M 21.1 46.4 L 23 46.4 L 23 46.9 L 21.1 46.9 C 21.1 46.9 21.06 50.8 21.1 50.8 C 21.1 52 21.7 52.4 22.6 52.4 C 22.8 52.4 22.9 52.4 23.1 52.4 C 23.1 52.4 23.1 52.8 23.1 52.8 C 23.1 52.8 22.8 52.9 22.5 52.9 C 21.4 52.9 20.6 52.2 20.6 50.8 C 20.56 50.82 20.6 46.9 20.6 46.9 L 19.6 46.9 L 19.6 46.4 L 20.6 46.4 L 20.6 44.9 L 21.1 44.9 L 21.1 46.4 Z M 29.5 49.8 C 29.5 49.8 24.5 49.8 24.5 49.8 C 24.6 51.4 25.6 52.4 27 52.4 C 27.8 52.4 28.6 52.2 29.3 51.5 C 29.3 51.5 29.3 52.1 29.3 52.1 C 28.6 52.6 27.8 52.9 27 52.9 C 25.2 52.9 24 51.6 24 49.6 C 24 47.6 25.4 46.3 26.9 46.3 C 28.3 46.3 29.5 47.4 29.5 49.5 C 29.5 49.6 29.5 49.7 29.5 49.8 Z M 29 49.3 C 29 47.6 28 46.8 26.9 46.8 C 25.7 46.8 24.6 47.8 24.5 49.3 C 24.5 49.3 29 49.3 29 49.3 Z M 31.3 46.4 L 31.8 46.4 L 31.8 47.6 C 31.8 47.6 31.81 47.62 31.8 47.6 C 32.2 46.7 33 46.4 33.7 46.4 C 33.8 46.4 34 46.4 34.1 46.4 C 34.1 46.4 34.1 46.9 34.1 46.9 C 34 46.9 33.8 46.9 33.7 46.9 C 32.8 46.9 31.9 47.5 31.8 48.8 C 31.85 48.77 31.8 52.8 31.8 52.8 L 31.3 52.8 L 31.3 46.4 Z M 39.9 49.6 C 39.9 47.6 41.3 46.3 42.8 46.3 C 43.8 46.3 44.8 46.9 45.2 48 C 45.24 47.98 45.2 43.3 45.2 43.3 L 45.7 43.3 L 45.7 52.8 L 45.3 52.8 L 45.3 51.2 C 45.3 51.2 45.26 51.19 45.3 51.2 C 44.8 52.4 43.8 52.9 42.8 52.9 C 41.3 52.9 39.9 51.6 39.9 49.6 Z M 45.3 49.6 C 45.3 47.9 44.1 46.8 42.8 46.8 C 41.5 46.8 40.4 47.9 40.4 49.6 C 40.4 51.3 41.5 52.4 42.8 52.4 C 44.1 52.4 45.3 51.3 45.3 49.6 Z M 53.1 49.8 C 53.1 49.8 48.1 49.8 48.1 49.8 C 48.2 51.4 49.2 52.4 50.6 52.4 C 51.4 52.4 52.2 52.2 52.9 51.5 C 52.9 51.5 52.9 52.1 52.9 52.1 C 52.2 52.6 51.4 52.9 50.6 52.9 C 48.8 52.9 47.6 51.6 47.6 49.6 C 47.6 47.6 49 46.3 50.5 46.3 C 51.9 46.3 53.2 47.4 53.2 49.5 C 53.2 49.6 53.1 49.7 53.1 49.8 Z M 52.7 49.3 C 52.6 47.6 51.6 46.8 50.5 46.8 C 49.3 46.8 48.2 47.8 48.1 49.3 C 48.1 49.3 52.7 49.3 52.7 49.3 Z M 60.2 43.3 L 60.7 43.3 L 60.7 52.8 L 60.2 52.8 L 60.2 43.3 Z M 62.6 49.6 C 62.6 47.6 64 46.3 65.5 46.3 C 66.5 46.3 67.5 46.9 68 48 C 67.97 48.02 68 46.4 68 46.4 L 68.4 46.4 L 68.4 52.8 L 68 52.8 C 68 52.8 67.97 51.2 68 51.2 C 67.5 52.4 66.5 52.9 65.5 52.9 C 64 52.9 62.6 51.6 62.6 49.6 Z M 68 49.6 C 68 47.9 66.8 46.8 65.5 46.8 C 64.2 46.8 63.1 47.9 63.1 49.6 C 63.1 51.3 64.2 52.4 65.5 52.4 C 66.8 52.4 68 51.3 68 49.6 Z M 75.9 43.3 L 76.4 43.3 L 76.4 52.8 L 75.9 52.8 L 75.9 43.3 Z M 78.7 50.5 C 78.68 50.48 78.7 46.4 78.7 46.4 L 79.2 46.4 C 79.2 46.4 79.18 50.51 79.2 50.5 C 79.2 51.7 79.9 52.4 81.1 52.4 C 82.2 52.4 83 51.7 83 50.5 C 82.98 50.5 83 46.4 83 46.4 L 83.5 46.4 C 83.5 46.4 83.48 50.47 83.5 50.5 C 83.5 51.9 82.5 52.9 81.1 52.9 C 79.6 52.9 78.7 51.9 78.7 50.5 Z M 93.4 48.5 C 93.4 48.48 93.4 52.8 93.4 52.8 L 92.9 52.8 C 92.9 52.8 92.9 48.53 92.9 48.5 C 92.9 47.5 92.4 46.8 91.4 46.8 C 90.4 46.8 89.8 47.6 89.8 48.5 C 89.79 48.54 89.8 52.8 89.8 52.8 L 89.3 52.8 C 89.3 52.8 89.29 48.53 89.3 48.5 C 89.3 47.5 88.8 46.8 87.8 46.8 C 86.8 46.8 86.2 47.6 86.2 48.6 C 86.18 48.56 86.2 52.8 86.2 52.8 L 85.7 52.8 L 85.7 46.4 L 86.1 46.4 L 86.1 47.5 C 86.1 47.5 86.14 47.48 86.1 47.5 C 86.4 46.8 87.1 46.3 87.9 46.3 C 88.8 46.3 89.4 46.8 89.6 47.6 C 89.9 46.8 90.6 46.3 91.5 46.3 C 92.8 46.3 93.4 47.2 93.4 48.5 Z M 95.5 44.1 C 95.5 43.9 95.7 43.7 95.9 43.7 C 96.1 43.7 96.3 43.9 96.3 44.1 C 96.3 44.3 96.1 44.5 95.9 44.5 C 95.7 44.5 95.5 44.3 95.5 44.1 Z M 95.6 46.4 L 96.2 46.4 L 96.2 52.8 L 95.6 52.8 L 95.6 46.4 Z M 101.2 45.3 L 99.6 43.4 L 100.2 43.4 L 101.6 45.3 L 101.2 45.3 Z M 103.6 49.8 C 103.6 49.8 98.5 49.8 98.5 49.8 C 98.6 51.4 99.6 52.4 101.1 52.4 C 101.9 52.4 102.7 52.2 103.4 51.5 C 103.4 51.5 103.4 52.1 103.4 52.1 C 102.7 52.6 101.9 52.9 101.1 52.9 C 99.3 52.9 98 51.6 98 49.6 C 98 47.6 99.4 46.3 101 46.3 C 102.4 46.3 103.6 47.4 103.6 49.5 C 103.6 49.6 103.6 49.7 103.6 49.8 Z M 103.1 49.3 C 103.1 47.6 102.1 46.8 101 46.8 C 99.8 46.8 98.6 47.8 98.5 49.3 C 98.5 49.3 103.1 49.3 103.1 49.3 Z M 105.4 46.4 L 105.8 46.4 L 105.9 47.6 C 105.9 47.6 105.87 47.62 105.9 47.6 C 106.3 46.7 107.1 46.4 107.8 46.4 C 107.9 46.4 108 46.4 108.1 46.4 C 108.1 46.4 108.1 46.9 108.1 46.9 C 108 46.9 107.9 46.9 107.8 46.9 C 106.9 46.9 105.9 47.5 105.9 48.8 C 105.91 48.77 105.9 52.8 105.9 52.8 L 105.4 52.8 L 105.4 46.4 Z M 114.3 49.8 C 114.3 49.8 109.2 49.8 109.2 49.8 C 109.3 51.4 110.3 52.4 111.8 52.4 C 112.5 52.4 113.4 52.2 114 51.5 C 114 51.5 114 52.1 114 52.1 C 113.4 52.6 112.6 52.9 111.8 52.9 C 110 52.9 108.7 51.6 108.7 49.6 C 108.7 47.6 110.1 46.3 111.7 46.3 C 113.1 46.3 114.3 47.4 114.3 49.5 C 114.3 49.6 114.3 49.7 114.3 49.8 Z M 113.8 49.3 C 113.8 47.6 112.7 46.8 111.7 46.8 C 110.5 46.8 109.3 47.8 109.2 49.3 C 109.2 49.3 113.8 49.3 113.8 49.3 Z M 121.8 46.4 L 123.7 46.4 L 123.7 46.9 L 121.8 46.9 C 121.8 46.9 121.84 50.8 121.8 50.8 C 121.8 52 122.5 52.4 123.4 52.4 C 123.6 52.4 123.7 52.4 123.9 52.4 C 123.9 52.4 123.9 52.8 123.9 52.8 C 123.8 52.8 123.6 52.9 123.3 52.9 C 122.2 52.9 121.3 52.2 121.3 50.8 C 121.34 50.82 121.3 46.9 121.3 46.9 L 120.4 46.9 L 120.4 46.4 L 121.4 46.4 L 121.4 44.9 L 121.8 44.9 L 121.8 46.4 Z M 124.7 49.6 C 124.7 47.7 126.1 46.3 127.8 46.3 C 129.5 46.3 130.8 47.7 130.8 49.6 C 130.8 51.6 129.5 52.9 127.8 52.9 C 126.1 52.9 124.7 51.6 124.7 49.6 Z M 130.3 49.6 C 130.3 47.8 129.1 46.8 127.8 46.8 C 126.5 46.8 125.2 47.8 125.2 49.6 C 125.2 51.4 126.5 52.4 127.8 52.4 C 129.1 52.4 130.3 51.4 130.3 49.6 Z M 132.6 50.5 C 132.56 50.48 132.6 46.4 132.6 46.4 L 133.1 46.4 C 133.1 46.4 133.06 50.51 133.1 50.5 C 133.1 51.7 133.8 52.4 134.9 52.4 C 136.1 52.4 136.9 51.7 136.9 50.5 C 136.86 50.5 136.9 46.4 136.9 46.4 L 137.4 46.4 C 137.4 46.4 137.36 50.47 137.4 50.5 C 137.4 51.9 136.4 52.9 134.9 52.9 C 133.5 52.9 132.6 51.9 132.6 50.5 Z M 140.2 46.4 L 142.1 46.4 L 142.1 46.9 L 140.2 46.9 C 140.2 46.9 140.24 50.8 140.2 50.8 C 140.2 52 140.9 52.4 141.8 52.4 C 142 52.4 142.1 52.4 142.3 52.4 C 142.3 52.4 142.3 52.8 142.3 52.8 C 142.2 52.8 142 52.9 141.7 52.9 C 140.6 52.9 139.7 52.2 139.7 50.8 C 139.74 50.82 139.7 46.9 139.7 46.9 L 138.8 46.9 L 138.8 46.4 L 139.7 46.4 L 139.7 44.9 L 140.2 44.9 L 140.2 46.4 Z M 153.9 49.8 C 153.9 49.8 148.9 49.8 148.9 49.8 C 148.9 51.4 150 52.4 151.4 52.4 C 152.2 52.4 153 52.2 153.7 51.5 C 153.7 51.5 153.7 52.1 153.7 52.1 C 153 52.6 152.2 52.9 151.4 52.9 C 149.6 52.9 148.4 51.6 148.4 49.6 C 148.4 47.6 149.8 46.3 151.3 46.3 C 152.7 46.3 153.9 47.4 153.9 49.5 C 153.9 49.6 153.9 49.7 153.9 49.8 Z M 153.4 49.3 C 153.4 47.6 152.4 46.8 151.3 46.8 C 150.1 46.8 149 47.8 148.9 49.3 C 148.9 49.3 153.4 49.3 153.4 49.3 Z M 160.5 48.6 C 160.52 48.56 160.5 52.8 160.5 52.8 L 160 52.8 C 160 52.8 160.02 48.77 160 48.8 C 160 47.5 159.4 46.8 158.2 46.8 C 157.1 46.8 156.2 47.5 156.2 48.7 C 156.23 48.71 156.2 52.8 156.2 52.8 L 155.7 52.8 L 155.7 46.4 L 156.1 46.4 L 156.2 47.6 C 156.2 47.6 156.2 47.56 156.2 47.6 C 156.5 46.8 157.3 46.3 158.3 46.3 C 159.6 46.3 160.5 47.2 160.5 48.6 Z " stroke="none" fill="#000"/>
  </g>
  <g id="Polygon18076">
    <path d="M 1.1 32 L 1.5 32 L 1.6 33.2 C 1.6 33.2 1.61 33.22 1.6 33.2 C 2 32.3 2.8 32 3.5 32 C 3.6 32 3.8 32 3.9 32 C 3.9 32 3.9 32.5 3.9 32.5 C 3.8 32.5 3.6 32.5 3.5 32.5 C 2.6 32.5 1.7 33.1 1.6 34.4 C 1.64 34.37 1.6 38.4 1.6 38.4 L 1.1 38.4 L 1.1 32 Z M 4.4 35.2 C 4.4 33.2 5.8 31.9 7.3 31.9 C 8.4 31.9 9.4 32.5 9.9 33.6 C 9.85 33.62 9.9 32 9.9 32 L 10.3 32 L 10.3 38.4 L 9.9 38.4 C 9.9 38.4 9.85 36.8 9.9 36.8 C 9.4 38 8.4 38.5 7.4 38.5 C 5.8 38.5 4.4 37.2 4.4 35.2 Z M 9.8 35.2 C 9.8 33.5 8.7 32.4 7.4 32.4 C 6.1 32.4 4.9 33.5 4.9 35.2 C 4.9 36.9 6.1 38 7.4 38 C 8.7 38 9.8 36.9 9.8 35.2 Z M 20.3 34.1 C 20.33 34.08 20.3 38.4 20.3 38.4 L 19.8 38.4 C 19.8 38.4 19.82 34.13 19.8 34.1 C 19.8 33.1 19.3 32.4 18.3 32.4 C 17.3 32.4 16.7 33.2 16.7 34.1 C 16.72 34.14 16.7 38.4 16.7 38.4 L 16.2 38.4 C 16.2 38.4 16.21 34.13 16.2 34.1 C 16.2 33.1 15.7 32.4 14.7 32.4 C 13.7 32.4 13.1 33.2 13.1 34.2 C 13.1 34.16 13.1 38.4 13.1 38.4 L 12.6 38.4 L 12.6 32 L 13 32 L 13.1 33.1 C 13.1 33.1 13.07 33.08 13.1 33.1 C 13.3 32.4 14 31.9 14.8 31.9 C 15.7 31.9 16.3 32.4 16.6 33.2 C 16.8 32.4 17.5 31.9 18.4 31.9 C 19.7 31.9 20.3 32.8 20.3 34.1 Z M 22.1 35.2 C 22.1 33.2 23.5 31.9 25 31.9 C 26 31.9 27 32.5 27.5 33.6 C 27.49 33.62 27.6 32 27.6 32 L 28 32 L 28 38.4 L 27.6 38.4 C 27.6 38.4 27.49 36.8 27.5 36.8 C 27 38 26 38.5 25 38.5 C 23.5 38.5 22.1 37.2 22.1 35.2 Z M 27.5 35.2 C 27.5 33.5 26.4 32.4 25 32.4 C 23.7 32.4 22.6 33.5 22.6 35.2 C 22.6 36.9 23.7 38 25 38 C 26.4 38 27.5 36.9 27.5 35.2 Z M 34.7 32 L 35.2 32 L 37.3 37.8 L 37.3 37.8 L 39.4 32 L 39.9 32 L 37.6 38.4 L 37 38.4 L 34.7 32 Z M 41.4 29.7 C 41.4 29.5 41.5 29.3 41.8 29.3 C 42 29.3 42.2 29.5 42.2 29.7 C 42.2 29.9 42 30.1 41.8 30.1 C 41.5 30.1 41.4 29.9 41.4 29.7 Z M 41.5 32 L 42 32 L 42 38.4 L 41.5 38.4 L 41.5 32 Z M 45 32 L 46.9 32 L 46.9 32.5 L 45 32.5 C 45 32.5 45.03 36.4 45 36.4 C 45 37.6 45.7 38 46.6 38 C 46.7 38 46.9 38 47.1 38 C 47.1 38 47.1 38.4 47.1 38.4 C 47 38.4 46.8 38.5 46.5 38.5 C 45.3 38.5 44.5 37.8 44.5 36.4 C 44.52 36.42 44.5 32.5 44.5 32.5 L 43.5 32.5 L 43.5 32 L 44.5 32 L 44.5 30.5 L 45 30.5 L 45 32 Z M 48.5 32 L 48.9 32 L 48.9 33.2 C 48.9 33.2 48.93 33.22 48.9 33.2 C 49.3 32.3 50.2 32 50.8 32 C 50.9 32 51.1 32 51.2 32 C 51.2 32 51.2 32.5 51.2 32.5 C 51.1 32.5 50.9 32.5 50.8 32.5 C 49.9 32.5 49 33.1 49 34.4 C 48.96 34.37 49 38.4 49 38.4 L 48.5 38.4 L 48.5 32 Z M 54.5 30.9 L 54 30.9 L 55.5 29 L 56 29 L 54.5 30.9 Z M 57.3 35.4 C 57.3 35.4 52.3 35.4 52.3 35.4 C 52.4 37 53.4 38 54.8 38 C 55.6 38 56.4 37.8 57.1 37.1 C 57.1 37.1 57.1 37.7 57.1 37.7 C 56.4 38.2 55.6 38.5 54.8 38.5 C 53 38.5 51.8 37.2 51.8 35.2 C 51.8 33.2 53.2 31.9 54.7 31.9 C 56.1 31.9 57.3 33 57.3 35.1 C 57.3 35.2 57.3 35.3 57.3 35.4 Z M 56.8 34.9 C 56.8 33.2 55.8 32.4 54.7 32.4 C 53.5 32.4 52.4 33.4 52.3 34.9 C 52.3 34.9 56.8 34.9 56.8 34.9 Z M 69.6 33.6 C 69.57 33.64 69.6 32 69.6 32 L 70 32 L 70 41 L 69.5 41 C 69.5 41 69.53 36.84 69.5 36.8 C 69.1 37.9 68.1 38.5 67.1 38.5 C 65.6 38.5 64.2 37.2 64.2 35.2 C 64.2 33.2 65.6 31.9 67.1 31.9 C 68.1 31.9 69.1 32.5 69.6 33.6 Z M 64.7 35.2 C 64.7 36.9 65.8 38 67.1 38 C 68.4 38 69.6 36.9 69.6 35.2 C 69.6 33.5 68.4 32.4 67.1 32.4 C 65.8 32.4 64.7 33.5 64.7 35.2 Z M 72.2 36.1 C 72.23 36.08 72.2 32 72.2 32 L 72.7 32 C 72.7 32 72.73 36.11 72.7 36.1 C 72.7 37.3 73.5 38 74.6 38 C 75.8 38 76.5 37.3 76.5 36.1 C 76.53 36.1 76.5 32 76.5 32 L 77 32 C 77 32 77.03 36.07 77 36.1 C 77 37.5 76.1 38.5 74.6 38.5 C 73.1 38.5 72.2 37.5 72.2 36.1 Z M 79.1 29.7 C 79.1 29.5 79.3 29.3 79.5 29.3 C 79.8 29.3 79.9 29.5 79.9 29.7 C 79.9 29.9 79.8 30.1 79.5 30.1 C 79.3 30.1 79.1 29.9 79.1 29.7 Z M 79.3 32 L 79.8 32 L 79.8 38.4 L 79.3 38.4 L 79.3 32 Z M 87.5 32 L 87.9 32 C 87.9 32 88.01 33.64 88 33.6 C 88.5 32.5 89.5 31.9 90.5 31.9 C 92 31.9 93.4 33.2 93.4 35.2 C 93.4 37.2 92 38.5 90.5 38.5 C 89.5 38.5 88.5 37.9 88 36.9 C 88.05 36.85 88 41 88 41 L 87.5 41 L 87.5 32 Z M 92.9 35.2 C 92.9 33.5 91.8 32.4 90.5 32.4 C 89.2 32.4 88 33.5 88 35.2 C 88 36.9 89.2 38 90.5 38 C 91.8 38 92.9 36.9 92.9 35.2 Z M 100.4 35.4 C 100.4 35.4 95.3 35.4 95.3 35.4 C 95.4 37 96.4 38 97.9 38 C 98.6 38 99.5 37.8 100.1 37.1 C 100.1 37.1 100.1 37.7 100.1 37.7 C 99.5 38.2 98.7 38.5 97.9 38.5 C 96.1 38.5 94.8 37.2 94.8 35.2 C 94.8 33.2 96.2 31.9 97.8 31.9 C 99.2 31.9 100.4 33 100.4 35.1 C 100.4 35.2 100.4 35.3 100.4 35.4 Z M 99.9 34.9 C 99.9 33.2 98.8 32.4 97.8 32.4 C 96.6 32.4 95.4 33.4 95.3 34.9 C 95.3 34.9 99.9 34.9 99.9 34.9 Z M 102.2 32 L 102.6 32 L 102.7 33.2 C 102.7 33.2 102.66 33.22 102.7 33.2 C 103 32.3 103.9 32 104.5 32 C 104.7 32 104.8 32 104.9 32 C 104.9 32 104.9 32.5 104.9 32.5 C 104.8 32.5 104.7 32.5 104.5 32.5 C 103.6 32.5 102.7 33.1 102.7 34.4 C 102.7 34.37 102.7 38.4 102.7 38.4 L 102.2 38.4 L 102.2 32 Z M 114 34.1 C 113.99 34.08 114 38.4 114 38.4 L 113.5 38.4 C 113.5 38.4 113.49 34.13 113.5 34.1 C 113.5 33.1 113 32.4 112 32.4 C 111 32.4 110.4 33.2 110.4 34.1 C 110.38 34.14 110.4 38.4 110.4 38.4 L 109.9 38.4 C 109.9 38.4 109.88 34.13 109.9 34.1 C 109.9 33.1 109.4 32.4 108.4 32.4 C 107.4 32.4 106.8 33.2 106.8 34.2 C 106.77 34.16 106.8 38.4 106.8 38.4 L 106.3 38.4 L 106.3 32 L 106.7 32 L 106.7 33.1 C 106.7 33.1 106.73 33.08 106.7 33.1 C 107 32.4 107.6 31.9 108.4 31.9 C 109.4 31.9 110 32.4 110.2 33.2 C 110.5 32.4 111.1 31.9 112.1 31.9 C 113.4 31.9 114 32.8 114 34.1 Z M 121.3 35.4 C 121.3 35.4 116.3 35.4 116.3 35.4 C 116.3 37 117.4 38 118.8 38 C 119.6 38 120.4 37.8 121.1 37.1 C 121.1 37.1 121.1 37.7 121.1 37.7 C 120.4 38.2 119.6 38.5 118.8 38.5 C 117 38.5 115.8 37.2 115.8 35.2 C 115.8 33.2 117.2 31.9 118.7 31.9 C 120.1 31.9 121.3 33 121.3 35.1 C 121.3 35.2 121.3 35.3 121.3 35.4 Z M 120.8 34.9 C 120.8 33.2 119.8 32.4 118.7 32.4 C 117.5 32.4 116.4 33.4 116.3 34.9 C 116.3 34.9 120.8 34.9 120.8 34.9 Z M 123.8 32 L 125.7 32 L 125.7 32.5 L 123.8 32.5 C 123.8 32.5 123.76 36.4 123.8 36.4 C 123.8 37.6 124.4 38 125.3 38 C 125.5 38 125.6 38 125.8 38 C 125.8 38 125.8 38.4 125.8 38.4 C 125.8 38.4 125.5 38.5 125.2 38.5 C 124.1 38.5 123.3 37.8 123.3 36.4 C 123.26 36.42 123.3 32.5 123.3 32.5 L 122.3 32.5 L 122.3 32 L 123.3 32 L 123.3 30.5 L 123.8 30.5 L 123.8 32 Z M 132.1 35.2 C 132.1 33.2 133.5 31.9 135 31.9 C 136.1 31.9 137.1 32.5 137.5 33.6 C 137.52 33.58 137.5 28.9 137.5 28.9 L 138 28.9 L 138 38.4 L 137.6 38.4 L 137.6 36.8 C 137.6 36.8 137.54 36.79 137.5 36.8 C 137.1 38 136.1 38.5 135 38.5 C 133.5 38.5 132.1 37.2 132.1 35.2 Z M 137.5 35.2 C 137.5 33.5 136.4 32.4 135.1 32.4 C 133.8 32.4 132.6 33.5 132.6 35.2 C 132.6 36.9 133.8 38 135.1 38 C 136.4 38 137.5 36.9 137.5 35.2 Z M 140.5 29.9 C 140.49 29.93 140.5 29.5 140.5 29.5 L 141 29.5 C 141 29.5 140.99 29.92 141 29.9 C 141 30.9 140.6 31.9 140.4 32.5 C 140.4 32.5 140 32.5 140 32.5 C 140.2 31.9 140.5 30.9 140.5 29.9 Z M 142.1 35.2 C 142.1 33.2 143.5 31.9 145 31.9 C 146 31.9 147 32.5 147.5 33.6 C 147.49 33.62 147.6 32 147.6 32 L 148 32 L 148 38.4 L 147.6 38.4 C 147.6 38.4 147.49 36.8 147.5 36.8 C 147 38 146 38.5 145 38.5 C 143.5 38.5 142.1 37.2 142.1 35.2 Z M 147.5 35.2 C 147.5 33.5 146.4 32.4 145 32.4 C 143.7 32.4 142.6 33.5 142.6 35.2 C 142.6 36.9 143.7 38 145 38 C 146.3 38 147.5 36.9 147.5 35.2 Z M 150.2 32 L 150.6 32 C 150.6 32 150.7 33.64 150.7 33.6 C 151.2 32.5 152.2 31.9 153.2 31.9 C 154.7 31.9 156.1 33.2 156.1 35.2 C 156.1 37.2 154.7 38.5 153.2 38.5 C 152.2 38.5 151.2 37.9 150.7 36.9 C 150.74 36.85 150.7 41 150.7 41 L 150.2 41 L 150.2 32 Z M 155.6 35.2 C 155.6 33.5 154.5 32.4 153.2 32.4 C 151.8 32.4 150.7 33.5 150.7 35.2 C 150.7 36.9 151.9 38 153.2 38 C 154.5 38 155.6 36.9 155.6 35.2 Z M 157.8 34.5 L 160.6 34.5 L 160.6 35 L 157.8 35 L 157.8 34.5 Z " stroke="none" fill="#000"/>
  </g>
  <g id="Polygon18075">
    <path d="M 1.6 19.2 C 2.1 18.1 3.1 17.5 4.1 17.5 C 5.6 17.5 7 18.8 7 20.8 C 7 22.8 5.6 24.1 4.1 24.1 C 3.1 24.1 2.1 23.6 1.6 22.4 C 1.61 22.39 1.5 24 1.5 24 L 1.1 24 L 1.1 14.5 L 1.6 14.5 C 1.6 14.5 1.64 19.19 1.6 19.2 Z M 1.6 20.8 C 1.6 22.5 2.8 23.6 4.1 23.6 C 5.4 23.6 6.5 22.5 6.5 20.8 C 6.5 19.1 5.4 18 4.1 18 C 2.7 18 1.6 19.1 1.6 20.8 Z M 8.7 15.3 C 8.7 15.1 8.9 14.9 9.1 14.9 C 9.4 14.9 9.6 15.1 9.6 15.3 C 9.6 15.5 9.4 15.7 9.1 15.7 C 8.9 15.7 8.7 15.5 8.7 15.3 Z M 8.9 17.6 L 9.4 17.6 L 9.4 24 L 8.9 24 L 8.9 17.6 Z M 16.5 19.8 C 16.5 19.76 16.5 24 16.5 24 L 16 24 C 16 24 16 19.97 16 20 C 16 18.7 15.3 18 14.2 18 C 13.1 18 12.2 18.7 12.2 19.9 C 12.22 19.91 12.2 24 12.2 24 L 11.7 24 L 11.7 17.6 L 12.1 17.6 L 12.2 18.8 C 12.2 18.8 12.18 18.76 12.2 18.8 C 12.5 18 13.3 17.5 14.3 17.5 C 15.6 17.5 16.5 18.4 16.5 19.8 Z M 23.8 21 C 23.8 21 18.8 21 18.8 21 C 18.8 22.6 19.9 23.6 21.3 23.6 C 22.1 23.6 22.9 23.4 23.6 22.7 C 23.6 22.7 23.6 23.3 23.6 23.3 C 22.9 23.8 22.1 24.1 21.3 24.1 C 19.5 24.1 18.3 22.8 18.3 20.8 C 18.3 18.8 19.7 17.5 21.2 17.5 C 22.6 17.5 23.8 18.6 23.8 20.7 C 23.8 20.8 23.8 20.9 23.8 21 Z M 23.3 20.5 C 23.3 18.8 22.3 18 21.2 18 C 20 18 18.9 19 18.8 20.5 C 18.8 20.5 23.3 20.5 23.3 20.5 Z M 33.1 20.8 C 33.1 18.9 34.5 17.5 36.2 17.5 C 37.9 17.5 39.2 18.9 39.2 20.8 C 39.2 22.8 37.9 24.1 36.2 24.1 C 34.5 24.1 33.1 22.8 33.1 20.8 Z M 38.7 20.8 C 38.7 19 37.5 18 36.2 18 C 34.9 18 33.7 19 33.7 20.8 C 33.7 22.6 34.9 23.6 36.2 23.6 C 37.5 23.6 38.7 22.6 38.7 20.8 Z M 40.1 17.6 L 40.6 17.6 L 42.7 23.4 L 42.8 23.4 L 44.9 17.6 L 45.4 17.6 L 43 24 L 42.5 24 L 40.1 17.6 Z M 46.3 20.8 C 46.3 18.8 47.7 17.5 49.2 17.5 C 50.2 17.5 51.2 18.1 51.7 19.2 C 51.68 19.22 51.7 17.6 51.7 17.6 L 52.1 17.6 L 52.1 24 L 51.7 24 C 51.7 24 51.68 22.4 51.7 22.4 C 51.2 23.6 50.2 24.1 49.2 24.1 C 47.7 24.1 46.3 22.8 46.3 20.8 Z M 51.7 20.8 C 51.7 19.1 50.5 18 49.2 18 C 47.9 18 46.8 19.1 46.8 20.8 C 46.8 22.5 47.9 23.6 49.2 23.6 C 50.5 23.6 51.7 22.5 51.7 20.8 Z M 54.5 14.5 L 55 14.5 L 55 24 L 54.5 24 L 54.5 14.5 Z M 62.4 21 C 62.4 21 57.3 21 57.3 21 C 57.4 22.6 58.5 23.6 59.9 23.6 C 60.7 23.6 61.5 23.4 62.2 22.7 C 62.2 22.7 62.2 23.3 62.2 23.3 C 61.5 23.8 60.7 24.1 59.9 24.1 C 58.1 24.1 56.8 22.8 56.8 20.8 C 56.8 18.8 58.3 17.5 59.8 17.5 C 61.2 17.5 62.4 18.6 62.4 20.7 C 62.4 20.8 62.4 20.9 62.4 21 Z M 61.9 20.5 C 61.9 18.8 60.9 18 59.8 18 C 58.6 18 57.5 19 57.4 20.5 C 57.4 20.5 61.9 20.5 61.9 20.5 Z M 71.7 20.8 C 71.7 18.9 73.1 17.5 74.8 17.5 C 76.4 17.5 77.8 18.9 77.8 20.8 C 77.8 22.8 76.4 24.1 74.8 24.1 C 73.1 24.1 71.7 22.8 71.7 20.8 Z M 77.3 20.8 C 77.3 19 76.1 18 74.8 18 C 73.5 18 72.2 19 72.2 20.8 C 72.2 22.6 73.5 23.6 74.8 23.6 C 76.1 23.6 77.3 22.6 77.3 20.8 Z M 79.8 18.1 L 78.8 18.1 L 78.8 17.6 L 79.8 17.6 C 79.8 17.6 79.77 16.4 79.8 16.4 C 79.8 15.1 80.6 14.4 81.7 14.4 C 82 14.4 82.4 14.5 82.6 14.6 C 82.6 14.6 82.6 15.1 82.6 15.1 C 82.4 15 82 14.9 81.7 14.9 C 80.9 14.9 80.3 15.4 80.3 16.5 C 80.29 16.49 80.3 17.6 80.3 17.6 L 82.2 17.6 L 82.2 18.1 L 80.3 18.1 L 80.3 24 L 79.8 24 L 79.8 18.1 Z M 83.8 18.1 L 82.8 18.1 L 82.8 17.6 L 83.8 17.6 C 83.8 17.6 83.78 16.4 83.8 16.4 C 83.8 15.1 84.6 14.4 85.7 14.4 C 86 14.4 86.4 14.5 86.6 14.6 C 86.6 14.6 86.6 15.1 86.6 15.1 C 86.4 15 86 14.9 85.7 14.9 C 84.9 14.9 84.3 15.4 84.3 16.5 C 84.3 16.49 84.3 17.6 84.3 17.6 L 86.2 17.6 L 86.2 18.1 L 84.3 18.1 L 84.3 24 L 83.8 24 L 83.8 18.1 Z M 87.6 17.6 L 88 17.6 L 88 18.8 C 88 18.8 88.03 18.82 88 18.8 C 88.4 17.9 89.3 17.6 89.9 17.6 C 90 17.6 90.2 17.6 90.3 17.6 C 90.3 17.6 90.3 18.1 90.3 18.1 C 90.2 18.1 90 18.1 89.9 18.1 C 89 18.1 88.1 18.7 88.1 20 C 88.06 19.97 88.1 24 88.1 24 L 87.6 24 L 87.6 17.6 Z M 96.4 21 C 96.4 21 91.4 21 91.4 21 C 91.5 22.6 92.5 23.6 93.9 23.6 C 94.7 23.6 95.5 23.4 96.2 22.7 C 96.2 22.7 96.2 23.3 96.2 23.3 C 95.5 23.8 94.7 24.1 93.9 24.1 C 92.1 24.1 90.9 22.8 90.9 20.8 C 90.9 18.8 92.3 17.5 93.8 17.5 C 95.2 17.5 96.5 18.6 96.5 20.7 C 96.5 20.8 96.4 20.9 96.4 21 Z M 96 20.5 C 95.9 18.8 94.9 18 93.8 18 C 92.6 18 91.5 19 91.4 20.5 C 91.4 20.5 96 20.5 96 20.5 Z M 106.1 21.7 C 106.14 21.68 106.1 17.6 106.1 17.6 L 106.6 17.6 C 106.6 17.6 106.65 21.71 106.6 21.7 C 106.6 22.9 107.4 23.6 108.5 23.6 C 109.7 23.6 110.4 22.9 110.4 21.7 C 110.44 21.7 110.4 17.6 110.4 17.6 L 110.9 17.6 C 110.9 17.6 110.94 21.67 110.9 21.7 C 110.9 23.1 110 24.1 108.5 24.1 C 107.1 24.1 106.1 23.1 106.1 21.7 Z M 117.9 19.8 C 117.93 19.76 117.9 24 117.9 24 L 117.4 24 C 117.4 24 117.42 19.97 117.4 20 C 117.4 18.7 116.8 18 115.6 18 C 114.5 18 113.6 18.7 113.6 19.9 C 113.64 19.91 113.6 24 113.6 24 L 113.1 24 L 113.1 17.6 L 113.5 17.6 L 113.6 18.8 C 113.6 18.8 113.61 18.76 113.6 18.8 C 114 18 114.7 17.5 115.7 17.5 C 117 17.5 117.9 18.4 117.9 19.8 Z M 128.1 17.6 L 128.5 17.6 C 128.5 17.6 128.56 19.24 128.6 19.2 C 129 18.1 130.1 17.5 131.1 17.5 C 132.6 17.5 134 18.8 134 20.8 C 134 22.8 132.6 24.1 131.1 24.1 C 130.1 24.1 129 23.5 128.6 22.5 C 128.6 22.45 128.6 26.6 128.6 26.6 L 128.1 26.6 L 128.1 17.6 Z M 133.5 20.8 C 133.5 19.1 132.4 18 131 18 C 129.7 18 128.6 19.1 128.6 20.8 C 128.6 22.5 129.7 23.6 131 23.6 C 132.3 23.6 133.5 22.5 133.5 20.8 Z M 135.4 20.8 C 135.4 18.8 136.8 17.5 138.3 17.5 C 139.3 17.5 140.3 18.1 140.8 19.2 C 140.77 19.22 140.8 17.6 140.8 17.6 L 141.2 17.6 L 141.2 24 L 140.8 24 C 140.8 24 140.77 22.4 140.8 22.4 C 140.3 23.6 139.3 24.1 138.3 24.1 C 136.8 24.1 135.4 22.8 135.4 20.8 Z M 140.8 20.8 C 140.8 19.1 139.6 18 138.3 18 C 137 18 135.9 19.1 135.9 20.8 C 135.9 22.5 137 23.6 138.3 23.6 C 139.6 23.6 140.8 22.5 140.8 20.8 Z M 148.3 19.8 C 148.3 19.76 148.3 24 148.3 24 L 147.8 24 C 147.8 24 147.8 19.97 147.8 20 C 147.8 18.7 147.1 18 146 18 C 144.9 18 144 18.7 144 19.9 C 144.02 19.91 144 24 144 24 L 143.5 24 L 143.5 17.6 L 143.9 17.6 L 144 18.8 C 144 18.8 143.98 18.76 144 18.8 C 144.3 18 145.1 17.5 146.1 17.5 C 147.4 17.5 148.3 18.4 148.3 19.8 Z M 150 20.8 C 150 18.9 151.4 17.5 153.1 17.5 C 154.8 17.5 156.1 18.9 156.1 20.8 C 156.1 22.8 154.8 24.1 153.1 24.1 C 151.4 24.1 150 22.8 150 20.8 Z M 155.6 20.8 C 155.6 19 154.4 18 153.1 18 C 151.8 18 150.5 19 150.5 20.8 C 150.5 22.6 151.8 23.6 153.1 23.6 C 154.4 23.6 155.6 22.6 155.6 20.8 Z M 157.8 20.1 L 160.6 20.1 L 160.6 20.6 L 157.8 20.6 L 157.8 20.1 Z " stroke="none" fill="#000"/>
  </g>
  <g id="Polygon18074">
    <path d="M 1.3 6.3 C 1.28 6.34 1.3 0.7 1.3 0.7 L 1.8 0.7 C 1.8 0.7 1.79 6.37 1.8 6.4 C 1.8 8.1 2.8 9.2 4.4 9.2 C 6 9.2 7.1 8.1 7.1 6.4 C 7.12 6.36 7.1 0.7 7.1 0.7 L 7.6 0.7 C 7.6 0.7 7.62 6.32 7.6 6.3 C 7.6 8.4 6.4 9.7 4.4 9.7 C 2.5 9.7 1.3 8.4 1.3 6.3 Z M 14.8 5.4 C 14.83 5.36 14.8 9.6 14.8 9.6 L 14.3 9.6 C 14.3 9.6 14.33 5.57 14.3 5.6 C 14.3 4.3 13.7 3.6 12.5 3.6 C 11.4 3.6 10.5 4.3 10.5 5.5 C 10.55 5.51 10.5 9.6 10.5 9.6 L 10 9.6 L 10 3.2 L 10.4 3.2 L 10.5 4.4 C 10.5 4.4 10.51 4.36 10.5 4.4 C 10.9 3.6 11.6 3.1 12.6 3.1 C 13.9 3.1 14.8 4 14.8 5.4 Z M 22.1 6.6 C 22.1 6.6 17.1 6.6 17.1 6.6 C 17.2 8.2 18.2 9.2 19.6 9.2 C 20.4 9.2 21.2 9 21.9 8.3 C 21.9 8.3 21.9 8.9 21.9 8.9 C 21.2 9.4 20.4 9.7 19.6 9.7 C 17.8 9.7 16.6 8.4 16.6 6.4 C 16.6 4.4 18 3.1 19.5 3.1 C 21 3.1 22.2 4.2 22.2 6.3 C 22.2 6.4 22.2 6.5 22.1 6.6 Z M 21.7 6.1 C 21.6 4.4 20.6 3.6 19.5 3.6 C 18.3 3.6 17.2 4.6 17.1 6.1 C 17.1 6.1 21.7 6.1 21.7 6.1 Z M 30.1 3.7 L 29.1 3.7 L 29.1 3.2 L 30.1 3.2 C 30.1 3.2 30.06 2 30.1 2 C 30.1 0.7 30.9 0 32 0 C 32.3 0 32.7 0.1 32.9 0.2 C 32.9 0.2 32.9 0.7 32.9 0.7 C 32.7 0.6 32.3 0.5 32 0.5 C 31.1 0.5 30.6 1 30.6 2.1 C 30.57 2.09 30.6 3.2 30.6 3.2 L 32.5 3.2 L 32.5 3.7 L 30.6 3.7 L 30.6 9.6 L 30.1 9.6 L 30.1 3.7 Z M 33.1 6.4 C 33.1 4.5 34.5 3.1 36.2 3.1 C 37.8 3.1 39.2 4.5 39.2 6.4 C 39.2 8.4 37.8 9.7 36.2 9.7 C 34.5 9.7 33.1 8.4 33.1 6.4 Z M 38.7 6.4 C 38.7 4.6 37.5 3.6 36.2 3.6 C 34.9 3.6 33.6 4.6 33.6 6.4 C 33.6 8.2 34.9 9.2 36.2 9.2 C 37.5 9.2 38.7 8.2 38.7 6.4 Z M 40.9 0.9 C 40.9 0.7 41.1 0.5 41.3 0.5 C 41.6 0.5 41.7 0.7 41.7 0.9 C 41.7 1.1 41.6 1.3 41.3 1.3 C 41.1 1.3 40.9 1.1 40.9 0.9 Z M 41.1 3.2 L 41.6 3.2 L 41.6 9.6 L 41.1 9.6 L 41.1 3.2 Z M 47.4 3.7 C 47.4 3.7 47.4 4.2 47.4 4.2 C 46.9 3.9 46.3 3.6 45.6 3.6 C 44.7 3.6 44 4.1 44 4.8 C 44 5.5 44.7 5.8 45.7 6.1 C 46.8 6.5 47.8 6.8 47.8 7.9 C 47.8 9 46.9 9.7 45.6 9.7 C 44.8 9.7 44.1 9.5 43.5 9 C 43.5 9 43.5 8.3 43.5 8.3 C 44 8.9 44.8 9.2 45.6 9.2 C 46.6 9.2 47.3 8.7 47.3 7.9 C 47.3 7.2 46.5 6.9 45.5 6.5 C 44.5 6.2 43.5 5.9 43.5 4.8 C 43.5 3.8 44.4 3.1 45.6 3.1 C 46.3 3.1 47 3.3 47.4 3.7 Z M 58.8 2.1 L 58.4 2.1 L 56.8 0.2 L 57.4 0.2 L 58.8 2.1 Z M 54.9 6.4 C 54.9 4.4 56.3 3.1 57.8 3.1 C 58.8 3.1 59.9 3.7 60.3 4.8 C 60.33 4.82 60.4 3.2 60.4 3.2 L 60.8 3.2 L 60.8 9.6 L 60.4 9.6 C 60.4 9.6 60.33 8 60.3 8 C 59.9 9.2 58.8 9.7 57.8 9.7 C 56.3 9.7 54.9 8.4 54.9 6.4 Z M 60.3 6.4 C 60.3 4.7 59.2 3.6 57.9 3.6 C 56.6 3.6 55.4 4.7 55.4 6.4 C 55.4 8.1 56.6 9.2 57.9 9.2 C 59.2 9.2 60.3 8.1 60.3 6.4 Z M 69 0.1 L 69.5 0.1 L 69.5 9.6 L 69 9.6 L 69 0.1 Z M 72 1.1 C 72 1.13 72 0.7 72 0.7 L 72.5 0.7 C 72.5 0.7 72.5 1.12 72.5 1.1 C 72.5 2.1 72.1 3.1 71.9 3.7 C 71.9 3.7 71.5 3.7 71.5 3.7 C 71.7 3.1 72 2.1 72 1.1 Z M 74.3 0.9 C 74.3 0.7 74.5 0.5 74.7 0.5 C 74.9 0.5 75.1 0.7 75.1 0.9 C 75.1 1.1 74.9 1.3 74.7 1.3 C 74.5 1.3 74.3 1.1 74.3 0.9 Z M 74.4 3.2 L 74.9 3.2 L 74.9 9.6 L 74.4 9.6 L 74.4 3.2 Z M 82.1 5.4 C 82.05 5.36 82.1 9.6 82.1 9.6 L 81.5 9.6 C 81.5 9.6 81.55 5.57 81.5 5.6 C 81.5 4.3 80.9 3.6 79.7 3.6 C 78.7 3.6 77.8 4.3 77.8 5.5 C 77.77 5.51 77.8 9.6 77.8 9.6 L 77.3 9.6 L 77.3 3.2 L 77.7 3.2 L 77.7 4.4 C 77.7 4.4 77.73 4.36 77.7 4.4 C 78.1 3.6 78.8 3.1 79.8 3.1 C 81.2 3.1 82.1 4 82.1 5.4 Z M 84.9 3.2 L 86.8 3.2 L 86.8 3.7 L 84.9 3.7 C 84.9 3.7 84.87 7.6 84.9 7.6 C 84.9 8.8 85.5 9.2 86.4 9.2 C 86.6 9.2 86.8 9.2 86.9 9.2 C 86.9 9.2 86.9 9.6 86.9 9.6 C 86.9 9.6 86.6 9.7 86.3 9.7 C 85.2 9.7 84.4 9 84.4 7.6 C 84.37 7.62 84.4 3.7 84.4 3.7 L 83.4 3.7 L 83.4 3.2 L 84.4 3.2 L 84.4 1.7 L 84.9 1.7 L 84.9 3.2 Z M 90.5 2.1 L 90 2.1 L 91.5 0.2 L 92 0.2 L 90.5 2.1 Z M 93.3 6.6 C 93.3 6.6 88.3 6.6 88.3 6.6 C 88.4 8.2 89.4 9.2 90.8 9.2 C 91.6 9.2 92.4 9 93.1 8.3 C 93.1 8.3 93.1 8.9 93.1 8.9 C 92.4 9.4 91.6 9.7 90.8 9.7 C 89 9.7 87.8 8.4 87.8 6.4 C 87.8 4.4 89.2 3.1 90.7 3.1 C 92.1 3.1 93.4 4.2 93.4 6.3 C 93.4 6.4 93.3 6.5 93.3 6.6 Z M 92.9 6.1 C 92.8 4.4 91.8 3.6 90.7 3.6 C 89.5 3.6 88.4 4.6 88.3 6.1 C 88.3 6.1 92.9 6.1 92.9 6.1 Z M 95.2 3.2 L 95.6 3.2 L 95.6 4.4 C 95.6 4.4 95.62 4.42 95.6 4.4 C 96 3.5 96.9 3.2 97.5 3.2 C 97.6 3.2 97.8 3.2 97.9 3.2 C 97.9 3.2 97.9 3.7 97.9 3.7 C 97.8 3.7 97.6 3.7 97.5 3.7 C 96.6 3.7 95.7 4.3 95.7 5.6 C 95.66 5.57 95.7 9.6 95.7 9.6 L 95.2 9.6 L 95.2 3.2 Z M 99.1 0.9 C 99.1 0.7 99.3 0.5 99.5 0.5 C 99.8 0.5 99.9 0.7 99.9 0.9 C 99.9 1.1 99.8 1.3 99.5 1.3 C 99.3 1.3 99.1 1.1 99.1 0.9 Z M 99.3 3.2 L 99.8 3.2 L 99.8 9.6 L 99.3 9.6 L 99.3 3.2 Z M 107.2 6.6 C 107.2 6.6 102.1 6.6 102.1 6.6 C 102.2 8.2 103.3 9.2 104.7 9.2 C 105.5 9.2 106.3 9 107 8.3 C 107 8.3 107 8.9 107 8.9 C 106.3 9.4 105.5 9.7 104.7 9.7 C 102.9 9.7 101.6 8.4 101.6 6.4 C 101.6 4.4 103.1 3.1 104.6 3.1 C 106 3.1 107.2 4.2 107.2 6.3 C 107.2 6.4 107.2 6.5 107.2 6.6 Z M 106.7 6.1 C 106.7 4.4 105.7 3.6 104.6 3.6 C 103.4 3.6 102.3 4.6 102.2 6.1 C 102.2 6.1 106.7 6.1 106.7 6.1 Z M 108.9 7.3 C 108.93 7.28 108.9 3.2 108.9 3.2 L 109.4 3.2 C 109.4 3.2 109.44 7.31 109.4 7.3 C 109.4 8.5 110.2 9.2 111.3 9.2 C 112.5 9.2 113.2 8.5 113.2 7.3 C 113.23 7.3 113.2 3.2 113.2 3.2 L 113.7 3.2 C 113.7 3.2 113.73 7.27 113.7 7.3 C 113.7 8.7 112.8 9.7 111.3 9.7 C 109.8 9.7 108.9 8.7 108.9 7.3 Z M 115.9 3.2 L 116.3 3.2 L 116.4 4.4 C 116.4 4.4 116.4 4.42 116.4 4.4 C 116.8 3.5 117.6 3.2 118.3 3.2 C 118.4 3.2 118.6 3.2 118.7 3.2 C 118.7 3.2 118.7 3.7 118.7 3.7 C 118.6 3.7 118.4 3.7 118.3 3.7 C 117.4 3.7 116.4 4.3 116.4 5.6 C 116.43 5.57 116.4 9.6 116.4 9.6 L 115.9 9.6 L 115.9 3.2 Z M 119.3 8.6 C 119.34 8.64 119.3 8.2 119.3 8.2 L 119.8 8.2 C 119.8 8.2 119.84 8.63 119.8 8.6 C 119.8 9.6 119.4 10.6 119.2 11.2 C 119.2 11.2 118.8 11.2 118.8 11.2 C 119 10.6 119.3 9.6 119.3 8.6 Z M 127.9 0.1 L 128.4 0.1 L 128.4 9.6 L 127.9 9.6 L 127.9 0.1 Z M 130.3 6.4 C 130.3 4.4 131.7 3.1 133.2 3.1 C 134.2 3.1 135.2 3.7 135.7 4.8 C 135.67 4.82 135.7 3.2 135.7 3.2 L 136.1 3.2 L 136.1 9.6 L 135.7 9.6 C 135.7 9.6 135.67 8 135.7 8 C 135.2 9.2 134.2 9.7 133.2 9.7 C 131.7 9.7 130.3 8.4 130.3 6.4 Z M 135.7 6.4 C 135.7 4.7 134.5 3.6 133.2 3.6 C 131.9 3.6 130.8 4.7 130.8 6.4 C 130.8 8.1 131.9 9.2 133.2 9.2 C 134.5 9.2 135.7 8.1 135.7 6.4 Z M 146.9 9.2 C 147.4 9.2 148.1 9.1 148.6 8.7 C 148.6 8.7 148.6 9.3 148.6 9.3 C 148.1 9.6 147.5 9.7 146.9 9.7 C 145.2 9.7 143.8 8.3 143.8 6.4 C 143.8 4.5 145.2 3.1 146.9 3.1 C 147.5 3.1 148.1 3.2 148.6 3.6 C 148.6 3.6 148.6 4.1 148.6 4.1 C 148.1 3.7 147.5 3.6 146.9 3.6 C 145.6 3.6 144.3 4.7 144.3 6.4 C 144.3 8.1 145.6 9.2 146.9 9.2 Z M 149.8 6.4 C 149.8 4.4 151.2 3.1 152.7 3.1 C 153.7 3.1 154.7 3.7 155.2 4.8 C 155.2 4.82 155.3 3.2 155.3 3.2 L 155.7 3.2 L 155.7 9.6 L 155.3 9.6 C 155.3 9.6 155.2 8 155.2 8 C 154.7 9.2 153.7 9.7 152.7 9.7 C 151.2 9.7 149.8 8.4 149.8 6.4 Z M 155.2 6.4 C 155.2 4.7 154.1 3.6 152.7 3.6 C 151.4 3.6 150.3 4.7 150.3 6.4 C 150.3 8.1 151.4 9.2 152.8 9.2 C 154.1 9.2 155.2 8.1 155.2 6.4 Z M 157.8 5.7 L 160.6 5.7 L 160.6 6.2 L 157.8 6.2 L 157.8 5.7 Z " stroke="none" fill="#000"/>
  </g>
</svg>