<?xml version="1.0" standalone="no"?>
<!DOCTYPE svg PUBLIC "-//W3C//DTD SVG 1.1//EN" "http://www.w3.org/Graphics/SVG/1.1/DTD/svg11.dtd">
<svg xmlns="http://www.w3.org/2000/svg" version="1.1" width="233px" height="34.1px" viewBox="0 0 233 34.1">
  <desc>BRAS DE LECTURE</desc>
  <defs/>
  <g id="Polygon25618">
    <path d="M 23.2 1.1 C 23.2 1.1 29.75 1.08 29.7 1.1 C 33.4 1.1 35.3 2.9 35.3 5.2 C 35.3 6.8 34.4 7.9 33.1 8.5 C 33.1 8.5 33.1 8.5 33.1 8.5 C 34.7 9.1 35.6 10.3 35.6 12 C 35.6 14.3 33.8 16.3 30 16.3 C 30.01 16.26 23.2 16.3 23.2 16.3 L 23.2 1.1 Z M 29.5 7.1 C 30.6 7.1 31.1 6.5 31.1 5.9 C 31.1 5.3 30.6 4.8 29.5 4.8 C 29.54 4.76 27.6 4.8 27.6 4.8 L 27.6 7.1 C 27.6 7.1 29.54 7.09 29.5 7.1 Z M 29.6 12.6 C 30.7 12.6 31.3 12 31.3 11.3 C 31.3 10.6 30.7 10.1 29.6 10.1 C 29.62 10.06 27.6 10.1 27.6 10.1 L 27.6 12.6 C 27.6 12.6 29.6 12.58 29.6 12.6 Z M 50.2 16.3 L 45 16.3 L 42.1 11.6 L 42 11.6 L 42 16.3 L 37.5 16.3 L 37.5 1.1 C 37.5 1.1 42.94 1.08 42.9 1.1 C 46.7 1.1 49.4 2.8 49.4 6.4 C 49.4 7.8 48.8 9.9 46.2 10.9 C 46.23 10.92 50.2 16.3 50.2 16.3 Z M 42.9 8.3 C 44 8.3 44.9 7.7 44.9 6.7 C 44.9 5.6 44 5.1 42.9 5.1 C 42.9 5.08 42 5.1 42 5.1 L 42 8.3 C 42 8.3 42.92 8.25 42.9 8.3 Z M 61.8 16.3 L 60.8 13.3 L 55.7 13.3 L 54.8 16.3 L 50.2 16.3 L 55.7 1.1 L 60.8 1.1 L 66.4 16.3 L 61.8 16.3 Z M 56.9 9.7 L 59.6 9.7 L 58.2 5.6 L 56.9 9.7 Z M 76.9 1.8 C 76.9 1.8 76.9 5.7 76.9 5.7 C 76 5 74.3 4.6 73 4.6 C 71.8 4.6 71.2 5 71.2 5.5 C 71.2 6 71.9 6.2 73.1 6.7 C 75.1 7.4 77.9 8.3 77.9 11.6 C 77.9 14.5 75.7 16.6 71.9 16.6 C 69.9 16.6 68.1 16 67 15.3 C 67 15.3 67 11.2 67 11.2 C 68.1 12.1 69.7 12.8 71.3 12.8 C 72.7 12.8 73.3 12.3 73.3 11.7 C 73.3 11 72.3 10.6 71.1 10.2 C 69.4 9.6 66.8 8.5 66.8 5.6 C 66.8 2.9 68.9 0.8 72.7 0.8 C 74.3 0.8 75.8 1.2 76.9 1.8 Z M 98 8.7 C 98 13.3 94.6 16.3 89.6 16.3 C 89.62 16.26 84.5 16.3 84.5 16.3 L 84.5 1.1 C 84.5 1.1 89.62 1.08 89.6 1.1 C 94.6 1.1 98 4.1 98 8.7 Z M 88.9 12.3 C 88.9 12.3 89.78 12.26 89.8 12.3 C 92.1 12.3 93.6 11 93.6 8.7 C 93.6 6.4 92.1 5.1 89.8 5.1 C 89.78 5.08 88.9 5.1 88.9 5.1 L 88.9 12.3 Z M 99.9 1.1 L 110.4 1.1 L 110.4 5 L 104.4 5 L 104.4 6.9 L 109.8 6.9 L 109.8 10.4 L 104.4 10.4 L 104.4 12.3 L 110.4 12.3 L 110.4 16.3 L 99.9 16.3 L 99.9 1.1 Z M 117.4 1.1 L 121.8 1.1 L 121.8 12.3 L 127.8 12.3 L 127.8 16.3 L 117.4 16.3 L 117.4 1.1 Z M 129.5 1.1 L 140 1.1 L 140 5 L 133.9 5 L 133.9 6.9 L 139.4 6.9 L 139.4 10.4 L 133.9 10.4 L 133.9 12.3 L 140 12.3 L 140 16.3 L 129.5 16.3 L 129.5 1.1 Z M 149.4 16.6 C 145 16.6 141.4 13.4 141.4 8.7 C 141.4 3.9 145 0.7 149.4 0.7 C 151.1 0.7 152.5 1.2 153.7 1.7 C 153.7 1.7 153.7 6.1 153.7 6.1 C 152.5 5.2 151.4 4.8 150 4.8 C 147.6 4.8 145.8 6.4 145.8 8.7 C 145.8 10.9 147.6 12.6 150 12.6 C 151.4 12.6 152.4 12.1 153.7 11.2 C 153.7 11.2 153.7 15.6 153.7 15.6 C 152.5 16.2 151.1 16.6 149.4 16.6 Z M 159.1 5.1 L 154.9 5.1 L 154.9 1.1 L 167.7 1.1 L 167.7 5.1 L 163.5 5.1 L 163.5 16.3 L 159.1 16.3 L 159.1 5.1 Z M 169.2 10.1 C 169.19 10.08 169.2 1.1 169.2 1.1 L 173.6 1.1 C 173.6 1.1 173.62 10.04 173.6 10 C 173.6 11.7 174.5 12.6 175.9 12.6 C 177.3 12.6 178.2 11.7 178.2 10 C 178.19 10.02 178.2 1.1 178.2 1.1 L 182.6 1.1 C 182.6 1.1 182.64 10.08 182.6 10.1 C 182.6 13.9 180.1 16.6 175.9 16.6 C 171.7 16.6 169.2 13.9 169.2 10.1 Z M 197.7 16.3 L 192.5 16.3 L 189.6 11.6 L 189.5 11.6 L 189.5 16.3 L 185.1 16.3 L 185.1 1.1 C 185.1 1.1 190.51 1.08 190.5 1.1 C 194.3 1.1 197 2.8 197 6.4 C 197 7.8 196.3 9.9 193.8 10.9 C 193.81 10.92 197.7 16.3 197.7 16.3 Z M 190.5 8.3 C 191.6 8.3 192.5 7.7 192.5 6.7 C 192.5 5.6 191.6 5.1 190.5 5.1 C 190.47 5.08 189.5 5.1 189.5 5.1 L 189.5 8.3 C 189.5 8.3 190.49 8.25 190.5 8.3 Z M 199.2 1.1 L 209.7 1.1 L 209.7 5 L 203.7 5 L 203.7 6.9 L 209.1 6.9 L 209.1 10.4 L 203.7 10.4 L 203.7 12.3 L 209.7 12.3 L 209.7 16.3 L 199.2 16.3 L 199.2 1.1 Z " stroke="none" fill="#444443"/>
  </g>
</svg>