<?xml version="1.0" standalone="no"?>
<!DOCTYPE svg PUBLIC "-//W3C//DTD SVG 1.1//EN" "http://www.w3.org/Graphics/SVG/1.1/DTD/svg11.dtd">
<svg xmlns="http://www.w3.org/2000/svg" version="1.1" width="305.4px" height="131.1px" viewBox="0 0 305.4 131.1">
  <desc>Z phyr</desc>
  <defs/>
  <g id="Polygon16828">
    <path d="M 3.4 18.7 L 24.3 18.7 L 24.3 24.4 L 5.6 46 L 5.6 46.5 L 24.9 46.5 L 24.9 50 L 2.4 50 L 2.4 44.4 L 21.1 22.8 L 21.1 22.2 L 3.4 22.2 L 3.4 18.7 Z M 33.7 40 C 33.8 42.2 34.5 44 35.8 45.3 C 37.1 46.6 38.9 47.3 41.1 47.3 C 42.2 47.3 43.1 47.2 43.9 46.9 C 44.6 46.7 45.3 46.4 45.9 46 C 46.4 45.5 46.8 45.1 47.2 44.5 C 47.5 44 47.8 43.4 48 42.8 C 48 42.8 51.3 43.6 51.3 43.6 C 50.7 45.7 49.5 47.4 47.9 48.7 C 46.2 50 43.9 50.6 41.1 50.6 C 39.5 50.6 38 50.3 36.7 49.8 C 35.4 49.2 34.2 48.4 33.3 47.4 C 32.3 46.4 31.6 45.2 31.1 43.8 C 30.5 42.4 30.3 40.9 30.3 39.2 C 30.3 39.2 30.3 38.1 30.3 38.1 C 30.3 36.6 30.5 35.1 31.1 33.8 C 31.6 32.4 32.4 31.3 33.4 30.3 C 34.4 29.4 35.5 28.6 36.8 28 C 38.2 27.5 39.6 27.2 41.1 27.2 C 43 27.2 44.5 27.6 45.9 28.2 C 47.2 28.9 48.3 29.7 49.1 30.7 C 50 31.7 50.6 32.8 51 33.9 C 51.4 35.1 51.6 36.1 51.6 37.1 C 51.59 37.13 51.6 40 51.6 40 C 51.6 40 33.74 39.98 33.7 40 Z M 41.1 30.5 C 40.2 30.5 39.2 30.7 38.4 31 C 37.6 31.3 36.8 31.7 36.2 32.3 C 35.5 32.9 35 33.5 34.6 34.3 C 34.2 35.1 33.9 35.9 33.8 36.8 C 33.8 36.8 48.1 36.8 48.1 36.8 C 48 35.8 47.8 35 47.4 34.2 C 47 33.4 46.5 32.8 45.9 32.2 C 45.2 31.7 44.5 31.3 43.7 31 C 42.8 30.7 42 30.5 41.1 30.5 Z M 46.5 19.3 L 42.7 24.5 L 39.5 24.5 L 42.4 19.3 L 46.5 19.3 Z M 61.2 58.9 L 57.7 58.9 L 57.7 27.8 L 61.2 27.8 L 61.2 31.3 C 61.2 31.3 61.72 31.33 61.7 31.3 C 62.5 30 63.6 29 64.9 28.3 C 66.3 27.6 67.8 27.2 69.4 27.2 C 70.8 27.2 72.1 27.5 73.3 28 C 74.5 28.5 75.6 29.2 76.5 30.2 C 77.4 31.1 78.2 32.3 78.7 33.7 C 79.3 35.1 79.6 36.7 79.6 38.5 C 79.6 38.5 79.6 39.4 79.6 39.4 C 79.6 41.2 79.3 42.8 78.8 44.2 C 78.2 45.6 77.5 46.8 76.6 47.7 C 75.6 48.7 74.5 49.4 73.3 49.9 C 72 50.4 70.7 50.6 69.3 50.6 C 68.6 50.6 67.9 50.5 67.1 50.4 C 66.4 50.2 65.7 49.9 65 49.6 C 64.3 49.3 63.7 48.8 63.1 48.4 C 62.6 47.9 62.1 47.3 61.7 46.6 C 61.72 46.59 61.2 46.6 61.2 46.6 L 61.2 58.9 Z M 68.6 47.3 C 69.7 47.3 70.6 47.1 71.5 46.7 C 72.4 46.4 73.2 45.8 73.9 45.2 C 74.5 44.5 75.1 43.6 75.4 42.7 C 75.8 41.7 76 40.6 76 39.4 C 76 39.4 76 38.5 76 38.5 C 76 37.3 75.8 36.2 75.4 35.2 C 75.1 34.3 74.5 33.4 73.9 32.7 C 73.2 32 72.4 31.5 71.5 31.1 C 70.6 30.7 69.6 30.5 68.6 30.5 C 67.5 30.5 66.6 30.7 65.7 31.1 C 64.8 31.5 64 32.1 63.3 32.8 C 62.7 33.5 62.1 34.4 61.8 35.4 C 61.4 36.4 61.2 37.5 61.2 38.6 C 61.2 38.6 61.2 39.2 61.2 39.2 C 61.2 40.4 61.4 41.5 61.8 42.5 C 62.1 43.5 62.7 44.4 63.3 45.1 C 64 45.8 64.8 46.3 65.7 46.7 C 66.6 47.1 67.5 47.3 68.6 47.3 Z M 89.3 50 L 85.8 50 L 85.8 18.7 L 89.3 18.7 L 89.3 31.9 C 89.3 31.9 89.83 31.86 89.8 31.9 C 90.5 30.4 91.5 29.3 92.7 28.5 C 93.9 27.6 95.5 27.2 97.2 27.2 C 99.6 27.2 101.6 28 103.1 29.6 C 104.6 31.2 105.4 33.6 105.4 36.8 C 105.36 36.77 105.4 50 105.4 50 L 101.9 50 C 101.9 50 101.88 37.48 101.9 37.5 C 101.9 35.2 101.4 33.4 100.3 32.3 C 99.3 31.1 97.9 30.5 96.1 30.5 C 94 30.5 92.3 31.2 91.1 32.7 C 89.9 34.1 89.3 36.1 89.3 38.5 C 89.29 38.47 89.3 50 89.3 50 Z M 129.2 46 C 129.2 46 128.65 45.96 128.7 46 C 127.9 47.4 127 48.5 125.8 49.4 C 124.7 50.2 123.2 50.6 121.4 50.6 C 120.2 50.6 119.1 50.4 118.1 50 C 117 49.6 116.2 49 115.4 48.2 C 114.7 47.4 114.1 46.4 113.7 45.2 C 113.3 44 113.1 42.6 113.1 41.1 C 113.12 41.05 113.1 27.8 113.1 27.8 L 116.6 27.8 C 116.6 27.8 116.61 40.61 116.6 40.6 C 116.6 42.9 117.1 44.6 118 45.7 C 119 46.8 120.4 47.3 122.4 47.3 C 124.5 47.3 126.2 46.6 127.4 45.1 C 128.6 43.7 129.2 41.8 129.2 39.4 C 129.19 39.36 129.2 27.8 129.2 27.8 L 132.7 27.8 C 132.7 27.8 132.67 55.42 132.7 55.4 C 132.7 56.4 132.3 57.3 131.7 57.9 C 131.1 58.6 130.2 58.9 129.2 58.9 C 129.23 58.9 116.6 58.9 116.6 58.9 L 116.6 55.7 C 116.6 55.7 127.98 55.69 128 55.7 C 128.8 55.7 129.2 55.2 129.2 54.4 C 129.19 54.35 129.2 46 129.2 46 Z M 139.2 27.8 L 147.2 27.8 L 147.2 30.8 C 147.2 30.8 147.75 30.79 147.8 30.8 C 148.3 29.6 149.1 28.7 150.2 28.1 C 151.2 27.5 152.4 27.2 153.7 27.2 C 156 27.2 157.8 28 159.1 29.4 C 160.5 30.9 161.2 33 161.3 35.8 C 161.3 35.8 157.7 36.3 157.7 36.3 C 157.7 34.3 157.2 32.8 156.2 31.9 C 155.2 31 154 30.5 152.6 30.5 C 151.7 30.5 150.9 30.7 150.2 31.1 C 149.5 31.4 149 31.9 148.5 32.5 C 148.1 33.2 147.7 33.9 147.5 34.7 C 147.3 35.6 147.2 36.4 147.2 37.4 C 147.22 37.4 147.2 46.8 147.2 46.8 L 152.8 46.8 L 152.8 50 L 138.6 50 L 138.6 46.8 L 143.7 46.8 L 143.7 31.1 L 139.2 31.1 L 139.2 27.8 Z " stroke="none" fill="#5d90b3"/>
  </g>
</svg>