<?xml version="1.0" standalone="no"?>
<!DOCTYPE svg PUBLIC "-//W3C//DTD SVG 1.1//EN" "http://www.w3.org/Graphics/SVG/1.1/DTD/svg11.dtd">
<svg xmlns="http://www.w3.org/2000/svg" version="1.1" width="234.4px" height="22.6px" viewBox="0 0 234.4 22.6">
  <desc>DSAA 1 re ann e 2019</desc>
  <defs/>
  <g id="Polygon16877">
    <path d="M 5.2 3.4 C 5.2 5.3 3.9 6.4 2.1 6.4 C 2.07 6.4 1 6.4 1 6.4 L 1 0.5 C 1 0.5 2.07 0.46 2.1 0.5 C 3.9 0.5 5.2 1.6 5.2 3.4 Z M 1.1 6.3 C 1.1 6.3 2.07 6.3 2.1 6.3 C 3.8 6.3 5.1 5.2 5.1 3.4 C 5.1 1.6 3.8 0.6 2.1 0.6 C 2.07 0.56 1.1 0.6 1.1 0.6 L 1.1 6.3 Z M 9.3 0.8 C 9.3 0.8 9.3 0.9 9.3 0.9 C 8.9 0.6 8.4 0.5 8 0.5 C 7.1 0.5 6.5 1.1 6.5 1.8 C 6.5 2.6 7.2 2.9 8 3.3 C 8.8 3.7 9.5 4.1 9.5 4.9 C 9.5 5.8 8.8 6.5 7.8 6.5 C 7.2 6.5 6.7 6.2 6.2 5.9 C 6.2 5.9 6.2 5.7 6.2 5.7 C 6.7 6.1 7.2 6.4 7.8 6.4 C 8.8 6.4 9.4 5.7 9.4 4.9 C 9.4 4.1 8.7 3.7 7.9 3.4 C 7 3 6.4 2.6 6.4 1.8 C 6.4 1 7 0.4 8 0.4 C 8.4 0.4 8.9 0.5 9.3 0.8 Z M 15 6.4 L 14 4.1 L 11.2 4.1 L 10.3 6.4 L 10.1 6.4 L 12.6 0.5 L 12.7 0.5 L 15.1 6.4 L 15 6.4 Z M 11.2 4 L 14 4 L 12.6 0.6 L 11.2 4 Z M 20.2 6.4 L 19.3 4.1 L 16.5 4.1 L 15.5 6.4 L 15.4 6.4 L 17.8 0.5 L 17.9 0.5 L 20.4 6.4 L 20.2 6.4 Z M 16.5 4 L 19.3 4 L 17.9 0.6 L 16.5 4 Z M 23.3 6.2 C 23.3 6.1 23.4 6 23.5 6 C 23.6 6 23.7 6.1 23.7 6.2 C 23.7 6.3 23.6 6.4 23.5 6.4 C 23.4 6.4 23.3 6.3 23.3 6.2 Z M 28.7 0.6 L 27.1 1.4 L 27.1 1.3 L 28.7 0.5 L 28.8 0.5 L 28.8 6.4 L 28.7 6.4 L 28.7 0.6 Z M 32.7 1.4 L 31.8 0.2 L 31.9 0.2 L 32.9 1.4 L 32.7 1.4 Z M 34.2 4.3 C 34.2 4.3 30.77 4.31 30.8 4.3 C 30.8 5.6 31.6 6.4 32.6 6.4 C 33.2 6.4 33.7 6.2 34.2 5.8 C 34.2 5.8 34.2 5.9 34.2 5.9 C 33.7 6.3 33.2 6.5 32.6 6.5 C 31.5 6.5 30.7 5.7 30.7 4.3 C 30.7 3 31.6 2.2 32.6 2.2 C 33.4 2.2 34.3 2.8 34.3 4.2 C 34.25 4.26 34.2 4.3 34.2 4.3 Z M 34.2 4.2 C 34.2 2.9 33.4 2.2 32.6 2.2 C 31.7 2.2 30.8 3 30.8 4.2 C 30.8 4.2 34.2 4.2 34.2 4.2 Z M 35.5 2.2 L 35.6 2.2 L 35.6 3.1 C 35.6 3.1 35.64 3.13 35.6 3.1 C 35.8 2.5 36.4 2.2 36.9 2.2 C 37 2.2 37.1 2.2 37.1 2.2 C 37.1 2.2 37.1 2.3 37.1 2.3 C 37.1 2.3 37 2.3 36.9 2.3 C 36.3 2.3 35.7 2.7 35.6 3.6 C 35.64 3.57 35.6 6.4 35.6 6.4 L 35.5 6.4 L 35.5 2.2 Z M 41 4.3 C 41 4.3 37.57 4.31 37.6 4.3 C 37.6 5.6 38.4 6.4 39.4 6.4 C 40 6.4 40.5 6.2 41 5.8 C 41 5.8 41 5.9 41 5.9 C 40.5 6.3 40 6.5 39.4 6.5 C 38.3 6.5 37.5 5.7 37.5 4.3 C 37.5 3 38.4 2.2 39.4 2.2 C 40.2 2.2 41.1 2.8 41.1 4.2 C 41.05 4.26 41 4.3 41 4.3 Z M 41 4.2 C 41 2.9 40.2 2.2 39.4 2.2 C 38.5 2.2 37.6 3 37.6 4.2 C 37.6 4.2 41 4.2 41 4.2 Z M 44.4 4.3 C 44.4 3 45.3 2.2 46.3 2.2 C 47.1 2.2 47.8 2.6 48.1 3.6 C 48.1 3.58 48.1 3.6 48.1 3.6 L 48.1 2.2 L 48.2 2.2 L 48.2 6.4 L 48.1 6.4 L 48.1 5 C 48.1 5 48.1 5.03 48.1 5 C 47.8 6 47.1 6.5 46.3 6.5 C 45.3 6.5 44.4 5.6 44.4 4.3 Z M 48.1 4.3 C 48.1 3 47.2 2.2 46.3 2.2 C 45.4 2.2 44.5 3 44.5 4.3 C 44.5 5.6 45.4 6.4 46.3 6.4 C 47.2 6.4 48.1 5.6 48.1 4.3 Z M 52.8 3.6 C 52.79 3.58 52.8 6.4 52.8 6.4 L 52.7 6.4 C 52.7 6.4 52.69 3.58 52.7 3.6 C 52.7 2.7 52.2 2.2 51.4 2.2 C 50.6 2.2 49.9 2.7 49.9 3.6 C 49.91 3.55 49.9 6.4 49.9 6.4 L 49.8 6.4 L 49.8 2.2 L 49.9 2.2 L 49.9 3.1 C 49.9 3.1 49.91 3.06 49.9 3.1 C 50.1 2.5 50.7 2.2 51.4 2.2 C 52.2 2.2 52.8 2.7 52.8 3.6 Z M 57.3 3.6 C 57.33 3.58 57.3 6.4 57.3 6.4 L 57.2 6.4 C 57.2 6.4 57.22 3.58 57.2 3.6 C 57.2 2.7 56.7 2.2 55.9 2.2 C 55.1 2.2 54.4 2.7 54.4 3.6 C 54.44 3.55 54.4 6.4 54.4 6.4 L 54.3 6.4 L 54.3 2.2 L 54.4 2.2 L 54.4 3.1 C 54.4 3.1 54.44 3.06 54.4 3.1 C 54.7 2.5 55.2 2.2 55.9 2.2 C 56.8 2.2 57.3 2.7 57.3 3.6 Z M 60.2 1.4 L 60.1 1.4 L 61.1 0.2 L 61.2 0.2 L 60.2 1.4 Z M 62.1 4.3 C 62.1 4.3 58.66 4.31 58.7 4.3 C 58.7 5.6 59.5 6.4 60.5 6.4 C 61.1 6.4 61.6 6.2 62.1 5.8 C 62.1 5.8 62.1 5.9 62.1 5.9 C 61.6 6.3 61.1 6.5 60.5 6.5 C 59.4 6.5 58.6 5.7 58.6 4.3 C 58.6 3 59.5 2.2 60.4 2.2 C 61.3 2.2 62.1 2.8 62.1 4.2 C 62.14 4.26 62.1 4.3 62.1 4.3 Z M 62 4.2 C 62 2.9 61.3 2.2 60.4 2.2 C 59.6 2.2 58.7 3 58.7 4.2 C 58.7 4.2 62 4.2 62 4.2 Z M 66.7 4.3 C 66.7 4.3 63.21 4.31 63.2 4.3 C 63.2 5.6 64 6.4 65.1 6.4 C 65.6 6.4 66.2 6.2 66.6 5.8 C 66.6 5.8 66.6 5.9 66.6 5.9 C 66.2 6.3 65.6 6.5 65.1 6.5 C 64 6.5 63.1 5.7 63.1 4.3 C 63.1 3 64 2.2 65 2.2 C 65.9 2.2 66.7 2.8 66.7 4.2 C 66.69 4.26 66.7 4.3 66.7 4.3 Z M 66.6 4.2 C 66.6 2.9 65.8 2.2 65 2.2 C 64.1 2.2 63.3 3 63.2 4.2 C 63.2 4.2 66.6 4.2 66.6 4.2 Z M 70.2 6.2 C 70.2 6.1 70.3 6 70.4 6 C 70.5 6 70.6 6.1 70.6 6.2 C 70.6 6.3 70.5 6.4 70.4 6.4 C 70.3 6.4 70.2 6.3 70.2 6.2 Z M 77.2 2 C 77.2 1.2 76.7 0.5 75.7 0.5 C 75.1 0.5 74.6 0.7 74.3 1.1 C 74.3 1.1 74.3 1 74.3 1 C 74.6 0.6 75.1 0.4 75.7 0.4 C 76.8 0.4 77.3 1.2 77.3 2 C 77.3 3 76.8 3.5 74.3 6.3 C 74.26 6.3 77.5 6.3 77.5 6.3 L 77.5 6.4 C 77.5 6.4 74.02 6.4 74 6.4 C 76.9 3.4 77.2 2.9 77.2 2 Z M 82.5 3.4 C 82.5 5.4 81.6 6.5 80.5 6.5 C 79.5 6.5 78.6 5.4 78.6 3.4 C 78.6 1.5 79.5 0.4 80.5 0.4 C 81.6 0.4 82.5 1.5 82.5 3.4 Z M 78.7 3.4 C 78.7 5.3 79.5 6.4 80.5 6.4 C 81.6 6.4 82.4 5.3 82.4 3.4 C 82.4 1.6 81.6 0.5 80.5 0.5 C 79.5 0.5 78.7 1.6 78.7 3.4 Z M 84.9 0.6 L 83.3 1.4 L 83.3 1.3 L 84.9 0.5 L 85 0.5 L 85 6.4 L 84.9 6.4 L 84.9 0.6 Z M 87.5 6.4 L 89.5 3.8 C 89.5 3.8 89.49 3.84 89.5 3.8 C 89.4 3.9 89 4 88.7 4 C 87.8 4 86.8 3.4 86.8 2.2 C 86.8 1.2 87.5 0.4 88.6 0.4 C 89.6 0.4 90.4 1.2 90.4 2.2 C 90.4 2.8 90.1 3.2 89.6 3.8 C 89.61 3.85 87.6 6.4 87.6 6.4 L 87.5 6.4 Z M 90.3 2.2 C 90.3 1.3 89.6 0.5 88.6 0.5 C 87.6 0.5 86.9 1.3 86.9 2.2 C 86.9 3.3 87.8 3.9 88.7 3.9 C 89.1 3.9 89.4 3.8 89.6 3.7 C 90 3.1 90.3 2.7 90.3 2.2 Z " stroke="none" fill="#000"/>
  </g>
</svg>