<?xml version="1.0" standalone="no"?>
<!DOCTYPE svg PUBLIC "-//W3C//DTD SVG 1.1//EN" "http://www.w3.org/Graphics/SVG/1.1/DTD/svg11.dtd">
<svg xmlns="http://www.w3.org/2000/svg" version="1.1" width="305.4px" height="93.1px" viewBox="0 0 305.4 93.1">
  <desc>FAGOT</desc>
  <defs/>
  <g id="Polygon30917">
    <path d="M 4.2 18.7 L 23.4 18.7 L 23.4 22.2 L 8 22.2 L 8 32.6 L 23.2 32.6 L 23.2 36.1 L 8 36.1 L 8 50 L 4.2 50 L 4.2 18.7 Z M 47.7 42.2 L 34.3 42.2 L 32 50 L 28 50 L 37.4 18.7 L 44.5 18.7 L 54 50 L 49.9 50 L 47.7 42.2 Z M 40.7 20.3 L 35.3 38.7 L 46.6 38.7 L 41.2 20.3 L 40.7 20.3 Z M 65.3 35 L 79.2 35 L 79.2 50 L 75.7 50 L 75.7 46.2 C 75.7 46.2 75.19 46.23 75.2 46.2 C 74.7 47.5 73.8 48.6 72.5 49.4 C 71.2 50.2 69.7 50.6 68.1 50.6 C 64.7 50.6 62.1 49.5 60.1 47.3 C 58.2 45.2 57.3 42 57.3 37.8 C 57.3 37.8 57.3 30.9 57.3 30.9 C 57.3 26.8 58.2 23.7 60.2 21.5 C 62.1 19.2 64.8 18.1 68.2 18.1 C 70 18.1 71.6 18.4 73 19 C 74.3 19.6 75.5 20.4 76.4 21.4 C 77.3 22.4 78 23.6 78.5 25 C 79 26.4 79.2 27.9 79.2 29.5 C 79.21 29.45 79.2 30 79.2 30 L 75.5 30 C 75.5 30 75.46 29.45 75.5 29.5 C 75.5 28.4 75.3 27.5 75 26.5 C 74.8 25.6 74.3 24.7 73.7 24 C 73.2 23.3 72.4 22.7 71.5 22.2 C 70.6 21.8 69.5 21.6 68.2 21.6 C 65.8 21.6 64 22.5 62.8 24.2 C 61.6 26 61 28.3 61 31.1 C 61 31.1 61 37.6 61 37.6 C 61 40.6 61.6 43 62.8 44.6 C 64 46.3 65.9 47.1 68.3 47.1 C 70.6 47.1 72.3 46.4 73.6 45 C 74.8 43.6 75.5 41.6 75.5 39 C 75.46 39 75.5 38.5 75.5 38.5 L 65.3 38.5 L 65.3 35 Z M 84.6 30.9 C 84.6 26.8 85.6 23.7 87.5 21.5 C 89.4 19.2 92.1 18.1 95.6 18.1 C 99 18.1 101.7 19.2 103.7 21.5 C 105.6 23.7 106.6 26.8 106.6 30.9 C 106.6 30.9 106.6 37.8 106.6 37.8 C 106.6 42 105.6 45.2 103.7 47.3 C 101.7 49.5 99 50.6 95.6 50.6 C 92.1 50.6 89.4 49.5 87.5 47.3 C 85.6 45.2 84.6 42 84.6 37.8 C 84.6 37.8 84.6 30.9 84.6 30.9 Z M 95.6 47.1 C 98 47.1 99.8 46.3 101 44.6 C 102.2 43 102.8 40.6 102.8 37.6 C 102.8 37.6 102.8 31.1 102.8 31.1 C 102.8 28.3 102.2 26 101 24.2 C 99.8 22.5 98 21.6 95.6 21.6 C 93.2 21.6 91.4 22.5 90.2 24.2 C 89 26 88.4 28.3 88.4 31.1 C 88.4 31.1 88.4 37.6 88.4 37.6 C 88.4 40.6 89 43 90.2 44.6 C 91.4 46.3 93.2 47.1 95.6 47.1 Z M 111.9 18.7 L 133.9 18.7 L 133.9 22.2 L 124.8 22.2 L 124.8 50 L 121 50 L 121 22.2 L 111.9 22.2 L 111.9 18.7 Z " stroke="none" fill="#000"/>
  </g>
</svg>