<?xml version="1.0" standalone="no"?>
<!DOCTYPE svg PUBLIC "-//W3C//DTD SVG 1.1//EN" "http://www.w3.org/Graphics/SVG/1.1/DTD/svg11.dtd">
<svg xmlns="http://www.w3.org/2000/svg" version="1.1" width="340.1px" height="96.4px" viewBox="0 0 340.1 96.4">
  <desc>Pi ce majeure, le bras guide l coute d une musique ou d un m dia Sa lente rotation, fait tat d une avanc e dans le</desc>
  <defs/>
  <g id="Polygon25539">
    <path d="M 5.9 48.6 C 5.93 48.56 5.9 52.8 5.9 52.8 L 5.4 52.8 C 5.4 52.8 5.42 48.77 5.4 48.8 C 5.4 47.5 4.8 46.8 3.6 46.8 C 2.5 46.8 1.6 47.5 1.6 48.7 C 1.64 48.71 1.6 52.8 1.6 52.8 L 1.1 52.8 L 1.1 46.4 L 1.5 46.4 L 1.6 47.6 C 1.6 47.6 1.61 47.56 1.6 47.6 C 2 46.8 2.7 46.3 3.7 46.3 C 5 46.3 5.9 47.2 5.9 48.6 Z M 8 44.1 C 8 43.9 8.2 43.7 8.4 43.7 C 8.7 43.7 8.8 43.9 8.8 44.1 C 8.8 44.3 8.7 44.5 8.4 44.5 C 8.2 44.5 8 44.3 8 44.1 Z M 8.2 46.4 L 8.7 46.4 L 8.7 52.8 L 8.2 52.8 L 8.2 46.4 Z M 11 46.4 L 11.4 46.4 L 11.4 47.6 C 11.4 47.6 11.45 47.62 11.4 47.6 C 11.8 46.7 12.7 46.4 13.3 46.4 C 13.5 46.4 13.6 46.4 13.7 46.4 C 13.7 46.4 13.7 46.9 13.7 46.9 C 13.6 46.9 13.5 46.9 13.3 46.9 C 12.4 46.9 11.5 47.5 11.5 48.8 C 11.48 48.77 11.5 52.8 11.5 52.8 L 11 52.8 L 11 46.4 Z M 17.8 49.6 C 17.8 47.6 19.2 46.3 20.7 46.3 C 21.7 46.3 22.7 46.9 23.1 48 C 23.15 47.98 23.1 43.3 23.1 43.3 L 23.7 43.3 L 23.7 52.8 L 23.3 52.8 L 23.2 51.2 C 23.2 51.2 23.17 51.19 23.2 51.2 C 22.7 52.4 21.7 52.9 20.7 52.9 C 19.2 52.9 17.8 51.6 17.8 49.6 Z M 23.2 49.6 C 23.2 47.9 22 46.8 20.7 46.8 C 19.4 46.8 18.3 47.9 18.3 49.6 C 18.3 51.3 19.4 52.4 20.7 52.4 C 22 52.4 23.2 51.3 23.2 49.6 Z M 25.5 49.6 C 25.5 47.6 26.9 46.3 28.4 46.3 C 29.4 46.3 30.4 46.9 30.9 48 C 30.89 48.02 31 46.4 31 46.4 L 31.4 46.4 L 31.4 52.8 L 31 52.8 C 31 52.8 30.89 51.2 30.9 51.2 C 30.4 52.4 29.4 52.9 28.4 52.9 C 26.9 52.9 25.5 51.6 25.5 49.6 Z M 30.9 49.6 C 30.9 47.9 29.8 46.8 28.4 46.8 C 27.1 46.8 26 47.9 26 49.6 C 26 51.3 27.1 52.4 28.4 52.4 C 29.7 52.4 30.9 51.3 30.9 49.6 Z M 38.4 48.6 C 38.42 48.56 38.4 52.8 38.4 52.8 L 37.9 52.8 C 37.9 52.8 37.92 48.77 37.9 48.8 C 37.9 47.5 37.3 46.8 36.1 46.8 C 35 46.8 34.1 47.5 34.1 48.7 C 34.14 48.71 34.1 52.8 34.1 52.8 L 33.6 52.8 L 33.6 46.4 L 34 46.4 L 34.1 47.6 C 34.1 47.6 34.1 47.56 34.1 47.6 C 34.5 46.8 35.2 46.3 36.2 46.3 C 37.5 46.3 38.4 47.2 38.4 48.6 Z M 44.2 46.9 C 44.2 46.9 44.2 47.4 44.2 47.4 C 43.7 47.1 43.1 46.8 42.3 46.8 C 41.4 46.8 40.8 47.3 40.8 48 C 40.8 48.7 41.4 49 42.5 49.3 C 43.5 49.7 44.5 50 44.5 51.1 C 44.5 52.2 43.6 52.9 42.3 52.9 C 41.6 52.9 40.8 52.7 40.2 52.2 C 40.2 52.2 40.2 51.5 40.2 51.5 C 40.7 52.1 41.5 52.4 42.3 52.4 C 43.3 52.4 44 51.9 44 51.1 C 44 50.4 43.3 50.1 42.2 49.7 C 41.2 49.4 40.3 49.1 40.3 48 C 40.3 47 41.1 46.3 42.4 46.3 C 43 46.3 43.7 46.5 44.2 46.9 Z M 49.7 43.3 L 50.2 43.3 L 50.2 52.8 L 49.7 52.8 L 49.7 43.3 Z M 52.1 49.6 C 52.1 47.6 53.5 46.3 55 46.3 C 56 46.3 57 46.9 57.5 48 C 57.52 48.02 57.6 46.4 57.6 46.4 L 58 46.4 L 58 52.8 L 57.6 52.8 C 57.6 52.8 57.52 51.2 57.5 51.2 C 57 52.4 56 52.9 55 52.9 C 53.5 52.9 52.1 51.6 52.1 49.6 Z M 57.5 49.6 C 57.5 47.9 56.4 46.8 55.1 46.8 C 53.7 46.8 52.6 47.9 52.6 49.6 C 52.6 51.3 53.7 52.4 55.1 52.4 C 56.4 52.4 57.5 51.3 57.5 49.6 Z M 63.8 43.3 L 64.3 43.3 L 64.3 52.8 L 63.8 52.8 L 63.8 43.3 Z M 71.7 49.8 C 71.7 49.8 66.6 49.8 66.6 49.8 C 66.7 51.4 67.8 52.4 69.2 52.4 C 70 52.4 70.8 52.2 71.5 51.5 C 71.5 51.5 71.5 52.1 71.5 52.1 C 70.8 52.6 70 52.9 69.2 52.9 C 67.4 52.9 66.1 51.6 66.1 49.6 C 66.1 47.6 67.6 46.3 69.1 46.3 C 70.5 46.3 71.7 47.4 71.7 49.5 C 71.7 49.6 71.7 49.7 71.7 49.8 Z M 71.2 49.3 C 71.2 47.6 70.2 46.8 69.1 46.8 C 67.9 46.8 66.8 47.8 66.7 49.3 C 66.7 49.3 71.2 49.3 71.2 49.3 Z M 76.1 52.4 C 76.7 52.4 77.3 52.3 77.9 51.9 C 77.9 51.9 77.9 52.5 77.9 52.5 C 77.4 52.8 76.8 52.9 76.1 52.9 C 74.4 52.9 73.1 51.5 73.1 49.6 C 73.1 47.7 74.4 46.3 76.1 46.3 C 76.7 46.3 77.3 46.4 77.9 46.8 C 77.9 46.8 77.9 47.3 77.9 47.3 C 77.3 46.9 76.7 46.8 76.1 46.8 C 74.8 46.8 73.6 47.9 73.6 49.6 C 73.6 51.3 74.8 52.4 76.1 52.4 Z M 80.3 46.4 L 82.2 46.4 L 82.2 46.9 L 80.3 46.9 C 80.3 46.9 80.33 50.8 80.3 50.8 C 80.3 52 81 52.4 81.9 52.4 C 82 52.4 82.2 52.4 82.4 52.4 C 82.4 52.4 82.4 52.8 82.4 52.8 C 82.3 52.8 82.1 52.9 81.8 52.9 C 80.6 52.9 79.8 52.2 79.8 50.8 C 79.82 50.82 79.8 46.9 79.8 46.9 L 78.8 46.9 L 78.8 46.4 L 79.8 46.4 L 79.8 44.9 L 80.3 44.9 L 80.3 46.4 Z M 83.7 50.5 C 83.67 50.48 83.7 46.4 83.7 46.4 L 84.2 46.4 C 84.2 46.4 84.18 50.51 84.2 50.5 C 84.2 51.7 84.9 52.4 86.1 52.4 C 87.2 52.4 88 51.7 88 50.5 C 87.97 50.5 88 46.4 88 46.4 L 88.5 46.4 C 88.5 46.4 88.47 50.47 88.5 50.5 C 88.5 51.9 87.5 52.9 86.1 52.9 C 84.6 52.9 83.7 51.9 83.7 50.5 Z M 90.7 46.4 L 91.1 46.4 L 91.1 47.6 C 91.1 47.6 91.14 47.62 91.1 47.6 C 91.5 46.7 92.4 46.4 93 46.4 C 93.2 46.4 93.3 46.4 93.4 46.4 C 93.4 46.4 93.4 46.9 93.4 46.9 C 93.3 46.9 93.2 46.9 93 46.9 C 92.1 46.9 91.2 47.5 91.2 48.8 C 91.17 48.77 91.2 52.8 91.2 52.8 L 90.7 52.8 L 90.7 46.4 Z M 99.5 49.8 C 99.5 49.8 94.5 49.8 94.5 49.8 C 94.6 51.4 95.6 52.4 97 52.4 C 97.8 52.4 98.6 52.2 99.3 51.5 C 99.3 51.5 99.3 52.1 99.3 52.1 C 98.6 52.6 97.8 52.9 97 52.9 C 95.2 52.9 94 51.6 94 49.6 C 94 47.6 95.4 46.3 96.9 46.3 C 98.4 46.3 99.6 47.4 99.6 49.5 C 99.6 49.6 99.5 49.7 99.5 49.8 Z M 99.1 49.3 C 99 47.6 98 46.8 96.9 46.8 C 95.7 46.8 94.6 47.8 94.5 49.3 C 94.5 49.3 99.1 49.3 99.1 49.3 Z M 101.1 52.4 C 101.1 52.1 101.3 51.9 101.6 51.9 C 101.9 51.9 102.1 52.1 102.1 52.4 C 102.1 52.6 101.9 52.8 101.6 52.8 C 101.3 52.8 101.1 52.6 101.1 52.4 Z " stroke="none" fill="#000"/>
  </g>
  <g id="Polygon25538">
    <path d="M 1.8 32 L 3.7 32 L 3.7 32.5 L 1.8 32.5 C 1.8 32.5 1.82 36.4 1.8 36.4 C 1.8 37.6 2.5 38 3.4 38 C 3.5 38 3.7 38 3.9 38 C 3.9 38 3.9 38.4 3.9 38.4 C 3.8 38.4 3.6 38.5 3.3 38.5 C 2.1 38.5 1.3 37.8 1.3 36.4 C 1.32 36.42 1.3 32.5 1.3 32.5 L 0.3 32.5 L 0.3 32 L 1.3 32 L 1.3 30.5 L 1.8 30.5 L 1.8 32 Z M 10.3 35.4 C 10.3 35.4 5.2 35.4 5.2 35.4 C 5.3 37 6.3 38 7.8 38 C 8.6 38 9.4 37.8 10.1 37.1 C 10.1 37.1 10.1 37.7 10.1 37.7 C 9.4 38.2 8.6 38.5 7.8 38.5 C 6 38.5 4.7 37.2 4.7 35.2 C 4.7 33.2 6.1 31.9 7.7 31.9 C 9.1 31.9 10.3 33 10.3 35.1 C 10.3 35.2 10.3 35.3 10.3 35.4 Z M 9.8 34.9 C 9.8 33.2 8.8 32.4 7.7 32.4 C 6.5 32.4 5.4 33.4 5.2 34.9 C 5.2 34.9 9.8 34.9 9.8 34.9 Z M 19.8 34.1 C 19.84 34.08 19.8 38.4 19.8 38.4 L 19.3 38.4 C 19.3 38.4 19.33 34.13 19.3 34.1 C 19.3 33.1 18.8 32.4 17.8 32.4 C 16.8 32.4 16.2 33.2 16.2 34.1 C 16.22 34.14 16.2 38.4 16.2 38.4 L 15.7 38.4 C 15.7 38.4 15.72 34.13 15.7 34.1 C 15.7 33.1 15.2 32.4 14.2 32.4 C 13.2 32.4 12.6 33.2 12.6 34.2 C 12.61 34.16 12.6 38.4 12.6 38.4 L 12.1 38.4 L 12.1 32 L 12.5 32 L 12.6 33.1 C 12.6 33.1 12.58 33.08 12.6 33.1 C 12.9 32.4 13.5 31.9 14.3 31.9 C 15.2 31.9 15.8 32.4 16.1 33.2 C 16.4 32.4 17 31.9 17.9 31.9 C 19.2 31.9 19.8 32.8 19.8 34.1 Z M 22 32 L 22.4 32 C 22.4 32 22.51 33.64 22.5 33.6 C 23 32.5 24 31.9 25 31.9 C 26.5 31.9 27.9 33.2 27.9 35.2 C 27.9 37.2 26.5 38.5 25 38.5 C 24 38.5 23 37.9 22.5 36.9 C 22.55 36.85 22.5 41 22.5 41 L 22 41 L 22 32 Z M 27.4 35.2 C 27.4 33.5 26.3 32.4 25 32.4 C 23.7 32.4 22.5 33.5 22.5 35.2 C 22.5 36.9 23.7 38 25 38 C 26.3 38 27.4 36.9 27.4 35.2 Z M 33.3 32.5 C 33.3 32.5 33.3 33 33.3 33 C 32.8 32.7 32.2 32.4 31.5 32.4 C 30.5 32.4 29.9 32.9 29.9 33.6 C 29.9 34.3 30.6 34.6 31.6 34.9 C 32.6 35.3 33.6 35.6 33.6 36.7 C 33.6 37.8 32.8 38.5 31.5 38.5 C 30.7 38.5 29.9 38.3 29.3 37.8 C 29.3 37.8 29.3 37.1 29.3 37.1 C 29.9 37.7 30.6 38 31.5 38 C 32.5 38 33.1 37.5 33.1 36.7 C 33.1 36 32.4 35.7 31.4 35.3 C 30.3 35 29.4 34.7 29.4 33.6 C 29.4 32.6 30.3 31.9 31.5 31.9 C 32.2 31.9 32.8 32.1 33.3 32.5 Z M 43.6 35.4 C 43.6 35.4 38.6 35.4 38.6 35.4 C 38.7 37 39.7 38 41.1 38 C 41.9 38 42.7 37.8 43.4 37.1 C 43.4 37.1 43.4 37.7 43.4 37.7 C 42.7 38.2 41.9 38.5 41.1 38.5 C 39.3 38.5 38.1 37.2 38.1 35.2 C 38.1 33.2 39.5 31.9 41 31.9 C 42.4 31.9 43.6 33 43.6 35.1 C 43.6 35.2 43.6 35.3 43.6 35.4 Z M 43.1 34.9 C 43.1 33.2 42.1 32.4 41 32.4 C 39.8 32.4 38.7 33.4 38.6 34.9 C 38.6 34.9 43.1 34.9 43.1 34.9 Z M 46.1 32 L 48 32 L 48 32.5 L 46.1 32.5 C 46.1 32.5 46.07 36.4 46.1 36.4 C 46.1 37.6 46.7 38 47.6 38 C 47.8 38 48 38 48.1 38 C 48.1 38 48.1 38.4 48.1 38.4 C 48.1 38.4 47.8 38.5 47.5 38.5 C 46.4 38.5 45.6 37.8 45.6 36.4 C 45.56 36.42 45.6 32.5 45.6 32.5 L 44.6 32.5 L 44.6 32 L 45.6 32 L 45.6 30.5 L 46.1 30.5 L 46.1 32 Z M 52.5 29.7 C 52.5 29.5 52.6 29.3 52.8 29.3 C 53.1 29.3 53.3 29.5 53.3 29.7 C 53.3 29.9 53.1 30.1 52.8 30.1 C 52.6 30.1 52.5 29.9 52.5 29.7 Z M 52.6 32 L 53.1 32 L 53.1 38.4 L 52.6 38.4 L 52.6 32 Z M 55.5 28.9 L 56 28.9 L 56 38.4 L 55.5 38.4 L 55.5 28.9 Z M 61.4 32 L 61.8 32 C 61.8 32 61.87 33.64 61.9 33.6 C 62.3 32.5 63.4 31.9 64.4 31.9 C 65.9 31.9 67.3 33.2 67.3 35.2 C 67.3 37.2 65.9 38.5 64.4 38.5 C 63.4 38.5 62.3 37.9 61.9 36.9 C 61.91 36.85 61.9 41 61.9 41 L 61.4 41 L 61.4 32 Z M 66.8 35.2 C 66.8 33.5 65.7 32.4 64.3 32.4 C 63 32.4 61.9 33.5 61.9 35.2 C 61.9 36.9 63 38 64.3 38 C 65.7 38 66.8 36.9 66.8 35.2 Z M 74.2 35.4 C 74.2 35.4 69.2 35.4 69.2 35.4 C 69.3 37 70.3 38 71.7 38 C 72.5 38 73.3 37.8 74 37.1 C 74 37.1 74 37.7 74 37.7 C 73.3 38.2 72.5 38.5 71.7 38.5 C 69.9 38.5 68.7 37.2 68.7 35.2 C 68.7 33.2 70.1 31.9 71.6 31.9 C 73 31.9 74.3 33 74.3 35.1 C 74.3 35.2 74.2 35.3 74.2 35.4 Z M 73.8 34.9 C 73.7 33.2 72.7 32.4 71.6 32.4 C 70.4 32.4 69.3 33.4 69.2 34.9 C 69.2 34.9 73.8 34.9 73.8 34.9 Z M 76 36.1 C 75.97 36.08 76 32 76 32 L 76.5 32 C 76.5 32 76.47 36.11 76.5 36.1 C 76.5 37.3 77.2 38 78.4 38 C 79.5 38 80.3 37.3 80.3 36.1 C 80.27 36.1 80.3 32 80.3 32 L 80.8 32 C 80.8 32 80.77 36.07 80.8 36.1 C 80.8 37.5 79.8 38.5 78.4 38.5 C 76.9 38.5 76 37.5 76 36.1 Z M 83.6 32 L 85.5 32 L 85.5 32.5 L 83.6 32.5 C 83.6 32.5 83.65 36.4 83.6 36.4 C 83.6 37.6 84.3 38 85.2 38 C 85.4 38 85.5 38 85.7 38 C 85.7 38 85.7 38.4 85.7 38.4 C 85.7 38.4 85.4 38.5 85.1 38.5 C 84 38.5 83.1 37.8 83.1 36.4 C 83.15 36.42 83.1 32.5 83.1 32.5 L 82.2 32.5 L 82.2 32 L 83.2 32 L 83.2 30.5 L 83.6 30.5 L 83.6 32 Z M 91.5 30.9 L 90.9 30.9 L 92.4 29 L 92.8 29 L 94.4 30.9 L 93.8 30.9 L 92.6 29.4 L 91.5 30.9 Z M 95.3 35.4 C 95.3 35.4 90.2 35.4 90.2 35.4 C 90.3 37 91.3 38 92.8 38 C 93.5 38 94.3 37.8 95 37.1 C 95 37.1 95 37.7 95 37.7 C 94.4 38.2 93.6 38.5 92.7 38.5 C 90.9 38.5 89.7 37.2 89.7 35.2 C 89.7 33.2 91.1 31.9 92.7 31.9 C 94.1 31.9 95.3 33 95.3 35.1 C 95.3 35.2 95.3 35.3 95.3 35.4 Z M 94.8 34.9 C 94.8 33.2 93.7 32.4 92.7 32.4 C 91.4 32.4 90.3 33.4 90.2 34.9 C 90.2 34.9 94.8 34.9 94.8 34.9 Z M 97.7 32 L 99.6 32 L 99.6 32.5 L 97.7 32.5 C 97.7 32.5 97.7 36.4 97.7 36.4 C 97.7 37.6 98.3 38 99.2 38 C 99.4 38 99.6 38 99.8 38 C 99.8 38 99.8 38.4 99.8 38.4 C 99.7 38.4 99.5 38.5 99.2 38.5 C 98 38.5 97.2 37.8 97.2 36.4 C 97.2 36.42 97.2 32.5 97.2 32.5 L 96.2 32.5 L 96.2 32 L 97.2 32 L 97.2 30.5 L 97.7 30.5 L 97.7 32 Z M 101.1 32 L 101.5 32 L 101.6 33.2 C 101.6 33.2 101.6 33.22 101.6 33.2 C 102 32.3 102.8 32 103.5 32 C 103.6 32 103.8 32 103.9 32 C 103.9 32 103.9 32.5 103.9 32.5 C 103.8 32.5 103.6 32.5 103.5 32.5 C 102.6 32.5 101.6 33.1 101.6 34.4 C 101.64 34.37 101.6 38.4 101.6 38.4 L 101.1 38.4 L 101.1 32 Z M 110 35.4 C 110 35.4 104.9 35.4 104.9 35.4 C 105 37 106.1 38 107.5 38 C 108.3 38 109.1 37.8 109.8 37.1 C 109.8 37.1 109.8 37.7 109.8 37.7 C 109.1 38.2 108.3 38.5 107.5 38.5 C 105.7 38.5 104.4 37.2 104.4 35.2 C 104.4 33.2 105.9 31.9 107.4 31.9 C 108.8 31.9 110 33 110 35.1 C 110 35.2 110 35.3 110 35.4 Z M 109.5 34.9 C 109.5 33.2 108.5 32.4 107.4 32.4 C 106.2 32.4 105.1 33.4 105 34.9 C 105 34.9 109.5 34.9 109.5 34.9 Z M 122.7 34.1 C 122.69 34.08 122.7 38.4 122.7 38.4 L 122.2 38.4 C 122.2 38.4 122.18 34.13 122.2 34.1 C 122.2 33.1 121.7 32.4 120.7 32.4 C 119.7 32.4 119.1 33.2 119.1 34.1 C 119.07 34.14 119.1 38.4 119.1 38.4 L 118.6 38.4 C 118.6 38.4 118.57 34.13 118.6 34.1 C 118.6 33.1 118.1 32.4 117.1 32.4 C 116 32.4 115.5 33.2 115.5 34.2 C 115.46 34.16 115.5 38.4 115.5 38.4 L 115 38.4 L 115 32 L 115.4 32 L 115.4 33.1 C 115.4 33.1 115.43 33.08 115.4 33.1 C 115.7 32.4 116.3 31.9 117.1 31.9 C 118.1 31.9 118.7 32.4 118.9 33.2 C 119.2 32.4 119.8 31.9 120.8 31.9 C 122.1 31.9 122.7 32.8 122.7 34.1 Z M 124.4 35.2 C 124.4 33.2 125.8 31.9 127.3 31.9 C 128.4 31.9 129.4 32.5 129.9 33.6 C 129.85 33.62 129.9 32 129.9 32 L 130.3 32 L 130.3 38.4 L 129.9 38.4 C 129.9 38.4 129.85 36.8 129.9 36.8 C 129.4 38 128.4 38.5 127.4 38.5 C 125.8 38.5 124.4 37.2 124.4 35.2 Z M 129.8 35.2 C 129.8 33.5 128.7 32.4 127.4 32.4 C 126.1 32.4 124.9 33.5 124.9 35.2 C 124.9 36.9 126.1 38 127.4 38 C 128.7 38 129.8 36.9 129.8 35.2 Z M 137.4 34.2 C 137.39 34.16 137.4 38.4 137.4 38.4 L 136.9 38.4 C 136.9 38.4 136.88 34.37 136.9 34.4 C 136.9 33.1 136.2 32.4 135.1 32.4 C 134 32.4 133.1 33.1 133.1 34.3 C 133.1 34.31 133.1 38.4 133.1 38.4 L 132.6 38.4 L 132.6 32 L 133 32 L 133.1 33.2 C 133.1 33.2 133.07 33.16 133.1 33.2 C 133.4 32.4 134.2 31.9 135.1 31.9 C 136.5 31.9 137.4 32.8 137.4 34.2 Z M 139.5 29.7 C 139.5 29.5 139.6 29.3 139.9 29.3 C 140.1 29.3 140.3 29.5 140.3 29.7 C 140.3 29.9 140.1 30.1 139.9 30.1 C 139.6 30.1 139.5 29.9 139.5 29.7 Z M 139.6 32 L 140.1 32 L 140.1 38.4 L 139.6 38.4 L 139.6 32 Z M 142.4 32 L 142.8 32 C 142.8 32 142.9 33.64 142.9 33.6 C 143.4 32.5 144.4 31.9 145.4 31.9 C 146.9 31.9 148.3 33.2 148.3 35.2 C 148.3 37.2 146.9 38.5 145.4 38.5 C 144.4 38.5 143.4 37.9 142.9 36.9 C 142.94 36.85 142.9 41 142.9 41 L 142.4 41 L 142.4 32 Z M 147.8 35.2 C 147.8 33.5 146.7 32.4 145.4 32.4 C 144 32.4 142.9 33.5 142.9 35.2 C 142.9 36.9 144.1 38 145.4 38 C 146.7 38 147.8 36.9 147.8 35.2 Z M 150.1 36.1 C 150.07 36.08 150.1 32 150.1 32 L 150.6 32 C 150.6 32 150.57 36.11 150.6 36.1 C 150.6 37.3 151.3 38 152.5 38 C 153.6 38 154.4 37.3 154.4 36.1 C 154.37 36.1 154.4 32 154.4 32 L 154.9 32 C 154.9 32 154.87 36.07 154.9 36.1 C 154.9 37.5 153.9 38.5 152.5 38.5 C 151 38.5 150.1 37.5 150.1 36.1 Z M 157.1 28.9 L 157.6 28.9 L 157.6 38.4 L 157.1 38.4 L 157.1 28.9 Z M 162.2 30.9 L 161.7 30.9 L 163.2 29 L 163.7 29 L 162.2 30.9 Z M 165 35.4 C 165 35.4 160 35.4 160 35.4 C 160.1 37 161.1 38 162.5 38 C 163.3 38 164.1 37.8 164.8 37.1 C 164.8 37.1 164.8 37.7 164.8 37.7 C 164.1 38.2 163.3 38.5 162.5 38.5 C 160.7 38.5 159.5 37.2 159.5 35.2 C 159.5 33.2 160.9 31.9 162.4 31.9 C 163.8 31.9 165.1 33 165.1 35.1 C 165.1 35.2 165 35.3 165 35.4 Z M 164.6 34.9 C 164.5 33.2 163.5 32.4 162.4 32.4 C 161.2 32.4 160.1 33.4 160 34.9 C 160 34.9 164.6 34.9 164.6 34.9 Z M 170 32 L 170.4 32 C 170.4 32 170.46 33.64 170.5 33.6 C 170.9 32.5 172 31.9 173 31.9 C 174.5 31.9 175.9 33.2 175.9 35.2 C 175.9 37.2 174.5 38.5 173 38.5 C 171.9 38.5 170.9 37.9 170.5 36.9 C 170.49 36.85 170.5 41 170.5 41 L 170 41 L 170 32 Z M 175.4 35.2 C 175.4 33.5 174.2 32.4 172.9 32.4 C 171.6 32.4 170.5 33.5 170.5 35.2 C 170.5 36.9 171.6 38 172.9 38 C 174.2 38 175.4 36.9 175.4 35.2 Z M 177.2 35.2 C 177.2 33.3 178.6 31.9 180.3 31.9 C 182 31.9 183.3 33.3 183.3 35.2 C 183.3 37.2 182 38.5 180.3 38.5 C 178.6 38.5 177.2 37.2 177.2 35.2 Z M 182.8 35.2 C 182.8 33.4 181.6 32.4 180.3 32.4 C 179 32.4 177.8 33.4 177.8 35.2 C 177.8 37 179 38 180.3 38 C 181.6 38 182.8 37 182.8 35.2 Z M 185.1 36.1 C 185.07 36.08 185.1 32 185.1 32 L 185.6 32 C 185.6 32 185.58 36.11 185.6 36.1 C 185.6 37.3 186.3 38 187.5 38 C 188.6 38 189.4 37.3 189.4 36.1 C 189.37 36.1 189.4 32 189.4 32 L 189.9 32 C 189.9 32 189.87 36.07 189.9 36.1 C 189.9 37.5 188.9 38.5 187.5 38.5 C 186 38.5 185.1 37.5 185.1 36.1 Z M 192.1 32 L 192.5 32 L 192.5 33.2 C 192.5 33.2 192.54 33.22 192.5 33.2 C 192.9 32.3 193.8 32 194.4 32 C 194.6 32 194.7 32 194.8 32 C 194.8 32 194.8 32.5 194.8 32.5 C 194.7 32.5 194.6 32.5 194.4 32.5 C 193.5 32.5 192.6 33.1 192.6 34.4 C 192.57 34.37 192.6 38.4 192.6 38.4 L 192.1 38.4 L 192.1 32 Z M 202.5 32.5 C 202.5 32.5 202.5 33 202.5 33 C 202 32.7 201.4 32.4 200.7 32.4 C 199.7 32.4 199.1 32.9 199.1 33.6 C 199.1 34.3 199.8 34.6 200.8 34.9 C 201.8 35.3 202.8 35.6 202.8 36.7 C 202.8 37.8 202 38.5 200.7 38.5 C 199.9 38.5 199.1 38.3 198.5 37.8 C 198.5 37.8 198.5 37.1 198.5 37.1 C 199.1 37.7 199.8 38 200.7 38 C 201.7 38 202.3 37.5 202.3 36.7 C 202.3 36 201.6 35.7 200.6 35.3 C 199.5 35 198.6 34.7 198.6 33.6 C 198.6 32.6 199.5 31.9 200.7 31.9 C 201.4 31.9 202 32.1 202.5 32.5 Z M 205.3 32 L 207.2 32 L 207.2 32.5 L 205.3 32.5 C 205.3 32.5 205.27 36.4 205.3 36.4 C 205.3 37.6 205.9 38 206.8 38 C 207 38 207.2 38 207.3 38 C 207.3 38 207.3 38.4 207.3 38.4 C 207.3 38.4 207 38.5 206.7 38.5 C 205.6 38.5 204.8 37.8 204.8 36.4 C 204.77 36.42 204.8 32.5 204.8 32.5 L 203.8 32.5 L 203.8 32 L 204.8 32 L 204.8 30.5 L 205.3 30.5 L 205.3 32 Z M 208.2 35.2 C 208.2 33.3 209.5 31.9 211.2 31.9 C 212.9 31.9 214.2 33.3 214.2 35.2 C 214.2 37.2 212.9 38.5 211.2 38.5 C 209.5 38.5 208.2 37.2 208.2 35.2 Z M 213.7 35.2 C 213.7 33.4 212.5 32.4 211.2 32.4 C 209.9 32.4 208.7 33.4 208.7 35.2 C 208.7 37 209.9 38 211.2 38 C 212.5 38 213.7 37 213.7 35.2 Z M 216.1 32 L 216.5 32 C 216.5 32 216.54 33.64 216.5 33.6 C 217 32.5 218 31.9 219 31.9 C 220.6 31.9 221.9 33.2 221.9 35.2 C 221.9 37.2 220.6 38.5 219 38.5 C 218 38.5 217 37.9 216.6 36.9 C 216.57 36.85 216.6 41 216.6 41 L 216.1 41 L 216.1 32 Z M 221.4 35.2 C 221.4 33.5 220.3 32.4 219 32.4 C 217.7 32.4 216.5 33.5 216.5 35.2 C 216.5 36.9 217.7 38 219 38 C 220.3 38 221.4 36.9 221.4 35.2 Z M 223.8 32 L 224.2 32 C 224.2 32 224.25 33.64 224.3 33.6 C 224.7 32.5 225.8 31.9 226.8 31.9 C 228.3 31.9 229.7 33.2 229.7 35.2 C 229.7 37.2 228.3 38.5 226.8 38.5 C 225.7 38.5 224.7 37.9 224.3 36.9 C 224.29 36.85 224.3 41 224.3 41 L 223.8 41 L 223.8 32 Z M 229.2 35.2 C 229.2 33.5 228 32.4 226.7 32.4 C 225.4 32.4 224.3 33.5 224.3 35.2 C 224.3 36.9 225.4 38 226.7 38 C 228 38 229.2 36.9 229.2 35.2 Z M 236.6 35.4 C 236.6 35.4 231.6 35.4 231.6 35.4 C 231.6 37 232.7 38 234.1 38 C 234.9 38 235.7 37.8 236.4 37.1 C 236.4 37.1 236.4 37.7 236.4 37.7 C 235.7 38.2 234.9 38.5 234.1 38.5 C 232.3 38.5 231.1 37.2 231.1 35.2 C 231.1 33.2 232.5 31.9 234 31.9 C 235.4 31.9 236.6 33 236.6 35.1 C 236.6 35.2 236.6 35.3 236.6 35.4 Z M 236.1 34.9 C 236.1 33.2 235.1 32.4 234 32.4 C 232.8 32.4 231.7 33.4 231.6 34.9 C 231.6 34.9 236.1 34.9 236.1 34.9 Z M 238.4 32 L 238.8 32 L 238.9 33.2 C 238.9 33.2 238.9 33.22 238.9 33.2 C 239.3 32.3 240.1 32 240.8 32 C 240.9 32 241.1 32 241.2 32 C 241.2 32 241.2 32.5 241.2 32.5 C 241.1 32.5 240.9 32.5 240.8 32.5 C 239.9 32.5 239 33.1 238.9 34.4 C 238.94 34.37 238.9 38.4 238.9 38.4 L 238.4 38.4 L 238.4 32 Z M 241.8 37.4 C 241.84 37.44 241.8 37 241.8 37 L 242.3 37 C 242.3 37 242.35 37.43 242.3 37.4 C 242.3 38.4 242 39.4 241.7 40 C 241.7 40 241.3 40 241.3 40 C 241.5 39.4 241.8 38.4 241.8 37.4 Z M 247.2 35.2 C 247.2 33.2 248.6 31.9 250.1 31.9 C 251.1 31.9 252.1 32.5 252.6 33.6 C 252.58 33.62 252.7 32 252.7 32 L 253.1 32 L 253.1 38.4 L 252.7 38.4 C 252.7 38.4 252.58 36.8 252.6 36.8 C 252.1 38 251.1 38.5 250.1 38.5 C 248.6 38.5 247.2 37.2 247.2 35.2 Z M 252.6 35.2 C 252.6 33.5 251.5 32.4 250.1 32.4 C 248.8 32.4 247.7 33.5 247.7 35.2 C 247.7 36.9 248.8 38 250.1 38 C 251.4 38 252.6 36.9 252.6 35.2 Z M 254.6 32 L 255.1 32 L 257.2 37.8 L 257.2 37.8 L 259.3 32 L 259.9 32 L 257.5 38.4 L 257 38.4 L 254.6 32 Z M 260.7 35.2 C 260.7 33.2 262.1 31.9 263.6 31.9 C 264.7 31.9 265.7 32.5 266.2 33.6 C 266.16 33.62 266.2 32 266.2 32 L 266.6 32 L 266.6 38.4 L 266.2 38.4 C 266.2 38.4 266.16 36.8 266.2 36.8 C 265.7 38 264.7 38.5 263.7 38.5 C 262.1 38.5 260.7 37.2 260.7 35.2 Z M 266.1 35.2 C 266.1 33.5 265 32.4 263.7 32.4 C 262.4 32.4 261.2 33.5 261.2 35.2 C 261.2 36.9 262.4 38 263.7 38 C 265 38 266.1 36.9 266.1 35.2 Z M 273.7 34.2 C 273.69 34.16 273.7 38.4 273.7 38.4 L 273.2 38.4 C 273.2 38.4 273.19 34.37 273.2 34.4 C 273.2 33.1 272.5 32.4 271.4 32.4 C 270.3 32.4 269.4 33.1 269.4 34.3 C 269.41 34.31 269.4 38.4 269.4 38.4 L 268.9 38.4 L 268.9 32 L 269.3 32 L 269.4 33.2 C 269.4 33.2 269.37 33.16 269.4 33.2 C 269.7 32.4 270.5 31.9 271.4 31.9 C 272.8 31.9 273.7 32.8 273.7 34.2 Z M 278.5 38 C 279 38 279.7 37.9 280.2 37.5 C 280.2 37.5 280.2 38.1 280.2 38.1 C 279.7 38.4 279.1 38.5 278.5 38.5 C 276.8 38.5 275.4 37.1 275.4 35.2 C 275.4 33.3 276.8 31.9 278.5 31.9 C 279.1 31.9 279.7 32 280.2 32.4 C 280.2 32.4 280.2 32.9 280.2 32.9 C 279.7 32.5 279.1 32.4 278.5 32.4 C 277.2 32.4 275.9 33.5 275.9 35.2 C 275.9 36.9 277.2 38 278.5 38 Z M 287 35.4 C 287 35.4 281.9 35.4 281.9 35.4 C 282 37 283 38 284.5 38 C 285.2 38 286.1 37.8 286.7 37.1 C 286.7 37.1 286.7 37.7 286.7 37.7 C 286.1 38.2 285.3 38.5 284.4 38.5 C 282.7 38.5 281.4 37.2 281.4 35.2 C 281.4 33.2 282.8 31.9 284.4 31.9 C 285.8 31.9 287 33 287 35.1 C 287 35.2 287 35.3 287 35.4 Z M 286.5 34.9 C 286.5 33.2 285.4 32.4 284.4 32.4 C 283.1 32.4 282 33.4 281.9 34.9 C 281.9 34.9 286.5 34.9 286.5 34.9 Z M 288.8 32 L 289.2 32 L 289.2 33.2 C 289.2 33.2 289.25 33.22 289.3 33.2 C 289.6 32.3 290.5 32 291.1 32 C 291.3 32 291.4 32 291.5 32 C 291.5 32 291.5 32.5 291.5 32.5 C 291.4 32.5 291.3 32.5 291.1 32.5 C 290.2 32.5 289.3 33.1 289.3 34.4 C 289.29 34.37 289.3 38.4 289.3 38.4 L 288.8 38.4 L 288.8 32 Z M 295.2 35.2 C 295.2 33.3 296.6 31.9 298.3 31.9 C 299.9 31.9 301.3 33.3 301.3 35.2 C 301.3 37.2 299.9 38.5 298.3 38.5 C 296.6 38.5 295.2 37.2 295.2 35.2 Z M 300.8 35.2 C 300.8 33.4 299.6 32.4 298.3 32.4 C 297 32.4 295.7 33.4 295.7 35.2 C 295.7 37 297 38 298.3 38 C 299.6 38 300.8 37 300.8 35.2 Z M 303.1 36.1 C 303.06 36.08 303.1 32 303.1 32 L 303.6 32 C 303.6 32 303.56 36.11 303.6 36.1 C 303.6 37.3 304.3 38 305.4 38 C 306.6 38 307.4 37.3 307.4 36.1 C 307.35 36.1 307.4 32 307.4 32 L 307.9 32 C 307.9 32 307.85 36.07 307.9 36.1 C 307.9 37.5 306.9 38.5 305.4 38.5 C 304 38.5 303.1 37.5 303.1 36.1 Z M 313.2 32 L 313.6 32 L 313.6 33.2 C 313.6 33.2 313.65 33.22 313.7 33.2 C 314 32.3 314.9 32 315.5 32 C 315.7 32 315.8 32 315.9 32 C 315.9 32 315.9 32.5 315.9 32.5 C 315.8 32.5 315.7 32.5 315.5 32.5 C 314.6 32.5 313.7 33.1 313.7 34.4 C 313.69 34.37 313.7 38.4 313.7 38.4 L 313.2 38.4 L 313.2 32 Z M 322.1 35.4 C 322.1 35.4 317 35.4 317 35.4 C 317.1 37 318.1 38 319.6 38 C 320.3 38 321.1 37.8 321.8 37.1 C 321.8 37.1 321.8 37.7 321.8 37.7 C 321.2 38.2 320.4 38.5 319.5 38.5 C 317.7 38.5 316.5 37.2 316.5 35.2 C 316.5 33.2 317.9 31.9 319.4 31.9 C 320.9 31.9 322.1 33 322.1 35.1 C 322.1 35.2 322.1 35.3 322.1 35.4 Z M 321.6 34.9 C 321.5 33.2 320.5 32.4 319.4 32.4 C 318.2 32.4 317.1 33.4 317 34.9 C 317 34.9 321.6 34.9 321.6 34.9 Z M 322.9 32 L 323.5 32 L 325.6 37.8 L 325.6 37.8 L 327.7 32 L 328.2 32 L 325.8 38.4 L 325.3 38.4 L 322.9 32 Z M 334.6 35.4 C 334.6 35.4 329.6 35.4 329.6 35.4 C 329.7 37 330.7 38 332.1 38 C 332.9 38 333.7 37.8 334.4 37.1 C 334.4 37.1 334.4 37.7 334.4 37.7 C 333.7 38.2 332.9 38.5 332.1 38.5 C 330.3 38.5 329.1 37.2 329.1 35.2 C 329.1 33.2 330.5 31.9 332 31.9 C 333.5 31.9 334.7 33 334.7 35.1 C 334.7 35.2 334.7 35.3 334.6 35.4 Z M 334.2 34.9 C 334.1 33.2 333.1 32.4 332 32.4 C 330.8 32.4 329.7 33.4 329.6 34.9 C 329.6 34.9 334.2 34.9 334.2 34.9 Z M 336.3 34.5 L 339.1 34.5 L 339.1 35 L 336.3 35 L 336.3 34.5 Z " stroke="none" fill="#000"/>
  </g>
  <g id="Polygon25537">
    <path d="M 8.9 19.7 C 8.87 19.68 8.9 24 8.9 24 L 8.4 24 C 8.4 24 8.36 19.73 8.4 19.7 C 8.4 18.7 7.9 18 6.9 18 C 5.9 18 5.3 18.8 5.3 19.7 C 5.26 19.74 5.3 24 5.3 24 L 4.8 24 C 4.8 24 4.75 19.73 4.8 19.7 C 4.8 18.7 4.2 18 3.3 18 C 2.2 18 1.6 18.8 1.6 19.8 C 1.64 19.76 1.6 24 1.6 24 L 1.1 24 L 1.1 17.6 L 1.5 17.6 L 1.6 18.7 C 1.6 18.7 1.61 18.68 1.6 18.7 C 1.9 18 2.5 17.5 3.3 17.5 C 4.3 17.5 4.8 18 5.1 18.8 C 5.4 18 6 17.5 6.9 17.5 C 8.2 17.5 8.9 18.4 8.9 19.7 Z M 13.4 16.5 L 12.9 16.5 L 14.3 14.6 L 14.9 14.6 L 13.4 16.5 Z M 16.2 21 C 16.2 21 11.1 21 11.1 21 C 11.2 22.6 12.3 23.6 13.7 23.6 C 14.5 23.6 15.3 23.4 16 22.7 C 16 22.7 16 23.3 16 23.3 C 15.3 23.8 14.5 24.1 13.7 24.1 C 11.9 24.1 10.6 22.8 10.6 20.8 C 10.6 18.8 12 17.5 13.6 17.5 C 15 17.5 16.2 18.6 16.2 20.7 C 16.2 20.8 16.2 20.9 16.2 21 Z M 15.7 20.5 C 15.7 18.8 14.7 18 13.6 18 C 12.4 18 11.3 19 11.1 20.5 C 11.1 20.5 15.7 20.5 15.7 20.5 Z M 17.6 20.8 C 17.6 18.8 19 17.5 20.5 17.5 C 21.5 17.5 22.5 18.1 22.9 19.2 C 22.94 19.18 22.9 14.5 22.9 14.5 L 23.4 14.5 L 23.4 24 L 23.1 24 L 23 22.4 C 23 22.4 22.97 22.39 23 22.4 C 22.5 23.6 21.5 24.1 20.5 24.1 C 19 24.1 17.6 22.8 17.6 20.8 Z M 23 20.8 C 23 19.1 21.8 18 20.5 18 C 19.2 18 18.1 19.1 18.1 20.8 C 18.1 22.5 19.2 23.6 20.5 23.6 C 21.8 23.6 23 22.5 23 20.8 Z M 25.6 15.3 C 25.6 15.1 25.8 14.9 26 14.9 C 26.3 14.9 26.4 15.1 26.4 15.3 C 26.4 15.5 26.3 15.7 26 15.7 C 25.8 15.7 25.6 15.5 25.6 15.3 Z M 25.8 17.6 L 26.3 17.6 L 26.3 24 L 25.8 24 L 25.8 17.6 Z M 28.1 20.8 C 28.1 18.8 29.5 17.5 31 17.5 C 32.1 17.5 33.1 18.1 33.5 19.2 C 33.54 19.22 33.6 17.6 33.6 17.6 L 34 17.6 L 34 24 L 33.6 24 C 33.6 24 33.54 22.4 33.5 22.4 C 33.1 23.6 32.1 24.1 31 24.1 C 29.5 24.1 28.1 22.8 28.1 20.8 Z M 33.5 20.8 C 33.5 19.1 32.4 18 31.1 18 C 29.8 18 28.6 19.1 28.6 20.8 C 28.6 22.5 29.8 23.6 31.1 23.6 C 32.4 23.6 33.5 22.5 33.5 20.8 Z M 36 23.6 C 36 23.3 36.3 23.1 36.5 23.1 C 36.8 23.1 37 23.3 37 23.6 C 37 23.8 36.8 24 36.5 24 C 36.3 24 36 23.8 36 23.6 Z M 49.5 15.5 C 49.5 15.5 49.5 16.1 49.5 16.1 C 48.9 15.6 48.2 15.4 47.5 15.4 C 46.4 15.4 45.5 16.1 45.5 17.1 C 45.5 18.1 46.3 18.6 47.6 19.2 C 48.9 19.8 50 20.4 50 21.7 C 50 23.2 48.7 24.1 47.2 24.1 C 46.3 24.1 45.4 23.8 44.8 23.3 C 44.8 23.3 44.8 22.6 44.8 22.6 C 45.5 23.3 46.4 23.7 47.2 23.7 C 48.4 23.7 49.4 22.9 49.4 21.8 C 49.4 20.7 48.6 20.2 47.3 19.6 C 45.9 19 45 18.5 45 17.2 C 45 15.8 46.1 14.9 47.5 14.9 C 48.3 14.9 49 15.2 49.5 15.5 Z M 51.3 20.8 C 51.3 18.8 52.7 17.5 54.2 17.5 C 55.2 17.5 56.3 18.1 56.7 19.2 C 56.73 19.22 56.8 17.6 56.8 17.6 L 57.2 17.6 L 57.2 24 L 56.8 24 C 56.8 24 56.73 22.4 56.7 22.4 C 56.3 23.6 55.2 24.1 54.2 24.1 C 52.7 24.1 51.3 22.8 51.3 20.8 Z M 56.7 20.8 C 56.7 19.1 55.6 18 54.3 18 C 53 18 51.8 19.1 51.8 20.8 C 51.8 22.5 53 23.6 54.3 23.6 C 55.6 23.6 56.7 22.5 56.7 20.8 Z M 65.7 14.5 L 66.2 14.5 L 66.2 24 L 65.7 24 L 65.7 14.5 Z M 73.6 21 C 73.6 21 68.5 21 68.5 21 C 68.6 22.6 69.7 23.6 71.1 23.6 C 71.9 23.6 72.7 23.4 73.4 22.7 C 73.4 22.7 73.4 23.3 73.4 23.3 C 72.7 23.8 71.9 24.1 71.1 24.1 C 69.3 24.1 68 22.8 68 20.8 C 68 18.8 69.5 17.5 71 17.5 C 72.4 17.5 73.6 18.6 73.6 20.7 C 73.6 20.8 73.6 20.9 73.6 21 Z M 73.1 20.5 C 73.1 18.8 72.1 18 71 18 C 69.8 18 68.7 19 68.6 20.5 C 68.6 20.5 73.1 20.5 73.1 20.5 Z M 80.2 19.8 C 80.2 19.76 80.2 24 80.2 24 L 79.7 24 C 79.7 24 79.7 19.97 79.7 20 C 79.7 18.7 79 18 77.9 18 C 76.8 18 75.9 18.7 75.9 19.9 C 75.92 19.91 75.9 24 75.9 24 L 75.4 24 L 75.4 17.6 L 75.8 17.6 L 75.9 18.8 C 75.9 18.8 75.88 18.76 75.9 18.8 C 76.2 18 77 17.5 78 17.5 C 79.3 17.5 80.2 18.4 80.2 19.8 Z M 83 17.6 L 84.9 17.6 L 84.9 18.1 L 83 18.1 C 83 18.1 83.02 22 83 22 C 83 23.2 83.7 23.6 84.6 23.6 C 84.7 23.6 84.9 23.6 85.1 23.6 C 85.1 23.6 85.1 24 85.1 24 C 85 24 84.8 24.1 84.5 24.1 C 83.3 24.1 82.5 23.4 82.5 22 C 82.52 22.02 82.5 18.1 82.5 18.1 L 81.5 18.1 L 81.5 17.6 L 82.5 17.6 L 82.5 16.1 L 83 16.1 L 83 17.6 Z M 91.5 21 C 91.5 21 86.4 21 86.4 21 C 86.5 22.6 87.5 23.6 89 23.6 C 89.8 23.6 90.6 23.4 91.3 22.7 C 91.3 22.7 91.3 23.3 91.3 23.3 C 90.6 23.8 89.8 24.1 89 24.1 C 87.2 24.1 85.9 22.8 85.9 20.8 C 85.9 18.8 87.3 17.5 88.9 17.5 C 90.3 17.5 91.5 18.6 91.5 20.7 C 91.5 20.8 91.5 20.9 91.5 21 Z M 91 20.5 C 91 18.8 90 18 88.9 18 C 87.7 18 86.6 19 86.4 20.5 C 86.4 20.5 91 20.5 91 20.5 Z M 99.5 17.6 L 99.9 17.6 L 99.9 18.8 C 99.9 18.8 99.92 18.82 99.9 18.8 C 100.3 17.9 101.2 17.6 101.8 17.6 C 101.9 17.6 102.1 17.6 102.2 17.6 C 102.2 17.6 102.2 18.1 102.2 18.1 C 102.1 18.1 101.9 18.1 101.8 18.1 C 100.9 18.1 100 18.7 100 20 C 99.95 19.97 100 24 100 24 L 99.5 24 L 99.5 17.6 Z M 102.8 20.8 C 102.8 18.9 104.1 17.5 105.8 17.5 C 107.5 17.5 108.8 18.9 108.8 20.8 C 108.8 22.8 107.5 24.1 105.8 24.1 C 104.1 24.1 102.8 22.8 102.8 20.8 Z M 108.3 20.8 C 108.3 19 107.1 18 105.8 18 C 104.5 18 103.3 19 103.3 20.8 C 103.3 22.6 104.5 23.6 105.8 23.6 C 107.1 23.6 108.3 22.6 108.3 20.8 Z M 111.3 17.6 L 113.2 17.6 L 113.2 18.1 L 111.3 18.1 C 111.3 18.1 111.27 22 111.3 22 C 111.3 23.2 111.9 23.6 112.8 23.6 C 113 23.6 113.2 23.6 113.3 23.6 C 113.3 23.6 113.3 24 113.3 24 C 113.3 24 113 24.1 112.7 24.1 C 111.6 24.1 110.8 23.4 110.8 22 C 110.77 22.02 110.8 18.1 110.8 18.1 L 109.8 18.1 L 109.8 17.6 L 110.8 17.6 L 110.8 16.1 L 111.3 16.1 L 111.3 17.6 Z M 114.2 20.8 C 114.2 18.8 115.6 17.5 117.1 17.5 C 118.1 17.5 119.1 18.1 119.6 19.2 C 119.57 19.22 119.6 17.6 119.6 17.6 L 120 17.6 L 120 24 L 119.6 24 C 119.6 24 119.57 22.4 119.6 22.4 C 119.1 23.6 118.1 24.1 117.1 24.1 C 115.6 24.1 114.2 22.8 114.2 20.8 Z M 119.6 20.8 C 119.6 19.1 118.4 18 117.1 18 C 115.8 18 114.7 19.1 114.7 20.8 C 114.7 22.5 115.8 23.6 117.1 23.6 C 118.4 23.6 119.6 22.5 119.6 20.8 Z M 123 17.6 L 124.9 17.6 L 124.9 18.1 L 123 18.1 C 123 18.1 123.01 22 123 22 C 123 23.2 123.6 23.6 124.5 23.6 C 124.7 23.6 124.9 23.6 125.1 23.6 C 125.1 23.6 125.1 24 125.1 24 C 125 24 124.8 24.1 124.5 24.1 C 123.3 24.1 122.5 23.4 122.5 22 C 122.5 22.02 122.5 18.1 122.5 18.1 L 121.5 18.1 L 121.5 17.6 L 122.5 17.6 L 122.5 16.1 L 123 16.1 L 123 17.6 Z M 126.3 15.3 C 126.3 15.1 126.5 14.9 126.7 14.9 C 127 14.9 127.1 15.1 127.1 15.3 C 127.1 15.5 127 15.7 126.7 15.7 C 126.5 15.7 126.3 15.5 126.3 15.3 Z M 126.5 17.6 L 127 17.6 L 127 24 L 126.5 24 L 126.5 17.6 Z M 128.8 20.8 C 128.8 18.9 130.2 17.5 131.9 17.5 C 133.6 17.5 134.9 18.9 134.9 20.8 C 134.9 22.8 133.6 24.1 131.9 24.1 C 130.2 24.1 128.8 22.8 128.8 20.8 Z M 134.4 20.8 C 134.4 19 133.2 18 131.9 18 C 130.6 18 129.3 19 129.3 20.8 C 129.3 22.6 130.6 23.6 131.9 23.6 C 133.2 23.6 134.4 22.6 134.4 20.8 Z M 141.5 19.8 C 141.53 19.76 141.5 24 141.5 24 L 141 24 C 141 24 141.03 19.97 141 20 C 141 18.7 140.4 18 139.2 18 C 138.1 18 137.2 18.7 137.2 19.9 C 137.25 19.91 137.2 24 137.2 24 L 136.7 24 L 136.7 17.6 L 137.1 17.6 L 137.2 18.8 C 137.2 18.8 137.21 18.76 137.2 18.8 C 137.6 18 138.3 17.5 139.3 17.5 C 140.6 17.5 141.5 18.4 141.5 19.8 Z M 143.6 23 C 143.65 23.04 143.6 22.6 143.6 22.6 L 144.1 22.6 C 144.1 22.6 144.15 23.03 144.1 23 C 144.1 24 143.8 25 143.5 25.6 C 143.5 25.6 143.1 25.6 143.1 25.6 C 143.3 25 143.6 24 143.6 23 Z M 152.7 18.1 L 151.7 18.1 L 151.7 17.6 L 152.7 17.6 C 152.7 17.6 152.67 16.4 152.7 16.4 C 152.7 15.1 153.5 14.4 154.6 14.4 C 154.9 14.4 155.3 14.5 155.5 14.6 C 155.5 14.6 155.5 15.1 155.5 15.1 C 155.3 15 154.9 14.9 154.6 14.9 C 153.7 14.9 153.2 15.4 153.2 16.5 C 153.18 16.49 153.2 17.6 153.2 17.6 L 155.1 17.6 L 155.1 18.1 L 153.2 18.1 L 153.2 24 L 152.7 24 L 152.7 18.1 Z M 155.7 20.8 C 155.7 18.8 157.1 17.5 158.6 17.5 C 159.7 17.5 160.7 18.1 161.2 19.2 C 161.15 19.22 161.2 17.6 161.2 17.6 L 161.6 17.6 L 161.6 24 L 161.2 24 C 161.2 24 161.15 22.4 161.2 22.4 C 160.7 23.6 159.7 24.1 158.7 24.1 C 157.1 24.1 155.7 22.8 155.7 20.8 Z M 161.1 20.8 C 161.1 19.1 160 18 158.7 18 C 157.4 18 156.2 19.1 156.2 20.8 C 156.2 22.5 157.4 23.6 158.7 23.6 C 160 23.6 161.1 22.5 161.1 20.8 Z M 163.8 15.3 C 163.8 15.1 164 14.9 164.2 14.9 C 164.4 14.9 164.6 15.1 164.6 15.3 C 164.6 15.5 164.4 15.7 164.2 15.7 C 164 15.7 163.8 15.5 163.8 15.3 Z M 163.9 17.6 L 164.4 17.6 L 164.4 24 L 163.9 24 L 163.9 17.6 Z M 167.4 17.6 L 169.3 17.6 L 169.3 18.1 L 167.4 18.1 C 167.4 18.1 167.44 22 167.4 22 C 167.4 23.2 168.1 23.6 169 23.6 C 169.2 23.6 169.3 23.6 169.5 23.6 C 169.5 23.6 169.5 24 169.5 24 C 169.4 24 169.2 24.1 168.9 24.1 C 167.8 24.1 166.9 23.4 166.9 22 C 166.94 22.02 166.9 18.1 166.9 18.1 L 166 18.1 L 166 17.6 L 166.9 17.6 L 166.9 16.1 L 167.4 16.1 L 167.4 17.6 Z M 179.2 16.5 L 178.7 16.5 L 180.2 14.6 L 180.8 14.6 L 179.2 16.5 Z M 182.1 21 C 182.1 21 177 21 177 21 C 177.1 22.6 178.1 23.6 179.6 23.6 C 180.3 23.6 181.1 23.4 181.8 22.7 C 181.8 22.7 181.8 23.3 181.8 23.3 C 181.2 23.8 180.4 24.1 179.5 24.1 C 177.7 24.1 176.5 22.8 176.5 20.8 C 176.5 18.8 177.9 17.5 179.5 17.5 C 180.9 17.5 182.1 18.6 182.1 20.7 C 182.1 20.8 182.1 20.9 182.1 21 Z M 181.6 20.5 C 181.6 18.8 180.5 18 179.5 18 C 178.2 18 177.1 19 177 20.5 C 177 20.5 181.6 20.5 181.6 20.5 Z M 184.5 17.6 L 186.4 17.6 L 186.4 18.1 L 184.5 18.1 C 184.5 18.1 184.5 22 184.5 22 C 184.5 23.2 185.1 23.6 186 23.6 C 186.2 23.6 186.4 23.6 186.6 23.6 C 186.6 23.6 186.6 24 186.6 24 C 186.5 24 186.3 24.1 186 24.1 C 184.8 24.1 184 23.4 184 22 C 184 22.02 184 18.1 184 18.1 L 183 18.1 L 183 17.6 L 184 17.6 L 184 16.1 L 184.5 16.1 L 184.5 17.6 Z M 187.4 20.8 C 187.4 18.8 188.8 17.5 190.3 17.5 C 191.3 17.5 192.3 18.1 192.8 19.2 C 192.81 19.22 192.9 17.6 192.9 17.6 L 193.3 17.6 L 193.3 24 L 192.9 24 C 192.9 24 192.81 22.4 192.8 22.4 C 192.3 23.6 191.3 24.1 190.3 24.1 C 188.8 24.1 187.4 22.8 187.4 20.8 Z M 192.8 20.8 C 192.8 19.1 191.7 18 190.3 18 C 189 18 187.9 19.1 187.9 20.8 C 187.9 22.5 189 23.6 190.4 23.6 C 191.7 23.6 192.8 22.5 192.8 20.8 Z M 196.2 17.6 L 198.1 17.6 L 198.1 18.1 L 196.2 18.1 C 196.2 18.1 196.24 22 196.2 22 C 196.2 23.2 196.9 23.6 197.8 23.6 C 198 23.6 198.1 23.6 198.3 23.6 C 198.3 23.6 198.3 24 198.3 24 C 198.2 24 198 24.1 197.7 24.1 C 196.6 24.1 195.7 23.4 195.7 22 C 195.74 22.02 195.7 18.1 195.7 18.1 L 194.8 18.1 L 194.8 17.6 L 195.7 17.6 L 195.7 16.1 L 196.2 16.1 L 196.2 17.6 Z M 205.3 20.8 C 205.3 18.8 206.7 17.5 208.2 17.5 C 209.2 17.5 210.2 18.1 210.7 19.2 C 210.67 19.18 210.7 14.5 210.7 14.5 L 211.2 14.5 L 211.2 24 L 210.8 24 L 210.7 22.4 C 210.7 22.4 210.7 22.39 210.7 22.4 C 210.2 23.6 209.2 24.1 208.2 24.1 C 206.7 24.1 205.3 22.8 205.3 20.8 Z M 210.7 20.8 C 210.7 19.1 209.6 18 208.2 18 C 206.9 18 205.8 19.1 205.8 20.8 C 205.8 22.5 206.9 23.6 208.2 23.6 C 209.6 23.6 210.7 22.5 210.7 20.8 Z M 213.6 15.5 C 213.65 15.53 213.6 15.1 213.6 15.1 L 214.2 15.1 C 214.2 15.1 214.15 15.52 214.2 15.5 C 214.2 16.5 213.8 17.5 213.5 18.1 C 213.5 18.1 213.1 18.1 213.1 18.1 C 213.3 17.5 213.6 16.5 213.6 15.5 Z M 216 21.7 C 215.98 21.68 216 17.6 216 17.6 L 216.5 17.6 C 216.5 17.6 216.48 21.71 216.5 21.7 C 216.5 22.9 217.2 23.6 218.4 23.6 C 219.5 23.6 220.3 22.9 220.3 21.7 C 220.27 21.7 220.3 17.6 220.3 17.6 L 220.8 17.6 C 220.8 17.6 220.78 21.67 220.8 21.7 C 220.8 23.1 219.8 24.1 218.4 24.1 C 216.9 24.1 216 23.1 216 21.7 Z M 227.8 19.8 C 227.76 19.76 227.8 24 227.8 24 L 227.3 24 C 227.3 24 227.26 19.97 227.3 20 C 227.3 18.7 226.6 18 225.4 18 C 224.4 18 223.5 18.7 223.5 19.9 C 223.48 19.91 223.5 24 223.5 24 L 223 24 L 223 17.6 L 223.4 17.6 L 223.4 18.8 C 223.4 18.8 223.44 18.76 223.4 18.8 C 223.8 18 224.6 17.5 225.5 17.5 C 226.9 17.5 227.8 18.4 227.8 19.8 Z M 235.1 21 C 235.1 21 230 21 230 21 C 230.1 22.6 231.1 23.6 232.6 23.6 C 233.3 23.6 234.2 23.4 234.8 22.7 C 234.8 22.7 234.8 23.3 234.8 23.3 C 234.2 23.8 233.4 24.1 232.5 24.1 C 230.8 24.1 229.5 22.8 229.5 20.8 C 229.5 18.8 230.9 17.5 232.5 17.5 C 233.9 17.5 235.1 18.6 235.1 20.7 C 235.1 20.8 235.1 20.9 235.1 21 Z M 234.6 20.5 C 234.6 18.8 233.5 18 232.5 18 C 231.3 18 230.1 19 230 20.5 C 230 20.5 234.6 20.5 234.6 20.5 Z M 242.6 20.8 C 242.6 18.8 244 17.5 245.5 17.5 C 246.5 17.5 247.5 18.1 248 19.2 C 247.99 19.22 248.1 17.6 248.1 17.6 L 248.5 17.6 L 248.5 24 L 248.1 24 C 248.1 24 247.99 22.4 248 22.4 C 247.5 23.6 246.5 24.1 245.5 24.1 C 244 24.1 242.6 22.8 242.6 20.8 Z M 248 20.8 C 248 19.1 246.9 18 245.5 18 C 244.2 18 243.1 19.1 243.1 20.8 C 243.1 22.5 244.2 23.6 245.5 23.6 C 246.9 23.6 248 22.5 248 20.8 Z M 250 17.6 L 250.5 17.6 L 252.6 23.4 L 252.6 23.4 L 254.7 17.6 L 255.3 17.6 L 252.9 24 L 252.4 24 L 250 17.6 Z M 256.2 20.8 C 256.2 18.8 257.6 17.5 259.1 17.5 C 260.1 17.5 261.1 18.1 261.6 19.2 C 261.56 19.22 261.6 17.6 261.6 17.6 L 262 17.6 L 262 24 L 261.6 24 C 261.6 24 261.56 22.4 261.6 22.4 C 261.1 23.6 260.1 24.1 259.1 24.1 C 257.6 24.1 256.2 22.8 256.2 20.8 Z M 261.6 20.8 C 261.6 19.1 260.4 18 259.1 18 C 257.8 18 256.7 19.1 256.7 20.8 C 256.7 22.5 257.8 23.6 259.1 23.6 C 260.4 23.6 261.6 22.5 261.6 20.8 Z M 269.1 19.8 C 269.1 19.76 269.1 24 269.1 24 L 268.6 24 C 268.6 24 268.6 19.97 268.6 20 C 268.6 18.7 267.9 18 266.8 18 C 265.7 18 264.8 18.7 264.8 19.9 C 264.81 19.91 264.8 24 264.8 24 L 264.3 24 L 264.3 17.6 L 264.7 17.6 L 264.8 18.8 C 264.8 18.8 264.78 18.76 264.8 18.8 C 265.1 18 265.9 17.5 266.9 17.5 C 268.2 17.5 269.1 18.4 269.1 19.8 Z M 273.9 23.6 C 274.4 23.6 275.1 23.5 275.6 23.1 C 275.6 23.1 275.6 23.7 275.6 23.7 C 275.1 24 274.5 24.1 273.9 24.1 C 272.2 24.1 270.8 22.7 270.8 20.8 C 270.8 18.9 272.2 17.5 273.9 17.5 C 274.5 17.5 275.1 17.6 275.6 18 C 275.6 18 275.6 18.5 275.6 18.5 C 275.1 18.1 274.5 18 273.9 18 C 272.6 18 271.3 19.1 271.3 20.8 C 271.3 22.5 272.6 23.6 273.9 23.6 Z M 279.5 16.5 L 279.1 16.5 L 280.5 14.6 L 281.1 14.6 L 279.5 16.5 Z M 282.4 21 C 282.4 21 277.3 21 277.3 21 C 277.4 22.6 278.4 23.6 279.9 23.6 C 280.6 23.6 281.5 23.4 282.1 22.7 C 282.1 22.7 282.1 23.3 282.1 23.3 C 281.5 23.8 280.7 24.1 279.9 24.1 C 278.1 24.1 276.8 22.8 276.8 20.8 C 276.8 18.8 278.2 17.5 279.8 17.5 C 281.2 17.5 282.4 18.6 282.4 20.7 C 282.4 20.8 282.4 20.9 282.4 21 Z M 281.9 20.5 C 281.9 18.8 280.8 18 279.8 18 C 278.6 18 277.4 19 277.3 20.5 C 277.3 20.5 281.9 20.5 281.9 20.5 Z M 289.3 21 C 289.3 21 284.3 21 284.3 21 C 284.3 22.6 285.4 23.6 286.8 23.6 C 287.6 23.6 288.4 23.4 289.1 22.7 C 289.1 22.7 289.1 23.3 289.1 23.3 C 288.4 23.8 287.6 24.1 286.8 24.1 C 285 24.1 283.8 22.8 283.8 20.8 C 283.8 18.8 285.2 17.5 286.7 17.5 C 288.1 17.5 289.3 18.6 289.3 20.7 C 289.3 20.8 289.3 20.9 289.3 21 Z M 288.8 20.5 C 288.8 18.8 287.8 18 286.7 18 C 285.5 18 284.4 19 284.3 20.5 C 284.3 20.5 288.8 20.5 288.8 20.5 Z M 296.8 20.8 C 296.8 18.8 298.2 17.5 299.7 17.5 C 300.7 17.5 301.8 18.1 302.2 19.2 C 302.21 19.18 302.2 14.5 302.2 14.5 L 302.7 14.5 L 302.7 24 L 302.3 24 L 302.2 22.4 C 302.2 22.4 302.23 22.39 302.2 22.4 C 301.8 23.6 300.8 24.1 299.7 24.1 C 298.2 24.1 296.8 22.8 296.8 20.8 Z M 302.2 20.8 C 302.2 19.1 301.1 18 299.8 18 C 298.5 18 297.3 19.1 297.3 20.8 C 297.3 22.5 298.5 23.6 299.8 23.6 C 301.1 23.6 302.2 22.5 302.2 20.8 Z M 304.5 20.8 C 304.5 18.8 305.9 17.5 307.4 17.5 C 308.5 17.5 309.5 18.1 309.9 19.2 C 309.95 19.22 310 17.6 310 17.6 L 310.4 17.6 L 310.4 24 L 310 24 C 310 24 309.95 22.4 309.9 22.4 C 309.5 23.6 308.5 24.1 307.4 24.1 C 305.9 24.1 304.5 22.8 304.5 20.8 Z M 309.9 20.8 C 309.9 19.1 308.8 18 307.5 18 C 306.2 18 305 19.1 305 20.8 C 305 22.5 306.2 23.6 307.5 23.6 C 308.8 23.6 309.9 22.5 309.9 20.8 Z M 317.5 19.8 C 317.48 19.76 317.5 24 317.5 24 L 317 24 C 317 24 316.98 19.97 317 20 C 317 18.7 316.3 18 315.2 18 C 314.1 18 313.2 18.7 313.2 19.9 C 313.2 19.91 313.2 24 313.2 24 L 312.7 24 L 312.7 17.6 L 313.1 17.6 L 313.1 18.8 C 313.1 18.8 313.16 18.76 313.2 18.8 C 313.5 18 314.3 17.5 315.2 17.5 C 316.6 17.5 317.5 18.4 317.5 19.8 Z M 323.2 18.1 C 323.2 18.1 323.2 18.6 323.2 18.6 C 322.7 18.3 322.1 18 321.4 18 C 320.5 18 319.8 18.5 319.8 19.2 C 319.8 19.9 320.5 20.2 321.5 20.5 C 322.5 20.9 323.5 21.2 323.5 22.3 C 323.5 23.4 322.7 24.1 321.4 24.1 C 320.6 24.1 319.9 23.9 319.2 23.4 C 319.2 23.4 319.2 22.7 319.2 22.7 C 319.8 23.3 320.5 23.6 321.4 23.6 C 322.4 23.6 323 23.1 323 22.3 C 323 21.6 322.3 21.3 321.3 20.9 C 320.2 20.6 319.3 20.3 319.3 19.2 C 319.3 18.2 320.2 17.5 321.4 17.5 C 322.1 17.5 322.7 17.7 323.2 18.1 Z M 331.5 14.5 L 332 14.5 L 332 24 L 331.5 24 L 331.5 14.5 Z M 339.4 21 C 339.4 21 334.4 21 334.4 21 C 334.4 22.6 335.5 23.6 336.9 23.6 C 337.7 23.6 338.5 23.4 339.2 22.7 C 339.2 22.7 339.2 23.3 339.2 23.3 C 338.5 23.8 337.7 24.1 336.9 24.1 C 335.1 24.1 333.8 22.8 333.8 20.8 C 333.8 18.8 335.3 17.5 336.8 17.5 C 338.2 17.5 339.4 18.6 339.4 20.7 C 339.4 20.8 339.4 20.9 339.4 21 Z M 338.9 20.5 C 338.9 18.8 337.9 18 336.8 18 C 335.6 18 334.5 19 334.4 20.5 C 334.4 20.5 338.9 20.5 338.9 20.5 Z " stroke="none" fill="#000"/>
  </g>
  <g id="Polygon25536">
    <path d="M 1.4 0.7 C 1.4 0.7 3.28 0.68 3.3 0.7 C 5.2 0.7 6.5 1.7 6.5 3.4 C 6.5 5.2 5.2 6.2 3.3 6.2 C 3.28 6.2 1.9 6.2 1.9 6.2 L 1.9 9.6 L 1.4 9.6 L 1.4 0.7 Z M 6 3.4 C 6 2 4.9 1.2 3.3 1.2 C 3.3 1.18 1.9 1.2 1.9 1.2 L 1.9 5.7 C 1.9 5.7 3.3 5.71 3.3 5.7 C 4.9 5.7 6 4.9 6 3.4 Z M 8 0.9 C 8 0.7 8.2 0.5 8.4 0.5 C 8.7 0.5 8.8 0.7 8.8 0.9 C 8.8 1.1 8.7 1.3 8.4 1.3 C 8.2 1.3 8 1.1 8 0.9 Z M 8.2 3.2 L 8.7 3.2 L 8.7 9.6 L 8.2 9.6 L 8.2 3.2 Z M 13.7 2.1 L 12.2 0.2 L 12.7 0.2 L 14.2 2.1 L 13.7 2.1 Z M 16.1 6.6 C 16.1 6.6 11.1 6.6 11.1 6.6 C 11.1 8.2 12.2 9.2 13.6 9.2 C 14.4 9.2 15.2 9 15.9 8.3 C 15.9 8.3 15.9 8.9 15.9 8.9 C 15.2 9.4 14.4 9.7 13.6 9.7 C 11.8 9.7 10.6 8.4 10.6 6.4 C 10.6 4.4 12 3.1 13.5 3.1 C 14.9 3.1 16.1 4.2 16.1 6.3 C 16.1 6.4 16.1 6.5 16.1 6.6 Z M 15.6 6.1 C 15.6 4.4 14.6 3.6 13.5 3.6 C 12.3 3.6 11.2 4.6 11.1 6.1 C 11.1 6.1 15.6 6.1 15.6 6.1 Z M 20.6 9.2 C 21.1 9.2 21.7 9.1 22.3 8.7 C 22.3 8.7 22.3 9.3 22.3 9.3 C 21.8 9.6 21.2 9.7 20.6 9.7 C 18.8 9.7 17.5 8.3 17.5 6.4 C 17.5 4.5 18.8 3.1 20.6 3.1 C 21.1 3.1 21.7 3.2 22.3 3.6 C 22.3 3.6 22.3 4.1 22.3 4.1 C 21.7 3.7 21.1 3.6 20.5 3.6 C 19.2 3.6 18 4.7 18 6.4 C 18 8.1 19.2 9.2 20.6 9.2 Z M 29 6.6 C 29 6.6 24 6.6 24 6.6 C 24 8.2 25.1 9.2 26.5 9.2 C 27.3 9.2 28.1 9 28.8 8.3 C 28.8 8.3 28.8 8.9 28.8 8.9 C 28.1 9.4 27.3 9.7 26.5 9.7 C 24.7 9.7 23.5 8.4 23.5 6.4 C 23.5 4.4 24.9 3.1 26.4 3.1 C 27.8 3.1 29 4.2 29 6.3 C 29 6.4 29 6.5 29 6.6 Z M 28.5 6.1 C 28.5 4.4 27.5 3.6 26.4 3.6 C 25.2 3.6 24.1 4.6 24 6.1 C 24 6.1 28.5 6.1 28.5 6.1 Z M 42.6 5.3 C 42.59 5.28 42.6 9.6 42.6 9.6 L 42.1 9.6 C 42.1 9.6 42.08 5.33 42.1 5.3 C 42.1 4.3 41.6 3.6 40.6 3.6 C 39.6 3.6 39 4.4 39 5.3 C 38.97 5.34 39 9.6 39 9.6 L 38.5 9.6 C 38.5 9.6 38.47 5.33 38.5 5.3 C 38.5 4.3 38 3.6 37 3.6 C 36 3.6 35.4 4.4 35.4 5.4 C 35.36 5.36 35.4 9.6 35.4 9.6 L 34.9 9.6 L 34.9 3.2 L 35.3 3.2 L 35.3 4.3 C 35.3 4.3 35.33 4.28 35.3 4.3 C 35.6 3.6 36.2 3.1 37 3.1 C 38 3.1 38.6 3.6 38.8 4.4 C 39.1 3.6 39.7 3.1 40.7 3.1 C 42 3.1 42.6 4 42.6 5.3 Z M 44.3 6.4 C 44.3 4.4 45.7 3.1 47.2 3.1 C 48.3 3.1 49.3 3.7 49.8 4.8 C 49.75 4.82 49.8 3.2 49.8 3.2 L 50.2 3.2 L 50.2 9.6 L 49.8 9.6 C 49.8 9.6 49.75 8 49.8 8 C 49.3 9.2 48.3 9.7 47.3 9.7 C 45.7 9.7 44.3 8.4 44.3 6.4 Z M 49.7 6.4 C 49.7 4.7 48.6 3.6 47.3 3.6 C 46 3.6 44.8 4.7 44.8 6.4 C 44.8 8.1 46 9.2 47.3 9.2 C 48.6 9.2 49.7 8.1 49.7 6.4 Z M 52.4 0.9 C 52.4 0.7 52.6 0.5 52.8 0.5 C 53 0.5 53.2 0.7 53.2 0.9 C 53.2 1.1 53 1.3 52.8 1.3 C 52.6 1.3 52.4 1.1 52.4 0.9 Z M 52.5 8.9 C 52.55 8.92 52.5 3.2 52.5 3.2 L 53.1 3.2 C 53.1 3.2 53.05 8.93 53.1 8.9 C 53.1 10.4 52.7 11.3 52.1 12.2 C 52.1 12.2 51.4 12.2 51.4 12.2 C 52.2 11.4 52.5 10.4 52.5 8.9 Z M 60.5 6.6 C 60.5 6.6 55.4 6.6 55.4 6.6 C 55.5 8.2 56.5 9.2 58 9.2 C 58.8 9.2 59.6 9 60.3 8.3 C 60.3 8.3 60.3 8.9 60.3 8.9 C 59.6 9.4 58.8 9.7 58 9.7 C 56.2 9.7 54.9 8.4 54.9 6.4 C 54.9 4.4 56.3 3.1 57.9 3.1 C 59.3 3.1 60.5 4.2 60.5 6.3 C 60.5 6.4 60.5 6.5 60.5 6.6 Z M 60 6.1 C 60 4.4 59 3.6 57.9 3.6 C 56.7 3.6 55.5 4.6 55.4 6.1 C 55.4 6.1 60 6.1 60 6.1 Z M 62.2 7.3 C 62.22 7.28 62.2 3.2 62.2 3.2 L 62.7 3.2 C 62.7 3.2 62.72 7.31 62.7 7.3 C 62.7 8.5 63.5 9.2 64.6 9.2 C 65.8 9.2 66.5 8.5 66.5 7.3 C 66.52 7.3 66.5 3.2 66.5 3.2 L 67 3.2 C 67 3.2 67.02 7.27 67 7.3 C 67 8.7 66.1 9.7 64.6 9.7 C 63.1 9.7 62.2 8.7 62.2 7.3 Z M 69.2 3.2 L 69.6 3.2 L 69.7 4.4 C 69.7 4.4 69.68 4.42 69.7 4.4 C 70.1 3.5 70.9 3.2 71.6 3.2 C 71.7 3.2 71.8 3.2 72 3.2 C 72 3.2 72 3.7 72 3.7 C 71.8 3.7 71.7 3.7 71.6 3.7 C 70.7 3.7 69.7 4.3 69.7 5.6 C 69.72 5.57 69.7 9.6 69.7 9.6 L 69.2 9.6 L 69.2 3.2 Z M 78.1 6.6 C 78.1 6.6 73 6.6 73 6.6 C 73.1 8.2 74.1 9.2 75.6 9.2 C 76.4 9.2 77.2 9 77.9 8.3 C 77.9 8.3 77.9 8.9 77.9 8.9 C 77.2 9.4 76.4 9.7 75.6 9.7 C 73.8 9.7 72.5 8.4 72.5 6.4 C 72.5 4.4 73.9 3.1 75.5 3.1 C 76.9 3.1 78.1 4.2 78.1 6.3 C 78.1 6.4 78.1 6.5 78.1 6.6 Z M 77.6 6.1 C 77.6 4.4 76.6 3.6 75.5 3.6 C 74.3 3.6 73.2 4.6 73 6.1 C 73 6.1 77.6 6.1 77.6 6.1 Z M 79.8 8.6 C 79.82 8.64 79.8 8.2 79.8 8.2 L 80.3 8.2 C 80.3 8.2 80.33 8.63 80.3 8.6 C 80.3 9.6 79.9 10.6 79.7 11.2 C 79.7 11.2 79.3 11.2 79.3 11.2 C 79.5 10.6 79.8 9.6 79.8 8.6 Z M 86.5 0.1 L 87 0.1 L 87 9.6 L 86.5 9.6 L 86.5 0.1 Z M 94.5 6.6 C 94.5 6.6 89.4 6.6 89.4 6.6 C 89.5 8.2 90.5 9.2 92 9.2 C 92.7 9.2 93.6 9 94.2 8.3 C 94.2 8.3 94.2 8.9 94.2 8.9 C 93.6 9.4 92.8 9.7 91.9 9.7 C 90.2 9.7 88.9 8.4 88.9 6.4 C 88.9 4.4 90.3 3.1 91.9 3.1 C 93.3 3.1 94.5 4.2 94.5 6.3 C 94.5 6.4 94.5 6.5 94.5 6.6 Z M 94 6.1 C 94 4.4 92.9 3.6 91.9 3.6 C 90.6 3.6 89.5 4.6 89.4 6.1 C 89.4 6.1 94 6.1 94 6.1 Z M 100.8 4.8 C 101.2 3.7 102.3 3.1 103.3 3.1 C 104.8 3.1 106.2 4.4 106.2 6.4 C 106.2 8.4 104.8 9.7 103.3 9.7 C 102.3 9.7 101.2 9.2 100.8 8 C 100.77 7.99 100.7 9.6 100.7 9.6 L 100.3 9.6 L 100.3 0.1 L 100.8 0.1 C 100.8 0.1 100.81 4.79 100.8 4.8 Z M 100.8 6.4 C 100.8 8.1 101.9 9.2 103.2 9.2 C 104.6 9.2 105.7 8.1 105.7 6.4 C 105.7 4.7 104.6 3.6 103.2 3.6 C 101.9 3.6 100.8 4.7 100.8 6.4 Z M 108 3.2 L 108.4 3.2 L 108.5 4.4 C 108.5 4.4 108.49 4.42 108.5 4.4 C 108.9 3.5 109.7 3.2 110.4 3.2 C 110.5 3.2 110.6 3.2 110.8 3.2 C 110.8 3.2 110.8 3.7 110.8 3.7 C 110.6 3.7 110.5 3.7 110.4 3.7 C 109.5 3.7 108.5 4.3 108.5 5.6 C 108.53 5.57 108.5 9.6 108.5 9.6 L 108 9.6 L 108 3.2 Z M 111.3 6.4 C 111.3 4.4 112.7 3.1 114.2 3.1 C 115.2 3.1 116.3 3.7 116.7 4.8 C 116.74 4.82 116.8 3.2 116.8 3.2 L 117.2 3.2 L 117.2 9.6 L 116.8 9.6 C 116.8 9.6 116.74 8 116.7 8 C 116.3 9.2 115.2 9.7 114.2 9.7 C 112.7 9.7 111.3 8.4 111.3 6.4 Z M 116.7 6.4 C 116.7 4.7 115.6 3.6 114.3 3.6 C 113 3.6 111.8 4.7 111.8 6.4 C 111.8 8.1 113 9.2 114.3 9.2 C 115.6 9.2 116.7 8.1 116.7 6.4 Z M 123 3.7 C 123 3.7 123 4.2 123 4.2 C 122.5 3.9 121.9 3.6 121.2 3.6 C 120.3 3.6 119.6 4.1 119.6 4.8 C 119.6 5.5 120.3 5.8 121.3 6.1 C 122.3 6.5 123.3 6.8 123.3 7.9 C 123.3 9 122.5 9.7 121.2 9.7 C 120.4 9.7 119.7 9.5 119 9 C 119 9 119 8.3 119 8.3 C 119.6 8.9 120.3 9.2 121.2 9.2 C 122.2 9.2 122.8 8.7 122.8 7.9 C 122.8 7.2 122.1 6.9 121.1 6.5 C 120 6.2 119.1 5.9 119.1 4.8 C 119.1 3.8 120 3.1 121.2 3.1 C 121.9 3.1 122.5 3.3 123 3.7 Z M 134 4.8 C 134.04 4.76 134.1 3.2 134.1 3.2 L 134.5 3.2 C 134.5 3.2 134.51 9.4 134.5 9.4 C 134.5 11.4 133.1 12.3 131.7 12.3 C 130.9 12.3 130 12 129.3 11.5 C 129.3 11.5 129.3 10.9 129.3 10.9 C 130 11.5 130.8 11.8 131.7 11.8 C 132.9 11.8 134 11.1 134 9.5 C 134 9.5 134 7.9 134 7.9 C 133.5 9 132.6 9.5 131.6 9.5 C 130.1 9.5 128.7 8.3 128.7 6.3 C 128.7 4.4 130.1 3.1 131.6 3.1 C 132.6 3.1 133.6 3.7 134 4.8 Z M 129.2 6.3 C 129.2 8 130.3 9 131.6 9 C 132.9 9 134 7.9 134 6.3 C 134 4.7 132.9 3.6 131.6 3.6 C 130.3 3.6 129.2 4.7 129.2 6.3 Z M 136.7 7.3 C 136.7 7.28 136.7 3.2 136.7 3.2 L 137.2 3.2 C 137.2 3.2 137.21 7.31 137.2 7.3 C 137.2 8.5 137.9 9.2 139.1 9.2 C 140.3 9.2 141 8.5 141 7.3 C 141 7.3 141 3.2 141 3.2 L 141.5 3.2 C 141.5 3.2 141.5 7.27 141.5 7.3 C 141.5 8.7 140.6 9.7 139.1 9.7 C 137.6 9.7 136.7 8.7 136.7 7.3 Z M 143.6 0.9 C 143.6 0.7 143.8 0.5 144 0.5 C 144.2 0.5 144.4 0.7 144.4 0.9 C 144.4 1.1 144.2 1.3 144 1.3 C 143.8 1.3 143.6 1.1 143.6 0.9 Z M 143.7 3.2 L 144.2 3.2 L 144.2 9.6 L 143.7 9.6 L 143.7 3.2 Z M 146.1 6.4 C 146.1 4.4 147.5 3.1 149 3.1 C 150 3.1 151 3.7 151.5 4.8 C 151.49 4.78 151.5 0.1 151.5 0.1 L 152 0.1 L 152 9.6 L 151.6 9.6 L 151.5 8 C 151.5 8 151.51 7.99 151.5 8 C 151.1 9.2 150 9.7 149 9.7 C 147.5 9.7 146.1 8.4 146.1 6.4 Z M 151.5 6.4 C 151.5 4.7 150.4 3.6 149.1 3.6 C 147.7 3.6 146.6 4.7 146.6 6.4 C 146.6 8.1 147.7 9.2 149.1 9.2 C 150.4 9.2 151.5 8.1 151.5 6.4 Z M 159.4 6.6 C 159.4 6.6 154.3 6.6 154.3 6.6 C 154.4 8.2 155.4 9.2 156.9 9.2 C 157.7 9.2 158.5 9 159.2 8.3 C 159.2 8.3 159.2 8.9 159.2 8.9 C 158.5 9.4 157.7 9.7 156.9 9.7 C 155.1 9.7 153.8 8.4 153.8 6.4 C 153.8 4.4 155.2 3.1 156.8 3.1 C 158.2 3.1 159.4 4.2 159.4 6.3 C 159.4 6.4 159.4 6.5 159.4 6.6 Z M 158.9 6.1 C 158.9 4.4 157.9 3.6 156.8 3.6 C 155.6 3.6 154.4 4.6 154.3 6.1 C 154.3 6.1 158.9 6.1 158.9 6.1 Z M 165.3 0.1 L 165.8 0.1 L 165.8 9.6 L 165.3 9.6 L 165.3 0.1 Z M 168.3 1.1 C 168.27 1.13 168.3 0.7 168.3 0.7 L 168.8 0.7 C 168.8 0.7 168.78 1.12 168.8 1.1 C 168.8 2.1 168.4 3.1 168.1 3.7 C 168.1 3.7 167.7 3.7 167.7 3.7 C 168 3.1 168.3 2.1 168.3 1.1 Z M 172.6 2.1 L 172.1 2.1 L 173.6 0.2 L 174.1 0.2 L 172.6 2.1 Z M 175.4 6.6 C 175.4 6.6 170.4 6.6 170.4 6.6 C 170.5 8.2 171.5 9.2 172.9 9.2 C 173.7 9.2 174.5 9 175.2 8.3 C 175.2 8.3 175.2 8.9 175.2 8.9 C 174.5 9.4 173.7 9.7 172.9 9.7 C 171.1 9.7 169.9 8.4 169.9 6.4 C 169.9 4.4 171.3 3.1 172.8 3.1 C 174.2 3.1 175.4 4.2 175.4 6.3 C 175.4 6.4 175.4 6.5 175.4 6.6 Z M 174.9 6.1 C 174.9 4.4 173.9 3.6 172.8 3.6 C 171.6 3.6 170.5 4.6 170.4 6.1 C 170.4 6.1 174.9 6.1 174.9 6.1 Z M 179.9 9.2 C 180.4 9.2 181 9.1 181.6 8.7 C 181.6 8.7 181.6 9.3 181.6 9.3 C 181.1 9.6 180.5 9.7 179.9 9.7 C 178.1 9.7 176.8 8.3 176.8 6.4 C 176.8 4.5 178.1 3.1 179.9 3.1 C 180.5 3.1 181.1 3.2 181.6 3.6 C 181.6 3.6 181.6 4.1 181.6 4.1 C 181 3.7 180.5 3.6 179.9 3.6 C 178.5 3.6 177.3 4.7 177.3 6.4 C 177.3 8.1 178.5 9.2 179.9 9.2 Z M 182.8 6.4 C 182.8 4.5 184.1 3.1 185.8 3.1 C 187.5 3.1 188.8 4.5 188.8 6.4 C 188.8 8.4 187.5 9.7 185.8 9.7 C 184.1 9.7 182.8 8.4 182.8 6.4 Z M 188.3 6.4 C 188.3 4.6 187.1 3.6 185.8 3.6 C 184.5 3.6 183.3 4.6 183.3 6.4 C 183.3 8.2 184.5 9.2 185.8 9.2 C 187.1 9.2 188.3 8.2 188.3 6.4 Z M 190.6 7.3 C 190.58 7.28 190.6 3.2 190.6 3.2 L 191.1 3.2 C 191.1 3.2 191.08 7.31 191.1 7.3 C 191.1 8.5 191.8 9.2 193 9.2 C 194.1 9.2 194.9 8.5 194.9 7.3 C 194.88 7.3 194.9 3.2 194.9 3.2 L 195.4 3.2 C 195.4 3.2 195.38 7.27 195.4 7.3 C 195.4 8.7 194.4 9.7 193 9.7 C 191.5 9.7 190.6 8.7 190.6 7.3 Z M 198.3 3.2 L 200.2 3.2 L 200.2 3.7 L 198.3 3.7 C 198.3 3.7 198.26 7.6 198.3 7.6 C 198.3 8.8 198.9 9.2 199.8 9.2 C 200 9.2 200.1 9.2 200.3 9.2 C 200.3 9.2 200.3 9.6 200.3 9.6 C 200.3 9.6 200 9.7 199.7 9.7 C 198.6 9.7 197.8 9 197.8 7.6 C 197.76 7.62 197.8 3.7 197.8 3.7 L 196.8 3.7 L 196.8 3.2 L 197.8 3.2 L 197.8 1.7 L 198.3 1.7 L 198.3 3.2 Z M 206.7 6.6 C 206.7 6.6 201.7 6.6 201.7 6.6 C 201.8 8.2 202.8 9.2 204.2 9.2 C 205 9.2 205.8 9 206.5 8.3 C 206.5 8.3 206.5 8.9 206.5 8.9 C 205.8 9.4 205 9.7 204.2 9.7 C 202.4 9.7 201.2 8.4 201.2 6.4 C 201.2 4.4 202.6 3.1 204.1 3.1 C 205.5 3.1 206.7 4.2 206.7 6.3 C 206.7 6.4 206.7 6.5 206.7 6.6 Z M 206.2 6.1 C 206.2 4.4 205.2 3.6 204.1 3.6 C 202.9 3.6 201.8 4.6 201.7 6.1 C 201.7 6.1 206.2 6.1 206.2 6.1 Z M 212.1 6.4 C 212.1 4.4 213.5 3.1 215 3.1 C 216 3.1 217.1 3.7 217.5 4.8 C 217.5 4.78 217.5 0.1 217.5 0.1 L 218 0.1 L 218 9.6 L 217.6 9.6 L 217.5 8 C 217.5 8 217.52 7.99 217.5 8 C 217.1 9.2 216 9.7 215 9.7 C 213.5 9.7 212.1 8.4 212.1 6.4 Z M 217.5 6.4 C 217.5 4.7 216.4 3.6 215.1 3.6 C 213.8 3.6 212.6 4.7 212.6 6.4 C 212.6 8.1 213.8 9.2 215.1 9.2 C 216.4 9.2 217.5 8.1 217.5 6.4 Z M 220.5 1.1 C 220.47 1.13 220.5 0.7 220.5 0.7 L 221 0.7 C 221 0.7 220.98 1.12 221 1.1 C 221 2.1 220.6 3.1 220.3 3.7 C 220.3 3.7 219.9 3.7 219.9 3.7 C 220.2 3.1 220.5 2.1 220.5 1.1 Z M 222.8 7.3 C 222.8 7.28 222.8 3.2 222.8 3.2 L 223.3 3.2 C 223.3 3.2 223.3 7.31 223.3 7.3 C 223.3 8.5 224 9.2 225.2 9.2 C 226.4 9.2 227.1 8.5 227.1 7.3 C 227.1 7.3 227.1 3.2 227.1 3.2 L 227.6 3.2 C 227.6 3.2 227.6 7.27 227.6 7.3 C 227.6 8.7 226.7 9.7 225.2 9.7 C 223.7 9.7 222.8 8.7 222.8 7.3 Z M 234.6 5.4 C 234.58 5.36 234.6 9.6 234.6 9.6 L 234.1 9.6 C 234.1 9.6 234.08 5.57 234.1 5.6 C 234.1 4.3 233.4 3.6 232.3 3.6 C 231.2 3.6 230.3 4.3 230.3 5.5 C 230.3 5.51 230.3 9.6 230.3 9.6 L 229.8 9.6 L 229.8 3.2 L 230.2 3.2 L 230.3 4.4 C 230.3 4.4 230.26 4.36 230.3 4.4 C 230.6 3.6 231.4 3.1 232.3 3.1 C 233.7 3.1 234.6 4 234.6 5.4 Z M 241.9 6.6 C 241.9 6.6 236.8 6.6 236.8 6.6 C 236.9 8.2 238 9.2 239.4 9.2 C 240.2 9.2 241 9 241.7 8.3 C 241.7 8.3 241.7 8.9 241.7 8.9 C 241 9.4 240.2 9.7 239.4 9.7 C 237.6 9.7 236.3 8.4 236.3 6.4 C 236.3 4.4 237.8 3.1 239.3 3.1 C 240.7 3.1 241.9 4.2 241.9 6.3 C 241.9 6.4 241.9 6.5 241.9 6.6 Z M 241.4 6.1 C 241.4 4.4 240.4 3.6 239.3 3.6 C 238.1 3.6 237 4.6 236.9 6.1 C 236.9 6.1 241.4 6.1 241.4 6.1 Z M 255.5 5.3 C 255.46 5.28 255.5 9.6 255.5 9.6 L 255 9.6 C 255 9.6 254.96 5.33 255 5.3 C 255 4.3 254.5 3.6 253.5 3.6 C 252.5 3.6 251.9 4.4 251.9 5.3 C 251.85 5.34 251.9 9.6 251.9 9.6 L 251.3 9.6 C 251.3 9.6 251.35 5.33 251.3 5.3 C 251.3 4.3 250.8 3.6 249.8 3.6 C 248.8 3.6 248.2 4.4 248.2 5.4 C 248.24 5.36 248.2 9.6 248.2 9.6 L 247.7 9.6 L 247.7 3.2 L 248.1 3.2 L 248.2 4.3 C 248.2 4.3 248.2 4.28 248.2 4.3 C 248.5 3.6 249.1 3.1 249.9 3.1 C 250.9 3.1 251.4 3.6 251.7 4.4 C 252 3.6 252.6 3.1 253.5 3.1 C 254.8 3.1 255.5 4 255.5 5.3 Z M 257.6 7.3 C 257.59 7.28 257.6 3.2 257.6 3.2 L 258.1 3.2 C 258.1 3.2 258.09 7.31 258.1 7.3 C 258.1 8.5 258.8 9.2 260 9.2 C 261.1 9.2 261.9 8.5 261.9 7.3 C 261.88 7.3 261.9 3.2 261.9 3.2 L 262.4 3.2 C 262.4 3.2 262.39 7.27 262.4 7.3 C 262.4 8.7 261.5 9.7 260 9.7 C 258.5 9.7 257.6 8.7 257.6 7.3 Z M 268.1 3.7 C 268.1 3.7 268.1 4.2 268.1 4.2 C 267.6 3.9 267 3.6 266.3 3.6 C 265.4 3.6 264.7 4.1 264.7 4.8 C 264.7 5.5 265.4 5.8 266.4 6.1 C 267.4 6.5 268.4 6.8 268.4 7.9 C 268.4 9 267.6 9.7 266.3 9.7 C 265.5 9.7 264.8 9.5 264.1 9 C 264.1 9 264.1 8.3 264.1 8.3 C 264.7 8.9 265.4 9.2 266.3 9.2 C 267.3 9.2 267.9 8.7 267.9 7.9 C 267.9 7.2 267.2 6.9 266.2 6.5 C 265.1 6.2 264.2 5.9 264.2 4.8 C 264.2 3.8 265.1 3.1 266.3 3.1 C 267 3.1 267.6 3.3 268.1 3.7 Z M 270.1 0.9 C 270.1 0.7 270.3 0.5 270.5 0.5 C 270.7 0.5 270.9 0.7 270.9 0.9 C 270.9 1.1 270.7 1.3 270.5 1.3 C 270.3 1.3 270.1 1.1 270.1 0.9 Z M 270.2 3.2 L 270.7 3.2 L 270.7 9.6 L 270.2 9.6 L 270.2 3.2 Z M 278 4.8 C 278.01 4.84 278.1 3.2 278.1 3.2 L 278.5 3.2 L 278.5 12.2 L 278 12.2 C 278 12.2 277.98 8.04 278 8 C 277.5 9.1 276.5 9.7 275.5 9.7 C 274 9.7 272.6 8.4 272.6 6.4 C 272.6 4.4 274 3.1 275.5 3.1 C 276.5 3.1 277.5 3.7 278 4.8 Z M 273.1 6.4 C 273.1 8.1 274.2 9.2 275.6 9.2 C 276.9 9.2 278 8.1 278 6.4 C 278 4.7 276.9 3.6 275.6 3.6 C 274.2 3.6 273.1 4.7 273.1 6.4 Z M 280.7 7.3 C 280.68 7.28 280.7 3.2 280.7 3.2 L 281.2 3.2 C 281.2 3.2 281.18 7.31 281.2 7.3 C 281.2 8.5 281.9 9.2 283.1 9.2 C 284.2 9.2 285 8.5 285 7.3 C 284.97 7.3 285 3.2 285 3.2 L 285.5 3.2 C 285.5 3.2 285.48 7.27 285.5 7.3 C 285.5 8.7 284.5 9.7 283.1 9.7 C 281.6 9.7 280.7 8.7 280.7 7.3 Z M 292.8 6.6 C 292.8 6.6 287.7 6.6 287.7 6.6 C 287.8 8.2 288.8 9.2 290.3 9.2 C 291.1 9.2 291.9 9 292.6 8.3 C 292.6 8.3 292.6 8.9 292.6 8.9 C 291.9 9.4 291.1 9.7 290.3 9.7 C 288.5 9.7 287.2 8.4 287.2 6.4 C 287.2 4.4 288.6 3.1 290.2 3.1 C 291.6 3.1 292.8 4.2 292.8 6.3 C 292.8 6.4 292.8 6.5 292.8 6.6 Z M 292.3 6.1 C 292.3 4.4 291.3 3.6 290.2 3.6 C 289 3.6 287.9 4.6 287.7 6.1 C 287.7 6.1 292.3 6.1 292.3 6.1 Z M 298.2 6.4 C 298.2 4.5 299.5 3.1 301.2 3.1 C 302.9 3.1 304.3 4.5 304.3 6.4 C 304.3 8.4 302.9 9.7 301.2 9.7 C 299.6 9.7 298.2 8.4 298.2 6.4 Z M 303.8 6.4 C 303.8 4.6 302.5 3.6 301.2 3.6 C 299.9 3.6 298.7 4.6 298.7 6.4 C 298.7 8.2 299.9 9.2 301.2 9.2 C 302.5 9.2 303.8 8.2 303.8 6.4 Z M 306 7.3 C 306 7.28 306 3.2 306 3.2 L 306.5 3.2 C 306.5 3.2 306.5 7.31 306.5 7.3 C 306.5 8.5 307.2 9.2 308.4 9.2 C 309.5 9.2 310.3 8.5 310.3 7.3 C 310.29 7.3 310.3 3.2 310.3 3.2 L 310.8 3.2 C 310.8 3.2 310.79 7.27 310.8 7.3 C 310.8 8.7 309.9 9.7 308.4 9.7 C 306.9 9.7 306 8.7 306 7.3 Z M 316.6 6.4 C 316.6 4.4 318 3.1 319.5 3.1 C 320.5 3.1 321.5 3.7 321.9 4.8 C 321.94 4.78 321.9 0.1 321.9 0.1 L 322.4 0.1 L 322.4 9.6 L 322.1 9.6 L 322 8 C 322 8 321.97 7.99 322 8 C 321.5 9.2 320.5 9.7 319.5 9.7 C 318 9.7 316.6 8.4 316.6 6.4 Z M 322 6.4 C 322 4.7 320.8 3.6 319.5 3.6 C 318.2 3.6 317.1 4.7 317.1 6.4 C 317.1 8.1 318.2 9.2 319.5 9.2 C 320.8 9.2 322 8.1 322 6.4 Z M 324.9 1.1 C 324.92 1.13 324.9 0.7 324.9 0.7 L 325.4 0.7 C 325.4 0.7 325.42 1.12 325.4 1.1 C 325.4 2.1 325 3.1 324.8 3.7 C 324.8 3.7 324.4 3.7 324.4 3.7 C 324.6 3.1 324.9 2.1 324.9 1.1 Z M 327.2 7.3 C 327.25 7.28 327.2 3.2 327.2 3.2 L 327.8 3.2 C 327.8 3.2 327.75 7.31 327.8 7.3 C 327.8 8.5 328.5 9.2 329.6 9.2 C 330.8 9.2 331.5 8.5 331.5 7.3 C 331.54 7.3 331.5 3.2 331.5 3.2 L 332 3.2 C 332 3.2 332.05 7.27 332 7.3 C 332 8.7 331.1 9.7 329.6 9.7 C 328.2 9.7 327.2 8.7 327.2 7.3 Z M 339 5.4 C 339.03 5.36 339 9.6 339 9.6 L 338.5 9.6 C 338.5 9.6 338.53 5.57 338.5 5.6 C 338.5 4.3 337.9 3.6 336.7 3.6 C 335.6 3.6 334.7 4.3 334.7 5.5 C 334.75 5.51 334.7 9.6 334.7 9.6 L 334.2 9.6 L 334.2 3.2 L 334.6 3.2 L 334.7 4.4 C 334.7 4.4 334.71 4.36 334.7 4.4 C 335.1 3.6 335.8 3.1 336.8 3.1 C 338.1 3.1 339 4 339 5.4 Z " stroke="none" fill="#000"/>
  </g>
</svg>