<?xml version="1.0" standalone="no"?>
<!DOCTYPE svg PUBLIC "-//W3C//DTD SVG 1.1//EN" "http://www.w3.org/Graphics/SVG/1.1/DTD/svg11.dtd">
<svg xmlns="http://www.w3.org/2000/svg" version="1.1" width="149.1px" height="34.1px" viewBox="0 0 149.1 34.1">
  <desc>ATMOSPHERE</desc>
  <defs/>
  <g id="Polygon18031">
    <path d="M 11.5 16.3 L 10.5 13.3 L 5.5 13.3 L 4.6 16.3 L 0 16.3 L 5.4 1.1 L 10.6 1.1 L 16.1 16.3 L 11.5 16.3 Z M 6.6 9.7 L 9.4 9.7 L 8 5.6 L 6.6 9.7 Z M 18.9 5.1 L 14.7 5.1 L 14.7 1.1 L 27.5 1.1 L 27.5 5.1 L 23.3 5.1 L 23.3 16.3 L 18.9 16.3 L 18.9 5.1 Z M 32 16.3 L 27.8 16.3 L 29.9 1.1 L 35.1 1.1 L 37.5 9.5 L 37.5 9.5 L 39.9 1.1 L 44.9 1.1 L 47 16.3 L 42.8 16.3 L 41.9 7.1 L 41.8 7.1 L 39.2 16.3 L 35.5 16.3 L 33 7.1 L 32.9 7.1 L 32 16.3 Z M 47.9 8.7 C 47.9 4 51.5 0.7 56 0.7 C 60.6 0.7 64.1 4 64.1 8.7 C 64.1 13.4 60.6 16.6 56 16.6 C 51.5 16.6 47.9 13.4 47.9 8.7 Z M 59.6 8.7 C 59.6 6.1 57.8 4.7 56 4.7 C 54.2 4.7 52.4 6.1 52.4 8.7 C 52.4 11.2 54.2 12.6 56 12.6 C 57.8 12.6 59.6 11.2 59.6 8.7 Z M 75.6 1.8 C 75.6 1.8 75.6 5.7 75.6 5.7 C 74.7 5 73 4.6 71.7 4.6 C 70.5 4.6 69.9 5 69.9 5.5 C 69.9 6 70.6 6.2 71.8 6.7 C 73.8 7.4 76.6 8.3 76.6 11.6 C 76.6 14.5 74.4 16.6 70.6 16.6 C 68.6 16.6 66.8 16 65.7 15.3 C 65.7 15.3 65.7 11.2 65.7 11.2 C 66.8 12.1 68.4 12.8 70 12.8 C 71.4 12.8 72 12.3 72 11.7 C 72 11 71 10.6 69.8 10.2 C 68.1 9.6 65.5 8.5 65.5 5.6 C 65.5 2.9 67.6 0.8 71.4 0.8 C 73 0.8 74.5 1.2 75.6 1.8 Z M 78.5 1.1 C 78.5 1.1 83.57 1.08 83.6 1.1 C 88.2 1.1 90.7 3.3 90.7 6.7 C 90.7 9.8 88.5 12.6 83.9 12.6 C 83.88 12.64 82.9 12.6 82.9 12.6 L 82.9 16.3 L 78.5 16.3 L 78.5 1.1 Z M 86.3 6.9 C 86.3 5.7 85.3 5.1 84 5.1 C 84.04 5.08 82.9 5.1 82.9 5.1 L 82.9 8.7 C 82.9 8.7 84.08 8.72 84.1 8.7 C 85.3 8.7 86.3 8.1 86.3 6.9 Z M 101.6 10.8 L 96.9 10.8 L 96.9 16.3 L 92.4 16.3 L 92.4 1.1 L 96.9 1.1 L 96.9 6.7 L 101.6 6.7 L 101.6 1.1 L 106.1 1.1 L 106.1 16.3 L 101.6 16.3 L 101.6 10.8 Z M 108.7 1.1 L 119.2 1.1 L 119.2 5 L 113.1 5 L 113.1 6.9 L 118.6 6.9 L 118.6 10.4 L 113.1 10.4 L 113.1 12.3 L 119.2 12.3 L 119.2 16.3 L 108.7 16.3 L 108.7 1.1 Z M 134.1 16.3 L 128.9 16.3 L 126 11.6 L 125.9 11.6 L 125.9 16.3 L 121.5 16.3 L 121.5 1.1 C 121.5 1.1 126.9 1.08 126.9 1.1 C 130.7 1.1 133.3 2.8 133.3 6.4 C 133.3 7.8 132.7 9.9 130.2 10.9 C 130.19 10.92 134.1 16.3 134.1 16.3 Z M 126.9 8.3 C 128 8.3 128.9 7.7 128.9 6.7 C 128.9 5.6 128 5.1 126.9 5.1 C 126.86 5.08 125.9 5.1 125.9 5.1 L 125.9 8.3 C 125.9 8.3 126.88 8.25 126.9 8.3 Z M 135.6 1.1 L 146.1 1.1 L 146.1 5 L 140.1 5 L 140.1 6.9 L 145.5 6.9 L 145.5 10.4 L 140.1 10.4 L 140.1 12.3 L 146.1 12.3 L 146.1 16.3 L 135.6 16.3 L 135.6 1.1 Z " stroke="none" fill="#444443"/>
  </g>
</svg>