<?xml version="1.0" standalone="no"?>
<!DOCTYPE svg PUBLIC "-//W3C//DTD SVG 1.1//EN" "http://www.w3.org/Graphics/SVG/1.1/DTD/svg11.dtd">
<svg xmlns="http://www.w3.org/2000/svg" version="1.1" width="340.1px" height="85.4px" viewBox="0 0 340.1 85.4">
  <desc>L interface est quant elle constitu e d un cran et d une molette de navigation En tournant la molette, l usager p</desc>
  <defs/>
  <g id="Polygon25947">
    <path d="M 1.1 60.8 L 1.5 60.8 C 1.5 60.8 1.61 62.44 1.6 62.4 C 2.1 61.3 3.1 60.7 4.1 60.7 C 5.6 60.7 7 62 7 64 C 7 66 5.6 67.3 4.1 67.3 C 3.1 67.3 2.1 66.7 1.6 65.7 C 1.64 65.65 1.6 69.8 1.6 69.8 L 1.1 69.8 L 1.1 60.8 Z M 6.5 64 C 6.5 62.3 5.4 61.2 4.1 61.2 C 2.7 61.2 1.6 62.3 1.6 64 C 1.6 65.7 2.8 66.8 4.1 66.8 C 5.4 66.8 6.5 65.7 6.5 64 Z M 8.9 57.7 L 9.4 57.7 L 9.4 67.2 L 8.9 67.2 L 8.9 57.7 Z M 11.6 64.9 C 11.63 64.88 11.6 60.8 11.6 60.8 L 12.1 60.8 C 12.1 60.8 12.13 64.91 12.1 64.9 C 12.1 66.1 12.9 66.8 14 66.8 C 15.2 66.8 15.9 66.1 15.9 64.9 C 15.92 64.9 15.9 60.8 15.9 60.8 L 16.4 60.8 C 16.4 60.8 16.43 64.87 16.4 64.9 C 16.4 66.3 15.5 67.3 14 67.3 C 12.5 67.3 11.6 66.3 11.6 64.9 Z M 22.2 61.3 C 22.2 61.3 22.2 61.8 22.2 61.8 C 21.7 61.5 21.1 61.2 20.4 61.2 C 19.4 61.2 18.8 61.7 18.8 62.4 C 18.8 63.1 19.5 63.4 20.5 63.7 C 21.5 64.1 22.5 64.4 22.5 65.5 C 22.5 66.6 21.6 67.3 20.3 67.3 C 19.6 67.3 18.8 67.1 18.2 66.6 C 18.2 66.6 18.2 65.9 18.2 65.9 C 18.7 66.5 19.5 66.8 20.3 66.8 C 21.3 66.8 22 66.3 22 65.5 C 22 64.8 21.3 64.5 20.2 64.1 C 19.2 63.8 18.3 63.5 18.3 62.4 C 18.3 61.4 19.1 60.7 20.4 60.7 C 21 60.7 21.7 60.9 22.2 61.3 Z M 27.3 64 C 27.3 62 28.7 60.7 30.2 60.7 C 31.2 60.7 32.2 61.3 32.6 62.4 C 32.64 62.38 32.6 57.7 32.6 57.7 L 33.1 57.7 L 33.1 67.2 L 32.7 67.2 L 32.7 65.6 C 32.7 65.6 32.66 65.59 32.7 65.6 C 32.2 66.8 31.2 67.3 30.2 67.3 C 28.7 67.3 27.3 66 27.3 64 Z M 32.7 64 C 32.7 62.3 31.5 61.2 30.2 61.2 C 28.9 61.2 27.8 62.3 27.8 64 C 27.8 65.7 28.9 66.8 30.2 66.8 C 31.5 66.8 32.7 65.7 32.7 64 Z M 35.6 58.7 C 35.62 58.73 35.6 58.3 35.6 58.3 L 36.1 58.3 C 36.1 58.3 36.12 58.72 36.1 58.7 C 36.1 59.7 35.7 60.7 35.5 61.3 C 35.5 61.3 35.1 61.3 35.1 61.3 C 35.3 60.7 35.6 59.7 35.6 58.7 Z M 37.9 58.5 C 37.9 58.3 38.1 58.1 38.3 58.1 C 38.6 58.1 38.7 58.3 38.7 58.5 C 38.7 58.7 38.6 58.9 38.3 58.9 C 38.1 58.9 37.9 58.7 37.9 58.5 Z M 38.1 60.8 L 38.6 60.8 L 38.6 67.2 L 38.1 67.2 L 38.1 60.8 Z M 45.7 63 C 45.67 62.96 45.7 67.2 45.7 67.2 L 45.2 67.2 C 45.2 67.2 45.17 63.17 45.2 63.2 C 45.2 61.9 44.5 61.2 43.4 61.2 C 42.3 61.2 41.4 61.9 41.4 63.1 C 41.39 63.11 41.4 67.2 41.4 67.2 L 40.9 67.2 L 40.9 60.8 L 41.3 60.8 L 41.3 62 C 41.3 62 41.35 61.96 41.4 62 C 41.7 61.2 42.5 60.7 43.4 60.7 C 44.8 60.7 45.7 61.6 45.7 63 Z M 48 61.3 L 47.1 61.3 L 47.1 60.8 L 48 60.8 C 48 60.8 48.02 59.6 48 59.6 C 48 58.3 48.9 57.6 49.9 57.6 C 50.3 57.6 50.6 57.7 50.9 57.8 C 50.9 57.8 50.9 58.3 50.9 58.3 C 50.7 58.2 50.3 58.1 50 58.1 C 49.1 58.1 48.5 58.6 48.5 59.7 C 48.54 59.69 48.5 60.8 48.5 60.8 L 50.5 60.8 L 50.5 61.3 L 48.5 61.3 L 48.5 67.2 L 48 67.2 L 48 61.3 Z M 51.1 64 C 51.1 62.1 52.5 60.7 54.1 60.7 C 55.8 60.7 57.2 62.1 57.2 64 C 57.2 66 55.8 67.3 54.1 67.3 C 52.5 67.3 51.1 66 51.1 64 Z M 56.7 64 C 56.7 62.2 55.4 61.2 54.1 61.2 C 52.8 61.2 51.6 62.2 51.6 64 C 51.6 65.8 52.8 66.8 54.1 66.8 C 55.4 66.8 56.7 65.8 56.7 64 Z M 59 60.8 L 59.4 60.8 L 59.5 62 C 59.5 62 59.47 62.02 59.5 62 C 59.9 61.1 60.7 60.8 61.4 60.8 C 61.5 60.8 61.6 60.8 61.7 60.8 C 61.7 60.8 61.7 61.3 61.7 61.3 C 61.6 61.3 61.5 61.3 61.4 61.3 C 60.5 61.3 59.5 61.9 59.5 63.2 C 59.51 63.17 59.5 67.2 59.5 67.2 L 59 67.2 L 59 60.8 Z M 70.8 62.9 C 70.8 62.88 70.8 67.2 70.8 67.2 L 70.3 67.2 C 70.3 67.2 70.3 62.93 70.3 62.9 C 70.3 61.9 69.8 61.2 68.8 61.2 C 67.8 61.2 67.2 62 67.2 62.9 C 67.19 62.94 67.2 67.2 67.2 67.2 L 66.7 67.2 C 66.7 67.2 66.68 62.93 66.7 62.9 C 66.7 61.9 66.2 61.2 65.2 61.2 C 64.2 61.2 63.6 62 63.6 63 C 63.57 62.96 63.6 67.2 63.6 67.2 L 63.1 67.2 L 63.1 60.8 L 63.5 60.8 L 63.5 61.9 C 63.5 61.9 63.54 61.88 63.5 61.9 C 63.8 61.2 64.5 60.7 65.3 60.7 C 66.2 60.7 66.8 61.2 67 62 C 67.3 61.2 68 60.7 68.9 60.7 C 70.2 60.7 70.8 61.6 70.8 62.9 Z M 72.6 64 C 72.6 62 74 60.7 75.5 60.7 C 76.5 60.7 77.5 61.3 78 62.4 C 77.96 62.42 78 60.8 78 60.8 L 78.4 60.8 L 78.4 67.2 L 78 67.2 C 78 67.2 77.96 65.6 78 65.6 C 77.5 66.8 76.5 67.3 75.5 67.3 C 74 67.3 72.6 66 72.6 64 Z M 78 64 C 78 62.3 76.8 61.2 75.5 61.2 C 74.2 61.2 73.1 62.3 73.1 64 C 73.1 65.7 74.2 66.8 75.5 66.8 C 76.8 66.8 78 65.7 78 64 Z M 81.4 60.8 L 83.3 60.8 L 83.3 61.3 L 81.4 61.3 C 81.4 61.3 81.39 65.2 81.4 65.2 C 81.4 66.4 82 66.8 82.9 66.8 C 83.1 66.8 83.3 66.8 83.5 66.8 C 83.5 66.8 83.5 67.2 83.5 67.2 C 83.4 67.2 83.1 67.3 82.9 67.3 C 81.7 67.3 80.9 66.6 80.9 65.2 C 80.89 65.22 80.9 61.3 80.9 61.3 L 79.9 61.3 L 79.9 60.8 L 80.9 60.8 L 80.9 59.3 L 81.4 59.3 L 81.4 60.8 Z M 84.7 58.5 C 84.7 58.3 84.9 58.1 85.1 58.1 C 85.4 58.1 85.5 58.3 85.5 58.5 C 85.5 58.7 85.4 58.9 85.1 58.9 C 84.9 58.9 84.7 58.7 84.7 58.5 Z M 84.9 60.8 L 85.4 60.8 L 85.4 67.2 L 84.9 67.2 L 84.9 60.8 Z M 87.2 64 C 87.2 62.1 88.6 60.7 90.3 60.7 C 91.9 60.7 93.3 62.1 93.3 64 C 93.3 66 91.9 67.3 90.3 67.3 C 88.6 67.3 87.2 66 87.2 64 Z M 92.8 64 C 92.8 62.2 91.6 61.2 90.3 61.2 C 89 61.2 87.7 62.2 87.7 64 C 87.7 65.8 89 66.8 90.3 66.8 C 91.6 66.8 92.8 65.8 92.8 64 Z M 99.9 63 C 99.92 62.96 99.9 67.2 99.9 67.2 L 99.4 67.2 C 99.4 67.2 99.42 63.17 99.4 63.2 C 99.4 61.9 98.8 61.2 97.6 61.2 C 96.5 61.2 95.6 61.9 95.6 63.1 C 95.64 63.11 95.6 67.2 95.6 67.2 L 95.1 67.2 L 95.1 60.8 L 95.5 60.8 L 95.6 62 C 95.6 62 95.6 61.96 95.6 62 C 95.9 61.2 96.7 60.7 97.7 60.7 C 99 60.7 99.9 61.6 99.9 63 Z M 105.7 61.3 C 105.7 61.3 105.7 61.8 105.7 61.8 C 105.2 61.5 104.6 61.2 103.8 61.2 C 102.9 61.2 102.3 61.7 102.3 62.4 C 102.3 63.1 102.9 63.4 104 63.7 C 105 64.1 106 64.4 106 65.5 C 106 66.6 105.1 67.3 103.8 67.3 C 103.1 67.3 102.3 67.1 101.7 66.6 C 101.7 66.6 101.7 65.9 101.7 65.9 C 102.2 66.5 103 66.8 103.8 66.8 C 104.8 66.8 105.5 66.3 105.5 65.5 C 105.5 64.8 104.8 64.5 103.7 64.1 C 102.7 63.8 101.8 63.5 101.8 62.4 C 101.8 61.4 102.6 60.7 103.9 60.7 C 104.5 60.7 105.2 60.9 105.7 61.3 Z M 107.5 66.8 C 107.5 66.5 107.7 66.3 108 66.3 C 108.3 66.3 108.5 66.5 108.5 66.8 C 108.5 67 108.3 67.2 108 67.2 C 107.7 67.2 107.5 67 107.5 66.8 Z " stroke="none" fill="#000"/>
  </g>
  <g id="Polygon25946">
    <path d="M 1.1 46.4 L 1.5 46.4 C 1.5 46.4 1.61 48.04 1.6 48 C 2.1 46.9 3.1 46.3 4.1 46.3 C 5.6 46.3 7 47.6 7 49.6 C 7 51.6 5.6 52.9 4.1 52.9 C 3.1 52.9 2.1 52.3 1.6 51.3 C 1.64 51.25 1.6 55.4 1.6 55.4 L 1.1 55.4 L 1.1 46.4 Z M 6.5 49.6 C 6.5 47.9 5.4 46.8 4.1 46.8 C 2.7 46.8 1.6 47.9 1.6 49.6 C 1.6 51.3 2.8 52.4 4.1 52.4 C 5.4 52.4 6.5 51.3 6.5 49.6 Z M 9.4 47.4 C 9.4 47.4 9.37 47.44 9.4 47.4 C 9.7 46.7 10.5 46.3 11.4 46.3 C 12.8 46.3 13.6 47.1 13.6 48.6 C 13.64 48.58 13.6 52.8 13.6 52.8 L 13.1 52.8 C 13.1 52.8 13.14 48.76 13.1 48.8 C 13.1 47.5 12.5 46.8 11.4 46.8 C 10.3 46.8 9.4 47.4 9.4 48.6 C 9.36 48.65 9.4 52.8 9.4 52.8 L 8.9 52.8 L 8.9 43.3 L 9.4 43.3 L 9.4 47.4 Z M 15.7 44.1 C 15.7 43.9 15.9 43.7 16.1 43.7 C 16.4 43.7 16.5 43.9 16.5 44.1 C 16.5 44.3 16.4 44.5 16.1 44.5 C 15.9 44.5 15.7 44.3 15.7 44.1 Z M 15.9 46.4 L 16.4 46.4 L 16.4 52.8 L 15.9 52.8 L 15.9 46.4 Z M 22.3 46.9 C 22.3 46.9 22.3 47.4 22.3 47.4 C 21.8 47.1 21.1 46.8 20.4 46.8 C 19.5 46.8 18.9 47.3 18.9 48 C 18.9 48.7 19.5 49 20.5 49.3 C 21.6 49.7 22.6 50 22.6 51.1 C 22.6 52.2 21.7 52.9 20.4 52.9 C 19.7 52.9 18.9 52.7 18.3 52.2 C 18.3 52.2 18.3 51.5 18.3 51.5 C 18.8 52.1 19.6 52.4 20.4 52.4 C 21.4 52.4 22.1 51.9 22.1 51.1 C 22.1 50.4 21.3 50.1 20.3 49.7 C 19.3 49.4 18.4 49.1 18.4 48 C 18.4 47 19.2 46.3 20.4 46.3 C 21.1 46.3 21.8 46.5 22.3 46.9 Z M 32.1 48.5 C 32.05 48.48 32.1 52.8 32.1 52.8 L 31.5 52.8 C 31.5 52.8 31.55 48.53 31.5 48.5 C 31.5 47.5 31.1 46.8 30.1 46.8 C 29.1 46.8 28.4 47.6 28.4 48.5 C 28.44 48.54 28.4 52.8 28.4 52.8 L 27.9 52.8 C 27.9 52.8 27.94 48.53 27.9 48.5 C 27.9 47.5 27.4 46.8 26.4 46.8 C 25.4 46.8 24.8 47.6 24.8 48.6 C 24.83 48.56 24.8 52.8 24.8 52.8 L 24.3 52.8 L 24.3 46.4 L 24.7 46.4 L 24.8 47.5 C 24.8 47.5 24.79 47.48 24.8 47.5 C 25.1 46.8 25.7 46.3 26.5 46.3 C 27.5 46.3 28 46.8 28.3 47.6 C 28.6 46.8 29.2 46.3 30.1 46.3 C 31.4 46.3 32.1 47.2 32.1 48.5 Z M 39.4 49.8 C 39.4 49.8 34.3 49.8 34.3 49.8 C 34.4 51.4 35.4 52.4 36.9 52.4 C 37.6 52.4 38.5 52.2 39.1 51.5 C 39.1 51.5 39.1 52.1 39.1 52.1 C 38.5 52.6 37.7 52.9 36.9 52.9 C 35.1 52.9 33.8 51.6 33.8 49.6 C 33.8 47.6 35.2 46.3 36.8 46.3 C 38.2 46.3 39.4 47.4 39.4 49.5 C 39.4 49.6 39.4 49.7 39.4 49.8 Z M 38.9 49.3 C 38.9 47.6 37.8 46.8 36.8 46.8 C 35.6 46.8 34.4 47.8 34.3 49.3 C 34.3 49.3 38.9 49.3 38.9 49.3 Z M 52.9 48.5 C 52.92 48.48 52.9 52.8 52.9 52.8 L 52.4 52.8 C 52.4 52.8 52.41 48.53 52.4 48.5 C 52.4 47.5 51.9 46.8 50.9 46.8 C 49.9 46.8 49.3 47.6 49.3 48.5 C 49.31 48.54 49.3 52.8 49.3 52.8 L 48.8 52.8 C 48.8 52.8 48.8 48.53 48.8 48.5 C 48.8 47.5 48.3 46.8 47.3 46.8 C 46.3 46.8 45.7 47.6 45.7 48.6 C 45.69 48.56 45.7 52.8 45.7 52.8 L 45.2 52.8 L 45.2 46.4 L 45.6 46.4 L 45.6 47.5 C 45.6 47.5 45.66 47.48 45.7 47.5 C 45.9 46.8 46.6 46.3 47.4 46.3 C 48.3 46.3 48.9 46.8 49.1 47.6 C 49.4 46.8 50.1 46.3 51 46.3 C 52.3 46.3 52.9 47.2 52.9 48.5 Z M 55 44.1 C 55 43.9 55.2 43.7 55.4 43.7 C 55.7 43.7 55.8 43.9 55.8 44.1 C 55.8 44.3 55.7 44.5 55.4 44.5 C 55.2 44.5 55 44.3 55 44.1 Z M 55.2 46.4 L 55.7 46.4 L 55.7 52.8 L 55.2 52.8 L 55.2 46.4 Z M 62.8 48.6 C 62.77 48.56 62.8 52.8 62.8 52.8 L 62.3 52.8 C 62.3 52.8 62.27 48.77 62.3 48.8 C 62.3 47.5 61.6 46.8 60.5 46.8 C 59.4 46.8 58.5 47.5 58.5 48.7 C 58.48 48.71 58.5 52.8 58.5 52.8 L 58 52.8 L 58 46.4 L 58.4 46.4 L 58.4 47.6 C 58.4 47.6 58.45 47.56 58.4 47.6 C 58.8 46.8 59.6 46.3 60.5 46.3 C 61.9 46.3 62.8 47.2 62.8 48.6 Z M 64.9 44.1 C 64.9 43.9 65 43.7 65.3 43.7 C 65.5 43.7 65.7 43.9 65.7 44.1 C 65.7 44.3 65.5 44.5 65.3 44.5 C 65 44.5 64.9 44.3 64.9 44.1 Z M 65 46.4 L 65.5 46.4 L 65.5 52.8 L 65 52.8 L 65 46.4 Z M 75.5 48.5 C 75.55 48.48 75.5 52.8 75.5 52.8 L 75 52.8 C 75 52.8 75.05 48.53 75 48.5 C 75 47.5 74.6 46.8 73.6 46.8 C 72.5 46.8 71.9 47.6 71.9 48.5 C 71.94 48.54 71.9 52.8 71.9 52.8 L 71.4 52.8 C 71.4 52.8 71.43 48.53 71.4 48.5 C 71.4 47.5 70.9 46.8 69.9 46.8 C 68.9 46.8 68.3 47.6 68.3 48.6 C 68.32 48.56 68.3 52.8 68.3 52.8 L 67.8 52.8 L 67.8 46.4 L 68.2 46.4 L 68.3 47.5 C 68.3 47.5 68.29 47.48 68.3 47.5 C 68.6 46.8 69.2 46.3 70 46.3 C 71 46.3 71.5 46.8 71.8 47.6 C 72.1 46.8 72.7 46.3 73.6 46.3 C 74.9 46.3 75.5 47.2 75.5 48.5 Z M 77.3 49.6 C 77.3 47.6 78.7 46.3 80.2 46.3 C 81.2 46.3 82.2 46.9 82.7 48 C 82.71 48.02 82.8 46.4 82.8 46.4 L 83.2 46.4 L 83.2 52.8 L 82.8 52.8 C 82.8 52.8 82.71 51.2 82.7 51.2 C 82.2 52.4 81.2 52.9 80.2 52.9 C 78.7 52.9 77.3 51.6 77.3 49.6 Z M 82.7 49.6 C 82.7 47.9 81.6 46.8 80.3 46.8 C 78.9 46.8 77.8 47.9 77.8 49.6 C 77.8 51.3 78.9 52.4 80.3 52.4 C 81.6 52.4 82.7 51.3 82.7 49.6 Z M 85.5 43.3 L 86 43.3 L 86 52.8 L 85.5 52.8 L 85.5 43.3 Z M 91.9 49.6 C 91.9 47.6 93.3 46.3 94.8 46.3 C 95.8 46.3 96.8 46.9 97.3 48 C 97.27 48.02 97.3 46.4 97.3 46.4 L 97.7 46.4 L 97.7 52.8 L 97.3 52.8 C 97.3 52.8 97.27 51.2 97.3 51.2 C 96.8 52.4 95.8 52.9 94.8 52.9 C 93.3 52.9 91.9 51.6 91.9 49.6 Z M 97.3 49.6 C 97.3 47.9 96.1 46.8 94.8 46.8 C 93.5 46.8 92.4 47.9 92.4 49.6 C 92.4 51.3 93.5 52.4 94.8 52.4 C 96.1 52.4 97.3 51.3 97.3 49.6 Z M 100.3 46.9 L 99.3 46.9 L 99.3 46.4 L 100.2 46.4 C 100.2 46.4 100.24 45.2 100.2 45.2 C 100.2 43.9 101.1 43.2 102.2 43.2 C 102.5 43.2 102.8 43.3 103.1 43.4 C 103.1 43.4 103.1 43.9 103.1 43.9 C 102.9 43.8 102.5 43.7 102.2 43.7 C 101.3 43.7 100.8 44.2 100.8 45.3 C 100.76 45.29 100.8 46.4 100.8 46.4 L 102.7 46.4 L 102.7 46.9 L 100.8 46.9 L 100.8 52.8 L 100.3 52.8 L 100.3 46.9 Z M 104.1 44.1 C 104.1 43.9 104.2 43.7 104.5 43.7 C 104.7 43.7 104.9 43.9 104.9 44.1 C 104.9 44.3 104.7 44.5 104.5 44.5 C 104.2 44.5 104.1 44.3 104.1 44.1 Z M 104.2 46.4 L 104.7 46.4 L 104.7 52.8 L 104.2 52.8 L 104.2 46.4 Z M 111.8 48.6 C 111.82 48.56 111.8 52.8 111.8 52.8 L 111.3 52.8 C 111.3 52.8 111.32 48.77 111.3 48.8 C 111.3 47.5 110.7 46.8 109.5 46.8 C 108.4 46.8 107.5 47.5 107.5 48.7 C 107.54 48.71 107.5 52.8 107.5 52.8 L 107 52.8 L 107 46.4 L 107.4 46.4 L 107.5 47.6 C 107.5 47.6 107.5 47.56 107.5 47.6 C 107.9 46.8 108.6 46.3 109.6 46.3 C 110.9 46.3 111.8 47.2 111.8 48.6 Z M 117.6 49.6 C 117.6 47.6 119 46.3 120.5 46.3 C 121.5 46.3 122.5 46.9 122.9 48 C 122.95 47.98 122.9 43.3 122.9 43.3 L 123.4 43.3 L 123.4 52.8 L 123.1 52.8 L 123 51.2 C 123 51.2 122.97 51.19 123 51.2 C 122.5 52.4 121.5 52.9 120.5 52.9 C 119 52.9 117.6 51.6 117.6 49.6 Z M 123 49.6 C 123 47.9 121.8 46.8 120.5 46.8 C 119.2 46.8 118.1 47.9 118.1 49.6 C 118.1 51.3 119.2 52.4 120.5 52.4 C 121.8 52.4 123 51.3 123 49.6 Z M 130.8 49.8 C 130.8 49.8 125.8 49.8 125.8 49.8 C 125.9 51.4 126.9 52.4 128.3 52.4 C 129.1 52.4 129.9 52.2 130.6 51.5 C 130.6 51.5 130.6 52.1 130.6 52.1 C 129.9 52.6 129.2 52.9 128.3 52.9 C 126.5 52.9 125.3 51.6 125.3 49.6 C 125.3 47.6 126.7 46.3 128.2 46.3 C 129.7 46.3 130.9 47.4 130.9 49.5 C 130.9 49.6 130.9 49.7 130.8 49.8 Z M 130.4 49.3 C 130.3 47.6 129.3 46.8 128.2 46.8 C 127 46.8 125.9 47.8 125.8 49.3 C 125.8 49.3 130.4 49.3 130.4 49.3 Z M 141.4 48.6 C 141.45 48.56 141.4 52.8 141.4 52.8 L 140.9 52.8 C 140.9 52.8 140.95 48.77 140.9 48.8 C 140.9 47.5 140.3 46.8 139.1 46.8 C 138.1 46.8 137.2 47.5 137.2 48.7 C 137.16 48.71 137.2 52.8 137.2 52.8 L 136.7 52.8 L 136.7 46.4 L 137.1 46.4 L 137.1 47.6 C 137.1 47.6 137.13 47.56 137.1 47.6 C 137.5 46.8 138.2 46.3 139.2 46.3 C 140.6 46.3 141.4 47.2 141.4 48.6 Z M 148.8 49.8 C 148.8 49.8 143.7 49.8 143.7 49.8 C 143.8 51.4 144.8 52.4 146.3 52.4 C 147 52.4 147.8 52.2 148.5 51.5 C 148.5 51.5 148.5 52.1 148.5 52.1 C 147.9 52.6 147.1 52.9 146.2 52.9 C 144.4 52.9 143.2 51.6 143.2 49.6 C 143.2 47.6 144.6 46.3 146.2 46.3 C 147.6 46.3 148.8 47.4 148.8 49.5 C 148.8 49.6 148.8 49.7 148.8 49.8 Z M 148.3 49.3 C 148.3 47.6 147.2 46.8 146.2 46.8 C 144.9 46.8 143.8 47.8 143.7 49.3 C 143.7 49.3 148.3 49.3 148.3 49.3 Z M 154.6 46.4 L 155 46.4 C 155 46.4 155.04 48.04 155 48 C 155.5 46.9 156.5 46.3 157.6 46.3 C 159.1 46.3 160.5 47.6 160.5 49.6 C 160.5 51.6 159.1 52.9 157.6 52.9 C 156.5 52.9 155.5 52.3 155.1 51.3 C 155.08 51.25 155.1 55.4 155.1 55.4 L 154.6 55.4 L 154.6 46.4 Z M 160 49.6 C 160 47.9 158.8 46.8 157.5 46.8 C 156.2 46.8 155.1 47.9 155.1 49.6 C 155.1 51.3 156.2 52.4 157.5 52.4 C 158.8 52.4 160 51.3 160 49.6 Z M 161.8 49.6 C 161.8 47.6 163.2 46.3 164.7 46.3 C 165.8 46.3 166.8 46.9 167.2 48 C 167.25 48.02 167.3 46.4 167.3 46.4 L 167.7 46.4 L 167.7 52.8 L 167.3 52.8 C 167.3 52.8 167.25 51.2 167.2 51.2 C 166.8 52.4 165.8 52.9 164.8 52.9 C 163.2 52.9 161.8 51.6 161.8 49.6 Z M 167.2 49.6 C 167.2 47.9 166.1 46.8 164.8 46.8 C 163.5 46.8 162.3 47.9 162.3 49.6 C 162.3 51.3 163.5 52.4 164.8 52.4 C 166.1 52.4 167.2 51.3 167.2 49.6 Z M 173.5 46.9 C 173.5 46.9 173.5 47.4 173.5 47.4 C 173 47.1 172.4 46.8 171.7 46.8 C 170.8 46.8 170.2 47.3 170.2 48 C 170.2 48.7 170.8 49 171.8 49.3 C 172.9 49.7 173.9 50 173.9 51.1 C 173.9 52.2 173 52.9 171.7 52.9 C 170.9 52.9 170.2 52.7 169.6 52.2 C 169.6 52.2 169.6 51.5 169.6 51.5 C 170.1 52.1 170.9 52.4 171.7 52.4 C 172.7 52.4 173.4 51.9 173.4 51.1 C 173.4 50.4 172.6 50.1 171.6 49.7 C 170.6 49.4 169.6 49.1 169.6 48 C 169.6 47 170.5 46.3 171.7 46.3 C 172.4 46.3 173.1 46.5 173.5 46.9 Z M 179.6 46.4 L 180 46.4 C 180 46.4 180.07 48.04 180.1 48 C 180.5 46.9 181.6 46.3 182.6 46.3 C 184.1 46.3 185.5 47.6 185.5 49.6 C 185.5 51.6 184.1 52.9 182.6 52.9 C 181.6 52.9 180.5 52.3 180.1 51.3 C 180.11 51.25 180.1 55.4 180.1 55.4 L 179.6 55.4 L 179.6 46.4 Z M 185 49.6 C 185 47.9 183.9 46.8 182.5 46.8 C 181.2 46.8 180.1 47.9 180.1 49.6 C 180.1 51.3 181.2 52.4 182.5 52.4 C 183.9 52.4 185 51.3 185 49.6 Z M 186.9 49.6 C 186.9 47.6 188.3 46.3 189.8 46.3 C 190.8 46.3 191.8 46.9 192.3 48 C 192.28 48.02 192.4 46.4 192.4 46.4 L 192.7 46.4 L 192.7 52.8 L 192.4 52.8 C 192.4 52.8 192.28 51.2 192.3 51.2 C 191.8 52.4 190.8 52.9 189.8 52.9 C 188.3 52.9 186.9 51.6 186.9 49.6 Z M 192.3 49.6 C 192.3 47.9 191.2 46.8 189.8 46.8 C 188.5 46.8 187.4 47.9 187.4 49.6 C 187.4 51.3 188.5 52.4 189.8 52.4 C 191.1 52.4 192.3 51.3 192.3 49.6 Z M 195 46.4 L 195.4 46.4 L 195.5 47.6 C 195.5 47.6 195.49 47.62 195.5 47.6 C 195.9 46.7 196.7 46.4 197.4 46.4 C 197.5 46.4 197.7 46.4 197.8 46.4 C 197.8 46.4 197.8 46.9 197.8 46.9 C 197.7 46.9 197.5 46.9 197.4 46.9 C 196.5 46.9 195.5 47.5 195.5 48.8 C 195.53 48.77 195.5 52.8 195.5 52.8 L 195 52.8 L 195 46.4 Z M 198.3 49.6 C 198.3 47.6 199.7 46.3 201.2 46.3 C 202.2 46.3 203.3 46.9 203.7 48 C 203.74 48.02 203.8 46.4 203.8 46.4 L 204.2 46.4 L 204.2 52.8 L 203.8 52.8 C 203.8 52.8 203.74 51.2 203.7 51.2 C 203.3 52.4 202.2 52.9 201.2 52.9 C 199.7 52.9 198.3 51.6 198.3 49.6 Z M 203.7 49.6 C 203.7 47.9 202.6 46.8 201.3 46.8 C 200 46.8 198.8 47.9 198.8 49.6 C 198.8 51.3 200 52.4 201.3 52.4 C 202.6 52.4 203.7 51.3 203.7 49.6 Z M 210 46.9 C 210 46.9 210 47.4 210 47.4 C 209.5 47.1 208.9 46.8 208.2 46.8 C 207.3 46.8 206.6 47.3 206.6 48 C 206.6 48.7 207.3 49 208.3 49.3 C 209.3 49.7 210.3 50 210.3 51.1 C 210.3 52.2 209.5 52.9 208.2 52.9 C 207.4 52.9 206.7 52.7 206 52.2 C 206 52.2 206 51.5 206 51.5 C 206.6 52.1 207.3 52.4 208.2 52.4 C 209.2 52.4 209.8 51.9 209.8 51.1 C 209.8 50.4 209.1 50.1 208.1 49.7 C 207 49.4 206.1 49.1 206.1 48 C 206.1 47 207 46.3 208.2 46.3 C 208.9 46.3 209.5 46.5 210 46.9 Z M 212 44.1 C 212 43.9 212.2 43.7 212.4 43.7 C 212.6 43.7 212.8 43.9 212.8 44.1 C 212.8 44.3 212.6 44.5 212.4 44.5 C 212.2 44.5 212 44.3 212 44.1 Z M 212.1 46.4 L 212.6 46.4 L 212.6 52.8 L 212.1 52.8 L 212.1 46.4 Z M 215.6 46.4 L 217.5 46.4 L 217.5 46.9 L 215.6 46.9 C 215.6 46.9 215.64 50.8 215.6 50.8 C 215.6 52 216.3 52.4 217.2 52.4 C 217.4 52.4 217.5 52.4 217.7 52.4 C 217.7 52.4 217.7 52.8 217.7 52.8 C 217.6 52.8 217.4 52.9 217.1 52.9 C 216 52.9 215.1 52.2 215.1 50.8 C 215.14 50.82 215.1 46.9 215.1 46.9 L 214.2 46.9 L 214.2 46.4 L 215.2 46.4 L 215.2 44.9 L 215.6 44.9 L 215.6 46.4 Z M 224.1 49.8 C 224.1 49.8 219 49.8 219 49.8 C 219.1 51.4 220.2 52.4 221.6 52.4 C 222.4 52.4 223.2 52.2 223.9 51.5 C 223.9 51.5 223.9 52.1 223.9 52.1 C 223.2 52.6 222.4 52.9 221.6 52.9 C 219.8 52.9 218.5 51.6 218.5 49.6 C 218.5 47.6 220 46.3 221.5 46.3 C 222.9 46.3 224.1 47.4 224.1 49.5 C 224.1 49.6 224.1 49.7 224.1 49.8 Z M 223.6 49.3 C 223.6 47.6 222.6 46.8 221.5 46.8 C 220.3 46.8 219.2 47.8 219.1 49.3 C 219.1 49.3 223.6 49.3 223.6 49.3 Z M 225.9 46.4 L 226.3 46.4 L 226.4 47.6 C 226.4 47.6 226.39 47.62 226.4 47.6 C 226.8 46.7 227.6 46.4 228.3 46.4 C 228.4 46.4 228.6 46.4 228.7 46.4 C 228.7 46.4 228.7 46.9 228.7 46.9 C 228.6 46.9 228.4 46.9 228.3 46.9 C 227.4 46.9 226.4 47.5 226.4 48.8 C 226.43 48.77 226.4 52.8 226.4 52.8 L 225.9 52.8 L 225.9 46.4 Z M 233.7 43.3 L 234.2 43.3 L 234.2 52.8 L 233.7 52.8 L 233.7 43.3 Z M 236.7 44.3 C 236.74 44.33 236.7 43.9 236.7 43.9 L 237.2 43.9 C 237.2 43.9 237.24 44.32 237.2 44.3 C 237.2 45.3 236.8 46.3 236.6 46.9 C 236.6 46.9 236.2 46.9 236.2 46.9 C 236.4 46.3 236.7 45.3 236.7 44.3 Z M 238.3 49.6 C 238.3 47.7 239.7 46.3 241.4 46.3 C 243 46.3 244.4 47.7 244.4 49.6 C 244.4 51.6 243 52.9 241.4 52.9 C 239.7 52.9 238.3 51.6 238.3 49.6 Z M 243.9 49.6 C 243.9 47.8 242.7 46.8 241.4 46.8 C 240.1 46.8 238.8 47.8 238.8 49.6 C 238.8 51.4 240.1 52.4 241.4 52.4 C 242.7 52.4 243.9 51.4 243.9 49.6 Z M 246.7 48 C 247.2 46.9 248.2 46.3 249.2 46.3 C 250.7 46.3 252.1 47.6 252.1 49.6 C 252.1 51.6 250.7 52.9 249.2 52.9 C 248.2 52.9 247.2 52.4 246.7 51.2 C 246.7 51.19 246.6 52.8 246.6 52.8 L 246.2 52.8 L 246.2 43.3 L 246.7 43.3 C 246.7 43.3 246.73 47.99 246.7 48 Z M 246.7 49.6 C 246.7 51.3 247.8 52.4 249.2 52.4 C 250.5 52.4 251.6 51.3 251.6 49.6 C 251.6 47.9 250.5 46.8 249.2 46.8 C 247.8 46.8 246.7 47.9 246.7 49.6 Z M 253.8 44.1 C 253.8 43.9 254 43.7 254.2 43.7 C 254.5 43.7 254.6 43.9 254.6 44.1 C 254.6 44.3 254.5 44.5 254.2 44.5 C 254 44.5 253.8 44.3 253.8 44.1 Z M 254 52.1 C 253.99 52.12 254 46.4 254 46.4 L 254.5 46.4 C 254.5 46.4 254.49 52.13 254.5 52.1 C 254.5 53.6 254.2 54.5 253.5 55.4 C 253.5 55.4 252.9 55.4 252.9 55.4 C 253.6 54.6 254 53.6 254 52.1 Z M 261.9 49.8 C 261.9 49.8 256.9 49.8 256.9 49.8 C 257 51.4 258 52.4 259.4 52.4 C 260.2 52.4 261 52.2 261.7 51.5 C 261.7 51.5 261.7 52.1 261.7 52.1 C 261 52.6 260.2 52.9 259.4 52.9 C 257.6 52.9 256.4 51.6 256.4 49.6 C 256.4 47.6 257.8 46.3 259.3 46.3 C 260.7 46.3 261.9 47.4 261.9 49.5 C 261.9 49.6 261.9 49.7 261.9 49.8 Z M 261.4 49.3 C 261.4 47.6 260.4 46.8 259.3 46.8 C 258.1 46.8 257 47.8 256.9 49.3 C 256.9 49.3 261.4 49.3 261.4 49.3 Z M 264.4 46.4 L 266.3 46.4 L 266.3 46.9 L 264.4 46.9 C 264.4 46.9 264.37 50.8 264.4 50.8 C 264.4 52 265 52.4 265.9 52.4 C 266.1 52.4 266.3 52.4 266.4 52.4 C 266.4 52.4 266.4 52.8 266.4 52.8 C 266.4 52.8 266.1 52.9 265.8 52.9 C 264.7 52.9 263.9 52.2 263.9 50.8 C 263.87 50.82 263.9 46.9 263.9 46.9 L 262.9 46.9 L 262.9 46.4 L 263.9 46.4 L 263.9 44.9 L 264.4 44.9 L 264.4 46.4 Z M 271.3 49.6 C 271.3 47.6 272.7 46.3 274.2 46.3 C 275.2 46.3 276.2 46.9 276.7 48 C 276.68 48.02 276.8 46.4 276.8 46.4 L 277.1 46.4 L 277.1 52.8 L 276.8 52.8 C 276.8 52.8 276.68 51.2 276.7 51.2 C 276.2 52.4 275.2 52.9 274.2 52.9 C 272.7 52.9 271.3 51.6 271.3 49.6 Z M 276.7 49.6 C 276.7 47.9 275.6 46.8 274.2 46.8 C 272.9 46.8 271.8 47.9 271.8 49.6 C 271.8 51.3 272.9 52.4 274.2 52.4 C 275.5 52.4 276.7 51.3 276.7 49.6 Z M 278.7 46.4 L 279.2 46.4 L 281.3 52.2 L 281.3 52.2 L 283.4 46.4 L 284 46.4 L 281.6 52.8 L 281.1 52.8 L 278.7 46.4 Z M 290.4 49.8 C 290.4 49.8 285.4 49.8 285.4 49.8 C 285.4 51.4 286.5 52.4 287.9 52.4 C 288.7 52.4 289.5 52.2 290.2 51.5 C 290.2 51.5 290.2 52.1 290.2 52.1 C 289.5 52.6 288.7 52.9 287.9 52.9 C 286.1 52.9 284.9 51.6 284.9 49.6 C 284.9 47.6 286.3 46.3 287.8 46.3 C 289.2 46.3 290.4 47.4 290.4 49.5 C 290.4 49.6 290.4 49.7 290.4 49.8 Z M 289.9 49.3 C 289.9 47.6 288.9 46.8 287.8 46.8 C 286.6 46.8 285.5 47.8 285.4 49.3 C 285.4 49.3 289.9 49.3 289.9 49.3 Z M 294.9 52.4 C 295.4 52.4 296 52.3 296.6 51.9 C 296.6 51.9 296.6 52.5 296.6 52.5 C 296.1 52.8 295.5 52.9 294.9 52.9 C 293.1 52.9 291.8 51.5 291.8 49.6 C 291.8 47.7 293.1 46.3 294.8 46.3 C 295.4 46.3 296 46.4 296.6 46.8 C 296.6 46.8 296.6 47.3 296.6 47.3 C 296 46.9 295.4 46.8 294.8 46.8 C 293.5 46.8 292.3 47.9 292.3 49.6 C 292.3 51.3 293.5 52.4 294.9 52.4 Z M 302.3 50.5 C 302.27 50.48 302.3 46.4 302.3 46.4 L 302.8 46.4 C 302.8 46.4 302.77 50.51 302.8 50.5 C 302.8 51.7 303.5 52.4 304.7 52.4 C 305.8 52.4 306.6 51.7 306.6 50.5 C 306.56 50.5 306.6 46.4 306.6 46.4 L 307.1 46.4 C 307.1 46.4 307.06 50.47 307.1 50.5 C 307.1 51.9 306.1 52.9 304.7 52.9 C 303.2 52.9 302.3 51.9 302.3 50.5 Z M 314 48.6 C 314.05 48.56 314 52.8 314 52.8 L 313.5 52.8 C 313.5 52.8 313.55 48.77 313.5 48.8 C 313.5 47.5 312.9 46.8 311.7 46.8 C 310.7 46.8 309.8 47.5 309.8 48.7 C 309.76 48.71 309.8 52.8 309.8 52.8 L 309.3 52.8 L 309.3 46.4 L 309.7 46.4 L 309.7 47.6 C 309.7 47.6 309.73 47.56 309.7 47.6 C 310.1 46.8 310.8 46.3 311.8 46.3 C 313.2 46.3 314 47.2 314 48.6 Z M 323.8 46.9 C 323.8 46.9 323.8 47.4 323.8 47.4 C 323.3 47.1 322.7 46.8 322 46.8 C 321 46.8 320.4 47.3 320.4 48 C 320.4 48.7 321.1 49 322.1 49.3 C 323.1 49.7 324.1 50 324.1 51.1 C 324.1 52.2 323.2 52.9 321.9 52.9 C 321.2 52.9 320.4 52.7 319.8 52.2 C 319.8 52.2 319.8 51.5 319.8 51.5 C 320.3 52.1 321.1 52.4 321.9 52.4 C 323 52.4 323.6 51.9 323.6 51.1 C 323.6 50.4 322.9 50.1 321.9 49.7 C 320.8 49.4 319.9 49.1 319.9 48 C 319.9 47 320.7 46.3 322 46.3 C 322.7 46.3 323.3 46.5 323.8 46.9 Z M 325.8 50.5 C 325.77 50.48 325.8 46.4 325.8 46.4 L 326.3 46.4 C 326.3 46.4 326.27 50.51 326.3 50.5 C 326.3 51.7 327 52.4 328.2 52.4 C 329.3 52.4 330.1 51.7 330.1 50.5 C 330.07 50.5 330.1 46.4 330.1 46.4 L 330.6 46.4 C 330.6 46.4 330.57 50.47 330.6 50.5 C 330.6 51.9 329.6 52.9 328.2 52.9 C 326.7 52.9 325.8 51.9 325.8 50.5 Z M 332.8 46.4 L 333.2 46.4 L 333.2 47.6 C 333.2 47.6 333.23 47.62 333.2 47.6 C 333.6 46.7 334.5 46.4 335.1 46.4 C 335.3 46.4 335.4 46.4 335.5 46.4 C 335.5 46.4 335.5 46.9 335.5 46.9 C 335.4 46.9 335.3 46.9 335.1 46.9 C 334.2 46.9 333.3 47.5 333.3 48.8 C 333.27 48.77 333.3 52.8 333.3 52.8 L 332.8 52.8 L 332.8 46.4 Z M 336.3 48.9 L 339.1 48.9 L 339.1 49.4 L 336.3 49.4 L 336.3 48.9 Z " stroke="none" fill="#000"/>
  </g>
  <g id="Polygon25945">
    <path d="M 1.4 32.5 L 0.4 32.5 L 0.4 32 L 1.4 32 C 1.4 32 1.37 30.8 1.4 30.8 C 1.4 29.5 2.2 28.8 3.3 28.8 C 3.6 28.8 4 28.9 4.2 29 C 4.2 29 4.2 29.5 4.2 29.5 C 4 29.4 3.6 29.3 3.3 29.3 C 2.4 29.3 1.9 29.8 1.9 30.9 C 1.88 30.89 1.9 32 1.9 32 L 3.8 32 L 3.8 32.5 L 1.9 32.5 L 1.9 38.4 L 1.4 38.4 L 1.4 32.5 Z M 4.4 35.2 C 4.4 33.2 5.8 31.9 7.3 31.9 C 8.4 31.9 9.4 32.5 9.9 33.6 C 9.85 33.62 9.9 32 9.9 32 L 10.3 32 L 10.3 38.4 L 9.9 38.4 C 9.9 38.4 9.85 36.8 9.9 36.8 C 9.4 38 8.4 38.5 7.4 38.5 C 5.8 38.5 4.4 37.2 4.4 35.2 Z M 9.8 35.2 C 9.8 33.5 8.7 32.4 7.4 32.4 C 6.1 32.4 4.9 33.5 4.9 35.2 C 4.9 36.9 6.1 38 7.4 38 C 8.7 38 9.8 36.9 9.8 35.2 Z M 12.5 29.7 C 12.5 29.5 12.7 29.3 12.9 29.3 C 13.1 29.3 13.3 29.5 13.3 29.7 C 13.3 29.9 13.1 30.1 12.9 30.1 C 12.7 30.1 12.5 29.9 12.5 29.7 Z M 12.6 32 L 13.1 32 L 13.1 38.4 L 12.6 38.4 L 12.6 32 Z M 15.5 32 L 15.9 32 L 15.9 33.2 C 15.9 33.2 15.92 33.22 15.9 33.2 C 16.3 32.3 17.2 32 17.8 32 C 17.9 32 18.1 32 18.2 32 C 18.2 32 18.2 32.5 18.2 32.5 C 18.1 32.5 17.9 32.5 17.8 32.5 C 16.9 32.5 16 33.1 16 34.4 C 15.96 34.37 16 38.4 16 38.4 L 15.5 38.4 L 15.5 32 Z M 24.3 35.4 C 24.3 35.4 19.3 35.4 19.3 35.4 C 19.4 37 20.4 38 21.8 38 C 22.6 38 23.4 37.8 24.1 37.1 C 24.1 37.1 24.1 37.7 24.1 37.7 C 23.4 38.2 22.6 38.5 21.8 38.5 C 20 38.5 18.8 37.2 18.8 35.2 C 18.8 33.2 20.2 31.9 21.7 31.9 C 23.1 31.9 24.3 33 24.3 35.1 C 24.3 35.2 24.3 35.3 24.3 35.4 Z M 23.8 34.9 C 23.8 33.2 22.8 32.4 21.7 32.4 C 20.5 32.4 19.4 33.4 19.3 34.9 C 19.3 34.9 23.8 34.9 23.8 34.9 Z M 29 35.2 C 29 33.2 30.4 31.9 31.9 31.9 C 32.9 31.9 33.9 32.5 34.3 33.6 C 34.35 33.58 34.3 28.9 34.3 28.9 L 34.9 28.9 L 34.9 38.4 L 34.5 38.4 L 34.4 36.8 C 34.4 36.8 34.37 36.79 34.4 36.8 C 33.9 38 32.9 38.5 31.9 38.5 C 30.4 38.5 29 37.2 29 35.2 Z M 34.4 35.2 C 34.4 33.5 33.2 32.4 31.9 32.4 C 30.6 32.4 29.5 33.5 29.5 35.2 C 29.5 36.9 30.6 38 31.9 38 C 33.2 38 34.4 36.9 34.4 35.2 Z M 39.4 30.9 L 38.9 30.9 L 40.4 29 L 41 29 L 39.4 30.9 Z M 42.2 35.4 C 42.2 35.4 37.2 35.4 37.2 35.4 C 37.3 37 38.3 38 39.7 38 C 40.5 38 41.3 37.8 42 37.1 C 42 37.1 42 37.7 42 37.7 C 41.3 38.2 40.6 38.5 39.7 38.5 C 37.9 38.5 36.7 37.2 36.7 35.2 C 36.7 33.2 38.1 31.9 39.6 31.9 C 41.1 31.9 42.3 33 42.3 35.1 C 42.3 35.2 42.3 35.3 42.2 35.4 Z M 41.8 34.9 C 41.7 33.2 40.7 32.4 39.6 32.4 C 38.4 32.4 37.3 33.4 37.2 34.9 C 37.2 34.9 41.8 34.9 41.8 34.9 Z M 44.3 32.5 L 43.3 32.5 L 43.3 32 L 44.2 32 C 44.2 32 44.25 30.8 44.2 30.8 C 44.2 29.5 45.1 28.8 46.2 28.8 C 46.5 28.8 46.9 28.9 47.1 29 C 47.1 29 47.1 29.5 47.1 29.5 C 46.9 29.4 46.5 29.3 46.2 29.3 C 45.3 29.3 44.8 29.8 44.8 30.9 C 44.76 30.89 44.8 32 44.8 32 L 46.7 32 L 46.7 32.5 L 44.8 32.5 L 44.8 38.4 L 44.3 38.4 L 44.3 32.5 Z M 48.1 29.7 C 48.1 29.5 48.2 29.3 48.5 29.3 C 48.7 29.3 48.9 29.5 48.9 29.7 C 48.9 29.9 48.7 30.1 48.5 30.1 C 48.2 30.1 48.1 29.9 48.1 29.7 Z M 48.2 32 L 48.7 32 L 48.7 38.4 L 48.2 38.4 L 48.2 32 Z M 51.1 28.9 L 51.6 28.9 L 51.6 38.4 L 51.1 38.4 L 51.1 28.9 Z M 59 35.4 C 59 35.4 54 35.4 54 35.4 C 54 37 55.1 38 56.5 38 C 57.3 38 58.1 37.8 58.8 37.1 C 58.8 37.1 58.8 37.7 58.8 37.7 C 58.1 38.2 57.3 38.5 56.5 38.5 C 54.7 38.5 53.5 37.2 53.5 35.2 C 53.5 33.2 54.9 31.9 56.4 31.9 C 57.8 31.9 59 33 59 35.1 C 59 35.2 59 35.3 59 35.4 Z M 58.5 34.9 C 58.5 33.2 57.5 32.4 56.4 32.4 C 55.2 32.4 54.1 33.4 54 34.9 C 54 34.9 58.5 34.9 58.5 34.9 Z M 60.8 32 L 61.2 32 L 61.3 33.2 C 61.3 33.2 61.3 33.22 61.3 33.2 C 61.7 32.3 62.5 32 63.2 32 C 63.3 32 63.5 32 63.6 32 C 63.6 32 63.6 32.5 63.6 32.5 C 63.5 32.5 63.3 32.5 63.2 32.5 C 62.3 32.5 61.3 33.1 61.3 34.4 C 61.34 34.37 61.3 38.4 61.3 38.4 L 60.8 38.4 L 60.8 32 Z M 67.9 28.9 L 68.4 28.9 L 68.4 38.4 L 67.9 38.4 L 67.9 28.9 Z M 70.3 35.2 C 70.3 33.2 71.7 31.9 73.2 31.9 C 74.2 31.9 75.2 32.5 75.7 33.6 C 75.68 33.62 75.8 32 75.8 32 L 76.1 32 L 76.1 38.4 L 75.8 38.4 C 75.8 38.4 75.68 36.8 75.7 36.8 C 75.2 38 74.2 38.5 73.2 38.5 C 71.7 38.5 70.3 37.2 70.3 35.2 Z M 75.7 35.2 C 75.7 33.5 74.6 32.4 73.2 32.4 C 71.9 32.4 70.8 33.5 70.8 35.2 C 70.8 36.9 71.9 38 73.2 38 C 74.5 38 75.7 36.9 75.7 35.2 Z M 85.3 32.5 C 85.3 32.5 85.3 33 85.3 33 C 84.7 32.7 84.1 32.4 83.4 32.4 C 82.5 32.4 81.9 32.9 81.9 33.6 C 81.9 34.3 82.5 34.6 83.5 34.9 C 84.6 35.3 85.6 35.6 85.6 36.7 C 85.6 37.8 84.7 38.5 83.4 38.5 C 82.6 38.5 81.9 38.3 81.3 37.8 C 81.3 37.8 81.3 37.1 81.3 37.1 C 81.8 37.7 82.6 38 83.4 38 C 84.4 38 85.1 37.5 85.1 36.7 C 85.1 36 84.3 35.7 83.3 35.3 C 82.3 35 81.4 34.7 81.4 33.6 C 81.4 32.6 82.2 31.9 83.4 31.9 C 84.1 31.9 84.8 32.1 85.3 32.5 Z M 89.6 30.9 L 89.1 30.9 L 90.6 29 L 91.1 29 L 89.6 30.9 Z M 92.4 35.4 C 92.4 35.4 87.4 35.4 87.4 35.4 C 87.5 37 88.5 38 89.9 38 C 90.7 38 91.5 37.8 92.2 37.1 C 92.2 37.1 92.2 37.7 92.2 37.7 C 91.5 38.2 90.7 38.5 89.9 38.5 C 88.1 38.5 86.9 37.2 86.9 35.2 C 86.9 33.2 88.3 31.9 89.8 31.9 C 91.2 31.9 92.5 33 92.5 35.1 C 92.5 35.2 92.4 35.3 92.4 35.4 Z M 91.9 34.9 C 91.9 33.2 90.9 32.4 89.8 32.4 C 88.6 32.4 87.5 33.4 87.4 34.9 C 87.4 34.9 91.9 34.9 91.9 34.9 Z M 94.3 28.9 L 94.8 28.9 L 94.8 38.4 L 94.3 38.4 L 94.3 28.9 Z M 102.2 35.4 C 102.2 35.4 97.2 35.4 97.2 35.4 C 97.2 37 98.3 38 99.7 38 C 100.5 38 101.3 37.8 102 37.1 C 102 37.1 102 37.7 102 37.7 C 101.3 38.2 100.5 38.5 99.7 38.5 C 97.9 38.5 96.7 37.2 96.7 35.2 C 96.7 33.2 98.1 31.9 99.6 31.9 C 101 31.9 102.2 33 102.2 35.1 C 102.2 35.2 102.2 35.3 102.2 35.4 Z M 101.7 34.9 C 101.7 33.2 100.7 32.4 99.6 32.4 C 98.4 32.4 97.3 33.4 97.2 34.9 C 97.2 34.9 101.7 34.9 101.7 34.9 Z M 106.7 38 C 107.2 38 107.8 37.9 108.4 37.5 C 108.4 37.5 108.4 38.1 108.4 38.1 C 107.9 38.4 107.3 38.5 106.7 38.5 C 104.9 38.5 103.6 37.1 103.6 35.2 C 103.6 33.3 104.9 31.9 106.7 31.9 C 107.2 31.9 107.8 32 108.4 32.4 C 108.4 32.4 108.4 32.9 108.4 32.9 C 107.8 32.5 107.2 32.4 106.6 32.4 C 105.3 32.4 104.1 33.5 104.1 35.2 C 104.1 36.9 105.3 38 106.7 38 Z M 110.8 32 L 112.7 32 L 112.7 32.5 L 110.8 32.5 C 110.8 32.5 110.85 36.4 110.8 36.4 C 110.8 37.6 111.5 38 112.4 38 C 112.6 38 112.7 38 112.9 38 C 112.9 38 112.9 38.4 112.9 38.4 C 112.8 38.4 112.6 38.5 112.3 38.5 C 111.2 38.5 110.3 37.8 110.3 36.4 C 110.34 36.42 110.3 32.5 110.3 32.5 L 109.4 32.5 L 109.4 32 L 110.4 32 L 110.4 30.5 L 110.8 30.5 L 110.8 32 Z M 114.2 29.7 C 114.2 29.5 114.3 29.3 114.6 29.3 C 114.8 29.3 115 29.5 115 29.7 C 115 29.9 114.8 30.1 114.6 30.1 C 114.3 30.1 114.2 29.9 114.2 29.7 Z M 114.3 32 L 114.8 32 L 114.8 38.4 L 114.3 38.4 L 114.3 32 Z M 116.7 35.2 C 116.7 33.3 118 31.9 119.7 31.9 C 121.4 31.9 122.8 33.3 122.8 35.2 C 122.8 37.2 121.4 38.5 119.7 38.5 C 118.1 38.5 116.7 37.2 116.7 35.2 Z M 122.3 35.2 C 122.3 33.4 121 32.4 119.7 32.4 C 118.4 32.4 117.2 33.4 117.2 35.2 C 117.2 37 118.4 38 119.7 38 C 121 38 122.3 37 122.3 35.2 Z M 129.4 34.2 C 129.37 34.16 129.4 38.4 129.4 38.4 L 128.9 38.4 C 128.9 38.4 128.87 34.37 128.9 34.4 C 128.9 33.1 128.2 32.4 127.1 32.4 C 126 32.4 125.1 33.1 125.1 34.3 C 125.09 34.31 125.1 38.4 125.1 38.4 L 124.6 38.4 L 124.6 32 L 125 32 L 125 33.2 C 125 33.2 125.05 33.16 125.1 33.2 C 125.4 32.4 126.2 31.9 127.1 31.9 C 128.5 31.9 129.4 32.8 129.4 34.2 Z M 131.5 37.4 C 131.49 37.44 131.5 37 131.5 37 L 132 37 C 132 37 131.99 37.43 132 37.4 C 132 38.4 131.6 39.4 131.4 40 C 131.4 40 130.9 40 130.9 40 C 131.2 39.4 131.5 38.4 131.5 37.4 Z M 137.4 32 L 137.8 32 C 137.8 32 137.87 33.64 137.9 33.6 C 138.3 32.5 139.4 31.9 140.4 31.9 C 141.9 31.9 143.3 33.2 143.3 35.2 C 143.3 37.2 141.9 38.5 140.4 38.5 C 139.4 38.5 138.3 37.9 137.9 36.9 C 137.91 36.85 137.9 41 137.9 41 L 137.4 41 L 137.4 32 Z M 142.8 35.2 C 142.8 33.5 141.7 32.4 140.3 32.4 C 139 32.4 137.9 33.5 137.9 35.2 C 137.9 36.9 139 38 140.3 38 C 141.7 38 142.8 36.9 142.8 35.2 Z M 145 36.1 C 145.04 36.08 145 32 145 32 L 145.5 32 C 145.5 32 145.54 36.11 145.5 36.1 C 145.5 37.3 146.3 38 147.4 38 C 148.6 38 149.3 37.3 149.3 36.1 C 149.34 36.1 149.3 32 149.3 32 L 149.8 32 C 149.8 32 149.84 36.07 149.8 36.1 C 149.8 37.5 148.9 38.5 147.4 38.5 C 146 38.5 145 37.5 145 36.1 Z M 151.9 29.7 C 151.9 29.5 152.1 29.3 152.3 29.3 C 152.6 29.3 152.7 29.5 152.7 29.7 C 152.7 29.9 152.6 30.1 152.3 30.1 C 152.1 30.1 151.9 29.9 151.9 29.7 Z M 152.1 32 L 152.6 32 L 152.6 38.4 L 152.1 38.4 L 152.1 32 Z M 158.4 32.5 C 158.4 32.5 158.4 33 158.4 33 C 157.9 32.7 157.3 32.4 156.6 32.4 C 155.7 32.4 155 32.9 155 33.6 C 155 34.3 155.7 34.6 156.7 34.9 C 157.7 35.3 158.8 35.6 158.8 36.7 C 158.8 37.8 157.9 38.5 156.6 38.5 C 155.8 38.5 155.1 38.3 154.4 37.8 C 154.4 37.8 154.4 37.1 154.4 37.1 C 155 37.7 155.8 38 156.6 38 C 157.6 38 158.3 37.5 158.3 36.7 C 158.3 36 157.5 35.7 156.5 35.3 C 155.5 35 154.5 34.7 154.5 33.6 C 154.5 32.6 155.4 31.9 156.6 31.9 C 157.3 31.9 158 32.1 158.4 32.5 Z M 162.8 32 L 163.3 32 L 165.4 37.8 L 165.4 37.8 L 167.5 32 L 168 32 L 165.7 38.4 L 165.1 38.4 L 162.8 32 Z M 168.9 35.2 C 168.9 33.2 170.3 31.9 171.8 31.9 C 172.8 31.9 173.9 32.5 174.3 33.6 C 174.32 33.62 174.4 32 174.4 32 L 174.8 32 L 174.8 38.4 L 174.4 38.4 C 174.4 38.4 174.32 36.8 174.3 36.8 C 173.9 38 172.8 38.5 171.8 38.5 C 170.3 38.5 168.9 37.2 168.9 35.2 Z M 174.3 35.2 C 174.3 33.5 173.2 32.4 171.9 32.4 C 170.5 32.4 169.4 33.5 169.4 35.2 C 169.4 36.9 170.6 38 171.9 38 C 173.2 38 174.3 36.9 174.3 35.2 Z M 177.1 28.9 L 177.6 28.9 L 177.6 38.4 L 177.1 38.4 L 177.1 28.9 Z M 179.8 29.7 C 179.8 29.5 180 29.3 180.2 29.3 C 180.5 29.3 180.6 29.5 180.6 29.7 C 180.6 29.9 180.5 30.1 180.2 30.1 C 180 30.1 179.8 29.9 179.8 29.7 Z M 180 32 L 180.5 32 L 180.5 38.4 L 180 38.4 L 180 32 Z M 182.3 35.2 C 182.3 33.2 183.7 31.9 185.2 31.9 C 186.3 31.9 187.3 32.5 187.7 33.6 C 187.72 33.58 187.7 28.9 187.7 28.9 L 188.2 28.9 L 188.2 38.4 L 187.8 38.4 L 187.8 36.8 C 187.8 36.8 187.74 36.79 187.7 36.8 C 187.3 38 186.3 38.5 185.2 38.5 C 183.7 38.5 182.3 37.2 182.3 35.2 Z M 187.7 35.2 C 187.7 33.5 186.6 32.4 185.3 32.4 C 184 32.4 182.8 33.5 182.8 35.2 C 182.8 36.9 184 38 185.3 38 C 186.6 38 187.7 36.9 187.7 35.2 Z M 195.6 35.4 C 195.6 35.4 190.6 35.4 190.6 35.4 C 190.6 37 191.7 38 193.1 38 C 193.9 38 194.7 37.8 195.4 37.1 C 195.4 37.1 195.4 37.7 195.4 37.7 C 194.7 38.2 193.9 38.5 193.1 38.5 C 191.3 38.5 190.1 37.2 190.1 35.2 C 190.1 33.2 191.5 31.9 193 31.9 C 194.4 31.9 195.6 33 195.6 35.1 C 195.6 35.2 195.6 35.3 195.6 35.4 Z M 195.1 34.9 C 195.1 33.2 194.1 32.4 193 32.4 C 191.8 32.4 190.7 33.4 190.6 34.9 C 190.6 34.9 195.1 34.9 195.1 34.9 Z M 197.4 32 L 197.8 32 L 197.9 33.2 C 197.9 33.2 197.9 33.22 197.9 33.2 C 198.3 32.3 199.1 32 199.8 32 C 199.9 32 200.1 32 200.2 32 C 200.2 32 200.2 32.5 200.2 32.5 C 200.1 32.5 199.9 32.5 199.8 32.5 C 198.9 32.5 198 33.1 197.9 34.4 C 197.94 34.37 197.9 38.4 197.9 38.4 L 197.4 38.4 L 197.4 32 Z M 200.7 38 C 200.7 37.7 200.9 37.5 201.2 37.5 C 201.5 37.5 201.7 37.7 201.7 38 C 201.7 38.2 201.5 38.4 201.2 38.4 C 200.9 38.4 200.7 38.2 200.7 38 Z M 207.2 29.5 L 207.7 29.5 L 207.7 37.9 L 211.8 37.9 L 211.8 38.4 L 207.2 38.4 L 207.2 29.5 Z M 212.1 29.9 C 212.11 29.93 212.1 29.5 212.1 29.5 L 212.6 29.5 C 212.6 29.5 212.61 29.92 212.6 29.9 C 212.6 30.9 212.2 31.9 212 32.5 C 212 32.5 211.6 32.5 211.6 32.5 C 211.8 31.9 212.1 30.9 212.1 29.9 Z M 216.4 30.9 L 215.9 30.9 L 217.4 29 L 218 29 L 216.4 30.9 Z M 219.3 35.4 C 219.3 35.4 214.2 35.4 214.2 35.4 C 214.3 37 215.3 38 216.8 38 C 217.5 38 218.3 37.8 219 37.1 C 219 37.1 219 37.7 219 37.7 C 218.4 38.2 217.6 38.5 216.7 38.5 C 214.9 38.5 213.7 37.2 213.7 35.2 C 213.7 33.2 215.1 31.9 216.7 31.9 C 218.1 31.9 219.3 33 219.3 35.1 C 219.3 35.2 219.3 35.3 219.3 35.4 Z M 218.8 34.9 C 218.8 33.2 217.7 32.4 216.7 32.4 C 215.4 32.4 214.3 33.4 214.2 34.9 C 214.2 34.9 218.8 34.9 218.8 34.9 Z M 223.7 38 C 224.2 38 224.9 37.9 225.4 37.5 C 225.4 37.5 225.4 38.1 225.4 38.1 C 224.9 38.4 224.3 38.5 223.7 38.5 C 222 38.5 220.6 37.1 220.6 35.2 C 220.6 33.3 222 31.9 223.7 31.9 C 224.3 31.9 224.9 32 225.4 32.4 C 225.4 32.4 225.4 32.9 225.4 32.9 C 224.9 32.5 224.3 32.4 223.7 32.4 C 222.4 32.4 221.1 33.5 221.1 35.2 C 221.1 36.9 222.4 38 223.7 38 Z M 227.2 32 L 227.6 32 L 227.7 33.2 C 227.7 33.2 227.67 33.22 227.7 33.2 C 228.1 32.3 228.9 32 229.6 32 C 229.7 32 229.8 32 229.9 32 C 229.9 32 229.9 32.5 229.9 32.5 C 229.8 32.5 229.7 32.5 229.6 32.5 C 228.7 32.5 227.7 33.1 227.7 34.4 C 227.7 34.37 227.7 38.4 227.7 38.4 L 227.2 38.4 L 227.2 32 Z M 230.5 35.2 C 230.5 33.2 231.9 31.9 233.4 31.9 C 234.4 31.9 235.4 32.5 235.9 33.6 C 235.91 33.62 236 32 236 32 L 236.4 32 L 236.4 38.4 L 236 38.4 C 236 38.4 235.91 36.8 235.9 36.8 C 235.4 38 234.4 38.5 233.4 38.5 C 231.9 38.5 230.5 37.2 230.5 35.2 Z M 235.9 35.2 C 235.9 33.5 234.8 32.4 233.5 32.4 C 232.1 32.4 231 33.5 231 35.2 C 231 36.9 232.1 38 233.5 38 C 234.8 38 235.9 36.9 235.9 35.2 Z M 243.4 34.2 C 243.45 34.16 243.4 38.4 243.4 38.4 L 242.9 38.4 C 242.9 38.4 242.95 34.37 242.9 34.4 C 242.9 33.1 242.3 32.4 241.1 32.4 C 240.1 32.4 239.2 33.1 239.2 34.3 C 239.16 34.31 239.2 38.4 239.2 38.4 L 238.7 38.4 L 238.7 32 L 239.1 32 L 239.1 33.2 C 239.1 33.2 239.13 33.16 239.1 33.2 C 239.5 32.4 240.2 31.9 241.2 31.9 C 242.6 31.9 243.4 32.8 243.4 34.2 Z M 248.9 32 L 249.3 32 C 249.3 32 249.38 33.64 249.4 33.6 C 249.8 32.5 250.9 31.9 251.9 31.9 C 253.4 31.9 254.8 33.2 254.8 35.2 C 254.8 37.2 253.4 38.5 251.9 38.5 C 250.9 38.5 249.8 37.9 249.4 36.9 C 249.42 36.85 249.4 41 249.4 41 L 248.9 41 L 248.9 32 Z M 254.3 35.2 C 254.3 33.5 253.2 32.4 251.9 32.4 C 250.5 32.4 249.4 33.5 249.4 35.2 C 249.4 36.9 250.5 38 251.8 38 C 253.2 38 254.3 36.9 254.3 35.2 Z M 256.2 35.2 C 256.2 33.3 257.5 31.9 259.2 31.9 C 260.9 31.9 262.3 33.3 262.3 35.2 C 262.3 37.2 260.9 38.5 259.2 38.5 C 257.6 38.5 256.2 37.2 256.2 35.2 Z M 261.8 35.2 C 261.8 33.4 260.5 32.4 259.2 32.4 C 257.9 32.4 256.7 33.4 256.7 35.2 C 256.7 37 257.9 38 259.2 38 C 260.5 38 261.8 37 261.8 35.2 Z M 267.6 32.5 C 267.6 32.5 267.6 33 267.6 33 C 267.1 32.7 266.5 32.4 265.8 32.4 C 264.9 32.4 264.2 32.9 264.2 33.6 C 264.2 34.3 264.9 34.6 265.9 34.9 C 266.9 35.3 267.9 35.6 267.9 36.7 C 267.9 37.8 267.1 38.5 265.8 38.5 C 265 38.5 264.3 38.3 263.6 37.8 C 263.6 37.8 263.6 37.1 263.6 37.1 C 264.2 37.7 264.9 38 265.8 38 C 266.8 38 267.4 37.5 267.4 36.7 C 267.4 36 266.7 35.7 265.7 35.3 C 264.6 35 263.7 34.7 263.7 33.6 C 263.7 32.6 264.6 31.9 265.8 31.9 C 266.5 31.9 267.1 32.1 267.6 32.5 Z M 273.2 32.5 C 273.2 32.5 273.2 33 273.2 33 C 272.7 32.7 272.1 32.4 271.4 32.4 C 270.5 32.4 269.9 32.9 269.9 33.6 C 269.9 34.3 270.5 34.6 271.5 34.9 C 272.6 35.3 273.6 35.6 273.6 36.7 C 273.6 37.8 272.7 38.5 271.4 38.5 C 270.6 38.5 269.9 38.3 269.3 37.8 C 269.3 37.8 269.3 37.1 269.3 37.1 C 269.8 37.7 270.6 38 271.4 38 C 272.4 38 273.1 37.5 273.1 36.7 C 273.1 36 272.3 35.7 271.3 35.3 C 270.3 35 269.3 34.7 269.3 33.6 C 269.3 32.6 270.2 31.9 271.4 31.9 C 272.1 31.9 272.8 32.1 273.2 32.5 Z M 278 30.9 L 276.5 29 L 277.1 29 L 278.5 30.9 L 278 30.9 Z M 280.4 35.4 C 280.4 35.4 275.4 35.4 275.4 35.4 C 275.5 37 276.5 38 277.9 38 C 278.7 38 279.5 37.8 280.2 37.1 C 280.2 37.1 280.2 37.7 280.2 37.7 C 279.5 38.2 278.7 38.5 277.9 38.5 C 276.1 38.5 274.9 37.2 274.9 35.2 C 274.9 33.2 276.3 31.9 277.8 31.9 C 279.2 31.9 280.4 33 280.4 35.1 C 280.4 35.2 280.4 35.3 280.4 35.4 Z M 279.9 34.9 C 279.9 33.2 278.9 32.4 277.8 32.4 C 276.6 32.4 275.5 33.4 275.4 34.9 C 275.4 34.9 279.9 34.9 279.9 34.9 Z M 281.8 35.2 C 281.8 33.2 283.2 31.9 284.7 31.9 C 285.7 31.9 286.7 32.5 287.2 33.6 C 287.18 33.58 287.2 28.9 287.2 28.9 L 287.7 28.9 L 287.7 38.4 L 287.3 38.4 L 287.2 36.8 C 287.2 36.8 287.21 36.79 287.2 36.8 C 286.7 38 285.7 38.5 284.7 38.5 C 283.2 38.5 281.8 37.2 281.8 35.2 Z M 287.2 35.2 C 287.2 33.5 286.1 32.4 284.8 32.4 C 283.4 32.4 282.3 33.5 282.3 35.2 C 282.3 36.9 283.4 38 284.8 38 C 286.1 38 287.2 36.9 287.2 35.2 Z M 295.1 35.4 C 295.1 35.4 290 35.4 290 35.4 C 290.1 37 291.1 38 292.6 38 C 293.3 38 294.2 37.8 294.8 37.1 C 294.8 37.1 294.8 37.7 294.8 37.7 C 294.2 38.2 293.4 38.5 292.6 38.5 C 290.8 38.5 289.5 37.2 289.5 35.2 C 289.5 33.2 290.9 31.9 292.5 31.9 C 293.9 31.9 295.1 33 295.1 35.1 C 295.1 35.2 295.1 35.3 295.1 35.4 Z M 294.6 34.9 C 294.6 33.2 293.6 32.4 292.5 32.4 C 291.3 32.4 290.1 33.4 290 34.9 C 290 34.9 294.6 34.9 294.6 34.9 Z M 300.1 36.1 C 300.09 36.08 300.1 32 300.1 32 L 300.6 32 C 300.6 32 300.59 36.11 300.6 36.1 C 300.6 37.3 301.3 38 302.5 38 C 303.6 38 304.4 37.3 304.4 36.1 C 304.38 36.1 304.4 32 304.4 32 L 304.9 32 C 304.9 32 304.89 36.07 304.9 36.1 C 304.9 37.5 304 38.5 302.5 38.5 C 301 38.5 300.1 37.5 300.1 36.1 Z M 311.9 34.2 C 311.87 34.16 311.9 38.4 311.9 38.4 L 311.4 38.4 C 311.4 38.4 311.37 34.37 311.4 34.4 C 311.4 33.1 310.7 32.4 309.6 32.4 C 308.5 32.4 307.6 33.1 307.6 34.3 C 307.58 34.31 307.6 38.4 307.6 38.4 L 307.1 38.4 L 307.1 32 L 307.5 32 L 307.5 33.2 C 307.5 33.2 307.55 33.16 307.5 33.2 C 307.9 32.4 308.7 31.9 309.6 31.9 C 311 31.9 311.9 32.8 311.9 34.2 Z M 322.3 33.6 C 322.26 33.56 322.3 32 322.3 32 L 322.7 32 C 322.7 32 322.72 38.2 322.7 38.2 C 322.7 40.2 321.3 41.1 319.9 41.1 C 319.1 41.1 318.2 40.8 317.5 40.3 C 317.5 40.3 317.5 39.7 317.5 39.7 C 318.2 40.3 319.1 40.6 319.9 40.6 C 321.1 40.6 322.2 39.9 322.2 38.3 C 322.2 38.3 322.2 36.7 322.2 36.7 C 321.8 37.8 320.8 38.3 319.8 38.3 C 318.3 38.3 316.9 37.1 316.9 35.1 C 316.9 33.2 318.3 31.9 319.8 31.9 C 320.8 31.9 321.8 32.5 322.3 33.6 Z M 317.4 35.1 C 317.4 36.8 318.5 37.8 319.8 37.8 C 321.1 37.8 322.2 36.7 322.2 35.1 C 322.2 33.5 321.1 32.4 319.8 32.4 C 318.5 32.4 317.4 33.5 317.4 35.1 Z M 325 32 L 325.4 32 L 325.5 33.2 C 325.5 33.2 325.47 33.22 325.5 33.2 C 325.9 32.3 326.7 32 327.4 32 C 327.5 32 327.6 32 327.7 32 C 327.7 32 327.7 32.5 327.7 32.5 C 327.6 32.5 327.5 32.5 327.4 32.5 C 326.5 32.5 325.5 33.1 325.5 34.4 C 325.51 34.37 325.5 38.4 325.5 38.4 L 325 38.4 L 325 32 Z M 328.3 35.2 C 328.3 33.2 329.7 31.9 331.2 31.9 C 332.2 31.9 333.2 32.5 333.7 33.6 C 333.72 33.62 333.8 32 333.8 32 L 334.2 32 L 334.2 38.4 L 333.8 38.4 C 333.8 38.4 333.72 36.8 333.7 36.8 C 333.2 38 332.2 38.5 331.2 38.5 C 329.7 38.5 328.3 37.2 328.3 35.2 Z M 333.7 35.2 C 333.7 33.5 332.6 32.4 331.3 32.4 C 329.9 32.4 328.8 33.5 328.8 35.2 C 328.8 36.9 329.9 38 331.3 38 C 332.6 38 333.7 36.9 333.7 35.2 Z M 336.3 34.5 L 339.1 34.5 L 339.1 35 L 336.3 35 L 336.3 34.5 Z " stroke="none" fill="#000"/>
  </g>
  <g id="Polygon25944">
    <path d="M 8.9 19.7 C 8.87 19.68 8.9 24 8.9 24 L 8.4 24 C 8.4 24 8.36 19.73 8.4 19.7 C 8.4 18.7 7.9 18 6.9 18 C 5.9 18 5.3 18.8 5.3 19.7 C 5.26 19.74 5.3 24 5.3 24 L 4.8 24 C 4.8 24 4.75 19.73 4.8 19.7 C 4.8 18.7 4.2 18 3.3 18 C 2.2 18 1.6 18.8 1.6 19.8 C 1.64 19.76 1.6 24 1.6 24 L 1.1 24 L 1.1 17.6 L 1.5 17.6 L 1.6 18.7 C 1.6 18.7 1.61 18.68 1.6 18.7 C 1.9 18 2.5 17.5 3.3 17.5 C 4.3 17.5 4.8 18 5.1 18.8 C 5.4 18 6 17.5 6.9 17.5 C 8.2 17.5 8.9 18.4 8.9 19.7 Z M 10.6 20.8 C 10.6 18.9 12 17.5 13.7 17.5 C 15.3 17.5 16.7 18.9 16.7 20.8 C 16.7 22.8 15.3 24.1 13.7 24.1 C 12 24.1 10.6 22.8 10.6 20.8 Z M 16.2 20.8 C 16.2 19 15 18 13.7 18 C 12.4 18 11.1 19 11.1 20.8 C 11.1 22.6 12.4 23.6 13.7 23.6 C 15 23.6 16.2 22.6 16.2 20.8 Z M 18.6 14.5 L 19.1 14.5 L 19.1 24 L 18.6 24 L 18.6 14.5 Z M 26.5 21 C 26.5 21 21.4 21 21.4 21 C 21.5 22.6 22.6 23.6 24 23.6 C 24.8 23.6 25.6 23.4 26.3 22.7 C 26.3 22.7 26.3 23.3 26.3 23.3 C 25.6 23.8 24.8 24.1 24 24.1 C 22.2 24.1 20.9 22.8 20.9 20.8 C 20.9 18.8 22.4 17.5 23.9 17.5 C 25.3 17.5 26.5 18.6 26.5 20.7 C 26.5 20.8 26.5 20.9 26.5 21 Z M 26 20.5 C 26 18.8 25 18 23.9 18 C 22.7 18 21.6 19 21.5 20.5 C 21.5 20.5 26 20.5 26 20.5 Z M 28.9 17.6 L 30.8 17.6 L 30.8 18.1 L 28.9 18.1 C 28.9 18.1 28.94 22 28.9 22 C 28.9 23.2 29.6 23.6 30.5 23.6 C 30.7 23.6 30.8 23.6 31 23.6 C 31 23.6 31 24 31 24 C 30.9 24 30.7 24.1 30.4 24.1 C 29.3 24.1 28.4 23.4 28.4 22 C 28.44 22.02 28.4 18.1 28.4 18.1 L 27.5 18.1 L 27.5 17.6 L 28.5 17.6 L 28.5 16.1 L 28.9 16.1 L 28.9 17.6 Z M 33.1 17.6 L 35 17.6 L 35 18.1 L 33.1 18.1 C 33.1 18.1 33.06 22 33.1 22 C 33.1 23.2 33.7 23.6 34.6 23.6 C 34.8 23.6 34.9 23.6 35.1 23.6 C 35.1 23.6 35.1 24 35.1 24 C 35.1 24 34.8 24.1 34.5 24.1 C 33.4 24.1 32.6 23.4 32.6 22 C 32.56 22.02 32.6 18.1 32.6 18.1 L 31.6 18.1 L 31.6 17.6 L 32.6 17.6 L 32.6 16.1 L 33.1 16.1 L 33.1 17.6 Z M 41.5 21 C 41.5 21 36.5 21 36.5 21 C 36.6 22.6 37.6 23.6 39 23.6 C 39.8 23.6 40.6 23.4 41.3 22.7 C 41.3 22.7 41.3 23.3 41.3 23.3 C 40.6 23.8 39.8 24.1 39 24.1 C 37.2 24.1 36 22.8 36 20.8 C 36 18.8 37.4 17.5 38.9 17.5 C 40.3 17.5 41.5 18.6 41.5 20.7 C 41.5 20.8 41.5 20.9 41.5 21 Z M 41 20.5 C 41 18.8 40 18 38.9 18 C 37.7 18 36.6 19 36.5 20.5 C 36.5 20.5 41 20.5 41 20.5 Z M 47.1 20.8 C 47.1 18.8 48.5 17.5 50 17.5 C 51 17.5 52 18.1 52.5 19.2 C 52.46 19.18 52.5 14.5 52.5 14.5 L 53 14.5 L 53 24 L 52.6 24 L 52.5 22.4 C 52.5 22.4 52.48 22.39 52.5 22.4 C 52 23.6 51 24.1 50 24.1 C 48.5 24.1 47.1 22.8 47.1 20.8 Z M 52.5 20.8 C 52.5 19.1 51.4 18 50 18 C 48.7 18 47.6 19.1 47.6 20.8 C 47.6 22.5 48.7 23.6 50 23.6 C 51.4 23.6 52.5 22.5 52.5 20.8 Z M 60.4 21 C 60.4 21 55.3 21 55.3 21 C 55.4 22.6 56.4 23.6 57.9 23.6 C 58.6 23.6 59.4 23.4 60.1 22.7 C 60.1 22.7 60.1 23.3 60.1 23.3 C 59.5 23.8 58.7 24.1 57.8 24.1 C 56 24.1 54.8 22.8 54.8 20.8 C 54.8 18.8 56.2 17.5 57.7 17.5 C 59.2 17.5 60.4 18.6 60.4 20.7 C 60.4 20.8 60.4 20.9 60.4 21 Z M 59.9 20.5 C 59.8 18.8 58.8 18 57.7 18 C 56.5 18 55.4 19 55.3 20.5 C 55.3 20.5 59.9 20.5 59.9 20.5 Z M 71.1 19.8 C 71.14 19.76 71.1 24 71.1 24 L 70.6 24 C 70.6 24 70.64 19.97 70.6 20 C 70.6 18.7 70 18 68.8 18 C 67.7 18 66.9 18.7 66.9 19.9 C 66.86 19.91 66.9 24 66.9 24 L 66.4 24 L 66.4 17.6 L 66.8 17.6 L 66.8 18.8 C 66.8 18.8 66.82 18.76 66.8 18.8 C 67.2 18 67.9 17.5 68.9 17.5 C 70.3 17.5 71.1 18.4 71.1 19.8 Z M 72.9 20.8 C 72.9 18.8 74.3 17.5 75.8 17.5 C 76.8 17.5 77.8 18.1 78.3 19.2 C 78.3 19.22 78.4 17.6 78.4 17.6 L 78.8 17.6 L 78.8 24 L 78.4 24 C 78.4 24 78.3 22.4 78.3 22.4 C 77.8 23.6 76.8 24.1 75.8 24.1 C 74.3 24.1 72.9 22.8 72.9 20.8 Z M 78.3 20.8 C 78.3 19.1 77.2 18 75.8 18 C 74.5 18 73.4 19.1 73.4 20.8 C 73.4 22.5 74.5 23.6 75.8 23.6 C 77.2 23.6 78.3 22.5 78.3 20.8 Z M 80.3 17.6 L 80.8 17.6 L 82.9 23.4 L 83 23.4 L 85.1 17.6 L 85.6 17.6 L 83.2 24 L 82.7 24 L 80.3 17.6 Z M 87 15.3 C 87 15.1 87.2 14.9 87.4 14.9 C 87.6 14.9 87.8 15.1 87.8 15.3 C 87.8 15.5 87.6 15.7 87.4 15.7 C 87.2 15.7 87 15.5 87 15.3 Z M 87.1 17.6 L 87.6 17.6 L 87.6 24 L 87.1 24 L 87.1 17.6 Z M 94.9 19.2 C 94.88 19.16 95 17.6 95 17.6 L 95.3 17.6 C 95.3 17.6 95.35 23.8 95.3 23.8 C 95.3 25.8 94 26.7 92.5 26.7 C 91.7 26.7 90.8 26.4 90.1 25.9 C 90.1 25.9 90.1 25.3 90.1 25.3 C 90.8 25.9 91.7 26.2 92.5 26.2 C 93.7 26.2 94.8 25.5 94.8 23.9 C 94.8 23.9 94.8 22.3 94.8 22.3 C 94.4 23.4 93.4 23.9 92.4 23.9 C 90.9 23.9 89.5 22.7 89.5 20.7 C 89.5 18.8 90.9 17.5 92.4 17.5 C 93.4 17.5 94.4 18.1 94.9 19.2 Z M 90 20.7 C 90 22.4 91.1 23.4 92.4 23.4 C 93.8 23.4 94.9 22.3 94.9 20.7 C 94.9 19.1 93.8 18 92.4 18 C 91.1 18 90 19.1 90 20.7 Z M 97.2 20.8 C 97.2 18.8 98.6 17.5 100.1 17.5 C 101.1 17.5 102.1 18.1 102.6 19.2 C 102.58 19.22 102.7 17.6 102.7 17.6 L 103.1 17.6 L 103.1 24 L 102.7 24 C 102.7 24 102.58 22.4 102.6 22.4 C 102.1 23.6 101.1 24.1 100.1 24.1 C 98.6 24.1 97.2 22.8 97.2 20.8 Z M 102.6 20.8 C 102.6 19.1 101.5 18 100.1 18 C 98.8 18 97.7 19.1 97.7 20.8 C 97.7 22.5 98.8 23.6 100.1 23.6 C 101.4 23.6 102.6 22.5 102.6 20.8 Z M 106 17.6 L 107.9 17.6 L 107.9 18.1 L 106 18.1 C 106 18.1 106.01 22 106 22 C 106 23.2 106.7 23.6 107.6 23.6 C 107.7 23.6 107.9 23.6 108.1 23.6 C 108.1 23.6 108.1 24 108.1 24 C 108 24 107.8 24.1 107.5 24.1 C 106.3 24.1 105.5 23.4 105.5 22 C 105.51 22.02 105.5 18.1 105.5 18.1 L 104.5 18.1 L 104.5 17.6 L 105.5 17.6 L 105.5 16.1 L 106 16.1 L 106 17.6 Z M 109.3 15.3 C 109.3 15.1 109.5 14.9 109.7 14.9 C 110 14.9 110.1 15.1 110.1 15.3 C 110.1 15.5 110 15.7 109.7 15.7 C 109.5 15.7 109.3 15.5 109.3 15.3 Z M 109.5 17.6 L 110 17.6 L 110 24 L 109.5 24 L 109.5 17.6 Z M 111.8 20.8 C 111.8 18.9 113.2 17.5 114.9 17.5 C 116.6 17.5 117.9 18.9 117.9 20.8 C 117.9 22.8 116.6 24.1 114.9 24.1 C 113.2 24.1 111.8 22.8 111.8 20.8 Z M 117.4 20.8 C 117.4 19 116.2 18 114.9 18 C 113.6 18 112.4 19 112.4 20.8 C 112.4 22.6 113.6 23.6 114.9 23.6 C 116.2 23.6 117.4 22.6 117.4 20.8 Z M 124.5 19.8 C 124.54 19.76 124.5 24 124.5 24 L 124 24 C 124 24 124.04 19.97 124 20 C 124 18.7 123.4 18 122.2 18 C 121.1 18 120.3 18.7 120.3 19.9 C 120.26 19.91 120.3 24 120.3 24 L 119.8 24 L 119.8 17.6 L 120.2 17.6 L 120.2 18.8 C 120.2 18.8 120.22 18.76 120.2 18.8 C 120.6 18 121.3 17.5 122.3 17.5 C 123.7 17.5 124.5 18.4 124.5 19.8 Z M 126.5 23.6 C 126.5 23.3 126.7 23.1 127 23.1 C 127.3 23.1 127.5 23.3 127.5 23.6 C 127.5 23.8 127.3 24 127 24 C 126.7 24 126.5 23.8 126.5 23.6 Z M 134 15.1 L 138.3 15.1 L 138.3 15.6 L 134.5 15.6 L 134.5 19.2 L 138.1 19.2 L 138.1 19.7 L 134.5 19.7 L 134.5 23.5 L 138.3 23.5 L 138.3 24 L 134 24 L 134 15.1 Z M 145.1 19.8 C 145.14 19.76 145.1 24 145.1 24 L 144.6 24 C 144.6 24 144.64 19.97 144.6 20 C 144.6 18.7 144 18 142.8 18 C 141.7 18 140.9 18.7 140.9 19.9 C 140.85 19.91 140.9 24 140.9 24 L 140.4 24 L 140.4 17.6 L 140.7 17.6 L 140.8 18.8 C 140.8 18.8 140.82 18.76 140.8 18.8 C 141.2 18 141.9 17.5 142.9 17.5 C 144.3 17.5 145.1 18.4 145.1 19.8 Z M 152.1 17.6 L 154 17.6 L 154 18.1 L 152.1 18.1 C 152.1 18.1 152.07 22 152.1 22 C 152.1 23.2 152.7 23.6 153.6 23.6 C 153.8 23.6 154 23.6 154.1 23.6 C 154.1 23.6 154.1 24 154.1 24 C 154.1 24 153.8 24.1 153.5 24.1 C 152.4 24.1 151.6 23.4 151.6 22 C 151.56 22.02 151.6 18.1 151.6 18.1 L 150.6 18.1 L 150.6 17.6 L 151.6 17.6 L 151.6 16.1 L 152.1 16.1 L 152.1 17.6 Z M 155 20.8 C 155 18.9 156.3 17.5 158 17.5 C 159.7 17.5 161 18.9 161 20.8 C 161 22.8 159.7 24.1 158 24.1 C 156.3 24.1 155 22.8 155 20.8 Z M 160.5 20.8 C 160.5 19 159.3 18 158 18 C 156.7 18 155.5 19 155.5 20.8 C 155.5 22.6 156.7 23.6 158 23.6 C 159.3 23.6 160.5 22.6 160.5 20.8 Z M 162.8 21.7 C 162.78 21.68 162.8 17.6 162.8 17.6 L 163.3 17.6 C 163.3 17.6 163.29 21.71 163.3 21.7 C 163.3 22.9 164 23.6 165.2 23.6 C 166.3 23.6 167.1 22.9 167.1 21.7 C 167.08 21.7 167.1 17.6 167.1 17.6 L 167.6 17.6 C 167.6 17.6 167.58 21.67 167.6 21.7 C 167.6 23.1 166.6 24.1 165.2 24.1 C 163.7 24.1 162.8 23.1 162.8 21.7 Z M 169.8 17.6 L 170.2 17.6 L 170.2 18.8 C 170.2 18.8 170.25 18.82 170.2 18.8 C 170.6 17.9 171.5 17.6 172.1 17.6 C 172.3 17.6 172.4 17.6 172.5 17.6 C 172.5 17.6 172.5 18.1 172.5 18.1 C 172.4 18.1 172.3 18.1 172.1 18.1 C 171.2 18.1 170.3 18.7 170.3 20 C 170.28 19.97 170.3 24 170.3 24 L 169.8 24 L 169.8 17.6 Z M 178.6 19.8 C 178.63 19.76 178.6 24 178.6 24 L 178.1 24 C 178.1 24 178.13 19.97 178.1 20 C 178.1 18.7 177.5 18 176.3 18 C 175.2 18 174.4 18.7 174.4 19.9 C 174.35 19.91 174.4 24 174.4 24 L 173.8 24 L 173.8 17.6 L 174.2 17.6 L 174.3 18.8 C 174.3 18.8 174.31 18.76 174.3 18.8 C 174.7 18 175.4 17.5 176.4 17.5 C 177.7 17.5 178.6 18.4 178.6 19.8 Z M 180.4 20.8 C 180.4 18.8 181.8 17.5 183.3 17.5 C 184.3 17.5 185.3 18.1 185.8 19.2 C 185.79 19.22 185.9 17.6 185.9 17.6 L 186.3 17.6 L 186.3 24 L 185.9 24 C 185.9 24 185.79 22.4 185.8 22.4 C 185.3 23.6 184.3 24.1 183.3 24.1 C 181.8 24.1 180.4 22.8 180.4 20.8 Z M 185.8 20.8 C 185.8 19.1 184.7 18 183.3 18 C 182 18 180.9 19.1 180.9 20.8 C 180.9 22.5 182 23.6 183.3 23.6 C 184.6 23.6 185.8 22.5 185.8 20.8 Z M 193.3 19.8 C 193.32 19.76 193.3 24 193.3 24 L 192.8 24 C 192.8 24 192.82 19.97 192.8 20 C 192.8 18.7 192.2 18 191 18 C 189.9 18 189 18.7 189 19.9 C 189.04 19.91 189 24 189 24 L 188.5 24 L 188.5 17.6 L 188.9 17.6 L 189 18.8 C 189 18.8 189 18.76 189 18.8 C 189.4 18 190.1 17.5 191.1 17.5 C 192.4 17.5 193.3 18.4 193.3 19.8 Z M 196.1 17.6 L 198 17.6 L 198 18.1 L 196.1 18.1 C 196.1 18.1 196.14 22 196.1 22 C 196.1 23.2 196.8 23.6 197.7 23.6 C 197.9 23.6 198 23.6 198.2 23.6 C 198.2 23.6 198.2 24 198.2 24 C 198.1 24 197.9 24.1 197.6 24.1 C 196.5 24.1 195.6 23.4 195.6 22 C 195.64 22.02 195.6 18.1 195.6 18.1 L 194.7 18.1 L 194.7 17.6 L 195.7 17.6 L 195.7 16.1 L 196.1 16.1 L 196.1 17.6 Z M 203.7 14.5 L 204.2 14.5 L 204.2 24 L 203.7 24 L 203.7 14.5 Z M 206.1 20.8 C 206.1 18.8 207.5 17.5 209 17.5 C 210 17.5 211 18.1 211.5 19.2 C 211.5 19.22 211.6 17.6 211.6 17.6 L 212 17.6 L 212 24 L 211.6 24 C 211.6 24 211.5 22.4 211.5 22.4 C 211 23.6 210 24.1 209 24.1 C 207.5 24.1 206.1 22.8 206.1 20.8 Z M 211.5 20.8 C 211.5 19.1 210.4 18 209 18 C 207.7 18 206.6 19.1 206.6 20.8 C 206.6 22.5 207.7 23.6 209 23.6 C 210.4 23.6 211.5 22.5 211.5 20.8 Z M 226.2 19.7 C 226.15 19.68 226.2 24 226.2 24 L 225.6 24 C 225.6 24 225.65 19.73 225.6 19.7 C 225.6 18.7 225.2 18 224.2 18 C 223.2 18 222.5 18.8 222.5 19.7 C 222.54 19.74 222.5 24 222.5 24 L 222 24 C 222 24 222.04 19.73 222 19.7 C 222 18.7 221.5 18 220.5 18 C 219.5 18 218.9 18.8 218.9 19.8 C 218.93 19.76 218.9 24 218.9 24 L 218.4 24 L 218.4 17.6 L 218.8 17.6 L 218.9 18.7 C 218.9 18.7 218.89 18.68 218.9 18.7 C 219.2 18 219.8 17.5 220.6 17.5 C 221.6 17.5 222.1 18 222.4 18.8 C 222.7 18 223.3 17.5 224.2 17.5 C 225.5 17.5 226.2 18.4 226.2 19.7 Z M 227.9 20.8 C 227.9 18.9 229.3 17.5 231 17.5 C 232.6 17.5 234 18.9 234 20.8 C 234 22.8 232.6 24.1 231 24.1 C 229.3 24.1 227.9 22.8 227.9 20.8 Z M 233.5 20.8 C 233.5 19 232.2 18 231 18 C 229.6 18 228.4 19 228.4 20.8 C 228.4 22.6 229.7 23.6 231 23.6 C 232.2 23.6 233.5 22.6 233.5 20.8 Z M 235.8 14.5 L 236.4 14.5 L 236.4 24 L 235.8 24 L 235.8 14.5 Z M 243.8 21 C 243.8 21 238.7 21 238.7 21 C 238.8 22.6 239.8 23.6 241.3 23.6 C 242.1 23.6 242.9 23.4 243.6 22.7 C 243.6 22.7 243.6 23.3 243.6 23.3 C 242.9 23.8 242.1 24.1 241.3 24.1 C 239.5 24.1 238.2 22.8 238.2 20.8 C 238.2 18.8 239.6 17.5 241.2 17.5 C 242.6 17.5 243.8 18.6 243.8 20.7 C 243.8 20.8 243.8 20.9 243.8 21 Z M 243.3 20.5 C 243.3 18.8 242.3 18 241.2 18 C 240 18 238.8 19 238.7 20.5 C 238.7 20.5 243.3 20.5 243.3 20.5 Z M 246.2 17.6 L 248.1 17.6 L 248.1 18.1 L 246.2 18.1 C 246.2 18.1 246.23 22 246.2 22 C 246.2 23.2 246.9 23.6 247.8 23.6 C 247.9 23.6 248.1 23.6 248.3 23.6 C 248.3 23.6 248.3 24 248.3 24 C 248.2 24 248 24.1 247.7 24.1 C 246.6 24.1 245.7 23.4 245.7 22 C 245.72 22.02 245.7 18.1 245.7 18.1 L 244.7 18.1 L 244.7 17.6 L 245.7 17.6 L 245.7 16.1 L 246.2 16.1 L 246.2 17.6 Z M 250.3 17.6 L 252.2 17.6 L 252.2 18.1 L 250.3 18.1 C 250.3 18.1 250.34 22 250.3 22 C 250.3 23.2 251 23.6 251.9 23.6 C 252.1 23.6 252.2 23.6 252.4 23.6 C 252.4 23.6 252.4 24 252.4 24 C 252.3 24 252.1 24.1 251.8 24.1 C 250.7 24.1 249.8 23.4 249.8 22 C 249.84 22.02 249.8 18.1 249.8 18.1 L 248.9 18.1 L 248.9 17.6 L 249.9 17.6 L 249.9 16.1 L 250.3 16.1 L 250.3 17.6 Z M 258.8 21 C 258.8 21 253.8 21 253.8 21 C 253.8 22.6 254.9 23.6 256.3 23.6 C 257.1 23.6 257.9 23.4 258.6 22.7 C 258.6 22.7 258.6 23.3 258.6 23.3 C 257.9 23.8 257.1 24.1 256.3 24.1 C 254.5 24.1 253.2 22.8 253.2 20.8 C 253.2 18.8 254.7 17.5 256.2 17.5 C 257.6 17.5 258.8 18.6 258.8 20.7 C 258.8 20.8 258.8 20.9 258.8 21 Z M 258.3 20.5 C 258.3 18.8 257.3 18 256.2 18 C 255 18 253.9 19 253.8 20.5 C 253.8 20.5 258.3 20.5 258.3 20.5 Z M 260.5 23 C 260.54 23.04 260.5 22.6 260.5 22.6 L 261 22.6 C 261 22.6 261.05 23.03 261 23 C 261 24 260.7 25 260.4 25.6 C 260.4 25.6 260 25.6 260 25.6 C 260.2 25 260.5 24 260.5 23 Z M 267.4 14.5 L 267.9 14.5 L 267.9 24 L 267.4 24 L 267.4 14.5 Z M 270.4 15.5 C 270.42 15.53 270.4 15.1 270.4 15.1 L 270.9 15.1 C 270.9 15.1 270.93 15.52 270.9 15.5 C 270.9 16.5 270.5 17.5 270.3 18.1 C 270.3 18.1 269.9 18.1 269.9 18.1 C 270.1 17.5 270.4 16.5 270.4 15.5 Z M 272.8 21.7 C 272.75 21.68 272.8 17.6 272.8 17.6 L 273.3 17.6 C 273.3 17.6 273.25 21.71 273.3 21.7 C 273.3 22.9 274 23.6 275.1 23.6 C 276.3 23.6 277 22.9 277 21.7 C 277.05 21.7 277 17.6 277 17.6 L 277.6 17.6 C 277.6 17.6 277.55 21.67 277.6 21.7 C 277.6 23.1 276.6 24.1 275.1 24.1 C 273.7 24.1 272.8 23.1 272.8 21.7 Z M 283.3 18.1 C 283.3 18.1 283.3 18.6 283.3 18.6 C 282.8 18.3 282.2 18 281.5 18 C 280.5 18 279.9 18.5 279.9 19.2 C 279.9 19.9 280.6 20.2 281.6 20.5 C 282.6 20.9 283.6 21.2 283.6 22.3 C 283.6 23.4 282.7 24.1 281.5 24.1 C 280.7 24.1 279.9 23.9 279.3 23.4 C 279.3 23.4 279.3 22.7 279.3 22.7 C 279.9 23.3 280.6 23.6 281.5 23.6 C 282.5 23.6 283.1 23.1 283.1 22.3 C 283.1 21.6 282.4 21.3 281.4 20.9 C 280.3 20.6 279.4 20.3 279.4 19.2 C 279.4 18.2 280.3 17.5 281.5 17.5 C 282.2 17.5 282.8 17.7 283.3 18.1 Z M 284.9 20.8 C 284.9 18.8 286.3 17.5 287.8 17.5 C 288.8 17.5 289.9 18.1 290.3 19.2 C 290.32 19.22 290.4 17.6 290.4 17.6 L 290.8 17.6 L 290.8 24 L 290.4 24 C 290.4 24 290.32 22.4 290.3 22.4 C 289.9 23.6 288.8 24.1 287.8 24.1 C 286.3 24.1 284.9 22.8 284.9 20.8 Z M 290.3 20.8 C 290.3 19.1 289.2 18 287.9 18 C 286.5 18 285.4 19.1 285.4 20.8 C 285.4 22.5 286.6 23.6 287.9 23.6 C 289.2 23.6 290.3 22.5 290.3 20.8 Z M 298 19.2 C 297.99 19.16 298.1 17.6 298.1 17.6 L 298.5 17.6 C 298.5 17.6 298.45 23.8 298.5 23.8 C 298.5 25.8 297.1 26.7 295.6 26.7 C 294.8 26.7 293.9 26.4 293.2 25.9 C 293.2 25.9 293.2 25.3 293.2 25.3 C 293.9 25.9 294.8 26.2 295.6 26.2 C 296.8 26.2 298 25.5 298 23.9 C 298 23.9 298 22.3 298 22.3 C 297.5 23.4 296.5 23.9 295.5 23.9 C 294 23.9 292.6 22.7 292.6 20.7 C 292.6 18.8 294 17.5 295.5 17.5 C 296.5 17.5 297.5 18.1 298 19.2 Z M 293.1 20.7 C 293.1 22.4 294.2 23.4 295.6 23.4 C 296.9 23.4 298 22.3 298 20.7 C 298 19.1 296.9 18 295.6 18 C 294.2 18 293.1 19.1 293.1 20.7 Z M 305.8 21 C 305.8 21 300.8 21 300.8 21 C 300.9 22.6 301.9 23.6 303.4 23.6 C 304.1 23.6 304.9 23.4 305.6 22.7 C 305.6 22.7 305.6 23.3 305.6 23.3 C 304.9 23.8 304.2 24.1 303.3 24.1 C 301.5 24.1 300.3 22.8 300.3 20.8 C 300.3 18.8 301.7 17.5 303.2 17.5 C 304.7 17.5 305.9 18.6 305.9 20.7 C 305.9 20.8 305.9 20.9 305.8 21 Z M 305.4 20.5 C 305.3 18.8 304.3 18 303.2 18 C 302 18 300.9 19 300.8 20.5 C 300.8 20.5 305.4 20.5 305.4 20.5 Z M 307.7 17.6 L 308.1 17.6 L 308.1 18.8 C 308.1 18.8 308.14 18.82 308.1 18.8 C 308.5 17.9 309.4 17.6 310 17.6 C 310.2 17.6 310.3 17.6 310.4 17.6 C 310.4 17.6 310.4 18.1 310.4 18.1 C 310.3 18.1 310.2 18.1 310 18.1 C 309.1 18.1 308.2 18.7 308.2 20 C 308.17 19.97 308.2 24 308.2 24 L 307.7 24 L 307.7 17.6 Z M 315.6 17.6 L 316 17.6 C 316 17.6 316.09 19.24 316.1 19.2 C 316.6 18.1 317.6 17.5 318.6 17.5 C 320.1 17.5 321.5 18.8 321.5 20.8 C 321.5 22.8 320.1 24.1 318.6 24.1 C 317.6 24.1 316.6 23.5 316.1 22.5 C 316.12 22.45 316.1 26.6 316.1 26.6 L 315.6 26.6 L 315.6 17.6 Z M 321 20.8 C 321 19.1 319.9 18 318.6 18 C 317.2 18 316.1 19.1 316.1 20.8 C 316.1 22.5 317.2 23.6 318.5 23.6 C 319.9 23.6 321 22.5 321 20.8 Z M 328.4 21 C 328.4 21 323.4 21 323.4 21 C 323.5 22.6 324.5 23.6 326 23.6 C 326.7 23.6 327.5 23.4 328.2 22.7 C 328.2 22.7 328.2 23.3 328.2 23.3 C 327.5 23.8 326.8 24.1 325.9 24.1 C 324.1 24.1 322.9 22.8 322.9 20.8 C 322.9 18.8 324.3 17.5 325.8 17.5 C 327.3 17.5 328.5 18.6 328.5 20.7 C 328.5 20.8 328.5 20.9 328.4 21 Z M 328 20.5 C 327.9 18.8 326.9 18 325.8 18 C 324.6 18 323.5 19 323.4 20.5 C 323.4 20.5 328 20.5 328 20.5 Z M 330.2 21.7 C 330.19 21.68 330.2 17.6 330.2 17.6 L 330.7 17.6 C 330.7 17.6 330.69 21.71 330.7 21.7 C 330.7 22.9 331.4 23.6 332.6 23.6 C 333.7 23.6 334.5 22.9 334.5 21.7 C 334.48 21.7 334.5 17.6 334.5 17.6 L 335 17.6 C 335 17.6 334.99 21.67 335 21.7 C 335 23.1 334.1 24.1 332.6 24.1 C 331.1 24.1 330.2 23.1 330.2 21.7 Z M 337.9 17.6 L 339.8 17.6 L 339.8 18.1 L 337.9 18.1 C 337.9 18.1 337.87 22 337.9 22 C 337.9 23.2 338.5 23.6 339.4 23.6 C 339.6 23.6 339.7 23.6 339.9 23.6 C 339.9 23.6 339.9 24 339.9 24 C 339.9 24 339.6 24.1 339.3 24.1 C 338.2 24.1 337.4 23.4 337.4 22 C 337.36 22.02 337.4 18.1 337.4 18.1 L 336.4 18.1 L 336.4 17.6 L 337.4 17.6 L 337.4 16.1 L 337.9 16.1 L 337.9 17.6 Z " stroke="none" fill="#000"/>
  </g>
  <g id="Polygon25943">
    <path d="M 1.4 0.7 L 1.9 0.7 L 1.9 9.1 L 6 9.1 L 6 9.6 L 1.4 9.6 L 1.4 0.7 Z M 6.3 1.1 C 6.28 1.13 6.3 0.7 6.3 0.7 L 6.8 0.7 C 6.8 0.7 6.78 1.12 6.8 1.1 C 6.8 2.1 6.4 3.1 6.1 3.7 C 6.1 3.7 5.7 3.7 5.7 3.7 C 6 3.1 6.3 2.1 6.3 1.1 Z M 8.6 0.9 C 8.6 0.7 8.7 0.5 9 0.5 C 9.2 0.5 9.4 0.7 9.4 0.9 C 9.4 1.1 9.2 1.3 9 1.3 C 8.7 1.3 8.6 1.1 8.6 0.9 Z M 8.7 3.2 L 9.2 3.2 L 9.2 9.6 L 8.7 9.6 L 8.7 3.2 Z M 16.3 5.4 C 16.33 5.36 16.3 9.6 16.3 9.6 L 15.8 9.6 C 15.8 9.6 15.83 5.57 15.8 5.6 C 15.8 4.3 15.2 3.6 14 3.6 C 12.9 3.6 12 4.3 12 5.5 C 12.05 5.51 12 9.6 12 9.6 L 11.5 9.6 L 11.5 3.2 L 11.9 3.2 L 12 4.4 C 12 4.4 12.01 4.36 12 4.4 C 12.4 3.6 13.1 3.1 14.1 3.1 C 15.4 3.1 16.3 4 16.3 5.4 Z M 19.2 3.2 L 21 3.2 L 21 3.7 L 19.2 3.7 C 19.2 3.7 19.15 7.6 19.2 7.6 C 19.2 8.8 19.8 9.2 20.7 9.2 C 20.9 9.2 21 9.2 21.2 9.2 C 21.2 9.2 21.2 9.6 21.2 9.6 C 21.2 9.6 20.9 9.7 20.6 9.7 C 19.5 9.7 18.6 9 18.6 7.6 C 18.65 7.62 18.6 3.7 18.6 3.7 L 17.7 3.7 L 17.7 3.2 L 18.7 3.2 L 18.7 1.7 L 19.2 1.7 L 19.2 3.2 Z M 27.6 6.6 C 27.6 6.6 22.6 6.6 22.6 6.6 C 22.6 8.2 23.7 9.2 25.1 9.2 C 25.9 9.2 26.7 9 27.4 8.3 C 27.4 8.3 27.4 8.9 27.4 8.9 C 26.7 9.4 25.9 9.7 25.1 9.7 C 23.3 9.7 22.1 8.4 22.1 6.4 C 22.1 4.4 23.5 3.1 25 3.1 C 26.4 3.1 27.6 4.2 27.6 6.3 C 27.6 6.4 27.6 6.5 27.6 6.6 Z M 27.1 6.1 C 27.1 4.4 26.1 3.6 25 3.6 C 23.8 3.6 22.7 4.6 22.6 6.1 C 22.6 6.1 27.1 6.1 27.1 6.1 Z M 29.4 3.2 L 29.8 3.2 L 29.9 4.4 C 29.9 4.4 29.9 4.42 29.9 4.4 C 30.3 3.5 31.1 3.2 31.8 3.2 C 31.9 3.2 32.1 3.2 32.2 3.2 C 32.2 3.2 32.2 3.7 32.2 3.7 C 32.1 3.7 31.9 3.7 31.8 3.7 C 30.9 3.7 30 4.3 29.9 5.6 C 29.94 5.57 29.9 9.6 29.9 9.6 L 29.4 9.6 L 29.4 3.2 Z M 33.7 3.7 L 32.8 3.7 L 32.8 3.2 L 33.7 3.2 C 33.7 3.2 33.73 2 33.7 2 C 33.7 0.7 34.6 0 35.6 0 C 36 0 36.3 0.1 36.6 0.2 C 36.6 0.2 36.6 0.7 36.6 0.7 C 36.4 0.6 36 0.5 35.7 0.5 C 34.8 0.5 34.2 1 34.2 2.1 C 34.25 2.09 34.2 3.2 34.2 3.2 L 36.2 3.2 L 36.2 3.7 L 34.2 3.7 L 34.2 9.6 L 33.7 9.6 L 33.7 3.7 Z M 36.8 6.4 C 36.8 4.4 38.2 3.1 39.7 3.1 C 40.7 3.1 41.7 3.7 42.2 4.8 C 42.22 4.82 42.3 3.2 42.3 3.2 L 42.7 3.2 L 42.7 9.6 L 42.3 9.6 C 42.3 9.6 42.22 8 42.2 8 C 41.7 9.2 40.7 9.7 39.7 9.7 C 38.2 9.7 36.8 8.4 36.8 6.4 Z M 42.2 6.4 C 42.2 4.7 41.1 3.6 39.8 3.6 C 38.4 3.6 37.3 4.7 37.3 6.4 C 37.3 8.1 38.4 9.2 39.8 9.2 C 41.1 9.2 42.2 8.1 42.2 6.4 Z M 47.6 9.2 C 48.1 9.2 48.8 9.1 49.3 8.7 C 49.3 8.7 49.3 9.3 49.3 9.3 C 48.8 9.6 48.2 9.7 47.6 9.7 C 45.9 9.7 44.5 8.3 44.5 6.4 C 44.5 4.5 45.9 3.1 47.6 3.1 C 48.2 3.1 48.8 3.2 49.3 3.6 C 49.3 3.6 49.3 4.1 49.3 4.1 C 48.7 3.7 48.2 3.6 47.6 3.6 C 46.2 3.6 45 4.7 45 6.4 C 45 8.1 46.2 9.2 47.6 9.2 Z M 56 6.6 C 56 6.6 51 6.6 51 6.6 C 51.1 8.2 52.1 9.2 53.5 9.2 C 54.3 9.2 55.1 9 55.8 8.3 C 55.8 8.3 55.8 8.9 55.8 8.9 C 55.1 9.4 54.3 9.7 53.5 9.7 C 51.7 9.7 50.5 8.4 50.5 6.4 C 50.5 4.4 51.9 3.1 53.4 3.1 C 54.9 3.1 56.1 4.2 56.1 6.3 C 56.1 6.4 56.1 6.5 56 6.6 Z M 55.6 6.1 C 55.5 4.4 54.5 3.6 53.4 3.6 C 52.2 3.6 51.1 4.6 51 6.1 C 51 6.1 55.6 6.1 55.6 6.1 Z M 68.6 6.6 C 68.6 6.6 63.5 6.6 63.5 6.6 C 63.6 8.2 64.7 9.2 66.1 9.2 C 66.9 9.2 67.7 9 68.4 8.3 C 68.4 8.3 68.4 8.9 68.4 8.9 C 67.7 9.4 66.9 9.7 66.1 9.7 C 64.3 9.7 63 8.4 63 6.4 C 63 4.4 64.4 3.1 66 3.1 C 67.4 3.1 68.6 4.2 68.6 6.3 C 68.6 6.4 68.6 6.5 68.6 6.6 Z M 68.1 6.1 C 68.1 4.4 67.1 3.6 66 3.6 C 64.8 3.6 63.7 4.6 63.5 6.1 C 63.5 6.1 68.1 6.1 68.1 6.1 Z M 74 3.7 C 74 3.7 74 4.2 74 4.2 C 73.5 3.9 72.8 3.6 72.1 3.6 C 71.2 3.6 70.6 4.1 70.6 4.8 C 70.6 5.5 71.2 5.8 72.2 6.1 C 73.3 6.5 74.3 6.8 74.3 7.9 C 74.3 9 73.4 9.7 72.1 9.7 C 71.4 9.7 70.6 9.5 70 9 C 70 9 70 8.3 70 8.3 C 70.5 8.9 71.3 9.2 72.1 9.2 C 73.1 9.2 73.8 8.7 73.8 7.9 C 73.8 7.2 73.1 6.9 72 6.5 C 71 6.2 70.1 5.9 70.1 4.8 C 70.1 3.8 70.9 3.1 72.2 3.1 C 72.8 3.1 73.5 3.3 74 3.7 Z M 76.7 3.2 L 78.6 3.2 L 78.6 3.7 L 76.7 3.7 C 76.7 3.7 76.71 7.6 76.7 7.6 C 76.7 8.8 77.3 9.2 78.2 9.2 C 78.4 9.2 78.6 9.2 78.8 9.2 C 78.8 9.2 78.8 9.6 78.8 9.6 C 78.7 9.6 78.5 9.7 78.2 9.7 C 77 9.7 76.2 9 76.2 7.6 C 76.21 7.62 76.2 3.7 76.2 3.7 L 75.2 3.7 L 75.2 3.2 L 76.2 3.2 L 76.2 1.7 L 76.7 1.7 L 76.7 3.2 Z M 90.6 4.8 C 90.64 4.84 90.7 3.2 90.7 3.2 L 91.1 3.2 L 91.1 12.2 L 90.6 12.2 C 90.6 12.2 90.61 8.04 90.6 8 C 90.2 9.1 89.2 9.7 88.1 9.7 C 86.6 9.7 85.2 8.4 85.2 6.4 C 85.2 4.4 86.6 3.1 88.1 3.1 C 89.2 3.1 90.2 3.7 90.6 4.8 Z M 85.7 6.4 C 85.7 8.1 86.9 9.2 88.2 9.2 C 89.5 9.2 90.6 8.1 90.6 6.4 C 90.6 4.7 89.5 3.6 88.2 3.6 C 86.9 3.6 85.7 4.7 85.7 6.4 Z M 93.3 7.3 C 93.31 7.28 93.3 3.2 93.3 3.2 L 93.8 3.2 C 93.8 3.2 93.81 7.31 93.8 7.3 C 93.8 8.5 94.5 9.2 95.7 9.2 C 96.9 9.2 97.6 8.5 97.6 7.3 C 97.6 7.3 97.6 3.2 97.6 3.2 L 98.1 3.2 C 98.1 3.2 98.1 7.27 98.1 7.3 C 98.1 8.7 97.2 9.7 95.7 9.7 C 94.2 9.7 93.3 8.7 93.3 7.3 Z M 99.8 6.4 C 99.8 4.4 101.2 3.1 102.7 3.1 C 103.8 3.1 104.8 3.7 105.3 4.8 C 105.26 4.82 105.3 3.2 105.3 3.2 L 105.7 3.2 L 105.7 9.6 L 105.3 9.6 C 105.3 9.6 105.26 8 105.3 8 C 104.8 9.2 103.8 9.7 102.8 9.7 C 101.2 9.7 99.8 8.4 99.8 6.4 Z M 105.2 6.4 C 105.2 4.7 104.1 3.6 102.8 3.6 C 101.5 3.6 100.3 4.7 100.3 6.4 C 100.3 8.1 101.5 9.2 102.8 9.2 C 104.1 9.2 105.2 8.1 105.2 6.4 Z M 112.8 5.4 C 112.79 5.36 112.8 9.6 112.8 9.6 L 112.3 9.6 C 112.3 9.6 112.29 5.57 112.3 5.6 C 112.3 4.3 111.6 3.6 110.5 3.6 C 109.4 3.6 108.5 4.3 108.5 5.5 C 108.51 5.51 108.5 9.6 108.5 9.6 L 108 9.6 L 108 3.2 L 108.4 3.2 L 108.5 4.4 C 108.5 4.4 108.47 4.36 108.5 4.4 C 108.8 3.6 109.6 3.1 110.5 3.1 C 111.9 3.1 112.8 4 112.8 5.4 Z M 115.6 3.2 L 117.5 3.2 L 117.5 3.7 L 115.6 3.7 C 115.6 3.7 115.61 7.6 115.6 7.6 C 115.6 8.8 116.2 9.2 117.1 9.2 C 117.3 9.2 117.5 9.2 117.7 9.2 C 117.7 9.2 117.7 9.6 117.7 9.6 C 117.6 9.6 117.4 9.7 117.1 9.7 C 115.9 9.7 115.1 9 115.1 7.6 C 115.11 7.62 115.1 3.7 115.1 3.7 L 114.1 3.7 L 114.1 3.2 L 115.1 3.2 L 115.1 1.7 L 115.6 1.7 L 115.6 3.2 Z M 128 2.1 L 127.6 2.1 L 126 0.2 L 126.6 0.2 L 128 2.1 Z M 124.1 6.4 C 124.1 4.4 125.5 3.1 127 3.1 C 128.1 3.1 129.1 3.7 129.5 4.8 C 129.54 4.82 129.6 3.2 129.6 3.2 L 130 3.2 L 130 9.6 L 129.6 9.6 C 129.6 9.6 129.54 8 129.5 8 C 129.1 9.2 128.1 9.7 127 9.7 C 125.5 9.7 124.1 8.4 124.1 6.4 Z M 129.5 6.4 C 129.5 4.7 128.4 3.6 127.1 3.6 C 125.8 3.6 124.6 4.7 124.6 6.4 C 124.6 8.1 125.8 9.2 127.1 9.2 C 128.4 9.2 129.5 8.1 129.5 6.4 Z M 143 6.6 C 143 6.6 138 6.6 138 6.6 C 138 8.2 139.1 9.2 140.5 9.2 C 141.3 9.2 142.1 9 142.8 8.3 C 142.8 8.3 142.8 8.9 142.8 8.9 C 142.1 9.4 141.3 9.7 140.5 9.7 C 138.7 9.7 137.5 8.4 137.5 6.4 C 137.5 4.4 138.9 3.1 140.4 3.1 C 141.8 3.1 143 4.2 143 6.3 C 143 6.4 143 6.5 143 6.6 Z M 142.5 6.1 C 142.5 4.4 141.5 3.6 140.4 3.6 C 139.2 3.6 138.1 4.6 138 6.1 C 138 6.1 142.5 6.1 142.5 6.1 Z M 144.9 0.1 L 145.4 0.1 L 145.4 9.6 L 144.9 9.6 L 144.9 0.1 Z M 147.7 0.1 L 148.2 0.1 L 148.2 9.6 L 147.7 9.6 L 147.7 0.1 Z M 155.7 6.6 C 155.7 6.6 150.6 6.6 150.6 6.6 C 150.7 8.2 151.7 9.2 153.2 9.2 C 153.9 9.2 154.8 9 155.4 8.3 C 155.4 8.3 155.4 8.9 155.4 8.9 C 154.8 9.4 154 9.7 153.1 9.7 C 151.4 9.7 150.1 8.4 150.1 6.4 C 150.1 4.4 151.5 3.1 153.1 3.1 C 154.5 3.1 155.7 4.2 155.7 6.3 C 155.7 6.4 155.7 6.5 155.7 6.6 Z M 155.2 6.1 C 155.2 4.4 154.1 3.6 153.1 3.6 C 151.8 3.6 150.7 4.6 150.6 6.1 C 150.6 6.1 155.2 6.1 155.2 6.1 Z M 165.7 9.2 C 166.2 9.2 166.9 9.1 167.4 8.7 C 167.4 8.7 167.4 9.3 167.4 9.3 C 167 9.6 166.4 9.7 165.7 9.7 C 164 9.7 162.6 8.3 162.6 6.4 C 162.6 4.5 164 3.1 165.7 3.1 C 166.3 3.1 166.9 3.2 167.4 3.6 C 167.4 3.6 167.4 4.1 167.4 4.1 C 166.9 3.7 166.3 3.6 165.7 3.6 C 164.4 3.6 163.1 4.7 163.1 6.4 C 163.1 8.1 164.4 9.2 165.7 9.2 Z M 168.6 6.4 C 168.6 4.5 170 3.1 171.7 3.1 C 173.3 3.1 174.7 4.5 174.7 6.4 C 174.7 8.4 173.3 9.7 171.7 9.7 C 170 9.7 168.6 8.4 168.6 6.4 Z M 174.2 6.4 C 174.2 4.6 173 3.6 171.7 3.6 C 170.3 3.6 169.1 4.6 169.1 6.4 C 169.1 8.2 170.4 9.2 171.7 9.2 C 173 9.2 174.2 8.2 174.2 6.4 Z M 181.3 5.4 C 181.3 5.36 181.3 9.6 181.3 9.6 L 180.8 9.6 C 180.8 9.6 180.8 5.57 180.8 5.6 C 180.8 4.3 180.1 3.6 179 3.6 C 177.9 3.6 177 4.3 177 5.5 C 177.02 5.51 177 9.6 177 9.6 L 176.5 9.6 L 176.5 3.2 L 176.9 3.2 L 177 4.4 C 177 4.4 176.98 4.36 177 4.4 C 177.3 3.6 178.1 3.1 179.1 3.1 C 180.4 3.1 181.3 4 181.3 5.4 Z M 187.1 3.7 C 187.1 3.7 187.1 4.2 187.1 4.2 C 186.5 3.9 185.9 3.6 185.2 3.6 C 184.3 3.6 183.7 4.1 183.7 4.8 C 183.7 5.5 184.3 5.8 185.3 6.1 C 186.4 6.5 187.4 6.8 187.4 7.9 C 187.4 9 186.5 9.7 185.2 9.7 C 184.4 9.7 183.7 9.5 183.1 9 C 183.1 9 183.1 8.3 183.1 8.3 C 183.6 8.9 184.4 9.2 185.2 9.2 C 186.2 9.2 186.9 8.7 186.9 7.9 C 186.9 7.2 186.1 6.9 185.1 6.5 C 184.1 6.2 183.2 5.9 183.2 4.8 C 183.2 3.8 184 3.1 185.2 3.1 C 185.9 3.1 186.6 3.3 187.1 3.7 Z M 189.8 3.2 L 191.7 3.2 L 191.7 3.7 L 189.8 3.7 C 189.8 3.7 189.8 7.6 189.8 7.6 C 189.8 8.8 190.4 9.2 191.3 9.2 C 191.5 9.2 191.7 9.2 191.9 9.2 C 191.9 9.2 191.9 9.6 191.9 9.6 C 191.8 9.6 191.6 9.7 191.3 9.7 C 190.1 9.7 189.3 9 189.3 7.6 C 189.3 7.62 189.3 3.7 189.3 3.7 L 188.3 3.7 L 188.3 3.2 L 189.3 3.2 L 189.3 1.7 L 189.8 1.7 L 189.8 3.2 Z M 193.1 0.9 C 193.1 0.7 193.3 0.5 193.5 0.5 C 193.8 0.5 193.9 0.7 193.9 0.9 C 193.9 1.1 193.8 1.3 193.5 1.3 C 193.3 1.3 193.1 1.1 193.1 0.9 Z M 193.3 3.2 L 193.8 3.2 L 193.8 9.6 L 193.3 9.6 L 193.3 3.2 Z M 196.8 3.2 L 198.7 3.2 L 198.7 3.7 L 196.8 3.7 C 196.8 3.7 196.77 7.6 196.8 7.6 C 196.8 8.8 197.4 9.2 198.3 9.2 C 198.5 9.2 198.7 9.2 198.8 9.2 C 198.8 9.2 198.8 9.6 198.8 9.6 C 198.8 9.6 198.5 9.7 198.2 9.7 C 197.1 9.7 196.3 9 196.3 7.6 C 196.27 7.62 196.3 3.7 196.3 3.7 L 195.3 3.7 L 195.3 3.2 L 196.3 3.2 L 196.3 1.7 L 196.8 1.7 L 196.8 3.2 Z M 200.1 7.3 C 200.12 7.28 200.1 3.2 200.1 3.2 L 200.6 3.2 C 200.6 3.2 200.62 7.31 200.6 7.3 C 200.6 8.5 201.4 9.2 202.5 9.2 C 203.7 9.2 204.4 8.5 204.4 7.3 C 204.42 7.3 204.4 3.2 204.4 3.2 L 204.9 3.2 C 204.9 3.2 204.92 7.27 204.9 7.3 C 204.9 8.7 204 9.7 202.5 9.7 C 201 9.7 200.1 8.7 200.1 7.3 Z M 209.4 2.1 L 208.9 2.1 L 210.4 0.2 L 210.9 0.2 L 209.4 2.1 Z M 212.2 6.6 C 212.2 6.6 207.2 6.6 207.2 6.6 C 207.3 8.2 208.3 9.2 209.7 9.2 C 210.5 9.2 211.3 9 212 8.3 C 212 8.3 212 8.9 212 8.9 C 211.3 9.4 210.5 9.7 209.7 9.7 C 207.9 9.7 206.7 8.4 206.7 6.4 C 206.7 4.4 208.1 3.1 209.6 3.1 C 211 3.1 212.3 4.2 212.3 6.3 C 212.3 6.4 212.2 6.5 212.2 6.6 Z M 211.7 6.1 C 211.7 4.4 210.7 3.6 209.6 3.6 C 208.4 3.6 207.3 4.6 207.2 6.1 C 207.2 6.1 211.7 6.1 211.7 6.1 Z M 219.2 6.6 C 219.2 6.6 214.1 6.6 214.1 6.6 C 214.2 8.2 215.2 9.2 216.7 9.2 C 217.4 9.2 218.3 9 218.9 8.3 C 218.9 8.3 218.9 8.9 218.9 8.9 C 218.3 9.4 217.5 9.7 216.6 9.7 C 214.9 9.7 213.6 8.4 213.6 6.4 C 213.6 4.4 215 3.1 216.6 3.1 C 218 3.1 219.2 4.2 219.2 6.3 C 219.2 6.4 219.2 6.5 219.2 6.6 Z M 218.7 6.1 C 218.7 4.4 217.6 3.6 216.6 3.6 C 215.3 3.6 214.2 4.6 214.1 6.1 C 214.1 6.1 218.7 6.1 218.7 6.1 Z M 226.2 6.4 C 226.2 4.4 227.5 3.1 229.1 3.1 C 230.1 3.1 231.1 3.7 231.5 4.8 C 231.53 4.78 231.5 0.1 231.5 0.1 L 232 0.1 L 232 9.6 L 231.6 9.6 L 231.6 8 C 231.6 8 231.56 7.99 231.6 8 C 231.1 9.2 230.1 9.7 229.1 9.7 C 227.6 9.7 226.2 8.4 226.2 6.4 Z M 231.6 6.4 C 231.6 4.7 230.4 3.6 229.1 3.6 C 227.8 3.6 226.7 4.7 226.7 6.4 C 226.7 8.1 227.8 9.2 229.1 9.2 C 230.4 9.2 231.6 8.1 231.6 6.4 Z M 234.5 1.1 C 234.51 1.13 234.5 0.7 234.5 0.7 L 235 0.7 C 235 0.7 235.01 1.12 235 1.1 C 235 2.1 234.6 3.1 234.4 3.7 C 234.4 3.7 234 3.7 234 3.7 C 234.2 3.1 234.5 2.1 234.5 1.1 Z M 236.8 7.3 C 236.84 7.28 236.8 3.2 236.8 3.2 L 237.3 3.2 C 237.3 3.2 237.34 7.31 237.3 7.3 C 237.3 8.5 238.1 9.2 239.2 9.2 C 240.4 9.2 241.1 8.5 241.1 7.3 C 241.13 7.3 241.1 3.2 241.1 3.2 L 241.6 3.2 C 241.6 3.2 241.64 7.27 241.6 7.3 C 241.6 8.7 240.7 9.7 239.2 9.7 C 237.7 9.7 236.8 8.7 236.8 7.3 Z M 248.6 5.4 C 248.62 5.36 248.6 9.6 248.6 9.6 L 248.1 9.6 C 248.1 9.6 248.12 5.57 248.1 5.6 C 248.1 4.3 247.5 3.6 246.3 3.6 C 245.2 3.6 244.3 4.3 244.3 5.5 C 244.34 5.51 244.3 9.6 244.3 9.6 L 243.8 9.6 L 243.8 3.2 L 244.2 3.2 L 244.3 4.4 C 244.3 4.4 244.3 4.36 244.3 4.4 C 244.6 3.6 245.4 3.1 246.4 3.1 C 247.7 3.1 248.6 4 248.6 5.4 Z M 258.7 2.1 L 258.2 2.1 L 259.7 0.2 L 260.3 0.2 L 258.7 2.1 Z M 261.5 6.6 C 261.5 6.6 256.5 6.6 256.5 6.6 C 256.6 8.2 257.6 9.2 259 9.2 C 259.8 9.2 260.6 9 261.3 8.3 C 261.3 8.3 261.3 8.9 261.3 8.9 C 260.6 9.4 259.8 9.7 259 9.7 C 257.2 9.7 256 8.4 256 6.4 C 256 4.4 257.4 3.1 258.9 3.1 C 260.4 3.1 261.6 4.2 261.6 6.3 C 261.6 6.4 261.6 6.5 261.5 6.6 Z M 261.1 6.1 C 261 4.4 260 3.6 258.9 3.6 C 257.7 3.6 256.6 4.6 256.5 6.1 C 256.5 6.1 261.1 6.1 261.1 6.1 Z M 266 9.2 C 266.5 9.2 267.2 9.1 267.7 8.7 C 267.7 8.7 267.7 9.3 267.7 9.3 C 267.2 9.6 266.6 9.7 266 9.7 C 264.3 9.7 262.9 8.3 262.9 6.4 C 262.9 4.5 264.3 3.1 266 3.1 C 266.6 3.1 267.2 3.2 267.7 3.6 C 267.7 3.6 267.7 4.1 267.7 4.1 C 267.1 3.7 266.6 3.6 266 3.6 C 264.6 3.6 263.4 4.7 263.4 6.4 C 263.4 8.1 264.6 9.2 266 9.2 Z M 269.5 3.2 L 269.9 3.2 L 269.9 4.4 C 269.9 4.4 269.95 4.42 270 4.4 C 270.3 3.5 271.2 3.2 271.8 3.2 C 272 3.2 272.1 3.2 272.2 3.2 C 272.2 3.2 272.2 3.7 272.2 3.7 C 272.1 3.7 272 3.7 271.8 3.7 C 270.9 3.7 270 4.3 270 5.6 C 269.99 5.57 270 9.6 270 9.6 L 269.5 9.6 L 269.5 3.2 Z M 272.8 6.4 C 272.8 4.4 274.2 3.1 275.7 3.1 C 276.7 3.1 277.7 3.7 278.2 4.8 C 278.2 4.82 278.3 3.2 278.3 3.2 L 278.7 3.2 L 278.7 9.6 L 278.3 9.6 C 278.3 9.6 278.2 8 278.2 8 C 277.7 9.2 276.7 9.7 275.7 9.7 C 274.2 9.7 272.8 8.4 272.8 6.4 Z M 278.2 6.4 C 278.2 4.7 277.1 3.6 275.7 3.6 C 274.4 3.6 273.3 4.7 273.3 6.4 C 273.3 8.1 274.4 9.2 275.7 9.2 C 277.1 9.2 278.2 8.1 278.2 6.4 Z M 285.7 5.4 C 285.73 5.36 285.7 9.6 285.7 9.6 L 285.2 9.6 C 285.2 9.6 285.23 5.57 285.2 5.6 C 285.2 4.3 284.6 3.6 283.4 3.6 C 282.3 3.6 281.4 4.3 281.4 5.5 C 281.45 5.51 281.4 9.6 281.4 9.6 L 280.9 9.6 L 280.9 3.2 L 281.3 3.2 L 281.4 4.4 C 281.4 4.4 281.41 4.36 281.4 4.4 C 281.8 3.6 282.5 3.1 283.5 3.1 C 284.8 3.1 285.7 4 285.7 5.4 Z M 298.7 6.6 C 298.7 6.6 293.6 6.6 293.6 6.6 C 293.7 8.2 294.7 9.2 296.2 9.2 C 296.9 9.2 297.7 9 298.4 8.3 C 298.4 8.3 298.4 8.9 298.4 8.9 C 297.8 9.4 297 9.7 296.1 9.7 C 294.3 9.7 293.1 8.4 293.1 6.4 C 293.1 4.4 294.5 3.1 296.1 3.1 C 297.5 3.1 298.7 4.2 298.7 6.3 C 298.7 6.4 298.7 6.5 298.7 6.6 Z M 298.2 6.1 C 298.2 4.4 297.1 3.6 296.1 3.6 C 294.8 3.6 293.7 4.6 293.6 6.1 C 293.6 6.1 298.2 6.1 298.2 6.1 Z M 301.1 3.2 L 303 3.2 L 303 3.7 L 301.1 3.7 C 301.1 3.7 301.1 7.6 301.1 7.6 C 301.1 8.8 301.7 9.2 302.6 9.2 C 302.8 9.2 303 9.2 303.2 9.2 C 303.2 9.2 303.2 9.6 303.2 9.6 C 303.1 9.6 302.9 9.7 302.6 9.7 C 301.4 9.7 300.6 9 300.6 7.6 C 300.6 7.62 300.6 3.7 300.6 3.7 L 299.6 3.7 L 299.6 3.2 L 300.6 3.2 L 300.6 1.7 L 301.1 1.7 L 301.1 3.2 Z M 309.6 6.4 C 309.6 4.4 311 3.1 312.5 3.1 C 313.5 3.1 314.6 3.7 315 4.8 C 315.01 4.78 315 0.1 315 0.1 L 315.5 0.1 L 315.5 9.6 L 315.1 9.6 L 315 8 C 315 8 315.03 7.99 315 8 C 314.6 9.2 313.6 9.7 312.5 9.7 C 311 9.7 309.6 8.4 309.6 6.4 Z M 315 6.4 C 315 4.7 313.9 3.6 312.6 3.6 C 311.3 3.6 310.1 4.7 310.1 6.4 C 310.1 8.1 311.3 9.2 312.6 9.2 C 313.9 9.2 315 8.1 315 6.4 Z M 318 1.1 C 317.98 1.13 318 0.7 318 0.7 L 318.5 0.7 C 318.5 0.7 318.49 1.12 318.5 1.1 C 318.5 2.1 318.1 3.1 317.9 3.7 C 317.9 3.7 317.4 3.7 317.4 3.7 C 317.7 3.1 318 2.1 318 1.1 Z M 320.3 7.3 C 320.31 7.28 320.3 3.2 320.3 3.2 L 320.8 3.2 C 320.8 3.2 320.81 7.31 320.8 7.3 C 320.8 8.5 321.5 9.2 322.7 9.2 C 323.9 9.2 324.6 8.5 324.6 7.3 C 324.61 7.3 324.6 3.2 324.6 3.2 L 325.1 3.2 C 325.1 3.2 325.11 7.27 325.1 7.3 C 325.1 8.7 324.2 9.7 322.7 9.7 C 321.2 9.7 320.3 8.7 320.3 7.3 Z M 332.1 5.4 C 332.09 5.36 332.1 9.6 332.1 9.6 L 331.6 9.6 C 331.6 9.6 331.59 5.57 331.6 5.6 C 331.6 4.3 330.9 3.6 329.8 3.6 C 328.7 3.6 327.8 4.3 327.8 5.5 C 327.81 5.51 327.8 9.6 327.8 9.6 L 327.3 9.6 L 327.3 3.2 L 327.7 3.2 L 327.8 4.4 C 327.8 4.4 327.77 4.36 327.8 4.4 C 328.1 3.6 328.9 3.1 329.9 3.1 C 331.2 3.1 332.1 4 332.1 5.4 Z M 339.4 6.6 C 339.4 6.6 334.4 6.6 334.4 6.6 C 334.4 8.2 335.5 9.2 336.9 9.2 C 337.7 9.2 338.5 9 339.2 8.3 C 339.2 8.3 339.2 8.9 339.2 8.9 C 338.5 9.4 337.7 9.7 336.9 9.7 C 335.1 9.7 333.8 8.4 333.8 6.4 C 333.8 4.4 335.3 3.1 336.8 3.1 C 338.2 3.1 339.4 4.2 339.4 6.3 C 339.4 6.4 339.4 6.5 339.4 6.6 Z M 338.9 6.1 C 338.9 4.4 337.9 3.6 336.8 3.6 C 335.6 3.6 334.5 4.6 334.4 6.1 C 334.4 6.1 338.9 6.1 338.9 6.1 Z " stroke="none" fill="#000"/>
  </g>
</svg>