<?xml version="1.0" standalone="no"?>
<!DOCTYPE svg PUBLIC "-//W3C//DTD SVG 1.1//EN" "http://www.w3.org/Graphics/SVG/1.1/DTD/svg11.dtd">
<svg xmlns="http://www.w3.org/2000/svg" version="1.1" width="215.2px" height="85px" viewBox="0 0 215.2 85">
  <desc>Corentin Roudaut Dsaa Design de Produits Ensaama-Olivier de Serres</desc>
  <defs/>
  <g id="Polygon22809">
    <path d="M 1.4 36.8 L 7.9 36.8 L 7.9 38.5 L 3.2 38.5 L 3.2 41.6 L 7.5 41.6 L 7.5 43.1 L 3.2 43.1 L 3.2 46.4 L 7.9 46.4 L 7.9 48 L 1.4 48 L 1.4 36.8 Z M 17 42.6 C 16.99 42.55 17 48 17 48 L 15.2 48 C 15.2 48 15.23 43.12 15.2 43.1 C 15.2 41.9 14.7 41.3 13.6 41.3 C 12.5 41.3 11.8 42 11.8 43.1 C 11.76 43.05 11.8 48 11.8 48 L 10 48 L 10 39.8 L 11.4 39.8 L 11.5 41 C 11.5 41 11.59 41.02 11.6 41 C 12.1 40.3 12.9 39.6 14.1 39.6 C 15.9 39.6 17 40.8 17 42.6 Z M 24.5 40.3 C 24.5 40.3 24.5 41.9 24.5 41.9 C 23.9 41.5 23 41.1 22 41.1 C 21.1 41.1 20.6 41.5 20.6 42.1 C 20.6 42.7 21.2 42.9 22.3 43.2 C 23.6 43.5 25 44 25 45.7 C 25 47.2 23.8 48.2 21.7 48.2 C 20.7 48.2 19.6 47.9 18.9 47.3 C 18.9 47.3 18.9 45.6 18.9 45.6 C 19.6 46.2 20.5 46.7 21.7 46.7 C 22.7 46.7 23.3 46.3 23.3 45.7 C 23.3 45 22.6 44.8 21.4 44.4 C 20.1 44 18.9 43.6 18.9 42.1 C 18.9 40.7 20.1 39.6 22 39.6 C 22.9 39.6 23.9 39.9 24.5 40.3 Z M 26.3 43.9 C 26.3 41.3 28.1 39.6 30 39.6 C 31.2 39.6 32.2 40.2 32.8 41.2 C 32.81 41.22 33 39.8 33 39.8 L 34.5 39.8 L 34.5 48 L 33 48 C 33 48 32.81 46.59 32.8 46.6 C 32.2 47.6 31.2 48.2 30 48.2 C 28.1 48.2 26.3 46.5 26.3 43.9 Z M 32.7 43.9 C 32.7 42.3 31.7 41.2 30.4 41.2 C 29.1 41.2 28.1 42.3 28.1 43.9 C 28.1 45.5 29.1 46.6 30.4 46.6 C 31.7 46.6 32.7 45.5 32.7 43.9 Z M 36.3 43.9 C 36.3 41.3 38.1 39.6 40 39.6 C 41.2 39.6 42.2 40.2 42.8 41.2 C 42.81 41.22 43 39.8 43 39.8 L 44.5 39.8 L 44.5 48 L 43 48 C 43 48 42.81 46.59 42.8 46.6 C 42.2 47.6 41.2 48.2 40 48.2 C 38.1 48.2 36.3 46.5 36.3 43.9 Z M 42.8 43.9 C 42.8 42.3 41.7 41.2 40.4 41.2 C 39.1 41.2 38.1 42.3 38.1 43.9 C 38.1 45.5 39.1 46.6 40.4 46.6 C 41.7 46.6 42.8 45.5 42.8 43.9 Z M 57.9 42.6 C 57.87 42.55 57.9 48 57.9 48 L 56.1 48 C 56.1 48 56.1 42.87 56.1 42.9 C 56.1 41.8 55.7 41.3 54.7 41.3 C 53.8 41.3 53.2 42 53.2 42.8 C 53.2 42.84 53.2 48 53.2 48 L 51.4 48 C 51.4 48 51.44 42.87 51.4 42.9 C 51.4 41.8 51 41.3 50.1 41.3 C 49.1 41.3 48.6 42.1 48.6 42.9 C 48.55 42.93 48.6 48 48.6 48 L 46.8 48 L 46.8 39.8 L 48.1 39.8 L 48.3 41 C 48.3 41 48.39 40.99 48.4 41 C 48.8 40.2 49.5 39.6 50.6 39.6 C 51.8 39.6 52.5 40.2 52.9 41 C 53.4 40.2 54.2 39.6 55.3 39.6 C 57 39.6 57.9 40.8 57.9 42.6 Z M 59.6 43.9 C 59.6 41.3 61.4 39.6 63.3 39.6 C 64.5 39.6 65.5 40.2 66.1 41.2 C 66.14 41.22 66.3 39.8 66.3 39.8 L 67.8 39.8 L 67.8 48 L 66.3 48 C 66.3 48 66.14 46.59 66.1 46.6 C 65.5 47.6 64.5 48.2 63.3 48.2 C 61.4 48.2 59.6 46.5 59.6 43.9 Z M 66.1 43.9 C 66.1 42.3 65.1 41.2 63.7 41.2 C 62.4 41.2 61.4 42.3 61.4 43.9 C 61.4 45.5 62.4 46.6 63.7 46.6 C 65.1 46.6 66.1 45.5 66.1 43.9 Z M 70 42.5 L 74.1 42.5 L 74.1 43.9 L 70 43.9 L 70 42.5 Z M 75.8 42.4 C 75.8 39.1 78.3 36.6 81.5 36.6 C 84.7 36.6 87.1 39.1 87.1 42.4 C 87.1 45.8 84.7 48.2 81.5 48.2 C 78.3 48.2 75.8 45.8 75.8 42.4 Z M 85.3 42.4 C 85.3 39.8 83.4 38.3 81.5 38.3 C 79.5 38.3 77.7 39.8 77.7 42.4 C 77.7 45.1 79.5 46.6 81.5 46.6 C 83.4 46.6 85.3 45 85.3 42.4 Z M 89 36 L 90.8 36 L 90.8 48 L 89 48 L 89 36 Z M 93 37.2 C 93 36.6 93.4 36.2 94 36.2 C 94.6 36.2 95.1 36.6 95.1 37.2 C 95.1 37.8 94.6 38.2 94 38.2 C 93.4 38.2 93 37.8 93 37.2 Z M 93.1 39.8 L 94.9 39.8 L 94.9 48 L 93.1 48 L 93.1 39.8 Z M 96.4 39.8 L 98.3 39.8 L 100.3 46.1 L 100.4 46.1 L 102.4 39.8 L 104.3 39.8 L 101.3 48 L 99.4 48 L 96.4 39.8 Z M 105.6 37.2 C 105.6 36.6 106 36.2 106.6 36.2 C 107.2 36.2 107.6 36.6 107.6 37.2 C 107.6 37.8 107.2 38.2 106.6 38.2 C 106 38.2 105.6 37.8 105.6 37.2 Z M 105.7 39.8 L 107.5 39.8 L 107.5 48 L 105.7 48 L 105.7 39.8 Z M 116.9 44.4 C 116.9 44.4 111 44.4 111 44.4 C 111.3 45.9 112.4 46.7 113.8 46.7 C 114.7 46.7 115.7 46.4 116.5 45.7 C 116.5 45.7 116.5 47.3 116.5 47.3 C 115.6 47.9 114.7 48.2 113.6 48.2 C 111 48.2 109.3 46.5 109.3 43.9 C 109.3 41.3 111.2 39.6 113.4 39.6 C 115.3 39.6 117 41 117 43.8 C 117 44 117 44.2 116.9 44.4 Z M 115.3 43.3 C 115.2 41.8 114.4 41.1 113.3 41.1 C 112.2 41.1 111.2 41.9 111 43.3 C 111 43.3 115.3 43.3 115.3 43.3 Z M 118.8 39.8 L 120.2 39.8 L 120.4 41.1 C 120.4 41.1 120.4 41.08 120.4 41.1 C 121 40.1 122 39.7 122.7 39.7 C 122.9 39.7 123.1 39.7 123.3 39.8 C 123.3 39.8 123.3 41.4 123.3 41.4 C 123.1 41.4 122.9 41.4 122.7 41.4 C 121.6 41.4 120.6 42 120.6 43.6 C 120.55 43.59 120.6 48 120.6 48 L 118.8 48 L 118.8 39.8 Z M 127.8 43.9 C 127.8 41.3 129.6 39.6 131.5 39.6 C 132.6 39.6 133.7 40.2 134.2 41.1 C 134.2 41.14 134.2 36 134.2 36 L 136 36 L 136 48 L 134.5 48 C 134.5 48 134.29 46.59 134.3 46.6 C 133.7 47.6 132.7 48.2 131.5 48.2 C 129.6 48.2 127.8 46.5 127.8 43.9 Z M 134.2 43.9 C 134.2 42.3 133.2 41.2 131.9 41.2 C 130.6 41.2 129.6 42.3 129.6 43.9 C 129.6 45.5 130.6 46.6 131.9 46.6 C 133.2 46.6 134.2 45.5 134.2 43.9 Z M 145.4 44.4 C 145.4 44.4 139.5 44.4 139.5 44.4 C 139.8 45.9 140.8 46.7 142.3 46.7 C 143.2 46.7 144.1 46.4 145 45.7 C 145 45.7 145 47.3 145 47.3 C 144.1 47.9 143.2 48.2 142.1 48.2 C 139.4 48.2 137.8 46.5 137.8 43.9 C 137.8 41.3 139.6 39.6 141.8 39.6 C 143.8 39.6 145.4 41 145.4 43.8 C 145.4 44 145.4 44.2 145.4 44.4 Z M 143.8 43.3 C 143.7 41.8 142.8 41.1 141.8 41.1 C 140.7 41.1 139.7 41.9 139.5 43.3 C 139.5 43.3 143.8 43.3 143.8 43.3 Z M 157.4 37.3 C 157.4 37.3 157.4 39.1 157.4 39.1 C 156.6 38.5 155.6 38.2 154.7 38.2 C 153.6 38.2 152.8 38.7 152.8 39.7 C 152.8 40.5 153.5 40.9 154.9 41.5 C 156.5 42.2 158 43 158 44.9 C 158 47 156.4 48.2 154.2 48.2 C 152.8 48.2 151.7 47.8 150.9 47.2 C 150.9 47.2 150.9 45.3 150.9 45.3 C 151.7 46.1 152.9 46.6 154 46.6 C 155.2 46.6 156.2 46 156.2 45 C 156.2 44 155.4 43.6 153.9 43 C 152.4 42.3 151 41.6 151 39.7 C 151 37.8 152.5 36.6 154.6 36.6 C 155.7 36.6 156.7 36.9 157.4 37.3 Z M 167 44.4 C 167 44.4 161.1 44.4 161.1 44.4 C 161.3 45.9 162.4 46.7 163.9 46.7 C 164.8 46.7 165.7 46.4 166.5 45.7 C 166.5 45.7 166.5 47.3 166.5 47.3 C 165.7 47.9 164.7 48.2 163.7 48.2 C 161 48.2 159.4 46.5 159.4 43.9 C 159.4 41.3 161.2 39.6 163.4 39.6 C 165.4 39.6 167 41 167 43.8 C 167 44 167 44.2 167 44.4 Z M 165.3 43.3 C 165.3 41.8 164.4 41.1 163.4 41.1 C 162.3 41.1 161.3 41.9 161.1 43.3 C 161.1 43.3 165.3 43.3 165.3 43.3 Z M 168.8 39.8 L 170.2 39.8 L 170.4 41.1 C 170.4 41.1 170.46 41.08 170.5 41.1 C 171 40.1 172 39.7 172.8 39.7 C 173 39.7 173.2 39.7 173.3 39.8 C 173.3 39.8 173.3 41.4 173.3 41.4 C 173.1 41.4 172.9 41.4 172.7 41.4 C 171.7 41.4 170.6 42 170.6 43.6 C 170.61 43.59 170.6 48 170.6 48 L 168.8 48 L 168.8 39.8 Z M 174.7 39.8 L 176.1 39.8 L 176.3 41.1 C 176.3 41.1 176.35 41.08 176.4 41.1 C 176.9 40.1 177.9 39.7 178.6 39.7 C 178.9 39.7 179.1 39.7 179.2 39.8 C 179.2 39.8 179.2 41.4 179.2 41.4 C 179 41.4 178.8 41.4 178.6 41.4 C 177.6 41.4 176.5 42 176.5 43.6 C 176.5 43.59 176.5 48 176.5 48 L 174.7 48 L 174.7 39.8 Z M 187.5 44.4 C 187.5 44.4 181.6 44.4 181.6 44.4 C 181.9 45.9 183 46.7 184.4 46.7 C 185.3 46.7 186.2 46.4 187.1 45.7 C 187.1 45.7 187.1 47.3 187.1 47.3 C 186.2 47.9 185.3 48.2 184.2 48.2 C 181.5 48.2 179.9 46.5 179.9 43.9 C 179.9 41.3 181.7 39.6 183.9 39.6 C 185.9 39.6 187.5 41 187.5 43.8 C 187.5 44 187.5 44.2 187.5 44.4 Z M 185.9 43.3 C 185.8 41.8 184.9 41.1 183.9 41.1 C 182.8 41.1 181.8 41.9 181.6 43.3 C 181.6 43.3 185.9 43.3 185.9 43.3 Z M 194.6 40.3 C 194.6 40.3 194.6 41.9 194.6 41.9 C 194.1 41.5 193.1 41.1 192.2 41.1 C 191.2 41.1 190.7 41.5 190.7 42.1 C 190.7 42.7 191.4 42.9 192.4 43.2 C 193.7 43.5 195.1 44 195.1 45.7 C 195.1 47.2 193.9 48.2 191.9 48.2 C 190.8 48.2 189.8 47.9 189 47.3 C 189 47.3 189 45.6 189 45.6 C 189.7 46.2 190.6 46.7 191.8 46.7 C 192.8 46.7 193.4 46.3 193.4 45.7 C 193.4 45 192.7 44.8 191.6 44.4 C 190.2 44 189 43.6 189 42.1 C 189 40.7 190.2 39.6 192.1 39.6 C 193.1 39.6 194 39.9 194.6 40.3 Z " stroke="none" fill="#fff"/>
  </g>
  <g id="Polygon22808">
    <path d="M 10.3 24.4 C 10.3 27.8 7.9 30 4.3 30 C 4.33 30 1.4 30 1.4 30 L 1.4 18.8 C 1.4 18.8 4.33 18.84 4.3 18.8 C 8 18.8 10.3 21.1 10.3 24.4 Z M 3.2 28.4 C 3.2 28.4 4.41 28.35 4.4 28.4 C 6.8 28.4 8.5 26.9 8.5 24.4 C 8.5 21.9 6.8 20.5 4.4 20.5 C 4.42 20.49 3.2 20.5 3.2 20.5 L 3.2 28.4 Z M 17.5 22.3 C 17.5 22.3 17.5 23.9 17.5 23.9 C 16.9 23.5 16 23.1 15 23.1 C 14.1 23.1 13.6 23.5 13.6 24.1 C 13.6 24.7 14.2 24.9 15.3 25.2 C 16.5 25.5 18 26 18 27.7 C 18 29.2 16.8 30.2 14.7 30.2 C 13.6 30.2 12.6 29.9 11.9 29.3 C 11.9 29.3 11.9 27.6 11.9 27.6 C 12.6 28.2 13.5 28.7 14.7 28.7 C 15.7 28.7 16.3 28.3 16.3 27.7 C 16.3 27 15.6 26.8 14.4 26.4 C 13.1 26 11.9 25.6 11.9 24.1 C 11.9 22.7 13 21.6 15 21.6 C 15.9 21.6 16.9 21.9 17.5 22.3 Z M 19.3 25.9 C 19.3 23.3 21.1 21.6 23 21.6 C 24.2 21.6 25.2 22.2 25.8 23.2 C 25.8 23.22 26 21.8 26 21.8 L 27.5 21.8 L 27.5 30 L 26 30 C 26 30 25.8 28.59 25.8 28.6 C 25.2 29.6 24.2 30.2 23 30.2 C 21.1 30.2 19.3 28.5 19.3 25.9 Z M 25.7 25.9 C 25.7 24.3 24.7 23.2 23.4 23.2 C 22.1 23.2 21.1 24.3 21.1 25.9 C 21.1 27.5 22.1 28.6 23.4 28.6 C 24.7 28.6 25.7 27.5 25.7 25.9 Z M 29.3 25.9 C 29.3 23.3 31.1 21.6 33 21.6 C 34.2 21.6 35.2 22.2 35.8 23.2 C 35.81 23.22 36 21.8 36 21.8 L 37.5 21.8 L 37.5 30 L 36 30 C 36 30 35.81 28.59 35.8 28.6 C 35.2 29.6 34.2 30.2 33 30.2 C 31.1 30.2 29.3 28.5 29.3 25.9 Z M 35.7 25.9 C 35.7 24.3 34.7 23.2 33.4 23.2 C 32.1 23.2 31.1 24.3 31.1 25.9 C 31.1 27.5 32.1 28.6 33.4 28.6 C 34.7 28.6 35.7 27.5 35.7 25.9 Z M 52.9 24.4 C 52.9 27.8 50.5 30 46.9 30 C 46.9 30 44 30 44 30 L 44 18.8 C 44 18.8 46.9 18.84 46.9 18.8 C 50.5 18.8 52.9 21.1 52.9 24.4 Z M 45.8 28.4 C 45.8 28.4 46.98 28.35 47 28.4 C 49.4 28.4 51.1 26.9 51.1 24.4 C 51.1 21.9 49.4 20.5 47 20.5 C 46.99 20.49 45.8 20.5 45.8 20.5 L 45.8 28.4 Z M 61.9 26.4 C 61.9 26.4 56 26.4 56 26.4 C 56.3 27.9 57.4 28.7 58.8 28.7 C 59.7 28.7 60.6 28.4 61.5 27.7 C 61.5 27.7 61.5 29.3 61.5 29.3 C 60.6 29.9 59.7 30.2 58.6 30.2 C 55.9 30.2 54.3 28.5 54.3 25.9 C 54.3 23.3 56.1 21.6 58.3 21.6 C 60.3 21.6 61.9 23 61.9 25.8 C 61.9 26 61.9 26.2 61.9 26.4 Z M 60.3 25.3 C 60.2 23.8 59.3 23.1 58.3 23.1 C 57.2 23.1 56.2 23.9 56 25.3 C 56 25.3 60.3 25.3 60.3 25.3 Z M 69 22.3 C 69 22.3 69 23.9 69 23.9 C 68.5 23.5 67.5 23.1 66.6 23.1 C 65.7 23.1 65.1 23.5 65.1 24.1 C 65.1 24.7 65.8 24.9 66.8 25.2 C 68.1 25.5 69.5 26 69.5 27.7 C 69.5 29.2 68.3 30.2 66.3 30.2 C 65.2 30.2 64.2 29.9 63.4 29.3 C 63.4 29.3 63.4 27.6 63.4 27.6 C 64.1 28.2 65 28.7 66.2 28.7 C 67.2 28.7 67.8 28.3 67.8 27.7 C 67.8 27 67.1 26.8 66 26.4 C 64.6 26 63.4 25.6 63.4 24.1 C 63.4 22.7 64.6 21.6 66.5 21.6 C 67.5 21.6 68.4 21.9 69 22.3 Z M 71.2 19.2 C 71.2 18.6 71.6 18.2 72.2 18.2 C 72.8 18.2 73.3 18.6 73.3 19.2 C 73.3 19.8 72.8 20.2 72.2 20.2 C 71.6 20.2 71.2 19.8 71.2 19.2 Z M 71.3 21.8 L 73.1 21.8 L 73.1 30 L 71.3 30 L 71.3 21.8 Z M 81.4 23.2 C 81.45 23.16 81.6 21.8 81.6 21.8 L 83.1 21.8 C 83.1 21.8 83.11 29.19 83.1 29.2 C 83.1 31.9 81.2 33.3 78.9 33.3 C 77.8 33.3 76.6 33 75.8 32.4 C 75.8 32.4 75.8 30.6 75.8 30.6 C 76.6 31.3 77.7 31.8 78.7 31.8 C 80.2 31.8 81.3 30.8 81.3 29.4 C 81.3 29.4 81.3 28.4 81.3 28.4 C 80.8 29.3 79.8 29.8 78.6 29.8 C 76.7 29.8 75 28.2 75 25.7 C 75 23.3 76.8 21.6 78.7 21.6 C 79.8 21.6 80.9 22.2 81.4 23.2 Z M 76.7 25.8 C 76.7 27.2 77.7 28.3 79.1 28.3 C 80.4 28.3 81.4 27.2 81.4 25.7 C 81.4 24.3 80.4 23.2 79.1 23.2 C 77.7 23.2 76.7 24.3 76.7 25.8 Z M 92.4 24.6 C 92.43 24.55 92.4 30 92.4 30 L 90.7 30 C 90.7 30 90.66 25.12 90.7 25.1 C 90.7 23.9 90.1 23.3 89 23.3 C 88 23.3 87.2 24 87.2 25.1 C 87.19 25.05 87.2 30 87.2 30 L 85.4 30 L 85.4 21.8 L 86.8 21.8 L 87 23 C 87 23 87.03 23.02 87 23 C 87.5 22.3 88.4 21.6 89.5 21.6 C 91.3 21.6 92.4 22.8 92.4 24.6 Z M 98.1 25.9 C 98.1 23.3 99.9 21.6 101.8 21.6 C 103 21.6 104 22.2 104.5 23.1 C 104.55 23.14 104.5 18 104.5 18 L 106.3 18 L 106.3 30 L 104.8 30 C 104.8 30 104.64 28.59 104.6 28.6 C 104.1 29.6 103 30.2 101.8 30.2 C 99.9 30.2 98.1 28.5 98.1 25.9 Z M 104.6 25.9 C 104.6 24.3 103.6 23.2 102.3 23.2 C 100.9 23.2 99.9 24.3 99.9 25.9 C 99.9 27.5 100.9 28.6 102.3 28.6 C 103.6 28.6 104.6 27.5 104.6 25.9 Z M 115.7 26.4 C 115.7 26.4 109.8 26.4 109.8 26.4 C 110.1 27.9 111.2 28.7 112.6 28.7 C 113.6 28.7 114.5 28.4 115.3 27.7 C 115.3 27.7 115.3 29.3 115.3 29.3 C 114.5 29.9 113.5 30.2 112.5 30.2 C 109.8 30.2 108.1 28.5 108.1 25.9 C 108.1 23.3 110 21.6 112.2 21.6 C 114.1 21.6 115.8 23 115.8 25.8 C 115.8 26 115.8 26.2 115.7 26.4 Z M 114.1 25.3 C 114.1 23.8 113.2 23.1 112.2 23.1 C 111 23.1 110.1 23.9 109.8 25.3 C 109.8 25.3 114.1 25.3 114.1 25.3 Z M 121.8 18.8 C 121.8 18.8 124.75 18.84 124.8 18.8 C 127.6 18.8 129.3 20.2 129.3 22.6 C 129.3 24.8 127.6 26.5 124.8 26.5 C 124.83 26.46 123.6 26.5 123.6 26.5 L 123.6 30 L 121.8 30 L 121.8 18.8 Z M 127.5 22.6 C 127.5 21.2 126.5 20.5 124.9 20.5 C 124.92 20.49 123.6 20.5 123.6 20.5 L 123.6 24.8 C 123.6 24.8 124.92 24.83 124.9 24.8 C 126.5 24.8 127.5 24 127.5 22.6 Z M 131 21.8 L 132.4 21.8 L 132.6 23.1 C 132.6 23.1 132.58 23.08 132.6 23.1 C 133.1 22.1 134.1 21.7 134.9 21.7 C 135.1 21.7 135.3 21.7 135.4 21.8 C 135.4 21.8 135.4 23.4 135.4 23.4 C 135.3 23.4 135 23.4 134.8 23.4 C 133.8 23.4 132.7 24 132.7 25.6 C 132.73 25.59 132.7 30 132.7 30 L 131 30 L 131 21.8 Z M 136.1 25.9 C 136.1 23.4 137.9 21.6 140.3 21.6 C 142.7 21.6 144.4 23.4 144.4 25.9 C 144.4 28.4 142.7 30.2 140.3 30.2 C 137.9 30.2 136.1 28.4 136.1 25.9 Z M 142.7 25.9 C 142.7 24.2 141.5 23.2 140.3 23.2 C 139.1 23.2 137.9 24.2 137.9 25.9 C 137.9 27.6 139.1 28.6 140.3 28.6 C 141.5 28.6 142.7 27.6 142.7 25.9 Z M 145.8 25.9 C 145.8 23.3 147.6 21.6 149.5 21.6 C 150.6 21.6 151.7 22.2 152.2 23.1 C 152.2 23.14 152.2 18 152.2 18 L 154 18 L 154 30 L 152.5 30 C 152.5 30 152.29 28.59 152.3 28.6 C 151.7 29.6 150.7 30.2 149.5 30.2 C 147.6 30.2 145.8 28.5 145.8 25.9 Z M 152.2 25.9 C 152.2 24.3 151.2 23.2 149.9 23.2 C 148.6 23.2 147.6 24.3 147.6 25.9 C 147.6 27.5 148.6 28.6 149.9 28.6 C 151.2 28.6 152.2 27.5 152.2 25.9 Z M 156.2 26.8 C 156.19 26.79 156.2 21.8 156.2 21.8 L 158 21.8 C 158 21.8 157.96 26.81 158 26.8 C 158 27.9 158.6 28.6 159.7 28.6 C 160.8 28.6 161.4 27.9 161.4 26.8 C 161.43 26.79 161.4 21.8 161.4 21.8 L 163.2 21.8 C 163.2 21.8 163.2 26.78 163.2 26.8 C 163.2 28.8 161.8 30.2 159.7 30.2 C 157.5 30.2 156.2 28.8 156.2 26.8 Z M 165.3 19.2 C 165.3 18.6 165.7 18.2 166.3 18.2 C 166.9 18.2 167.4 18.6 167.4 19.2 C 167.4 19.8 166.9 20.2 166.3 20.2 C 165.7 20.2 165.3 19.8 165.3 19.2 Z M 165.4 21.8 L 167.2 21.8 L 167.2 30 L 165.4 30 L 165.4 21.8 Z M 171.7 21.8 L 174 21.8 L 174 23.3 L 171.7 23.3 C 171.7 23.3 171.69 26.94 171.7 26.9 C 171.7 28.1 172.4 28.6 173.4 28.6 C 173.6 28.6 173.9 28.6 174.1 28.5 C 174.1 28.5 174.1 30 174.1 30 C 173.9 30.1 173.5 30.1 173 30.1 C 171.1 30.1 169.9 29 169.9 27 C 169.95 27.03 169.9 23.3 169.9 23.3 L 168.7 23.3 L 168.7 21.8 L 170 21.8 L 170 19.9 L 171.7 19.9 L 171.7 21.8 Z M 181 22.3 C 181 22.3 181 23.9 181 23.9 C 180.4 23.5 179.4 23.1 178.5 23.1 C 177.6 23.1 177.1 23.5 177.1 24.1 C 177.1 24.7 177.7 24.9 178.7 25.2 C 180 25.5 181.4 26 181.4 27.7 C 181.4 29.2 180.2 30.2 178.2 30.2 C 177.1 30.2 176.1 29.9 175.3 29.3 C 175.3 29.3 175.3 27.6 175.3 27.6 C 176 28.2 177 28.7 178.1 28.7 C 179.1 28.7 179.7 28.3 179.7 27.7 C 179.7 27 179 26.8 177.9 26.4 C 176.5 26 175.3 25.6 175.3 24.1 C 175.3 22.7 176.5 21.6 178.4 21.6 C 179.4 21.6 180.4 21.9 181 22.3 Z " stroke="none" fill="#fff"/>
  </g>
  <g id="Polygon22807">
    <path d="M 6.3 12.2 C 3.4 12.2 0.7 10 0.7 6.4 C 0.7 2.9 3.4 0.6 6.3 0.6 C 7.6 0.6 8.6 0.9 9.3 1.3 C 9.3 1.3 9.3 3.2 9.3 3.2 C 8.5 2.6 7.6 2.3 6.5 2.3 C 4.5 2.3 2.5 3.8 2.5 6.4 C 2.5 9 4.5 10.5 6.5 10.5 C 7.6 10.5 8.5 10.2 9.3 9.6 C 9.3 9.6 9.3 11.5 9.3 11.5 C 8.6 11.9 7.6 12.2 6.3 12.2 Z M 10.6 7.9 C 10.6 5.4 12.4 3.6 14.7 3.6 C 17.1 3.6 18.9 5.4 18.9 7.9 C 18.9 10.4 17.1 12.2 14.7 12.2 C 12.4 12.2 10.6 10.4 10.6 7.9 Z M 17.1 7.9 C 17.1 6.2 15.9 5.2 14.7 5.2 C 13.5 5.2 12.3 6.2 12.3 7.9 C 12.3 9.6 13.5 10.6 14.7 10.6 C 15.9 10.6 17.1 9.6 17.1 7.9 Z M 20.7 3.8 L 22.1 3.8 L 22.3 5.1 C 22.3 5.1 22.32 5.08 22.3 5.1 C 22.9 4.1 23.9 3.7 24.6 3.7 C 24.8 3.7 25 3.7 25.2 3.8 C 25.2 3.8 25.2 5.4 25.2 5.4 C 25 5.4 24.8 5.4 24.6 5.4 C 23.5 5.4 22.5 6 22.5 7.6 C 22.47 7.59 22.5 12 22.5 12 L 20.7 12 L 20.7 3.8 Z M 33.5 8.4 C 33.5 8.4 27.6 8.4 27.6 8.4 C 27.8 9.9 28.9 10.7 30.4 10.7 C 31.3 10.7 32.2 10.4 33 9.7 C 33 9.7 33 11.3 33 11.3 C 32.2 11.9 31.2 12.2 30.2 12.2 C 27.5 12.2 25.9 10.5 25.9 7.9 C 25.9 5.3 27.7 3.6 29.9 3.6 C 31.9 3.6 33.5 5 33.5 7.8 C 33.5 8 33.5 8.2 33.5 8.4 Z M 31.8 7.3 C 31.8 5.8 30.9 5.1 29.9 5.1 C 28.8 5.1 27.8 5.9 27.6 7.3 C 27.6 7.3 31.8 7.3 31.8 7.3 Z M 42.3 6.6 C 42.33 6.55 42.3 12 42.3 12 L 40.6 12 C 40.6 12 40.56 7.12 40.6 7.1 C 40.6 5.9 40 5.3 38.9 5.3 C 37.9 5.3 37.1 6 37.1 7.1 C 37.09 7.05 37.1 12 37.1 12 L 35.3 12 L 35.3 3.8 L 36.7 3.8 L 36.9 5 C 36.9 5 36.93 5.02 36.9 5 C 37.4 4.3 38.3 3.6 39.4 3.6 C 41.2 3.6 42.3 4.8 42.3 6.6 Z M 46.7 3.8 L 48.9 3.8 L 48.9 5.3 L 46.7 5.3 C 46.7 5.3 46.66 8.94 46.7 8.9 C 46.7 10.1 47.4 10.6 48.4 10.6 C 48.6 10.6 48.8 10.6 49.1 10.5 C 49.1 10.5 49.1 12 49.1 12 C 48.9 12.1 48.5 12.1 48 12.1 C 46.1 12.1 44.9 11 44.9 9 C 44.93 9.03 44.9 5.3 44.9 5.3 L 43.7 5.3 L 43.7 3.8 L 45 3.8 L 45 1.9 L 46.7 1.9 L 46.7 3.8 Z M 50.5 1.2 C 50.5 0.6 51 0.2 51.6 0.2 C 52.2 0.2 52.6 0.6 52.6 1.2 C 52.6 1.8 52.2 2.2 51.6 2.2 C 51 2.2 50.5 1.8 50.5 1.2 Z M 50.7 3.8 L 52.5 3.8 L 52.5 12 L 50.7 12 L 50.7 3.8 Z M 61.8 6.6 C 61.8 6.55 61.8 12 61.8 12 L 60 12 C 60 12 60.03 7.12 60 7.1 C 60 5.9 59.5 5.3 58.4 5.3 C 57.3 5.3 56.6 6 56.6 7.1 C 56.56 7.05 56.6 12 56.6 12 L 54.8 12 L 54.8 3.8 L 56.2 3.8 L 56.4 5 C 56.4 5 56.4 5.02 56.4 5 C 56.9 4.3 57.7 3.6 58.9 3.6 C 60.7 3.6 61.8 4.8 61.8 6.6 Z M 76 12 L 73.8 12 L 70.2 7.7 L 70 7.7 L 70 12 L 68.2 12 L 68.2 0.8 C 68.2 0.8 71.41 0.84 71.4 0.8 C 74 0.8 75.5 2.2 75.5 4.3 C 75.5 5.9 74.5 7.3 72.2 7.6 C 72.18 7.63 76 12 76 12 Z M 71.2 6.3 C 72.9 6.3 73.7 5.5 73.7 4.3 C 73.7 3.2 72.8 2.5 71.3 2.5 C 71.34 2.49 70 2.5 70 2.5 L 70 6.3 C 70 6.3 71.25 6.26 71.2 6.3 Z M 76.9 7.9 C 76.9 5.4 78.7 3.6 81 3.6 C 83.4 3.6 85.2 5.4 85.2 7.9 C 85.2 10.4 83.4 12.2 81 12.2 C 78.7 12.2 76.9 10.4 76.9 7.9 Z M 83.4 7.9 C 83.4 6.2 82.2 5.2 81 5.2 C 79.8 5.2 78.6 6.2 78.6 7.9 C 78.6 9.6 79.8 10.6 81 10.6 C 82.2 10.6 83.4 9.6 83.4 7.9 Z M 86.9 8.8 C 86.91 8.79 86.9 3.8 86.9 3.8 L 88.7 3.8 C 88.7 3.8 88.68 8.81 88.7 8.8 C 88.7 9.9 89.3 10.6 90.4 10.6 C 91.5 10.6 92.1 9.9 92.1 8.8 C 92.15 8.79 92.1 3.8 92.1 3.8 L 93.9 3.8 C 93.9 3.8 93.91 8.78 93.9 8.8 C 93.9 10.8 92.6 12.2 90.4 12.2 C 88.2 12.2 86.9 10.8 86.9 8.8 Z M 95.6 7.9 C 95.6 5.3 97.4 3.6 99.3 3.6 C 100.5 3.6 101.5 4.2 102.1 5.1 C 102.06 5.14 102.1 0 102.1 0 L 103.8 0 L 103.8 12 L 102.4 12 C 102.4 12 102.15 10.59 102.1 10.6 C 101.6 11.6 100.5 12.2 99.3 12.2 C 97.4 12.2 95.6 10.5 95.6 7.9 Z M 102.1 7.9 C 102.1 6.3 101.1 5.2 99.8 5.2 C 98.4 5.2 97.4 6.3 97.4 7.9 C 97.4 9.5 98.4 10.6 99.8 10.6 C 101.1 10.6 102.1 9.5 102.1 7.9 Z M 105.7 7.9 C 105.7 5.3 107.5 3.6 109.3 3.6 C 110.5 3.6 111.6 4.2 112.2 5.2 C 112.17 5.22 112.4 3.8 112.4 3.8 L 113.8 3.8 L 113.8 12 L 112.4 12 C 112.4 12 112.17 10.59 112.2 10.6 C 111.6 11.6 110.5 12.2 109.3 12.2 C 107.5 12.2 105.7 10.5 105.7 7.9 Z M 112.1 7.9 C 112.1 6.3 111.1 5.2 109.8 5.2 C 108.4 5.2 107.4 6.3 107.4 7.9 C 107.4 9.5 108.4 10.6 109.8 10.6 C 111.1 10.6 112.1 9.5 112.1 7.9 Z M 116.1 8.8 C 116.05 8.79 116.1 3.8 116.1 3.8 L 117.8 3.8 C 117.8 3.8 117.82 8.81 117.8 8.8 C 117.8 9.9 118.5 10.6 119.5 10.6 C 120.6 10.6 121.3 9.9 121.3 8.8 C 121.29 8.79 121.3 3.8 121.3 3.8 L 123.1 3.8 C 123.1 3.8 123.06 8.78 123.1 8.8 C 123.1 10.8 121.7 12.2 119.5 12.2 C 117.3 12.2 116.1 10.8 116.1 8.8 Z M 127.4 3.8 L 129.7 3.8 L 129.7 5.3 L 127.4 5.3 C 127.4 5.3 127.41 8.94 127.4 8.9 C 127.4 10.1 128.1 10.6 129.1 10.6 C 129.3 10.6 129.6 10.6 129.9 10.5 C 129.9 10.5 129.9 12 129.9 12 C 129.6 12.1 129.3 12.1 128.8 12.1 C 126.8 12.1 125.7 11 125.7 9 C 125.67 9.03 125.7 5.3 125.7 5.3 L 124.5 5.3 L 124.5 3.8 L 125.7 3.8 L 125.7 1.9 L 127.4 1.9 L 127.4 3.8 Z " stroke="none" fill="#fff"/>
  </g>
</svg>