<?xml version="1.0" standalone="no"?>
<!DOCTYPE svg PUBLIC "-//W3C//DTD SVG 1.1//EN" "http://www.w3.org/Graphics/SVG/1.1/DTD/svg11.dtd">
<svg xmlns="http://www.w3.org/2000/svg" version="1.1" width="324px" height="32.9px" viewBox="0 0 324 32.9">
  <desc>PLACE DE L OBJET SONORE</desc>
  <defs/>
  <g id="Polygon23647">
    <path d="M 27.9 1 C 27.9 1 32.68 1.03 32.7 1 C 37.1 1 39.5 3.2 39.5 6.4 C 39.5 9.3 37.3 12 33 12 C 32.97 12.04 32.1 12 32.1 12 L 32.1 15.5 L 27.9 15.5 L 27.9 1 Z M 35.2 6.6 C 35.2 5.4 34.3 4.8 33.1 4.8 C 33.13 4.84 32.1 4.8 32.1 4.8 L 32.1 8.3 C 32.1 8.3 33.17 8.3 33.2 8.3 C 34.3 8.3 35.2 7.7 35.2 6.6 Z M 41.1 1 L 45.3 1 L 45.3 11.7 L 51 11.7 L 51 15.5 L 41.1 15.5 L 41.1 1 Z M 62.4 15.5 L 61.4 12.6 L 56.6 12.6 L 55.7 15.5 L 51.3 15.5 L 56.5 1 L 61.4 1 L 66.7 15.5 L 62.4 15.5 Z M 57.7 9.3 L 60.3 9.3 L 59 5.3 L 57.7 9.3 Z M 74.2 15.8 C 70 15.8 66.6 12.8 66.6 8.3 C 66.6 3.8 70 0.7 74.2 0.7 C 75.9 0.7 77.2 1.1 78.3 1.7 C 78.3 1.7 78.3 5.8 78.3 5.8 C 77.2 4.9 76.1 4.5 74.8 4.5 C 72.5 4.5 70.8 6.1 70.8 8.3 C 70.8 10.4 72.5 12 74.8 12 C 76.1 12 77.1 11.5 78.3 10.7 C 78.3 10.7 78.3 14.8 78.3 14.8 C 77.2 15.4 75.9 15.8 74.2 15.8 Z M 80.4 1 L 90.4 1 L 90.4 4.8 L 84.6 4.8 L 84.6 6.5 L 89.8 6.5 L 89.8 9.9 L 84.6 9.9 L 84.6 11.7 L 90.4 11.7 L 90.4 15.5 L 80.4 15.5 L 80.4 1 Z M 109.9 8.3 C 109.9 12.6 106.6 15.5 101.9 15.5 C 101.89 15.48 97 15.5 97 15.5 L 97 1 C 97 1 101.89 1.03 101.9 1 C 106.6 1 109.9 3.9 109.9 8.3 Z M 101.2 11.7 C 101.2 11.7 102.05 11.67 102 11.7 C 104.2 11.7 105.6 10.4 105.6 8.3 C 105.6 6.1 104.2 4.8 102 4.8 C 102.05 4.84 101.2 4.8 101.2 4.8 L 101.2 11.7 Z M 111.7 1 L 121.7 1 L 121.7 4.8 L 115.9 4.8 L 115.9 6.5 L 121.1 6.5 L 121.1 9.9 L 115.9 9.9 L 115.9 11.7 L 121.7 11.7 L 121.7 15.5 L 111.7 15.5 L 111.7 1 Z M 128.4 1 L 132.6 1 L 132.6 11.7 L 138.2 11.7 L 138.2 15.5 L 128.4 15.5 L 128.4 1 Z M 137.9 2.3 C 137.87 2.26 137.9 1 137.9 1 L 141.5 1 C 141.5 1 141.49 1.92 141.5 1.9 C 141.5 3.8 140.9 5.6 140 7.4 C 140 7.4 137.1 7.4 137.1 7.4 C 137.7 5.2 137.9 4 137.9 2.3 Z M 142.7 8.2 C 142.7 3.8 146.1 0.7 150.4 0.7 C 154.7 0.7 158.1 3.8 158.1 8.2 C 158.1 12.7 154.7 15.9 150.4 15.9 C 146.1 15.9 142.7 12.7 142.7 8.2 Z M 153.8 8.2 C 153.8 5.8 152.1 4.5 150.4 4.5 C 148.6 4.5 146.9 5.8 146.9 8.2 C 146.9 10.7 148.6 12 150.4 12 C 152.1 12 153.8 10.7 153.8 8.2 Z M 159.9 1 C 159.9 1 166.05 1.03 166.1 1 C 169.5 1 171.3 2.8 171.3 5 C 171.3 6.5 170.4 7.5 169.3 8.1 C 169.3 8.1 169.3 8.1 169.3 8.1 C 170.8 8.7 171.6 9.9 171.6 11.4 C 171.6 13.6 169.9 15.5 166.3 15.5 C 166.3 15.48 159.9 15.5 159.9 15.5 L 159.9 1 Z M 165.9 6.8 C 166.9 6.8 167.3 6.2 167.3 5.7 C 167.3 5.1 166.9 4.5 165.9 4.5 C 165.86 4.53 164 4.5 164 4.5 L 164 6.8 C 164 6.8 165.86 6.75 165.9 6.8 Z M 165.9 12 C 167 12 167.5 11.5 167.5 10.8 C 167.5 10.1 167 9.6 165.9 9.6 C 165.94 9.58 164 9.6 164 9.6 L 164 12 C 164 12 165.92 11.98 165.9 12 Z M 174.6 11.9 C 175.9 11.9 176.7 11.2 176.7 9.7 C 176.66 9.7 176.7 1 176.7 1 L 180.9 1 C 180.9 1 180.88 10.22 180.9 10.2 C 180.9 13.4 179 15.8 175.5 15.8 C 174.4 15.8 173.3 15.4 172.5 14.8 C 172.5 14.8 172.5 10.9 172.5 10.9 C 173.1 11.6 173.8 11.9 174.6 11.9 Z M 183.3 1 L 193.2 1 L 193.2 4.8 L 187.5 4.8 L 187.5 6.5 L 192.7 6.5 L 192.7 9.9 L 187.5 9.9 L 187.5 11.7 L 193.2 11.7 L 193.2 15.5 L 183.3 15.5 L 183.3 1 Z M 198.5 4.8 L 194.5 4.8 L 194.5 1 L 206.7 1 L 206.7 4.8 L 202.7 4.8 L 202.7 15.5 L 198.5 15.5 L 198.5 4.8 Z M 221.4 1.7 C 221.4 1.7 221.4 5.4 221.4 5.4 C 220.5 4.8 219 4.4 217.7 4.4 C 216.6 4.4 216 4.7 216 5.2 C 216 5.7 216.6 5.9 217.8 6.3 C 219.7 7 222.3 7.9 222.3 11 C 222.3 13.8 220.3 15.8 216.6 15.8 C 214.7 15.8 213 15.3 212 14.5 C 212 14.5 212 10.6 212 10.6 C 213 11.5 214.6 12.2 216.1 12.2 C 217.4 12.2 218 11.7 218 11.1 C 218 10.4 217 10.1 215.9 9.7 C 214.3 9.1 211.8 8.1 211.8 5.3 C 211.8 2.8 213.8 0.7 217.4 0.7 C 219 0.7 220.4 1.1 221.4 1.7 Z M 223.5 8.2 C 223.5 3.8 226.9 0.7 231.2 0.7 C 235.5 0.7 238.8 3.8 238.8 8.2 C 238.8 12.7 235.5 15.9 231.2 15.9 C 226.8 15.9 223.5 12.7 223.5 8.2 Z M 234.6 8.2 C 234.6 5.8 232.9 4.5 231.2 4.5 C 229.4 4.5 227.7 5.8 227.7 8.2 C 227.7 10.7 229.4 12 231.2 12 C 232.9 12 234.6 10.7 234.6 8.2 Z M 253.9 15.5 L 249.9 15.5 L 244.7 7.7 L 244.7 7.7 L 244.7 15.5 L 240.6 15.5 L 240.6 1 L 244.7 1 L 249.9 8.7 L 249.9 8.7 L 249.9 1 L 253.9 1 L 253.9 15.5 Z M 255.7 8.2 C 255.7 3.8 259.1 0.7 263.4 0.7 C 267.7 0.7 271.1 3.8 271.1 8.2 C 271.1 12.7 267.7 15.9 263.4 15.9 C 259.1 15.9 255.7 12.7 255.7 8.2 Z M 266.8 8.2 C 266.8 5.8 265.1 4.5 263.4 4.5 C 261.6 4.5 260 5.8 260 8.2 C 260 10.7 261.6 12 263.4 12 C 265.1 12 266.8 10.7 266.8 8.2 Z M 284.9 15.5 L 279.9 15.5 L 277.2 11 L 277.1 11 L 277.1 15.5 L 272.9 15.5 L 272.9 1 C 272.9 1 278.02 1.03 278 1 C 281.6 1 284.2 2.6 284.2 6.1 C 284.2 7.4 283.6 9.4 281.2 10.4 C 281.15 10.39 284.9 15.5 284.9 15.5 Z M 278 7.9 C 279.1 7.9 279.9 7.4 279.9 6.3 C 279.9 5.3 279.1 4.8 278 4.8 C 277.98 4.84 277.1 4.8 277.1 4.8 L 277.1 7.9 C 277.1 7.9 278 7.86 278 7.9 Z M 286.3 1 L 296.3 1 L 296.3 4.8 L 290.5 4.8 L 290.5 6.5 L 295.7 6.5 L 295.7 9.9 L 290.5 9.9 L 290.5 11.7 L 296.3 11.7 L 296.3 15.5 L 286.3 15.5 L 286.3 1 Z " stroke="none" fill="#000"/>
  </g>
</svg>