<?xml version="1.0" standalone="no"?>
<!DOCTYPE svg PUBLIC "-//W3C//DTD SVG 1.1//EN" "http://www.w3.org/Graphics/SVG/1.1/DTD/svg11.dtd">
<svg xmlns="http://www.w3.org/2000/svg" version="1.1" width="27px" height="14.5px" viewBox="0 0 27 14.5">
  <desc>14 22</desc>
  <defs/>
  <g id="Polygon29635">
    <path d="M 1.7 1.4 L 0.3 2 L 0.3 1.3 L 2.3 0.4 L 2.4 0.4 L 2.4 6.1 L 1.7 6.1 L 1.7 1.4 Z M 8.2 4.8 L 7.2 4.8 L 7.2 6.1 L 6.6 6.1 L 6.6 4.8 L 3.8 4.8 L 3.8 4.4 L 6.6 0.4 L 7.2 0.4 L 7.2 4.2 L 8.2 4.2 L 8.2 4.8 Z M 6.6 4.2 L 6.6 1.5 L 4.6 4.1 L 4.6 4.2 L 6.6 4.2 Z M 11.4 -0.6 L 12 -0.6 L 9.5 7.2 L 8.8 7.2 L 11.4 -0.6 Z M 15.5 2.1 C 15.5 1.5 15.1 1 14.3 1 C 13.7 1 13.2 1.3 12.9 1.7 C 12.9 1.7 12.9 0.9 12.9 0.9 C 13.2 0.6 13.8 0.3 14.4 0.3 C 15.5 0.3 16.2 1.1 16.2 2.1 C 16.2 3 15.4 3.9 14 5.5 C 13.99 5.47 16.4 5.5 16.4 5.5 L 16.4 6.1 C 16.4 6.1 12.6 6.14 12.6 6.1 C 15.1 3.3 15.5 2.8 15.5 2.1 Z M 20 2.1 C 20 1.5 19.6 1 18.8 1 C 18.2 1 17.7 1.3 17.4 1.7 C 17.4 1.7 17.4 0.9 17.4 0.9 C 17.7 0.6 18.3 0.3 18.9 0.3 C 20 0.3 20.7 1.1 20.7 2.1 C 20.7 3 19.9 3.9 18.5 5.5 C 18.49 5.47 20.9 5.5 20.9 5.5 L 20.9 6.1 C 20.9 6.1 17.1 6.14 17.1 6.1 C 19.6 3.3 20 2.8 20 2.1 Z " stroke="none" fill="#000"/>
  </g>
</svg>