<?xml version="1.0" standalone="no"?>
<!DOCTYPE svg PUBLIC "-//W3C//DTD SVG 1.1//EN" "http://www.w3.org/Graphics/SVG/1.1/DTD/svg11.dtd">
<svg xmlns="http://www.w3.org/2000/svg" version="1.1" width="342.4px" height="86.4px" viewBox="0 0 342.4 86.4">
  <desc>Souvent triqu s, les int rieurs de cabine sont sombres et peu ergonomiques En s inspirant d int rieurs d cloisonn s</desc>
  <defs/>
  <g id="Polygon28760">
    <path d="M 8.9 62.9 C 8.87 62.88 8.9 67.2 8.9 67.2 L 8.4 67.2 C 8.4 67.2 8.36 62.93 8.4 62.9 C 8.4 61.9 7.9 61.2 6.9 61.2 C 5.9 61.2 5.3 62 5.3 62.9 C 5.26 62.94 5.3 67.2 5.3 67.2 L 4.8 67.2 C 4.8 67.2 4.75 62.93 4.8 62.9 C 4.8 61.9 4.2 61.2 3.3 61.2 C 2.2 61.2 1.6 62 1.6 63 C 1.64 62.96 1.6 67.2 1.6 67.2 L 1.1 67.2 L 1.1 60.8 L 1.5 60.8 L 1.6 61.9 C 1.6 61.9 1.61 61.88 1.6 61.9 C 1.9 61.2 2.5 60.7 3.3 60.7 C 4.3 60.7 4.8 61.2 5.1 62 C 5.4 61.2 6 60.7 6.9 60.7 C 8.2 60.7 8.9 61.6 8.9 62.9 Z M 10.6 64 C 10.6 62.1 12 60.7 13.7 60.7 C 15.3 60.7 16.7 62.1 16.7 64 C 16.7 66 15.3 67.3 13.7 67.3 C 12 67.3 10.6 66 10.6 64 Z M 16.2 64 C 16.2 62.2 15 61.2 13.7 61.2 C 12.4 61.2 11.1 62.2 11.1 64 C 11.1 65.8 12.4 66.8 13.7 66.8 C 15 66.8 16.2 65.8 16.2 64 Z M 26.3 62.9 C 26.25 62.88 26.3 67.2 26.3 67.2 L 25.8 67.2 C 25.8 67.2 25.75 62.93 25.8 62.9 C 25.8 61.9 25.3 61.2 24.3 61.2 C 23.3 61.2 22.6 62 22.6 62.9 C 22.64 62.94 22.6 67.2 22.6 67.2 L 22.1 67.2 C 22.1 67.2 22.14 62.93 22.1 62.9 C 22.1 61.9 21.6 61.2 20.6 61.2 C 19.6 61.2 19 62 19 63 C 19.03 62.96 19 67.2 19 67.2 L 18.5 67.2 L 18.5 60.8 L 18.9 60.8 L 19 61.9 C 19 61.9 19 61.88 19 61.9 C 19.3 61.2 19.9 60.7 20.7 60.7 C 21.7 60.7 22.2 61.2 22.5 62 C 22.8 61.2 23.4 60.7 24.3 60.7 C 25.6 60.7 26.3 61.6 26.3 62.9 Z M 33.6 64.2 C 33.6 64.2 28.5 64.2 28.5 64.2 C 28.6 65.8 29.6 66.8 31.1 66.8 C 31.8 66.8 32.7 66.6 33.3 65.9 C 33.3 65.9 33.3 66.5 33.3 66.5 C 32.7 67 31.9 67.3 31.1 67.3 C 29.3 67.3 28 66 28 64 C 28 62 29.4 60.7 31 60.7 C 32.4 60.7 33.6 61.8 33.6 63.9 C 33.6 64 33.6 64.1 33.6 64.2 Z M 33.1 63.7 C 33.1 62 32.1 61.2 31 61.2 C 29.8 61.2 28.6 62.2 28.5 63.7 C 28.5 63.7 33.1 63.7 33.1 63.7 Z M 40.2 63 C 40.19 62.96 40.2 67.2 40.2 67.2 L 39.7 67.2 C 39.7 67.2 39.68 63.17 39.7 63.2 C 39.7 61.9 39 61.2 37.9 61.2 C 36.8 61.2 35.9 61.9 35.9 63.1 C 35.9 63.11 35.9 67.2 35.9 67.2 L 35.4 67.2 L 35.4 60.8 L 35.8 60.8 L 35.9 62 C 35.9 62 35.87 61.96 35.9 62 C 36.2 61.2 37 60.7 37.9 60.7 C 39.3 60.7 40.2 61.6 40.2 63 Z M 43 60.8 L 44.9 60.8 L 44.9 61.3 L 43 61.3 C 43 61.3 43.01 65.2 43 65.2 C 43 66.4 43.6 66.8 44.5 66.8 C 44.7 66.8 44.9 66.8 45.1 66.8 C 45.1 66.8 45.1 67.2 45.1 67.2 C 45 67.2 44.8 67.3 44.5 67.3 C 43.3 67.3 42.5 66.6 42.5 65.2 C 42.5 65.22 42.5 61.3 42.5 61.3 L 41.5 61.3 L 41.5 60.8 L 42.5 60.8 L 42.5 59.3 L 43 59.3 L 43 60.8 Z M 50 61.3 C 50 61.3 50 61.8 50 61.8 C 49.5 61.5 48.9 61.2 48.2 61.2 C 47.2 61.2 46.6 61.7 46.6 62.4 C 46.6 63.1 47.3 63.4 48.3 63.7 C 49.3 64.1 50.3 64.4 50.3 65.5 C 50.3 66.6 49.4 67.3 48.1 67.3 C 47.4 67.3 46.6 67.1 46 66.6 C 46 66.6 46 65.9 46 65.9 C 46.5 66.5 47.3 66.8 48.1 66.8 C 49.2 66.8 49.8 66.3 49.8 65.5 C 49.8 64.8 49.1 64.5 48.1 64.1 C 47 63.8 46.1 63.5 46.1 62.4 C 46.1 61.4 46.9 60.7 48.2 60.7 C 48.9 60.7 49.5 60.9 50 61.3 Z M 60.5 62.4 C 60.48 62.44 60.6 60.8 60.6 60.8 L 60.9 60.8 L 60.9 69.8 L 60.4 69.8 C 60.4 69.8 60.44 65.64 60.4 65.6 C 60 66.7 59 67.3 58 67.3 C 56.5 67.3 55.1 66 55.1 64 C 55.1 62 56.5 60.7 58 60.7 C 59 60.7 60 61.3 60.5 62.4 Z M 55.6 64 C 55.6 65.7 56.7 66.8 58 66.8 C 59.3 66.8 60.5 65.7 60.5 64 C 60.5 62.3 59.4 61.2 58 61.2 C 56.7 61.2 55.6 62.3 55.6 64 Z M 63.1 64.9 C 63.14 64.88 63.1 60.8 63.1 60.8 L 63.6 60.8 C 63.6 60.8 63.65 64.91 63.6 64.9 C 63.6 66.1 64.4 66.8 65.5 66.8 C 66.7 66.8 67.4 66.1 67.4 64.9 C 67.44 64.9 67.4 60.8 67.4 60.8 L 67.9 60.8 C 67.9 60.8 67.94 64.87 67.9 64.9 C 67.9 66.3 67 67.3 65.5 67.3 C 64.1 67.3 63.1 66.3 63.1 64.9 Z M 70 58.5 C 70 58.3 70.2 58.1 70.4 58.1 C 70.7 58.1 70.8 58.3 70.8 58.5 C 70.8 58.7 70.7 58.9 70.4 58.9 C 70.2 58.9 70 58.7 70 58.5 Z M 70.2 60.8 L 70.7 60.8 L 70.7 67.2 L 70.2 67.2 L 70.2 60.8 Z M 76.5 60.8 L 76.9 60.8 L 76.9 62 C 76.9 62 76.93 62.02 76.9 62 C 77.3 61.1 78.2 60.8 78.8 60.8 C 78.9 60.8 79.1 60.8 79.2 60.8 C 79.2 60.8 79.2 61.3 79.2 61.3 C 79.1 61.3 78.9 61.3 78.8 61.3 C 77.9 61.3 77 61.9 77 63.2 C 76.97 63.17 77 67.2 77 67.2 L 76.5 67.2 L 76.5 60.8 Z M 81.6 69.8 L 81.1 69.8 L 82.2 66.9 L 79.8 60.8 L 80.3 60.8 L 82.5 66.3 L 82.5 66.3 L 84.5 60.8 L 85.1 60.8 L 81.6 69.8 Z M 87.3 60.8 L 89.2 60.8 L 89.2 61.3 L 87.3 61.3 C 87.3 61.3 87.27 65.2 87.3 65.2 C 87.3 66.4 87.9 66.8 88.8 66.8 C 89 66.8 89.2 66.8 89.3 66.8 C 89.3 66.8 89.3 67.2 89.3 67.2 C 89.3 67.2 89 67.3 88.7 67.3 C 87.6 67.3 86.8 66.6 86.8 65.2 C 86.77 65.22 86.8 61.3 86.8 61.3 L 85.8 61.3 L 85.8 60.8 L 86.8 60.8 L 86.8 59.3 L 87.3 59.3 L 87.3 60.8 Z M 91.2 61.8 C 91.2 61.8 91.22 61.84 91.2 61.8 C 91.6 61.1 92.4 60.7 93.2 60.7 C 94.6 60.7 95.5 61.5 95.5 63 C 95.49 62.98 95.5 67.2 95.5 67.2 L 95 67.2 C 95 67.2 94.99 63.16 95 63.2 C 95 61.9 94.4 61.2 93.2 61.2 C 92.2 61.2 91.2 61.8 91.2 63 C 91.21 63.05 91.2 67.2 91.2 67.2 L 90.7 67.2 L 90.7 57.7 L 91.2 57.7 L 91.2 61.8 Z M 105.4 62.9 C 105.43 62.88 105.4 67.2 105.4 67.2 L 104.9 67.2 C 104.9 67.2 104.93 62.93 104.9 62.9 C 104.9 61.9 104.4 61.2 103.4 61.2 C 102.4 61.2 101.8 62 101.8 62.9 C 101.82 62.94 101.8 67.2 101.8 67.2 L 101.3 67.2 C 101.3 67.2 101.31 62.93 101.3 62.9 C 101.3 61.9 100.8 61.2 99.8 61.2 C 98.8 61.2 98.2 62 98.2 63 C 98.21 62.96 98.2 67.2 98.2 67.2 L 97.7 67.2 L 97.7 60.8 L 98.1 60.8 L 98.2 61.9 C 98.2 61.9 98.17 61.88 98.2 61.9 C 98.4 61.2 99.1 60.7 99.9 60.7 C 100.8 60.7 101.4 61.2 101.7 62 C 101.9 61.2 102.6 60.7 103.5 60.7 C 104.8 60.7 105.4 61.6 105.4 62.9 Z M 112.7 64.2 C 112.7 64.2 107.7 64.2 107.7 64.2 C 107.8 65.8 108.8 66.8 110.3 66.8 C 111 66.8 111.8 66.6 112.5 65.9 C 112.5 65.9 112.5 66.5 112.5 66.5 C 111.9 67 111.1 67.3 110.2 67.3 C 108.4 67.3 107.2 66 107.2 64 C 107.2 62 108.6 60.7 110.1 60.7 C 111.6 60.7 112.8 61.8 112.8 63.9 C 112.8 64 112.8 64.1 112.7 64.2 Z M 112.3 63.7 C 112.2 62 111.2 61.2 110.1 61.2 C 108.9 61.2 107.8 62.2 107.7 63.7 C 107.7 63.7 112.3 63.7 112.3 63.7 Z M 119.4 63 C 119.36 62.96 119.4 67.2 119.4 67.2 L 118.9 67.2 C 118.9 67.2 118.86 63.17 118.9 63.2 C 118.9 61.9 118.2 61.2 117 61.2 C 116 61.2 115.1 61.9 115.1 63.1 C 115.08 63.11 115.1 67.2 115.1 67.2 L 114.6 67.2 L 114.6 60.8 L 115 60.8 L 115 62 C 115 62 115.04 61.96 115 62 C 115.4 61.2 116.2 60.7 117.1 60.7 C 118.5 60.7 119.4 61.6 119.4 63 Z M 122.2 60.8 L 124.1 60.8 L 124.1 61.3 L 122.2 61.3 C 122.2 61.3 122.18 65.2 122.2 65.2 C 122.2 66.4 122.8 66.8 123.7 66.8 C 123.9 66.8 124.1 66.8 124.3 66.8 C 124.3 66.8 124.3 67.2 124.3 67.2 C 124.2 67.2 123.9 67.3 123.7 67.3 C 122.5 67.3 121.7 66.6 121.7 65.2 C 121.68 65.22 121.7 61.3 121.7 61.3 L 120.7 61.3 L 120.7 60.8 L 121.7 60.8 L 121.7 59.3 L 122.2 59.3 L 122.2 60.8 Z M 129 57.7 L 129.5 57.7 L 129.5 67.2 L 129 67.2 L 129 57.7 Z M 131.4 64 C 131.4 62 132.8 60.7 134.3 60.7 C 135.3 60.7 136.4 61.3 136.8 62.4 C 136.82 62.42 136.9 60.8 136.9 60.8 L 137.3 60.8 L 137.3 67.2 L 136.9 67.2 C 136.9 67.2 136.82 65.6 136.8 65.6 C 136.4 66.8 135.3 67.3 134.3 67.3 C 132.8 67.3 131.4 66 131.4 64 Z M 136.8 64 C 136.8 62.3 135.7 61.2 134.4 61.2 C 133 61.2 131.9 62.3 131.9 64 C 131.9 65.7 133.1 66.8 134.4 66.8 C 135.7 66.8 136.8 65.7 136.8 64 Z M 142.9 58.5 C 142.9 58.3 143.1 58.1 143.3 58.1 C 143.6 58.1 143.7 58.3 143.7 58.5 C 143.7 58.7 143.6 58.9 143.3 58.9 C 143.1 58.9 142.9 58.7 142.9 58.5 Z M 143.1 66.5 C 143.09 66.52 143.1 60.8 143.1 60.8 L 143.6 60.8 C 143.6 60.8 143.59 66.53 143.6 66.5 C 143.6 68 143.3 68.9 142.6 69.8 C 142.6 69.8 142 69.8 142 69.8 C 142.7 69 143.1 68 143.1 66.5 Z M 145.4 64 C 145.4 62.1 146.8 60.7 148.5 60.7 C 150.2 60.7 151.5 62.1 151.5 64 C 151.5 66 150.2 67.3 148.5 67.3 C 146.8 67.3 145.4 66 145.4 64 Z M 151 64 C 151 62.2 149.8 61.2 148.5 61.2 C 147.2 61.2 146 62.2 146 64 C 146 65.8 147.2 66.8 148.5 66.8 C 149.8 66.8 151 65.8 151 64 Z M 153.3 64.9 C 153.27 64.88 153.3 60.8 153.3 60.8 L 153.8 60.8 C 153.8 60.8 153.78 64.91 153.8 64.9 C 153.8 66.1 154.5 66.8 155.7 66.8 C 156.8 66.8 157.6 66.1 157.6 64.9 C 157.57 64.9 157.6 60.8 157.6 60.8 L 158.1 60.8 C 158.1 60.8 158.07 64.87 158.1 64.9 C 158.1 66.3 157.1 67.3 155.7 67.3 C 154.2 67.3 153.3 66.3 153.3 64.9 Z M 160.3 60.8 L 160.7 60.8 L 160.7 62 C 160.7 62 160.74 62.02 160.7 62 C 161.1 61.1 162 60.8 162.6 60.8 C 162.8 60.8 162.9 60.8 163 60.8 C 163 60.8 163 61.3 163 61.3 C 162.9 61.3 162.8 61.3 162.6 61.3 C 161.7 61.3 160.8 61.9 160.8 63.2 C 160.77 63.17 160.8 67.2 160.8 67.2 L 160.3 67.2 L 160.3 60.8 Z M 169.1 63 C 169.12 62.96 169.1 67.2 169.1 67.2 L 168.6 67.2 C 168.6 67.2 168.62 63.17 168.6 63.2 C 168.6 61.9 168 61.2 166.8 61.2 C 165.7 61.2 164.8 61.9 164.8 63.1 C 164.84 63.11 164.8 67.2 164.8 67.2 L 164.3 67.2 L 164.3 60.8 L 164.7 60.8 L 164.8 62 C 164.8 62 164.8 61.96 164.8 62 C 165.2 61.2 165.9 60.7 166.9 60.7 C 168.2 60.7 169.1 61.6 169.1 63 Z M 173.6 59.7 L 173.1 59.7 L 174.6 57.8 L 175.1 57.8 L 173.6 59.7 Z M 176.4 64.2 C 176.4 64.2 171.4 64.2 171.4 64.2 C 171.5 65.8 172.5 66.8 173.9 66.8 C 174.7 66.8 175.5 66.6 176.2 65.9 C 176.2 65.9 176.2 66.5 176.2 66.5 C 175.5 67 174.7 67.3 173.9 67.3 C 172.1 67.3 170.9 66 170.9 64 C 170.9 62 172.3 60.7 173.8 60.7 C 175.2 60.7 176.5 61.8 176.5 63.9 C 176.5 64 176.4 64.1 176.4 64.2 Z M 176 63.7 C 175.9 62 174.9 61.2 173.8 61.2 C 172.6 61.2 171.5 62.2 171.4 63.7 C 171.4 63.7 176 63.7 176 63.7 Z M 183.4 64.2 C 183.4 64.2 178.3 64.2 178.3 64.2 C 178.4 65.8 179.4 66.8 180.9 66.8 C 181.6 66.8 182.5 66.6 183.1 65.9 C 183.1 65.9 183.1 66.5 183.1 66.5 C 182.5 67 181.7 67.3 180.8 67.3 C 179.1 67.3 177.8 66 177.8 64 C 177.8 62 179.2 60.7 180.8 60.7 C 182.2 60.7 183.4 61.8 183.4 63.9 C 183.4 64 183.4 64.1 183.4 64.2 Z M 182.9 63.7 C 182.9 62 181.8 61.2 180.8 61.2 C 179.6 61.2 178.4 62.2 178.3 63.7 C 178.3 63.7 182.9 63.7 182.9 63.7 Z M 185 66.8 C 185 66.5 185.2 66.3 185.4 66.3 C 185.7 66.3 185.9 66.5 185.9 66.8 C 185.9 67 185.7 67.2 185.4 67.2 C 185.2 67.2 185 67 185 66.8 Z " stroke="none" fill="#000"/>
  </g>
  <g id="Polygon28759">
    <path d="M 4.6 45.3 L 4.1 45.3 L 2.6 43.4 L 3.2 43.4 L 4.6 45.3 Z M 0.7 49.6 C 0.7 47.6 2.1 46.3 3.6 46.3 C 4.6 46.3 5.6 46.9 6.1 48 C 6.1 48.02 6.2 46.4 6.2 46.4 L 6.6 46.4 L 6.6 52.8 L 6.2 52.8 C 6.2 52.8 6.1 51.2 6.1 51.2 C 5.6 52.4 4.6 52.9 3.6 52.9 C 2.1 52.9 0.7 51.6 0.7 49.6 Z M 6.1 49.6 C 6.1 47.9 5 46.8 3.6 46.8 C 2.3 46.8 1.2 47.9 1.2 49.6 C 1.2 51.3 2.3 52.4 3.6 52.4 C 5 52.4 6.1 51.3 6.1 49.6 Z M 13.3 43.3 L 13.8 43.3 L 13.8 52.8 L 13.3 52.8 L 13.3 43.3 Z M 16 44.1 C 16 43.9 16.2 43.7 16.4 43.7 C 16.7 43.7 16.8 43.9 16.8 44.1 C 16.8 44.3 16.7 44.5 16.4 44.5 C 16.2 44.5 16 44.3 16 44.1 Z M 16.2 46.4 L 16.7 46.4 L 16.7 52.8 L 16.2 52.8 L 16.2 46.4 Z M 19.5 48 C 19.9 46.9 21 46.3 22 46.3 C 23.5 46.3 24.9 47.6 24.9 49.6 C 24.9 51.6 23.5 52.9 22 52.9 C 21 52.9 19.9 52.4 19.5 51.2 C 19.47 51.19 19.4 52.8 19.4 52.8 L 19 52.8 L 19 43.3 L 19.5 43.3 C 19.5 43.3 19.51 47.99 19.5 48 Z M 19.5 49.6 C 19.5 51.3 20.6 52.4 21.9 52.4 C 23.3 52.4 24.4 51.3 24.4 49.6 C 24.4 47.9 23.3 46.8 21.9 46.8 C 20.6 46.8 19.5 47.9 19.5 49.6 Z M 29 45.3 L 28.5 45.3 L 30 43.4 L 30.6 43.4 L 29 45.3 Z M 31.8 49.8 C 31.8 49.8 26.8 49.8 26.8 49.8 C 26.9 51.4 27.9 52.4 29.3 52.4 C 30.1 52.4 30.9 52.2 31.6 51.5 C 31.6 51.5 31.6 52.1 31.6 52.1 C 30.9 52.6 30.1 52.9 29.3 52.9 C 27.5 52.9 26.3 51.6 26.3 49.6 C 26.3 47.6 27.7 46.3 29.2 46.3 C 30.6 46.3 31.9 47.4 31.9 49.5 C 31.9 49.6 31.8 49.7 31.8 49.8 Z M 31.4 49.3 C 31.3 47.6 30.3 46.8 29.2 46.8 C 28 46.8 26.9 47.8 26.8 49.3 C 26.8 49.3 31.4 49.3 31.4 49.3 Z M 33.7 46.4 L 34.1 46.4 L 34.1 47.6 C 34.1 47.6 34.13 47.62 34.1 47.6 C 34.5 46.7 35.4 46.4 36 46.4 C 36.1 46.4 36.3 46.4 36.4 46.4 C 36.4 46.4 36.4 46.9 36.4 46.9 C 36.3 46.9 36.1 46.9 36 46.9 C 35.1 46.9 34.2 47.5 34.2 48.8 C 34.16 48.77 34.2 52.8 34.2 52.8 L 33.7 52.8 L 33.7 46.4 Z M 42.5 49.8 C 42.5 49.8 37.5 49.8 37.5 49.8 C 37.6 51.4 38.6 52.4 40 52.4 C 40.8 52.4 41.6 52.2 42.3 51.5 C 42.3 51.5 42.3 52.1 42.3 52.1 C 41.6 52.6 40.8 52.9 40 52.9 C 38.2 52.9 37 51.6 37 49.6 C 37 47.6 38.4 46.3 39.9 46.3 C 41.3 46.3 42.5 47.4 42.5 49.5 C 42.5 49.6 42.5 49.7 42.5 49.8 Z M 42 49.3 C 42 47.6 41 46.8 39.9 46.8 C 38.7 46.8 37.6 47.8 37.5 49.3 C 37.5 49.3 42 49.3 42 49.3 Z M 44.4 46.4 L 44.8 46.4 L 44.8 47.6 C 44.8 47.6 44.82 47.62 44.8 47.6 C 45.2 46.7 46.1 46.4 46.7 46.4 C 46.8 46.4 47 46.4 47.1 46.4 C 47.1 46.4 47.1 46.9 47.1 46.9 C 47 46.9 46.8 46.9 46.7 46.9 C 45.8 46.9 44.9 47.5 44.9 48.8 C 44.85 48.77 44.9 52.8 44.9 52.8 L 44.4 52.8 L 44.4 46.4 Z M 52.6 43.3 L 53.1 43.3 L 53.1 52.8 L 52.6 52.8 L 52.6 43.3 Z M 55.6 44.3 C 55.62 44.33 55.6 43.9 55.6 43.9 L 56.1 43.9 C 56.1 43.9 56.12 44.32 56.1 44.3 C 56.1 45.3 55.7 46.3 55.5 46.9 C 55.5 46.9 55.1 46.9 55.1 46.9 C 55.3 46.3 55.6 45.3 55.6 44.3 Z M 62.8 49.8 C 62.8 49.8 57.7 49.8 57.7 49.8 C 57.8 51.4 58.8 52.4 60.3 52.4 C 61 52.4 61.9 52.2 62.5 51.5 C 62.5 51.5 62.5 52.1 62.5 52.1 C 61.9 52.6 61.1 52.9 60.2 52.9 C 58.5 52.9 57.2 51.6 57.2 49.6 C 57.2 47.6 58.6 46.3 60.2 46.3 C 61.6 46.3 62.8 47.4 62.8 49.5 C 62.8 49.6 62.8 49.7 62.8 49.8 Z M 62.3 49.3 C 62.3 47.6 61.2 46.8 60.2 46.8 C 59 46.8 57.8 47.8 57.7 49.3 C 57.7 49.3 62.3 49.3 62.3 49.3 Z M 68.1 46.9 C 68.1 46.9 68.1 47.4 68.1 47.4 C 67.6 47.1 67 46.8 66.3 46.8 C 65.4 46.8 64.7 47.3 64.7 48 C 64.7 48.7 65.4 49 66.4 49.3 C 67.4 49.7 68.5 50 68.5 51.1 C 68.5 52.2 67.6 52.9 66.3 52.9 C 65.5 52.9 64.8 52.7 64.1 52.2 C 64.1 52.2 64.1 51.5 64.1 51.5 C 64.7 52.1 65.5 52.4 66.3 52.4 C 67.3 52.4 68 51.9 68 51.1 C 68 50.4 67.2 50.1 66.2 49.7 C 65.2 49.4 64.2 49.1 64.2 48 C 64.2 47 65.1 46.3 66.3 46.3 C 67 46.3 67.7 46.5 68.1 46.9 Z M 70.2 46.4 L 70.6 46.4 C 70.6 46.4 70.68 48.04 70.7 48 C 71.1 46.9 72.2 46.3 73.2 46.3 C 74.7 46.3 76.1 47.6 76.1 49.6 C 76.1 51.6 74.7 52.9 73.2 52.9 C 72.2 52.9 71.1 52.3 70.7 51.3 C 70.71 51.25 70.7 55.4 70.7 55.4 L 70.2 55.4 L 70.2 46.4 Z M 75.6 49.6 C 75.6 47.9 74.5 46.8 73.1 46.8 C 71.8 46.8 70.7 47.9 70.7 49.6 C 70.7 51.3 71.8 52.4 73.1 52.4 C 74.5 52.4 75.6 51.3 75.6 49.6 Z M 77.5 49.6 C 77.5 47.6 78.9 46.3 80.4 46.3 C 81.4 46.3 82.4 46.9 82.9 48 C 82.88 48.02 83 46.4 83 46.4 L 83.3 46.4 L 83.3 52.8 L 83 52.8 C 83 52.8 82.88 51.2 82.9 51.2 C 82.4 52.4 81.4 52.9 80.4 52.9 C 78.9 52.9 77.5 51.6 77.5 49.6 Z M 82.9 49.6 C 82.9 47.9 81.8 46.8 80.4 46.8 C 79.1 46.8 78 47.9 78 49.6 C 78 51.3 79.1 52.4 80.4 52.4 C 81.7 52.4 82.9 51.3 82.9 49.6 Z M 88.3 52.4 C 88.8 52.4 89.4 52.3 90 51.9 C 90 51.9 90 52.5 90 52.5 C 89.5 52.8 88.9 52.9 88.3 52.9 C 86.5 52.9 85.2 51.5 85.2 49.6 C 85.2 47.7 86.5 46.3 88.2 46.3 C 88.8 46.3 89.4 46.4 90 46.8 C 90 46.8 90 47.3 90 47.3 C 89.4 46.9 88.8 46.8 88.2 46.8 C 86.9 46.8 85.7 47.9 85.7 49.6 C 85.7 51.3 86.9 52.4 88.3 52.4 Z M 96.7 49.8 C 96.7 49.8 91.7 49.8 91.7 49.8 C 91.7 51.4 92.8 52.4 94.2 52.4 C 95 52.4 95.8 52.2 96.5 51.5 C 96.5 51.5 96.5 52.1 96.5 52.1 C 95.8 52.6 95 52.9 94.2 52.9 C 92.4 52.9 91.1 51.6 91.1 49.6 C 91.1 47.6 92.6 46.3 94.1 46.3 C 95.5 46.3 96.7 47.4 96.7 49.5 C 96.7 49.6 96.7 49.7 96.7 49.8 Z M 96.2 49.3 C 96.2 47.6 95.2 46.8 94.1 46.8 C 92.9 46.8 91.8 47.8 91.7 49.3 C 91.7 49.3 96.2 49.3 96.2 49.3 Z M 108.1 49.8 C 108.1 49.8 103 49.8 103 49.8 C 103.1 51.4 104.2 52.4 105.6 52.4 C 106.4 52.4 107.2 52.2 107.9 51.5 C 107.9 51.5 107.9 52.1 107.9 52.1 C 107.2 52.6 106.4 52.9 105.6 52.9 C 103.8 52.9 102.5 51.6 102.5 49.6 C 102.5 47.6 104 46.3 105.5 46.3 C 106.9 46.3 108.1 47.4 108.1 49.5 C 108.1 49.6 108.1 49.7 108.1 49.8 Z M 107.6 49.3 C 107.6 47.6 106.6 46.8 105.5 46.8 C 104.3 46.8 103.2 47.8 103.1 49.3 C 103.1 49.3 107.6 49.3 107.6 49.3 Z M 110.5 46.4 L 112.4 46.4 L 112.4 46.9 L 110.5 46.9 C 110.5 46.9 110.54 50.8 110.5 50.8 C 110.5 52 111.2 52.4 112.1 52.4 C 112.3 52.4 112.4 52.4 112.6 52.4 C 112.6 52.4 112.6 52.8 112.6 52.8 C 112.5 52.8 112.3 52.9 112 52.9 C 110.9 52.9 110 52.2 110 50.8 C 110.04 50.82 110 46.9 110 46.9 L 109.1 46.9 L 109.1 46.4 L 110 46.4 L 110 44.9 L 110.5 44.9 L 110.5 46.4 Z M 121.8 45.3 L 121.3 45.3 L 119.8 43.4 L 120.4 43.4 L 121.8 45.3 Z M 117.9 49.6 C 117.9 47.6 119.3 46.3 120.8 46.3 C 121.8 46.3 122.8 46.9 123.3 48 C 123.31 48.02 123.4 46.4 123.4 46.4 L 123.8 46.4 L 123.8 52.8 L 123.4 52.8 C 123.4 52.8 123.31 51.2 123.3 51.2 C 122.8 52.4 121.8 52.9 120.8 52.9 C 119.3 52.9 117.9 51.6 117.9 49.6 Z M 123.3 49.6 C 123.3 47.9 122.2 46.8 120.8 46.8 C 119.5 46.8 118.4 47.9 118.4 49.6 C 118.4 51.3 119.5 52.4 120.9 52.4 C 122.2 52.4 123.3 51.3 123.3 49.6 Z M 130.5 43.3 L 131 43.3 L 131 52.8 L 130.5 52.8 L 130.5 43.3 Z M 133.3 50.5 C 133.28 50.48 133.3 46.4 133.3 46.4 L 133.8 46.4 C 133.8 46.4 133.78 50.51 133.8 50.5 C 133.8 51.7 134.5 52.4 135.7 52.4 C 136.8 52.4 137.6 51.7 137.6 50.5 C 137.57 50.5 137.6 46.4 137.6 46.4 L 138.1 46.4 C 138.1 46.4 138.08 50.47 138.1 50.5 C 138.1 51.9 137.1 52.9 135.7 52.9 C 134.2 52.9 133.3 51.9 133.3 50.5 Z M 140.2 44.1 C 140.2 43.9 140.3 43.7 140.6 43.7 C 140.8 43.7 141 43.9 141 44.1 C 141 44.3 140.8 44.5 140.6 44.5 C 140.3 44.5 140.2 44.3 140.2 44.1 Z M 140.3 46.4 L 140.8 46.4 L 140.8 52.8 L 140.3 52.8 L 140.3 46.4 Z M 147.6 46.4 L 148 46.4 C 148 46.4 148.05 48.04 148 48 C 148.5 46.9 149.5 46.3 150.6 46.3 C 152.1 46.3 153.5 47.6 153.5 49.6 C 153.5 51.6 152.1 52.9 150.6 52.9 C 149.5 52.9 148.5 52.3 148.1 51.3 C 148.08 51.25 148.1 55.4 148.1 55.4 L 147.6 55.4 L 147.6 46.4 Z M 153 49.6 C 153 47.9 151.8 46.8 150.5 46.8 C 149.2 46.8 148.1 47.9 148.1 49.6 C 148.1 51.3 149.2 52.4 150.5 52.4 C 151.8 52.4 153 51.3 153 49.6 Z M 160.4 49.8 C 160.4 49.8 155.4 49.8 155.4 49.8 C 155.4 51.4 156.5 52.4 157.9 52.4 C 158.7 52.4 159.5 52.2 160.2 51.5 C 160.2 51.5 160.2 52.1 160.2 52.1 C 159.5 52.6 158.7 52.9 157.9 52.9 C 156.1 52.9 154.9 51.6 154.9 49.6 C 154.9 47.6 156.3 46.3 157.8 46.3 C 159.2 46.3 160.4 47.4 160.4 49.5 C 160.4 49.6 160.4 49.7 160.4 49.8 Z M 159.9 49.3 C 159.9 47.6 158.9 46.8 157.8 46.8 C 156.6 46.8 155.5 47.8 155.4 49.3 C 155.4 49.3 159.9 49.3 159.9 49.3 Z M 162.2 46.4 L 162.6 46.4 L 162.7 47.6 C 162.7 47.6 162.7 47.62 162.7 47.6 C 163.1 46.7 163.9 46.4 164.6 46.4 C 164.7 46.4 164.9 46.4 165 46.4 C 165 46.4 165 46.9 165 46.9 C 164.9 46.9 164.7 46.9 164.6 46.9 C 163.7 46.9 162.7 47.5 162.7 48.8 C 162.73 48.77 162.7 52.8 162.7 52.8 L 162.2 52.8 L 162.2 46.4 Z M 174 48.5 C 174.03 48.48 174 52.8 174 52.8 L 173.5 52.8 C 173.5 52.8 173.52 48.53 173.5 48.5 C 173.5 47.5 173 46.8 172 46.8 C 171 46.8 170.4 47.6 170.4 48.5 C 170.41 48.54 170.4 52.8 170.4 52.8 L 169.9 52.8 C 169.9 52.8 169.91 48.53 169.9 48.5 C 169.9 47.5 169.4 46.8 168.4 46.8 C 167.4 46.8 166.8 47.6 166.8 48.6 C 166.8 48.56 166.8 52.8 166.8 52.8 L 166.3 52.8 L 166.3 46.4 L 166.7 46.4 L 166.8 47.5 C 166.8 47.5 166.77 47.48 166.8 47.5 C 167 46.8 167.7 46.3 168.5 46.3 C 169.4 46.3 170 46.8 170.3 47.6 C 170.5 46.8 171.2 46.3 172.1 46.3 C 173.4 46.3 174 47.2 174 48.5 Z M 181.3 49.8 C 181.3 49.8 176.3 49.8 176.3 49.8 C 176.4 51.4 177.4 52.4 178.9 52.4 C 179.6 52.4 180.4 52.2 181.1 51.5 C 181.1 51.5 181.1 52.1 181.1 52.1 C 180.4 52.6 179.7 52.9 178.8 52.9 C 177 52.9 175.8 51.6 175.8 49.6 C 175.8 47.6 177.2 46.3 178.7 46.3 C 180.2 46.3 181.4 47.4 181.4 49.5 C 181.4 49.6 181.4 49.7 181.3 49.8 Z M 180.9 49.3 C 180.8 47.6 179.8 46.8 178.7 46.8 C 177.5 46.8 176.4 47.8 176.3 49.3 C 176.3 49.3 180.9 49.3 180.9 49.3 Z M 183.8 46.4 L 185.7 46.4 L 185.7 46.9 L 183.8 46.9 C 183.8 46.9 183.79 50.8 183.8 50.8 C 183.8 52 184.4 52.4 185.3 52.4 C 185.5 52.4 185.7 52.4 185.9 52.4 C 185.9 52.4 185.9 52.8 185.9 52.8 C 185.8 52.8 185.5 52.9 185.3 52.9 C 184.1 52.9 183.3 52.2 183.3 50.8 C 183.29 50.82 183.3 46.9 183.3 46.9 L 182.3 46.9 L 182.3 46.4 L 183.3 46.4 L 183.3 44.9 L 183.8 44.9 L 183.8 46.4 Z M 187.9 46.4 L 189.8 46.4 L 189.8 46.9 L 187.9 46.9 C 187.9 46.9 187.91 50.8 187.9 50.8 C 187.9 52 188.5 52.4 189.4 52.4 C 189.6 52.4 189.8 52.4 190 52.4 C 190 52.4 190 52.8 190 52.8 C 189.9 52.8 189.7 52.9 189.4 52.9 C 188.2 52.9 187.4 52.2 187.4 50.8 C 187.41 50.82 187.4 46.9 187.4 46.9 L 186.4 46.9 L 186.4 46.4 L 187.4 46.4 L 187.4 44.9 L 187.9 44.9 L 187.9 46.4 Z M 191.3 46.4 L 191.7 46.4 L 191.8 47.6 C 191.8 47.6 191.81 47.62 191.8 47.6 C 192.2 46.7 193 46.4 193.7 46.4 C 193.8 46.4 194 46.4 194.1 46.4 C 194.1 46.4 194.1 46.9 194.1 46.9 C 194 46.9 193.8 46.9 193.7 46.9 C 192.8 46.9 191.9 47.5 191.8 48.8 C 191.85 48.77 191.8 52.8 191.8 52.8 L 191.3 52.8 L 191.3 46.4 Z M 200.2 49.8 C 200.2 49.8 195.2 49.8 195.2 49.8 C 195.2 51.4 196.3 52.4 197.7 52.4 C 198.5 52.4 199.3 52.2 200 51.5 C 200 51.5 200 52.1 200 52.1 C 199.3 52.6 198.5 52.9 197.7 52.9 C 195.9 52.9 194.7 51.6 194.7 49.6 C 194.7 47.6 196.1 46.3 197.6 46.3 C 199 46.3 200.2 47.4 200.2 49.5 C 200.2 49.6 200.2 49.7 200.2 49.8 Z M 199.7 49.3 C 199.7 47.6 198.7 46.8 197.6 46.8 C 196.4 46.8 195.3 47.8 195.2 49.3 C 195.2 49.3 199.7 49.3 199.7 49.3 Z M 206 49.6 C 206 47.6 207.4 46.3 208.9 46.3 C 210 46.3 211 46.9 211.4 48 C 211.42 47.98 211.4 43.3 211.4 43.3 L 211.9 43.3 L 211.9 52.8 L 211.5 52.8 L 211.5 51.2 C 211.5 51.2 211.44 51.19 211.4 51.2 C 211 52.4 210 52.9 208.9 52.9 C 207.4 52.9 206 51.6 206 49.6 Z M 211.4 49.6 C 211.4 47.9 210.3 46.8 209 46.8 C 207.7 46.8 206.5 47.9 206.5 49.6 C 206.5 51.3 207.7 52.4 209 52.4 C 210.3 52.4 211.4 51.3 211.4 49.6 Z M 219.3 49.8 C 219.3 49.8 214.3 49.8 214.3 49.8 C 214.3 51.4 215.4 52.4 216.8 52.4 C 217.6 52.4 218.4 52.2 219.1 51.5 C 219.1 51.5 219.1 52.1 219.1 52.1 C 218.4 52.6 217.6 52.9 216.8 52.9 C 215 52.9 213.8 51.6 213.8 49.6 C 213.8 47.6 215.2 46.3 216.7 46.3 C 218.1 46.3 219.3 47.4 219.3 49.5 C 219.3 49.6 219.3 49.7 219.3 49.8 Z M 218.8 49.3 C 218.8 47.6 217.8 46.8 216.7 46.8 C 215.5 46.8 214.4 47.8 214.3 49.3 C 214.3 49.3 218.8 49.3 218.8 49.3 Z M 225.6 46.4 L 226 46.4 C 226 46.4 226.05 48.04 226.1 48 C 226.5 46.9 227.6 46.3 228.6 46.3 C 230.1 46.3 231.5 47.6 231.5 49.6 C 231.5 51.6 230.1 52.9 228.6 52.9 C 227.5 52.9 226.5 52.3 226.1 51.3 C 226.09 51.25 226.1 55.4 226.1 55.4 L 225.6 55.4 L 225.6 46.4 Z M 231 49.6 C 231 47.9 229.8 46.8 228.5 46.8 C 227.2 46.8 226.1 47.9 226.1 49.6 C 226.1 51.3 227.2 52.4 228.5 52.4 C 229.8 52.4 231 51.3 231 49.6 Z M 233.3 46.4 L 233.7 46.4 L 233.8 47.6 C 233.8 47.6 233.77 47.62 233.8 47.6 C 234.2 46.7 235 46.4 235.7 46.4 C 235.8 46.4 235.9 46.4 236 46.4 C 236 46.4 236 46.9 236 46.9 C 235.9 46.9 235.8 46.9 235.7 46.9 C 234.8 46.9 233.8 47.5 233.8 48.8 C 233.81 48.77 233.8 52.8 233.8 52.8 L 233.3 52.8 L 233.3 46.4 Z M 242.2 49.8 C 242.2 49.8 237.1 49.8 237.1 49.8 C 237.2 51.4 238.2 52.4 239.7 52.4 C 240.4 52.4 241.3 52.2 241.9 51.5 C 241.9 51.5 241.9 52.1 241.9 52.1 C 241.3 52.6 240.5 52.9 239.7 52.9 C 237.9 52.9 236.6 51.6 236.6 49.6 C 236.6 47.6 238 46.3 239.6 46.3 C 241 46.3 242.2 47.4 242.2 49.5 C 242.2 49.6 242.2 49.7 242.2 49.8 Z M 241.7 49.3 C 241.7 47.6 240.6 46.8 239.6 46.8 C 238.4 46.8 237.2 47.8 237.1 49.3 C 237.1 49.3 241.7 49.3 241.7 49.3 Z M 248.8 48.6 C 248.78 48.56 248.8 52.8 248.8 52.8 L 248.3 52.8 C 248.3 52.8 248.28 48.77 248.3 48.8 C 248.3 47.5 247.6 46.8 246.5 46.8 C 245.4 46.8 244.5 47.5 244.5 48.7 C 244.5 48.71 244.5 52.8 244.5 52.8 L 244 52.8 L 244 46.4 L 244.4 46.4 L 244.5 47.6 C 244.5 47.6 244.46 47.56 244.5 47.6 C 244.8 46.8 245.6 46.3 246.5 46.3 C 247.9 46.3 248.8 47.2 248.8 48.6 Z M 250.5 49.6 C 250.5 47.6 251.9 46.3 253.4 46.3 C 254.4 46.3 255.5 46.9 255.9 48 C 255.91 47.98 255.9 43.3 255.9 43.3 L 256.4 43.3 L 256.4 52.8 L 256 52.8 L 255.9 51.2 C 255.9 51.2 255.94 51.19 255.9 51.2 C 255.5 52.4 254.5 52.9 253.4 52.9 C 251.9 52.9 250.5 51.6 250.5 49.6 Z M 255.9 49.6 C 255.9 47.9 254.8 46.8 253.5 46.8 C 252.2 46.8 251 47.9 251 49.6 C 251 51.3 252.2 52.4 253.5 52.4 C 254.8 52.4 255.9 51.3 255.9 49.6 Z M 258.7 46.4 L 259.1 46.4 L 259.1 47.6 C 259.1 47.6 259.16 47.62 259.2 47.6 C 259.5 46.7 260.4 46.4 261 46.4 C 261.2 46.4 261.3 46.4 261.4 46.4 C 261.4 46.4 261.4 46.9 261.4 46.9 C 261.3 46.9 261.2 46.9 261 46.9 C 260.1 46.9 259.2 47.5 259.2 48.8 C 259.2 48.77 259.2 52.8 259.2 52.8 L 258.7 52.8 L 258.7 46.4 Z M 267.6 49.8 C 267.6 49.8 262.5 49.8 262.5 49.8 C 262.6 51.4 263.6 52.4 265.1 52.4 C 265.8 52.4 266.7 52.2 267.3 51.5 C 267.3 51.5 267.3 52.1 267.3 52.1 C 266.7 52.6 265.9 52.9 265 52.9 C 263.3 52.9 262 51.6 262 49.6 C 262 47.6 263.4 46.3 265 46.3 C 266.4 46.3 267.6 47.4 267.6 49.5 C 267.6 49.6 267.6 49.7 267.6 49.8 Z M 267.1 49.3 C 267.1 47.6 266 46.8 265 46.8 C 263.7 46.8 262.6 47.8 262.5 49.3 C 262.5 49.3 267.1 49.3 267.1 49.3 Z M 272.8 46.4 L 273.4 46.4 L 275.5 52.2 L 275.5 52.2 L 277.6 46.4 L 278.1 46.4 L 275.7 52.8 L 275.2 52.8 L 272.8 46.4 Z M 279.5 44.1 C 279.5 43.9 279.7 43.7 279.9 43.7 C 280.1 43.7 280.3 43.9 280.3 44.1 C 280.3 44.3 280.1 44.5 279.9 44.5 C 279.7 44.5 279.5 44.3 279.5 44.1 Z M 279.7 46.4 L 280.2 46.4 L 280.2 52.8 L 279.7 52.8 L 279.7 46.4 Z M 287.6 49.8 C 287.6 49.8 282.5 49.8 282.5 49.8 C 282.6 51.4 283.7 52.4 285.1 52.4 C 285.9 52.4 286.7 52.2 287.4 51.5 C 287.4 51.5 287.4 52.1 287.4 52.1 C 286.7 52.6 285.9 52.9 285.1 52.9 C 283.3 52.9 282 51.6 282 49.6 C 282 47.6 283.4 46.3 285 46.3 C 286.4 46.3 287.6 47.4 287.6 49.5 C 287.6 49.6 287.6 49.7 287.6 49.8 Z M 287.1 49.3 C 287.1 47.6 286.1 46.8 285 46.8 C 283.8 46.8 282.7 47.8 282.5 49.3 C 282.5 49.3 287.1 49.3 287.1 49.3 Z M 297.4 46.9 C 297.4 46.9 297.4 47.4 297.4 47.4 C 296.9 47.1 296.3 46.8 295.6 46.8 C 294.6 46.8 294 47.3 294 48 C 294 48.7 294.7 49 295.7 49.3 C 296.7 49.7 297.7 50 297.7 51.1 C 297.7 52.2 296.9 52.9 295.6 52.9 C 294.8 52.9 294 52.7 293.4 52.2 C 293.4 52.2 293.4 51.5 293.4 51.5 C 294 52.1 294.7 52.4 295.6 52.4 C 296.6 52.4 297.2 51.9 297.2 51.1 C 297.2 50.4 296.5 50.1 295.5 49.7 C 294.4 49.4 293.5 49.1 293.5 48 C 293.5 47 294.4 46.3 295.6 46.3 C 296.3 46.3 296.9 46.5 297.4 46.9 Z M 304.6 49.8 C 304.6 49.8 299.5 49.8 299.5 49.8 C 299.6 51.4 300.7 52.4 302.1 52.4 C 302.9 52.4 303.7 52.2 304.4 51.5 C 304.4 51.5 304.4 52.1 304.4 52.1 C 303.7 52.6 302.9 52.9 302.1 52.9 C 300.3 52.9 299 51.6 299 49.6 C 299 47.6 300.5 46.3 302 46.3 C 303.4 46.3 304.6 47.4 304.6 49.5 C 304.6 49.6 304.6 49.7 304.6 49.8 Z M 304.1 49.3 C 304.1 47.6 303.1 46.8 302 46.8 C 300.8 46.8 299.7 47.8 299.6 49.3 C 299.6 49.3 304.1 49.3 304.1 49.3 Z M 306.5 43.3 L 307 43.3 L 307 52.8 L 306.5 52.8 L 306.5 43.3 Z M 308.8 49.6 C 308.8 47.7 310.2 46.3 311.9 46.3 C 313.5 46.3 314.9 47.7 314.9 49.6 C 314.9 51.6 313.5 52.9 311.9 52.9 C 310.2 52.9 308.8 51.6 308.8 49.6 Z M 314.4 49.6 C 314.4 47.8 313.2 46.8 311.9 46.8 C 310.6 46.8 309.3 47.8 309.3 49.6 C 309.3 51.4 310.6 52.4 311.9 52.4 C 313.2 52.4 314.4 51.4 314.4 49.6 Z M 321.5 48.6 C 321.51 48.56 321.5 52.8 321.5 52.8 L 321 52.8 C 321 52.8 321.01 48.77 321 48.8 C 321 47.5 320.3 46.8 319.2 46.8 C 318.1 46.8 317.2 47.5 317.2 48.7 C 317.23 48.71 317.2 52.8 317.2 52.8 L 316.7 52.8 L 316.7 46.4 L 317.1 46.4 L 317.2 47.6 C 317.2 47.6 317.19 47.56 317.2 47.6 C 317.5 46.8 318.3 46.3 319.3 46.3 C 320.6 46.3 321.5 47.2 321.5 48.6 Z M 328.2 43.3 L 328.7 43.3 L 328.7 52.8 L 328.2 52.8 L 328.2 43.3 Z M 336.1 49.8 C 336.1 49.8 331.1 49.8 331.1 49.8 C 331.2 51.4 332.2 52.4 333.6 52.4 C 334.4 52.4 335.2 52.2 335.9 51.5 C 335.9 51.5 335.9 52.1 335.9 52.1 C 335.2 52.6 334.4 52.9 333.6 52.9 C 331.8 52.9 330.6 51.6 330.6 49.6 C 330.6 47.6 332 46.3 333.5 46.3 C 334.9 46.3 336.1 47.4 336.1 49.5 C 336.1 49.6 336.1 49.7 336.1 49.8 Z M 335.6 49.3 C 335.6 47.6 334.6 46.8 333.5 46.8 C 332.3 46.8 331.2 47.8 331.1 49.3 C 331.1 49.3 335.6 49.3 335.6 49.3 Z M 341.5 46.9 C 341.5 46.9 341.5 47.4 341.5 47.4 C 341 47.1 340.4 46.8 339.7 46.8 C 338.7 46.8 338.1 47.3 338.1 48 C 338.1 48.7 338.8 49 339.8 49.3 C 340.8 49.7 341.8 50 341.8 51.1 C 341.8 52.2 340.9 52.9 339.7 52.9 C 338.9 52.9 338.1 52.7 337.5 52.2 C 337.5 52.2 337.5 51.5 337.5 51.5 C 338.1 52.1 338.8 52.4 339.7 52.4 C 340.7 52.4 341.3 51.9 341.3 51.1 C 341.3 50.4 340.6 50.1 339.6 49.7 C 338.5 49.4 337.6 49.1 337.6 48 C 337.6 47 338.5 46.3 339.7 46.3 C 340.4 46.3 341 46.5 341.5 46.9 Z " stroke="none" fill="#000"/>
  </g>
  <g id="Polygon28758">
    <path d="M 0.4 32 L 0.9 32 L 3 37.8 L 3 37.8 L 5.1 32 L 5.7 32 L 3.3 38.4 L 2.8 38.4 L 0.4 32 Z M 12.1 35.4 C 12.1 35.4 7.1 35.4 7.1 35.4 C 7.2 37 8.2 38 9.6 38 C 10.4 38 11.2 37.8 11.9 37.1 C 11.9 37.1 11.9 37.7 11.9 37.7 C 11.2 38.2 10.4 38.5 9.6 38.5 C 7.8 38.5 6.6 37.2 6.6 35.2 C 6.6 33.2 8 31.9 9.5 31.9 C 10.9 31.9 12.1 33 12.1 35.1 C 12.1 35.2 12.1 35.3 12.1 35.4 Z M 11.6 34.9 C 11.6 33.2 10.6 32.4 9.5 32.4 C 8.3 32.4 7.2 33.4 7.1 34.9 C 7.1 34.9 11.6 34.9 11.6 34.9 Z M 13.9 32 L 14.4 32 L 14.4 33.2 C 14.4 33.2 14.41 33.22 14.4 33.2 C 14.8 32.3 15.6 32 16.3 32 C 16.4 32 16.6 32 16.7 32 C 16.7 32 16.7 32.5 16.7 32.5 C 16.6 32.5 16.4 32.5 16.3 32.5 C 15.4 32.5 14.5 33.1 14.4 34.4 C 14.45 34.37 14.4 38.4 14.4 38.4 L 13.9 38.4 L 13.9 32 Z M 18.7 32 L 20.6 32 L 20.6 32.5 L 18.7 32.5 C 18.7 32.5 18.69 36.4 18.7 36.4 C 18.7 37.6 19.3 38 20.2 38 C 20.4 38 20.6 38 20.8 38 C 20.8 38 20.8 38.4 20.8 38.4 C 20.7 38.4 20.4 38.5 20.2 38.5 C 19 38.5 18.2 37.8 18.2 36.4 C 18.19 36.42 18.2 32.5 18.2 32.5 L 17.2 32.5 L 17.2 32 L 18.2 32 L 18.2 30.5 L 18.7 30.5 L 18.7 32 Z M 25.7 32.5 C 25.7 32.5 25.7 33 25.7 33 C 25.2 32.7 24.6 32.4 23.9 32.4 C 22.9 32.4 22.3 32.9 22.3 33.6 C 22.3 34.3 23 34.6 24 34.9 C 25 35.3 26 35.6 26 36.7 C 26 37.8 25.1 38.5 23.8 38.5 C 23.1 38.5 22.3 38.3 21.7 37.8 C 21.7 37.8 21.7 37.1 21.7 37.1 C 22.2 37.7 23 38 23.8 38 C 24.8 38 25.5 37.5 25.5 36.7 C 25.5 36 24.8 35.7 23.7 35.3 C 22.7 35 21.8 34.7 21.8 33.6 C 21.8 32.6 22.6 31.9 23.9 31.9 C 24.5 31.9 25.2 32.1 25.7 32.5 Z M 35.4 38 C 35.9 38 36.5 37.9 37.1 37.5 C 37.1 37.5 37.1 38.1 37.1 38.1 C 36.6 38.4 36 38.5 35.4 38.5 C 33.6 38.5 32.3 37.1 32.3 35.2 C 32.3 33.3 33.6 31.9 35.3 31.9 C 35.9 31.9 36.5 32 37.1 32.4 C 37.1 32.4 37.1 32.9 37.1 32.9 C 36.5 32.5 35.9 32.4 35.3 32.4 C 34 32.4 32.8 33.5 32.8 35.2 C 32.8 36.9 34 38 35.4 38 Z M 38.2 35.2 C 38.2 33.3 39.6 31.9 41.3 31.9 C 42.9 31.9 44.3 33.3 44.3 35.2 C 44.3 37.2 42.9 38.5 41.3 38.5 C 39.6 38.5 38.2 37.2 38.2 35.2 Z M 43.8 35.2 C 43.8 33.4 42.6 32.4 41.3 32.4 C 40 32.4 38.7 33.4 38.7 35.2 C 38.7 37 40 38 41.3 38 C 42.6 38 43.8 37 43.8 35.2 Z M 53.9 34.1 C 53.87 34.08 53.9 38.4 53.9 38.4 L 53.4 38.4 C 53.4 38.4 53.37 34.13 53.4 34.1 C 53.4 33.1 52.9 32.4 51.9 32.4 C 50.9 32.4 50.3 33.2 50.3 34.1 C 50.26 34.14 50.3 38.4 50.3 38.4 L 49.8 38.4 C 49.8 38.4 49.75 34.13 49.8 34.1 C 49.8 33.1 49.2 32.4 48.3 32.4 C 47.2 32.4 46.6 33.2 46.6 34.2 C 46.64 34.16 46.6 38.4 46.6 38.4 L 46.1 38.4 L 46.1 32 L 46.5 32 L 46.6 33.1 C 46.6 33.1 46.61 33.08 46.6 33.1 C 46.9 32.4 47.5 31.9 48.3 31.9 C 49.3 31.9 49.8 32.4 50.1 33.2 C 50.4 32.4 51 31.9 51.9 31.9 C 53.2 31.9 53.9 32.8 53.9 34.1 Z M 63.8 34.1 C 63.8 34.08 63.8 38.4 63.8 38.4 L 63.3 38.4 C 63.3 38.4 63.3 34.13 63.3 34.1 C 63.3 33.1 62.8 32.4 61.8 32.4 C 60.8 32.4 60.2 33.2 60.2 34.1 C 60.19 34.14 60.2 38.4 60.2 38.4 L 59.7 38.4 C 59.7 38.4 59.69 34.13 59.7 34.1 C 59.7 33.1 59.2 32.4 58.2 32.4 C 57.2 32.4 56.6 33.2 56.6 34.2 C 56.58 34.16 56.6 38.4 56.6 38.4 L 56.1 38.4 L 56.1 32 L 56.5 32 L 56.5 33.1 C 56.5 33.1 56.54 33.08 56.5 33.1 C 56.8 32.4 57.5 31.9 58.3 31.9 C 59.2 31.9 59.8 32.4 60 33.2 C 60.3 32.4 61 31.9 61.9 31.9 C 63.2 31.9 63.8 32.8 63.8 34.1 Z M 71.1 35.4 C 71.1 35.4 66.1 35.4 66.1 35.4 C 66.2 37 67.2 38 68.6 38 C 69.4 38 70.2 37.8 70.9 37.1 C 70.9 37.1 70.9 37.7 70.9 37.7 C 70.2 38.2 69.4 38.5 68.6 38.5 C 66.8 38.5 65.6 37.2 65.6 35.2 C 65.6 33.2 67 31.9 68.5 31.9 C 69.9 31.9 71.1 33 71.1 35.1 C 71.1 35.2 71.1 35.3 71.1 35.4 Z M 70.6 34.9 C 70.6 33.2 69.6 32.4 68.5 32.4 C 67.3 32.4 66.2 33.4 66.1 34.9 C 66.1 34.9 70.6 34.9 70.6 34.9 Z M 77.5 35.2 C 77.5 33.3 78.8 31.9 80.5 31.9 C 82.2 31.9 83.6 33.3 83.6 35.2 C 83.6 37.2 82.2 38.5 80.5 38.5 C 78.9 38.5 77.5 37.2 77.5 35.2 Z M 83.1 35.2 C 83.1 33.4 81.8 32.4 80.5 32.4 C 79.2 32.4 78 33.4 78 35.2 C 78 37 79.2 38 80.5 38 C 81.8 38 83.1 37 83.1 35.2 Z M 90.2 34.2 C 90.17 34.16 90.2 38.4 90.2 38.4 L 89.7 38.4 C 89.7 38.4 89.67 34.37 89.7 34.4 C 89.7 33.1 89 32.4 87.9 32.4 C 86.8 32.4 85.9 33.1 85.9 34.3 C 85.88 34.31 85.9 38.4 85.9 38.4 L 85.4 38.4 L 85.4 32 L 85.8 32 L 85.8 33.2 C 85.8 33.2 85.85 33.16 85.8 33.2 C 86.2 32.4 87 31.9 87.9 31.9 C 89.3 31.9 90.2 32.8 90.2 34.2 Z M 97.3 32 L 97.7 32 C 97.7 32 97.81 33.64 97.8 33.6 C 98.3 32.5 99.3 31.9 100.3 31.9 C 101.8 31.9 103.2 33.2 103.2 35.2 C 103.2 37.2 101.8 38.5 100.3 38.5 C 99.3 38.5 98.3 37.9 97.8 36.9 C 97.85 36.85 97.8 41 97.8 41 L 97.3 41 L 97.3 32 Z M 102.7 35.2 C 102.7 33.5 101.6 32.4 100.3 32.4 C 99 32.4 97.8 33.5 97.8 35.2 C 97.8 36.9 99 38 100.3 38 C 101.6 38 102.7 36.9 102.7 35.2 Z M 110.2 35.4 C 110.2 35.4 105.1 35.4 105.1 35.4 C 105.2 37 106.2 38 107.7 38 C 108.4 38 109.3 37.8 109.9 37.1 C 109.9 37.1 109.9 37.7 109.9 37.7 C 109.3 38.2 108.5 38.5 107.7 38.5 C 105.9 38.5 104.6 37.2 104.6 35.2 C 104.6 33.2 106 31.9 107.6 31.9 C 109 31.9 110.2 33 110.2 35.1 C 110.2 35.2 110.2 35.3 110.2 35.4 Z M 109.7 34.9 C 109.7 33.2 108.6 32.4 107.6 32.4 C 106.4 32.4 105.2 33.4 105.1 34.9 C 105.1 34.9 109.7 34.9 109.7 34.9 Z M 111.9 36.1 C 111.91 36.08 111.9 32 111.9 32 L 112.4 32 C 112.4 32 112.42 36.11 112.4 36.1 C 112.4 37.3 113.1 38 114.3 38 C 115.5 38 116.2 37.3 116.2 36.1 C 116.21 36.1 116.2 32 116.2 32 L 116.7 32 C 116.7 32 116.71 36.07 116.7 36.1 C 116.7 37.5 115.8 38.5 114.3 38.5 C 112.8 38.5 111.9 37.5 111.9 36.1 Z M 119.6 32 L 121.5 32 L 121.5 32.5 L 119.6 32.5 C 119.6 32.5 119.59 36.4 119.6 36.4 C 119.6 37.6 120.2 38 121.1 38 C 121.3 38 121.5 38 121.7 38 C 121.7 38 121.7 38.4 121.7 38.4 C 121.6 38.4 121.3 38.5 121.1 38.5 C 119.9 38.5 119.1 37.8 119.1 36.4 C 119.09 36.42 119.1 32.5 119.1 32.5 L 118.1 32.5 L 118.1 32 L 119.1 32 L 119.1 30.5 L 119.6 30.5 L 119.6 32 Z M 128 28.9 L 128.5 28.9 L 128.5 38.4 L 128 38.4 L 128 28.9 Z M 135.9 35.4 C 135.9 35.4 130.8 35.4 130.8 35.4 C 130.9 37 132 38 133.4 38 C 134.2 38 135 37.8 135.7 37.1 C 135.7 37.1 135.7 37.7 135.7 37.7 C 135 38.2 134.2 38.5 133.4 38.5 C 131.6 38.5 130.3 37.2 130.3 35.2 C 130.3 33.2 131.8 31.9 133.3 31.9 C 134.7 31.9 135.9 33 135.9 35.1 C 135.9 35.2 135.9 35.3 135.9 35.4 Z M 135.4 34.9 C 135.4 33.2 134.4 32.4 133.3 32.4 C 132.1 32.4 131 33.4 130.9 34.9 C 130.9 34.9 135.4 34.9 135.4 34.9 Z M 143.3 32 L 145.2 32 L 145.2 32.5 L 143.3 32.5 C 143.3 32.5 143.26 36.4 143.3 36.4 C 143.3 37.6 143.9 38 144.8 38 C 145 38 145.1 38 145.3 38 C 145.3 38 145.3 38.4 145.3 38.4 C 145.3 38.4 145 38.5 144.7 38.5 C 143.6 38.5 142.8 37.8 142.8 36.4 C 142.76 36.42 142.8 32.5 142.8 32.5 L 141.8 32.5 L 141.8 32 L 142.8 32 L 142.8 30.5 L 143.3 30.5 L 143.3 32 Z M 146.7 32 L 147.1 32 L 147.1 33.2 C 147.1 33.2 147.16 33.22 147.2 33.2 C 147.5 32.3 148.4 32 149 32 C 149.2 32 149.3 32 149.4 32 C 149.4 32 149.4 32.5 149.4 32.5 C 149.3 32.5 149.2 32.5 149 32.5 C 148.1 32.5 147.2 33.1 147.2 34.4 C 147.19 34.37 147.2 38.4 147.2 38.4 L 146.7 38.4 L 146.7 32 Z M 150 35.2 C 150 33.3 151.4 31.9 153 31.9 C 154.7 31.9 156.1 33.3 156.1 35.2 C 156.1 37.2 154.7 38.5 153 38.5 C 151.4 38.5 150 37.2 150 35.2 Z M 155.6 35.2 C 155.6 33.4 154.3 32.4 153 32.4 C 151.7 32.4 150.5 33.4 150.5 35.2 C 150.5 37 151.7 38 153 38 C 154.3 38 155.6 37 155.6 35.2 Z M 157.8 36.1 C 157.82 36.08 157.8 32 157.8 32 L 158.3 32 C 158.3 32 158.32 36.11 158.3 36.1 C 158.3 37.3 159.1 38 160.2 38 C 161.4 38 162.1 37.3 162.1 36.1 C 162.11 36.1 162.1 32 162.1 32 L 162.6 32 C 162.6 32 162.61 36.07 162.6 36.1 C 162.6 37.5 161.7 38.5 160.2 38.5 C 158.7 38.5 157.8 37.5 157.8 36.1 Z M 164.1 32 L 164.6 32 L 166.7 37.8 L 166.7 37.8 L 168.8 32 L 169.3 32 L 167 38.4 L 166.4 38.4 L 164.1 32 Z M 175.8 35.4 C 175.8 35.4 170.7 35.4 170.7 35.4 C 170.8 37 171.9 38 173.3 38 C 174.1 38 174.9 37.8 175.6 37.1 C 175.6 37.1 175.6 37.7 175.6 37.7 C 174.9 38.2 174.1 38.5 173.3 38.5 C 171.5 38.5 170.2 37.2 170.2 35.2 C 170.2 33.2 171.7 31.9 173.2 31.9 C 174.6 31.9 175.8 33 175.8 35.1 C 175.8 35.2 175.8 35.3 175.8 35.4 Z M 175.3 34.9 C 175.3 33.2 174.3 32.4 173.2 32.4 C 172 32.4 170.9 33.4 170.7 34.9 C 170.7 34.9 175.3 34.9 175.3 34.9 Z M 177.6 32 L 178 32 L 178.1 33.2 C 178.1 33.2 178.08 33.22 178.1 33.2 C 178.5 32.3 179.3 32 180 32 C 180.1 32 180.2 32 180.3 32 C 180.3 32 180.3 32.5 180.3 32.5 C 180.2 32.5 180.1 32.5 180 32.5 C 179.1 32.5 178.1 33.1 178.1 34.4 C 178.12 34.37 178.1 38.4 178.1 38.4 L 177.6 38.4 L 177.6 32 Z M 185.9 35.2 C 185.9 33.2 187.3 31.9 188.8 31.9 C 189.8 31.9 190.9 32.5 191.3 33.6 C 191.32 33.62 191.4 32 191.4 32 L 191.8 32 L 191.8 38.4 L 191.4 38.4 C 191.4 38.4 191.32 36.8 191.3 36.8 C 190.9 38 189.8 38.5 188.8 38.5 C 187.3 38.5 185.9 37.2 185.9 35.2 Z M 191.3 35.2 C 191.3 33.5 190.2 32.4 188.9 32.4 C 187.5 32.4 186.4 33.5 186.4 35.2 C 186.4 36.9 187.6 38 188.9 38 C 190.2 38 191.3 36.9 191.3 35.2 Z M 194 36.1 C 193.98 36.08 194 32 194 32 L 194.5 32 C 194.5 32 194.49 36.11 194.5 36.1 C 194.5 37.3 195.2 38 196.4 38 C 197.5 38 198.3 37.3 198.3 36.1 C 198.28 36.1 198.3 32 198.3 32 L 198.8 32 C 198.8 32 198.78 36.07 198.8 36.1 C 198.8 37.5 197.8 38.5 196.4 38.5 C 194.9 38.5 194 37.5 194 36.1 Z M 206.4 38 C 207.4 38 208 37.4 208 36.2 C 207.99 36.22 208 29.5 208 29.5 L 208.5 29.5 C 208.5 29.5 208.49 36.29 208.5 36.3 C 208.5 37.6 207.7 38.5 206.4 38.5 C 205.9 38.5 205.3 38.3 204.8 37.9 C 204.8 37.9 204.8 37.3 204.8 37.3 C 205.2 37.7 205.8 38 206.4 38 Z M 210.4 35.2 C 210.4 33.2 211.8 31.9 213.3 31.9 C 214.3 31.9 215.4 32.5 215.8 33.6 C 215.84 33.62 215.9 32 215.9 32 L 216.3 32 L 216.3 38.4 L 215.9 38.4 C 215.9 38.4 215.84 36.8 215.8 36.8 C 215.4 38 214.3 38.5 213.3 38.5 C 211.8 38.5 210.4 37.2 210.4 35.2 Z M 215.8 35.2 C 215.8 33.5 214.7 32.4 213.4 32.4 C 212.1 32.4 210.9 33.5 210.9 35.2 C 210.9 36.9 212.1 38 213.4 38 C 214.7 38 215.8 36.9 215.8 35.2 Z M 218.6 32 L 219 32 C 219 32 219.05 33.64 219.1 33.6 C 219.5 32.5 220.6 31.9 221.6 31.9 C 223.1 31.9 224.5 33.2 224.5 35.2 C 224.5 37.2 223.1 38.5 221.6 38.5 C 220.5 38.5 219.5 37.9 219.1 36.9 C 219.09 36.85 219.1 41 219.1 41 L 218.6 41 L 218.6 32 Z M 224 35.2 C 224 33.5 222.8 32.4 221.5 32.4 C 220.2 32.4 219.1 33.5 219.1 35.2 C 219.1 36.9 220.2 38 221.5 38 C 222.8 38 224 36.9 224 35.2 Z M 225.8 35.2 C 225.8 33.3 227.2 31.9 228.9 31.9 C 230.6 31.9 231.9 33.3 231.9 35.2 C 231.9 37.2 230.6 38.5 228.9 38.5 C 227.2 38.5 225.8 37.2 225.8 35.2 Z M 231.4 35.2 C 231.4 33.4 230.2 32.4 228.9 32.4 C 227.6 32.4 226.3 33.4 226.3 35.2 C 226.3 37 227.6 38 228.9 38 C 230.2 38 231.4 37 231.4 35.2 Z M 238.5 34.2 C 238.54 34.16 238.5 38.4 238.5 38.4 L 238 38.4 C 238 38.4 238.04 34.37 238 34.4 C 238 33.1 237.4 32.4 236.2 32.4 C 235.1 32.4 234.3 33.1 234.3 34.3 C 234.26 34.31 234.3 38.4 234.3 38.4 L 233.8 38.4 L 233.8 32 L 234.1 32 L 234.2 33.2 C 234.2 33.2 234.22 33.16 234.2 33.2 C 234.6 32.4 235.3 31.9 236.3 31.9 C 237.7 31.9 238.5 32.8 238.5 34.2 Z M 240.7 37.4 C 240.65 37.44 240.7 37 240.7 37 L 241.2 37 C 241.2 37 241.15 37.43 241.2 37.4 C 241.2 38.4 240.8 39.4 240.5 40 C 240.5 40 240.1 40 240.1 40 C 240.3 39.4 240.7 38.4 240.7 37.4 Z M 253.1 34.2 C 253.07 34.16 253.1 38.4 253.1 38.4 L 252.6 38.4 C 252.6 38.4 252.57 34.37 252.6 34.4 C 252.6 33.1 251.9 32.4 250.8 32.4 C 249.7 32.4 248.8 33.1 248.8 34.3 C 248.79 34.31 248.8 38.4 248.8 38.4 L 248.3 38.4 L 248.3 32 L 248.7 32 L 248.7 33.2 C 248.7 33.2 248.75 33.16 248.8 33.2 C 249.1 32.4 249.9 31.9 250.8 31.9 C 252.2 31.9 253.1 32.8 253.1 34.2 Z M 254.8 35.2 C 254.8 33.3 256.2 31.9 257.9 31.9 C 259.5 31.9 260.9 33.3 260.9 35.2 C 260.9 37.2 259.5 38.5 257.9 38.5 C 256.2 38.5 254.8 37.2 254.8 35.2 Z M 260.4 35.2 C 260.4 33.4 259.2 32.4 257.9 32.4 C 256.6 32.4 255.3 33.4 255.3 35.2 C 255.3 37 256.6 38 257.9 38 C 259.2 38 260.4 37 260.4 35.2 Z M 262.6 36.1 C 262.64 36.08 262.6 32 262.6 32 L 263.1 32 C 263.1 32 263.14 36.11 263.1 36.1 C 263.1 37.3 263.9 38 265 38 C 266.2 38 266.9 37.3 266.9 36.1 C 266.93 36.1 266.9 32 266.9 32 L 267.4 32 C 267.4 32 267.44 36.07 267.4 36.1 C 267.4 37.5 266.5 38.5 265 38.5 C 263.5 38.5 262.6 37.5 262.6 36.1 Z M 273.2 32.5 C 273.2 32.5 273.2 33 273.2 33 C 272.7 32.7 272.1 32.4 271.4 32.4 C 270.4 32.4 269.8 32.9 269.8 33.6 C 269.8 34.3 270.5 34.6 271.5 34.9 C 272.5 35.3 273.5 35.6 273.5 36.7 C 273.5 37.8 272.6 38.5 271.3 38.5 C 270.6 38.5 269.8 38.3 269.2 37.8 C 269.2 37.8 269.2 37.1 269.2 37.1 C 269.7 37.7 270.5 38 271.3 38 C 272.3 38 273 37.5 273 36.7 C 273 36 272.3 35.7 271.3 35.3 C 270.2 35 269.3 34.7 269.3 33.6 C 269.3 32.6 270.1 31.9 271.4 31.9 C 272 31.9 272.7 32.1 273.2 32.5 Z M 279.8 35.2 C 279.8 33.2 281.2 31.9 282.7 31.9 C 283.7 31.9 284.7 32.5 285.2 33.6 C 285.19 33.62 285.3 32 285.3 32 L 285.7 32 L 285.7 38.4 L 285.3 38.4 C 285.3 38.4 285.19 36.8 285.2 36.8 C 284.7 38 283.7 38.5 282.7 38.5 C 281.2 38.5 279.8 37.2 279.8 35.2 Z M 285.2 35.2 C 285.2 33.5 284.1 32.4 282.7 32.4 C 281.4 32.4 280.3 33.5 280.3 35.2 C 280.3 36.9 281.4 38 282.7 38 C 284 38 285.2 36.9 285.2 35.2 Z M 287.2 32 L 287.7 32 L 289.8 37.8 L 289.8 37.8 L 291.9 32 L 292.5 32 L 290.1 38.4 L 289.6 38.4 L 287.2 32 Z M 293.3 35.2 C 293.3 33.3 294.7 31.9 296.4 31.9 C 298.1 31.9 299.4 33.3 299.4 35.2 C 299.4 37.2 298.1 38.5 296.4 38.5 C 294.7 38.5 293.3 37.2 293.3 35.2 Z M 298.9 35.2 C 298.9 33.4 297.7 32.4 296.4 32.4 C 295.1 32.4 293.8 33.4 293.8 35.2 C 293.8 37 295.1 38 296.4 38 C 297.7 38 298.9 37 298.9 35.2 Z M 306 34.2 C 306.04 34.16 306 38.4 306 38.4 L 305.5 38.4 C 305.5 38.4 305.54 34.37 305.5 34.4 C 305.5 33.1 304.9 32.4 303.7 32.4 C 302.6 32.4 301.8 33.1 301.8 34.3 C 301.76 34.31 301.8 38.4 301.8 38.4 L 301.3 38.4 L 301.3 32 L 301.6 32 L 301.7 33.2 C 301.7 33.2 301.72 33.16 301.7 33.2 C 302.1 32.4 302.8 31.9 303.8 31.9 C 305.2 31.9 306 32.8 306 34.2 Z M 311.8 32.5 C 311.8 32.5 311.8 33 311.8 33 C 311.3 32.7 310.7 32.4 310 32.4 C 309 32.4 308.4 32.9 308.4 33.6 C 308.4 34.3 309.1 34.6 310.1 34.9 C 311.1 35.3 312.1 35.6 312.1 36.7 C 312.1 37.8 311.2 38.5 309.9 38.5 C 309.2 38.5 308.4 38.3 307.8 37.8 C 307.8 37.8 307.8 37.1 307.8 37.1 C 308.3 37.7 309.1 38 309.9 38 C 310.9 38 311.6 37.5 311.6 36.7 C 311.6 36 310.9 35.7 309.9 35.3 C 308.8 35 307.9 34.7 307.9 33.6 C 307.9 32.6 308.7 31.9 310 31.9 C 310.6 31.9 311.3 32.1 311.8 32.5 Z M 319.4 32 L 321.3 32 L 321.3 32.5 L 319.4 32.5 C 319.4 32.5 319.38 36.4 319.4 36.4 C 319.4 37.6 320 38 320.9 38 C 321.1 38 321.3 38 321.5 38 C 321.5 38 321.5 38.4 321.5 38.4 C 321.4 38.4 321.1 38.5 320.9 38.5 C 319.7 38.5 318.9 37.8 318.9 36.4 C 318.88 36.42 318.9 32.5 318.9 32.5 L 317.9 32.5 L 317.9 32 L 318.9 32 L 318.9 30.5 L 319.4 30.5 L 319.4 32 Z M 327.8 35.4 C 327.8 35.4 322.8 35.4 322.8 35.4 C 322.9 37 323.9 38 325.3 38 C 326.1 38 326.9 37.8 327.6 37.1 C 327.6 37.1 327.6 37.7 327.6 37.7 C 326.9 38.2 326.2 38.5 325.3 38.5 C 323.5 38.5 322.3 37.2 322.3 35.2 C 322.3 33.2 323.7 31.9 325.2 31.9 C 326.7 31.9 327.9 33 327.9 35.1 C 327.9 35.2 327.9 35.3 327.8 35.4 Z M 327.4 34.9 C 327.3 33.2 326.3 32.4 325.2 32.4 C 324 32.4 322.9 33.4 322.8 34.9 C 322.8 34.9 327.4 34.9 327.4 34.9 Z M 334.5 34.2 C 334.46 34.16 334.5 38.4 334.5 38.4 L 334 38.4 C 334 38.4 333.95 34.37 334 34.4 C 334 33.1 333.3 32.4 332.1 32.4 C 331.1 32.4 330.2 33.1 330.2 34.3 C 330.17 34.31 330.2 38.4 330.2 38.4 L 329.7 38.4 L 329.7 32 L 330.1 32 L 330.1 33.2 C 330.1 33.2 330.14 33.16 330.1 33.2 C 330.5 32.4 331.3 31.9 332.2 31.9 C 333.6 31.9 334.5 32.8 334.5 34.2 Z M 336.6 36.1 C 336.57 36.08 336.6 32 336.6 32 L 337.1 32 C 337.1 32 337.07 36.11 337.1 36.1 C 337.1 37.3 337.8 38 339 38 C 340.1 38 340.9 37.3 340.9 36.1 C 340.87 36.1 340.9 32 340.9 32 L 341.4 32 C 341.4 32 341.37 36.07 341.4 36.1 C 341.4 37.5 340.4 38.5 339 38.5 C 337.5 38.5 336.6 37.5 336.6 36.1 Z " stroke="none" fill="#000"/>
  </g>
  <g id="Polygon28757">
    <path d="M 6.3 21 C 6.3 21 1.2 21 1.2 21 C 1.3 22.6 2.3 23.6 3.8 23.6 C 4.5 23.6 5.3 23.4 6 22.7 C 6 22.7 6 23.3 6 23.3 C 5.4 23.8 4.6 24.1 3.7 24.1 C 1.9 24.1 0.7 22.8 0.7 20.8 C 0.7 18.8 2.1 17.5 3.6 17.5 C 5.1 17.5 6.3 18.6 6.3 20.7 C 6.3 20.8 6.3 20.9 6.3 21 Z M 5.8 20.5 C 5.7 18.8 4.7 18 3.6 18 C 2.4 18 1.3 19 1.2 20.5 C 1.2 20.5 5.8 20.5 5.8 20.5 Z M 8.1 17.6 L 8.5 17.6 L 8.5 18.8 C 8.5 18.8 8.54 18.82 8.5 18.8 C 8.9 17.9 9.8 17.6 10.4 17.6 C 10.6 17.6 10.7 17.6 10.8 17.6 C 10.8 17.6 10.8 18.1 10.8 18.1 C 10.7 18.1 10.6 18.1 10.4 18.1 C 9.5 18.1 8.6 18.7 8.6 20 C 8.58 19.97 8.6 24 8.6 24 L 8.1 24 L 8.1 17.6 Z M 16.8 19.2 C 16.75 19.16 16.8 17.6 16.8 17.6 L 17.2 17.6 C 17.2 17.6 17.22 23.8 17.2 23.8 C 17.2 25.8 15.8 26.7 14.4 26.7 C 13.6 26.7 12.7 26.4 12 25.9 C 12 25.9 12 25.3 12 25.3 C 12.7 25.9 13.6 26.2 14.4 26.2 C 15.6 26.2 16.7 25.5 16.7 23.9 C 16.7 23.9 16.7 22.3 16.7 22.3 C 16.3 23.4 15.3 23.9 14.3 23.9 C 12.8 23.9 11.4 22.7 11.4 20.7 C 11.4 18.8 12.8 17.5 14.3 17.5 C 15.3 17.5 16.3 18.1 16.8 19.2 Z M 11.9 20.7 C 11.9 22.4 13 23.4 14.3 23.4 C 15.6 23.4 16.7 22.3 16.7 20.7 C 16.7 19.1 15.6 18 14.3 18 C 13 18 11.9 19.1 11.9 20.7 Z M 19 20.8 C 19 18.9 20.4 17.5 22.1 17.5 C 23.8 17.5 25.1 18.9 25.1 20.8 C 25.1 22.8 23.8 24.1 22.1 24.1 C 20.4 24.1 19 22.8 19 20.8 Z M 24.6 20.8 C 24.6 19 23.4 18 22.1 18 C 20.8 18 19.5 19 19.5 20.8 C 19.5 22.6 20.8 23.6 22.1 23.6 C 23.4 23.6 24.6 22.6 24.6 20.8 Z M 31.7 19.8 C 31.74 19.76 31.7 24 31.7 24 L 31.2 24 C 31.2 24 31.24 19.97 31.2 20 C 31.2 18.7 30.6 18 29.4 18 C 28.3 18 27.5 18.7 27.5 19.9 C 27.45 19.91 27.5 24 27.5 24 L 27 24 L 27 17.6 L 27.3 17.6 L 27.4 18.8 C 27.4 18.8 27.42 18.76 27.4 18.8 C 27.8 18 28.5 17.5 29.5 17.5 C 30.9 17.5 31.7 18.4 31.7 19.8 Z M 33.5 20.8 C 33.5 18.9 34.8 17.5 36.5 17.5 C 38.2 17.5 39.6 18.9 39.6 20.8 C 39.6 22.8 38.2 24.1 36.5 24.1 C 34.9 24.1 33.5 22.8 33.5 20.8 Z M 39.1 20.8 C 39.1 19 37.8 18 36.5 18 C 35.2 18 34 19 34 20.8 C 34 22.6 35.2 23.6 36.5 23.6 C 37.8 23.6 39.1 22.6 39.1 20.8 Z M 49.1 19.7 C 49.11 19.68 49.1 24 49.1 24 L 48.6 24 C 48.6 24 48.61 19.73 48.6 19.7 C 48.6 18.7 48.1 18 47.1 18 C 46.1 18 45.5 18.8 45.5 19.7 C 45.5 19.74 45.5 24 45.5 24 L 45 24 C 45 24 45 19.73 45 19.7 C 45 18.7 44.5 18 43.5 18 C 42.5 18 41.9 18.8 41.9 19.8 C 41.89 19.76 41.9 24 41.9 24 L 41.4 24 L 41.4 17.6 L 41.8 17.6 L 41.8 18.7 C 41.8 18.7 41.85 18.68 41.9 18.7 C 42.1 18 42.8 17.5 43.6 17.5 C 44.5 17.5 45.1 18 45.3 18.8 C 45.6 18 46.3 17.5 47.2 17.5 C 48.5 17.5 49.1 18.4 49.1 19.7 Z M 51.2 15.3 C 51.2 15.1 51.4 14.9 51.6 14.9 C 51.9 14.9 52 15.1 52 15.3 C 52 15.5 51.9 15.7 51.6 15.7 C 51.4 15.7 51.2 15.5 51.2 15.3 Z M 51.4 17.6 L 51.9 17.6 L 51.9 24 L 51.4 24 L 51.4 17.6 Z M 59.1 19.2 C 59.14 19.24 59.2 17.6 59.2 17.6 L 59.6 17.6 L 59.6 26.6 L 59.1 26.6 C 59.1 26.6 59.1 22.44 59.1 22.4 C 58.7 23.5 57.6 24.1 56.6 24.1 C 55.1 24.1 53.7 22.8 53.7 20.8 C 53.7 18.8 55.1 17.5 56.6 17.5 C 57.6 17.5 58.7 18.1 59.1 19.2 Z M 54.2 20.8 C 54.2 22.5 55.4 23.6 56.7 23.6 C 58 23.6 59.1 22.5 59.1 20.8 C 59.1 19.1 58 18 56.7 18 C 55.4 18 54.2 19.1 54.2 20.8 Z M 61.8 21.7 C 61.8 21.68 61.8 17.6 61.8 17.6 L 62.3 17.6 C 62.3 17.6 62.3 21.71 62.3 21.7 C 62.3 22.9 63 23.6 64.2 23.6 C 65.4 23.6 66.1 22.9 66.1 21.7 C 66.1 21.7 66.1 17.6 66.1 17.6 L 66.6 17.6 C 66.6 17.6 66.6 21.67 66.6 21.7 C 66.6 23.1 65.7 24.1 64.2 24.1 C 62.7 24.1 61.8 23.1 61.8 21.7 Z M 73.9 21 C 73.9 21 68.9 21 68.9 21 C 68.9 22.6 70 23.6 71.4 23.6 C 72.2 23.6 73 23.4 73.7 22.7 C 73.7 22.7 73.7 23.3 73.7 23.3 C 73 23.8 72.2 24.1 71.4 24.1 C 69.6 24.1 68.4 22.8 68.4 20.8 C 68.4 18.8 69.8 17.5 71.3 17.5 C 72.7 17.5 73.9 18.6 73.9 20.7 C 73.9 20.8 73.9 20.9 73.9 21 Z M 73.4 20.5 C 73.4 18.8 72.4 18 71.3 18 C 70.1 18 69 19 68.9 20.5 C 68.9 20.5 73.4 20.5 73.4 20.5 Z M 79.3 18.1 C 79.3 18.1 79.3 18.6 79.3 18.6 C 78.8 18.3 78.2 18 77.5 18 C 76.5 18 75.9 18.5 75.9 19.2 C 75.9 19.9 76.6 20.2 77.6 20.5 C 78.6 20.9 79.6 21.2 79.6 22.3 C 79.6 23.4 78.7 24.1 77.4 24.1 C 76.7 24.1 75.9 23.9 75.3 23.4 C 75.3 23.4 75.3 22.7 75.3 22.7 C 75.8 23.3 76.6 23.6 77.4 23.6 C 78.4 23.6 79.1 23.1 79.1 22.3 C 79.1 21.6 78.4 21.3 77.4 20.9 C 76.3 20.6 75.4 20.3 75.4 19.2 C 75.4 18.2 76.2 17.5 77.5 17.5 C 78.1 17.5 78.8 17.7 79.3 18.1 Z M 81.1 23.6 C 81.1 23.3 81.3 23.1 81.6 23.1 C 81.9 23.1 82.1 23.3 82.1 23.6 C 82.1 23.8 81.9 24 81.6 24 C 81.3 24 81.1 23.8 81.1 23.6 Z M 88.4 15.1 L 92.8 15.1 L 92.8 15.6 L 88.9 15.6 L 88.9 19.2 L 92.5 19.2 L 92.5 19.7 L 88.9 19.7 L 88.9 23.5 L 92.8 23.5 L 92.8 24 L 88.4 24 L 88.4 15.1 Z M 99.6 19.8 C 99.58 19.76 99.6 24 99.6 24 L 99.1 24 C 99.1 24 99.08 19.97 99.1 20 C 99.1 18.7 98.4 18 97.3 18 C 96.2 18 95.3 18.7 95.3 19.9 C 95.3 19.91 95.3 24 95.3 24 L 94.8 24 L 94.8 17.6 L 95.2 17.6 L 95.3 18.8 C 95.3 18.8 95.26 18.76 95.3 18.8 C 95.6 18 96.4 17.5 97.3 17.5 C 98.7 17.5 99.6 18.4 99.6 19.8 Z M 109.4 18.1 C 109.4 18.1 109.4 18.6 109.4 18.6 C 108.8 18.3 108.2 18 107.5 18 C 106.6 18 106 18.5 106 19.2 C 106 19.9 106.6 20.2 107.6 20.5 C 108.7 20.9 109.7 21.2 109.7 22.3 C 109.7 23.4 108.8 24.1 107.5 24.1 C 106.7 24.1 106 23.9 105.4 23.4 C 105.4 23.4 105.4 22.7 105.4 22.7 C 105.9 23.3 106.7 23.6 107.5 23.6 C 108.5 23.6 109.2 23.1 109.2 22.3 C 109.2 21.6 108.4 21.3 107.4 20.9 C 106.4 20.6 105.5 20.3 105.5 19.2 C 105.5 18.2 106.3 17.5 107.5 17.5 C 108.2 17.5 108.9 17.7 109.4 18.1 Z M 111.6 15.5 C 111.61 15.53 111.6 15.1 111.6 15.1 L 112.1 15.1 C 112.1 15.1 112.11 15.52 112.1 15.5 C 112.1 16.5 111.7 17.5 111.5 18.1 C 111.5 18.1 111.1 18.1 111.1 18.1 C 111.3 17.5 111.6 16.5 111.6 15.5 Z M 113.9 15.3 C 113.9 15.1 114.1 14.9 114.3 14.9 C 114.5 14.9 114.7 15.1 114.7 15.3 C 114.7 15.5 114.5 15.7 114.3 15.7 C 114.1 15.7 113.9 15.5 113.9 15.3 Z M 114.1 17.6 L 114.6 17.6 L 114.6 24 L 114.1 24 L 114.1 17.6 Z M 121.7 19.8 C 121.66 19.76 121.7 24 121.7 24 L 121.2 24 C 121.2 24 121.16 19.97 121.2 20 C 121.2 18.7 120.5 18 119.3 18 C 118.3 18 117.4 18.7 117.4 19.9 C 117.38 19.91 117.4 24 117.4 24 L 116.9 24 L 116.9 17.6 L 117.3 17.6 L 117.3 18.8 C 117.3 18.8 117.34 18.76 117.3 18.8 C 117.7 18 118.5 17.5 119.4 17.5 C 120.8 17.5 121.7 18.4 121.7 19.8 Z M 127.4 18.1 C 127.4 18.1 127.4 18.6 127.4 18.6 C 126.9 18.3 126.3 18 125.6 18 C 124.6 18 124 18.5 124 19.2 C 124 19.9 124.7 20.2 125.7 20.5 C 126.7 20.9 127.7 21.2 127.7 22.3 C 127.7 23.4 126.9 24.1 125.6 24.1 C 124.8 24.1 124 23.9 123.4 23.4 C 123.4 23.4 123.4 22.7 123.4 22.7 C 124 23.3 124.7 23.6 125.6 23.6 C 126.6 23.6 127.2 23.1 127.2 22.3 C 127.2 21.6 126.5 21.3 125.5 20.9 C 124.4 20.6 123.5 20.3 123.5 19.2 C 123.5 18.2 124.4 17.5 125.6 17.5 C 126.3 17.5 126.9 17.7 127.4 18.1 Z M 129.5 17.6 L 129.9 17.6 C 129.9 17.6 129.94 19.24 129.9 19.2 C 130.4 18.1 131.4 17.5 132.4 17.5 C 134 17.5 135.4 18.8 135.4 20.8 C 135.4 22.8 134 24.1 132.4 24.1 C 131.4 24.1 130.4 23.5 130 22.5 C 129.98 22.45 130 26.6 130 26.6 L 129.5 26.6 L 129.5 17.6 Z M 134.9 20.8 C 134.9 19.1 133.7 18 132.4 18 C 131.1 18 130 19.1 130 20.8 C 130 22.5 131.1 23.6 132.4 23.6 C 133.7 23.6 134.9 22.5 134.9 20.8 Z M 137.1 15.3 C 137.1 15.1 137.2 14.9 137.5 14.9 C 137.7 14.9 137.9 15.1 137.9 15.3 C 137.9 15.5 137.7 15.7 137.5 15.7 C 137.2 15.7 137.1 15.5 137.1 15.3 Z M 137.2 17.6 L 137.7 17.6 L 137.7 24 L 137.2 24 L 137.2 17.6 Z M 140 17.6 L 140.5 17.6 L 140.5 18.8 C 140.5 18.8 140.51 18.82 140.5 18.8 C 140.9 17.9 141.7 17.6 142.4 17.6 C 142.5 17.6 142.7 17.6 142.8 17.6 C 142.8 17.6 142.8 18.1 142.8 18.1 C 142.7 18.1 142.5 18.1 142.4 18.1 C 141.5 18.1 140.6 18.7 140.5 20 C 140.55 19.97 140.5 24 140.5 24 L 140 24 L 140 17.6 Z M 143.3 20.8 C 143.3 18.8 144.7 17.5 146.2 17.5 C 147.3 17.5 148.3 18.1 148.8 19.2 C 148.76 19.22 148.8 17.6 148.8 17.6 L 149.2 17.6 L 149.2 24 L 148.8 24 C 148.8 24 148.76 22.4 148.8 22.4 C 148.3 23.6 147.3 24.1 146.3 24.1 C 144.7 24.1 143.3 22.8 143.3 20.8 Z M 148.7 20.8 C 148.7 19.1 147.6 18 146.3 18 C 145 18 143.8 19.1 143.8 20.8 C 143.8 22.5 145 23.6 146.3 23.6 C 147.6 23.6 148.7 22.5 148.7 20.8 Z M 156.3 19.8 C 156.29 19.76 156.3 24 156.3 24 L 155.8 24 C 155.8 24 155.79 19.97 155.8 20 C 155.8 18.7 155.1 18 154 18 C 152.9 18 152 18.7 152 19.9 C 152.01 19.91 152 24 152 24 L 151.5 24 L 151.5 17.6 L 151.9 17.6 L 152 18.8 C 152 18.8 151.97 18.76 152 18.8 C 152.3 18 153.1 17.5 154 17.5 C 155.4 17.5 156.3 18.4 156.3 19.8 Z M 159.1 17.6 L 161 17.6 L 161 18.1 L 159.1 18.1 C 159.1 18.1 159.11 22 159.1 22 C 159.1 23.2 159.7 23.6 160.6 23.6 C 160.8 23.6 161 23.6 161.2 23.6 C 161.2 23.6 161.2 24 161.2 24 C 161.1 24 160.9 24.1 160.6 24.1 C 159.4 24.1 158.6 23.4 158.6 22 C 158.61 22.02 158.6 18.1 158.6 18.1 L 157.6 18.1 L 157.6 17.6 L 158.6 17.6 L 158.6 16.1 L 159.1 16.1 L 159.1 17.6 Z M 166 20.8 C 166 18.8 167.4 17.5 169 17.5 C 170 17.5 171 18.1 171.4 19.2 C 171.42 19.18 171.4 14.5 171.4 14.5 L 171.9 14.5 L 171.9 24 L 171.5 24 L 171.5 22.4 C 171.5 22.4 171.45 22.39 171.4 22.4 C 171 23.6 170 24.1 169 24.1 C 167.5 24.1 166 22.8 166 20.8 Z M 171.4 20.8 C 171.4 19.1 170.3 18 169 18 C 167.7 18 166.6 19.1 166.6 20.8 C 166.6 22.5 167.7 23.6 169 23.6 C 170.3 23.6 171.4 22.5 171.4 20.8 Z M 174.4 15.5 C 174.4 15.53 174.4 15.1 174.4 15.1 L 174.9 15.1 C 174.9 15.1 174.9 15.52 174.9 15.5 C 174.9 16.5 174.5 17.5 174.3 18.1 C 174.3 18.1 173.9 18.1 173.9 18.1 C 174.1 17.5 174.4 16.5 174.4 15.5 Z M 176.7 15.3 C 176.7 15.1 176.9 14.9 177.1 14.9 C 177.3 14.9 177.5 15.1 177.5 15.3 C 177.5 15.5 177.3 15.7 177.1 15.7 C 176.9 15.7 176.7 15.5 176.7 15.3 Z M 176.8 17.6 L 177.4 17.6 L 177.4 24 L 176.8 24 L 176.8 17.6 Z M 184.5 19.8 C 184.45 19.76 184.5 24 184.5 24 L 184 24 C 184 24 183.95 19.97 184 20 C 184 18.7 183.3 18 182.1 18 C 181.1 18 180.2 18.7 180.2 19.9 C 180.17 19.91 180.2 24 180.2 24 L 179.7 24 L 179.7 17.6 L 180.1 17.6 L 180.1 18.8 C 180.1 18.8 180.13 18.76 180.1 18.8 C 180.5 18 181.3 17.5 182.2 17.5 C 183.6 17.5 184.5 18.4 184.5 19.8 Z M 187.3 17.6 L 189.2 17.6 L 189.2 18.1 L 187.3 18.1 C 187.3 18.1 187.27 22 187.3 22 C 187.3 23.2 187.9 23.6 188.8 23.6 C 189 23.6 189.2 23.6 189.3 23.6 C 189.3 23.6 189.3 24 189.3 24 C 189.3 24 189 24.1 188.7 24.1 C 187.6 24.1 186.8 23.4 186.8 22 C 186.77 22.02 186.8 18.1 186.8 18.1 L 185.8 18.1 L 185.8 17.6 L 186.8 17.6 L 186.8 16.1 L 187.3 16.1 L 187.3 17.6 Z M 192.9 16.5 L 192.4 16.5 L 193.9 14.6 L 194.5 14.6 L 192.9 16.5 Z M 195.7 21 C 195.7 21 190.7 21 190.7 21 C 190.8 22.6 191.8 23.6 193.2 23.6 C 194 23.6 194.8 23.4 195.5 22.7 C 195.5 22.7 195.5 23.3 195.5 23.3 C 194.8 23.8 194 24.1 193.2 24.1 C 191.4 24.1 190.2 22.8 190.2 20.8 C 190.2 18.8 191.6 17.5 193.1 17.5 C 194.5 17.5 195.8 18.6 195.8 20.7 C 195.8 20.8 195.7 20.9 195.7 21 Z M 195.3 20.5 C 195.2 18.8 194.2 18 193.1 18 C 191.9 18 190.8 19 190.7 20.5 C 190.7 20.5 195.3 20.5 195.3 20.5 Z M 197.6 17.6 L 198 17.6 L 198 18.8 C 198 18.8 198.03 18.82 198 18.8 C 198.4 17.9 199.3 17.6 199.9 17.6 C 200 17.6 200.2 17.6 200.3 17.6 C 200.3 17.6 200.3 18.1 200.3 18.1 C 200.2 18.1 200 18.1 199.9 18.1 C 199 18.1 198.1 18.7 198.1 20 C 198.06 19.97 198.1 24 198.1 24 L 197.6 24 L 197.6 17.6 Z M 201.5 15.3 C 201.5 15.1 201.7 14.9 201.9 14.9 C 202.2 14.9 202.3 15.1 202.3 15.3 C 202.3 15.5 202.2 15.7 201.9 15.7 C 201.7 15.7 201.5 15.5 201.5 15.3 Z M 201.7 17.6 L 202.2 17.6 L 202.2 24 L 201.7 24 L 201.7 17.6 Z M 209.6 21 C 209.6 21 204.5 21 204.5 21 C 204.6 22.6 205.7 23.6 207.1 23.6 C 207.9 23.6 208.7 23.4 209.4 22.7 C 209.4 22.7 209.4 23.3 209.4 23.3 C 208.7 23.8 207.9 24.1 207.1 24.1 C 205.3 24.1 204 22.8 204 20.8 C 204 18.8 205.5 17.5 207 17.5 C 208.4 17.5 209.6 18.6 209.6 20.7 C 209.6 20.8 209.6 20.9 209.6 21 Z M 209.1 20.5 C 209.1 18.8 208.1 18 207 18 C 205.8 18 204.7 19 204.6 20.5 C 204.6 20.5 209.1 20.5 209.1 20.5 Z M 211.3 21.7 C 211.33 21.68 211.3 17.6 211.3 17.6 L 211.8 17.6 C 211.8 17.6 211.84 21.71 211.8 21.7 C 211.8 22.9 212.6 23.6 213.7 23.6 C 214.9 23.6 215.6 22.9 215.6 21.7 C 215.63 21.7 215.6 17.6 215.6 17.6 L 216.1 17.6 C 216.1 17.6 216.13 21.67 216.1 21.7 C 216.1 23.1 215.2 24.1 213.7 24.1 C 212.2 24.1 211.3 23.1 211.3 21.7 Z M 218.3 17.6 L 218.7 17.6 L 218.8 18.8 C 218.8 18.8 218.8 18.82 218.8 18.8 C 219.2 17.9 220 17.6 220.7 17.6 C 220.8 17.6 221 17.6 221.1 17.6 C 221.1 17.6 221.1 18.1 221.1 18.1 C 221 18.1 220.8 18.1 220.7 18.1 C 219.8 18.1 218.8 18.7 218.8 20 C 218.83 19.97 218.8 24 218.8 24 L 218.3 24 L 218.3 17.6 Z M 225.9 18.1 C 225.9 18.1 225.9 18.6 225.9 18.6 C 225.4 18.3 224.8 18 224.1 18 C 223.1 18 222.5 18.5 222.5 19.2 C 222.5 19.9 223.2 20.2 224.2 20.5 C 225.2 20.9 226.2 21.2 226.2 22.3 C 226.2 23.4 225.3 24.1 224 24.1 C 223.3 24.1 222.5 23.9 221.9 23.4 C 221.9 23.4 221.9 22.7 221.9 22.7 C 222.4 23.3 223.2 23.6 224 23.6 C 225 23.6 225.7 23.1 225.7 22.3 C 225.7 21.6 225 21.3 223.9 20.9 C 222.9 20.6 222 20.3 222 19.2 C 222 18.2 222.8 17.5 224.1 17.5 C 224.7 17.5 225.4 17.7 225.9 18.1 Z M 231.5 20.8 C 231.5 18.8 232.9 17.5 234.4 17.5 C 235.4 17.5 236.4 18.1 236.9 19.2 C 236.89 19.18 236.9 14.5 236.9 14.5 L 237.4 14.5 L 237.4 24 L 237 24 L 236.9 22.4 C 236.9 22.4 236.92 22.39 236.9 22.4 C 236.5 23.6 235.4 24.1 234.4 24.1 C 232.9 24.1 231.5 22.8 231.5 20.8 Z M 236.9 20.8 C 236.9 19.1 235.8 18 234.5 18 C 233.1 18 232 19.1 232 20.8 C 232 22.5 233.1 23.6 234.5 23.6 C 235.8 23.6 236.9 22.5 236.9 20.8 Z M 242 16.5 L 241.5 16.5 L 242.9 14.6 L 243.5 14.6 L 242 16.5 Z M 244.8 21 C 244.8 21 239.7 21 239.7 21 C 239.8 22.6 240.9 23.6 242.3 23.6 C 243.1 23.6 243.9 23.4 244.6 22.7 C 244.6 22.7 244.6 23.3 244.6 23.3 C 243.9 23.8 243.1 24.1 242.3 24.1 C 240.5 24.1 239.2 22.8 239.2 20.8 C 239.2 18.8 240.6 17.5 242.2 17.5 C 243.6 17.5 244.8 18.6 244.8 20.7 C 244.8 20.8 244.8 20.9 244.8 21 Z M 244.3 20.5 C 244.3 18.8 243.3 18 242.2 18 C 241 18 239.9 19 239.7 20.5 C 239.7 20.5 244.3 20.5 244.3 20.5 Z M 249.2 23.6 C 249.7 23.6 250.4 23.5 251 23.1 C 251 23.1 251 23.7 251 23.7 C 250.5 24 249.9 24.1 249.2 24.1 C 247.5 24.1 246.2 22.7 246.2 20.8 C 246.2 18.9 247.5 17.5 249.2 17.5 C 249.8 17.5 250.4 17.6 251 18 C 251 18 251 18.5 251 18.5 C 250.4 18.1 249.8 18 249.2 18 C 247.9 18 246.7 19.1 246.7 20.8 C 246.7 22.5 247.9 23.6 249.2 23.6 Z M 252.8 14.5 L 253.3 14.5 L 253.3 24 L 252.8 24 L 252.8 14.5 Z M 255.1 20.8 C 255.1 18.9 256.5 17.5 258.2 17.5 C 259.8 17.5 261.2 18.9 261.2 20.8 C 261.2 22.8 259.8 24.1 258.2 24.1 C 256.5 24.1 255.1 22.8 255.1 20.8 Z M 260.7 20.8 C 260.7 19 259.5 18 258.2 18 C 256.9 18 255.6 19 255.6 20.8 C 255.6 22.6 256.9 23.6 258.2 23.6 C 259.5 23.6 260.7 22.6 260.7 20.8 Z M 262.9 15.3 C 262.9 15.1 263.1 14.9 263.3 14.9 C 263.6 14.9 263.7 15.1 263.7 15.3 C 263.7 15.5 263.6 15.7 263.3 15.7 C 263.1 15.7 262.9 15.5 262.9 15.3 Z M 263.1 17.6 L 263.6 17.6 L 263.6 24 L 263.1 24 L 263.1 17.6 Z M 269.4 18.1 C 269.4 18.1 269.4 18.6 269.4 18.6 C 268.9 18.3 268.3 18 267.6 18 C 266.7 18 266.1 18.5 266.1 19.2 C 266.1 19.9 266.7 20.2 267.7 20.5 C 268.8 20.9 269.8 21.2 269.8 22.3 C 269.8 23.4 268.9 24.1 267.6 24.1 C 266.8 24.1 266.1 23.9 265.5 23.4 C 265.5 23.4 265.5 22.7 265.5 22.7 C 266 23.3 266.8 23.6 267.6 23.6 C 268.6 23.6 269.3 23.1 269.3 22.3 C 269.3 21.6 268.5 21.3 267.5 20.9 C 266.5 20.6 265.5 20.3 265.5 19.2 C 265.5 18.2 266.4 17.5 267.6 17.5 C 268.3 17.5 269 17.7 269.4 18.1 Z M 271.1 20.8 C 271.1 18.9 272.4 17.5 274.1 17.5 C 275.8 17.5 277.1 18.9 277.1 20.8 C 277.1 22.8 275.8 24.1 274.1 24.1 C 272.4 24.1 271.1 22.8 271.1 20.8 Z M 276.6 20.8 C 276.6 19 275.4 18 274.1 18 C 272.8 18 271.6 19 271.6 20.8 C 271.6 22.6 272.8 23.6 274.1 23.6 C 275.4 23.6 276.6 22.6 276.6 20.8 Z M 283.7 19.8 C 283.75 19.76 283.7 24 283.7 24 L 283.2 24 C 283.2 24 283.25 19.97 283.2 20 C 283.2 18.7 282.6 18 281.4 18 C 280.4 18 279.5 18.7 279.5 19.9 C 279.47 19.91 279.5 24 279.5 24 L 279 24 L 279 17.6 L 279.4 17.6 L 279.4 18.8 C 279.4 18.8 279.43 18.76 279.4 18.8 C 279.8 18 280.5 17.5 281.5 17.5 C 282.9 17.5 283.7 18.4 283.7 19.8 Z M 290.7 19.8 C 290.73 19.76 290.7 24 290.7 24 L 290.2 24 C 290.2 24 290.23 19.97 290.2 20 C 290.2 18.7 289.6 18 288.4 18 C 287.3 18 286.4 18.7 286.4 19.9 C 286.45 19.91 286.4 24 286.4 24 L 285.9 24 L 285.9 17.6 L 286.3 17.6 L 286.4 18.8 C 286.4 18.8 286.41 18.76 286.4 18.8 C 286.8 18 287.5 17.5 288.5 17.5 C 289.8 17.5 290.7 18.4 290.7 19.8 Z M 295.2 16.5 L 294.7 16.5 L 296.2 14.6 L 296.8 14.6 L 295.2 16.5 Z M 298 21 C 298 21 293 21 293 21 C 293.1 22.6 294.1 23.6 295.5 23.6 C 296.3 23.6 297.1 23.4 297.8 22.7 C 297.8 22.7 297.8 23.3 297.8 23.3 C 297.1 23.8 296.4 24.1 295.5 24.1 C 293.7 24.1 292.5 22.8 292.5 20.8 C 292.5 18.8 293.9 17.5 295.4 17.5 C 296.9 17.5 298.1 18.6 298.1 20.7 C 298.1 20.8 298.1 20.9 298 21 Z M 297.6 20.5 C 297.5 18.8 296.5 18 295.4 18 C 294.2 18 293.1 19 293 20.5 C 293 20.5 297.6 20.5 297.6 20.5 Z M 303.4 18.1 C 303.4 18.1 303.4 18.6 303.4 18.6 C 302.9 18.3 302.3 18 301.6 18 C 300.6 18 300 18.5 300 19.2 C 300 19.9 300.7 20.2 301.7 20.5 C 302.7 20.9 303.7 21.2 303.7 22.3 C 303.7 23.4 302.9 24.1 301.6 24.1 C 300.8 24.1 300 23.9 299.4 23.4 C 299.4 23.4 299.4 22.7 299.4 22.7 C 300 23.3 300.7 23.6 301.6 23.6 C 302.6 23.6 303.2 23.1 303.2 22.3 C 303.2 21.6 302.5 21.3 301.5 20.9 C 300.4 20.6 299.5 20.3 299.5 19.2 C 299.5 18.2 300.4 17.5 301.6 17.5 C 302.3 17.5 302.9 17.7 303.4 18.1 Z M 314.6 21 C 314.6 21 309.6 21 309.6 21 C 309.6 22.6 310.7 23.6 312.1 23.6 C 312.9 23.6 313.7 23.4 314.4 22.7 C 314.4 22.7 314.4 23.3 314.4 23.3 C 313.7 23.8 312.9 24.1 312.1 24.1 C 310.3 24.1 309.1 22.8 309.1 20.8 C 309.1 18.8 310.5 17.5 312 17.5 C 313.4 17.5 314.6 18.6 314.6 20.7 C 314.6 20.8 314.6 20.9 314.6 21 Z M 314.1 20.5 C 314.1 18.8 313.1 18 312 18 C 310.8 18 309.7 19 309.6 20.5 C 309.6 20.5 314.1 20.5 314.1 20.5 Z M 317.1 17.6 L 319 17.6 L 319 18.1 L 317.1 18.1 C 317.1 18.1 317.06 22 317.1 22 C 317.1 23.2 317.7 23.6 318.6 23.6 C 318.8 23.6 318.9 23.6 319.1 23.6 C 319.1 23.6 319.1 24 319.1 24 C 319.1 24 318.8 24.1 318.5 24.1 C 317.4 24.1 316.6 23.4 316.6 22 C 316.56 22.02 316.6 18.1 316.6 18.1 L 315.6 18.1 L 315.6 17.6 L 316.6 17.6 L 316.6 16.1 L 317.1 16.1 L 317.1 17.6 Z M 324 20.8 C 324 18.9 325.3 17.5 327 17.5 C 328.7 17.5 330.1 18.9 330.1 20.8 C 330.1 22.8 328.7 24.1 327 24.1 C 325.4 24.1 324 22.8 324 20.8 Z M 329.6 20.8 C 329.6 19 328.3 18 327 18 C 325.7 18 324.5 19 324.5 20.8 C 324.5 22.6 325.7 23.6 327 23.6 C 328.3 23.6 329.6 22.6 329.6 20.8 Z M 331.8 21.7 C 331.81 21.68 331.8 17.6 331.8 17.6 L 332.3 17.6 C 332.3 17.6 332.31 21.71 332.3 21.7 C 332.3 22.9 333 23.6 334.2 23.6 C 335.4 23.6 336.1 22.9 336.1 21.7 C 336.1 21.7 336.1 17.6 336.1 17.6 L 336.6 17.6 C 336.6 17.6 336.6 21.67 336.6 21.7 C 336.6 23.1 335.7 24.1 334.2 24.1 C 332.7 24.1 331.8 23.1 331.8 21.7 Z M 338.6 20.1 L 341.5 20.1 L 341.5 20.6 L 338.6 20.6 L 338.6 20.1 Z " stroke="none" fill="#000"/>
  </g>
  <g id="Polygon28756">
    <path d="M 5.5 1.1 C 5.5 1.1 5.5 1.7 5.5 1.7 C 4.9 1.2 4.1 1 3.5 1 C 2.3 1 1.4 1.7 1.4 2.7 C 1.4 3.7 2.3 4.2 3.6 4.8 C 4.9 5.4 5.9 6 5.9 7.3 C 5.9 8.8 4.7 9.7 3.2 9.7 C 2.2 9.7 1.4 9.4 0.8 8.9 C 0.8 8.9 0.8 8.2 0.8 8.2 C 1.4 8.9 2.3 9.3 3.2 9.3 C 4.4 9.3 5.4 8.5 5.4 7.4 C 5.4 6.3 4.5 5.8 3.2 5.2 C 1.9 4.6 0.9 4.1 0.9 2.8 C 0.9 1.4 2 0.5 3.5 0.5 C 4.2 0.5 4.9 0.8 5.5 1.1 Z M 7.3 6.4 C 7.3 4.5 8.6 3.1 10.3 3.1 C 12 3.1 13.3 4.5 13.3 6.4 C 13.3 8.4 12 9.7 10.3 9.7 C 8.6 9.7 7.3 8.4 7.3 6.4 Z M 12.8 6.4 C 12.8 4.6 11.6 3.6 10.3 3.6 C 9 3.6 7.8 4.6 7.8 6.4 C 7.8 8.2 9 9.2 10.3 9.2 C 11.6 9.2 12.8 8.2 12.8 6.4 Z M 15.1 7.3 C 15.08 7.28 15.1 3.2 15.1 3.2 L 15.6 3.2 C 15.6 3.2 15.59 7.31 15.6 7.3 C 15.6 8.5 16.3 9.2 17.5 9.2 C 18.6 9.2 19.4 8.5 19.4 7.3 C 19.38 7.3 19.4 3.2 19.4 3.2 L 19.9 3.2 C 19.9 3.2 19.88 7.27 19.9 7.3 C 19.9 8.7 18.9 9.7 17.5 9.7 C 16 9.7 15.1 8.7 15.1 7.3 Z M 21.3 3.2 L 21.9 3.2 L 24 9 L 24 9 L 26.1 3.2 L 26.6 3.2 L 24.3 9.6 L 23.7 9.6 L 21.3 3.2 Z M 33.1 6.6 C 33.1 6.6 28 6.6 28 6.6 C 28.1 8.2 29.1 9.2 30.6 9.2 C 31.3 9.2 32.1 9 32.8 8.3 C 32.8 8.3 32.8 8.9 32.8 8.9 C 32.2 9.4 31.4 9.7 30.5 9.7 C 28.8 9.7 27.5 8.4 27.5 6.4 C 27.5 4.4 28.9 3.1 30.5 3.1 C 31.9 3.1 33.1 4.2 33.1 6.3 C 33.1 6.4 33.1 6.5 33.1 6.6 Z M 32.6 6.1 C 32.6 4.4 31.5 3.6 30.5 3.6 C 29.2 3.6 28.1 4.6 28 6.1 C 28 6.1 32.6 6.1 32.6 6.1 Z M 39.7 5.4 C 39.67 5.36 39.7 9.6 39.7 9.6 L 39.2 9.6 C 39.2 9.6 39.17 5.57 39.2 5.6 C 39.2 4.3 38.5 3.6 37.4 3.6 C 36.3 3.6 35.4 4.3 35.4 5.5 C 35.39 5.51 35.4 9.6 35.4 9.6 L 34.9 9.6 L 34.9 3.2 L 35.3 3.2 L 35.3 4.4 C 35.3 4.4 35.35 4.36 35.4 4.4 C 35.7 3.6 36.5 3.1 37.4 3.1 C 38.8 3.1 39.7 4 39.7 5.4 Z M 42.5 3.2 L 44.4 3.2 L 44.4 3.7 L 42.5 3.7 C 42.5 3.7 42.49 7.6 42.5 7.6 C 42.5 8.8 43.1 9.2 44 9.2 C 44.2 9.2 44.4 9.2 44.6 9.2 C 44.6 9.2 44.6 9.6 44.6 9.6 C 44.5 9.6 44.2 9.7 44 9.7 C 42.8 9.7 42 9 42 7.6 C 41.99 7.62 42 3.7 42 3.7 L 41 3.7 L 41 3.2 L 42 3.2 L 42 1.7 L 42.5 1.7 L 42.5 3.2 Z M 51.1 2.1 L 50.7 2.1 L 52.1 0.2 L 52.7 0.2 L 51.1 2.1 Z M 54 6.6 C 54 6.6 48.9 6.6 48.9 6.6 C 49 8.2 50 9.2 51.5 9.2 C 52.3 9.2 53.1 9 53.8 8.3 C 53.8 8.3 53.8 8.9 53.8 8.9 C 53.1 9.4 52.3 9.7 51.5 9.7 C 49.7 9.7 48.4 8.4 48.4 6.4 C 48.4 4.4 49.8 3.1 51.4 3.1 C 52.8 3.1 54 4.2 54 6.3 C 54 6.4 54 6.5 54 6.6 Z M 53.5 6.1 C 53.5 4.4 52.5 3.6 51.4 3.6 C 50.2 3.6 49 4.6 48.9 6.1 C 48.9 6.1 53.5 6.1 53.5 6.1 Z M 56.4 3.2 L 58.3 3.2 L 58.3 3.7 L 56.4 3.7 C 56.4 3.7 56.43 7.6 56.4 7.6 C 56.4 8.8 57.1 9.2 58 9.2 C 58.1 9.2 58.3 9.2 58.5 9.2 C 58.5 9.2 58.5 9.6 58.5 9.6 C 58.4 9.6 58.2 9.7 57.9 9.7 C 56.8 9.7 55.9 9 55.9 7.6 C 55.93 7.62 55.9 3.7 55.9 3.7 L 54.9 3.7 L 54.9 3.2 L 55.9 3.2 L 55.9 1.7 L 56.4 1.7 L 56.4 3.2 Z M 59.9 3.2 L 60.3 3.2 L 60.3 4.4 C 60.3 4.4 60.33 4.42 60.3 4.4 C 60.7 3.5 61.6 3.2 62.2 3.2 C 62.3 3.2 62.5 3.2 62.6 3.2 C 62.6 3.2 62.6 3.7 62.6 3.7 C 62.5 3.7 62.3 3.7 62.2 3.7 C 61.3 3.7 60.4 4.3 60.4 5.6 C 60.36 5.57 60.4 9.6 60.4 9.6 L 59.9 9.6 L 59.9 3.2 Z M 63.8 0.9 C 63.8 0.7 64 0.5 64.2 0.5 C 64.5 0.5 64.6 0.7 64.6 0.9 C 64.6 1.1 64.5 1.3 64.2 1.3 C 64 1.3 63.8 1.1 63.8 0.9 Z M 64 3.2 L 64.5 3.2 L 64.5 9.6 L 64 9.6 L 64 3.2 Z M 71.7 4.8 C 71.74 4.84 71.8 3.2 71.8 3.2 L 72.2 3.2 L 72.2 12.2 L 71.7 12.2 C 71.7 12.2 71.71 8.04 71.7 8 C 71.3 9.1 70.3 9.7 69.2 9.7 C 67.7 9.7 66.3 8.4 66.3 6.4 C 66.3 4.4 67.7 3.1 69.2 3.1 C 70.3 3.1 71.3 3.7 71.7 4.8 Z M 66.8 6.4 C 66.8 8.1 68 9.2 69.3 9.2 C 70.6 9.2 71.7 8.1 71.7 6.4 C 71.7 4.7 70.6 3.6 69.3 3.6 C 68 3.6 66.8 4.7 66.8 6.4 Z M 74.4 7.3 C 74.41 7.28 74.4 3.2 74.4 3.2 L 74.9 3.2 C 74.9 3.2 74.91 7.31 74.9 7.3 C 74.9 8.5 75.6 9.2 76.8 9.2 C 78 9.2 78.7 8.5 78.7 7.3 C 78.7 7.3 78.7 3.2 78.7 3.2 L 79.2 3.2 C 79.2 3.2 79.2 7.27 79.2 7.3 C 79.2 8.7 78.3 9.7 76.8 9.7 C 75.3 9.7 74.4 8.7 74.4 7.3 Z M 83.7 2.1 L 83.2 2.1 L 84.6 0.2 L 85.2 0.2 L 83.7 2.1 Z M 86.5 6.6 C 86.5 6.6 81.5 6.6 81.5 6.6 C 81.5 8.2 82.6 9.2 84 9.2 C 84.8 9.2 85.6 9 86.3 8.3 C 86.3 8.3 86.3 8.9 86.3 8.9 C 85.6 9.4 84.8 9.7 84 9.7 C 82.2 9.7 81 8.4 81 6.4 C 81 4.4 82.4 3.1 83.9 3.1 C 85.3 3.1 86.5 4.2 86.5 6.3 C 86.5 6.4 86.5 6.5 86.5 6.6 Z M 86 6.1 C 86 4.4 85 3.6 83.9 3.6 C 82.7 3.6 81.6 4.6 81.5 6.1 C 81.5 6.1 86 6.1 86 6.1 Z M 91.9 3.7 C 91.9 3.7 91.9 4.2 91.9 4.2 C 91.4 3.9 90.8 3.6 90.1 3.6 C 89.1 3.6 88.5 4.1 88.5 4.8 C 88.5 5.5 89.2 5.8 90.2 6.1 C 91.2 6.5 92.2 6.8 92.2 7.9 C 92.2 9 91.3 9.7 90 9.7 C 89.3 9.7 88.5 9.5 87.9 9 C 87.9 9 87.9 8.3 87.9 8.3 C 88.4 8.9 89.2 9.2 90 9.2 C 91 9.2 91.7 8.7 91.7 7.9 C 91.7 7.2 91 6.9 90 6.5 C 88.9 6.2 88 5.9 88 4.8 C 88 3.8 88.8 3.1 90.1 3.1 C 90.7 3.1 91.4 3.3 91.9 3.7 Z M 93.9 8.6 C 93.87 8.64 93.9 8.2 93.9 8.2 L 94.4 8.2 C 94.4 8.2 94.37 8.63 94.4 8.6 C 94.4 9.6 94 10.6 93.7 11.2 C 93.7 11.2 93.3 11.2 93.3 11.2 C 93.6 10.6 93.9 9.6 93.9 8.6 Z M 99.6 0.1 L 100.1 0.1 L 100.1 9.6 L 99.6 9.6 L 99.6 0.1 Z M 107.5 6.6 C 107.5 6.6 102.5 6.6 102.5 6.6 C 102.5 8.2 103.6 9.2 105 9.2 C 105.8 9.2 106.6 9 107.3 8.3 C 107.3 8.3 107.3 8.9 107.3 8.9 C 106.6 9.4 105.8 9.7 105 9.7 C 103.2 9.7 102 8.4 102 6.4 C 102 4.4 103.4 3.1 104.9 3.1 C 106.3 3.1 107.5 4.2 107.5 6.3 C 107.5 6.4 107.5 6.5 107.5 6.6 Z M 107 6.1 C 107 4.4 106 3.6 104.9 3.6 C 103.7 3.6 102.6 4.6 102.5 6.1 C 102.5 6.1 107 6.1 107 6.1 Z M 112.9 3.7 C 112.9 3.7 112.9 4.2 112.9 4.2 C 112.4 3.9 111.8 3.6 111.1 3.6 C 110.1 3.6 109.5 4.1 109.5 4.8 C 109.5 5.5 110.2 5.8 111.2 6.1 C 112.2 6.5 113.2 6.8 113.2 7.9 C 113.2 9 112.3 9.7 111 9.7 C 110.3 9.7 109.5 9.5 108.9 9 C 108.9 9 108.9 8.3 108.9 8.3 C 109.4 8.9 110.2 9.2 111 9.2 C 112 9.2 112.7 8.7 112.7 7.9 C 112.7 7.2 112 6.9 111 6.5 C 109.9 6.2 109 5.9 109 4.8 C 109 3.8 109.8 3.1 111.1 3.1 C 111.7 3.1 112.4 3.3 112.9 3.7 Z M 117.9 0.9 C 117.9 0.7 118 0.5 118.3 0.5 C 118.5 0.5 118.7 0.7 118.7 0.9 C 118.7 1.1 118.5 1.3 118.3 1.3 C 118 1.3 117.9 1.1 117.9 0.9 Z M 118 3.2 L 118.5 3.2 L 118.5 9.6 L 118 9.6 L 118 3.2 Z M 125.6 5.4 C 125.61 5.36 125.6 9.6 125.6 9.6 L 125.1 9.6 C 125.1 9.6 125.11 5.57 125.1 5.6 C 125.1 4.3 124.4 3.6 123.3 3.6 C 122.2 3.6 121.3 4.3 121.3 5.5 C 121.32 5.51 121.3 9.6 121.3 9.6 L 120.8 9.6 L 120.8 3.2 L 121.2 3.2 L 121.3 4.4 C 121.3 4.4 121.29 4.36 121.3 4.4 C 121.6 3.6 122.4 3.1 123.4 3.1 C 124.7 3.1 125.6 4 125.6 5.4 Z M 128.4 3.2 L 130.3 3.2 L 130.3 3.7 L 128.4 3.7 C 128.4 3.7 128.43 7.6 128.4 7.6 C 128.4 8.8 129.1 9.2 130 9.2 C 130.1 9.2 130.3 9.2 130.5 9.2 C 130.5 9.2 130.5 9.6 130.5 9.6 C 130.4 9.6 130.2 9.7 129.9 9.7 C 128.8 9.7 127.9 9 127.9 7.6 C 127.93 7.62 127.9 3.7 127.9 3.7 L 126.9 3.7 L 126.9 3.2 L 127.9 3.2 L 127.9 1.7 L 128.4 1.7 L 128.4 3.2 Z M 134.1 2.1 L 133.6 2.1 L 135 0.2 L 135.6 0.2 L 134.1 2.1 Z M 136.9 6.6 C 136.9 6.6 131.8 6.6 131.8 6.6 C 131.9 8.2 133 9.2 134.4 9.2 C 135.2 9.2 136 9 136.7 8.3 C 136.7 8.3 136.7 8.9 136.7 8.9 C 136 9.4 135.2 9.7 134.4 9.7 C 132.6 9.7 131.3 8.4 131.3 6.4 C 131.3 4.4 132.7 3.1 134.3 3.1 C 135.7 3.1 136.9 4.2 136.9 6.3 C 136.9 6.4 136.9 6.5 136.9 6.6 Z M 136.4 6.1 C 136.4 4.4 135.4 3.6 134.3 3.6 C 133.1 3.6 132 4.6 131.8 6.1 C 131.8 6.1 136.4 6.1 136.4 6.1 Z M 138.7 3.2 L 139.1 3.2 L 139.2 4.4 C 139.2 4.4 139.18 4.42 139.2 4.4 C 139.6 3.5 140.4 3.2 141.1 3.2 C 141.2 3.2 141.3 3.2 141.4 3.2 C 141.4 3.2 141.4 3.7 141.4 3.7 C 141.3 3.7 141.2 3.7 141.1 3.7 C 140.2 3.7 139.2 4.3 139.2 5.6 C 139.22 5.57 139.2 9.6 139.2 9.6 L 138.7 9.6 L 138.7 3.2 Z M 142.7 0.9 C 142.7 0.7 142.8 0.5 143.1 0.5 C 143.3 0.5 143.5 0.7 143.5 0.9 C 143.5 1.1 143.3 1.3 143.1 1.3 C 142.8 1.3 142.7 1.1 142.7 0.9 Z M 142.8 3.2 L 143.3 3.2 L 143.3 9.6 L 142.8 9.6 L 142.8 3.2 Z M 150.7 6.6 C 150.7 6.6 145.7 6.6 145.7 6.6 C 145.8 8.2 146.8 9.2 148.3 9.2 C 149 9.2 149.8 9 150.5 8.3 C 150.5 8.3 150.5 8.9 150.5 8.9 C 149.8 9.4 149.1 9.7 148.2 9.7 C 146.4 9.7 145.2 8.4 145.2 6.4 C 145.2 4.4 146.6 3.1 148.1 3.1 C 149.6 3.1 150.8 4.2 150.8 6.3 C 150.8 6.4 150.8 6.5 150.7 6.6 Z M 150.3 6.1 C 150.2 4.4 149.2 3.6 148.1 3.6 C 146.9 3.6 145.8 4.6 145.7 6.1 C 145.7 6.1 150.3 6.1 150.3 6.1 Z M 152.5 7.3 C 152.49 7.28 152.5 3.2 152.5 3.2 L 153 3.2 C 153 3.2 152.99 7.31 153 7.3 C 153 8.5 153.7 9.2 154.9 9.2 C 156 9.2 156.8 8.5 156.8 7.3 C 156.79 7.3 156.8 3.2 156.8 3.2 L 157.3 3.2 C 157.3 3.2 157.29 7.27 157.3 7.3 C 157.3 8.7 156.4 9.7 154.9 9.7 C 153.4 9.7 152.5 8.7 152.5 7.3 Z M 159.5 3.2 L 159.9 3.2 L 159.9 4.4 C 159.9 4.4 159.95 4.42 160 4.4 C 160.3 3.5 161.2 3.2 161.8 3.2 C 162 3.2 162.1 3.2 162.2 3.2 C 162.2 3.2 162.2 3.7 162.2 3.7 C 162.1 3.7 162 3.7 161.8 3.7 C 160.9 3.7 160 4.3 160 5.6 C 159.99 5.57 160 9.6 160 9.6 L 159.5 9.6 L 159.5 3.2 Z M 167 3.7 C 167 3.7 167 4.2 167 4.2 C 166.5 3.9 165.9 3.6 165.2 3.6 C 164.3 3.6 163.6 4.1 163.6 4.8 C 163.6 5.5 164.3 5.8 165.3 6.1 C 166.3 6.5 167.3 6.8 167.3 7.9 C 167.3 9 166.5 9.7 165.2 9.7 C 164.4 9.7 163.7 9.5 163 9 C 163 9 163 8.3 163 8.3 C 163.6 8.9 164.3 9.2 165.2 9.2 C 166.2 9.2 166.8 8.7 166.8 7.9 C 166.8 7.2 166.1 6.9 165.1 6.5 C 164 6.2 163.1 5.9 163.1 4.8 C 163.1 3.8 164 3.1 165.2 3.1 C 165.9 3.1 166.5 3.3 167 3.7 Z M 171.7 6.4 C 171.7 4.4 173.1 3.1 174.6 3.1 C 175.6 3.1 176.6 3.7 177 4.8 C 177.05 4.78 177 0.1 177 0.1 L 177.6 0.1 L 177.6 9.6 L 177.2 9.6 L 177.1 8 C 177.1 8 177.07 7.99 177.1 8 C 176.6 9.2 175.6 9.7 174.6 9.7 C 173.1 9.7 171.7 8.4 171.7 6.4 Z M 177.1 6.4 C 177.1 4.7 175.9 3.6 174.6 3.6 C 173.3 3.6 172.2 4.7 172.2 6.4 C 172.2 8.1 173.3 9.2 174.6 9.2 C 175.9 9.2 177.1 8.1 177.1 6.4 Z M 184.9 6.6 C 184.9 6.6 179.9 6.6 179.9 6.6 C 180 8.2 181 9.2 182.4 9.2 C 183.2 9.2 184 9 184.7 8.3 C 184.7 8.3 184.7 8.9 184.7 8.9 C 184 9.4 183.3 9.7 182.4 9.7 C 180.6 9.7 179.4 8.4 179.4 6.4 C 179.4 4.4 180.8 3.1 182.3 3.1 C 183.8 3.1 185 4.2 185 6.3 C 185 6.4 185 6.5 184.9 6.6 Z M 184.5 6.1 C 184.4 4.4 183.4 3.6 182.3 3.6 C 181.1 3.6 180 4.6 179.9 6.1 C 179.9 6.1 184.5 6.1 184.5 6.1 Z M 192.4 9.2 C 192.9 9.2 193.6 9.1 194.1 8.7 C 194.1 8.7 194.1 9.3 194.1 9.3 C 193.6 9.6 193 9.7 192.4 9.7 C 190.7 9.7 189.3 8.3 189.3 6.4 C 189.3 4.5 190.7 3.1 192.4 3.1 C 193 3.1 193.6 3.2 194.1 3.6 C 194.1 3.6 194.1 4.1 194.1 4.1 C 193.6 3.7 193 3.6 192.4 3.6 C 191.1 3.6 189.8 4.7 189.8 6.4 C 189.8 8.1 191.1 9.2 192.4 9.2 Z M 195.3 6.4 C 195.3 4.4 196.7 3.1 198.2 3.1 C 199.2 3.1 200.2 3.7 200.7 4.8 C 200.71 4.82 200.8 3.2 200.8 3.2 L 201.2 3.2 L 201.2 9.6 L 200.8 9.6 C 200.8 9.6 200.71 8 200.7 8 C 200.2 9.2 199.2 9.7 198.2 9.7 C 196.7 9.7 195.3 8.4 195.3 6.4 Z M 200.7 6.4 C 200.7 4.7 199.6 3.6 198.2 3.6 C 196.9 3.6 195.8 4.7 195.8 6.4 C 195.8 8.1 196.9 9.2 198.3 9.2 C 199.6 9.2 200.7 8.1 200.7 6.4 Z M 204 4.8 C 204.4 3.7 205.4 3.1 206.4 3.1 C 207.9 3.1 209.3 4.4 209.3 6.4 C 209.3 8.4 207.9 9.7 206.4 9.7 C 205.4 9.7 204.4 9.2 203.9 8 C 203.92 7.99 203.8 9.6 203.8 9.6 L 203.5 9.6 L 203.5 0.1 L 204 0.1 C 204 0.1 203.96 4.79 204 4.8 Z M 203.9 6.4 C 203.9 8.1 205.1 9.2 206.4 9.2 C 207.7 9.2 208.8 8.1 208.8 6.4 C 208.8 4.7 207.7 3.6 206.4 3.6 C 205.1 3.6 203.9 4.7 203.9 6.4 Z M 211.1 0.9 C 211.1 0.7 211.2 0.5 211.5 0.5 C 211.7 0.5 211.9 0.7 211.9 0.9 C 211.9 1.1 211.7 1.3 211.5 1.3 C 211.2 1.3 211.1 1.1 211.1 0.9 Z M 211.2 3.2 L 211.7 3.2 L 211.7 9.6 L 211.2 9.6 L 211.2 3.2 Z M 218.8 5.4 C 218.81 5.36 218.8 9.6 218.8 9.6 L 218.3 9.6 C 218.3 9.6 218.31 5.57 218.3 5.6 C 218.3 4.3 217.6 3.6 216.5 3.6 C 215.4 3.6 214.5 4.3 214.5 5.5 C 214.53 5.51 214.5 9.6 214.5 9.6 L 214 9.6 L 214 3.2 L 214.4 3.2 L 214.5 4.4 C 214.5 4.4 214.49 4.36 214.5 4.4 C 214.8 3.6 215.6 3.1 216.6 3.1 C 217.9 3.1 218.8 4 218.8 5.4 Z M 226.1 6.6 C 226.1 6.6 221.1 6.6 221.1 6.6 C 221.2 8.2 222.2 9.2 223.6 9.2 C 224.4 9.2 225.2 9 225.9 8.3 C 225.9 8.3 225.9 8.9 225.9 8.9 C 225.2 9.4 224.4 9.7 223.6 9.7 C 221.8 9.7 220.6 8.4 220.6 6.4 C 220.6 4.4 222 3.1 223.5 3.1 C 224.9 3.1 226.1 4.2 226.1 6.3 C 226.1 6.4 226.1 6.5 226.1 6.6 Z M 225.6 6.1 C 225.6 4.4 224.6 3.6 223.5 3.6 C 222.3 3.6 221.2 4.6 221.1 6.1 C 221.1 6.1 225.6 6.1 225.6 6.1 Z M 234.5 3.7 C 234.5 3.7 234.5 4.2 234.5 4.2 C 234 3.9 233.4 3.6 232.7 3.6 C 231.7 3.6 231.1 4.1 231.1 4.8 C 231.1 5.5 231.8 5.8 232.8 6.1 C 233.8 6.5 234.8 6.8 234.8 7.9 C 234.8 9 234 9.7 232.7 9.7 C 231.9 9.7 231.1 9.5 230.5 9 C 230.5 9 230.5 8.3 230.5 8.3 C 231.1 8.9 231.8 9.2 232.7 9.2 C 233.7 9.2 234.3 8.7 234.3 7.9 C 234.3 7.2 233.6 6.9 232.6 6.5 C 231.5 6.2 230.6 5.9 230.6 4.8 C 230.6 3.8 231.5 3.1 232.7 3.1 C 233.4 3.1 234 3.3 234.5 3.7 Z M 236.1 6.4 C 236.1 4.5 237.5 3.1 239.2 3.1 C 240.8 3.1 242.2 4.5 242.2 6.4 C 242.2 8.4 240.8 9.7 239.2 9.7 C 237.5 9.7 236.1 8.4 236.1 6.4 Z M 241.7 6.4 C 241.7 4.6 240.5 3.6 239.2 3.6 C 237.9 3.6 236.6 4.6 236.6 6.4 C 236.6 8.2 237.9 9.2 239.2 9.2 C 240.5 9.2 241.7 8.2 241.7 6.4 Z M 248.8 5.4 C 248.82 5.36 248.8 9.6 248.8 9.6 L 248.3 9.6 C 248.3 9.6 248.32 5.57 248.3 5.6 C 248.3 4.3 247.7 3.6 246.5 3.6 C 245.4 3.6 244.5 4.3 244.5 5.5 C 244.53 5.51 244.5 9.6 244.5 9.6 L 244 9.6 L 244 3.2 L 244.4 3.2 L 244.5 4.4 C 244.5 4.4 244.5 4.36 244.5 4.4 C 244.8 3.6 245.6 3.1 246.6 3.1 C 247.9 3.1 248.8 4 248.8 5.4 Z M 251.6 3.2 L 253.5 3.2 L 253.5 3.7 L 251.6 3.7 C 251.6 3.7 251.64 7.6 251.6 7.6 C 251.6 8.8 252.3 9.2 253.2 9.2 C 253.4 9.2 253.5 9.2 253.7 9.2 C 253.7 9.2 253.7 9.6 253.7 9.6 C 253.6 9.6 253.4 9.7 253.1 9.7 C 252 9.7 251.1 9 251.1 7.6 C 251.14 7.62 251.1 3.7 251.1 3.7 L 250.2 3.7 L 250.2 3.2 L 251.1 3.2 L 251.1 1.7 L 251.6 1.7 L 251.6 3.2 Z M 261.6 3.7 C 261.6 3.7 261.6 4.2 261.6 4.2 C 261.1 3.9 260.5 3.6 259.7 3.6 C 258.8 3.6 258.2 4.1 258.2 4.8 C 258.2 5.5 258.8 5.8 259.9 6.1 C 260.9 6.5 261.9 6.8 261.9 7.9 C 261.9 9 261 9.7 259.7 9.7 C 259 9.7 258.2 9.5 257.6 9 C 257.6 9 257.6 8.3 257.6 8.3 C 258.1 8.9 258.9 9.2 259.7 9.2 C 260.7 9.2 261.4 8.7 261.4 7.9 C 261.4 7.2 260.7 6.9 259.6 6.5 C 258.6 6.2 257.7 5.9 257.7 4.8 C 257.7 3.8 258.5 3.1 259.8 3.1 C 260.4 3.1 261.1 3.3 261.6 3.7 Z M 263.2 6.4 C 263.2 4.5 264.5 3.1 266.2 3.1 C 267.9 3.1 269.3 4.5 269.3 6.4 C 269.3 8.4 267.9 9.7 266.2 9.7 C 264.6 9.7 263.2 8.4 263.2 6.4 Z M 268.8 6.4 C 268.8 4.6 267.5 3.6 266.2 3.6 C 264.9 3.6 263.7 4.6 263.7 6.4 C 263.7 8.2 264.9 9.2 266.2 9.2 C 267.5 9.2 268.8 8.2 268.8 6.4 Z M 278.8 5.3 C 278.81 5.28 278.8 9.6 278.8 9.6 L 278.3 9.6 C 278.3 9.6 278.31 5.33 278.3 5.3 C 278.3 4.3 277.8 3.6 276.8 3.6 C 275.8 3.6 275.2 4.4 275.2 5.3 C 275.2 5.34 275.2 9.6 275.2 9.6 L 274.7 9.6 C 274.7 9.6 274.7 5.33 274.7 5.3 C 274.7 4.3 274.2 3.6 273.2 3.6 C 272.2 3.6 271.6 4.4 271.6 5.4 C 271.59 5.36 271.6 9.6 271.6 9.6 L 271.1 9.6 L 271.1 3.2 L 271.5 3.2 L 271.5 4.3 C 271.5 4.3 271.55 4.28 271.6 4.3 C 271.8 3.6 272.5 3.1 273.3 3.1 C 274.2 3.1 274.8 3.6 275 4.4 C 275.3 3.6 276 3.1 276.9 3.1 C 278.2 3.1 278.8 4 278.8 5.3 Z M 281.5 4.8 C 282 3.7 283 3.1 284 3.1 C 285.5 3.1 286.9 4.4 286.9 6.4 C 286.9 8.4 285.5 9.7 284 9.7 C 283 9.7 282 9.2 281.5 8 C 281.49 7.99 281.4 9.6 281.4 9.6 L 281 9.6 L 281 0.1 L 281.5 0.1 C 281.5 0.1 281.52 4.79 281.5 4.8 Z M 281.5 6.4 C 281.5 8.1 282.6 9.2 283.9 9.2 C 285.3 9.2 286.4 8.1 286.4 6.4 C 286.4 4.7 285.3 3.6 284 3.6 C 282.6 3.6 281.5 4.7 281.5 6.4 Z M 288.7 3.2 L 289.1 3.2 L 289.2 4.4 C 289.2 4.4 289.2 4.42 289.2 4.4 C 289.6 3.5 290.4 3.2 291.1 3.2 C 291.2 3.2 291.4 3.2 291.5 3.2 C 291.5 3.2 291.5 3.7 291.5 3.7 C 291.4 3.7 291.2 3.7 291.1 3.7 C 290.2 3.7 289.3 4.3 289.2 5.6 C 289.24 5.57 289.2 9.6 289.2 9.6 L 288.7 9.6 L 288.7 3.2 Z M 297.6 6.6 C 297.6 6.6 292.6 6.6 292.6 6.6 C 292.6 8.2 293.7 9.2 295.1 9.2 C 295.9 9.2 296.7 9 297.4 8.3 C 297.4 8.3 297.4 8.9 297.4 8.9 C 296.7 9.4 295.9 9.7 295.1 9.7 C 293.3 9.7 292 8.4 292 6.4 C 292 4.4 293.5 3.1 295 3.1 C 296.4 3.1 297.6 4.2 297.6 6.3 C 297.6 6.4 297.6 6.5 297.6 6.6 Z M 297.1 6.1 C 297.1 4.4 296.1 3.6 295 3.6 C 293.8 3.6 292.7 4.6 292.6 6.1 C 292.6 6.1 297.1 6.1 297.1 6.1 Z M 303 3.7 C 303 3.7 303 4.2 303 4.2 C 302.5 3.9 301.9 3.6 301.2 3.6 C 300.2 3.6 299.6 4.1 299.6 4.8 C 299.6 5.5 300.3 5.8 301.3 6.1 C 302.3 6.5 303.3 6.8 303.3 7.9 C 303.3 9 302.4 9.7 301.1 9.7 C 300.4 9.7 299.6 9.5 299 9 C 299 9 299 8.3 299 8.3 C 299.5 8.9 300.3 9.2 301.1 9.2 C 302.1 9.2 302.8 8.7 302.8 7.9 C 302.8 7.2 302.1 6.9 301 6.5 C 300 6.2 299.1 5.9 299.1 4.8 C 299.1 3.8 299.9 3.1 301.2 3.1 C 301.8 3.1 302.5 3.3 303 3.7 Z M 313.2 6.6 C 313.2 6.6 308.1 6.6 308.1 6.6 C 308.2 8.2 309.2 9.2 310.7 9.2 C 311.4 9.2 312.3 9 312.9 8.3 C 312.9 8.3 312.9 8.9 312.9 8.9 C 312.3 9.4 311.5 9.7 310.7 9.7 C 308.9 9.7 307.6 8.4 307.6 6.4 C 307.6 4.4 309 3.1 310.6 3.1 C 312 3.1 313.2 4.2 313.2 6.3 C 313.2 6.4 313.2 6.5 313.2 6.6 Z M 312.7 6.1 C 312.7 4.4 311.7 3.6 310.6 3.6 C 309.4 3.6 308.2 4.6 308.1 6.1 C 308.1 6.1 312.7 6.1 312.7 6.1 Z M 315.6 3.2 L 317.5 3.2 L 317.5 3.7 L 315.6 3.7 C 315.6 3.7 315.62 7.6 315.6 7.6 C 315.6 8.8 316.3 9.2 317.2 9.2 C 317.3 9.2 317.5 9.2 317.7 9.2 C 317.7 9.2 317.7 9.6 317.7 9.6 C 317.6 9.6 317.4 9.7 317.1 9.7 C 315.9 9.7 315.1 9 315.1 7.6 C 315.12 7.62 315.1 3.7 315.1 3.7 L 314.1 3.7 L 314.1 3.2 L 315.1 3.2 L 315.1 1.7 L 315.6 1.7 L 315.6 3.2 Z M 322 3.2 L 322.4 3.2 C 322.4 3.2 322.47 4.84 322.5 4.8 C 322.9 3.7 324 3.1 325 3.1 C 326.5 3.1 327.9 4.4 327.9 6.4 C 327.9 8.4 326.5 9.7 325 9.7 C 324 9.7 322.9 9.1 322.5 8.1 C 322.5 8.05 322.5 12.2 322.5 12.2 L 322 12.2 L 322 3.2 Z M 327.4 6.4 C 327.4 4.7 326.3 3.6 324.9 3.6 C 323.6 3.6 322.5 4.7 322.5 6.4 C 322.5 8.1 323.6 9.2 324.9 9.2 C 326.3 9.2 327.4 8.1 327.4 6.4 Z M 334.8 6.6 C 334.8 6.6 329.8 6.6 329.8 6.6 C 329.9 8.2 330.9 9.2 332.3 9.2 C 333.1 9.2 333.9 9 334.6 8.3 C 334.6 8.3 334.6 8.9 334.6 8.9 C 333.9 9.4 333.1 9.7 332.3 9.7 C 330.5 9.7 329.3 8.4 329.3 6.4 C 329.3 4.4 330.7 3.1 332.2 3.1 C 333.6 3.1 334.9 4.2 334.9 6.3 C 334.9 6.4 334.8 6.5 334.8 6.6 Z M 334.4 6.1 C 334.3 4.4 333.3 3.6 332.2 3.6 C 331 3.6 329.9 4.6 329.8 6.1 C 329.8 6.1 334.4 6.1 334.4 6.1 Z M 336.6 7.3 C 336.57 7.28 336.6 3.2 336.6 3.2 L 337.1 3.2 C 337.1 3.2 337.07 7.31 337.1 7.3 C 337.1 8.5 337.8 9.2 339 9.2 C 340.1 9.2 340.9 8.5 340.9 7.3 C 340.87 7.3 340.9 3.2 340.9 3.2 L 341.4 3.2 C 341.4 3.2 341.37 7.27 341.4 7.3 C 341.4 8.7 340.4 9.7 339 9.7 C 337.5 9.7 336.6 8.7 336.6 7.3 Z " stroke="none" fill="#000"/>
  </g>
</svg>