<?xml version="1.0" standalone="no"?>
<!DOCTYPE svg PUBLIC "-//W3C//DTD SVG 1.1//EN" "http://www.w3.org/Graphics/SVG/1.1/DTD/svg11.dtd">
<svg xmlns="http://www.w3.org/2000/svg" version="1.1" width="305.4px" height="93.1px" viewBox="0 0 305.4 93.1">
  <desc>M MOIRE</desc>
  <defs/>
  <g id="Polygon23002">
    <path d="M 2.1 18.7 L 9.2 18.7 L 13.4 48.4 L 13.9 48.4 L 18.1 18.7 L 25.3 18.7 L 25.3 50 L 21.8 50 L 21.8 20.3 L 21.2 20.3 L 17 50 L 10.3 50 L 6.1 20.3 L 5.5 20.3 L 5.5 50 L 2.1 50 L 2.1 18.7 Z M 31.5 18.7 L 50.4 18.7 L 50.4 22.2 L 35.3 22.2 L 35.3 32.6 L 50.2 32.6 L 50.2 36.1 L 35.3 36.1 L 35.3 46.5 L 50.7 46.5 L 50.7 50 L 31.5 50 L 31.5 18.7 Z M 46.7 10.2 L 43 15.4 L 39.8 15.4 L 42.7 10.2 L 46.7 10.2 Z M 56.7 18.7 L 63.8 18.7 L 68 48.4 L 68.5 48.4 L 72.7 18.7 L 79.9 18.7 L 79.9 50 L 76.4 50 L 76.4 20.3 L 75.9 20.3 L 71.7 50 L 64.9 50 L 60.7 20.3 L 60.2 20.3 L 60.2 50 L 56.7 50 L 56.7 18.7 Z M 84.6 30.9 C 84.6 26.8 85.6 23.7 87.5 21.5 C 89.4 19.2 92.1 18.1 95.6 18.1 C 99 18.1 101.7 19.2 103.7 21.5 C 105.6 23.7 106.6 26.8 106.6 30.9 C 106.6 30.9 106.6 37.8 106.6 37.8 C 106.6 42 105.6 45.2 103.7 47.3 C 101.7 49.5 99 50.6 95.6 50.6 C 92.1 50.6 89.4 49.5 87.5 47.3 C 85.6 45.2 84.6 42 84.6 37.8 C 84.6 37.8 84.6 30.9 84.6 30.9 Z M 95.6 47.1 C 98 47.1 99.8 46.3 101 44.6 C 102.2 43 102.8 40.6 102.8 37.6 C 102.8 37.6 102.8 31.1 102.8 31.1 C 102.8 28.3 102.2 26 101 24.2 C 99.8 22.5 98 21.6 95.6 21.6 C 93.2 21.6 91.4 22.5 90.2 24.2 C 89 26 88.4 28.3 88.4 31.1 C 88.4 31.1 88.4 37.6 88.4 37.6 C 88.4 40.6 89 43 90.2 44.6 C 91.4 46.3 93.2 47.1 95.6 47.1 Z M 113 18.7 L 132.8 18.7 L 132.8 22.2 L 124.8 22.2 L 124.8 46.5 L 132.8 46.5 L 132.8 50 L 113 50 L 113 46.5 L 121 46.5 L 121 22.2 L 113 22.2 L 113 18.7 Z M 160 50 L 156.2 50 C 156.2 50 156.23 39.54 156.2 39.5 C 156.2 38.8 156.1 38.2 155.7 37.8 C 155.3 37.3 154.7 37.1 153.8 37.1 C 153.82 37.13 144.1 37.1 144.1 37.1 L 144.1 50 L 140.3 50 L 140.3 18.7 C 140.3 18.7 151.5 18.74 151.5 18.7 C 153.1 18.7 154.5 19 155.7 19.4 C 156.9 19.9 157.9 20.5 158.7 21.3 C 159.5 22.1 160 23 160.4 24 C 160.9 25 161.1 26.1 161.1 27.2 C 161.1 27.2 161.1 28.6 161.1 28.6 C 161.1 29.7 160.7 30.9 160.1 32 C 159.5 33.2 158.5 34.1 157.1 34.7 C 157.1 34.7 157.1 35.3 157.1 35.3 C 158 35.4 158.7 35.8 159.2 36.3 C 159.7 36.9 160 37.7 160 38.7 C 159.98 38.73 160 50 160 50 Z M 144.1 33.6 C 144.1 33.6 151.06 33.65 151.1 33.6 C 153.2 33.6 154.7 33.2 155.8 32.3 C 156.8 31.4 157.3 30 157.3 28.3 C 157.3 28.3 157.3 27.5 157.3 27.5 C 157.3 25.9 156.8 24.6 155.8 23.7 C 154.7 22.7 153.2 22.2 151.1 22.2 C 151.06 22.22 144.1 22.2 144.1 22.2 L 144.1 33.6 Z M 168.1 18.7 L 187 18.7 L 187 22.2 L 171.8 22.2 L 171.8 32.6 L 186.7 32.6 L 186.7 36.1 L 171.8 36.1 L 171.8 46.5 L 187.2 46.5 L 187.2 50 L 168.1 50 L 168.1 18.7 Z " stroke="none" fill="#000"/>
  </g>
</svg>