<?xml version="1.0" standalone="no"?>
<!DOCTYPE svg PUBLIC "-//W3C//DTD SVG 1.1//EN" "http://www.w3.org/Graphics/SVG/1.1/DTD/svg11.dtd">
<svg xmlns="http://www.w3.org/2000/svg" version="1.1" width="27px" height="14.5px" viewBox="0 0 27 14.5">
  <desc>22 22</desc>
  <defs/>
  <g id="Polygon31505">
    <path d="M 3.1 2.1 C 3.1 1.5 2.7 1 2 1 C 1.4 1 0.9 1.3 0.6 1.7 C 0.6 1.7 0.6 0.9 0.6 0.9 C 0.9 0.6 1.5 0.3 2.1 0.3 C 3.2 0.3 3.9 1.1 3.9 2.1 C 3.9 3 3.1 3.9 1.7 5.5 C 1.67 5.47 4.1 5.5 4.1 5.5 L 4.1 6.1 C 4.1 6.1 0.28 6.14 0.3 6.1 C 2.8 3.3 3.1 2.8 3.1 2.1 Z M 7.6 2.1 C 7.6 1.5 7.3 1 6.5 1 C 5.9 1 5.4 1.3 5.1 1.7 C 5.1 1.7 5.1 0.9 5.1 0.9 C 5.4 0.6 6 0.3 6.6 0.3 C 7.7 0.3 8.4 1.1 8.4 2.1 C 8.4 3 7.6 3.9 6.2 5.5 C 6.18 5.47 8.6 5.5 8.6 5.5 L 8.6 6.1 C 8.6 6.1 4.79 6.14 4.8 6.1 C 7.3 3.3 7.6 2.8 7.6 2.1 Z M 11.8 -0.6 L 12.5 -0.6 L 10 7.2 L 9.3 7.2 L 11.8 -0.6 Z M 15.9 2.1 C 15.9 1.5 15.5 1 14.8 1 C 14.2 1 13.7 1.3 13.4 1.7 C 13.4 1.7 13.4 0.9 13.4 0.9 C 13.7 0.6 14.3 0.3 14.9 0.3 C 16 0.3 16.7 1.1 16.7 2.1 C 16.7 3 15.9 3.9 14.5 5.5 C 14.47 5.47 16.9 5.5 16.9 5.5 L 16.9 6.1 C 16.9 6.1 13.08 6.14 13.1 6.1 C 15.6 3.3 15.9 2.8 15.9 2.1 Z M 20.4 2.1 C 20.4 1.5 20 1 19.3 1 C 18.7 1 18.2 1.3 17.9 1.7 C 17.9 1.7 17.9 0.9 17.9 0.9 C 18.2 0.6 18.8 0.3 19.4 0.3 C 20.5 0.3 21.2 1.1 21.2 2.1 C 21.2 3 20.4 3.9 19 5.5 C 18.97 5.47 21.4 5.5 21.4 5.5 L 21.4 6.1 C 21.4 6.1 17.58 6.14 17.6 6.1 C 20.1 3.3 20.4 2.8 20.4 2.1 Z " stroke="none" fill="#000"/>
  </g>
</svg>