<?xml version="1.0" standalone="no"?>
<!DOCTYPE svg PUBLIC "-//W3C//DTD SVG 1.1//EN" "http://www.w3.org/Graphics/SVG/1.1/DTD/svg11.dtd">
<svg xmlns="http://www.w3.org/2000/svg" version="1.1" width="305.4px" height="93.1px" viewBox="0 0 305.4 93.1">
  <desc>CRESCENDO</desc>
  <defs/>
  <g id="Polygon24674">
    <path d="M 13.8 47.1 C 15.1 47.1 16.2 46.9 17.1 46.5 C 18 46 18.8 45.5 19.3 44.7 C 19.9 44 20.4 43.2 20.6 42.2 C 20.9 41.3 21.1 40.3 21.1 39.3 C 21.06 39.27 21.1 38.7 21.1 38.7 L 24.8 38.7 C 24.8 38.7 24.81 39.27 24.8 39.3 C 24.8 40.8 24.6 42.3 24.1 43.7 C 23.6 45.1 22.9 46.3 22 47.3 C 21.1 48.4 19.9 49.2 18.6 49.7 C 17.2 50.3 15.6 50.6 13.8 50.6 C 10.4 50.6 7.7 49.5 5.8 47.3 C 3.8 45.2 2.9 42 2.9 37.8 C 2.9 37.8 2.9 30.9 2.9 30.9 C 2.9 26.8 3.8 23.7 5.8 21.5 C 7.7 19.2 10.4 18.1 13.8 18.1 C 15.6 18.1 17.2 18.4 18.6 19 C 19.9 19.6 21.1 20.4 22 21.4 C 22.9 22.4 23.6 23.6 24.1 25 C 24.6 26.4 24.8 27.9 24.8 29.5 C 24.81 29.45 24.8 30 24.8 30 L 21.1 30 C 21.1 30 21.06 29.45 21.1 29.5 C 21 28.4 20.9 27.5 20.6 26.5 C 20.3 25.6 19.9 24.7 19.3 24 C 18.7 23.3 18 22.7 17.1 22.2 C 16.2 21.8 15.1 21.6 13.8 21.6 C 11.4 21.6 9.6 22.5 8.4 24.2 C 7.2 26 6.6 28.3 6.6 31.1 C 6.6 31.1 6.6 37.6 6.6 37.6 C 6.6 40.6 7.2 43 8.4 44.6 C 9.6 46.3 11.4 47.1 13.8 47.1 Z M 50.7 50 L 47 50 C 47 50 46.99 39.54 47 39.5 C 47 38.8 46.8 38.2 46.5 37.8 C 46.1 37.3 45.5 37.1 44.6 37.1 C 44.58 37.13 34.9 37.1 34.9 37.1 L 34.9 50 L 31.1 50 L 31.1 18.7 C 31.1 18.7 42.26 18.74 42.3 18.7 C 43.9 18.7 45.3 19 46.5 19.4 C 47.6 19.9 48.6 20.5 49.4 21.3 C 50.2 22.1 50.8 23 51.2 24 C 51.6 25 51.8 26.1 51.8 27.2 C 51.8 27.2 51.8 28.6 51.8 28.6 C 51.8 29.7 51.5 30.9 50.9 32 C 50.2 33.2 49.2 34.1 47.9 34.7 C 47.9 34.7 47.9 35.3 47.9 35.3 C 48.8 35.4 49.5 35.8 50 36.3 C 50.5 36.9 50.7 37.7 50.7 38.7 C 50.74 38.73 50.7 50 50.7 50 Z M 34.9 33.6 C 34.9 33.6 41.81 33.65 41.8 33.6 C 43.9 33.6 45.5 33.2 46.5 32.3 C 47.5 31.4 48.1 30 48.1 28.3 C 48.1 28.3 48.1 27.5 48.1 27.5 C 48.1 25.9 47.5 24.6 46.5 23.7 C 45.5 22.7 43.9 22.2 41.8 22.2 C 41.81 22.22 34.9 22.2 34.9 22.2 L 34.9 33.6 Z M 58.8 18.7 L 77.7 18.7 L 77.7 22.2 L 62.6 22.2 L 62.6 32.6 L 77.5 32.6 L 77.5 36.1 L 62.6 36.1 L 62.6 46.5 L 78 46.5 L 78 50 L 58.8 50 L 58.8 18.7 Z M 102.9 27.8 C 102.9 26.7 102.7 25.9 102.3 25.1 C 101.9 24.3 101.4 23.7 100.7 23.2 C 100 22.7 99.2 22.3 98.4 22 C 97.5 21.7 96.5 21.6 95.5 21.6 C 94.7 21.6 93.9 21.7 93.1 21.9 C 92.3 22.2 91.6 22.5 91 22.9 C 90.4 23.3 89.9 23.8 89.6 24.4 C 89.2 25 89 25.7 89 26.6 C 89 26.6 89 26.8 89 26.8 C 89 27.7 89.2 28.4 89.6 29 C 89.9 29.6 90.4 30.2 91.1 30.6 C 91.8 31 92.7 31.4 93.8 31.7 C 94.8 31.9 96 32.2 97.4 32.4 C 100.7 32.9 103.1 33.9 104.6 35.3 C 106.2 36.7 107 38.6 107 41 C 107 41 107 41.5 107 41.5 C 107 42.8 106.7 44.1 106.3 45.2 C 105.8 46.3 105.1 47.3 104.2 48.1 C 103.3 48.9 102.2 49.5 100.9 49.9 C 99.5 50.4 98 50.6 96.2 50.6 C 94.2 50.6 92.5 50.3 90.9 49.7 C 89.4 49.2 88.1 48.4 87.1 47.3 C 86.1 46.3 85.3 45.1 84.7 43.7 C 84.2 42.3 83.9 40.8 83.9 39.2 C 83.94 39.18 83.9 37.8 83.9 37.8 L 87.7 37.8 C 87.7 37.8 87.69 38.91 87.7 38.9 C 87.7 41.7 88.4 43.7 89.9 45.1 C 91.4 46.4 93.5 47.1 96.2 47.1 C 98.5 47.1 100.3 46.6 101.5 45.6 C 102.6 44.6 103.2 43.2 103.2 41.5 C 103.2 41.5 103.2 41.2 103.2 41.2 C 103.2 39.6 102.6 38.3 101.4 37.5 C 100.2 36.6 98.2 36 95.5 35.6 C 94 35.4 92.5 35.1 91.3 34.7 C 90 34.2 88.9 33.7 88 33 C 87.2 32.3 86.5 31.4 86 30.4 C 85.5 29.5 85.3 28.3 85.3 27 C 85.3 27 85.3 26.4 85.3 26.4 C 85.3 25.2 85.5 24.1 86 23.1 C 86.5 22.1 87.2 21.2 88.2 20.4 C 89.1 19.7 90.1 19.1 91.4 18.7 C 92.7 18.3 94.1 18.1 95.6 18.1 C 97.3 18.1 98.9 18.4 100.3 18.9 C 101.7 19.4 102.8 20.1 103.8 20.9 C 104.7 21.8 105.5 22.8 106 23.9 C 106.5 25 106.7 26.2 106.7 27.5 C 106.7 27.49 106.7 29.4 106.7 29.4 L 102.9 29.4 C 102.9 29.4 102.95 27.76 102.9 27.8 Z M 123.1 47.1 C 124.4 47.1 125.4 46.9 126.4 46.5 C 127.3 46 128 45.5 128.6 44.7 C 129.2 44 129.6 43.2 129.9 42.2 C 130.2 41.3 130.3 40.3 130.3 39.3 C 130.3 39.27 130.3 38.7 130.3 38.7 L 134.1 38.7 C 134.1 38.7 134.05 39.27 134.1 39.3 C 134.1 40.8 133.8 42.3 133.3 43.7 C 132.9 45.1 132.2 46.3 131.2 47.3 C 130.3 48.4 129.2 49.2 127.8 49.7 C 126.4 50.3 124.9 50.6 123.1 50.6 C 119.6 50.6 116.9 49.5 115 47.3 C 113.1 45.2 112.1 42 112.1 37.8 C 112.1 37.8 112.1 30.9 112.1 30.9 C 112.1 26.8 113.1 23.7 115 21.5 C 116.9 19.2 119.6 18.1 123.1 18.1 C 124.9 18.1 126.4 18.4 127.8 19 C 129.2 19.6 130.3 20.4 131.2 21.4 C 132.2 22.4 132.9 23.6 133.3 25 C 133.8 26.4 134.1 27.9 134.1 29.5 C 134.05 29.45 134.1 30 134.1 30 L 130.3 30 C 130.3 30 130.3 29.45 130.3 29.5 C 130.3 28.4 130.1 27.5 129.8 26.5 C 129.6 25.6 129.1 24.7 128.5 24 C 128 23.3 127.2 22.7 126.3 22.2 C 125.4 21.8 124.4 21.6 123.1 21.6 C 120.7 21.6 118.9 22.5 117.7 24.2 C 116.4 26 115.8 28.3 115.8 31.1 C 115.8 31.1 115.8 37.6 115.8 37.6 C 115.8 40.6 116.4 43 117.7 44.6 C 118.9 46.3 120.7 47.1 123.1 47.1 Z M 140.7 18.7 L 159.7 18.7 L 159.7 22.2 L 144.5 22.2 L 144.5 32.6 L 159.4 32.6 L 159.4 36.1 L 144.5 36.1 L 144.5 46.5 L 159.9 46.5 L 159.9 50 L 140.7 50 L 140.7 18.7 Z M 183.6 48.4 L 184.2 48.4 L 184.2 18.7 L 187.9 18.7 L 187.9 50 L 180.4 50 L 171.4 20.3 L 170.9 20.3 L 170.9 50 L 167.1 50 L 167.1 18.7 L 174.6 18.7 L 183.6 48.4 Z M 194.4 18.7 C 194.4 18.7 204.69 18.74 204.7 18.7 C 208.6 18.7 211.4 19.7 213.2 21.5 C 215 23.4 215.9 26.3 215.9 30.3 C 215.9 30.3 215.9 38.4 215.9 38.4 C 215.9 42.4 215 45.4 213.2 47.2 C 211.4 49.1 208.6 50 204.7 50 C 204.69 49.98 194.4 50 194.4 50 L 194.4 46.5 L 197.1 46.5 L 197.1 22.2 L 194.4 22.2 L 194.4 18.7 Z M 204.2 46.5 C 205.5 46.5 206.7 46.4 207.7 46.1 C 208.7 45.8 209.5 45.4 210.2 44.7 C 210.8 44.1 211.3 43.2 211.6 42.2 C 211.9 41.1 212.1 39.7 212.1 38.1 C 212.1 38.1 212.1 30.6 212.1 30.6 C 212.1 29 211.9 27.6 211.6 26.6 C 211.3 25.5 210.8 24.6 210.2 24 C 209.5 23.3 208.7 22.9 207.7 22.6 C 206.7 22.4 205.5 22.2 204.2 22.2 C 204.16 22.22 200.9 22.2 200.9 22.2 L 200.9 46.5 C 200.9 46.5 204.16 46.5 204.2 46.5 Z M 221.2 30.9 C 221.2 26.8 222.1 23.7 224.1 21.5 C 226 19.2 228.7 18.1 232.1 18.1 C 235.6 18.1 238.3 19.2 240.2 21.5 C 242.1 23.7 243.1 26.8 243.1 30.9 C 243.1 30.9 243.1 37.8 243.1 37.8 C 243.1 42 242.1 45.2 240.2 47.3 C 238.3 49.5 235.6 50.6 232.1 50.6 C 228.7 50.6 226 49.5 224.1 47.3 C 222.1 45.2 221.2 42 221.2 37.8 C 221.2 37.8 221.2 30.9 221.2 30.9 Z M 232.1 47.1 C 234.5 47.1 236.4 46.3 237.6 44.6 C 238.8 43 239.4 40.6 239.4 37.6 C 239.4 37.6 239.4 31.1 239.4 31.1 C 239.4 28.3 238.8 26 237.6 24.2 C 236.4 22.5 234.5 21.6 232.1 21.6 C 229.7 21.6 227.9 22.5 226.7 24.2 C 225.5 26 224.9 28.3 224.9 31.1 C 224.9 31.1 224.9 37.6 224.9 37.6 C 224.9 40.6 225.5 43 226.7 44.6 C 227.9 46.3 229.7 47.1 232.1 47.1 Z " stroke="none" fill="#000"/>
  </g>
</svg>