<?xml version="1.0" standalone="no"?>
<!DOCTYPE svg PUBLIC "-//W3C//DTD SVG 1.1//EN" "http://www.w3.org/Graphics/SVG/1.1/DTD/svg11.dtd">
<svg xmlns="http://www.w3.org/2000/svg" version="1.1" width="301.3px" height="120.4px" viewBox="0 0 301.3 120.4">
  <desc>En r fl chissant aux besoins li s au t l travail, ce bureau pose la fronti re du milieu professionel dans l habitat</desc>
  <defs/>
  <g id="Polygon29520">
    <path d="M 4.5 94.4 C 4.5 95.3 3.8 96 2.6 96 C 2.55 96 0.9 96 0.9 96 L 0.9 90.1 C 0.9 90.1 2.46 90.06 2.5 90.1 C 3.6 90.1 4.3 90.7 4.3 91.6 C 4.3 92.3 3.9 92.8 3.3 92.9 C 4.1 93.1 4.5 93.7 4.5 94.4 Z M 1.3 92.8 C 1.3 92.8 2.51 92.79 2.5 92.8 C 3.5 92.8 3.9 92.2 3.9 91.6 C 3.9 90.8 3.4 90.4 2.5 90.4 C 2.52 90.38 1.3 90.4 1.3 90.4 L 1.3 92.8 Z M 4.2 94.4 C 4.2 93.6 3.6 93.1 2.6 93.1 C 2.59 93.12 1.3 93.1 1.3 93.1 L 1.3 95.7 C 1.3 95.7 2.56 95.68 2.6 95.7 C 3.6 95.7 4.2 95.1 4.2 94.4 Z M 7 90.4 L 5 90.4 L 5 90.1 L 9.3 90.1 L 9.3 90.4 L 7.4 90.4 L 7.4 96 L 7 96 L 7 90.4 Z M 13.2 90.4 C 13.2 90.4 13.2 90.8 13.2 90.8 C 12.8 90.4 12.2 90.3 11.8 90.3 C 11.1 90.3 10.5 90.7 10.5 91.4 C 10.5 92.1 11 92.4 11.9 92.8 C 12.7 93.2 13.4 93.6 13.4 94.5 C 13.4 95.5 12.6 96.1 11.6 96.1 C 11 96.1 10.4 95.8 10 95.5 C 10 95.5 10 95.1 10 95.1 C 10.4 95.5 11 95.8 11.6 95.8 C 12.4 95.8 13.1 95.3 13.1 94.5 C 13.1 93.8 12.5 93.5 11.7 93.1 C 10.8 92.7 10.1 92.3 10.1 91.4 C 10.1 90.5 10.9 90 11.8 90 C 12.3 90 12.8 90.1 13.2 90.4 Z M 16.8 95.7 C 16.8 95.5 16.9 95.4 17.1 95.4 C 17.3 95.4 17.4 95.5 17.4 95.7 C 17.4 95.9 17.3 96 17.1 96 C 16.9 96 16.8 95.9 16.8 95.7 Z M 23.8 91.6 C 23.8 91 23.4 90.3 22.5 90.3 C 21.8 90.3 21.3 90.6 21 91 C 21 91 21 90.6 21 90.6 C 21.3 90.2 21.9 90 22.5 90 C 23.6 90 24.2 90.8 24.2 91.6 C 24.2 92.6 23.4 93.5 21.4 95.7 C 21.42 95.66 24.3 95.7 24.3 95.7 L 24.3 96 C 24.3 96 20.7 96 20.7 96 C 23.4 93 23.8 92.4 23.8 91.6 Z M 27.4 91 L 26.4 89.7 L 26.7 89.7 L 27.7 91 L 27.4 91 Z M 29 94 C 29 94 25.6 94 25.6 94 C 25.7 95.1 26.4 95.8 27.3 95.8 C 27.8 95.8 28.4 95.6 28.8 95.1 C 28.8 95.1 28.8 95.5 28.8 95.5 C 28.4 95.9 27.9 96.1 27.3 96.1 C 26.1 96.1 25.3 95.2 25.3 93.9 C 25.3 92.5 26.2 91.7 27.3 91.7 C 28.2 91.7 29 92.4 29 93.8 C 29 93.9 29 93.9 29 94 Z M 28.7 93.7 C 28.7 92.5 28 92 27.3 92 C 26.4 92 25.7 92.6 25.6 93.7 C 25.6 93.7 28.7 93.7 28.7 93.7 Z M 35.4 93.1 C 35.36 93.12 35.4 96 35.4 96 L 35 96 C 35 96 35.02 93.15 35 93.2 C 35 92.4 34.7 92 34 92 C 33.4 92 33 92.5 33 93.2 C 32.95 93.16 33 96 33 96 L 32.6 96 C 32.6 96 32.62 93.15 32.6 93.2 C 32.6 92.4 32.3 92 31.6 92 C 30.9 92 30.5 92.6 30.5 93.2 C 30.54 93.18 30.5 96 30.5 96 L 30.2 96 L 30.2 91.8 L 30.5 91.8 L 30.5 92.5 C 30.5 92.5 30.52 92.46 30.5 92.5 C 30.7 92 31.1 91.7 31.7 91.7 C 32.3 91.7 32.7 92 32.8 92.5 C 33 92 33.5 91.7 34.1 91.7 C 34.9 91.7 35.4 92.3 35.4 93.1 Z M 40.2 94 C 40.2 94 36.9 94 36.9 94 C 36.9 95.1 37.6 95.8 38.6 95.8 C 39.1 95.8 39.6 95.6 40.1 95.1 C 40.1 95.1 40.1 95.5 40.1 95.5 C 39.6 95.9 39.1 96.1 38.6 96.1 C 37.4 96.1 36.5 95.2 36.5 93.9 C 36.5 92.5 37.5 91.7 38.5 91.7 C 39.4 91.7 40.3 92.4 40.3 93.8 C 40.3 93.9 40.2 93.9 40.2 94 Z M 39.9 93.7 C 39.9 92.5 39.2 92 38.5 92 C 37.7 92 37 92.6 36.9 93.7 C 36.9 93.7 39.9 93.7 39.9 93.7 Z M 43.5 93.9 C 43.5 92.5 44.4 91.7 45.4 91.7 C 46.1 91.7 46.8 92.1 47.1 92.8 C 47.07 92.82 47.1 91.8 47.1 91.8 L 47.4 91.8 L 47.4 96 L 47.1 96 C 47.1 96 47.07 94.94 47.1 94.9 C 46.8 95.7 46.1 96.1 45.4 96.1 C 44.4 96.1 43.5 95.2 43.5 93.9 Z M 47.1 93.9 C 47.1 92.7 46.3 92 45.4 92 C 44.6 92 43.8 92.7 43.8 93.9 C 43.8 95 44.6 95.8 45.4 95.8 C 46.3 95.8 47.1 95 47.1 93.9 Z M 52.1 93.2 C 52.09 93.18 52.1 96 52.1 96 L 51.8 96 C 51.8 96 51.76 93.31 51.8 93.3 C 51.8 92.5 51.3 92 50.6 92 C 49.8 92 49.2 92.5 49.2 93.3 C 49.24 93.27 49.2 96 49.2 96 L 48.9 96 L 48.9 91.8 L 49.2 91.8 L 49.2 92.5 C 49.2 92.5 49.21 92.5 49.2 92.5 C 49.4 92 50 91.7 50.6 91.7 C 51.5 91.7 52.1 92.3 52.1 93.2 Z M 56.8 93.2 C 56.75 93.18 56.8 96 56.8 96 L 56.4 96 C 56.4 96 56.42 93.31 56.4 93.3 C 56.4 92.5 56 92 55.2 92 C 54.5 92 53.9 92.5 53.9 93.3 C 53.89 93.27 53.9 96 53.9 96 L 53.6 96 L 53.6 91.8 L 53.8 91.8 L 53.9 92.5 C 53.9 92.5 53.87 92.5 53.9 92.5 C 54.1 92 54.6 91.7 55.3 91.7 C 56.2 91.7 56.8 92.3 56.8 93.2 Z M 59.7 91 L 59.4 91 L 60.4 89.7 L 60.8 89.7 L 59.7 91 Z M 61.6 94 C 61.6 94 58.3 94 58.3 94 C 58.3 95.1 59 95.8 60 95.8 C 60.5 95.8 61 95.6 61.5 95.1 C 61.5 95.1 61.5 95.5 61.5 95.5 C 61 95.9 60.5 96.1 59.9 96.1 C 58.8 96.1 57.9 95.2 57.9 93.9 C 57.9 92.5 58.9 91.7 59.9 91.7 C 60.8 91.7 61.6 92.4 61.6 93.8 C 61.6 93.9 61.6 93.9 61.6 94 Z M 61.3 93.7 C 61.3 92.5 60.6 92 59.9 92 C 59.1 92 58.3 92.6 58.3 93.7 C 58.3 93.7 61.3 93.7 61.3 93.7 Z M 66.2 94 C 66.2 94 62.9 94 62.9 94 C 62.9 95.1 63.6 95.8 64.6 95.8 C 65.1 95.8 65.6 95.6 66.1 95.1 C 66.1 95.1 66.1 95.5 66.1 95.5 C 65.6 95.9 65.1 96.1 64.6 96.1 C 63.4 96.1 62.5 95.2 62.5 93.9 C 62.5 92.5 63.5 91.7 64.5 91.7 C 65.5 91.7 66.3 92.4 66.3 93.8 C 66.3 93.9 66.3 93.9 66.2 94 Z M 65.9 93.7 C 65.9 92.5 65.2 92 64.5 92 C 63.7 92 63 92.6 62.9 93.7 C 62.9 93.7 65.9 93.7 65.9 93.7 Z M 69.6 95.7 C 69.6 95.5 69.8 95.4 69.9 95.4 C 70.1 95.4 70.3 95.5 70.3 95.7 C 70.3 95.9 70.1 96 69.9 96 C 69.8 96 69.6 95.9 69.6 95.7 Z M 76.6 91.6 C 76.6 91 76.2 90.3 75.3 90.3 C 74.6 90.3 74.1 90.6 73.8 91 C 73.8 91 73.8 90.6 73.8 90.6 C 74.1 90.2 74.7 90 75.3 90 C 76.4 90 77 90.8 77 91.6 C 77 92.6 76.3 93.5 74.2 95.7 C 74.24 95.66 77.1 95.7 77.1 95.7 L 77.1 96 C 77.1 96 73.52 96 73.5 96 C 76.3 93 76.6 92.4 76.6 91.6 Z M 82.3 93 C 82.3 95 81.4 96.1 80.3 96.1 C 79.1 96.1 78.2 95 78.2 93 C 78.2 91.1 79.1 90 80.3 90 C 81.4 90 82.3 91.1 82.3 93 Z M 78.5 93 C 78.5 94.8 79.3 95.8 80.3 95.8 C 81.2 95.8 82 94.8 82 93 C 82 91.3 81.2 90.3 80.3 90.3 C 79.3 90.3 78.5 91.3 78.5 93 Z M 84.7 90.5 L 83.2 91.2 L 83.2 90.9 L 85 90 L 85.1 90 L 85.1 96 L 84.7 96 L 84.7 90.5 Z M 90.7 94.5 C 90.7 95.4 89.9 96.1 88.8 96.1 C 87.7 96.1 86.9 95.4 86.9 94.5 C 86.9 93.8 87.4 93.2 88.1 92.9 C 88.1 92.9 88.1 92.9 88.1 92.9 C 87.5 92.7 87.1 92.2 87.1 91.5 C 87.1 90.7 87.8 90 88.8 90 C 89.8 90 90.5 90.7 90.5 91.5 C 90.5 92.2 90.1 92.7 89.5 92.9 C 89.5 92.9 89.5 92.9 89.5 92.9 C 90.2 93.2 90.7 93.8 90.7 94.5 Z M 88.8 92.8 C 89.6 92.8 90.2 92.3 90.2 91.5 C 90.2 90.8 89.6 90.3 88.8 90.3 C 88 90.3 87.4 90.8 87.4 91.5 C 87.4 92.3 88 92.8 88.8 92.8 Z M 87.3 94.4 C 87.3 95.2 87.9 95.8 88.8 95.8 C 89.8 95.8 90.4 95.2 90.4 94.4 C 90.4 93.7 89.7 93.1 88.8 93.1 C 87.9 93.1 87.3 93.7 87.3 94.4 Z " stroke="none" fill="#000"/>
  </g>
  <g id="Polygon29519">
    <path d="M 5.9 63 C 5.93 62.96 5.9 67.2 5.9 67.2 L 5.4 67.2 C 5.4 67.2 5.42 63.17 5.4 63.2 C 5.4 61.9 4.8 61.2 3.6 61.2 C 2.5 61.2 1.6 61.9 1.6 63.1 C 1.64 63.11 1.6 67.2 1.6 67.2 L 1.1 67.2 L 1.1 60.8 L 1.5 60.8 L 1.6 62 C 1.6 62 1.61 61.96 1.6 62 C 2 61.2 2.7 60.7 3.7 60.7 C 5 60.7 5.9 61.6 5.9 63 Z M 8 58.5 C 8 58.3 8.2 58.1 8.4 58.1 C 8.7 58.1 8.8 58.3 8.8 58.5 C 8.8 58.7 8.7 58.9 8.4 58.9 C 8.2 58.9 8 58.7 8 58.5 Z M 8.2 60.8 L 8.7 60.8 L 8.7 67.2 L 8.2 67.2 L 8.2 60.8 Z M 14.5 61.3 C 14.5 61.3 14.5 61.8 14.5 61.8 C 14 61.5 13.4 61.2 12.7 61.2 C 11.8 61.2 11.1 61.7 11.1 62.4 C 11.1 63.1 11.8 63.4 12.8 63.7 C 13.8 64.1 14.8 64.4 14.8 65.5 C 14.8 66.6 14 67.3 12.7 67.3 C 11.9 67.3 11.2 67.1 10.5 66.6 C 10.5 66.6 10.5 65.9 10.5 65.9 C 11.1 66.5 11.8 66.8 12.7 66.8 C 13.7 66.8 14.3 66.3 14.3 65.5 C 14.3 64.8 13.6 64.5 12.6 64.1 C 11.5 63.8 10.6 63.5 10.6 62.4 C 10.6 61.4 11.5 60.7 12.7 60.7 C 13.4 60.7 14 60.9 14.5 61.3 Z M 16.1 64 C 16.1 62 17.5 60.7 19 60.7 C 20.1 60.7 21.1 61.3 21.6 62.4 C 21.55 62.42 21.6 60.8 21.6 60.8 L 22 60.8 L 22 67.2 L 21.6 67.2 C 21.6 67.2 21.55 65.6 21.6 65.6 C 21.1 66.8 20.1 67.3 19.1 67.3 C 17.5 67.3 16.1 66 16.1 64 Z M 21.5 64 C 21.5 62.3 20.4 61.2 19.1 61.2 C 17.8 61.2 16.6 62.3 16.6 64 C 16.6 65.7 17.8 66.8 19.1 66.8 C 20.4 66.8 21.5 65.7 21.5 64 Z M 25 60.8 L 26.9 60.8 L 26.9 61.3 L 25 61.3 C 25 61.3 24.98 65.2 25 65.2 C 25 66.4 25.6 66.8 26.5 66.8 C 26.7 66.8 26.9 66.8 27.1 66.8 C 27.1 66.8 27.1 67.2 27.1 67.2 C 27 67.2 26.7 67.3 26.5 67.3 C 25.3 67.3 24.5 66.6 24.5 65.2 C 24.48 65.22 24.5 61.3 24.5 61.3 L 23.5 61.3 L 23.5 60.8 L 24.5 60.8 L 24.5 59.3 L 25 59.3 L 25 60.8 Z M 28.3 58.5 C 28.3 58.3 28.5 58.1 28.7 58.1 C 28.9 58.1 29.1 58.3 29.1 58.5 C 29.1 58.7 28.9 58.9 28.7 58.9 C 28.5 58.9 28.3 58.7 28.3 58.5 Z M 28.5 60.8 L 29 60.8 L 29 67.2 L 28.5 67.2 L 28.5 60.8 Z M 30.8 64 C 30.8 62.1 32.2 60.7 33.9 60.7 C 35.5 60.7 36.9 62.1 36.9 64 C 36.9 66 35.5 67.3 33.9 67.3 C 32.2 67.3 30.8 66 30.8 64 Z M 36.4 64 C 36.4 62.2 35.2 61.2 33.9 61.2 C 32.6 61.2 31.3 62.2 31.3 64 C 31.3 65.8 32.6 66.8 33.9 66.8 C 35.2 66.8 36.4 65.8 36.4 64 Z M 43.5 63 C 43.51 62.96 43.5 67.2 43.5 67.2 L 43 67.2 C 43 67.2 43.01 63.17 43 63.2 C 43 61.9 42.3 61.2 41.2 61.2 C 40.1 61.2 39.2 61.9 39.2 63.1 C 39.23 63.11 39.2 67.2 39.2 67.2 L 38.7 67.2 L 38.7 60.8 L 39.1 60.8 L 39.2 62 C 39.2 62 39.19 61.96 39.2 62 C 39.5 61.2 40.3 60.7 41.3 60.7 C 42.6 60.7 43.5 61.6 43.5 63 Z M 48.7 64 C 48.7 62 50.1 60.7 51.6 60.7 C 52.6 60.7 53.7 61.3 54.1 62.4 C 54.11 62.38 54.1 57.7 54.1 57.7 L 54.6 57.7 L 54.6 67.2 L 54.2 67.2 L 54.1 65.6 C 54.1 65.6 54.13 65.59 54.1 65.6 C 53.7 66.8 52.7 67.3 51.6 67.3 C 50.1 67.3 48.7 66 48.7 64 Z M 54.1 64 C 54.1 62.3 53 61.2 51.7 61.2 C 50.4 61.2 49.2 62.3 49.2 64 C 49.2 65.7 50.4 66.8 51.7 66.8 C 53 66.8 54.1 65.7 54.1 64 Z M 56.8 64.9 C 56.81 64.88 56.8 60.8 56.8 60.8 L 57.3 60.8 C 57.3 60.8 57.31 64.91 57.3 64.9 C 57.3 66.1 58 66.8 59.2 66.8 C 60.4 66.8 61.1 66.1 61.1 64.9 C 61.1 64.9 61.1 60.8 61.1 60.8 L 61.6 60.8 C 61.6 60.8 61.61 64.87 61.6 64.9 C 61.6 66.3 60.7 67.3 59.2 67.3 C 57.7 67.3 56.8 66.3 56.8 64.9 Z M 67.8 60.8 L 69.7 60.8 L 69.7 61.3 L 67.8 61.3 C 67.8 61.3 67.82 65.2 67.8 65.2 C 67.8 66.4 68.5 66.8 69.4 66.8 C 69.5 66.8 69.7 66.8 69.9 66.8 C 69.9 66.8 69.9 67.2 69.9 67.2 C 69.8 67.2 69.6 67.3 69.3 67.3 C 68.1 67.3 67.3 66.6 67.3 65.2 C 67.32 65.22 67.3 61.3 67.3 61.3 L 66.3 61.3 L 66.3 60.8 L 67.3 60.8 L 67.3 59.3 L 67.8 59.3 L 67.8 60.8 Z M 71.3 60.8 L 71.7 60.8 L 71.7 62 C 71.7 62 71.72 62.02 71.7 62 C 72.1 61.1 73 60.8 73.6 60.8 C 73.7 60.8 73.9 60.8 74 60.8 C 74 60.8 74 61.3 74 61.3 C 73.9 61.3 73.7 61.3 73.6 61.3 C 72.7 61.3 71.8 61.9 71.8 63.2 C 71.76 63.17 71.8 67.2 71.8 67.2 L 71.3 67.2 L 71.3 60.8 Z M 74.6 64 C 74.6 62 76 60.7 77.5 60.7 C 78.5 60.7 79.5 61.3 80 62.4 C 79.97 62.42 80 60.8 80 60.8 L 80.4 60.8 L 80.4 67.2 L 80 67.2 C 80 67.2 79.97 65.6 80 65.6 C 79.5 66.8 78.5 67.3 77.5 67.3 C 76 67.3 74.6 66 74.6 64 Z M 80 64 C 80 62.3 78.8 61.2 77.5 61.2 C 76.2 61.2 75.1 62.3 75.1 64 C 75.1 65.7 76.2 66.8 77.5 66.8 C 78.8 66.8 80 65.7 80 64 Z M 82 60.8 L 82.5 60.8 L 84.6 66.6 L 84.6 66.6 L 86.7 60.8 L 87.2 60.8 L 84.9 67.2 L 84.3 67.2 L 82 60.8 Z M 88.1 64 C 88.1 62 89.5 60.7 91 60.7 C 92.1 60.7 93.1 61.3 93.5 62.4 C 93.54 62.42 93.6 60.8 93.6 60.8 L 94 60.8 L 94 67.2 L 93.6 67.2 C 93.6 67.2 93.54 65.6 93.5 65.6 C 93.1 66.8 92.1 67.3 91 67.3 C 89.5 67.3 88.1 66 88.1 64 Z M 93.5 64 C 93.5 62.3 92.4 61.2 91.1 61.2 C 89.8 61.2 88.6 62.3 88.6 64 C 88.6 65.7 89.8 66.8 91.1 66.8 C 92.4 66.8 93.5 65.7 93.5 64 Z M 96.2 58.5 C 96.2 58.3 96.3 58.1 96.6 58.1 C 96.8 58.1 97 58.3 97 58.5 C 97 58.7 96.8 58.9 96.6 58.9 C 96.3 58.9 96.2 58.7 96.2 58.5 Z M 96.3 60.8 L 96.8 60.8 L 96.8 67.2 L 96.3 67.2 L 96.3 60.8 Z M 99.2 57.7 L 99.7 57.7 L 99.7 67.2 L 99.2 67.2 L 99.2 57.7 Z M 101.8 66.8 C 101.8 66.5 102 66.3 102.3 66.3 C 102.5 66.3 102.7 66.5 102.7 66.8 C 102.7 67 102.5 67.2 102.3 67.2 C 102 67.2 101.8 67 101.8 66.8 Z " stroke="none" fill="#000"/>
  </g>
  <g id="Polygon29518">
    <path d="M 0.7 49.6 C 0.7 47.6 2.1 46.3 3.6 46.3 C 4.6 46.3 5.6 46.9 6.1 48 C 6.07 47.98 6.1 43.3 6.1 43.3 L 6.6 43.3 L 6.6 52.8 L 6.2 52.8 L 6.1 51.2 C 6.1 51.2 6.1 51.19 6.1 51.2 C 5.6 52.4 4.6 52.9 3.6 52.9 C 2.1 52.9 0.7 51.6 0.7 49.6 Z M 6.1 49.6 C 6.1 47.9 5 46.8 3.6 46.8 C 2.3 46.8 1.2 47.9 1.2 49.6 C 1.2 51.3 2.3 52.4 3.6 52.4 C 5 52.4 6.1 51.3 6.1 49.6 Z M 11.1 45.3 L 10.7 45.3 L 12.1 43.4 L 12.7 43.4 L 11.1 45.3 Z M 14 49.8 C 14 49.8 8.9 49.8 8.9 49.8 C 9 51.4 10 52.4 11.5 52.4 C 12.2 52.4 13.1 52.2 13.7 51.5 C 13.7 51.5 13.7 52.1 13.7 52.1 C 13.1 52.6 12.3 52.9 11.4 52.9 C 9.7 52.9 8.4 51.6 8.4 49.6 C 8.4 47.6 9.8 46.3 11.4 46.3 C 12.8 46.3 14 47.4 14 49.5 C 14 49.6 14 49.7 14 49.8 Z M 13.5 49.3 C 13.5 47.6 12.4 46.8 11.4 46.8 C 10.2 46.8 9 47.8 8.9 49.3 C 8.9 49.3 13.5 49.3 13.5 49.3 Z M 15.8 43.3 L 16.3 43.3 L 16.3 52.8 L 15.8 52.8 L 15.8 43.3 Z M 18.5 44.1 C 18.5 43.9 18.7 43.7 18.9 43.7 C 19.2 43.7 19.3 43.9 19.3 44.1 C 19.3 44.3 19.2 44.5 18.9 44.5 C 18.7 44.5 18.5 44.3 18.5 44.1 Z M 18.7 46.4 L 19.2 46.4 L 19.2 52.8 L 18.7 52.8 L 18.7 46.4 Z M 29.2 48.5 C 29.23 48.48 29.2 52.8 29.2 52.8 L 28.7 52.8 C 28.7 52.8 28.73 48.53 28.7 48.5 C 28.7 47.5 28.2 46.8 27.2 46.8 C 26.2 46.8 25.6 47.6 25.6 48.5 C 25.62 48.54 25.6 52.8 25.6 52.8 L 25.1 52.8 C 25.1 52.8 25.12 48.53 25.1 48.5 C 25.1 47.5 24.6 46.8 23.6 46.8 C 22.6 46.8 22 47.6 22 48.6 C 22.01 48.56 22 52.8 22 52.8 L 21.5 52.8 L 21.5 46.4 L 21.9 46.4 L 22 47.5 C 22 47.5 21.97 47.48 22 47.5 C 22.2 46.8 22.9 46.3 23.7 46.3 C 24.6 46.3 25.2 46.8 25.5 47.6 C 25.8 46.8 26.4 46.3 27.3 46.3 C 28.6 46.3 29.2 47.2 29.2 48.5 Z M 31.3 44.1 C 31.3 43.9 31.5 43.7 31.7 43.7 C 32 43.7 32.1 43.9 32.1 44.1 C 32.1 44.3 32 44.5 31.7 44.5 C 31.5 44.5 31.3 44.3 31.3 44.1 Z M 31.5 46.4 L 32 46.4 L 32 52.8 L 31.5 52.8 L 31.5 46.4 Z M 35 46.4 L 36.9 46.4 L 36.9 46.9 L 35 46.9 C 35 46.9 34.98 50.8 35 50.8 C 35 52 35.6 52.4 36.5 52.4 C 36.7 52.4 36.9 52.4 37.1 52.4 C 37.1 52.4 37.1 52.8 37.1 52.8 C 37 52.8 36.7 52.9 36.5 52.9 C 35.3 52.9 34.5 52.2 34.5 50.8 C 34.48 50.82 34.5 46.9 34.5 46.9 L 33.5 46.9 L 33.5 46.4 L 34.5 46.4 L 34.5 44.9 L 35 44.9 L 35 46.4 Z M 43.4 49.8 C 43.4 49.8 38.4 49.8 38.4 49.8 C 38.5 51.4 39.5 52.4 40.9 52.4 C 41.7 52.4 42.5 52.2 43.2 51.5 C 43.2 51.5 43.2 52.1 43.2 52.1 C 42.5 52.6 41.7 52.9 40.9 52.9 C 39.1 52.9 37.9 51.6 37.9 49.6 C 37.9 47.6 39.3 46.3 40.8 46.3 C 42.3 46.3 43.5 47.4 43.5 49.5 C 43.5 49.6 43.5 49.7 43.4 49.8 Z M 43 49.3 C 42.9 47.6 41.9 46.8 40.8 46.8 C 39.6 46.8 38.5 47.8 38.4 49.3 C 38.4 49.3 43 49.3 43 49.3 Z M 48.2 43.3 L 48.7 43.3 L 48.7 52.8 L 48.2 52.8 L 48.2 43.3 Z M 51.2 44.3 C 51.23 44.33 51.2 43.9 51.2 43.9 L 51.7 43.9 C 51.7 43.9 51.74 44.32 51.7 44.3 C 51.7 45.3 51.3 46.3 51.1 46.9 C 51.1 46.9 50.7 46.9 50.7 46.9 C 50.9 46.3 51.2 45.3 51.2 44.3 Z M 58.4 49.8 C 58.4 49.8 53.3 49.8 53.3 49.8 C 53.4 51.4 54.4 52.4 55.9 52.4 C 56.7 52.4 57.5 52.2 58.2 51.5 C 58.2 51.5 58.2 52.1 58.2 52.1 C 57.5 52.6 56.7 52.9 55.9 52.9 C 54.1 52.9 52.8 51.6 52.8 49.6 C 52.8 47.6 54.2 46.3 55.8 46.3 C 57.2 46.3 58.4 47.4 58.4 49.5 C 58.4 49.6 58.4 49.7 58.4 49.8 Z M 57.9 49.3 C 57.9 47.6 56.9 46.8 55.8 46.8 C 54.6 46.8 53.5 47.8 53.3 49.3 C 53.3 49.3 57.9 49.3 57.9 49.3 Z M 63.8 46.9 C 63.8 46.9 63.8 47.4 63.8 47.4 C 63.3 47.1 62.6 46.8 61.9 46.8 C 61 46.8 60.4 47.3 60.4 48 C 60.4 48.7 61 49 62 49.3 C 63.1 49.7 64.1 50 64.1 51.1 C 64.1 52.2 63.2 52.9 61.9 52.9 C 61.2 52.9 60.4 52.7 59.8 52.2 C 59.8 52.2 59.8 51.5 59.8 51.5 C 60.3 52.1 61.1 52.4 61.9 52.4 C 62.9 52.4 63.6 51.9 63.6 51.1 C 63.6 50.4 62.9 50.1 61.8 49.7 C 60.8 49.4 59.9 49.1 59.9 48 C 59.9 47 60.7 46.3 62 46.3 C 62.6 46.3 63.3 46.5 63.8 46.9 Z M 65.8 46.4 L 66.2 46.4 C 66.2 46.4 66.29 48.04 66.3 48 C 66.8 46.9 67.8 46.3 68.8 46.3 C 70.3 46.3 71.7 47.6 71.7 49.6 C 71.7 51.6 70.3 52.9 68.8 52.9 C 67.8 52.9 66.8 52.3 66.3 51.3 C 66.33 51.25 66.3 55.4 66.3 55.4 L 65.8 55.4 L 65.8 46.4 Z M 71.2 49.6 C 71.2 47.9 70.1 46.8 68.8 46.8 C 67.4 46.8 66.3 47.9 66.3 49.6 C 66.3 51.3 67.4 52.4 68.8 52.4 C 70.1 52.4 71.2 51.3 71.2 49.6 Z M 73.1 49.6 C 73.1 47.6 74.5 46.3 76 46.3 C 77 46.3 78 46.9 78.5 48 C 78.5 48.02 78.6 46.4 78.6 46.4 L 79 46.4 L 79 52.8 L 78.6 52.8 C 78.6 52.8 78.5 51.2 78.5 51.2 C 78 52.4 77 52.9 76 52.9 C 74.5 52.9 73.1 51.6 73.1 49.6 Z M 78.5 49.6 C 78.5 47.9 77.4 46.8 76 46.8 C 74.7 46.8 73.6 47.9 73.6 49.6 C 73.6 51.3 74.7 52.4 76 52.4 C 77.4 52.4 78.5 51.3 78.5 49.6 Z M 83.9 52.4 C 84.4 52.4 85 52.3 85.6 51.9 C 85.6 51.9 85.6 52.5 85.6 52.5 C 85.1 52.8 84.5 52.9 83.9 52.9 C 82.1 52.9 80.8 51.5 80.8 49.6 C 80.8 47.7 82.1 46.3 83.9 46.3 C 84.4 46.3 85 46.4 85.6 46.8 C 85.6 46.8 85.6 47.3 85.6 47.3 C 85 46.9 84.4 46.8 83.8 46.8 C 82.5 46.8 81.3 47.9 81.3 49.6 C 81.3 51.3 82.5 52.4 83.9 52.4 Z M 92.3 49.8 C 92.3 49.8 87.3 49.8 87.3 49.8 C 87.4 51.4 88.4 52.4 89.8 52.4 C 90.6 52.4 91.4 52.2 92.1 51.5 C 92.1 51.5 92.1 52.1 92.1 52.1 C 91.4 52.6 90.6 52.9 89.8 52.9 C 88 52.9 86.8 51.6 86.8 49.6 C 86.8 47.6 88.2 46.3 89.7 46.3 C 91.1 46.3 92.3 47.4 92.3 49.5 C 92.3 49.6 92.3 49.7 92.3 49.8 Z M 91.8 49.3 C 91.8 47.6 90.8 46.8 89.7 46.8 C 88.5 46.8 87.4 47.8 87.3 49.3 C 87.3 49.3 91.8 49.3 91.8 49.3 Z M 94.1 51.8 C 94.06 51.84 94.1 51.4 94.1 51.4 L 94.6 51.4 C 94.6 51.4 94.57 51.83 94.6 51.8 C 94.6 52.8 94.2 53.8 93.9 54.4 C 93.9 54.4 93.5 54.4 93.5 54.4 C 93.8 53.8 94.1 52.8 94.1 51.8 Z M 99.9 46.9 L 98.9 46.9 L 98.9 46.4 L 99.9 46.4 C 99.9 46.4 99.87 45.2 99.9 45.2 C 99.9 43.9 100.7 43.2 101.8 43.2 C 102.1 43.2 102.5 43.3 102.7 43.4 C 102.7 43.4 102.7 43.9 102.7 43.9 C 102.5 43.8 102.1 43.7 101.8 43.7 C 100.9 43.7 100.4 44.2 100.4 45.3 C 100.38 45.29 100.4 46.4 100.4 46.4 L 102.3 46.4 L 102.3 46.9 L 100.4 46.9 L 100.4 52.8 L 99.9 52.8 L 99.9 46.9 Z M 102.9 49.6 C 102.9 47.6 104.3 46.3 105.8 46.3 C 106.9 46.3 107.9 46.9 108.3 48 C 108.35 48.02 108.4 46.4 108.4 46.4 L 108.8 46.4 L 108.8 52.8 L 108.4 52.8 C 108.4 52.8 108.35 51.2 108.3 51.2 C 107.9 52.4 106.9 52.9 105.9 52.9 C 104.3 52.9 102.9 51.6 102.9 49.6 Z M 108.3 49.6 C 108.3 47.9 107.2 46.8 105.9 46.8 C 104.6 46.8 103.4 47.9 103.4 49.6 C 103.4 51.3 104.6 52.4 105.9 52.4 C 107.2 52.4 108.3 51.3 108.3 49.6 Z M 110.4 46.4 L 110.9 46.4 L 113 52.2 L 113 52.2 L 115.1 46.4 L 115.6 46.4 L 113.3 52.8 L 112.7 52.8 L 110.4 46.4 Z M 116.5 49.6 C 116.5 47.7 117.9 46.3 119.6 46.3 C 121.2 46.3 122.6 47.7 122.6 49.6 C 122.6 51.6 121.2 52.9 119.6 52.9 C 117.9 52.9 116.5 51.6 116.5 49.6 Z M 122.1 49.6 C 122.1 47.8 120.9 46.8 119.6 46.8 C 118.2 46.8 117 47.8 117 49.6 C 117 51.4 118.3 52.4 119.6 52.4 C 120.9 52.4 122.1 51.4 122.1 49.6 Z M 124.4 46.4 L 124.8 46.4 L 124.9 47.6 C 124.9 47.6 124.88 47.62 124.9 47.6 C 125.3 46.7 126.1 46.4 126.8 46.4 C 126.9 46.4 127 46.4 127.2 46.4 C 127.2 46.4 127.2 46.9 127.2 46.9 C 127 46.9 126.9 46.9 126.8 46.9 C 125.9 46.9 124.9 47.5 124.9 48.8 C 124.92 48.77 124.9 52.8 124.9 52.8 L 124.4 52.8 L 124.4 46.4 Z M 128.4 44.1 C 128.4 43.9 128.5 43.7 128.8 43.7 C 129 43.7 129.2 43.9 129.2 44.1 C 129.2 44.3 129 44.5 128.8 44.5 C 128.5 44.5 128.4 44.3 128.4 44.1 Z M 128.5 46.4 L 129 46.4 L 129 52.8 L 128.5 52.8 L 128.5 46.4 Z M 134.9 46.9 C 134.9 46.9 134.9 47.4 134.9 47.4 C 134.4 47.1 133.8 46.8 133.1 46.8 C 132.1 46.8 131.5 47.3 131.5 48 C 131.5 48.7 132.2 49 133.2 49.3 C 134.2 49.7 135.2 50 135.2 51.1 C 135.2 52.2 134.3 52.9 133 52.9 C 132.3 52.9 131.5 52.7 130.9 52.2 C 130.9 52.2 130.9 51.5 130.9 51.5 C 131.4 52.1 132.2 52.4 133 52.4 C 134.1 52.4 134.7 51.9 134.7 51.1 C 134.7 50.4 134 50.1 133 49.7 C 131.9 49.4 131 49.1 131 48 C 131 47 131.8 46.3 133.1 46.3 C 133.8 46.3 134.4 46.5 134.9 46.9 Z M 136.5 49.6 C 136.5 47.6 137.9 46.3 139.4 46.3 C 140.4 46.3 141.4 46.9 141.9 48 C 141.91 48.02 142 46.4 142 46.4 L 142.4 46.4 L 142.4 52.8 L 142 52.8 C 142 52.8 141.91 51.2 141.9 51.2 C 141.4 52.4 140.4 52.9 139.4 52.9 C 137.9 52.9 136.5 51.6 136.5 49.6 Z M 141.9 49.6 C 141.9 47.9 140.8 46.8 139.5 46.8 C 138.1 46.8 137 47.9 137 49.6 C 137 51.3 138.1 52.4 139.5 52.4 C 140.8 52.4 141.9 51.3 141.9 49.6 Z M 149.4 48.6 C 149.45 48.56 149.4 52.8 149.4 52.8 L 148.9 52.8 C 148.9 52.8 148.95 48.77 148.9 48.8 C 148.9 47.5 148.3 46.8 147.1 46.8 C 146.1 46.8 145.2 47.5 145.2 48.7 C 145.16 48.71 145.2 52.8 145.2 52.8 L 144.7 52.8 L 144.7 46.4 L 145.1 46.4 L 145.1 47.6 C 145.1 47.6 145.13 47.56 145.1 47.6 C 145.5 46.8 146.2 46.3 147.2 46.3 C 148.6 46.3 149.4 47.2 149.4 48.6 Z M 152.3 46.4 L 154.2 46.4 L 154.2 46.9 L 152.3 46.9 C 152.3 46.9 152.27 50.8 152.3 50.8 C 152.3 52 152.9 52.4 153.8 52.4 C 154 52.4 154.2 52.4 154.3 52.4 C 154.3 52.4 154.3 52.8 154.3 52.8 C 154.3 52.8 154 52.9 153.7 52.9 C 152.6 52.9 151.8 52.2 151.8 50.8 C 151.76 50.82 151.8 46.9 151.8 46.9 L 150.8 46.9 L 150.8 46.4 L 151.8 46.4 L 151.8 44.9 L 152.3 44.9 L 152.3 46.4 Z M 158.6 43.3 L 159.1 43.3 L 159.1 52.8 L 158.6 52.8 L 158.6 43.3 Z M 161 49.6 C 161 47.6 162.4 46.3 163.9 46.3 C 164.9 46.3 165.9 46.9 166.4 48 C 166.36 48.02 166.4 46.4 166.4 46.4 L 166.8 46.4 L 166.8 52.8 L 166.4 52.8 C 166.4 52.8 166.36 51.2 166.4 51.2 C 165.9 52.4 164.9 52.9 163.9 52.9 C 162.4 52.9 161 51.6 161 49.6 Z M 166.4 49.6 C 166.4 47.9 165.2 46.8 163.9 46.8 C 162.6 46.8 161.5 47.9 161.5 49.6 C 161.5 51.3 162.6 52.4 163.9 52.4 C 165.2 52.4 166.4 51.3 166.4 49.6 Z M 174.7 52.4 C 175.2 52.4 175.8 52.3 176.4 51.9 C 176.4 51.9 176.4 52.5 176.4 52.5 C 175.9 52.8 175.3 52.9 174.7 52.9 C 172.9 52.9 171.6 51.5 171.6 49.6 C 171.6 47.7 172.9 46.3 174.6 46.3 C 175.2 46.3 175.8 46.4 176.4 46.8 C 176.4 46.8 176.4 47.3 176.4 47.3 C 175.8 46.9 175.2 46.8 174.6 46.8 C 173.3 46.8 172.1 47.9 172.1 49.6 C 172.1 51.3 173.3 52.4 174.7 52.4 Z M 177.5 49.6 C 177.5 47.7 178.9 46.3 180.6 46.3 C 182.3 46.3 183.6 47.7 183.6 49.6 C 183.6 51.6 182.3 52.9 180.6 52.9 C 178.9 52.9 177.5 51.6 177.5 49.6 Z M 183.1 49.6 C 183.1 47.8 181.9 46.8 180.6 46.8 C 179.3 46.8 178 47.8 178 49.6 C 178 51.4 179.3 52.4 180.6 52.4 C 181.9 52.4 183.1 51.4 183.1 49.6 Z M 190.2 48.6 C 190.24 48.56 190.2 52.8 190.2 52.8 L 189.7 52.8 C 189.7 52.8 189.74 48.77 189.7 48.8 C 189.7 47.5 189.1 46.8 187.9 46.8 C 186.8 46.8 186 47.5 186 48.7 C 185.95 48.71 186 52.8 186 52.8 L 185.5 52.8 L 185.5 46.4 L 185.8 46.4 L 185.9 47.6 C 185.9 47.6 185.92 47.56 185.9 47.6 C 186.3 46.8 187 46.3 188 46.3 C 189.4 46.3 190.2 47.2 190.2 48.6 Z M 195.1 52.4 C 195.6 52.4 196.2 52.3 196.8 51.9 C 196.8 51.9 196.8 52.5 196.8 52.5 C 196.3 52.8 195.7 52.9 195.1 52.9 C 193.3 52.9 192 51.5 192 49.6 C 192 47.7 193.3 46.3 195 46.3 C 195.6 46.3 196.2 46.4 196.8 46.8 C 196.8 46.8 196.8 47.3 196.8 47.3 C 196.2 46.9 195.6 46.8 195 46.8 C 193.7 46.8 192.5 47.9 192.5 49.6 C 192.5 51.3 193.7 52.4 195.1 52.4 Z M 203.5 49.8 C 203.5 49.8 198.5 49.8 198.5 49.8 C 198.5 51.4 199.6 52.4 201 52.4 C 201.8 52.4 202.6 52.2 203.3 51.5 C 203.3 51.5 203.3 52.1 203.3 52.1 C 202.6 52.6 201.8 52.9 201 52.9 C 199.2 52.9 198 51.6 198 49.6 C 198 47.6 199.4 46.3 200.9 46.3 C 202.3 46.3 203.5 47.4 203.5 49.5 C 203.5 49.6 203.5 49.7 203.5 49.8 Z M 203 49.3 C 203 47.6 202 46.8 200.9 46.8 C 199.7 46.8 198.6 47.8 198.5 49.3 C 198.5 49.3 203 49.3 203 49.3 Z M 210.1 48.6 C 210.12 48.56 210.1 52.8 210.1 52.8 L 209.6 52.8 C 209.6 52.8 209.62 48.77 209.6 48.8 C 209.6 47.5 209 46.8 207.8 46.8 C 206.7 46.8 205.8 47.5 205.8 48.7 C 205.84 48.71 205.8 52.8 205.8 52.8 L 205.3 52.8 L 205.3 46.4 L 205.7 46.4 L 205.8 47.6 C 205.8 47.6 205.8 47.56 205.8 47.6 C 206.1 46.8 206.9 46.3 207.9 46.3 C 209.2 46.3 210.1 47.2 210.1 48.6 Z M 212.9 46.4 L 214.8 46.4 L 214.8 46.9 L 212.9 46.9 C 212.9 46.9 212.94 50.8 212.9 50.8 C 212.9 52 213.6 52.4 214.5 52.4 C 214.7 52.4 214.8 52.4 215 52.4 C 215 52.4 215 52.8 215 52.8 C 214.9 52.8 214.7 52.9 214.4 52.9 C 213.3 52.9 212.4 52.2 212.4 50.8 C 212.44 50.82 212.4 46.9 212.4 46.9 L 211.5 46.9 L 211.5 46.4 L 212.5 46.4 L 212.5 44.9 L 212.9 44.9 L 212.9 46.4 Z M 216.4 46.4 L 216.8 46.4 L 216.8 47.6 C 216.8 47.6 216.84 47.62 216.8 47.6 C 217.2 46.7 218.1 46.4 218.7 46.4 C 218.9 46.4 219 46.4 219.1 46.4 C 219.1 46.4 219.1 46.9 219.1 46.9 C 219 46.9 218.9 46.9 218.7 46.9 C 217.8 46.9 216.9 47.5 216.9 48.8 C 216.88 48.77 216.9 52.8 216.9 52.8 L 216.4 52.8 L 216.4 46.4 Z M 219.7 49.6 C 219.7 47.6 221.1 46.3 222.6 46.3 C 223.6 46.3 224.6 46.9 225.1 48 C 225.09 48.02 225.2 46.4 225.2 46.4 L 225.6 46.4 L 225.6 52.8 L 225.2 52.8 C 225.2 52.8 225.09 51.2 225.1 51.2 C 224.6 52.4 223.6 52.9 222.6 52.9 C 221.1 52.9 219.7 51.6 219.7 49.6 Z M 225.1 49.6 C 225.1 47.9 224 46.8 222.6 46.8 C 221.3 46.8 220.2 47.9 220.2 49.6 C 220.2 51.3 221.3 52.4 222.6 52.4 C 223.9 52.4 225.1 51.3 225.1 49.6 Z M 228.5 46.4 L 230.4 46.4 L 230.4 46.9 L 228.5 46.9 C 228.5 46.9 228.52 50.8 228.5 50.8 C 228.5 52 229.2 52.4 230.1 52.4 C 230.2 52.4 230.4 52.4 230.6 52.4 C 230.6 52.4 230.6 52.8 230.6 52.8 C 230.5 52.8 230.3 52.9 230 52.9 C 228.8 52.9 228 52.2 228 50.8 C 228.01 50.82 228 46.9 228 46.9 L 227 46.9 L 227 46.4 L 228 46.4 L 228 44.9 L 228.5 44.9 L 228.5 46.4 Z M 231.8 44.1 C 231.8 43.9 232 43.7 232.2 43.7 C 232.5 43.7 232.6 43.9 232.6 44.1 C 232.6 44.3 232.5 44.5 232.2 44.5 C 232 44.5 231.8 44.3 231.8 44.1 Z M 232 46.4 L 232.5 46.4 L 232.5 52.8 L 232 52.8 L 232 46.4 Z M 234.4 49.6 C 234.4 47.7 235.7 46.3 237.4 46.3 C 239.1 46.3 240.4 47.7 240.4 49.6 C 240.4 51.6 239.1 52.9 237.4 52.9 C 235.7 52.9 234.4 51.6 234.4 49.6 Z M 239.9 49.6 C 239.9 47.8 238.7 46.8 237.4 46.8 C 236.1 46.8 234.9 47.8 234.9 49.6 C 234.9 51.4 236.1 52.4 237.4 52.4 C 238.7 52.4 239.9 51.4 239.9 49.6 Z M 247 48.6 C 247.04 48.56 247 52.8 247 52.8 L 246.5 52.8 C 246.5 52.8 246.54 48.77 246.5 48.8 C 246.5 47.5 245.9 46.8 244.7 46.8 C 243.6 46.8 242.8 47.5 242.8 48.7 C 242.76 48.71 242.8 52.8 242.8 52.8 L 242.3 52.8 L 242.3 46.4 L 242.7 46.4 L 242.7 47.6 C 242.7 47.6 242.72 47.56 242.7 47.6 C 243.1 46.8 243.8 46.3 244.8 46.3 C 246.2 46.3 247 47.2 247 48.6 Z M 257.3 49.8 C 257.3 49.8 252.2 49.8 252.2 49.8 C 252.3 51.4 253.3 52.4 254.8 52.4 C 255.5 52.4 256.4 52.2 257 51.5 C 257 51.5 257 52.1 257 52.1 C 256.4 52.6 255.6 52.9 254.8 52.9 C 253 52.9 251.7 51.6 251.7 49.6 C 251.7 47.6 253.1 46.3 254.7 46.3 C 256.1 46.3 257.3 47.4 257.3 49.5 C 257.3 49.6 257.3 49.7 257.3 49.8 Z M 256.8 49.3 C 256.8 47.6 255.8 46.8 254.7 46.8 C 253.5 46.8 252.3 47.8 252.2 49.3 C 252.2 49.3 256.8 49.3 256.8 49.3 Z M 259.7 46.4 L 261.6 46.4 L 261.6 46.9 L 259.7 46.9 C 259.7 46.9 259.72 50.8 259.7 50.8 C 259.7 52 260.4 52.4 261.3 52.4 C 261.4 52.4 261.6 52.4 261.8 52.4 C 261.8 52.4 261.8 52.8 261.8 52.8 C 261.7 52.8 261.5 52.9 261.2 52.9 C 260 52.9 259.2 52.2 259.2 50.8 C 259.22 50.82 259.2 46.9 259.2 46.9 L 258.2 46.9 L 258.2 46.4 L 259.2 46.4 L 259.2 44.9 L 259.7 44.9 L 259.7 46.4 Z M 266 43.3 L 266.5 43.3 L 266.5 52.8 L 266 52.8 L 266 43.3 Z M 269.1 44.3 C 269.06 44.33 269.1 43.9 269.1 43.9 L 269.6 43.9 C 269.6 43.9 269.56 44.32 269.6 44.3 C 269.6 45.3 269.2 46.3 268.9 46.9 C 268.9 46.9 268.5 46.9 268.5 46.9 C 268.7 46.3 269.1 45.3 269.1 44.3 Z M 270.6 49.6 C 270.6 47.7 272 46.3 273.7 46.3 C 275.4 46.3 276.7 47.7 276.7 49.6 C 276.7 51.6 275.4 52.9 273.7 52.9 C 272 52.9 270.6 51.6 270.6 49.6 Z M 276.2 49.6 C 276.2 47.8 275 46.8 273.7 46.8 C 272.4 46.8 271.1 47.8 271.1 49.6 C 271.1 51.4 272.4 52.4 273.7 52.4 C 275 52.4 276.2 51.4 276.2 49.6 Z M 278.5 46.4 L 279 46.4 L 279 47.6 C 279 47.6 279.01 47.62 279 47.6 C 279.4 46.7 280.3 46.4 280.9 46.4 C 281 46.4 281.2 46.4 281.3 46.4 C 281.3 46.4 281.3 46.9 281.3 46.9 C 281.2 46.9 281 46.9 280.9 46.9 C 280 46.9 279.1 47.5 279.1 48.8 C 279.05 48.77 279.1 52.8 279.1 52.8 L 278.5 52.8 L 278.5 46.4 Z M 287.2 48 C 287.22 47.96 287.3 46.4 287.3 46.4 L 287.7 46.4 C 287.7 46.4 287.69 52.6 287.7 52.6 C 287.7 54.6 286.3 55.5 284.9 55.5 C 284 55.5 283.2 55.2 282.5 54.7 C 282.5 54.7 282.5 54.1 282.5 54.1 C 283.2 54.7 284 55 284.9 55 C 286.1 55 287.2 54.3 287.2 52.7 C 287.2 52.7 287.2 51.1 287.2 51.1 C 286.7 52.2 285.7 52.7 284.7 52.7 C 283.2 52.7 281.8 51.5 281.8 49.5 C 281.8 47.6 283.2 46.3 284.7 46.3 C 285.7 46.3 286.8 46.9 287.2 48 Z M 282.4 49.5 C 282.4 51.2 283.5 52.2 284.8 52.2 C 286.1 52.2 287.2 51.1 287.2 49.5 C 287.2 47.9 286.1 46.8 284.8 46.8 C 283.5 46.8 282.4 47.9 282.4 49.5 Z M 289.5 49.6 C 289.5 47.6 290.9 46.3 292.4 46.3 C 293.4 46.3 294.5 46.9 294.9 48 C 294.93 48.02 295 46.4 295 46.4 L 295.4 46.4 L 295.4 52.8 L 295 52.8 C 295 52.8 294.93 51.2 294.9 51.2 C 294.5 52.4 293.4 52.9 292.4 52.9 C 290.9 52.9 289.5 51.6 289.5 49.6 Z M 294.9 49.6 C 294.9 47.9 293.8 46.8 292.5 46.8 C 291.1 46.8 290 47.9 290 49.6 C 290 51.3 291.2 52.4 292.5 52.4 C 293.8 52.4 294.9 51.3 294.9 49.6 Z M 297.5 48.9 L 300.3 48.9 L 300.3 49.4 L 297.5 49.4 L 297.5 48.9 Z " stroke="none" fill="#000"/>
  </g>
  <g id="Polygon29517">
    <path d="M 1.6 33.6 C 2.1 32.5 3.1 31.9 4.1 31.9 C 5.6 31.9 7 33.2 7 35.2 C 7 37.2 5.6 38.5 4.1 38.5 C 3.1 38.5 2.1 38 1.6 36.8 C 1.61 36.79 1.5 38.4 1.5 38.4 L 1.1 38.4 L 1.1 28.9 L 1.6 28.9 C 1.6 28.9 1.64 33.59 1.6 33.6 Z M 1.6 35.2 C 1.6 36.9 2.8 38 4.1 38 C 5.4 38 6.5 36.9 6.5 35.2 C 6.5 33.5 5.4 32.4 4.1 32.4 C 2.7 32.4 1.6 33.5 1.6 35.2 Z M 8.7 29.7 C 8.7 29.5 8.9 29.3 9.1 29.3 C 9.4 29.3 9.6 29.5 9.6 29.7 C 9.6 29.9 9.4 30.1 9.1 30.1 C 8.9 30.1 8.7 29.9 8.7 29.7 Z M 8.9 32 L 9.4 32 L 9.4 38.4 L 8.9 38.4 L 8.9 32 Z M 12.4 32 L 14.3 32 L 14.3 32.5 L 12.4 32.5 C 12.4 32.5 12.4 36.4 12.4 36.4 C 12.4 37.6 13 38 13.9 38 C 14.1 38 14.3 38 14.5 38 C 14.5 38 14.5 38.4 14.5 38.4 C 14.4 38.4 14.1 38.5 13.9 38.5 C 12.7 38.5 11.9 37.8 11.9 36.4 C 11.89 36.42 11.9 32.5 11.9 32.5 L 10.9 32.5 L 10.9 32 L 11.9 32 L 11.9 30.5 L 12.4 30.5 L 12.4 32 Z M 15.3 35.2 C 15.3 33.2 16.7 31.9 18.2 31.9 C 19.2 31.9 20.2 32.5 20.7 33.6 C 20.7 33.62 20.8 32 20.8 32 L 21.2 32 L 21.2 38.4 L 20.8 38.4 C 20.8 38.4 20.7 36.8 20.7 36.8 C 20.2 38 19.2 38.5 18.2 38.5 C 16.7 38.5 15.3 37.2 15.3 35.2 Z M 20.7 35.2 C 20.7 33.5 19.6 32.4 18.2 32.4 C 16.9 32.4 15.8 33.5 15.8 35.2 C 15.8 36.9 16.9 38 18.3 38 C 19.6 38 20.7 36.9 20.7 35.2 Z M 24.1 32 L 26 32 L 26 32.5 L 24.1 32.5 C 24.1 32.5 24.13 36.4 24.1 36.4 C 24.1 37.6 24.8 38 25.7 38 C 25.8 38 26 38 26.2 38 C 26.2 38 26.2 38.4 26.2 38.4 C 26.1 38.4 25.9 38.5 25.6 38.5 C 24.5 38.5 23.6 37.8 23.6 36.4 C 23.63 36.42 23.6 32.5 23.6 32.5 L 22.6 32.5 L 22.6 32 L 23.6 32 L 23.6 30.5 L 24.1 30.5 L 24.1 32 Z M 27.3 38 C 27.3 37.7 27.5 37.5 27.8 37.5 C 28.1 37.5 28.3 37.7 28.3 38 C 28.3 38.2 28.1 38.4 27.8 38.4 C 27.5 38.4 27.3 38.2 27.3 38 Z M 40.8 38.4 L 39.6 35.3 L 35.4 35.3 L 34.2 38.4 L 33.6 38.4 L 37.2 29.5 L 37.8 29.5 L 41.4 38.4 L 40.8 38.4 Z M 35.6 34.8 L 39.4 34.8 L 37.5 30.1 L 35.6 34.8 Z M 42.6 36.1 C 42.58 36.08 42.6 32 42.6 32 L 43.1 32 C 43.1 32 43.08 36.11 43.1 36.1 C 43.1 37.3 43.8 38 45 38 C 46.1 38 46.9 37.3 46.9 36.1 C 46.87 36.1 46.9 32 46.9 32 L 47.4 32 C 47.4 32 47.38 36.07 47.4 36.1 C 47.4 37.5 46.4 38.5 45 38.5 C 43.5 38.5 42.6 37.5 42.6 36.1 Z M 50.3 32 L 52.2 32 L 52.2 32.5 L 50.3 32.5 C 50.3 32.5 50.26 36.4 50.3 36.4 C 50.3 37.6 50.9 38 51.8 38 C 52 38 52.1 38 52.3 38 C 52.3 38 52.3 38.4 52.3 38.4 C 52.3 38.4 52 38.5 51.7 38.5 C 50.6 38.5 49.8 37.8 49.8 36.4 C 49.75 36.42 49.8 32.5 49.8 32.5 L 48.8 32.5 L 48.8 32 L 49.8 32 L 49.8 30.5 L 50.3 30.5 L 50.3 32 Z M 53.1 35.2 C 53.1 33.3 54.5 31.9 56.2 31.9 C 57.9 31.9 59.2 33.3 59.2 35.2 C 59.2 37.2 57.9 38.5 56.2 38.5 C 54.5 38.5 53.1 37.2 53.1 35.2 Z M 58.7 35.2 C 58.7 33.4 57.5 32.4 56.2 32.4 C 54.9 32.4 53.7 33.4 53.7 35.2 C 53.7 37 54.9 38 56.2 38 C 57.5 38 58.7 37 58.7 35.2 Z M 61 36.1 C 60.97 36.08 61 32 61 32 L 61.5 32 C 61.5 32 61.48 36.11 61.5 36.1 C 61.5 37.3 62.2 38 63.4 38 C 64.5 38 65.3 37.3 65.3 36.1 C 65.27 36.1 65.3 32 65.3 32 L 65.8 32 C 65.8 32 65.77 36.07 65.8 36.1 C 65.8 37.5 64.8 38.5 63.4 38.5 C 61.9 38.5 61 37.5 61 36.1 Z M 68 32 L 68.4 32 L 68.4 33.2 C 68.4 33.2 68.44 33.22 68.4 33.2 C 68.8 32.3 69.7 32 70.3 32 C 70.5 32 70.6 32 70.7 32 C 70.7 32 70.7 32.5 70.7 32.5 C 70.6 32.5 70.5 32.5 70.3 32.5 C 69.4 32.5 68.5 33.1 68.5 34.4 C 68.47 34.37 68.5 38.4 68.5 38.4 L 68 38.4 L 68 32 Z M 75.9 35.2 C 75.9 33.2 77.3 31.9 78.8 31.9 C 79.8 31.9 80.8 32.5 81.3 33.6 C 81.28 33.58 81.3 28.9 81.3 28.9 L 81.8 28.9 L 81.8 38.4 L 81.4 38.4 L 81.3 36.8 C 81.3 36.8 81.3 36.79 81.3 36.8 C 80.8 38 79.8 38.5 78.8 38.5 C 77.3 38.5 75.9 37.2 75.9 35.2 Z M 81.3 35.2 C 81.3 33.5 80.2 32.4 78.9 32.4 C 77.5 32.4 76.4 33.5 76.4 35.2 C 76.4 36.9 77.5 38 78.9 38 C 80.2 38 81.3 36.9 81.3 35.2 Z M 84.3 29.9 C 84.25 29.93 84.3 29.5 84.3 29.5 L 84.8 29.5 C 84.8 29.5 84.76 29.92 84.8 29.9 C 84.8 30.9 84.4 31.9 84.1 32.5 C 84.1 32.5 83.7 32.5 83.7 32.5 C 83.9 31.9 84.3 30.9 84.3 29.9 Z M 86.6 36.1 C 86.58 36.08 86.6 32 86.6 32 L 87.1 32 C 87.1 32 87.08 36.11 87.1 36.1 C 87.1 37.3 87.8 38 89 38 C 90.1 38 90.9 37.3 90.9 36.1 C 90.88 36.1 90.9 32 90.9 32 L 91.4 32 C 91.4 32 91.38 36.07 91.4 36.1 C 91.4 37.5 90.4 38.5 89 38.5 C 87.5 38.5 86.6 37.5 86.6 36.1 Z M 98.4 34.2 C 98.36 34.16 98.4 38.4 98.4 38.4 L 97.9 38.4 C 97.9 38.4 97.86 34.37 97.9 34.4 C 97.9 33.1 97.2 32.4 96 32.4 C 95 32.4 94.1 33.1 94.1 34.3 C 94.08 34.31 94.1 38.4 94.1 38.4 L 93.6 38.4 L 93.6 32 L 94 32 L 94 33.2 C 94 33.2 94.04 33.16 94 33.2 C 94.4 32.4 95.2 31.9 96.1 31.9 C 97.5 31.9 98.4 32.8 98.4 34.2 Z M 105.2 32 L 105.6 32 C 105.6 32 105.64 33.64 105.6 33.6 C 106.1 32.5 107.1 31.9 108.1 31.9 C 109.7 31.9 111 33.2 111 35.2 C 111 37.2 109.7 38.5 108.1 38.5 C 107.1 38.5 106.1 37.9 105.7 36.9 C 105.67 36.85 105.7 41 105.7 41 L 105.2 41 L 105.2 32 Z M 110.5 35.2 C 110.5 33.5 109.4 32.4 108.1 32.4 C 106.8 32.4 105.6 33.5 105.6 35.2 C 105.6 36.9 106.8 38 108.1 38 C 109.4 38 110.5 36.9 110.5 35.2 Z M 112.9 32 L 113.3 32 L 113.3 33.2 C 113.3 33.2 113.35 33.22 113.4 33.2 C 113.7 32.3 114.6 32 115.2 32 C 115.4 32 115.5 32 115.6 32 C 115.6 32 115.6 32.5 115.6 32.5 C 115.5 32.5 115.4 32.5 115.2 32.5 C 114.3 32.5 113.4 33.1 113.4 34.4 C 113.39 34.37 113.4 38.4 113.4 38.4 L 112.9 38.4 L 112.9 32 Z M 116.8 29.7 C 116.8 29.5 117 29.3 117.2 29.3 C 117.5 29.3 117.6 29.5 117.6 29.7 C 117.6 29.9 117.5 30.1 117.2 30.1 C 117 30.1 116.8 29.9 116.8 29.7 Z M 117 32 L 117.5 32 L 117.5 38.4 L 117 38.4 L 117 32 Z M 124.6 34.2 C 124.6 34.16 124.6 38.4 124.6 38.4 L 124.1 38.4 C 124.1 38.4 124.09 34.37 124.1 34.4 C 124.1 33.1 123.4 32.4 122.3 32.4 C 121.2 32.4 120.3 33.1 120.3 34.3 C 120.31 34.31 120.3 38.4 120.3 38.4 L 119.8 38.4 L 119.8 32 L 120.2 32 L 120.3 33.2 C 120.3 33.2 120.28 33.16 120.3 33.2 C 120.6 32.4 121.4 31.9 122.4 31.9 C 123.7 31.9 124.6 32.8 124.6 34.2 Z M 129.4 38 C 129.9 38 130.6 37.9 131.1 37.5 C 131.1 37.5 131.1 38.1 131.1 38.1 C 130.6 38.4 130 38.5 129.4 38.5 C 127.7 38.5 126.3 37.1 126.3 35.2 C 126.3 33.3 127.7 31.9 129.4 31.9 C 130 31.9 130.6 32 131.1 32.4 C 131.1 32.4 131.1 32.9 131.1 32.9 C 130.6 32.5 130 32.4 129.4 32.4 C 128.1 32.4 126.8 33.5 126.8 35.2 C 126.8 36.9 128.1 38 129.4 38 Z M 132.8 29.7 C 132.8 29.5 133 29.3 133.2 29.3 C 133.4 29.3 133.6 29.5 133.6 29.7 C 133.6 29.9 133.4 30.1 133.2 30.1 C 133 30.1 132.8 29.9 132.8 29.7 Z M 133 32 L 133.5 32 L 133.5 38.4 L 133 38.4 L 133 32 Z M 135.8 32 L 136.2 32 C 136.2 32 136.24 33.64 136.2 33.6 C 136.7 32.5 137.7 31.9 138.7 31.9 C 140.3 31.9 141.6 33.2 141.6 35.2 C 141.6 37.2 140.3 38.5 138.7 38.5 C 137.7 38.5 136.7 37.9 136.3 36.9 C 136.27 36.85 136.3 41 136.3 41 L 135.8 41 L 135.8 32 Z M 141.1 35.2 C 141.1 33.5 140 32.4 138.7 32.4 C 137.4 32.4 136.2 33.5 136.2 35.2 C 136.2 36.9 137.4 38 138.7 38 C 140 38 141.1 36.9 141.1 35.2 Z M 148.6 35.4 C 148.6 35.4 143.5 35.4 143.5 35.4 C 143.6 37 144.7 38 146.1 38 C 146.9 38 147.7 37.8 148.4 37.1 C 148.4 37.1 148.4 37.7 148.4 37.7 C 147.7 38.2 146.9 38.5 146.1 38.5 C 144.3 38.5 143 37.2 143 35.2 C 143 33.2 144.5 31.9 146 31.9 C 147.4 31.9 148.6 33 148.6 35.1 C 148.6 35.2 148.6 35.3 148.6 35.4 Z M 148.1 34.9 C 148.1 33.2 147.1 32.4 146 32.4 C 144.8 32.4 143.7 33.4 143.6 34.9 C 143.6 34.9 148.1 34.9 148.1 34.9 Z M 154.6 35.2 C 154.6 33.2 156 31.9 157.5 31.9 C 158.5 31.9 159.5 32.5 160 33.6 C 159.96 33.58 160 28.9 160 28.9 L 160.5 28.9 L 160.5 38.4 L 160.1 38.4 L 160 36.8 C 160 36.8 159.99 36.79 160 36.8 C 159.5 38 158.5 38.5 157.5 38.5 C 156 38.5 154.6 37.2 154.6 35.2 Z M 160 35.2 C 160 33.5 158.9 32.4 157.5 32.4 C 156.2 32.4 155.1 33.5 155.1 35.2 C 155.1 36.9 156.2 38 157.5 38 C 158.9 38 160 36.9 160 35.2 Z M 167.9 35.4 C 167.9 35.4 162.8 35.4 162.8 35.4 C 162.9 37 163.9 38 165.4 38 C 166.1 38 166.9 37.8 167.6 37.1 C 167.6 37.1 167.6 37.7 167.6 37.7 C 167 38.2 166.2 38.5 165.3 38.5 C 163.5 38.5 162.3 37.2 162.3 35.2 C 162.3 33.2 163.7 31.9 165.3 31.9 C 166.7 31.9 167.9 33 167.9 35.1 C 167.9 35.2 167.9 35.3 167.9 35.4 Z M 167.4 34.9 C 167.4 33.2 166.3 32.4 165.3 32.4 C 164 32.4 162.9 33.4 162.8 34.9 C 162.8 34.9 167.4 34.9 167.4 34.9 Z M 176.9 38 C 177.4 38 178.1 37.9 178.6 37.5 C 178.6 37.5 178.6 38.1 178.6 38.1 C 178.1 38.4 177.5 38.5 176.9 38.5 C 175.2 38.5 173.8 37.1 173.8 35.2 C 173.8 33.3 175.2 31.9 176.9 31.9 C 177.5 31.9 178.1 32 178.6 32.4 C 178.6 32.4 178.6 32.9 178.6 32.9 C 178.1 32.5 177.5 32.4 176.9 32.4 C 175.6 32.4 174.3 33.5 174.3 35.2 C 174.3 36.9 175.6 38 176.9 38 Z M 180.4 28.9 L 181 28.9 L 181 38.4 L 180.4 38.4 L 180.4 28.9 Z M 182.8 35.2 C 182.8 33.3 184.2 31.9 185.9 31.9 C 187.5 31.9 188.9 33.3 188.9 35.2 C 188.9 37.2 187.5 38.5 185.9 38.5 C 184.2 38.5 182.8 37.2 182.8 35.2 Z M 188.4 35.2 C 188.4 33.4 187.2 32.4 185.9 32.4 C 184.6 32.4 183.3 33.4 183.3 35.2 C 183.3 37 184.6 38 185.9 38 C 187.2 38 188.4 37 188.4 35.2 Z M 190.6 29.7 C 190.6 29.5 190.8 29.3 191 29.3 C 191.2 29.3 191.4 29.5 191.4 29.7 C 191.4 29.9 191.2 30.1 191 30.1 C 190.8 30.1 190.6 29.9 190.6 29.7 Z M 190.8 32 L 191.3 32 L 191.3 38.4 L 190.8 38.4 L 190.8 32 Z M 197.1 32.5 C 197.1 32.5 197.1 33 197.1 33 C 196.6 32.7 196 32.4 195.3 32.4 C 194.4 32.4 193.7 32.9 193.7 33.6 C 193.7 34.3 194.4 34.6 195.4 34.9 C 196.4 35.3 197.4 35.6 197.4 36.7 C 197.4 37.8 196.6 38.5 195.3 38.5 C 194.5 38.5 193.8 38.3 193.1 37.8 C 193.1 37.8 193.1 37.1 193.1 37.1 C 193.7 37.7 194.4 38 195.3 38 C 196.3 38 196.9 37.5 196.9 36.7 C 196.9 36 196.2 35.7 195.2 35.3 C 194.1 35 193.2 34.7 193.2 33.6 C 193.2 32.6 194.1 31.9 195.3 31.9 C 196 31.9 196.6 32.1 197.1 32.5 Z M 198.7 35.2 C 198.7 33.3 200.1 31.9 201.8 31.9 C 203.5 31.9 204.8 33.3 204.8 35.2 C 204.8 37.2 203.5 38.5 201.8 38.5 C 200.1 38.5 198.7 37.2 198.7 35.2 Z M 204.3 35.2 C 204.3 33.4 203.1 32.4 201.8 32.4 C 200.5 32.4 199.2 33.4 199.2 35.2 C 199.2 37 200.5 38 201.8 38 C 203.1 38 204.3 37 204.3 35.2 Z M 211.4 34.2 C 211.43 34.16 211.4 38.4 211.4 38.4 L 210.9 38.4 C 210.9 38.4 210.93 34.37 210.9 34.4 C 210.9 33.1 210.3 32.4 209.1 32.4 C 208 32.4 207.1 33.1 207.1 34.3 C 207.15 34.31 207.1 38.4 207.1 38.4 L 206.6 38.4 L 206.6 32 L 207 32 L 207.1 33.2 C 207.1 33.2 207.11 33.16 207.1 33.2 C 207.5 32.4 208.2 31.9 209.2 31.9 C 210.5 31.9 211.4 32.8 211.4 34.2 Z M 217.2 32.5 C 217.2 32.5 217.2 33 217.2 33 C 216.7 32.7 216.1 32.4 215.4 32.4 C 214.4 32.4 213.8 32.9 213.8 33.6 C 213.8 34.3 214.5 34.6 215.5 34.9 C 216.5 35.3 217.5 35.6 217.5 36.7 C 217.5 37.8 216.6 38.5 215.3 38.5 C 214.6 38.5 213.8 38.3 213.2 37.8 C 213.2 37.8 213.2 37.1 213.2 37.1 C 213.7 37.7 214.5 38 215.3 38 C 216.3 38 217 37.5 217 36.7 C 217 36 216.3 35.7 215.2 35.3 C 214.2 35 213.3 34.7 213.3 33.6 C 213.3 32.6 214.1 31.9 215.4 31.9 C 216 31.9 216.7 32.1 217.2 32.5 Z M 231.6 34.1 C 231.58 34.08 231.6 38.4 231.6 38.4 L 231.1 38.4 C 231.1 38.4 231.08 34.13 231.1 34.1 C 231.1 33.1 230.6 32.4 229.6 32.4 C 228.6 32.4 228 33.2 228 34.1 C 227.97 34.14 228 38.4 228 38.4 L 227.5 38.4 C 227.5 38.4 227.46 34.13 227.5 34.1 C 227.5 33.1 227 32.4 226 32.4 C 224.9 32.4 224.4 33.2 224.4 34.2 C 224.35 34.16 224.4 38.4 224.4 38.4 L 223.9 38.4 L 223.9 32 L 224.2 32 L 224.3 33.1 C 224.3 33.1 224.32 33.08 224.3 33.1 C 224.6 32.4 225.2 31.9 226 31.9 C 227 31.9 227.6 32.4 227.8 33.2 C 228.1 32.4 228.7 31.9 229.6 31.9 C 230.9 31.9 231.6 32.8 231.6 34.1 Z M 233.3 35.2 C 233.3 33.3 234.7 31.9 236.4 31.9 C 238 31.9 239.4 33.3 239.4 35.2 C 239.4 37.2 238 38.5 236.4 38.5 C 234.7 38.5 233.3 37.2 233.3 35.2 Z M 238.9 35.2 C 238.9 33.4 237.7 32.4 236.4 32.4 C 235.1 32.4 233.8 33.4 233.8 35.2 C 233.8 37 235.1 38 236.4 38 C 237.7 38 238.9 37 238.9 35.2 Z M 240.8 35.2 C 240.8 33.2 242.2 31.9 243.7 31.9 C 244.7 31.9 245.7 32.5 246.2 33.6 C 246.17 33.58 246.2 28.9 246.2 28.9 L 246.7 28.9 L 246.7 38.4 L 246.3 38.4 L 246.2 36.8 C 246.2 36.8 246.2 36.79 246.2 36.8 C 245.7 38 244.7 38.5 243.7 38.5 C 242.2 38.5 240.8 37.2 240.8 35.2 Z M 246.2 35.2 C 246.2 33.5 245.1 32.4 243.7 32.4 C 242.4 32.4 241.3 33.5 241.3 35.2 C 241.3 36.9 242.4 38 243.7 38 C 245.1 38 246.2 36.9 246.2 35.2 Z M 248.9 36.1 C 248.87 36.08 248.9 32 248.9 32 L 249.4 32 C 249.4 32 249.37 36.11 249.4 36.1 C 249.4 37.3 250.1 38 251.3 38 C 252.4 38 253.2 37.3 253.2 36.1 C 253.17 36.1 253.2 32 253.2 32 L 253.7 32 C 253.7 32 253.67 36.07 253.7 36.1 C 253.7 37.5 252.7 38.5 251.3 38.5 C 249.8 38.5 248.9 37.5 248.9 36.1 Z M 255.9 28.9 L 256.4 28.9 L 256.4 38.4 L 255.9 38.4 L 255.9 28.9 Z M 258.3 35.2 C 258.3 33.2 259.7 31.9 261.2 31.9 C 262.2 31.9 263.2 32.5 263.7 33.6 C 263.68 33.62 263.8 32 263.8 32 L 264.1 32 L 264.1 38.4 L 263.8 38.4 C 263.8 38.4 263.68 36.8 263.7 36.8 C 263.2 38 262.2 38.5 261.2 38.5 C 259.7 38.5 258.3 37.2 258.3 35.2 Z M 263.7 35.2 C 263.7 33.5 262.6 32.4 261.2 32.4 C 259.9 32.4 258.8 33.5 258.8 35.2 C 258.8 36.9 259.9 38 261.2 38 C 262.5 38 263.7 36.9 263.7 35.2 Z M 266.9 33.6 C 267.4 32.5 268.4 31.9 269.4 31.9 C 270.9 31.9 272.3 33.2 272.3 35.2 C 272.3 37.2 270.9 38.5 269.4 38.5 C 268.4 38.5 267.4 38 266.9 36.8 C 266.89 36.79 266.8 38.4 266.8 38.4 L 266.4 38.4 L 266.4 28.9 L 266.9 28.9 C 266.9 28.9 266.93 33.59 266.9 33.6 Z M 266.9 35.2 C 266.9 36.9 268 38 269.4 38 C 270.7 38 271.8 36.9 271.8 35.2 C 271.8 33.5 270.7 32.4 269.4 32.4 C 268 32.4 266.9 33.5 266.9 35.2 Z M 274.2 28.9 L 274.7 28.9 L 274.7 38.4 L 274.2 38.4 L 274.2 28.9 Z M 282.1 35.4 C 282.1 35.4 277.1 35.4 277.1 35.4 C 277.1 37 278.2 38 279.6 38 C 280.4 38 281.2 37.8 281.9 37.1 C 281.9 37.1 281.9 37.7 281.9 37.7 C 281.2 38.2 280.4 38.5 279.6 38.5 C 277.8 38.5 276.6 37.2 276.6 35.2 C 276.6 33.2 278 31.9 279.5 31.9 C 280.9 31.9 282.1 33 282.1 35.1 C 282.1 35.2 282.1 35.3 282.1 35.4 Z M 281.6 34.9 C 281.6 33.2 280.6 32.4 279.5 32.4 C 278.3 32.4 277.2 33.4 277.1 34.9 C 277.1 34.9 281.6 34.9 281.6 34.9 Z M 287.5 32.5 C 287.5 32.5 287.5 33 287.5 33 C 287 32.7 286.4 32.4 285.7 32.4 C 284.7 32.4 284.1 32.9 284.1 33.6 C 284.1 34.3 284.8 34.6 285.8 34.9 C 286.8 35.3 287.8 35.6 287.8 36.7 C 287.8 37.8 286.9 38.5 285.6 38.5 C 284.9 38.5 284.1 38.3 283.5 37.8 C 283.5 37.8 283.5 37.1 283.5 37.1 C 284 37.7 284.8 38 285.6 38 C 286.6 38 287.3 37.5 287.3 36.7 C 287.3 36 286.6 35.7 285.6 35.3 C 284.5 35 283.6 34.7 283.6 33.6 C 283.6 32.6 284.4 31.9 285.7 31.9 C 286.3 31.9 287 32.1 287.5 32.5 Z M 289.5 37.4 C 289.47 37.44 289.5 37 289.5 37 L 290 37 C 290 37 289.97 37.43 290 37.4 C 290 38.4 289.6 39.4 289.3 40 C 289.3 40 288.9 40 288.9 40 C 289.2 39.4 289.5 38.4 289.5 37.4 Z M 296.6 29.7 C 296.6 29.5 296.8 29.3 297 29.3 C 297.3 29.3 297.4 29.5 297.4 29.7 C 297.4 29.9 297.3 30.1 297 30.1 C 296.8 30.1 296.6 29.9 296.6 29.7 Z M 296.8 32 L 297.3 32 L 297.3 38.4 L 296.8 38.4 L 296.8 32 Z M 299.6 28.9 L 300.1 28.9 L 300.1 38.4 L 299.6 38.4 L 299.6 28.9 Z " stroke="none" fill="#000"/>
  </g>
  <g id="Polygon29516">
    <path d="M 1.1 17.6 L 1.5 17.6 L 1.6 18.8 C 1.6 18.8 1.61 18.82 1.6 18.8 C 2 17.9 2.8 17.6 3.5 17.6 C 3.6 17.6 3.8 17.6 3.9 17.6 C 3.9 17.6 3.9 18.1 3.9 18.1 C 3.8 18.1 3.6 18.1 3.5 18.1 C 2.6 18.1 1.7 18.7 1.6 20 C 1.64 19.97 1.6 24 1.6 24 L 1.1 24 L 1.1 17.6 Z M 10 21 C 10 21 5 21 5 21 C 5 22.6 6.1 23.6 7.5 23.6 C 8.3 23.6 9.1 23.4 9.8 22.7 C 9.8 22.7 9.8 23.3 9.8 23.3 C 9.1 23.8 8.3 24.1 7.5 24.1 C 5.7 24.1 4.5 22.8 4.5 20.8 C 4.5 18.8 5.9 17.5 7.4 17.5 C 8.8 17.5 10 18.6 10 20.7 C 10 20.8 10 20.9 10 21 Z M 9.5 20.5 C 9.5 18.8 8.5 18 7.4 18 C 6.2 18 5.1 19 5 20.5 C 5 20.5 9.5 20.5 9.5 20.5 Z M 11.4 20.8 C 11.4 18.8 12.8 17.5 14.3 17.5 C 15.3 17.5 16.3 18.1 16.8 19.2 C 16.79 19.22 16.9 17.6 16.9 17.6 L 17.3 17.6 L 17.3 24 L 16.9 24 C 16.9 24 16.79 22.4 16.8 22.4 C 16.3 23.6 15.3 24.1 14.3 24.1 C 12.8 24.1 11.4 22.8 11.4 20.8 Z M 16.8 20.8 C 16.8 19.1 15.7 18 14.3 18 C 13 18 11.9 19.1 11.9 20.8 C 11.9 22.5 13 23.6 14.3 23.6 C 15.6 23.6 16.8 22.5 16.8 20.8 Z M 19.5 21.7 C 19.45 21.68 19.5 17.6 19.5 17.6 L 20 17.6 C 20 17.6 19.96 21.71 20 21.7 C 20 22.9 20.7 23.6 21.8 23.6 C 23 23.6 23.7 22.9 23.7 21.7 C 23.75 21.7 23.7 17.6 23.7 17.6 L 24.3 17.6 C 24.3 17.6 24.25 21.67 24.3 21.7 C 24.3 23.1 23.3 24.1 21.8 24.1 C 20.4 24.1 19.5 23.1 19.5 21.7 Z M 29.4 17.6 L 29.7 17.6 C 29.7 17.6 29.82 19.24 29.8 19.2 C 30.3 18.1 31.3 17.5 32.3 17.5 C 33.8 17.5 35.2 18.8 35.2 20.8 C 35.2 22.8 33.8 24.1 32.3 24.1 C 31.3 24.1 30.3 23.5 29.9 22.5 C 29.85 22.45 29.9 26.6 29.9 26.6 L 29.4 26.6 L 29.4 17.6 Z M 34.7 20.8 C 34.7 19.1 33.6 18 32.3 18 C 31 18 29.8 19.1 29.8 20.8 C 29.8 22.5 31 23.6 32.3 23.6 C 33.6 23.6 34.7 22.5 34.7 20.8 Z M 36.6 20.8 C 36.6 18.9 38 17.5 39.7 17.5 C 41.3 17.5 42.7 18.9 42.7 20.8 C 42.7 22.8 41.3 24.1 39.7 24.1 C 38 24.1 36.6 22.8 36.6 20.8 Z M 42.2 20.8 C 42.2 19 41 18 39.7 18 C 38.3 18 37.1 19 37.1 20.8 C 37.1 22.6 38.4 23.6 39.7 23.6 C 41 23.6 42.2 22.6 42.2 20.8 Z M 48.1 18.1 C 48.1 18.1 48.1 18.6 48.1 18.6 C 47.6 18.3 47 18 46.2 18 C 45.3 18 44.7 18.5 44.7 19.2 C 44.7 19.9 45.3 20.2 46.4 20.5 C 47.4 20.9 48.4 21.2 48.4 22.3 C 48.4 23.4 47.5 24.1 46.2 24.1 C 45.5 24.1 44.7 23.9 44.1 23.4 C 44.1 23.4 44.1 22.7 44.1 22.7 C 44.6 23.3 45.4 23.6 46.2 23.6 C 47.2 23.6 47.9 23.1 47.9 22.3 C 47.9 21.6 47.2 21.3 46.1 20.9 C 45.1 20.6 44.2 20.3 44.2 19.2 C 44.2 18.2 45 17.5 46.3 17.5 C 46.9 17.5 47.6 17.7 48.1 18.1 Z M 55.2 21 C 55.2 21 50.2 21 50.2 21 C 50.3 22.6 51.3 23.6 52.7 23.6 C 53.5 23.6 54.3 23.4 55 22.7 C 55 22.7 55 23.3 55 23.3 C 54.3 23.8 53.6 24.1 52.7 24.1 C 50.9 24.1 49.7 22.8 49.7 20.8 C 49.7 18.8 51.1 17.5 52.6 17.5 C 54.1 17.5 55.3 18.6 55.3 20.7 C 55.3 20.8 55.3 20.9 55.2 21 Z M 54.8 20.5 C 54.7 18.8 53.7 18 52.6 18 C 51.4 18 50.3 19 50.2 20.5 C 50.2 20.5 54.8 20.5 54.8 20.5 Z M 60 14.5 L 60.5 14.5 L 60.5 24 L 60 24 L 60 14.5 Z M 62.4 20.8 C 62.4 18.8 63.8 17.5 65.3 17.5 C 66.3 17.5 67.3 18.1 67.8 19.2 C 67.78 19.22 67.9 17.6 67.9 17.6 L 68.3 17.6 L 68.3 24 L 67.9 24 C 67.9 24 67.78 22.4 67.8 22.4 C 67.3 23.6 66.3 24.1 65.3 24.1 C 63.8 24.1 62.4 22.8 62.4 20.8 Z M 67.8 20.8 C 67.8 19.1 66.7 18 65.3 18 C 64 18 62.9 19.1 62.9 20.8 C 62.9 22.5 64 23.6 65.3 23.6 C 66.6 23.6 67.8 22.5 67.8 20.8 Z M 73.7 18.1 L 72.7 18.1 L 72.7 17.6 L 73.7 17.6 C 73.7 17.6 73.66 16.4 73.7 16.4 C 73.7 15.1 74.5 14.4 75.6 14.4 C 75.9 14.4 76.3 14.5 76.5 14.6 C 76.5 14.6 76.5 15.1 76.5 15.1 C 76.3 15 75.9 14.9 75.6 14.9 C 74.7 14.9 74.2 15.4 74.2 16.5 C 74.18 16.49 74.2 17.6 74.2 17.6 L 76.1 17.6 L 76.1 18.1 L 74.2 18.1 L 74.2 24 L 73.7 24 L 73.7 18.1 Z M 77.4 17.6 L 77.8 17.6 L 77.9 18.8 C 77.9 18.8 77.91 18.82 77.9 18.8 C 78.3 17.9 79.1 17.6 79.8 17.6 C 79.9 17.6 80.1 17.6 80.2 17.6 C 80.2 17.6 80.2 18.1 80.2 18.1 C 80.1 18.1 79.9 18.1 79.8 18.1 C 78.9 18.1 78 18.7 77.9 20 C 77.94 19.97 77.9 24 77.9 24 L 77.4 24 L 77.4 17.6 Z M 80.7 20.8 C 80.7 18.9 82.1 17.5 83.8 17.5 C 85.5 17.5 86.8 18.9 86.8 20.8 C 86.8 22.8 85.5 24.1 83.8 24.1 C 82.1 24.1 80.7 22.8 80.7 20.8 Z M 86.3 20.8 C 86.3 19 85.1 18 83.8 18 C 82.5 18 81.2 19 81.2 20.8 C 81.2 22.6 82.5 23.6 83.8 23.6 C 85.1 23.6 86.3 22.6 86.3 20.8 Z M 93.4 19.8 C 93.44 19.76 93.4 24 93.4 24 L 92.9 24 C 92.9 24 92.93 19.97 92.9 20 C 92.9 18.7 92.3 18 91.1 18 C 90 18 89.2 18.7 89.2 19.9 C 89.15 19.91 89.2 24 89.2 24 L 88.6 24 L 88.6 17.6 L 89 17.6 L 89.1 18.8 C 89.1 18.8 89.12 18.76 89.1 18.8 C 89.5 18 90.2 17.5 91.2 17.5 C 92.5 17.5 93.4 18.4 93.4 19.8 Z M 96.3 17.6 L 98.2 17.6 L 98.2 18.1 L 96.3 18.1 C 96.3 18.1 96.26 22 96.3 22 C 96.3 23.2 96.9 23.6 97.8 23.6 C 98 23.6 98.1 23.6 98.3 23.6 C 98.3 23.6 98.3 24 98.3 24 C 98.3 24 98 24.1 97.7 24.1 C 96.6 24.1 95.8 23.4 95.8 22 C 95.75 22.02 95.8 18.1 95.8 18.1 L 94.8 18.1 L 94.8 17.6 L 95.8 17.6 L 95.8 16.1 L 96.3 16.1 L 96.3 17.6 Z M 99.6 15.3 C 99.6 15.1 99.7 14.9 100 14.9 C 100.2 14.9 100.4 15.1 100.4 15.3 C 100.4 15.5 100.2 15.7 100 15.7 C 99.7 15.7 99.6 15.5 99.6 15.3 Z M 99.7 17.6 L 100.2 17.6 L 100.2 24 L 99.7 24 L 99.7 17.6 Z M 105.3 16.5 L 103.7 14.6 L 104.3 14.6 L 105.7 16.5 L 105.3 16.5 Z M 107.7 21 C 107.7 21 102.6 21 102.6 21 C 102.7 22.6 103.7 23.6 105.2 23.6 C 105.9 23.6 106.7 23.4 107.4 22.7 C 107.4 22.7 107.4 23.3 107.4 23.3 C 106.8 23.8 106 24.1 105.1 24.1 C 103.3 24.1 102.1 22.8 102.1 20.8 C 102.1 18.8 103.5 17.5 105.1 17.5 C 106.5 17.5 107.7 18.6 107.7 20.7 C 107.7 20.8 107.7 20.9 107.7 21 Z M 107.2 20.5 C 107.2 18.8 106.1 18 105.1 18 C 103.8 18 102.7 19 102.6 20.5 C 102.6 20.5 107.2 20.5 107.2 20.5 Z M 109.5 17.6 L 109.9 17.6 L 109.9 18.8 C 109.9 18.8 109.95 18.82 109.9 18.8 C 110.3 17.9 111.2 17.6 111.8 17.6 C 112 17.6 112.1 17.6 112.2 17.6 C 112.2 17.6 112.2 18.1 112.2 18.1 C 112.1 18.1 112 18.1 111.8 18.1 C 110.9 18.1 110 18.7 110 20 C 109.98 19.97 110 24 110 24 L 109.5 24 L 109.5 17.6 Z M 118.3 21 C 118.3 21 113.3 21 113.3 21 C 113.4 22.6 114.4 23.6 115.9 23.6 C 116.6 23.6 117.4 23.4 118.1 22.7 C 118.1 22.7 118.1 23.3 118.1 23.3 C 117.4 23.8 116.7 24.1 115.8 24.1 C 114 24.1 112.8 22.8 112.8 20.8 C 112.8 18.8 114.2 17.5 115.7 17.5 C 117.2 17.5 118.4 18.6 118.4 20.7 C 118.4 20.8 118.4 20.9 118.3 21 Z M 117.9 20.5 C 117.8 18.8 116.8 18 115.7 18 C 114.5 18 113.4 19 113.3 20.5 C 113.3 20.5 117.9 20.5 117.9 20.5 Z M 122.6 20.8 C 122.6 18.8 124 17.5 125.5 17.5 C 126.5 17.5 127.6 18.1 128 19.2 C 128.01 19.18 128 14.5 128 14.5 L 128.5 14.5 L 128.5 24 L 128.1 24 L 128 22.4 C 128 22.4 128.03 22.39 128 22.4 C 127.6 23.6 126.6 24.1 125.5 24.1 C 124 24.1 122.6 22.8 122.6 20.8 Z M 128 20.8 C 128 19.1 126.9 18 125.6 18 C 124.3 18 123.1 19.1 123.1 20.8 C 123.1 22.5 124.3 23.6 125.6 23.6 C 126.9 23.6 128 22.5 128 20.8 Z M 130.7 21.7 C 130.71 21.68 130.7 17.6 130.7 17.6 L 131.2 17.6 C 131.2 17.6 131.21 21.71 131.2 21.7 C 131.2 22.9 131.9 23.6 133.1 23.6 C 134.3 23.6 135 22.9 135 21.7 C 135 21.7 135 17.6 135 17.6 L 135.5 17.6 C 135.5 17.6 135.51 21.67 135.5 21.7 C 135.5 23.1 134.6 24.1 133.1 24.1 C 131.6 24.1 130.7 23.1 130.7 21.7 Z M 148.3 19.7 C 148.33 19.68 148.3 24 148.3 24 L 147.8 24 C 147.8 24 147.83 19.73 147.8 19.7 C 147.8 18.7 147.3 18 146.3 18 C 145.3 18 144.7 18.8 144.7 19.7 C 144.72 19.74 144.7 24 144.7 24 L 144.2 24 C 144.2 24 144.22 19.73 144.2 19.7 C 144.2 18.7 143.7 18 142.7 18 C 141.7 18 141.1 18.8 141.1 19.8 C 141.11 19.76 141.1 24 141.1 24 L 140.6 24 L 140.6 17.6 L 141 17.6 L 141.1 18.7 C 141.1 18.7 141.07 18.68 141.1 18.7 C 141.3 18 142 17.5 142.8 17.5 C 143.7 17.5 144.3 18 144.6 18.8 C 144.9 18 145.5 17.5 146.4 17.5 C 147.7 17.5 148.3 18.4 148.3 19.7 Z M 150.4 15.3 C 150.4 15.1 150.6 14.9 150.8 14.9 C 151.1 14.9 151.2 15.1 151.2 15.3 C 151.2 15.5 151.1 15.7 150.8 15.7 C 150.6 15.7 150.4 15.5 150.4 15.3 Z M 150.6 17.6 L 151.1 17.6 L 151.1 24 L 150.6 24 L 150.6 17.6 Z M 153.4 14.5 L 153.9 14.5 L 153.9 24 L 153.4 24 L 153.4 14.5 Z M 156.1 15.3 C 156.1 15.1 156.3 14.9 156.5 14.9 C 156.8 14.9 156.9 15.1 156.9 15.3 C 156.9 15.5 156.8 15.7 156.5 15.7 C 156.3 15.7 156.1 15.5 156.1 15.3 Z M 156.3 17.6 L 156.8 17.6 L 156.8 24 L 156.3 24 L 156.3 17.6 Z M 164.2 21 C 164.2 21 159.2 21 159.2 21 C 159.3 22.6 160.3 23.6 161.7 23.6 C 162.5 23.6 163.3 23.4 164 22.7 C 164 22.7 164 23.3 164 23.3 C 163.3 23.8 162.5 24.1 161.7 24.1 C 159.9 24.1 158.7 22.8 158.7 20.8 C 158.7 18.8 160.1 17.5 161.6 17.5 C 163 17.5 164.2 18.6 164.2 20.7 C 164.2 20.8 164.2 20.9 164.2 21 Z M 163.7 20.5 C 163.7 18.8 162.7 18 161.6 18 C 160.4 18 159.3 19 159.2 20.5 C 159.2 20.5 163.7 20.5 163.7 20.5 Z M 166 21.7 C 165.96 21.68 166 17.6 166 17.6 L 166.5 17.6 C 166.5 17.6 166.46 21.71 166.5 21.7 C 166.5 22.9 167.2 23.6 168.3 23.6 C 169.5 23.6 170.3 22.9 170.3 21.7 C 170.26 21.7 170.3 17.6 170.3 17.6 L 170.8 17.6 C 170.8 17.6 170.76 21.67 170.8 21.7 C 170.8 23.1 169.8 24.1 168.3 24.1 C 166.9 24.1 166 23.1 166 21.7 Z M 175.9 17.6 L 176.3 17.6 C 176.3 17.6 176.32 19.24 176.3 19.2 C 176.8 18.1 177.8 17.5 178.8 17.5 C 180.3 17.5 181.7 18.8 181.7 20.8 C 181.7 22.8 180.3 24.1 178.8 24.1 C 177.8 24.1 176.8 23.5 176.4 22.5 C 176.36 22.45 176.4 26.6 176.4 26.6 L 175.9 26.6 L 175.9 17.6 Z M 181.2 20.8 C 181.2 19.1 180.1 18 178.8 18 C 177.5 18 176.3 19.1 176.3 20.8 C 176.3 22.5 177.5 23.6 178.8 23.6 C 180.1 23.6 181.2 22.5 181.2 20.8 Z M 183.6 17.6 L 184 17.6 L 184 18.8 C 184 18.8 184.04 18.82 184 18.8 C 184.4 17.9 185.3 17.6 185.9 17.6 C 186.1 17.6 186.2 17.6 186.3 17.6 C 186.3 17.6 186.3 18.1 186.3 18.1 C 186.2 18.1 186.1 18.1 185.9 18.1 C 185 18.1 184.1 18.7 184.1 20 C 184.08 19.97 184.1 24 184.1 24 L 183.6 24 L 183.6 17.6 Z M 186.9 20.8 C 186.9 18.9 188.2 17.5 189.9 17.5 C 191.6 17.5 193 18.9 193 20.8 C 193 22.8 191.6 24.1 189.9 24.1 C 188.3 24.1 186.9 22.8 186.9 20.8 Z M 192.5 20.8 C 192.5 19 191.2 18 189.9 18 C 188.6 18 187.4 19 187.4 20.8 C 187.4 22.6 188.6 23.6 189.9 23.6 C 191.2 23.6 192.5 22.6 192.5 20.8 Z M 194.9 18.1 L 194 18.1 L 194 17.6 L 194.9 17.6 C 194.9 17.6 194.91 16.4 194.9 16.4 C 194.9 15.1 195.8 14.4 196.8 14.4 C 197.2 14.4 197.5 14.5 197.8 14.6 C 197.8 14.6 197.8 15.1 197.8 15.1 C 197.5 15 197.2 14.9 196.8 14.9 C 196 14.9 195.4 15.4 195.4 16.5 C 195.43 16.49 195.4 17.6 195.4 17.6 L 197.3 17.6 L 197.3 18.1 L 195.4 18.1 L 195.4 24 L 194.9 24 L 194.9 18.1 Z M 203.6 21 C 203.6 21 198.5 21 198.5 21 C 198.6 22.6 199.6 23.6 201.1 23.6 C 201.8 23.6 202.6 23.4 203.3 22.7 C 203.3 22.7 203.3 23.3 203.3 23.3 C 202.7 23.8 201.9 24.1 201 24.1 C 199.2 24.1 198 22.8 198 20.8 C 198 18.8 199.4 17.5 200.9 17.5 C 202.4 17.5 203.6 18.6 203.6 20.7 C 203.6 20.8 203.6 20.9 203.6 21 Z M 203.1 20.5 C 203.1 18.8 202 18 200.9 18 C 199.7 18 198.6 19 198.5 20.5 C 198.5 20.5 203.1 20.5 203.1 20.5 Z M 208.9 18.1 C 208.9 18.1 208.9 18.6 208.9 18.6 C 208.4 18.3 207.8 18 207.1 18 C 206.2 18 205.5 18.5 205.5 19.2 C 205.5 19.9 206.2 20.2 207.2 20.5 C 208.2 20.9 209.2 21.2 209.2 22.3 C 209.2 23.4 208.4 24.1 207.1 24.1 C 206.3 24.1 205.6 23.9 204.9 23.4 C 204.9 23.4 204.9 22.7 204.9 22.7 C 205.5 23.3 206.2 23.6 207.1 23.6 C 208.1 23.6 208.7 23.1 208.7 22.3 C 208.7 21.6 208 21.3 207 20.9 C 205.9 20.6 205 20.3 205 19.2 C 205 18.2 205.9 17.5 207.1 17.5 C 207.8 17.5 208.4 17.7 208.9 18.1 Z M 214.5 18.1 C 214.5 18.1 214.5 18.6 214.5 18.6 C 214 18.3 213.4 18 212.7 18 C 211.8 18 211.1 18.5 211.1 19.2 C 211.1 19.9 211.8 20.2 212.8 20.5 C 213.8 20.9 214.9 21.2 214.9 22.3 C 214.9 23.4 214 24.1 212.7 24.1 C 211.9 24.1 211.2 23.9 210.5 23.4 C 210.5 23.4 210.5 22.7 210.5 22.7 C 211.1 23.3 211.9 23.6 212.7 23.6 C 213.7 23.6 214.4 23.1 214.4 22.3 C 214.4 21.6 213.6 21.3 212.6 20.9 C 211.6 20.6 210.6 20.3 210.6 19.2 C 210.6 18.2 211.5 17.5 212.7 17.5 C 213.4 17.5 214.1 17.7 214.5 18.1 Z M 216.5 15.3 C 216.5 15.1 216.7 14.9 216.9 14.9 C 217.1 14.9 217.3 15.1 217.3 15.3 C 217.3 15.5 217.1 15.7 216.9 15.7 C 216.7 15.7 216.5 15.5 216.5 15.3 Z M 216.6 17.6 L 217.1 17.6 L 217.1 24 L 216.6 24 L 216.6 17.6 Z M 219 20.8 C 219 18.9 220.4 17.5 222.1 17.5 C 223.7 17.5 225.1 18.9 225.1 20.8 C 225.1 22.8 223.7 24.1 222.1 24.1 C 220.4 24.1 219 22.8 219 20.8 Z M 224.6 20.8 C 224.6 19 223.4 18 222.1 18 C 220.7 18 219.5 19 219.5 20.8 C 219.5 22.6 220.8 23.6 222.1 23.6 C 223.4 23.6 224.6 22.6 224.6 20.8 Z M 231.7 19.8 C 231.7 19.76 231.7 24 231.7 24 L 231.2 24 C 231.2 24 231.2 19.97 231.2 20 C 231.2 18.7 230.5 18 229.4 18 C 228.3 18 227.4 18.7 227.4 19.9 C 227.42 19.91 227.4 24 227.4 24 L 226.9 24 L 226.9 17.6 L 227.3 17.6 L 227.4 18.8 C 227.4 18.8 227.38 18.76 227.4 18.8 C 227.7 18 228.5 17.5 229.5 17.5 C 230.8 17.5 231.7 18.4 231.7 19.8 Z M 239 21 C 239 21 234 21 234 21 C 234 22.6 235.1 23.6 236.5 23.6 C 237.3 23.6 238.1 23.4 238.8 22.7 C 238.8 22.7 238.8 23.3 238.8 23.3 C 238.1 23.8 237.3 24.1 236.5 24.1 C 234.7 24.1 233.5 22.8 233.5 20.8 C 233.5 18.8 234.9 17.5 236.4 17.5 C 237.8 17.5 239 18.6 239 20.7 C 239 20.8 239 20.9 239 21 Z M 238.5 20.5 C 238.5 18.8 237.5 18 236.4 18 C 235.2 18 234.1 19 234 20.5 C 234 20.5 238.5 20.5 238.5 20.5 Z M 240.9 14.5 L 241.4 14.5 L 241.4 24 L 240.9 24 L 240.9 14.5 Z M 246.2 20.8 C 246.2 18.8 247.5 17.5 249.1 17.5 C 250.1 17.5 251.1 18.1 251.5 19.2 C 251.53 19.18 251.5 14.5 251.5 14.5 L 252 14.5 L 252 24 L 251.6 24 L 251.6 22.4 C 251.6 22.4 251.55 22.39 251.6 22.4 C 251.1 23.6 250.1 24.1 249.1 24.1 C 247.6 24.1 246.2 22.8 246.2 20.8 Z M 251.6 20.8 C 251.6 19.1 250.4 18 249.1 18 C 247.8 18 246.7 19.1 246.7 20.8 C 246.7 22.5 247.8 23.6 249.1 23.6 C 250.4 23.6 251.6 22.5 251.6 20.8 Z M 253.9 20.8 C 253.9 18.8 255.3 17.5 256.8 17.5 C 257.8 17.5 258.8 18.1 259.3 19.2 C 259.27 19.22 259.3 17.6 259.3 17.6 L 259.7 17.6 L 259.7 24 L 259.3 24 C 259.3 24 259.27 22.4 259.3 22.4 C 258.8 23.6 257.8 24.1 256.8 24.1 C 255.3 24.1 253.9 22.8 253.9 20.8 Z M 259.3 20.8 C 259.3 19.1 258.1 18 256.8 18 C 255.5 18 254.4 19.1 254.4 20.8 C 254.4 22.5 255.5 23.6 256.8 23.6 C 258.1 23.6 259.3 22.5 259.3 20.8 Z M 266.8 19.8 C 266.8 19.76 266.8 24 266.8 24 L 266.3 24 C 266.3 24 266.3 19.97 266.3 20 C 266.3 18.7 265.6 18 264.5 18 C 263.4 18 262.5 18.7 262.5 19.9 C 262.52 19.91 262.5 24 262.5 24 L 262 24 L 262 17.6 L 262.4 17.6 L 262.5 18.8 C 262.5 18.8 262.48 18.76 262.5 18.8 C 262.8 18 263.6 17.5 264.6 17.5 C 265.9 17.5 266.8 18.4 266.8 19.8 Z M 272.5 18.1 C 272.5 18.1 272.5 18.6 272.5 18.6 C 272 18.3 271.4 18 270.7 18 C 269.8 18 269.2 18.5 269.2 19.2 C 269.2 19.9 269.8 20.2 270.8 20.5 C 271.9 20.9 272.9 21.2 272.9 22.3 C 272.9 23.4 272 24.1 270.7 24.1 C 269.9 24.1 269.2 23.9 268.6 23.4 C 268.6 23.4 268.6 22.7 268.6 22.7 C 269.1 23.3 269.9 23.6 270.7 23.6 C 271.7 23.6 272.4 23.1 272.4 22.3 C 272.4 21.6 271.6 21.3 270.6 20.9 C 269.6 20.6 268.7 20.3 268.7 19.2 C 268.7 18.2 269.5 17.5 270.7 17.5 C 271.4 17.5 272.1 17.7 272.5 18.1 Z M 277.6 14.5 L 278.1 14.5 L 278.1 24 L 277.6 24 L 277.6 14.5 Z M 280.6 15.5 C 280.56 15.53 280.6 15.1 280.6 15.1 L 281.1 15.1 C 281.1 15.1 281.07 15.52 281.1 15.5 C 281.1 16.5 280.7 17.5 280.4 18.1 C 280.4 18.1 280 18.1 280 18.1 C 280.3 17.5 280.6 16.5 280.6 15.5 Z M 283.5 18.6 C 283.5 18.6 283.49 18.64 283.5 18.6 C 283.9 17.9 284.6 17.5 285.5 17.5 C 286.9 17.5 287.8 18.3 287.8 19.8 C 287.76 19.78 287.8 24 287.8 24 L 287.3 24 C 287.3 24 287.26 19.96 287.3 20 C 287.3 18.7 286.6 18 285.5 18 C 284.4 18 283.5 18.6 283.5 19.8 C 283.48 19.85 283.5 24 283.5 24 L 283 24 L 283 14.5 L 283.5 14.5 L 283.5 18.6 Z M 289.5 20.8 C 289.5 18.8 290.9 17.5 292.4 17.5 C 293.4 17.5 294.5 18.1 294.9 19.2 C 294.93 19.22 295 17.6 295 17.6 L 295.4 17.6 L 295.4 24 L 295 24 C 295 24 294.93 22.4 294.9 22.4 C 294.5 23.6 293.4 24.1 292.4 24.1 C 290.9 24.1 289.5 22.8 289.5 20.8 Z M 294.9 20.8 C 294.9 19.1 293.8 18 292.5 18 C 291.1 18 290 19.1 290 20.8 C 290 22.5 291.2 23.6 292.5 23.6 C 293.8 23.6 294.9 22.5 294.9 20.8 Z M 297.5 20.1 L 300.3 20.1 L 300.3 20.6 L 297.5 20.6 L 297.5 20.1 Z " stroke="none" fill="#000"/>
  </g>
  <g id="Polygon29515">
    <path d="M 1.4 0.7 L 5.8 0.7 L 5.8 1.2 L 1.9 1.2 L 1.9 4.8 L 5.5 4.8 L 5.5 5.3 L 1.9 5.3 L 1.9 9.1 L 5.8 9.1 L 5.8 9.6 L 1.4 9.6 L 1.4 0.7 Z M 12.6 5.4 C 12.59 5.36 12.6 9.6 12.6 9.6 L 12.1 9.6 C 12.1 9.6 12.08 5.57 12.1 5.6 C 12.1 4.3 11.4 3.6 10.3 3.6 C 9.2 3.6 8.3 4.3 8.3 5.5 C 8.3 5.51 8.3 9.6 8.3 9.6 L 7.8 9.6 L 7.8 3.2 L 8.2 3.2 L 8.3 4.4 C 8.3 4.4 8.27 4.36 8.3 4.4 C 8.6 3.6 9.4 3.1 10.3 3.1 C 11.7 3.1 12.6 4 12.6 5.4 Z M 18.6 3.2 L 19 3.2 L 19 4.4 C 19 4.4 19.05 4.42 19 4.4 C 19.4 3.5 20.3 3.2 20.9 3.2 C 21.1 3.2 21.2 3.2 21.3 3.2 C 21.3 3.2 21.3 3.7 21.3 3.7 C 21.2 3.7 21.1 3.7 20.9 3.7 C 20 3.7 19.1 4.3 19.1 5.6 C 19.08 5.57 19.1 9.6 19.1 9.6 L 18.6 9.6 L 18.6 3.2 Z M 24.6 2.1 L 24.1 2.1 L 25.6 0.2 L 26.2 0.2 L 24.6 2.1 Z M 27.4 6.6 C 27.4 6.6 22.4 6.6 22.4 6.6 C 22.5 8.2 23.5 9.2 25 9.2 C 25.7 9.2 26.5 9 27.2 8.3 C 27.2 8.3 27.2 8.9 27.2 8.9 C 26.5 9.4 25.8 9.7 24.9 9.7 C 23.1 9.7 21.9 8.4 21.9 6.4 C 21.9 4.4 23.3 3.1 24.8 3.1 C 26.3 3.1 27.5 4.2 27.5 6.3 C 27.5 6.4 27.5 6.5 27.4 6.6 Z M 27 6.1 C 26.9 4.4 25.9 3.6 24.8 3.6 C 23.6 3.6 22.5 4.6 22.4 6.1 C 22.4 6.1 27 6.1 27 6.1 Z M 29.5 3.7 L 28.5 3.7 L 28.5 3.2 L 29.5 3.2 C 29.5 3.2 29.45 2 29.5 2 C 29.5 0.7 30.3 0 31.4 0 C 31.7 0 32.1 0.1 32.3 0.2 C 32.3 0.2 32.3 0.7 32.3 0.7 C 32.1 0.6 31.7 0.5 31.4 0.5 C 30.5 0.5 30 1 30 2.1 C 29.97 2.09 30 3.2 30 3.2 L 31.9 3.2 L 31.9 3.7 L 30 3.7 L 30 9.6 L 29.5 9.6 L 29.5 3.7 Z M 33.4 0.1 L 33.9 0.1 L 33.9 9.6 L 33.4 9.6 L 33.4 0.1 Z M 38.5 2.1 L 38.1 2.1 L 39.5 0.2 L 40.1 0.2 L 38.5 2.1 Z M 41.4 6.6 C 41.4 6.6 36.3 6.6 36.3 6.6 C 36.4 8.2 37.4 9.2 38.9 9.2 C 39.6 9.2 40.5 9 41.1 8.3 C 41.1 8.3 41.1 8.9 41.1 8.9 C 40.5 9.4 39.7 9.7 38.8 9.7 C 37.1 9.7 35.8 8.4 35.8 6.4 C 35.8 4.4 37.2 3.1 38.8 3.1 C 40.2 3.1 41.4 4.2 41.4 6.3 C 41.4 6.4 41.4 6.5 41.4 6.6 Z M 40.9 6.1 C 40.9 4.4 39.8 3.6 38.8 3.6 C 37.5 3.6 36.4 4.6 36.3 6.1 C 36.3 6.1 40.9 6.1 40.9 6.1 Z M 45.8 9.2 C 46.3 9.2 47 9.1 47.5 8.7 C 47.5 8.7 47.5 9.3 47.5 9.3 C 47 9.6 46.4 9.7 45.8 9.7 C 44.1 9.7 42.7 8.3 42.7 6.4 C 42.7 4.5 44.1 3.1 45.8 3.1 C 46.4 3.1 47 3.2 47.5 3.6 C 47.5 3.6 47.5 4.1 47.5 4.1 C 47 3.7 46.4 3.6 45.8 3.6 C 44.5 3.6 43.2 4.7 43.2 6.4 C 43.2 8.1 44.5 9.2 45.8 9.2 Z M 49.8 4.2 C 49.8 4.2 49.83 4.24 49.8 4.2 C 50.2 3.5 51 3.1 51.8 3.1 C 53.2 3.1 54.1 3.9 54.1 5.4 C 54.1 5.38 54.1 9.6 54.1 9.6 L 53.6 9.6 C 53.6 9.6 53.59 5.56 53.6 5.6 C 53.6 4.3 53 3.6 51.8 3.6 C 50.8 3.6 49.8 4.2 49.8 5.4 C 49.81 5.45 49.8 9.6 49.8 9.6 L 49.3 9.6 L 49.3 0.1 L 49.8 0.1 L 49.8 4.2 Z M 56.2 0.9 C 56.2 0.7 56.4 0.5 56.6 0.5 C 56.8 0.5 57 0.7 57 0.9 C 57 1.1 56.8 1.3 56.6 1.3 C 56.4 1.3 56.2 1.1 56.2 0.9 Z M 56.3 3.2 L 56.8 3.2 L 56.8 9.6 L 56.3 9.6 L 56.3 3.2 Z M 62.7 3.7 C 62.7 3.7 62.7 4.2 62.7 4.2 C 62.2 3.9 61.6 3.6 60.9 3.6 C 59.9 3.6 59.3 4.1 59.3 4.8 C 59.3 5.5 60 5.8 61 6.1 C 62 6.5 63 6.8 63 7.9 C 63 9 62.2 9.7 60.9 9.7 C 60.1 9.7 59.3 9.5 58.7 9 C 58.7 9 58.7 8.3 58.7 8.3 C 59.3 8.9 60 9.2 60.9 9.2 C 61.9 9.2 62.5 8.7 62.5 7.9 C 62.5 7.2 61.8 6.9 60.8 6.5 C 59.7 6.2 58.8 5.9 58.8 4.8 C 58.8 3.8 59.7 3.1 60.9 3.1 C 61.6 3.1 62.2 3.3 62.7 3.7 Z M 68.3 3.7 C 68.3 3.7 68.3 4.2 68.3 4.2 C 67.8 3.9 67.2 3.6 66.5 3.6 C 65.6 3.6 64.9 4.1 64.9 4.8 C 64.9 5.5 65.6 5.8 66.6 6.1 C 67.6 6.5 68.6 6.8 68.6 7.9 C 68.6 9 67.8 9.7 66.5 9.7 C 65.7 9.7 65 9.5 64.3 9 C 64.3 9 64.3 8.3 64.3 8.3 C 64.9 8.9 65.6 9.2 66.5 9.2 C 67.5 9.2 68.1 8.7 68.1 7.9 C 68.1 7.2 67.4 6.9 66.4 6.5 C 65.3 6.2 64.4 5.9 64.4 4.8 C 64.4 3.8 65.3 3.1 66.5 3.1 C 67.2 3.1 67.8 3.3 68.3 3.7 Z M 69.9 6.4 C 69.9 4.4 71.3 3.1 72.8 3.1 C 73.9 3.1 74.9 3.7 75.4 4.8 C 75.35 4.82 75.4 3.2 75.4 3.2 L 75.8 3.2 L 75.8 9.6 L 75.4 9.6 C 75.4 9.6 75.35 8 75.4 8 C 74.9 9.2 73.9 9.7 72.9 9.7 C 71.3 9.7 69.9 8.4 69.9 6.4 Z M 75.3 6.4 C 75.3 4.7 74.2 3.6 72.9 3.6 C 71.6 3.6 70.4 4.7 70.4 6.4 C 70.4 8.1 71.6 9.2 72.9 9.2 C 74.2 9.2 75.3 8.1 75.3 6.4 Z M 82.9 5.4 C 82.88 5.36 82.9 9.6 82.9 9.6 L 82.4 9.6 C 82.4 9.6 82.38 5.57 82.4 5.6 C 82.4 4.3 81.7 3.6 80.6 3.6 C 79.5 3.6 78.6 4.3 78.6 5.5 C 78.6 5.51 78.6 9.6 78.6 9.6 L 78.1 9.6 L 78.1 3.2 L 78.5 3.2 L 78.6 4.4 C 78.6 4.4 78.56 4.36 78.6 4.4 C 78.9 3.6 79.7 3.1 80.6 3.1 C 82 3.1 82.9 4 82.9 5.4 Z M 85.7 3.2 L 87.6 3.2 L 87.6 3.7 L 85.7 3.7 C 85.7 3.7 85.7 7.6 85.7 7.6 C 85.7 8.8 86.3 9.2 87.2 9.2 C 87.4 9.2 87.6 9.2 87.8 9.2 C 87.8 9.2 87.8 9.6 87.8 9.6 C 87.7 9.6 87.5 9.7 87.2 9.7 C 86 9.7 85.2 9 85.2 7.6 C 85.2 7.62 85.2 3.7 85.2 3.7 L 84.2 3.7 L 84.2 3.2 L 85.2 3.2 L 85.2 1.7 L 85.7 1.7 L 85.7 3.2 Z M 92.4 6.4 C 92.4 4.4 93.8 3.1 95.3 3.1 C 96.3 3.1 97.3 3.7 97.8 4.8 C 97.82 4.82 97.9 3.2 97.9 3.2 L 98.3 3.2 L 98.3 9.6 L 97.9 9.6 C 97.9 9.6 97.82 8 97.8 8 C 97.3 9.2 96.3 9.7 95.3 9.7 C 93.8 9.7 92.4 8.4 92.4 6.4 Z M 97.8 6.4 C 97.8 4.7 96.7 3.6 95.4 3.6 C 94 3.6 92.9 4.7 92.9 6.4 C 92.9 8.1 94 9.2 95.4 9.2 C 96.7 9.2 97.8 8.1 97.8 6.4 Z M 100.5 7.3 C 100.48 7.28 100.5 3.2 100.5 3.2 L 101 3.2 C 101 3.2 100.98 7.31 101 7.3 C 101 8.5 101.7 9.2 102.9 9.2 C 104 9.2 104.8 8.5 104.8 7.3 C 104.78 7.3 104.8 3.2 104.8 3.2 L 105.3 3.2 C 105.3 3.2 105.28 7.27 105.3 7.3 C 105.3 8.7 104.3 9.7 102.9 9.7 C 101.4 9.7 100.5 8.7 100.5 7.3 Z M 109.6 6.4 L 111.8 9.6 L 111.3 9.6 L 109.3 6.8 L 109.3 6.8 L 107.3 9.6 L 106.7 9.6 L 109 6.4 L 106.7 3.2 L 107.3 3.2 L 109.3 6 L 109.3 6 L 111.2 3.2 L 111.8 3.2 L 109.6 6.4 Z M 117.6 4.8 C 118.1 3.7 119.1 3.1 120.1 3.1 C 121.6 3.1 123 4.4 123 6.4 C 123 8.4 121.6 9.7 120.1 9.7 C 119.1 9.7 118.1 9.2 117.6 8 C 117.59 7.99 117.5 9.6 117.5 9.6 L 117.1 9.6 L 117.1 0.1 L 117.6 0.1 C 117.6 0.1 117.63 4.79 117.6 4.8 Z M 117.6 6.4 C 117.6 8.1 118.7 9.2 120.1 9.2 C 121.4 9.2 122.5 8.1 122.5 6.4 C 122.5 4.7 121.4 3.6 120.1 3.6 C 118.7 3.6 117.6 4.7 117.6 6.4 Z M 130 6.6 C 130 6.6 124.9 6.6 124.9 6.6 C 125 8.2 126 9.2 127.5 9.2 C 128.2 9.2 129 9 129.7 8.3 C 129.7 8.3 129.7 8.9 129.7 8.9 C 129.1 9.4 128.3 9.7 127.4 9.7 C 125.6 9.7 124.4 8.4 124.4 6.4 C 124.4 4.4 125.8 3.1 127.3 3.1 C 128.8 3.1 130 4.2 130 6.3 C 130 6.4 130 6.5 130 6.6 Z M 129.5 6.1 C 129.5 4.4 128.4 3.6 127.3 3.6 C 126.1 3.6 125 4.6 124.9 6.1 C 124.9 6.1 129.5 6.1 129.5 6.1 Z M 135.3 3.7 C 135.3 3.7 135.3 4.2 135.3 4.2 C 134.8 3.9 134.2 3.6 133.5 3.6 C 132.6 3.6 131.9 4.1 131.9 4.8 C 131.9 5.5 132.6 5.8 133.6 6.1 C 134.6 6.5 135.6 6.8 135.6 7.9 C 135.6 9 134.8 9.7 133.5 9.7 C 132.7 9.7 132 9.5 131.3 9 C 131.3 9 131.3 8.3 131.3 8.3 C 131.9 8.9 132.6 9.2 133.5 9.2 C 134.5 9.2 135.1 8.7 135.1 7.9 C 135.1 7.2 134.4 6.9 133.4 6.5 C 132.3 6.2 131.4 5.9 131.4 4.8 C 131.4 3.8 132.3 3.1 133.5 3.1 C 134.2 3.1 134.8 3.3 135.3 3.7 Z M 136.9 6.4 C 136.9 4.5 138.3 3.1 140 3.1 C 141.7 3.1 143 4.5 143 6.4 C 143 8.4 141.7 9.7 140 9.7 C 138.3 9.7 136.9 8.4 136.9 6.4 Z M 142.5 6.4 C 142.5 4.6 141.3 3.6 140 3.6 C 138.7 3.6 137.4 4.6 137.4 6.4 C 137.4 8.2 138.7 9.2 140 9.2 C 141.3 9.2 142.5 8.2 142.5 6.4 Z M 144.7 0.9 C 144.7 0.7 144.9 0.5 145.1 0.5 C 145.4 0.5 145.5 0.7 145.5 0.9 C 145.5 1.1 145.4 1.3 145.1 1.3 C 144.9 1.3 144.7 1.1 144.7 0.9 Z M 144.9 3.2 L 145.4 3.2 L 145.4 9.6 L 144.9 9.6 L 144.9 3.2 Z M 152.5 5.4 C 152.49 5.36 152.5 9.6 152.5 9.6 L 152 9.6 C 152 9.6 151.99 5.57 152 5.6 C 152 4.3 151.3 3.6 150.2 3.6 C 149.1 3.6 148.2 4.3 148.2 5.5 C 148.2 5.51 148.2 9.6 148.2 9.6 L 147.7 9.6 L 147.7 3.2 L 148.1 3.2 L 148.2 4.4 C 148.2 4.4 148.17 4.36 148.2 4.4 C 148.5 3.6 149.3 3.1 150.2 3.1 C 151.6 3.1 152.5 4 152.5 5.4 Z M 158.2 3.7 C 158.2 3.7 158.2 4.2 158.2 4.2 C 157.7 3.9 157.1 3.6 156.4 3.6 C 155.5 3.6 154.8 4.1 154.8 4.8 C 154.8 5.5 155.5 5.8 156.5 6.1 C 157.5 6.5 158.5 6.8 158.5 7.9 C 158.5 9 157.7 9.7 156.4 9.7 C 155.6 9.7 154.9 9.5 154.2 9 C 154.2 9 154.2 8.3 154.2 8.3 C 154.8 8.9 155.5 9.2 156.4 9.2 C 157.4 9.2 158 8.7 158 7.9 C 158 7.2 157.3 6.9 156.3 6.5 C 155.2 6.2 154.3 5.9 154.3 4.8 C 154.3 3.8 155.2 3.1 156.4 3.1 C 157.1 3.1 157.7 3.3 158.2 3.7 Z M 164.1 0.1 L 164.6 0.1 L 164.6 9.6 L 164.1 9.6 L 164.1 0.1 Z M 166.8 0.9 C 166.8 0.7 167 0.5 167.2 0.5 C 167.5 0.5 167.6 0.7 167.6 0.9 C 167.6 1.1 167.5 1.3 167.2 1.3 C 167 1.3 166.8 1.1 166.8 0.9 Z M 167 3.2 L 167.5 3.2 L 167.5 9.6 L 167 9.6 L 167 3.2 Z M 172.1 2.1 L 171.6 2.1 L 173 0.2 L 173.6 0.2 L 172.1 2.1 Z M 174.9 6.6 C 174.9 6.6 169.9 6.6 169.9 6.6 C 170 8.2 171 9.2 172.4 9.2 C 173.2 9.2 174 9 174.7 8.3 C 174.7 8.3 174.7 8.9 174.7 8.9 C 174 9.4 173.2 9.7 172.4 9.7 C 170.6 9.7 169.4 8.4 169.4 6.4 C 169.4 4.4 170.8 3.1 172.3 3.1 C 173.7 3.1 174.9 4.2 174.9 6.3 C 174.9 6.4 174.9 6.5 174.9 6.6 Z M 174.4 6.1 C 174.4 4.4 173.4 3.6 172.3 3.6 C 171.1 3.6 170 4.6 169.9 6.1 C 169.9 6.1 174.4 6.1 174.4 6.1 Z M 180.3 3.7 C 180.3 3.7 180.3 4.2 180.3 4.2 C 179.8 3.9 179.2 3.6 178.5 3.6 C 177.5 3.6 176.9 4.1 176.9 4.8 C 176.9 5.5 177.6 5.8 178.6 6.1 C 179.6 6.5 180.6 6.8 180.6 7.9 C 180.6 9 179.7 9.7 178.4 9.7 C 177.7 9.7 176.9 9.5 176.3 9 C 176.3 9 176.3 8.3 176.3 8.3 C 176.9 8.9 177.6 9.2 178.4 9.2 C 179.5 9.2 180.1 8.7 180.1 7.9 C 180.1 7.2 179.4 6.9 178.4 6.5 C 177.3 6.2 176.4 5.9 176.4 4.8 C 176.4 3.8 177.2 3.1 178.5 3.1 C 179.2 3.1 179.8 3.3 180.3 3.7 Z M 185.7 6.4 C 185.7 4.4 187.1 3.1 188.6 3.1 C 189.6 3.1 190.6 3.7 191.1 4.8 C 191.11 4.82 191.2 3.2 191.2 3.2 L 191.6 3.2 L 191.6 9.6 L 191.2 9.6 C 191.2 9.6 191.11 8 191.1 8 C 190.6 9.2 189.6 9.7 188.6 9.7 C 187.1 9.7 185.7 8.4 185.7 6.4 Z M 191.1 6.4 C 191.1 4.7 190 3.6 188.6 3.6 C 187.3 3.6 186.2 4.7 186.2 6.4 C 186.2 8.1 187.3 9.2 188.7 9.2 C 190 9.2 191.1 8.1 191.1 6.4 Z M 193.8 7.3 C 193.77 7.28 193.8 3.2 193.8 3.2 L 194.3 3.2 C 194.3 3.2 194.28 7.31 194.3 7.3 C 194.3 8.5 195 9.2 196.2 9.2 C 197.3 9.2 198.1 8.5 198.1 7.3 C 198.07 7.3 198.1 3.2 198.1 3.2 L 198.6 3.2 C 198.6 3.2 198.57 7.27 198.6 7.3 C 198.6 8.7 197.6 9.7 196.2 9.7 C 194.7 9.7 193.8 8.7 193.8 7.3 Z M 205.1 3.2 L 207 3.2 L 207 3.7 L 205.1 3.7 C 205.1 3.7 205.11 7.6 205.1 7.6 C 205.1 8.8 205.8 9.2 206.7 9.2 C 206.8 9.2 207 9.2 207.2 9.2 C 207.2 9.2 207.2 9.6 207.2 9.6 C 207.1 9.6 206.9 9.7 206.6 9.7 C 205.4 9.7 204.6 9 204.6 7.6 C 204.61 7.62 204.6 3.7 204.6 3.7 L 203.6 3.7 L 203.6 3.2 L 204.6 3.2 L 204.6 1.7 L 205.1 1.7 L 205.1 3.2 Z M 210.7 2.1 L 210.3 2.1 L 211.7 0.2 L 212.3 0.2 L 210.7 2.1 Z M 213.6 6.6 C 213.6 6.6 208.5 6.6 208.5 6.6 C 208.6 8.2 209.6 9.2 211.1 9.2 C 211.8 9.2 212.7 9 213.3 8.3 C 213.3 8.3 213.3 8.9 213.3 8.9 C 212.7 9.4 211.9 9.7 211.1 9.7 C 209.3 9.7 208 8.4 208 6.4 C 208 4.4 209.4 3.1 211 3.1 C 212.4 3.1 213.6 4.2 213.6 6.3 C 213.6 6.4 213.6 6.5 213.6 6.6 Z M 213.1 6.1 C 213.1 4.4 212.1 3.6 211 3.6 C 209.8 3.6 208.6 4.6 208.5 6.1 C 208.5 6.1 213.1 6.1 213.1 6.1 Z M 215.4 0.1 L 215.9 0.1 L 215.9 9.6 L 215.4 9.6 L 215.4 0.1 Z M 220.5 2.1 L 220.1 2.1 L 221.5 0.2 L 222.1 0.2 L 220.5 2.1 Z M 223.4 6.6 C 223.4 6.6 218.3 6.6 218.3 6.6 C 218.4 8.2 219.4 9.2 220.9 9.2 C 221.6 9.2 222.5 9 223.1 8.3 C 223.1 8.3 223.1 8.9 223.1 8.9 C 222.5 9.4 221.7 9.7 220.8 9.7 C 219.1 9.7 217.8 8.4 217.8 6.4 C 217.8 4.4 219.2 3.1 220.8 3.1 C 222.2 3.1 223.4 4.2 223.4 6.3 C 223.4 6.4 223.4 6.5 223.4 6.6 Z M 222.9 6.1 C 222.9 4.4 221.8 3.6 220.8 3.6 C 219.6 3.6 218.4 4.6 218.3 6.1 C 218.3 6.1 222.9 6.1 222.9 6.1 Z M 225.8 3.2 L 227.7 3.2 L 227.7 3.7 L 225.8 3.7 C 225.8 3.7 225.81 7.6 225.8 7.6 C 225.8 8.8 226.5 9.2 227.4 9.2 C 227.5 9.2 227.7 9.2 227.9 9.2 C 227.9 9.2 227.9 9.6 227.9 9.6 C 227.8 9.6 227.6 9.7 227.3 9.7 C 226.1 9.7 225.3 9 225.3 7.6 C 225.31 7.62 225.3 3.7 225.3 3.7 L 224.3 3.7 L 224.3 3.2 L 225.3 3.2 L 225.3 1.7 L 225.8 1.7 L 225.8 3.2 Z M 229.2 3.2 L 229.7 3.2 L 229.7 4.4 C 229.7 4.4 229.71 4.42 229.7 4.4 C 230.1 3.5 231 3.2 231.6 3.2 C 231.7 3.2 231.9 3.2 232 3.2 C 232 3.2 232 3.7 232 3.7 C 231.9 3.7 231.7 3.7 231.6 3.7 C 230.7 3.7 229.8 4.3 229.8 5.6 C 229.75 5.57 229.8 9.6 229.8 9.6 L 229.2 9.6 L 229.2 3.2 Z M 232.5 6.4 C 232.5 4.4 234 3.1 235.5 3.1 C 236.5 3.1 237.5 3.7 238 4.8 C 237.96 4.82 238 3.2 238 3.2 L 238.4 3.2 L 238.4 9.6 L 238 9.6 C 238 9.6 237.96 8 238 8 C 237.5 9.2 236.5 9.7 235.5 9.7 C 234 9.7 232.5 8.4 232.5 6.4 Z M 237.9 6.4 C 237.9 4.7 236.8 3.6 235.5 3.6 C 234.2 3.6 233.1 4.7 233.1 6.4 C 233.1 8.1 234.2 9.2 235.5 9.2 C 236.8 9.2 237.9 8.1 237.9 6.4 Z M 240 3.2 L 240.5 3.2 L 242.6 9 L 242.6 9 L 244.7 3.2 L 245.2 3.2 L 242.9 9.6 L 242.3 9.6 L 240 3.2 Z M 246.1 6.4 C 246.1 4.4 247.5 3.1 249 3.1 C 250 3.1 251.1 3.7 251.5 4.8 C 251.53 4.82 251.6 3.2 251.6 3.2 L 252 3.2 L 252 9.6 L 251.6 9.6 C 251.6 9.6 251.53 8 251.5 8 C 251.1 9.2 250 9.7 249 9.7 C 247.5 9.7 246.1 8.4 246.1 6.4 Z M 251.5 6.4 C 251.5 4.7 250.4 3.6 249.1 3.6 C 247.8 3.6 246.6 4.7 246.6 6.4 C 246.6 8.1 247.8 9.2 249.1 9.2 C 250.4 9.2 251.5 8.1 251.5 6.4 Z M 254.2 0.9 C 254.2 0.7 254.3 0.5 254.6 0.5 C 254.8 0.5 255 0.7 255 0.9 C 255 1.1 254.8 1.3 254.6 1.3 C 254.3 1.3 254.2 1.1 254.2 0.9 Z M 254.3 3.2 L 254.8 3.2 L 254.8 9.6 L 254.3 9.6 L 254.3 3.2 Z M 257.2 0.1 L 257.7 0.1 L 257.7 9.6 L 257.2 9.6 L 257.2 0.1 Z M 259.9 8.6 C 259.91 8.64 259.9 8.2 259.9 8.2 L 260.4 8.2 C 260.4 8.2 260.41 8.63 260.4 8.6 C 260.4 9.6 260 10.6 259.8 11.2 C 259.8 11.2 259.4 11.2 259.4 11.2 C 259.6 10.6 259.9 9.6 259.9 8.6 Z M 269 9.2 C 269.5 9.2 270.1 9.1 270.7 8.7 C 270.7 8.7 270.7 9.3 270.7 9.3 C 270.2 9.6 269.6 9.7 269 9.7 C 267.3 9.7 265.9 8.3 265.9 6.4 C 265.9 4.5 267.2 3.1 269 3.1 C 269.6 3.1 270.2 3.2 270.7 3.6 C 270.7 3.6 270.7 4.1 270.7 4.1 C 270.1 3.7 269.6 3.6 269 3.6 C 267.6 3.6 266.4 4.7 266.4 6.4 C 266.4 8.1 267.6 9.2 269 9.2 Z M 277.4 6.6 C 277.4 6.6 272.4 6.6 272.4 6.6 C 272.5 8.2 273.5 9.2 274.9 9.2 C 275.7 9.2 276.5 9 277.2 8.3 C 277.2 8.3 277.2 8.9 277.2 8.9 C 276.5 9.4 275.7 9.7 274.9 9.7 C 273.1 9.7 271.9 8.4 271.9 6.4 C 271.9 4.4 273.3 3.1 274.8 3.1 C 276.2 3.1 277.5 4.2 277.5 6.3 C 277.5 6.4 277.4 6.5 277.4 6.6 Z M 277 6.1 C 276.9 4.4 275.9 3.6 274.8 3.6 C 273.6 3.6 272.5 4.6 272.4 6.1 C 272.4 6.1 277 6.1 277 6.1 Z M 283.6 4.8 C 284 3.7 285 3.1 286 3.1 C 287.5 3.1 288.9 4.4 288.9 6.4 C 288.9 8.4 287.5 9.7 286 9.7 C 285 9.7 284 9.2 283.5 8 C 283.51 7.99 283.4 9.6 283.4 9.6 L 283 9.6 L 283 0.1 L 283.6 0.1 C 283.6 0.1 283.55 4.79 283.6 4.8 Z M 283.5 6.4 C 283.5 8.1 284.7 9.2 286 9.2 C 287.3 9.2 288.4 8.1 288.4 6.4 C 288.4 4.7 287.3 3.6 286 3.6 C 284.7 3.6 283.5 4.7 283.5 6.4 Z M 290.7 7.3 C 290.68 7.28 290.7 3.2 290.7 3.2 L 291.2 3.2 C 291.2 3.2 291.18 7.31 291.2 7.3 C 291.2 8.5 291.9 9.2 293.1 9.2 C 294.2 9.2 295 8.5 295 7.3 C 294.98 7.3 295 3.2 295 3.2 L 295.5 3.2 C 295.5 3.2 295.48 7.27 295.5 7.3 C 295.5 8.7 294.5 9.7 293.1 9.7 C 291.6 9.7 290.7 8.7 290.7 7.3 Z M 297.5 5.7 L 300.3 5.7 L 300.3 6.2 L 297.5 6.2 L 297.5 5.7 Z " stroke="none" fill="#000"/>
  </g>
</svg>