<?xml version="1.0" standalone="no"?>
<!DOCTYPE svg PUBLIC "-//W3C//DTD SVG 1.1//EN" "http://www.w3.org/Graphics/SVG/1.1/DTD/svg11.dtd">
<svg xmlns="http://www.w3.org/2000/svg" version="1.1" width="115.2px" height="34.1px" viewBox="0 0 115.2 34.1">
  <desc>CINTRAGE</desc>
  <defs/>
  <g id="Polygon31071">
    <path d="M 8.6 16.6 C 4.2 16.6 0.6 13.4 0.6 8.7 C 0.6 3.9 4.2 0.7 8.6 0.7 C 10.3 0.7 11.7 1.2 12.9 1.7 C 12.9 1.7 12.9 6.1 12.9 6.1 C 11.7 5.2 10.6 4.8 9.2 4.8 C 6.8 4.8 5 6.4 5 8.7 C 5 10.9 6.8 12.6 9.2 12.6 C 10.6 12.6 11.6 12.1 12.9 11.2 C 12.9 11.2 12.9 15.6 12.9 15.6 C 11.7 16.2 10.3 16.6 8.6 16.6 Z M 15.1 1.1 L 19.5 1.1 L 19.5 16.3 L 15.1 16.3 L 15.1 1.1 Z M 36.1 16.3 L 31.8 16.3 L 26.4 8.1 L 26.3 8.1 L 26.3 16.3 L 22.1 16.3 L 22.1 1.1 L 26.4 1.1 L 31.8 9.1 L 31.9 9.1 L 31.9 1.1 L 36.1 1.1 L 36.1 16.3 Z M 41.9 5.1 L 37.8 5.1 L 37.8 1.1 L 50.5 1.1 L 50.5 5.1 L 46.4 5.1 L 46.4 16.3 L 41.9 16.3 L 41.9 5.1 Z M 64.9 16.3 L 59.6 16.3 L 56.8 11.6 L 56.7 11.6 L 56.7 16.3 L 52.2 16.3 L 52.2 1.1 C 52.2 1.1 57.63 1.08 57.6 1.1 C 61.4 1.1 64.1 2.8 64.1 6.4 C 64.1 7.8 63.4 9.9 60.9 10.9 C 60.93 10.92 64.9 16.3 64.9 16.3 Z M 57.6 8.3 C 58.7 8.3 59.6 7.7 59.6 6.7 C 59.6 5.6 58.7 5.1 57.6 5.1 C 57.59 5.08 56.7 5.1 56.7 5.1 L 56.7 8.3 C 56.7 8.3 57.61 8.25 57.6 8.3 Z M 76.5 16.3 L 75.5 13.3 L 70.4 13.3 L 69.5 16.3 L 64.9 16.3 L 70.4 1.1 L 75.5 1.1 L 81.1 16.3 L 76.5 16.3 Z M 71.6 9.7 L 74.3 9.7 L 72.9 5.6 L 71.6 9.7 Z M 89.1 12.7 C 89.7 12.7 90.2 12.5 90.7 12.3 C 90.67 12.32 90.7 8.1 90.7 8.1 L 94.7 8.1 C 94.7 8.1 94.67 14.88 94.7 14.9 C 93.2 15.9 91.4 16.6 89 16.6 C 84.7 16.6 80.9 13.6 80.9 8.7 C 80.9 3.8 84.7 0.7 89 0.7 C 91.1 0.7 92.7 1.2 93.9 1.9 C 93.9 1.9 93.9 6.2 93.9 6.2 C 92.6 5.1 91 4.8 89.7 4.8 C 87 4.8 85.4 6.6 85.4 8.8 C 85.4 11 86.9 12.7 89.1 12.7 Z M 96.8 1.1 L 107.3 1.1 L 107.3 5 L 101.2 5 L 101.2 6.9 L 106.7 6.9 L 106.7 10.4 L 101.2 10.4 L 101.2 12.3 L 107.3 12.3 L 107.3 16.3 L 96.8 16.3 L 96.8 1.1 Z " stroke="none" fill="#444443"/>
  </g>
</svg>