<?xml version="1.0" standalone="no"?>
<!DOCTYPE svg PUBLIC "-//W3C//DTD SVG 1.1//EN" "http://www.w3.org/Graphics/SVG/1.1/DTD/svg11.dtd">
<svg xmlns="http://www.w3.org/2000/svg" version="1.1" width="51.1px" height="13.4px" viewBox="0 0 51.1 13.4">
  <desc>Lecteur CD</desc>
  <defs/>
  <g id="Polygon20491">
    <path d="M 0.8 0.4 L 1.3 0.4 L 1.3 5.3 L 3.7 5.3 L 3.7 5.8 L 0.8 5.8 L 0.8 0.4 Z M 7.5 4 C 7.5 4 4.6 4 4.6 4 C 4.7 4.9 5.2 5.4 6 5.4 C 6.5 5.4 6.9 5.2 7.4 4.8 C 7.4 4.8 7.4 5.4 7.4 5.4 C 7 5.7 6.5 5.9 6 5.9 C 4.8 5.9 4.1 5.1 4.1 3.9 C 4.1 2.6 5 1.8 5.9 1.8 C 6.8 1.8 7.6 2.5 7.6 3.8 C 7.6 3.9 7.6 3.9 7.5 4 Z M 7.1 3.6 C 7.1 2.7 6.5 2.3 5.9 2.3 C 5.3 2.3 4.7 2.8 4.6 3.6 C 4.6 3.6 7.1 3.6 7.1 3.6 Z M 10.2 5.4 C 10.6 5.4 11 5.3 11.3 5.1 C 11.3 5.1 11.3 5.6 11.3 5.6 C 11 5.7 10.7 5.9 10.2 5.9 C 9.1 5.9 8.3 5 8.3 3.8 C 8.3 2.7 9.1 1.8 10.2 1.8 C 10.6 1.8 11 1.9 11.3 2.1 C 11.3 2.1 11.3 2.6 11.3 2.6 C 11 2.4 10.7 2.3 10.2 2.3 C 9.5 2.3 8.8 2.9 8.8 3.8 C 8.8 4.8 9.5 5.4 10.2 5.4 Z M 13 1.9 L 14.1 1.9 L 14.1 2.3 L 13 2.3 C 13 2.3 12.96 4.45 13 4.5 C 13 5.1 13.3 5.4 13.8 5.4 C 14 5.4 14.1 5.4 14.2 5.3 C 14.2 5.3 14.2 5.8 14.2 5.8 C 14.1 5.8 14 5.8 13.8 5.8 C 13 5.8 12.5 5.3 12.5 4.5 C 12.47 4.47 12.5 2.3 12.5 2.3 L 11.9 2.3 L 11.9 1.9 L 12.5 1.9 L 12.5 1 L 13 1 L 13 1.9 Z M 18.2 4 C 18.2 4 15.2 4 15.2 4 C 15.3 4.9 15.9 5.4 16.6 5.4 C 17.1 5.4 17.6 5.2 18 4.8 C 18 4.8 18 5.4 18 5.4 C 17.6 5.7 17.1 5.9 16.6 5.9 C 15.5 5.9 14.7 5.1 14.7 3.9 C 14.7 2.6 15.6 1.8 16.6 1.8 C 17.5 1.8 18.2 2.5 18.2 3.8 C 18.2 3.9 18.2 3.9 18.2 4 Z M 17.7 3.6 C 17.7 2.7 17.1 2.3 16.6 2.3 C 15.9 2.3 15.3 2.8 15.2 3.6 C 15.2 3.6 17.7 3.6 17.7 3.6 Z M 19.2 4.3 C 19.16 4.31 19.2 1.9 19.2 1.9 L 19.6 1.9 C 19.6 1.9 19.65 4.34 19.6 4.3 C 19.6 5 20 5.4 20.7 5.4 C 21.3 5.4 21.7 5 21.7 4.3 C 21.72 4.33 21.7 1.9 21.7 1.9 L 22.2 1.9 C 22.2 1.9 22.21 4.31 22.2 4.3 C 22.2 5.2 21.6 5.9 20.7 5.9 C 19.7 5.9 19.2 5.2 19.2 4.3 Z M 23.5 1.9 L 23.8 1.9 L 23.9 2.5 C 23.9 2.5 23.91 2.53 23.9 2.5 C 24.2 2 24.7 1.9 25 1.9 C 25.1 1.9 25.2 1.9 25.3 1.9 C 25.3 1.9 25.3 2.4 25.3 2.4 C 25.2 2.3 25.1 2.3 25 2.3 C 24.5 2.3 23.9 2.7 23.9 3.5 C 23.94 3.46 23.9 5.8 23.9 5.8 L 23.5 5.8 L 23.5 1.9 Z M 30.3 5.9 C 28.9 5.9 27.7 4.8 27.7 3.1 C 27.7 1.4 28.9 0.3 30.3 0.3 C 30.9 0.3 31.4 0.5 31.7 0.7 C 31.7 0.7 31.7 1.2 31.7 1.2 C 31.3 1 30.9 0.8 30.3 0.8 C 29.3 0.8 28.2 1.6 28.2 3.1 C 28.2 4.5 29.3 5.4 30.3 5.4 C 30.9 5.4 31.3 5.2 31.7 5 C 31.7 5 31.7 5.5 31.7 5.5 C 31.4 5.7 30.9 5.9 30.3 5.9 Z M 36.9 3.1 C 36.9 4.7 35.7 5.8 34 5.8 C 34.04 5.77 32.8 5.8 32.8 5.8 L 32.8 0.4 C 32.8 0.4 34.04 0.41 34 0.4 C 35.8 0.4 36.9 1.5 36.9 3.1 Z M 33.3 5.3 C 33.3 5.3 34.06 5.3 34.1 5.3 C 35.4 5.3 36.4 4.5 36.4 3.1 C 36.4 1.7 35.4 0.9 34.1 0.9 C 34.07 0.88 33.3 0.9 33.3 0.9 L 33.3 5.3 Z " stroke="none" fill="#fff"/>
  </g>
</svg>