<?xml version="1.0" standalone="no"?>
<!DOCTYPE svg PUBLIC "-//W3C//DTD SVG 1.1//EN" "http://www.w3.org/Graphics/SVG/1.1/DTD/svg11.dtd">
<svg xmlns="http://www.w3.org/2000/svg" version="1.1" width="153px" height="34.1px" viewBox="0 0 153 34.1">
  <desc>LECTEUR CD</desc>
  <defs/>
  <g id="Polygon26263">
    <path d="M 1.3 1.1 L 5.7 1.1 L 5.7 12.2 L 11.7 12.2 L 11.7 16.2 L 1.3 16.2 L 1.3 1.1 Z M 13.4 1.1 L 23.9 1.1 L 23.9 5 L 17.8 5 L 17.8 6.8 L 23.3 6.8 L 23.3 10.4 L 17.8 10.4 L 17.8 12.3 L 23.9 12.3 L 23.9 16.2 L 13.4 16.2 L 13.4 1.1 Z M 33.3 16.6 C 28.8 16.6 25.2 13.4 25.2 8.7 C 25.2 3.9 28.8 0.7 33.3 0.7 C 35 0.7 36.4 1.2 37.5 1.7 C 37.5 1.7 37.5 6 37.5 6 C 36.3 5.2 35.2 4.8 33.8 4.8 C 31.4 4.8 29.7 6.4 29.7 8.7 C 29.7 10.9 31.4 12.6 33.8 12.6 C 35.2 12.6 36.3 12.1 37.5 11.2 C 37.5 11.2 37.5 15.5 37.5 15.5 C 36.4 16.1 35 16.6 33.3 16.6 Z M 42.9 5.1 L 38.8 5.1 L 38.8 1.1 L 51.5 1.1 L 51.5 5.1 L 47.4 5.1 L 47.4 16.2 L 42.9 16.2 L 42.9 5.1 Z M 53.2 1.1 L 63.7 1.1 L 63.7 5 L 57.6 5 L 57.6 6.8 L 63.1 6.8 L 63.1 10.4 L 57.6 10.4 L 57.6 12.3 L 63.7 12.3 L 63.7 16.2 L 53.2 16.2 L 53.2 1.1 Z M 65.8 10.1 C 65.79 10.07 65.8 1.1 65.8 1.1 L 70.2 1.1 C 70.2 1.1 70.22 10.03 70.2 10 C 70.2 11.7 71 12.6 72.5 12.6 C 73.9 12.6 74.8 11.7 74.8 10 C 74.78 10.01 74.8 1.1 74.8 1.1 L 79.2 1.1 C 79.2 1.1 79.23 10.07 79.2 10.1 C 79.2 13.9 76.7 16.6 72.5 16.6 C 68.3 16.6 65.8 13.9 65.8 10.1 Z M 94.3 16.2 L 89.1 16.2 L 86.2 11.6 L 86.1 11.6 L 86.1 16.2 L 81.7 16.2 L 81.7 1.1 C 81.7 1.1 87.09 1.08 87.1 1.1 C 90.9 1.1 93.5 2.8 93.5 6.4 C 93.5 7.8 92.9 9.8 90.4 10.9 C 90.37 10.9 94.3 16.2 94.3 16.2 Z M 87.1 8.2 C 88.2 8.2 89.1 7.7 89.1 6.7 C 89.1 5.6 88.2 5.1 87 5.1 C 87.05 5.07 86.1 5.1 86.1 5.1 L 86.1 8.2 C 86.1 8.2 87.07 8.24 87.1 8.2 Z M 107.7 16.6 C 103.3 16.6 99.7 13.4 99.7 8.7 C 99.7 3.9 103.3 0.7 107.7 0.7 C 109.5 0.7 110.8 1.2 112 1.7 C 112 1.7 112 6 112 6 C 110.8 5.2 109.7 4.8 108.3 4.8 C 105.9 4.8 104.2 6.4 104.2 8.7 C 104.2 10.9 105.9 12.6 108.3 12.6 C 109.7 12.6 110.8 12.1 112 11.2 C 112 11.2 112 15.5 112 15.5 C 110.8 16.1 109.5 16.6 107.7 16.6 Z M 127.7 8.7 C 127.7 13.2 124.3 16.2 119.3 16.2 C 119.3 16.24 114.2 16.2 114.2 16.2 L 114.2 1.1 C 114.2 1.1 119.3 1.08 119.3 1.1 C 124.3 1.1 127.7 4.1 127.7 8.7 Z M 118.6 12.2 C 118.6 12.2 119.46 12.24 119.5 12.2 C 121.8 12.2 123.2 10.9 123.2 8.7 C 123.2 6.4 121.8 5.1 119.5 5.1 C 119.46 5.07 118.6 5.1 118.6 5.1 L 118.6 12.2 Z " stroke="none" fill="#444443"/>
  </g>
</svg>