<?xml version="1.0" standalone="no"?>
<!DOCTYPE svg PUBLIC "-//W3C//DTD SVG 1.1//EN" "http://www.w3.org/Graphics/SVG/1.1/DTD/svg11.dtd">
<svg xmlns="http://www.w3.org/2000/svg" version="1.1" width="340.1px" height="191.4px" viewBox="0 0 340.1 191.4">
  <desc>Adoptant une forme de trap ze, le bureau rend accessible facilement tout objet Il est aussi plus profond que les bur</desc>
  <defs/>
  <g id="Polygon29717">
    <path d="M 0.7 64 C 0.7 62.1 2.1 60.7 3.7 60.7 C 5.4 60.7 6.8 62.1 6.8 64 C 6.8 66 5.4 67.3 3.7 67.3 C 2.1 67.3 0.7 66 0.7 64 Z M 6.3 64 C 6.3 62.2 5 61.2 3.7 61.2 C 2.4 61.2 1.2 62.2 1.2 64 C 1.2 65.8 2.4 66.8 3.7 66.8 C 5 66.8 6.3 65.8 6.3 64 Z M 9.1 62.4 C 9.5 61.3 10.6 60.7 11.6 60.7 C 13.1 60.7 14.5 62 14.5 64 C 14.5 66 13.1 67.3 11.6 67.3 C 10.5 67.3 9.5 66.8 9.1 65.6 C 9.06 65.59 9 67.2 9 67.2 L 8.6 67.2 L 8.6 57.7 L 9.1 57.7 C 9.1 57.7 9.1 62.39 9.1 62.4 Z M 9.1 64 C 9.1 65.7 10.2 66.8 11.5 66.8 C 12.8 66.8 14 65.7 14 64 C 14 62.3 12.9 61.2 11.5 61.2 C 10.2 61.2 9.1 62.3 9.1 64 Z M 16.2 58.5 C 16.2 58.3 16.4 58.1 16.6 58.1 C 16.8 58.1 17 58.3 17 58.5 C 17 58.7 16.8 58.9 16.6 58.9 C 16.4 58.9 16.2 58.7 16.2 58.5 Z M 16.4 66.5 C 16.36 66.52 16.4 60.8 16.4 60.8 L 16.9 60.8 C 16.9 60.8 16.86 66.53 16.9 66.5 C 16.9 68 16.5 68.9 15.9 69.8 C 15.9 69.8 15.2 69.8 15.2 69.8 C 16 69 16.4 68 16.4 66.5 Z M 24.3 64.2 C 24.3 64.2 19.2 64.2 19.2 64.2 C 19.3 65.8 20.4 66.8 21.8 66.8 C 22.6 66.8 23.4 66.6 24.1 65.9 C 24.1 65.9 24.1 66.5 24.1 66.5 C 23.4 67 22.6 67.3 21.8 67.3 C 20 67.3 18.7 66 18.7 64 C 18.7 62 20.1 60.7 21.7 60.7 C 23.1 60.7 24.3 61.8 24.3 63.9 C 24.3 64 24.3 64.1 24.3 64.2 Z M 23.8 63.7 C 23.8 62 22.8 61.2 21.7 61.2 C 20.5 61.2 19.4 62.2 19.2 63.7 C 19.2 63.7 23.8 63.7 23.8 63.7 Z M 26.7 60.8 L 28.6 60.8 L 28.6 61.3 L 26.7 61.3 C 26.7 61.3 26.73 65.2 26.7 65.2 C 26.7 66.4 27.4 66.8 28.3 66.8 C 28.5 66.8 28.6 66.8 28.8 66.8 C 28.8 66.8 28.8 67.2 28.8 67.2 C 28.7 67.2 28.5 67.3 28.2 67.3 C 27.1 67.3 26.2 66.6 26.2 65.2 C 26.23 65.22 26.2 61.3 26.2 61.3 L 25.2 61.3 L 25.2 60.8 L 26.2 60.8 L 26.2 59.3 L 26.7 59.3 L 26.7 60.8 Z M 33.7 61.3 C 33.7 61.3 33.7 61.8 33.7 61.8 C 33.2 61.5 32.6 61.2 31.9 61.2 C 30.9 61.2 30.3 61.7 30.3 62.4 C 30.3 63.1 31 63.4 32 63.7 C 33 64.1 34 64.4 34 65.5 C 34 66.6 33.2 67.3 31.9 67.3 C 31.1 67.3 30.3 67.1 29.7 66.6 C 29.7 66.6 29.7 65.9 29.7 65.9 C 30.3 66.5 31 66.8 31.9 66.8 C 32.9 66.8 33.5 66.3 33.5 65.5 C 33.5 64.8 32.8 64.5 31.8 64.1 C 30.7 63.8 29.8 63.5 29.8 62.4 C 29.8 61.4 30.7 60.7 31.9 60.7 C 32.6 60.7 33.2 60.9 33.7 61.3 Z M 42.8 61.3 C 42.8 61.3 42.8 61.8 42.8 61.8 C 42.3 61.5 41.7 61.2 41 61.2 C 40 61.2 39.4 61.7 39.4 62.4 C 39.4 63.1 40.1 63.4 41.1 63.7 C 42.1 64.1 43.1 64.4 43.1 65.5 C 43.1 66.6 42.3 67.3 41 67.3 C 40.2 67.3 39.4 67.1 38.8 66.6 C 38.8 66.6 38.8 65.9 38.8 65.9 C 39.4 66.5 40.1 66.8 41 66.8 C 42 66.8 42.6 66.3 42.6 65.5 C 42.6 64.8 41.9 64.5 40.9 64.1 C 39.8 63.8 38.9 63.5 38.9 62.4 C 38.9 61.4 39.8 60.7 41 60.7 C 41.7 60.7 42.3 60.9 42.8 61.3 Z M 50 64.2 C 50 64.2 44.9 64.2 44.9 64.2 C 45 65.8 46 66.8 47.5 66.8 C 48.3 66.8 49.1 66.6 49.8 65.9 C 49.8 65.9 49.8 66.5 49.8 66.5 C 49.1 67 48.3 67.3 47.5 67.3 C 45.7 67.3 44.4 66 44.4 64 C 44.4 62 45.8 60.7 47.4 60.7 C 48.8 60.7 50 61.8 50 63.9 C 50 64 50 64.1 50 64.2 Z M 49.5 63.7 C 49.5 62 48.5 61.2 47.4 61.2 C 46.2 61.2 45 62.2 44.9 63.7 C 44.9 63.7 49.5 63.7 49.5 63.7 Z M 51.8 57.7 L 52.3 57.7 L 52.3 67.2 L 51.8 67.2 L 51.8 57.7 Z M 54.2 64 C 54.2 62.1 55.6 60.7 57.3 60.7 C 58.9 60.7 60.3 62.1 60.3 64 C 60.3 66 58.9 67.3 57.3 67.3 C 55.6 67.3 54.2 66 54.2 64 Z M 59.8 64 C 59.8 62.2 58.5 61.2 57.3 61.2 C 55.9 61.2 54.7 62.2 54.7 64 C 54.7 65.8 56 66.8 57.3 66.8 C 58.5 66.8 59.8 65.8 59.8 64 Z M 66.9 63 C 66.9 62.96 66.9 67.2 66.9 67.2 L 66.4 67.2 C 66.4 67.2 66.4 63.17 66.4 63.2 C 66.4 61.9 65.7 61.2 64.6 61.2 C 63.5 61.2 62.6 61.9 62.6 63.1 C 62.61 63.11 62.6 67.2 62.6 67.2 L 62.1 67.2 L 62.1 60.8 L 62.5 60.8 L 62.6 62 C 62.6 62 62.58 61.96 62.6 62 C 62.9 61.2 63.7 60.7 64.7 60.7 C 66 60.7 66.9 61.6 66.9 63 Z M 72.6 57.7 L 73.1 57.7 L 73.1 67.2 L 72.6 67.2 L 72.6 57.7 Z M 80.5 64.2 C 80.5 64.2 75.5 64.2 75.5 64.2 C 75.6 65.8 76.6 66.8 78 66.8 C 78.8 66.8 79.6 66.6 80.3 65.9 C 80.3 65.9 80.3 66.5 80.3 66.5 C 79.6 67 78.8 67.3 78 67.3 C 76.2 67.3 75 66 75 64 C 75 62 76.4 60.7 77.9 60.7 C 79.3 60.7 80.6 61.8 80.6 63.9 C 80.6 64 80.5 64.1 80.5 64.2 Z M 80.1 63.7 C 80 62 79 61.2 77.9 61.2 C 76.7 61.2 75.6 62.2 75.5 63.7 C 75.5 63.7 80.1 63.7 80.1 63.7 Z M 82.3 64.9 C 82.27 64.88 82.3 60.8 82.3 60.8 L 82.8 60.8 C 82.8 60.8 82.77 64.91 82.8 64.9 C 82.8 66.1 83.5 66.8 84.7 66.8 C 85.8 66.8 86.6 66.1 86.6 64.9 C 86.57 64.9 86.6 60.8 86.6 60.8 L 87.1 60.8 C 87.1 60.8 87.07 64.87 87.1 64.9 C 87.1 66.3 86.1 67.3 84.7 67.3 C 83.2 67.3 82.3 66.3 82.3 64.9 Z M 89.3 60.8 L 89.7 60.8 L 89.7 62 C 89.7 62 89.73 62.02 89.7 62 C 90.1 61.1 91 60.8 91.6 60.8 C 91.7 60.8 91.9 60.8 92 60.8 C 92 60.8 92 61.3 92 61.3 C 91.9 61.3 91.7 61.3 91.6 61.3 C 90.7 61.3 89.8 61.9 89.8 63.2 C 89.77 63.17 89.8 67.2 89.8 67.2 L 89.3 67.2 L 89.3 60.8 Z M 96.4 58.5 C 96.4 58.3 96.6 58.1 96.8 58.1 C 97 58.1 97.2 58.3 97.2 58.5 C 97.2 58.7 97 58.9 96.8 58.9 C 96.6 58.9 96.4 58.7 96.4 58.5 Z M 96.5 60.8 L 97 60.8 L 97 67.2 L 96.5 67.2 L 96.5 60.8 Z M 107.1 62.9 C 107.08 62.88 107.1 67.2 107.1 67.2 L 106.6 67.2 C 106.6 67.2 106.58 62.93 106.6 62.9 C 106.6 61.9 106.1 61.2 105.1 61.2 C 104.1 61.2 103.5 62 103.5 62.9 C 103.47 62.94 103.5 67.2 103.5 67.2 L 103 67.2 C 103 67.2 102.97 62.93 103 62.9 C 103 61.9 102.5 61.2 101.5 61.2 C 100.4 61.2 99.9 62 99.9 63 C 99.86 62.96 99.9 67.2 99.9 67.2 L 99.4 67.2 L 99.4 60.8 L 99.8 60.8 L 99.8 61.9 C 99.8 61.9 99.82 61.88 99.8 61.9 C 100.1 61.2 100.7 60.7 101.5 60.7 C 102.5 60.7 103.1 61.2 103.3 62 C 103.6 61.2 104.2 60.7 105.2 60.7 C 106.5 60.7 107.1 61.6 107.1 62.9 Z M 109.3 60.8 L 109.7 60.8 C 109.7 60.8 109.76 62.44 109.8 62.4 C 110.2 61.3 111.3 60.7 112.3 60.7 C 113.8 60.7 115.2 62 115.2 64 C 115.2 66 113.8 67.3 112.3 67.3 C 111.2 67.3 110.2 66.7 109.8 65.7 C 109.8 65.65 109.8 69.8 109.8 69.8 L 109.3 69.8 L 109.3 60.8 Z M 114.7 64 C 114.7 62.3 113.6 61.2 112.2 61.2 C 110.9 61.2 109.8 62.3 109.8 64 C 109.8 65.7 110.9 66.8 112.2 66.8 C 113.5 66.8 114.7 65.7 114.7 64 Z M 116.6 64 C 116.6 62.1 117.9 60.7 119.6 60.7 C 121.3 60.7 122.6 62.1 122.6 64 C 122.6 66 121.3 67.3 119.6 67.3 C 117.9 67.3 116.6 66 116.6 64 Z M 122.1 64 C 122.1 62.2 120.9 61.2 119.6 61.2 C 118.3 61.2 117.1 62.2 117.1 64 C 117.1 65.8 118.3 66.8 119.6 66.8 C 120.9 66.8 122.1 65.8 122.1 64 Z M 124.5 60.8 L 124.9 60.8 L 124.9 62 C 124.9 62 124.93 62.02 124.9 62 C 125.3 61.1 126.2 60.8 126.8 60.8 C 126.9 60.8 127.1 60.8 127.2 60.8 C 127.2 60.8 127.2 61.3 127.2 61.3 C 127.1 61.3 126.9 61.3 126.8 61.3 C 125.9 61.3 125 61.9 125 63.2 C 124.96 63.17 125 67.2 125 67.2 L 124.5 67.2 L 124.5 60.8 Z M 129.2 60.8 L 131.1 60.8 L 131.1 61.3 L 129.2 61.3 C 129.2 61.3 129.21 65.2 129.2 65.2 C 129.2 66.4 129.8 66.8 130.7 66.8 C 130.9 66.8 131.1 66.8 131.3 66.8 C 131.3 66.8 131.3 67.2 131.3 67.2 C 131.2 67.2 131 67.3 130.7 67.3 C 129.5 67.3 128.7 66.6 128.7 65.2 C 128.71 65.22 128.7 61.3 128.7 61.3 L 127.7 61.3 L 127.7 60.8 L 128.7 60.8 L 128.7 59.3 L 129.2 59.3 L 129.2 60.8 Z M 132.1 64 C 132.1 62 133.5 60.7 135 60.7 C 136 60.7 137 61.3 137.5 62.4 C 137.52 62.42 137.6 60.8 137.6 60.8 L 138 60.8 L 138 67.2 L 137.6 67.2 C 137.6 67.2 137.52 65.6 137.5 65.6 C 137 66.8 136 67.3 135 67.3 C 133.5 67.3 132.1 66 132.1 64 Z M 137.5 64 C 137.5 62.3 136.4 61.2 135.1 61.2 C 133.7 61.2 132.6 62.3 132.6 64 C 132.6 65.7 133.7 66.8 135.1 66.8 C 136.4 66.8 137.5 65.7 137.5 64 Z M 145.1 63 C 145.05 62.96 145.1 67.2 145.1 67.2 L 144.5 67.2 C 144.5 67.2 144.55 63.17 144.5 63.2 C 144.5 61.9 143.9 61.2 142.7 61.2 C 141.7 61.2 140.8 61.9 140.8 63.1 C 140.77 63.11 140.8 67.2 140.8 67.2 L 140.3 67.2 L 140.3 60.8 L 140.7 60.8 L 140.7 62 C 140.7 62 140.73 61.96 140.7 62 C 141.1 61.2 141.8 60.7 142.8 60.7 C 144.2 60.7 145.1 61.6 145.1 63 Z M 149.9 66.8 C 150.4 66.8 151 66.7 151.6 66.3 C 151.6 66.3 151.6 66.9 151.6 66.9 C 151.1 67.2 150.5 67.3 149.9 67.3 C 148.1 67.3 146.8 65.9 146.8 64 C 146.8 62.1 148.1 60.7 149.9 60.7 C 150.5 60.7 151.1 60.8 151.6 61.2 C 151.6 61.2 151.6 61.7 151.6 61.7 C 151 61.3 150.5 61.2 149.9 61.2 C 148.5 61.2 147.3 62.3 147.3 64 C 147.3 65.7 148.5 66.8 149.9 66.8 Z M 158.3 64.2 C 158.3 64.2 153.3 64.2 153.3 64.2 C 153.4 65.8 154.4 66.8 155.8 66.8 C 156.6 66.8 157.4 66.6 158.1 65.9 C 158.1 65.9 158.1 66.5 158.1 66.5 C 157.4 67 156.6 67.3 155.8 67.3 C 154 67.3 152.8 66 152.8 64 C 152.8 62 154.2 60.7 155.7 60.7 C 157.1 60.7 158.3 61.8 158.3 63.9 C 158.3 64 158.3 64.1 158.3 64.2 Z M 157.8 63.7 C 157.8 62 156.8 61.2 155.7 61.2 C 154.5 61.2 153.4 62.2 153.3 63.7 C 153.3 63.7 157.8 63.7 157.8 63.7 Z M 159.9 66.8 C 159.9 66.5 160.1 66.3 160.4 66.3 C 160.7 66.3 160.9 66.5 160.9 66.8 C 160.9 67 160.7 67.2 160.4 67.2 C 160.1 67.2 159.9 67 159.9 66.8 Z " stroke="none" fill="#000"/>
  </g>
  <g id="Polygon29716">
    <path d="M 4.7 46.9 C 4.7 46.9 4.7 47.4 4.7 47.4 C 4.2 47.1 3.6 46.8 2.9 46.8 C 1.9 46.8 1.3 47.3 1.3 48 C 1.3 48.7 2 49 3 49.3 C 4 49.7 5 50 5 51.1 C 5 52.2 4.1 52.9 2.8 52.9 C 2.1 52.9 1.3 52.7 0.7 52.2 C 0.7 52.2 0.7 51.5 0.7 51.5 C 1.2 52.1 2 52.4 2.8 52.4 C 3.9 52.4 4.5 51.9 4.5 51.1 C 4.5 50.4 3.8 50.1 2.8 49.7 C 1.7 49.4 0.8 49.1 0.8 48 C 0.8 47 1.6 46.3 2.9 46.3 C 3.6 46.3 4.2 46.5 4.7 46.9 Z M 6.3 49.6 C 6.3 47.7 7.7 46.3 9.3 46.3 C 11 46.3 12.4 47.7 12.4 49.6 C 12.4 51.6 11 52.9 9.3 52.9 C 7.7 52.9 6.3 51.6 6.3 49.6 Z M 11.9 49.6 C 11.9 47.8 10.6 46.8 9.3 46.8 C 8 46.8 6.8 47.8 6.8 49.6 C 6.8 51.4 8.1 52.4 9.3 52.4 C 10.6 52.4 11.9 51.4 11.9 49.6 Z M 14.1 44.1 C 14.1 43.9 14.3 43.7 14.5 43.7 C 14.7 43.7 14.9 43.9 14.9 44.1 C 14.9 44.3 14.7 44.5 14.5 44.5 C 14.3 44.5 14.1 44.3 14.1 44.1 Z M 14.2 46.4 L 14.7 46.4 L 14.7 52.8 L 14.2 52.8 L 14.2 46.4 Z M 16.8 52.4 C 16.8 52.1 17 51.9 17.3 51.9 C 17.6 51.9 17.8 52.1 17.8 52.4 C 17.8 52.6 17.6 52.8 17.3 52.8 C 17 52.8 16.8 52.6 16.8 52.4 Z M 23.4 43.9 L 23.9 43.9 L 23.9 52.8 L 23.4 52.8 L 23.4 43.9 Z M 26.5 43.3 L 27 43.3 L 27 52.8 L 26.5 52.8 L 26.5 43.3 Z M 37.8 49.8 C 37.8 49.8 32.7 49.8 32.7 49.8 C 32.8 51.4 33.8 52.4 35.3 52.4 C 36 52.4 36.9 52.2 37.5 51.5 C 37.5 51.5 37.5 52.1 37.5 52.1 C 36.9 52.6 36.1 52.9 35.3 52.9 C 33.5 52.9 32.2 51.6 32.2 49.6 C 32.2 47.6 33.6 46.3 35.2 46.3 C 36.6 46.3 37.8 47.4 37.8 49.5 C 37.8 49.6 37.8 49.7 37.8 49.8 Z M 37.3 49.3 C 37.3 47.6 36.3 46.8 35.2 46.8 C 34 46.8 32.8 47.8 32.7 49.3 C 32.7 49.3 37.3 49.3 37.3 49.3 Z M 43.2 46.9 C 43.2 46.9 43.2 47.4 43.2 47.4 C 42.6 47.1 42 46.8 41.3 46.8 C 40.4 46.8 39.8 47.3 39.8 48 C 39.8 48.7 40.4 49 41.4 49.3 C 42.5 49.7 43.5 50 43.5 51.1 C 43.5 52.2 42.6 52.9 41.3 52.9 C 40.5 52.9 39.8 52.7 39.2 52.2 C 39.2 52.2 39.2 51.5 39.2 51.5 C 39.7 52.1 40.5 52.4 41.3 52.4 C 42.3 52.4 43 51.9 43 51.1 C 43 50.4 42.2 50.1 41.2 49.7 C 40.2 49.4 39.3 49.1 39.3 48 C 39.3 47 40.1 46.3 41.3 46.3 C 42 46.3 42.7 46.5 43.2 46.9 Z M 45.9 46.4 L 47.8 46.4 L 47.8 46.9 L 45.9 46.9 C 45.9 46.9 45.9 50.8 45.9 50.8 C 45.9 52 46.5 52.4 47.4 52.4 C 47.6 52.4 47.8 52.4 48 52.4 C 48 52.4 48 52.8 48 52.8 C 47.9 52.8 47.7 52.9 47.4 52.9 C 46.2 52.9 45.4 52.2 45.4 50.8 C 45.4 50.82 45.4 46.9 45.4 46.9 L 44.4 46.9 L 44.4 46.4 L 45.4 46.4 L 45.4 44.9 L 45.9 44.9 L 45.9 46.4 Z M 52.1 49.6 C 52.1 47.6 53.5 46.3 55 46.3 C 56.1 46.3 57.1 46.9 57.5 48 C 57.55 48.02 57.6 46.4 57.6 46.4 L 58 46.4 L 58 52.8 L 57.6 52.8 C 57.6 52.8 57.55 51.2 57.5 51.2 C 57.1 52.4 56.1 52.9 55 52.9 C 53.5 52.9 52.1 51.6 52.1 49.6 Z M 57.5 49.6 C 57.5 47.9 56.4 46.8 55.1 46.8 C 53.8 46.8 52.6 47.9 52.6 49.6 C 52.6 51.3 53.8 52.4 55.1 52.4 C 56.4 52.4 57.5 51.3 57.5 49.6 Z M 60.2 44.1 C 60.2 43.9 60.4 43.7 60.6 43.7 C 60.8 43.7 61 43.9 61 44.1 C 61 44.3 60.8 44.5 60.6 44.5 C 60.4 44.5 60.2 44.3 60.2 44.1 Z M 60.3 46.4 L 60.8 46.4 L 60.8 52.8 L 60.3 52.8 L 60.3 46.4 Z M 67.9 48.6 C 67.94 48.56 67.9 52.8 67.9 52.8 L 67.4 52.8 C 67.4 52.8 67.43 48.77 67.4 48.8 C 67.4 47.5 66.8 46.8 65.6 46.8 C 64.5 46.8 63.7 47.5 63.7 48.7 C 63.65 48.71 63.7 52.8 63.7 52.8 L 63.1 52.8 L 63.1 46.4 L 63.5 46.4 L 63.6 47.6 C 63.6 47.6 63.62 47.56 63.6 47.6 C 64 46.8 64.7 46.3 65.7 46.3 C 67 46.3 67.9 47.2 67.9 48.6 Z M 73.7 46.9 C 73.7 46.9 73.7 47.4 73.7 47.4 C 73.2 47.1 72.6 46.8 71.9 46.8 C 70.9 46.8 70.3 47.3 70.3 48 C 70.3 48.7 71 49 72 49.3 C 73 49.7 74 50 74 51.1 C 74 52.2 73.1 52.9 71.8 52.9 C 71.1 52.9 70.3 52.7 69.7 52.2 C 69.7 52.2 69.7 51.5 69.7 51.5 C 70.2 52.1 71 52.4 71.8 52.4 C 72.8 52.4 73.5 51.9 73.5 51.1 C 73.5 50.4 72.8 50.1 71.8 49.7 C 70.7 49.4 69.8 49.1 69.8 48 C 69.8 47 70.6 46.3 71.9 46.3 C 72.5 46.3 73.2 46.5 73.7 46.9 Z M 75.6 44.1 C 75.6 43.9 75.8 43.7 76 43.7 C 76.3 43.7 76.4 43.9 76.4 44.1 C 76.4 44.3 76.3 44.5 76 44.5 C 75.8 44.5 75.6 44.3 75.6 44.1 Z M 75.8 46.4 L 76.3 46.4 L 76.3 52.8 L 75.8 52.8 L 75.8 46.4 Z M 82.4 48 C 82.9 46.9 83.9 46.3 84.9 46.3 C 86.4 46.3 87.8 47.6 87.8 49.6 C 87.8 51.6 86.4 52.9 84.9 52.9 C 83.9 52.9 82.9 52.4 82.4 51.2 C 82.4 51.19 82.3 52.8 82.3 52.8 L 81.9 52.8 L 81.9 43.3 L 82.4 43.3 C 82.4 43.3 82.44 47.99 82.4 48 Z M 82.4 49.6 C 82.4 51.3 83.6 52.4 84.9 52.4 C 86.2 52.4 87.3 51.3 87.3 49.6 C 87.3 47.9 86.2 46.8 84.9 46.8 C 83.5 46.8 82.4 47.9 82.4 49.6 Z M 89.5 44.1 C 89.5 43.9 89.7 43.7 89.9 43.7 C 90.2 43.7 90.3 43.9 90.3 44.1 C 90.3 44.3 90.2 44.5 89.9 44.5 C 89.7 44.5 89.5 44.3 89.5 44.1 Z M 89.7 46.4 L 90.2 46.4 L 90.2 52.8 L 89.7 52.8 L 89.7 46.4 Z M 97.6 49.8 C 97.6 49.8 92.6 49.8 92.6 49.8 C 92.6 51.4 93.7 52.4 95.1 52.4 C 95.9 52.4 96.7 52.2 97.4 51.5 C 97.4 51.5 97.4 52.1 97.4 52.1 C 96.7 52.6 95.9 52.9 95.1 52.9 C 93.3 52.9 92.1 51.6 92.1 49.6 C 92.1 47.6 93.5 46.3 95 46.3 C 96.4 46.3 97.6 47.4 97.6 49.5 C 97.6 49.6 97.6 49.7 97.6 49.8 Z M 97.1 49.3 C 97.1 47.6 96.1 46.8 95 46.8 C 93.8 46.8 92.7 47.8 92.6 49.3 C 92.6 49.3 97.1 49.3 97.1 49.3 Z M 104.2 48.6 C 104.23 48.56 104.2 52.8 104.2 52.8 L 103.7 52.8 C 103.7 52.8 103.73 48.77 103.7 48.8 C 103.7 47.5 103.1 46.8 101.9 46.8 C 100.8 46.8 99.9 47.5 99.9 48.7 C 99.95 48.71 99.9 52.8 99.9 52.8 L 99.4 52.8 L 99.4 46.4 L 99.8 46.4 L 99.9 47.6 C 99.9 47.6 99.91 47.56 99.9 47.6 C 100.3 46.8 101 46.3 102 46.3 C 103.3 46.3 104.2 47.2 104.2 48.6 Z M 109.8 46.4 L 110.2 46.4 C 110.2 46.4 110.22 48.04 110.2 48 C 110.7 46.9 111.7 46.3 112.7 46.3 C 114.2 46.3 115.6 47.6 115.6 49.6 C 115.6 51.6 114.2 52.9 112.7 52.9 C 111.7 52.9 110.7 52.3 110.3 51.3 C 110.26 51.25 110.3 55.4 110.3 55.4 L 109.8 55.4 L 109.8 46.4 Z M 115.1 49.6 C 115.1 47.9 114 46.8 112.7 46.8 C 111.4 46.8 110.2 47.9 110.2 49.6 C 110.2 51.3 111.4 52.4 112.7 52.4 C 114 52.4 115.1 51.3 115.1 49.6 Z M 117.5 43.3 L 118 43.3 L 118 52.8 L 117.5 52.8 L 117.5 43.3 Z M 120.2 50.5 C 120.24 50.48 120.2 46.4 120.2 46.4 L 120.7 46.4 C 120.7 46.4 120.75 50.51 120.7 50.5 C 120.7 51.7 121.5 52.4 122.6 52.4 C 123.8 52.4 124.5 51.7 124.5 50.5 C 124.54 50.5 124.5 46.4 124.5 46.4 L 125 46.4 C 125 46.4 125.04 50.47 125 50.5 C 125 51.9 124.1 52.9 122.6 52.9 C 121.2 52.9 120.2 51.9 120.2 50.5 Z M 130.8 46.9 C 130.8 46.9 130.8 47.4 130.8 47.4 C 130.3 47.1 129.7 46.8 129 46.8 C 128 46.8 127.4 47.3 127.4 48 C 127.4 48.7 128.1 49 129.1 49.3 C 130.1 49.7 131.1 50 131.1 51.1 C 131.1 52.2 130.2 52.9 128.9 52.9 C 128.2 52.9 127.4 52.7 126.8 52.2 C 126.8 52.2 126.8 51.5 126.8 51.5 C 127.3 52.1 128.1 52.4 128.9 52.4 C 130 52.4 130.6 51.9 130.6 51.1 C 130.6 50.4 129.9 50.1 128.9 49.7 C 127.8 49.4 126.9 49.1 126.9 48 C 126.9 47 127.7 46.3 129 46.3 C 129.7 46.3 130.3 46.5 130.8 46.9 Z M 136.4 46.9 L 135.5 46.9 L 135.5 46.4 L 136.4 46.4 C 136.4 46.4 136.41 45.2 136.4 45.2 C 136.4 43.9 137.3 43.2 138.3 43.2 C 138.7 43.2 139 43.3 139.3 43.4 C 139.3 43.4 139.3 43.9 139.3 43.9 C 139 43.8 138.7 43.7 138.3 43.7 C 137.5 43.7 136.9 44.2 136.9 45.3 C 136.93 45.29 136.9 46.4 136.9 46.4 L 138.8 46.4 L 138.8 46.9 L 136.9 46.9 L 136.9 52.8 L 136.4 52.8 L 136.4 46.9 Z M 139.5 49.6 C 139.5 47.6 140.9 46.3 142.4 46.3 C 143.4 46.3 144.4 46.9 144.9 48 C 144.9 48.02 145 46.4 145 46.4 L 145.4 46.4 L 145.4 52.8 L 145 52.8 C 145 52.8 144.9 51.2 144.9 51.2 C 144.4 52.4 143.4 52.9 142.4 52.9 C 140.9 52.9 139.5 51.6 139.5 49.6 Z M 144.9 49.6 C 144.9 47.9 143.8 46.8 142.4 46.8 C 141.1 46.8 140 47.9 140 49.6 C 140 51.3 141.1 52.4 142.4 52.4 C 143.8 52.4 144.9 51.3 144.9 49.6 Z M 150.3 52.4 C 150.8 52.4 151.4 52.3 152 51.9 C 152 51.9 152 52.5 152 52.5 C 151.5 52.8 150.9 52.9 150.3 52.9 C 148.5 52.9 147.2 51.5 147.2 49.6 C 147.2 47.7 148.5 46.3 150.3 46.3 C 150.8 46.3 151.4 46.4 152 46.8 C 152 46.8 152 47.3 152 47.3 C 151.4 46.9 150.8 46.8 150.2 46.8 C 148.9 46.8 147.7 47.9 147.7 49.6 C 147.7 51.3 148.9 52.4 150.3 52.4 Z M 153.7 44.1 C 153.7 43.9 153.8 43.7 154.1 43.7 C 154.3 43.7 154.5 43.9 154.5 44.1 C 154.5 44.3 154.3 44.5 154.1 44.5 C 153.8 44.5 153.7 44.3 153.7 44.1 Z M 153.8 46.4 L 154.3 46.4 L 154.3 52.8 L 153.8 52.8 L 153.8 46.4 Z M 156.7 43.3 L 157.2 43.3 L 157.2 52.8 L 156.7 52.8 L 156.7 43.3 Z M 164.6 49.8 C 164.6 49.8 159.5 49.8 159.5 49.8 C 159.6 51.4 160.7 52.4 162.1 52.4 C 162.9 52.4 163.7 52.2 164.4 51.5 C 164.4 51.5 164.4 52.1 164.4 52.1 C 163.7 52.6 162.9 52.9 162.1 52.9 C 160.3 52.9 159 51.6 159 49.6 C 159 47.6 160.4 46.3 162 46.3 C 163.4 46.3 164.6 47.4 164.6 49.5 C 164.6 49.6 164.6 49.7 164.6 49.8 Z M 164.1 49.3 C 164.1 47.6 163.1 46.8 162 46.8 C 160.8 46.8 159.7 47.8 159.5 49.3 C 159.5 49.3 164.1 49.3 164.1 49.3 Z M 169.3 49.6 C 169.3 47.6 170.7 46.3 172.2 46.3 C 173.2 46.3 174.2 46.9 174.7 48 C 174.68 47.98 174.7 43.3 174.7 43.3 L 175.2 43.3 L 175.2 52.8 L 174.8 52.8 L 174.7 51.2 C 174.7 51.2 174.7 51.19 174.7 51.2 C 174.2 52.4 173.2 52.9 172.2 52.9 C 170.7 52.9 169.3 51.6 169.3 49.6 Z M 174.7 49.6 C 174.7 47.9 173.6 46.8 172.3 46.8 C 170.9 46.8 169.8 47.9 169.8 49.6 C 169.8 51.3 170.9 52.4 172.3 52.4 C 173.6 52.4 174.7 51.3 174.7 49.6 Z M 182.6 49.8 C 182.6 49.8 177.5 49.8 177.5 49.8 C 177.6 51.4 178.6 52.4 180.1 52.4 C 180.8 52.4 181.7 52.2 182.3 51.5 C 182.3 51.5 182.3 52.1 182.3 52.1 C 181.7 52.6 180.9 52.9 180.1 52.9 C 178.3 52.9 177 51.6 177 49.6 C 177 47.6 178.4 46.3 180 46.3 C 181.4 46.3 182.6 47.4 182.6 49.5 C 182.6 49.6 182.6 49.7 182.6 49.8 Z M 182.1 49.3 C 182.1 47.6 181 46.8 180 46.8 C 178.8 46.8 177.6 47.8 177.5 49.3 C 177.5 49.3 182.1 49.3 182.1 49.3 Z M 191.3 46.9 C 191.3 46.9 191.3 47.4 191.3 47.4 C 190.8 47.1 190.2 46.8 189.5 46.8 C 188.5 46.8 187.9 47.3 187.9 48 C 187.9 48.7 188.6 49 189.6 49.3 C 190.6 49.7 191.6 50 191.6 51.1 C 191.6 52.2 190.7 52.9 189.4 52.9 C 188.7 52.9 187.9 52.7 187.3 52.2 C 187.3 52.2 187.3 51.5 187.3 51.5 C 187.8 52.1 188.6 52.4 189.4 52.4 C 190.4 52.4 191.1 51.9 191.1 51.1 C 191.1 50.4 190.4 50.1 189.3 49.7 C 188.3 49.4 187.4 49.1 187.4 48 C 187.4 47 188.2 46.3 189.5 46.3 C 190.1 46.3 190.8 46.5 191.3 46.9 Z M 193.5 44.3 C 193.53 44.33 193.5 43.9 193.5 43.9 L 194 43.9 C 194 43.9 194.04 44.32 194 44.3 C 194 45.3 193.6 46.3 193.4 46.9 C 193.4 46.9 193 46.9 193 46.9 C 193.2 46.3 193.5 45.3 193.5 44.3 Z M 195.1 49.6 C 195.1 47.7 196.5 46.3 198.2 46.3 C 199.8 46.3 201.2 47.7 201.2 49.6 C 201.2 51.6 199.8 52.9 198.2 52.9 C 196.5 52.9 195.1 51.6 195.1 49.6 Z M 200.7 49.6 C 200.7 47.8 199.5 46.8 198.2 46.8 C 196.9 46.8 195.6 47.8 195.6 49.6 C 195.6 51.4 196.9 52.4 198.2 52.4 C 199.5 52.4 200.7 51.4 200.7 49.6 Z M 203 46.4 L 203.4 46.4 L 203.5 47.6 C 203.5 47.6 203.49 47.62 203.5 47.6 C 203.9 46.7 204.7 46.4 205.4 46.4 C 205.5 46.4 205.7 46.4 205.8 46.4 C 205.8 46.4 205.8 46.9 205.8 46.9 C 205.7 46.9 205.5 46.9 205.4 46.9 C 204.5 46.9 203.5 47.5 203.5 48.8 C 203.53 48.77 203.5 52.8 203.5 52.8 L 203 52.8 L 203 46.4 Z M 211.7 48 C 211.7 47.96 211.8 46.4 211.8 46.4 L 212.2 46.4 C 212.2 46.4 212.17 52.6 212.2 52.6 C 212.2 54.6 210.8 55.5 209.3 55.5 C 208.5 55.5 207.7 55.2 206.9 54.7 C 206.9 54.7 206.9 54.1 206.9 54.1 C 207.7 54.7 208.5 55 209.3 55 C 210.6 55 211.7 54.3 211.7 52.7 C 211.7 52.7 211.7 51.1 211.7 51.1 C 211.2 52.2 210.2 52.7 209.2 52.7 C 207.7 52.7 206.3 51.5 206.3 49.5 C 206.3 47.6 207.7 46.3 209.2 46.3 C 210.2 46.3 211.2 46.9 211.7 48 Z M 206.8 49.5 C 206.8 51.2 208 52.2 209.3 52.2 C 210.6 52.2 211.7 51.1 211.7 49.5 C 211.7 47.9 210.6 46.8 209.3 46.8 C 207.9 46.8 206.8 47.9 206.8 49.5 Z M 214 49.6 C 214 47.6 215.4 46.3 216.9 46.3 C 217.9 46.3 218.9 46.9 219.4 48 C 219.41 48.02 219.5 46.4 219.5 46.4 L 219.9 46.4 L 219.9 52.8 L 219.5 52.8 C 219.5 52.8 219.41 51.2 219.4 51.2 C 218.9 52.4 217.9 52.9 216.9 52.9 C 215.4 52.9 214 51.6 214 49.6 Z M 219.4 49.6 C 219.4 47.9 218.3 46.8 216.9 46.8 C 215.6 46.8 214.5 47.9 214.5 49.6 C 214.5 51.3 215.6 52.4 217 52.4 C 218.3 52.4 219.4 51.3 219.4 49.6 Z M 226.9 48.6 C 226.94 48.56 226.9 52.8 226.9 52.8 L 226.4 52.8 C 226.4 52.8 226.44 48.77 226.4 48.8 C 226.4 47.5 225.8 46.8 224.6 46.8 C 223.5 46.8 222.7 47.5 222.7 48.7 C 222.66 48.71 222.7 52.8 222.7 52.8 L 222.2 52.8 L 222.2 46.4 L 222.5 46.4 L 222.6 47.6 C 222.6 47.6 222.62 47.56 222.6 47.6 C 223 46.8 223.7 46.3 224.7 46.3 C 226.1 46.3 226.9 47.2 226.9 48.6 Z M 229 44.1 C 229 43.9 229.2 43.7 229.4 43.7 C 229.7 43.7 229.8 43.9 229.8 44.1 C 229.8 44.3 229.7 44.5 229.4 44.5 C 229.2 44.5 229 44.3 229 44.1 Z M 229.2 46.4 L 229.7 46.4 L 229.7 52.8 L 229.2 52.8 L 229.2 46.4 Z M 235.5 46.9 C 235.5 46.9 235.5 47.4 235.5 47.4 C 235 47.1 234.4 46.8 233.7 46.8 C 232.8 46.8 232.1 47.3 232.1 48 C 232.1 48.7 232.8 49 233.8 49.3 C 234.8 49.7 235.9 50 235.9 51.1 C 235.9 52.2 235 52.9 233.7 52.9 C 232.9 52.9 232.2 52.7 231.5 52.2 C 231.5 52.2 231.5 51.5 231.5 51.5 C 232.1 52.1 232.9 52.4 233.7 52.4 C 234.7 52.4 235.4 51.9 235.4 51.1 C 235.4 50.4 234.6 50.1 233.6 49.7 C 232.6 49.4 231.6 49.1 231.6 48 C 231.6 47 232.5 46.3 233.7 46.3 C 234.4 46.3 235.1 46.5 235.5 46.9 Z M 242.7 49.8 C 242.7 49.8 237.7 49.8 237.7 49.8 C 237.8 51.4 238.8 52.4 240.2 52.4 C 241 52.4 241.8 52.2 242.5 51.5 C 242.5 51.5 242.5 52.1 242.5 52.1 C 241.8 52.6 241 52.9 240.2 52.9 C 238.4 52.9 237.2 51.6 237.2 49.6 C 237.2 47.6 238.6 46.3 240.1 46.3 C 241.5 46.3 242.7 47.4 242.7 49.5 C 242.7 49.6 242.7 49.7 242.7 49.8 Z M 242.2 49.3 C 242.2 47.6 241.2 46.8 240.1 46.8 C 238.9 46.8 237.8 47.8 237.7 49.3 C 237.7 49.3 242.2 49.3 242.2 49.3 Z M 244.5 46.4 L 245 46.4 L 245 47.6 C 245 47.6 245.01 47.62 245 47.6 C 245.4 46.7 246.2 46.4 246.9 46.4 C 247 46.4 247.2 46.4 247.3 46.4 C 247.3 46.4 247.3 46.9 247.3 46.9 C 247.2 46.9 247 46.9 246.9 46.9 C 246 46.9 245.1 47.5 245 48.8 C 245.05 48.77 245 52.8 245 52.8 L 244.5 52.8 L 244.5 46.4 Z M 256.8 49.8 C 256.8 49.8 251.7 49.8 251.7 49.8 C 251.8 51.4 252.8 52.4 254.3 52.4 C 255 52.4 255.8 52.2 256.5 51.5 C 256.5 51.5 256.5 52.1 256.5 52.1 C 255.9 52.6 255.1 52.9 254.2 52.9 C 252.4 52.9 251.2 51.6 251.2 49.6 C 251.2 47.6 252.6 46.3 254.2 46.3 C 255.6 46.3 256.8 47.4 256.8 49.5 C 256.8 49.6 256.8 49.7 256.8 49.8 Z M 256.3 49.3 C 256.3 47.6 255.2 46.8 254.2 46.8 C 252.9 46.8 251.8 47.8 251.7 49.3 C 251.7 49.3 256.3 49.3 256.3 49.3 Z M 259.2 46.4 L 261.1 46.4 L 261.1 46.9 L 259.2 46.9 C 259.2 46.9 259.2 50.8 259.2 50.8 C 259.2 52 259.8 52.4 260.7 52.4 C 260.9 52.4 261.1 52.4 261.3 52.4 C 261.3 52.4 261.3 52.8 261.3 52.8 C 261.2 52.8 261 52.9 260.7 52.9 C 259.5 52.9 258.7 52.2 258.7 50.8 C 258.7 50.82 258.7 46.9 258.7 46.9 L 257.7 46.9 L 257.7 46.4 L 258.7 46.4 L 258.7 44.9 L 259.2 44.9 L 259.2 46.4 Z M 265.4 49.6 C 265.4 47.6 266.8 46.3 268.4 46.3 C 269.4 46.3 270.4 46.9 270.8 48 C 270.82 47.98 270.8 43.3 270.8 43.3 L 271.3 43.3 L 271.3 52.8 L 270.9 52.8 L 270.9 51.2 C 270.9 51.2 270.85 51.19 270.8 51.2 C 270.4 52.4 269.4 52.9 268.4 52.9 C 266.9 52.9 265.4 51.6 265.4 49.6 Z M 270.8 49.6 C 270.8 47.9 269.7 46.8 268.4 46.8 C 267.1 46.8 266 47.9 266 49.6 C 266 51.3 267.1 52.4 268.4 52.4 C 269.7 52.4 270.8 51.3 270.8 49.6 Z M 278.7 49.8 C 278.7 49.8 273.7 49.8 273.7 49.8 C 273.8 51.4 274.8 52.4 276.2 52.4 C 277 52.4 277.8 52.2 278.5 51.5 C 278.5 51.5 278.5 52.1 278.5 52.1 C 277.8 52.6 277 52.9 276.2 52.9 C 274.4 52.9 273.2 51.6 273.2 49.6 C 273.2 47.6 274.6 46.3 276.1 46.3 C 277.5 46.3 278.7 47.4 278.7 49.5 C 278.7 49.6 278.7 49.7 278.7 49.8 Z M 278.2 49.3 C 278.2 47.6 277.2 46.8 276.1 46.8 C 274.9 46.8 273.8 47.8 273.7 49.3 C 273.7 49.3 278.2 49.3 278.2 49.3 Z M 286.5 52.4 C 287 52.4 287.7 52.3 288.2 51.9 C 288.2 51.9 288.2 52.5 288.2 52.5 C 287.7 52.8 287.1 52.9 286.5 52.9 C 284.8 52.9 283.4 51.5 283.4 49.6 C 283.4 47.7 284.8 46.3 286.5 46.3 C 287.1 46.3 287.7 46.4 288.2 46.8 C 288.2 46.8 288.2 47.3 288.2 47.3 C 287.7 46.9 287.1 46.8 286.5 46.8 C 285.1 46.8 283.9 47.9 283.9 49.6 C 283.9 51.3 285.2 52.4 286.5 52.4 Z M 290 43.3 L 290.5 43.3 L 290.5 52.8 L 290 52.8 L 290 43.3 Z M 292.4 49.6 C 292.4 47.6 293.8 46.3 295.3 46.3 C 296.3 46.3 297.3 46.9 297.8 48 C 297.81 48.02 297.9 46.4 297.9 46.4 L 298.3 46.4 L 298.3 52.8 L 297.9 52.8 C 297.9 52.8 297.81 51.2 297.8 51.2 C 297.3 52.4 296.3 52.9 295.3 52.9 C 293.8 52.9 292.4 51.6 292.4 49.6 Z M 297.8 49.6 C 297.8 47.9 296.7 46.8 295.3 46.8 C 294 46.8 292.9 47.9 292.9 49.6 C 292.9 51.3 294 52.4 295.4 52.4 C 296.7 52.4 297.8 51.3 297.8 49.6 Z M 304.1 46.9 C 304.1 46.9 304.1 47.4 304.1 47.4 C 303.6 47.1 303 46.8 302.3 46.8 C 301.3 46.8 300.7 47.3 300.7 48 C 300.7 48.7 301.4 49 302.4 49.3 C 303.4 49.7 304.4 50 304.4 51.1 C 304.4 52.2 303.6 52.9 302.3 52.9 C 301.5 52.9 300.7 52.7 300.1 52.2 C 300.1 52.2 300.1 51.5 300.1 51.5 C 300.7 52.1 301.4 52.4 302.3 52.4 C 303.3 52.4 303.9 51.9 303.9 51.1 C 303.9 50.4 303.2 50.1 302.2 49.7 C 301.1 49.4 300.2 49.1 300.2 48 C 300.2 47 301.1 46.3 302.3 46.3 C 303 46.3 303.6 46.5 304.1 46.9 Z M 309.7 46.9 C 309.7 46.9 309.7 47.4 309.7 47.4 C 309.2 47.1 308.6 46.8 307.9 46.8 C 306.9 46.8 306.3 47.3 306.3 48 C 306.3 48.7 307 49 308 49.3 C 309 49.7 310 50 310 51.1 C 310 52.2 309.2 52.9 307.9 52.9 C 307.1 52.9 306.3 52.7 305.7 52.2 C 305.7 52.2 305.7 51.5 305.7 51.5 C 306.3 52.1 307 52.4 307.9 52.4 C 308.9 52.4 309.5 51.9 309.5 51.1 C 309.5 50.4 308.8 50.1 307.8 49.7 C 306.7 49.4 305.8 49.1 305.8 48 C 305.8 47 306.7 46.3 307.9 46.3 C 308.6 46.3 309.2 46.5 309.7 46.9 Z M 316.9 49.8 C 316.9 49.8 311.8 49.8 311.8 49.8 C 311.9 51.4 313 52.4 314.4 52.4 C 315.2 52.4 316 52.2 316.7 51.5 C 316.7 51.5 316.7 52.1 316.7 52.1 C 316 52.6 315.2 52.9 314.4 52.9 C 312.6 52.9 311.3 51.6 311.3 49.6 C 311.3 47.6 312.8 46.3 314.3 46.3 C 315.7 46.3 316.9 47.4 316.9 49.5 C 316.9 49.6 316.9 49.7 316.9 49.8 Z M 316.4 49.3 C 316.4 47.6 315.4 46.8 314.3 46.8 C 313.1 46.8 312 47.8 311.9 49.3 C 311.9 49.3 316.4 49.3 316.4 49.3 Z M 318.7 46.4 L 319.1 46.4 L 319.2 47.6 C 319.2 47.6 319.19 47.62 319.2 47.6 C 319.6 46.7 320.4 46.4 321.1 46.4 C 321.2 46.4 321.3 46.4 321.5 46.4 C 321.5 46.4 321.5 46.9 321.5 46.9 C 321.3 46.9 321.2 46.9 321.1 46.9 C 320.2 46.9 319.2 47.5 319.2 48.8 C 319.22 48.77 319.2 52.8 319.2 52.8 L 318.7 52.8 L 318.7 46.4 Z M 325.9 43.3 L 326.4 43.3 L 326.4 52.8 L 325.9 52.8 L 325.9 43.3 Z M 333.8 49.8 C 333.8 49.8 328.7 49.8 328.7 49.8 C 328.8 51.4 329.9 52.4 331.3 52.4 C 332.1 52.4 332.9 52.2 333.6 51.5 C 333.6 51.5 333.6 52.1 333.6 52.1 C 332.9 52.6 332.1 52.9 331.3 52.9 C 329.5 52.9 328.2 51.6 328.2 49.6 C 328.2 47.6 329.6 46.3 331.2 46.3 C 332.6 46.3 333.8 47.4 333.8 49.5 C 333.8 49.6 333.8 49.7 333.8 49.8 Z M 333.3 49.3 C 333.3 47.6 332.3 46.8 331.2 46.8 C 330 46.8 328.9 47.8 328.7 49.3 C 328.7 49.3 333.3 49.3 333.3 49.3 Z M 339.2 46.9 C 339.2 46.9 339.2 47.4 339.2 47.4 C 338.7 47.1 338 46.8 337.3 46.8 C 336.4 46.8 335.8 47.3 335.8 48 C 335.8 48.7 336.4 49 337.4 49.3 C 338.5 49.7 339.5 50 339.5 51.1 C 339.5 52.2 338.6 52.9 337.3 52.9 C 336.6 52.9 335.8 52.7 335.2 52.2 C 335.2 52.2 335.2 51.5 335.2 51.5 C 335.7 52.1 336.5 52.4 337.3 52.4 C 338.3 52.4 339 51.9 339 51.1 C 339 50.4 338.3 50.1 337.2 49.7 C 336.2 49.4 335.3 49.1 335.3 48 C 335.3 47 336.1 46.3 337.4 46.3 C 338 46.3 338.7 46.5 339.2 46.9 Z " stroke="none" fill="#000"/>
  </g>
  <g id="Polygon29715">
    <path d="M 4.7 32.5 C 4.7 32.5 4.7 33 4.7 33 C 4.2 32.7 3.6 32.4 2.9 32.4 C 1.9 32.4 1.3 32.9 1.3 33.6 C 1.3 34.3 2 34.6 3 34.9 C 4 35.3 5 35.6 5 36.7 C 5 37.8 4.1 38.5 2.8 38.5 C 2.1 38.5 1.3 38.3 0.7 37.8 C 0.7 37.8 0.7 37.1 0.7 37.1 C 1.2 37.7 2 38 2.8 38 C 3.9 38 4.5 37.5 4.5 36.7 C 4.5 36 3.8 35.7 2.8 35.3 C 1.7 35 0.8 34.7 0.8 33.6 C 0.8 32.6 1.6 31.9 2.9 31.9 C 3.6 31.9 4.2 32.1 4.7 32.5 Z M 7.4 32 L 9.3 32 L 9.3 32.5 L 7.4 32.5 C 7.4 32.5 7.44 36.4 7.4 36.4 C 7.4 37.6 8.1 38 9 38 C 9.2 38 9.3 38 9.5 38 C 9.5 38 9.5 38.4 9.5 38.4 C 9.4 38.4 9.2 38.5 8.9 38.5 C 7.8 38.5 6.9 37.8 6.9 36.4 C 6.94 36.42 6.9 32.5 6.9 32.5 L 6 32.5 L 6 32 L 6.9 32 L 6.9 30.5 L 7.4 30.5 L 7.4 32 Z M 10.3 35.2 C 10.3 33.2 11.7 31.9 13.2 31.9 C 14.3 31.9 15.3 32.5 15.7 33.6 C 15.74 33.62 15.8 32 15.8 32 L 16.2 32 L 16.2 38.4 L 15.8 38.4 C 15.8 38.4 15.74 36.8 15.7 36.8 C 15.3 38 14.3 38.5 13.2 38.5 C 11.7 38.5 10.3 37.2 10.3 35.2 Z M 15.7 35.2 C 15.7 33.5 14.6 32.4 13.3 32.4 C 12 32.4 10.8 33.5 10.8 35.2 C 10.8 36.9 12 38 13.3 38 C 14.6 38 15.7 36.9 15.7 35.2 Z M 23.3 34.2 C 23.28 34.16 23.3 38.4 23.3 38.4 L 22.8 38.4 C 22.8 38.4 22.78 34.37 22.8 34.4 C 22.8 33.1 22.1 32.4 21 32.4 C 19.9 32.4 19 33.1 19 34.3 C 19 34.31 19 38.4 19 38.4 L 18.5 38.4 L 18.5 32 L 18.9 32 L 18.9 33.2 C 18.9 33.2 18.96 33.16 19 33.2 C 19.3 32.4 20.1 31.9 21 31.9 C 22.4 31.9 23.3 32.8 23.3 34.2 Z M 25 35.2 C 25 33.2 26.4 31.9 27.9 31.9 C 28.9 31.9 30 32.5 30.4 33.6 C 30.41 33.58 30.4 28.9 30.4 28.9 L 30.9 28.9 L 30.9 38.4 L 30.5 38.4 L 30.4 36.8 C 30.4 36.8 30.43 36.79 30.4 36.8 C 30 38 29 38.5 27.9 38.5 C 26.4 38.5 25 37.2 25 35.2 Z M 30.4 35.2 C 30.4 33.5 29.3 32.4 28 32.4 C 26.7 32.4 25.5 33.5 25.5 35.2 C 25.5 36.9 26.7 38 28 38 C 29.3 38 30.4 36.9 30.4 35.2 Z M 32.7 35.2 C 32.7 33.2 34.1 31.9 35.6 31.9 C 36.7 31.9 37.7 32.5 38.1 33.6 C 38.15 33.62 38.2 32 38.2 32 L 38.6 32 L 38.6 38.4 L 38.2 38.4 C 38.2 38.4 38.15 36.8 38.1 36.8 C 37.7 38 36.7 38.5 35.7 38.5 C 34.1 38.5 32.7 37.2 32.7 35.2 Z M 38.1 35.2 C 38.1 33.5 37 32.4 35.7 32.4 C 34.4 32.4 33.2 33.5 33.2 35.2 C 33.2 36.9 34.4 38 35.7 38 C 37 38 38.1 36.9 38.1 35.2 Z M 40.9 32 L 41.3 32 L 41.4 33.2 C 41.4 33.2 41.36 33.22 41.4 33.2 C 41.7 32.3 42.6 32 43.2 32 C 43.4 32 43.5 32 43.6 32 C 43.6 32 43.6 32.5 43.6 32.5 C 43.5 32.5 43.4 32.5 43.2 32.5 C 42.3 32.5 41.4 33.1 41.4 34.4 C 41.4 34.37 41.4 38.4 41.4 38.4 L 40.9 38.4 L 40.9 32 Z M 44.2 35.2 C 44.2 33.2 45.6 31.9 47.1 31.9 C 48.1 31.9 49.1 32.5 49.6 33.6 C 49.58 33.58 49.6 28.9 49.6 28.9 L 50.1 28.9 L 50.1 38.4 L 49.7 38.4 L 49.6 36.8 C 49.6 36.8 49.61 36.79 49.6 36.8 C 49.2 38 48.1 38.5 47.1 38.5 C 45.6 38.5 44.2 37.2 44.2 35.2 Z M 49.6 35.2 C 49.6 33.5 48.5 32.4 47.2 32.4 C 45.8 32.4 44.7 33.5 44.7 35.2 C 44.7 36.9 45.8 38 47.2 38 C 48.5 38 49.6 36.9 49.6 35.2 Z M 55.9 32.5 C 55.9 32.5 55.9 33 55.9 33 C 55.4 32.7 54.8 32.4 54.1 32.4 C 53.1 32.4 52.5 32.9 52.5 33.6 C 52.5 34.3 53.2 34.6 54.2 34.9 C 55.2 35.3 56.2 35.6 56.2 36.7 C 56.2 37.8 55.4 38.5 54.1 38.5 C 53.3 38.5 52.5 38.3 51.9 37.8 C 51.9 37.8 51.9 37.1 51.9 37.1 C 52.5 37.7 53.2 38 54.1 38 C 55.1 38 55.7 37.5 55.7 36.7 C 55.7 36 55 35.7 54 35.3 C 52.9 35 52 34.7 52 33.6 C 52 32.6 52.9 31.9 54.1 31.9 C 54.8 31.9 55.4 32.1 55.9 32.5 Z M 64.7 38 C 65.2 38 65.8 37.9 66.4 37.5 C 66.4 37.5 66.4 38.1 66.4 38.1 C 65.9 38.4 65.3 38.5 64.7 38.5 C 63 38.5 61.6 37.1 61.6 35.2 C 61.6 33.3 62.9 31.9 64.7 31.9 C 65.3 31.9 65.9 32 66.4 32.4 C 66.4 32.4 66.4 32.9 66.4 32.9 C 65.8 32.5 65.3 32.4 64.7 32.4 C 63.3 32.4 62.1 33.5 62.1 35.2 C 62.1 36.9 63.3 38 64.7 38 Z M 73.1 35.4 C 73.1 35.4 68.1 35.4 68.1 35.4 C 68.2 37 69.2 38 70.6 38 C 71.4 38 72.2 37.8 72.9 37.1 C 72.9 37.1 72.9 37.7 72.9 37.7 C 72.2 38.2 71.4 38.5 70.6 38.5 C 68.8 38.5 67.6 37.2 67.6 35.2 C 67.6 33.2 69 31.9 70.5 31.9 C 71.9 31.9 73.2 33 73.2 35.1 C 73.2 35.2 73.1 35.3 73.1 35.4 Z M 72.7 34.9 C 72.6 33.2 71.6 32.4 70.5 32.4 C 69.3 32.4 68.2 33.4 68.1 34.9 C 68.1 34.9 72.7 34.9 72.7 34.9 Z M 84 33.6 C 83.99 33.64 84.1 32 84.1 32 L 84.5 32 L 84.5 41 L 84 41 C 84 41 83.95 36.84 84 36.8 C 83.5 37.9 82.5 38.5 81.5 38.5 C 80 38.5 78.6 37.2 78.6 35.2 C 78.6 33.2 80 31.9 81.5 31.9 C 82.5 31.9 83.5 32.5 84 33.6 Z M 79.1 35.2 C 79.1 36.9 80.2 38 81.5 38 C 82.8 38 84 36.9 84 35.2 C 84 33.5 82.9 32.4 81.5 32.4 C 80.2 32.4 79.1 33.5 79.1 35.2 Z M 86.7 36.1 C 86.65 36.08 86.7 32 86.7 32 L 87.2 32 C 87.2 32 87.15 36.11 87.2 36.1 C 87.2 37.3 87.9 38 89 38 C 90.2 38 90.9 37.3 90.9 36.1 C 90.95 36.1 90.9 32 90.9 32 L 91.5 32 C 91.5 32 91.45 36.07 91.5 36.1 C 91.5 37.5 90.5 38.5 89 38.5 C 87.6 38.5 86.7 37.5 86.7 36.1 Z M 93.5 29.7 C 93.5 29.5 93.7 29.3 93.9 29.3 C 94.2 29.3 94.3 29.5 94.3 29.7 C 94.3 29.9 94.2 30.1 93.9 30.1 C 93.7 30.1 93.5 29.9 93.5 29.7 Z M 93.7 32 L 94.2 32 L 94.2 38.4 L 93.7 38.4 L 93.7 32 Z M 100.6 32 L 101 32 C 101 32 101.04 33.64 101 33.6 C 101.5 32.5 102.5 31.9 103.6 31.9 C 105.1 31.9 106.5 33.2 106.5 35.2 C 106.5 37.2 105.1 38.5 103.6 38.5 C 102.5 38.5 101.5 37.9 101.1 36.9 C 101.08 36.85 101.1 41 101.1 41 L 100.6 41 L 100.6 32 Z M 106 35.2 C 106 33.5 104.8 32.4 103.5 32.4 C 102.2 32.4 101.1 33.5 101.1 35.2 C 101.1 36.9 102.2 38 103.5 38 C 104.8 38 106 36.9 106 35.2 Z M 113.4 35.4 C 113.4 35.4 108.4 35.4 108.4 35.4 C 108.4 37 109.5 38 110.9 38 C 111.7 38 112.5 37.8 113.2 37.1 C 113.2 37.1 113.2 37.7 113.2 37.7 C 112.5 38.2 111.7 38.5 110.9 38.5 C 109.1 38.5 107.8 37.2 107.8 35.2 C 107.8 33.2 109.3 31.9 110.8 31.9 C 112.2 31.9 113.4 33 113.4 35.1 C 113.4 35.2 113.4 35.3 113.4 35.4 Z M 112.9 34.9 C 112.9 33.2 111.9 32.4 110.8 32.4 C 109.6 32.4 108.5 33.4 108.4 34.9 C 108.4 34.9 112.9 34.9 112.9 34.9 Z M 115.2 32 L 115.6 32 L 115.7 33.2 C 115.7 33.2 115.7 33.22 115.7 33.2 C 116.1 32.3 116.9 32 117.6 32 C 117.7 32 117.9 32 118 32 C 118 32 118 32.5 118 32.5 C 117.9 32.5 117.7 32.5 117.6 32.5 C 116.7 32.5 115.7 33.1 115.7 34.4 C 115.73 34.37 115.7 38.4 115.7 38.4 L 115.2 38.4 L 115.2 32 Z M 127 34.1 C 127.02 34.08 127 38.4 127 38.4 L 126.5 38.4 C 126.5 38.4 126.52 34.13 126.5 34.1 C 126.5 33.1 126 32.4 125 32.4 C 124 32.4 123.4 33.2 123.4 34.1 C 123.41 34.14 123.4 38.4 123.4 38.4 L 122.9 38.4 C 122.9 38.4 122.91 34.13 122.9 34.1 C 122.9 33.1 122.4 32.4 121.4 32.4 C 120.4 32.4 119.8 33.2 119.8 34.2 C 119.8 34.16 119.8 38.4 119.8 38.4 L 119.3 38.4 L 119.3 32 L 119.7 32 L 119.8 33.1 C 119.8 33.1 119.76 33.08 119.8 33.1 C 120 32.4 120.7 31.9 121.5 31.9 C 122.4 31.9 123 32.4 123.3 33.2 C 123.5 32.4 124.2 31.9 125.1 31.9 C 126.4 31.9 127 32.8 127 34.1 Z M 134.3 35.4 C 134.3 35.4 129.3 35.4 129.3 35.4 C 129.4 37 130.4 38 131.8 38 C 132.6 38 133.4 37.8 134.1 37.1 C 134.1 37.1 134.1 37.7 134.1 37.7 C 133.4 38.2 132.7 38.5 131.8 38.5 C 130 38.5 128.8 37.2 128.8 35.2 C 128.8 33.2 130.2 31.9 131.7 31.9 C 133.2 31.9 134.4 33 134.4 35.1 C 134.4 35.2 134.4 35.3 134.3 35.4 Z M 133.9 34.9 C 133.8 33.2 132.8 32.4 131.7 32.4 C 130.5 32.4 129.4 33.4 129.3 34.9 C 129.3 34.9 133.9 34.9 133.9 34.9 Z M 136.8 32 L 138.7 32 L 138.7 32.5 L 136.8 32.5 C 136.8 32.5 136.79 36.4 136.8 36.4 C 136.8 37.6 137.4 38 138.3 38 C 138.5 38 138.7 38 138.9 38 C 138.9 38 138.9 38.4 138.9 38.4 C 138.8 38.4 138.5 38.5 138.3 38.5 C 137.1 38.5 136.3 37.8 136.3 36.4 C 136.29 36.42 136.3 32.5 136.3 32.5 L 135.3 32.5 L 135.3 32 L 136.3 32 L 136.3 30.5 L 136.8 30.5 L 136.8 32 Z M 143.8 35.2 C 143.8 33.2 145.2 31.9 146.7 31.9 C 147.7 31.9 148.7 32.5 149.2 33.6 C 149.16 33.58 149.2 28.9 149.2 28.9 L 149.7 28.9 L 149.7 38.4 L 149.3 38.4 L 149.2 36.8 C 149.2 36.8 149.18 36.79 149.2 36.8 C 148.7 38 147.7 38.5 146.7 38.5 C 145.2 38.5 143.8 37.2 143.8 35.2 Z M 149.2 35.2 C 149.2 33.5 148.1 32.4 146.7 32.4 C 145.4 32.4 144.3 33.5 144.3 35.2 C 144.3 36.9 145.4 38 146.7 38 C 148.1 38 149.2 36.9 149.2 35.2 Z M 157.1 35.4 C 157.1 35.4 152 35.4 152 35.4 C 152.1 37 153.1 38 154.6 38 C 155.3 38 156.1 37.8 156.8 37.1 C 156.8 37.1 156.8 37.7 156.8 37.7 C 156.2 38.2 155.4 38.5 154.5 38.5 C 152.7 38.5 151.5 37.2 151.5 35.2 C 151.5 33.2 152.9 31.9 154.4 31.9 C 155.9 31.9 157.1 33 157.1 35.1 C 157.1 35.2 157.1 35.3 157.1 35.4 Z M 156.6 34.9 C 156.6 33.2 155.5 32.4 154.4 32.4 C 153.2 32.4 152.1 33.4 152 34.9 C 152 34.9 156.6 34.9 156.6 34.9 Z M 163 32 L 163.3 32 C 163.3 32 163.42 33.64 163.4 33.6 C 163.9 32.5 164.9 31.9 165.9 31.9 C 167.4 31.9 168.8 33.2 168.8 35.2 C 168.8 37.2 167.4 38.5 165.9 38.5 C 164.9 38.5 163.9 37.9 163.5 36.9 C 163.45 36.85 163.5 41 163.5 41 L 163 41 L 163 32 Z M 168.3 35.2 C 168.3 33.5 167.2 32.4 165.9 32.4 C 164.6 32.4 163.4 33.5 163.4 35.2 C 163.4 36.9 164.6 38 165.9 38 C 167.2 38 168.3 36.9 168.3 35.2 Z M 170.7 28.9 L 171.2 28.9 L 171.2 38.4 L 170.7 38.4 L 170.7 28.9 Z M 173.1 35.2 C 173.1 33.2 174.5 31.9 176 31.9 C 177 31.9 178 32.5 178.5 33.6 C 178.48 33.62 178.6 32 178.6 32 L 178.9 32 L 178.9 38.4 L 178.6 38.4 C 178.6 38.4 178.48 36.8 178.5 36.8 C 178 38 177 38.5 176 38.5 C 174.5 38.5 173.1 37.2 173.1 35.2 Z M 178.5 35.2 C 178.5 33.5 177.4 32.4 176 32.4 C 174.7 32.4 173.6 33.5 173.6 35.2 C 173.6 36.9 174.7 38 176 38 C 177.3 38 178.5 36.9 178.5 35.2 Z M 183.9 38 C 184.4 38 185 37.9 185.6 37.5 C 185.6 37.5 185.6 38.1 185.6 38.1 C 185.1 38.4 184.5 38.5 183.9 38.5 C 182.1 38.5 180.8 37.1 180.8 35.2 C 180.8 33.3 182.1 31.9 183.8 31.9 C 184.4 31.9 185 32 185.6 32.4 C 185.6 32.4 185.6 32.9 185.6 32.9 C 185 32.5 184.4 32.4 183.8 32.4 C 182.5 32.4 181.3 33.5 181.3 35.2 C 181.3 36.9 182.5 38 183.9 38 Z M 192.3 35.4 C 192.3 35.4 187.3 35.4 187.3 35.4 C 187.3 37 188.4 38 189.8 38 C 190.6 38 191.4 37.8 192.1 37.1 C 192.1 37.1 192.1 37.7 192.1 37.7 C 191.4 38.2 190.6 38.5 189.8 38.5 C 188 38.5 186.7 37.2 186.7 35.2 C 186.7 33.2 188.2 31.9 189.7 31.9 C 191.1 31.9 192.3 33 192.3 35.1 C 192.3 35.2 192.3 35.3 192.3 35.4 Z M 191.8 34.9 C 191.8 33.2 190.8 32.4 189.7 32.4 C 188.5 32.4 187.4 33.4 187.3 34.9 C 187.3 34.9 191.8 34.9 191.8 34.9 Z M 194.1 32 L 194.5 32 L 194.6 33.2 C 194.6 33.2 194.59 33.22 194.6 33.2 C 195 32.3 195.8 32 196.5 32 C 196.6 32 196.8 32 196.9 32 C 196.9 32 196.9 32.5 196.9 32.5 C 196.8 32.5 196.6 32.5 196.5 32.5 C 195.6 32.5 194.6 33.1 194.6 34.4 C 194.63 34.37 194.6 38.4 194.6 38.4 L 194.1 38.4 L 194.1 32 Z M 201.5 35.2 C 201.5 33.2 202.9 31.9 204.4 31.9 C 205.4 31.9 206.5 32.5 206.9 33.6 C 206.9 33.58 206.9 28.9 206.9 28.9 L 207.4 28.9 L 207.4 38.4 L 207 38.4 L 206.9 36.8 C 206.9 36.8 206.93 36.79 206.9 36.8 C 206.5 38 205.4 38.5 204.4 38.5 C 202.9 38.5 201.5 37.2 201.5 35.2 Z M 206.9 35.2 C 206.9 33.5 205.8 32.4 204.5 32.4 C 203.2 32.4 202 33.5 202 35.2 C 202 36.9 203.2 38 204.5 38 C 205.8 38 206.9 36.9 206.9 35.2 Z M 214.8 35.4 C 214.8 35.4 209.7 35.4 209.7 35.4 C 209.8 37 210.9 38 212.3 38 C 213.1 38 213.9 37.8 214.6 37.1 C 214.6 37.1 214.6 37.7 214.6 37.7 C 213.9 38.2 213.1 38.5 212.3 38.5 C 210.5 38.5 209.2 37.2 209.2 35.2 C 209.2 33.2 210.7 31.9 212.2 31.9 C 213.6 31.9 214.8 33 214.8 35.1 C 214.8 35.2 214.8 35.3 214.8 35.4 Z M 214.3 34.9 C 214.3 33.2 213.3 32.4 212.2 32.4 C 211 32.4 209.9 33.4 209.8 34.9 C 209.8 34.9 214.3 34.9 214.3 34.9 Z M 220.2 32.5 C 220.2 32.5 220.2 33 220.2 33 C 219.7 32.7 219.1 32.4 218.3 32.4 C 217.4 32.4 216.8 32.9 216.8 33.6 C 216.8 34.3 217.4 34.6 218.5 34.9 C 219.5 35.3 220.5 35.6 220.5 36.7 C 220.5 37.8 219.6 38.5 218.3 38.5 C 217.6 38.5 216.8 38.3 216.2 37.8 C 216.2 37.8 216.2 37.1 216.2 37.1 C 216.7 37.7 217.5 38 218.3 38 C 219.3 38 220 37.5 220 36.7 C 220 36 219.3 35.7 218.2 35.3 C 217.2 35 216.3 34.7 216.3 33.6 C 216.3 32.6 217.1 31.9 218.4 31.9 C 219 31.9 219.7 32.1 220.2 32.5 Z M 225.9 35.2 C 225.9 33.3 227.2 31.9 228.9 31.9 C 230.6 31.9 231.9 33.3 231.9 35.2 C 231.9 37.2 230.6 38.5 228.9 38.5 C 227.2 38.5 225.9 37.2 225.9 35.2 Z M 231.4 35.2 C 231.4 33.4 230.2 32.4 228.9 32.4 C 227.6 32.4 226.4 33.4 226.4 35.2 C 226.4 37 227.6 38 228.9 38 C 230.2 38 231.4 37 231.4 35.2 Z M 234.3 33.6 C 234.7 32.5 235.7 31.9 236.7 31.9 C 238.3 31.9 239.6 33.2 239.6 35.2 C 239.6 37.2 238.2 38.5 236.7 38.5 C 235.7 38.5 234.7 38 234.2 36.8 C 234.23 36.79 234.2 38.4 234.2 38.4 L 233.8 38.4 L 233.8 28.9 L 234.3 28.9 C 234.3 28.9 234.27 33.59 234.3 33.6 Z M 234.2 35.2 C 234.2 36.9 235.4 38 236.7 38 C 238 38 239.1 36.9 239.1 35.2 C 239.1 33.5 238 32.4 236.7 32.4 C 235.4 32.4 234.2 33.5 234.2 35.2 Z M 241.4 29.7 C 241.4 29.5 241.5 29.3 241.8 29.3 C 242 29.3 242.2 29.5 242.2 29.7 C 242.2 29.9 242 30.1 241.8 30.1 C 241.5 30.1 241.4 29.9 241.4 29.7 Z M 241.5 37.7 C 241.53 37.72 241.5 32 241.5 32 L 242 32 C 242 32 242.03 37.73 242 37.7 C 242 39.2 241.7 40.1 241 41 C 241 41 240.4 41 240.4 41 C 241.1 40.2 241.5 39.2 241.5 37.7 Z M 249.5 35.4 C 249.5 35.4 244.4 35.4 244.4 35.4 C 244.5 37 245.5 38 247 38 C 247.7 38 248.5 37.8 249.2 37.1 C 249.2 37.1 249.2 37.7 249.2 37.7 C 248.6 38.2 247.8 38.5 246.9 38.5 C 245.1 38.5 243.9 37.2 243.9 35.2 C 243.9 33.2 245.3 31.9 246.9 31.9 C 248.3 31.9 249.5 33 249.5 35.1 C 249.5 35.2 249.5 35.3 249.5 35.4 Z M 249 34.9 C 249 33.2 247.9 32.4 246.9 32.4 C 245.6 32.4 244.5 33.4 244.4 34.9 C 244.4 34.9 249 34.9 249 34.9 Z M 251.9 32 L 253.8 32 L 253.8 32.5 L 251.9 32.5 C 251.9 32.5 251.91 36.4 251.9 36.4 C 251.9 37.6 252.5 38 253.4 38 C 253.6 38 253.8 38 254 38 C 254 38 254 38.4 254 38.4 C 253.9 38.4 253.7 38.5 253.4 38.5 C 252.2 38.5 251.4 37.8 251.4 36.4 C 251.4 36.42 251.4 32.5 251.4 32.5 L 250.4 32.5 L 250.4 32 L 251.4 32 L 251.4 30.5 L 251.9 30.5 L 251.9 32 Z M 259.9 32 L 261.8 32 L 261.8 32.5 L 259.9 32.5 C 259.9 32.5 259.89 36.4 259.9 36.4 C 259.9 37.6 260.5 38 261.4 38 C 261.6 38 261.8 38 262 38 C 262 38 262 38.4 262 38.4 C 261.9 38.4 261.6 38.5 261.4 38.5 C 260.2 38.5 259.4 37.8 259.4 36.4 C 259.39 36.42 259.4 32.5 259.4 32.5 L 258.4 32.5 L 258.4 32 L 259.4 32 L 259.4 30.5 L 259.9 30.5 L 259.9 32 Z M 262.8 35.2 C 262.8 33.3 264.2 31.9 265.8 31.9 C 267.5 31.9 268.9 33.3 268.9 35.2 C 268.9 37.2 267.5 38.5 265.8 38.5 C 264.2 38.5 262.8 37.2 262.8 35.2 Z M 268.4 35.2 C 268.4 33.4 267.1 32.4 265.8 32.4 C 264.5 32.4 263.3 33.4 263.3 35.2 C 263.3 37 264.5 38 265.8 38 C 267.1 38 268.4 37 268.4 35.2 Z M 270.6 36.1 C 270.61 36.08 270.6 32 270.6 32 L 271.1 32 C 271.1 32 271.11 36.11 271.1 36.1 C 271.1 37.3 271.8 38 273 38 C 274.2 38 274.9 37.3 274.9 36.1 C 274.9 36.1 274.9 32 274.9 32 L 275.4 32 C 275.4 32 275.41 36.07 275.4 36.1 C 275.4 37.5 274.5 38.5 273 38.5 C 271.5 38.5 270.6 37.5 270.6 36.1 Z M 278.3 32 L 280.2 32 L 280.2 32.5 L 278.3 32.5 C 278.3 32.5 278.29 36.4 278.3 36.4 C 278.3 37.6 278.9 38 279.8 38 C 280 38 280.2 38 280.4 38 C 280.4 38 280.4 38.4 280.4 38.4 C 280.3 38.4 280 38.5 279.8 38.5 C 278.6 38.5 277.8 37.8 277.8 36.4 C 277.78 36.42 277.8 32.5 277.8 32.5 L 276.8 32.5 L 276.8 32 L 277.8 32 L 277.8 30.5 L 278.3 30.5 L 278.3 32 Z M 285.3 35.2 C 285.3 33.2 286.7 31.9 288.2 31.9 C 289.2 31.9 290.2 32.5 290.7 33.6 C 290.68 33.62 290.8 32 290.8 32 L 291.1 32 L 291.1 38.4 L 290.8 38.4 C 290.8 38.4 290.68 36.8 290.7 36.8 C 290.2 38 289.2 38.5 288.2 38.5 C 286.7 38.5 285.3 37.2 285.3 35.2 Z M 290.7 35.2 C 290.7 33.5 289.5 32.4 288.2 32.4 C 286.9 32.4 285.8 33.5 285.8 35.2 C 285.8 36.9 286.9 38 288.2 38 C 289.5 38 290.7 36.9 290.7 35.2 Z M 293.3 36.1 C 293.34 36.08 293.3 32 293.3 32 L 293.8 32 C 293.8 32 293.84 36.11 293.8 36.1 C 293.8 37.3 294.6 38 295.7 38 C 296.9 38 297.6 37.3 297.6 36.1 C 297.64 36.1 297.6 32 297.6 32 L 298.1 32 C 298.1 32 298.14 36.07 298.1 36.1 C 298.1 37.5 297.2 38.5 295.7 38.5 C 294.3 38.5 293.3 37.5 293.3 36.1 Z M 301 32 L 302.9 32 L 302.9 32.5 L 301 32.5 C 301 32.5 301.02 36.4 301 36.4 C 301 37.6 301.7 38 302.6 38 C 302.7 38 302.9 38 303.1 38 C 303.1 38 303.1 38.4 303.1 38.4 C 303 38.4 302.8 38.5 302.5 38.5 C 301.3 38.5 300.5 37.8 300.5 36.4 C 300.52 36.42 300.5 32.5 300.5 32.5 L 299.5 32.5 L 299.5 32 L 300.5 32 L 300.5 30.5 L 301 30.5 L 301 32 Z M 303.9 35.2 C 303.9 33.3 305.3 31.9 307 31.9 C 308.6 31.9 310 33.3 310 35.2 C 310 37.2 308.6 38.5 307 38.5 C 305.3 38.5 303.9 37.2 303.9 35.2 Z M 309.5 35.2 C 309.5 33.4 308.3 32.4 307 32.4 C 305.7 32.4 304.4 33.4 304.4 35.2 C 304.4 37 305.7 38 307 38 C 308.3 38 309.5 37 309.5 35.2 Z M 311.7 36.1 C 311.74 36.08 311.7 32 311.7 32 L 312.2 32 C 312.2 32 312.24 36.11 312.2 36.1 C 312.2 37.3 313 38 314.1 38 C 315.3 38 316 37.3 316 36.1 C 316.03 36.1 316 32 316 32 L 316.5 32 C 316.5 32 316.54 36.07 316.5 36.1 C 316.5 37.5 315.6 38.5 314.1 38.5 C 312.6 38.5 311.7 37.5 311.7 36.1 Z M 318.7 32 L 319.1 32 L 319.2 33.2 C 319.2 33.2 319.2 33.22 319.2 33.2 C 319.6 32.3 320.4 32 321.1 32 C 321.2 32 321.4 32 321.5 32 C 321.5 32 321.5 32.5 321.5 32.5 C 321.4 32.5 321.2 32.5 321.1 32.5 C 320.2 32.5 319.2 33.1 319.2 34.4 C 319.24 34.37 319.2 38.4 319.2 38.4 L 318.7 38.4 L 318.7 32 Z M 326.1 35.2 C 326.1 33.2 327.5 31.9 329 31.9 C 330 31.9 331.1 32.5 331.5 33.6 C 331.51 33.58 331.5 28.9 331.5 28.9 L 332 28.9 L 332 38.4 L 331.6 38.4 L 331.5 36.8 C 331.5 36.8 331.53 36.79 331.5 36.8 C 331.1 38 330.1 38.5 329 38.5 C 327.5 38.5 326.1 37.2 326.1 35.2 Z M 331.5 35.2 C 331.5 33.5 330.4 32.4 329.1 32.4 C 327.8 32.4 326.6 33.5 326.6 35.2 C 326.6 36.9 327.8 38 329.1 38 C 330.4 38 331.5 36.9 331.5 35.2 Z M 339.4 35.4 C 339.4 35.4 334.4 35.4 334.4 35.4 C 334.4 37 335.5 38 336.9 38 C 337.7 38 338.5 37.8 339.2 37.1 C 339.2 37.1 339.2 37.7 339.2 37.7 C 338.5 38.2 337.7 38.5 336.9 38.5 C 335.1 38.5 333.8 37.2 333.8 35.2 C 333.8 33.2 335.3 31.9 336.8 31.9 C 338.2 31.9 339.4 33 339.4 35.1 C 339.4 35.2 339.4 35.3 339.4 35.4 Z M 338.9 34.9 C 338.9 33.2 337.9 32.4 336.8 32.4 C 335.6 32.4 334.5 33.4 334.4 34.9 C 334.4 34.9 338.9 34.9 338.9 34.9 Z " stroke="none" fill="#000"/>
  </g>
  <g id="Polygon29714">
    <path d="M 3.8 23.6 C 4.3 23.6 4.9 23.5 5.5 23.1 C 5.5 23.1 5.5 23.7 5.5 23.7 C 5 24 4.4 24.1 3.8 24.1 C 2 24.1 0.7 22.7 0.7 20.8 C 0.7 18.9 2 17.5 3.8 17.5 C 4.3 17.5 4.9 17.6 5.5 18 C 5.5 18 5.5 18.5 5.5 18.5 C 4.9 18.1 4.3 18 3.7 18 C 2.4 18 1.2 19.1 1.2 20.8 C 1.2 22.5 2.4 23.6 3.8 23.6 Z M 7.2 15.3 C 7.2 15.1 7.3 14.9 7.5 14.9 C 7.8 14.9 8 15.1 8 15.3 C 8 15.5 7.8 15.7 7.5 15.7 C 7.3 15.7 7.2 15.5 7.2 15.3 Z M 7.3 17.6 L 7.8 17.6 L 7.8 24 L 7.3 24 L 7.3 17.6 Z M 10.2 14.5 L 10.7 14.5 L 10.7 24 L 10.2 24 L 10.2 14.5 Z M 18.1 21 C 18.1 21 13 21 13 21 C 13.1 22.6 14.1 23.6 15.6 23.6 C 16.4 23.6 17.2 23.4 17.9 22.7 C 17.9 22.7 17.9 23.3 17.9 23.3 C 17.2 23.8 16.4 24.1 15.6 24.1 C 13.8 24.1 12.5 22.8 12.5 20.8 C 12.5 18.8 13.9 17.5 15.5 17.5 C 16.9 17.5 18.1 18.6 18.1 20.7 C 18.1 20.8 18.1 20.9 18.1 21 Z M 17.6 20.5 C 17.6 18.8 16.6 18 15.5 18 C 14.3 18 13.2 19 13 20.5 C 13 20.5 17.6 20.5 17.6 20.5 Z M 27.6 19.7 C 27.63 19.68 27.6 24 27.6 24 L 27.1 24 C 27.1 24 27.13 19.73 27.1 19.7 C 27.1 18.7 26.6 18 25.6 18 C 24.6 18 24 18.8 24 19.7 C 24.02 19.74 24 24 24 24 L 23.5 24 C 23.5 24 23.52 19.73 23.5 19.7 C 23.5 18.7 23 18 22 18 C 21 18 20.4 18.8 20.4 19.8 C 20.41 19.76 20.4 24 20.4 24 L 19.9 24 L 19.9 17.6 L 20.3 17.6 L 20.4 18.7 C 20.4 18.7 20.37 18.68 20.4 18.7 C 20.7 18 21.3 17.5 22.1 17.5 C 23 17.5 23.6 18 23.9 18.8 C 24.2 18 24.8 17.5 25.7 17.5 C 27 17.5 27.6 18.4 27.6 19.7 Z M 35 21 C 35 21 29.9 21 29.9 21 C 30 22.6 31 23.6 32.5 23.6 C 33.2 23.6 34 23.4 34.7 22.7 C 34.7 22.7 34.7 23.3 34.7 23.3 C 34.1 23.8 33.3 24.1 32.4 24.1 C 30.6 24.1 29.4 22.8 29.4 20.8 C 29.4 18.8 30.8 17.5 32.4 17.5 C 33.8 17.5 35 18.6 35 20.7 C 35 20.8 35 20.9 35 21 Z M 34.5 20.5 C 34.5 18.8 33.4 18 32.4 18 C 31.1 18 30 19 29.9 20.5 C 29.9 20.5 34.5 20.5 34.5 20.5 Z M 41.6 19.8 C 41.57 19.76 41.6 24 41.6 24 L 41.1 24 C 41.1 24 41.06 19.97 41.1 20 C 41.1 18.7 40.4 18 39.3 18 C 38.2 18 37.3 18.7 37.3 19.9 C 37.28 19.91 37.3 24 37.3 24 L 36.8 24 L 36.8 17.6 L 37.2 17.6 L 37.2 18.8 C 37.2 18.8 37.25 18.76 37.2 18.8 C 37.6 18 38.4 17.5 39.3 17.5 C 40.7 17.5 41.6 18.4 41.6 19.8 Z M 44.4 17.6 L 46.3 17.6 L 46.3 18.1 L 44.4 18.1 C 44.4 18.1 44.39 22 44.4 22 C 44.4 23.2 45 23.6 45.9 23.6 C 46.1 23.6 46.3 23.6 46.5 23.6 C 46.5 23.6 46.5 24 46.5 24 C 46.4 24 46.1 24.1 45.9 24.1 C 44.7 24.1 43.9 23.4 43.9 22 C 43.88 22.02 43.9 18.1 43.9 18.1 L 42.9 18.1 L 42.9 17.6 L 43.9 17.6 L 43.9 16.1 L 44.4 16.1 L 44.4 17.6 Z M 52 17.6 L 53.9 17.6 L 53.9 18.1 L 52 18.1 C 52 18.1 52.03 22 52 22 C 52 23.2 52.7 23.6 53.6 23.6 C 53.7 23.6 53.9 23.6 54.1 23.6 C 54.1 23.6 54.1 24 54.1 24 C 54 24 53.8 24.1 53.5 24.1 C 52.4 24.1 51.5 23.4 51.5 22 C 51.53 22.02 51.5 18.1 51.5 18.1 L 50.5 18.1 L 50.5 17.6 L 51.5 17.6 L 51.5 16.1 L 52 16.1 L 52 17.6 Z M 54.9 20.8 C 54.9 18.9 56.3 17.5 58 17.5 C 59.6 17.5 61 18.9 61 20.8 C 61 22.8 59.6 24.1 58 24.1 C 56.3 24.1 54.9 22.8 54.9 20.8 Z M 60.5 20.8 C 60.5 19 59.3 18 58 18 C 56.7 18 55.4 19 55.4 20.8 C 55.4 22.6 56.7 23.6 58 23.6 C 59.3 23.6 60.5 22.6 60.5 20.8 Z M 62.7 21.7 C 62.75 21.68 62.7 17.6 62.7 17.6 L 63.3 17.6 C 63.3 17.6 63.25 21.71 63.3 21.7 C 63.3 22.9 64 23.6 65.1 23.6 C 66.3 23.6 67 22.9 67 21.7 C 67.04 21.7 67 17.6 67 17.6 L 67.5 17.6 C 67.5 17.6 67.55 21.67 67.5 21.7 C 67.5 23.1 66.6 24.1 65.1 24.1 C 63.7 24.1 62.7 23.1 62.7 21.7 Z M 70.4 17.6 L 72.3 17.6 L 72.3 18.1 L 70.4 18.1 C 70.4 18.1 70.43 22 70.4 22 C 70.4 23.2 71.1 23.6 72 23.6 C 72.1 23.6 72.3 23.6 72.5 23.6 C 72.5 23.6 72.5 24 72.5 24 C 72.4 24 72.2 24.1 71.9 24.1 C 70.8 24.1 69.9 23.4 69.9 22 C 69.92 22.02 69.9 18.1 69.9 18.1 L 68.9 18.1 L 68.9 17.6 L 69.9 17.6 L 69.9 16.1 L 70.4 16.1 L 70.4 17.6 Z M 77.1 20.8 C 77.1 18.9 78.4 17.5 80.1 17.5 C 81.8 17.5 83.1 18.9 83.1 20.8 C 83.1 22.8 81.8 24.1 80.1 24.1 C 78.4 24.1 77.1 22.8 77.1 20.8 Z M 82.6 20.8 C 82.6 19 81.4 18 80.1 18 C 78.8 18 77.6 19 77.6 20.8 C 77.6 22.6 78.8 23.6 80.1 23.6 C 81.4 23.6 82.6 22.6 82.6 20.8 Z M 85.5 19.2 C 85.9 18.1 86.9 17.5 87.9 17.5 C 89.5 17.5 90.8 18.8 90.8 20.8 C 90.8 22.8 89.4 24.1 87.9 24.1 C 86.9 24.1 85.9 23.6 85.4 22.4 C 85.44 22.39 85.4 24 85.4 24 L 85 24 L 85 14.5 L 85.5 14.5 C 85.5 14.5 85.47 19.19 85.5 19.2 Z M 85.5 20.8 C 85.5 22.5 86.6 23.6 87.9 23.6 C 89.2 23.6 90.3 22.5 90.3 20.8 C 90.3 19.1 89.2 18 87.9 18 C 86.6 18 85.5 19.1 85.5 20.8 Z M 92.6 15.3 C 92.6 15.1 92.7 14.9 93 14.9 C 93.2 14.9 93.4 15.1 93.4 15.3 C 93.4 15.5 93.2 15.7 93 15.7 C 92.7 15.7 92.6 15.5 92.6 15.3 Z M 92.7 23.3 C 92.74 23.32 92.7 17.6 92.7 17.6 L 93.2 17.6 C 93.2 17.6 93.24 23.33 93.2 23.3 C 93.2 24.8 92.9 25.7 92.2 26.6 C 92.2 26.6 91.6 26.6 91.6 26.6 C 92.3 25.8 92.7 24.8 92.7 23.3 Z M 100.7 21 C 100.7 21 95.6 21 95.6 21 C 95.7 22.6 96.7 23.6 98.2 23.6 C 98.9 23.6 99.8 23.4 100.4 22.7 C 100.4 22.7 100.4 23.3 100.4 23.3 C 99.8 23.8 99 24.1 98.1 24.1 C 96.4 24.1 95.1 22.8 95.1 20.8 C 95.1 18.8 96.5 17.5 98.1 17.5 C 99.5 17.5 100.7 18.6 100.7 20.7 C 100.7 20.8 100.7 20.9 100.7 21 Z M 100.2 20.5 C 100.2 18.8 99.1 18 98.1 18 C 96.9 18 95.7 19 95.6 20.5 C 95.6 20.5 100.2 20.5 100.2 20.5 Z M 103.1 17.6 L 105 17.6 L 105 18.1 L 103.1 18.1 C 103.1 18.1 103.11 22 103.1 22 C 103.1 23.2 103.7 23.6 104.6 23.6 C 104.8 23.6 105 23.6 105.2 23.6 C 105.2 23.6 105.2 24 105.2 24 C 105.1 24 104.9 24.1 104.6 24.1 C 103.4 24.1 102.6 23.4 102.6 22 C 102.61 22.02 102.6 18.1 102.6 18.1 L 101.6 18.1 L 101.6 17.6 L 102.6 17.6 L 102.6 16.1 L 103.1 16.1 L 103.1 17.6 Z M 106.3 23.6 C 106.3 23.3 106.5 23.1 106.8 23.1 C 107.1 23.1 107.3 23.3 107.3 23.6 C 107.3 23.8 107.1 24 106.8 24 C 106.5 24 106.3 23.8 106.3 23.6 Z M 113.3 15.1 L 113.8 15.1 L 113.8 24 L 113.3 24 L 113.3 15.1 Z M 116.4 14.5 L 116.9 14.5 L 116.9 24 L 116.4 24 L 116.4 14.5 Z M 128.1 21 C 128.1 21 123 21 123 21 C 123.1 22.6 124.1 23.6 125.6 23.6 C 126.3 23.6 127.2 23.4 127.8 22.7 C 127.8 22.7 127.8 23.3 127.8 23.3 C 127.2 23.8 126.4 24.1 125.5 24.1 C 123.8 24.1 122.5 22.8 122.5 20.8 C 122.5 18.8 123.9 17.5 125.5 17.5 C 126.9 17.5 128.1 18.6 128.1 20.7 C 128.1 20.8 128.1 20.9 128.1 21 Z M 127.6 20.5 C 127.6 18.8 126.5 18 125.5 18 C 124.2 18 123.1 19 123 20.5 C 123 20.5 127.6 20.5 127.6 20.5 Z M 133.4 18.1 C 133.4 18.1 133.4 18.6 133.4 18.6 C 132.9 18.3 132.3 18 131.6 18 C 130.7 18 130 18.5 130 19.2 C 130 19.9 130.7 20.2 131.7 20.5 C 132.7 20.9 133.7 21.2 133.7 22.3 C 133.7 23.4 132.9 24.1 131.6 24.1 C 130.8 24.1 130.1 23.9 129.4 23.4 C 129.4 23.4 129.4 22.7 129.4 22.7 C 130 23.3 130.7 23.6 131.6 23.6 C 132.6 23.6 133.2 23.1 133.2 22.3 C 133.2 21.6 132.5 21.3 131.5 20.9 C 130.4 20.6 129.5 20.3 129.5 19.2 C 129.5 18.2 130.4 17.5 131.6 17.5 C 132.3 17.5 132.9 17.7 133.4 18.1 Z M 136.2 17.6 L 138.1 17.6 L 138.1 18.1 L 136.2 18.1 C 136.2 18.1 136.18 22 136.2 22 C 136.2 23.2 136.8 23.6 137.7 23.6 C 137.9 23.6 138.1 23.6 138.3 23.6 C 138.3 23.6 138.3 24 138.3 24 C 138.2 24 137.9 24.1 137.7 24.1 C 136.5 24.1 135.7 23.4 135.7 22 C 135.68 22.02 135.7 18.1 135.7 18.1 L 134.7 18.1 L 134.7 17.6 L 135.7 17.6 L 135.7 16.1 L 136.2 16.1 L 136.2 17.6 Z M 142.8 20.8 C 142.8 18.8 144.2 17.5 145.7 17.5 C 146.7 17.5 147.8 18.1 148.2 19.2 C 148.23 19.22 148.3 17.6 148.3 17.6 L 148.7 17.6 L 148.7 24 L 148.3 24 C 148.3 24 148.23 22.4 148.2 22.4 C 147.8 23.6 146.7 24.1 145.7 24.1 C 144.2 24.1 142.8 22.8 142.8 20.8 Z M 148.2 20.8 C 148.2 19.1 147.1 18 145.8 18 C 144.5 18 143.3 19.1 143.3 20.8 C 143.3 22.5 144.5 23.6 145.8 23.6 C 147.1 23.6 148.2 22.5 148.2 20.8 Z M 150.9 21.7 C 150.9 21.68 150.9 17.6 150.9 17.6 L 151.4 17.6 C 151.4 17.6 151.4 21.71 151.4 21.7 C 151.4 22.9 152.1 23.6 153.3 23.6 C 154.5 23.6 155.2 22.9 155.2 21.7 C 155.19 21.7 155.2 17.6 155.2 17.6 L 155.7 17.6 C 155.7 17.6 155.7 21.67 155.7 21.7 C 155.7 23.1 154.8 24.1 153.3 24.1 C 151.8 24.1 150.9 23.1 150.9 21.7 Z M 161.4 18.1 C 161.4 18.1 161.4 18.6 161.4 18.6 C 160.9 18.3 160.3 18 159.6 18 C 158.7 18 158 18.5 158 19.2 C 158 19.9 158.7 20.2 159.7 20.5 C 160.7 20.9 161.8 21.2 161.8 22.3 C 161.8 23.4 160.9 24.1 159.6 24.1 C 158.8 24.1 158.1 23.9 157.5 23.4 C 157.5 23.4 157.5 22.7 157.5 22.7 C 158 23.3 158.8 23.6 159.6 23.6 C 160.6 23.6 161.3 23.1 161.3 22.3 C 161.3 21.6 160.5 21.3 159.5 20.9 C 158.5 20.6 157.5 20.3 157.5 19.2 C 157.5 18.2 158.4 17.5 159.6 17.5 C 160.3 17.5 161 17.7 161.4 18.1 Z M 167.1 18.1 C 167.1 18.1 167.1 18.6 167.1 18.6 C 166.6 18.3 165.9 18 165.2 18 C 164.3 18 163.7 18.5 163.7 19.2 C 163.7 19.9 164.3 20.2 165.3 20.5 C 166.4 20.9 167.4 21.2 167.4 22.3 C 167.4 23.4 166.5 24.1 165.2 24.1 C 164.5 24.1 163.7 23.9 163.1 23.4 C 163.1 23.4 163.1 22.7 163.1 22.7 C 163.6 23.3 164.4 23.6 165.2 23.6 C 166.2 23.6 166.9 23.1 166.9 22.3 C 166.9 21.6 166.1 21.3 165.1 20.9 C 164.1 20.6 163.2 20.3 163.2 19.2 C 163.2 18.2 164 17.5 165.2 17.5 C 165.9 17.5 166.6 17.7 167.1 18.1 Z M 169 15.3 C 169 15.1 169.2 14.9 169.4 14.9 C 169.7 14.9 169.8 15.1 169.8 15.3 C 169.8 15.5 169.7 15.7 169.4 15.7 C 169.2 15.7 169 15.5 169 15.3 Z M 169.2 17.6 L 169.7 17.6 L 169.7 24 L 169.2 24 L 169.2 17.6 Z M 175.7 17.6 L 176.1 17.6 C 176.1 17.6 176.18 19.24 176.2 19.2 C 176.6 18.1 177.7 17.5 178.7 17.5 C 180.2 17.5 181.6 18.8 181.6 20.8 C 181.6 22.8 180.2 24.1 178.7 24.1 C 177.7 24.1 176.6 23.5 176.2 22.5 C 176.22 22.45 176.2 26.6 176.2 26.6 L 175.7 26.6 L 175.7 17.6 Z M 181.1 20.8 C 181.1 19.1 180 18 178.7 18 C 177.3 18 176.2 19.1 176.2 20.8 C 176.2 22.5 177.3 23.6 178.6 23.6 C 180 23.6 181.1 22.5 181.1 20.8 Z M 183.5 14.5 L 184 14.5 L 184 24 L 183.5 24 L 183.5 14.5 Z M 186.2 21.7 C 186.2 21.68 186.2 17.6 186.2 17.6 L 186.7 17.6 C 186.7 17.6 186.7 21.71 186.7 21.7 C 186.7 22.9 187.4 23.6 188.6 23.6 C 189.8 23.6 190.5 22.9 190.5 21.7 C 190.5 21.7 190.5 17.6 190.5 17.6 L 191 17.6 C 191 17.6 191 21.67 191 21.7 C 191 23.1 190.1 24.1 188.6 24.1 C 187.1 24.1 186.2 23.1 186.2 21.7 Z M 196.7 18.1 C 196.7 18.1 196.7 18.6 196.7 18.6 C 196.2 18.3 195.6 18 194.9 18 C 194 18 193.4 18.5 193.4 19.2 C 193.4 19.9 194 20.2 195 20.5 C 196.1 20.9 197.1 21.2 197.1 22.3 C 197.1 23.4 196.2 24.1 194.9 24.1 C 194.1 24.1 193.4 23.9 192.8 23.4 C 192.8 23.4 192.8 22.7 192.8 22.7 C 193.3 23.3 194.1 23.6 194.9 23.6 C 195.9 23.6 196.6 23.1 196.6 22.3 C 196.6 21.6 195.8 21.3 194.8 20.9 C 193.8 20.6 192.8 20.3 192.8 19.2 C 192.8 18.2 193.7 17.5 194.9 17.5 C 195.6 17.5 196.3 17.7 196.7 18.1 Z M 202.5 17.6 L 202.9 17.6 C 202.9 17.6 203.01 19.24 203 19.2 C 203.5 18.1 204.5 17.5 205.5 17.5 C 207 17.5 208.4 18.8 208.4 20.8 C 208.4 22.8 207 24.1 205.5 24.1 C 204.5 24.1 203.5 23.5 203 22.5 C 203.05 22.45 203 26.6 203 26.6 L 202.5 26.6 L 202.5 17.6 Z M 207.9 20.8 C 207.9 19.1 206.8 18 205.5 18 C 204.2 18 203 19.1 203 20.8 C 203 22.5 204.2 23.6 205.5 23.6 C 206.8 23.6 207.9 22.5 207.9 20.8 Z M 210.3 17.6 L 210.7 17.6 L 210.7 18.8 C 210.7 18.8 210.73 18.82 210.7 18.8 C 211.1 17.9 212 17.6 212.6 17.6 C 212.7 17.6 212.9 17.6 213 17.6 C 213 17.6 213 18.1 213 18.1 C 212.9 18.1 212.7 18.1 212.6 18.1 C 211.7 18.1 210.8 18.7 210.8 20 C 210.76 19.97 210.8 24 210.8 24 L 210.3 24 L 210.3 17.6 Z M 213.6 20.8 C 213.6 18.9 214.9 17.5 216.6 17.5 C 218.3 17.5 219.6 18.9 219.6 20.8 C 219.6 22.8 218.3 24.1 216.6 24.1 C 214.9 24.1 213.6 22.8 213.6 20.8 Z M 219.1 20.8 C 219.1 19 217.9 18 216.6 18 C 215.3 18 214.1 19 214.1 20.8 C 214.1 22.6 215.3 23.6 216.6 23.6 C 217.9 23.6 219.1 22.6 219.1 20.8 Z M 221.6 18.1 L 220.7 18.1 L 220.7 17.6 L 221.6 17.6 C 221.6 17.6 221.6 16.4 221.6 16.4 C 221.6 15.1 222.5 14.4 223.5 14.4 C 223.8 14.4 224.2 14.5 224.5 14.6 C 224.5 14.6 224.5 15.1 224.5 15.1 C 224.2 15 223.8 14.9 223.5 14.9 C 222.7 14.9 222.1 15.4 222.1 16.5 C 222.12 16.49 222.1 17.6 222.1 17.6 L 224 17.6 L 224 18.1 L 222.1 18.1 L 222.1 24 L 221.6 24 L 221.6 18.1 Z M 224.7 20.8 C 224.7 18.9 226 17.5 227.7 17.5 C 229.4 17.5 230.8 18.9 230.8 20.8 C 230.8 22.8 229.4 24.1 227.7 24.1 C 226.1 24.1 224.7 22.8 224.7 20.8 Z M 230.3 20.8 C 230.3 19 229 18 227.7 18 C 226.4 18 225.2 19 225.2 20.8 C 225.2 22.6 226.4 23.6 227.7 23.6 C 229 23.6 230.3 22.6 230.3 20.8 Z M 237.4 19.8 C 237.37 19.76 237.4 24 237.4 24 L 236.9 24 C 236.9 24 236.86 19.97 236.9 20 C 236.9 18.7 236.2 18 235.1 18 C 234 18 233.1 18.7 233.1 19.9 C 233.08 19.91 233.1 24 233.1 24 L 232.6 24 L 232.6 17.6 L 233 17.6 L 233 18.8 C 233 18.8 233.05 18.76 233 18.8 C 233.4 18 234.2 17.5 235.1 17.5 C 236.5 17.5 237.4 18.4 237.4 19.8 Z M 239.1 20.8 C 239.1 18.8 240.5 17.5 242 17.5 C 243 17.5 244.1 18.1 244.5 19.2 C 244.5 19.18 244.5 14.5 244.5 14.5 L 245 14.5 L 245 24 L 244.6 24 L 244.5 22.4 C 244.5 22.4 244.52 22.39 244.5 22.4 C 244.1 23.6 243 24.1 242 24.1 C 240.5 24.1 239.1 22.8 239.1 20.8 Z M 244.5 20.8 C 244.5 19.1 243.4 18 242.1 18 C 240.8 18 239.6 19.1 239.6 20.8 C 239.6 22.5 240.8 23.6 242.1 23.6 C 243.4 23.6 244.5 22.5 244.5 20.8 Z M 256 19.2 C 255.97 19.24 256 17.6 256 17.6 L 256.4 17.6 L 256.4 26.6 L 255.9 26.6 C 255.9 26.6 255.93 22.44 255.9 22.4 C 255.5 23.5 254.5 24.1 253.5 24.1 C 252 24.1 250.6 22.8 250.6 20.8 C 250.6 18.8 252 17.5 253.5 17.5 C 254.5 17.5 255.5 18.1 256 19.2 Z M 251.1 20.8 C 251.1 22.5 252.2 23.6 253.5 23.6 C 254.8 23.6 256 22.5 256 20.8 C 256 19.1 254.8 18 253.5 18 C 252.2 18 251.1 19.1 251.1 20.8 Z M 258.6 21.7 C 258.63 21.68 258.6 17.6 258.6 17.6 L 259.1 17.6 C 259.1 17.6 259.14 21.71 259.1 21.7 C 259.1 22.9 259.9 23.6 261 23.6 C 262.2 23.6 262.9 22.9 262.9 21.7 C 262.93 21.7 262.9 17.6 262.9 17.6 L 263.4 17.6 C 263.4 17.6 263.43 21.67 263.4 21.7 C 263.4 23.1 262.5 24.1 261 24.1 C 259.5 24.1 258.6 23.1 258.6 21.7 Z M 270.7 21 C 270.7 21 265.7 21 265.7 21 C 265.8 22.6 266.8 23.6 268.2 23.6 C 269 23.6 269.8 23.4 270.5 22.7 C 270.5 22.7 270.5 23.3 270.5 23.3 C 269.8 23.8 269 24.1 268.2 24.1 C 266.4 24.1 265.2 22.8 265.2 20.8 C 265.2 18.8 266.6 17.5 268.1 17.5 C 269.6 17.5 270.8 18.6 270.8 20.7 C 270.8 20.8 270.8 20.9 270.7 21 Z M 270.3 20.5 C 270.2 18.8 269.2 18 268.1 18 C 266.9 18 265.8 19 265.7 20.5 C 265.7 20.5 270.3 20.5 270.3 20.5 Z M 276.3 14.5 L 276.8 14.5 L 276.8 24 L 276.3 24 L 276.3 14.5 Z M 284.3 21 C 284.3 21 279.2 21 279.2 21 C 279.3 22.6 280.3 23.6 281.8 23.6 C 282.5 23.6 283.4 23.4 284 22.7 C 284 22.7 284 23.3 284 23.3 C 283.4 23.8 282.6 24.1 281.7 24.1 C 280 24.1 278.7 22.8 278.7 20.8 C 278.7 18.8 280.1 17.5 281.7 17.5 C 283.1 17.5 284.3 18.6 284.3 20.7 C 284.3 20.8 284.3 20.9 284.3 21 Z M 283.8 20.5 C 283.8 18.8 282.7 18 281.7 18 C 280.4 18 279.3 19 279.2 20.5 C 279.2 20.5 283.8 20.5 283.8 20.5 Z M 289.6 18.1 C 289.6 18.1 289.6 18.6 289.6 18.6 C 289.1 18.3 288.5 18 287.8 18 C 286.9 18 286.2 18.5 286.2 19.2 C 286.2 19.9 286.9 20.2 287.9 20.5 C 288.9 20.9 290 21.2 290 22.3 C 290 23.4 289.1 24.1 287.8 24.1 C 287 24.1 286.3 23.9 285.6 23.4 C 285.6 23.4 285.6 22.7 285.6 22.7 C 286.2 23.3 287 23.6 287.8 23.6 C 288.8 23.6 289.4 23.1 289.4 22.3 C 289.4 21.6 288.7 21.3 287.7 20.9 C 286.7 20.6 285.7 20.3 285.7 19.2 C 285.7 18.2 286.6 17.5 287.8 17.5 C 288.5 17.5 289.1 17.7 289.6 18.1 Z M 295.9 19.2 C 296.4 18.1 297.4 17.5 298.4 17.5 C 299.9 17.5 301.3 18.8 301.3 20.8 C 301.3 22.8 299.9 24.1 298.4 24.1 C 297.4 24.1 296.4 23.6 295.9 22.4 C 295.9 22.39 295.8 24 295.8 24 L 295.4 24 L 295.4 14.5 L 295.9 14.5 C 295.9 14.5 295.94 19.19 295.9 19.2 Z M 295.9 20.8 C 295.9 22.5 297.1 23.6 298.4 23.6 C 299.7 23.6 300.8 22.5 300.8 20.8 C 300.8 19.1 299.7 18 298.4 18 C 297 18 295.9 19.1 295.9 20.8 Z M 303.1 21.7 C 303.07 21.68 303.1 17.6 303.1 17.6 L 303.6 17.6 C 303.6 17.6 303.57 21.71 303.6 21.7 C 303.6 22.9 304.3 23.6 305.5 23.6 C 306.6 23.6 307.4 22.9 307.4 21.7 C 307.36 21.7 307.4 17.6 307.4 17.6 L 307.9 17.6 C 307.9 17.6 307.87 21.67 307.9 21.7 C 307.9 23.1 306.9 24.1 305.5 24.1 C 304 24.1 303.1 23.1 303.1 21.7 Z M 310.1 17.6 L 310.5 17.6 L 310.5 18.8 C 310.5 18.8 310.53 18.82 310.5 18.8 C 310.9 17.9 311.8 17.6 312.4 17.6 C 312.5 17.6 312.7 17.6 312.8 17.6 C 312.8 17.6 312.8 18.1 312.8 18.1 C 312.7 18.1 312.5 18.1 312.4 18.1 C 311.5 18.1 310.6 18.7 310.6 20 C 310.57 19.97 310.6 24 310.6 24 L 310.1 24 L 310.1 17.6 Z M 318.9 21 C 318.9 21 313.9 21 313.9 21 C 314 22.6 315 23.6 316.4 23.6 C 317.2 23.6 318 23.4 318.7 22.7 C 318.7 22.7 318.7 23.3 318.7 23.3 C 318 23.8 317.2 24.1 316.4 24.1 C 314.6 24.1 313.4 22.8 313.4 20.8 C 313.4 18.8 314.8 17.5 316.3 17.5 C 317.7 17.5 319 18.6 319 20.7 C 319 20.8 318.9 20.9 318.9 21 Z M 318.5 20.5 C 318.4 18.8 317.4 18 316.3 18 C 315.1 18 314 19 313.9 20.5 C 313.9 20.5 318.5 20.5 318.5 20.5 Z M 320.3 20.8 C 320.3 18.8 321.7 17.5 323.2 17.5 C 324.2 17.5 325.2 18.1 325.7 19.2 C 325.71 19.22 325.8 17.6 325.8 17.6 L 326.2 17.6 L 326.2 24 L 325.8 24 C 325.8 24 325.71 22.4 325.7 22.4 C 325.2 23.6 324.2 24.1 323.2 24.1 C 321.7 24.1 320.3 22.8 320.3 20.8 Z M 325.7 20.8 C 325.7 19.1 324.6 18 323.3 18 C 321.9 18 320.8 19.1 320.8 20.8 C 320.8 22.5 321.9 23.6 323.3 23.6 C 324.6 23.6 325.7 22.5 325.7 20.8 Z M 328.4 21.7 C 328.38 21.68 328.4 17.6 328.4 17.6 L 328.9 17.6 C 328.9 17.6 328.88 21.71 328.9 21.7 C 328.9 22.9 329.6 23.6 330.8 23.6 C 331.9 23.6 332.7 22.9 332.7 21.7 C 332.67 21.7 332.7 17.6 332.7 17.6 L 333.2 17.6 C 333.2 17.6 333.17 21.67 333.2 21.7 C 333.2 23.1 332.2 24.1 330.8 24.1 C 329.3 24.1 328.4 23.1 328.4 21.7 Z M 337.4 20.8 L 339.7 24 L 339.2 24 L 337.2 21.2 L 337.2 21.2 L 335.2 24 L 334.6 24 L 336.9 20.8 L 334.6 17.6 L 335.2 17.6 L 337.1 20.4 L 337.2 20.4 L 339.1 17.6 L 339.7 17.6 L 337.4 20.8 Z " stroke="none" fill="#000"/>
  </g>
  <g id="Polygon29713">
    <path d="M 7.4 9.6 L 6.1 6.5 L 2 6.5 L 0.8 9.6 L 0.2 9.6 L 3.8 0.7 L 4.4 0.7 L 8 9.6 L 7.4 9.6 Z M 2.2 6 L 6 6 L 4.1 1.3 L 2.2 6 Z M 8.8 6.4 C 8.8 4.4 10.2 3.1 11.7 3.1 C 12.7 3.1 13.7 3.7 14.2 4.8 C 14.17 4.78 14.2 0.1 14.2 0.1 L 14.7 0.1 L 14.7 9.6 L 14.3 9.6 L 14.2 8 C 14.2 8 14.2 7.99 14.2 8 C 13.7 9.2 12.7 9.7 11.7 9.7 C 10.2 9.7 8.8 8.4 8.8 6.4 Z M 14.2 6.4 C 14.2 4.7 13.1 3.6 11.7 3.6 C 10.4 3.6 9.3 4.7 9.3 6.4 C 9.3 8.1 10.4 9.2 11.7 9.2 C 13.1 9.2 14.2 8.1 14.2 6.4 Z M 16.5 6.4 C 16.5 4.5 17.9 3.1 19.5 3.1 C 21.2 3.1 22.6 4.5 22.6 6.4 C 22.6 8.4 21.2 9.7 19.5 9.7 C 17.9 9.7 16.5 8.4 16.5 6.4 Z M 22.1 6.4 C 22.1 4.6 20.8 3.6 19.5 3.6 C 18.2 3.6 17 4.6 17 6.4 C 17 8.2 18.3 9.2 19.5 9.2 C 20.8 9.2 22.1 8.2 22.1 6.4 Z M 24.4 3.2 L 24.8 3.2 C 24.8 3.2 24.88 4.84 24.9 4.8 C 25.3 3.7 26.4 3.1 27.4 3.1 C 28.9 3.1 30.3 4.4 30.3 6.4 C 30.3 8.4 28.9 9.7 27.4 9.7 C 26.4 9.7 25.3 9.1 24.9 8.1 C 24.91 8.05 24.9 12.2 24.9 12.2 L 24.4 12.2 L 24.4 3.2 Z M 29.8 6.4 C 29.8 4.7 28.7 3.6 27.3 3.6 C 26 3.6 24.9 4.7 24.9 6.4 C 24.9 8.1 26 9.2 27.3 9.2 C 28.7 9.2 29.8 8.1 29.8 6.4 Z M 32.7 3.2 L 34.6 3.2 L 34.6 3.7 L 32.7 3.7 C 32.7 3.7 32.73 7.6 32.7 7.6 C 32.7 8.8 33.4 9.2 34.3 9.2 C 34.5 9.2 34.6 9.2 34.8 9.2 C 34.8 9.2 34.8 9.6 34.8 9.6 C 34.7 9.6 34.5 9.7 34.2 9.7 C 33.1 9.7 32.2 9 32.2 7.6 C 32.23 7.62 32.2 3.7 32.2 3.7 L 31.2 3.7 L 31.2 3.2 L 32.2 3.2 L 32.2 1.7 L 32.7 1.7 L 32.7 3.2 Z M 35.6 6.4 C 35.6 4.4 37 3.1 38.5 3.1 C 39.6 3.1 40.6 3.7 41 4.8 C 41.04 4.82 41.1 3.2 41.1 3.2 L 41.5 3.2 L 41.5 9.6 L 41.1 9.6 C 41.1 9.6 41.04 8 41 8 C 40.6 9.2 39.6 9.7 38.5 9.7 C 37 9.7 35.6 8.4 35.6 6.4 Z M 41 6.4 C 41 4.7 39.9 3.6 38.6 3.6 C 37.3 3.6 36.1 4.7 36.1 6.4 C 36.1 8.1 37.3 9.2 38.6 9.2 C 39.9 9.2 41 8.1 41 6.4 Z M 48.6 5.4 C 48.57 5.36 48.6 9.6 48.6 9.6 L 48.1 9.6 C 48.1 9.6 48.07 5.57 48.1 5.6 C 48.1 4.3 47.4 3.6 46.3 3.6 C 45.2 3.6 44.3 4.3 44.3 5.5 C 44.29 5.51 44.3 9.6 44.3 9.6 L 43.8 9.6 L 43.8 3.2 L 44.2 3.2 L 44.2 4.4 C 44.2 4.4 44.26 4.36 44.3 4.4 C 44.6 3.6 45.4 3.1 46.3 3.1 C 47.7 3.1 48.6 4 48.6 5.4 Z M 51.4 3.2 L 53.3 3.2 L 53.3 3.7 L 51.4 3.7 C 51.4 3.7 51.39 7.6 51.4 7.6 C 51.4 8.8 52 9.2 52.9 9.2 C 53.1 9.2 53.3 9.2 53.5 9.2 C 53.5 9.2 53.5 9.6 53.5 9.6 C 53.4 9.6 53.1 9.7 52.9 9.7 C 51.7 9.7 50.9 9 50.9 7.6 C 50.89 7.62 50.9 3.7 50.9 3.7 L 49.9 3.7 L 49.9 3.2 L 50.9 3.2 L 50.9 1.7 L 51.4 1.7 L 51.4 3.2 Z M 57.4 7.3 C 57.37 7.28 57.4 3.2 57.4 3.2 L 57.9 3.2 C 57.9 3.2 57.87 7.31 57.9 7.3 C 57.9 8.5 58.6 9.2 59.8 9.2 C 60.9 9.2 61.7 8.5 61.7 7.3 C 61.66 7.3 61.7 3.2 61.7 3.2 L 62.2 3.2 C 62.2 3.2 62.16 7.27 62.2 7.3 C 62.2 8.7 61.2 9.7 59.8 9.7 C 58.3 9.7 57.4 8.7 57.4 7.3 Z M 69.1 5.4 C 69.15 5.36 69.1 9.6 69.1 9.6 L 68.6 9.6 C 68.6 9.6 68.65 5.57 68.6 5.6 C 68.6 4.3 68 3.6 66.8 3.6 C 65.8 3.6 64.9 4.3 64.9 5.5 C 64.86 5.51 64.9 9.6 64.9 9.6 L 64.4 9.6 L 64.4 3.2 L 64.8 3.2 L 64.8 4.4 C 64.8 4.4 64.83 4.36 64.8 4.4 C 65.2 3.6 65.9 3.1 66.9 3.1 C 68.3 3.1 69.1 4 69.1 5.4 Z M 76.5 6.6 C 76.5 6.6 71.4 6.6 71.4 6.6 C 71.5 8.2 72.5 9.2 74 9.2 C 74.7 9.2 75.5 9 76.2 8.3 C 76.2 8.3 76.2 8.9 76.2 8.9 C 75.6 9.4 74.8 9.7 73.9 9.7 C 72.1 9.7 70.9 8.4 70.9 6.4 C 70.9 4.4 72.3 3.1 73.9 3.1 C 75.3 3.1 76.5 4.2 76.5 6.3 C 76.5 6.4 76.5 6.5 76.5 6.6 Z M 76 6.1 C 76 4.4 74.9 3.6 73.9 3.6 C 72.6 3.6 71.5 4.6 71.4 6.1 C 71.4 6.1 76 6.1 76 6.1 Z M 81.2 3.7 L 80.3 3.7 L 80.3 3.2 L 81.2 3.2 C 81.2 3.2 81.2 2 81.2 2 C 81.2 0.7 82.1 0 83.1 0 C 83.4 0 83.8 0.1 84.1 0.2 C 84.1 0.2 84.1 0.7 84.1 0.7 C 83.8 0.6 83.4 0.5 83.1 0.5 C 82.3 0.5 81.7 1 81.7 2.1 C 81.72 2.09 81.7 3.2 81.7 3.2 L 83.6 3.2 L 83.6 3.7 L 81.7 3.7 L 81.7 9.6 L 81.2 9.6 L 81.2 3.7 Z M 84.3 6.4 C 84.3 4.5 85.6 3.1 87.3 3.1 C 89 3.1 90.4 4.5 90.4 6.4 C 90.4 8.4 89 9.7 87.3 9.7 C 85.7 9.7 84.3 8.4 84.3 6.4 Z M 89.9 6.4 C 89.9 4.6 88.6 3.6 87.3 3.6 C 86 3.6 84.8 4.6 84.8 6.4 C 84.8 8.2 86 9.2 87.3 9.2 C 88.6 9.2 89.9 8.2 89.9 6.4 Z M 92.2 3.2 L 92.6 3.2 L 92.6 4.4 C 92.6 4.4 92.65 4.42 92.6 4.4 C 93 3.5 93.9 3.2 94.5 3.2 C 94.7 3.2 94.8 3.2 94.9 3.2 C 94.9 3.2 94.9 3.7 94.9 3.7 C 94.8 3.7 94.7 3.7 94.5 3.7 C 93.6 3.7 92.7 4.3 92.7 5.6 C 92.68 5.57 92.7 9.6 92.7 9.6 L 92.2 9.6 L 92.2 3.2 Z M 104 5.3 C 103.98 5.28 104 9.6 104 9.6 L 103.5 9.6 C 103.5 9.6 103.47 5.33 103.5 5.3 C 103.5 4.3 103 3.6 102 3.6 C 101 3.6 100.4 4.4 100.4 5.3 C 100.36 5.34 100.4 9.6 100.4 9.6 L 99.9 9.6 C 99.9 9.6 99.86 5.33 99.9 5.3 C 99.9 4.3 99.4 3.6 98.4 3.6 C 97.3 3.6 96.8 4.4 96.8 5.4 C 96.75 5.36 96.8 9.6 96.8 9.6 L 96.2 9.6 L 96.2 3.2 L 96.6 3.2 L 96.7 4.3 C 96.7 4.3 96.72 4.28 96.7 4.3 C 97 3.6 97.6 3.1 98.4 3.1 C 99.4 3.1 100 3.6 100.2 4.4 C 100.5 3.6 101.1 3.1 102 3.1 C 103.3 3.1 104 4 104 5.3 Z M 111.3 6.6 C 111.3 6.6 106.2 6.6 106.2 6.6 C 106.3 8.2 107.4 9.2 108.8 9.2 C 109.6 9.2 110.4 9 111.1 8.3 C 111.1 8.3 111.1 8.9 111.1 8.9 C 110.4 9.4 109.6 9.7 108.8 9.7 C 107 9.7 105.7 8.4 105.7 6.4 C 105.7 4.4 107.2 3.1 108.7 3.1 C 110.1 3.1 111.3 4.2 111.3 6.3 C 111.3 6.4 111.3 6.5 111.3 6.6 Z M 110.8 6.1 C 110.8 4.4 109.8 3.6 108.7 3.6 C 107.5 3.6 106.4 4.6 106.3 6.1 C 106.3 6.1 110.8 6.1 110.8 6.1 Z M 115.4 6.4 C 115.4 4.4 116.8 3.1 118.3 3.1 C 119.3 3.1 120.3 3.7 120.7 4.8 C 120.75 4.78 120.7 0.1 120.7 0.1 L 121.2 0.1 L 121.2 9.6 L 120.9 9.6 L 120.8 8 C 120.8 8 120.77 7.99 120.8 8 C 120.3 9.2 119.3 9.7 118.3 9.7 C 116.8 9.7 115.4 8.4 115.4 6.4 Z M 120.8 6.4 C 120.8 4.7 119.6 3.6 118.3 3.6 C 117 3.6 115.9 4.7 115.9 6.4 C 115.9 8.1 117 9.2 118.3 9.2 C 119.6 9.2 120.8 8.1 120.8 6.4 Z M 128.6 6.6 C 128.6 6.6 123.6 6.6 123.6 6.6 C 123.7 8.2 124.7 9.2 126.1 9.2 C 126.9 9.2 127.7 9 128.4 8.3 C 128.4 8.3 128.4 8.9 128.4 8.9 C 127.7 9.4 127 9.7 126.1 9.7 C 124.3 9.7 123.1 8.4 123.1 6.4 C 123.1 4.4 124.5 3.1 126 3.1 C 127.5 3.1 128.7 4.2 128.7 6.3 C 128.7 6.4 128.7 6.5 128.6 6.6 Z M 128.2 6.1 C 128.1 4.4 127.1 3.6 126 3.6 C 124.8 3.6 123.7 4.6 123.6 6.1 C 123.6 6.1 128.2 6.1 128.2 6.1 Z M 133.7 3.2 L 135.6 3.2 L 135.6 3.7 L 133.7 3.7 C 133.7 3.7 133.71 7.6 133.7 7.6 C 133.7 8.8 134.3 9.2 135.2 9.2 C 135.4 9.2 135.6 9.2 135.8 9.2 C 135.8 9.2 135.8 9.6 135.8 9.6 C 135.7 9.6 135.5 9.7 135.2 9.7 C 134 9.7 133.2 9 133.2 7.6 C 133.21 7.62 133.2 3.7 133.2 3.7 L 132.2 3.7 L 132.2 3.2 L 133.2 3.2 L 133.2 1.7 L 133.7 1.7 L 133.7 3.2 Z M 137.1 3.2 L 137.6 3.2 L 137.6 4.4 C 137.6 4.4 137.61 4.42 137.6 4.4 C 138 3.5 138.8 3.2 139.5 3.2 C 139.6 3.2 139.8 3.2 139.9 3.2 C 139.9 3.2 139.9 3.7 139.9 3.7 C 139.8 3.7 139.6 3.7 139.5 3.7 C 138.6 3.7 137.7 4.3 137.6 5.6 C 137.65 5.57 137.6 9.6 137.6 9.6 L 137.1 9.6 L 137.1 3.2 Z M 140.4 6.4 C 140.4 4.4 141.8 3.1 143.3 3.1 C 144.4 3.1 145.4 3.7 145.9 4.8 C 145.86 4.82 145.9 3.2 145.9 3.2 L 146.3 3.2 L 146.3 9.6 L 145.9 9.6 C 145.9 9.6 145.86 8 145.9 8 C 145.4 9.2 144.4 9.7 143.4 9.7 C 141.8 9.7 140.4 8.4 140.4 6.4 Z M 145.8 6.4 C 145.8 4.7 144.7 3.6 143.4 3.6 C 142.1 3.6 140.9 4.7 140.9 6.4 C 140.9 8.1 142.1 9.2 143.4 9.2 C 144.7 9.2 145.8 8.1 145.8 6.4 Z M 148.6 3.2 L 149 3.2 C 149 3.2 149.07 4.84 149.1 4.8 C 149.5 3.7 150.6 3.1 151.6 3.1 C 153.1 3.1 154.5 4.4 154.5 6.4 C 154.5 8.4 153.1 9.7 151.6 9.7 C 150.6 9.7 149.5 9.1 149.1 8.1 C 149.11 8.05 149.1 12.2 149.1 12.2 L 148.6 12.2 L 148.6 3.2 Z M 154 6.4 C 154 4.7 152.9 3.6 151.5 3.6 C 150.2 3.6 149.1 4.7 149.1 6.4 C 149.1 8.1 150.2 9.2 151.5 9.2 C 152.9 9.2 154 8.1 154 6.4 Z M 159 2.1 L 157.5 0.2 L 158.1 0.2 L 159.5 2.1 L 159 2.1 Z M 161.4 6.6 C 161.4 6.6 156.4 6.6 156.4 6.6 C 156.5 8.2 157.5 9.2 158.9 9.2 C 159.7 9.2 160.5 9 161.2 8.3 C 161.2 8.3 161.2 8.9 161.2 8.9 C 160.5 9.4 159.7 9.7 158.9 9.7 C 157.1 9.7 155.9 8.4 155.9 6.4 C 155.9 4.4 157.3 3.1 158.8 3.1 C 160.2 3.1 161.5 4.2 161.5 6.3 C 161.5 6.4 161.4 6.5 161.4 6.6 Z M 161 6.1 C 160.9 4.4 159.9 3.6 158.8 3.6 C 157.6 3.6 156.5 4.6 156.4 6.1 C 156.4 6.1 161 6.1 161 6.1 Z M 163.3 9.1 L 167.1 9.1 L 167.1 9.6 L 162.4 9.6 L 166.5 3.7 L 166.5 3.7 L 162.8 3.7 L 162.8 3.2 L 167.4 3.2 L 163.3 9.1 Z M 173.9 6.6 C 173.9 6.6 168.8 6.6 168.8 6.6 C 168.9 8.2 169.9 9.2 171.4 9.2 C 172.1 9.2 173 9 173.6 8.3 C 173.6 8.3 173.6 8.9 173.6 8.9 C 173 9.4 172.2 9.7 171.3 9.7 C 169.6 9.7 168.3 8.4 168.3 6.4 C 168.3 4.4 169.7 3.1 171.3 3.1 C 172.7 3.1 173.9 4.2 173.9 6.3 C 173.9 6.4 173.9 6.5 173.9 6.6 Z M 173.4 6.1 C 173.4 4.4 172.3 3.6 171.3 3.6 C 170 3.6 168.9 4.6 168.8 6.1 C 168.8 6.1 173.4 6.1 173.4 6.1 Z M 175.6 8.6 C 175.6 8.64 175.6 8.2 175.6 8.2 L 176.1 8.2 C 176.1 8.2 176.11 8.63 176.1 8.6 C 176.1 9.6 175.7 10.6 175.5 11.2 C 175.5 11.2 175.1 11.2 175.1 11.2 C 175.3 10.6 175.6 9.6 175.6 8.6 Z M 181 0.1 L 181.5 0.1 L 181.5 9.6 L 181 9.6 L 181 0.1 Z M 188.9 6.6 C 188.9 6.6 183.9 6.6 183.9 6.6 C 183.9 8.2 185 9.2 186.4 9.2 C 187.2 9.2 188 9 188.7 8.3 C 188.7 8.3 188.7 8.9 188.7 8.9 C 188 9.4 187.2 9.7 186.4 9.7 C 184.6 9.7 183.4 8.4 183.4 6.4 C 183.4 4.4 184.8 3.1 186.3 3.1 C 187.7 3.1 188.9 4.2 188.9 6.3 C 188.9 6.4 188.9 6.5 188.9 6.6 Z M 188.4 6.1 C 188.4 4.4 187.4 3.6 186.3 3.6 C 185.1 3.6 184 4.6 183.9 6.1 C 183.9 6.1 188.4 6.1 188.4 6.1 Z M 193.9 4.8 C 194.4 3.7 195.4 3.1 196.4 3.1 C 197.9 3.1 199.3 4.4 199.3 6.4 C 199.3 8.4 197.9 9.7 196.4 9.7 C 195.4 9.7 194.4 9.2 193.9 8 C 193.9 7.99 193.8 9.6 193.8 9.6 L 193.4 9.6 L 193.4 0.1 L 193.9 0.1 C 193.9 0.1 193.94 4.79 193.9 4.8 Z M 193.9 6.4 C 193.9 8.1 195.1 9.2 196.4 9.2 C 197.7 9.2 198.8 8.1 198.8 6.4 C 198.8 4.7 197.7 3.6 196.4 3.6 C 195 3.6 193.9 4.7 193.9 6.4 Z M 201.1 7.3 C 201.07 7.28 201.1 3.2 201.1 3.2 L 201.6 3.2 C 201.6 3.2 201.57 7.31 201.6 7.3 C 201.6 8.5 202.3 9.2 203.5 9.2 C 204.6 9.2 205.4 8.5 205.4 7.3 C 205.36 7.3 205.4 3.2 205.4 3.2 L 205.9 3.2 C 205.9 3.2 205.86 7.27 205.9 7.3 C 205.9 8.7 204.9 9.7 203.5 9.7 C 202 9.7 201.1 8.7 201.1 7.3 Z M 208.1 3.2 L 208.5 3.2 L 208.5 4.4 C 208.5 4.4 208.53 4.42 208.5 4.4 C 208.9 3.5 209.8 3.2 210.4 3.2 C 210.5 3.2 210.7 3.2 210.8 3.2 C 210.8 3.2 210.8 3.7 210.8 3.7 C 210.7 3.7 210.5 3.7 210.4 3.7 C 209.5 3.7 208.6 4.3 208.6 5.6 C 208.56 5.57 208.6 9.6 208.6 9.6 L 208.1 9.6 L 208.1 3.2 Z M 216.9 6.6 C 216.9 6.6 211.9 6.6 211.9 6.6 C 212 8.2 213 9.2 214.4 9.2 C 215.2 9.2 216 9 216.7 8.3 C 216.7 8.3 216.7 8.9 216.7 8.9 C 216 9.4 215.2 9.7 214.4 9.7 C 212.6 9.7 211.4 8.4 211.4 6.4 C 211.4 4.4 212.8 3.1 214.3 3.1 C 215.7 3.1 217 4.2 217 6.3 C 217 6.4 216.9 6.5 216.9 6.6 Z M 216.4 6.1 C 216.4 4.4 215.4 3.6 214.3 3.6 C 213.1 3.6 212 4.6 211.9 6.1 C 211.9 6.1 216.4 6.1 216.4 6.1 Z M 218.3 6.4 C 218.3 4.4 219.7 3.1 221.2 3.1 C 222.2 3.1 223.2 3.7 223.7 4.8 C 223.71 4.82 223.8 3.2 223.8 3.2 L 224.2 3.2 L 224.2 9.6 L 223.8 9.6 C 223.8 9.6 223.71 8 223.7 8 C 223.2 9.2 222.2 9.7 221.2 9.7 C 219.7 9.7 218.3 8.4 218.3 6.4 Z M 223.7 6.4 C 223.7 4.7 222.6 3.6 221.2 3.6 C 219.9 3.6 218.8 4.7 218.8 6.4 C 218.8 8.1 219.9 9.2 221.3 9.2 C 222.6 9.2 223.7 8.1 223.7 6.4 Z M 226.4 7.3 C 226.37 7.28 226.4 3.2 226.4 3.2 L 226.9 3.2 C 226.9 3.2 226.88 7.31 226.9 7.3 C 226.9 8.5 227.6 9.2 228.8 9.2 C 229.9 9.2 230.7 8.5 230.7 7.3 C 230.67 7.3 230.7 3.2 230.7 3.2 L 231.2 3.2 C 231.2 3.2 231.17 7.27 231.2 7.3 C 231.2 8.7 230.2 9.7 228.8 9.7 C 227.3 9.7 226.4 8.7 226.4 7.3 Z M 236.1 3.2 L 236.5 3.2 L 236.5 4.4 C 236.5 4.4 236.53 4.42 236.5 4.4 C 236.9 3.5 237.8 3.2 238.4 3.2 C 238.5 3.2 238.7 3.2 238.8 3.2 C 238.8 3.2 238.8 3.7 238.8 3.7 C 238.7 3.7 238.5 3.7 238.4 3.7 C 237.5 3.7 236.6 4.3 236.6 5.6 C 236.56 5.57 236.6 9.6 236.6 9.6 L 236.1 9.6 L 236.1 3.2 Z M 244.9 6.6 C 244.9 6.6 239.9 6.6 239.9 6.6 C 240 8.2 241 9.2 242.4 9.2 C 243.2 9.2 244 9 244.7 8.3 C 244.7 8.3 244.7 8.9 244.7 8.9 C 244 9.4 243.2 9.7 242.4 9.7 C 240.6 9.7 239.4 8.4 239.4 6.4 C 239.4 4.4 240.8 3.1 242.3 3.1 C 243.7 3.1 245 4.2 245 6.3 C 245 6.4 244.9 6.5 244.9 6.6 Z M 244.5 6.1 C 244.4 4.4 243.4 3.6 242.3 3.6 C 241.1 3.6 240 4.6 239.9 6.1 C 239.9 6.1 244.5 6.1 244.5 6.1 Z M 251.5 5.4 C 251.54 5.36 251.5 9.6 251.5 9.6 L 251 9.6 C 251 9.6 251.04 5.57 251 5.6 C 251 4.3 250.4 3.6 249.2 3.6 C 248.1 3.6 247.3 4.3 247.3 5.5 C 247.26 5.51 247.3 9.6 247.3 9.6 L 246.8 9.6 L 246.8 3.2 L 247.1 3.2 L 247.2 4.4 C 247.2 4.4 247.22 4.36 247.2 4.4 C 247.6 3.6 248.3 3.1 249.3 3.1 C 250.7 3.1 251.5 4 251.5 5.4 Z M 253.3 6.4 C 253.3 4.4 254.7 3.1 256.2 3.1 C 257.2 3.1 258.2 3.7 258.7 4.8 C 258.67 4.78 258.7 0.1 258.7 0.1 L 259.2 0.1 L 259.2 9.6 L 258.8 9.6 L 258.7 8 C 258.7 8 258.69 7.99 258.7 8 C 258.2 9.2 257.2 9.7 256.2 9.7 C 254.7 9.7 253.3 8.4 253.3 6.4 Z M 258.7 6.4 C 258.7 4.7 257.6 3.6 256.2 3.6 C 254.9 3.6 253.8 4.7 253.8 6.4 C 253.8 8.1 254.9 9.2 256.2 9.2 C 257.6 9.2 258.7 8.1 258.7 6.4 Z M 263.7 6.4 C 263.7 4.4 265.1 3.1 266.6 3.1 C 267.6 3.1 268.6 3.7 269.1 4.8 C 269.1 4.82 269.2 3.2 269.2 3.2 L 269.6 3.2 L 269.6 9.6 L 269.2 9.6 C 269.2 9.6 269.1 8 269.1 8 C 268.6 9.2 267.6 9.7 266.6 9.7 C 265.1 9.7 263.7 8.4 263.7 6.4 Z M 269.1 6.4 C 269.1 4.7 268 3.6 266.6 3.6 C 265.3 3.6 264.2 4.7 264.2 6.4 C 264.2 8.1 265.3 9.2 266.7 9.2 C 268 9.2 269.1 8.1 269.1 6.4 Z M 274.5 9.2 C 275 9.2 275.6 9.1 276.2 8.7 C 276.2 8.7 276.2 9.3 276.2 9.3 C 275.7 9.6 275.1 9.7 274.5 9.7 C 272.7 9.7 271.4 8.3 271.4 6.4 C 271.4 4.5 272.7 3.1 274.5 3.1 C 275.1 3.1 275.7 3.2 276.2 3.6 C 276.2 3.6 276.2 4.1 276.2 4.1 C 275.6 3.7 275.1 3.6 274.5 3.6 C 273.1 3.6 271.9 4.7 271.9 6.4 C 271.9 8.1 273.1 9.2 274.5 9.2 Z M 280.4 9.2 C 280.9 9.2 281.6 9.1 282.2 8.7 C 282.2 8.7 282.2 9.3 282.2 9.3 C 281.7 9.6 281.1 9.7 280.4 9.7 C 278.7 9.7 277.4 8.3 277.4 6.4 C 277.4 4.5 278.7 3.1 280.4 3.1 C 281 3.1 281.6 3.2 282.2 3.6 C 282.2 3.6 282.2 4.1 282.2 4.1 C 281.6 3.7 281 3.6 280.4 3.6 C 279.1 3.6 277.9 4.7 277.9 6.4 C 277.9 8.1 279.1 9.2 280.4 9.2 Z M 288.9 6.6 C 288.9 6.6 283.8 6.6 283.8 6.6 C 283.9 8.2 285 9.2 286.4 9.2 C 287.2 9.2 288 9 288.7 8.3 C 288.7 8.3 288.7 8.9 288.7 8.9 C 288 9.4 287.2 9.7 286.4 9.7 C 284.6 9.7 283.3 8.4 283.3 6.4 C 283.3 4.4 284.8 3.1 286.3 3.1 C 287.7 3.1 288.9 4.2 288.9 6.3 C 288.9 6.4 288.9 6.5 288.9 6.6 Z M 288.4 6.1 C 288.4 4.4 287.4 3.6 286.3 3.6 C 285.1 3.6 284 4.6 283.8 6.1 C 283.8 6.1 288.4 6.1 288.4 6.1 Z M 294.3 3.7 C 294.3 3.7 294.3 4.2 294.3 4.2 C 293.8 3.9 293.2 3.6 292.4 3.6 C 291.5 3.6 290.9 4.1 290.9 4.8 C 290.9 5.5 291.5 5.8 292.6 6.1 C 293.6 6.5 294.6 6.8 294.6 7.9 C 294.6 9 293.7 9.7 292.4 9.7 C 291.7 9.7 290.9 9.5 290.3 9 C 290.3 9 290.3 8.3 290.3 8.3 C 290.8 8.9 291.6 9.2 292.4 9.2 C 293.4 9.2 294.1 8.7 294.1 7.9 C 294.1 7.2 293.4 6.9 292.3 6.5 C 291.3 6.2 290.4 5.9 290.4 4.8 C 290.4 3.8 291.2 3.1 292.5 3.1 C 293.1 3.1 293.8 3.3 294.3 3.7 Z M 299.9 3.7 C 299.9 3.7 299.9 4.2 299.9 4.2 C 299.4 3.9 298.8 3.6 298.1 3.6 C 297.1 3.6 296.5 4.1 296.5 4.8 C 296.5 5.5 297.2 5.8 298.2 6.1 C 299.2 6.5 300.2 6.8 300.2 7.9 C 300.2 9 299.3 9.7 298 9.7 C 297.3 9.7 296.5 9.5 295.9 9 C 295.9 9 295.9 8.3 295.9 8.3 C 296.4 8.9 297.2 9.2 298 9.2 C 299 9.2 299.7 8.7 299.7 7.9 C 299.7 7.2 299 6.9 298 6.5 C 296.9 6.2 296 5.9 296 4.8 C 296 3.8 296.8 3.1 298.1 3.1 C 298.7 3.1 299.4 3.3 299.9 3.7 Z M 301.8 0.9 C 301.8 0.7 302 0.5 302.2 0.5 C 302.5 0.5 302.6 0.7 302.6 0.9 C 302.6 1.1 302.5 1.3 302.2 1.3 C 302 1.3 301.8 1.1 301.8 0.9 Z M 302 3.2 L 302.5 3.2 L 302.5 9.6 L 302 9.6 L 302 3.2 Z M 305.3 4.8 C 305.7 3.7 306.8 3.1 307.8 3.1 C 309.3 3.1 310.7 4.4 310.7 6.4 C 310.7 8.4 309.3 9.7 307.8 9.7 C 306.8 9.7 305.7 9.2 305.3 8 C 305.27 7.99 305.2 9.6 305.2 9.6 L 304.8 9.6 L 304.8 0.1 L 305.3 0.1 C 305.3 0.1 305.31 4.79 305.3 4.8 Z M 305.3 6.4 C 305.3 8.1 306.4 9.2 307.7 9.2 C 309.1 9.2 310.2 8.1 310.2 6.4 C 310.2 4.7 309.1 3.6 307.7 3.6 C 306.4 3.6 305.3 4.7 305.3 6.4 Z M 312.6 0.1 L 313.1 0.1 L 313.1 9.6 L 312.6 9.6 L 312.6 0.1 Z M 320.5 6.6 C 320.5 6.6 315.4 6.6 315.4 6.6 C 315.5 8.2 316.5 9.2 318 9.2 C 318.8 9.2 319.6 9 320.3 8.3 C 320.3 8.3 320.3 8.9 320.3 8.9 C 319.6 9.4 318.8 9.7 318 9.7 C 316.2 9.7 314.9 8.4 314.9 6.4 C 314.9 4.4 316.3 3.1 317.9 3.1 C 319.3 3.1 320.5 4.2 320.5 6.3 C 320.5 6.4 320.5 6.5 320.5 6.6 Z M 320 6.1 C 320 4.4 319 3.6 317.9 3.6 C 316.7 3.6 315.6 4.6 315.4 6.1 C 315.4 6.1 320 6.1 320 6.1 Z M 325.2 3.7 L 324.3 3.7 L 324.3 3.2 L 325.2 3.2 C 325.2 3.2 325.23 2 325.2 2 C 325.2 0.7 326.1 0 327.1 0 C 327.5 0 327.8 0.1 328.1 0.2 C 328.1 0.2 328.1 0.7 328.1 0.7 C 327.9 0.6 327.5 0.5 327.2 0.5 C 326.3 0.5 325.7 1 325.7 2.1 C 325.75 2.09 325.7 3.2 325.7 3.2 L 327.7 3.2 L 327.7 3.7 L 325.7 3.7 L 325.7 9.6 L 325.2 9.6 L 325.2 3.7 Z M 328.3 6.4 C 328.3 4.4 329.7 3.1 331.2 3.1 C 332.2 3.1 333.2 3.7 333.7 4.8 C 333.72 4.82 333.8 3.2 333.8 3.2 L 334.2 3.2 L 334.2 9.6 L 333.8 9.6 C 333.8 9.6 333.72 8 333.7 8 C 333.2 9.2 332.2 9.7 331.2 9.7 C 329.7 9.7 328.3 8.4 328.3 6.4 Z M 333.7 6.4 C 333.7 4.7 332.6 3.6 331.3 3.6 C 329.9 3.6 328.8 4.7 328.8 6.4 C 328.8 8.1 329.9 9.2 331.3 9.2 C 332.6 9.2 333.7 8.1 333.7 6.4 Z M 336.3 5.7 L 339.1 5.7 L 339.1 6.2 L 336.3 6.2 L 336.3 5.7 Z " stroke="none" fill="#000"/>
  </g>
</svg>