<?xml version="1.0" standalone="no"?>
<!DOCTYPE svg PUBLIC "-//W3C//DTD SVG 1.1//EN" "http://www.w3.org/Graphics/SVG/1.1/DTD/svg11.dtd">
<svg xmlns="http://www.w3.org/2000/svg" version="1.1" width="162px" height="183.4px" viewBox="0 0 162 183.4">
  <desc>Souvent utilis e dans l atelier, la technique du cintrage permet habituellement la restauration de meubles En r fl c</desc>
  <defs/>
  <g id="Polygon31130">
    <path d="M 1.4 147.7 L 0.4 147.7 L 0.4 147.2 L 1.4 147.2 C 1.4 147.2 1.37 146 1.4 146 C 1.4 144.7 2.2 144 3.3 144 C 3.6 144 4 144.1 4.2 144.2 C 4.2 144.2 4.2 144.7 4.2 144.7 C 4 144.6 3.6 144.5 3.3 144.5 C 2.4 144.5 1.9 145 1.9 146.1 C 1.88 146.09 1.9 147.2 1.9 147.2 L 3.8 147.2 L 3.8 147.7 L 1.9 147.7 L 1.9 153.6 L 1.4 153.6 L 1.4 147.7 Z M 4.4 150.4 C 4.4 148.4 5.8 147.1 7.3 147.1 C 8.4 147.1 9.4 147.7 9.9 148.8 C 9.85 148.82 9.9 147.2 9.9 147.2 L 10.3 147.2 L 10.3 153.6 L 9.9 153.6 C 9.9 153.6 9.85 152 9.9 152 C 9.4 153.2 8.4 153.7 7.4 153.7 C 5.8 153.7 4.4 152.4 4.4 150.4 Z M 9.8 150.4 C 9.8 148.7 8.7 147.6 7.4 147.6 C 6.1 147.6 4.9 148.7 4.9 150.4 C 4.9 152.1 6.1 153.2 7.4 153.2 C 8.7 153.2 9.8 152.1 9.8 150.4 Z M 12.5 144.9 C 12.5 144.7 12.7 144.5 12.9 144.5 C 13.1 144.5 13.3 144.7 13.3 144.9 C 13.3 145.1 13.1 145.3 12.9 145.3 C 12.7 145.3 12.5 145.1 12.5 144.9 Z M 12.6 147.2 L 13.1 147.2 L 13.1 153.6 L 12.6 153.6 L 12.6 147.2 Z M 19 147.7 C 19 147.7 19 148.2 19 148.2 C 18.5 147.9 17.9 147.6 17.2 147.6 C 16.2 147.6 15.6 148.1 15.6 148.8 C 15.6 149.5 16.3 149.8 17.3 150.1 C 18.3 150.5 19.3 150.8 19.3 151.9 C 19.3 153 18.5 153.7 17.2 153.7 C 16.4 153.7 15.6 153.5 15 153 C 15 153 15 152.3 15 152.3 C 15.6 152.9 16.3 153.2 17.2 153.2 C 18.2 153.2 18.8 152.7 18.8 151.9 C 18.8 151.2 18.1 150.9 17.1 150.5 C 16 150.2 15.1 149.9 15.1 148.8 C 15.1 147.8 16 147.1 17.2 147.1 C 17.9 147.1 18.5 147.3 19 147.7 Z M 20.6 150.4 C 20.6 148.4 22 147.1 23.5 147.1 C 24.5 147.1 25.6 147.7 26 148.8 C 26.03 148.82 26.1 147.2 26.1 147.2 L 26.5 147.2 L 26.5 153.6 L 26.1 153.6 C 26.1 153.6 26.03 152 26 152 C 25.6 153.2 24.5 153.7 23.5 153.7 C 22 153.7 20.6 152.4 20.6 150.4 Z M 26 150.4 C 26 148.7 24.9 147.6 23.6 147.6 C 22.2 147.6 21.1 148.7 21.1 150.4 C 21.1 152.1 22.3 153.2 23.6 153.2 C 24.9 153.2 26 152.1 26 150.4 Z M 33.6 149.4 C 33.56 149.36 33.6 153.6 33.6 153.6 L 33.1 153.6 C 33.1 153.6 33.06 149.57 33.1 149.6 C 33.1 148.3 32.4 147.6 31.2 147.6 C 30.2 147.6 29.3 148.3 29.3 149.5 C 29.28 149.51 29.3 153.6 29.3 153.6 L 28.8 153.6 L 28.8 147.2 L 29.2 147.2 L 29.2 148.4 C 29.2 148.4 29.24 148.36 29.2 148.4 C 29.6 147.6 30.4 147.1 31.3 147.1 C 32.7 147.1 33.6 148 33.6 149.4 Z M 36.4 147.2 L 38.3 147.2 L 38.3 147.7 L 36.4 147.7 C 36.4 147.7 36.38 151.6 36.4 151.6 C 36.4 152.8 37 153.2 37.9 153.2 C 38.1 153.2 38.3 153.2 38.5 153.2 C 38.5 153.2 38.5 153.6 38.5 153.6 C 38.4 153.6 38.1 153.7 37.9 153.7 C 36.7 153.7 35.9 153 35.9 151.6 C 35.88 151.62 35.9 147.7 35.9 147.7 L 34.9 147.7 L 34.9 147.2 L 35.9 147.2 L 35.9 145.7 L 36.4 145.7 L 36.4 147.2 Z M 42.2 147.2 L 42.7 147.2 L 44.8 153 L 44.8 153 L 46.9 147.2 L 47.5 147.2 L 45.1 153.6 L 44.6 153.6 L 42.2 147.2 Z M 48.3 150.4 C 48.3 148.4 49.8 147.1 51.3 147.1 C 52.3 147.1 53.3 147.7 53.8 148.8 C 53.76 148.82 53.8 147.2 53.8 147.2 L 54.2 147.2 L 54.2 153.6 L 53.8 153.6 C 53.8 153.6 53.76 152 53.8 152 C 53.3 153.2 52.3 153.7 51.3 153.7 C 49.8 153.7 48.3 152.4 48.3 150.4 Z M 53.7 150.4 C 53.7 148.7 52.6 147.6 51.3 147.6 C 50 147.6 48.9 148.7 48.9 150.4 C 48.9 152.1 50 153.2 51.3 153.2 C 52.6 153.2 53.7 152.1 53.7 150.4 Z M 56.5 147.2 L 56.9 147.2 L 57 148.4 C 57 148.4 56.97 148.42 57 148.4 C 57.4 147.5 58.2 147.2 58.9 147.2 C 59 147.2 59.1 147.2 59.2 147.2 C 59.2 147.2 59.2 147.7 59.2 147.7 C 59.1 147.7 59 147.7 58.9 147.7 C 58 147.7 57 148.3 57 149.6 C 57.01 149.57 57 153.6 57 153.6 L 56.5 153.6 L 56.5 147.2 Z M 60.5 144.9 C 60.5 144.7 60.6 144.5 60.9 144.5 C 61.1 144.5 61.3 144.7 61.3 144.9 C 61.3 145.1 61.1 145.3 60.9 145.3 C 60.6 145.3 60.5 145.1 60.5 144.9 Z M 60.6 147.2 L 61.1 147.2 L 61.1 153.6 L 60.6 153.6 L 60.6 147.2 Z M 68.5 150.6 C 68.5 150.6 63.5 150.6 63.5 150.6 C 63.6 152.2 64.6 153.2 66 153.2 C 66.8 153.2 67.6 153 68.3 152.3 C 68.3 152.3 68.3 152.9 68.3 152.9 C 67.6 153.4 66.9 153.7 66 153.7 C 64.2 153.7 63 152.4 63 150.4 C 63 148.4 64.4 147.1 65.9 147.1 C 67.4 147.1 68.6 148.2 68.6 150.3 C 68.6 150.4 68.6 150.5 68.5 150.6 Z M 68.1 150.1 C 68 148.4 67 147.6 65.9 147.6 C 64.7 147.6 63.6 148.6 63.5 150.1 C 63.5 150.1 68.1 150.1 68.1 150.1 Z M 70.4 147.2 L 70.8 147.2 L 70.8 148.4 C 70.8 148.4 70.83 148.42 70.8 148.4 C 71.2 147.5 72.1 147.2 72.7 147.2 C 72.9 147.2 73 147.2 73.1 147.2 C 73.1 147.2 73.1 147.7 73.1 147.7 C 73 147.7 72.9 147.7 72.7 147.7 C 71.8 147.7 70.9 148.3 70.9 149.6 C 70.87 149.57 70.9 153.6 70.9 153.6 L 70.4 153.6 L 70.4 147.2 Z M 77.6 144.1 L 78.1 144.1 L 78.1 153.6 L 77.6 153.6 L 77.6 144.1 Z M 80.7 145.1 C 80.65 145.13 80.7 144.7 80.7 144.7 L 81.2 144.7 C 81.2 144.7 81.15 145.12 81.2 145.1 C 81.2 146.1 80.8 147.1 80.5 147.7 C 80.5 147.7 80.1 147.7 80.1 147.7 C 80.3 147.1 80.7 146.1 80.7 145.1 Z M 85 146.1 L 84.5 146.1 L 85.9 144.2 L 86.5 144.2 L 85 146.1 Z M 87.8 150.6 C 87.8 150.6 82.8 150.6 82.8 150.6 C 82.8 152.2 83.9 153.2 85.3 153.2 C 86.1 153.2 86.9 153 87.6 152.3 C 87.6 152.3 87.6 152.9 87.6 152.9 C 86.9 153.4 86.1 153.7 85.3 153.7 C 83.5 153.7 82.2 152.4 82.2 150.4 C 82.2 148.4 83.7 147.1 85.2 147.1 C 86.6 147.1 87.8 148.2 87.8 150.3 C 87.8 150.4 87.8 150.5 87.8 150.6 Z M 87.3 150.1 C 87.3 148.4 86.3 147.6 85.2 147.6 C 84 147.6 82.9 148.6 82.8 150.1 C 82.8 150.1 87.3 150.1 87.3 150.1 Z M 92.3 153.2 C 92.8 153.2 93.4 153.1 94 152.7 C 94 152.7 94 153.3 94 153.3 C 93.5 153.6 92.9 153.7 92.3 153.7 C 90.5 153.7 89.2 152.3 89.2 150.4 C 89.2 148.5 90.5 147.1 92.2 147.1 C 92.8 147.1 93.4 147.2 94 147.6 C 94 147.6 94 148.1 94 148.1 C 93.4 147.7 92.8 147.6 92.2 147.6 C 90.9 147.6 89.7 148.7 89.7 150.4 C 89.7 152.1 90.9 153.2 92.3 153.2 Z M 95.8 144.1 L 96.3 144.1 L 96.3 153.6 L 95.8 153.6 L 95.8 144.1 Z M 98.1 150.4 C 98.1 148.4 99.5 147.1 101.1 147.1 C 102.1 147.1 103.1 147.7 103.6 148.8 C 103.56 148.82 103.6 147.2 103.6 147.2 L 104 147.2 L 104 153.6 L 103.6 153.6 C 103.6 153.6 103.56 152 103.6 152 C 103.1 153.2 102.1 153.7 101.1 153.7 C 99.5 153.7 98.1 152.4 98.1 150.4 Z M 103.5 150.4 C 103.5 148.7 102.4 147.6 101.1 147.6 C 99.8 147.6 98.6 148.7 98.6 150.4 C 98.6 152.1 99.8 153.2 101.1 153.2 C 102.4 153.2 103.5 152.1 103.5 150.4 Z M 106.2 144.9 C 106.2 144.7 106.4 144.5 106.6 144.5 C 106.8 144.5 107 144.7 107 144.9 C 107 145.1 106.8 145.3 106.6 145.3 C 106.4 145.3 106.2 145.1 106.2 144.9 Z M 106.3 147.2 L 106.8 147.2 L 106.8 153.6 L 106.3 153.6 L 106.3 147.2 Z M 109.2 147.2 L 109.6 147.2 L 109.6 148.4 C 109.6 148.4 109.63 148.42 109.6 148.4 C 110 147.5 110.9 147.2 111.5 147.2 C 111.6 147.2 111.8 147.2 111.9 147.2 C 111.9 147.2 111.9 147.7 111.9 147.7 C 111.8 147.7 111.6 147.7 111.5 147.7 C 110.6 147.7 109.7 148.3 109.7 149.6 C 109.67 149.57 109.7 153.6 109.7 153.6 L 109.2 153.6 L 109.2 147.2 Z M 112.5 150.4 C 112.5 148.4 113.9 147.1 115.4 147.1 C 116.4 147.1 117.4 147.7 117.9 148.8 C 117.88 148.82 117.9 147.2 117.9 147.2 L 118.3 147.2 L 118.3 153.6 L 117.9 153.6 C 117.9 153.6 117.88 152 117.9 152 C 117.4 153.2 116.4 153.7 115.4 153.7 C 113.9 153.7 112.5 152.4 112.5 150.4 Z M 117.9 150.4 C 117.9 148.7 116.7 147.6 115.4 147.6 C 114.1 147.6 113 148.7 113 150.4 C 113 152.1 114.1 153.2 115.4 153.2 C 116.7 153.2 117.9 152.1 117.9 150.4 Z M 125.5 148.8 C 125.54 148.76 125.6 147.2 125.6 147.2 L 126 147.2 C 126 147.2 126.01 153.4 126 153.4 C 126 155.4 124.6 156.3 123.2 156.3 C 122.4 156.3 121.5 156 120.8 155.5 C 120.8 155.5 120.8 154.9 120.8 154.9 C 121.5 155.5 122.4 155.8 123.2 155.8 C 124.4 155.8 125.5 155.1 125.5 153.5 C 125.5 153.5 125.5 151.9 125.5 151.9 C 125.1 153 124.1 153.5 123.1 153.5 C 121.6 153.5 120.2 152.3 120.2 150.3 C 120.2 148.4 121.6 147.1 123.1 147.1 C 124.1 147.1 125.1 147.7 125.5 148.8 Z M 120.7 150.3 C 120.7 152 121.8 153 123.1 153 C 124.4 153 125.5 151.9 125.5 150.3 C 125.5 148.7 124.4 147.6 123.1 147.6 C 121.8 147.6 120.7 148.7 120.7 150.3 Z M 133.4 150.6 C 133.4 150.6 128.3 150.6 128.3 150.6 C 128.4 152.2 129.5 153.2 130.9 153.2 C 131.7 153.2 132.5 153 133.2 152.3 C 133.2 152.3 133.2 152.9 133.2 152.9 C 132.5 153.4 131.7 153.7 130.9 153.7 C 129.1 153.7 127.8 152.4 127.8 150.4 C 127.8 148.4 129.3 147.1 130.8 147.1 C 132.2 147.1 133.4 148.2 133.4 150.3 C 133.4 150.4 133.4 150.5 133.4 150.6 Z M 132.9 150.1 C 132.9 148.4 131.9 147.6 130.8 147.6 C 129.6 147.6 128.5 148.6 128.4 150.1 C 128.4 150.1 132.9 150.1 132.9 150.1 Z M 135 153.2 C 135 152.9 135.2 152.7 135.5 152.7 C 135.8 152.7 136 152.9 136 153.2 C 136 153.4 135.8 153.6 135.5 153.6 C 135.2 153.6 135 153.4 135 153.2 Z " stroke="none" fill="#000"/>
  </g>
  <g id="Polygon31129">
    <path d="M 4.7 133.3 C 4.7 133.3 4.7 133.8 4.7 133.8 C 4.2 133.5 3.6 133.2 2.9 133.2 C 1.9 133.2 1.3 133.7 1.3 134.4 C 1.3 135.1 2 135.4 3 135.7 C 4 136.1 5 136.4 5 137.5 C 5 138.6 4.1 139.3 2.8 139.3 C 2.1 139.3 1.3 139.1 0.7 138.6 C 0.7 138.6 0.7 137.9 0.7 137.9 C 1.2 138.5 2 138.8 2.8 138.8 C 3.9 138.8 4.5 138.3 4.5 137.5 C 4.5 136.8 3.8 136.5 2.8 136.1 C 1.7 135.8 0.8 135.5 0.8 134.4 C 0.8 133.4 1.6 132.7 2.9 132.7 C 3.6 132.7 4.2 132.9 4.7 133.3 Z M 6.9 130.7 C 6.95 130.73 6.9 130.3 6.9 130.3 L 7.5 130.3 C 7.5 130.3 7.45 130.72 7.5 130.7 C 7.5 131.7 7.1 132.7 6.8 133.3 C 6.8 133.3 6.4 133.3 6.4 133.3 C 6.6 132.7 6.9 131.7 6.9 130.7 Z M 8.5 136 C 8.5 134.1 9.9 132.7 11.6 132.7 C 13.2 132.7 14.6 134.1 14.6 136 C 14.6 138 13.2 139.3 11.6 139.3 C 9.9 139.3 8.5 138 8.5 136 Z M 14.1 136 C 14.1 134.2 12.9 133.2 11.6 133.2 C 10.3 133.2 9 134.2 9 136 C 9 137.8 10.3 138.8 11.6 138.8 C 12.9 138.8 14.1 137.8 14.1 136 Z M 16.4 136.9 C 16.36 136.88 16.4 132.8 16.4 132.8 L 16.9 132.8 C 16.9 132.8 16.86 136.91 16.9 136.9 C 16.9 138.1 17.6 138.8 18.7 138.8 C 19.9 138.8 20.7 138.1 20.7 136.9 C 20.65 136.9 20.7 132.8 20.7 132.8 L 21.2 132.8 C 21.2 132.8 21.15 136.87 21.2 136.9 C 21.2 138.3 20.2 139.3 18.7 139.3 C 17.3 139.3 16.4 138.3 16.4 136.9 Z M 22.6 132.8 L 23.1 132.8 L 25.2 138.6 L 25.3 138.6 L 27.4 132.8 L 27.9 132.8 L 25.5 139.2 L 25 139.2 L 22.6 132.8 Z M 29.4 132.8 L 29.8 132.8 L 29.9 134 C 29.9 134 29.88 134.02 29.9 134 C 30.3 133.1 31.1 132.8 31.8 132.8 C 31.9 132.8 32 132.8 32.1 132.8 C 32.1 132.8 32.1 133.3 32.1 133.3 C 32 133.3 31.9 133.3 31.8 133.3 C 30.9 133.3 29.9 133.9 29.9 135.2 C 29.91 135.17 29.9 139.2 29.9 139.2 L 29.4 139.2 L 29.4 132.8 Z M 38.3 136.2 C 38.3 136.2 33.2 136.2 33.2 136.2 C 33.3 137.8 34.3 138.8 35.8 138.8 C 36.6 138.8 37.4 138.6 38.1 137.9 C 38.1 137.9 38.1 138.5 38.1 138.5 C 37.4 139 36.6 139.3 35.8 139.3 C 34 139.3 32.7 138 32.7 136 C 32.7 134 34.1 132.7 35.7 132.7 C 37.1 132.7 38.3 133.8 38.3 135.9 C 38.3 136 38.3 136.1 38.3 136.2 Z M 37.8 135.7 C 37.8 134 36.8 133.2 35.7 133.2 C 34.5 133.2 33.3 134.2 33.2 135.7 C 33.2 135.7 37.8 135.7 37.8 135.7 Z M 44.9 135 C 44.89 134.96 44.9 139.2 44.9 139.2 L 44.4 139.2 C 44.4 139.2 44.39 135.17 44.4 135.2 C 44.4 133.9 43.7 133.2 42.6 133.2 C 41.5 133.2 40.6 133.9 40.6 135.1 C 40.61 135.11 40.6 139.2 40.6 139.2 L 40.1 139.2 L 40.1 132.8 L 40.5 132.8 L 40.6 134 C 40.6 134 40.57 133.96 40.6 134 C 40.9 133.2 41.7 132.7 42.6 132.7 C 44 132.7 44.9 133.6 44.9 135 Z M 47.7 132.8 L 49.6 132.8 L 49.6 133.3 L 47.7 133.3 C 47.7 133.3 47.71 137.2 47.7 137.2 C 47.7 138.4 48.3 138.8 49.2 138.8 C 49.4 138.8 49.6 138.8 49.8 138.8 C 49.8 138.8 49.8 139.2 49.8 139.2 C 49.7 139.2 49.5 139.3 49.2 139.3 C 48 139.3 47.2 138.6 47.2 137.2 C 47.21 137.22 47.2 133.3 47.2 133.3 L 46.2 133.3 L 46.2 132.8 L 47.2 132.8 L 47.2 131.3 L 47.7 131.3 L 47.7 132.8 Z M 55 136 C 55 134.1 56.4 132.7 58.1 132.7 C 59.7 132.7 61.1 134.1 61.1 136 C 61.1 138 59.7 139.3 58.1 139.3 C 56.4 139.3 55 138 55 136 Z M 60.6 136 C 60.6 134.2 59.4 133.2 58.1 133.2 C 56.7 133.2 55.5 134.2 55.5 136 C 55.5 137.8 56.8 138.8 58.1 138.8 C 59.4 138.8 60.6 137.8 60.6 136 Z M 62.8 136.9 C 62.83 136.88 62.8 132.8 62.8 132.8 L 63.3 132.8 C 63.3 132.8 63.33 136.91 63.3 136.9 C 63.3 138.1 64.1 138.8 65.2 138.8 C 66.4 138.8 67.1 138.1 67.1 136.9 C 67.13 136.9 67.1 132.8 67.1 132.8 L 67.6 132.8 C 67.6 132.8 67.63 136.87 67.6 136.9 C 67.6 138.3 66.7 139.3 65.2 139.3 C 63.7 139.3 62.8 138.3 62.8 136.9 Z M 77.8 133.3 C 77.8 133.3 77.8 133.8 77.8 133.8 C 77.3 133.5 76.7 133.2 75.9 133.2 C 75 133.2 74.4 133.7 74.4 134.4 C 74.4 135.1 75 135.4 76.1 135.7 C 77.1 136.1 78.1 136.4 78.1 137.5 C 78.1 138.6 77.2 139.3 75.9 139.3 C 75.2 139.3 74.4 139.1 73.8 138.6 C 73.8 138.6 73.8 137.9 73.8 137.9 C 74.3 138.5 75.1 138.8 75.9 138.8 C 76.9 138.8 77.6 138.3 77.6 137.5 C 77.6 136.8 76.9 136.5 75.8 136.1 C 74.8 135.8 73.9 135.5 73.9 134.4 C 73.9 133.4 74.7 132.7 76 132.7 C 76.6 132.7 77.3 132.9 77.8 133.3 Z M 84.9 136.2 C 84.9 136.2 79.9 136.2 79.9 136.2 C 80 137.8 81 138.8 82.4 138.8 C 83.2 138.8 84 138.6 84.7 137.9 C 84.7 137.9 84.7 138.5 84.7 138.5 C 84 139 83.3 139.3 82.4 139.3 C 80.6 139.3 79.4 138 79.4 136 C 79.4 134 80.8 132.7 82.3 132.7 C 83.8 132.7 85 133.8 85 135.9 C 85 136 85 136.1 84.9 136.2 Z M 84.5 135.7 C 84.4 134 83.4 133.2 82.3 133.2 C 81.1 133.2 80 134.2 79.9 135.7 C 79.9 135.7 84.5 135.7 84.5 135.7 Z M 91.2 132.8 L 91.6 132.8 L 91.6 134 C 91.6 134 91.63 134.02 91.6 134 C 92 133.1 92.9 132.8 93.5 132.8 C 93.6 132.8 93.8 132.8 93.9 132.8 C 93.9 132.8 93.9 133.3 93.9 133.3 C 93.8 133.3 93.6 133.3 93.5 133.3 C 92.6 133.3 91.7 133.9 91.7 135.2 C 91.66 135.17 91.7 139.2 91.7 139.2 L 91.2 139.2 L 91.2 132.8 Z M 100 136.2 C 100 136.2 95 136.2 95 136.2 C 95.1 137.8 96.1 138.8 97.5 138.8 C 98.3 138.8 99.1 138.6 99.8 137.9 C 99.8 137.9 99.8 138.5 99.8 138.5 C 99.1 139 98.3 139.3 97.5 139.3 C 95.7 139.3 94.5 138 94.5 136 C 94.5 134 95.9 132.7 97.4 132.7 C 98.8 132.7 100.1 133.8 100.1 135.9 C 100.1 136 100 136.1 100 136.2 Z M 99.5 135.7 C 99.5 134 98.5 133.2 97.4 133.2 C 96.2 133.2 95.1 134.2 95 135.7 C 95 135.7 99.5 135.7 99.5 135.7 Z M 102 133.3 L 101.1 133.3 L 101.1 132.8 L 102 132.8 C 102 132.8 102.03 131.6 102 131.6 C 102 130.3 102.9 129.6 103.9 129.6 C 104.3 129.6 104.6 129.7 104.9 129.8 C 104.9 129.8 104.9 130.3 104.9 130.3 C 104.7 130.2 104.3 130.1 104 130.1 C 103.1 130.1 102.5 130.6 102.5 131.7 C 102.55 131.69 102.5 132.8 102.5 132.8 L 104.5 132.8 L 104.5 133.3 L 102.5 133.3 L 102.5 139.2 L 102 139.2 L 102 133.3 Z M 110.7 136.2 C 110.7 136.2 105.6 136.2 105.6 136.2 C 105.7 137.8 106.7 138.8 108.2 138.8 C 108.9 138.8 109.8 138.6 110.4 137.9 C 110.4 137.9 110.4 138.5 110.4 138.5 C 109.8 139 109 139.3 108.2 139.3 C 106.4 139.3 105.1 138 105.1 136 C 105.1 134 106.5 132.7 108.1 132.7 C 109.5 132.7 110.7 133.8 110.7 135.9 C 110.7 136 110.7 136.1 110.7 136.2 Z M 110.2 135.7 C 110.2 134 109.1 133.2 108.1 133.2 C 106.9 133.2 105.7 134.2 105.6 135.7 C 105.6 135.7 110.2 135.7 110.2 135.7 Z M 112.5 132.8 L 112.9 132.8 L 113 134 C 113 134 112.96 134.02 113 134 C 113.3 133.1 114.2 132.8 114.8 132.8 C 115 132.8 115.1 132.8 115.2 132.8 C 115.2 132.8 115.2 133.3 115.2 133.3 C 115.1 133.3 115 133.3 114.8 133.3 C 113.9 133.3 113 133.9 113 135.2 C 113 135.17 113 139.2 113 139.2 L 112.5 139.2 L 112.5 132.8 Z M 124.3 134.9 C 124.29 134.88 124.3 139.2 124.3 139.2 L 123.8 139.2 C 123.8 139.2 123.79 134.93 123.8 134.9 C 123.8 133.9 123.3 133.2 122.3 133.2 C 121.3 133.2 120.7 134 120.7 134.9 C 120.68 134.94 120.7 139.2 120.7 139.2 L 120.2 139.2 C 120.2 139.2 120.18 134.93 120.2 134.9 C 120.2 133.9 119.7 133.2 118.7 133.2 C 117.7 133.2 117.1 134 117.1 135 C 117.07 134.96 117.1 139.2 117.1 139.2 L 116.6 139.2 L 116.6 132.8 L 117 132.8 L 117 133.9 C 117 133.9 117.03 133.88 117 133.9 C 117.3 133.2 117.9 132.7 118.7 132.7 C 119.7 132.7 120.3 133.2 120.5 134 C 120.8 133.2 121.4 132.7 122.4 132.7 C 123.7 132.7 124.3 133.6 124.3 134.9 Z M 131.6 136.2 C 131.6 136.2 126.6 136.2 126.6 136.2 C 126.6 137.8 127.7 138.8 129.1 138.8 C 129.9 138.8 130.7 138.6 131.4 137.9 C 131.4 137.9 131.4 138.5 131.4 138.5 C 130.7 139 129.9 139.3 129.1 139.3 C 127.3 139.3 126.1 138 126.1 136 C 126.1 134 127.5 132.7 129 132.7 C 130.4 132.7 131.6 133.8 131.6 135.9 C 131.6 136 131.6 136.1 131.6 136.2 Z M 131.1 135.7 C 131.1 134 130.1 133.2 129 133.2 C 127.8 133.2 126.7 134.2 126.6 135.7 C 126.6 135.7 131.1 135.7 131.1 135.7 Z M 138.2 135 C 138.22 134.96 138.2 139.2 138.2 139.2 L 137.7 139.2 C 137.7 139.2 137.72 135.17 137.7 135.2 C 137.7 133.9 137.1 133.2 135.9 133.2 C 134.8 133.2 133.9 133.9 133.9 135.1 C 133.94 135.11 133.9 139.2 133.9 139.2 L 133.4 139.2 L 133.4 132.8 L 133.8 132.8 L 133.9 134 C 133.9 134 133.9 133.96 133.9 134 C 134.3 133.2 135 132.7 136 132.7 C 137.3 132.7 138.2 133.6 138.2 135 Z M 141 132.8 L 142.9 132.8 L 142.9 133.3 L 141 133.3 C 141 133.3 141.04 137.2 141 137.2 C 141 138.4 141.7 138.8 142.6 138.8 C 142.8 138.8 142.9 138.8 143.1 138.8 C 143.1 138.8 143.1 139.2 143.1 139.2 C 143 139.2 142.8 139.3 142.5 139.3 C 141.4 139.3 140.5 138.6 140.5 137.2 C 140.54 137.22 140.5 133.3 140.5 133.3 L 139.6 133.3 L 139.6 132.8 L 140.6 132.8 L 140.6 131.3 L 141 131.3 L 141 132.8 Z M 153.9 136.2 C 153.9 136.2 148.9 136.2 148.9 136.2 C 148.9 137.8 150 138.8 151.4 138.8 C 152.2 138.8 153 138.6 153.7 137.9 C 153.7 137.9 153.7 138.5 153.7 138.5 C 153 139 152.2 139.3 151.4 139.3 C 149.6 139.3 148.4 138 148.4 136 C 148.4 134 149.8 132.7 151.3 132.7 C 152.7 132.7 153.9 133.8 153.9 135.9 C 153.9 136 153.9 136.1 153.9 136.2 Z M 153.4 135.7 C 153.4 134 152.4 133.2 151.3 133.2 C 150.1 133.2 149 134.2 148.9 135.7 C 148.9 135.7 153.4 135.7 153.4 135.7 Z M 160.5 135 C 160.52 134.96 160.5 139.2 160.5 139.2 L 160 139.2 C 160 139.2 160.02 135.17 160 135.2 C 160 133.9 159.4 133.2 158.2 133.2 C 157.1 133.2 156.2 133.9 156.2 135.1 C 156.23 135.11 156.2 139.2 156.2 139.2 L 155.7 139.2 L 155.7 132.8 L 156.1 132.8 L 156.2 134 C 156.2 134 156.2 133.96 156.2 134 C 156.5 133.2 157.3 132.7 158.3 132.7 C 159.6 132.7 160.5 133.6 160.5 135 Z " stroke="none" fill="#000"/>
  </g>
  <g id="Polygon31128">
    <path d="M 1.8 118.4 L 3.7 118.4 L 3.7 118.9 L 1.8 118.9 C 1.8 118.9 1.82 122.8 1.8 122.8 C 1.8 124 2.5 124.4 3.4 124.4 C 3.5 124.4 3.7 124.4 3.9 124.4 C 3.9 124.4 3.9 124.8 3.9 124.8 C 3.8 124.8 3.6 124.9 3.3 124.9 C 2.1 124.9 1.3 124.2 1.3 122.8 C 1.32 122.82 1.3 118.9 1.3 118.9 L 0.3 118.9 L 0.3 118.4 L 1.3 118.4 L 1.3 116.9 L 1.8 116.9 L 1.8 118.4 Z M 4.7 121.6 C 4.7 119.6 6.1 118.3 7.6 118.3 C 8.6 118.3 9.7 118.9 10.1 120 C 10.13 120.02 10.2 118.4 10.2 118.4 L 10.6 118.4 L 10.6 124.8 L 10.2 124.8 C 10.2 124.8 10.13 123.2 10.1 123.2 C 9.7 124.4 8.6 124.9 7.6 124.9 C 6.1 124.9 4.7 123.6 4.7 121.6 Z M 10.1 121.6 C 10.1 119.9 9 118.8 7.7 118.8 C 6.3 118.8 5.2 119.9 5.2 121.6 C 5.2 123.3 6.4 124.4 7.7 124.4 C 9 124.4 10.1 123.3 10.1 121.6 Z M 17.7 120.6 C 17.66 120.56 17.7 124.8 17.7 124.8 L 17.2 124.8 C 17.2 124.8 17.16 120.77 17.2 120.8 C 17.2 119.5 16.5 118.8 15.3 118.8 C 14.3 118.8 13.4 119.5 13.4 120.7 C 13.38 120.71 13.4 124.8 13.4 124.8 L 12.9 124.8 L 12.9 118.4 L 13.3 118.4 L 13.3 119.6 C 13.3 119.6 13.34 119.56 13.3 119.6 C 13.7 118.8 14.5 118.3 15.4 118.3 C 16.8 118.3 17.7 119.2 17.7 120.6 Z M 20.5 118.4 L 22.4 118.4 L 22.4 118.9 L 20.5 118.9 C 20.5 118.9 20.48 122.8 20.5 122.8 C 20.5 124 21.1 124.4 22 124.4 C 22.2 124.4 22.4 124.4 22.6 124.4 C 22.6 124.4 22.6 124.8 22.6 124.8 C 22.5 124.8 22.2 124.9 22 124.9 C 20.8 124.9 20 124.2 20 122.8 C 19.98 122.82 20 118.9 20 118.9 L 19 118.9 L 19 118.4 L 20 118.4 L 20 116.9 L 20.5 116.9 L 20.5 118.4 Z M 31.5 121.6 C 31.5 119.6 32.9 118.3 34.4 118.3 C 35.4 118.3 36.4 118.9 36.9 120 C 36.91 120.02 37 118.4 37 118.4 L 37.4 118.4 L 37.4 124.8 L 37 124.8 C 37 124.8 36.91 123.2 36.9 123.2 C 36.4 124.4 35.4 124.9 34.4 124.9 C 32.9 124.9 31.5 123.6 31.5 121.6 Z M 36.9 121.6 C 36.9 119.9 35.8 118.8 34.4 118.8 C 33.1 118.8 32 119.9 32 121.6 C 32 123.3 33.1 124.4 34.5 124.4 C 35.8 124.4 36.9 123.3 36.9 121.6 Z M 39.6 122.5 C 39.57 122.48 39.6 118.4 39.6 118.4 L 40.1 118.4 C 40.1 118.4 40.08 122.51 40.1 122.5 C 40.1 123.7 40.8 124.4 42 124.4 C 43.1 124.4 43.9 123.7 43.9 122.5 C 43.87 122.5 43.9 118.4 43.9 118.4 L 44.4 118.4 C 44.4 118.4 44.37 122.47 44.4 122.5 C 44.4 123.9 43.4 124.9 42 124.9 C 40.5 124.9 39.6 123.9 39.6 122.5 Z M 47.3 118.4 L 49.1 118.4 L 49.1 118.9 L 47.3 118.9 C 47.3 118.9 47.25 122.8 47.3 122.8 C 47.3 124 47.9 124.4 48.8 124.4 C 49 124.4 49.1 124.4 49.3 124.4 C 49.3 124.4 49.3 124.8 49.3 124.8 C 49.3 124.8 49 124.9 48.7 124.9 C 47.6 124.9 46.7 124.2 46.7 122.8 C 46.75 122.82 46.7 118.9 46.7 118.9 L 45.8 118.9 L 45.8 118.4 L 46.8 118.4 L 46.8 116.9 L 47.3 116.9 L 47.3 118.4 Z M 50.1 121.6 C 50.1 119.7 51.5 118.3 53.2 118.3 C 54.9 118.3 56.2 119.7 56.2 121.6 C 56.2 123.6 54.9 124.9 53.2 124.9 C 51.5 124.9 50.1 123.6 50.1 121.6 Z M 55.7 121.6 C 55.7 119.8 54.5 118.8 53.2 118.8 C 51.9 118.8 50.6 119.8 50.6 121.6 C 50.6 123.4 51.9 124.4 53.2 124.4 C 54.5 124.4 55.7 123.4 55.7 121.6 Z M 58 122.5 C 57.97 122.48 58 118.4 58 118.4 L 58.5 118.4 C 58.5 118.4 58.47 122.51 58.5 122.5 C 58.5 123.7 59.2 124.4 60.4 124.4 C 61.5 124.4 62.3 123.7 62.3 122.5 C 62.26 122.5 62.3 118.4 62.3 118.4 L 62.8 118.4 C 62.8 118.4 62.77 122.47 62.8 122.5 C 62.8 123.9 61.8 124.9 60.4 124.9 C 58.9 124.9 58 123.9 58 122.5 Z M 65 118.4 L 65.4 118.4 L 65.4 119.6 C 65.4 119.6 65.43 119.62 65.4 119.6 C 65.8 118.7 66.7 118.4 67.3 118.4 C 67.4 118.4 67.6 118.4 67.7 118.4 C 67.7 118.4 67.7 118.9 67.7 118.9 C 67.6 118.9 67.4 118.9 67.3 118.9 C 66.4 118.9 65.5 119.5 65.5 120.8 C 65.47 120.77 65.5 124.8 65.5 124.8 L 65 124.8 L 65 118.4 Z M 76.4 121.6 C 76.4 119.6 77.8 118.3 79.3 118.3 C 80.3 118.3 81.3 118.9 81.8 120 C 81.77 119.98 81.8 115.3 81.8 115.3 L 82.3 115.3 L 82.3 124.8 L 81.9 124.8 L 81.8 123.2 C 81.8 123.2 81.8 123.19 81.8 123.2 C 81.3 124.4 80.3 124.9 79.3 124.9 C 77.8 124.9 76.4 123.6 76.4 121.6 Z M 81.8 121.6 C 81.8 119.9 80.7 118.8 79.3 118.8 C 78 118.8 76.9 119.9 76.9 121.6 C 76.9 123.3 78 124.4 79.3 124.4 C 80.7 124.4 81.8 123.3 81.8 121.6 Z M 84.7 116.3 C 84.75 116.33 84.7 115.9 84.7 115.9 L 85.3 115.9 C 85.3 115.9 85.25 116.32 85.3 116.3 C 85.3 117.3 84.9 118.3 84.6 118.9 C 84.6 118.9 84.2 118.9 84.2 118.9 C 84.4 118.3 84.7 117.3 84.7 116.3 Z M 87.1 122.5 C 87.08 122.48 87.1 118.4 87.1 118.4 L 87.6 118.4 C 87.6 118.4 87.58 122.51 87.6 122.5 C 87.6 123.7 88.3 124.4 89.5 124.4 C 90.6 124.4 91.4 123.7 91.4 122.5 C 91.37 122.5 91.4 118.4 91.4 118.4 L 91.9 118.4 C 91.9 118.4 91.87 122.47 91.9 122.5 C 91.9 123.9 90.9 124.9 89.5 124.9 C 88 124.9 87.1 123.9 87.1 122.5 Z M 98.9 120.6 C 98.86 120.56 98.9 124.8 98.9 124.8 L 98.4 124.8 C 98.4 124.8 98.36 120.77 98.4 120.8 C 98.4 119.5 97.7 118.8 96.5 118.8 C 95.5 118.8 94.6 119.5 94.6 120.7 C 94.57 120.71 94.6 124.8 94.6 124.8 L 94.1 124.8 L 94.1 118.4 L 94.5 118.4 L 94.5 119.6 C 94.5 119.6 94.54 119.56 94.5 119.6 C 94.9 118.8 95.7 118.3 96.6 118.3 C 98 118.3 98.9 119.2 98.9 120.6 Z M 108.7 121.6 C 108.7 119.6 110.1 118.3 111.6 118.3 C 112.6 118.3 113.7 118.9 114.1 120 C 114.12 120.02 114.2 118.4 114.2 118.4 L 114.6 118.4 L 114.6 124.8 L 114.2 124.8 C 114.2 124.8 114.12 123.2 114.1 123.2 C 113.7 124.4 112.6 124.9 111.6 124.9 C 110.1 124.9 108.7 123.6 108.7 121.6 Z M 114.1 121.6 C 114.1 119.9 113 118.8 111.7 118.8 C 110.3 118.8 109.2 119.9 109.2 121.6 C 109.2 123.3 110.4 124.4 111.7 124.4 C 113 124.4 114.1 123.3 114.1 121.6 Z M 118.9 121.6 L 121.2 124.8 L 120.6 124.8 L 118.7 122 L 118.7 122 L 116.7 124.8 L 116.1 124.8 L 118.4 121.6 L 116.1 118.4 L 116.7 118.4 L 118.6 121.2 L 118.7 121.2 L 120.6 118.4 L 121.2 118.4 L 118.9 121.6 Z M 127.6 121.8 C 127.6 121.8 122.5 121.8 122.5 121.8 C 122.6 123.4 123.6 124.4 125.1 124.4 C 125.9 124.4 126.7 124.2 127.4 123.5 C 127.4 123.5 127.4 124.1 127.4 124.1 C 126.7 124.6 125.9 124.9 125.1 124.9 C 123.3 124.9 122 123.6 122 121.6 C 122 119.6 123.4 118.3 125 118.3 C 126.4 118.3 127.6 119.4 127.6 121.5 C 127.6 121.6 127.6 121.7 127.6 121.8 Z M 127.1 121.3 C 127.1 119.6 126.1 118.8 125 118.8 C 123.8 118.8 122.7 119.8 122.5 121.3 C 122.5 121.3 127.1 121.3 127.1 121.3 Z M 142.6 121.8 C 142.6 121.8 137.6 121.8 137.6 121.8 C 137.7 123.4 138.7 124.4 140.1 124.4 C 140.9 124.4 141.7 124.2 142.4 123.5 C 142.4 123.5 142.4 124.1 142.4 124.1 C 141.7 124.6 140.9 124.9 140.1 124.9 C 138.3 124.9 137.1 123.6 137.1 121.6 C 137.1 119.6 138.5 118.3 140 118.3 C 141.4 118.3 142.7 119.4 142.7 121.5 C 142.7 121.6 142.6 121.7 142.6 121.8 Z M 142.1 121.3 C 142.1 119.6 141.1 118.8 140 118.8 C 138.8 118.8 137.7 119.8 137.6 121.3 C 137.6 121.3 142.1 121.3 142.1 121.3 Z M 144.5 115.3 L 145 115.3 L 145 124.8 L 144.5 124.8 L 144.5 115.3 Z M 147.3 115.3 L 147.8 115.3 L 147.8 124.8 L 147.3 124.8 L 147.3 115.3 Z M 155.3 121.8 C 155.3 121.8 150.2 121.8 150.2 121.8 C 150.3 123.4 151.3 124.4 152.8 124.4 C 153.5 124.4 154.4 124.2 155 123.5 C 155 123.5 155 124.1 155 124.1 C 154.4 124.6 153.6 124.9 152.8 124.9 C 151 124.9 149.7 123.6 149.7 121.6 C 149.7 119.6 151.1 118.3 152.7 118.3 C 154.1 118.3 155.3 119.4 155.3 121.5 C 155.3 121.6 155.3 121.7 155.3 121.8 Z M 154.8 121.3 C 154.8 119.6 153.8 118.8 152.7 118.8 C 151.5 118.8 150.3 119.8 150.2 121.3 C 150.2 121.3 154.8 121.3 154.8 121.3 Z M 160.7 118.9 C 160.7 118.9 160.7 119.4 160.7 119.4 C 160.1 119.1 159.5 118.8 158.8 118.8 C 157.9 118.8 157.3 119.3 157.3 120 C 157.3 120.7 157.9 121 158.9 121.3 C 160 121.7 161 122 161 123.1 C 161 124.2 160.1 124.9 158.8 124.9 C 158 124.9 157.3 124.7 156.7 124.2 C 156.7 124.2 156.7 123.5 156.7 123.5 C 157.2 124.1 158 124.4 158.8 124.4 C 159.8 124.4 160.5 123.9 160.5 123.1 C 160.5 122.4 159.7 122.1 158.7 121.7 C 157.7 121.4 156.8 121.1 156.8 120 C 156.8 119 157.6 118.3 158.8 118.3 C 159.5 118.3 160.2 118.5 160.7 118.9 Z " stroke="none" fill="#000"/>
  </g>
  <g id="Polygon31127">
    <path d="M 8.9 106.1 C 8.87 106.08 8.9 110.4 8.9 110.4 L 8.4 110.4 C 8.4 110.4 8.36 106.13 8.4 106.1 C 8.4 105.1 7.9 104.4 6.9 104.4 C 5.9 104.4 5.3 105.2 5.3 106.1 C 5.26 106.14 5.3 110.4 5.3 110.4 L 4.8 110.4 C 4.8 110.4 4.75 106.13 4.8 106.1 C 4.8 105.1 4.2 104.4 3.3 104.4 C 2.2 104.4 1.6 105.2 1.6 106.2 C 1.64 106.16 1.6 110.4 1.6 110.4 L 1.1 110.4 L 1.1 104 L 1.5 104 L 1.6 105.1 C 1.6 105.1 1.61 105.08 1.6 105.1 C 1.9 104.4 2.5 103.9 3.3 103.9 C 4.3 103.9 4.8 104.4 5.1 105.2 C 5.4 104.4 6 103.9 6.9 103.9 C 8.2 103.9 8.9 104.8 8.9 106.1 Z M 16.2 107.4 C 16.2 107.4 11.1 107.4 11.1 107.4 C 11.2 109 12.3 110 13.7 110 C 14.5 110 15.3 109.8 16 109.1 C 16 109.1 16 109.7 16 109.7 C 15.3 110.2 14.5 110.5 13.7 110.5 C 11.9 110.5 10.6 109.2 10.6 107.2 C 10.6 105.2 12 103.9 13.6 103.9 C 15 103.9 16.2 105 16.2 107.1 C 16.2 107.2 16.2 107.3 16.2 107.4 Z M 15.7 106.9 C 15.7 105.2 14.7 104.4 13.6 104.4 C 12.4 104.4 11.3 105.4 11.1 106.9 C 11.1 106.9 15.7 106.9 15.7 106.9 Z M 18 100.9 L 18.6 100.9 L 18.6 110.4 L 18 110.4 L 18 100.9 Z M 20.9 100.9 L 21.4 100.9 L 21.4 110.4 L 20.9 110.4 L 20.9 100.9 Z M 28.8 107.4 C 28.8 107.4 23.8 107.4 23.8 107.4 C 23.9 109 24.9 110 26.3 110 C 27.1 110 27.9 109.8 28.6 109.1 C 28.6 109.1 28.6 109.7 28.6 109.7 C 27.9 110.2 27.1 110.5 26.3 110.5 C 24.5 110.5 23.3 109.2 23.3 107.2 C 23.3 105.2 24.7 103.9 26.2 103.9 C 27.6 103.9 28.9 105 28.9 107.1 C 28.9 107.2 28.8 107.3 28.8 107.4 Z M 28.4 106.9 C 28.3 105.2 27.3 104.4 26.2 104.4 C 25 104.4 23.9 105.4 23.8 106.9 C 23.8 106.9 28.4 106.9 28.4 106.9 Z M 34.2 104.5 C 34.2 104.5 34.2 105 34.2 105 C 33.7 104.7 33.1 104.4 32.4 104.4 C 31.4 104.4 30.8 104.9 30.8 105.6 C 30.8 106.3 31.5 106.6 32.5 106.9 C 33.5 107.3 34.5 107.6 34.5 108.7 C 34.5 109.8 33.7 110.5 32.4 110.5 C 31.6 110.5 30.8 110.3 30.2 109.8 C 30.2 109.8 30.2 109.1 30.2 109.1 C 30.8 109.7 31.5 110 32.4 110 C 33.4 110 34 109.5 34 108.7 C 34 108 33.3 107.7 32.3 107.3 C 31.2 107 30.3 106.7 30.3 105.6 C 30.3 104.6 31.2 103.9 32.4 103.9 C 33.1 103.9 33.7 104.1 34.2 104.5 Z M 43.9 110 C 44.4 110 45.1 109.9 45.6 109.5 C 45.6 109.5 45.6 110.1 45.6 110.1 C 45.1 110.4 44.5 110.5 43.9 110.5 C 42.2 110.5 40.8 109.1 40.8 107.2 C 40.8 105.3 42.2 103.9 43.9 103.9 C 44.5 103.9 45.1 104 45.6 104.4 C 45.6 104.4 45.6 104.9 45.6 104.9 C 45 104.5 44.5 104.4 43.9 104.4 C 42.5 104.4 41.3 105.5 41.3 107.2 C 41.3 108.9 42.6 110 43.9 110 Z M 46.8 107.2 C 46.8 105.3 48.1 103.9 49.8 103.9 C 51.5 103.9 52.9 105.3 52.9 107.2 C 52.9 109.2 51.5 110.5 49.8 110.5 C 48.2 110.5 46.8 109.2 46.8 107.2 Z M 52.4 107.2 C 52.4 105.4 51.1 104.4 49.8 104.4 C 48.5 104.4 47.3 105.4 47.3 107.2 C 47.3 109 48.5 110 49.8 110 C 51.1 110 52.4 109 52.4 107.2 Z M 54.6 108.1 C 54.6 108.08 54.6 104 54.6 104 L 55.1 104 C 55.1 104 55.1 108.11 55.1 108.1 C 55.1 109.3 55.8 110 57 110 C 58.2 110 58.9 109.3 58.9 108.1 C 58.9 108.1 58.9 104 58.9 104 L 59.4 104 C 59.4 104 59.4 108.07 59.4 108.1 C 59.4 109.5 58.5 110.5 57 110.5 C 55.5 110.5 54.6 109.5 54.6 108.1 Z M 61.6 104 L 62 104 L 62.1 105.2 C 62.1 105.2 62.06 105.22 62.1 105.2 C 62.4 104.3 63.3 104 63.9 104 C 64.1 104 64.2 104 64.3 104 C 64.3 104 64.3 104.5 64.3 104.5 C 64.2 104.5 64.1 104.5 63.9 104.5 C 63 104.5 62.1 105.1 62.1 106.4 C 62.1 106.37 62.1 110.4 62.1 110.4 L 61.6 110.4 L 61.6 104 Z M 66.2 105.6 C 66.6 104.5 67.6 103.9 68.6 103.9 C 70.2 103.9 71.5 105.2 71.5 107.2 C 71.5 109.2 70.1 110.5 68.6 110.5 C 67.6 110.5 66.6 110 66.1 108.8 C 66.13 108.79 66.1 110.4 66.1 110.4 L 65.7 110.4 L 65.7 100.9 L 66.2 100.9 C 66.2 100.9 66.17 105.59 66.2 105.6 Z M 66.1 107.2 C 66.1 108.9 67.3 110 68.6 110 C 69.9 110 71 108.9 71 107.2 C 71 105.5 69.9 104.4 68.6 104.4 C 67.3 104.4 66.1 105.5 66.1 107.2 Z M 75.7 102.9 L 75.2 102.9 L 76.6 101 L 77.2 101 L 75.7 102.9 Z M 78.5 107.4 C 78.5 107.4 73.4 107.4 73.4 107.4 C 73.5 109 74.6 110 76 110 C 76.8 110 77.6 109.8 78.3 109.1 C 78.3 109.1 78.3 109.7 78.3 109.7 C 77.6 110.2 76.8 110.5 76 110.5 C 74.2 110.5 72.9 109.2 72.9 107.2 C 72.9 105.2 74.4 103.9 75.9 103.9 C 77.3 103.9 78.5 105 78.5 107.1 C 78.5 107.2 78.5 107.3 78.5 107.4 Z M 78 106.9 C 78 105.2 77 104.4 75.9 104.4 C 74.7 104.4 73.6 105.4 73.5 106.9 C 73.5 106.9 78 106.9 78 106.9 Z M 85.4 107.4 C 85.4 107.4 80.4 107.4 80.4 107.4 C 80.5 109 81.5 110 82.9 110 C 83.7 110 84.5 109.8 85.2 109.1 C 85.2 109.1 85.2 109.7 85.2 109.7 C 84.5 110.2 83.7 110.5 82.9 110.5 C 81.1 110.5 79.9 109.2 79.9 107.2 C 79.9 105.2 81.3 103.9 82.8 103.9 C 84.2 103.9 85.5 105 85.5 107.1 C 85.5 107.2 85.4 107.3 85.4 107.4 Z M 84.9 106.9 C 84.9 105.2 83.9 104.4 82.8 104.4 C 81.6 104.4 80.5 105.4 80.4 106.9 C 80.4 106.9 84.9 106.9 84.9 106.9 Z M 87 110 C 87 109.7 87.2 109.5 87.5 109.5 C 87.8 109.5 88 109.7 88 110 C 88 110.2 87.8 110.4 87.5 110.4 C 87.2 110.4 87 110.2 87 110 Z M 95.3 101.5 L 99.7 101.5 L 99.7 102 L 95.8 102 L 95.8 105.6 L 99.4 105.6 L 99.4 106.1 L 95.8 106.1 L 95.8 109.9 L 99.7 109.9 L 99.7 110.4 L 95.3 110.4 L 95.3 101.5 Z M 106.5 106.2 C 106.47 106.16 106.5 110.4 106.5 110.4 L 106 110.4 C 106 110.4 105.96 106.37 106 106.4 C 106 105.1 105.3 104.4 104.2 104.4 C 103.1 104.4 102.2 105.1 102.2 106.3 C 102.18 106.31 102.2 110.4 102.2 110.4 L 101.7 110.4 L 101.7 104 L 102.1 104 L 102.1 105.2 C 102.1 105.2 102.15 105.16 102.1 105.2 C 102.5 104.4 103.3 103.9 104.2 103.9 C 105.6 103.9 106.5 104.8 106.5 106.2 Z M 113.7 100.9 L 114.2 100.9 L 114.2 110.4 L 113.7 110.4 L 113.7 100.9 Z M 121.6 107.4 C 121.6 107.4 116.6 107.4 116.6 107.4 C 116.7 109 117.7 110 119.1 110 C 119.9 110 120.7 109.8 121.4 109.1 C 121.4 109.1 121.4 109.7 121.4 109.7 C 120.7 110.2 119.9 110.5 119.1 110.5 C 117.3 110.5 116.1 109.2 116.1 107.2 C 116.1 105.2 117.5 103.9 119 103.9 C 120.4 103.9 121.6 105 121.6 107.1 C 121.6 107.2 121.6 107.3 121.6 107.4 Z M 121.1 106.9 C 121.1 105.2 120.1 104.4 119 104.4 C 117.8 104.4 116.7 105.4 116.6 106.9 C 116.6 106.9 121.1 106.9 121.1 106.9 Z M 127 104.5 C 127 104.5 127 105 127 105 C 126.5 104.7 125.9 104.4 125.2 104.4 C 124.2 104.4 123.6 104.9 123.6 105.6 C 123.6 106.3 124.3 106.6 125.3 106.9 C 126.3 107.3 127.3 107.6 127.3 108.7 C 127.3 109.8 126.4 110.5 125.2 110.5 C 124.4 110.5 123.6 110.3 123 109.8 C 123 109.8 123 109.1 123 109.1 C 123.6 109.7 124.3 110 125.2 110 C 126.2 110 126.8 109.5 126.8 108.7 C 126.8 108 126.1 107.7 125.1 107.3 C 124 107 123.1 106.7 123.1 105.6 C 123.1 104.6 124 103.9 125.2 103.9 C 125.9 103.9 126.5 104.1 127 104.5 Z M 134.1 104 L 134.5 104 C 134.5 104 134.53 105.64 134.5 105.6 C 135 104.5 136 103.9 137 103.9 C 138.5 103.9 139.9 105.2 139.9 107.2 C 139.9 109.2 138.5 110.5 137 110.5 C 136 110.5 135 109.9 134.6 108.9 C 134.56 108.85 134.6 113 134.6 113 L 134.1 113 L 134.1 104 Z M 139.4 107.2 C 139.4 105.5 138.3 104.4 137 104.4 C 135.7 104.4 134.5 105.5 134.5 107.2 C 134.5 108.9 135.7 110 137 110 C 138.3 110 139.4 108.9 139.4 107.2 Z M 141.7 101.7 C 141.7 101.5 141.8 101.3 142.1 101.3 C 142.3 101.3 142.5 101.5 142.5 101.7 C 142.5 101.9 142.3 102.1 142.1 102.1 C 141.8 102.1 141.7 101.9 141.7 101.7 Z M 141.8 104 L 142.3 104 L 142.3 110.4 L 141.8 110.4 L 141.8 104 Z M 143.9 104 L 144.4 104 L 146.5 109.8 L 146.5 109.8 L 148.6 104 L 149.2 104 L 146.8 110.4 L 146.3 110.4 L 143.9 104 Z M 150 107.2 C 150 105.3 151.4 103.9 153.1 103.9 C 154.8 103.9 156.1 105.3 156.1 107.2 C 156.1 109.2 154.8 110.5 153.1 110.5 C 151.4 110.5 150 109.2 150 107.2 Z M 155.6 107.2 C 155.6 105.4 154.4 104.4 153.1 104.4 C 151.8 104.4 150.5 105.4 150.5 107.2 C 150.5 109 151.8 110 153.1 110 C 154.4 110 155.6 109 155.6 107.2 Z M 157.8 106.5 L 160.6 106.5 L 160.6 107 L 157.8 107 L 157.8 106.5 Z " stroke="none" fill="#000"/>
  </g>
  <g id="Polygon31126">
    <path d="M 1.2 86.5 L 1.7 86.5 L 1.7 96 L 1.2 96 L 1.2 86.5 Z M 3.5 92.8 C 3.5 90.8 4.9 89.5 6.4 89.5 C 7.5 89.5 8.5 90.1 9 91.2 C 8.95 91.22 9 89.6 9 89.6 L 9.4 89.6 L 9.4 96 L 9 96 C 9 96 8.95 94.4 9 94.4 C 8.5 95.6 7.5 96.1 6.5 96.1 C 4.9 96.1 3.5 94.8 3.5 92.8 Z M 8.9 92.8 C 8.9 91.1 7.8 90 6.5 90 C 5.2 90 4 91.1 4 92.8 C 4 94.5 5.2 95.6 6.5 95.6 C 7.8 95.6 8.9 94.5 8.9 92.8 Z M 19.4 91.7 C 19.43 91.68 19.4 96 19.4 96 L 18.9 96 C 18.9 96 18.92 91.73 18.9 91.7 C 18.9 90.7 18.4 90 17.4 90 C 16.4 90 15.8 90.8 15.8 91.7 C 15.82 91.74 15.8 96 15.8 96 L 15.3 96 C 15.3 96 15.31 91.73 15.3 91.7 C 15.3 90.7 14.8 90 13.8 90 C 12.8 90 12.2 90.8 12.2 91.8 C 12.2 91.76 12.2 96 12.2 96 L 11.7 96 L 11.7 89.6 L 12.1 89.6 L 12.2 90.7 C 12.2 90.7 12.17 90.68 12.2 90.7 C 12.4 90 13.1 89.5 13.9 89.5 C 14.8 89.5 15.4 90 15.7 90.8 C 15.9 90 16.6 89.5 17.5 89.5 C 18.8 89.5 19.4 90.4 19.4 91.7 Z M 21.6 89.6 L 22 89.6 C 22 89.6 22.1 91.24 22.1 91.2 C 22.6 90.1 23.6 89.5 24.6 89.5 C 26.1 89.5 27.5 90.8 27.5 92.8 C 27.5 94.8 26.1 96.1 24.6 96.1 C 23.6 96.1 22.6 95.5 22.1 94.5 C 22.14 94.45 22.1 98.6 22.1 98.6 L 21.6 98.6 L 21.6 89.6 Z M 27 92.8 C 27 91.1 25.9 90 24.6 90 C 23.2 90 22.1 91.1 22.1 92.8 C 22.1 94.5 23.3 95.6 24.6 95.6 C 25.9 95.6 27 94.5 27 92.8 Z M 34.5 93 C 34.5 93 29.4 93 29.4 93 C 29.5 94.6 30.5 95.6 32 95.6 C 32.7 95.6 33.6 95.4 34.2 94.7 C 34.2 94.7 34.2 95.3 34.2 95.3 C 33.6 95.8 32.8 96.1 31.9 96.1 C 30.2 96.1 28.9 94.8 28.9 92.8 C 28.9 90.8 30.3 89.5 31.9 89.5 C 33.3 89.5 34.5 90.6 34.5 92.7 C 34.5 92.8 34.5 92.9 34.5 93 Z M 34 92.5 C 34 90.8 32.9 90 31.9 90 C 30.6 90 29.5 91 29.4 92.5 C 29.4 92.5 34 92.5 34 92.5 Z M 44.9 95.6 C 45.4 95.6 46.1 95.5 46.7 95.1 C 46.7 95.1 46.7 95.7 46.7 95.7 C 46.2 96 45.6 96.1 44.9 96.1 C 43.2 96.1 41.9 94.7 41.9 92.8 C 41.9 90.9 43.2 89.5 44.9 89.5 C 45.5 89.5 46.1 89.6 46.7 90 C 46.7 90 46.7 90.5 46.7 90.5 C 46.1 90.1 45.5 90 44.9 90 C 43.6 90 42.4 91.1 42.4 92.8 C 42.4 94.5 43.6 95.6 44.9 95.6 Z M 47.8 92.8 C 47.8 90.9 49.2 89.5 50.9 89.5 C 52.5 89.5 53.9 90.9 53.9 92.8 C 53.9 94.8 52.5 96.1 50.9 96.1 C 49.2 96.1 47.8 94.8 47.8 92.8 Z M 53.4 92.8 C 53.4 91 52.2 90 50.9 90 C 49.6 90 48.3 91 48.3 92.8 C 48.3 94.6 49.6 95.6 50.9 95.6 C 52.2 95.6 53.4 94.6 53.4 92.8 Z M 63.5 91.7 C 63.46 91.68 63.5 96 63.5 96 L 63 96 C 63 96 62.96 91.73 63 91.7 C 63 90.7 62.5 90 61.5 90 C 60.5 90 59.8 90.8 59.8 91.7 C 59.85 91.74 59.8 96 59.8 96 L 59.3 96 C 59.3 96 59.35 91.73 59.3 91.7 C 59.3 90.7 58.8 90 57.8 90 C 56.8 90 56.2 90.8 56.2 91.8 C 56.24 91.76 56.2 96 56.2 96 L 55.7 96 L 55.7 89.6 L 56.1 89.6 L 56.2 90.7 C 56.2 90.7 56.2 90.68 56.2 90.7 C 56.5 90 57.1 89.5 57.9 89.5 C 58.9 89.5 59.4 90 59.7 90.8 C 60 90 60.6 89.5 61.5 89.5 C 62.8 89.5 63.5 90.4 63.5 91.7 Z M 65.7 89.6 L 66.1 89.6 C 66.1 89.6 66.14 91.24 66.1 91.2 C 66.6 90.1 67.6 89.5 68.6 89.5 C 70.2 89.5 71.5 90.8 71.5 92.8 C 71.5 94.8 70.2 96.1 68.6 96.1 C 67.6 96.1 66.6 95.5 66.2 94.5 C 66.17 94.45 66.2 98.6 66.2 98.6 L 65.7 98.6 L 65.7 89.6 Z M 71 92.8 C 71 91.1 69.9 90 68.6 90 C 67.3 90 66.1 91.1 66.1 92.8 C 66.1 94.5 67.3 95.6 68.6 95.6 C 69.9 95.6 71 94.5 71 92.8 Z M 72.9 92.8 C 72.9 90.9 74.3 89.5 76 89.5 C 77.6 89.5 79 90.9 79 92.8 C 79 94.8 77.6 96.1 76 96.1 C 74.3 96.1 72.9 94.8 72.9 92.8 Z M 78.5 92.8 C 78.5 91 77.3 90 76 90 C 74.7 90 73.4 91 73.4 92.8 C 73.4 94.6 74.7 95.6 76 95.6 C 77.3 95.6 78.5 94.6 78.5 92.8 Z M 84.4 90.1 C 84.4 90.1 84.4 90.6 84.4 90.6 C 83.9 90.3 83.3 90 82.6 90 C 81.6 90 81 90.5 81 91.2 C 81 91.9 81.7 92.2 82.7 92.5 C 83.7 92.9 84.7 93.2 84.7 94.3 C 84.7 95.4 83.8 96.1 82.5 96.1 C 81.8 96.1 81 95.9 80.4 95.4 C 80.4 95.4 80.4 94.7 80.4 94.7 C 80.9 95.3 81.7 95.6 82.5 95.6 C 83.5 95.6 84.2 95.1 84.2 94.3 C 84.2 93.6 83.5 93.3 82.5 92.9 C 81.4 92.6 80.5 92.3 80.5 91.2 C 80.5 90.2 81.3 89.5 82.6 89.5 C 83.2 89.5 83.9 89.7 84.4 90.1 Z M 88.7 88.5 L 88.3 88.5 L 89.7 86.6 L 90.3 86.6 L 88.7 88.5 Z M 91.6 93 C 91.6 93 86.5 93 86.5 93 C 86.6 94.6 87.6 95.6 89.1 95.6 C 89.8 95.6 90.7 95.4 91.3 94.7 C 91.3 94.7 91.3 95.3 91.3 95.3 C 90.7 95.8 89.9 96.1 89 96.1 C 87.3 96.1 86 94.8 86 92.8 C 86 90.8 87.4 89.5 89 89.5 C 90.4 89.5 91.6 90.6 91.6 92.7 C 91.6 92.8 91.6 92.9 91.6 93 Z M 91.1 92.5 C 91.1 90.8 90 90 89 90 C 87.7 90 86.6 91 86.5 92.5 C 86.5 92.5 91.1 92.5 91.1 92.5 Z M 98.5 93 C 98.5 93 93.4 93 93.4 93 C 93.5 94.6 94.6 95.6 96 95.6 C 96.8 95.6 97.6 95.4 98.3 94.7 C 98.3 94.7 98.3 95.3 98.3 95.3 C 97.6 95.8 96.8 96.1 96 96.1 C 94.2 96.1 92.9 94.8 92.9 92.8 C 92.9 90.8 94.4 89.5 95.9 89.5 C 97.3 89.5 98.5 90.6 98.5 92.7 C 98.5 92.8 98.5 92.9 98.5 93 Z M 98 92.5 C 98 90.8 97 90 95.9 90 C 94.7 90 93.6 91 93.5 92.5 C 93.5 92.5 98 92.5 98 92.5 Z M 105.9 92.8 C 105.9 90.8 107.3 89.5 108.8 89.5 C 109.8 89.5 110.8 90.1 111.3 91.2 C 111.29 91.18 111.3 86.5 111.3 86.5 L 111.8 86.5 L 111.8 96 L 111.4 96 L 111.3 94.4 C 111.3 94.4 111.31 94.39 111.3 94.4 C 110.9 95.6 109.8 96.1 108.8 96.1 C 107.3 96.1 105.9 94.8 105.9 92.8 Z M 111.3 92.8 C 111.3 91.1 110.2 90 108.9 90 C 107.5 90 106.4 91.1 106.4 92.8 C 106.4 94.5 107.5 95.6 108.9 95.6 C 110.2 95.6 111.3 94.5 111.3 92.8 Z M 119.2 93 C 119.2 93 114.1 93 114.1 93 C 114.2 94.6 115.2 95.6 116.7 95.6 C 117.5 95.6 118.3 95.4 119 94.7 C 119 94.7 119 95.3 119 95.3 C 118.3 95.8 117.5 96.1 116.7 96.1 C 114.9 96.1 113.6 94.8 113.6 92.8 C 113.6 90.8 115 89.5 116.6 89.5 C 118 89.5 119.2 90.6 119.2 92.7 C 119.2 92.8 119.2 92.9 119.2 93 Z M 118.7 92.5 C 118.7 90.8 117.7 90 116.6 90 C 115.4 90 114.2 91 114.1 92.5 C 114.1 92.5 118.7 92.5 118.7 92.5 Z M 130.6 90.1 C 130.6 90.1 130.6 90.6 130.6 90.6 C 130.1 90.3 129.5 90 128.8 90 C 127.8 90 127.2 90.5 127.2 91.2 C 127.2 91.9 127.9 92.2 128.9 92.5 C 129.9 92.9 130.9 93.2 130.9 94.3 C 130.9 95.4 130 96.1 128.7 96.1 C 128 96.1 127.2 95.9 126.6 95.4 C 126.6 95.4 126.6 94.7 126.6 94.7 C 127.1 95.3 127.9 95.6 128.7 95.6 C 129.7 95.6 130.4 95.1 130.4 94.3 C 130.4 93.6 129.7 93.3 128.7 92.9 C 127.6 92.6 126.7 92.3 126.7 91.2 C 126.7 90.2 127.5 89.5 128.8 89.5 C 129.4 89.5 130.1 89.7 130.6 90.1 Z M 132.5 87.3 C 132.5 87.1 132.7 86.9 132.9 86.9 C 133.2 86.9 133.3 87.1 133.3 87.3 C 133.3 87.5 133.2 87.7 132.9 87.7 C 132.7 87.7 132.5 87.5 132.5 87.3 Z M 132.7 89.6 L 133.2 89.6 L 133.2 96 L 132.7 96 L 132.7 89.6 Z M 137.6 92.8 L 139.9 96 L 139.3 96 L 137.3 93.2 L 137.3 93.2 L 135.3 96 L 134.7 96 L 137 92.8 L 134.8 89.6 L 135.4 89.6 L 137.3 92.4 L 137.3 92.4 L 139.2 89.6 L 139.8 89.6 L 137.6 92.8 Z M 147.4 86.5 L 147.9 86.5 L 147.9 96 L 147.4 96 L 147.4 86.5 Z M 149.8 92.8 C 149.8 90.8 151.2 89.5 152.7 89.5 C 153.7 89.5 154.7 90.1 155.2 91.2 C 155.2 91.22 155.3 89.6 155.3 89.6 L 155.7 89.6 L 155.7 96 L 155.3 96 C 155.3 96 155.2 94.4 155.2 94.4 C 154.7 95.6 153.7 96.1 152.7 96.1 C 151.2 96.1 149.8 94.8 149.8 92.8 Z M 155.2 92.8 C 155.2 91.1 154.1 90 152.7 90 C 151.4 90 150.3 91.1 150.3 92.8 C 150.3 94.5 151.4 95.6 152.8 95.6 C 154.1 95.6 155.2 94.5 155.2 92.8 Z M 157.8 92.1 L 160.6 92.1 L 160.6 92.6 L 157.8 92.6 L 157.8 92.1 Z " stroke="none" fill="#000"/>
  </g>
  <g id="Polygon31125">
    <path d="M 3.8 81.2 C 4.3 81.2 4.9 81.1 5.5 80.7 C 5.5 80.7 5.5 81.3 5.5 81.3 C 5 81.6 4.4 81.7 3.8 81.7 C 2 81.7 0.7 80.3 0.7 78.4 C 0.7 76.5 2 75.1 3.8 75.1 C 4.3 75.1 4.9 75.2 5.5 75.6 C 5.5 75.6 5.5 76.1 5.5 76.1 C 4.9 75.7 4.3 75.6 3.7 75.6 C 2.4 75.6 1.2 76.7 1.2 78.4 C 1.2 80.1 2.4 81.2 3.8 81.2 Z M 12.2 78.6 C 12.2 78.6 7.2 78.6 7.2 78.6 C 7.2 80.2 8.3 81.2 9.7 81.2 C 10.5 81.2 11.3 81 12 80.3 C 12 80.3 12 80.9 12 80.9 C 11.3 81.4 10.5 81.7 9.7 81.7 C 7.9 81.7 6.7 80.4 6.7 78.4 C 6.7 76.4 8.1 75.1 9.6 75.1 C 11 75.1 12.2 76.2 12.2 78.3 C 12.2 78.4 12.2 78.5 12.2 78.6 Z M 11.7 78.1 C 11.7 76.4 10.7 75.6 9.6 75.6 C 8.4 75.6 7.3 76.6 7.2 78.1 C 7.2 78.1 11.7 78.1 11.7 78.1 Z M 19.4 75.2 L 19.8 75.2 C 19.8 75.2 19.91 76.84 19.9 76.8 C 20.4 75.7 21.4 75.1 22.4 75.1 C 23.9 75.1 25.3 76.4 25.3 78.4 C 25.3 80.4 23.9 81.7 22.4 81.7 C 21.4 81.7 20.4 81.1 19.9 80.1 C 19.95 80.05 19.9 84.2 19.9 84.2 L 19.4 84.2 L 19.4 75.2 Z M 24.8 78.4 C 24.8 76.7 23.7 75.6 22.4 75.6 C 21.1 75.6 19.9 76.7 19.9 78.4 C 19.9 80.1 21.1 81.2 22.4 81.2 C 23.7 81.2 24.8 80.1 24.8 78.4 Z M 27.2 75.2 L 27.6 75.2 L 27.6 76.4 C 27.6 76.4 27.63 76.42 27.6 76.4 C 28 75.5 28.9 75.2 29.5 75.2 C 29.6 75.2 29.8 75.2 29.9 75.2 C 29.9 75.2 29.9 75.7 29.9 75.7 C 29.8 75.7 29.6 75.7 29.5 75.7 C 28.6 75.7 27.7 76.3 27.7 77.6 C 27.66 77.57 27.7 81.6 27.7 81.6 L 27.2 81.6 L 27.2 75.2 Z M 30.5 78.4 C 30.5 76.5 31.8 75.1 33.5 75.1 C 35.2 75.1 36.5 76.5 36.5 78.4 C 36.5 80.4 35.2 81.7 33.5 81.7 C 31.8 81.7 30.5 80.4 30.5 78.4 Z M 36 78.4 C 36 76.6 34.8 75.6 33.5 75.6 C 32.2 75.6 31 76.6 31 78.4 C 31 80.2 32.2 81.2 33.5 81.2 C 34.8 81.2 36 80.2 36 78.4 Z M 41 81.2 C 41.5 81.2 42.2 81.1 42.7 80.7 C 42.7 80.7 42.7 81.3 42.7 81.3 C 42.2 81.6 41.6 81.7 41 81.7 C 39.3 81.7 37.9 80.3 37.9 78.4 C 37.9 76.5 39.3 75.1 41 75.1 C 41.6 75.1 42.2 75.2 42.7 75.6 C 42.7 75.6 42.7 76.1 42.7 76.1 C 42.1 75.7 41.6 75.6 41 75.6 C 39.6 75.6 38.4 76.7 38.4 78.4 C 38.4 80.1 39.7 81.2 41 81.2 Z M 49.4 78.6 C 49.4 78.6 44.4 78.6 44.4 78.6 C 44.5 80.2 45.5 81.2 46.9 81.2 C 47.7 81.2 48.5 81 49.2 80.3 C 49.2 80.3 49.2 80.9 49.2 80.9 C 48.5 81.4 47.8 81.7 46.9 81.7 C 45.1 81.7 43.9 80.4 43.9 78.4 C 43.9 76.4 45.3 75.1 46.8 75.1 C 48.3 75.1 49.5 76.2 49.5 78.3 C 49.5 78.4 49.5 78.5 49.4 78.6 Z M 49 78.1 C 48.9 76.4 47.9 75.6 46.8 75.6 C 45.6 75.6 44.5 76.6 44.4 78.1 C 44.4 78.1 49 78.1 49 78.1 Z M 54.8 75.7 C 54.8 75.7 54.8 76.2 54.8 76.2 C 54.3 75.9 53.7 75.6 53 75.6 C 52 75.6 51.4 76.1 51.4 76.8 C 51.4 77.5 52.1 77.8 53.1 78.1 C 54.1 78.5 55.1 78.8 55.1 79.9 C 55.1 81 54.3 81.7 53 81.7 C 52.2 81.7 51.4 81.5 50.8 81 C 50.8 81 50.8 80.3 50.8 80.3 C 51.4 80.9 52.1 81.2 53 81.2 C 54 81.2 54.6 80.7 54.6 79.9 C 54.6 79.2 53.9 78.9 52.9 78.5 C 51.8 78.2 50.9 77.9 50.9 76.8 C 50.9 75.8 51.8 75.1 53 75.1 C 53.7 75.1 54.3 75.3 54.8 75.7 Z M 60.4 75.7 C 60.4 75.7 60.4 76.2 60.4 76.2 C 59.9 75.9 59.3 75.6 58.6 75.6 C 57.7 75.6 57 76.1 57 76.8 C 57 77.5 57.7 77.8 58.7 78.1 C 59.7 78.5 60.7 78.8 60.7 79.9 C 60.7 81 59.9 81.7 58.6 81.7 C 57.8 81.7 57.1 81.5 56.4 81 C 56.4 81 56.4 80.3 56.4 80.3 C 57 80.9 57.7 81.2 58.6 81.2 C 59.6 81.2 60.2 80.7 60.2 79.9 C 60.2 79.2 59.5 78.9 58.5 78.5 C 57.4 78.2 56.5 77.9 56.5 76.8 C 56.5 75.8 57.4 75.1 58.6 75.1 C 59.3 75.1 59.9 75.3 60.4 75.7 Z M 62.4 80.6 C 62.42 80.64 62.4 80.2 62.4 80.2 L 62.9 80.2 C 62.9 80.2 62.92 80.63 62.9 80.6 C 62.9 81.6 62.5 82.6 62.3 83.2 C 62.3 83.2 61.9 83.2 61.9 83.2 C 62.1 82.6 62.4 81.6 62.4 80.6 Z M 70.4 72.9 C 70.4 72.7 70.5 72.5 70.8 72.5 C 71 72.5 71.2 72.7 71.2 72.9 C 71.2 73.1 71 73.3 70.8 73.3 C 70.5 73.3 70.4 73.1 70.4 72.9 Z M 70.5 80.9 C 70.52 80.92 70.5 75.2 70.5 75.2 L 71 75.2 C 71 75.2 71.02 80.93 71 80.9 C 71 82.4 70.7 83.3 70 84.2 C 70 84.2 69.4 84.2 69.4 84.2 C 70.1 83.4 70.5 82.4 70.5 80.9 Z M 73.5 73.1 C 73.53 73.13 73.5 72.7 73.5 72.7 L 74 72.7 C 74 72.7 74.04 73.12 74 73.1 C 74 74.1 73.6 75.1 73.4 75.7 C 73.4 75.7 73 75.7 73 75.7 C 73.2 75.1 73.5 74.1 73.5 73.1 Z M 75.1 78.4 C 75.1 76.4 76.5 75.1 78 75.1 C 79 75.1 80.1 75.7 80.5 76.8 C 80.53 76.82 80.6 75.2 80.6 75.2 L 81 75.2 L 81 81.6 L 80.6 81.6 C 80.6 81.6 80.53 80 80.5 80 C 80.1 81.2 79 81.7 78 81.7 C 76.5 81.7 75.1 80.4 75.1 78.4 Z M 80.5 78.4 C 80.5 76.7 79.4 75.6 78.1 75.6 C 76.7 75.6 75.6 76.7 75.6 78.4 C 75.6 80.1 76.8 81.2 78.1 81.2 C 79.4 81.2 80.5 80.1 80.5 78.4 Z M 83.2 72.9 C 83.2 72.7 83.3 72.5 83.6 72.5 C 83.8 72.5 84 72.7 84 72.9 C 84 73.1 83.8 73.3 83.6 73.3 C 83.3 73.3 83.2 73.1 83.2 72.9 Z M 83.3 75.2 L 83.8 75.2 L 83.8 81.6 L 83.3 81.6 L 83.3 75.2 Z M 91.4 72.9 C 91.4 72.7 91.6 72.5 91.8 72.5 C 92.1 72.5 92.2 72.7 92.2 72.9 C 92.2 73.1 92.1 73.3 91.8 73.3 C 91.6 73.3 91.4 73.1 91.4 72.9 Z M 91.6 75.2 L 92.1 75.2 L 92.1 81.6 L 91.6 81.6 L 91.6 75.2 Z M 102.1 77.3 C 102.12 77.28 102.1 81.6 102.1 81.6 L 101.6 81.6 C 101.6 81.6 101.62 77.33 101.6 77.3 C 101.6 76.3 101.1 75.6 100.1 75.6 C 99.1 75.6 98.5 76.4 98.5 77.3 C 98.51 77.34 98.5 81.6 98.5 81.6 L 98 81.6 C 98 81.6 98.01 77.33 98 77.3 C 98 76.3 97.5 75.6 96.5 75.6 C 95.5 75.6 94.9 76.4 94.9 77.4 C 94.9 77.36 94.9 81.6 94.9 81.6 L 94.4 81.6 L 94.4 75.2 L 94.8 75.2 L 94.9 76.3 C 94.9 76.3 94.86 76.28 94.9 76.3 C 95.1 75.6 95.8 75.1 96.6 75.1 C 97.5 75.1 98.1 75.6 98.4 76.4 C 98.6 75.6 99.3 75.1 100.2 75.1 C 101.5 75.1 102.1 76 102.1 77.3 Z M 103.9 78.4 C 103.9 76.4 105.3 75.1 106.8 75.1 C 107.8 75.1 108.8 75.7 109.3 76.8 C 109.29 76.82 109.4 75.2 109.4 75.2 L 109.8 75.2 L 109.8 81.6 L 109.4 81.6 C 109.4 81.6 109.29 80 109.3 80 C 108.8 81.2 107.8 81.7 106.8 81.7 C 105.3 81.7 103.9 80.4 103.9 78.4 Z M 109.3 78.4 C 109.3 76.7 108.2 75.6 106.8 75.6 C 105.5 75.6 104.4 76.7 104.4 78.4 C 104.4 80.1 105.5 81.2 106.8 81.2 C 108.1 81.2 109.3 80.1 109.3 78.4 Z M 117 76.8 C 116.96 76.76 117 75.2 117 75.2 L 117.4 75.2 C 117.4 75.2 117.42 81.4 117.4 81.4 C 117.4 83.4 116 84.3 114.6 84.3 C 113.8 84.3 112.9 84 112.2 83.5 C 112.2 83.5 112.2 82.9 112.2 82.9 C 112.9 83.5 113.8 83.8 114.6 83.8 C 115.8 83.8 116.9 83.1 116.9 81.5 C 116.9 81.5 116.9 79.9 116.9 79.9 C 116.5 81 115.5 81.5 114.5 81.5 C 113 81.5 111.6 80.3 111.6 78.3 C 111.6 76.4 113 75.1 114.5 75.1 C 115.5 75.1 116.5 75.7 117 76.8 Z M 112.1 78.3 C 112.1 80 113.2 81 114.5 81 C 115.8 81 116.9 79.9 116.9 78.3 C 116.9 76.7 115.8 75.6 114.5 75.6 C 113.2 75.6 112.1 76.7 112.1 78.3 Z M 119.6 72.9 C 119.6 72.7 119.8 72.5 120 72.5 C 120.2 72.5 120.4 72.7 120.4 72.9 C 120.4 73.1 120.2 73.3 120 73.3 C 119.8 73.3 119.6 73.1 119.6 72.9 Z M 119.7 75.2 L 120.2 75.2 L 120.2 81.6 L 119.7 81.6 L 119.7 75.2 Z M 127.3 77.4 C 127.35 77.36 127.3 81.6 127.3 81.6 L 126.8 81.6 C 126.8 81.6 126.84 77.57 126.8 77.6 C 126.8 76.3 126.2 75.6 125 75.6 C 123.9 75.6 123.1 76.3 123.1 77.5 C 123.06 77.51 123.1 81.6 123.1 81.6 L 122.6 81.6 L 122.6 75.2 L 123 75.2 L 123 76.4 C 123 76.4 123.03 76.36 123 76.4 C 123.4 75.6 124.1 75.1 125.1 75.1 C 126.5 75.1 127.3 76 127.3 77.4 Z M 131.8 74.1 L 131.3 74.1 L 132.8 72.2 L 133.4 72.2 L 131.8 74.1 Z M 134.7 78.6 C 134.7 78.6 129.6 78.6 129.6 78.6 C 129.7 80.2 130.7 81.2 132.2 81.2 C 132.9 81.2 133.7 81 134.4 80.3 C 134.4 80.3 134.4 80.9 134.4 80.9 C 133.8 81.4 133 81.7 132.1 81.7 C 130.3 81.7 129.1 80.4 129.1 78.4 C 129.1 76.4 130.5 75.1 132.1 75.1 C 133.5 75.1 134.7 76.2 134.7 78.3 C 134.7 78.4 134.7 78.5 134.7 78.6 Z M 134.2 78.1 C 134.2 76.4 133.1 75.6 132.1 75.6 C 130.8 75.6 129.7 76.6 129.6 78.1 C 129.6 78.1 134.2 78.1 134.2 78.1 Z M 141.8 79.3 C 141.8 79.28 141.8 75.2 141.8 75.2 L 142.3 75.2 C 142.3 75.2 142.3 79.31 142.3 79.3 C 142.3 80.5 143 81.2 144.2 81.2 C 145.4 81.2 146.1 80.5 146.1 79.3 C 146.1 79.3 146.1 75.2 146.1 75.2 L 146.6 75.2 C 146.6 75.2 146.6 79.27 146.6 79.3 C 146.6 80.7 145.7 81.7 144.2 81.7 C 142.7 81.7 141.8 80.7 141.8 79.3 Z M 153.6 77.4 C 153.58 77.36 153.6 81.6 153.6 81.6 L 153.1 81.6 C 153.1 81.6 153.08 77.57 153.1 77.6 C 153.1 76.3 152.4 75.6 151.3 75.6 C 150.2 75.6 149.3 76.3 149.3 77.5 C 149.3 77.51 149.3 81.6 149.3 81.6 L 148.8 81.6 L 148.8 75.2 L 149.2 75.2 L 149.3 76.4 C 149.3 76.4 149.26 76.36 149.3 76.4 C 149.6 75.6 150.4 75.1 151.3 75.1 C 152.7 75.1 153.6 76 153.6 77.4 Z M 160.9 78.6 C 160.9 78.6 155.8 78.6 155.8 78.6 C 155.9 80.2 157 81.2 158.4 81.2 C 159.2 81.2 160 81 160.7 80.3 C 160.7 80.3 160.7 80.9 160.7 80.9 C 160 81.4 159.2 81.7 158.4 81.7 C 156.6 81.7 155.3 80.4 155.3 78.4 C 155.3 76.4 156.8 75.1 158.3 75.1 C 159.7 75.1 160.9 76.2 160.9 78.3 C 160.9 78.4 160.9 78.5 160.9 78.6 Z M 160.4 78.1 C 160.4 76.4 159.4 75.6 158.3 75.6 C 157.1 75.6 156 76.6 155.9 78.1 C 155.9 78.1 160.4 78.1 160.4 78.1 Z " stroke="none" fill="#000"/>
  </g>
  <g id="Polygon31124">
    <path d="M 1.4 58.3 L 5.8 58.3 L 5.8 58.8 L 1.9 58.8 L 1.9 62.4 L 5.5 62.4 L 5.5 62.9 L 1.9 62.9 L 1.9 66.7 L 5.8 66.7 L 5.8 67.2 L 1.4 67.2 L 1.4 58.3 Z M 12.6 63 C 12.59 62.96 12.6 67.2 12.6 67.2 L 12.1 67.2 C 12.1 67.2 12.08 63.17 12.1 63.2 C 12.1 61.9 11.4 61.2 10.3 61.2 C 9.2 61.2 8.3 61.9 8.3 63.1 C 8.3 63.11 8.3 67.2 8.3 67.2 L 7.8 67.2 L 7.8 60.8 L 8.2 60.8 L 8.3 62 C 8.3 62 8.27 61.96 8.3 62 C 8.6 61.2 9.4 60.7 10.3 60.7 C 11.7 60.7 12.6 61.6 12.6 63 Z M 23.5 60.8 L 23.9 60.8 L 23.9 62 C 23.9 62 23.92 62.02 23.9 62 C 24.3 61.1 25.2 60.8 25.8 60.8 C 25.9 60.8 26.1 60.8 26.2 60.8 C 26.2 60.8 26.2 61.3 26.2 61.3 C 26.1 61.3 25.9 61.3 25.8 61.3 C 24.9 61.3 24 61.9 24 63.2 C 23.96 63.17 24 67.2 24 67.2 L 23.5 67.2 L 23.5 60.8 Z M 29.5 59.7 L 29 59.7 L 30.5 57.8 L 31 57.8 L 29.5 59.7 Z M 32.3 64.2 C 32.3 64.2 27.3 64.2 27.3 64.2 C 27.4 65.8 28.4 66.8 29.8 66.8 C 30.6 66.8 31.4 66.6 32.1 65.9 C 32.1 65.9 32.1 66.5 32.1 66.5 C 31.4 67 30.6 67.3 29.8 67.3 C 28 67.3 26.8 66 26.8 64 C 26.8 62 28.2 60.7 29.7 60.7 C 31.1 60.7 32.3 61.8 32.3 63.9 C 32.3 64 32.3 64.1 32.3 64.2 Z M 31.8 63.7 C 31.8 62 30.8 61.2 29.7 61.2 C 28.5 61.2 27.4 62.2 27.3 63.7 C 27.3 63.7 31.8 63.7 31.8 63.7 Z M 34.3 61.3 L 33.4 61.3 L 33.4 60.8 L 34.3 60.8 C 34.3 60.8 34.33 59.6 34.3 59.6 C 34.3 58.3 35.2 57.6 36.2 57.6 C 36.6 57.6 36.9 57.7 37.2 57.8 C 37.2 57.8 37.2 58.3 37.2 58.3 C 37 58.2 36.6 58.1 36.3 58.1 C 35.4 58.1 34.8 58.6 34.8 59.7 C 34.84 59.69 34.8 60.8 34.8 60.8 L 36.8 60.8 L 36.8 61.3 L 34.8 61.3 L 34.8 67.2 L 34.3 67.2 L 34.3 61.3 Z M 38.3 57.7 L 38.8 57.7 L 38.8 67.2 L 38.3 67.2 L 38.3 57.7 Z M 43.4 59.7 L 42.9 59.7 L 44.4 57.8 L 45 57.8 L 43.4 59.7 Z M 46.2 64.2 C 46.2 64.2 41.2 64.2 41.2 64.2 C 41.3 65.8 42.3 66.8 43.7 66.8 C 44.5 66.8 45.3 66.6 46 65.9 C 46 65.9 46 66.5 46 66.5 C 45.3 67 44.6 67.3 43.7 67.3 C 41.9 67.3 40.7 66 40.7 64 C 40.7 62 42.1 60.7 43.6 60.7 C 45.1 60.7 46.3 61.8 46.3 63.9 C 46.3 64 46.3 64.1 46.2 64.2 Z M 45.8 63.7 C 45.7 62 44.7 61.2 43.6 61.2 C 42.4 61.2 41.3 62.2 41.2 63.7 C 41.2 63.7 45.8 63.7 45.8 63.7 Z M 50.7 66.8 C 51.2 66.8 51.9 66.7 52.4 66.3 C 52.4 66.3 52.4 66.9 52.4 66.9 C 51.9 67.2 51.3 67.3 50.7 67.3 C 49 67.3 47.6 65.9 47.6 64 C 47.6 62.1 49 60.7 50.7 60.7 C 51.3 60.7 51.9 60.8 52.4 61.2 C 52.4 61.2 52.4 61.7 52.4 61.7 C 51.8 61.3 51.3 61.2 50.7 61.2 C 49.3 61.2 48.1 62.3 48.1 64 C 48.1 65.7 49.3 66.8 50.7 66.8 Z M 54.7 61.8 C 54.7 61.8 54.7 61.84 54.7 61.8 C 55.1 61.1 55.9 60.7 56.7 60.7 C 58.1 60.7 59 61.5 59 63 C 58.97 62.98 59 67.2 59 67.2 L 58.5 67.2 C 58.5 67.2 58.47 63.16 58.5 63.2 C 58.5 61.9 57.8 61.2 56.7 61.2 C 55.6 61.2 54.7 61.8 54.7 63 C 54.69 63.05 54.7 67.2 54.7 67.2 L 54.2 67.2 L 54.2 57.7 L 54.7 57.7 L 54.7 61.8 Z M 61.1 58.5 C 61.1 58.3 61.2 58.1 61.5 58.1 C 61.7 58.1 61.9 58.3 61.9 58.5 C 61.9 58.7 61.7 58.9 61.5 58.9 C 61.2 58.9 61.1 58.7 61.1 58.5 Z M 61.2 60.8 L 61.7 60.8 L 61.7 67.2 L 61.2 67.2 L 61.2 60.8 Z M 67.6 61.3 C 67.6 61.3 67.6 61.8 67.6 61.8 C 67.1 61.5 66.5 61.2 65.8 61.2 C 64.8 61.2 64.2 61.7 64.2 62.4 C 64.2 63.1 64.9 63.4 65.9 63.7 C 66.9 64.1 67.9 64.4 67.9 65.5 C 67.9 66.6 67 67.3 65.7 67.3 C 65 67.3 64.2 67.1 63.6 66.6 C 63.6 66.6 63.6 65.9 63.6 65.9 C 64.1 66.5 64.9 66.8 65.7 66.8 C 66.8 66.8 67.4 66.3 67.4 65.5 C 67.4 64.8 66.7 64.5 65.7 64.1 C 64.6 63.8 63.7 63.5 63.7 62.4 C 63.7 61.4 64.5 60.7 65.8 60.7 C 66.5 60.7 67.1 60.9 67.6 61.3 Z M 73.2 61.3 C 73.2 61.3 73.2 61.8 73.2 61.8 C 72.7 61.5 72.1 61.2 71.4 61.2 C 70.4 61.2 69.8 61.7 69.8 62.4 C 69.8 63.1 70.5 63.4 71.5 63.7 C 72.5 64.1 73.5 64.4 73.5 65.5 C 73.5 66.6 72.7 67.3 71.4 67.3 C 70.6 67.3 69.8 67.1 69.2 66.6 C 69.2 66.6 69.2 65.9 69.2 65.9 C 69.8 66.5 70.5 66.8 71.4 66.8 C 72.4 66.8 73 66.3 73 65.5 C 73 64.8 72.3 64.5 71.3 64.1 C 70.2 63.8 69.3 63.5 69.3 62.4 C 69.3 61.4 70.2 60.7 71.4 60.7 C 72.1 60.7 72.7 60.9 73.2 61.3 Z M 74.8 64 C 74.8 62 76.2 60.7 77.7 60.7 C 78.7 60.7 79.8 61.3 80.2 62.4 C 80.23 62.42 80.3 60.8 80.3 60.8 L 80.7 60.8 L 80.7 67.2 L 80.3 67.2 C 80.3 67.2 80.23 65.6 80.2 65.6 C 79.8 66.8 78.7 67.3 77.7 67.3 C 76.2 67.3 74.8 66 74.8 64 Z M 80.2 64 C 80.2 62.3 79.1 61.2 77.8 61.2 C 76.4 61.2 75.3 62.3 75.3 64 C 75.3 65.7 76.5 66.8 77.8 66.8 C 79.1 66.8 80.2 65.7 80.2 64 Z M 87.8 63 C 87.76 62.96 87.8 67.2 87.8 67.2 L 87.3 67.2 C 87.3 67.2 87.26 63.17 87.3 63.2 C 87.3 61.9 86.6 61.2 85.4 61.2 C 84.4 61.2 83.5 61.9 83.5 63.1 C 83.48 63.11 83.5 67.2 83.5 67.2 L 83 67.2 L 83 60.8 L 83.4 60.8 L 83.4 62 C 83.4 62 83.44 61.96 83.4 62 C 83.8 61.2 84.6 60.7 85.5 60.7 C 86.9 60.7 87.8 61.6 87.8 63 Z M 90.6 60.8 L 92.5 60.8 L 92.5 61.3 L 90.6 61.3 C 90.6 61.3 90.58 65.2 90.6 65.2 C 90.6 66.4 91.2 66.8 92.1 66.8 C 92.3 66.8 92.5 66.8 92.7 66.8 C 92.7 66.8 92.7 67.2 92.7 67.2 C 92.6 67.2 92.3 67.3 92.1 67.3 C 90.9 67.3 90.1 66.6 90.1 65.2 C 90.08 65.22 90.1 61.3 90.1 61.3 L 89.1 61.3 L 89.1 60.8 L 90.1 60.8 L 90.1 59.3 L 90.6 59.3 L 90.6 60.8 Z M 102.2 64 C 102.2 62 103.6 60.7 105.1 60.7 C 106.1 60.7 107.1 61.3 107.6 62.4 C 107.57 62.42 107.6 60.8 107.6 60.8 L 108 60.8 L 108 67.2 L 107.6 67.2 C 107.6 67.2 107.57 65.6 107.6 65.6 C 107.1 66.8 106.1 67.3 105.1 67.3 C 103.6 67.3 102.2 66 102.2 64 Z M 107.6 64 C 107.6 62.3 106.4 61.2 105.1 61.2 C 103.8 61.2 102.7 62.3 102.7 64 C 102.7 65.7 103.8 66.8 105.1 66.8 C 106.4 66.8 107.6 65.7 107.6 64 Z M 110.2 64.9 C 110.23 64.88 110.2 60.8 110.2 60.8 L 110.7 60.8 C 110.7 60.8 110.74 64.91 110.7 64.9 C 110.7 66.1 111.5 66.8 112.6 66.8 C 113.8 66.8 114.5 66.1 114.5 64.9 C 114.53 64.9 114.5 60.8 114.5 60.8 L 115 60.8 C 115 60.8 115.03 64.87 115 64.9 C 115 66.3 114.1 67.3 112.6 67.3 C 111.1 67.3 110.2 66.3 110.2 64.9 Z M 117.9 60.8 L 119.8 60.8 L 119.8 61.3 L 117.9 61.3 C 117.9 61.3 117.91 65.2 117.9 65.2 C 117.9 66.4 118.5 66.8 119.4 66.8 C 119.6 66.8 119.8 66.8 120 66.8 C 120 66.8 120 67.2 120 67.2 C 119.9 67.2 119.7 67.3 119.4 67.3 C 118.2 67.3 117.4 66.6 117.4 65.2 C 117.41 65.22 117.4 61.3 117.4 61.3 L 116.4 61.3 L 116.4 60.8 L 117.4 60.8 L 117.4 59.3 L 117.9 59.3 L 117.9 60.8 Z M 120.8 64 C 120.8 62.1 122.2 60.7 123.9 60.7 C 125.5 60.7 126.9 62.1 126.9 64 C 126.9 66 125.5 67.3 123.9 67.3 C 122.2 67.3 120.8 66 120.8 64 Z M 126.4 64 C 126.4 62.2 125.1 61.2 123.9 61.2 C 122.5 61.2 121.3 62.2 121.3 64 C 121.3 65.8 122.6 66.8 123.9 66.8 C 125.1 66.8 126.4 65.8 126.4 64 Z M 128.6 64.9 C 128.63 64.88 128.6 60.8 128.6 60.8 L 129.1 60.8 C 129.1 60.8 129.13 64.91 129.1 64.9 C 129.1 66.1 129.9 66.8 131 66.8 C 132.2 66.8 132.9 66.1 132.9 64.9 C 132.93 64.9 132.9 60.8 132.9 60.8 L 133.4 60.8 C 133.4 60.8 133.43 64.87 133.4 64.9 C 133.4 66.3 132.5 67.3 131 67.3 C 129.5 67.3 128.6 66.3 128.6 64.9 Z M 135.6 60.8 L 136 60.8 L 136.1 62 C 136.1 62 136.09 62.02 136.1 62 C 136.5 61.1 137.3 60.8 138 60.8 C 138.1 60.8 138.3 60.8 138.4 60.8 C 138.4 60.8 138.4 61.3 138.4 61.3 C 138.3 61.3 138.1 61.3 138 61.3 C 137.1 61.3 136.1 61.9 136.1 63.2 C 136.13 63.17 136.1 67.2 136.1 67.2 L 135.6 67.2 L 135.6 60.8 Z M 147.6 64 C 147.6 62 149 60.7 150.5 60.7 C 151.5 60.7 152.6 61.3 153 62.4 C 153 62.38 153 57.7 153 57.7 L 153.5 57.7 L 153.5 67.2 L 153.1 67.2 L 153 65.6 C 153 65.6 153.02 65.59 153 65.6 C 152.6 66.8 151.5 67.3 150.5 67.3 C 149 67.3 147.6 66 147.6 64 Z M 153 64 C 153 62.3 151.9 61.2 150.6 61.2 C 149.3 61.2 148.1 62.3 148.1 64 C 148.1 65.7 149.3 66.8 150.6 66.8 C 151.9 66.8 153 65.7 153 64 Z M 160.9 64.2 C 160.9 64.2 155.8 64.2 155.8 64.2 C 155.9 65.8 157 66.8 158.4 66.8 C 159.2 66.8 160 66.6 160.7 65.9 C 160.7 65.9 160.7 66.5 160.7 66.5 C 160 67 159.2 67.3 158.4 67.3 C 156.6 67.3 155.3 66 155.3 64 C 155.3 62 156.8 60.7 158.3 60.7 C 159.7 60.7 160.9 61.8 160.9 63.9 C 160.9 64 160.9 64.1 160.9 64.2 Z M 160.4 63.7 C 160.4 62 159.4 61.2 158.3 61.2 C 157.1 61.2 156 62.2 155.9 63.7 C 155.9 63.7 160.4 63.7 160.4 63.7 Z " stroke="none" fill="#000"/>
  </g>
  <g id="Polygon31123">
    <path d="M 1.1 46.4 L 1.5 46.4 L 1.6 47.6 C 1.6 47.6 1.61 47.62 1.6 47.6 C 2 46.7 2.8 46.4 3.5 46.4 C 3.6 46.4 3.8 46.4 3.9 46.4 C 3.9 46.4 3.9 46.9 3.9 46.9 C 3.8 46.9 3.6 46.9 3.5 46.9 C 2.6 46.9 1.7 47.5 1.6 48.8 C 1.64 48.77 1.6 52.8 1.6 52.8 L 1.1 52.8 L 1.1 46.4 Z M 10 49.8 C 10 49.8 5 49.8 5 49.8 C 5 51.4 6.1 52.4 7.5 52.4 C 8.3 52.4 9.1 52.2 9.8 51.5 C 9.8 51.5 9.8 52.1 9.8 52.1 C 9.1 52.6 8.3 52.9 7.5 52.9 C 5.7 52.9 4.5 51.6 4.5 49.6 C 4.5 47.6 5.9 46.3 7.4 46.3 C 8.8 46.3 10 47.4 10 49.5 C 10 49.6 10 49.7 10 49.8 Z M 9.5 49.3 C 9.5 47.6 8.5 46.8 7.4 46.8 C 6.2 46.8 5.1 47.8 5 49.3 C 5 49.3 9.5 49.3 9.5 49.3 Z M 15.4 46.9 C 15.4 46.9 15.4 47.4 15.4 47.4 C 14.9 47.1 14.3 46.8 13.6 46.8 C 12.6 46.8 12 47.3 12 48 C 12 48.7 12.7 49 13.7 49.3 C 14.7 49.7 15.7 50 15.7 51.1 C 15.7 52.2 14.8 52.9 13.5 52.9 C 12.8 52.9 12 52.7 11.4 52.2 C 11.4 52.2 11.4 51.5 11.4 51.5 C 11.9 52.1 12.7 52.4 13.5 52.4 C 14.5 52.4 15.2 51.9 15.2 51.1 C 15.2 50.4 14.5 50.1 13.5 49.7 C 12.4 49.4 11.5 49.1 11.5 48 C 11.5 47 12.3 46.3 13.6 46.3 C 14.2 46.3 14.9 46.5 15.4 46.9 Z M 18.1 46.4 L 20 46.4 L 20 46.9 L 18.1 46.9 C 18.1 46.9 18.13 50.8 18.1 50.8 C 18.1 52 18.8 52.4 19.7 52.4 C 19.8 52.4 20 52.4 20.2 52.4 C 20.2 52.4 20.2 52.8 20.2 52.8 C 20.1 52.8 19.9 52.9 19.6 52.9 C 18.5 52.9 17.6 52.2 17.6 50.8 C 17.63 50.82 17.6 46.9 17.6 46.9 L 16.6 46.9 L 16.6 46.4 L 17.6 46.4 L 17.6 44.9 L 18.1 44.9 L 18.1 46.4 Z M 21 49.6 C 21 47.6 22.4 46.3 23.9 46.3 C 24.9 46.3 26 46.9 26.4 48 C 26.44 48.02 26.5 46.4 26.5 46.4 L 26.9 46.4 L 26.9 52.8 L 26.5 52.8 C 26.5 52.8 26.44 51.2 26.4 51.2 C 26 52.4 24.9 52.9 23.9 52.9 C 22.4 52.9 21 51.6 21 49.6 Z M 26.4 49.6 C 26.4 47.9 25.3 46.8 24 46.8 C 22.7 46.8 21.5 47.9 21.5 49.6 C 21.5 51.3 22.7 52.4 24 52.4 C 25.3 52.4 26.4 51.3 26.4 49.6 Z M 29.1 50.5 C 29.1 50.48 29.1 46.4 29.1 46.4 L 29.6 46.4 C 29.6 46.4 29.6 50.51 29.6 50.5 C 29.6 51.7 30.3 52.4 31.5 52.4 C 32.7 52.4 33.4 51.7 33.4 50.5 C 33.4 50.5 33.4 46.4 33.4 46.4 L 33.9 46.4 C 33.9 46.4 33.9 50.47 33.9 50.5 C 33.9 51.9 33 52.9 31.5 52.9 C 30 52.9 29.1 51.9 29.1 50.5 Z M 36.1 46.4 L 36.5 46.4 L 36.6 47.6 C 36.6 47.6 36.56 47.62 36.6 47.6 C 36.9 46.7 37.8 46.4 38.4 46.4 C 38.6 46.4 38.7 46.4 38.8 46.4 C 38.8 46.4 38.8 46.9 38.8 46.9 C 38.7 46.9 38.6 46.9 38.4 46.9 C 37.5 46.9 36.6 47.5 36.6 48.8 C 36.6 48.77 36.6 52.8 36.6 52.8 L 36.1 52.8 L 36.1 46.4 Z M 39.4 49.6 C 39.4 47.6 40.8 46.3 42.3 46.3 C 43.3 46.3 44.3 46.9 44.8 48 C 44.81 48.02 44.9 46.4 44.9 46.4 L 45.3 46.4 L 45.3 52.8 L 44.9 52.8 C 44.9 52.8 44.81 51.2 44.8 51.2 C 44.3 52.4 43.3 52.9 42.3 52.9 C 40.8 52.9 39.4 51.6 39.4 49.6 Z M 44.8 49.6 C 44.8 47.9 43.7 46.8 42.3 46.8 C 41 46.8 39.9 47.9 39.9 49.6 C 39.9 51.3 41 52.4 42.4 52.4 C 43.7 52.4 44.8 51.3 44.8 49.6 Z M 48.2 46.4 L 50.1 46.4 L 50.1 46.9 L 48.2 46.9 C 48.2 46.9 48.24 50.8 48.2 50.8 C 48.2 52 48.9 52.4 49.8 52.4 C 50 52.4 50.1 52.4 50.3 52.4 C 50.3 52.4 50.3 52.8 50.3 52.8 C 50.2 52.8 50 52.9 49.7 52.9 C 48.6 52.9 47.7 52.2 47.7 50.8 C 47.74 50.82 47.7 46.9 47.7 46.9 L 46.8 46.9 L 46.8 46.4 L 47.7 46.4 L 47.7 44.9 L 48.2 44.9 L 48.2 46.4 Z M 51.6 44.1 C 51.6 43.9 51.7 43.7 52 43.7 C 52.2 43.7 52.4 43.9 52.4 44.1 C 52.4 44.3 52.2 44.5 52 44.5 C 51.7 44.5 51.6 44.3 51.6 44.1 Z M 51.7 46.4 L 52.2 46.4 L 52.2 52.8 L 51.7 52.8 L 51.7 46.4 Z M 54.1 49.6 C 54.1 47.7 55.4 46.3 57.1 46.3 C 58.8 46.3 60.2 47.7 60.2 49.6 C 60.2 51.6 58.8 52.9 57.1 52.9 C 55.5 52.9 54.1 51.6 54.1 49.6 Z M 59.7 49.6 C 59.7 47.8 58.4 46.8 57.1 46.8 C 55.8 46.8 54.6 47.8 54.6 49.6 C 54.6 51.4 55.8 52.4 57.1 52.4 C 58.4 52.4 59.7 51.4 59.7 49.6 Z M 66.8 48.6 C 66.77 48.56 66.8 52.8 66.8 52.8 L 66.3 52.8 C 66.3 52.8 66.26 48.77 66.3 48.8 C 66.3 47.5 65.6 46.8 64.5 46.8 C 63.4 46.8 62.5 47.5 62.5 48.7 C 62.48 48.71 62.5 52.8 62.5 52.8 L 62 52.8 L 62 46.4 L 62.4 46.4 L 62.4 47.6 C 62.4 47.6 62.45 47.56 62.4 47.6 C 62.8 46.8 63.6 46.3 64.5 46.3 C 65.9 46.3 66.8 47.2 66.8 48.6 Z M 83.2 49.6 C 83.2 47.6 84.6 46.3 86.1 46.3 C 87.1 46.3 88.2 46.9 88.6 48 C 88.61 47.98 88.6 43.3 88.6 43.3 L 89.1 43.3 L 89.1 52.8 L 88.7 52.8 L 88.6 51.2 C 88.6 51.2 88.63 51.19 88.6 51.2 C 88.2 52.4 87.2 52.9 86.1 52.9 C 84.6 52.9 83.2 51.6 83.2 49.6 Z M 88.6 49.6 C 88.6 47.9 87.5 46.8 86.2 46.8 C 84.9 46.8 83.7 47.9 83.7 49.6 C 83.7 51.3 84.9 52.4 86.2 52.4 C 87.5 52.4 88.6 51.3 88.6 49.6 Z M 96.5 49.8 C 96.5 49.8 91.4 49.8 91.4 49.8 C 91.5 51.4 92.6 52.4 94 52.4 C 94.8 52.4 95.6 52.2 96.3 51.5 C 96.3 51.5 96.3 52.1 96.3 52.1 C 95.6 52.6 94.8 52.9 94 52.9 C 92.2 52.9 90.9 51.6 90.9 49.6 C 90.9 47.6 92.4 46.3 93.9 46.3 C 95.3 46.3 96.5 47.4 96.5 49.5 C 96.5 49.6 96.5 49.7 96.5 49.8 Z M 96 49.3 C 96 47.6 95 46.8 93.9 46.8 C 92.7 46.8 91.6 47.8 91.5 49.3 C 91.5 49.3 96 49.3 96 49.3 Z M 120.8 48.5 C 120.76 48.48 120.8 52.8 120.8 52.8 L 120.3 52.8 C 120.3 52.8 120.26 48.53 120.3 48.5 C 120.3 47.5 119.8 46.8 118.8 46.8 C 117.8 46.8 117.2 47.6 117.2 48.5 C 117.15 48.54 117.2 52.8 117.2 52.8 L 116.6 52.8 C 116.6 52.8 116.65 48.53 116.6 48.5 C 116.6 47.5 116.1 46.8 115.1 46.8 C 114.1 46.8 113.5 47.6 113.5 48.6 C 113.54 48.56 113.5 52.8 113.5 52.8 L 113 52.8 L 113 46.4 L 113.4 46.4 L 113.5 47.5 C 113.5 47.5 113.5 47.48 113.5 47.5 C 113.8 46.8 114.4 46.3 115.2 46.3 C 116.2 46.3 116.7 46.8 117 47.6 C 117.3 46.8 117.9 46.3 118.8 46.3 C 120.1 46.3 120.8 47.2 120.8 48.5 Z M 128.1 49.8 C 128.1 49.8 123 49.8 123 49.8 C 123.1 51.4 124.1 52.4 125.6 52.4 C 126.4 52.4 127.2 52.2 127.9 51.5 C 127.9 51.5 127.9 52.1 127.9 52.1 C 127.2 52.6 126.4 52.9 125.6 52.9 C 123.8 52.9 122.5 51.6 122.5 49.6 C 122.5 47.6 123.9 46.3 125.5 46.3 C 126.9 46.3 128.1 47.4 128.1 49.5 C 128.1 49.6 128.1 49.7 128.1 49.8 Z M 127.6 49.3 C 127.6 47.6 126.6 46.8 125.5 46.8 C 124.3 46.8 123.2 47.8 123 49.3 C 123 49.3 127.6 49.3 127.6 49.3 Z M 129.8 50.5 C 129.82 50.48 129.8 46.4 129.8 46.4 L 130.3 46.4 C 130.3 46.4 130.33 50.51 130.3 50.5 C 130.3 51.7 131.1 52.4 132.2 52.4 C 133.4 52.4 134.1 51.7 134.1 50.5 C 134.12 50.5 134.1 46.4 134.1 46.4 L 134.6 46.4 C 134.6 46.4 134.62 50.47 134.6 50.5 C 134.6 51.9 133.7 52.9 132.2 52.9 C 130.7 52.9 129.8 51.9 129.8 50.5 Z M 137.3 48 C 137.8 46.9 138.8 46.3 139.8 46.3 C 141.3 46.3 142.7 47.6 142.7 49.6 C 142.7 51.6 141.3 52.9 139.8 52.9 C 138.8 52.9 137.8 52.4 137.3 51.2 C 137.29 51.19 137.2 52.8 137.2 52.8 L 136.8 52.8 L 136.8 43.3 L 137.3 43.3 C 137.3 43.3 137.32 47.99 137.3 48 Z M 137.3 49.6 C 137.3 51.3 138.4 52.4 139.7 52.4 C 141.1 52.4 142.2 51.3 142.2 49.6 C 142.2 47.9 141.1 46.8 139.8 46.8 C 138.4 46.8 137.3 47.9 137.3 49.6 Z M 144.6 43.3 L 145.1 43.3 L 145.1 52.8 L 144.6 52.8 L 144.6 43.3 Z M 152.5 49.8 C 152.5 49.8 147.5 49.8 147.5 49.8 C 147.5 51.4 148.6 52.4 150 52.4 C 150.8 52.4 151.6 52.2 152.3 51.5 C 152.3 51.5 152.3 52.1 152.3 52.1 C 151.6 52.6 150.8 52.9 150 52.9 C 148.2 52.9 146.9 51.6 146.9 49.6 C 146.9 47.6 148.4 46.3 149.9 46.3 C 151.3 46.3 152.5 47.4 152.5 49.5 C 152.5 49.6 152.5 49.7 152.5 49.8 Z M 152 49.3 C 152 47.6 151 46.8 149.9 46.8 C 148.7 46.8 147.6 47.8 147.5 49.3 C 147.5 49.3 152 49.3 152 49.3 Z M 157.9 46.9 C 157.9 46.9 157.9 47.4 157.9 47.4 C 157.4 47.1 156.8 46.8 156.1 46.8 C 155.1 46.8 154.5 47.3 154.5 48 C 154.5 48.7 155.2 49 156.2 49.3 C 157.2 49.7 158.2 50 158.2 51.1 C 158.2 52.2 157.3 52.9 156 52.9 C 155.3 52.9 154.5 52.7 153.9 52.2 C 153.9 52.2 153.9 51.5 153.9 51.5 C 154.4 52.1 155.2 52.4 156 52.4 C 157 52.4 157.7 51.9 157.7 51.1 C 157.7 50.4 157 50.1 155.9 49.7 C 154.9 49.4 154 49.1 154 48 C 154 47 154.8 46.3 156.1 46.3 C 156.7 46.3 157.4 46.5 157.9 46.9 Z M 159.7 52.4 C 159.7 52.1 159.9 51.9 160.2 51.9 C 160.5 51.9 160.7 52.1 160.7 52.4 C 160.7 52.6 160.5 52.8 160.2 52.8 C 159.9 52.8 159.7 52.6 159.7 52.4 Z " stroke="none" fill="#000"/>
  </g>
  <g id="Polygon31122">
    <path d="M 1.1 32 L 1.5 32 C 1.5 32 1.61 33.64 1.6 33.6 C 2.1 32.5 3.1 31.9 4.1 31.9 C 5.6 31.9 7 33.2 7 35.2 C 7 37.2 5.6 38.5 4.1 38.5 C 3.1 38.5 2.1 37.9 1.6 36.9 C 1.64 36.85 1.6 41 1.6 41 L 1.1 41 L 1.1 32 Z M 6.5 35.2 C 6.5 33.5 5.4 32.4 4.1 32.4 C 2.7 32.4 1.6 33.5 1.6 35.2 C 1.6 36.9 2.8 38 4.1 38 C 5.4 38 6.5 36.9 6.5 35.2 Z M 14 35.4 C 14 35.4 8.9 35.4 8.9 35.4 C 9 37 10 38 11.5 38 C 12.2 38 13.1 37.8 13.7 37.1 C 13.7 37.1 13.7 37.7 13.7 37.7 C 13.1 38.2 12.3 38.5 11.4 38.5 C 9.7 38.5 8.4 37.2 8.4 35.2 C 8.4 33.2 9.8 31.9 11.4 31.9 C 12.8 31.9 14 33 14 35.1 C 14 35.2 14 35.3 14 35.4 Z M 13.5 34.9 C 13.5 33.2 12.4 32.4 11.4 32.4 C 10.2 32.4 9 33.4 8.9 34.9 C 8.9 34.9 13.5 34.9 13.5 34.9 Z M 15.8 32 L 16.2 32 L 16.2 33.2 C 16.2 33.2 16.26 33.22 16.3 33.2 C 16.6 32.3 17.5 32 18.1 32 C 18.3 32 18.4 32 18.5 32 C 18.5 32 18.5 32.5 18.5 32.5 C 18.4 32.5 18.3 32.5 18.1 32.5 C 17.2 32.5 16.3 33.1 16.3 34.4 C 16.29 34.37 16.3 38.4 16.3 38.4 L 15.8 38.4 L 15.8 32 Z M 27.6 34.1 C 27.59 34.08 27.6 38.4 27.6 38.4 L 27.1 38.4 C 27.1 38.4 27.08 34.13 27.1 34.1 C 27.1 33.1 26.6 32.4 25.6 32.4 C 24.6 32.4 24 33.2 24 34.1 C 23.97 34.14 24 38.4 24 38.4 L 23.5 38.4 C 23.5 38.4 23.47 34.13 23.5 34.1 C 23.5 33.1 23 32.4 22 32.4 C 21 32.4 20.4 33.2 20.4 34.2 C 20.36 34.16 20.4 38.4 20.4 38.4 L 19.9 38.4 L 19.9 32 L 20.3 32 L 20.3 33.1 C 20.3 33.1 20.33 33.08 20.3 33.1 C 20.6 32.4 21.2 31.9 22 31.9 C 23 31.9 23.6 32.4 23.8 33.2 C 24.1 32.4 24.7 31.9 25.7 31.9 C 27 31.9 27.6 32.8 27.6 34.1 Z M 34.9 35.4 C 34.9 35.4 29.9 35.4 29.9 35.4 C 29.9 37 31 38 32.4 38 C 33.2 38 34 37.8 34.7 37.1 C 34.7 37.1 34.7 37.7 34.7 37.7 C 34 38.2 33.2 38.5 32.4 38.5 C 30.6 38.5 29.4 37.2 29.4 35.2 C 29.4 33.2 30.8 31.9 32.3 31.9 C 33.7 31.9 34.9 33 34.9 35.1 C 34.9 35.2 34.9 35.3 34.9 35.4 Z M 34.4 34.9 C 34.4 33.2 33.4 32.4 32.3 32.4 C 31.1 32.4 30 33.4 29.9 34.9 C 29.9 34.9 34.4 34.9 34.4 34.9 Z M 37.4 32 L 39.3 32 L 39.3 32.5 L 37.4 32.5 C 37.4 32.5 37.35 36.4 37.4 36.4 C 37.4 37.6 38 38 38.9 38 C 39.1 38 39.2 38 39.4 38 C 39.4 38 39.4 38.4 39.4 38.4 C 39.4 38.4 39.1 38.5 38.8 38.5 C 37.7 38.5 36.9 37.8 36.9 36.4 C 36.85 36.42 36.9 32.5 36.9 32.5 L 35.9 32.5 L 35.9 32 L 36.9 32 L 36.9 30.5 L 37.4 30.5 L 37.4 32 Z M 55.1 33 C 55.1 33 55.09 33.04 55.1 33 C 55.4 32.3 56.2 31.9 57.1 31.9 C 58.5 31.9 59.4 32.7 59.4 34.2 C 59.36 34.18 59.4 38.4 59.4 38.4 L 58.9 38.4 C 58.9 38.4 58.86 34.36 58.9 34.4 C 58.9 33.1 58.2 32.4 57.1 32.4 C 56 32.4 55.1 33 55.1 34.2 C 55.08 34.25 55.1 38.4 55.1 38.4 L 54.6 38.4 L 54.6 28.9 L 55.1 28.9 L 55.1 33 Z M 61.1 35.2 C 61.1 33.2 62.5 31.9 64 31.9 C 65 31.9 66.1 32.5 66.5 33.6 C 66.53 33.62 66.6 32 66.6 32 L 67 32 L 67 38.4 L 66.6 38.4 C 66.6 38.4 66.53 36.8 66.5 36.8 C 66.1 38 65 38.5 64 38.5 C 62.5 38.5 61.1 37.2 61.1 35.2 Z M 66.5 35.2 C 66.5 33.5 65.4 32.4 64.1 32.4 C 62.7 32.4 61.6 33.5 61.6 35.2 C 61.6 36.9 62.8 38 64.1 38 C 65.4 38 66.5 36.9 66.5 35.2 Z M 69.8 33.6 C 70.2 32.5 71.2 31.9 72.2 31.9 C 73.8 31.9 75.2 33.2 75.2 35.2 C 75.2 37.2 73.8 38.5 72.2 38.5 C 71.2 38.5 70.2 38 69.7 36.8 C 69.74 36.79 69.7 38.4 69.7 38.4 L 69.3 38.4 L 69.3 28.9 L 69.8 28.9 C 69.8 28.9 69.78 33.59 69.8 33.6 Z M 69.8 35.2 C 69.8 36.9 70.9 38 72.2 38 C 73.5 38 74.7 36.9 74.7 35.2 C 74.7 33.5 73.5 32.4 72.2 32.4 C 70.9 32.4 69.8 33.5 69.8 35.2 Z M 76.9 29.7 C 76.9 29.5 77.1 29.3 77.3 29.3 C 77.5 29.3 77.7 29.5 77.7 29.7 C 77.7 29.9 77.5 30.1 77.3 30.1 C 77.1 30.1 76.9 29.9 76.9 29.7 Z M 77 32 L 77.5 32 L 77.5 38.4 L 77 38.4 L 77 32 Z M 80.5 32 L 82.4 32 L 82.4 32.5 L 80.5 32.5 C 80.5 32.5 80.53 36.4 80.5 36.4 C 80.5 37.6 81.2 38 82.1 38 C 82.2 38 82.4 38 82.6 38 C 82.6 38 82.6 38.4 82.6 38.4 C 82.5 38.4 82.3 38.5 82 38.5 C 80.9 38.5 80 37.8 80 36.4 C 80.03 36.42 80 32.5 80 32.5 L 79 32.5 L 79 32 L 80 32 L 80 30.5 L 80.5 30.5 L 80.5 32 Z M 83.9 36.1 C 83.88 36.08 83.9 32 83.9 32 L 84.4 32 C 84.4 32 84.38 36.11 84.4 36.1 C 84.4 37.3 85.1 38 86.3 38 C 87.4 38 88.2 37.3 88.2 36.1 C 88.17 36.1 88.2 32 88.2 32 L 88.7 32 C 88.7 32 88.68 36.07 88.7 36.1 C 88.7 37.5 87.7 38.5 86.3 38.5 C 84.8 38.5 83.9 37.5 83.9 36.1 Z M 96 35.4 C 96 35.4 90.9 35.4 90.9 35.4 C 91 37 92 38 93.5 38 C 94.3 38 95.1 37.8 95.8 37.1 C 95.8 37.1 95.8 37.7 95.8 37.7 C 95.1 38.2 94.3 38.5 93.5 38.5 C 91.7 38.5 90.4 37.2 90.4 35.2 C 90.4 33.2 91.8 31.9 93.4 31.9 C 94.8 31.9 96 33 96 35.1 C 96 35.2 96 35.3 96 35.4 Z M 95.5 34.9 C 95.5 33.2 94.5 32.4 93.4 32.4 C 92.2 32.4 91.1 33.4 90.9 34.9 C 90.9 34.9 95.5 34.9 95.5 34.9 Z M 97.8 28.9 L 98.3 28.9 L 98.3 38.4 L 97.8 38.4 L 97.8 28.9 Z M 100.7 28.9 L 101.2 28.9 L 101.2 38.4 L 100.7 38.4 L 100.7 28.9 Z M 108.6 35.4 C 108.6 35.4 103.6 35.4 103.6 35.4 C 103.7 37 104.7 38 106.1 38 C 106.9 38 107.7 37.8 108.4 37.1 C 108.4 37.1 108.4 37.7 108.4 37.7 C 107.7 38.2 106.9 38.5 106.1 38.5 C 104.3 38.5 103.1 37.2 103.1 35.2 C 103.1 33.2 104.5 31.9 106 31.9 C 107.4 31.9 108.7 33 108.7 35.1 C 108.7 35.2 108.6 35.3 108.6 35.4 Z M 108.2 34.9 C 108.1 33.2 107.1 32.4 106 32.4 C 104.8 32.4 103.7 33.4 103.6 34.9 C 103.6 34.9 108.2 34.9 108.2 34.9 Z M 118.2 34.1 C 118.18 34.08 118.2 38.4 118.2 38.4 L 117.7 38.4 C 117.7 38.4 117.68 34.13 117.7 34.1 C 117.7 33.1 117.2 32.4 116.2 32.4 C 115.2 32.4 114.6 33.2 114.6 34.1 C 114.57 34.14 114.6 38.4 114.6 38.4 L 114.1 38.4 C 114.1 38.4 114.07 34.13 114.1 34.1 C 114.1 33.1 113.6 32.4 112.6 32.4 C 111.5 32.4 111 33.2 111 34.2 C 110.96 34.16 111 38.4 111 38.4 L 110.5 38.4 L 110.5 32 L 110.9 32 L 110.9 33.1 C 110.9 33.1 110.92 33.08 110.9 33.1 C 111.2 32.4 111.8 31.9 112.6 31.9 C 113.6 31.9 114.2 32.4 114.4 33.2 C 114.7 32.4 115.3 31.9 116.3 31.9 C 117.5 31.9 118.2 32.8 118.2 34.1 Z M 125.5 35.4 C 125.5 35.4 120.5 35.4 120.5 35.4 C 120.5 37 121.6 38 123 38 C 123.8 38 124.6 37.8 125.3 37.1 C 125.3 37.1 125.3 37.7 125.3 37.7 C 124.6 38.2 123.8 38.5 123 38.5 C 121.2 38.5 119.9 37.2 119.9 35.2 C 119.9 33.2 121.4 31.9 122.9 31.9 C 124.3 31.9 125.5 33 125.5 35.1 C 125.5 35.2 125.5 35.3 125.5 35.4 Z M 125 34.9 C 125 33.2 124 32.4 122.9 32.4 C 121.7 32.4 120.6 33.4 120.5 34.9 C 120.5 34.9 125 34.9 125 34.9 Z M 132.1 34.2 C 132.12 34.16 132.1 38.4 132.1 38.4 L 131.6 38.4 C 131.6 38.4 131.61 34.37 131.6 34.4 C 131.6 33.1 131 32.4 129.8 32.4 C 128.7 32.4 127.8 33.1 127.8 34.3 C 127.83 34.31 127.8 38.4 127.8 38.4 L 127.3 38.4 L 127.3 32 L 127.7 32 L 127.8 33.2 C 127.8 33.2 127.8 33.16 127.8 33.2 C 128.1 32.4 128.9 31.9 129.9 31.9 C 131.2 31.9 132.1 32.8 132.1 34.2 Z M 134.9 32 L 136.8 32 L 136.8 32.5 L 134.9 32.5 C 134.9 32.5 134.94 36.4 134.9 36.4 C 134.9 37.6 135.6 38 136.5 38 C 136.7 38 136.8 38 137 38 C 137 38 137 38.4 137 38.4 C 136.9 38.4 136.7 38.5 136.4 38.5 C 135.3 38.5 134.4 37.8 134.4 36.4 C 134.43 36.42 134.4 32.5 134.4 32.5 L 133.4 32.5 L 133.4 32 L 134.4 32 L 134.4 30.5 L 134.9 30.5 L 134.9 32 Z M 152.2 28.9 L 152.7 28.9 L 152.7 38.4 L 152.2 38.4 L 152.2 28.9 Z M 154.6 35.2 C 154.6 33.2 156 31.9 157.5 31.9 C 158.5 31.9 159.5 32.5 160 33.6 C 159.97 33.62 160 32 160 32 L 160.4 32 L 160.4 38.4 L 160 38.4 C 160 38.4 159.97 36.8 160 36.8 C 159.5 38 158.5 38.5 157.5 38.5 C 156 38.5 154.6 37.2 154.6 35.2 Z M 160 35.2 C 160 33.5 158.8 32.4 157.5 32.4 C 156.2 32.4 155.1 33.5 155.1 35.2 C 155.1 36.9 156.2 38 157.5 38 C 158.8 38 160 36.9 160 35.2 Z " stroke="none" fill="#000"/>
  </g>
  <g id="Polygon31121">
    <path d="M 1.2 14.5 L 1.7 14.5 L 1.7 24 L 1.2 24 L 1.2 14.5 Z M 3.9 15.3 C 3.9 15.1 4.1 14.9 4.3 14.9 C 4.5 14.9 4.7 15.1 4.7 15.3 C 4.7 15.5 4.5 15.7 4.3 15.7 C 4.1 15.7 3.9 15.5 3.9 15.3 Z M 4 17.6 L 4.5 17.6 L 4.5 24 L 4 24 L 4 17.6 Z M 12 21 C 12 21 6.9 21 6.9 21 C 7 22.6 8 23.6 9.5 23.6 C 10.2 23.6 11.1 23.4 11.7 22.7 C 11.7 22.7 11.7 23.3 11.7 23.3 C 11.1 23.8 10.3 24.1 9.4 24.1 C 7.7 24.1 6.4 22.8 6.4 20.8 C 6.4 18.8 7.8 17.5 9.4 17.5 C 10.8 17.5 12 18.6 12 20.7 C 12 20.8 12 20.9 12 21 Z M 11.5 20.5 C 11.5 18.8 10.4 18 9.4 18 C 8.1 18 7 19 6.9 20.5 C 6.9 20.5 11.5 20.5 11.5 20.5 Z M 13.8 17.6 L 14.2 17.6 L 14.2 18.8 C 14.2 18.8 14.26 18.82 14.3 18.8 C 14.6 17.9 15.5 17.6 16.1 17.6 C 16.3 17.6 16.4 17.6 16.5 17.6 C 16.5 17.6 16.5 18.1 16.5 18.1 C 16.4 18.1 16.3 18.1 16.1 18.1 C 15.2 18.1 14.3 18.7 14.3 20 C 14.29 19.97 14.3 24 14.3 24 L 13.8 24 L 13.8 17.6 Z M 17.2 23 C 17.2 23.04 17.2 22.6 17.2 22.6 L 17.7 22.6 C 17.7 22.6 17.7 23.03 17.7 23 C 17.7 24 17.3 25 17.1 25.6 C 17.1 25.6 16.7 25.6 16.7 25.6 C 16.9 25 17.2 24 17.2 23 Z M 23.9 14.5 L 24.5 14.5 L 24.5 24 L 23.9 24 L 23.9 14.5 Z M 26.3 20.8 C 26.3 18.8 27.7 17.5 29.2 17.5 C 30.2 17.5 31.3 18.1 31.7 19.2 C 31.72 19.22 31.8 17.6 31.8 17.6 L 32.2 17.6 L 32.2 24 L 31.8 24 C 31.8 24 31.72 22.4 31.7 22.4 C 31.3 23.6 30.2 24.1 29.2 24.1 C 27.7 24.1 26.3 22.8 26.3 20.8 Z M 31.7 20.8 C 31.7 19.1 30.6 18 29.3 18 C 27.9 18 26.8 19.1 26.8 20.8 C 26.8 22.5 28 23.6 29.3 23.6 C 30.6 23.6 31.7 22.5 31.7 20.8 Z M 39.1 17.6 L 41 17.6 L 41 18.1 L 39.1 18.1 C 39.1 18.1 39.09 22 39.1 22 C 39.1 23.2 39.7 23.6 40.6 23.6 C 40.8 23.6 41 23.6 41.2 23.6 C 41.2 23.6 41.2 24 41.2 24 C 41.1 24 40.8 24.1 40.6 24.1 C 39.4 24.1 38.6 23.4 38.6 22 C 38.58 22.02 38.6 18.1 38.6 18.1 L 37.6 18.1 L 37.6 17.6 L 38.6 17.6 L 38.6 16.1 L 39.1 16.1 L 39.1 17.6 Z M 47.5 21 C 47.5 21 42.5 21 42.5 21 C 42.6 22.6 43.6 23.6 45.1 23.6 C 45.8 23.6 46.6 23.4 47.3 22.7 C 47.3 22.7 47.3 23.3 47.3 23.3 C 46.6 23.8 45.9 24.1 45 24.1 C 43.2 24.1 42 22.8 42 20.8 C 42 18.8 43.4 17.5 44.9 17.5 C 46.4 17.5 47.6 18.6 47.6 20.7 C 47.6 20.8 47.6 20.9 47.5 21 Z M 47.1 20.5 C 47 18.8 46 18 44.9 18 C 43.7 18 42.6 19 42.5 20.5 C 42.5 20.5 47.1 20.5 47.1 20.5 Z M 52 23.6 C 52.5 23.6 53.2 23.5 53.7 23.1 C 53.7 23.1 53.7 23.7 53.7 23.7 C 53.2 24 52.6 24.1 52 24.1 C 50.3 24.1 48.9 22.7 48.9 20.8 C 48.9 18.9 50.3 17.5 52 17.5 C 52.6 17.5 53.2 17.6 53.7 18 C 53.7 18 53.7 18.5 53.7 18.5 C 53.2 18.1 52.6 18 52 18 C 50.6 18 49.4 19.1 49.4 20.8 C 49.4 22.5 50.7 23.6 52 23.6 Z M 56 18.6 C 56 18.6 56.01 18.64 56 18.6 C 56.4 17.9 57.2 17.5 58 17.5 C 59.4 17.5 60.3 18.3 60.3 19.8 C 60.28 19.78 60.3 24 60.3 24 L 59.8 24 C 59.8 24 59.78 19.96 59.8 20 C 59.8 18.7 59.1 18 58 18 C 56.9 18 56 18.6 56 19.8 C 56 19.85 56 24 56 24 L 55.5 24 L 55.5 14.5 L 56 14.5 L 56 18.6 Z M 67.3 19.8 C 67.27 19.76 67.3 24 67.3 24 L 66.8 24 C 66.8 24 66.77 19.97 66.8 20 C 66.8 18.7 66.1 18 65 18 C 63.9 18 63 18.7 63 19.9 C 62.99 19.91 63 24 63 24 L 62.5 24 L 62.5 17.6 L 62.9 17.6 L 62.9 18.8 C 62.9 18.8 62.96 18.76 63 18.8 C 63.3 18 64.1 17.5 65 17.5 C 66.4 17.5 67.3 18.4 67.3 19.8 Z M 69.4 15.3 C 69.4 15.1 69.5 14.9 69.8 14.9 C 70 14.9 70.2 15.1 70.2 15.3 C 70.2 15.5 70 15.7 69.8 15.7 C 69.5 15.7 69.4 15.5 69.4 15.3 Z M 69.5 17.6 L 70 17.6 L 70 24 L 69.5 24 L 69.5 17.6 Z M 77.3 19.2 C 77.28 19.24 77.4 17.6 77.4 17.6 L 77.8 17.6 L 77.8 26.6 L 77.2 26.6 C 77.2 26.6 77.25 22.44 77.2 22.4 C 76.8 23.5 75.8 24.1 74.8 24.1 C 73.3 24.1 71.9 22.8 71.9 20.8 C 71.9 18.8 73.3 17.5 74.8 17.5 C 75.8 17.5 76.8 18.1 77.3 19.2 Z M 72.4 20.8 C 72.4 22.5 73.5 23.6 74.8 23.6 C 76.1 23.6 77.3 22.5 77.3 20.8 C 77.3 19.1 76.2 18 74.8 18 C 73.5 18 72.4 19.1 72.4 20.8 Z M 79.9 21.7 C 79.95 21.68 79.9 17.6 79.9 17.6 L 80.5 17.6 C 80.5 17.6 80.45 21.71 80.5 21.7 C 80.5 22.9 81.2 23.6 82.3 23.6 C 83.5 23.6 84.2 22.9 84.2 21.7 C 84.24 21.7 84.2 17.6 84.2 17.6 L 84.7 17.6 C 84.7 17.6 84.75 21.67 84.7 21.7 C 84.7 23.1 83.8 24.1 82.3 24.1 C 80.9 24.1 79.9 23.1 79.9 21.7 Z M 92.1 21 C 92.1 21 87 21 87 21 C 87.1 22.6 88.1 23.6 89.6 23.6 C 90.3 23.6 91.1 23.4 91.8 22.7 C 91.8 22.7 91.8 23.3 91.8 23.3 C 91.2 23.8 90.4 24.1 89.5 24.1 C 87.7 24.1 86.5 22.8 86.5 20.8 C 86.5 18.8 87.9 17.5 89.5 17.5 C 90.9 17.5 92.1 18.6 92.1 20.7 C 92.1 20.8 92.1 20.9 92.1 21 Z M 91.6 20.5 C 91.6 18.8 90.5 18 89.5 18 C 88.2 18 87.1 19 87 20.5 C 87 20.5 91.6 20.5 91.6 20.5 Z M 97.5 20.8 C 97.5 18.8 98.9 17.5 100.4 17.5 C 101.4 17.5 102.4 18.1 102.9 19.2 C 102.88 19.18 102.9 14.5 102.9 14.5 L 103.4 14.5 L 103.4 24 L 103 24 L 102.9 22.4 C 102.9 22.4 102.9 22.39 102.9 22.4 C 102.4 23.6 101.4 24.1 100.4 24.1 C 98.9 24.1 97.5 22.8 97.5 20.8 Z M 102.9 20.8 C 102.9 19.1 101.8 18 100.5 18 C 99.1 18 98 19.1 98 20.8 C 98 22.5 99.1 23.6 100.5 23.6 C 101.8 23.6 102.9 22.5 102.9 20.8 Z M 105.6 21.7 C 105.58 21.68 105.6 17.6 105.6 17.6 L 106.1 17.6 C 106.1 17.6 106.08 21.71 106.1 21.7 C 106.1 22.9 106.8 23.6 108 23.6 C 109.1 23.6 109.9 22.9 109.9 21.7 C 109.87 21.7 109.9 17.6 109.9 17.6 L 110.4 17.6 C 110.4 17.6 110.37 21.67 110.4 21.7 C 110.4 23.1 109.4 24.1 108 24.1 C 106.5 24.1 105.6 23.1 105.6 21.7 Z M 119.3 23.6 C 119.8 23.6 120.4 23.5 121 23.1 C 121 23.1 121 23.7 121 23.7 C 120.5 24 119.9 24.1 119.3 24.1 C 117.5 24.1 116.2 22.7 116.2 20.8 C 116.2 18.9 117.5 17.5 119.3 17.5 C 119.8 17.5 120.4 17.6 121 18 C 121 18 121 18.5 121 18.5 C 120.4 18.1 119.8 18 119.2 18 C 117.9 18 116.7 19.1 116.7 20.8 C 116.7 22.5 117.9 23.6 119.3 23.6 Z M 122.6 15.3 C 122.6 15.1 122.8 14.9 123 14.9 C 123.3 14.9 123.5 15.1 123.5 15.3 C 123.5 15.5 123.3 15.7 123 15.7 C 122.8 15.7 122.6 15.5 122.6 15.3 Z M 122.8 17.6 L 123.3 17.6 L 123.3 24 L 122.8 24 L 122.8 17.6 Z M 130.4 19.8 C 130.4 19.76 130.4 24 130.4 24 L 129.9 24 C 129.9 24 129.9 19.97 129.9 20 C 129.9 18.7 129.2 18 128.1 18 C 127 18 126.1 18.7 126.1 19.9 C 126.11 19.91 126.1 24 126.1 24 L 125.6 24 L 125.6 17.6 L 126 17.6 L 126.1 18.8 C 126.1 18.8 126.08 18.76 126.1 18.8 C 126.4 18 127.2 17.5 128.2 17.5 C 129.5 17.5 130.4 18.4 130.4 19.8 Z M 133.2 17.6 L 135.1 17.6 L 135.1 18.1 L 133.2 18.1 C 133.2 18.1 133.22 22 133.2 22 C 133.2 23.2 133.9 23.6 134.8 23.6 C 134.9 23.6 135.1 23.6 135.3 23.6 C 135.3 23.6 135.3 24 135.3 24 C 135.2 24 135 24.1 134.7 24.1 C 133.5 24.1 132.7 23.4 132.7 22 C 132.72 22.02 132.7 18.1 132.7 18.1 L 131.7 18.1 L 131.7 17.6 L 132.7 17.6 L 132.7 16.1 L 133.2 16.1 L 133.2 17.6 Z M 136.7 17.6 L 137.1 17.6 L 137.1 18.8 C 137.1 18.8 137.12 18.82 137.1 18.8 C 137.5 17.9 138.4 17.6 139 17.6 C 139.1 17.6 139.3 17.6 139.4 17.6 C 139.4 17.6 139.4 18.1 139.4 18.1 C 139.3 18.1 139.1 18.1 139 18.1 C 138.1 18.1 137.2 18.7 137.2 20 C 137.15 19.97 137.2 24 137.2 24 L 136.7 24 L 136.7 17.6 Z M 140 20.8 C 140 18.8 141.4 17.5 142.9 17.5 C 143.9 17.5 144.9 18.1 145.4 19.2 C 145.36 19.22 145.4 17.6 145.4 17.6 L 145.8 17.6 L 145.8 24 L 145.4 24 C 145.4 24 145.36 22.4 145.4 22.4 C 144.9 23.6 143.9 24.1 142.9 24.1 C 141.4 24.1 140 22.8 140 20.8 Z M 145.4 20.8 C 145.4 19.1 144.2 18 142.9 18 C 141.6 18 140.5 19.1 140.5 20.8 C 140.5 22.5 141.6 23.6 142.9 23.6 C 144.2 23.6 145.4 22.5 145.4 20.8 Z M 153 19.2 C 153.03 19.16 153.1 17.6 153.1 17.6 L 153.5 17.6 C 153.5 17.6 153.5 23.8 153.5 23.8 C 153.5 25.8 152.1 26.7 150.7 26.7 C 149.9 26.7 149 26.4 148.3 25.9 C 148.3 25.9 148.3 25.3 148.3 25.3 C 149 25.9 149.8 26.2 150.7 26.2 C 151.9 26.2 153 25.5 153 23.9 C 153 23.9 153 22.3 153 22.3 C 152.5 23.4 151.6 23.9 150.5 23.9 C 149 23.9 147.7 22.7 147.7 20.7 C 147.7 18.8 149 17.5 150.5 17.5 C 151.5 17.5 152.6 18.1 153 19.2 Z M 148.2 20.7 C 148.2 22.4 149.3 23.4 150.6 23.4 C 151.9 23.4 153 22.3 153 20.7 C 153 19.1 151.9 18 150.6 18 C 149.3 18 148.2 19.1 148.2 20.7 Z M 160.9 21 C 160.9 21 155.8 21 155.8 21 C 155.9 22.6 157 23.6 158.4 23.6 C 159.2 23.6 160 23.4 160.7 22.7 C 160.7 22.7 160.7 23.3 160.7 23.3 C 160 23.8 159.2 24.1 158.4 24.1 C 156.6 24.1 155.3 22.8 155.3 20.8 C 155.3 18.8 156.8 17.5 158.3 17.5 C 159.7 17.5 160.9 18.6 160.9 20.7 C 160.9 20.8 160.9 20.9 160.9 21 Z M 160.4 20.5 C 160.4 18.8 159.4 18 158.3 18 C 157.1 18 156 19 155.9 20.5 C 155.9 20.5 160.4 20.5 160.4 20.5 Z " stroke="none" fill="#000"/>
  </g>
  <g id="Polygon31120">
    <path d="M 5.5 1.1 C 5.5 1.1 5.5 1.7 5.5 1.7 C 4.9 1.2 4.1 1 3.5 1 C 2.3 1 1.4 1.7 1.4 2.7 C 1.4 3.7 2.3 4.2 3.6 4.8 C 4.9 5.4 5.9 6 5.9 7.3 C 5.9 8.8 4.7 9.7 3.2 9.7 C 2.2 9.7 1.4 9.4 0.8 8.9 C 0.8 8.9 0.8 8.2 0.8 8.2 C 1.4 8.9 2.3 9.3 3.2 9.3 C 4.4 9.3 5.4 8.5 5.4 7.4 C 5.4 6.3 4.5 5.8 3.2 5.2 C 1.9 4.6 0.9 4.1 0.9 2.8 C 0.9 1.4 2 0.5 3.5 0.5 C 4.2 0.5 4.9 0.8 5.5 1.1 Z M 7.3 6.4 C 7.3 4.5 8.6 3.1 10.3 3.1 C 12 3.1 13.3 4.5 13.3 6.4 C 13.3 8.4 12 9.7 10.3 9.7 C 8.6 9.7 7.3 8.4 7.3 6.4 Z M 12.8 6.4 C 12.8 4.6 11.6 3.6 10.3 3.6 C 9 3.6 7.8 4.6 7.8 6.4 C 7.8 8.2 9 9.2 10.3 9.2 C 11.6 9.2 12.8 8.2 12.8 6.4 Z M 15.1 7.3 C 15.08 7.28 15.1 3.2 15.1 3.2 L 15.6 3.2 C 15.6 3.2 15.59 7.31 15.6 7.3 C 15.6 8.5 16.3 9.2 17.5 9.2 C 18.6 9.2 19.4 8.5 19.4 7.3 C 19.38 7.3 19.4 3.2 19.4 3.2 L 19.9 3.2 C 19.9 3.2 19.88 7.27 19.9 7.3 C 19.9 8.7 18.9 9.7 17.5 9.7 C 16 9.7 15.1 8.7 15.1 7.3 Z M 21.3 3.2 L 21.9 3.2 L 24 9 L 24 9 L 26.1 3.2 L 26.6 3.2 L 24.3 9.6 L 23.7 9.6 L 21.3 3.2 Z M 33.1 6.6 C 33.1 6.6 28 6.6 28 6.6 C 28.1 8.2 29.1 9.2 30.6 9.2 C 31.3 9.2 32.1 9 32.8 8.3 C 32.8 8.3 32.8 8.9 32.8 8.9 C 32.2 9.4 31.4 9.7 30.5 9.7 C 28.8 9.7 27.5 8.4 27.5 6.4 C 27.5 4.4 28.9 3.1 30.5 3.1 C 31.9 3.1 33.1 4.2 33.1 6.3 C 33.1 6.4 33.1 6.5 33.1 6.6 Z M 32.6 6.1 C 32.6 4.4 31.5 3.6 30.5 3.6 C 29.2 3.6 28.1 4.6 28 6.1 C 28 6.1 32.6 6.1 32.6 6.1 Z M 39.7 5.4 C 39.67 5.36 39.7 9.6 39.7 9.6 L 39.2 9.6 C 39.2 9.6 39.17 5.57 39.2 5.6 C 39.2 4.3 38.5 3.6 37.4 3.6 C 36.3 3.6 35.4 4.3 35.4 5.5 C 35.39 5.51 35.4 9.6 35.4 9.6 L 34.9 9.6 L 34.9 3.2 L 35.3 3.2 L 35.3 4.4 C 35.3 4.4 35.35 4.36 35.4 4.4 C 35.7 3.6 36.5 3.1 37.4 3.1 C 38.8 3.1 39.7 4 39.7 5.4 Z M 42.5 3.2 L 44.4 3.2 L 44.4 3.7 L 42.5 3.7 C 42.5 3.7 42.49 7.6 42.5 7.6 C 42.5 8.8 43.1 9.2 44 9.2 C 44.2 9.2 44.4 9.2 44.6 9.2 C 44.6 9.2 44.6 9.6 44.6 9.6 C 44.5 9.6 44.2 9.7 44 9.7 C 42.8 9.7 42 9 42 7.6 C 41.99 7.62 42 3.7 42 3.7 L 41 3.7 L 41 3.2 L 42 3.2 L 42 1.7 L 42.5 1.7 L 42.5 3.2 Z M 52.8 7.3 C 52.85 7.28 52.8 3.2 52.8 3.2 L 53.3 3.2 C 53.3 3.2 53.35 7.31 53.3 7.3 C 53.3 8.5 54.1 9.2 55.2 9.2 C 56.4 9.2 57.1 8.5 57.1 7.3 C 57.14 7.3 57.1 3.2 57.1 3.2 L 57.6 3.2 C 57.6 3.2 57.65 7.27 57.6 7.3 C 57.6 8.7 56.7 9.7 55.2 9.7 C 53.8 9.7 52.8 8.7 52.8 7.3 Z M 60.5 3.2 L 62.4 3.2 L 62.4 3.7 L 60.5 3.7 C 60.5 3.7 60.53 7.6 60.5 7.6 C 60.5 8.8 61.2 9.2 62.1 9.2 C 62.2 9.2 62.4 9.2 62.6 9.2 C 62.6 9.2 62.6 9.6 62.6 9.6 C 62.5 9.6 62.3 9.7 62 9.7 C 60.8 9.7 60 9 60 7.6 C 60.02 7.62 60 3.7 60 3.7 L 59 3.7 L 59 3.2 L 60 3.2 L 60 1.7 L 60.5 1.7 L 60.5 3.2 Z M 63.9 0.9 C 63.9 0.7 64 0.5 64.2 0.5 C 64.5 0.5 64.7 0.7 64.7 0.9 C 64.7 1.1 64.5 1.3 64.2 1.3 C 64 1.3 63.9 1.1 63.9 0.9 Z M 64 3.2 L 64.5 3.2 L 64.5 9.6 L 64 9.6 L 64 3.2 Z M 66.9 0.1 L 67.4 0.1 L 67.4 9.6 L 66.9 9.6 L 66.9 0.1 Z M 69.6 0.9 C 69.6 0.7 69.7 0.5 70 0.5 C 70.2 0.5 70.4 0.7 70.4 0.9 C 70.4 1.1 70.2 1.3 70 1.3 C 69.7 1.3 69.6 1.1 69.6 0.9 Z M 69.7 3.2 L 70.2 3.2 L 70.2 9.6 L 69.7 9.6 L 69.7 3.2 Z M 76.1 3.7 C 76.1 3.7 76.1 4.2 76.1 4.2 C 75.6 3.9 75 3.6 74.3 3.6 C 73.3 3.6 72.7 4.1 72.7 4.8 C 72.7 5.5 73.4 5.8 74.4 6.1 C 75.4 6.5 76.4 6.8 76.4 7.9 C 76.4 9 75.5 9.7 74.2 9.7 C 73.5 9.7 72.7 9.5 72.1 9 C 72.1 9 72.1 8.3 72.1 8.3 C 72.6 8.9 73.4 9.2 74.2 9.2 C 75.2 9.2 75.9 8.7 75.9 7.9 C 75.9 7.2 75.2 6.9 74.1 6.5 C 73.1 6.2 72.2 5.9 72.2 4.8 C 72.2 3.8 73 3.1 74.3 3.1 C 74.9 3.1 75.6 3.3 76.1 3.7 Z M 80.4 2.1 L 79.9 2.1 L 81.4 0.2 L 82 0.2 L 80.4 2.1 Z M 83.3 6.6 C 83.3 6.6 78.2 6.6 78.2 6.6 C 78.3 8.2 79.3 9.2 80.8 9.2 C 81.5 9.2 82.3 9 83 8.3 C 83 8.3 83 8.9 83 8.9 C 82.4 9.4 81.6 9.7 80.7 9.7 C 78.9 9.7 77.7 8.4 77.7 6.4 C 77.7 4.4 79.1 3.1 80.6 3.1 C 82.1 3.1 83.3 4.2 83.3 6.3 C 83.3 6.4 83.3 6.5 83.3 6.6 Z M 82.8 6.1 C 82.8 4.4 81.7 3.6 80.6 3.6 C 79.4 3.6 78.3 4.6 78.2 6.1 C 78.2 6.1 82.8 6.1 82.8 6.1 Z M 90.2 6.6 C 90.2 6.6 85.1 6.6 85.1 6.6 C 85.2 8.2 86.3 9.2 87.7 9.2 C 88.5 9.2 89.3 9 90 8.3 C 90 8.3 90 8.9 90 8.9 C 89.3 9.4 88.5 9.7 87.7 9.7 C 85.9 9.7 84.6 8.4 84.6 6.4 C 84.6 4.4 86 3.1 87.6 3.1 C 89 3.1 90.2 4.2 90.2 6.3 C 90.2 6.4 90.2 6.5 90.2 6.6 Z M 89.7 6.1 C 89.7 4.4 88.7 3.6 87.6 3.6 C 86.4 3.6 85.3 4.6 85.1 6.1 C 85.1 6.1 89.7 6.1 89.7 6.1 Z M 98.6 6.4 C 98.6 4.4 100 3.1 101.6 3.1 C 102.6 3.1 103.6 3.7 104 4.8 C 104.03 4.78 104 0.1 104 0.1 L 104.5 0.1 L 104.5 9.6 L 104.1 9.6 L 104.1 8 C 104.1 8 104.05 7.99 104 8 C 103.6 9.2 102.6 9.7 101.6 9.7 C 100.1 9.7 98.6 8.4 98.6 6.4 Z M 104 6.4 C 104 4.7 102.9 3.6 101.6 3.6 C 100.3 3.6 99.2 4.7 99.2 6.4 C 99.2 8.1 100.3 9.2 101.6 9.2 C 102.9 9.2 104 8.1 104 6.4 Z M 106.4 6.4 C 106.4 4.4 107.8 3.1 109.3 3.1 C 110.3 3.1 111.3 3.7 111.8 4.8 C 111.77 4.82 111.8 3.2 111.8 3.2 L 112.2 3.2 L 112.2 9.6 L 111.8 9.6 C 111.8 9.6 111.77 8 111.8 8 C 111.3 9.2 110.3 9.7 109.3 9.7 C 107.8 9.7 106.4 8.4 106.4 6.4 Z M 111.8 6.4 C 111.8 4.7 110.6 3.6 109.3 3.6 C 108 3.6 106.9 4.7 106.9 6.4 C 106.9 8.1 108 9.2 109.3 9.2 C 110.6 9.2 111.8 8.1 111.8 6.4 Z M 119.3 5.4 C 119.3 5.36 119.3 9.6 119.3 9.6 L 118.8 9.6 C 118.8 9.6 118.8 5.57 118.8 5.6 C 118.8 4.3 118.1 3.6 117 3.6 C 115.9 3.6 115 4.3 115 5.5 C 115.02 5.51 115 9.6 115 9.6 L 114.5 9.6 L 114.5 3.2 L 114.9 3.2 L 115 4.4 C 115 4.4 114.98 4.36 115 4.4 C 115.3 3.6 116.1 3.1 117.1 3.1 C 118.4 3.1 119.3 4 119.3 5.4 Z M 125 3.7 C 125 3.7 125 4.2 125 4.2 C 124.5 3.9 123.9 3.6 123.2 3.6 C 122.3 3.6 121.7 4.1 121.7 4.8 C 121.7 5.5 122.3 5.8 123.3 6.1 C 124.4 6.5 125.4 6.8 125.4 7.9 C 125.4 9 124.5 9.7 123.2 9.7 C 122.4 9.7 121.7 9.5 121.1 9 C 121.1 9 121.1 8.3 121.1 8.3 C 121.6 8.9 122.4 9.2 123.2 9.2 C 124.2 9.2 124.9 8.7 124.9 7.9 C 124.9 7.2 124.1 6.9 123.1 6.5 C 122.1 6.2 121.1 5.9 121.1 4.8 C 121.1 3.8 122 3.1 123.2 3.1 C 123.9 3.1 124.6 3.3 125 3.7 Z M 134.2 0.1 L 134.7 0.1 L 134.7 9.6 L 134.2 9.6 L 134.2 0.1 Z M 137.2 1.1 C 137.24 1.13 137.2 0.7 137.2 0.7 L 137.7 0.7 C 137.7 0.7 137.74 1.12 137.7 1.1 C 137.7 2.1 137.3 3.1 137.1 3.7 C 137.1 3.7 136.7 3.7 136.7 3.7 C 136.9 3.1 137.2 2.1 137.2 1.1 Z M 138.8 6.4 C 138.8 4.4 140.2 3.1 141.7 3.1 C 142.7 3.1 143.8 3.7 144.2 4.8 C 144.24 4.82 144.3 3.2 144.3 3.2 L 144.7 3.2 L 144.7 9.6 L 144.3 9.6 C 144.3 9.6 144.24 8 144.2 8 C 143.8 9.2 142.7 9.7 141.7 9.7 C 140.2 9.7 138.8 8.4 138.8 6.4 Z M 144.2 6.4 C 144.2 4.7 143.1 3.6 141.8 3.6 C 140.5 3.6 139.3 4.7 139.3 6.4 C 139.3 8.1 140.5 9.2 141.8 9.2 C 143.1 9.2 144.2 8.1 144.2 6.4 Z M 147.7 3.2 L 149.6 3.2 L 149.6 3.7 L 147.7 3.7 C 147.7 3.7 147.67 7.6 147.7 7.6 C 147.7 8.8 148.3 9.2 149.2 9.2 C 149.4 9.2 149.6 9.2 149.7 9.2 C 149.7 9.2 149.7 9.6 149.7 9.6 C 149.7 9.6 149.4 9.7 149.1 9.7 C 148 9.7 147.2 9 147.2 7.6 C 147.16 7.62 147.2 3.7 147.2 3.7 L 146.2 3.7 L 146.2 3.2 L 147.2 3.2 L 147.2 1.7 L 147.7 1.7 L 147.7 3.2 Z M 156.1 6.6 C 156.1 6.6 151.1 6.6 151.1 6.6 C 151.2 8.2 152.2 9.2 153.6 9.2 C 154.4 9.2 155.2 9 155.9 8.3 C 155.9 8.3 155.9 8.9 155.9 8.9 C 155.2 9.4 154.4 9.7 153.6 9.7 C 151.8 9.7 150.6 8.4 150.6 6.4 C 150.6 4.4 152 3.1 153.5 3.1 C 154.9 3.1 156.2 4.2 156.2 6.3 C 156.2 6.4 156.1 6.5 156.1 6.6 Z M 155.6 6.1 C 155.6 4.4 154.6 3.6 153.5 3.6 C 152.3 3.6 151.2 4.6 151.1 6.1 C 151.1 6.1 155.6 6.1 155.6 6.1 Z M 157.8 5.7 L 160.6 5.7 L 160.6 6.2 L 157.8 6.2 L 157.8 5.7 Z " stroke="none" fill="#000"/>
  </g>
</svg>