<?xml version="1.0" standalone="no"?>
<!DOCTYPE svg PUBLIC "-//W3C//DTD SVG 1.1//EN" "http://www.w3.org/Graphics/SVG/1.1/DTD/svg11.dtd">
<svg xmlns="http://www.w3.org/2000/svg" version="1.1" width="154.1px" height="34.1px" viewBox="0 0 154.1 34.1">
  <desc>CIBLE</desc>
  <defs/>
  <g id="Polygon28522">
    <path d="M 8.6 16.6 C 4.2 16.6 0.6 13.4 0.6 8.7 C 0.6 3.9 4.2 0.7 8.6 0.7 C 10.3 0.7 11.7 1.2 12.9 1.7 C 12.9 1.7 12.9 6.1 12.9 6.1 C 11.7 5.2 10.6 4.8 9.2 4.8 C 6.8 4.8 5 6.4 5 8.7 C 5 10.9 6.8 12.6 9.2 12.6 C 10.6 12.6 11.6 12.1 12.9 11.2 C 12.9 11.2 12.9 15.6 12.9 15.6 C 11.7 16.2 10.3 16.6 8.6 16.6 Z M 15.1 1.1 L 19.5 1.1 L 19.5 16.3 L 15.1 16.3 L 15.1 1.1 Z M 22.1 1.1 C 22.1 1.1 28.64 1.08 28.6 1.1 C 32.3 1.1 34.2 2.9 34.2 5.2 C 34.2 6.8 33.3 7.9 32 8.5 C 32 8.5 32 8.5 32 8.5 C 33.6 9.1 34.5 10.3 34.5 12 C 34.5 14.3 32.7 16.3 28.9 16.3 C 28.91 16.26 22.1 16.3 22.1 16.3 L 22.1 1.1 Z M 28.4 7.1 C 29.5 7.1 30 6.5 30 5.9 C 30 5.3 29.5 4.8 28.4 4.8 C 28.44 4.76 26.5 4.8 26.5 4.8 L 26.5 7.1 C 26.5 7.1 28.44 7.09 28.4 7.1 Z M 28.5 12.6 C 29.6 12.6 30.2 12 30.2 11.3 C 30.2 10.6 29.6 10.1 28.5 10.1 C 28.52 10.06 26.5 10.1 26.5 10.1 L 26.5 12.6 C 26.5 12.6 28.5 12.58 28.5 12.6 Z M 36.4 1.1 L 40.9 1.1 L 40.9 12.3 L 46.8 12.3 L 46.8 16.3 L 36.4 16.3 L 36.4 1.1 Z M 48.5 1.1 L 59 1.1 L 59 5 L 53 5 L 53 6.9 L 58.4 6.9 L 58.4 10.4 L 53 10.4 L 53 12.3 L 59 12.3 L 59 16.3 L 48.5 16.3 L 48.5 1.1 Z " stroke="none" fill="#444443"/>
  </g>
</svg>