<?xml version="1.0" standalone="no"?>
<!DOCTYPE svg PUBLIC "-//W3C//DTD SVG 1.1//EN" "http://www.w3.org/Graphics/SVG/1.1/DTD/svg11.dtd">
<svg xmlns="http://www.w3.org/2000/svg" version="1.1" width="122.5px" height="34.1px" viewBox="0 0 122.5 34.1">
  <desc>INTERIEUR</desc>
  <defs/>
  <g id="Polygon17922">
    <path d="M 1.3 1.1 L 5.8 1.1 L 5.8 16.3 L 1.3 16.3 L 1.3 1.1 Z M 22.3 16.3 L 18.1 16.3 L 12.6 8.1 L 12.6 8.1 L 12.6 16.3 L 8.4 16.3 L 8.4 1.1 L 12.6 1.1 L 18.1 9.1 L 18.1 9.1 L 18.1 1.1 L 22.3 1.1 L 22.3 16.3 Z M 28.2 5.1 L 24 5.1 L 24 1.1 L 36.8 1.1 L 36.8 5.1 L 32.6 5.1 L 32.6 16.3 L 28.2 16.3 L 28.2 5.1 Z M 38.5 1.1 L 49 1.1 L 49 5 L 42.9 5 L 42.9 6.9 L 48.4 6.9 L 48.4 10.4 L 42.9 10.4 L 42.9 12.3 L 49 12.3 L 49 16.3 L 38.5 16.3 L 38.5 1.1 Z M 63.9 16.3 L 58.7 16.3 L 55.8 11.6 L 55.7 11.6 L 55.7 16.3 L 51.3 16.3 L 51.3 1.1 C 51.3 1.1 56.68 1.08 56.7 1.1 C 60.5 1.1 63.1 2.8 63.1 6.4 C 63.1 7.8 62.5 9.9 60 10.9 C 59.97 10.92 63.9 16.3 63.9 16.3 Z M 56.7 8.3 C 57.8 8.3 58.7 7.7 58.7 6.7 C 58.7 5.6 57.8 5.1 56.6 5.1 C 56.64 5.08 55.7 5.1 55.7 5.1 L 55.7 8.3 C 55.7 8.3 56.66 8.25 56.7 8.3 Z M 65.4 1.1 L 69.8 1.1 L 69.8 16.3 L 65.4 16.3 L 65.4 1.1 Z M 72.5 1.1 L 83 1.1 L 83 5 L 76.9 5 L 76.9 6.9 L 82.4 6.9 L 82.4 10.4 L 76.9 10.4 L 76.9 12.3 L 83 12.3 L 83 16.3 L 72.5 16.3 L 72.5 1.1 Z M 85.1 10.1 C 85.08 10.08 85.1 1.1 85.1 1.1 L 89.5 1.1 C 89.5 1.1 89.51 10.04 89.5 10 C 89.5 11.7 90.3 12.6 91.8 12.6 C 93.2 12.6 94.1 11.7 94.1 10 C 94.08 10.02 94.1 1.1 94.1 1.1 L 98.5 1.1 C 98.5 1.1 98.54 10.08 98.5 10.1 C 98.5 13.9 96 16.6 91.8 16.6 C 87.6 16.6 85.1 13.9 85.1 10.1 Z M 113.6 16.3 L 108.4 16.3 L 105.5 11.6 L 105.4 11.6 L 105.4 16.3 L 101 16.3 L 101 1.1 C 101 1.1 106.4 1.08 106.4 1.1 C 110.2 1.1 112.8 2.8 112.8 6.4 C 112.8 7.8 112.2 9.9 109.7 10.9 C 109.7 10.92 113.6 16.3 113.6 16.3 Z M 106.4 8.3 C 107.5 8.3 108.4 7.7 108.4 6.7 C 108.4 5.6 107.5 5.1 106.4 5.1 C 106.36 5.08 105.4 5.1 105.4 5.1 L 105.4 8.3 C 105.4 8.3 106.38 8.25 106.4 8.3 Z " stroke="none" fill="#444443"/>
  </g>
</svg>