<?xml version="1.0" standalone="no"?>
<!DOCTYPE svg PUBLIC "-//W3C//DTD SVG 1.1//EN" "http://www.w3.org/Graphics/SVG/1.1/DTD/svg11.dtd">
<svg xmlns="http://www.w3.org/2000/svg" version="1.1" width="27px" height="14.5px" viewBox="0 0 27 14.5">
  <desc>7 22</desc>
  <defs/>
  <g id="Polygon26895">
    <path d="M 3.1 1.1 L 0.4 1.1 L 0.4 0.4 L 4.2 0.4 L 1.2 6.1 L 0.4 6.1 L 3.1 1.1 Z M 6.6 -0.6 L 7.2 -0.6 L 4.7 7.2 L 4 7.2 L 6.6 -0.6 Z M 10.7 2.1 C 10.7 1.5 10.3 1 9.5 1 C 8.9 1 8.4 1.3 8.1 1.7 C 8.1 1.7 8.1 0.9 8.1 0.9 C 8.4 0.6 9 0.3 9.6 0.3 C 10.7 0.3 11.4 1.1 11.4 2.1 C 11.4 3 10.6 3.9 9.2 5.5 C 9.19 5.47 11.6 5.5 11.6 5.5 L 11.6 6.1 C 11.6 6.1 7.8 6.14 7.8 6.1 C 10.3 3.3 10.7 2.8 10.7 2.1 Z M 15.2 2.1 C 15.2 1.5 14.8 1 14 1 C 13.4 1 12.9 1.3 12.6 1.7 C 12.6 1.7 12.6 0.9 12.6 0.9 C 12.9 0.6 13.5 0.3 14.1 0.3 C 15.2 0.3 15.9 1.1 15.9 2.1 C 15.9 3 15.1 3.9 13.7 5.5 C 13.69 5.47 16.1 5.5 16.1 5.5 L 16.1 6.1 C 16.1 6.1 12.3 6.14 12.3 6.1 C 14.8 3.3 15.2 2.8 15.2 2.1 Z " stroke="none" fill="#000"/>
  </g>
</svg>