<?xml version="1.0" standalone="no"?>
<!DOCTYPE svg PUBLIC "-//W3C//DTD SVG 1.1//EN" "http://www.w3.org/Graphics/SVG/1.1/DTD/svg11.dtd">
<svg xmlns="http://www.w3.org/2000/svg" version="1.1" width="27px" height="14.5px" viewBox="0 0 27 14.5">
  <desc>16 22</desc>
  <defs/>
  <g id="Polygon30119">
    <path d="M 1.7 1.4 L 0.3 2 L 0.3 1.3 L 2.3 0.4 L 2.4 0.4 L 2.4 6.1 L 1.7 6.1 L 1.7 1.4 Z M 7.8 4.3 C 7.8 5.4 7 6.3 5.9 6.3 C 4.7 6.3 3.9 5.4 3.9 4.3 C 3.9 3.7 4.2 3.2 4.7 2.6 C 4.68 2.56 6.4 0.4 6.4 0.4 L 7.2 0.4 C 7.2 0.4 5.56 2.52 5.6 2.5 C 5.7 2.5 5.8 2.5 6 2.5 C 6.9 2.5 7.8 3.2 7.8 4.3 Z M 7.1 4.3 C 7.1 3.5 6.5 3.1 5.7 3.1 C 5.5 3.1 5.2 3.1 5 3.2 C 4.7 3.6 4.6 3.9 4.6 4.3 C 4.6 5 5.1 5.6 5.9 5.6 C 6.6 5.6 7.1 5 7.1 4.3 Z M 11 -0.6 L 11.7 -0.6 L 9.1 7.2 L 8.4 7.2 L 11 -0.6 Z M 15.1 2.1 C 15.1 1.5 14.7 1 14 1 C 13.4 1 12.8 1.3 12.5 1.7 C 12.5 1.7 12.5 0.9 12.5 0.9 C 12.8 0.6 13.4 0.3 14 0.3 C 15.2 0.3 15.8 1.1 15.8 2.1 C 15.8 3 15.1 3.9 13.6 5.5 C 13.64 5.47 16 5.5 16 5.5 L 16 6.1 C 16 6.1 12.25 6.14 12.2 6.1 C 14.8 3.3 15.1 2.8 15.1 2.1 Z M 19.6 2.1 C 19.6 1.5 19.2 1 18.5 1 C 17.9 1 17.3 1.3 17 1.7 C 17 1.7 17 0.9 17 0.9 C 17.3 0.6 17.9 0.3 18.5 0.3 C 19.7 0.3 20.3 1.1 20.3 2.1 C 20.3 3 19.6 3.9 18.1 5.5 C 18.14 5.47 20.5 5.5 20.5 5.5 L 20.5 6.1 C 20.5 6.1 16.75 6.14 16.8 6.1 C 19.3 3.3 19.6 2.8 19.6 2.1 Z " stroke="none" fill="#000"/>
  </g>
</svg>