<?xml version="1.0" standalone="no"?>
<!DOCTYPE svg PUBLIC "-//W3C//DTD SVG 1.1//EN" "http://www.w3.org/Graphics/SVG/1.1/DTD/svg11.dtd">
<svg xmlns="http://www.w3.org/2000/svg" version="1.1" width="162px" height="218.4px" viewBox="0 0 162 218.4">
  <desc>Sur le principe de la baladeuse, cette lampe fait profiter de sa modularit l usager o il l entend Elle peut se s</desc>
  <defs/>
  <g id="Polygon31289">
    <path d="M 1.2 158.5 L 1.7 158.5 L 1.7 168 L 1.2 168 L 1.2 158.5 Z M 3.5 164.8 C 3.5 162.8 4.9 161.5 6.4 161.5 C 7.5 161.5 8.5 162.1 9 163.2 C 8.95 163.22 9 161.6 9 161.6 L 9.4 161.6 L 9.4 168 L 9 168 C 9 168 8.95 166.4 9 166.4 C 8.5 167.6 7.5 168.1 6.5 168.1 C 4.9 168.1 3.5 166.8 3.5 164.8 Z M 8.9 164.8 C 8.9 163.1 7.8 162 6.5 162 C 5.2 162 4 163.1 4 164.8 C 4 166.5 5.2 167.6 6.5 167.6 C 7.8 167.6 8.9 166.5 8.9 164.8 Z M 19.4 163.7 C 19.43 163.68 19.4 168 19.4 168 L 18.9 168 C 18.9 168 18.92 163.73 18.9 163.7 C 18.9 162.7 18.4 162 17.4 162 C 16.4 162 15.8 162.8 15.8 163.7 C 15.82 163.74 15.8 168 15.8 168 L 15.3 168 C 15.3 168 15.31 163.73 15.3 163.7 C 15.3 162.7 14.8 162 13.8 162 C 12.8 162 12.2 162.8 12.2 163.8 C 12.2 163.76 12.2 168 12.2 168 L 11.7 168 L 11.7 161.6 L 12.1 161.6 L 12.2 162.7 C 12.2 162.7 12.17 162.68 12.2 162.7 C 12.4 162 13.1 161.5 13.9 161.5 C 14.8 161.5 15.4 162 15.7 162.8 C 15.9 162 16.6 161.5 17.5 161.5 C 18.8 161.5 19.4 162.4 19.4 163.7 Z M 26.7 165 C 26.7 165 21.7 165 21.7 165 C 21.8 166.6 22.8 167.6 24.3 167.6 C 25 167.6 25.8 167.4 26.5 166.7 C 26.5 166.7 26.5 167.3 26.5 167.3 C 25.8 167.8 25.1 168.1 24.2 168.1 C 22.4 168.1 21.2 166.8 21.2 164.8 C 21.2 162.8 22.6 161.5 24.1 161.5 C 25.6 161.5 26.8 162.6 26.8 164.7 C 26.8 164.8 26.8 164.9 26.7 165 Z M 26.3 164.5 C 26.2 162.8 25.2 162 24.1 162 C 22.9 162 21.8 163 21.7 164.5 C 21.7 164.5 26.3 164.5 26.3 164.5 Z M 28.6 158.5 L 29.1 158.5 L 29.1 168 L 28.6 168 L 28.6 158.5 Z M 31.5 158.5 L 32 158.5 L 32 168 L 31.5 168 L 31.5 158.5 Z M 39.4 165 C 39.4 165 34.3 165 34.3 165 C 34.4 166.6 35.5 167.6 36.9 167.6 C 37.7 167.6 38.5 167.4 39.2 166.7 C 39.2 166.7 39.2 167.3 39.2 167.3 C 38.5 167.8 37.7 168.1 36.9 168.1 C 35.1 168.1 33.8 166.8 33.8 164.8 C 33.8 162.8 35.3 161.5 36.8 161.5 C 38.2 161.5 39.4 162.6 39.4 164.7 C 39.4 164.8 39.4 164.9 39.4 165 Z M 38.9 164.5 C 38.9 162.8 37.9 162 36.8 162 C 35.6 162 34.5 163 34.4 164.5 C 34.4 164.5 38.9 164.5 38.9 164.5 Z M 44.8 162.1 C 44.8 162.1 44.8 162.6 44.8 162.6 C 44.3 162.3 43.7 162 42.9 162 C 42 162 41.4 162.5 41.4 163.2 C 41.4 163.9 42 164.2 43.1 164.5 C 44.1 164.9 45.1 165.2 45.1 166.3 C 45.1 167.4 44.2 168.1 42.9 168.1 C 42.2 168.1 41.4 167.9 40.8 167.4 C 40.8 167.4 40.8 166.7 40.8 166.7 C 41.3 167.3 42.1 167.6 42.9 167.6 C 43.9 167.6 44.6 167.1 44.6 166.3 C 44.6 165.6 43.9 165.3 42.8 164.9 C 41.8 164.6 40.9 164.3 40.9 163.2 C 40.9 162.2 41.7 161.5 43 161.5 C 43.6 161.5 44.3 161.7 44.8 162.1 Z M 46.6 167.6 C 46.6 167.3 46.8 167.1 47.1 167.1 C 47.4 167.1 47.6 167.3 47.6 167.6 C 47.6 167.8 47.4 168 47.1 168 C 46.8 168 46.6 167.8 46.6 167.6 Z " stroke="none" fill="#000"/>
  </g>
  <g id="Polygon31288">
    <path d="M 6.3 150.6 C 6.3 150.6 1.2 150.6 1.2 150.6 C 1.3 152.2 2.3 153.2 3.8 153.2 C 4.5 153.2 5.3 153 6 152.3 C 6 152.3 6 152.9 6 152.9 C 5.4 153.4 4.6 153.7 3.7 153.7 C 1.9 153.7 0.7 152.4 0.7 150.4 C 0.7 148.4 2.1 147.1 3.6 147.1 C 5.1 147.1 6.3 148.2 6.3 150.3 C 6.3 150.4 6.3 150.5 6.3 150.6 Z M 5.8 150.1 C 5.7 148.4 4.7 147.6 3.6 147.6 C 2.4 147.6 1.3 148.6 1.2 150.1 C 1.2 150.1 5.8 150.1 5.8 150.1 Z M 11.6 147.7 C 11.6 147.7 11.6 148.2 11.6 148.2 C 11.1 147.9 10.5 147.6 9.8 147.6 C 8.9 147.6 8.2 148.1 8.2 148.8 C 8.2 149.5 8.9 149.8 9.9 150.1 C 10.9 150.5 11.9 150.8 11.9 151.9 C 11.9 153 11.1 153.7 9.8 153.7 C 9 153.7 8.3 153.5 7.6 153 C 7.6 153 7.6 152.3 7.6 152.3 C 8.2 152.9 8.9 153.2 9.8 153.2 C 10.8 153.2 11.4 152.7 11.4 151.9 C 11.4 151.2 10.7 150.9 9.7 150.5 C 8.6 150.2 7.7 149.9 7.7 148.8 C 7.7 147.8 8.6 147.1 9.8 147.1 C 10.5 147.1 11.1 147.3 11.6 147.7 Z M 14.4 147.2 L 16.3 147.2 L 16.3 147.7 L 14.4 147.7 C 14.4 147.7 14.37 151.6 14.4 151.6 C 14.4 152.8 15 153.2 15.9 153.2 C 16.1 153.2 16.3 153.2 16.5 153.2 C 16.5 153.2 16.5 153.6 16.5 153.6 C 16.4 153.6 16.1 153.7 15.9 153.7 C 14.7 153.7 13.9 153 13.9 151.6 C 13.87 151.62 13.9 147.7 13.9 147.7 L 12.9 147.7 L 12.9 147.2 L 13.9 147.2 L 13.9 145.7 L 14.4 145.7 L 14.4 147.2 Z M 26.3 153.2 C 26.8 153.2 27.5 153.1 28 152.7 C 28 152.7 28 153.3 28 153.3 C 27.5 153.6 26.9 153.7 26.3 153.7 C 24.6 153.7 23.2 152.3 23.2 150.4 C 23.2 148.5 24.6 147.1 26.3 147.1 C 26.9 147.1 27.5 147.2 28 147.6 C 28 147.6 28 148.1 28 148.1 C 27.5 147.7 26.9 147.6 26.3 147.6 C 24.9 147.6 23.7 148.7 23.7 150.4 C 23.7 152.1 25 153.2 26.3 153.2 Z M 29.2 150.4 C 29.2 148.4 30.6 147.1 32.1 147.1 C 33.1 147.1 34.1 147.7 34.6 148.8 C 34.6 148.82 34.7 147.2 34.7 147.2 L 35.1 147.2 L 35.1 153.6 L 34.7 153.6 C 34.7 153.6 34.6 152 34.6 152 C 34.1 153.2 33.1 153.7 32.1 153.7 C 30.6 153.7 29.2 152.4 29.2 150.4 Z M 34.6 150.4 C 34.6 148.7 33.5 147.6 32.1 147.6 C 30.8 147.6 29.7 148.7 29.7 150.4 C 29.7 152.1 30.8 153.2 32.1 153.2 C 33.5 153.2 34.6 152.1 34.6 150.4 Z M 40 153.2 C 40.5 153.2 41.1 153.1 41.7 152.7 C 41.7 152.7 41.7 153.3 41.7 153.3 C 41.2 153.6 40.6 153.7 40 153.7 C 38.2 153.7 36.9 152.3 36.9 150.4 C 36.9 148.5 38.2 147.1 40 147.1 C 40.5 147.1 41.1 147.2 41.7 147.6 C 41.7 147.6 41.7 148.1 41.7 148.1 C 41.1 147.7 40.5 147.6 39.9 147.6 C 38.6 147.6 37.4 148.7 37.4 150.4 C 37.4 152.1 38.6 153.2 40 153.2 Z M 44 148.2 C 44 148.2 43.98 148.24 44 148.2 C 44.3 147.5 45.1 147.1 46 147.1 C 47.4 147.1 48.3 147.9 48.3 149.4 C 48.25 149.38 48.3 153.6 48.3 153.6 L 47.8 153.6 C 47.8 153.6 47.75 149.56 47.8 149.6 C 47.8 148.3 47.1 147.6 46 147.6 C 44.9 147.6 44 148.2 44 149.4 C 43.97 149.45 44 153.6 44 153.6 L 43.5 153.6 L 43.5 144.1 L 44 144.1 L 44 148.2 Z M 52.7 146.1 L 52.3 146.1 L 53.7 144.2 L 54.3 144.2 L 52.7 146.1 Z M 55.6 150.6 C 55.6 150.6 50.5 150.6 50.5 150.6 C 50.6 152.2 51.6 153.2 53.1 153.2 C 53.8 153.2 54.7 153 55.3 152.3 C 55.3 152.3 55.3 152.9 55.3 152.9 C 54.7 153.4 53.9 153.7 53.1 153.7 C 51.3 153.7 50 152.4 50 150.4 C 50 148.4 51.4 147.1 53 147.1 C 54.4 147.1 55.6 148.2 55.6 150.3 C 55.6 150.4 55.6 150.5 55.6 150.6 Z M 55.1 150.1 C 55.1 148.4 54 147.6 53 147.6 C 51.8 147.6 50.6 148.6 50.5 150.1 C 50.5 150.1 55.1 150.1 55.1 150.1 Z M 62.5 150.6 C 62.5 150.6 57.5 150.6 57.5 150.6 C 57.5 152.2 58.6 153.2 60 153.2 C 60.8 153.2 61.6 153 62.3 152.3 C 62.3 152.3 62.3 152.9 62.3 152.9 C 61.6 153.4 60.8 153.7 60 153.7 C 58.2 153.7 57 152.4 57 150.4 C 57 148.4 58.4 147.1 59.9 147.1 C 61.3 147.1 62.5 148.2 62.5 150.3 C 62.5 150.4 62.5 150.5 62.5 150.6 Z M 62 150.1 C 62 148.4 61 147.6 59.9 147.6 C 58.7 147.6 57.6 148.6 57.5 150.1 C 57.5 150.1 62 150.1 62 150.1 Z M 70.3 147.2 L 70.7 147.2 C 70.7 147.2 70.74 148.84 70.7 148.8 C 71.2 147.7 72.2 147.1 73.3 147.1 C 74.8 147.1 76.2 148.4 76.2 150.4 C 76.2 152.4 74.8 153.7 73.3 153.7 C 72.2 153.7 71.2 153.1 70.8 152.1 C 70.78 152.05 70.8 156.2 70.8 156.2 L 70.3 156.2 L 70.3 147.2 Z M 75.7 150.4 C 75.7 148.7 74.5 147.6 73.2 147.6 C 71.9 147.6 70.8 148.7 70.8 150.4 C 70.8 152.1 71.9 153.2 73.2 153.2 C 74.5 153.2 75.7 152.1 75.7 150.4 Z M 77.5 150.4 C 77.5 148.4 78.9 147.1 80.4 147.1 C 81.5 147.1 82.5 147.7 82.9 148.8 C 82.95 148.82 83 147.2 83 147.2 L 83.4 147.2 L 83.4 153.6 L 83 153.6 C 83 153.6 82.95 152 82.9 152 C 82.5 153.2 81.5 153.7 80.5 153.7 C 78.9 153.7 77.5 152.4 77.5 150.4 Z M 82.9 150.4 C 82.9 148.7 81.8 147.6 80.5 147.6 C 79.2 147.6 78 148.7 78 150.4 C 78 152.1 79.2 153.2 80.5 153.2 C 81.8 153.2 82.9 152.1 82.9 150.4 Z M 85.7 147.2 L 86.1 147.2 L 86.2 148.4 C 86.2 148.4 86.16 148.42 86.2 148.4 C 86.5 147.5 87.4 147.2 88 147.2 C 88.2 147.2 88.3 147.2 88.4 147.2 C 88.4 147.2 88.4 147.7 88.4 147.7 C 88.3 147.7 88.2 147.7 88 147.7 C 87.1 147.7 86.2 148.3 86.2 149.6 C 86.2 149.57 86.2 153.6 86.2 153.6 L 85.7 153.6 L 85.7 147.2 Z M 95.3 151.3 C 95.32 151.28 95.3 147.2 95.3 147.2 L 95.8 147.2 C 95.8 147.2 95.82 151.31 95.8 151.3 C 95.8 152.5 96.6 153.2 97.7 153.2 C 98.9 153.2 99.6 152.5 99.6 151.3 C 99.62 151.3 99.6 147.2 99.6 147.2 L 100.1 147.2 C 100.1 147.2 100.12 151.27 100.1 151.3 C 100.1 152.7 99.2 153.7 97.7 153.7 C 96.2 153.7 95.3 152.7 95.3 151.3 Z M 107.1 149.4 C 107.1 149.36 107.1 153.6 107.1 153.6 L 106.6 153.6 C 106.6 153.6 106.6 149.57 106.6 149.6 C 106.6 148.3 105.9 147.6 104.8 147.6 C 103.7 147.6 102.8 148.3 102.8 149.5 C 102.82 149.51 102.8 153.6 102.8 153.6 L 102.3 153.6 L 102.3 147.2 L 102.7 147.2 L 102.8 148.4 C 102.8 148.4 102.78 148.36 102.8 148.4 C 103.1 147.6 103.9 147.1 104.9 147.1 C 106.2 147.1 107.1 148 107.1 149.4 Z M 114.4 150.6 C 114.4 150.6 109.4 150.6 109.4 150.6 C 109.4 152.2 110.5 153.2 111.9 153.2 C 112.7 153.2 113.5 153 114.2 152.3 C 114.2 152.3 114.2 152.9 114.2 152.9 C 113.5 153.4 112.7 153.7 111.9 153.7 C 110.1 153.7 108.9 152.4 108.9 150.4 C 108.9 148.4 110.3 147.1 111.8 147.1 C 113.2 147.1 114.4 148.2 114.4 150.3 C 114.4 150.4 114.4 150.5 114.4 150.6 Z M 113.9 150.1 C 113.9 148.4 112.9 147.6 111.8 147.6 C 110.6 147.6 109.5 148.6 109.4 150.1 C 109.4 150.1 113.9 150.1 113.9 150.1 Z M 121.7 150.4 C 121.7 148.4 123.1 147.1 124.6 147.1 C 125.6 147.1 126.7 147.7 127.1 148.8 C 127.11 148.78 127.1 144.1 127.1 144.1 L 127.6 144.1 L 127.6 153.6 L 127.2 153.6 L 127.1 152 C 127.1 152 127.13 151.99 127.1 152 C 126.7 153.2 125.7 153.7 124.6 153.7 C 123.1 153.7 121.7 152.4 121.7 150.4 Z M 127.1 150.4 C 127.1 148.7 126 147.6 124.7 147.6 C 123.4 147.6 122.2 148.7 122.2 150.4 C 122.2 152.1 123.4 153.2 124.7 153.2 C 126 153.2 127.1 152.1 127.1 150.4 Z M 135 150.6 C 135 150.6 130 150.6 130 150.6 C 130 152.2 131.1 153.2 132.5 153.2 C 133.3 153.2 134.1 153 134.8 152.3 C 134.8 152.3 134.8 152.9 134.8 152.9 C 134.1 153.4 133.3 153.7 132.5 153.7 C 130.7 153.7 129.5 152.4 129.5 150.4 C 129.5 148.4 130.9 147.1 132.4 147.1 C 133.8 147.1 135 148.2 135 150.3 C 135 150.4 135 150.5 135 150.6 Z M 134.5 150.1 C 134.5 148.4 133.5 147.6 132.4 147.6 C 131.2 147.6 130.1 148.6 130 150.1 C 130 150.1 134.5 150.1 134.5 150.1 Z M 140.4 147.7 C 140.4 147.7 140.4 148.2 140.4 148.2 C 139.9 147.9 139.3 147.6 138.6 147.6 C 137.6 147.6 137 148.1 137 148.8 C 137 149.5 137.7 149.8 138.7 150.1 C 139.7 150.5 140.7 150.8 140.7 151.9 C 140.7 153 139.8 153.7 138.5 153.7 C 137.8 153.7 137 153.5 136.4 153 C 136.4 153 136.4 152.3 136.4 152.3 C 136.9 152.9 137.7 153.2 138.5 153.2 C 139.5 153.2 140.2 152.7 140.2 151.9 C 140.2 151.2 139.5 150.9 138.4 150.5 C 137.4 150.2 136.5 149.9 136.5 148.8 C 136.5 147.8 137.3 147.1 138.6 147.1 C 139.2 147.1 139.9 147.3 140.4 147.7 Z M 151.9 147.7 C 151.9 147.7 151.9 148.2 151.9 148.2 C 151.4 147.9 150.8 147.6 150.1 147.6 C 149.2 147.6 148.5 148.1 148.5 148.8 C 148.5 149.5 149.2 149.8 150.2 150.1 C 151.2 150.5 152.3 150.8 152.3 151.9 C 152.3 153 151.4 153.7 150.1 153.7 C 149.3 153.7 148.6 153.5 147.9 153 C 147.9 153 147.9 152.3 147.9 152.3 C 148.5 152.9 149.3 153.2 150.1 153.2 C 151.1 153.2 151.7 152.7 151.7 151.9 C 151.7 151.2 151 150.9 150 150.5 C 149 150.2 148 149.9 148 148.8 C 148 147.8 148.9 147.1 150.1 147.1 C 150.8 147.1 151.4 147.3 151.9 147.7 Z M 153.9 144.9 C 153.9 144.7 154.1 144.5 154.3 144.5 C 154.5 144.5 154.7 144.7 154.7 144.9 C 154.7 145.1 154.5 145.3 154.3 145.3 C 154.1 145.3 153.9 145.1 153.9 144.9 Z M 154 147.2 L 154.5 147.2 L 154.5 153.6 L 154 153.6 L 154 147.2 Z M 158.9 150.4 L 161.2 153.6 L 160.6 153.6 L 158.7 150.8 L 158.6 150.8 L 156.7 153.6 L 156.1 153.6 L 158.4 150.4 L 156.1 147.2 L 156.7 147.2 L 158.6 150 L 158.6 150 L 160.6 147.2 L 161.2 147.2 L 158.9 150.4 Z " stroke="none" fill="#000"/>
  </g>
  <g id="Polygon31287">
    <path d="M 1.1 132.8 L 1.5 132.8 L 1.6 134 C 1.6 134 1.61 134.02 1.6 134 C 2 133.1 2.8 132.8 3.5 132.8 C 3.6 132.8 3.8 132.8 3.9 132.8 C 3.9 132.8 3.9 133.3 3.9 133.3 C 3.8 133.3 3.6 133.3 3.5 133.3 C 2.6 133.3 1.7 133.9 1.6 135.2 C 1.64 135.17 1.6 139.2 1.6 139.2 L 1.1 139.2 L 1.1 132.8 Z M 10 136.2 C 10 136.2 5 136.2 5 136.2 C 5 137.8 6.1 138.8 7.5 138.8 C 8.3 138.8 9.1 138.6 9.8 137.9 C 9.8 137.9 9.8 138.5 9.8 138.5 C 9.1 139 8.3 139.3 7.5 139.3 C 5.7 139.3 4.5 138 4.5 136 C 4.5 134 5.9 132.7 7.4 132.7 C 8.8 132.7 10 133.8 10 135.9 C 10 136 10 136.1 10 136.2 Z M 9.5 135.7 C 9.5 134 8.5 133.2 7.4 133.2 C 6.2 133.2 5.1 134.2 5 135.7 C 5 135.7 9.5 135.7 9.5 135.7 Z M 14.5 138.8 C 15 138.8 15.6 138.7 16.2 138.3 C 16.2 138.3 16.2 138.9 16.2 138.9 C 15.7 139.2 15.1 139.3 14.5 139.3 C 12.7 139.3 11.4 137.9 11.4 136 C 11.4 134.1 12.7 132.7 14.4 132.7 C 15 132.7 15.6 132.8 16.2 133.2 C 16.2 133.2 16.2 133.7 16.2 133.7 C 15.6 133.3 15 133.2 14.4 133.2 C 13.1 133.2 11.9 134.3 11.9 136 C 11.9 137.7 13.1 138.8 14.5 138.8 Z M 18.6 132.8 L 20.5 132.8 L 20.5 133.3 L 18.6 133.3 C 18.6 133.3 18.64 137.2 18.6 137.2 C 18.6 138.4 19.3 138.8 20.2 138.8 C 20.4 138.8 20.5 138.8 20.7 138.8 C 20.7 138.8 20.7 139.2 20.7 139.2 C 20.6 139.2 20.4 139.3 20.1 139.3 C 19 139.3 18.1 138.6 18.1 137.2 C 18.13 137.22 18.1 133.3 18.1 133.3 L 17.1 133.3 L 17.1 132.8 L 18.1 132.8 L 18.1 131.3 L 18.6 131.3 L 18.6 132.8 Z M 22 138.2 C 21.98 138.24 22 137.8 22 137.8 L 22.5 137.8 C 22.5 137.8 22.49 138.23 22.5 138.2 C 22.5 139.2 22.1 140.2 21.9 140.8 C 21.9 140.8 21.4 140.8 21.4 140.8 C 21.7 140.2 22 139.2 22 138.2 Z M 31.6 133.3 C 31.6 133.3 31.6 133.8 31.6 133.8 C 31.1 133.5 30.5 133.2 29.8 133.2 C 28.9 133.2 28.2 133.7 28.2 134.4 C 28.2 135.1 28.9 135.4 29.9 135.7 C 30.9 136.1 31.9 136.4 31.9 137.5 C 31.9 138.6 31.1 139.3 29.8 139.3 C 29 139.3 28.3 139.1 27.6 138.6 C 27.6 138.6 27.6 137.9 27.6 137.9 C 28.2 138.5 28.9 138.8 29.8 138.8 C 30.8 138.8 31.4 138.3 31.4 137.5 C 31.4 136.8 30.7 136.5 29.7 136.1 C 28.6 135.8 27.7 135.5 27.7 134.4 C 27.7 133.4 28.6 132.7 29.8 132.7 C 30.5 132.7 31.1 132.9 31.6 133.3 Z M 33.2 136 C 33.2 134.1 34.6 132.7 36.3 132.7 C 38 132.7 39.3 134.1 39.3 136 C 39.3 138 38 139.3 36.3 139.3 C 34.6 139.3 33.2 138 33.2 136 Z M 38.8 136 C 38.8 134.2 37.6 133.2 36.3 133.2 C 35 133.2 33.7 134.2 33.7 136 C 33.7 137.8 35 138.8 36.3 138.8 C 37.6 138.8 38.8 137.8 38.8 136 Z M 41 130.5 C 41 130.3 41.2 130.1 41.4 130.1 C 41.7 130.1 41.8 130.3 41.8 130.5 C 41.8 130.7 41.7 130.9 41.4 130.9 C 41.2 130.9 41 130.7 41 130.5 Z M 41.2 132.8 L 41.7 132.8 L 41.7 139.2 L 41.2 139.2 L 41.2 132.8 Z M 44.7 132.8 L 46.6 132.8 L 46.6 133.3 L 44.7 133.3 C 44.7 133.3 44.69 137.2 44.7 137.2 C 44.7 138.4 45.3 138.8 46.2 138.8 C 46.4 138.8 46.6 138.8 46.8 138.8 C 46.8 138.8 46.8 139.2 46.8 139.2 C 46.7 139.2 46.4 139.3 46.2 139.3 C 45 139.3 44.2 138.6 44.2 137.2 C 44.18 137.22 44.2 133.3 44.2 133.3 L 43.2 133.3 L 43.2 132.8 L 44.2 132.8 L 44.2 131.3 L 44.7 131.3 L 44.7 132.8 Z M 51.4 130.5 C 51.4 130.3 51.6 130.1 51.8 130.1 C 52 130.1 52.2 130.3 52.2 130.5 C 52.2 130.7 52 130.9 51.8 130.9 C 51.6 130.9 51.4 130.7 51.4 130.5 Z M 51.5 132.8 L 52 132.8 L 52 139.2 L 51.5 139.2 L 51.5 132.8 Z M 59.1 135 C 59.13 134.96 59.1 139.2 59.1 139.2 L 58.6 139.2 C 58.6 139.2 58.63 135.17 58.6 135.2 C 58.6 133.9 58 133.2 56.8 133.2 C 55.7 133.2 54.8 133.9 54.8 135.1 C 54.85 135.11 54.8 139.2 54.8 139.2 L 54.3 139.2 L 54.3 132.8 L 54.7 132.8 L 54.8 134 C 54.8 134 54.81 133.96 54.8 134 C 55.2 133.2 55.9 132.7 56.9 132.7 C 58.2 132.7 59.1 133.6 59.1 135 Z M 60.9 136 C 60.9 134 62.3 132.7 63.8 132.7 C 64.8 132.7 65.8 133.3 66.3 134.4 C 66.26 134.38 66.3 129.7 66.3 129.7 L 66.8 129.7 L 66.8 139.2 L 66.4 139.2 L 66.3 137.6 C 66.3 137.6 66.29 137.59 66.3 137.6 C 65.8 138.8 64.8 139.3 63.8 139.3 C 62.3 139.3 60.9 138 60.9 136 Z M 66.3 136 C 66.3 134.3 65.2 133.2 63.8 133.2 C 62.5 133.2 61.4 134.3 61.4 136 C 61.4 137.7 62.5 138.8 63.8 138.8 C 65.2 138.8 66.3 137.7 66.3 136 Z M 68.9 130.5 C 68.9 130.3 69.1 130.1 69.3 130.1 C 69.6 130.1 69.7 130.3 69.7 130.5 C 69.7 130.7 69.6 130.9 69.3 130.9 C 69.1 130.9 68.9 130.7 68.9 130.5 Z M 69.1 132.8 L 69.6 132.8 L 69.6 139.2 L 69.1 139.2 L 69.1 132.8 Z M 71.9 132.8 L 72.3 132.8 L 72.4 134 C 72.4 134 72.37 134.02 72.4 134 C 72.8 133.1 73.6 132.8 74.3 132.8 C 74.4 132.8 74.5 132.8 74.6 132.8 C 74.6 132.8 74.6 133.3 74.6 133.3 C 74.5 133.3 74.4 133.3 74.3 133.3 C 73.4 133.3 72.4 133.9 72.4 135.2 C 72.4 135.17 72.4 139.2 72.4 139.2 L 71.9 139.2 L 71.9 132.8 Z M 80.8 136.2 C 80.8 136.2 75.7 136.2 75.7 136.2 C 75.8 137.8 76.8 138.8 78.3 138.8 C 79 138.8 79.9 138.6 80.5 137.9 C 80.5 137.9 80.5 138.5 80.5 138.5 C 79.9 139 79.1 139.3 78.2 139.3 C 76.5 139.3 75.2 138 75.2 136 C 75.2 134 76.6 132.7 78.2 132.7 C 79.6 132.7 80.8 133.8 80.8 135.9 C 80.8 136 80.8 136.1 80.8 136.2 Z M 80.3 135.7 C 80.3 134 79.2 133.2 78.2 133.2 C 77 133.2 75.8 134.2 75.7 135.7 C 75.7 135.7 80.3 135.7 80.3 135.7 Z M 85.2 138.8 C 85.7 138.8 86.4 138.7 86.9 138.3 C 86.9 138.3 86.9 138.9 86.9 138.9 C 86.4 139.2 85.8 139.3 85.2 139.3 C 83.5 139.3 82.1 137.9 82.1 136 C 82.1 134.1 83.5 132.7 85.2 132.7 C 85.8 132.7 86.4 132.8 86.9 133.2 C 86.9 133.2 86.9 133.7 86.9 133.7 C 86.4 133.3 85.8 133.2 85.2 133.2 C 83.9 133.2 82.6 134.3 82.6 136 C 82.6 137.7 83.9 138.8 85.2 138.8 Z M 89.4 132.8 L 91.3 132.8 L 91.3 133.3 L 89.4 133.3 C 89.4 133.3 89.4 137.2 89.4 137.2 C 89.4 138.4 90 138.8 90.9 138.8 C 91.1 138.8 91.3 138.8 91.5 138.8 C 91.5 138.8 91.5 139.2 91.5 139.2 C 91.4 139.2 91.1 139.3 90.9 139.3 C 89.7 139.3 88.9 138.6 88.9 137.2 C 88.89 137.22 88.9 133.3 88.9 133.3 L 87.9 133.3 L 87.9 132.8 L 88.9 132.8 L 88.9 131.3 L 89.4 131.3 L 89.4 132.8 Z M 99.8 133.3 C 99.8 133.3 99.8 133.8 99.8 133.8 C 99.2 133.5 98.6 133.2 97.9 133.2 C 97 133.2 96.4 133.7 96.4 134.4 C 96.4 135.1 97 135.4 98 135.7 C 99.1 136.1 100.1 136.4 100.1 137.5 C 100.1 138.6 99.2 139.3 97.9 139.3 C 97.1 139.3 96.4 139.1 95.8 138.6 C 95.8 138.6 95.8 137.9 95.8 137.9 C 96.3 138.5 97.1 138.8 97.9 138.8 C 98.9 138.8 99.6 138.3 99.6 137.5 C 99.6 136.8 98.8 136.5 97.8 136.1 C 96.8 135.8 95.9 135.5 95.9 134.4 C 95.9 133.4 96.7 132.7 97.9 132.7 C 98.6 132.7 99.3 132.9 99.8 133.3 Z M 101.7 130.5 C 101.7 130.3 101.9 130.1 102.1 130.1 C 102.3 130.1 102.5 130.3 102.5 130.5 C 102.5 130.7 102.3 130.9 102.1 130.9 C 101.9 130.9 101.7 130.7 101.7 130.5 Z M 101.9 132.8 L 102.4 132.8 L 102.4 139.2 L 101.9 139.2 L 101.9 132.8 Z M 108.2 129.7 L 108.7 129.7 L 108.7 139.2 L 108.2 139.2 L 108.2 129.7 Z M 111.2 130.7 C 111.16 130.73 111.2 130.3 111.2 130.3 L 111.7 130.3 C 111.7 130.3 111.67 130.72 111.7 130.7 C 111.7 131.7 111.3 132.7 111 133.3 C 111 133.3 110.6 133.3 110.6 133.3 C 110.9 132.7 111.2 131.7 111.2 130.7 Z M 112.7 136 C 112.7 134 114.2 132.7 115.7 132.7 C 116.7 132.7 117.7 133.3 118.2 134.4 C 118.16 134.42 118.2 132.8 118.2 132.8 L 118.6 132.8 L 118.6 139.2 L 118.2 139.2 C 118.2 139.2 118.16 137.6 118.2 137.6 C 117.7 138.8 116.7 139.3 115.7 139.3 C 114.2 139.3 112.7 138 112.7 136 Z M 118.1 136 C 118.1 134.3 117 133.2 115.7 133.2 C 114.4 133.2 113.3 134.3 113.3 136 C 113.3 137.7 114.4 138.8 115.7 138.8 C 117 138.8 118.1 137.7 118.1 136 Z M 128.6 134.9 C 128.63 134.88 128.6 139.2 128.6 139.2 L 128.1 139.2 C 128.1 139.2 128.13 134.93 128.1 134.9 C 128.1 133.9 127.6 133.2 126.6 133.2 C 125.6 133.2 125 134 125 134.9 C 125.02 134.94 125 139.2 125 139.2 L 124.5 139.2 C 124.5 139.2 124.52 134.93 124.5 134.9 C 124.5 133.9 124 133.2 123 133.2 C 122 133.2 121.4 134 121.4 135 C 121.41 134.96 121.4 139.2 121.4 139.2 L 120.9 139.2 L 120.9 132.8 L 121.3 132.8 L 121.4 133.9 C 121.4 133.9 121.37 133.88 121.4 133.9 C 121.7 133.2 122.3 132.7 123.1 132.7 C 124 132.7 124.6 133.2 124.9 134 C 125.2 133.2 125.8 132.7 126.7 132.7 C 128 132.7 128.6 133.6 128.6 134.9 Z M 130.8 132.8 L 131.2 132.8 C 131.2 132.8 131.31 134.44 131.3 134.4 C 131.8 133.3 132.8 132.7 133.8 132.7 C 135.3 132.7 136.7 134 136.7 136 C 136.7 138 135.3 139.3 133.8 139.3 C 132.8 139.3 131.8 138.7 131.3 137.7 C 131.35 137.65 131.3 141.8 131.3 141.8 L 130.8 141.8 L 130.8 132.8 Z M 136.2 136 C 136.2 134.3 135.1 133.2 133.8 133.2 C 132.5 133.2 131.3 134.3 131.3 136 C 131.3 137.7 132.5 138.8 133.8 138.8 C 135.1 138.8 136.2 137.7 136.2 136 Z M 138.1 136 C 138.1 134.1 139.5 132.7 141.2 132.7 C 142.8 132.7 144.2 134.1 144.2 136 C 144.2 138 142.8 139.3 141.2 139.3 C 139.5 139.3 138.1 138 138.1 136 Z M 143.7 136 C 143.7 134.2 142.4 133.2 141.2 133.2 C 139.8 133.2 138.6 134.2 138.6 136 C 138.6 137.8 139.9 138.8 141.2 138.8 C 142.4 138.8 143.7 137.8 143.7 136 Z M 145.9 136.9 C 145.93 136.88 145.9 132.8 145.9 132.8 L 146.4 132.8 C 146.4 132.8 146.43 136.91 146.4 136.9 C 146.4 138.1 147.2 138.8 148.3 138.8 C 149.5 138.8 150.2 138.1 150.2 136.9 C 150.22 136.9 150.2 132.8 150.2 132.8 L 150.7 132.8 C 150.7 132.8 150.73 136.87 150.7 136.9 C 150.7 138.3 149.8 139.3 148.3 139.3 C 146.8 139.3 145.9 138.3 145.9 136.9 Z M 153 129.7 L 153.5 129.7 L 153.5 139.2 L 153 139.2 L 153 129.7 Z M 160.9 136.2 C 160.9 136.2 155.8 136.2 155.8 136.2 C 155.9 137.8 157 138.8 158.4 138.8 C 159.2 138.8 160 138.6 160.7 137.9 C 160.7 137.9 160.7 138.5 160.7 138.5 C 160 139 159.2 139.3 158.4 139.3 C 156.6 139.3 155.3 138 155.3 136 C 155.3 134 156.8 132.7 158.3 132.7 C 159.7 132.7 160.9 133.8 160.9 135.9 C 160.9 136 160.9 136.1 160.9 136.2 Z M 160.4 135.7 C 160.4 134 159.4 133.2 158.3 133.2 C 157.1 133.2 156 134.2 155.9 135.7 C 155.9 135.7 160.4 135.7 160.4 135.7 Z " stroke="none" fill="#000"/>
  </g>
  <g id="Polygon31286">
    <path d="M 1.2 115.3 L 1.7 115.3 L 1.7 124.8 L 1.2 124.8 L 1.2 115.3 Z M 3.5 121.6 C 3.5 119.6 4.9 118.3 6.4 118.3 C 7.5 118.3 8.5 118.9 9 120 C 8.95 120.02 9 118.4 9 118.4 L 9.4 118.4 L 9.4 124.8 L 9 124.8 C 9 124.8 8.95 123.2 9 123.2 C 8.5 124.4 7.5 124.9 6.5 124.9 C 4.9 124.9 3.5 123.6 3.5 121.6 Z M 8.9 121.6 C 8.9 119.9 7.8 118.8 6.5 118.8 C 5.2 118.8 4 119.9 4 121.6 C 4 123.3 5.2 124.4 6.5 124.4 C 7.8 124.4 8.9 123.3 8.9 121.6 Z M 19.4 120.5 C 19.43 120.48 19.4 124.8 19.4 124.8 L 18.9 124.8 C 18.9 124.8 18.92 120.53 18.9 120.5 C 18.9 119.5 18.4 118.8 17.4 118.8 C 16.4 118.8 15.8 119.6 15.8 120.5 C 15.82 120.54 15.8 124.8 15.8 124.8 L 15.3 124.8 C 15.3 124.8 15.31 120.53 15.3 120.5 C 15.3 119.5 14.8 118.8 13.8 118.8 C 12.8 118.8 12.2 119.6 12.2 120.6 C 12.2 120.56 12.2 124.8 12.2 124.8 L 11.7 124.8 L 11.7 118.4 L 12.1 118.4 L 12.2 119.5 C 12.2 119.5 12.17 119.48 12.2 119.5 C 12.4 118.8 13.1 118.3 13.9 118.3 C 14.8 118.3 15.4 118.8 15.7 119.6 C 15.9 118.8 16.6 118.3 17.5 118.3 C 18.8 118.3 19.4 119.2 19.4 120.5 Z M 21.6 118.4 L 22 118.4 C 22 118.4 22.1 120.04 22.1 120 C 22.6 118.9 23.6 118.3 24.6 118.3 C 26.1 118.3 27.5 119.6 27.5 121.6 C 27.5 123.6 26.1 124.9 24.6 124.9 C 23.6 124.9 22.6 124.3 22.1 123.3 C 22.14 123.25 22.1 127.4 22.1 127.4 L 21.6 127.4 L 21.6 118.4 Z M 27 121.6 C 27 119.9 25.9 118.8 24.6 118.8 C 23.2 118.8 22.1 119.9 22.1 121.6 C 22.1 123.3 23.3 124.4 24.6 124.4 C 25.9 124.4 27 123.3 27 121.6 Z M 34.5 121.8 C 34.5 121.8 29.4 121.8 29.4 121.8 C 29.5 123.4 30.5 124.4 32 124.4 C 32.7 124.4 33.6 124.2 34.2 123.5 C 34.2 123.5 34.2 124.1 34.2 124.1 C 33.6 124.6 32.8 124.9 31.9 124.9 C 30.2 124.9 28.9 123.6 28.9 121.6 C 28.9 119.6 30.3 118.3 31.9 118.3 C 33.3 118.3 34.5 119.4 34.5 121.5 C 34.5 121.6 34.5 121.7 34.5 121.8 Z M 34 121.3 C 34 119.6 32.9 118.8 31.9 118.8 C 30.6 118.8 29.5 119.8 29.4 121.3 C 29.4 121.3 34 121.3 34 121.3 Z M 36.2 123.8 C 36.2 123.84 36.2 123.4 36.2 123.4 L 36.7 123.4 C 36.7 123.4 36.71 123.83 36.7 123.8 C 36.7 124.8 36.3 125.8 36.1 126.4 C 36.1 126.4 35.7 126.4 35.7 126.4 C 35.9 125.8 36.2 124.8 36.2 123.8 Z M 42.5 115.3 L 43 115.3 L 43 124.8 L 42.5 124.8 L 42.5 115.3 Z M 45.5 116.3 C 45.49 116.33 45.5 115.9 45.5 115.9 L 46 115.9 C 46 115.9 45.99 116.32 46 116.3 C 46 117.3 45.6 118.3 45.4 118.9 C 45.4 118.9 44.9 118.9 44.9 118.9 C 45.2 118.3 45.5 117.3 45.5 116.3 Z M 49.8 117.3 L 49.3 117.3 L 50.8 115.4 L 51.4 115.4 L 49.8 117.3 Z M 52.6 121.8 C 52.6 121.8 47.6 121.8 47.6 121.8 C 47.7 123.4 48.7 124.4 50.1 124.4 C 50.9 124.4 51.7 124.2 52.4 123.5 C 52.4 123.5 52.4 124.1 52.4 124.1 C 51.7 124.6 50.9 124.9 50.1 124.9 C 48.3 124.9 47.1 123.6 47.1 121.6 C 47.1 119.6 48.5 118.3 50 118.3 C 51.5 118.3 52.7 119.4 52.7 121.5 C 52.7 121.6 52.7 121.7 52.6 121.8 Z M 52.2 121.3 C 52.1 119.6 51.1 118.8 50 118.8 C 48.8 118.8 47.7 119.8 47.6 121.3 C 47.6 121.3 52.2 121.3 52.2 121.3 Z M 57.1 124.4 C 57.6 124.4 58.3 124.3 58.8 123.9 C 58.8 123.9 58.8 124.5 58.8 124.5 C 58.3 124.8 57.7 124.9 57.1 124.9 C 55.4 124.9 54 123.5 54 121.6 C 54 119.7 55.4 118.3 57.1 118.3 C 57.7 118.3 58.3 118.4 58.8 118.8 C 58.8 118.8 58.8 119.3 58.8 119.3 C 58.2 118.9 57.7 118.8 57.1 118.8 C 55.7 118.8 54.5 119.9 54.5 121.6 C 54.5 123.3 55.7 124.4 57.1 124.4 Z M 60.6 115.3 L 61.1 115.3 L 61.1 124.8 L 60.6 124.8 L 60.6 115.3 Z M 63 121.6 C 63 119.6 64.4 118.3 65.9 118.3 C 66.9 118.3 67.9 118.9 68.4 120 C 68.4 120.02 68.5 118.4 68.5 118.4 L 68.9 118.4 L 68.9 124.8 L 68.5 124.8 C 68.5 124.8 68.4 123.2 68.4 123.2 C 67.9 124.4 66.9 124.9 65.9 124.9 C 64.4 124.9 63 123.6 63 121.6 Z M 68.4 121.6 C 68.4 119.9 67.3 118.8 65.9 118.8 C 64.6 118.8 63.5 119.9 63.5 121.6 C 63.5 123.3 64.6 124.4 65.9 124.4 C 67.3 124.4 68.4 123.3 68.4 121.6 Z M 71 116.1 C 71 115.9 71.2 115.7 71.4 115.7 C 71.7 115.7 71.8 115.9 71.8 116.1 C 71.8 116.3 71.7 116.5 71.4 116.5 C 71.2 116.5 71 116.3 71 116.1 Z M 71.2 118.4 L 71.7 118.4 L 71.7 124.8 L 71.2 124.8 L 71.2 118.4 Z M 74 118.4 L 74.4 118.4 L 74.5 119.6 C 74.5 119.6 74.47 119.62 74.5 119.6 C 74.9 118.7 75.7 118.4 76.4 118.4 C 76.5 118.4 76.6 118.4 76.7 118.4 C 76.7 118.4 76.7 118.9 76.7 118.9 C 76.6 118.9 76.5 118.9 76.4 118.9 C 75.5 118.9 74.5 119.5 74.5 120.8 C 74.5 120.77 74.5 124.8 74.5 124.8 L 74 124.8 L 74 118.4 Z M 77.3 121.6 C 77.3 119.6 78.7 118.3 80.2 118.3 C 81.2 118.3 82.2 118.9 82.7 120 C 82.71 120.02 82.8 118.4 82.8 118.4 L 83.2 118.4 L 83.2 124.8 L 82.8 124.8 C 82.8 124.8 82.71 123.2 82.7 123.2 C 82.2 124.4 81.2 124.9 80.2 124.9 C 78.7 124.9 77.3 123.6 77.3 121.6 Z M 82.7 121.6 C 82.7 119.9 81.6 118.8 80.3 118.8 C 78.9 118.8 77.8 119.9 77.8 121.6 C 77.8 123.3 78.9 124.4 80.3 124.4 C 81.6 124.4 82.7 123.3 82.7 121.6 Z M 90.4 120 C 90.38 119.96 90.5 118.4 90.5 118.4 L 90.8 118.4 C 90.8 118.4 90.85 124.6 90.8 124.6 C 90.8 126.6 89.5 127.5 88 127.5 C 87.2 127.5 86.3 127.2 85.6 126.7 C 85.6 126.7 85.6 126.1 85.6 126.1 C 86.3 126.7 87.2 127 88 127 C 89.2 127 90.3 126.3 90.3 124.7 C 90.3 124.7 90.3 123.1 90.3 123.1 C 89.9 124.2 88.9 124.7 87.9 124.7 C 86.4 124.7 85 123.5 85 121.5 C 85 119.6 86.4 118.3 87.9 118.3 C 88.9 118.3 89.9 118.9 90.4 120 Z M 85.5 121.5 C 85.5 123.2 86.6 124.2 87.9 124.2 C 89.3 124.2 90.4 123.1 90.4 121.5 C 90.4 119.9 89.3 118.8 87.9 118.8 C 86.6 118.8 85.5 119.9 85.5 121.5 Z M 98.2 121.8 C 98.2 121.8 93.2 121.8 93.2 121.8 C 93.3 123.4 94.3 124.4 95.7 124.4 C 96.5 124.4 97.3 124.2 98 123.5 C 98 123.5 98 124.1 98 124.1 C 97.3 124.6 96.5 124.9 95.7 124.9 C 93.9 124.9 92.7 123.6 92.7 121.6 C 92.7 119.6 94.1 118.3 95.6 118.3 C 97.1 118.3 98.3 119.4 98.3 121.5 C 98.3 121.6 98.3 121.7 98.2 121.8 Z M 97.8 121.3 C 97.7 119.6 96.7 118.8 95.6 118.8 C 94.4 118.8 93.3 119.8 93.2 121.3 C 93.2 121.3 97.8 121.3 97.8 121.3 Z M 108.8 121.8 C 108.8 121.8 103.7 121.8 103.7 121.8 C 103.8 123.4 104.8 124.4 106.3 124.4 C 107 124.4 107.8 124.2 108.5 123.5 C 108.5 123.5 108.5 124.1 108.5 124.1 C 107.9 124.6 107.1 124.9 106.2 124.9 C 104.5 124.9 103.2 123.6 103.2 121.6 C 103.2 119.6 104.6 118.3 106.2 118.3 C 107.6 118.3 108.8 119.4 108.8 121.5 C 108.8 121.6 108.8 121.7 108.8 121.8 Z M 108.3 121.3 C 108.3 119.6 107.2 118.8 106.2 118.8 C 104.9 118.8 103.8 119.8 103.7 121.3 C 103.7 121.3 108.3 121.3 108.3 121.3 Z M 114.1 118.9 C 114.1 118.9 114.1 119.4 114.1 119.4 C 113.6 119.1 113 118.8 112.3 118.8 C 111.4 118.8 110.7 119.3 110.7 120 C 110.7 120.7 111.4 121 112.4 121.3 C 113.4 121.7 114.4 122 114.4 123.1 C 114.4 124.2 113.6 124.9 112.3 124.9 C 111.5 124.9 110.8 124.7 110.1 124.2 C 110.1 124.2 110.1 123.5 110.1 123.5 C 110.7 124.1 111.4 124.4 112.3 124.4 C 113.3 124.4 113.9 123.9 113.9 123.1 C 113.9 122.4 113.2 122.1 112.2 121.7 C 111.1 121.4 110.2 121.1 110.2 120 C 110.2 119 111.1 118.3 112.3 118.3 C 113 118.3 113.6 118.5 114.1 118.9 Z M 116.9 118.4 L 118.8 118.4 L 118.8 118.9 L 116.9 118.9 C 116.9 118.9 116.88 122.8 116.9 122.8 C 116.9 124 117.5 124.4 118.4 124.4 C 118.6 124.4 118.8 124.4 119 124.4 C 119 124.4 119 124.8 119 124.8 C 118.9 124.8 118.6 124.9 118.4 124.9 C 117.2 124.9 116.4 124.2 116.4 122.8 C 116.38 122.82 116.4 118.9 116.4 118.9 L 115.4 118.9 L 115.4 118.4 L 116.4 118.4 L 116.4 116.9 L 116.9 116.9 L 116.9 118.4 Z M 127.4 118.9 C 127.4 118.9 127.4 119.4 127.4 119.4 C 126.9 119.1 126.3 118.8 125.6 118.8 C 124.6 118.8 124 119.3 124 120 C 124 120.7 124.7 121 125.7 121.3 C 126.7 121.7 127.7 122 127.7 123.1 C 127.7 124.2 126.8 124.9 125.5 124.9 C 124.8 124.9 124 124.7 123.4 124.2 C 123.4 124.2 123.4 123.5 123.4 123.5 C 123.9 124.1 124.7 124.4 125.5 124.4 C 126.5 124.4 127.2 123.9 127.2 123.1 C 127.2 122.4 126.5 122.1 125.4 121.7 C 124.4 121.4 123.5 121.1 123.5 120 C 123.5 119 124.3 118.3 125.6 118.3 C 126.2 118.3 126.9 118.5 127.4 118.9 Z M 129 121.6 C 129 119.7 130.4 118.3 132 118.3 C 133.7 118.3 135.1 119.7 135.1 121.6 C 135.1 123.6 133.7 124.9 132 124.9 C 130.4 124.9 129 123.6 129 121.6 Z M 134.6 121.6 C 134.6 119.8 133.3 118.8 132 118.8 C 130.7 118.8 129.5 119.8 129.5 121.6 C 129.5 123.4 130.7 124.4 132 124.4 C 133.3 124.4 134.6 123.4 134.6 121.6 Z M 136.8 116.1 C 136.8 115.9 137 115.7 137.2 115.7 C 137.4 115.7 137.6 115.9 137.6 116.1 C 137.6 116.3 137.4 116.5 137.2 116.5 C 137 116.5 136.8 116.3 136.8 116.1 Z M 136.9 118.4 L 137.4 118.4 L 137.4 124.8 L 136.9 124.8 L 136.9 118.4 Z M 140.4 118.4 L 142.3 118.4 L 142.3 118.9 L 140.4 118.9 C 140.4 118.9 140.43 122.8 140.4 122.8 C 140.4 124 141.1 124.4 142 124.4 C 142.2 124.4 142.3 124.4 142.5 124.4 C 142.5 124.4 142.5 124.8 142.5 124.8 C 142.4 124.8 142.2 124.9 141.9 124.9 C 140.8 124.9 139.9 124.2 139.9 122.8 C 139.93 122.82 139.9 118.9 139.9 118.9 L 138.9 118.9 L 138.9 118.4 L 139.9 118.4 L 139.9 116.9 L 140.4 116.9 L 140.4 118.4 Z M 146.9 121.6 C 146.9 119.6 148.3 118.3 149.8 118.3 C 150.8 118.3 151.9 118.9 152.3 120 C 152.31 119.98 152.3 115.3 152.3 115.3 L 152.8 115.3 L 152.8 124.8 L 152.4 124.8 L 152.3 123.2 C 152.3 123.2 152.34 123.19 152.3 123.2 C 151.9 124.4 150.9 124.9 149.8 124.9 C 148.3 124.9 146.9 123.6 146.9 121.6 Z M 152.3 121.6 C 152.3 119.9 151.2 118.8 149.9 118.8 C 148.6 118.8 147.4 119.9 147.4 121.6 C 147.4 123.3 148.6 124.4 149.9 124.4 C 151.2 124.4 152.3 123.3 152.3 121.6 Z M 155 116.1 C 155 115.9 155.2 115.7 155.4 115.7 C 155.6 115.7 155.8 115.9 155.8 116.1 C 155.8 116.3 155.6 116.5 155.4 116.5 C 155.2 116.5 155 116.3 155 116.1 Z M 155.1 118.4 L 155.6 118.4 L 155.6 124.8 L 155.1 124.8 L 155.1 118.4 Z M 157.8 120.9 L 160.6 120.9 L 160.6 121.4 L 157.8 121.4 L 157.8 120.9 Z " stroke="none" fill="#000"/>
  </g>
  <g id="Polygon31285">
    <path d="M 5.5 101.9 C 5.5 101.9 5.5 102.5 5.5 102.5 C 4.9 102 4.1 101.8 3.5 101.8 C 2.3 101.8 1.4 102.5 1.4 103.5 C 1.4 104.5 2.3 105 3.6 105.6 C 4.9 106.2 5.9 106.8 5.9 108.1 C 5.9 109.6 4.7 110.5 3.2 110.5 C 2.2 110.5 1.4 110.2 0.8 109.7 C 0.8 109.7 0.8 109 0.8 109 C 1.4 109.7 2.3 110.1 3.2 110.1 C 4.4 110.1 5.4 109.3 5.4 108.2 C 5.4 107.1 4.5 106.6 3.2 106 C 1.9 105.4 0.9 104.9 0.9 103.6 C 0.9 102.2 2 101.3 3.5 101.3 C 4.2 101.3 4.9 101.6 5.5 101.9 Z M 12.8 107.4 C 12.8 107.4 7.8 107.4 7.8 107.4 C 7.9 109 8.9 110 10.3 110 C 11.1 110 11.9 109.8 12.6 109.1 C 12.6 109.1 12.6 109.7 12.6 109.7 C 11.9 110.2 11.1 110.5 10.3 110.5 C 8.5 110.5 7.3 109.2 7.3 107.2 C 7.3 105.2 8.7 103.9 10.2 103.9 C 11.6 103.9 12.9 105 12.9 107.1 C 12.9 107.2 12.8 107.3 12.8 107.4 Z M 12.3 106.9 C 12.3 105.2 11.3 104.4 10.2 104.4 C 9 104.4 7.9 105.4 7.8 106.9 C 7.8 106.9 12.3 106.9 12.3 106.9 Z M 14.7 100.9 L 15.2 100.9 L 15.2 110.4 L 14.7 110.4 L 14.7 100.9 Z M 17.1 107.2 C 17.1 105.3 18.4 103.9 20.1 103.9 C 21.8 103.9 23.1 105.3 23.1 107.2 C 23.1 109.2 21.8 110.5 20.1 110.5 C 18.4 110.5 17.1 109.2 17.1 107.2 Z M 22.6 107.2 C 22.6 105.4 21.4 104.4 20.1 104.4 C 18.8 104.4 17.6 105.4 17.6 107.2 C 17.6 109 18.8 110 20.1 110 C 21.4 110 22.6 109 22.6 107.2 Z M 29.7 106.2 C 29.75 106.16 29.7 110.4 29.7 110.4 L 29.2 110.4 C 29.2 110.4 29.24 106.37 29.2 106.4 C 29.2 105.1 28.6 104.4 27.4 104.4 C 26.4 104.4 25.5 105.1 25.5 106.3 C 25.46 106.31 25.5 110.4 25.5 110.4 L 25 110.4 L 25 104 L 25.4 104 L 25.4 105.2 C 25.4 105.2 25.43 105.16 25.4 105.2 C 25.8 104.4 26.5 103.9 27.5 103.9 C 28.9 103.9 29.7 104.8 29.7 106.2 Z M 45 100.9 L 45.5 100.9 L 45.5 110.4 L 45 110.4 L 45 100.9 Z M 48 101.9 C 48.02 101.93 48 101.5 48 101.5 L 48.5 101.5 C 48.5 101.5 48.53 101.92 48.5 101.9 C 48.5 102.9 48.1 103.9 47.9 104.5 C 47.9 104.5 47.5 104.5 47.5 104.5 C 47.7 103.9 48 102.9 48 101.9 Z M 49.6 107.2 C 49.6 105.3 51 103.9 52.7 103.9 C 54.3 103.9 55.7 105.3 55.7 107.2 C 55.7 109.2 54.3 110.5 52.7 110.5 C 51 110.5 49.6 109.2 49.6 107.2 Z M 55.2 107.2 C 55.2 105.4 54 104.4 52.7 104.4 C 51.3 104.4 50.1 105.4 50.1 107.2 C 50.1 109 51.4 110 52.7 110 C 54 110 55.2 109 55.2 107.2 Z M 57.5 104 L 57.9 104 L 58 105.2 C 58 105.2 57.98 105.22 58 105.2 C 58.4 104.3 59.2 104 59.9 104 C 60 104 60.1 104 60.2 104 C 60.2 104 60.2 104.5 60.2 104.5 C 60.1 104.5 60 104.5 59.9 104.5 C 59 104.5 58 105.1 58 106.4 C 58.02 106.37 58 110.4 58 110.4 L 57.5 110.4 L 57.5 104 Z M 61.5 101.7 C 61.5 101.5 61.6 101.3 61.9 101.3 C 62.1 101.3 62.3 101.5 62.3 101.7 C 62.3 101.9 62.1 102.1 61.9 102.1 C 61.6 102.1 61.5 101.9 61.5 101.7 Z M 61.6 104 L 62.1 104 L 62.1 110.4 L 61.6 110.4 L 61.6 104 Z M 69.5 107.4 C 69.5 107.4 64.5 107.4 64.5 107.4 C 64.6 109 65.6 110 67.1 110 C 67.8 110 68.6 109.8 69.3 109.1 C 69.3 109.1 69.3 109.7 69.3 109.7 C 68.7 110.2 67.9 110.5 67 110.5 C 65.2 110.5 64 109.2 64 107.2 C 64 105.2 65.4 103.9 66.9 103.9 C 68.4 103.9 69.6 105 69.6 107.1 C 69.6 107.2 69.6 107.3 69.5 107.4 Z M 69.1 106.9 C 69 105.2 68 104.4 66.9 104.4 C 65.7 104.4 64.6 105.4 64.5 106.9 C 64.5 106.9 69.1 106.9 69.1 106.9 Z M 76.2 106.2 C 76.16 106.16 76.2 110.4 76.2 110.4 L 75.7 110.4 C 75.7 110.4 75.66 106.37 75.7 106.4 C 75.7 105.1 75 104.4 73.8 104.4 C 72.8 104.4 71.9 105.1 71.9 106.3 C 71.88 106.31 71.9 110.4 71.9 110.4 L 71.4 110.4 L 71.4 104 L 71.8 104 L 71.8 105.2 C 71.8 105.2 71.84 105.16 71.8 105.2 C 72.2 104.4 73 103.9 73.9 103.9 C 75.3 103.9 76.2 104.8 76.2 106.2 Z M 79 104 L 80.9 104 L 80.9 104.5 L 79 104.5 C 79 104.5 78.98 108.4 79 108.4 C 79 109.6 79.6 110 80.5 110 C 80.7 110 80.9 110 81.1 110 C 81.1 110 81.1 110.4 81.1 110.4 C 81 110.4 80.7 110.5 80.5 110.5 C 79.3 110.5 78.5 109.8 78.5 108.4 C 78.48 108.42 78.5 104.5 78.5 104.5 L 77.5 104.5 L 77.5 104 L 78.5 104 L 78.5 102.5 L 79 102.5 L 79 104 Z M 81.9 107.2 C 81.9 105.2 83.3 103.9 84.8 103.9 C 85.8 103.9 86.8 104.5 87.3 105.6 C 87.29 105.62 87.4 104 87.4 104 L 87.8 104 L 87.8 110.4 L 87.4 110.4 C 87.4 110.4 87.29 108.8 87.3 108.8 C 86.8 110 85.8 110.5 84.8 110.5 C 83.3 110.5 81.9 109.2 81.9 107.2 Z M 87.3 107.2 C 87.3 105.5 86.2 104.4 84.8 104.4 C 83.5 104.4 82.4 105.5 82.4 107.2 C 82.4 108.9 83.5 110 84.8 110 C 86.1 110 87.3 108.9 87.3 107.2 Z M 90.7 104 L 92.6 104 L 92.6 104.5 L 90.7 104.5 C 90.7 104.5 90.72 108.4 90.7 108.4 C 90.7 109.6 91.4 110 92.3 110 C 92.4 110 92.6 110 92.8 110 C 92.8 110 92.8 110.4 92.8 110.4 C 92.7 110.4 92.5 110.5 92.2 110.5 C 91 110.5 90.2 109.8 90.2 108.4 C 90.21 108.42 90.2 104.5 90.2 104.5 L 89.2 104.5 L 89.2 104 L 90.2 104 L 90.2 102.5 L 90.7 102.5 L 90.7 104 Z M 94 101.7 C 94 101.5 94.2 101.3 94.4 101.3 C 94.7 101.3 94.8 101.5 94.8 101.7 C 94.8 101.9 94.7 102.1 94.4 102.1 C 94.2 102.1 94 101.9 94 101.7 Z M 94.2 104 L 94.7 104 L 94.7 110.4 L 94.2 110.4 L 94.2 104 Z M 96.6 107.2 C 96.6 105.3 97.9 103.9 99.6 103.9 C 101.3 103.9 102.6 105.3 102.6 107.2 C 102.6 109.2 101.3 110.5 99.6 110.5 C 97.9 110.5 96.6 109.2 96.6 107.2 Z M 102.1 107.2 C 102.1 105.4 100.9 104.4 99.6 104.4 C 98.3 104.4 97.1 105.4 97.1 107.2 C 97.1 109 98.3 110 99.6 110 C 100.9 110 102.1 109 102.1 107.2 Z M 109.2 106.2 C 109.24 106.16 109.2 110.4 109.2 110.4 L 108.7 110.4 C 108.7 110.4 108.74 106.37 108.7 106.4 C 108.7 105.1 108.1 104.4 106.9 104.4 C 105.8 104.4 105 105.1 105 106.3 C 104.96 106.31 105 110.4 105 110.4 L 104.5 110.4 L 104.5 104 L 104.9 104 L 104.9 105.2 C 104.9 105.2 104.92 105.16 104.9 105.2 C 105.3 104.4 106 103.9 107 103.9 C 108.4 103.9 109.2 104.8 109.2 106.2 Z M 124 107.2 C 124 105.2 125.4 103.9 126.9 103.9 C 127.9 103.9 129 104.5 129.4 105.6 C 129.4 105.58 129.4 100.9 129.4 100.9 L 129.9 100.9 L 129.9 110.4 L 129.5 110.4 L 129.4 108.8 C 129.4 108.8 129.43 108.79 129.4 108.8 C 129 110 128 110.5 126.9 110.5 C 125.4 110.5 124 109.2 124 107.2 Z M 129.4 107.2 C 129.4 105.5 128.3 104.4 127 104.4 C 125.7 104.4 124.5 105.5 124.5 107.2 C 124.5 108.9 125.7 110 127 110 C 128.3 110 129.4 108.9 129.4 107.2 Z M 137.3 107.4 C 137.3 107.4 132.2 107.4 132.2 107.4 C 132.3 109 133.4 110 134.8 110 C 135.6 110 136.4 109.8 137.1 109.1 C 137.1 109.1 137.1 109.7 137.1 109.7 C 136.4 110.2 135.6 110.5 134.8 110.5 C 133 110.5 131.7 109.2 131.7 107.2 C 131.7 105.2 133.2 103.9 134.7 103.9 C 136.1 103.9 137.3 105 137.3 107.1 C 137.3 107.2 137.3 107.3 137.3 107.4 Z M 136.8 106.9 C 136.8 105.2 135.8 104.4 134.7 104.4 C 133.5 104.4 132.4 105.4 132.3 106.9 C 132.3 106.9 136.8 106.9 136.8 106.9 Z M 152.2 100.9 L 152.7 100.9 L 152.7 110.4 L 152.2 110.4 L 152.2 100.9 Z M 154.6 107.2 C 154.6 105.2 156 103.9 157.5 103.9 C 158.5 103.9 159.5 104.5 160 105.6 C 159.97 105.62 160 104 160 104 L 160.4 104 L 160.4 110.4 L 160 110.4 C 160 110.4 159.97 108.8 160 108.8 C 159.5 110 158.5 110.5 157.5 110.5 C 156 110.5 154.6 109.2 154.6 107.2 Z M 160 107.2 C 160 105.5 158.8 104.4 157.5 104.4 C 156.2 104.4 155.1 105.5 155.1 107.2 C 155.1 108.9 156.2 110 157.5 110 C 158.8 110 160 108.9 160 107.2 Z " stroke="none" fill="#000"/>
  </g>
  <g id="Polygon31284">
    <path d="M 1.1 89.6 L 1.5 89.6 C 1.5 89.6 1.61 91.24 1.6 91.2 C 2.1 90.1 3.1 89.5 4.1 89.5 C 5.6 89.5 7 90.8 7 92.8 C 7 94.8 5.6 96.1 4.1 96.1 C 3.1 96.1 2.1 95.5 1.6 94.5 C 1.64 94.45 1.6 98.6 1.6 98.6 L 1.1 98.6 L 1.1 89.6 Z M 6.5 92.8 C 6.5 91.1 5.4 90 4.1 90 C 2.7 90 1.6 91.1 1.6 92.8 C 1.6 94.5 2.8 95.6 4.1 95.6 C 5.4 95.6 6.5 94.5 6.5 92.8 Z M 8.4 92.8 C 8.4 90.9 9.8 89.5 11.4 89.5 C 13.1 89.5 14.5 90.9 14.5 92.8 C 14.5 94.8 13.1 96.1 11.4 96.1 C 9.8 96.1 8.4 94.8 8.4 92.8 Z M 14 92.8 C 14 91 12.7 90 11.4 90 C 10.1 90 8.9 91 8.9 92.8 C 8.9 94.6 10.2 95.6 11.4 95.6 C 12.7 95.6 14 94.6 14 92.8 Z M 19.9 90.1 C 19.9 90.1 19.9 90.6 19.9 90.6 C 19.4 90.3 18.7 90 18 90 C 17.1 90 16.5 90.5 16.5 91.2 C 16.5 91.9 17.1 92.2 18.1 92.5 C 19.2 92.9 20.2 93.2 20.2 94.3 C 20.2 95.4 19.3 96.1 18 96.1 C 17.3 96.1 16.5 95.9 15.9 95.4 C 15.9 95.4 15.9 94.7 15.9 94.7 C 16.4 95.3 17.2 95.6 18 95.6 C 19 95.6 19.7 95.1 19.7 94.3 C 19.7 93.6 18.9 93.3 17.9 92.9 C 16.9 92.6 16 92.3 16 91.2 C 16 90.2 16.8 89.5 18 89.5 C 18.7 89.5 19.4 89.7 19.9 90.1 Z M 25.5 90.1 C 25.5 90.1 25.5 90.6 25.5 90.6 C 25 90.3 24.4 90 23.7 90 C 22.7 90 22.1 90.5 22.1 91.2 C 22.1 91.9 22.8 92.2 23.8 92.5 C 24.8 92.9 25.8 93.2 25.8 94.3 C 25.8 95.4 24.9 96.1 23.6 96.1 C 22.9 96.1 22.1 95.9 21.5 95.4 C 21.5 95.4 21.5 94.7 21.5 94.7 C 22 95.3 22.8 95.6 23.6 95.6 C 24.6 95.6 25.3 95.1 25.3 94.3 C 25.3 93.6 24.6 93.3 23.5 92.9 C 22.5 92.6 21.6 92.3 21.6 91.2 C 21.6 90.2 22.4 89.5 23.7 89.5 C 24.3 89.5 25 89.7 25.5 90.1 Z M 27.4 87.3 C 27.4 87.1 27.6 86.9 27.8 86.9 C 28.1 86.9 28.2 87.1 28.2 87.3 C 28.2 87.5 28.1 87.7 27.8 87.7 C 27.6 87.7 27.4 87.5 27.4 87.3 Z M 27.6 89.6 L 28.1 89.6 L 28.1 96 L 27.6 96 L 27.6 89.6 Z M 30.9 91.2 C 31.3 90.1 32.4 89.5 33.4 89.5 C 34.9 89.5 36.3 90.8 36.3 92.8 C 36.3 94.8 34.9 96.1 33.4 96.1 C 32.4 96.1 31.3 95.6 30.9 94.4 C 30.86 94.39 30.8 96 30.8 96 L 30.4 96 L 30.4 86.5 L 30.9 86.5 C 30.9 86.5 30.9 91.19 30.9 91.2 Z M 30.9 92.8 C 30.9 94.5 32 95.6 33.3 95.6 C 34.6 95.6 35.8 94.5 35.8 92.8 C 35.8 91.1 34.7 90 33.3 90 C 32 90 30.9 91.1 30.9 92.8 Z M 38 87.3 C 38 87.1 38.2 86.9 38.4 86.9 C 38.6 86.9 38.8 87.1 38.8 87.3 C 38.8 87.5 38.6 87.7 38.4 87.7 C 38.2 87.7 38 87.5 38 87.3 Z M 38.1 89.6 L 38.7 89.6 L 38.7 96 L 38.1 96 L 38.1 89.6 Z M 41 86.5 L 41.5 86.5 L 41.5 96 L 41 96 L 41 86.5 Z M 43.7 87.3 C 43.7 87.1 43.9 86.9 44.1 86.9 C 44.4 86.9 44.5 87.1 44.5 87.3 C 44.5 87.5 44.4 87.7 44.1 87.7 C 43.9 87.7 43.7 87.5 43.7 87.3 Z M 43.9 89.6 L 44.4 89.6 L 44.4 96 L 43.9 96 L 43.9 89.6 Z M 47.4 89.6 L 49.3 89.6 L 49.3 90.1 L 47.4 90.1 C 47.4 90.1 47.36 94 47.4 94 C 47.4 95.2 48 95.6 48.9 95.6 C 49.1 95.6 49.2 95.6 49.4 95.6 C 49.4 95.6 49.4 96 49.4 96 C 49.4 96 49.1 96.1 48.8 96.1 C 47.7 96.1 46.9 95.4 46.9 94 C 46.86 94.02 46.9 90.1 46.9 90.1 L 45.9 90.1 L 45.9 89.6 L 46.9 89.6 L 46.9 88.1 L 47.4 88.1 L 47.4 89.6 Z M 53 88.5 L 52.5 88.5 L 54 86.6 L 54.5 86.6 L 53 88.5 Z M 55.8 93 C 55.8 93 50.8 93 50.8 93 C 50.9 94.6 51.9 95.6 53.3 95.6 C 54.1 95.6 54.9 95.4 55.6 94.7 C 55.6 94.7 55.6 95.3 55.6 95.3 C 54.9 95.8 54.1 96.1 53.3 96.1 C 51.5 96.1 50.3 94.8 50.3 92.8 C 50.3 90.8 51.7 89.5 53.2 89.5 C 54.6 89.5 55.8 90.6 55.8 92.7 C 55.8 92.8 55.8 92.9 55.8 93 Z M 55.3 92.5 C 55.3 90.8 54.3 90 53.2 90 C 52 90 50.9 91 50.8 92.5 C 50.8 92.5 55.3 92.5 55.3 92.5 Z M 61.2 90.1 C 61.2 90.1 61.2 90.6 61.2 90.6 C 60.7 90.3 60.1 90 59.4 90 C 58.4 90 57.8 90.5 57.8 91.2 C 57.8 91.9 58.5 92.2 59.5 92.5 C 60.5 92.9 61.5 93.2 61.5 94.3 C 61.5 95.4 60.6 96.1 59.4 96.1 C 58.6 96.1 57.8 95.9 57.2 95.4 C 57.2 95.4 57.2 94.7 57.2 94.7 C 57.8 95.3 58.5 95.6 59.4 95.6 C 60.4 95.6 61 95.1 61 94.3 C 61 93.6 60.3 93.3 59.3 92.9 C 58.2 92.6 57.3 92.3 57.3 91.2 C 57.3 90.2 58.2 89.5 59.4 89.5 C 60.1 89.5 60.7 89.7 61.2 90.1 Z M 66.3 92.8 C 66.3 90.8 67.7 89.5 69.2 89.5 C 70.2 89.5 71.2 90.1 71.7 91.2 C 71.66 91.18 71.7 86.5 71.7 86.5 L 72.2 86.5 L 72.2 96 L 71.8 96 L 71.7 94.4 C 71.7 94.4 71.69 94.39 71.7 94.4 C 71.2 95.6 70.2 96.1 69.2 96.1 C 67.7 96.1 66.3 94.8 66.3 92.8 Z M 71.7 92.8 C 71.7 91.1 70.6 90 69.2 90 C 67.9 90 66.8 91.1 66.8 92.8 C 66.8 94.5 67.9 95.6 69.2 95.6 C 70.6 95.6 71.7 94.5 71.7 92.8 Z M 74.6 87.5 C 74.64 87.53 74.6 87.1 74.6 87.1 L 75.1 87.1 C 75.1 87.1 75.14 87.52 75.1 87.5 C 75.1 88.5 74.7 89.5 74.5 90.1 C 74.5 90.1 74.1 90.1 74.1 90.1 C 74.3 89.5 74.6 88.5 74.6 87.5 Z M 77 93.7 C 76.97 93.68 77 89.6 77 89.6 L 77.5 89.6 C 77.5 89.6 77.47 93.71 77.5 93.7 C 77.5 94.9 78.2 95.6 79.4 95.6 C 80.5 95.6 81.3 94.9 81.3 93.7 C 81.26 93.7 81.3 89.6 81.3 89.6 L 81.8 89.6 C 81.8 89.6 81.77 93.67 81.8 93.7 C 81.8 95.1 80.8 96.1 79.4 96.1 C 77.9 96.1 77 95.1 77 93.7 Z M 84.6 89.6 L 86.5 89.6 L 86.5 90.1 L 84.6 90.1 C 84.6 90.1 84.65 94 84.6 94 C 84.6 95.2 85.3 95.6 86.2 95.6 C 86.4 95.6 86.5 95.6 86.7 95.6 C 86.7 95.6 86.7 96 86.7 96 C 86.6 96 86.4 96.1 86.1 96.1 C 85 96.1 84.1 95.4 84.1 94 C 84.14 94.02 84.1 90.1 84.1 90.1 L 83.2 90.1 L 83.2 89.6 L 84.2 89.6 L 84.2 88.1 L 84.6 88.1 L 84.6 89.6 Z M 88 87.3 C 88 87.1 88.1 86.9 88.4 86.9 C 88.6 86.9 88.8 87.1 88.8 87.3 C 88.8 87.5 88.6 87.7 88.4 87.7 C 88.1 87.7 88 87.5 88 87.3 Z M 88.1 89.6 L 88.6 89.6 L 88.6 96 L 88.1 96 L 88.1 89.6 Z M 91 86.5 L 91.5 86.5 L 91.5 96 L 91 96 L 91 86.5 Z M 93.7 87.3 C 93.7 87.1 93.9 86.9 94.1 86.9 C 94.3 86.9 94.5 87.1 94.5 87.3 C 94.5 87.5 94.3 87.7 94.1 87.7 C 93.9 87.7 93.7 87.5 93.7 87.3 Z M 93.8 89.6 L 94.3 89.6 L 94.3 96 L 93.8 96 L 93.8 89.6 Z M 100.2 90.1 C 100.2 90.1 100.2 90.6 100.2 90.6 C 99.7 90.3 99.1 90 98.4 90 C 97.4 90 96.8 90.5 96.8 91.2 C 96.8 91.9 97.5 92.2 98.5 92.5 C 99.5 92.9 100.5 93.2 100.5 94.3 C 100.5 95.4 99.6 96.1 98.3 96.1 C 97.6 96.1 96.8 95.9 96.2 95.4 C 96.2 95.4 96.2 94.7 96.2 94.7 C 96.8 95.3 97.5 95.6 98.3 95.6 C 99.4 95.6 100 95.1 100 94.3 C 100 93.6 99.3 93.3 98.3 92.9 C 97.2 92.6 96.3 92.3 96.3 91.2 C 96.3 90.2 97.1 89.5 98.4 89.5 C 99.1 89.5 99.7 89.7 100.2 90.1 Z M 101.8 92.8 C 101.8 90.8 103.2 89.5 104.7 89.5 C 105.7 89.5 106.8 90.1 107.2 91.2 C 107.22 91.22 107.3 89.6 107.3 89.6 L 107.7 89.6 L 107.7 96 L 107.3 96 C 107.3 96 107.22 94.4 107.2 94.4 C 106.8 95.6 105.7 96.1 104.7 96.1 C 103.2 96.1 101.8 94.8 101.8 92.8 Z M 107.2 92.8 C 107.2 91.1 106.1 90 104.8 90 C 103.4 90 102.3 91.1 102.3 92.8 C 102.3 94.5 103.4 95.6 104.8 95.6 C 106.1 95.6 107.2 94.5 107.2 92.8 Z M 110.6 89.6 L 112.5 89.6 L 112.5 90.1 L 110.6 90.1 C 110.6 90.1 110.65 94 110.6 94 C 110.6 95.2 111.3 95.6 112.2 95.6 C 112.4 95.6 112.5 95.6 112.7 95.6 C 112.7 95.6 112.7 96 112.7 96 C 112.7 96 112.4 96.1 112.1 96.1 C 111 96.1 110.1 95.4 110.1 94 C 110.15 94.02 110.1 90.1 110.1 90.1 L 109.2 90.1 L 109.2 89.6 L 110.2 89.6 L 110.2 88.1 L 110.6 88.1 L 110.6 89.6 Z M 114 87.3 C 114 87.1 114.1 86.9 114.4 86.9 C 114.6 86.9 114.8 87.1 114.8 87.3 C 114.8 87.5 114.6 87.7 114.4 87.7 C 114.1 87.7 114 87.5 114 87.3 Z M 114.1 89.6 L 114.6 89.6 L 114.6 96 L 114.1 96 L 114.1 89.6 Z M 116.5 92.8 C 116.5 90.9 117.8 89.5 119.5 89.5 C 121.2 89.5 122.6 90.9 122.6 92.8 C 122.6 94.8 121.2 96.1 119.5 96.1 C 117.9 96.1 116.5 94.8 116.5 92.8 Z M 122.1 92.8 C 122.1 91 120.8 90 119.5 90 C 118.2 90 117 91 117 92.8 C 117 94.6 118.2 95.6 119.5 95.6 C 120.8 95.6 122.1 94.6 122.1 92.8 Z M 129.2 91.8 C 129.18 91.76 129.2 96 129.2 96 L 128.7 96 C 128.7 96 128.67 91.97 128.7 92 C 128.7 90.7 128 90 126.9 90 C 125.8 90 124.9 90.7 124.9 91.9 C 124.89 91.91 124.9 96 124.9 96 L 124.4 96 L 124.4 89.6 L 124.8 89.6 L 124.8 90.8 C 124.8 90.8 124.86 90.76 124.9 90.8 C 125.2 90 126 89.5 126.9 89.5 C 128.3 89.5 129.2 90.4 129.2 91.8 Z M 131.1 95.6 C 131.1 95.3 131.3 95.1 131.6 95.1 C 131.9 95.1 132.1 95.3 132.1 95.6 C 132.1 95.8 131.9 96 131.6 96 C 131.3 96 131.1 95.8 131.1 95.6 Z " stroke="none" fill="#000"/>
  </g>
  <g id="Polygon31283">
    <path d="M 3.8 81.2 C 4.3 81.2 4.9 81.1 5.5 80.7 C 5.5 80.7 5.5 81.3 5.5 81.3 C 5 81.6 4.4 81.7 3.8 81.7 C 2 81.7 0.7 80.3 0.7 78.4 C 0.7 76.5 2 75.1 3.8 75.1 C 4.3 75.1 4.9 75.2 5.5 75.6 C 5.5 75.6 5.5 76.1 5.5 76.1 C 4.9 75.7 4.3 75.6 3.7 75.6 C 2.4 75.6 1.2 76.7 1.2 78.4 C 1.2 80.1 2.4 81.2 3.8 81.2 Z M 12.2 78.6 C 12.2 78.6 7.2 78.6 7.2 78.6 C 7.2 80.2 8.3 81.2 9.7 81.2 C 10.5 81.2 11.3 81 12 80.3 C 12 80.3 12 80.9 12 80.9 C 11.3 81.4 10.5 81.7 9.7 81.7 C 7.9 81.7 6.7 80.4 6.7 78.4 C 6.7 76.4 8.1 75.1 9.6 75.1 C 11 75.1 12.2 76.2 12.2 78.3 C 12.2 78.4 12.2 78.5 12.2 78.6 Z M 11.7 78.1 C 11.7 76.4 10.7 75.6 9.6 75.6 C 8.4 75.6 7.3 76.6 7.2 78.1 C 7.2 78.1 11.7 78.1 11.7 78.1 Z M 24.7 76.8 C 24.65 76.84 24.7 75.2 24.7 75.2 L 25.1 75.2 L 25.1 84.2 L 24.6 84.2 C 24.6 84.2 24.62 80.04 24.6 80 C 24.2 81.1 23.2 81.7 22.2 81.7 C 20.6 81.7 19.2 80.4 19.2 78.4 C 19.2 76.4 20.6 75.1 22.1 75.1 C 23.2 75.1 24.2 75.7 24.7 76.8 Z M 19.7 78.4 C 19.7 80.1 20.9 81.2 22.2 81.2 C 23.5 81.2 24.6 80.1 24.6 78.4 C 24.6 76.7 23.5 75.6 22.2 75.6 C 20.9 75.6 19.7 76.7 19.7 78.4 Z M 27.3 79.3 C 27.32 79.28 27.3 75.2 27.3 75.2 L 27.8 75.2 C 27.8 75.2 27.82 79.31 27.8 79.3 C 27.8 80.5 28.6 81.2 29.7 81.2 C 30.9 81.2 31.6 80.5 31.6 79.3 C 31.61 79.3 31.6 75.2 31.6 75.2 L 32.1 75.2 C 32.1 75.2 32.12 79.27 32.1 79.3 C 32.1 80.7 31.2 81.7 29.7 81.7 C 28.2 81.7 27.3 80.7 27.3 79.3 Z M 34.2 72.9 C 34.2 72.7 34.4 72.5 34.6 72.5 C 34.8 72.5 35 72.7 35 72.9 C 35 73.1 34.8 73.3 34.6 73.3 C 34.4 73.3 34.2 73.1 34.2 72.9 Z M 34.3 75.2 L 34.9 75.2 L 34.9 81.6 L 34.3 81.6 L 34.3 75.2 Z M 42.4 78.4 C 42.4 76.5 43.7 75.1 45.4 75.1 C 47.1 75.1 48.5 76.5 48.5 78.4 C 48.5 80.4 47.1 81.7 45.4 81.7 C 43.7 81.7 42.4 80.4 42.4 78.4 Z M 48 78.4 C 48 76.6 46.7 75.6 45.4 75.6 C 44.1 75.6 42.9 76.6 42.9 78.4 C 42.9 80.2 44.1 81.2 45.4 81.2 C 46.7 81.2 48 80.2 48 78.4 Z M 50.4 75.7 L 49.5 75.7 L 49.5 75.2 L 50.4 75.2 C 50.4 75.2 50.41 74 50.4 74 C 50.4 72.7 51.3 72 52.3 72 C 52.7 72 53 72.1 53.3 72.2 C 53.3 72.2 53.3 72.7 53.3 72.7 C 53 72.6 52.7 72.5 52.3 72.5 C 51.5 72.5 50.9 73 50.9 74.1 C 50.93 74.09 50.9 75.2 50.9 75.2 L 52.8 75.2 L 52.8 75.7 L 50.9 75.7 L 50.9 81.6 L 50.4 81.6 L 50.4 75.7 Z M 54.4 75.7 L 53.5 75.7 L 53.5 75.2 L 54.4 75.2 C 54.4 75.2 54.42 74 54.4 74 C 54.4 72.7 55.3 72 56.3 72 C 56.7 72 57 72.1 57.3 72.2 C 57.3 72.2 57.3 72.7 57.3 72.7 C 57 72.6 56.7 72.5 56.3 72.5 C 55.5 72.5 54.9 73 54.9 74.1 C 54.93 74.09 54.9 75.2 54.9 75.2 L 56.9 75.2 L 56.9 75.7 L 54.9 75.7 L 54.9 81.6 L 54.4 81.6 L 54.4 75.7 Z M 58.2 75.2 L 58.6 75.2 L 58.7 76.4 C 58.7 76.4 58.67 76.42 58.7 76.4 C 59 75.5 59.9 75.2 60.5 75.2 C 60.7 75.2 60.8 75.2 60.9 75.2 C 60.9 75.2 60.9 75.7 60.9 75.7 C 60.8 75.7 60.7 75.7 60.5 75.7 C 59.6 75.7 58.7 76.3 58.7 77.6 C 58.7 77.57 58.7 81.6 58.7 81.6 L 58.2 81.6 L 58.2 75.2 Z M 67.1 78.6 C 67.1 78.6 62 78.6 62 78.6 C 62.1 80.2 63.1 81.2 64.6 81.2 C 65.3 81.2 66.2 81 66.8 80.3 C 66.8 80.3 66.8 80.9 66.8 80.9 C 66.2 81.4 65.4 81.7 64.5 81.7 C 62.8 81.7 61.5 80.4 61.5 78.4 C 61.5 76.4 62.9 75.1 64.5 75.1 C 65.9 75.1 67.1 76.2 67.1 78.3 C 67.1 78.4 67.1 78.5 67.1 78.6 Z M 66.6 78.1 C 66.6 76.4 65.5 75.6 64.5 75.6 C 63.2 75.6 62.1 76.6 62 78.1 C 62 78.1 66.6 78.1 66.6 78.1 Z M 74.1 78.4 C 74.1 76.4 75.5 75.1 77 75.1 C 78 75.1 79 75.7 79.5 76.8 C 79.48 76.78 79.5 72.1 79.5 72.1 L 80 72.1 L 80 81.6 L 79.6 81.6 L 79.5 80 C 79.5 80 79.5 79.99 79.5 80 C 79 81.2 78 81.7 77 81.7 C 75.5 81.7 74.1 80.4 74.1 78.4 Z M 79.5 78.4 C 79.5 76.7 78.4 75.6 77.1 75.6 C 75.7 75.6 74.6 76.7 74.6 78.4 C 74.6 80.1 75.7 81.2 77.1 81.2 C 78.4 81.2 79.5 80.1 79.5 78.4 Z M 87.4 78.6 C 87.4 78.6 82.3 78.6 82.3 78.6 C 82.4 80.2 83.4 81.2 84.9 81.2 C 85.6 81.2 86.5 81 87.1 80.3 C 87.1 80.3 87.1 80.9 87.1 80.9 C 86.5 81.4 85.7 81.7 84.9 81.7 C 83.1 81.7 81.8 80.4 81.8 78.4 C 81.8 76.4 83.2 75.1 84.8 75.1 C 86.2 75.1 87.4 76.2 87.4 78.3 C 87.4 78.4 87.4 78.5 87.4 78.6 Z M 86.9 78.1 C 86.9 76.4 85.9 75.6 84.8 75.6 C 83.6 75.6 82.4 76.6 82.3 78.1 C 82.3 78.1 86.9 78.1 86.9 78.1 Z M 99.6 77.4 C 99.64 77.36 99.6 81.6 99.6 81.6 L 99.1 81.6 C 99.1 81.6 99.14 77.57 99.1 77.6 C 99.1 76.3 98.5 75.6 97.3 75.6 C 96.2 75.6 95.4 76.3 95.4 77.5 C 95.36 77.51 95.4 81.6 95.4 81.6 L 94.9 81.6 L 94.9 75.2 L 95.3 75.2 L 95.3 76.4 C 95.3 76.4 95.32 76.36 95.3 76.4 C 95.7 75.6 96.4 75.1 97.4 75.1 C 98.8 75.1 99.6 76 99.6 77.4 Z M 101.4 78.4 C 101.4 76.5 102.8 75.1 104.4 75.1 C 106.1 75.1 107.5 76.5 107.5 78.4 C 107.5 80.4 106.1 81.7 104.4 81.7 C 102.8 81.7 101.4 80.4 101.4 78.4 Z M 107 78.4 C 107 76.6 105.7 75.6 104.4 75.6 C 103.1 75.6 101.9 76.6 101.9 78.4 C 101.9 80.2 103.1 81.2 104.4 81.2 C 105.7 81.2 107 80.2 107 78.4 Z M 117 77.3 C 117.02 77.28 117 81.6 117 81.6 L 116.5 81.6 C 116.5 81.6 116.52 77.33 116.5 77.3 C 116.5 76.3 116 75.6 115 75.6 C 114 75.6 113.4 76.4 113.4 77.3 C 113.41 77.34 113.4 81.6 113.4 81.6 L 112.9 81.6 C 112.9 81.6 112.9 77.33 112.9 77.3 C 112.9 76.3 112.4 75.6 111.4 75.6 C 110.4 75.6 109.8 76.4 109.8 77.4 C 109.8 77.36 109.8 81.6 109.8 81.6 L 109.3 81.6 L 109.3 75.2 L 109.7 75.2 L 109.7 76.3 C 109.7 76.3 109.76 76.28 109.8 76.3 C 110 75.6 110.7 75.1 111.5 75.1 C 112.4 75.1 113 75.6 113.3 76.4 C 113.5 75.6 114.2 75.1 115.1 75.1 C 116.4 75.1 117 76 117 77.3 Z M 119.7 76.8 C 120.2 75.7 121.2 75.1 122.2 75.1 C 123.7 75.1 125.1 76.4 125.1 78.4 C 125.1 80.4 123.7 81.7 122.2 81.7 C 121.2 81.7 120.2 81.2 119.7 80 C 119.69 79.99 119.6 81.6 119.6 81.6 L 119.2 81.6 L 119.2 72.1 L 119.7 72.1 C 119.7 72.1 119.73 76.79 119.7 76.8 Z M 119.7 78.4 C 119.7 80.1 120.8 81.2 122.2 81.2 C 123.5 81.2 124.6 80.1 124.6 78.4 C 124.6 76.7 123.5 75.6 122.2 75.6 C 120.8 75.6 119.7 76.7 119.7 78.4 Z M 126.9 75.2 L 127.4 75.2 L 127.4 76.4 C 127.4 76.4 127.41 76.42 127.4 76.4 C 127.8 75.5 128.6 75.2 129.3 75.2 C 129.4 75.2 129.6 75.2 129.7 75.2 C 129.7 75.2 129.7 75.7 129.7 75.7 C 129.6 75.7 129.4 75.7 129.3 75.7 C 128.4 75.7 127.5 76.3 127.4 77.6 C 127.45 77.57 127.4 81.6 127.4 81.6 L 126.9 81.6 L 126.9 75.2 Z M 135.8 78.6 C 135.8 78.6 130.8 78.6 130.8 78.6 C 130.8 80.2 131.9 81.2 133.3 81.2 C 134.1 81.2 134.9 81 135.6 80.3 C 135.6 80.3 135.6 80.9 135.6 80.9 C 134.9 81.4 134.1 81.7 133.3 81.7 C 131.5 81.7 130.3 80.4 130.3 78.4 C 130.3 76.4 131.7 75.1 133.2 75.1 C 134.6 75.1 135.8 76.2 135.8 78.3 C 135.8 78.4 135.8 78.5 135.8 78.6 Z M 135.3 78.1 C 135.3 76.4 134.3 75.6 133.2 75.6 C 132 75.6 130.9 76.6 130.8 78.1 C 130.8 78.1 135.3 78.1 135.3 78.1 Z M 137.6 79.3 C 137.55 79.28 137.6 75.2 137.6 75.2 L 138.1 75.2 C 138.1 75.2 138.05 79.31 138.1 79.3 C 138.1 80.5 138.8 81.2 139.9 81.2 C 141.1 81.2 141.8 80.5 141.8 79.3 C 141.85 79.3 141.8 75.2 141.8 75.2 L 142.4 75.2 C 142.4 75.2 142.35 79.27 142.4 79.3 C 142.4 80.7 141.4 81.7 139.9 81.7 C 138.5 81.7 137.6 80.7 137.6 79.3 Z M 148.1 75.7 C 148.1 75.7 148.1 76.2 148.1 76.2 C 147.6 75.9 147 75.6 146.3 75.6 C 145.3 75.6 144.7 76.1 144.7 76.8 C 144.7 77.5 145.4 77.8 146.4 78.1 C 147.4 78.5 148.4 78.8 148.4 79.9 C 148.4 81 147.5 81.7 146.3 81.7 C 145.5 81.7 144.7 81.5 144.1 81 C 144.1 81 144.1 80.3 144.1 80.3 C 144.7 80.9 145.4 81.2 146.3 81.2 C 147.3 81.2 147.9 80.7 147.9 79.9 C 147.9 79.2 147.2 78.9 146.2 78.5 C 145.1 78.2 144.2 77.9 144.2 76.8 C 144.2 75.8 145.1 75.1 146.3 75.1 C 147 75.1 147.6 75.3 148.1 75.7 Z M 155.3 78.6 C 155.3 78.6 150.2 78.6 150.2 78.6 C 150.3 80.2 151.3 81.2 152.8 81.2 C 153.5 81.2 154.4 81 155 80.3 C 155 80.3 155 80.9 155 80.9 C 154.4 81.4 153.6 81.7 152.8 81.7 C 151 81.7 149.7 80.4 149.7 78.4 C 149.7 76.4 151.1 75.1 152.7 75.1 C 154.1 75.1 155.3 76.2 155.3 78.3 C 155.3 78.4 155.3 78.5 155.3 78.6 Z M 154.8 78.1 C 154.8 76.4 153.8 75.6 152.7 75.6 C 151.5 75.6 150.3 76.6 150.2 78.1 C 150.2 78.1 154.8 78.1 154.8 78.1 Z M 160.7 75.7 C 160.7 75.7 160.7 76.2 160.7 76.2 C 160.1 75.9 159.5 75.6 158.8 75.6 C 157.9 75.6 157.3 76.1 157.3 76.8 C 157.3 77.5 157.9 77.8 158.9 78.1 C 160 78.5 161 78.8 161 79.9 C 161 81 160.1 81.7 158.8 81.7 C 158 81.7 157.3 81.5 156.7 81 C 156.7 81 156.7 80.3 156.7 80.3 C 157.2 80.9 158 81.2 158.8 81.2 C 159.8 81.2 160.5 80.7 160.5 79.9 C 160.5 79.2 159.7 78.9 158.7 78.5 C 157.7 78.2 156.8 77.9 156.8 76.8 C 156.8 75.8 157.6 75.1 158.8 75.1 C 159.5 75.1 160.2 75.3 160.7 75.7 Z " stroke="none" fill="#000"/>
  </g>
  <g id="Polygon31282">
    <path d="M 4.7 61.3 C 4.7 61.3 4.7 61.8 4.7 61.8 C 4.2 61.5 3.6 61.2 2.9 61.2 C 1.9 61.2 1.3 61.7 1.3 62.4 C 1.3 63.1 2 63.4 3 63.7 C 4 64.1 5 64.4 5 65.5 C 5 66.6 4.1 67.3 2.8 67.3 C 2.1 67.3 1.3 67.1 0.7 66.6 C 0.7 66.6 0.7 65.9 0.7 65.9 C 1.2 66.5 2 66.8 2.8 66.8 C 3.9 66.8 4.5 66.3 4.5 65.5 C 4.5 64.8 3.8 64.5 2.8 64.1 C 1.7 63.8 0.8 63.5 0.8 62.4 C 0.8 61.4 1.6 60.7 2.9 60.7 C 3.6 60.7 4.2 60.9 4.7 61.3 Z M 11.9 64.2 C 11.9 64.2 6.8 64.2 6.8 64.2 C 6.9 65.8 7.9 66.8 9.4 66.8 C 10.1 66.8 11 66.6 11.6 65.9 C 11.6 65.9 11.6 66.5 11.6 66.5 C 11 67 10.2 67.3 9.3 67.3 C 7.6 67.3 6.3 66 6.3 64 C 6.3 62 7.7 60.7 9.3 60.7 C 10.7 60.7 11.9 61.8 11.9 63.9 C 11.9 64 11.9 64.1 11.9 64.2 Z M 11.4 63.7 C 11.4 62 10.3 61.2 9.3 61.2 C 8.1 61.2 6.9 62.2 6.8 63.7 C 6.8 63.7 11.4 63.7 11.4 63.7 Z M 24.8 61.3 C 24.8 61.3 24.8 61.8 24.8 61.8 C 24.3 61.5 23.7 61.2 23 61.2 C 22 61.2 21.4 61.7 21.4 62.4 C 21.4 63.1 22.1 63.4 23.1 63.7 C 24.1 64.1 25.1 64.4 25.1 65.5 C 25.1 66.6 24.2 67.3 22.9 67.3 C 22.2 67.3 21.4 67.1 20.8 66.6 C 20.8 66.6 20.8 65.9 20.8 65.9 C 21.3 66.5 22.1 66.8 22.9 66.8 C 23.9 66.8 24.6 66.3 24.6 65.5 C 24.6 64.8 23.9 64.5 22.8 64.1 C 21.8 63.8 20.9 63.5 20.9 62.4 C 20.9 61.4 21.7 60.7 23 60.7 C 23.6 60.7 24.3 60.9 24.8 61.3 Z M 26.8 64.9 C 26.76 64.88 26.8 60.8 26.8 60.8 L 27.3 60.8 C 27.3 60.8 27.26 64.91 27.3 64.9 C 27.3 66.1 28 66.8 29.1 66.8 C 30.3 66.8 31.1 66.1 31.1 64.9 C 31.06 64.9 31.1 60.8 31.1 60.8 L 31.6 60.8 C 31.6 60.8 31.56 64.87 31.6 64.9 C 31.6 66.3 30.6 67.3 29.1 67.3 C 27.7 67.3 26.8 66.3 26.8 64.9 Z M 37.3 61.3 C 37.3 61.3 37.3 61.8 37.3 61.8 C 36.8 61.5 36.2 61.2 35.5 61.2 C 34.5 61.2 33.9 61.7 33.9 62.4 C 33.9 63.1 34.6 63.4 35.6 63.7 C 36.6 64.1 37.6 64.4 37.6 65.5 C 37.6 66.6 36.8 67.3 35.5 67.3 C 34.7 67.3 33.9 67.1 33.3 66.6 C 33.3 66.6 33.3 65.9 33.3 65.9 C 33.9 66.5 34.6 66.8 35.5 66.8 C 36.5 66.8 37.1 66.3 37.1 65.5 C 37.1 64.8 36.4 64.5 35.4 64.1 C 34.3 63.8 33.4 63.5 33.4 62.4 C 33.4 61.4 34.3 60.7 35.5 60.7 C 36.2 60.7 36.8 60.9 37.3 61.3 Z M 39.4 60.8 L 39.8 60.8 C 39.8 60.8 39.84 62.44 39.8 62.4 C 40.3 61.3 41.3 60.7 42.3 60.7 C 43.9 60.7 45.2 62 45.2 64 C 45.2 66 43.9 67.3 42.3 67.3 C 41.3 67.3 40.3 66.7 39.9 65.7 C 39.87 65.65 39.9 69.8 39.9 69.8 L 39.4 69.8 L 39.4 60.8 Z M 44.7 64 C 44.7 62.3 43.6 61.2 42.3 61.2 C 41 61.2 39.8 62.3 39.8 64 C 39.8 65.7 41 66.8 42.3 66.8 C 43.6 66.8 44.7 65.7 44.7 64 Z M 52.2 64.2 C 52.2 64.2 47.1 64.2 47.1 64.2 C 47.2 65.8 48.3 66.8 49.7 66.8 C 50.5 66.8 51.3 66.6 52 65.9 C 52 65.9 52 66.5 52 66.5 C 51.3 67 50.5 67.3 49.7 67.3 C 47.9 67.3 46.6 66 46.6 64 C 46.6 62 48.1 60.7 49.6 60.7 C 51 60.7 52.2 61.8 52.2 63.9 C 52.2 64 52.2 64.1 52.2 64.2 Z M 51.7 63.7 C 51.7 62 50.7 61.2 49.6 61.2 C 48.4 61.2 47.3 62.2 47.2 63.7 C 47.2 63.7 51.7 63.7 51.7 63.7 Z M 58.8 63 C 58.81 62.96 58.8 67.2 58.8 67.2 L 58.3 67.2 C 58.3 67.2 58.31 63.17 58.3 63.2 C 58.3 61.9 57.6 61.2 56.5 61.2 C 55.4 61.2 54.5 61.9 54.5 63.1 C 54.53 63.11 54.5 67.2 54.5 67.2 L 54 67.2 L 54 60.8 L 54.4 60.8 L 54.5 62 C 54.5 62 54.49 61.96 54.5 62 C 54.8 61.2 55.6 60.7 56.6 60.7 C 57.9 60.7 58.8 61.6 58.8 63 Z M 60.6 64 C 60.6 62 62 60.7 63.5 60.7 C 64.5 60.7 65.5 61.3 65.9 62.4 C 65.94 62.38 65.9 57.7 65.9 57.7 L 66.4 57.7 L 66.4 67.2 L 66 67.2 L 66 65.6 C 66 65.6 65.96 65.59 66 65.6 C 65.5 66.8 64.5 67.3 63.5 67.3 C 62 67.3 60.6 66 60.6 64 Z M 66 64 C 66 62.3 64.8 61.2 63.5 61.2 C 62.2 61.2 61.1 62.3 61.1 64 C 61.1 65.7 62.2 66.8 63.5 66.8 C 64.8 66.8 66 65.7 66 64 Z M 68.7 60.8 L 69.1 60.8 L 69.2 62 C 69.2 62 69.19 62.02 69.2 62 C 69.6 61.1 70.4 60.8 71.1 60.8 C 71.2 60.8 71.3 60.8 71.5 60.8 C 71.5 60.8 71.5 61.3 71.5 61.3 C 71.3 61.3 71.2 61.3 71.1 61.3 C 70.2 61.3 69.2 61.9 69.2 63.2 C 69.23 63.17 69.2 67.2 69.2 67.2 L 68.7 67.2 L 68.7 60.8 Z M 77.6 64.2 C 77.6 64.2 72.5 64.2 72.5 64.2 C 72.6 65.8 73.7 66.8 75.1 66.8 C 75.9 66.8 76.7 66.6 77.4 65.9 C 77.4 65.9 77.4 66.5 77.4 66.5 C 76.7 67 75.9 67.3 75.1 67.3 C 73.3 67.3 72 66 72 64 C 72 62 73.4 60.7 75 60.7 C 76.4 60.7 77.6 61.8 77.6 63.9 C 77.6 64 77.6 64.1 77.6 64.2 Z M 77.1 63.7 C 77.1 62 76.1 61.2 75 61.2 C 73.8 61.2 72.7 62.2 72.5 63.7 C 72.5 63.7 77.1 63.7 77.1 63.7 Z M 86.5 64 C 86.5 62.1 87.9 60.7 89.5 60.7 C 91.2 60.7 92.6 62.1 92.6 64 C 92.6 66 91.2 67.3 89.5 67.3 C 87.9 67.3 86.5 66 86.5 64 Z M 92.1 64 C 92.1 62.2 90.8 61.2 89.5 61.2 C 88.2 61.2 87 62.2 87 64 C 87 65.8 88.2 66.8 89.5 66.8 C 90.8 66.8 92.1 65.8 92.1 64 Z M 94.3 64.9 C 94.32 64.88 94.3 60.8 94.3 60.8 L 94.8 60.8 C 94.8 60.8 94.82 64.91 94.8 64.9 C 94.8 66.1 95.6 66.8 96.7 66.8 C 97.9 66.8 98.6 66.1 98.6 64.9 C 98.61 64.9 98.6 60.8 98.6 60.8 L 99.1 60.8 C 99.1 60.8 99.12 64.87 99.1 64.9 C 99.1 66.3 98.2 67.3 96.7 67.3 C 95.2 67.3 94.3 66.3 94.3 64.9 Z M 112.4 61.3 C 112.4 61.3 112.4 61.8 112.4 61.8 C 111.9 61.5 111.3 61.2 110.6 61.2 C 109.6 61.2 109 61.7 109 62.4 C 109 63.1 109.7 63.4 110.7 63.7 C 111.7 64.1 112.7 64.4 112.7 65.5 C 112.7 66.6 111.8 67.3 110.6 67.3 C 109.8 67.3 109 67.1 108.4 66.6 C 108.4 66.6 108.4 65.9 108.4 65.9 C 109 66.5 109.7 66.8 110.6 66.8 C 111.6 66.8 112.2 66.3 112.2 65.5 C 112.2 64.8 111.5 64.5 110.5 64.1 C 109.4 63.8 108.5 63.5 108.5 62.4 C 108.5 61.4 109.4 60.7 110.6 60.7 C 111.3 60.7 111.9 60.9 112.4 61.3 Z M 119.6 64.2 C 119.6 64.2 114.5 64.2 114.5 64.2 C 114.6 65.8 115.6 66.8 117.1 66.8 C 117.8 66.8 118.7 66.6 119.3 65.9 C 119.3 65.9 119.3 66.5 119.3 66.5 C 118.7 67 117.9 67.3 117.1 67.3 C 115.3 67.3 114 66 114 64 C 114 62 115.4 60.7 117 60.7 C 118.4 60.7 119.6 61.8 119.6 63.9 C 119.6 64 119.6 64.1 119.6 64.2 Z M 119.1 63.7 C 119.1 62 118.1 61.2 117 61.2 C 115.8 61.2 114.6 62.2 114.5 63.7 C 114.5 63.7 119.1 63.7 119.1 63.7 Z M 128.9 60.8 L 129.3 60.8 C 129.3 60.8 129.4 62.44 129.4 62.4 C 129.9 61.3 130.9 60.7 131.9 60.7 C 133.4 60.7 134.8 62 134.8 64 C 134.8 66 133.4 67.3 131.9 67.3 C 130.9 67.3 129.9 66.7 129.4 65.7 C 129.44 65.65 129.4 69.8 129.4 69.8 L 128.9 69.8 L 128.9 60.8 Z M 134.3 64 C 134.3 62.3 133.2 61.2 131.9 61.2 C 130.5 61.2 129.4 62.3 129.4 64 C 129.4 65.7 130.6 66.8 131.9 66.8 C 133.2 66.8 134.3 65.7 134.3 64 Z M 136.2 64 C 136.2 62.1 137.6 60.7 139.2 60.7 C 140.9 60.7 142.3 62.1 142.3 64 C 142.3 66 140.9 67.3 139.2 67.3 C 137.6 67.3 136.2 66 136.2 64 Z M 141.8 64 C 141.8 62.2 140.5 61.2 139.2 61.2 C 137.9 61.2 136.7 62.2 136.7 64 C 136.7 65.8 137.9 66.8 139.2 66.8 C 140.5 66.8 141.8 65.8 141.8 64 Z M 147.7 61.3 C 147.7 61.3 147.7 61.8 147.7 61.8 C 147.2 61.5 146.5 61.2 145.8 61.2 C 144.9 61.2 144.3 61.7 144.3 62.4 C 144.3 63.1 144.9 63.4 145.9 63.7 C 147 64.1 148 64.4 148 65.5 C 148 66.6 147.1 67.3 145.8 67.3 C 145.1 67.3 144.3 67.1 143.7 66.6 C 143.7 66.6 143.7 65.9 143.7 65.9 C 144.2 66.5 145 66.8 145.8 66.8 C 146.8 66.8 147.5 66.3 147.5 65.5 C 147.5 64.8 146.7 64.5 145.7 64.1 C 144.7 63.8 143.8 63.5 143.8 62.4 C 143.8 61.4 144.6 60.7 145.8 60.7 C 146.5 60.7 147.2 60.9 147.7 61.3 Z M 154.8 64.2 C 154.8 64.2 149.8 64.2 149.8 64.2 C 149.9 65.8 150.9 66.8 152.3 66.8 C 153.1 66.8 153.9 66.6 154.6 65.9 C 154.6 65.9 154.6 66.5 154.6 66.5 C 153.9 67 153.1 67.3 152.3 67.3 C 150.5 67.3 149.3 66 149.3 64 C 149.3 62 150.7 60.7 152.2 60.7 C 153.6 60.7 154.9 61.8 154.9 63.9 C 154.9 64 154.8 64.1 154.8 64.2 Z M 154.4 63.7 C 154.3 62 153.3 61.2 152.2 61.2 C 151 61.2 149.9 62.2 149.8 63.7 C 149.8 63.7 154.4 63.7 154.4 63.7 Z M 156.7 60.8 L 157.1 60.8 L 157.1 62 C 157.1 62 157.12 62.02 157.1 62 C 157.5 61.1 158.4 60.8 159 60.8 C 159.1 60.8 159.3 60.8 159.4 60.8 C 159.4 60.8 159.4 61.3 159.4 61.3 C 159.3 61.3 159.1 61.3 159 61.3 C 158.1 61.3 157.2 61.9 157.2 63.2 C 157.16 63.17 157.2 67.2 157.2 67.2 L 156.7 67.2 L 156.7 60.8 Z M 160.1 66.2 C 160.06 66.24 160.1 65.8 160.1 65.8 L 160.6 65.8 C 160.6 65.8 160.57 66.23 160.6 66.2 C 160.6 67.2 160.2 68.2 159.9 68.8 C 159.9 68.8 159.5 68.8 159.5 68.8 C 159.8 68.2 160.1 67.2 160.1 66.2 Z " stroke="none" fill="#000"/>
  </g>
  <g id="Polygon31281">
    <path d="M 6.1 48 C 6.06 47.96 6.1 46.4 6.1 46.4 L 6.5 46.4 C 6.5 46.4 6.53 52.6 6.5 52.6 C 6.5 54.6 5.1 55.5 3.7 55.5 C 2.9 55.5 2 55.2 1.3 54.7 C 1.3 54.7 1.3 54.1 1.3 54.1 C 2 54.7 2.9 55 3.7 55 C 4.9 55 6 54.3 6 52.7 C 6 52.7 6 51.1 6 51.1 C 5.6 52.2 4.6 52.7 3.6 52.7 C 2.1 52.7 0.7 51.5 0.7 49.5 C 0.7 47.6 2.1 46.3 3.6 46.3 C 4.6 46.3 5.6 46.9 6.1 48 Z M 1.2 49.5 C 1.2 51.2 2.3 52.2 3.6 52.2 C 4.9 52.2 6 51.1 6 49.5 C 6 47.9 4.9 46.8 3.6 46.8 C 2.3 46.8 1.2 47.9 1.2 49.5 Z M 13.9 49.8 C 13.9 49.8 8.9 49.8 8.9 49.8 C 9 51.4 10 52.4 11.4 52.4 C 12.2 52.4 13 52.2 13.7 51.5 C 13.7 51.5 13.7 52.1 13.7 52.1 C 13 52.6 12.2 52.9 11.4 52.9 C 9.6 52.9 8.4 51.6 8.4 49.6 C 8.4 47.6 9.8 46.3 11.3 46.3 C 12.7 46.3 13.9 47.4 13.9 49.5 C 13.9 49.6 13.9 49.7 13.9 49.8 Z M 13.4 49.3 C 13.4 47.6 12.4 46.8 11.3 46.8 C 10.1 46.8 9 47.8 8.9 49.3 C 8.9 49.3 13.4 49.3 13.4 49.3 Z M 15.7 46.4 L 16.2 46.4 L 16.2 47.6 C 16.2 47.6 16.21 47.62 16.2 47.6 C 16.6 46.7 17.4 46.4 18.1 46.4 C 18.2 46.4 18.4 46.4 18.5 46.4 C 18.5 46.4 18.5 46.9 18.5 46.9 C 18.4 46.9 18.2 46.9 18.1 46.9 C 17.2 46.9 16.3 47.5 16.2 48.8 C 16.25 48.77 16.2 52.8 16.2 52.8 L 15.7 52.8 L 15.7 46.4 Z M 25.2 49.6 C 25.2 47.7 26.6 46.3 28.3 46.3 C 29.9 46.3 31.3 47.7 31.3 49.6 C 31.3 51.6 29.9 52.9 28.3 52.9 C 26.6 52.9 25.2 51.6 25.2 49.6 Z M 30.8 49.6 C 30.8 47.8 29.6 46.8 28.3 46.8 C 27 46.8 25.7 47.8 25.7 49.6 C 25.7 51.4 27 52.4 28.3 52.4 C 29.6 52.4 30.8 51.4 30.8 49.6 Z M 36.1 45.3 L 35.7 45.3 L 34.1 43.4 L 34.7 43.4 L 36.1 45.3 Z M 33 50.5 C 33.04 50.48 33 46.4 33 46.4 L 33.5 46.4 C 33.5 46.4 33.54 50.51 33.5 50.5 C 33.5 51.7 34.3 52.4 35.4 52.4 C 36.6 52.4 37.3 51.7 37.3 50.5 C 37.34 50.5 37.3 46.4 37.3 46.4 L 37.8 46.4 C 37.8 46.4 37.84 50.47 37.8 50.5 C 37.8 51.9 36.9 52.9 35.4 52.9 C 34 52.9 33 51.9 33 50.5 Z M 46.1 44.1 C 46.1 43.9 46.3 43.7 46.5 43.7 C 46.7 43.7 46.9 43.9 46.9 44.1 C 46.9 44.3 46.7 44.5 46.5 44.5 C 46.3 44.5 46.1 44.3 46.1 44.1 Z M 46.2 46.4 L 46.7 46.4 L 46.7 52.8 L 46.2 52.8 L 46.2 46.4 Z M 49.1 43.3 L 49.6 43.3 L 49.6 52.8 L 49.1 52.8 L 49.1 43.3 Z M 58.1 43.3 L 58.6 43.3 L 58.6 52.8 L 58.1 52.8 L 58.1 43.3 Z M 61.1 44.3 C 61.12 44.33 61.1 43.9 61.1 43.9 L 61.6 43.9 C 61.6 43.9 61.62 44.32 61.6 44.3 C 61.6 45.3 61.2 46.3 61 46.9 C 61 46.9 60.6 46.9 60.6 46.9 C 60.8 46.3 61.1 45.3 61.1 44.3 Z M 68.3 49.8 C 68.3 49.8 63.2 49.8 63.2 49.8 C 63.3 51.4 64.3 52.4 65.8 52.4 C 66.5 52.4 67.4 52.2 68 51.5 C 68 51.5 68 52.1 68 52.1 C 67.4 52.6 66.6 52.9 65.7 52.9 C 64 52.9 62.7 51.6 62.7 49.6 C 62.7 47.6 64.1 46.3 65.7 46.3 C 67.1 46.3 68.3 47.4 68.3 49.5 C 68.3 49.6 68.3 49.7 68.3 49.8 Z M 67.8 49.3 C 67.8 47.6 66.7 46.8 65.7 46.8 C 64.5 46.8 63.3 47.8 63.2 49.3 C 63.2 49.3 67.8 49.3 67.8 49.3 Z M 74.9 48.6 C 74.88 48.56 74.9 52.8 74.9 52.8 L 74.4 52.8 C 74.4 52.8 74.38 48.77 74.4 48.8 C 74.4 47.5 73.7 46.8 72.6 46.8 C 71.5 46.8 70.6 47.5 70.6 48.7 C 70.6 48.71 70.6 52.8 70.6 52.8 L 70.1 52.8 L 70.1 46.4 L 70.5 46.4 L 70.5 47.6 C 70.5 47.6 70.56 47.56 70.6 47.6 C 70.9 46.8 71.7 46.3 72.6 46.3 C 74 46.3 74.9 47.2 74.9 48.6 Z M 77.7 46.4 L 79.6 46.4 L 79.6 46.9 L 77.7 46.9 C 77.7 46.9 77.7 50.8 77.7 50.8 C 77.7 52 78.3 52.4 79.2 52.4 C 79.4 52.4 79.6 52.4 79.8 52.4 C 79.8 52.4 79.8 52.8 79.8 52.8 C 79.7 52.8 79.5 52.9 79.2 52.9 C 78 52.9 77.2 52.2 77.2 50.8 C 77.2 50.82 77.2 46.9 77.2 46.9 L 76.2 46.9 L 76.2 46.4 L 77.2 46.4 L 77.2 44.9 L 77.7 44.9 L 77.7 46.4 Z M 86.2 49.8 C 86.2 49.8 81.1 49.8 81.1 49.8 C 81.2 51.4 82.2 52.4 83.7 52.4 C 84.4 52.4 85.2 52.2 85.9 51.5 C 85.9 51.5 85.9 52.1 85.9 52.1 C 85.3 52.6 84.5 52.9 83.6 52.9 C 81.9 52.9 80.6 51.6 80.6 49.6 C 80.6 47.6 82 46.3 83.6 46.3 C 85 46.3 86.2 47.4 86.2 49.5 C 86.2 49.6 86.2 49.7 86.2 49.8 Z M 85.7 49.3 C 85.7 47.6 84.6 46.8 83.6 46.8 C 82.3 46.8 81.2 47.8 81.1 49.3 C 81.1 49.3 85.7 49.3 85.7 49.3 Z M 92.8 48.6 C 92.77 48.56 92.8 52.8 92.8 52.8 L 92.3 52.8 C 92.3 52.8 92.27 48.77 92.3 48.8 C 92.3 47.5 91.6 46.8 90.5 46.8 C 89.4 46.8 88.5 47.5 88.5 48.7 C 88.49 48.71 88.5 52.8 88.5 52.8 L 88 52.8 L 88 46.4 L 88.4 46.4 L 88.4 47.6 C 88.4 47.6 88.45 47.56 88.5 47.6 C 88.8 46.8 89.6 46.3 90.5 46.3 C 91.9 46.3 92.8 47.2 92.8 48.6 Z M 94.5 49.6 C 94.5 47.6 95.9 46.3 97.4 46.3 C 98.4 46.3 99.5 46.9 99.9 48 C 99.9 47.98 99.9 43.3 99.9 43.3 L 100.4 43.3 L 100.4 52.8 L 100 52.8 L 99.9 51.2 C 99.9 51.2 99.92 51.19 99.9 51.2 C 99.5 52.4 98.4 52.9 97.4 52.9 C 95.9 52.9 94.5 51.6 94.5 49.6 Z M 99.9 49.6 C 99.9 47.9 98.8 46.8 97.5 46.8 C 96.2 46.8 95 47.9 95 49.6 C 95 51.3 96.2 52.4 97.5 52.4 C 98.8 52.4 99.9 51.3 99.9 49.6 Z M 102.4 52.4 C 102.4 52.1 102.6 51.9 102.9 51.9 C 103.2 51.9 103.4 52.1 103.4 52.4 C 103.4 52.6 103.2 52.8 102.9 52.8 C 102.6 52.8 102.4 52.6 102.4 52.4 Z M 111.9 43.9 L 116.2 43.9 L 116.2 44.4 L 112.4 44.4 L 112.4 48 L 116 48 L 116 48.5 L 112.4 48.5 L 112.4 52.3 L 116.2 52.3 L 116.2 52.8 L 111.9 52.8 L 111.9 43.9 Z M 118.3 43.3 L 118.8 43.3 L 118.8 52.8 L 118.3 52.8 L 118.3 43.3 Z M 121.2 43.3 L 121.7 43.3 L 121.7 52.8 L 121.2 52.8 L 121.2 43.3 Z M 129.1 49.8 C 129.1 49.8 124.1 49.8 124.1 49.8 C 124.2 51.4 125.2 52.4 126.6 52.4 C 127.4 52.4 128.2 52.2 128.9 51.5 C 128.9 51.5 128.9 52.1 128.9 52.1 C 128.2 52.6 127.4 52.9 126.6 52.9 C 124.8 52.9 123.6 51.6 123.6 49.6 C 123.6 47.6 125 46.3 126.5 46.3 C 127.9 46.3 129.1 47.4 129.1 49.5 C 129.1 49.6 129.1 49.7 129.1 49.8 Z M 128.6 49.3 C 128.6 47.6 127.6 46.8 126.5 46.8 C 125.3 46.8 124.2 47.8 124.1 49.3 C 124.1 49.3 128.6 49.3 128.6 49.3 Z M 137.1 46.4 L 137.5 46.4 C 137.5 46.4 137.57 48.04 137.6 48 C 138 46.9 139.1 46.3 140.1 46.3 C 141.6 46.3 143 47.6 143 49.6 C 143 51.6 141.6 52.9 140.1 52.9 C 139.1 52.9 138 52.3 137.6 51.3 C 137.61 51.25 137.6 55.4 137.6 55.4 L 137.1 55.4 L 137.1 46.4 Z M 142.5 49.6 C 142.5 47.9 141.4 46.8 140 46.8 C 138.7 46.8 137.6 47.9 137.6 49.6 C 137.6 51.3 138.7 52.4 140 52.4 C 141.4 52.4 142.5 51.3 142.5 49.6 Z M 149.9 49.8 C 149.9 49.8 144.9 49.8 144.9 49.8 C 145 51.4 146 52.4 147.4 52.4 C 148.2 52.4 149 52.2 149.7 51.5 C 149.7 51.5 149.7 52.1 149.7 52.1 C 149 52.6 148.2 52.9 147.4 52.9 C 145.6 52.9 144.4 51.6 144.4 49.6 C 144.4 47.6 145.8 46.3 147.3 46.3 C 148.7 46.3 150 47.4 150 49.5 C 150 49.6 149.9 49.7 149.9 49.8 Z M 149.5 49.3 C 149.4 47.6 148.4 46.8 147.3 46.8 C 146.1 46.8 145 47.8 144.9 49.3 C 144.9 49.3 149.5 49.3 149.5 49.3 Z M 151.7 50.5 C 151.68 50.48 151.7 46.4 151.7 46.4 L 152.2 46.4 C 152.2 46.4 152.18 50.51 152.2 50.5 C 152.2 51.7 152.9 52.4 154.1 52.4 C 155.2 52.4 156 51.7 156 50.5 C 155.97 50.5 156 46.4 156 46.4 L 156.5 46.4 C 156.5 46.4 156.47 50.47 156.5 50.5 C 156.5 51.9 155.5 52.9 154.1 52.9 C 152.6 52.9 151.7 51.9 151.7 50.5 Z M 159.4 46.4 L 161.3 46.4 L 161.3 46.9 L 159.4 46.9 C 159.4 46.9 159.35 50.8 159.4 50.8 C 159.4 52 160 52.4 160.9 52.4 C 161.1 52.4 161.2 52.4 161.4 52.4 C 161.4 52.4 161.4 52.8 161.4 52.8 C 161.4 52.8 161.1 52.9 160.8 52.9 C 159.7 52.9 158.9 52.2 158.9 50.8 C 158.85 50.82 158.9 46.9 158.9 46.9 L 157.9 46.9 L 157.9 46.4 L 158.9 46.4 L 158.9 44.9 L 159.4 44.9 L 159.4 46.4 Z " stroke="none" fill="#000"/>
  </g>
  <g id="Polygon31280">
    <path d="M 1.8 32 L 3.7 32 L 3.7 32.5 L 1.8 32.5 C 1.8 32.5 1.82 36.4 1.8 36.4 C 1.8 37.6 2.5 38 3.4 38 C 3.5 38 3.7 38 3.9 38 C 3.9 38 3.9 38.4 3.9 38.4 C 3.8 38.4 3.6 38.5 3.3 38.5 C 2.1 38.5 1.3 37.8 1.3 36.4 C 1.32 36.42 1.3 32.5 1.3 32.5 L 0.3 32.5 L 0.3 32 L 1.3 32 L 1.3 30.5 L 1.8 30.5 L 1.8 32 Z M 10.3 35.4 C 10.3 35.4 5.2 35.4 5.2 35.4 C 5.3 37 6.3 38 7.8 38 C 8.6 38 9.4 37.8 10.1 37.1 C 10.1 37.1 10.1 37.7 10.1 37.7 C 9.4 38.2 8.6 38.5 7.8 38.5 C 6 38.5 4.7 37.2 4.7 35.2 C 4.7 33.2 6.1 31.9 7.7 31.9 C 9.1 31.9 10.3 33 10.3 35.1 C 10.3 35.2 10.3 35.3 10.3 35.4 Z M 9.8 34.9 C 9.8 33.2 8.8 32.4 7.7 32.4 C 6.5 32.4 5.4 33.4 5.2 34.9 C 5.2 34.9 9.8 34.9 9.8 34.9 Z M 12.1 32 L 12.5 32 L 12.6 33.2 C 12.6 33.2 12.58 33.22 12.6 33.2 C 13 32.3 13.8 32 14.5 32 C 14.6 32 14.7 32 14.8 32 C 14.8 32 14.8 32.5 14.8 32.5 C 14.7 32.5 14.6 32.5 14.5 32.5 C 13.6 32.5 12.6 33.1 12.6 34.4 C 12.61 34.37 12.6 38.4 12.6 38.4 L 12.1 38.4 L 12.1 32 Z M 19.5 35.2 C 19.5 33.2 20.9 31.9 22.4 31.9 C 23.4 31.9 24.4 32.5 24.9 33.6 C 24.86 33.58 24.9 28.9 24.9 28.9 L 25.4 28.9 L 25.4 38.4 L 25 38.4 L 24.9 36.8 C 24.9 36.8 24.88 36.79 24.9 36.8 C 24.4 38 23.4 38.5 22.4 38.5 C 20.9 38.5 19.5 37.2 19.5 35.2 Z M 24.9 35.2 C 24.9 33.5 23.8 32.4 22.4 32.4 C 21.1 32.4 20 33.5 20 35.2 C 20 36.9 21.1 38 22.4 38 C 23.8 38 24.9 36.9 24.9 35.2 Z M 32.8 35.4 C 32.8 35.4 27.7 35.4 27.7 35.4 C 27.8 37 28.8 38 30.3 38 C 31 38 31.8 37.8 32.5 37.1 C 32.5 37.1 32.5 37.7 32.5 37.7 C 31.9 38.2 31.1 38.5 30.2 38.5 C 28.4 38.5 27.2 37.2 27.2 35.2 C 27.2 33.2 28.6 31.9 30.1 31.9 C 31.6 31.9 32.8 33 32.8 35.1 C 32.8 35.2 32.8 35.3 32.8 35.4 Z M 32.3 34.9 C 32.2 33.2 31.2 32.4 30.1 32.4 C 28.9 32.4 27.8 33.4 27.7 34.9 C 27.7 34.9 32.3 34.9 32.3 34.9 Z M 42.2 32.5 C 42.2 32.5 42.2 33 42.2 33 C 41.7 32.7 41.1 32.4 40.4 32.4 C 39.4 32.4 38.8 32.9 38.8 33.6 C 38.8 34.3 39.5 34.6 40.5 34.9 C 41.5 35.3 42.5 35.6 42.5 36.7 C 42.5 37.8 41.6 38.5 40.3 38.5 C 39.6 38.5 38.8 38.3 38.2 37.8 C 38.2 37.8 38.2 37.1 38.2 37.1 C 38.7 37.7 39.5 38 40.3 38 C 41.3 38 42 37.5 42 36.7 C 42 36 41.3 35.7 40.2 35.3 C 39.2 35 38.3 34.7 38.3 33.6 C 38.3 32.6 39.1 31.9 40.4 31.9 C 41 31.9 41.7 32.1 42.2 32.5 Z M 43.8 35.2 C 43.8 33.2 45.2 31.9 46.7 31.9 C 47.7 31.9 48.7 32.5 49.2 33.6 C 49.2 33.62 49.3 32 49.3 32 L 49.7 32 L 49.7 38.4 L 49.3 38.4 C 49.3 38.4 49.2 36.8 49.2 36.8 C 48.7 38 47.7 38.5 46.7 38.5 C 45.2 38.5 43.8 37.2 43.8 35.2 Z M 49.2 35.2 C 49.2 33.5 48.1 32.4 46.7 32.4 C 45.4 32.4 44.3 33.5 44.3 35.2 C 44.3 36.9 45.4 38 46.7 38 C 48.1 38 49.2 36.9 49.2 35.2 Z M 63.7 34.1 C 63.72 34.08 63.7 38.4 63.7 38.4 L 63.2 38.4 C 63.2 38.4 63.22 34.13 63.2 34.1 C 63.2 33.1 62.7 32.4 61.7 32.4 C 60.7 32.4 60.1 33.2 60.1 34.1 C 60.11 34.14 60.1 38.4 60.1 38.4 L 59.6 38.4 C 59.6 38.4 59.6 34.13 59.6 34.1 C 59.6 33.1 59.1 32.4 58.1 32.4 C 57.1 32.4 56.5 33.2 56.5 34.2 C 56.5 34.16 56.5 38.4 56.5 38.4 L 56 38.4 L 56 32 L 56.4 32 L 56.4 33.1 C 56.4 33.1 56.46 33.08 56.5 33.1 C 56.7 32.4 57.4 31.9 58.2 31.9 C 59.1 31.9 59.7 32.4 60 33.2 C 60.2 32.4 60.9 31.9 61.8 31.9 C 63.1 31.9 63.7 32.8 63.7 34.1 Z M 65.5 35.2 C 65.5 33.3 66.8 31.9 68.5 31.9 C 70.2 31.9 71.6 33.3 71.6 35.2 C 71.6 37.2 70.2 38.5 68.5 38.5 C 66.9 38.5 65.5 37.2 65.5 35.2 Z M 71.1 35.2 C 71.1 33.4 69.8 32.4 68.5 32.4 C 67.2 32.4 66 33.4 66 35.2 C 66 37 67.2 38 68.5 38 C 69.8 38 71.1 37 71.1 35.2 Z M 72.9 35.2 C 72.9 33.2 74.3 31.9 75.8 31.9 C 76.8 31.9 77.9 32.5 78.3 33.6 C 78.31 33.58 78.3 28.9 78.3 28.9 L 78.8 28.9 L 78.8 38.4 L 78.4 38.4 L 78.3 36.8 C 78.3 36.8 78.34 36.79 78.3 36.8 C 77.9 38 76.9 38.5 75.8 38.5 C 74.3 38.5 72.9 37.2 72.9 35.2 Z M 78.3 35.2 C 78.3 33.5 77.2 32.4 75.9 32.4 C 74.6 32.4 73.4 33.5 73.4 35.2 C 73.4 36.9 74.6 38 75.9 38 C 77.2 38 78.3 36.9 78.3 35.2 Z M 81 36.1 C 81.01 36.08 81 32 81 32 L 81.5 32 C 81.5 32 81.51 36.11 81.5 36.1 C 81.5 37.3 82.2 38 83.4 38 C 84.6 38 85.3 37.3 85.3 36.1 C 85.31 36.1 85.3 32 85.3 32 L 85.8 32 C 85.8 32 85.81 36.07 85.8 36.1 C 85.8 37.5 84.9 38.5 83.4 38.5 C 81.9 38.5 81 37.5 81 36.1 Z M 88 28.9 L 88.5 28.9 L 88.5 38.4 L 88 38.4 L 88 28.9 Z M 90.4 35.2 C 90.4 33.2 91.8 31.9 93.3 31.9 C 94.3 31.9 95.4 32.5 95.8 33.6 C 95.82 33.62 95.9 32 95.9 32 L 96.3 32 L 96.3 38.4 L 95.9 38.4 C 95.9 38.4 95.82 36.8 95.8 36.8 C 95.4 38 94.3 38.5 93.3 38.5 C 91.8 38.5 90.4 37.2 90.4 35.2 Z M 95.8 35.2 C 95.8 33.5 94.7 32.4 93.4 32.4 C 92 32.4 90.9 33.5 90.9 35.2 C 90.9 36.9 92.1 38 93.4 38 C 94.7 38 95.8 36.9 95.8 35.2 Z M 98.6 32 L 99 32 L 99 33.2 C 99 33.2 99.03 33.22 99 33.2 C 99.4 32.3 100.3 32 100.9 32 C 101.1 32 101.2 32 101.3 32 C 101.3 32 101.3 32.5 101.3 32.5 C 101.2 32.5 101.1 32.5 100.9 32.5 C 100 32.5 99.1 33.1 99.1 34.4 C 99.07 34.37 99.1 38.4 99.1 38.4 L 98.6 38.4 L 98.6 32 Z M 102.5 29.7 C 102.5 29.5 102.7 29.3 102.9 29.3 C 103.2 29.3 103.3 29.5 103.3 29.7 C 103.3 29.9 103.2 30.1 102.9 30.1 C 102.7 30.1 102.5 29.9 102.5 29.7 Z M 102.7 32 L 103.2 32 L 103.2 38.4 L 102.7 38.4 L 102.7 32 Z M 106.2 32 L 108.1 32 L 108.1 32.5 L 106.2 32.5 C 106.2 32.5 106.17 36.4 106.2 36.4 C 106.2 37.6 106.8 38 107.7 38 C 107.9 38 108.1 38 108.3 38 C 108.3 38 108.3 38.4 108.3 38.4 C 108.2 38.4 107.9 38.5 107.7 38.5 C 106.5 38.5 105.7 37.8 105.7 36.4 C 105.67 36.42 105.7 32.5 105.7 32.5 L 104.7 32.5 L 104.7 32 L 105.7 32 L 105.7 30.5 L 106.2 30.5 L 106.2 32 Z M 111.8 30.9 L 111.3 30.9 L 112.8 29 L 113.4 29 L 111.8 30.9 Z M 114.6 35.4 C 114.6 35.4 109.6 35.4 109.6 35.4 C 109.7 37 110.7 38 112.1 38 C 112.9 38 113.7 37.8 114.4 37.1 C 114.4 37.1 114.4 37.7 114.4 37.7 C 113.7 38.2 112.9 38.5 112.1 38.5 C 110.3 38.5 109.1 37.2 109.1 35.2 C 109.1 33.2 110.5 31.9 112 31.9 C 113.4 31.9 114.7 33 114.7 35.1 C 114.7 35.2 114.6 35.3 114.6 35.4 Z M 114.2 34.9 C 114.1 33.2 113.1 32.4 112 32.4 C 110.8 32.4 109.7 33.4 109.6 34.9 C 109.6 34.9 114.2 34.9 114.2 34.9 Z M 124 30.9 L 123.5 30.9 L 121.9 29 L 122.5 29 L 124 30.9 Z M 120.1 35.2 C 120.1 33.2 121.5 31.9 123 31.9 C 124 31.9 125 32.5 125.5 33.6 C 125.46 33.62 125.5 32 125.5 32 L 125.9 32 L 125.9 38.4 L 125.5 38.4 C 125.5 38.4 125.46 36.8 125.5 36.8 C 125 38 124 38.5 123 38.5 C 121.5 38.5 120.1 37.2 120.1 35.2 Z M 125.5 35.2 C 125.5 33.5 124.3 32.4 123 32.4 C 121.7 32.4 120.6 33.5 120.6 35.2 C 120.6 36.9 121.7 38 123 38 C 124.3 38 125.5 36.9 125.5 35.2 Z M 132.3 28.9 L 132.8 28.9 L 132.8 38.4 L 132.3 38.4 L 132.3 28.9 Z M 135.3 29.9 C 135.31 29.93 135.3 29.5 135.3 29.5 L 135.8 29.5 C 135.8 29.5 135.81 29.92 135.8 29.9 C 135.8 30.9 135.4 31.9 135.2 32.5 C 135.2 32.5 134.8 32.5 134.8 32.5 C 135 31.9 135.3 30.9 135.3 29.9 Z M 137.6 36.1 C 137.64 36.08 137.6 32 137.6 32 L 138.1 32 C 138.1 32 138.14 36.11 138.1 36.1 C 138.1 37.3 138.9 38 140 38 C 141.2 38 141.9 37.3 141.9 36.1 C 141.93 36.1 141.9 32 141.9 32 L 142.4 32 C 142.4 32 142.43 36.07 142.4 36.1 C 142.4 37.5 141.5 38.5 140 38.5 C 138.5 38.5 137.6 37.5 137.6 36.1 Z M 148.2 32.5 C 148.2 32.5 148.2 33 148.2 33 C 147.7 32.7 147.1 32.4 146.4 32.4 C 145.4 32.4 144.8 32.9 144.8 33.6 C 144.8 34.3 145.5 34.6 146.5 34.9 C 147.5 35.3 148.5 35.6 148.5 36.7 C 148.5 37.8 147.6 38.5 146.3 38.5 C 145.6 38.5 144.8 38.3 144.2 37.8 C 144.2 37.8 144.2 37.1 144.2 37.1 C 144.7 37.7 145.5 38 146.3 38 C 147.3 38 148 37.5 148 36.7 C 148 36 147.3 35.7 146.3 35.3 C 145.2 35 144.3 34.7 144.3 33.6 C 144.3 32.6 145.1 31.9 146.4 31.9 C 147 31.9 147.7 32.1 148.2 32.5 Z M 149.8 35.2 C 149.8 33.2 151.2 31.9 152.7 31.9 C 153.7 31.9 154.7 32.5 155.2 33.6 C 155.2 33.62 155.3 32 155.3 32 L 155.7 32 L 155.7 38.4 L 155.3 38.4 C 155.3 38.4 155.2 36.8 155.2 36.8 C 154.7 38 153.7 38.5 152.7 38.5 C 151.2 38.5 149.8 37.2 149.8 35.2 Z M 155.2 35.2 C 155.2 33.5 154.1 32.4 152.7 32.4 C 151.4 32.4 150.3 33.5 150.3 35.2 C 150.3 36.9 151.4 38 152.8 38 C 154.1 38 155.2 36.9 155.2 35.2 Z M 157.8 34.5 L 160.6 34.5 L 160.6 35 L 157.8 35 L 157.8 34.5 Z " stroke="none" fill="#000"/>
  </g>
  <g id="Polygon31279">
    <path d="M 0.7 20.8 C 0.7 18.8 2.1 17.5 3.6 17.5 C 4.6 17.5 5.6 18.1 6.1 19.2 C 6.07 19.18 6.1 14.5 6.1 14.5 L 6.6 14.5 L 6.6 24 L 6.2 24 L 6.1 22.4 C 6.1 22.4 6.1 22.39 6.1 22.4 C 5.6 23.6 4.6 24.1 3.6 24.1 C 2.1 24.1 0.7 22.8 0.7 20.8 Z M 6.1 20.8 C 6.1 19.1 5 18 3.6 18 C 2.3 18 1.2 19.1 1.2 20.8 C 1.2 22.5 2.3 23.6 3.6 23.6 C 5 23.6 6.1 22.5 6.1 20.8 Z M 14 21 C 14 21 8.9 21 8.9 21 C 9 22.6 10 23.6 11.5 23.6 C 12.2 23.6 13.1 23.4 13.7 22.7 C 13.7 22.7 13.7 23.3 13.7 23.3 C 13.1 23.8 12.3 24.1 11.4 24.1 C 9.7 24.1 8.4 22.8 8.4 20.8 C 8.4 18.8 9.8 17.5 11.4 17.5 C 12.8 17.5 14 18.6 14 20.7 C 14 20.8 14 20.9 14 21 Z M 13.5 20.5 C 13.5 18.8 12.4 18 11.4 18 C 10.2 18 9 19 8.9 20.5 C 8.9 20.5 13.5 20.5 13.5 20.5 Z M 15.7 21.7 C 15.71 21.68 15.7 17.6 15.7 17.6 L 16.2 17.6 C 16.2 17.6 16.21 21.71 16.2 21.7 C 16.2 22.9 16.9 23.6 18.1 23.6 C 19.3 23.6 20 22.9 20 21.7 C 20 21.7 20 17.6 20 17.6 L 20.5 17.6 C 20.5 17.6 20.51 21.67 20.5 21.7 C 20.5 23.1 19.6 24.1 18.1 24.1 C 16.6 24.1 15.7 23.1 15.7 21.7 Z M 26.3 18.1 C 26.3 18.1 26.3 18.6 26.3 18.6 C 25.8 18.3 25.1 18 24.4 18 C 23.5 18 22.9 18.5 22.9 19.2 C 22.9 19.9 23.5 20.2 24.5 20.5 C 25.6 20.9 26.6 21.2 26.6 22.3 C 26.6 23.4 25.7 24.1 24.4 24.1 C 23.7 24.1 22.9 23.9 22.3 23.4 C 22.3 23.4 22.3 22.7 22.3 22.7 C 22.8 23.3 23.6 23.6 24.4 23.6 C 25.4 23.6 26.1 23.1 26.1 22.3 C 26.1 21.6 25.3 21.3 24.3 20.9 C 23.3 20.6 22.4 20.3 22.4 19.2 C 22.4 18.2 23.2 17.5 24.4 17.5 C 25.1 17.5 25.8 17.7 26.3 18.1 Z M 33.4 21 C 33.4 21 28.4 21 28.4 21 C 28.5 22.6 29.5 23.6 30.9 23.6 C 31.7 23.6 32.5 23.4 33.2 22.7 C 33.2 22.7 33.2 23.3 33.2 23.3 C 32.5 23.8 31.7 24.1 30.9 24.1 C 29.1 24.1 27.9 22.8 27.9 20.8 C 27.9 18.8 29.3 17.5 30.8 17.5 C 32.2 17.5 33.5 18.6 33.5 20.7 C 33.5 20.8 33.4 20.9 33.4 21 Z M 33 20.5 C 32.9 18.8 31.9 18 30.8 18 C 29.6 18 28.5 19 28.4 20.5 C 28.4 20.5 33 20.5 33 20.5 Z M 35.2 23 C 35.17 23.04 35.2 22.6 35.2 22.6 L 35.7 22.6 C 35.7 22.6 35.67 23.03 35.7 23 C 35.7 24 35.3 25 35 25.6 C 35 25.6 34.6 25.6 34.6 25.6 C 34.9 25 35.2 24 35.2 23 Z M 43.7 23.6 C 44.2 23.6 44.8 23.5 45.4 23.1 C 45.4 23.1 45.4 23.7 45.4 23.7 C 44.9 24 44.3 24.1 43.7 24.1 C 41.9 24.1 40.6 22.7 40.6 20.8 C 40.6 18.9 41.9 17.5 43.7 17.5 C 44.2 17.5 44.8 17.6 45.4 18 C 45.4 18 45.4 18.5 45.4 18.5 C 44.8 18.1 44.2 18 43.6 18 C 42.3 18 41.1 19.1 41.1 20.8 C 41.1 22.5 42.3 23.6 43.7 23.6 Z M 52.1 21 C 52.1 21 47.1 21 47.1 21 C 47.1 22.6 48.2 23.6 49.6 23.6 C 50.4 23.6 51.2 23.4 51.9 22.7 C 51.9 22.7 51.9 23.3 51.9 23.3 C 51.2 23.8 50.4 24.1 49.6 24.1 C 47.8 24.1 46.6 22.8 46.6 20.8 C 46.6 18.8 48 17.5 49.5 17.5 C 50.9 17.5 52.1 18.6 52.1 20.7 C 52.1 20.8 52.1 20.9 52.1 21 Z M 51.6 20.5 C 51.6 18.8 50.6 18 49.5 18 C 48.3 18 47.2 19 47.1 20.5 C 47.1 20.5 51.6 20.5 51.6 20.5 Z M 54.6 17.6 L 56.5 17.6 L 56.5 18.1 L 54.6 18.1 C 54.6 18.1 54.56 22 54.6 22 C 54.6 23.2 55.2 23.6 56.1 23.6 C 56.3 23.6 56.4 23.6 56.6 23.6 C 56.6 23.6 56.6 24 56.6 24 C 56.6 24 56.3 24.1 56 24.1 C 54.9 24.1 54.1 23.4 54.1 22 C 54.06 22.02 54.1 18.1 54.1 18.1 L 53.1 18.1 L 53.1 17.6 L 54.1 17.6 L 54.1 16.1 L 54.6 16.1 L 54.6 17.6 Z M 58.7 17.6 L 60.6 17.6 L 60.6 18.1 L 58.7 18.1 C 58.7 18.1 58.67 22 58.7 22 C 58.7 23.2 59.3 23.6 60.2 23.6 C 60.4 23.6 60.6 23.6 60.8 23.6 C 60.8 23.6 60.8 24 60.8 24 C 60.7 24 60.4 24.1 60.2 24.1 C 59 24.1 58.2 23.4 58.2 22 C 58.17 22.02 58.2 18.1 58.2 18.1 L 57.2 18.1 L 57.2 17.6 L 58.2 17.6 L 58.2 16.1 L 58.7 16.1 L 58.7 17.6 Z M 67.1 21 C 67.1 21 62.1 21 62.1 21 C 62.2 22.6 63.2 23.6 64.6 23.6 C 65.4 23.6 66.2 23.4 66.9 22.7 C 66.9 22.7 66.9 23.3 66.9 23.3 C 66.2 23.8 65.4 24.1 64.6 24.1 C 62.8 24.1 61.6 22.8 61.6 20.8 C 61.6 18.8 63 17.5 64.5 17.5 C 65.9 17.5 67.2 18.6 67.2 20.7 C 67.2 20.8 67.1 20.9 67.1 21 Z M 66.7 20.5 C 66.6 18.8 65.6 18 64.5 18 C 63.3 18 62.2 19 62.1 20.5 C 62.1 20.5 66.7 20.5 66.7 20.5 Z M 72.2 14.5 L 72.7 14.5 L 72.7 24 L 72.2 24 L 72.2 14.5 Z M 74.6 20.8 C 74.6 18.8 76 17.5 77.5 17.5 C 78.5 17.5 79.5 18.1 80 19.2 C 79.98 19.22 80.1 17.6 80.1 17.6 L 80.5 17.6 L 80.5 24 L 80.1 24 C 80.1 24 79.98 22.4 80 22.4 C 79.5 23.6 78.5 24.1 77.5 24.1 C 76 24.1 74.6 22.8 74.6 20.8 Z M 80 20.8 C 80 19.1 78.9 18 77.5 18 C 76.2 18 75.1 19.1 75.1 20.8 C 75.1 22.5 76.2 23.6 77.5 23.6 C 78.8 23.6 80 22.5 80 20.8 Z M 90.5 19.7 C 90.46 19.68 90.5 24 90.5 24 L 90 24 C 90 24 89.96 19.73 90 19.7 C 90 18.7 89.5 18 88.5 18 C 87.5 18 86.8 18.8 86.8 19.7 C 86.85 19.74 86.8 24 86.8 24 L 86.3 24 C 86.3 24 86.34 19.73 86.3 19.7 C 86.3 18.7 85.8 18 84.8 18 C 83.8 18 83.2 18.8 83.2 19.8 C 83.23 19.76 83.2 24 83.2 24 L 82.7 24 L 82.7 17.6 L 83.1 17.6 L 83.2 18.7 C 83.2 18.7 83.2 18.68 83.2 18.7 C 83.5 18 84.1 17.5 84.9 17.5 C 85.9 17.5 86.4 18 86.7 18.8 C 87 18 87.6 17.5 88.5 17.5 C 89.8 17.5 90.5 18.4 90.5 19.7 Z M 92.7 17.6 L 93.1 17.6 C 93.1 17.6 93.13 19.24 93.1 19.2 C 93.6 18.1 94.6 17.5 95.6 17.5 C 97.2 17.5 98.5 18.8 98.5 20.8 C 98.5 22.8 97.2 24.1 95.6 24.1 C 94.6 24.1 93.6 23.5 93.2 22.5 C 93.17 22.45 93.2 26.6 93.2 26.6 L 92.7 26.6 L 92.7 17.6 Z M 98 20.8 C 98 19.1 96.9 18 95.6 18 C 94.3 18 93.1 19.1 93.1 20.8 C 93.1 22.5 94.3 23.6 95.6 23.6 C 96.9 23.6 98 22.5 98 20.8 Z M 105.5 21 C 105.5 21 100.4 21 100.4 21 C 100.5 22.6 101.6 23.6 103 23.6 C 103.8 23.6 104.6 23.4 105.3 22.7 C 105.3 22.7 105.3 23.3 105.3 23.3 C 104.6 23.8 103.8 24.1 103 24.1 C 101.2 24.1 99.9 22.8 99.9 20.8 C 99.9 18.8 101.4 17.5 102.9 17.5 C 104.3 17.5 105.5 18.6 105.5 20.7 C 105.5 20.8 105.5 20.9 105.5 21 Z M 105 20.5 C 105 18.8 104 18 102.9 18 C 101.7 18 100.6 19 100.5 20.5 C 100.5 20.5 105 20.5 105 20.5 Z M 110.8 18.1 L 109.8 18.1 L 109.8 17.6 L 110.8 17.6 C 110.8 17.6 110.76 16.4 110.8 16.4 C 110.8 15.1 111.6 14.4 112.7 14.4 C 113 14.4 113.4 14.5 113.6 14.6 C 113.6 14.6 113.6 15.1 113.6 15.1 C 113.4 15 113 14.9 112.7 14.9 C 111.8 14.9 111.3 15.4 111.3 16.5 C 111.27 16.49 111.3 17.6 111.3 17.6 L 113.2 17.6 L 113.2 18.1 L 111.3 18.1 L 111.3 24 L 110.8 24 L 110.8 18.1 Z M 113.8 20.8 C 113.8 18.8 115.2 17.5 116.7 17.5 C 117.8 17.5 118.8 18.1 119.2 19.2 C 119.24 19.22 119.3 17.6 119.3 17.6 L 119.7 17.6 L 119.7 24 L 119.3 24 C 119.3 24 119.24 22.4 119.2 22.4 C 118.8 23.6 117.8 24.1 116.7 24.1 C 115.2 24.1 113.8 22.8 113.8 20.8 Z M 119.2 20.8 C 119.2 19.1 118.1 18 116.8 18 C 115.5 18 114.3 19.1 114.3 20.8 C 114.3 22.5 115.5 23.6 116.8 23.6 C 118.1 23.6 119.2 22.5 119.2 20.8 Z M 121.9 15.3 C 121.9 15.1 122.1 14.9 122.3 14.9 C 122.5 14.9 122.7 15.1 122.7 15.3 C 122.7 15.5 122.5 15.7 122.3 15.7 C 122.1 15.7 121.9 15.5 121.9 15.3 Z M 122 17.6 L 122.5 17.6 L 122.5 24 L 122 24 L 122 17.6 Z M 125.5 17.6 L 127.4 17.6 L 127.4 18.1 L 125.5 18.1 C 125.5 18.1 125.53 22 125.5 22 C 125.5 23.2 126.2 23.6 127.1 23.6 C 127.2 23.6 127.4 23.6 127.6 23.6 C 127.6 23.6 127.6 24 127.6 24 C 127.5 24 127.3 24.1 127 24.1 C 125.9 24.1 125 23.4 125 22 C 125.03 22.02 125 18.1 125 18.1 L 124 18.1 L 124 17.6 L 125 17.6 L 125 16.1 L 125.5 16.1 L 125.5 17.6 Z M 132.1 17.6 L 132.5 17.6 C 132.5 17.6 132.57 19.24 132.6 19.2 C 133 18.1 134.1 17.5 135.1 17.5 C 136.6 17.5 138 18.8 138 20.8 C 138 22.8 136.6 24.1 135.1 24.1 C 134.1 24.1 133 23.5 132.6 22.5 C 132.61 22.45 132.6 26.6 132.6 26.6 L 132.1 26.6 L 132.1 17.6 Z M 137.5 20.8 C 137.5 19.1 136.4 18 135 18 C 133.7 18 132.6 19.1 132.6 20.8 C 132.6 22.5 133.7 23.6 135 23.6 C 136.4 23.6 137.5 22.5 137.5 20.8 Z M 139.8 17.6 L 140.2 17.6 L 140.3 18.8 C 140.3 18.8 140.29 18.82 140.3 18.8 C 140.7 17.9 141.5 17.6 142.2 17.6 C 142.3 17.6 142.4 17.6 142.6 17.6 C 142.6 17.6 142.6 18.1 142.6 18.1 C 142.4 18.1 142.3 18.1 142.2 18.1 C 141.3 18.1 140.3 18.7 140.3 20 C 140.32 19.97 140.3 24 140.3 24 L 139.8 24 L 139.8 17.6 Z M 143.1 20.8 C 143.1 18.9 144.5 17.5 146.2 17.5 C 147.8 17.5 149.2 18.9 149.2 20.8 C 149.2 22.8 147.8 24.1 146.2 24.1 C 144.5 24.1 143.1 22.8 143.1 20.8 Z M 148.7 20.8 C 148.7 19 147.5 18 146.2 18 C 144.9 18 143.6 19 143.6 20.8 C 143.6 22.6 144.9 23.6 146.2 23.6 C 147.5 23.6 148.7 22.6 148.7 20.8 Z M 151.2 18.1 L 150.2 18.1 L 150.2 17.6 L 151.2 17.6 C 151.2 17.6 151.16 16.4 151.2 16.4 C 151.2 15.1 152 14.4 153.1 14.4 C 153.4 14.4 153.8 14.5 154 14.6 C 154 14.6 154 15.1 154 15.1 C 153.8 15 153.4 14.9 153.1 14.9 C 152.2 14.9 151.7 15.4 151.7 16.5 C 151.67 16.49 151.7 17.6 151.7 17.6 L 153.6 17.6 L 153.6 18.1 L 151.7 18.1 L 151.7 24 L 151.2 24 L 151.2 18.1 Z M 155 15.3 C 155 15.1 155.2 14.9 155.4 14.9 C 155.6 14.9 155.8 15.1 155.8 15.3 C 155.8 15.5 155.6 15.7 155.4 15.7 C 155.2 15.7 155 15.5 155 15.3 Z M 155.1 17.6 L 155.6 17.6 L 155.6 24 L 155.1 24 L 155.1 17.6 Z M 157.8 20.1 L 160.6 20.1 L 160.6 20.6 L 157.8 20.6 L 157.8 20.1 Z " stroke="none" fill="#000"/>
  </g>
  <g id="Polygon31278">
    <path d="M 5.5 1.1 C 5.5 1.1 5.5 1.7 5.5 1.7 C 4.9 1.2 4.1 1 3.5 1 C 2.3 1 1.4 1.7 1.4 2.7 C 1.4 3.7 2.3 4.2 3.6 4.8 C 4.9 5.4 5.9 6 5.9 7.3 C 5.9 8.8 4.7 9.7 3.2 9.7 C 2.2 9.7 1.4 9.4 0.8 8.9 C 0.8 8.9 0.8 8.2 0.8 8.2 C 1.4 8.9 2.3 9.3 3.2 9.3 C 4.4 9.3 5.4 8.5 5.4 7.4 C 5.4 6.3 4.5 5.8 3.2 5.2 C 1.9 4.6 0.9 4.1 0.9 2.8 C 0.9 1.4 2 0.5 3.5 0.5 C 4.2 0.5 4.9 0.8 5.5 1.1 Z M 7.6 7.3 C 7.63 7.28 7.6 3.2 7.6 3.2 L 8.1 3.2 C 8.1 3.2 8.14 7.31 8.1 7.3 C 8.1 8.5 8.9 9.2 10 9.2 C 11.2 9.2 11.9 8.5 11.9 7.3 C 11.93 7.3 11.9 3.2 11.9 3.2 L 12.4 3.2 C 12.4 3.2 12.43 7.27 12.4 7.3 C 12.4 8.7 11.5 9.7 10 9.7 C 8.5 9.7 7.6 8.7 7.6 7.3 Z M 14.6 3.2 L 15 3.2 L 15.1 4.4 C 15.1 4.4 15.1 4.42 15.1 4.4 C 15.5 3.5 16.3 3.2 17 3.2 C 17.1 3.2 17.3 3.2 17.4 3.2 C 17.4 3.2 17.4 3.7 17.4 3.7 C 17.3 3.7 17.1 3.7 17 3.7 C 16.1 3.7 15.1 4.3 15.1 5.6 C 15.13 5.57 15.1 9.6 15.1 9.6 L 14.6 9.6 L 14.6 3.2 Z M 25.1 0.1 L 25.6 0.1 L 25.6 9.6 L 25.1 9.6 L 25.1 0.1 Z M 33 6.6 C 33 6.6 28 6.6 28 6.6 C 28.1 8.2 29.1 9.2 30.5 9.2 C 31.3 9.2 32.1 9 32.8 8.3 C 32.8 8.3 32.8 8.9 32.8 8.9 C 32.1 9.4 31.3 9.7 30.5 9.7 C 28.7 9.7 27.5 8.4 27.5 6.4 C 27.5 4.4 28.9 3.1 30.4 3.1 C 31.8 3.1 33.1 4.2 33.1 6.3 C 33.1 6.4 33 6.5 33 6.6 Z M 32.5 6.1 C 32.5 4.4 31.5 3.6 30.4 3.6 C 29.2 3.6 28.1 4.6 28 6.1 C 28 6.1 32.5 6.1 32.5 6.1 Z M 41.5 3.2 L 41.9 3.2 C 41.9 3.2 41.98 4.84 42 4.8 C 42.5 3.7 43.5 3.1 44.5 3.1 C 46 3.1 47.4 4.4 47.4 6.4 C 47.4 8.4 46 9.7 44.5 9.7 C 43.5 9.7 42.5 9.1 42 8.1 C 42.02 8.05 42 12.2 42 12.2 L 41.5 12.2 L 41.5 3.2 Z M 46.9 6.4 C 46.9 4.7 45.8 3.6 44.5 3.6 C 43.1 3.6 42 4.7 42 6.4 C 42 8.1 43.1 9.2 44.4 9.2 C 45.8 9.2 46.9 8.1 46.9 6.4 Z M 49.2 3.2 L 49.6 3.2 L 49.7 4.4 C 49.7 4.4 49.7 4.42 49.7 4.4 C 50.1 3.5 50.9 3.2 51.6 3.2 C 51.7 3.2 51.9 3.2 52 3.2 C 52 3.2 52 3.7 52 3.7 C 51.9 3.7 51.7 3.7 51.6 3.7 C 50.7 3.7 49.7 4.3 49.7 5.6 C 49.74 5.57 49.7 9.6 49.7 9.6 L 49.2 9.6 L 49.2 3.2 Z M 53.2 0.9 C 53.2 0.7 53.4 0.5 53.6 0.5 C 53.8 0.5 54 0.7 54 0.9 C 54 1.1 53.8 1.3 53.6 1.3 C 53.4 1.3 53.2 1.1 53.2 0.9 Z M 53.3 3.2 L 53.8 3.2 L 53.8 9.6 L 53.3 9.6 L 53.3 3.2 Z M 60.9 5.4 C 60.94 5.36 60.9 9.6 60.9 9.6 L 60.4 9.6 C 60.4 9.6 60.44 5.57 60.4 5.6 C 60.4 4.3 59.8 3.6 58.6 3.6 C 57.5 3.6 56.7 4.3 56.7 5.5 C 56.66 5.51 56.7 9.6 56.7 9.6 L 56.2 9.6 L 56.2 3.2 L 56.6 3.2 L 56.6 4.4 C 56.6 4.4 56.62 4.36 56.6 4.4 C 57 3.6 57.7 3.1 58.7 3.1 C 60.1 3.1 60.9 4 60.9 5.4 Z M 65.8 9.2 C 66.3 9.2 66.9 9.1 67.5 8.7 C 67.5 8.7 67.5 9.3 67.5 9.3 C 67 9.6 66.4 9.7 65.8 9.7 C 64 9.7 62.7 8.3 62.7 6.4 C 62.7 4.5 64 3.1 65.8 3.1 C 66.3 3.1 66.9 3.2 67.5 3.6 C 67.5 3.6 67.5 4.1 67.5 4.1 C 66.9 3.7 66.3 3.6 65.7 3.6 C 64.4 3.6 63.2 4.7 63.2 6.4 C 63.2 8.1 64.4 9.2 65.8 9.2 Z M 69.2 0.9 C 69.2 0.7 69.3 0.5 69.5 0.5 C 69.8 0.5 70 0.7 70 0.9 C 70 1.1 69.8 1.3 69.5 1.3 C 69.3 1.3 69.2 1.1 69.2 0.9 Z M 69.3 3.2 L 69.8 3.2 L 69.8 9.6 L 69.3 9.6 L 69.3 3.2 Z M 72.1 3.2 L 72.5 3.2 C 72.5 3.2 72.58 4.84 72.6 4.8 C 73.1 3.7 74.1 3.1 75.1 3.1 C 76.6 3.1 78 4.4 78 6.4 C 78 8.4 76.6 9.7 75.1 9.7 C 74.1 9.7 73.1 9.1 72.6 8.1 C 72.62 8.05 72.6 12.2 72.6 12.2 L 72.1 12.2 L 72.1 3.2 Z M 77.5 6.4 C 77.5 4.7 76.4 3.6 75.1 3.6 C 73.7 3.6 72.6 4.7 72.6 6.4 C 72.6 8.1 73.7 9.2 75 9.2 C 76.4 9.2 77.5 8.1 77.5 6.4 Z M 84.9 6.6 C 84.9 6.6 79.9 6.6 79.9 6.6 C 80 8.2 81 9.2 82.4 9.2 C 83.2 9.2 84 9 84.7 8.3 C 84.7 8.3 84.7 8.9 84.7 8.9 C 84 9.4 83.3 9.7 82.4 9.7 C 80.6 9.7 79.4 8.4 79.4 6.4 C 79.4 4.4 80.8 3.1 82.3 3.1 C 83.8 3.1 85 4.2 85 6.3 C 85 6.4 85 6.5 84.9 6.6 Z M 84.5 6.1 C 84.4 4.4 83.4 3.6 82.3 3.6 C 81.1 3.6 80 4.6 79.9 6.1 C 79.9 6.1 84.5 6.1 84.5 6.1 Z M 93 6.4 C 93 4.4 94.4 3.1 95.9 3.1 C 96.9 3.1 97.9 3.7 98.4 4.8 C 98.36 4.78 98.4 0.1 98.4 0.1 L 98.9 0.1 L 98.9 9.6 L 98.5 9.6 L 98.4 8 C 98.4 8 98.39 7.99 98.4 8 C 97.9 9.2 96.9 9.7 95.9 9.7 C 94.4 9.7 93 8.4 93 6.4 Z M 98.4 6.4 C 98.4 4.7 97.3 3.6 95.9 3.6 C 94.6 3.6 93.5 4.7 93.5 6.4 C 93.5 8.1 94.6 9.2 95.9 9.2 C 97.3 9.2 98.4 8.1 98.4 6.4 Z M 106.3 6.6 C 106.3 6.6 101.2 6.6 101.2 6.6 C 101.3 8.2 102.3 9.2 103.8 9.2 C 104.5 9.2 105.3 9 106 8.3 C 106 8.3 106 8.9 106 8.9 C 105.4 9.4 104.6 9.7 103.7 9.7 C 102 9.7 100.7 8.4 100.7 6.4 C 100.7 4.4 102.1 3.1 103.7 3.1 C 105.1 3.1 106.3 4.2 106.3 6.3 C 106.3 6.4 106.3 6.5 106.3 6.6 Z M 105.8 6.1 C 105.8 4.4 104.7 3.6 103.7 3.6 C 102.4 3.6 101.3 4.6 101.2 6.1 C 101.2 6.1 105.8 6.1 105.8 6.1 Z M 114.8 0.1 L 115.3 0.1 L 115.3 9.6 L 114.8 9.6 L 114.8 0.1 Z M 117.1 6.4 C 117.1 4.4 118.6 3.1 120.1 3.1 C 121.1 3.1 122.1 3.7 122.6 4.8 C 122.56 4.82 122.6 3.2 122.6 3.2 L 123 3.2 L 123 9.6 L 122.6 9.6 C 122.6 9.6 122.56 8 122.6 8 C 122.1 9.2 121.1 9.7 120.1 9.7 C 118.6 9.7 117.1 8.4 117.1 6.4 Z M 122.5 6.4 C 122.5 4.7 121.4 3.6 120.1 3.6 C 118.8 3.6 117.7 4.7 117.7 6.4 C 117.7 8.1 118.8 9.2 120.1 9.2 C 121.4 9.2 122.5 8.1 122.5 6.4 Z M 132.5 4.8 C 132.9 3.7 133.9 3.1 134.9 3.1 C 136.5 3.1 137.9 4.4 137.9 6.4 C 137.9 8.4 136.4 9.7 134.9 9.7 C 133.9 9.7 132.9 9.2 132.4 8 C 132.44 7.99 132.4 9.6 132.4 9.6 L 132 9.6 L 132 0.1 L 132.5 0.1 C 132.5 0.1 132.47 4.79 132.5 4.8 Z M 132.5 6.4 C 132.5 8.1 133.6 9.2 134.9 9.2 C 136.2 9.2 137.3 8.1 137.3 6.4 C 137.3 4.7 136.2 3.6 134.9 3.6 C 133.6 3.6 132.5 4.7 132.5 6.4 Z M 139.2 6.4 C 139.2 4.4 140.6 3.1 142.1 3.1 C 143.2 3.1 144.2 3.7 144.6 4.8 C 144.64 4.82 144.7 3.2 144.7 3.2 L 145.1 3.2 L 145.1 9.6 L 144.7 9.6 C 144.7 9.6 144.64 8 144.6 8 C 144.2 9.2 143.2 9.7 142.1 9.7 C 140.6 9.7 139.2 8.4 139.2 6.4 Z M 144.6 6.4 C 144.6 4.7 143.5 3.6 142.2 3.6 C 140.9 3.6 139.7 4.7 139.7 6.4 C 139.7 8.1 140.9 9.2 142.2 9.2 C 143.5 9.2 144.6 8.1 144.6 6.4 Z M 147.4 0.1 L 147.9 0.1 L 147.9 9.6 L 147.4 9.6 L 147.4 0.1 Z M 149.8 6.4 C 149.8 4.4 151.2 3.1 152.7 3.1 C 153.7 3.1 154.7 3.7 155.2 4.8 C 155.2 4.82 155.3 3.2 155.3 3.2 L 155.7 3.2 L 155.7 9.6 L 155.3 9.6 C 155.3 9.6 155.2 8 155.2 8 C 154.7 9.2 153.7 9.7 152.7 9.7 C 151.2 9.7 149.8 8.4 149.8 6.4 Z M 155.2 6.4 C 155.2 4.7 154.1 3.6 152.7 3.6 C 151.4 3.6 150.3 4.7 150.3 6.4 C 150.3 8.1 151.4 9.2 152.8 9.2 C 154.1 9.2 155.2 8.1 155.2 6.4 Z M 157.8 5.7 L 160.6 5.7 L 160.6 6.2 L 157.8 6.2 L 157.8 5.7 Z " stroke="none" fill="#000"/>
  </g>
</svg>