<?xml version="1.0" standalone="no"?>
<!DOCTYPE svg PUBLIC "-//W3C//DTD SVG 1.1//EN" "http://www.w3.org/Graphics/SVG/1.1/DTD/svg11.dtd">
<svg xmlns="http://www.w3.org/2000/svg" version="1.1" width="150px" height="157.4px" viewBox="0 0 150 157.4">
  <desc>avons observ que des materiaux plus responsables sont l objet d exp riementations Des essais autour de coques en co</desc>
  <defs/>
  <g id="Polygon18146">
    <path d="M 2 115.3 L 2.5 115.3 L 1.1 124.8 L 0.6 124.8 L 2 115.3 Z M 8.9 124.8 L 8.5 124.8 L 8.6 123.3 C 8.6 123.3 8.62 123.28 8.6 123.3 C 8 124.3 7.1 124.9 6 124.9 C 4.7 124.9 3.4 123.9 3.4 122.1 C 3.4 119.9 5 118.3 6.7 118.3 C 7.8 118.3 8.8 119 9.1 120 C 9.07 120.05 9.1 120 9.1 120 L 9.4 118.4 L 9.8 118.4 L 8.9 124.8 Z M 3.9 122 C 3.9 123.6 5 124.4 6.1 124.4 C 7.7 124.4 8.9 122.8 8.9 121.2 C 8.9 119.7 7.9 118.8 6.7 118.8 C 5.3 118.8 3.9 120.1 3.9 122 Z M 15.1 124.8 L 10.4 124.8 L 15.1 118.9 L 15.1 118.9 L 11.5 118.9 L 11.6 118.4 L 16.1 118.4 L 11.4 124.3 L 15.1 124.3 L 15.1 124.8 Z M 17.1 124.4 C 17.1 124.1 17.3 123.9 17.6 123.9 C 17.8 123.9 18 124.1 18 124.4 C 18 124.6 17.8 124.8 17.6 124.8 C 17.3 124.8 17.1 124.6 17.1 124.4 Z " stroke="none" fill="#000"/>
  </g>
  <g id="Polygon18145">
    <path d="M 8.9 106.1 C 8.87 106.08 8.9 110.4 8.9 110.4 L 8.4 110.4 C 8.4 110.4 8.36 106.13 8.4 106.1 C 8.4 105.1 7.9 104.4 6.9 104.4 C 5.9 104.4 5.3 105.2 5.3 106.1 C 5.26 106.14 5.3 110.4 5.3 110.4 L 4.8 110.4 C 4.8 110.4 4.75 106.13 4.8 106.1 C 4.8 105.1 4.2 104.4 3.3 104.4 C 2.2 104.4 1.6 105.2 1.6 106.2 C 1.64 106.16 1.6 110.4 1.6 110.4 L 1.1 110.4 L 1.1 104 L 1.5 104 L 1.6 105.1 C 1.6 105.1 1.61 105.08 1.6 105.1 C 1.9 104.4 2.5 103.9 3.3 103.9 C 4.3 103.9 4.8 104.4 5.1 105.2 C 5.4 104.4 6 103.9 6.9 103.9 C 8.2 103.9 8.9 104.8 8.9 106.1 Z M 10.6 107.2 C 10.6 105.3 12 103.9 13.7 103.9 C 15.3 103.9 16.7 105.3 16.7 107.2 C 16.7 109.2 15.3 110.5 13.7 110.5 C 12 110.5 10.6 109.2 10.6 107.2 Z M 16.2 107.2 C 16.2 105.4 15 104.4 13.7 104.4 C 12.4 104.4 11.1 105.4 11.1 107.2 C 11.1 109 12.4 110 13.7 110 C 15 110 16.2 109 16.2 107.2 Z M 23.3 106.2 C 23.31 106.16 23.3 110.4 23.3 110.4 L 22.8 110.4 C 22.8 110.4 22.81 106.37 22.8 106.4 C 22.8 105.1 22.2 104.4 21 104.4 C 19.9 104.4 19 105.1 19 106.3 C 19.03 106.31 19 110.4 19 110.4 L 18.5 110.4 L 18.5 104 L 18.9 104 L 19 105.2 C 19 105.2 19 105.16 19 105.2 C 19.3 104.4 20.1 103.9 21.1 103.9 C 22.4 103.9 23.3 104.8 23.3 106.2 Z M 26.1 104 L 28 104 L 28 104.5 L 26.1 104.5 C 26.1 104.5 26.13 108.4 26.1 108.4 C 26.1 109.6 26.8 110 27.7 110 C 27.9 110 28 110 28.2 110 C 28.2 110 28.2 110.4 28.2 110.4 C 28.1 110.4 27.9 110.5 27.6 110.5 C 26.5 110.5 25.6 109.8 25.6 108.4 C 25.63 108.42 25.6 104.5 25.6 104.5 L 24.6 104.5 L 24.6 104 L 25.6 104 L 25.6 102.5 L 26.1 102.5 L 26.1 104 Z M 29.6 104 L 30 104 L 30 105.2 C 30 105.2 30.03 105.22 30 105.2 C 30.4 104.3 31.3 104 31.9 104 C 32.1 104 32.2 104 32.3 104 C 32.3 104 32.3 104.5 32.3 104.5 C 32.2 104.5 32.1 104.5 31.9 104.5 C 31 104.5 30.1 105.1 30.1 106.4 C 30.07 106.37 30.1 110.4 30.1 110.4 L 29.6 110.4 L 29.6 104 Z M 38.4 107.4 C 38.4 107.4 33.4 107.4 33.4 107.4 C 33.5 109 34.5 110 35.9 110 C 36.7 110 37.5 109.8 38.2 109.1 C 38.2 109.1 38.2 109.7 38.2 109.7 C 37.5 110.2 36.7 110.5 35.9 110.5 C 34.1 110.5 32.9 109.2 32.9 107.2 C 32.9 105.2 34.3 103.9 35.8 103.9 C 37.2 103.9 38.5 105 38.5 107.1 C 38.5 107.2 38.4 107.3 38.4 107.4 Z M 38 106.9 C 37.9 105.2 36.9 104.4 35.8 104.4 C 34.6 104.4 33.5 105.4 33.4 106.9 C 33.4 106.9 38 106.9 38 106.9 Z M 44.1 100.9 L 44.7 100.9 L 44.7 110.4 L 44.1 110.4 L 44.1 100.9 Z M 52.1 107.4 C 52.1 107.4 47 107.4 47 107.4 C 47.1 109 48.1 110 49.6 110 C 50.4 110 51.2 109.8 51.9 109.1 C 51.9 109.1 51.9 109.7 51.9 109.7 C 51.2 110.2 50.4 110.5 49.6 110.5 C 47.8 110.5 46.5 109.2 46.5 107.2 C 46.5 105.2 47.9 103.9 49.5 103.9 C 50.9 103.9 52.1 105 52.1 107.1 C 52.1 107.2 52.1 107.3 52.1 107.4 Z M 51.6 106.9 C 51.6 105.2 50.6 104.4 49.5 104.4 C 48.3 104.4 47.1 105.4 47 106.9 C 47 106.9 51.6 106.9 51.6 106.9 Z M 57.8 104 L 58.2 104 C 58.2 104 58.22 105.64 58.2 105.6 C 58.7 104.5 59.7 103.9 60.7 103.9 C 62.2 103.9 63.6 105.2 63.6 107.2 C 63.6 109.2 62.2 110.5 60.7 110.5 C 59.7 110.5 58.7 109.9 58.3 108.9 C 58.26 108.85 58.3 113 58.3 113 L 57.8 113 L 57.8 104 Z M 63.1 107.2 C 63.1 105.5 62 104.4 60.7 104.4 C 59.4 104.4 58.2 105.5 58.2 107.2 C 58.2 108.9 59.4 110 60.7 110 C 62 110 63.1 108.9 63.1 107.2 Z M 65.5 104 L 65.9 104 L 65.9 105.2 C 65.9 105.2 65.94 105.22 65.9 105.2 C 66.3 104.3 67.2 104 67.8 104 C 68 104 68.1 104 68.2 104 C 68.2 104 68.2 104.5 68.2 104.5 C 68.1 104.5 68 104.5 67.8 104.5 C 66.9 104.5 66 105.1 66 106.4 C 65.98 106.37 66 110.4 66 110.4 L 65.5 110.4 L 65.5 104 Z M 68.8 107.2 C 68.8 105.3 70.1 103.9 71.8 103.9 C 73.5 103.9 74.9 105.3 74.9 107.2 C 74.9 109.2 73.5 110.5 71.8 110.5 C 70.2 110.5 68.8 109.2 68.8 107.2 Z M 74.4 107.2 C 74.4 105.4 73.1 104.4 71.8 104.4 C 70.5 104.4 69.3 105.4 69.3 107.2 C 69.3 109 70.5 110 71.8 110 C 73.1 110 74.4 109 74.4 107.2 Z M 77.3 104 L 79.2 104 L 79.2 104.5 L 77.3 104.5 C 77.3 104.5 77.29 108.4 77.3 108.4 C 77.3 109.6 77.9 110 78.8 110 C 79 110 79.2 110 79.4 110 C 79.4 110 79.4 110.4 79.4 110.4 C 79.3 110.4 79 110.5 78.8 110.5 C 77.6 110.5 76.8 109.8 76.8 108.4 C 76.79 108.42 76.8 104.5 76.8 104.5 L 75.8 104.5 L 75.8 104 L 76.8 104 L 76.8 102.5 L 77.3 102.5 L 77.3 104 Z M 80.2 107.2 C 80.2 105.3 81.6 103.9 83.2 103.9 C 84.9 103.9 86.3 105.3 86.3 107.2 C 86.3 109.2 84.9 110.5 83.2 110.5 C 81.6 110.5 80.2 109.2 80.2 107.2 Z M 85.8 107.2 C 85.8 105.4 84.5 104.4 83.2 104.4 C 81.9 104.4 80.7 105.4 80.7 107.2 C 80.7 109 81.9 110 83.2 110 C 84.5 110 85.8 109 85.8 107.2 Z M 88.7 104 L 90.6 104 L 90.6 104.5 L 88.7 104.5 C 88.7 104.5 88.7 108.4 88.7 108.4 C 88.7 109.6 89.3 110 90.2 110 C 90.4 110 90.6 110 90.8 110 C 90.8 110 90.8 110.4 90.8 110.4 C 90.7 110.4 90.5 110.5 90.2 110.5 C 89 110.5 88.2 109.8 88.2 108.4 C 88.2 108.42 88.2 104.5 88.2 104.5 L 87.2 104.5 L 87.2 104 L 88.2 104 L 88.2 102.5 L 88.7 102.5 L 88.7 104 Z M 93.2 113 L 92.7 113 L 93.8 110.1 L 91.4 104 L 91.9 104 L 94.1 109.5 L 94.1 109.5 L 96.1 104 L 96.7 104 L 93.2 113 Z M 98.2 104 L 98.6 104 C 98.6 104 98.66 105.64 98.7 105.6 C 99.1 104.5 100.2 103.9 101.2 103.9 C 102.7 103.9 104.1 105.2 104.1 107.2 C 104.1 109.2 102.7 110.5 101.2 110.5 C 100.2 110.5 99.1 109.9 98.7 108.9 C 98.7 108.85 98.7 113 98.7 113 L 98.2 113 L 98.2 104 Z M 103.6 107.2 C 103.6 105.5 102.5 104.4 101.1 104.4 C 99.8 104.4 98.7 105.5 98.7 107.2 C 98.7 108.9 99.8 110 101.1 110 C 102.4 110 103.6 108.9 103.6 107.2 Z M 111 107.4 C 111 107.4 106 107.4 106 107.4 C 106.1 109 107.1 110 108.5 110 C 109.3 110 110.1 109.8 110.8 109.1 C 110.8 109.1 110.8 109.7 110.8 109.7 C 110.1 110.2 109.3 110.5 108.5 110.5 C 106.7 110.5 105.5 109.2 105.5 107.2 C 105.5 105.2 106.9 103.9 108.4 103.9 C 109.8 103.9 111 105 111 107.1 C 111 107.2 111 107.3 111 107.4 Z M 110.5 106.9 C 110.5 105.2 109.5 104.4 108.4 104.4 C 107.2 104.4 106.1 105.4 106 106.9 C 106 106.9 110.5 106.9 110.5 106.9 Z M 127.5 102.6 C 126.9 102.1 126 101.8 125.1 101.8 C 122.8 101.8 120.8 103.7 120.8 106.4 C 120.8 108.7 122.2 110 124.1 110 C 124.9 110 125.7 109.8 126.1 109.5 C 126.12 109.51 126.7 105.6 126.7 105.6 L 127.2 105.6 C 127.2 105.6 126.58 109.8 126.6 109.8 C 126.1 110.2 125.1 110.5 124 110.5 C 121.9 110.5 120.3 109 120.3 106.5 C 120.3 103.4 122.6 101.4 125.2 101.4 C 126.1 101.4 127 101.6 127.6 102 C 127.6 102 127.5 102.6 127.5 102.6 Z M 133.1 104.7 L 133.1 104.7 L 130.2 110.4 L 129.7 110.4 L 128.8 104 L 129.3 104 L 130 109.7 L 130.1 109.7 L 132.9 104 L 133.5 104 L 134.6 109.7 L 134.6 109.7 L 137.1 104 L 137.6 104 L 134.8 110.4 L 134.2 110.4 L 133.1 104.7 Z M 143.5 110.4 L 143.1 110.4 L 143.3 108.9 C 143.3 108.9 143.27 108.88 143.3 108.9 C 142.7 109.9 141.7 110.5 140.7 110.5 C 139.3 110.5 138.1 109.5 138.1 107.7 C 138.1 105.5 139.7 103.9 141.3 103.9 C 142.5 103.9 143.4 104.6 143.7 105.6 C 143.72 105.65 143.7 105.6 143.7 105.6 L 144.1 104 L 144.5 104 L 143.5 110.4 Z M 138.6 107.6 C 138.6 109.2 139.6 110 140.8 110 C 142.4 110 143.5 108.4 143.5 106.8 C 143.5 105.3 142.5 104.4 141.4 104.4 C 139.9 104.4 138.6 105.7 138.6 107.6 Z M 146.2 106.5 L 149 106.5 L 149 107 L 146.1 107 L 146.2 106.5 Z " stroke="none" fill="#000"/>
  </g>
  <g id="Polygon18144">
    <path d="M 4.7 90.1 C 4.7 90.1 4.7 90.6 4.7 90.6 C 4.2 90.3 3.6 90 2.9 90 C 1.9 90 1.3 90.5 1.3 91.2 C 1.3 91.9 2 92.2 3 92.5 C 4 92.9 5 93.2 5 94.3 C 5 95.4 4.1 96.1 2.8 96.1 C 2.1 96.1 1.3 95.9 0.7 95.4 C 0.7 95.4 0.7 94.7 0.7 94.7 C 1.2 95.3 2 95.6 2.8 95.6 C 3.9 95.6 4.5 95.1 4.5 94.3 C 4.5 93.6 3.8 93.3 2.8 92.9 C 1.7 92.6 0.8 92.3 0.8 91.2 C 0.8 90.2 1.6 89.5 2.9 89.5 C 3.6 89.5 4.2 89.7 4.7 90.1 Z M 6.3 92.8 C 6.3 90.9 7.7 89.5 9.3 89.5 C 11 89.5 12.4 90.9 12.4 92.8 C 12.4 94.8 11 96.1 9.3 96.1 C 7.7 96.1 6.3 94.8 6.3 92.8 Z M 11.9 92.8 C 11.9 91 10.6 90 9.3 90 C 8 90 6.8 91 6.8 92.8 C 6.8 94.6 8.1 95.6 9.3 95.6 C 10.6 95.6 11.9 94.6 11.9 92.8 Z M 19 91.8 C 18.99 91.76 19 96 19 96 L 18.5 96 C 18.5 96 18.49 91.97 18.5 92 C 18.5 90.7 17.8 90 16.7 90 C 15.6 90 14.7 90.7 14.7 91.9 C 14.71 91.91 14.7 96 14.7 96 L 14.2 96 L 14.2 89.6 L 14.6 89.6 L 14.7 90.8 C 14.7 90.8 14.68 90.76 14.7 90.8 C 15 90 15.8 89.5 16.8 89.5 C 18.1 89.5 19 90.4 19 91.8 Z M 21.8 89.6 L 23.7 89.6 L 23.7 90.1 L 21.8 90.1 C 21.8 90.1 21.81 94 21.8 94 C 21.8 95.2 22.5 95.6 23.4 95.6 C 23.5 95.6 23.7 95.6 23.9 95.6 C 23.9 95.6 23.9 96 23.9 96 C 23.8 96 23.6 96.1 23.3 96.1 C 22.1 96.1 21.3 95.4 21.3 94 C 21.31 94.02 21.3 90.1 21.3 90.1 L 20.3 90.1 L 20.3 89.6 L 21.3 89.6 L 21.3 88.1 L 21.8 88.1 L 21.8 89.6 Z M 28 89.6 L 28.4 89.6 C 28.4 89.6 28.51 91.24 28.5 91.2 C 29 90.1 30 89.5 31 89.5 C 32.5 89.5 33.9 90.8 33.9 92.8 C 33.9 94.8 32.5 96.1 31 96.1 C 30 96.1 29 95.5 28.5 94.5 C 28.55 94.45 28.5 98.6 28.5 98.6 L 28 98.6 L 28 89.6 Z M 33.4 92.8 C 33.4 91.1 32.3 90 31 90 C 29.7 90 28.5 91.1 28.5 92.8 C 28.5 94.5 29.7 95.6 31 95.6 C 32.3 95.6 33.4 94.5 33.4 92.8 Z M 35.8 89.6 L 36.2 89.6 L 36.2 90.8 C 36.2 90.8 36.23 90.82 36.2 90.8 C 36.6 89.9 37.5 89.6 38.1 89.6 C 38.2 89.6 38.4 89.6 38.5 89.6 C 38.5 89.6 38.5 90.1 38.5 90.1 C 38.4 90.1 38.2 90.1 38.1 90.1 C 37.2 90.1 36.3 90.7 36.3 92 C 36.26 91.97 36.3 96 36.3 96 L 35.8 96 L 35.8 89.6 Z M 39.1 92.8 C 39.1 90.9 40.4 89.5 42.1 89.5 C 43.8 89.5 45.1 90.9 45.1 92.8 C 45.1 94.8 43.8 96.1 42.1 96.1 C 40.4 96.1 39.1 94.8 39.1 92.8 Z M 44.6 92.8 C 44.6 91 43.4 90 42.1 90 C 40.8 90 39.6 91 39.6 92.8 C 39.6 94.6 40.8 95.6 42.1 95.6 C 43.4 95.6 44.6 94.6 44.6 92.8 Z M 54.7 91.7 C 54.7 91.68 54.7 96 54.7 96 L 54.2 96 C 54.2 96 54.19 91.73 54.2 91.7 C 54.2 90.7 53.7 90 52.7 90 C 51.7 90 51.1 90.8 51.1 91.7 C 51.08 91.74 51.1 96 51.1 96 L 50.6 96 C 50.6 96 50.58 91.73 50.6 91.7 C 50.6 90.7 50.1 90 49.1 90 C 48.1 90 47.5 90.8 47.5 91.8 C 47.47 91.76 47.5 96 47.5 96 L 47 96 L 47 89.6 L 47.4 89.6 L 47.4 90.7 C 47.4 90.7 47.44 90.68 47.4 90.7 C 47.7 90 48.3 89.5 49.2 89.5 C 50.1 89.5 50.7 90 50.9 90.8 C 51.2 90 51.9 89.5 52.8 89.5 C 54.1 89.5 54.7 90.4 54.7 91.7 Z M 62 93 C 62 93 57 93 57 93 C 57 94.6 58.1 95.6 59.5 95.6 C 60.3 95.6 61.1 95.4 61.8 94.7 C 61.8 94.7 61.8 95.3 61.8 95.3 C 61.1 95.8 60.3 96.1 59.5 96.1 C 57.7 96.1 56.5 94.8 56.5 92.8 C 56.5 90.8 57.9 89.5 59.4 89.5 C 60.8 89.5 62 90.6 62 92.7 C 62 92.8 62 92.9 62 93 Z M 61.5 92.5 C 61.5 90.8 60.5 90 59.4 90 C 58.2 90 57.1 91 57 92.5 C 57 92.5 61.5 92.5 61.5 92.5 Z M 64.5 89.6 L 66.4 89.6 L 66.4 90.1 L 64.5 90.1 C 64.5 90.1 64.46 94 64.5 94 C 64.5 95.2 65.1 95.6 66 95.6 C 66.2 95.6 66.3 95.6 66.5 95.6 C 66.5 95.6 66.5 96 66.5 96 C 66.5 96 66.2 96.1 65.9 96.1 C 64.8 96.1 64 95.4 64 94 C 63.96 94.02 64 90.1 64 90.1 L 63 90.1 L 63 89.6 L 64 89.6 L 64 88.1 L 64.5 88.1 L 64.5 89.6 Z M 68.6 89.6 L 70.5 89.6 L 70.5 90.1 L 68.6 90.1 C 68.6 90.1 68.58 94 68.6 94 C 68.6 95.2 69.2 95.6 70.1 95.6 C 70.3 95.6 70.5 95.6 70.7 95.6 C 70.7 95.6 70.7 96 70.7 96 C 70.6 96 70.3 96.1 70.1 96.1 C 68.9 96.1 68.1 95.4 68.1 94 C 68.08 94.02 68.1 90.1 68.1 90.1 L 67.1 90.1 L 67.1 89.6 L 68.1 89.6 L 68.1 88.1 L 68.6 88.1 L 68.6 89.6 Z M 77 93 C 77 93 72 93 72 93 C 72.1 94.6 73.1 95.6 74.5 95.6 C 75.3 95.6 76.1 95.4 76.8 94.7 C 76.8 94.7 76.8 95.3 76.8 95.3 C 76.1 95.8 75.3 96.1 74.5 96.1 C 72.7 96.1 71.5 94.8 71.5 92.8 C 71.5 90.8 72.9 89.5 74.4 89.5 C 75.9 89.5 77.1 90.6 77.1 92.7 C 77.1 92.8 77.1 92.9 77 93 Z M 76.6 92.5 C 76.5 90.8 75.5 90 74.4 90 C 73.2 90 72.1 91 72 92.5 C 72 92.5 76.6 92.5 76.6 92.5 Z M 78.8 93.7 C 78.78 93.68 78.8 89.6 78.8 89.6 L 79.3 89.6 C 79.3 89.6 79.28 93.71 79.3 93.7 C 79.3 94.9 80 95.6 81.2 95.6 C 82.3 95.6 83.1 94.9 83.1 93.7 C 83.08 93.7 83.1 89.6 83.1 89.6 L 83.6 89.6 C 83.6 89.6 83.58 93.67 83.6 93.7 C 83.6 95.1 82.6 96.1 81.2 96.1 C 79.7 96.1 78.8 95.1 78.8 93.7 Z M 85.8 89.6 L 86.2 89.6 L 86.2 90.8 C 86.2 90.8 86.24 90.82 86.2 90.8 C 86.6 89.9 87.5 89.6 88.1 89.6 C 88.3 89.6 88.4 89.6 88.5 89.6 C 88.5 89.6 88.5 90.1 88.5 90.1 C 88.4 90.1 88.3 90.1 88.1 90.1 C 87.2 90.1 86.3 90.7 86.3 92 C 86.28 91.97 86.3 96 86.3 96 L 85.8 96 L 85.8 89.6 Z M 93.3 90.1 C 93.3 90.1 93.3 90.6 93.3 90.6 C 92.8 90.3 92.2 90 91.5 90 C 90.6 90 89.9 90.5 89.9 91.2 C 89.9 91.9 90.6 92.2 91.6 92.5 C 92.6 92.9 93.6 93.2 93.6 94.3 C 93.6 95.4 92.8 96.1 91.5 96.1 C 90.7 96.1 90 95.9 89.3 95.4 C 89.3 95.4 89.3 94.7 89.3 94.7 C 89.9 95.3 90.6 95.6 91.5 95.6 C 92.5 95.6 93.1 95.1 93.1 94.3 C 93.1 93.6 92.4 93.3 91.4 92.9 C 90.3 92.6 89.4 92.3 89.4 91.2 C 89.4 90.2 90.3 89.5 91.5 89.5 C 92.2 89.5 92.8 89.7 93.3 90.1 Z M 100.9 95.6 C 101.4 95.6 102 95.5 102.6 95.1 C 102.6 95.1 102.6 95.7 102.6 95.7 C 102.1 96 101.5 96.1 100.9 96.1 C 99.2 96.1 97.8 94.7 97.8 92.8 C 97.8 90.9 99.1 89.5 100.9 89.5 C 101.5 89.5 102.1 89.6 102.6 90 C 102.6 90 102.6 90.5 102.6 90.5 C 102 90.1 101.5 90 100.9 90 C 99.5 90 98.3 91.1 98.3 92.8 C 98.3 94.5 99.5 95.6 100.9 95.6 Z M 103.8 92.8 C 103.8 90.9 105.1 89.5 106.8 89.5 C 108.5 89.5 109.8 90.9 109.8 92.8 C 109.8 94.8 108.5 96.1 106.8 96.1 C 105.1 96.1 103.8 94.8 103.8 92.8 Z M 109.3 92.8 C 109.3 91 108.1 90 106.8 90 C 105.5 90 104.3 91 104.3 92.8 C 104.3 94.6 105.5 95.6 106.8 95.6 C 108.1 95.6 109.3 94.6 109.3 92.8 Z M 119.4 91.7 C 119.4 91.68 119.4 96 119.4 96 L 118.9 96 C 118.9 96 118.9 91.73 118.9 91.7 C 118.9 90.7 118.4 90 117.4 90 C 116.4 90 115.8 90.8 115.8 91.7 C 115.79 91.74 115.8 96 115.8 96 L 115.3 96 C 115.3 96 115.28 91.73 115.3 91.7 C 115.3 90.7 114.8 90 113.8 90 C 112.8 90 112.2 90.8 112.2 91.8 C 112.18 91.76 112.2 96 112.2 96 L 111.7 96 L 111.7 89.6 L 112.1 89.6 L 112.1 90.7 C 112.1 90.7 112.14 90.68 112.1 90.7 C 112.4 90 113.1 89.5 113.9 89.5 C 114.8 89.5 115.4 90 115.6 90.8 C 115.9 90 116.6 89.5 117.5 89.5 C 118.8 89.5 119.4 90.4 119.4 91.7 Z M 129.3 91.7 C 129.34 91.68 129.3 96 129.3 96 L 128.8 96 C 128.8 96 128.83 91.73 128.8 91.7 C 128.8 90.7 128.3 90 127.3 90 C 126.3 90 125.7 90.8 125.7 91.7 C 125.72 91.74 125.7 96 125.7 96 L 125.2 96 C 125.2 96 125.22 91.73 125.2 91.7 C 125.2 90.7 124.7 90 123.7 90 C 122.7 90 122.1 90.8 122.1 91.8 C 122.11 91.76 122.1 96 122.1 96 L 121.6 96 L 121.6 89.6 L 122 89.6 L 122.1 90.7 C 122.1 90.7 122.08 90.68 122.1 90.7 C 122.4 90 123 89.5 123.8 89.5 C 124.7 89.5 125.3 90 125.6 90.8 C 125.9 90 126.5 89.5 127.4 89.5 C 128.7 89.5 129.3 90.4 129.3 91.7 Z M 136.7 93 C 136.7 93 131.6 93 131.6 93 C 131.7 94.6 132.7 95.6 134.2 95.6 C 134.9 95.6 135.7 95.4 136.4 94.7 C 136.4 94.7 136.4 95.3 136.4 95.3 C 135.8 95.8 135 96.1 134.1 96.1 C 132.3 96.1 131.1 94.8 131.1 92.8 C 131.1 90.8 132.5 89.5 134.1 89.5 C 135.5 89.5 136.7 90.6 136.7 92.7 C 136.7 92.8 136.7 92.9 136.7 93 Z M 136.2 92.5 C 136.2 90.8 135.1 90 134.1 90 C 132.8 90 131.7 91 131.6 92.5 C 131.6 92.5 136.2 92.5 136.2 92.5 Z M 141.4 86.5 L 141.9 86.5 L 141.9 96 L 141.4 96 L 141.4 86.5 Z M 149.3 93 C 149.3 93 144.3 93 144.3 93 C 144.3 94.6 145.4 95.6 146.8 95.6 C 147.6 95.6 148.4 95.4 149.1 94.7 C 149.1 94.7 149.1 95.3 149.1 95.3 C 148.4 95.8 147.6 96.1 146.8 96.1 C 145 96.1 143.8 94.8 143.8 92.8 C 143.8 90.8 145.2 89.5 146.7 89.5 C 148.1 89.5 149.3 90.6 149.3 92.7 C 149.3 92.8 149.3 92.9 149.3 93 Z M 148.8 92.5 C 148.8 90.8 147.8 90 146.7 90 C 145.5 90 144.4 91 144.3 92.5 C 144.3 92.5 148.8 92.5 148.8 92.5 Z " stroke="none" fill="#000"/>
  </g>
  <g id="Polygon18143">
    <path d="M 3.8 81.2 C 4.3 81.2 4.9 81.1 5.5 80.7 C 5.5 80.7 5.5 81.3 5.5 81.3 C 5 81.6 4.4 81.7 3.8 81.7 C 2 81.7 0.7 80.3 0.7 78.4 C 0.7 76.5 2 75.1 3.8 75.1 C 4.3 75.1 4.9 75.2 5.5 75.6 C 5.5 75.6 5.5 76.1 5.5 76.1 C 4.9 75.7 4.3 75.6 3.7 75.6 C 2.4 75.6 1.2 76.7 1.2 78.4 C 1.2 80.1 2.4 81.2 3.8 81.2 Z M 6.6 78.4 C 6.6 76.5 8 75.1 9.7 75.1 C 11.4 75.1 12.7 76.5 12.7 78.4 C 12.7 80.4 11.4 81.7 9.7 81.7 C 8 81.7 6.6 80.4 6.6 78.4 Z M 12.2 78.4 C 12.2 76.6 11 75.6 9.7 75.6 C 8.4 75.6 7.2 76.6 7.2 78.4 C 7.2 80.2 8.4 81.2 9.7 81.2 C 11 81.2 12.2 80.2 12.2 78.4 Z M 22.3 77.3 C 22.28 77.28 22.3 81.6 22.3 81.6 L 21.8 81.6 C 21.8 81.6 21.78 77.33 21.8 77.3 C 21.8 76.3 21.3 75.6 20.3 75.6 C 19.3 75.6 18.7 76.4 18.7 77.3 C 18.67 77.34 18.7 81.6 18.7 81.6 L 18.2 81.6 C 18.2 81.6 18.17 77.33 18.2 77.3 C 18.2 76.3 17.7 75.6 16.7 75.6 C 15.6 75.6 15.1 76.4 15.1 77.4 C 15.06 77.36 15.1 81.6 15.1 81.6 L 14.6 81.6 L 14.6 75.2 L 15 75.2 L 15 76.3 C 15 76.3 15.02 76.28 15 76.3 C 15.3 75.6 15.9 75.1 16.7 75.1 C 17.7 75.1 18.3 75.6 18.5 76.4 C 18.8 75.6 19.4 75.1 20.4 75.1 C 21.6 75.1 22.3 76 22.3 77.3 Z M 24.5 75.2 L 24.9 75.2 C 24.9 75.2 24.96 76.84 25 76.8 C 25.4 75.7 26.5 75.1 27.5 75.1 C 29 75.1 30.4 76.4 30.4 78.4 C 30.4 80.4 29 81.7 27.5 81.7 C 26.4 81.7 25.4 81.1 25 80.1 C 25 80.05 25 84.2 25 84.2 L 24.5 84.2 L 24.5 75.2 Z M 29.9 78.4 C 29.9 76.7 28.8 75.6 27.4 75.6 C 26.1 75.6 25 76.7 25 78.4 C 25 80.1 26.1 81.2 27.4 81.2 C 28.7 81.2 29.9 80.1 29.9 78.4 Z M 31.8 78.4 C 31.8 76.5 33.1 75.1 34.8 75.1 C 36.5 75.1 37.8 76.5 37.8 78.4 C 37.8 80.4 36.5 81.7 34.8 81.7 C 33.1 81.7 31.8 80.4 31.8 78.4 Z M 37.3 78.4 C 37.3 76.6 36.1 75.6 34.8 75.6 C 33.5 75.6 32.3 76.6 32.3 78.4 C 32.3 80.2 33.5 81.2 34.8 81.2 C 36.1 81.2 37.3 80.2 37.3 78.4 Z M 43.2 75.7 C 43.2 75.7 43.2 76.2 43.2 76.2 C 42.7 75.9 42.1 75.6 41.4 75.6 C 40.4 75.6 39.8 76.1 39.8 76.8 C 39.8 77.5 40.5 77.8 41.5 78.1 C 42.5 78.5 43.5 78.8 43.5 79.9 C 43.5 81 42.7 81.7 41.4 81.7 C 40.6 81.7 39.8 81.5 39.2 81 C 39.2 81 39.2 80.3 39.2 80.3 C 39.8 80.9 40.5 81.2 41.4 81.2 C 42.4 81.2 43 80.7 43 79.9 C 43 79.2 42.3 78.9 41.3 78.5 C 40.2 78.2 39.3 77.9 39.3 76.8 C 39.3 75.8 40.2 75.1 41.4 75.1 C 42.1 75.1 42.7 75.3 43.2 75.7 Z M 45.2 72.9 C 45.2 72.7 45.3 72.5 45.6 72.5 C 45.8 72.5 46 72.7 46 72.9 C 46 73.1 45.8 73.3 45.6 73.3 C 45.3 73.3 45.2 73.1 45.2 72.9 Z M 45.3 75.2 L 45.8 75.2 L 45.8 81.6 L 45.3 81.6 L 45.3 75.2 Z M 48.8 75.2 L 50.7 75.2 L 50.7 75.7 L 48.8 75.7 C 48.8 75.7 48.81 79.6 48.8 79.6 C 48.8 80.8 49.5 81.2 50.4 81.2 C 50.5 81.2 50.7 81.2 50.9 81.2 C 50.9 81.2 50.9 81.6 50.9 81.6 C 50.8 81.6 50.6 81.7 50.3 81.7 C 49.1 81.7 48.3 81 48.3 79.6 C 48.31 79.62 48.3 75.7 48.3 75.7 L 47.3 75.7 L 47.3 75.2 L 48.3 75.2 L 48.3 73.7 L 48.8 73.7 L 48.8 75.2 Z M 57.3 78.6 C 57.3 78.6 52.2 78.6 52.2 78.6 C 52.3 80.2 53.3 81.2 54.8 81.2 C 55.5 81.2 56.4 81 57 80.3 C 57 80.3 57 80.9 57 80.9 C 56.4 81.4 55.6 81.7 54.8 81.7 C 53 81.7 51.7 80.4 51.7 78.4 C 51.7 76.4 53.1 75.1 54.7 75.1 C 56.1 75.1 57.3 76.2 57.3 78.3 C 57.3 78.4 57.3 78.5 57.3 78.6 Z M 56.8 78.1 C 56.8 76.4 55.8 75.6 54.7 75.6 C 53.5 75.6 52.3 76.6 52.2 78.1 C 52.2 78.1 56.8 78.1 56.8 78.1 Z M 70.5 78.6 C 70.5 78.6 65.5 78.6 65.5 78.6 C 65.6 80.2 66.6 81.2 68.1 81.2 C 68.8 81.2 69.6 81 70.3 80.3 C 70.3 80.3 70.3 80.9 70.3 80.9 C 69.6 81.4 68.9 81.7 68 81.7 C 66.2 81.7 65 80.4 65 78.4 C 65 76.4 66.4 75.1 67.9 75.1 C 69.4 75.1 70.6 76.2 70.6 78.3 C 70.6 78.4 70.6 78.5 70.5 78.6 Z M 70.1 78.1 C 70 76.4 69 75.6 67.9 75.6 C 66.7 75.6 65.6 76.6 65.5 78.1 C 65.5 78.1 70.1 78.1 70.1 78.1 Z M 77.2 77.4 C 77.16 77.36 77.2 81.6 77.2 81.6 L 76.7 81.6 C 76.7 81.6 76.66 77.57 76.7 77.6 C 76.7 76.3 76 75.6 74.8 75.6 C 73.8 75.6 72.9 76.3 72.9 77.5 C 72.87 77.51 72.9 81.6 72.9 81.6 L 72.4 81.6 L 72.4 75.2 L 72.8 75.2 L 72.8 76.4 C 72.8 76.4 72.84 76.36 72.8 76.4 C 73.2 75.6 74 75.1 74.9 75.1 C 76.3 75.1 77.2 76 77.2 77.4 Z M 85.9 75.7 L 85 75.7 L 85 75.2 L 85.9 75.2 C 85.9 75.2 85.92 74 85.9 74 C 85.9 72.7 86.8 72 87.8 72 C 88.2 72 88.5 72.1 88.8 72.2 C 88.8 72.2 88.8 72.7 88.8 72.7 C 88.5 72.6 88.2 72.5 87.9 72.5 C 87 72.5 86.4 73 86.4 74.1 C 86.44 74.09 86.4 75.2 86.4 75.2 L 88.4 75.2 L 88.4 75.7 L 86.4 75.7 L 86.4 81.6 L 85.9 81.6 L 85.9 75.7 Z M 89.7 72.9 C 89.7 72.7 89.9 72.5 90.1 72.5 C 90.4 72.5 90.6 72.7 90.6 72.9 C 90.6 73.1 90.4 73.3 90.1 73.3 C 89.9 73.3 89.7 73.1 89.7 72.9 Z M 89.9 75.2 L 90.4 75.2 L 90.4 81.6 L 89.9 81.6 L 89.9 75.2 Z M 93.2 76.8 C 93.6 75.7 94.7 75.1 95.7 75.1 C 97.2 75.1 98.6 76.4 98.6 78.4 C 98.6 80.4 97.2 81.7 95.7 81.7 C 94.7 81.7 93.6 81.2 93.2 80 C 93.18 79.99 93.1 81.6 93.1 81.6 L 92.7 81.6 L 92.7 72.1 L 93.2 72.1 C 93.2 72.1 93.22 76.79 93.2 76.8 Z M 93.2 78.4 C 93.2 80.1 94.3 81.2 95.6 81.2 C 97 81.2 98.1 80.1 98.1 78.4 C 98.1 76.7 97 75.6 95.7 75.6 C 94.3 75.6 93.2 76.7 93.2 78.4 Z M 100.4 75.2 L 100.8 75.2 L 100.9 76.4 C 100.9 76.4 100.9 76.42 100.9 76.4 C 101.3 75.5 102.1 75.2 102.8 75.2 C 102.9 75.2 103.1 75.2 103.2 75.2 C 103.2 75.2 103.2 75.7 103.2 75.7 C 103.1 75.7 102.9 75.7 102.8 75.7 C 101.9 75.7 100.9 76.3 100.9 77.6 C 100.93 77.57 100.9 81.6 100.9 81.6 L 100.4 81.6 L 100.4 75.2 Z M 109.3 78.6 C 109.3 78.6 104.2 78.6 104.2 78.6 C 104.3 80.2 105.4 81.2 106.8 81.2 C 107.6 81.2 108.4 81 109.1 80.3 C 109.1 80.3 109.1 80.9 109.1 80.9 C 108.4 81.4 107.6 81.7 106.8 81.7 C 105 81.7 103.7 80.4 103.7 78.4 C 103.7 76.4 105.2 75.1 106.7 75.1 C 108.1 75.1 109.3 76.2 109.3 78.3 C 109.3 78.4 109.3 78.5 109.3 78.6 Z M 108.8 78.1 C 108.8 76.4 107.8 75.6 106.7 75.6 C 105.5 75.6 104.4 76.6 104.3 78.1 C 104.3 78.1 108.8 78.1 108.8 78.1 Z M 117 78.4 C 117 76.4 118.4 75.1 119.9 75.1 C 120.9 75.1 121.9 75.7 122.4 76.8 C 122.39 76.78 122.4 72.1 122.4 72.1 L 122.9 72.1 L 122.9 81.6 L 122.5 81.6 L 122.4 80 C 122.4 80 122.41 79.99 122.4 80 C 122 81.2 120.9 81.7 119.9 81.7 C 118.4 81.7 117 80.4 117 78.4 Z M 122.4 78.4 C 122.4 76.7 121.3 75.6 120 75.6 C 118.6 75.6 117.5 76.7 117.5 78.4 C 117.5 80.1 118.6 81.2 120 81.2 C 121.3 81.2 122.4 80.1 122.4 78.4 Z M 130.3 78.6 C 130.3 78.6 125.2 78.6 125.2 78.6 C 125.3 80.2 126.3 81.2 127.8 81.2 C 128.6 81.2 129.4 81 130.1 80.3 C 130.1 80.3 130.1 80.9 130.1 80.9 C 129.4 81.4 128.6 81.7 127.8 81.7 C 126 81.7 124.7 80.4 124.7 78.4 C 124.7 76.4 126.1 75.1 127.7 75.1 C 129.1 75.1 130.3 76.2 130.3 78.3 C 130.3 78.4 130.3 78.5 130.3 78.6 Z M 129.8 78.1 C 129.8 76.4 128.8 75.6 127.7 75.6 C 126.5 75.6 125.4 76.6 125.2 78.1 C 125.2 78.1 129.8 78.1 129.8 78.1 Z M 138.5 72.1 L 139 72.1 L 139 81.6 L 138.5 81.6 L 138.5 72.1 Z M 141.2 72.9 C 141.2 72.7 141.4 72.5 141.6 72.5 C 141.8 72.5 142 72.7 142 72.9 C 142 73.1 141.8 73.3 141.6 73.3 C 141.4 73.3 141.2 73.1 141.2 72.9 Z M 141.3 75.2 L 141.8 75.2 L 141.8 81.6 L 141.3 81.6 L 141.3 75.2 Z M 148.9 77.4 C 148.94 77.36 148.9 81.6 148.9 81.6 L 148.4 81.6 C 148.4 81.6 148.44 77.57 148.4 77.6 C 148.4 76.3 147.8 75.6 146.6 75.6 C 145.5 75.6 144.7 76.3 144.7 77.5 C 144.66 77.51 144.7 81.6 144.7 81.6 L 144.2 81.6 L 144.2 75.2 L 144.6 75.2 L 144.6 76.4 C 144.6 76.4 144.62 76.36 144.6 76.4 C 145 75.6 145.7 75.1 146.7 75.1 C 148.1 75.1 148.9 76 148.9 77.4 Z " stroke="none" fill="#000"/>
  </g>
  <g id="Polygon18142">
    <path d="M 4.7 61.3 C 4.7 61.3 4.7 61.8 4.7 61.8 C 4.2 61.5 3.6 61.2 2.9 61.2 C 1.9 61.2 1.3 61.7 1.3 62.4 C 1.3 63.1 2 63.4 3 63.7 C 4 64.1 5 64.4 5 65.5 C 5 66.6 4.1 67.3 2.8 67.3 C 2.1 67.3 1.3 67.1 0.7 66.6 C 0.7 66.6 0.7 65.9 0.7 65.9 C 1.2 66.5 2 66.8 2.8 66.8 C 3.9 66.8 4.5 66.3 4.5 65.5 C 4.5 64.8 3.8 64.5 2.8 64.1 C 1.7 63.8 0.8 63.5 0.8 62.4 C 0.8 61.4 1.6 60.7 2.9 60.7 C 3.6 60.7 4.2 60.9 4.7 61.3 Z M 6.3 64 C 6.3 62 7.7 60.7 9.2 60.7 C 10.2 60.7 11.2 61.3 11.7 62.4 C 11.71 62.42 11.8 60.8 11.8 60.8 L 12.2 60.8 L 12.2 67.2 L 11.8 67.2 C 11.8 67.2 11.71 65.6 11.7 65.6 C 11.2 66.8 10.2 67.3 9.2 67.3 C 7.7 67.3 6.3 66 6.3 64 Z M 11.7 64 C 11.7 62.3 10.6 61.2 9.3 61.2 C 7.9 61.2 6.8 62.3 6.8 64 C 6.8 65.7 7.9 66.8 9.3 66.8 C 10.6 66.8 11.7 65.7 11.7 64 Z M 14.4 58.5 C 14.4 58.3 14.5 58.1 14.7 58.1 C 15 58.1 15.2 58.3 15.2 58.5 C 15.2 58.7 15 58.9 14.7 58.9 C 14.5 58.9 14.4 58.7 14.4 58.5 Z M 14.5 60.8 L 15 60.8 L 15 67.2 L 14.5 67.2 L 14.5 60.8 Z M 20.9 61.3 C 20.9 61.3 20.9 61.8 20.9 61.8 C 20.4 61.5 19.8 61.2 19 61.2 C 18.1 61.2 17.5 61.7 17.5 62.4 C 17.5 63.1 18.1 63.4 19.2 63.7 C 20.2 64.1 21.2 64.4 21.2 65.5 C 21.2 66.6 20.3 67.3 19 67.3 C 18.3 67.3 17.5 67.1 16.9 66.6 C 16.9 66.6 16.9 65.9 16.9 65.9 C 17.4 66.5 18.2 66.8 19 66.8 C 20 66.8 20.7 66.3 20.7 65.5 C 20.7 64.8 20 64.5 18.9 64.1 C 17.9 63.8 17 63.5 17 62.4 C 17 61.4 17.8 60.7 19.1 60.7 C 19.7 60.7 20.4 60.9 20.9 61.3 Z M 28 64 C 28 62 29.4 60.7 30.9 60.7 C 32 60.7 33 61.3 33.5 62.4 C 33.46 62.42 33.5 60.8 33.5 60.8 L 33.9 60.8 L 33.9 67.2 L 33.5 67.2 C 33.5 67.2 33.46 65.6 33.5 65.6 C 33 66.8 32 67.3 31 67.3 C 29.4 67.3 28 66 28 64 Z M 33.4 64 C 33.4 62.3 32.3 61.2 31 61.2 C 29.7 61.2 28.5 62.3 28.5 64 C 28.5 65.7 29.7 66.8 31 66.8 C 32.3 66.8 33.4 65.7 33.4 64 Z M 36.1 64.9 C 36.12 64.88 36.1 60.8 36.1 60.8 L 36.6 60.8 C 36.6 60.8 36.62 64.91 36.6 64.9 C 36.6 66.1 37.4 66.8 38.5 66.8 C 39.7 66.8 40.4 66.1 40.4 64.9 C 40.42 64.9 40.4 60.8 40.4 60.8 L 40.9 60.8 C 40.9 60.8 40.92 64.87 40.9 64.9 C 40.9 66.3 40 67.3 38.5 67.3 C 37 67.3 36.1 66.3 36.1 64.9 Z M 43.8 60.8 L 45.7 60.8 L 45.7 61.3 L 43.8 61.3 C 43.8 61.3 43.8 65.2 43.8 65.2 C 43.8 66.4 44.4 66.8 45.3 66.8 C 45.5 66.8 45.7 66.8 45.9 66.8 C 45.9 66.8 45.9 67.2 45.9 67.2 C 45.8 67.2 45.6 67.3 45.3 67.3 C 44.1 67.3 43.3 66.6 43.3 65.2 C 43.3 65.22 43.3 61.3 43.3 61.3 L 42.3 61.3 L 42.3 60.8 L 43.3 60.8 L 43.3 59.3 L 43.8 59.3 L 43.8 60.8 Z M 46.7 64 C 46.7 62.1 48.1 60.7 49.7 60.7 C 51.4 60.7 52.8 62.1 52.8 64 C 52.8 66 51.4 67.3 49.7 67.3 C 48.1 67.3 46.7 66 46.7 64 Z M 52.3 64 C 52.3 62.2 51 61.2 49.7 61.2 C 48.4 61.2 47.2 62.2 47.2 64 C 47.2 65.8 48.4 66.8 49.7 66.8 C 51 66.8 52.3 65.8 52.3 64 Z M 54.5 64.9 C 54.52 64.88 54.5 60.8 54.5 60.8 L 55 60.8 C 55 60.8 55.02 64.91 55 64.9 C 55 66.1 55.8 66.8 56.9 66.8 C 58.1 66.8 58.8 66.1 58.8 64.9 C 58.81 64.9 58.8 60.8 58.8 60.8 L 59.3 60.8 C 59.3 60.8 59.31 64.87 59.3 64.9 C 59.3 66.3 58.4 67.3 56.9 67.3 C 55.4 67.3 54.5 66.3 54.5 64.9 Z M 61.5 60.8 L 61.9 60.8 L 62 62 C 62 62 61.98 62.02 62 62 C 62.4 61.1 63.2 60.8 63.9 60.8 C 64 60.8 64.1 60.8 64.2 60.8 C 64.2 60.8 64.2 61.3 64.2 61.3 C 64.1 61.3 64 61.3 63.9 61.3 C 63 61.3 62 61.9 62 63.2 C 62.01 63.17 62 67.2 62 67.2 L 61.5 67.2 L 61.5 60.8 Z M 70.4 64 C 70.4 62 71.8 60.7 73.3 60.7 C 74.3 60.7 75.3 61.3 75.8 62.4 C 75.78 62.38 75.8 57.7 75.8 57.7 L 76.3 57.7 L 76.3 67.2 L 75.9 67.2 L 75.8 65.6 C 75.8 65.6 75.8 65.59 75.8 65.6 C 75.3 66.8 74.3 67.3 73.3 67.3 C 71.8 67.3 70.4 66 70.4 64 Z M 75.8 64 C 75.8 62.3 74.7 61.2 73.4 61.2 C 72 61.2 70.9 62.3 70.9 64 C 70.9 65.7 72 66.8 73.4 66.8 C 74.7 66.8 75.8 65.7 75.8 64 Z M 83.7 64.2 C 83.7 64.2 78.6 64.2 78.6 64.2 C 78.7 65.8 79.7 66.8 81.2 66.8 C 81.9 66.8 82.8 66.6 83.4 65.9 C 83.4 65.9 83.4 66.5 83.4 66.5 C 82.8 67 82 67.3 81.2 67.3 C 79.4 67.3 78.1 66 78.1 64 C 78.1 62 79.5 60.7 81.1 60.7 C 82.5 60.7 83.7 61.8 83.7 63.9 C 83.7 64 83.7 64.1 83.7 64.2 Z M 83.2 63.7 C 83.2 62 82.2 61.2 81.1 61.2 C 79.9 61.2 78.7 62.2 78.6 63.7 C 78.6 63.7 83.2 63.7 83.2 63.7 Z M 93.7 66.8 C 94.2 66.8 94.9 66.7 95.4 66.3 C 95.4 66.3 95.4 66.9 95.4 66.9 C 94.9 67.2 94.3 67.3 93.7 67.3 C 92 67.3 90.6 65.9 90.6 64 C 90.6 62.1 92 60.7 93.7 60.7 C 94.3 60.7 94.9 60.8 95.4 61.2 C 95.4 61.2 95.4 61.7 95.4 61.7 C 94.8 61.3 94.3 61.2 93.7 61.2 C 92.3 61.2 91.1 62.3 91.1 64 C 91.1 65.7 92.4 66.8 93.7 66.8 Z M 96.6 64 C 96.6 62.1 97.9 60.7 99.6 60.7 C 101.3 60.7 102.7 62.1 102.7 64 C 102.7 66 101.3 67.3 99.6 67.3 C 98 67.3 96.6 66 96.6 64 Z M 102.2 64 C 102.2 62.2 100.9 61.2 99.6 61.2 C 98.3 61.2 97.1 62.2 97.1 64 C 97.1 65.8 98.3 66.8 99.6 66.8 C 100.9 66.8 102.2 65.8 102.2 64 Z M 109.4 62.4 C 109.44 62.44 109.5 60.8 109.5 60.8 L 109.9 60.8 L 109.9 69.8 L 109.4 69.8 C 109.4 69.8 109.41 65.64 109.4 65.6 C 109 66.7 108 67.3 106.9 67.3 C 105.4 67.3 104 66 104 64 C 104 62 105.4 60.7 106.9 60.7 C 108 60.7 109 61.3 109.4 62.4 Z M 104.5 64 C 104.5 65.7 105.7 66.8 107 66.8 C 108.3 66.8 109.4 65.7 109.4 64 C 109.4 62.3 108.3 61.2 107 61.2 C 105.7 61.2 104.5 62.3 104.5 64 Z M 112.1 64.9 C 112.1 64.88 112.1 60.8 112.1 60.8 L 112.6 60.8 C 112.6 60.8 112.61 64.91 112.6 64.9 C 112.6 66.1 113.3 66.8 114.5 66.8 C 115.7 66.8 116.4 66.1 116.4 64.9 C 116.4 64.9 116.4 60.8 116.4 60.8 L 116.9 60.8 C 116.9 60.8 116.9 64.87 116.9 64.9 C 116.9 66.3 116 67.3 114.5 67.3 C 113 67.3 112.1 66.3 112.1 64.9 Z M 124.2 64.2 C 124.2 64.2 119.2 64.2 119.2 64.2 C 119.2 65.8 120.3 66.8 121.7 66.8 C 122.5 66.8 123.3 66.6 124 65.9 C 124 65.9 124 66.5 124 66.5 C 123.3 67 122.5 67.3 121.7 67.3 C 119.9 67.3 118.7 66 118.7 64 C 118.7 62 120.1 60.7 121.6 60.7 C 123 60.7 124.2 61.8 124.2 63.9 C 124.2 64 124.2 64.1 124.2 64.2 Z M 123.7 63.7 C 123.7 62 122.7 61.2 121.6 61.2 C 120.4 61.2 119.3 62.2 119.2 63.7 C 119.2 63.7 123.7 63.7 123.7 63.7 Z M 129.6 61.3 C 129.6 61.3 129.6 61.8 129.6 61.8 C 129.1 61.5 128.5 61.2 127.8 61.2 C 126.8 61.2 126.2 61.7 126.2 62.4 C 126.2 63.1 126.9 63.4 127.9 63.7 C 128.9 64.1 129.9 64.4 129.9 65.5 C 129.9 66.6 129 67.3 127.7 67.3 C 127 67.3 126.2 67.1 125.6 66.6 C 125.6 66.6 125.6 65.9 125.6 65.9 C 126.1 66.5 126.9 66.8 127.7 66.8 C 128.7 66.8 129.4 66.3 129.4 65.5 C 129.4 64.8 128.7 64.5 127.7 64.1 C 126.6 63.8 125.7 63.5 125.7 62.4 C 125.7 61.4 126.5 60.7 127.8 60.7 C 128.4 60.7 129.1 60.9 129.6 61.3 Z M 142.3 64.2 C 142.3 64.2 137.3 64.2 137.3 64.2 C 137.4 65.8 138.4 66.8 139.8 66.8 C 140.6 66.8 141.4 66.6 142.1 65.9 C 142.1 65.9 142.1 66.5 142.1 66.5 C 141.4 67 140.6 67.3 139.8 67.3 C 138 67.3 136.8 66 136.8 64 C 136.8 62 138.2 60.7 139.7 60.7 C 141.1 60.7 142.4 61.8 142.4 63.9 C 142.4 64 142.3 64.1 142.3 64.2 Z M 141.9 63.7 C 141.8 62 140.8 61.2 139.7 61.2 C 138.5 61.2 137.4 62.2 137.3 63.7 C 137.3 63.7 141.9 63.7 141.9 63.7 Z M 148.9 63 C 148.94 62.96 148.9 67.2 148.9 67.2 L 148.4 67.2 C 148.4 67.2 148.44 63.17 148.4 63.2 C 148.4 61.9 147.8 61.2 146.6 61.2 C 145.5 61.2 144.7 61.9 144.7 63.1 C 144.66 63.11 144.7 67.2 144.7 67.2 L 144.2 67.2 L 144.2 60.8 L 144.6 60.8 L 144.6 62 C 144.6 62 144.62 61.96 144.6 62 C 145 61.2 145.7 60.7 146.7 60.7 C 148.1 60.7 148.9 61.6 148.9 63 Z " stroke="none" fill="#000"/>
  </g>
  <g id="Polygon18141">
    <path d="M 1.1 46.4 L 1.5 46.4 C 1.5 46.4 1.61 48.04 1.6 48 C 2.1 46.9 3.1 46.3 4.1 46.3 C 5.6 46.3 7 47.6 7 49.6 C 7 51.6 5.6 52.9 4.1 52.9 C 3.1 52.9 2.1 52.3 1.6 51.3 C 1.64 51.25 1.6 55.4 1.6 55.4 L 1.1 55.4 L 1.1 46.4 Z M 6.5 49.6 C 6.5 47.9 5.4 46.8 4.1 46.8 C 2.7 46.8 1.6 47.9 1.6 49.6 C 1.6 51.3 2.8 52.4 4.1 52.4 C 5.4 52.4 6.5 51.3 6.5 49.6 Z M 11.1 45.3 L 10.7 45.3 L 12.1 43.4 L 12.7 43.4 L 11.1 45.3 Z M 14 49.8 C 14 49.8 8.9 49.8 8.9 49.8 C 9 51.4 10 52.4 11.5 52.4 C 12.2 52.4 13.1 52.2 13.7 51.5 C 13.7 51.5 13.7 52.1 13.7 52.1 C 13.1 52.6 12.3 52.9 11.4 52.9 C 9.7 52.9 8.4 51.6 8.4 49.6 C 8.4 47.6 9.8 46.3 11.4 46.3 C 12.8 46.3 14 47.4 14 49.5 C 14 49.6 14 49.7 14 49.8 Z M 13.5 49.3 C 13.5 47.6 12.4 46.8 11.4 46.8 C 10.2 46.8 9 47.8 8.9 49.3 C 8.9 49.3 13.5 49.3 13.5 49.3 Z M 15.8 46.4 L 16.2 46.4 L 16.2 47.6 C 16.2 47.6 16.26 47.62 16.3 47.6 C 16.6 46.7 17.5 46.4 18.1 46.4 C 18.3 46.4 18.4 46.4 18.5 46.4 C 18.5 46.4 18.5 46.9 18.5 46.9 C 18.4 46.9 18.3 46.9 18.1 46.9 C 17.2 46.9 16.3 47.5 16.3 48.8 C 16.29 48.77 16.3 52.8 16.3 52.8 L 15.8 52.8 L 15.8 46.4 Z M 19.8 44.1 C 19.8 43.9 19.9 43.7 20.1 43.7 C 20.4 43.7 20.6 43.9 20.6 44.1 C 20.6 44.3 20.4 44.5 20.1 44.5 C 19.9 44.5 19.8 44.3 19.8 44.1 Z M 19.9 46.4 L 20.4 46.4 L 20.4 52.8 L 19.9 52.8 L 19.9 46.4 Z M 27.8 49.8 C 27.8 49.8 22.8 49.8 22.8 49.8 C 22.9 51.4 23.9 52.4 25.3 52.4 C 26.1 52.4 26.9 52.2 27.6 51.5 C 27.6 51.5 27.6 52.1 27.6 52.1 C 26.9 52.6 26.1 52.9 25.3 52.9 C 23.5 52.9 22.3 51.6 22.3 49.6 C 22.3 47.6 23.7 46.3 25.2 46.3 C 26.6 46.3 27.9 47.4 27.9 49.5 C 27.9 49.6 27.8 49.7 27.8 49.8 Z M 27.3 49.3 C 27.3 47.6 26.3 46.8 25.2 46.8 C 24 46.8 22.9 47.8 22.8 49.3 C 22.8 49.3 27.3 49.3 27.3 49.3 Z M 37.4 48.5 C 37.38 48.48 37.4 52.8 37.4 52.8 L 36.9 52.8 C 36.9 52.8 36.88 48.53 36.9 48.5 C 36.9 47.5 36.4 46.8 35.4 46.8 C 34.4 46.8 33.8 47.6 33.8 48.5 C 33.77 48.54 33.8 52.8 33.8 52.8 L 33.3 52.8 C 33.3 52.8 33.26 48.53 33.3 48.5 C 33.3 47.5 32.8 46.8 31.8 46.8 C 30.7 46.8 30.2 47.6 30.2 48.6 C 30.15 48.56 30.2 52.8 30.2 52.8 L 29.7 52.8 L 29.7 46.4 L 30 46.4 L 30.1 47.5 C 30.1 47.5 30.12 47.48 30.1 47.5 C 30.4 46.8 31 46.3 31.8 46.3 C 32.8 46.3 33.4 46.8 33.6 47.6 C 33.9 46.8 34.5 46.3 35.4 46.3 C 36.7 46.3 37.4 47.2 37.4 48.5 Z M 44.7 49.8 C 44.7 49.8 39.6 49.8 39.6 49.8 C 39.7 51.4 40.8 52.4 42.2 52.4 C 43 52.4 43.8 52.2 44.5 51.5 C 44.5 51.5 44.5 52.1 44.5 52.1 C 43.8 52.6 43 52.9 42.2 52.9 C 40.4 52.9 39.1 51.6 39.1 49.6 C 39.1 47.6 40.6 46.3 42.1 46.3 C 43.5 46.3 44.7 47.4 44.7 49.5 C 44.7 49.6 44.7 49.7 44.7 49.8 Z M 44.2 49.3 C 44.2 47.6 43.2 46.8 42.1 46.8 C 40.9 46.8 39.8 47.8 39.7 49.3 C 39.7 49.3 44.2 49.3 44.2 49.3 Z M 51.3 48.6 C 51.31 48.56 51.3 52.8 51.3 52.8 L 50.8 52.8 C 50.8 52.8 50.81 48.77 50.8 48.8 C 50.8 47.5 50.1 46.8 49 46.8 C 47.9 46.8 47 47.5 47 48.7 C 47.03 48.71 47 52.8 47 52.8 L 46.5 52.8 L 46.5 46.4 L 46.9 46.4 L 47 47.6 C 47 47.6 46.99 47.56 47 47.6 C 47.3 46.8 48.1 46.3 49.1 46.3 C 50.4 46.3 51.3 47.2 51.3 48.6 Z M 54.1 46.4 L 56 46.4 L 56 46.9 L 54.1 46.9 C 54.1 46.9 54.13 50.8 54.1 50.8 C 54.1 52 54.8 52.4 55.7 52.4 C 55.8 52.4 56 52.4 56.2 52.4 C 56.2 52.4 56.2 52.8 56.2 52.8 C 56.1 52.8 55.9 52.9 55.6 52.9 C 54.5 52.9 53.6 52.2 53.6 50.8 C 53.63 50.82 53.6 46.9 53.6 46.9 L 52.6 46.9 L 52.6 46.4 L 53.6 46.4 L 53.6 44.9 L 54.1 44.9 L 54.1 46.4 Z M 57 49.6 C 57 47.6 58.4 46.3 59.9 46.3 C 60.9 46.3 62 46.9 62.4 48 C 62.44 48.02 62.5 46.4 62.5 46.4 L 62.9 46.4 L 62.9 52.8 L 62.5 52.8 C 62.5 52.8 62.44 51.2 62.4 51.2 C 62 52.4 60.9 52.9 59.9 52.9 C 58.4 52.9 57 51.6 57 49.6 Z M 62.4 49.6 C 62.4 47.9 61.3 46.8 60 46.8 C 58.7 46.8 57.5 47.9 57.5 49.6 C 57.5 51.3 58.7 52.4 60 52.4 C 61.3 52.4 62.4 51.3 62.4 49.6 Z M 65.9 46.4 L 67.8 46.4 L 67.8 46.9 L 65.9 46.9 C 65.9 46.9 65.87 50.8 65.9 50.8 C 65.9 52 66.5 52.4 67.4 52.4 C 67.6 52.4 67.8 52.4 67.9 52.4 C 67.9 52.4 67.9 52.8 67.9 52.8 C 67.9 52.8 67.6 52.9 67.3 52.9 C 66.2 52.9 65.4 52.2 65.4 50.8 C 65.36 50.82 65.4 46.9 65.4 46.9 L 64.4 46.9 L 64.4 46.4 L 65.4 46.4 L 65.4 44.9 L 65.9 44.9 L 65.9 46.4 Z M 69.2 44.1 C 69.2 43.9 69.4 43.7 69.6 43.7 C 69.8 43.7 70 43.9 70 44.1 C 70 44.3 69.8 44.5 69.6 44.5 C 69.4 44.5 69.2 44.3 69.2 44.1 Z M 69.3 46.4 L 69.8 46.4 L 69.8 52.8 L 69.3 52.8 L 69.3 46.4 Z M 71.7 49.6 C 71.7 47.7 73.1 46.3 74.7 46.3 C 76.4 46.3 77.8 47.7 77.8 49.6 C 77.8 51.6 76.4 52.9 74.7 52.9 C 73.1 52.9 71.7 51.6 71.7 49.6 Z M 77.3 49.6 C 77.3 47.8 76 46.8 74.7 46.8 C 73.4 46.8 72.2 47.8 72.2 49.6 C 72.2 51.4 73.5 52.4 74.7 52.4 C 76 52.4 77.3 51.4 77.3 49.6 Z M 84.4 48.6 C 84.39 48.56 84.4 52.8 84.4 52.8 L 83.9 52.8 C 83.9 52.8 83.89 48.77 83.9 48.8 C 83.9 47.5 83.2 46.8 82.1 46.8 C 81 46.8 80.1 47.5 80.1 48.7 C 80.11 48.71 80.1 52.8 80.1 52.8 L 79.6 52.8 L 79.6 46.4 L 80 46.4 L 80.1 47.6 C 80.1 47.6 80.07 47.56 80.1 47.6 C 80.4 46.8 81.2 46.3 82.2 46.3 C 83.5 46.3 84.4 47.2 84.4 48.6 Z M 90.1 46.9 C 90.1 46.9 90.1 47.4 90.1 47.4 C 89.6 47.1 89 46.8 88.3 46.8 C 87.4 46.8 86.7 47.3 86.7 48 C 86.7 48.7 87.4 49 88.4 49.3 C 89.4 49.7 90.5 50 90.5 51.1 C 90.5 52.2 89.6 52.9 88.3 52.9 C 87.5 52.9 86.8 52.7 86.1 52.2 C 86.1 52.2 86.1 51.5 86.1 51.5 C 86.7 52.1 87.5 52.4 88.3 52.4 C 89.3 52.4 90 51.9 90 51.1 C 90 50.4 89.2 50.1 88.2 49.7 C 87.2 49.4 86.2 49.1 86.2 48 C 86.2 47 87.1 46.3 88.3 46.3 C 89 46.3 89.7 46.5 90.1 46.9 Z M 92 52.4 C 92 52.1 92.2 51.9 92.5 51.9 C 92.7 51.9 92.9 52.1 92.9 52.4 C 92.9 52.6 92.7 52.8 92.5 52.8 C 92.2 52.8 92 52.6 92 52.4 Z M 110.6 48.3 C 110.6 51.1 108.7 52.8 105.9 52.8 C 105.92 52.8 104.1 52.8 104.1 52.8 L 104.1 43.9 C 104.1 43.9 105.92 43.88 105.9 43.9 C 108.7 43.9 110.6 45.6 110.6 48.3 Z M 104.6 52.3 C 104.6 52.3 105.94 52.32 105.9 52.3 C 108.3 52.3 110.1 50.9 110.1 48.3 C 110.1 45.8 108.3 44.4 106 44.4 C 105.95 44.38 104.6 44.4 104.6 44.4 L 104.6 52.3 Z M 117.6 49.8 C 117.6 49.8 112.6 49.8 112.6 49.8 C 112.6 51.4 113.7 52.4 115.1 52.4 C 115.9 52.4 116.7 52.2 117.4 51.5 C 117.4 51.5 117.4 52.1 117.4 52.1 C 116.7 52.6 115.9 52.9 115.1 52.9 C 113.3 52.9 112.1 51.6 112.1 49.6 C 112.1 47.6 113.5 46.3 115 46.3 C 116.4 46.3 117.6 47.4 117.6 49.5 C 117.6 49.6 117.6 49.7 117.6 49.8 Z M 117.1 49.3 C 117.1 47.6 116.1 46.8 115 46.8 C 113.8 46.8 112.7 47.8 112.6 49.3 C 112.6 49.3 117.1 49.3 117.1 49.3 Z M 123 46.9 C 123 46.9 123 47.4 123 47.4 C 122.5 47.1 121.9 46.8 121.2 46.8 C 120.2 46.8 119.6 47.3 119.6 48 C 119.6 48.7 120.3 49 121.3 49.3 C 122.3 49.7 123.3 50 123.3 51.1 C 123.3 52.2 122.4 52.9 121.1 52.9 C 120.4 52.9 119.6 52.7 119 52.2 C 119 52.2 119 51.5 119 51.5 C 119.5 52.1 120.3 52.4 121.1 52.4 C 122.2 52.4 122.8 51.9 122.8 51.1 C 122.8 50.4 122.1 50.1 121.1 49.7 C 120 49.4 119.1 49.1 119.1 48 C 119.1 47 119.9 46.3 121.2 46.3 C 121.9 46.3 122.5 46.5 123 46.9 Z M 139 49.8 C 139 49.8 134 49.8 134 49.8 C 134.1 51.4 135.1 52.4 136.5 52.4 C 137.3 52.4 138.1 52.2 138.8 51.5 C 138.8 51.5 138.8 52.1 138.8 52.1 C 138.1 52.6 137.4 52.9 136.5 52.9 C 134.7 52.9 133.5 51.6 133.5 49.6 C 133.5 47.6 134.9 46.3 136.4 46.3 C 137.9 46.3 139.1 47.4 139.1 49.5 C 139.1 49.6 139.1 49.7 139 49.8 Z M 138.6 49.3 C 138.5 47.6 137.5 46.8 136.4 46.8 C 135.2 46.8 134.1 47.8 134 49.3 C 134 49.3 138.6 49.3 138.6 49.3 Z M 144.4 46.9 C 144.4 46.9 144.4 47.4 144.4 47.4 C 143.9 47.1 143.3 46.8 142.6 46.8 C 141.6 46.8 141 47.3 141 48 C 141 48.7 141.7 49 142.7 49.3 C 143.7 49.7 144.7 50 144.7 51.1 C 144.7 52.2 143.9 52.9 142.6 52.9 C 141.8 52.9 141 52.7 140.4 52.2 C 140.4 52.2 140.4 51.5 140.4 51.5 C 141 52.1 141.7 52.4 142.6 52.4 C 143.6 52.4 144.2 51.9 144.2 51.1 C 144.2 50.4 143.5 50.1 142.5 49.7 C 141.4 49.4 140.5 49.1 140.5 48 C 140.5 47 141.4 46.3 142.6 46.3 C 143.3 46.3 143.9 46.5 144.4 46.9 Z M 146.2 48.9 L 149 48.9 L 149 49.4 L 146.2 49.4 L 146.2 48.9 Z " stroke="none" fill="#000"/>
  </g>
  <g id="Polygon18140">
    <path d="M 4.7 32.5 C 4.7 32.5 4.7 33 4.7 33 C 4.2 32.7 3.6 32.4 2.9 32.4 C 1.9 32.4 1.3 32.9 1.3 33.6 C 1.3 34.3 2 34.6 3 34.9 C 4 35.3 5 35.6 5 36.7 C 5 37.8 4.1 38.5 2.8 38.5 C 2.1 38.5 1.3 38.3 0.7 37.8 C 0.7 37.8 0.7 37.1 0.7 37.1 C 1.2 37.7 2 38 2.8 38 C 3.9 38 4.5 37.5 4.5 36.7 C 4.5 36 3.8 35.7 2.8 35.3 C 1.7 35 0.8 34.7 0.8 33.6 C 0.8 32.6 1.6 31.9 2.9 31.9 C 3.6 31.9 4.2 32.1 4.7 32.5 Z M 6.3 35.2 C 6.3 33.2 7.7 31.9 9.2 31.9 C 10.2 31.9 11.2 32.5 11.7 33.6 C 11.71 33.62 11.8 32 11.8 32 L 12.2 32 L 12.2 38.4 L 11.8 38.4 C 11.8 38.4 11.71 36.8 11.7 36.8 C 11.2 38 10.2 38.5 9.2 38.5 C 7.7 38.5 6.3 37.2 6.3 35.2 Z M 11.7 35.2 C 11.7 33.5 10.6 32.4 9.3 32.4 C 7.9 32.4 6.8 33.5 6.8 35.2 C 6.8 36.9 7.9 38 9.3 38 C 10.6 38 11.7 36.9 11.7 35.2 Z M 15 33.6 C 15.4 32.5 16.4 31.9 17.4 31.9 C 18.9 31.9 20.3 33.2 20.3 35.2 C 20.3 37.2 18.9 38.5 17.4 38.5 C 16.4 38.5 15.4 38 14.9 36.8 C 14.93 36.79 14.9 38.4 14.9 38.4 L 14.5 38.4 L 14.5 28.9 L 15 28.9 C 15 28.9 14.96 33.59 15 33.6 Z M 14.9 35.2 C 14.9 36.9 16.1 38 17.4 38 C 18.7 38 19.8 36.9 19.8 35.2 C 19.8 33.5 18.7 32.4 17.4 32.4 C 16.1 32.4 14.9 33.5 14.9 35.2 Z M 22.2 28.9 L 22.7 28.9 L 22.7 38.4 L 22.2 38.4 L 22.2 28.9 Z M 30.1 35.4 C 30.1 35.4 25.1 35.4 25.1 35.4 C 25.2 37 26.2 38 27.6 38 C 28.4 38 29.2 37.8 29.9 37.1 C 29.9 37.1 29.9 37.7 29.9 37.7 C 29.2 38.2 28.5 38.5 27.6 38.5 C 25.8 38.5 24.6 37.2 24.6 35.2 C 24.6 33.2 26 31.9 27.5 31.9 C 29 31.9 30.2 33 30.2 35.1 C 30.2 35.2 30.2 35.3 30.1 35.4 Z M 29.7 34.9 C 29.6 33.2 28.6 32.4 27.5 32.4 C 26.3 32.4 25.2 33.4 25.1 34.9 C 25.1 34.9 29.7 34.9 29.7 34.9 Z M 35.5 32.5 C 35.5 32.5 35.5 33 35.5 33 C 35 32.7 34.4 32.4 33.7 32.4 C 32.7 32.4 32.1 32.9 32.1 33.6 C 32.1 34.3 32.8 34.6 33.8 34.9 C 34.8 35.3 35.8 35.6 35.8 36.7 C 35.8 37.8 35 38.5 33.7 38.5 C 32.9 38.5 32.1 38.3 31.5 37.8 C 31.5 37.8 31.5 37.1 31.5 37.1 C 32.1 37.7 32.8 38 33.7 38 C 34.7 38 35.3 37.5 35.3 36.7 C 35.3 36 34.6 35.7 33.6 35.3 C 32.5 35 31.6 34.7 31.6 33.6 C 31.6 32.6 32.5 31.9 33.7 31.9 C 34.4 31.9 35 32.1 35.5 32.5 Z M 50.6 32.5 C 50.6 32.5 50.6 33 50.6 33 C 50.1 32.7 49.4 32.4 48.7 32.4 C 47.8 32.4 47.2 32.9 47.2 33.6 C 47.2 34.3 47.8 34.6 48.8 34.9 C 49.9 35.3 50.9 35.6 50.9 36.7 C 50.9 37.8 50 38.5 48.7 38.5 C 48 38.5 47.2 38.3 46.6 37.8 C 46.6 37.8 46.6 37.1 46.6 37.1 C 47.1 37.7 47.9 38 48.7 38 C 49.7 38 50.4 37.5 50.4 36.7 C 50.4 36 49.7 35.7 48.6 35.3 C 47.6 35 46.7 34.7 46.7 33.6 C 46.7 32.6 47.5 31.9 48.8 31.9 C 49.4 31.9 50.1 32.1 50.6 32.5 Z M 52.2 35.2 C 52.2 33.3 53.5 31.9 55.2 31.9 C 56.9 31.9 58.3 33.3 58.3 35.2 C 58.3 37.2 56.9 38.5 55.2 38.5 C 53.6 38.5 52.2 37.2 52.2 35.2 Z M 57.8 35.2 C 57.8 33.4 56.5 32.4 55.2 32.4 C 53.9 32.4 52.7 33.4 52.7 35.2 C 52.7 37 53.9 38 55.2 38 C 56.5 38 57.8 37 57.8 35.2 Z M 64.9 34.2 C 64.87 34.16 64.9 38.4 64.9 38.4 L 64.4 38.4 C 64.4 38.4 64.36 34.37 64.4 34.4 C 64.4 33.1 63.7 32.4 62.6 32.4 C 61.5 32.4 60.6 33.1 60.6 34.3 C 60.58 34.31 60.6 38.4 60.6 38.4 L 60.1 38.4 L 60.1 32 L 60.5 32 L 60.5 33.2 C 60.5 33.2 60.55 33.16 60.5 33.2 C 60.9 32.4 61.7 31.9 62.6 31.9 C 64 31.9 64.9 32.8 64.9 34.2 Z M 67.7 32 L 69.6 32 L 69.6 32.5 L 67.7 32.5 C 67.7 32.5 67.69 36.4 67.7 36.4 C 67.7 37.6 68.3 38 69.2 38 C 69.4 38 69.6 38 69.8 38 C 69.8 38 69.8 38.4 69.8 38.4 C 69.7 38.4 69.4 38.5 69.2 38.5 C 68 38.5 67.2 37.8 67.2 36.4 C 67.18 36.42 67.2 32.5 67.2 32.5 L 66.2 32.5 L 66.2 32 L 67.2 32 L 67.2 30.5 L 67.7 30.5 L 67.7 32 Z M 80.5 28.9 L 81 28.9 L 81 38.4 L 80.5 38.4 L 80.5 28.9 Z M 83.5 29.9 C 83.52 29.93 83.5 29.5 83.5 29.5 L 84 29.5 C 84 29.5 84.03 29.92 84 29.9 C 84 30.9 83.6 31.9 83.4 32.5 C 83.4 32.5 83 32.5 83 32.5 C 83.2 31.9 83.5 30.9 83.5 29.9 Z M 85.1 35.2 C 85.1 33.3 86.5 31.9 88.2 31.9 C 89.8 31.9 91.2 33.3 91.2 35.2 C 91.2 37.2 89.8 38.5 88.2 38.5 C 86.5 38.5 85.1 37.2 85.1 35.2 Z M 90.7 35.2 C 90.7 33.4 89.5 32.4 88.2 32.4 C 86.8 32.4 85.6 33.4 85.6 35.2 C 85.6 37 86.9 38 88.2 38 C 89.5 38 90.7 37 90.7 35.2 Z M 93.5 33.6 C 94 32.5 95 31.9 96 31.9 C 97.5 31.9 98.9 33.2 98.9 35.2 C 98.9 37.2 97.5 38.5 96 38.5 C 95 38.5 94 38 93.5 36.8 C 93.48 36.79 93.4 38.4 93.4 38.4 L 93 38.4 L 93 28.9 L 93.5 28.9 C 93.5 28.9 93.52 33.59 93.5 33.6 Z M 93.5 35.2 C 93.5 36.9 94.6 38 95.9 38 C 97.3 38 98.4 36.9 98.4 35.2 C 98.4 33.5 97.3 32.4 96 32.4 C 94.6 32.4 93.5 33.5 93.5 35.2 Z M 100.6 29.7 C 100.6 29.5 100.8 29.3 101 29.3 C 101.3 29.3 101.4 29.5 101.4 29.7 C 101.4 29.9 101.3 30.1 101 30.1 C 100.8 30.1 100.6 29.9 100.6 29.7 Z M 100.8 37.7 C 100.78 37.72 100.8 32 100.8 32 L 101.3 32 C 101.3 32 101.28 37.73 101.3 37.7 C 101.3 39.2 100.9 40.1 100.3 41 C 100.3 41 99.7 41 99.7 41 C 100.4 40.2 100.8 39.2 100.8 37.7 Z M 108.7 35.4 C 108.7 35.4 103.7 35.4 103.7 35.4 C 103.7 37 104.8 38 106.2 38 C 107 38 107.8 37.8 108.5 37.1 C 108.5 37.1 108.5 37.7 108.5 37.7 C 107.8 38.2 107 38.5 106.2 38.5 C 104.4 38.5 103.2 37.2 103.2 35.2 C 103.2 33.2 104.6 31.9 106.1 31.9 C 107.5 31.9 108.7 33 108.7 35.1 C 108.7 35.2 108.7 35.3 108.7 35.4 Z M 108.2 34.9 C 108.2 33.2 107.2 32.4 106.1 32.4 C 104.9 32.4 103.8 33.4 103.7 34.9 C 103.7 34.9 108.2 34.9 108.2 34.9 Z M 111.2 32 L 113.1 32 L 113.1 32.5 L 111.2 32.5 C 111.2 32.5 111.16 36.4 111.2 36.4 C 111.2 37.6 111.8 38 112.7 38 C 112.9 38 113 38 113.2 38 C 113.2 38 113.2 38.4 113.2 38.4 C 113.2 38.4 112.9 38.5 112.6 38.5 C 111.5 38.5 110.7 37.8 110.7 36.4 C 110.66 36.42 110.7 32.5 110.7 32.5 L 109.7 32.5 L 109.7 32 L 110.7 32 L 110.7 30.5 L 111.2 30.5 L 111.2 32 Z M 123.5 35.2 C 123.5 33.2 124.9 31.9 126.4 31.9 C 127.4 31.9 128.4 32.5 128.9 33.6 C 128.88 33.58 128.9 28.9 128.9 28.9 L 129.4 28.9 L 129.4 38.4 L 129 38.4 L 128.9 36.8 C 128.9 36.8 128.9 36.79 128.9 36.8 C 128.4 38 127.4 38.5 126.4 38.5 C 124.9 38.5 123.5 37.2 123.5 35.2 Z M 128.9 35.2 C 128.9 33.5 127.8 32.4 126.5 32.4 C 125.1 32.4 124 33.5 124 35.2 C 124 36.9 125.1 38 126.5 38 C 127.8 38 128.9 36.9 128.9 35.2 Z M 131.9 29.9 C 131.86 29.93 131.9 29.5 131.9 29.5 L 132.4 29.5 C 132.4 29.5 132.36 29.92 132.4 29.9 C 132.4 30.9 132 31.9 131.7 32.5 C 131.7 32.5 131.3 32.5 131.3 32.5 C 131.5 31.9 131.9 30.9 131.9 29.9 Z M 139 35.4 C 139 35.4 134 35.4 134 35.4 C 134 37 135.1 38 136.5 38 C 137.3 38 138.1 37.8 138.8 37.1 C 138.8 37.1 138.8 37.7 138.8 37.7 C 138.1 38.2 137.3 38.5 136.5 38.5 C 134.7 38.5 133.5 37.2 133.5 35.2 C 133.5 33.2 134.9 31.9 136.4 31.9 C 137.8 31.9 139 33 139 35.1 C 139 35.2 139 35.3 139 35.4 Z M 138.5 34.9 C 138.5 33.2 137.5 32.4 136.4 32.4 C 135.2 32.4 134.1 33.4 134 34.9 C 134 34.9 138.5 34.9 138.5 34.9 Z M 142.8 35.2 L 145.1 38.4 L 144.5 38.4 L 142.5 35.6 L 142.5 35.6 L 140.5 38.4 L 140 38.4 L 142.2 35.2 L 140 32 L 140.6 32 L 142.5 34.8 L 142.5 34.8 L 144.5 32 L 145 32 L 142.8 35.2 Z M 146.2 34.5 L 149 34.5 L 149 35 L 146.2 35 L 146.2 34.5 Z " stroke="none" fill="#000"/>
  </g>
  <g id="Polygon18139">
    <path d="M 8.9 19.7 C 8.87 19.68 8.9 24 8.9 24 L 8.4 24 C 8.4 24 8.36 19.73 8.4 19.7 C 8.4 18.7 7.9 18 6.9 18 C 5.9 18 5.3 18.8 5.3 19.7 C 5.26 19.74 5.3 24 5.3 24 L 4.8 24 C 4.8 24 4.75 19.73 4.8 19.7 C 4.8 18.7 4.2 18 3.3 18 C 2.2 18 1.6 18.8 1.6 19.8 C 1.64 19.76 1.6 24 1.6 24 L 1.1 24 L 1.1 17.6 L 1.5 17.6 L 1.6 18.7 C 1.6 18.7 1.61 18.68 1.6 18.7 C 1.9 18 2.5 17.5 3.3 17.5 C 4.3 17.5 4.8 18 5.1 18.8 C 5.4 18 6 17.5 6.9 17.5 C 8.2 17.5 8.9 18.4 8.9 19.7 Z M 10.6 20.8 C 10.6 18.8 12 17.5 13.5 17.5 C 14.5 17.5 15.6 18.1 16 19.2 C 16.03 19.22 16.1 17.6 16.1 17.6 L 16.5 17.6 L 16.5 24 L 16.1 24 C 16.1 24 16.03 22.4 16 22.4 C 15.6 23.6 14.5 24.1 13.5 24.1 C 12 24.1 10.6 22.8 10.6 20.8 Z M 16 20.8 C 16 19.1 14.9 18 13.6 18 C 12.3 18 11.1 19.1 11.1 20.8 C 11.1 22.5 12.3 23.6 13.6 23.6 C 14.9 23.6 16 22.5 16 20.8 Z M 19.5 17.6 L 21.4 17.6 L 21.4 18.1 L 19.5 18.1 C 19.5 18.1 19.46 22 19.5 22 C 19.5 23.2 20.1 23.6 21 23.6 C 21.2 23.6 21.3 23.6 21.5 23.6 C 21.5 23.6 21.5 24 21.5 24 C 21.5 24 21.2 24.1 20.9 24.1 C 19.8 24.1 19 23.4 19 22 C 18.96 22.02 19 18.1 19 18.1 L 18 18.1 L 18 17.6 L 19 17.6 L 19 16.1 L 19.5 16.1 L 19.5 17.6 Z M 27.9 21 C 27.9 21 22.9 21 22.9 21 C 23 22.6 24 23.6 25.4 23.6 C 26.2 23.6 27 23.4 27.7 22.7 C 27.7 22.7 27.7 23.3 27.7 23.3 C 27 23.8 26.2 24.1 25.4 24.1 C 23.6 24.1 22.4 22.8 22.4 20.8 C 22.4 18.8 23.8 17.5 25.3 17.5 C 26.7 17.5 27.9 18.6 27.9 20.7 C 27.9 20.8 27.9 20.9 27.9 21 Z M 27.4 20.5 C 27.4 18.8 26.4 18 25.3 18 C 24.1 18 23 19 22.9 20.5 C 22.9 20.5 27.4 20.5 27.4 20.5 Z M 29.7 17.6 L 30.2 17.6 L 30.2 18.8 C 30.2 18.8 30.22 18.82 30.2 18.8 C 30.6 17.9 31.5 17.6 32.1 17.6 C 32.2 17.6 32.4 17.6 32.5 17.6 C 32.5 17.6 32.5 18.1 32.5 18.1 C 32.4 18.1 32.2 18.1 32.1 18.1 C 31.2 18.1 30.3 18.7 30.3 20 C 30.25 19.97 30.3 24 30.3 24 L 29.7 24 L 29.7 17.6 Z M 33.7 15.3 C 33.7 15.1 33.9 14.9 34.1 14.9 C 34.3 14.9 34.5 15.1 34.5 15.3 C 34.5 15.5 34.3 15.7 34.1 15.7 C 33.9 15.7 33.7 15.5 33.7 15.3 Z M 33.9 17.6 L 34.4 17.6 L 34.4 24 L 33.9 24 L 33.9 17.6 Z M 36.2 20.8 C 36.2 18.8 37.6 17.5 39.1 17.5 C 40.1 17.5 41.2 18.1 41.6 19.2 C 41.63 19.22 41.7 17.6 41.7 17.6 L 42.1 17.6 L 42.1 24 L 41.7 24 C 41.7 24 41.63 22.4 41.6 22.4 C 41.2 23.6 40.1 24.1 39.1 24.1 C 37.6 24.1 36.2 22.8 36.2 20.8 Z M 41.6 20.8 C 41.6 19.1 40.5 18 39.2 18 C 37.8 18 36.7 19.1 36.7 20.8 C 36.7 22.5 37.9 23.6 39.2 23.6 C 40.5 23.6 41.6 22.5 41.6 20.8 Z M 44.3 21.7 C 44.29 21.68 44.3 17.6 44.3 17.6 L 44.8 17.6 C 44.8 17.6 44.79 21.71 44.8 21.7 C 44.8 22.9 45.5 23.6 46.7 23.6 C 47.8 23.6 48.6 22.9 48.6 21.7 C 48.59 21.7 48.6 17.6 48.6 17.6 L 49.1 17.6 C 49.1 17.6 49.09 21.67 49.1 21.7 C 49.1 23.1 48.2 24.1 46.7 24.1 C 45.2 24.1 44.3 23.1 44.3 21.7 Z M 53.4 20.8 L 55.6 24 L 55.1 24 L 53.1 21.2 L 53.1 21.2 L 51.1 24 L 50.5 24 L 52.8 20.8 L 50.6 17.6 L 51.1 17.6 L 53.1 20.4 L 53.1 20.4 L 55 17.6 L 55.6 17.6 L 53.4 20.8 Z M 71 17.6 L 71.4 17.6 C 71.4 17.6 71.45 19.24 71.4 19.2 C 71.9 18.1 72.9 17.5 74 17.5 C 75.5 17.5 76.9 18.8 76.9 20.8 C 76.9 22.8 75.5 24.1 74 24.1 C 72.9 24.1 71.9 23.5 71.5 22.5 C 71.48 22.45 71.5 26.6 71.5 26.6 L 71 26.6 L 71 17.6 Z M 76.4 20.8 C 76.4 19.1 75.2 18 73.9 18 C 72.6 18 71.5 19.1 71.5 20.8 C 71.5 22.5 72.6 23.6 73.9 23.6 C 75.2 23.6 76.4 22.5 76.4 20.8 Z M 78.7 14.5 L 79.2 14.5 L 79.2 24 L 78.7 24 L 78.7 14.5 Z M 81.5 21.7 C 81.47 21.68 81.5 17.6 81.5 17.6 L 82 17.6 C 82 17.6 81.97 21.71 82 21.7 C 82 22.9 82.7 23.6 83.9 23.6 C 85 23.6 85.8 22.9 85.8 21.7 C 85.76 21.7 85.8 17.6 85.8 17.6 L 86.3 17.6 C 86.3 17.6 86.27 21.67 86.3 21.7 C 86.3 23.1 85.3 24.1 83.9 24.1 C 82.4 24.1 81.5 23.1 81.5 21.7 Z M 92 18.1 C 92 18.1 92 18.6 92 18.6 C 91.5 18.3 90.9 18 90.2 18 C 89.2 18 88.6 18.5 88.6 19.2 C 88.6 19.9 89.3 20.2 90.3 20.5 C 91.3 20.9 92.3 21.2 92.3 22.3 C 92.3 23.4 91.5 24.1 90.2 24.1 C 89.4 24.1 88.6 23.9 88 23.4 C 88 23.4 88 22.7 88 22.7 C 88.6 23.3 89.3 23.6 90.2 23.6 C 91.2 23.6 91.8 23.1 91.8 22.3 C 91.8 21.6 91.1 21.3 90.1 20.9 C 89 20.6 88.1 20.3 88.1 19.2 C 88.1 18.2 89 17.5 90.2 17.5 C 90.9 17.5 91.5 17.7 92 18.1 Z M 107.9 17.6 L 108.3 17.6 L 108.4 18.8 C 108.4 18.8 108.38 18.82 108.4 18.8 C 108.8 17.9 109.6 17.6 110.3 17.6 C 110.4 17.6 110.5 17.6 110.7 17.6 C 110.7 17.6 110.7 18.1 110.7 18.1 C 110.5 18.1 110.4 18.1 110.3 18.1 C 109.4 18.1 108.4 18.7 108.4 20 C 108.42 19.97 108.4 24 108.4 24 L 107.9 24 L 107.9 17.6 Z M 116.8 21 C 116.8 21 111.7 21 111.7 21 C 111.8 22.6 112.8 23.6 114.3 23.6 C 115.1 23.6 115.9 23.4 116.6 22.7 C 116.6 22.7 116.6 23.3 116.6 23.3 C 115.9 23.8 115.1 24.1 114.3 24.1 C 112.5 24.1 111.2 22.8 111.2 20.8 C 111.2 18.8 112.6 17.5 114.2 17.5 C 115.6 17.5 116.8 18.6 116.8 20.7 C 116.8 20.8 116.8 20.9 116.8 21 Z M 116.3 20.5 C 116.3 18.8 115.3 18 114.2 18 C 113 18 111.9 19 111.7 20.5 C 111.7 20.5 116.3 20.5 116.3 20.5 Z M 122.2 18.1 C 122.2 18.1 122.2 18.6 122.2 18.6 C 121.7 18.3 121 18 120.3 18 C 119.4 18 118.8 18.5 118.8 19.2 C 118.8 19.9 119.4 20.2 120.4 20.5 C 121.5 20.9 122.5 21.2 122.5 22.3 C 122.5 23.4 121.6 24.1 120.3 24.1 C 119.6 24.1 118.8 23.9 118.2 23.4 C 118.2 23.4 118.2 22.7 118.2 22.7 C 118.7 23.3 119.5 23.6 120.3 23.6 C 121.3 23.6 122 23.1 122 22.3 C 122 21.6 121.2 21.3 120.2 20.9 C 119.2 20.6 118.3 20.3 118.3 19.2 C 118.3 18.2 119.1 17.5 120.3 17.5 C 121 17.5 121.7 17.7 122.2 18.1 Z M 124.2 17.6 L 124.6 17.6 C 124.6 17.6 124.69 19.24 124.7 19.2 C 125.2 18.1 126.2 17.5 127.2 17.5 C 128.7 17.5 130.1 18.8 130.1 20.8 C 130.1 22.8 128.7 24.1 127.2 24.1 C 126.2 24.1 125.2 23.5 124.7 22.5 C 124.73 22.45 124.7 26.6 124.7 26.6 L 124.2 26.6 L 124.2 17.6 Z M 129.6 20.8 C 129.6 19.1 128.5 18 127.2 18 C 125.8 18 124.7 19.1 124.7 20.8 C 124.7 22.5 125.8 23.6 127.2 23.6 C 128.5 23.6 129.6 22.5 129.6 20.8 Z M 131.5 20.8 C 131.5 18.9 132.9 17.5 134.5 17.5 C 136.2 17.5 137.6 18.9 137.6 20.8 C 137.6 22.8 136.2 24.1 134.5 24.1 C 132.9 24.1 131.5 22.8 131.5 20.8 Z M 137.1 20.8 C 137.1 19 135.8 18 134.5 18 C 133.2 18 132 19 132 20.8 C 132 22.6 133.2 23.6 134.5 23.6 C 135.8 23.6 137.1 22.6 137.1 20.8 Z M 144.2 19.8 C 144.18 19.76 144.2 24 144.2 24 L 143.7 24 C 143.7 24 143.68 19.97 143.7 20 C 143.7 18.7 143 18 141.9 18 C 140.8 18 139.9 18.7 139.9 19.9 C 139.9 19.91 139.9 24 139.9 24 L 139.4 24 L 139.4 17.6 L 139.8 17.6 L 139.8 18.8 C 139.8 18.8 139.86 18.76 139.9 18.8 C 140.2 18 141 17.5 141.9 17.5 C 143.3 17.5 144.2 18.4 144.2 19.8 Z M 146.2 20.1 L 149 20.1 L 149 20.6 L 146.2 20.6 L 146.2 20.1 Z " stroke="none" fill="#000"/>
  </g>
  <g id="Polygon18138">
    <path d="M 0.7 6.4 C 0.7 4.4 2.1 3.1 3.6 3.1 C 4.6 3.1 5.6 3.7 6.1 4.8 C 6.1 4.82 6.2 3.2 6.2 3.2 L 6.6 3.2 L 6.6 9.6 L 6.2 9.6 C 6.2 9.6 6.1 8 6.1 8 C 5.6 9.2 4.6 9.7 3.6 9.7 C 2.1 9.7 0.7 8.4 0.7 6.4 Z M 6.1 6.4 C 6.1 4.7 5 3.6 3.6 3.6 C 2.3 3.6 1.2 4.7 1.2 6.4 C 1.2 8.1 2.3 9.2 3.6 9.2 C 5 9.2 6.1 8.1 6.1 6.4 Z M 8.1 3.2 L 8.6 3.2 L 10.7 9 L 10.8 9 L 12.9 3.2 L 13.4 3.2 L 11 9.6 L 10.5 9.6 L 8.1 3.2 Z M 14.3 6.4 C 14.3 4.5 15.6 3.1 17.3 3.1 C 19 3.1 20.3 4.5 20.3 6.4 C 20.3 8.4 19 9.7 17.3 9.7 C 15.6 9.7 14.3 8.4 14.3 6.4 Z M 19.8 6.4 C 19.8 4.6 18.6 3.6 17.3 3.6 C 16 3.6 14.8 4.6 14.8 6.4 C 14.8 8.2 16 9.2 17.3 9.2 C 18.6 9.2 19.8 8.2 19.8 6.4 Z M 27 5.4 C 26.95 5.36 27 9.6 27 9.6 L 26.4 9.6 C 26.4 9.6 26.45 5.57 26.4 5.6 C 26.4 4.3 25.8 3.6 24.6 3.6 C 23.6 3.6 22.7 4.3 22.7 5.5 C 22.67 5.51 22.7 9.6 22.7 9.6 L 22.2 9.6 L 22.2 3.2 L 22.6 3.2 L 22.6 4.4 C 22.6 4.4 22.63 4.36 22.6 4.4 C 23 3.6 23.7 3.1 24.7 3.1 C 26.1 3.1 27 4 27 5.4 Z M 32.7 3.7 C 32.7 3.7 32.7 4.2 32.7 4.2 C 32.2 3.9 31.6 3.6 30.9 3.6 C 29.9 3.6 29.3 4.1 29.3 4.8 C 29.3 5.5 30 5.8 31 6.1 C 32 6.5 33 6.8 33 7.9 C 33 9 32.1 9.7 30.9 9.7 C 30.1 9.7 29.3 9.5 28.7 9 C 28.7 9 28.7 8.3 28.7 8.3 C 29.3 8.9 30 9.2 30.9 9.2 C 31.9 9.2 32.5 8.7 32.5 7.9 C 32.5 7.2 31.8 6.9 30.8 6.5 C 29.7 6.2 28.8 5.9 28.8 4.8 C 28.8 3.8 29.7 3.1 30.9 3.1 C 31.6 3.1 32.2 3.3 32.7 3.7 Z M 44.3 6.4 C 44.3 4.5 45.7 3.1 47.3 3.1 C 49 3.1 50.4 4.5 50.4 6.4 C 50.4 8.4 49 9.7 47.3 9.7 C 45.7 9.7 44.3 8.4 44.3 6.4 Z M 49.9 6.4 C 49.9 4.6 48.6 3.6 47.3 3.6 C 46 3.6 44.8 4.6 44.8 6.4 C 44.8 8.2 46 9.2 47.3 9.2 C 48.6 9.2 49.9 8.2 49.9 6.4 Z M 52.7 4.8 C 53.1 3.7 54.2 3.1 55.2 3.1 C 56.7 3.1 58.1 4.4 58.1 6.4 C 58.1 8.4 56.7 9.7 55.2 9.7 C 54.2 9.7 53.1 9.2 52.7 8 C 52.67 7.99 52.6 9.6 52.6 9.6 L 52.2 9.6 L 52.2 0.1 L 52.7 0.1 C 52.7 0.1 52.71 4.79 52.7 4.8 Z M 52.7 6.4 C 52.7 8.1 53.8 9.2 55.1 9.2 C 56.5 9.2 57.6 8.1 57.6 6.4 C 57.6 4.7 56.5 3.6 55.1 3.6 C 53.8 3.6 52.7 4.7 52.7 6.4 Z M 63.5 3.7 C 63.5 3.7 63.5 4.2 63.5 4.2 C 63 3.9 62.4 3.6 61.6 3.6 C 60.7 3.6 60.1 4.1 60.1 4.8 C 60.1 5.5 60.7 5.8 61.8 6.1 C 62.8 6.5 63.8 6.8 63.8 7.9 C 63.8 9 62.9 9.7 61.6 9.7 C 60.9 9.7 60.1 9.5 59.5 9 C 59.5 9 59.5 8.3 59.5 8.3 C 60 8.9 60.8 9.2 61.6 9.2 C 62.6 9.2 63.3 8.7 63.3 7.9 C 63.3 7.2 62.6 6.9 61.5 6.5 C 60.5 6.2 59.6 5.9 59.6 4.8 C 59.6 3.8 60.4 3.1 61.7 3.1 C 62.3 3.1 63 3.3 63.5 3.7 Z M 70.6 6.6 C 70.6 6.6 65.6 6.6 65.6 6.6 C 65.7 8.2 66.7 9.2 68.2 9.2 C 68.9 9.2 69.7 9 70.4 8.3 C 70.4 8.3 70.4 8.9 70.4 8.9 C 69.7 9.4 69 9.7 68.1 9.7 C 66.3 9.7 65.1 8.4 65.1 6.4 C 65.1 4.4 66.5 3.1 68 3.1 C 69.5 3.1 70.7 4.2 70.7 6.3 C 70.7 6.4 70.7 6.5 70.6 6.6 Z M 70.2 6.1 C 70.1 4.4 69.1 3.6 68 3.6 C 66.8 3.6 65.7 4.6 65.6 6.1 C 65.6 6.1 70.2 6.1 70.2 6.1 Z M 72.5 3.2 L 72.9 3.2 L 72.9 4.4 C 72.9 4.4 72.94 4.42 72.9 4.4 C 73.3 3.5 74.2 3.2 74.8 3.2 C 75 3.2 75.1 3.2 75.2 3.2 C 75.2 3.2 75.2 3.7 75.2 3.7 C 75.1 3.7 75 3.7 74.8 3.7 C 73.9 3.7 73 4.3 73 5.6 C 72.97 5.57 73 9.6 73 9.6 L 72.5 9.6 L 72.5 3.2 Z M 75.8 3.2 L 76.3 3.2 L 78.4 9 L 78.4 9 L 80.5 3.2 L 81.1 3.2 L 78.7 9.6 L 78.2 9.6 L 75.8 3.2 Z M 84.7 2.1 L 84.2 2.1 L 85.6 0.2 L 86.2 0.2 L 84.7 2.1 Z M 87.5 6.6 C 87.5 6.6 82.5 6.6 82.5 6.6 C 82.6 8.2 83.6 9.2 85 9.2 C 85.8 9.2 86.6 9 87.3 8.3 C 87.3 8.3 87.3 8.9 87.3 8.9 C 86.6 9.4 85.8 9.7 85 9.7 C 83.2 9.7 82 8.4 82 6.4 C 82 4.4 83.4 3.1 84.9 3.1 C 86.3 3.1 87.5 4.2 87.5 6.3 C 87.5 6.4 87.5 6.5 87.5 6.6 Z M 87 6.1 C 87 4.4 86 3.6 84.9 3.6 C 83.7 3.6 82.6 4.6 82.5 6.1 C 82.5 6.1 87 6.1 87 6.1 Z M 104.3 4.8 C 104.29 4.84 104.4 3.2 104.4 3.2 L 104.8 3.2 L 104.8 12.2 L 104.3 12.2 C 104.3 12.2 104.25 8.04 104.3 8 C 103.8 9.1 102.8 9.7 101.8 9.7 C 100.3 9.7 98.9 8.4 98.9 6.4 C 98.9 4.4 100.3 3.1 101.8 3.1 C 102.8 3.1 103.8 3.7 104.3 4.8 Z M 99.4 6.4 C 99.4 8.1 100.5 9.2 101.8 9.2 C 103.1 9.2 104.3 8.1 104.3 6.4 C 104.3 4.7 103.2 3.6 101.8 3.6 C 100.5 3.6 99.4 4.7 99.4 6.4 Z M 107 7.3 C 106.95 7.28 107 3.2 107 3.2 L 107.5 3.2 C 107.5 3.2 107.46 7.31 107.5 7.3 C 107.5 8.5 108.2 9.2 109.3 9.2 C 110.5 9.2 111.2 8.5 111.2 7.3 C 111.25 7.3 111.2 3.2 111.2 3.2 L 111.8 3.2 C 111.8 3.2 111.75 7.27 111.8 7.3 C 111.8 8.7 110.8 9.7 109.3 9.7 C 107.9 9.7 107 8.7 107 7.3 Z M 119.1 6.6 C 119.1 6.6 114 6.6 114 6.6 C 114.1 8.2 115.1 9.2 116.6 9.2 C 117.3 9.2 118.1 9 118.8 8.3 C 118.8 8.3 118.8 8.9 118.8 8.9 C 118.2 9.4 117.4 9.7 116.5 9.7 C 114.8 9.7 113.5 8.4 113.5 6.4 C 113.5 4.4 114.9 3.1 116.5 3.1 C 117.9 3.1 119.1 4.2 119.1 6.3 C 119.1 6.4 119.1 6.5 119.1 6.6 Z M 118.6 6.1 C 118.6 4.4 117.5 3.6 116.5 3.6 C 115.2 3.6 114.1 4.6 114 6.1 C 114 6.1 118.6 6.1 118.6 6.1 Z M 130.4 6.4 C 130.4 4.4 131.8 3.1 133.3 3.1 C 134.3 3.1 135.4 3.7 135.8 4.8 C 135.81 4.78 135.8 0.1 135.8 0.1 L 136.3 0.1 L 136.3 9.6 L 135.9 9.6 L 135.8 8 C 135.8 8 135.83 7.99 135.8 8 C 135.4 9.2 134.4 9.7 133.3 9.7 C 131.8 9.7 130.4 8.4 130.4 6.4 Z M 135.8 6.4 C 135.8 4.7 134.7 3.6 133.4 3.6 C 132.1 3.6 130.9 4.7 130.9 6.4 C 130.9 8.1 132.1 9.2 133.4 9.2 C 134.7 9.2 135.8 8.1 135.8 6.4 Z M 143.7 6.6 C 143.7 6.6 138.6 6.6 138.6 6.6 C 138.7 8.2 139.8 9.2 141.2 9.2 C 142 9.2 142.8 9 143.5 8.3 C 143.5 8.3 143.5 8.9 143.5 8.9 C 142.8 9.4 142 9.7 141.2 9.7 C 139.4 9.7 138.1 8.4 138.1 6.4 C 138.1 4.4 139.6 3.1 141.1 3.1 C 142.5 3.1 143.7 4.2 143.7 6.3 C 143.7 6.4 143.7 6.5 143.7 6.6 Z M 143.2 6.1 C 143.2 4.4 142.2 3.6 141.1 3.6 C 139.9 3.6 138.8 4.6 138.7 6.1 C 138.7 6.1 143.2 6.1 143.2 6.1 Z M 149.1 3.7 C 149.1 3.7 149.1 4.2 149.1 4.2 C 148.6 3.9 148 3.6 147.3 3.6 C 146.3 3.6 145.7 4.1 145.7 4.8 C 145.7 5.5 146.4 5.8 147.4 6.1 C 148.4 6.5 149.4 6.8 149.4 7.9 C 149.4 9 148.5 9.7 147.2 9.7 C 146.5 9.7 145.7 9.5 145.1 9 C 145.1 9 145.1 8.3 145.1 8.3 C 145.6 8.9 146.4 9.2 147.2 9.2 C 148.2 9.2 148.9 8.7 148.9 7.9 C 148.9 7.2 148.2 6.9 147.1 6.5 C 146.1 6.2 145.2 5.9 145.2 4.8 C 145.2 3.8 146 3.1 147.3 3.1 C 147.9 3.1 148.6 3.3 149.1 3.7 Z " stroke="none" fill="#000"/>
  </g>
</svg>