<?xml version="1.0" standalone="no"?>
<!DOCTYPE svg PUBLIC "-//W3C//DTD SVG 1.1//EN" "http://www.w3.org/Graphics/SVG/1.1/DTD/svg11.dtd">
<svg xmlns="http://www.w3.org/2000/svg" version="1.1" width="83px" height="13.4px" viewBox="0 0 83 13.4">
  <desc>Disque de fonctions</desc>
  <defs/>
  <g id="Polygon25302">
    <path d="M 4.8 3.1 C 4.8 4.7 3.7 5.8 2 5.8 C 1.98 5.77 0.8 5.8 0.8 5.8 L 0.8 0.4 C 0.8 0.4 1.98 0.41 2 0.4 C 3.7 0.4 4.8 1.5 4.8 3.1 Z M 1.3 5.3 C 1.3 5.3 2.01 5.3 2 5.3 C 3.3 5.3 4.3 4.5 4.3 3.1 C 4.3 1.7 3.3 0.9 2 0.9 C 2.02 0.88 1.3 0.9 1.3 0.9 L 1.3 5.3 Z M 5.8 0.6 C 5.8 0.4 6 0.2 6.1 0.2 C 6.3 0.2 6.5 0.4 6.5 0.6 C 6.5 0.7 6.3 0.9 6.1 0.9 C 6 0.9 5.8 0.7 5.8 0.6 Z M 5.9 1.9 L 6.4 1.9 L 6.4 5.8 L 5.9 5.8 L 5.9 1.9 Z M 10 2.2 C 10 2.2 10 2.7 10 2.7 C 9.7 2.5 9.3 2.3 8.8 2.3 C 8.3 2.3 8 2.5 8 2.9 C 8 3.3 8.4 3.4 8.9 3.6 C 9.5 3.8 10.2 4 10.2 4.7 C 10.2 5.4 9.7 5.9 8.8 5.9 C 8.3 5.9 7.9 5.7 7.5 5.4 C 7.5 5.4 7.5 4.8 7.5 4.8 C 7.8 5.1 8.2 5.4 8.8 5.4 C 9.4 5.4 9.7 5.1 9.7 4.7 C 9.7 4.3 9.3 4.2 8.7 4 C 8.1 3.8 7.5 3.6 7.5 2.9 C 7.5 2.3 8 1.8 8.9 1.8 C 9.3 1.8 9.7 2 10 2.2 Z M 14.1 2.7 C 14.13 2.66 14.2 1.9 14.2 1.9 L 14.6 1.9 L 14.6 7.3 L 14.1 7.3 C 14.1 7.3 14.1 5.05 14.1 5.1 C 13.8 5.6 13.3 5.9 12.7 5.9 C 11.8 5.9 10.9 5.1 10.9 3.8 C 10.9 2.6 11.8 1.8 12.7 1.8 C 13.3 1.8 13.8 2.1 14.1 2.7 Z M 11.4 3.8 C 11.4 4.8 12 5.4 12.8 5.4 C 13.5 5.4 14.1 4.8 14.1 3.8 C 14.1 2.9 13.5 2.3 12.8 2.3 C 12 2.3 11.4 2.9 11.4 3.8 Z M 15.8 4.3 C 15.83 4.31 15.8 1.9 15.8 1.9 L 16.3 1.9 C 16.3 1.9 16.32 4.34 16.3 4.3 C 16.3 5 16.7 5.4 17.3 5.4 C 18 5.4 18.4 5 18.4 4.3 C 18.39 4.33 18.4 1.9 18.4 1.9 L 18.9 1.9 C 18.9 1.9 18.88 4.31 18.9 4.3 C 18.9 5.2 18.3 5.9 17.3 5.9 C 16.4 5.9 15.8 5.2 15.8 4.3 Z M 23.3 4 C 23.3 4 20.4 4 20.4 4 C 20.4 4.9 21 5.4 21.8 5.4 C 22.2 5.4 22.7 5.2 23.1 4.8 C 23.1 4.8 23.1 5.4 23.1 5.4 C 22.7 5.7 22.3 5.9 21.8 5.9 C 20.6 5.9 19.9 5.1 19.9 3.9 C 19.9 2.6 20.7 1.8 21.7 1.8 C 22.6 1.8 23.3 2.5 23.3 3.8 C 23.3 3.9 23.3 3.9 23.3 4 Z M 22.9 3.6 C 22.8 2.7 22.3 2.3 21.7 2.3 C 21 2.3 20.5 2.8 20.4 3.6 C 20.4 3.6 22.9 3.6 22.9 3.6 Z M 26.1 3.8 C 26.1 2.6 27 1.8 27.9 1.8 C 28.4 1.8 29 2.1 29.3 2.6 C 29.29 2.62 29.3 0 29.3 0 L 29.8 0 L 29.8 5.8 L 29.4 5.8 C 29.4 5.8 29.32 5.01 29.3 5 C 29 5.6 28.4 5.9 27.9 5.9 C 27 5.9 26.1 5.1 26.1 3.8 Z M 29.3 3.8 C 29.3 2.9 28.7 2.3 28 2.3 C 27.2 2.3 26.6 2.9 26.6 3.8 C 26.6 4.8 27.2 5.4 28 5.4 C 28.7 5.4 29.3 4.8 29.3 3.8 Z M 34.3 4 C 34.3 4 31.3 4 31.3 4 C 31.4 4.9 31.9 5.4 32.7 5.4 C 33.2 5.4 33.6 5.2 34.1 4.8 C 34.1 4.8 34.1 5.4 34.1 5.4 C 33.7 5.7 33.2 5.9 32.7 5.9 C 31.6 5.9 30.8 5.1 30.8 3.9 C 30.8 2.6 31.7 1.8 32.7 1.8 C 33.5 1.8 34.3 2.5 34.3 3.8 C 34.3 3.9 34.3 3.9 34.3 4 Z M 33.8 3.6 C 33.8 2.7 33.2 2.3 32.6 2.3 C 32 2.3 31.4 2.8 31.3 3.6 C 31.3 3.6 33.8 3.6 33.8 3.6 Z M 37.5 2.3 L 36.9 2.3 L 36.9 1.9 L 37.5 1.9 C 37.5 1.9 37.5 1.25 37.5 1.2 C 37.5 0.5 38 0 38.7 0 C 39 0 39.2 0 39.4 0.1 C 39.4 0.1 39.4 0.6 39.4 0.6 C 39.2 0.5 39 0.5 38.8 0.5 C 38.3 0.5 38 0.7 38 1.3 C 37.99 1.33 38 1.9 38 1.9 L 39.1 1.9 L 39.1 2.3 L 38 2.3 L 38 5.8 L 37.5 5.8 L 37.5 2.3 Z M 39.5 3.8 C 39.5 2.7 40.3 1.8 41.4 1.8 C 42.5 1.8 43.3 2.7 43.3 3.8 C 43.3 5 42.5 5.9 41.4 5.9 C 40.3 5.9 39.5 5 39.5 3.8 Z M 42.8 3.8 C 42.8 2.9 42.1 2.3 41.4 2.3 C 40.7 2.3 40 2.9 40 3.8 C 40 4.8 40.7 5.4 41.4 5.4 C 42.1 5.4 42.8 4.8 42.8 3.8 Z M 47.4 3.2 C 47.38 3.22 47.4 5.8 47.4 5.8 L 46.9 5.8 C 46.9 5.8 46.9 3.43 46.9 3.4 C 46.9 2.7 46.5 2.3 45.9 2.3 C 45.3 2.3 44.8 2.8 44.8 3.4 C 44.83 3.38 44.8 5.8 44.8 5.8 L 44.3 5.8 L 44.3 1.9 L 44.7 1.9 L 44.8 2.5 C 44.8 2.5 44.79 2.5 44.8 2.5 C 45 2.1 45.4 1.8 46 1.8 C 46.8 1.8 47.4 2.4 47.4 3.2 Z M 50.3 5.4 C 50.6 5.4 51 5.3 51.3 5.1 C 51.3 5.1 51.3 5.6 51.3 5.6 C 51.1 5.7 50.7 5.9 50.3 5.9 C 49.2 5.9 48.4 5 48.4 3.8 C 48.4 2.7 49.2 1.8 50.3 1.8 C 50.7 1.8 51 1.9 51.3 2.1 C 51.3 2.1 51.3 2.6 51.3 2.6 C 51 2.4 50.7 2.3 50.3 2.3 C 49.6 2.3 48.9 2.9 48.9 3.8 C 48.9 4.8 49.6 5.4 50.3 5.4 Z M 53 1.9 L 54.1 1.9 L 54.1 2.3 L 53 2.3 C 53 2.3 53.01 4.45 53 4.5 C 53 5.1 53.4 5.4 53.9 5.4 C 54 5.4 54.1 5.4 54.2 5.3 C 54.2 5.3 54.2 5.8 54.2 5.8 C 54.2 5.8 54 5.8 53.8 5.8 C 53.1 5.8 52.5 5.3 52.5 4.5 C 52.52 4.47 52.5 2.3 52.5 2.3 L 51.9 2.3 L 51.9 1.9 L 52.5 1.9 L 52.5 1 L 53 1 L 53 1.9 Z M 55 0.6 C 55 0.4 55.1 0.2 55.3 0.2 C 55.5 0.2 55.7 0.4 55.7 0.6 C 55.7 0.7 55.5 0.9 55.3 0.9 C 55.1 0.9 55 0.7 55 0.6 Z M 55.1 1.9 L 55.6 1.9 L 55.6 5.8 L 55.1 5.8 L 55.1 1.9 Z M 56.6 3.8 C 56.6 2.7 57.4 1.8 58.5 1.8 C 59.6 1.8 60.4 2.7 60.4 3.8 C 60.4 5 59.6 5.9 58.5 5.9 C 57.4 5.9 56.6 5 56.6 3.8 Z M 59.9 3.8 C 59.9 2.9 59.2 2.3 58.5 2.3 C 57.8 2.3 57.1 2.9 57.1 3.8 C 57.1 4.8 57.8 5.4 58.5 5.4 C 59.2 5.4 59.9 4.8 59.9 3.8 Z M 64.5 3.2 C 64.49 3.22 64.5 5.8 64.5 5.8 L 64 5.8 C 64 5.8 64 3.43 64 3.4 C 64 2.7 63.7 2.3 63 2.3 C 62.4 2.3 61.9 2.8 61.9 3.4 C 61.94 3.38 61.9 5.8 61.9 5.8 L 61.4 5.8 L 61.4 1.9 L 61.8 1.9 L 61.9 2.5 C 61.9 2.5 61.9 2.5 61.9 2.5 C 62.1 2.1 62.5 1.8 63.1 1.8 C 63.9 1.8 64.5 2.4 64.5 3.2 Z M 68 2.2 C 68 2.2 68 2.7 68 2.7 C 67.7 2.5 67.3 2.3 66.9 2.3 C 66.3 2.3 66 2.5 66 2.9 C 66 3.3 66.4 3.4 67 3.6 C 67.5 3.8 68.2 4 68.2 4.7 C 68.2 5.4 67.7 5.9 66.8 5.9 C 66.4 5.9 65.9 5.7 65.5 5.4 C 65.5 5.4 65.5 4.8 65.5 4.8 C 65.8 5.1 66.3 5.4 66.8 5.4 C 67.4 5.4 67.7 5.1 67.7 4.7 C 67.7 4.3 67.3 4.2 66.8 4 C 66.1 3.8 65.5 3.6 65.5 2.9 C 65.5 2.3 66.1 1.8 66.9 1.8 C 67.3 1.8 67.8 2 68 2.2 Z " stroke="none" fill="#fff"/>
  </g>
</svg>