<?xml version="1.0" standalone="no"?>
<!DOCTYPE svg PUBLIC "-//W3C//DTD SVG 1.1//EN" "http://www.w3.org/Graphics/SVG/1.1/DTD/svg11.dtd">
<svg xmlns="http://www.w3.org/2000/svg" version="1.1" width="27px" height="14.5px" viewBox="0 0 27 14.5">
  <desc>11 21</desc>
  <defs/>
  <g id="Polygon17880">
    <path d="M 1.7 1.4 L 0.3 2 L 0.3 1.3 L 2.3 0.4 L 2.4 0.4 L 2.4 6.1 L 1.7 6.1 L 1.7 1.4 Z M 5.1 1.4 L 3.7 2 L 3.7 1.3 L 5.8 0.4 L 5.8 0.4 L 5.8 6.1 L 5.1 6.1 L 5.1 1.4 Z M 9.7 -0.6 L 10.4 -0.6 L 7.8 7.2 L 7.2 7.2 L 9.7 -0.6 Z M 13.8 2.1 C 13.8 1.5 13.4 1 12.7 1 C 12.1 1 11.6 1.3 11.3 1.7 C 11.3 1.7 11.3 0.9 11.3 0.9 C 11.6 0.6 12.1 0.3 12.8 0.3 C 13.9 0.3 14.6 1.1 14.6 2.1 C 14.6 3 13.8 3.9 12.4 5.5 C 12.37 5.47 14.8 5.5 14.8 5.5 L 14.8 6.1 C 14.8 6.1 10.97 6.14 11 6.1 C 13.5 3.3 13.8 2.8 13.8 2.1 Z M 16.9 1.4 L 15.5 2 L 15.5 1.3 L 17.5 0.4 L 17.6 0.4 L 17.6 6.1 L 16.9 6.1 L 16.9 1.4 Z " stroke="none" fill="#000"/>
  </g>
</svg>