<?xml version="1.0" standalone="no"?>
<!DOCTYPE svg PUBLIC "-//W3C//DTD SVG 1.1//EN" "http://www.w3.org/Graphics/SVG/1.1/DTD/svg11.dtd">
<svg xmlns="http://www.w3.org/2000/svg" version="1.1" width="27px" height="14.5px" viewBox="0 0 27 14.5">
  <desc>5 22</desc>
  <defs/>
  <g id="Polygon25865">
    <path d="M 3.7 1.1 L 1.8 1.1 C 1.8 1.1 1.44 2.71 1.4 2.7 C 1.6 2.7 1.8 2.6 2.1 2.6 C 3.3 2.6 4 3.5 4 4.4 C 4 5.3 3.3 6.3 1.9 6.3 C 1.3 6.3 0.8 6.1 0.4 5.7 C 0.4 5.7 0.4 4.9 0.4 4.9 C 0.8 5.3 1.4 5.6 1.9 5.6 C 2.7 5.6 3.2 5.1 3.2 4.4 C 3.2 3.7 2.7 3.2 1.9 3.2 C 1.4 3.2 1.1 3.3 0.8 3.5 C 0.81 3.47 0.7 3.4 0.7 3.4 L 1.2 0.4 L 3.7 0.4 L 3.7 1.1 Z M 7.2 -0.6 L 7.9 -0.6 L 5.3 7.2 L 4.6 7.2 L 7.2 -0.6 Z M 11.3 2.1 C 11.3 1.5 10.9 1 10.2 1 C 9.5 1 9 1.3 8.7 1.7 C 8.7 1.7 8.7 0.9 8.7 0.9 C 9 0.6 9.6 0.3 10.2 0.3 C 11.4 0.3 12 1.1 12 2.1 C 12 3 11.3 3.9 9.8 5.5 C 9.82 5.47 12.2 5.5 12.2 5.5 L 12.2 6.1 C 12.2 6.1 8.43 6.14 8.4 6.1 C 11 3.3 11.3 2.8 11.3 2.1 Z M 15.8 2.1 C 15.8 1.5 15.4 1 14.7 1 C 14 1 13.5 1.3 13.2 1.7 C 13.2 1.7 13.2 0.9 13.2 0.9 C 13.5 0.6 14.1 0.3 14.7 0.3 C 15.9 0.3 16.5 1.1 16.5 2.1 C 16.5 3 15.8 3.9 14.3 5.5 C 14.32 5.47 16.7 5.5 16.7 5.5 L 16.7 6.1 C 16.7 6.1 12.93 6.14 12.9 6.1 C 15.5 3.3 15.8 2.8 15.8 2.1 Z " stroke="none" fill="#000"/>
  </g>
</svg>