<?xml version="1.0" standalone="no"?>
<!DOCTYPE svg PUBLIC "-//W3C//DTD SVG 1.1//EN" "http://www.w3.org/Graphics/SVG/1.1/DTD/svg11.dtd">
<svg xmlns="http://www.w3.org/2000/svg" version="1.1" width="134.1px" height="15.8px" viewBox="0 0 134.1 15.8">
  <desc>Diffuseur</desc>
  <defs/>
  <g id="Polygon26739">
    <path d="M 5.9 3.9 C 5.9 5.9 4.5 7.2 2.4 7.2 C 2.42 7.24 1.1 7.2 1.1 7.2 L 1.1 0.5 C 1.1 0.5 2.42 0.52 2.4 0.5 C 4.5 0.5 5.9 1.8 5.9 3.9 Z M 1.4 6.9 C 1.4 6.9 2.44 6.88 2.4 6.9 C 4.2 6.9 5.5 5.8 5.5 3.9 C 5.5 2 4.2 0.9 2.4 0.9 C 2.44 0.89 1.4 0.9 1.4 0.9 L 1.4 6.9 Z M 7.3 0.7 C 7.3 0.5 7.4 0.4 7.6 0.4 C 7.8 0.4 7.9 0.5 7.9 0.7 C 7.9 0.9 7.8 1 7.6 1 C 7.4 1 7.3 0.9 7.3 0.7 Z M 7.4 2.4 L 7.8 2.4 L 7.8 7.2 L 7.4 7.2 L 7.4 2.4 Z M 9.7 2.8 L 9 2.8 L 9 2.4 L 9.7 2.4 C 9.7 2.4 9.72 1.51 9.7 1.5 C 9.7 0.5 10.4 0 11.2 0 C 11.4 0 11.7 0.1 11.9 0.1 C 11.9 0.1 11.9 0.5 11.9 0.5 C 11.7 0.4 11.4 0.4 11.2 0.4 C 10.5 0.4 10.1 0.7 10.1 1.6 C 10.11 1.58 10.1 2.4 10.1 2.4 L 11.6 2.4 L 11.6 2.8 L 10.1 2.8 L 10.1 7.2 L 9.7 7.2 L 9.7 2.8 Z M 12.8 2.8 L 12 2.8 L 12 2.4 L 12.7 2.4 C 12.7 2.4 12.74 1.51 12.7 1.5 C 12.7 0.5 13.4 0 14.2 0 C 14.4 0 14.7 0.1 14.9 0.1 C 14.9 0.1 14.9 0.5 14.9 0.5 C 14.7 0.4 14.4 0.4 14.2 0.4 C 13.6 0.4 13.1 0.7 13.1 1.6 C 13.13 1.58 13.1 2.4 13.1 2.4 L 14.6 2.4 L 14.6 2.8 L 13.1 2.8 L 13.1 7.2 L 12.8 7.2 L 12.8 2.8 Z M 15.5 5.5 C 15.53 5.5 15.5 2.4 15.5 2.4 L 15.9 2.4 C 15.9 2.4 15.91 5.52 15.9 5.5 C 15.9 6.4 16.5 7 17.3 7 C 18.2 7 18.8 6.4 18.8 5.5 C 18.77 5.51 18.8 2.4 18.8 2.4 L 19.2 2.4 C 19.2 2.4 19.15 5.49 19.2 5.5 C 19.2 6.6 18.4 7.3 17.3 7.3 C 16.2 7.3 15.5 6.6 15.5 5.5 Z M 23.5 2.8 C 23.5 2.8 23.5 3.2 23.5 3.2 C 23.1 2.9 22.7 2.7 22.1 2.7 C 21.4 2.7 20.9 3.1 20.9 3.6 C 20.9 4.2 21.4 4.4 22.2 4.6 C 23 4.9 23.7 5.1 23.7 6 C 23.7 6.8 23.1 7.3 22.1 7.3 C 21.5 7.3 20.9 7.1 20.5 6.8 C 20.5 6.8 20.5 6.3 20.5 6.3 C 20.9 6.7 21.5 7 22.1 7 C 22.9 7 23.3 6.6 23.3 6 C 23.3 5.4 22.8 5.2 22 4.9 C 21.2 4.7 20.5 4.4 20.5 3.6 C 20.5 2.9 21.2 2.4 22.1 2.4 C 22.6 2.4 23.1 2.5 23.5 2.8 Z M 28.9 5 C 28.9 5 25.1 5 25.1 5 C 25.2 6.2 25.9 7 27 7 C 27.6 7 28.2 6.8 28.7 6.3 C 28.7 6.3 28.7 6.7 28.7 6.7 C 28.2 7.1 27.6 7.3 27 7.3 C 25.7 7.3 24.7 6.4 24.7 4.9 C 24.7 3.3 25.8 2.4 26.9 2.4 C 28 2.4 28.9 3.2 28.9 4.7 C 28.9 4.8 28.9 4.9 28.9 5 Z M 28.5 4.6 C 28.5 3.3 27.8 2.7 26.9 2.7 C 26 2.7 25.2 3.4 25.1 4.6 C 25.1 4.6 28.5 4.6 28.5 4.6 Z M 30.2 5.5 C 30.22 5.5 30.2 2.4 30.2 2.4 L 30.6 2.4 C 30.6 2.4 30.6 5.52 30.6 5.5 C 30.6 6.4 31.2 7 32 7 C 32.9 7 33.5 6.4 33.5 5.5 C 33.46 5.51 33.5 2.4 33.5 2.4 L 33.8 2.4 C 33.8 2.4 33.84 5.49 33.8 5.5 C 33.8 6.6 33.1 7.3 32 7.3 C 30.9 7.3 30.2 6.6 30.2 5.5 Z M 35.5 2.4 L 35.8 2.4 L 35.8 3.3 C 35.8 3.3 35.85 3.33 35.9 3.3 C 36.1 2.7 36.8 2.4 37.3 2.4 C 37.4 2.4 37.5 2.4 37.6 2.4 C 37.6 2.4 37.6 2.8 37.6 2.8 C 37.5 2.8 37.4 2.8 37.3 2.8 C 36.6 2.8 35.9 3.2 35.9 4.2 C 35.88 4.2 35.9 7.2 35.9 7.2 L 35.5 7.2 L 35.5 2.4 Z " stroke="none" fill="#000"/>
  </g>
</svg>