<?xml version="1.0" standalone="no"?>
<!DOCTYPE svg PUBLIC "-//W3C//DTD SVG 1.1//EN" "http://www.w3.org/Graphics/SVG/1.1/DTD/svg11.dtd">
<svg xmlns="http://www.w3.org/2000/svg" version="1.1" width="106px" height="13.6px" viewBox="0 0 106 13.6">
  <desc>4- Enceinte Bunacco, Nendo</desc>
  <defs/>
  <g id="Polygon24404">
    <path d="M 4.5 4.9 L 3.4 4.9 L 3.2 6.4 L 2.9 6.4 L 3.1 4.9 L 0.2 4.9 L 0.2 4.7 L 3.8 0.5 L 4.1 0.5 L 3.5 4.6 L 4.6 4.6 L 4.5 4.9 Z M 3.2 4.6 L 3.7 1.1 L 0.7 4.6 L 0.7 4.6 L 3.2 4.6 Z M 5.6 3.8 L 7.5 3.8 L 7.4 4.1 L 5.5 4.1 L 5.6 3.8 Z M 11.8 0.5 L 14.7 0.5 L 14.7 0.8 L 12.1 0.8 L 11.8 3.2 L 14.2 3.2 L 14.1 3.5 L 11.7 3.5 L 11.3 6.1 L 13.9 6.1 L 13.9 6.4 L 10.9 6.4 L 11.8 0.5 Z M 16.1 2.2 L 16 2.9 C 16 2.9 16.03 2.9 16 2.9 C 16.3 2.4 16.9 2.1 17.5 2.1 C 18.2 2.1 18.8 2.6 18.8 3.4 C 18.8 3.4 18.8 3.5 18.8 3.7 C 18.8 3.68 18.4 6.4 18.4 6.4 L 18.1 6.4 C 18.1 6.4 18.46 3.71 18.5 3.7 C 18.5 3.6 18.5 3.5 18.5 3.4 C 18.5 2.8 18.1 2.4 17.4 2.4 C 16.7 2.4 16 3 15.9 3.7 C 15.93 3.72 15.5 6.4 15.5 6.4 L 15.2 6.4 L 15.8 2.2 L 16.1 2.2 Z M 22.2 2.4 C 21.1 2.4 20.2 3.3 20.2 4.5 C 20.2 5.5 20.8 6.2 21.7 6.2 C 22 6.2 22.4 6.1 22.8 5.8 C 22.8 5.8 22.8 6.2 22.8 6.2 C 22.4 6.4 22 6.5 21.7 6.5 C 20.6 6.5 19.9 5.7 19.9 4.5 C 19.9 3.2 20.9 2.1 22.2 2.1 C 22.6 2.1 23 2.2 23.3 2.4 C 23.3 2.4 23.2 2.7 23.2 2.7 C 22.9 2.5 22.6 2.4 22.2 2.4 Z M 24.1 4.4 C 24.1 4.4 24.13 4.5 24.1 4.5 C 24.1 5.6 24.8 6.2 25.7 6.2 C 26.2 6.2 26.7 6 27.1 5.6 C 27.1 5.6 27.1 6 27.1 6 C 26.7 6.3 26.2 6.5 25.6 6.5 C 24.5 6.5 23.8 5.8 23.8 4.6 C 23.8 3.2 24.7 2.1 25.9 2.1 C 26.9 2.1 27.5 2.8 27.5 3.8 C 27.5 4 27.5 4.2 27.5 4.4 C 27.46 4.39 24.1 4.4 24.1 4.4 Z M 24.2 4.1 C 24.2 4.1 27.2 4.1 27.2 4.1 C 27.2 4 27.2 3.9 27.2 3.8 C 27.2 2.9 26.6 2.4 25.9 2.4 C 25.1 2.4 24.3 3 24.2 4.1 Z M 29.7 0.6 C 29.7 0.8 29.5 0.9 29.4 0.9 C 29.2 0.9 29.1 0.8 29.1 0.6 C 29.1 0.5 29.2 0.3 29.4 0.3 C 29.6 0.3 29.7 0.4 29.7 0.6 Z M 29 2.2 L 29.4 2.2 L 28.7 6.4 L 28.4 6.4 L 29 2.2 Z M 31.2 2.2 L 31.1 2.9 C 31.1 2.9 31.11 2.9 31.1 2.9 C 31.4 2.4 31.9 2.1 32.6 2.1 C 33.3 2.1 33.9 2.6 33.9 3.4 C 33.9 3.4 33.9 3.5 33.9 3.7 C 33.88 3.68 33.5 6.4 33.5 6.4 L 33.1 6.4 C 33.1 6.4 33.54 3.71 33.5 3.7 C 33.6 3.6 33.6 3.5 33.6 3.4 C 33.6 2.8 33.1 2.4 32.5 2.4 C 31.7 2.4 31.1 3 31 3.7 C 31.01 3.72 30.6 6.4 30.6 6.4 L 30.3 6.4 L 30.9 2.2 L 31.2 2.2 Z M 36.3 6.4 C 35.6 6.4 35.2 6.1 35.2 5.4 C 35.2 5.3 35.2 5.2 35.2 5.1 C 35.21 5.09 35.6 2.5 35.6 2.5 L 34.9 2.5 L 35 2.2 L 35.6 2.2 L 35.8 1.2 L 36.1 1.2 L 36 2.2 L 37.3 2.2 L 37.2 2.5 L 35.9 2.5 C 35.9 2.5 35.54 5.12 35.5 5.1 C 35.5 5.2 35.5 5.3 35.5 5.4 C 35.5 5.9 35.9 6.1 36.4 6.1 C 36.5 6.1 36.7 6.1 36.9 6 C 36.9 6 36.9 6.4 36.9 6.4 C 36.7 6.4 36.5 6.4 36.3 6.4 Z M 38 4.4 C 38 4.4 37.99 4.5 38 4.5 C 38 5.6 38.6 6.2 39.6 6.2 C 40.1 6.2 40.5 6 41 5.6 C 41 5.6 41 6 41 6 C 40.5 6.3 40.1 6.5 39.5 6.5 C 38.4 6.5 37.7 5.8 37.7 4.6 C 37.7 3.2 38.6 2.1 39.8 2.1 C 40.7 2.1 41.4 2.8 41.4 3.8 C 41.4 4 41.4 4.2 41.3 4.4 C 41.33 4.39 38 4.4 38 4.4 Z M 38 4.1 C 38 4.1 41 4.1 41 4.1 C 41.1 4 41.1 3.9 41.1 3.8 C 41.1 2.9 40.5 2.4 39.8 2.4 C 39 2.4 38.2 3 38 4.1 Z M 48.7 1.8 C 48.7 2.5 48.2 3.2 47.4 3.3 C 48.1 3.5 48.5 4.1 48.5 4.7 C 48.5 5.6 47.7 6.4 46.3 6.4 C 46.26 6.4 44.7 6.4 44.7 6.4 L 45.6 0.5 C 45.6 0.5 46.97 0.46 47 0.5 C 48.1 0.5 48.7 1.1 48.7 1.8 Z M 48.4 1.8 C 48.4 1.2 47.9 0.8 46.9 0.8 C 46.91 0.78 45.9 0.8 45.9 0.8 L 45.5 3.2 C 45.5 3.2 46.72 3.19 46.7 3.2 C 47.9 3.2 48.4 2.5 48.4 1.8 Z M 48.2 4.7 C 48.2 4 47.6 3.5 46.7 3.5 C 46.72 3.52 45.5 3.5 45.5 3.5 L 45.1 6.1 C 45.1 6.1 46.28 6.08 46.3 6.1 C 47.5 6.1 48.2 5.5 48.2 4.7 Z M 52.9 4.8 C 52.7 6 52 6.5 51.2 6.5 C 50.4 6.5 49.7 5.9 49.7 5 C 49.7 4.9 49.7 4.8 49.7 4.7 C 49.74 4.68 50.1 2.2 50.1 2.2 L 50.4 2.2 C 50.4 2.2 50.07 4.66 50.1 4.7 C 50.1 4.8 50 4.9 50 5 C 50 5.7 50.6 6.1 51.2 6.1 C 51.9 6.1 52.4 5.8 52.6 4.8 C 52.59 4.75 53 2.2 53 2.2 L 53.3 2.2 C 53.3 2.2 52.91 4.83 52.9 4.8 Z M 55 2.2 L 55 2.9 C 55 2.9 54.97 2.9 55 2.9 C 55.3 2.4 55.8 2.1 56.4 2.1 C 57.2 2.1 57.8 2.6 57.8 3.4 C 57.8 3.4 57.8 3.5 57.7 3.7 C 57.74 3.68 57.3 6.4 57.3 6.4 L 57 6.4 C 57 6.4 57.4 3.71 57.4 3.7 C 57.4 3.6 57.4 3.5 57.4 3.4 C 57.4 2.8 57 2.4 56.4 2.4 C 55.6 2.4 55 3 54.9 3.7 C 54.87 3.72 54.5 6.4 54.5 6.4 L 54.1 6.4 L 54.8 2.2 L 55 2.2 Z M 62.4 6.4 L 62.2 6.4 L 62.3 5.4 C 62.3 5.4 62.26 5.38 62.3 5.4 C 61.9 6.1 61.2 6.5 60.5 6.5 C 59.6 6.5 58.8 5.8 58.8 4.6 C 58.8 3.1 59.9 2.1 61 2.1 C 61.7 2.1 62.4 2.5 62.6 3.2 C 62.56 3.23 62.6 3.2 62.6 3.2 L 62.8 2.2 L 63.1 2.2 L 62.4 6.4 Z M 59.1 4.5 C 59.1 5.6 59.8 6.2 60.6 6.2 C 61.7 6.2 62.4 5.1 62.4 4 C 62.4 3 61.8 2.4 61 2.4 C 60 2.4 59.1 3.3 59.1 4.5 Z M 66.3 2.4 C 65.2 2.4 64.3 3.3 64.3 4.5 C 64.3 5.5 64.9 6.2 65.8 6.2 C 66.1 6.2 66.5 6.1 66.9 5.8 C 66.9 5.8 66.9 6.2 66.9 6.2 C 66.5 6.4 66.1 6.5 65.7 6.5 C 64.7 6.5 63.9 5.7 63.9 4.5 C 63.9 3.2 64.9 2.1 66.3 2.1 C 66.7 2.1 67.1 2.2 67.4 2.4 C 67.4 2.4 67.3 2.7 67.3 2.7 C 67 2.5 66.7 2.4 66.3 2.4 Z M 70.2 2.4 C 69.1 2.4 68.2 3.3 68.2 4.5 C 68.2 5.5 68.9 6.2 69.7 6.2 C 70 6.2 70.5 6.1 70.8 5.8 C 70.8 5.8 70.8 6.2 70.8 6.2 C 70.4 6.4 70 6.5 69.7 6.5 C 68.6 6.5 67.9 5.7 67.9 4.5 C 67.9 3.2 68.9 2.1 70.2 2.1 C 70.6 2.1 71 2.2 71.3 2.4 C 71.3 2.4 71.3 2.7 71.3 2.7 C 71 2.5 70.6 2.4 70.2 2.4 Z M 71.8 4.6 C 71.8 3.1 72.8 2.1 74.1 2.1 C 75.1 2.1 75.9 2.8 75.9 4 C 75.9 5.4 74.8 6.5 73.6 6.5 C 72.5 6.5 71.8 5.7 71.8 4.6 Z M 75.5 4 C 75.5 3 74.9 2.4 74.1 2.4 C 73 2.4 72.1 3.3 72.1 4.6 C 72.1 5.6 72.7 6.2 73.6 6.2 C 74.6 6.2 75.5 5.3 75.5 4 Z M 77.1 5.7 C 77 6.3 76.7 6.9 76.3 7.5 C 76.3 7.5 76 7.5 76 7.5 C 76.3 7 76.6 6.4 76.7 5.7 C 76.7 5.6 76.7 5.5 76.7 5.5 C 76.7 5.5 77.1 5.5 77.1 5.5 C 77.1 5.5 77.1 5.6 77.1 5.7 Z M 85.2 6.4 L 84.8 6.4 L 82 1 L 82 1 L 81.2 6.4 L 80.8 6.4 L 81.7 0.5 L 82.1 0.5 L 84.9 5.8 L 84.9 5.8 L 85.7 0.5 L 86 0.5 L 85.2 6.4 Z M 87.2 4.4 C 87.2 4.4 87.15 4.5 87.2 4.5 C 87.2 5.6 87.8 6.2 88.7 6.2 C 89.2 6.2 89.7 6 90.2 5.6 C 90.2 5.6 90.1 6 90.1 6 C 89.7 6.3 89.2 6.5 88.7 6.5 C 87.6 6.5 86.8 5.8 86.8 4.6 C 86.8 3.2 87.8 2.1 89 2.1 C 89.9 2.1 90.6 2.8 90.6 3.8 C 90.6 4 90.5 4.2 90.5 4.4 C 90.49 4.39 87.2 4.4 87.2 4.4 Z M 87.2 4.1 C 87.2 4.1 90.2 4.1 90.2 4.1 C 90.2 4 90.2 3.9 90.2 3.8 C 90.2 2.9 89.7 2.4 88.9 2.4 C 88.1 2.4 87.4 3 87.2 4.1 Z M 92.3 2.2 L 92.2 2.9 C 92.2 2.9 92.23 2.9 92.2 2.9 C 92.5 2.4 93.1 2.1 93.7 2.1 C 94.4 2.1 95 2.6 95 3.4 C 95 3.4 95 3.5 95 3.7 C 95 3.68 94.6 6.4 94.6 6.4 L 94.3 6.4 C 94.3 6.4 94.67 3.71 94.7 3.7 C 94.7 3.6 94.7 3.5 94.7 3.4 C 94.7 2.8 94.3 2.4 93.6 2.4 C 92.9 2.4 92.2 3 92.1 3.7 C 92.13 3.72 91.7 6.4 91.7 6.4 L 91.4 6.4 L 92 2.2 L 92.3 2.2 Z M 99.7 6.4 L 99.4 6.4 C 99.4 6.4 99.5 5.37 99.5 5.4 C 99.1 6.1 98.4 6.5 97.7 6.5 C 96.8 6.5 96 5.8 96 4.6 C 96 3.2 97.1 2.1 98.3 2.1 C 99 2.1 99.6 2.5 99.8 3.2 C 99.79 3.22 100.3 0 100.3 0 L 100.6 0 L 99.7 6.4 Z M 96.4 4.6 C 96.4 5.6 97 6.2 97.8 6.2 C 98.8 6.2 99.7 5.3 99.7 4 C 99.7 3 99.1 2.4 98.2 2.4 C 97.3 2.4 96.4 3.3 96.4 4.6 Z M 101.2 4.6 C 101.2 3.1 102.2 2.1 103.4 2.1 C 104.5 2.1 105.2 2.8 105.2 4 C 105.2 5.4 104.2 6.5 103 6.5 C 101.9 6.5 101.2 5.7 101.2 4.6 Z M 104.9 4 C 104.9 3 104.3 2.4 103.4 2.4 C 102.4 2.4 101.5 3.3 101.5 4.6 C 101.5 5.6 102.1 6.2 103 6.2 C 104 6.2 104.9 5.3 104.9 4 Z " stroke="none" fill="#000"/>
  </g>
</svg>