<?xml version="1.0" standalone="no"?>
<!DOCTYPE svg PUBLIC "-//W3C//DTD SVG 1.1//EN" "http://www.w3.org/Graphics/SVG/1.1/DTD/svg11.dtd">
<svg xmlns="http://www.w3.org/2000/svg" version="1.1" width="396px" height="34.1px" viewBox="0 0 396 34.1">
  <desc>MAT RIAU</desc>
  <defs/>
  <g id="Polygon27968">
    <path d="M 145.9 16.3 L 141.7 16.3 L 143.8 1.1 L 149 1.1 L 151.4 9.5 L 151.4 9.5 L 153.8 1.1 L 158.8 1.1 L 160.9 16.3 L 156.7 16.3 L 155.8 7.1 L 155.8 7.1 L 153.2 16.3 L 149.4 16.3 L 146.9 7.1 L 146.8 7.1 L 145.9 16.3 Z M 173 16.3 L 172 13.3 L 166.9 13.3 L 166 16.3 L 161.4 16.3 L 166.9 1.1 L 172 1.1 L 177.6 16.3 L 173 16.3 Z M 168.1 9.7 L 170.8 9.7 L 169.4 5.6 L 168.1 9.7 Z M 180.3 5.1 L 176.1 5.1 L 176.1 1.1 L 188.9 1.1 L 188.9 5.1 L 184.7 5.1 L 184.7 16.3 L 180.3 16.3 L 180.3 5.1 Z M 199.9 -3.8 L 196.7 -0.1 L 193.5 -0.1 L 195.7 -3.8 L 199.9 -3.8 Z M 190.6 1.1 L 201.1 1.1 L 201.1 5 L 195 5 L 195 6.9 L 200.5 6.9 L 200.5 10.4 L 195 10.4 L 195 12.3 L 201.1 12.3 L 201.1 16.3 L 190.6 16.3 L 190.6 1.1 Z M 216 16.3 L 210.8 16.3 L 207.9 11.6 L 207.8 11.6 L 207.8 16.3 L 203.4 16.3 L 203.4 1.1 C 203.4 1.1 208.78 1.08 208.8 1.1 C 212.6 1.1 215.2 2.8 215.2 6.4 C 215.2 7.8 214.6 9.9 212.1 10.9 C 212.07 10.92 216 16.3 216 16.3 Z M 208.8 8.3 C 209.9 8.3 210.7 7.7 210.7 6.7 C 210.7 5.6 209.9 5.1 208.7 5.1 C 208.73 5.08 207.8 5.1 207.8 5.1 L 207.8 8.3 C 207.8 8.3 208.75 8.25 208.8 8.3 Z M 217.5 1.1 L 221.9 1.1 L 221.9 16.3 L 217.5 16.3 L 217.5 1.1 Z M 234.8 16.3 L 233.8 13.3 L 228.8 13.3 L 227.8 16.3 L 223.2 16.3 L 228.7 1.1 L 233.8 1.1 L 239.4 16.3 L 234.8 16.3 Z M 229.9 9.7 L 232.6 9.7 L 231.2 5.6 L 229.9 9.7 Z M 239.9 10.1 C 239.9 10.08 239.9 1.1 239.9 1.1 L 244.3 1.1 C 244.3 1.1 244.33 10.04 244.3 10 C 244.3 11.7 245.2 12.6 246.6 12.6 C 248.1 12.6 248.9 11.7 248.9 10 C 248.91 10.02 248.9 1.1 248.9 1.1 L 253.4 1.1 C 253.4 1.1 253.36 10.08 253.4 10.1 C 253.4 13.9 250.8 16.6 246.6 16.6 C 242.4 16.6 239.9 13.9 239.9 10.1 Z " stroke="none" fill="#444443"/>
  </g>
</svg>