<?xml version="1.0" standalone="no"?>
<!DOCTYPE svg PUBLIC "-//W3C//DTD SVG 1.1//EN" "http://www.w3.org/Graphics/SVG/1.1/DTD/svg11.dtd">
<svg xmlns="http://www.w3.org/2000/svg" version="1.1" width="340.1px" height="183.4px" viewBox="0 0 340.1 183.4">
  <desc>Inspir e de technologies existantes, ces enceintes circulaires sont pens es pour offrir une diffusion optimale du son</desc>
  <defs/>
  <g id="Polygon26504">
    <path d="M 1.8 60.8 L 3.7 60.8 L 3.7 61.3 L 1.8 61.3 C 1.8 61.3 1.82 65.2 1.8 65.2 C 1.8 66.4 2.5 66.8 3.4 66.8 C 3.5 66.8 3.7 66.8 3.9 66.8 C 3.9 66.8 3.9 67.2 3.9 67.2 C 3.8 67.2 3.6 67.3 3.3 67.3 C 2.1 67.3 1.3 66.6 1.3 65.2 C 1.32 65.22 1.3 61.3 1.3 61.3 L 0.3 61.3 L 0.3 60.8 L 1.3 60.8 L 1.3 59.3 L 1.8 59.3 L 1.8 60.8 Z M 4.7 64 C 4.7 62 6.1 60.7 7.6 60.7 C 8.6 60.7 9.7 61.3 10.1 62.4 C 10.13 62.42 10.2 60.8 10.2 60.8 L 10.6 60.8 L 10.6 67.2 L 10.2 67.2 C 10.2 67.2 10.13 65.6 10.1 65.6 C 9.7 66.8 8.6 67.3 7.6 67.3 C 6.1 67.3 4.7 66 4.7 64 Z M 10.1 64 C 10.1 62.3 9 61.2 7.7 61.2 C 6.3 61.2 5.2 62.3 5.2 64 C 5.2 65.7 6.4 66.8 7.7 66.8 C 9 66.8 10.1 65.7 10.1 64 Z M 13.6 60.8 L 15.5 60.8 L 15.5 61.3 L 13.6 61.3 C 13.6 61.3 13.56 65.2 13.6 65.2 C 13.6 66.4 14.2 66.8 15.1 66.8 C 15.3 66.8 15.4 66.8 15.6 66.8 C 15.6 66.8 15.6 67.2 15.6 67.2 C 15.6 67.2 15.3 67.3 15 67.3 C 13.9 67.3 13.1 66.6 13.1 65.2 C 13.06 65.22 13.1 61.3 13.1 61.3 L 12.1 61.3 L 12.1 60.8 L 13.1 60.8 L 13.1 59.3 L 13.6 59.3 L 13.6 60.8 Z M 19.9 64 C 19.9 62 21.3 60.7 22.8 60.7 C 23.9 60.7 24.9 61.3 25.3 62.4 C 25.34 62.42 25.4 60.8 25.4 60.8 L 25.8 60.8 L 25.8 67.2 L 25.4 67.2 C 25.4 67.2 25.34 65.6 25.3 65.6 C 24.9 66.8 23.9 67.3 22.8 67.3 C 21.3 67.3 19.9 66 19.9 64 Z M 25.3 64 C 25.3 62.3 24.2 61.2 22.9 61.2 C 21.6 61.2 20.4 62.3 20.4 64 C 20.4 65.7 21.6 66.8 22.9 66.8 C 24.2 66.8 25.3 65.7 25.3 64 Z M 28.3 61.3 L 27.4 61.3 L 27.4 60.8 L 28.3 60.8 C 28.3 60.8 28.32 59.6 28.3 59.6 C 28.3 58.3 29.2 57.6 30.2 57.6 C 30.6 57.6 30.9 57.7 31.2 57.8 C 31.2 57.8 31.2 58.3 31.2 58.3 C 30.9 58.2 30.6 58.1 30.3 58.1 C 29.4 58.1 28.8 58.6 28.8 59.7 C 28.83 59.69 28.8 60.8 28.8 60.8 L 30.8 60.8 L 30.8 61.3 L 28.8 61.3 L 28.8 67.2 L 28.3 67.2 L 28.3 61.3 Z M 32.1 58.5 C 32.1 58.3 32.3 58.1 32.5 58.1 C 32.8 58.1 33 58.3 33 58.5 C 33 58.7 32.8 58.9 32.5 58.9 C 32.3 58.9 32.1 58.7 32.1 58.5 Z M 32.3 60.8 L 32.8 60.8 L 32.8 67.2 L 32.3 67.2 L 32.3 60.8 Z M 39.9 63 C 39.9 62.96 39.9 67.2 39.9 67.2 L 39.4 67.2 C 39.4 67.2 39.4 63.17 39.4 63.2 C 39.4 61.9 38.7 61.2 37.6 61.2 C 36.5 61.2 35.6 61.9 35.6 63.1 C 35.61 63.11 35.6 67.2 35.6 67.2 L 35.1 67.2 L 35.1 60.8 L 35.5 60.8 L 35.6 62 C 35.6 62 35.58 61.96 35.6 62 C 35.9 61.2 36.7 60.7 37.7 60.7 C 39 60.7 39.9 61.6 39.9 63 Z M 45.1 64 C 45.1 62 46.5 60.7 48 60.7 C 49 60.7 50.1 61.3 50.5 62.4 C 50.5 62.38 50.5 57.7 50.5 57.7 L 51 57.7 L 51 67.2 L 50.6 67.2 L 50.5 65.6 C 50.5 65.6 50.52 65.59 50.5 65.6 C 50.1 66.8 49 67.3 48 67.3 C 46.5 67.3 45.1 66 45.1 64 Z M 50.5 64 C 50.5 62.3 49.4 61.2 48.1 61.2 C 46.8 61.2 45.6 62.3 45.6 64 C 45.6 65.7 46.8 66.8 48.1 66.8 C 49.4 66.8 50.5 65.7 50.5 64 Z M 53.5 58.7 C 53.47 58.73 53.5 58.3 53.5 58.3 L 54 58.3 C 54 58.3 53.97 58.72 54 58.7 C 54 59.7 53.6 60.7 53.3 61.3 C 53.3 61.3 52.9 61.3 52.9 61.3 C 53.2 60.7 53.5 59.7 53.5 58.7 Z M 55.1 64 C 55.1 62 56.5 60.7 58 60.7 C 59 60.7 60 61.3 60.5 62.4 C 60.47 62.42 60.5 60.8 60.5 60.8 L 60.9 60.8 L 60.9 67.2 L 60.5 67.2 C 60.5 67.2 60.47 65.6 60.5 65.6 C 60 66.8 59 67.3 58 67.3 C 56.5 67.3 55.1 66 55.1 64 Z M 60.5 64 C 60.5 62.3 59.3 61.2 58 61.2 C 56.7 61.2 55.6 62.3 55.6 64 C 55.6 65.7 56.7 66.8 58 66.8 C 59.3 66.8 60.5 65.7 60.5 64 Z M 65.8 66.8 C 66.3 66.8 67 66.7 67.6 66.3 C 67.6 66.3 67.6 66.9 67.6 66.9 C 67.1 67.2 66.5 67.3 65.8 67.3 C 64.1 67.3 62.8 65.9 62.8 64 C 62.8 62.1 64.1 60.7 65.8 60.7 C 66.4 60.7 67 60.8 67.6 61.2 C 67.6 61.2 67.6 61.7 67.6 61.7 C 67 61.3 66.4 61.2 65.8 61.2 C 64.5 61.2 63.3 62.3 63.3 64 C 63.3 65.7 64.5 66.8 65.8 66.8 Z M 71.8 66.8 C 72.3 66.8 73 66.7 73.5 66.3 C 73.5 66.3 73.5 66.9 73.5 66.9 C 73 67.2 72.4 67.3 71.8 67.3 C 70.1 67.3 68.7 65.9 68.7 64 C 68.7 62.1 70.1 60.7 71.8 60.7 C 72.4 60.7 73 60.8 73.5 61.2 C 73.5 61.2 73.5 61.7 73.5 61.7 C 73 61.3 72.4 61.2 71.8 61.2 C 70.5 61.2 69.2 62.3 69.2 64 C 69.2 65.7 70.5 66.8 71.8 66.8 Z M 74.7 64 C 74.7 62.1 76.1 60.7 77.7 60.7 C 79.4 60.7 80.8 62.1 80.8 64 C 80.8 66 79.4 67.3 77.7 67.3 C 76.1 67.3 74.7 66 74.7 64 Z M 80.3 64 C 80.3 62.2 79 61.2 77.7 61.2 C 76.4 61.2 75.2 62.2 75.2 64 C 75.2 65.8 76.4 66.8 77.7 66.8 C 79 66.8 80.3 65.8 80.3 64 Z M 90.3 62.9 C 90.32 62.88 90.3 67.2 90.3 67.2 L 89.8 67.2 C 89.8 67.2 89.82 62.93 89.8 62.9 C 89.8 61.9 89.3 61.2 88.3 61.2 C 87.3 61.2 86.7 62 86.7 62.9 C 86.71 62.94 86.7 67.2 86.7 67.2 L 86.2 67.2 C 86.2 67.2 86.21 62.93 86.2 62.9 C 86.2 61.9 85.7 61.2 84.7 61.2 C 83.7 61.2 83.1 62 83.1 63 C 83.1 62.96 83.1 67.2 83.1 67.2 L 82.6 67.2 L 82.6 60.8 L 83 60.8 L 83.1 61.9 C 83.1 61.9 83.06 61.88 83.1 61.9 C 83.3 61.2 84 60.7 84.8 60.7 C 85.7 60.7 86.3 61.2 86.6 62 C 86.8 61.2 87.5 60.7 88.4 60.7 C 89.7 60.7 90.3 61.6 90.3 62.9 Z M 92.5 60.8 L 92.9 60.8 C 92.9 60.8 93 62.44 93 62.4 C 93.5 61.3 94.5 60.7 95.5 60.7 C 97 60.7 98.4 62 98.4 64 C 98.4 66 97 67.3 95.5 67.3 C 94.5 67.3 93.5 66.7 93 65.7 C 93.03 65.65 93 69.8 93 69.8 L 92.5 69.8 L 92.5 60.8 Z M 97.9 64 C 97.9 62.3 96.8 61.2 95.5 61.2 C 94.1 61.2 93 62.3 93 64 C 93 65.7 94.2 66.8 95.5 66.8 C 96.8 66.8 97.9 65.7 97.9 64 Z M 99.8 64 C 99.8 62 101.2 60.7 102.7 60.7 C 103.7 60.7 104.7 61.3 105.2 62.4 C 105.2 62.42 105.3 60.8 105.3 60.8 L 105.7 60.8 L 105.7 67.2 L 105.3 67.2 C 105.3 67.2 105.2 65.6 105.2 65.6 C 104.7 66.8 103.7 67.3 102.7 67.3 C 101.2 67.3 99.8 66 99.8 64 Z M 105.2 64 C 105.2 62.3 104.1 61.2 102.7 61.2 C 101.4 61.2 100.3 62.3 100.3 64 C 100.3 65.7 101.4 66.8 102.8 66.8 C 104.1 66.8 105.2 65.7 105.2 64 Z M 112.9 62.4 C 112.87 62.36 112.9 60.8 112.9 60.8 L 113.3 60.8 C 113.3 60.8 113.34 67 113.3 67 C 113.3 69 112 69.9 110.5 69.9 C 109.7 69.9 108.8 69.6 108.1 69.1 C 108.1 69.1 108.1 68.5 108.1 68.5 C 108.8 69.1 109.7 69.4 110.5 69.4 C 111.7 69.4 112.8 68.7 112.8 67.1 C 112.8 67.1 112.8 65.5 112.8 65.5 C 112.4 66.6 111.4 67.1 110.4 67.1 C 108.9 67.1 107.5 65.9 107.5 63.9 C 107.5 62 108.9 60.7 110.4 60.7 C 111.4 60.7 112.4 61.3 112.9 62.4 Z M 108 63.9 C 108 65.6 109.1 66.6 110.4 66.6 C 111.7 66.6 112.9 65.5 112.9 63.9 C 112.9 62.3 111.7 61.2 110.4 61.2 C 109.1 61.2 108 62.3 108 63.9 Z M 120.4 63 C 120.41 62.96 120.4 67.2 120.4 67.2 L 119.9 67.2 C 119.9 67.2 119.9 63.17 119.9 63.2 C 119.9 61.9 119.2 61.2 118.1 61.2 C 117 61.2 116.1 61.9 116.1 63.1 C 116.12 63.11 116.1 67.2 116.1 67.2 L 115.6 67.2 L 115.6 60.8 L 116 60.8 L 116.1 62 C 116.1 62 116.09 61.96 116.1 62 C 116.4 61.2 117.2 60.7 118.2 60.7 C 119.5 60.7 120.4 61.6 120.4 63 Z M 127.7 64.2 C 127.7 64.2 122.7 64.2 122.7 64.2 C 122.7 65.8 123.8 66.8 125.2 66.8 C 126 66.8 126.8 66.6 127.5 65.9 C 127.5 65.9 127.5 66.5 127.5 66.5 C 126.8 67 126 67.3 125.2 67.3 C 123.4 67.3 122.2 66 122.2 64 C 122.2 62 123.6 60.7 125.1 60.7 C 126.5 60.7 127.7 61.8 127.7 63.9 C 127.7 64 127.7 64.1 127.7 64.2 Z M 127.2 63.7 C 127.2 62 126.2 61.2 125.1 61.2 C 123.9 61.2 122.8 62.2 122.7 63.7 C 122.7 63.7 127.2 63.7 127.2 63.7 Z M 129.5 60.8 L 129.9 60.8 L 130 62 C 130 62 130.01 62.02 130 62 C 130.4 61.1 131.2 60.8 131.9 60.8 C 132 60.8 132.2 60.8 132.3 60.8 C 132.3 60.8 132.3 61.3 132.3 61.3 C 132.2 61.3 132 61.3 131.9 61.3 C 131 61.3 130.1 61.9 130 63.2 C 130.04 63.17 130 67.2 130 67.2 L 129.5 67.2 L 129.5 60.8 Z M 136.8 57.7 L 137.3 57.7 L 137.3 67.2 L 136.8 67.2 L 136.8 57.7 Z M 139.8 58.7 C 139.82 58.73 139.8 58.3 139.8 58.3 L 140.3 58.3 C 140.3 58.3 140.33 58.72 140.3 58.7 C 140.3 59.7 139.9 60.7 139.7 61.3 C 139.7 61.3 139.3 61.3 139.3 61.3 C 139.5 60.7 139.8 59.7 139.8 58.7 Z M 142.2 64.9 C 142.15 64.88 142.2 60.8 142.2 60.8 L 142.7 60.8 C 142.7 60.8 142.65 64.91 142.7 64.9 C 142.7 66.1 143.4 66.8 144.5 66.8 C 145.7 66.8 146.4 66.1 146.4 64.9 C 146.45 64.9 146.4 60.8 146.4 60.8 L 146.9 60.8 C 146.9 60.8 146.95 64.87 146.9 64.9 C 146.9 66.3 146 67.3 144.5 67.3 C 143.1 67.3 142.2 66.3 142.2 64.9 Z M 152.7 61.3 C 152.7 61.3 152.7 61.8 152.7 61.8 C 152.2 61.5 151.6 61.2 150.9 61.2 C 149.9 61.2 149.3 61.7 149.3 62.4 C 149.3 63.1 150 63.4 151 63.7 C 152 64.1 153 64.4 153 65.5 C 153 66.6 152.1 67.3 150.8 67.3 C 150.1 67.3 149.3 67.1 148.7 66.6 C 148.7 66.6 148.7 65.9 148.7 65.9 C 149.3 66.5 150 66.8 150.8 66.8 C 151.9 66.8 152.5 66.3 152.5 65.5 C 152.5 64.8 151.8 64.5 150.8 64.1 C 149.7 63.8 148.8 63.5 148.8 62.4 C 148.8 61.4 149.6 60.7 150.9 60.7 C 151.6 60.7 152.2 60.9 152.7 61.3 Z M 154.3 64 C 154.3 62 155.7 60.7 157.2 60.7 C 158.2 60.7 159.3 61.3 159.7 62.4 C 159.72 62.42 159.8 60.8 159.8 60.8 L 160.2 60.8 L 160.2 67.2 L 159.8 67.2 C 159.8 67.2 159.72 65.6 159.7 65.6 C 159.3 66.8 158.2 67.3 157.2 67.3 C 155.7 67.3 154.3 66 154.3 64 Z M 159.7 64 C 159.7 62.3 158.6 61.2 157.3 61.2 C 155.9 61.2 154.8 62.3 154.8 64 C 154.8 65.7 155.9 66.8 157.3 66.8 C 158.6 66.8 159.7 65.7 159.7 64 Z M 167.4 62.4 C 167.39 62.36 167.5 60.8 167.5 60.8 L 167.9 60.8 C 167.9 60.8 167.85 67 167.9 67 C 167.9 69 166.5 69.9 165 69.9 C 164.2 69.9 163.3 69.6 162.6 69.1 C 162.6 69.1 162.6 68.5 162.6 68.5 C 163.3 69.1 164.2 69.4 165 69.4 C 166.2 69.4 167.4 68.7 167.4 67.1 C 167.4 67.1 167.4 65.5 167.4 65.5 C 166.9 66.6 165.9 67.1 164.9 67.1 C 163.4 67.1 162 65.9 162 63.9 C 162 62 163.4 60.7 164.9 60.7 C 165.9 60.7 166.9 61.3 167.4 62.4 Z M 162.5 63.9 C 162.5 65.6 163.6 66.6 164.9 66.6 C 166.3 66.6 167.4 65.5 167.4 63.9 C 167.4 62.3 166.3 61.2 164.9 61.2 C 163.6 61.2 162.5 62.3 162.5 63.9 Z M 175.2 64.2 C 175.2 64.2 170.2 64.2 170.2 64.2 C 170.3 65.8 171.3 66.8 172.7 66.8 C 173.5 66.8 174.3 66.6 175 65.9 C 175 65.9 175 66.5 175 66.5 C 174.3 67 173.6 67.3 172.7 67.3 C 170.9 67.3 169.7 66 169.7 64 C 169.7 62 171.1 60.7 172.6 60.7 C 174.1 60.7 175.3 61.8 175.3 63.9 C 175.3 64 175.3 64.1 175.2 64.2 Z M 174.8 63.7 C 174.7 62 173.7 61.2 172.6 61.2 C 171.4 61.2 170.3 62.2 170.2 63.7 C 170.2 63.7 174.8 63.7 174.8 63.7 Z M 177.1 60.8 L 177.5 60.8 L 177.5 62 C 177.5 62 177.54 62.02 177.5 62 C 177.9 61.1 178.8 60.8 179.4 60.8 C 179.6 60.8 179.7 60.8 179.8 60.8 C 179.8 60.8 179.8 61.3 179.8 61.3 C 179.7 61.3 179.6 61.3 179.4 61.3 C 178.5 61.3 177.6 61.9 177.6 63.2 C 177.57 63.17 177.6 67.2 177.6 67.2 L 177.1 67.2 L 177.1 60.8 Z M 187.9 61.3 C 187.9 61.3 187.9 61.8 187.9 61.8 C 187.4 61.5 186.7 61.2 186 61.2 C 185.1 61.2 184.5 61.7 184.5 62.4 C 184.5 63.1 185.1 63.4 186.1 63.7 C 187.2 64.1 188.2 64.4 188.2 65.5 C 188.2 66.6 187.3 67.3 186 67.3 C 185.3 67.3 184.5 67.1 183.9 66.6 C 183.9 66.6 183.9 65.9 183.9 65.9 C 184.4 66.5 185.2 66.8 186 66.8 C 187 66.8 187.7 66.3 187.7 65.5 C 187.7 64.8 186.9 64.5 185.9 64.1 C 184.9 63.8 184 63.5 184 62.4 C 184 61.4 184.8 60.7 186 60.7 C 186.7 60.7 187.4 60.9 187.9 61.3 Z M 195 64.2 C 195 64.2 190 64.2 190 64.2 C 190.1 65.8 191.1 66.8 192.5 66.8 C 193.3 66.8 194.1 66.6 194.8 65.9 C 194.8 65.9 194.8 66.5 194.8 66.5 C 194.1 67 193.3 67.3 192.5 67.3 C 190.7 67.3 189.5 66 189.5 64 C 189.5 62 190.9 60.7 192.4 60.7 C 193.8 60.7 195.1 61.8 195.1 63.9 C 195.1 64 195 64.1 195 64.2 Z M 194.6 63.7 C 194.5 62 193.5 61.2 192.4 61.2 C 191.2 61.2 190.1 62.2 190 63.7 C 190 63.7 194.6 63.7 194.6 63.7 Z M 196.9 57.7 L 197.4 57.7 L 197.4 67.2 L 196.9 67.2 L 196.9 57.7 Z M 199.3 64 C 199.3 62.1 200.6 60.7 202.3 60.7 C 204 60.7 205.3 62.1 205.3 64 C 205.3 66 204 67.3 202.3 67.3 C 200.6 67.3 199.3 66 199.3 64 Z M 204.8 64 C 204.8 62.2 203.6 61.2 202.3 61.2 C 201 61.2 199.8 62.2 199.8 64 C 199.8 65.8 201 66.8 202.3 66.8 C 203.6 66.8 204.8 65.8 204.8 64 Z M 212 63 C 211.95 62.96 212 67.2 212 67.2 L 211.4 67.2 C 211.4 67.2 211.45 63.17 211.4 63.2 C 211.4 61.9 210.8 61.2 209.6 61.2 C 208.6 61.2 207.7 61.9 207.7 63.1 C 207.67 63.11 207.7 67.2 207.7 67.2 L 207.2 67.2 L 207.2 60.8 L 207.6 60.8 L 207.6 62 C 207.6 62 207.63 61.96 207.6 62 C 208 61.2 208.7 60.7 209.7 60.7 C 211.1 60.7 212 61.6 212 63 Z M 221.2 61.3 C 221.2 61.3 221.2 61.8 221.2 61.8 C 220.7 61.5 220.1 61.2 219.3 61.2 C 218.4 61.2 217.8 61.7 217.8 62.4 C 217.8 63.1 218.4 63.4 219.5 63.7 C 220.5 64.1 221.5 64.4 221.5 65.5 C 221.5 66.6 220.6 67.3 219.3 67.3 C 218.6 67.3 217.8 67.1 217.2 66.6 C 217.2 66.6 217.2 65.9 217.2 65.9 C 217.7 66.5 218.5 66.8 219.3 66.8 C 220.3 66.8 221 66.3 221 65.5 C 221 64.8 220.3 64.5 219.2 64.1 C 218.2 63.8 217.3 63.5 217.3 62.4 C 217.3 61.4 218.1 60.7 219.4 60.7 C 220 60.7 220.7 60.9 221.2 61.3 Z M 228.3 64.2 C 228.3 64.2 223.3 64.2 223.3 64.2 C 223.4 65.8 224.4 66.8 225.8 66.8 C 226.6 66.8 227.4 66.6 228.1 65.9 C 228.1 65.9 228.1 66.5 228.1 66.5 C 227.4 67 226.7 67.3 225.8 67.3 C 224 67.3 222.8 66 222.8 64 C 222.8 62 224.2 60.7 225.7 60.7 C 227.2 60.7 228.4 61.8 228.4 63.9 C 228.4 64 228.4 64.1 228.3 64.2 Z M 227.9 63.7 C 227.8 62 226.8 61.2 225.7 61.2 C 224.5 61.2 223.4 62.2 223.3 63.7 C 223.3 63.7 227.9 63.7 227.9 63.7 Z M 233.7 61.3 C 233.7 61.3 233.7 61.8 233.7 61.8 C 233.2 61.5 232.6 61.2 231.9 61.2 C 230.9 61.2 230.3 61.7 230.3 62.4 C 230.3 63.1 231 63.4 232 63.7 C 233 64.1 234 64.4 234 65.5 C 234 66.6 233.2 67.3 231.9 67.3 C 231.1 67.3 230.3 67.1 229.7 66.6 C 229.7 66.6 229.7 65.9 229.7 65.9 C 230.3 66.5 231 66.8 231.9 66.8 C 232.9 66.8 233.5 66.3 233.5 65.5 C 233.5 64.8 232.8 64.5 231.8 64.1 C 230.7 63.8 229.8 63.5 229.8 62.4 C 229.8 61.4 230.7 60.7 231.9 60.7 C 232.6 60.7 233.2 60.9 233.7 61.3 Z M 244.4 64.2 C 244.4 64.2 239.3 64.2 239.3 64.2 C 239.4 65.8 240.4 66.8 241.9 66.8 C 242.6 66.8 243.5 66.6 244.1 65.9 C 244.1 65.9 244.1 66.5 244.1 66.5 C 243.5 67 242.7 67.3 241.8 67.3 C 240.1 67.3 238.8 66 238.8 64 C 238.8 62 240.2 60.7 241.8 60.7 C 243.2 60.7 244.4 61.8 244.4 63.9 C 244.4 64 244.4 64.1 244.4 64.2 Z M 243.9 63.7 C 243.9 62 242.8 61.2 241.8 61.2 C 240.5 61.2 239.4 62.2 239.3 63.7 C 239.3 63.7 243.9 63.7 243.9 63.7 Z M 251 63 C 250.97 62.96 251 67.2 251 67.2 L 250.5 67.2 C 250.5 67.2 250.47 63.17 250.5 63.2 C 250.5 61.9 249.8 61.2 248.7 61.2 C 247.6 61.2 246.7 61.9 246.7 63.1 C 246.69 63.11 246.7 67.2 246.7 67.2 L 246.2 67.2 L 246.2 60.8 L 246.6 60.8 L 246.6 62 C 246.6 62 246.66 61.96 246.7 62 C 247 61.2 247.8 60.7 248.7 60.7 C 250.1 60.7 251 61.6 251 63 Z M 252.3 60.8 L 252.8 60.8 L 254.9 66.6 L 254.9 66.6 L 257 60.8 L 257.6 60.8 L 255.2 67.2 L 254.6 67.2 L 252.3 60.8 Z M 259 58.5 C 259 58.3 259.1 58.1 259.4 58.1 C 259.6 58.1 259.8 58.3 259.8 58.5 C 259.8 58.7 259.6 58.9 259.4 58.9 C 259.1 58.9 259 58.7 259 58.5 Z M 259.1 60.8 L 259.6 60.8 L 259.6 67.2 L 259.1 67.2 L 259.1 60.8 Z M 267.1 64.2 C 267.1 64.2 262 64.2 262 64.2 C 262.1 65.8 263.1 66.8 264.6 66.8 C 265.3 66.8 266.1 66.6 266.8 65.9 C 266.8 65.9 266.8 66.5 266.8 66.5 C 266.2 67 265.4 67.3 264.5 67.3 C 262.7 67.3 261.5 66 261.5 64 C 261.5 62 262.9 60.7 264.5 60.7 C 265.9 60.7 267.1 61.8 267.1 63.9 C 267.1 64 267.1 64.1 267.1 64.2 Z M 266.6 63.7 C 266.6 62 265.5 61.2 264.5 61.2 C 263.2 61.2 262.1 62.2 262 63.7 C 262 63.7 266.6 63.7 266.6 63.7 Z M 272.4 61.3 C 272.4 61.3 272.4 61.8 272.4 61.8 C 271.9 61.5 271.3 61.2 270.6 61.2 C 269.7 61.2 269 61.7 269 62.4 C 269 63.1 269.7 63.4 270.7 63.7 C 271.7 64.1 272.7 64.4 272.7 65.5 C 272.7 66.6 271.9 67.3 270.6 67.3 C 269.8 67.3 269.1 67.1 268.4 66.6 C 268.4 66.6 268.4 65.9 268.4 65.9 C 269 66.5 269.7 66.8 270.6 66.8 C 271.6 66.8 272.2 66.3 272.2 65.5 C 272.2 64.8 271.5 64.5 270.5 64.1 C 269.4 63.8 268.5 63.5 268.5 62.4 C 268.5 61.4 269.4 60.7 270.6 60.7 C 271.3 60.7 271.9 60.9 272.4 61.3 Z M 274.3 66.8 C 274.3 66.5 274.5 66.3 274.7 66.3 C 275 66.3 275.2 66.5 275.2 66.8 C 275.2 67 275 67.2 274.7 67.2 C 274.5 67.2 274.3 67 274.3 66.8 Z " stroke="none" fill="#000"/>
  </g>
  <g id="Polygon26503">
    <path d="M 0.7 49.6 C 0.7 47.6 2.1 46.3 3.6 46.3 C 4.6 46.3 5.6 46.9 6.1 48 C 6.07 47.98 6.1 43.3 6.1 43.3 L 6.6 43.3 L 6.6 52.8 L 6.2 52.8 L 6.1 51.2 C 6.1 51.2 6.1 51.19 6.1 51.2 C 5.6 52.4 4.6 52.9 3.6 52.9 C 2.1 52.9 0.7 51.6 0.7 49.6 Z M 6.1 49.6 C 6.1 47.9 5 46.8 3.6 46.8 C 2.3 46.8 1.2 47.9 1.2 49.6 C 1.2 51.3 2.3 52.4 3.6 52.4 C 5 52.4 6.1 51.3 6.1 49.6 Z M 14 49.8 C 14 49.8 8.9 49.8 8.9 49.8 C 9 51.4 10 52.4 11.5 52.4 C 12.2 52.4 13.1 52.2 13.7 51.5 C 13.7 51.5 13.7 52.1 13.7 52.1 C 13.1 52.6 12.3 52.9 11.4 52.9 C 9.7 52.9 8.4 51.6 8.4 49.6 C 8.4 47.6 9.8 46.3 11.4 46.3 C 12.8 46.3 14 47.4 14 49.5 C 14 49.6 14 49.7 14 49.8 Z M 13.5 49.3 C 13.5 47.6 12.4 46.8 11.4 46.8 C 10.2 46.8 9 47.8 8.9 49.3 C 8.9 49.3 13.5 49.3 13.5 49.3 Z M 19.3 46.9 C 19.3 46.9 19.3 47.4 19.3 47.4 C 18.8 47.1 18.2 46.8 17.5 46.8 C 16.6 46.8 15.9 47.3 15.9 48 C 15.9 48.7 16.6 49 17.6 49.3 C 18.6 49.7 19.7 50 19.7 51.1 C 19.7 52.2 18.8 52.9 17.5 52.9 C 16.7 52.9 16 52.7 15.3 52.2 C 15.3 52.2 15.3 51.5 15.3 51.5 C 15.9 52.1 16.7 52.4 17.5 52.4 C 18.5 52.4 19.2 51.9 19.2 51.1 C 19.2 50.4 18.4 50.1 17.4 49.7 C 16.4 49.4 15.4 49.1 15.4 48 C 15.4 47 16.3 46.3 17.5 46.3 C 18.2 46.3 18.9 46.5 19.3 46.9 Z M 25.6 48 C 26 46.9 27 46.3 28.1 46.3 C 29.6 46.3 31 47.6 31 49.6 C 31 51.6 29.6 52.9 28.1 52.9 C 27 52.9 26 52.4 25.5 51.2 C 25.54 51.19 25.5 52.8 25.5 52.8 L 25.1 52.8 L 25.1 43.3 L 25.6 43.3 C 25.6 43.3 25.58 47.99 25.6 48 Z M 25.6 49.6 C 25.6 51.3 26.7 52.4 28 52.4 C 29.3 52.4 30.5 51.3 30.5 49.6 C 30.5 47.9 29.3 46.8 28 46.8 C 26.7 46.8 25.6 47.9 25.6 49.6 Z M 32.3 49.6 C 32.3 47.6 33.7 46.3 35.2 46.3 C 36.3 46.3 37.3 46.9 37.7 48 C 37.75 48.02 37.8 46.4 37.8 46.4 L 38.2 46.4 L 38.2 52.8 L 37.8 52.8 C 37.8 52.8 37.75 51.2 37.7 51.2 C 37.3 52.4 36.3 52.9 35.3 52.9 C 33.7 52.9 32.3 51.6 32.3 49.6 Z M 37.7 49.6 C 37.7 47.9 36.6 46.8 35.3 46.8 C 34 46.8 32.8 47.9 32.8 49.6 C 32.8 51.3 34 52.4 35.3 52.4 C 36.6 52.4 37.7 51.3 37.7 49.6 Z M 44 46.9 C 44 46.9 44 47.4 44 47.4 C 43.5 47.1 42.9 46.8 42.2 46.8 C 41.3 46.8 40.6 47.3 40.6 48 C 40.6 48.7 41.3 49 42.3 49.3 C 43.4 49.7 44.4 50 44.4 51.1 C 44.4 52.2 43.5 52.9 42.2 52.9 C 41.4 52.9 40.7 52.7 40.1 52.2 C 40.1 52.2 40.1 51.5 40.1 51.5 C 40.6 52.1 41.4 52.4 42.2 52.4 C 43.2 52.4 43.9 51.9 43.9 51.1 C 43.9 50.4 43.1 50.1 42.1 49.7 C 41.1 49.4 40.1 49.1 40.1 48 C 40.1 47 41 46.3 42.2 46.3 C 42.9 46.3 43.6 46.5 44 46.9 Z M 49.7 46.9 C 49.7 46.9 49.7 47.4 49.7 47.4 C 49.2 47.1 48.5 46.8 47.8 46.8 C 46.9 46.8 46.3 47.3 46.3 48 C 46.3 48.7 46.9 49 47.9 49.3 C 49 49.7 50 50 50 51.1 C 50 52.2 49.1 52.9 47.8 52.9 C 47.1 52.9 46.3 52.7 45.7 52.2 C 45.7 52.2 45.7 51.5 45.7 51.5 C 46.2 52.1 47 52.4 47.8 52.4 C 48.8 52.4 49.5 51.9 49.5 51.1 C 49.5 50.4 48.8 50.1 47.7 49.7 C 46.7 49.4 45.8 49.1 45.8 48 C 45.8 47 46.6 46.3 47.8 46.3 C 48.5 46.3 49.2 46.5 49.7 46.9 Z M 56.8 49.8 C 56.8 49.8 51.8 49.8 51.8 49.8 C 51.9 51.4 52.9 52.4 54.3 52.4 C 55.1 52.4 55.9 52.2 56.6 51.5 C 56.6 51.5 56.6 52.1 56.6 52.1 C 55.9 52.6 55.1 52.9 54.3 52.9 C 52.5 52.9 51.3 51.6 51.3 49.6 C 51.3 47.6 52.7 46.3 54.2 46.3 C 55.7 46.3 56.9 47.4 56.9 49.5 C 56.9 49.6 56.8 49.7 56.8 49.8 Z M 56.4 49.3 C 56.3 47.6 55.3 46.8 54.2 46.8 C 53 46.8 51.9 47.8 51.8 49.3 C 51.8 49.3 56.4 49.3 56.4 49.3 Z M 62.2 46.9 C 62.2 46.9 62.2 47.4 62.2 47.4 C 61.7 47.1 61.1 46.8 60.4 46.8 C 59.4 46.8 58.8 47.3 58.8 48 C 58.8 48.7 59.5 49 60.5 49.3 C 61.5 49.7 62.5 50 62.5 51.1 C 62.5 52.2 61.7 52.9 60.4 52.9 C 59.6 52.9 58.8 52.7 58.2 52.2 C 58.2 52.2 58.2 51.5 58.2 51.5 C 58.8 52.1 59.5 52.4 60.4 52.4 C 61.4 52.4 62 51.9 62 51.1 C 62 50.4 61.3 50.1 60.3 49.7 C 59.2 49.4 58.3 49.1 58.3 48 C 58.3 47 59.2 46.3 60.4 46.3 C 61.1 46.3 61.7 46.5 62.2 46.9 Z M 73.1 49.8 C 73.1 49.8 68 49.8 68 49.8 C 68.1 51.4 69.1 52.4 70.6 52.4 C 71.3 52.4 72.1 52.2 72.8 51.5 C 72.8 51.5 72.8 52.1 72.8 52.1 C 72.2 52.6 71.4 52.9 70.5 52.9 C 68.7 52.9 67.5 51.6 67.5 49.6 C 67.5 47.6 68.9 46.3 70.5 46.3 C 71.9 46.3 73.1 47.4 73.1 49.5 C 73.1 49.6 73.1 49.7 73.1 49.8 Z M 72.6 49.3 C 72.6 47.6 71.5 46.8 70.5 46.8 C 69.2 46.8 68.1 47.8 68 49.3 C 68 49.3 72.6 49.3 72.6 49.3 Z M 75.5 46.4 L 77.4 46.4 L 77.4 46.9 L 75.5 46.9 C 75.5 46.9 75.5 50.8 75.5 50.8 C 75.5 52 76.1 52.4 77 52.4 C 77.2 52.4 77.4 52.4 77.6 52.4 C 77.6 52.4 77.6 52.8 77.6 52.8 C 77.5 52.8 77.3 52.9 77 52.9 C 75.8 52.9 75 52.2 75 50.8 C 75 50.82 75 46.9 75 46.9 L 74 46.9 L 74 46.4 L 75 46.4 L 75 44.9 L 75.5 44.9 L 75.5 46.4 Z M 82.1 49.6 C 82.1 47.6 83.5 46.3 85 46.3 C 86 46.3 87 46.9 87.5 48 C 87.46 47.98 87.5 43.3 87.5 43.3 L 88 43.3 L 88 52.8 L 87.6 52.8 L 87.5 51.2 C 87.5 51.2 87.49 51.19 87.5 51.2 C 87 52.4 86 52.9 85 52.9 C 83.5 52.9 82.1 51.6 82.1 49.6 Z M 87.5 49.6 C 87.5 47.9 86.4 46.8 85 46.8 C 83.7 46.8 82.6 47.9 82.6 49.6 C 82.6 51.3 83.7 52.4 85 52.4 C 86.4 52.4 87.5 51.3 87.5 49.6 Z M 95.4 49.8 C 95.4 49.8 90.3 49.8 90.3 49.8 C 90.4 51.4 91.4 52.4 92.9 52.4 C 93.6 52.4 94.4 52.2 95.1 51.5 C 95.1 51.5 95.1 52.1 95.1 52.1 C 94.5 52.6 93.7 52.9 92.8 52.9 C 91.1 52.9 89.8 51.6 89.8 49.6 C 89.8 47.6 91.2 46.3 92.8 46.3 C 94.2 46.3 95.4 47.4 95.4 49.5 C 95.4 49.6 95.4 49.7 95.4 49.8 Z M 94.9 49.3 C 94.9 47.6 93.8 46.8 92.8 46.8 C 91.5 46.8 90.4 47.8 90.3 49.3 C 90.3 49.3 94.9 49.3 94.9 49.3 Z M 100.7 46.9 C 100.7 46.9 100.7 47.4 100.7 47.4 C 100.2 47.1 99.6 46.8 98.9 46.8 C 98 46.8 97.3 47.3 97.3 48 C 97.3 48.7 98 49 99 49.3 C 100 49.7 101 50 101 51.1 C 101 52.2 100.2 52.9 98.9 52.9 C 98.1 52.9 97.4 52.7 96.7 52.2 C 96.7 52.2 96.7 51.5 96.7 51.5 C 97.3 52.1 98 52.4 98.9 52.4 C 99.9 52.4 100.5 51.9 100.5 51.1 C 100.5 50.4 99.8 50.1 98.8 49.7 C 97.7 49.4 96.8 49.1 96.8 48 C 96.8 47 97.7 46.3 98.9 46.3 C 99.6 46.3 100.2 46.5 100.7 46.9 Z M 106 49.6 C 106 47.6 107.4 46.3 108.9 46.3 C 109.9 46.3 111 46.9 111.4 48 C 111.42 48.02 111.5 46.4 111.5 46.4 L 111.9 46.4 L 111.9 52.8 L 111.5 52.8 C 111.5 52.8 111.42 51.2 111.4 51.2 C 111 52.4 109.9 52.9 108.9 52.9 C 107.4 52.9 106 51.6 106 49.6 Z M 111.4 49.6 C 111.4 47.9 110.3 46.8 109 46.8 C 107.6 46.8 106.5 47.9 106.5 49.6 C 106.5 51.3 107.7 52.4 109 52.4 C 110.3 52.4 111.4 51.3 111.4 49.6 Z M 114.1 44.1 C 114.1 43.9 114.2 43.7 114.5 43.7 C 114.7 43.7 114.9 43.9 114.9 44.1 C 114.9 44.3 114.7 44.5 114.5 44.5 C 114.2 44.5 114.1 44.3 114.1 44.1 Z M 114.2 46.4 L 114.7 46.4 L 114.7 52.8 L 114.2 52.8 L 114.2 46.4 Z M 121.9 48 C 121.95 47.96 122 46.4 122 46.4 L 122.4 46.4 C 122.4 46.4 122.41 52.6 122.4 52.6 C 122.4 54.6 121 55.5 119.6 55.5 C 118.8 55.5 117.9 55.2 117.2 54.7 C 117.2 54.7 117.2 54.1 117.2 54.1 C 117.9 54.7 118.8 55 119.6 55 C 120.8 55 121.9 54.3 121.9 52.7 C 121.9 52.7 121.9 51.1 121.9 51.1 C 121.5 52.2 120.5 52.7 119.5 52.7 C 118 52.7 116.6 51.5 116.6 49.5 C 116.6 47.6 118 46.3 119.5 46.3 C 120.5 46.3 121.5 46.9 121.9 48 Z M 117.1 49.5 C 117.1 51.2 118.2 52.2 119.5 52.2 C 120.8 52.2 121.9 51.1 121.9 49.5 C 121.9 47.9 120.8 46.8 119.5 46.8 C 118.2 46.8 117.1 47.9 117.1 49.5 Z M 125.6 44.5 C 125.6 44.3 125.7 44.2 126 44.2 C 126.2 44.2 126.4 44.3 126.4 44.5 C 126.4 44.8 126.2 44.9 126 44.9 C 125.7 44.9 125.6 44.8 125.6 44.5 Z M 127.7 44.5 C 127.7 44.3 127.8 44.2 128.1 44.2 C 128.3 44.2 128.5 44.3 128.5 44.5 C 128.5 44.8 128.3 44.9 128.1 44.9 C 127.8 44.9 127.7 44.8 127.7 44.5 Z M 124.6 50.5 C 124.61 50.48 124.6 46.4 124.6 46.4 L 125.1 46.4 C 125.1 46.4 125.11 50.51 125.1 50.5 C 125.1 51.7 125.8 52.4 127 52.4 C 128.2 52.4 128.9 51.7 128.9 50.5 C 128.91 50.5 128.9 46.4 128.9 46.4 L 129.4 46.4 C 129.4 46.4 129.41 50.47 129.4 50.5 C 129.4 51.9 128.5 52.9 127 52.9 C 125.5 52.9 124.6 51.9 124.6 50.5 Z M 136.7 49.8 C 136.7 49.8 131.7 49.8 131.7 49.8 C 131.7 51.4 132.8 52.4 134.2 52.4 C 135 52.4 135.8 52.2 136.5 51.5 C 136.5 51.5 136.5 52.1 136.5 52.1 C 135.8 52.6 135 52.9 134.2 52.9 C 132.4 52.9 131.2 51.6 131.2 49.6 C 131.2 47.6 132.6 46.3 134.1 46.3 C 135.5 46.3 136.7 47.4 136.7 49.5 C 136.7 49.6 136.7 49.7 136.7 49.8 Z M 136.2 49.3 C 136.2 47.6 135.2 46.8 134.1 46.8 C 132.9 46.8 131.8 47.8 131.7 49.3 C 131.7 49.3 136.2 49.3 136.2 49.3 Z M 142.1 46.9 C 142.1 46.9 142.1 47.4 142.1 47.4 C 141.6 47.1 141 46.8 140.3 46.8 C 139.3 46.8 138.7 47.3 138.7 48 C 138.7 48.7 139.4 49 140.4 49.3 C 141.4 49.7 142.4 50 142.4 51.1 C 142.4 52.2 141.5 52.9 140.2 52.9 C 139.5 52.9 138.7 52.7 138.1 52.2 C 138.1 52.2 138.1 51.5 138.1 51.5 C 138.6 52.1 139.4 52.4 140.2 52.4 C 141.3 52.4 141.9 51.9 141.9 51.1 C 141.9 50.4 141.2 50.1 140.2 49.7 C 139.1 49.4 138.2 49.1 138.2 48 C 138.2 47 139 46.3 140.3 46.3 C 141 46.3 141.6 46.5 142.1 46.9 Z M 143.9 52.4 C 143.9 52.1 144.1 51.9 144.4 51.9 C 144.7 51.9 144.9 52.1 144.9 52.4 C 144.9 52.6 144.7 52.8 144.4 52.8 C 144.1 52.8 143.9 52.6 143.9 52.4 Z M 150.9 43.9 L 155.2 43.9 L 155.2 44.4 L 151.4 44.4 L 151.4 48 L 155 48 L 155 48.5 L 151.4 48.5 L 151.4 52.3 L 155.2 52.3 L 155.2 52.8 L 150.9 52.8 L 150.9 43.9 Z M 157.3 43.3 L 157.8 43.3 L 157.8 52.8 L 157.3 52.8 L 157.3 43.3 Z M 160.2 43.3 L 160.7 43.3 L 160.7 52.8 L 160.2 52.8 L 160.2 43.3 Z M 168.1 49.8 C 168.1 49.8 163 49.8 163 49.8 C 163.1 51.4 164.2 52.4 165.6 52.4 C 166.4 52.4 167.2 52.2 167.9 51.5 C 167.9 51.5 167.9 52.1 167.9 52.1 C 167.2 52.6 166.4 52.9 165.6 52.9 C 163.8 52.9 162.5 51.6 162.5 49.6 C 162.5 47.6 164 46.3 165.5 46.3 C 166.9 46.3 168.1 47.4 168.1 49.5 C 168.1 49.6 168.1 49.7 168.1 49.8 Z M 167.6 49.3 C 167.6 47.6 166.6 46.8 165.5 46.8 C 164.3 46.8 163.2 47.8 163.1 49.3 C 163.1 49.3 167.6 49.3 167.6 49.3 Z M 178.7 49.8 C 178.7 49.8 173.7 49.8 173.7 49.8 C 173.7 51.4 174.8 52.4 176.2 52.4 C 177 52.4 177.8 52.2 178.5 51.5 C 178.5 51.5 178.5 52.1 178.5 52.1 C 177.8 52.6 177 52.9 176.2 52.9 C 174.4 52.9 173.1 51.6 173.1 49.6 C 173.1 47.6 174.6 46.3 176.1 46.3 C 177.5 46.3 178.7 47.4 178.7 49.5 C 178.7 49.6 178.7 49.7 178.7 49.8 Z M 178.2 49.3 C 178.2 47.6 177.2 46.8 176.1 46.8 C 174.9 46.8 173.8 47.8 173.7 49.3 C 173.7 49.3 178.2 49.3 178.2 49.3 Z M 184.1 46.9 C 184.1 46.9 184.1 47.4 184.1 47.4 C 183.6 47.1 183 46.8 182.3 46.8 C 181.3 46.8 180.7 47.3 180.7 48 C 180.7 48.7 181.4 49 182.4 49.3 C 183.4 49.7 184.4 50 184.4 51.1 C 184.4 52.2 183.5 52.9 182.2 52.9 C 181.5 52.9 180.7 52.7 180.1 52.2 C 180.1 52.2 180.1 51.5 180.1 51.5 C 180.6 52.1 181.4 52.4 182.2 52.4 C 183.2 52.4 183.9 51.9 183.9 51.1 C 183.9 50.4 183.2 50.1 182.1 49.7 C 181.1 49.4 180.2 49.1 180.2 48 C 180.2 47 181 46.3 182.3 46.3 C 182.9 46.3 183.6 46.5 184.1 46.9 Z M 186.8 46.4 L 188.7 46.4 L 188.7 46.9 L 186.8 46.9 C 186.8 46.9 186.83 50.8 186.8 50.8 C 186.8 52 187.5 52.4 188.4 52.4 C 188.5 52.4 188.7 52.4 188.9 52.4 C 188.9 52.4 188.9 52.8 188.9 52.8 C 188.8 52.8 188.6 52.9 188.3 52.9 C 187.2 52.9 186.3 52.2 186.3 50.8 C 186.33 50.82 186.3 46.9 186.3 46.9 L 185.3 46.9 L 185.3 46.4 L 186.3 46.4 L 186.3 44.9 L 186.8 44.9 L 186.8 46.4 Z M 194.4 46.4 L 196.3 46.4 L 196.3 46.9 L 194.4 46.9 C 194.4 46.9 194.41 50.8 194.4 50.8 C 194.4 52 195 52.4 195.9 52.4 C 196.1 52.4 196.3 52.4 196.5 52.4 C 196.5 52.4 196.5 52.8 196.5 52.8 C 196.4 52.8 196.2 52.9 195.9 52.9 C 194.7 52.9 193.9 52.2 193.9 50.8 C 193.9 50.82 193.9 46.9 193.9 46.9 L 192.9 46.9 L 192.9 46.4 L 193.9 46.4 L 193.9 44.9 L 194.4 44.9 L 194.4 46.4 Z M 197.8 46.4 L 198.2 46.4 L 198.3 47.6 C 198.3 47.6 198.31 47.62 198.3 47.6 C 198.7 46.7 199.5 46.4 200.2 46.4 C 200.3 46.4 200.5 46.4 200.6 46.4 C 200.6 46.4 200.6 46.9 200.6 46.9 C 200.5 46.9 200.3 46.9 200.2 46.9 C 199.3 46.9 198.4 47.5 198.3 48.8 C 198.34 48.77 198.3 52.8 198.3 52.8 L 197.8 52.8 L 197.8 46.4 Z M 201.1 49.6 C 201.1 47.6 202.5 46.3 204 46.3 C 205.1 46.3 206.1 46.9 206.6 48 C 206.55 48.02 206.6 46.4 206.6 46.4 L 207 46.4 L 207 52.8 L 206.6 52.8 C 206.6 52.8 206.55 51.2 206.6 51.2 C 206.1 52.4 205.1 52.9 204.1 52.9 C 202.5 52.9 201.1 51.6 201.1 49.6 Z M 206.5 49.6 C 206.5 47.9 205.4 46.8 204.1 46.8 C 202.8 46.8 201.6 47.9 201.6 49.6 C 201.6 51.3 202.8 52.4 204.1 52.4 C 205.4 52.4 206.5 51.3 206.5 49.6 Z M 214.1 48.6 C 214.09 48.56 214.1 52.8 214.1 52.8 L 213.6 52.8 C 213.6 52.8 213.58 48.77 213.6 48.8 C 213.6 47.5 212.9 46.8 211.8 46.8 C 210.7 46.8 209.8 47.5 209.8 48.7 C 209.8 48.71 209.8 52.8 209.8 52.8 L 209.3 52.8 L 209.3 46.4 L 209.7 46.4 L 209.8 47.6 C 209.8 47.6 209.77 47.56 209.8 47.6 C 210.1 46.8 210.9 46.3 211.8 46.3 C 213.2 46.3 214.1 47.2 214.1 48.6 Z M 219.8 46.9 C 219.8 46.9 219.8 47.4 219.8 47.4 C 219.3 47.1 218.7 46.8 218 46.8 C 217.1 46.8 216.4 47.3 216.4 48 C 216.4 48.7 217.1 49 218.1 49.3 C 219.1 49.7 220.1 50 220.1 51.1 C 220.1 52.2 219.3 52.9 218 52.9 C 217.2 52.9 216.5 52.7 215.8 52.2 C 215.8 52.2 215.8 51.5 215.8 51.5 C 216.4 52.1 217.1 52.4 218 52.4 C 219 52.4 219.6 51.9 219.6 51.1 C 219.6 50.4 218.9 50.1 217.9 49.7 C 216.8 49.4 215.9 49.1 215.9 48 C 215.9 47 216.8 46.3 218 46.3 C 218.7 46.3 219.3 46.5 219.8 46.9 Z M 221.9 46.4 L 222.3 46.4 C 222.3 46.4 222.37 48.04 222.4 48 C 222.8 46.9 223.9 46.3 224.9 46.3 C 226.4 46.3 227.8 47.6 227.8 49.6 C 227.8 51.6 226.4 52.9 224.9 52.9 C 223.9 52.9 222.8 52.3 222.4 51.3 C 222.4 51.25 222.4 55.4 222.4 55.4 L 221.9 55.4 L 221.9 46.4 Z M 227.3 49.6 C 227.3 47.9 226.2 46.8 224.8 46.8 C 223.5 46.8 222.4 47.9 222.4 49.6 C 222.4 51.3 223.5 52.4 224.8 52.4 C 226.1 52.4 227.3 51.3 227.3 49.6 Z M 229.2 49.6 C 229.2 47.7 230.5 46.3 232.2 46.3 C 233.9 46.3 235.2 47.7 235.2 49.6 C 235.2 51.6 233.9 52.9 232.2 52.9 C 230.5 52.9 229.2 51.6 229.2 49.6 Z M 234.7 49.6 C 234.7 47.8 233.5 46.8 232.2 46.8 C 230.9 46.8 229.7 47.8 229.7 49.6 C 229.7 51.4 230.9 52.4 232.2 52.4 C 233.5 52.4 234.7 51.4 234.7 49.6 Z M 237.1 46.4 L 237.5 46.4 L 237.5 47.6 C 237.5 47.6 237.53 47.62 237.5 47.6 C 237.9 46.7 238.8 46.4 239.4 46.4 C 239.6 46.4 239.7 46.4 239.8 46.4 C 239.8 46.4 239.8 46.9 239.8 46.9 C 239.7 46.9 239.6 46.9 239.4 46.9 C 238.5 46.9 237.6 47.5 237.6 48.8 C 237.57 48.77 237.6 52.8 237.6 52.8 L 237.1 52.8 L 237.1 46.4 Z M 241.8 46.4 L 243.7 46.4 L 243.7 46.9 L 241.8 46.9 C 241.8 46.9 241.82 50.8 241.8 50.8 C 241.8 52 242.5 52.4 243.4 52.4 C 243.5 52.4 243.7 52.4 243.9 52.4 C 243.9 52.4 243.9 52.8 243.9 52.8 C 243.8 52.8 243.6 52.9 243.3 52.9 C 242.1 52.9 241.3 52.2 241.3 50.8 C 241.32 50.82 241.3 46.9 241.3 46.9 L 240.3 46.9 L 240.3 46.4 L 241.3 46.4 L 241.3 44.9 L 241.8 44.9 L 241.8 46.4 Z M 244.7 49.6 C 244.7 47.6 246.1 46.3 247.6 46.3 C 248.6 46.3 249.7 46.9 250.1 48 C 250.12 48.02 250.2 46.4 250.2 46.4 L 250.6 46.4 L 250.6 52.8 L 250.2 52.8 C 250.2 52.8 250.12 51.2 250.1 51.2 C 249.7 52.4 248.6 52.9 247.6 52.9 C 246.1 52.9 244.7 51.6 244.7 49.6 Z M 250.1 49.6 C 250.1 47.9 249 46.8 247.7 46.8 C 246.3 46.8 245.2 47.9 245.2 49.6 C 245.2 51.3 246.4 52.4 247.7 52.4 C 249 52.4 250.1 51.3 250.1 49.6 Z M 253.4 48 C 253.8 46.9 254.8 46.3 255.8 46.3 C 257.4 46.3 258.7 47.6 258.7 49.6 C 258.7 51.6 257.3 52.9 255.8 52.9 C 254.8 52.9 253.8 52.4 253.3 51.2 C 253.34 51.19 253.3 52.8 253.3 52.8 L 252.9 52.8 L 252.9 43.3 L 253.4 43.3 C 253.4 43.3 253.37 47.99 253.4 48 Z M 253.4 49.6 C 253.4 51.3 254.5 52.4 255.8 52.4 C 257.1 52.4 258.2 51.3 258.2 49.6 C 258.2 47.9 257.1 46.8 255.8 46.8 C 254.5 46.8 253.4 47.9 253.4 49.6 Z M 260.6 43.3 L 261.1 43.3 L 261.1 52.8 L 260.6 52.8 L 260.6 43.3 Z M 268.6 49.8 C 268.6 49.8 263.5 49.8 263.5 49.8 C 263.6 51.4 264.6 52.4 266.1 52.4 C 266.8 52.4 267.6 52.2 268.3 51.5 C 268.3 51.5 268.3 52.1 268.3 52.1 C 267.7 52.6 266.9 52.9 266 52.9 C 264.2 52.9 263 51.6 263 49.6 C 263 47.6 264.4 46.3 266 46.3 C 267.4 46.3 268.6 47.4 268.6 49.5 C 268.6 49.6 268.6 49.7 268.6 49.8 Z M 268.1 49.3 C 268.1 47.6 267 46.8 266 46.8 C 264.7 46.8 263.6 47.8 263.5 49.3 C 263.5 49.3 268.1 49.3 268.1 49.3 Z M 273.6 49.6 C 273.6 47.6 275 46.3 276.5 46.3 C 277.5 46.3 278.5 46.9 279 48 C 278.98 47.98 279 43.3 279 43.3 L 279.5 43.3 L 279.5 52.8 L 279.1 52.8 L 279 51.2 C 279 51.2 279 51.19 279 51.2 C 278.5 52.4 277.5 52.9 276.5 52.9 C 275 52.9 273.6 51.6 273.6 49.6 Z M 279 49.6 C 279 47.9 277.9 46.8 276.6 46.8 C 275.2 46.8 274.1 47.9 274.1 49.6 C 274.1 51.3 275.2 52.4 276.6 52.4 C 277.9 52.4 279 51.3 279 49.6 Z M 281.3 49.6 C 281.3 47.6 282.7 46.3 284.2 46.3 C 285.2 46.3 286.2 46.9 286.7 48 C 286.72 48.02 286.8 46.4 286.8 46.4 L 287.2 46.4 L 287.2 52.8 L 286.8 52.8 C 286.8 52.8 286.72 51.2 286.7 51.2 C 286.2 52.4 285.2 52.9 284.2 52.9 C 282.7 52.9 281.3 51.6 281.3 49.6 Z M 286.7 49.6 C 286.7 47.9 285.6 46.8 284.3 46.8 C 282.9 46.8 281.8 47.9 281.8 49.6 C 281.8 51.3 282.9 52.4 284.3 52.4 C 285.6 52.4 286.7 51.3 286.7 49.6 Z M 294.3 48.6 C 294.25 48.56 294.3 52.8 294.3 52.8 L 293.7 52.8 C 293.7 52.8 293.75 48.77 293.7 48.8 C 293.7 47.5 293.1 46.8 291.9 46.8 C 290.9 46.8 290 47.5 290 48.7 C 289.97 48.71 290 52.8 290 52.8 L 289.5 52.8 L 289.5 46.4 L 289.9 46.4 L 289.9 47.6 C 289.9 47.6 289.93 47.56 289.9 47.6 C 290.3 46.8 291 46.3 292 46.3 C 293.4 46.3 294.3 47.2 294.3 48.6 Z M 300 46.9 C 300 46.9 300 47.4 300 47.4 C 299.5 47.1 298.9 46.8 298.2 46.8 C 297.2 46.8 296.6 47.3 296.6 48 C 296.6 48.7 297.3 49 298.3 49.3 C 299.3 49.7 300.3 50 300.3 51.1 C 300.3 52.2 299.4 52.9 298.2 52.9 C 297.4 52.9 296.6 52.7 296 52.2 C 296 52.2 296 51.5 296 51.5 C 296.6 52.1 297.3 52.4 298.2 52.4 C 299.2 52.4 299.8 51.9 299.8 51.1 C 299.8 50.4 299.1 50.1 298.1 49.7 C 297 49.4 296.1 49.1 296.1 48 C 296.1 47 297 46.3 298.2 46.3 C 298.9 46.3 299.5 46.5 300 46.9 Z M 305.8 43.3 L 306.3 43.3 L 306.3 52.8 L 305.8 52.8 L 305.8 43.3 Z M 308.8 44.3 C 308.78 44.33 308.8 43.9 308.8 43.9 L 309.3 43.9 C 309.3 43.9 309.28 44.32 309.3 44.3 C 309.3 45.3 308.9 46.3 308.6 46.9 C 308.6 46.9 308.2 46.9 308.2 46.9 C 308.5 46.3 308.8 45.3 308.8 44.3 Z M 311.7 47.4 C 311.7 47.4 311.71 47.44 311.7 47.4 C 312.1 46.7 312.9 46.3 313.7 46.3 C 315.1 46.3 316 47.1 316 48.6 C 315.98 48.58 316 52.8 316 52.8 L 315.5 52.8 C 315.5 52.8 315.48 48.76 315.5 48.8 C 315.5 47.5 314.8 46.8 313.7 46.8 C 312.6 46.8 311.7 47.4 311.7 48.6 C 311.69 48.65 311.7 52.8 311.7 52.8 L 311.2 52.8 L 311.2 43.3 L 311.7 43.3 L 311.7 47.4 Z M 317.7 49.6 C 317.7 47.6 319.1 46.3 320.6 46.3 C 321.7 46.3 322.7 46.9 323.1 48 C 323.14 48.02 323.2 46.4 323.2 46.4 L 323.6 46.4 L 323.6 52.8 L 323.2 52.8 C 323.2 52.8 323.14 51.2 323.1 51.2 C 322.7 52.4 321.7 52.9 320.6 52.9 C 319.1 52.9 317.7 51.6 317.7 49.6 Z M 323.1 49.6 C 323.1 47.9 322 46.8 320.7 46.8 C 319.4 46.8 318.2 47.9 318.2 49.6 C 318.2 51.3 319.4 52.4 320.7 52.4 C 322 52.4 323.1 51.3 323.1 49.6 Z M 326.4 48 C 326.8 46.9 327.9 46.3 328.9 46.3 C 330.4 46.3 331.8 47.6 331.8 49.6 C 331.8 51.6 330.4 52.9 328.9 52.9 C 327.8 52.9 326.8 52.4 326.4 51.2 C 326.36 51.19 326.3 52.8 326.3 52.8 L 325.9 52.8 L 325.9 43.3 L 326.4 43.3 C 326.4 43.3 326.39 47.99 326.4 48 Z M 326.4 49.6 C 326.4 51.3 327.5 52.4 328.8 52.4 C 330.1 52.4 331.3 51.3 331.3 49.6 C 331.3 47.9 330.2 46.8 328.8 46.8 C 327.5 46.8 326.4 47.9 326.4 49.6 Z M 333.5 44.1 C 333.5 43.9 333.7 43.7 333.9 43.7 C 334.1 43.7 334.3 43.9 334.3 44.1 C 334.3 44.3 334.1 44.5 333.9 44.5 C 333.7 44.5 333.5 44.3 333.5 44.1 Z M 333.6 46.4 L 334.1 46.4 L 334.1 52.8 L 333.6 52.8 L 333.6 46.4 Z M 336.3 48.9 L 339.1 48.9 L 339.1 49.4 L 336.3 49.4 L 336.3 48.9 Z " stroke="none" fill="#000"/>
  </g>
  <g id="Polygon26502">
    <path d="M 0.7 35.2 C 0.7 33.2 2.1 31.9 3.6 31.9 C 4.6 31.9 5.6 32.5 6.1 33.6 C 6.07 33.58 6.1 28.9 6.1 28.9 L 6.6 28.9 L 6.6 38.4 L 6.2 38.4 L 6.1 36.8 C 6.1 36.8 6.1 36.79 6.1 36.8 C 5.6 38 4.6 38.5 3.6 38.5 C 2.1 38.5 0.7 37.2 0.7 35.2 Z M 6.1 35.2 C 6.1 33.5 5 32.4 3.6 32.4 C 2.3 32.4 1.2 33.5 1.2 35.2 C 1.2 36.9 2.3 38 3.6 38 C 5 38 6.1 36.9 6.1 35.2 Z M 9 29.9 C 9.05 29.93 9 29.5 9 29.5 L 9.6 29.5 C 9.6 29.5 9.55 29.92 9.6 29.9 C 9.6 30.9 9.2 31.9 8.9 32.5 C 8.9 32.5 8.5 32.5 8.5 32.5 C 8.7 31.9 9 30.9 9 29.9 Z M 16.2 35.4 C 16.2 35.4 11.1 35.4 11.1 35.4 C 11.2 37 12.3 38 13.7 38 C 14.5 38 15.3 37.8 16 37.1 C 16 37.1 16 37.7 16 37.7 C 15.3 38.2 14.5 38.5 13.7 38.5 C 11.9 38.5 10.6 37.2 10.6 35.2 C 10.6 33.2 12.1 31.9 13.6 31.9 C 15 31.9 16.2 33 16.2 35.1 C 16.2 35.2 16.2 35.3 16.2 35.4 Z M 15.7 34.9 C 15.7 33.2 14.7 32.4 13.6 32.4 C 12.4 32.4 11.3 33.4 11.2 34.9 C 11.2 34.9 15.7 34.9 15.7 34.9 Z M 22.8 34.2 C 22.81 34.16 22.8 38.4 22.8 38.4 L 22.3 38.4 C 22.3 38.4 22.31 34.37 22.3 34.4 C 22.3 33.1 21.6 32.4 20.5 32.4 C 19.4 32.4 18.5 33.1 18.5 34.3 C 18.53 34.31 18.5 38.4 18.5 38.4 L 18 38.4 L 18 32 L 18.4 32 L 18.5 33.2 C 18.5 33.2 18.49 33.16 18.5 33.2 C 18.8 32.4 19.6 31.9 20.6 31.9 C 21.9 31.9 22.8 32.8 22.8 34.2 Z M 25.6 32 L 27.5 32 L 27.5 32.5 L 25.6 32.5 C 25.6 32.5 25.63 36.4 25.6 36.4 C 25.6 37.6 26.3 38 27.2 38 C 27.3 38 27.5 38 27.7 38 C 27.7 38 27.7 38.4 27.7 38.4 C 27.6 38.4 27.4 38.5 27.1 38.5 C 26 38.5 25.1 37.8 25.1 36.4 C 25.13 36.42 25.1 32.5 25.1 32.5 L 24.1 32.5 L 24.1 32 L 25.1 32 L 25.1 30.5 L 25.6 30.5 L 25.6 32 Z M 29.1 32 L 29.5 32 L 29.5 33.2 C 29.5 33.2 29.53 33.22 29.5 33.2 C 29.9 32.3 30.8 32 31.4 32 C 31.5 32 31.7 32 31.8 32 C 31.8 32 31.8 32.5 31.8 32.5 C 31.7 32.5 31.5 32.5 31.4 32.5 C 30.5 32.5 29.6 33.1 29.6 34.4 C 29.57 34.37 29.6 38.4 29.6 38.4 L 29.1 38.4 L 29.1 32 Z M 37.9 35.4 C 37.9 35.4 32.9 35.4 32.9 35.4 C 33 37 34 38 35.4 38 C 36.2 38 37 37.8 37.7 37.1 C 37.7 37.1 37.7 37.7 37.7 37.7 C 37 38.2 36.2 38.5 35.4 38.5 C 33.6 38.5 32.4 37.2 32.4 35.2 C 32.4 33.2 33.8 31.9 35.3 31.9 C 36.7 31.9 38 33 38 35.1 C 38 35.2 37.9 35.3 37.9 35.4 Z M 37.5 34.9 C 37.4 33.2 36.4 32.4 35.3 32.4 C 34.1 32.4 33 33.4 32.9 34.9 C 32.9 34.9 37.5 34.9 37.5 34.9 Z M 48.6 35.4 C 48.6 35.4 43.5 35.4 43.5 35.4 C 43.6 37 44.7 38 46.1 38 C 46.9 38 47.7 37.8 48.4 37.1 C 48.4 37.1 48.4 37.7 48.4 37.7 C 47.7 38.2 46.9 38.5 46.1 38.5 C 44.3 38.5 43 37.2 43 35.2 C 43 33.2 44.5 31.9 46 31.9 C 47.4 31.9 48.6 33 48.6 35.1 C 48.6 35.2 48.6 35.3 48.6 35.4 Z M 48.1 34.9 C 48.1 33.2 47.1 32.4 46 32.4 C 44.8 32.4 43.7 33.4 43.6 34.9 C 43.6 34.9 48.1 34.9 48.1 34.9 Z M 50.5 28.9 L 51 28.9 L 51 38.4 L 50.5 38.4 L 50.5 28.9 Z M 53.3 28.9 L 53.8 28.9 L 53.8 38.4 L 53.3 38.4 L 53.3 28.9 Z M 61.2 35.4 C 61.2 35.4 56.2 35.4 56.2 35.4 C 56.3 37 57.3 38 58.8 38 C 59.5 38 60.3 37.8 61 37.1 C 61 37.1 61 37.7 61 37.7 C 60.4 38.2 59.6 38.5 58.7 38.5 C 56.9 38.5 55.7 37.2 55.7 35.2 C 55.7 33.2 57.1 31.9 58.6 31.9 C 60.1 31.9 61.3 33 61.3 35.1 C 61.3 35.2 61.3 35.3 61.2 35.4 Z M 60.8 34.9 C 60.7 33.2 59.7 32.4 58.6 32.4 C 57.4 32.4 56.3 33.4 56.2 34.9 C 56.2 34.9 60.8 34.9 60.8 34.9 Z M 63 37.4 C 62.99 37.44 63 37 63 37 L 63.5 37 C 63.5 37 63.49 37.43 63.5 37.4 C 63.5 38.4 63.1 39.4 62.9 40 C 62.9 40 62.5 40 62.5 40 C 62.7 39.4 63 38.4 63 37.4 Z M 69.4 28.9 L 69.9 28.9 L 69.9 38.4 L 69.4 38.4 L 69.4 28.9 Z M 72.4 29.9 C 72.43 29.93 72.4 29.5 72.4 29.5 L 72.9 29.5 C 72.9 29.5 72.93 29.92 72.9 29.9 C 72.9 30.9 72.5 31.9 72.3 32.5 C 72.3 32.5 71.9 32.5 71.9 32.5 C 72.1 31.9 72.4 30.9 72.4 29.9 Z M 79.6 35.4 C 79.6 35.4 74.5 35.4 74.5 35.4 C 74.6 37 75.6 38 77.1 38 C 77.8 38 78.7 37.8 79.3 37.1 C 79.3 37.1 79.3 37.7 79.3 37.7 C 78.7 38.2 77.9 38.5 77.1 38.5 C 75.3 38.5 74 37.2 74 35.2 C 74 33.2 75.4 31.9 77 31.9 C 78.4 31.9 79.6 33 79.6 35.1 C 79.6 35.2 79.6 35.3 79.6 35.4 Z M 79.1 34.9 C 79.1 33.2 78.1 32.4 77 32.4 C 75.8 32.4 74.6 33.4 74.5 34.9 C 74.5 34.9 79.1 34.9 79.1 34.9 Z M 86.2 34.2 C 86.19 34.16 86.2 38.4 86.2 38.4 L 85.7 38.4 C 85.7 38.4 85.69 34.37 85.7 34.4 C 85.7 33.1 85 32.4 83.9 32.4 C 82.8 32.4 81.9 33.1 81.9 34.3 C 81.9 34.31 81.9 38.4 81.9 38.4 L 81.4 38.4 L 81.4 32 L 81.8 32 L 81.9 33.2 C 81.9 33.2 81.87 33.16 81.9 33.2 C 82.2 32.4 83 31.9 83.9 31.9 C 85.3 31.9 86.2 32.8 86.2 34.2 Z M 91 38 C 91.5 38 92.2 37.9 92.7 37.5 C 92.7 37.5 92.7 38.1 92.7 38.1 C 92.2 38.4 91.6 38.5 91 38.5 C 89.3 38.5 87.9 37.1 87.9 35.2 C 87.9 33.3 89.3 31.9 91 31.9 C 91.6 31.9 92.2 32 92.7 32.4 C 92.7 32.4 92.7 32.9 92.7 32.9 C 92.2 32.5 91.6 32.4 91 32.4 C 89.7 32.4 88.4 33.5 88.4 35.2 C 88.4 36.9 89.7 38 91 38 Z M 99.5 35.4 C 99.5 35.4 94.4 35.4 94.4 35.4 C 94.5 37 95.5 38 97 38 C 97.7 38 98.5 37.8 99.2 37.1 C 99.2 37.1 99.2 37.7 99.2 37.7 C 98.6 38.2 97.8 38.5 96.9 38.5 C 95.2 38.5 93.9 37.2 93.9 35.2 C 93.9 33.2 95.3 31.9 96.9 31.9 C 98.3 31.9 99.5 33 99.5 35.1 C 99.5 35.2 99.5 35.3 99.5 35.4 Z M 99 34.9 C 99 33.2 97.9 32.4 96.9 32.4 C 95.6 32.4 94.5 33.4 94.4 34.9 C 94.4 34.9 99 34.9 99 34.9 Z M 101.2 29.7 C 101.2 29.5 101.3 29.3 101.6 29.3 C 101.8 29.3 102 29.5 102 29.7 C 102 29.9 101.8 30.1 101.6 30.1 C 101.3 30.1 101.2 29.9 101.2 29.7 Z M 101.3 32 L 101.8 32 L 101.8 38.4 L 101.3 38.4 L 101.3 32 Z M 108.9 34.2 C 108.93 34.16 108.9 38.4 108.9 38.4 L 108.4 38.4 C 108.4 38.4 108.42 34.37 108.4 34.4 C 108.4 33.1 107.8 32.4 106.6 32.4 C 105.5 32.4 104.6 33.1 104.6 34.3 C 104.64 34.31 104.6 38.4 104.6 38.4 L 104.1 38.4 L 104.1 32 L 104.5 32 L 104.6 33.2 C 104.6 33.2 104.61 33.16 104.6 33.2 C 105 32.4 105.7 31.9 106.7 31.9 C 108 31.9 108.9 32.8 108.9 34.2 Z M 111.7 32 L 113.6 32 L 113.6 32.5 L 111.7 32.5 C 111.7 32.5 111.75 36.4 111.7 36.4 C 111.7 37.6 112.4 38 113.3 38 C 113.5 38 113.6 38 113.8 38 C 113.8 38 113.8 38.4 113.8 38.4 C 113.8 38.4 113.5 38.5 113.2 38.5 C 112.1 38.5 111.2 37.8 111.2 36.4 C 111.24 36.42 111.2 32.5 111.2 32.5 L 110.3 32.5 L 110.3 32 L 111.3 32 L 111.3 30.5 L 111.7 30.5 L 111.7 32 Z M 120.2 35.4 C 120.2 35.4 115.2 35.4 115.2 35.4 C 115.2 37 116.3 38 117.7 38 C 118.5 38 119.3 37.8 120 37.1 C 120 37.1 120 37.7 120 37.7 C 119.3 38.2 118.5 38.5 117.7 38.5 C 115.9 38.5 114.7 37.2 114.7 35.2 C 114.7 33.2 116.1 31.9 117.6 31.9 C 119 31.9 120.2 33 120.2 35.1 C 120.2 35.2 120.2 35.3 120.2 35.4 Z M 119.7 34.9 C 119.7 33.2 118.7 32.4 117.6 32.4 C 116.4 32.4 115.3 33.4 115.2 34.9 C 115.2 34.9 119.7 34.9 119.7 34.9 Z M 133.5 34.1 C 133.49 34.08 133.5 38.4 133.5 38.4 L 133 38.4 C 133 38.4 132.99 34.13 133 34.1 C 133 33.1 132.5 32.4 131.5 32.4 C 130.5 32.4 129.9 33.2 129.9 34.1 C 129.88 34.14 129.9 38.4 129.9 38.4 L 129.4 38.4 C 129.4 38.4 129.38 34.13 129.4 34.1 C 129.4 33.1 128.9 32.4 127.9 32.4 C 126.9 32.4 126.3 33.2 126.3 34.2 C 126.27 34.16 126.3 38.4 126.3 38.4 L 125.8 38.4 L 125.8 32 L 126.2 32 L 126.2 33.1 C 126.2 33.1 126.23 33.08 126.2 33.1 C 126.5 32.4 127.1 31.9 128 31.9 C 128.9 31.9 129.5 32.4 129.7 33.2 C 130 32.4 130.7 31.9 131.6 31.9 C 132.9 31.9 133.5 32.8 133.5 34.1 Z M 138.4 30.9 L 136.9 29 L 137.4 29 L 138.9 30.9 L 138.4 30.9 Z M 140.8 35.4 C 140.8 35.4 135.8 35.4 135.8 35.4 C 135.8 37 136.9 38 138.3 38 C 139.1 38 139.9 37.8 140.6 37.1 C 140.6 37.1 140.6 37.7 140.6 37.7 C 139.9 38.2 139.1 38.5 138.3 38.5 C 136.5 38.5 135.3 37.2 135.3 35.2 C 135.3 33.2 136.7 31.9 138.2 31.9 C 139.6 31.9 140.8 33 140.8 35.1 C 140.8 35.2 140.8 35.3 140.8 35.4 Z M 140.3 34.9 C 140.3 33.2 139.3 32.4 138.2 32.4 C 137 32.4 135.9 33.4 135.8 34.9 C 135.8 34.9 140.3 34.9 140.3 34.9 Z M 142.6 32 L 143 32 L 143.1 33.2 C 143.1 33.2 143.11 33.22 143.1 33.2 C 143.5 32.3 144.3 32 145 32 C 145.1 32 145.3 32 145.4 32 C 145.4 32 145.4 32.5 145.4 32.5 C 145.3 32.5 145.1 32.5 145 32.5 C 144.1 32.5 143.2 33.1 143.1 34.4 C 143.14 34.37 143.1 38.4 143.1 38.4 L 142.6 38.4 L 142.6 32 Z M 151.5 35.4 C 151.5 35.4 146.5 35.4 146.5 35.4 C 146.5 37 147.6 38 149 38 C 149.8 38 150.6 37.8 151.3 37.1 C 151.3 37.1 151.3 37.7 151.3 37.7 C 150.6 38.2 149.8 38.5 149 38.5 C 147.2 38.5 146 37.2 146 35.2 C 146 33.2 147.4 31.9 148.9 31.9 C 150.3 31.9 151.5 33 151.5 35.1 C 151.5 35.2 151.5 35.3 151.5 35.4 Z M 151 34.9 C 151 33.2 150 32.4 148.9 32.4 C 147.7 32.4 146.6 33.4 146.5 34.9 C 146.5 34.9 151 34.9 151 34.9 Z M 153.2 37.4 C 153.25 37.44 153.2 37 153.2 37 L 153.7 37 C 153.7 37 153.75 37.43 153.7 37.4 C 153.7 38.4 153.4 39.4 153.1 40 C 153.1 40 152.7 40 152.7 40 C 152.9 39.4 153.2 38.4 153.2 37.4 Z M 162.3 38 C 162.8 38 163.4 37.9 164 37.5 C 164 37.5 164 38.1 164 38.1 C 163.5 38.4 162.9 38.5 162.3 38.5 C 160.5 38.5 159.2 37.1 159.2 35.2 C 159.2 33.3 160.5 31.9 162.2 31.9 C 162.8 31.9 163.4 32 164 32.4 C 164 32.4 164 32.9 164 32.9 C 163.4 32.5 162.8 32.4 162.2 32.4 C 160.9 32.4 159.7 33.5 159.7 35.2 C 159.7 36.9 160.9 38 162.3 38 Z M 165.1 35.2 C 165.1 33.3 166.5 31.9 168.2 31.9 C 169.9 31.9 171.2 33.3 171.2 35.2 C 171.2 37.2 169.9 38.5 168.2 38.5 C 166.5 38.5 165.1 37.2 165.1 35.2 Z M 170.7 35.2 C 170.7 33.4 169.5 32.4 168.2 32.4 C 166.9 32.4 165.6 33.4 165.6 35.2 C 165.6 37 166.9 38 168.2 38 C 169.5 38 170.7 37 170.7 35.2 Z M 180.8 34.1 C 180.78 34.08 180.8 38.4 180.8 38.4 L 180.3 38.4 C 180.3 38.4 180.27 34.13 180.3 34.1 C 180.3 33.1 179.8 32.4 178.8 32.4 C 177.8 32.4 177.2 33.2 177.2 34.1 C 177.16 34.14 177.2 38.4 177.2 38.4 L 176.7 38.4 C 176.7 38.4 176.66 34.13 176.7 34.1 C 176.7 33.1 176.2 32.4 175.2 32.4 C 174.1 32.4 173.6 33.2 173.6 34.2 C 173.55 34.16 173.6 38.4 173.6 38.4 L 173.1 38.4 L 173.1 32 L 173.4 32 L 173.5 33.1 C 173.5 33.1 173.52 33.08 173.5 33.1 C 173.8 32.4 174.4 31.9 175.2 31.9 C 176.2 31.9 176.8 32.4 177 33.2 C 177.3 32.4 177.9 31.9 178.8 31.9 C 180.1 31.9 180.8 32.8 180.8 34.1 Z M 183 32 L 183.4 32 C 183.4 32 183.45 33.64 183.5 33.6 C 183.9 32.5 185 31.9 186 31.9 C 187.5 31.9 188.9 33.2 188.9 35.2 C 188.9 37.2 187.5 38.5 186 38.5 C 184.9 38.5 183.9 37.9 183.5 36.9 C 183.49 36.85 183.5 41 183.5 41 L 183 41 L 183 32 Z M 188.4 35.2 C 188.4 33.5 187.2 32.4 185.9 32.4 C 184.6 32.4 183.5 33.5 183.5 35.2 C 183.5 36.9 184.6 38 185.9 38 C 187.2 38 188.4 36.9 188.4 35.2 Z M 190.7 32 L 191.1 32 L 191.2 33.2 C 191.2 33.2 191.17 33.22 191.2 33.2 C 191.6 32.3 192.4 32 193.1 32 C 193.2 32 193.3 32 193.4 32 C 193.4 32 193.4 32.5 193.4 32.5 C 193.3 32.5 193.2 32.5 193.1 32.5 C 192.2 32.5 191.2 33.1 191.2 34.4 C 191.2 34.37 191.2 38.4 191.2 38.4 L 190.7 38.4 L 190.7 32 Z M 199.6 35.4 C 199.6 35.4 194.5 35.4 194.5 35.4 C 194.6 37 195.6 38 197.1 38 C 197.8 38 198.7 37.8 199.3 37.1 C 199.3 37.1 199.3 37.7 199.3 37.7 C 198.7 38.2 197.9 38.5 197 38.5 C 195.3 38.5 194 37.2 194 35.2 C 194 33.2 195.4 31.9 197 31.9 C 198.4 31.9 199.6 33 199.6 35.1 C 199.6 35.2 199.6 35.3 199.6 35.4 Z M 199.1 34.9 C 199.1 33.2 198 32.4 197 32.4 C 195.8 32.4 194.6 33.4 194.5 34.9 C 194.5 34.9 199.1 34.9 199.1 34.9 Z M 206.2 34.2 C 206.18 34.16 206.2 38.4 206.2 38.4 L 205.7 38.4 C 205.7 38.4 205.68 34.37 205.7 34.4 C 205.7 33.1 205 32.4 203.9 32.4 C 202.8 32.4 201.9 33.1 201.9 34.3 C 201.9 34.31 201.9 38.4 201.9 38.4 L 201.4 38.4 L 201.4 32 L 201.8 32 L 201.8 33.2 C 201.8 33.2 201.86 33.16 201.9 33.2 C 202.2 32.4 203 31.9 203.9 31.9 C 205.3 31.9 206.2 32.8 206.2 34.2 Z M 207.9 35.2 C 207.9 33.2 209.3 31.9 210.8 31.9 C 211.8 31.9 212.9 32.5 213.3 33.6 C 213.31 33.58 213.3 28.9 213.3 28.9 L 213.8 28.9 L 213.8 38.4 L 213.4 38.4 L 213.3 36.8 C 213.3 36.8 213.33 36.79 213.3 36.8 C 212.9 38 211.9 38.5 210.8 38.5 C 209.3 38.5 207.9 37.2 207.9 35.2 Z M 213.3 35.2 C 213.3 33.5 212.2 32.4 210.9 32.4 C 209.6 32.4 208.4 33.5 208.4 35.2 C 208.4 36.9 209.6 38 210.9 38 C 212.2 38 213.3 36.9 213.3 35.2 Z M 219.9 28.9 L 220.4 28.9 L 220.4 38.4 L 219.9 38.4 L 219.9 28.9 Z M 227.8 35.4 C 227.8 35.4 222.7 35.4 222.7 35.4 C 222.8 37 223.9 38 225.3 38 C 226.1 38 226.9 37.8 227.6 37.1 C 227.6 37.1 227.6 37.7 227.6 37.7 C 226.9 38.2 226.1 38.5 225.3 38.5 C 223.5 38.5 222.2 37.2 222.2 35.2 C 222.2 33.2 223.7 31.9 225.2 31.9 C 226.6 31.9 227.8 33 227.8 35.1 C 227.8 35.2 227.8 35.3 227.8 35.4 Z M 227.3 34.9 C 227.3 33.2 226.3 32.4 225.2 32.4 C 224 32.4 222.9 33.4 222.8 34.9 C 222.8 34.9 227.3 34.9 227.3 34.9 Z M 233.4 32 L 233.8 32 L 233.8 33.2 C 233.8 33.2 233.82 33.22 233.8 33.2 C 234.2 32.3 235.1 32 235.7 32 C 235.8 32 236 32 236.1 32 C 236.1 32 236.1 32.5 236.1 32.5 C 236 32.5 235.8 32.5 235.7 32.5 C 234.8 32.5 233.9 33.1 233.9 34.4 C 233.86 34.37 233.9 38.4 233.9 38.4 L 233.4 38.4 L 233.4 32 Z M 239.4 30.9 L 238.9 30.9 L 240.4 29 L 240.9 29 L 239.4 30.9 Z M 242.2 35.4 C 242.2 35.4 237.2 35.4 237.2 35.4 C 237.3 37 238.3 38 239.7 38 C 240.5 38 241.3 37.8 242 37.1 C 242 37.1 242 37.7 242 37.7 C 241.3 38.2 240.5 38.5 239.7 38.5 C 237.9 38.5 236.7 37.2 236.7 35.2 C 236.7 33.2 238.1 31.9 239.6 31.9 C 241 31.9 242.2 33 242.2 35.1 C 242.2 35.2 242.2 35.3 242.2 35.4 Z M 241.7 34.9 C 241.7 33.2 240.7 32.4 239.6 32.4 C 238.4 32.4 237.3 33.4 237.2 34.9 C 237.2 34.9 241.7 34.9 241.7 34.9 Z M 249 33.6 C 248.97 33.56 249 32 249 32 L 249.4 32 C 249.4 32 249.43 38.2 249.4 38.2 C 249.4 40.2 248.1 41.1 246.6 41.1 C 245.8 41.1 244.9 40.8 244.2 40.3 C 244.2 40.3 244.2 39.7 244.2 39.7 C 244.9 40.3 245.8 40.6 246.6 40.6 C 247.8 40.6 248.9 39.9 248.9 38.3 C 248.9 38.3 248.9 36.7 248.9 36.7 C 248.5 37.8 247.5 38.3 246.5 38.3 C 245 38.3 243.6 37.1 243.6 35.1 C 243.6 33.2 245 31.9 246.5 31.9 C 247.5 31.9 248.5 32.5 249 33.6 Z M 244.1 35.1 C 244.1 36.8 245.2 37.8 246.5 37.8 C 247.8 37.8 249 36.7 249 35.1 C 249 33.5 247.8 32.4 246.5 32.4 C 245.2 32.4 244.1 33.5 244.1 35.1 Z M 251.8 28.9 L 252.3 28.9 L 252.3 38.4 L 251.8 38.4 L 251.8 28.9 Z M 254.1 35.2 C 254.1 33.2 255.5 31.9 257 31.9 C 258 31.9 259.1 32.5 259.5 33.6 C 259.53 33.62 259.6 32 259.6 32 L 260 32 L 260 38.4 L 259.6 38.4 C 259.6 38.4 259.53 36.8 259.5 36.8 C 259.1 38 258 38.5 257 38.5 C 255.5 38.5 254.1 37.2 254.1 35.2 Z M 259.5 35.2 C 259.5 33.5 258.4 32.4 257.1 32.4 C 255.7 32.4 254.6 33.5 254.6 35.2 C 254.6 36.9 255.8 38 257.1 38 C 258.4 38 259.5 36.9 259.5 35.2 Z M 267.2 33.6 C 267.19 33.56 267.3 32 267.3 32 L 267.7 32 C 267.7 32 267.66 38.2 267.7 38.2 C 267.7 40.2 266.3 41.1 264.8 41.1 C 264 41.1 263.1 40.8 262.4 40.3 C 262.4 40.3 262.4 39.7 262.4 39.7 C 263.1 40.3 264 40.6 264.8 40.6 C 266.1 40.6 267.2 39.9 267.2 38.3 C 267.2 38.3 267.2 36.7 267.2 36.7 C 266.7 37.8 265.7 38.3 264.7 38.3 C 263.2 38.3 261.8 37.1 261.8 35.1 C 261.8 33.2 263.2 31.9 264.7 31.9 C 265.7 31.9 266.7 32.5 267.2 33.6 Z M 262.3 35.1 C 262.3 36.8 263.4 37.8 264.8 37.8 C 266.1 37.8 267.2 36.7 267.2 35.1 C 267.2 33.5 266.1 32.4 264.8 32.4 C 263.4 32.4 262.3 33.5 262.3 35.1 Z M 275.1 35.4 C 275.1 35.4 270 35.4 270 35.4 C 270.1 37 271.1 38 272.6 38 C 273.3 38 274.1 37.8 274.8 37.1 C 274.8 37.1 274.8 37.7 274.8 37.7 C 274.2 38.2 273.4 38.5 272.5 38.5 C 270.7 38.5 269.5 37.2 269.5 35.2 C 269.5 33.2 270.9 31.9 272.4 31.9 C 273.9 31.9 275.1 33 275.1 35.1 C 275.1 35.2 275.1 35.3 275.1 35.4 Z M 274.6 34.9 C 274.6 33.2 273.5 32.4 272.4 32.4 C 271.2 32.4 270.1 33.4 270 34.9 C 270 34.9 274.6 34.9 274.6 34.9 Z M 280.2 35.2 C 280.2 33.2 281.6 31.9 283.1 31.9 C 284.1 31.9 285.1 32.5 285.5 33.6 C 285.55 33.58 285.5 28.9 285.5 28.9 L 286 28.9 L 286 38.4 L 285.7 38.4 L 285.6 36.8 C 285.6 36.8 285.57 36.79 285.6 36.8 C 285.1 38 284.1 38.5 283.1 38.5 C 281.6 38.5 280.2 37.2 280.2 35.2 Z M 285.6 35.2 C 285.6 33.5 284.4 32.4 283.1 32.4 C 281.8 32.4 280.7 33.5 280.7 35.2 C 280.7 36.9 281.8 38 283.1 38 C 284.4 38 285.6 36.9 285.6 35.2 Z M 288.2 36.1 C 288.25 36.08 288.2 32 288.2 32 L 288.7 32 C 288.7 32 288.75 36.11 288.7 36.1 C 288.7 37.3 289.5 38 290.6 38 C 291.8 38 292.5 37.3 292.5 36.1 C 292.54 36.1 292.5 32 292.5 32 L 293 32 C 293 32 293.04 36.07 293 36.1 C 293 37.5 292.1 38.5 290.6 38.5 C 289.2 38.5 288.2 37.5 288.2 36.1 Z M 298 32 L 298.5 32 L 300.6 37.8 L 300.6 37.8 L 302.7 32 L 303.2 32 L 300.9 38.4 L 300.3 38.4 L 298 32 Z M 304.1 35.2 C 304.1 33.3 305.5 31.9 307.2 31.9 C 308.8 31.9 310.2 33.3 310.2 35.2 C 310.2 37.2 308.8 38.5 307.2 38.5 C 305.5 38.5 304.1 37.2 304.1 35.2 Z M 309.7 35.2 C 309.7 33.4 308.5 32.4 307.2 32.4 C 305.9 32.4 304.6 33.4 304.6 35.2 C 304.6 37 305.9 38 307.2 38 C 308.5 38 309.7 37 309.7 35.2 Z M 312.1 28.9 L 312.6 28.9 L 312.6 38.4 L 312.1 38.4 L 312.1 28.9 Z M 314.8 36.1 C 314.79 36.08 314.8 32 314.8 32 L 315.3 32 C 315.3 32 315.29 36.11 315.3 36.1 C 315.3 37.3 316 38 317.2 38 C 318.3 38 319.1 37.3 319.1 36.1 C 319.09 36.1 319.1 32 319.1 32 L 319.6 32 C 319.6 32 319.59 36.07 319.6 36.1 C 319.6 37.5 318.7 38.5 317.2 38.5 C 315.7 38.5 314.8 37.5 314.8 36.1 Z M 329.5 34.1 C 329.51 34.08 329.5 38.4 329.5 38.4 L 329 38.4 C 329 38.4 329.01 34.13 329 34.1 C 329 33.1 328.5 32.4 327.5 32.4 C 326.5 32.4 325.9 33.2 325.9 34.1 C 325.9 34.14 325.9 38.4 325.9 38.4 L 325.4 38.4 C 325.4 38.4 325.4 34.13 325.4 34.1 C 325.4 33.1 324.9 32.4 323.9 32.4 C 322.9 32.4 322.3 33.2 322.3 34.2 C 322.29 34.16 322.3 38.4 322.3 38.4 L 321.8 38.4 L 321.8 32 L 322.2 32 L 322.2 33.1 C 322.2 33.1 322.25 33.08 322.3 33.1 C 322.5 32.4 323.2 31.9 324 31.9 C 324.9 31.9 325.5 32.4 325.7 33.2 C 326 32.4 326.7 31.9 327.6 31.9 C 328.9 31.9 329.5 32.8 329.5 34.1 Z M 336.8 35.4 C 336.8 35.4 331.8 35.4 331.8 35.4 C 331.9 37 332.9 38 334.3 38 C 335.1 38 335.9 37.8 336.6 37.1 C 336.6 37.1 336.6 37.7 336.6 37.7 C 335.9 38.2 335.1 38.5 334.3 38.5 C 332.5 38.5 331.3 37.2 331.3 35.2 C 331.3 33.2 332.7 31.9 334.2 31.9 C 335.6 31.9 336.9 33 336.9 35.1 C 336.9 35.2 336.8 35.3 336.8 35.4 Z M 336.4 34.9 C 336.3 33.2 335.3 32.4 334.2 32.4 C 333 32.4 331.9 33.4 331.8 34.9 C 331.8 34.9 336.4 34.9 336.4 34.9 Z M 338.6 37.4 C 338.58 37.44 338.6 37 338.6 37 L 339.1 37 C 339.1 37 339.08 37.43 339.1 37.4 C 339.1 38.4 338.7 39.4 338.4 40 C 338.4 40 338 40 338 40 C 338.3 39.4 338.6 38.4 338.6 37.4 Z " stroke="none" fill="#000"/>
  </g>
  <g id="Polygon26501">
    <path d="M 4.7 18.1 C 4.7 18.1 4.7 18.6 4.7 18.6 C 4.2 18.3 3.6 18 2.9 18 C 1.9 18 1.3 18.5 1.3 19.2 C 1.3 19.9 2 20.2 3 20.5 C 4 20.9 5 21.2 5 22.3 C 5 23.4 4.1 24.1 2.8 24.1 C 2.1 24.1 1.3 23.9 0.7 23.4 C 0.7 23.4 0.7 22.7 0.7 22.7 C 1.2 23.3 2 23.6 2.8 23.6 C 3.9 23.6 4.5 23.1 4.5 22.3 C 4.5 21.6 3.8 21.3 2.8 20.9 C 1.7 20.6 0.8 20.3 0.8 19.2 C 0.8 18.2 1.6 17.5 2.9 17.5 C 3.6 17.5 4.2 17.7 4.7 18.1 Z M 6.3 20.8 C 6.3 18.9 7.7 17.5 9.3 17.5 C 11 17.5 12.4 18.9 12.4 20.8 C 12.4 22.8 11 24.1 9.3 24.1 C 7.7 24.1 6.3 22.8 6.3 20.8 Z M 11.9 20.8 C 11.9 19 10.6 18 9.3 18 C 8 18 6.8 19 6.8 20.8 C 6.8 22.6 8.1 23.6 9.3 23.6 C 10.6 23.6 11.9 22.6 11.9 20.8 Z M 19 19.8 C 18.99 19.76 19 24 19 24 L 18.5 24 C 18.5 24 18.49 19.97 18.5 20 C 18.5 18.7 17.8 18 16.7 18 C 15.6 18 14.7 18.7 14.7 19.9 C 14.71 19.91 14.7 24 14.7 24 L 14.2 24 L 14.2 17.6 L 14.6 17.6 L 14.7 18.8 C 14.7 18.8 14.68 18.76 14.7 18.8 C 15 18 15.8 17.5 16.8 17.5 C 18.1 17.5 19 18.4 19 19.8 Z M 21.8 17.6 L 23.7 17.6 L 23.7 18.1 L 21.8 18.1 C 21.8 18.1 21.81 22 21.8 22 C 21.8 23.2 22.5 23.6 23.4 23.6 C 23.5 23.6 23.7 23.6 23.9 23.6 C 23.9 23.6 23.9 24 23.9 24 C 23.8 24 23.6 24.1 23.3 24.1 C 22.1 24.1 21.3 23.4 21.3 22 C 21.31 22.02 21.3 18.1 21.3 18.1 L 20.3 18.1 L 20.3 17.6 L 21.3 17.6 L 21.3 16.1 L 21.8 16.1 L 21.8 17.6 Z M 28.8 17.6 L 29.2 17.6 C 29.2 17.6 29.29 19.24 29.3 19.2 C 29.8 18.1 30.8 17.5 31.8 17.5 C 33.3 17.5 34.7 18.8 34.7 20.8 C 34.7 22.8 33.3 24.1 31.8 24.1 C 30.8 24.1 29.8 23.5 29.3 22.5 C 29.33 22.45 29.3 26.6 29.3 26.6 L 28.8 26.6 L 28.8 17.6 Z M 34.2 20.8 C 34.2 19.1 33.1 18 31.8 18 C 30.4 18 29.3 19.1 29.3 20.8 C 29.3 22.5 30.4 23.6 31.8 23.6 C 33.1 23.6 34.2 22.5 34.2 20.8 Z M 41.7 21 C 41.7 21 36.6 21 36.6 21 C 36.7 22.6 37.7 23.6 39.2 23.6 C 39.9 23.6 40.7 23.4 41.4 22.7 C 41.4 22.7 41.4 23.3 41.4 23.3 C 40.8 23.8 40 24.1 39.1 24.1 C 37.3 24.1 36.1 22.8 36.1 20.8 C 36.1 18.8 37.5 17.5 39 17.5 C 40.5 17.5 41.7 18.6 41.7 20.7 C 41.7 20.8 41.7 20.9 41.7 21 Z M 41.2 20.5 C 41.1 18.8 40.1 18 39 18 C 37.8 18 36.7 19 36.6 20.5 C 36.6 20.5 41.2 20.5 41.2 20.5 Z M 48.3 19.8 C 48.26 19.76 48.3 24 48.3 24 L 47.8 24 C 47.8 24 47.76 19.97 47.8 20 C 47.8 18.7 47.1 18 45.9 18 C 44.9 18 44 18.7 44 19.9 C 43.98 19.91 44 24 44 24 L 43.5 24 L 43.5 17.6 L 43.9 17.6 L 43.9 18.8 C 43.9 18.8 43.94 18.76 43.9 18.8 C 44.3 18 45.1 17.5 46 17.5 C 47.4 17.5 48.3 18.4 48.3 19.8 Z M 54 18.1 C 54 18.1 54 18.6 54 18.6 C 53.5 18.3 52.9 18 52.2 18 C 51.2 18 50.6 18.5 50.6 19.2 C 50.6 19.9 51.3 20.2 52.3 20.5 C 53.3 20.9 54.3 21.2 54.3 22.3 C 54.3 23.4 53.5 24.1 52.2 24.1 C 51.4 24.1 50.6 23.9 50 23.4 C 50 23.4 50 22.7 50 22.7 C 50.6 23.3 51.3 23.6 52.2 23.6 C 53.2 23.6 53.8 23.1 53.8 22.3 C 53.8 21.6 53.1 21.3 52.1 20.9 C 51 20.6 50.1 20.3 50.1 19.2 C 50.1 18.2 51 17.5 52.2 17.5 C 52.9 17.5 53.5 17.7 54 18.1 Z M 58.4 16.5 L 57.9 16.5 L 59.3 14.6 L 59.9 14.6 L 58.4 16.5 Z M 61.2 21 C 61.2 21 56.1 21 56.1 21 C 56.2 22.6 57.3 23.6 58.7 23.6 C 59.5 23.6 60.3 23.4 61 22.7 C 61 22.7 61 23.3 61 23.3 C 60.3 23.8 59.5 24.1 58.7 24.1 C 56.9 24.1 55.6 22.8 55.6 20.8 C 55.6 18.8 57 17.5 58.6 17.5 C 60 17.5 61.2 18.6 61.2 20.7 C 61.2 20.8 61.2 20.9 61.2 21 Z M 60.7 20.5 C 60.7 18.8 59.7 18 58.6 18 C 57.4 18 56.3 19 56.1 20.5 C 56.1 20.5 60.7 20.5 60.7 20.5 Z M 68.1 21 C 68.1 21 63.1 21 63.1 21 C 63.2 22.6 64.2 23.6 65.6 23.6 C 66.4 23.6 67.2 23.4 67.9 22.7 C 67.9 22.7 67.9 23.3 67.9 23.3 C 67.2 23.8 66.4 24.1 65.6 24.1 C 63.8 24.1 62.6 22.8 62.6 20.8 C 62.6 18.8 64 17.5 65.5 17.5 C 66.9 17.5 68.1 18.6 68.1 20.7 C 68.1 20.8 68.1 20.9 68.1 21 Z M 67.6 20.5 C 67.6 18.8 66.6 18 65.5 18 C 64.3 18 63.2 19 63.1 20.5 C 63.1 20.5 67.6 20.5 67.6 20.5 Z M 73.5 18.1 C 73.5 18.1 73.5 18.6 73.5 18.6 C 73 18.3 72.4 18 71.7 18 C 70.7 18 70.1 18.5 70.1 19.2 C 70.1 19.9 70.8 20.2 71.8 20.5 C 72.8 20.9 73.8 21.2 73.8 22.3 C 73.8 23.4 72.9 24.1 71.7 24.1 C 70.9 24.1 70.1 23.9 69.5 23.4 C 69.5 23.4 69.5 22.7 69.5 22.7 C 70.1 23.3 70.8 23.6 71.7 23.6 C 72.7 23.6 73.3 23.1 73.3 22.3 C 73.3 21.6 72.6 21.3 71.6 20.9 C 70.5 20.6 69.6 20.3 69.6 19.2 C 69.6 18.2 70.5 17.5 71.7 17.5 C 72.4 17.5 73 17.7 73.5 18.1 Z M 79.2 17.6 L 79.6 17.6 C 79.6 17.6 79.68 19.24 79.7 19.2 C 80.1 18.1 81.2 17.5 82.2 17.5 C 83.7 17.5 85.1 18.8 85.1 20.8 C 85.1 22.8 83.7 24.1 82.2 24.1 C 81.2 24.1 80.1 23.5 79.7 22.5 C 79.71 22.45 79.7 26.6 79.7 26.6 L 79.2 26.6 L 79.2 17.6 Z M 84.6 20.8 C 84.6 19.1 83.5 18 82.2 18 C 80.8 18 79.7 19.1 79.7 20.8 C 79.7 22.5 80.8 23.6 82.1 23.6 C 83.5 23.6 84.6 22.5 84.6 20.8 Z M 86.5 20.8 C 86.5 18.9 87.8 17.5 89.5 17.5 C 91.2 17.5 92.6 18.9 92.6 20.8 C 92.6 22.8 91.2 24.1 89.5 24.1 C 87.9 24.1 86.5 22.8 86.5 20.8 Z M 92.1 20.8 C 92.1 19 90.8 18 89.5 18 C 88.2 18 87 19 87 20.8 C 87 22.6 88.2 23.6 89.5 23.6 C 90.8 23.6 92.1 22.6 92.1 20.8 Z M 94.3 21.7 C 94.3 21.68 94.3 17.6 94.3 17.6 L 94.8 17.6 C 94.8 17.6 94.8 21.71 94.8 21.7 C 94.8 22.9 95.5 23.6 96.7 23.6 C 97.8 23.6 98.6 22.9 98.6 21.7 C 98.59 21.7 98.6 17.6 98.6 17.6 L 99.1 17.6 C 99.1 17.6 99.09 21.67 99.1 21.7 C 99.1 23.1 98.2 24.1 96.7 24.1 C 95.2 24.1 94.3 23.1 94.3 21.7 Z M 101.3 17.6 L 101.7 17.6 L 101.7 18.8 C 101.7 18.8 101.76 18.82 101.8 18.8 C 102.1 17.9 103 17.6 103.6 17.6 C 103.8 17.6 103.9 17.6 104 17.6 C 104 17.6 104 18.1 104 18.1 C 103.9 18.1 103.8 18.1 103.6 18.1 C 102.7 18.1 101.8 18.7 101.8 20 C 101.79 19.97 101.8 24 101.8 24 L 101.3 24 L 101.3 17.6 Z M 108.3 20.8 C 108.3 18.9 109.6 17.5 111.3 17.5 C 113 17.5 114.3 18.9 114.3 20.8 C 114.3 22.8 113 24.1 111.3 24.1 C 109.6 24.1 108.3 22.8 108.3 20.8 Z M 113.8 20.8 C 113.8 19 112.6 18 111.3 18 C 110 18 108.8 19 108.8 20.8 C 108.8 22.6 110 23.6 111.3 23.6 C 112.6 23.6 113.8 22.6 113.8 20.8 Z M 116.3 18.1 L 115.3 18.1 L 115.3 17.6 L 116.3 17.6 C 116.3 17.6 116.29 16.4 116.3 16.4 C 116.3 15.1 117.1 14.4 118.2 14.4 C 118.5 14.4 118.9 14.5 119.1 14.6 C 119.1 14.6 119.1 15.1 119.1 15.1 C 118.9 15 118.5 14.9 118.2 14.9 C 117.4 14.9 116.8 15.4 116.8 16.5 C 116.81 16.49 116.8 17.6 116.8 17.6 L 118.7 17.6 L 118.7 18.1 L 116.8 18.1 L 116.8 24 L 116.3 24 L 116.3 18.1 Z M 120.3 18.1 L 119.4 18.1 L 119.4 17.6 L 120.3 17.6 C 120.3 17.6 120.3 16.4 120.3 16.4 C 120.3 15.1 121.1 14.4 122.2 14.4 C 122.5 14.4 122.9 14.5 123.2 14.6 C 123.2 14.6 123.2 15.1 123.2 15.1 C 122.9 15 122.5 14.9 122.2 14.9 C 121.4 14.9 120.8 15.4 120.8 16.5 C 120.81 16.49 120.8 17.6 120.8 17.6 L 122.7 17.6 L 122.7 18.1 L 120.8 18.1 L 120.8 24 L 120.3 24 L 120.3 18.1 Z M 124.1 17.6 L 124.5 17.6 L 124.5 18.8 C 124.5 18.8 124.55 18.82 124.5 18.8 C 124.9 17.9 125.8 17.6 126.4 17.6 C 126.6 17.6 126.7 17.6 126.8 17.6 C 126.8 17.6 126.8 18.1 126.8 18.1 C 126.7 18.1 126.6 18.1 126.4 18.1 C 125.5 18.1 124.6 18.7 124.6 20 C 124.58 19.97 124.6 24 124.6 24 L 124.1 24 L 124.1 17.6 Z M 128 15.3 C 128 15.1 128.2 14.9 128.4 14.9 C 128.7 14.9 128.8 15.1 128.8 15.3 C 128.8 15.5 128.7 15.7 128.4 15.7 C 128.2 15.7 128 15.5 128 15.3 Z M 128.2 17.6 L 128.7 17.6 L 128.7 24 L 128.2 24 L 128.2 17.6 Z M 131 17.6 L 131.4 17.6 L 131.5 18.8 C 131.5 18.8 131.47 18.82 131.5 18.8 C 131.9 17.9 132.7 17.6 133.4 17.6 C 133.5 17.6 133.6 17.6 133.7 17.6 C 133.7 17.6 133.7 18.1 133.7 18.1 C 133.6 18.1 133.5 18.1 133.4 18.1 C 132.5 18.1 131.5 18.7 131.5 20 C 131.51 19.97 131.5 24 131.5 24 L 131 24 L 131 17.6 Z M 138.3 21.7 C 138.33 21.68 138.3 17.6 138.3 17.6 L 138.8 17.6 C 138.8 17.6 138.84 21.71 138.8 21.7 C 138.8 22.9 139.6 23.6 140.7 23.6 C 141.9 23.6 142.6 22.9 142.6 21.7 C 142.63 21.7 142.6 17.6 142.6 17.6 L 143.1 17.6 C 143.1 17.6 143.13 21.67 143.1 21.7 C 143.1 23.1 142.2 24.1 140.7 24.1 C 139.2 24.1 138.3 23.1 138.3 21.7 Z M 150.1 19.8 C 150.12 19.76 150.1 24 150.1 24 L 149.6 24 C 149.6 24 149.61 19.97 149.6 20 C 149.6 18.7 149 18 147.8 18 C 146.7 18 145.8 18.7 145.8 19.9 C 145.83 19.91 145.8 24 145.8 24 L 145.3 24 L 145.3 17.6 L 145.7 17.6 L 145.8 18.8 C 145.8 18.8 145.8 18.76 145.8 18.8 C 146.1 18 146.9 17.5 147.9 17.5 C 149.2 17.5 150.1 18.4 150.1 19.8 Z M 157.4 21 C 157.4 21 152.4 21 152.4 21 C 152.5 22.6 153.5 23.6 154.9 23.6 C 155.7 23.6 156.5 23.4 157.2 22.7 C 157.2 22.7 157.2 23.3 157.2 23.3 C 156.5 23.8 155.7 24.1 154.9 24.1 C 153.1 24.1 151.9 22.8 151.9 20.8 C 151.9 18.8 153.3 17.5 154.8 17.5 C 156.2 17.5 157.4 18.6 157.4 20.7 C 157.4 20.8 157.4 20.9 157.4 21 Z M 156.9 20.5 C 156.9 18.8 155.9 18 154.8 18 C 153.6 18 152.5 19 152.4 20.5 C 152.4 20.5 156.9 20.5 156.9 20.5 Z M 162.5 20.8 C 162.5 18.8 163.8 17.5 165.4 17.5 C 166.4 17.5 167.4 18.1 167.8 19.2 C 167.83 19.18 167.8 14.5 167.8 14.5 L 168.3 14.5 L 168.3 24 L 167.9 24 L 167.9 22.4 C 167.9 22.4 167.85 22.39 167.9 22.4 C 167.4 23.6 166.4 24.1 165.4 24.1 C 163.9 24.1 162.5 22.8 162.5 20.8 Z M 167.9 20.8 C 167.9 19.1 166.7 18 165.4 18 C 164.1 18 163 19.1 163 20.8 C 163 22.5 164.1 23.6 165.4 23.6 C 166.7 23.6 167.9 22.5 167.9 20.8 Z M 170.5 15.3 C 170.5 15.1 170.7 14.9 170.9 14.9 C 171.1 14.9 171.3 15.1 171.3 15.3 C 171.3 15.5 171.1 15.7 170.9 15.7 C 170.7 15.7 170.5 15.5 170.5 15.3 Z M 170.7 17.6 L 171.2 17.6 L 171.2 24 L 170.7 24 L 170.7 17.6 Z M 173.7 18.1 L 172.8 18.1 L 172.8 17.6 L 173.7 17.6 C 173.7 17.6 173.7 16.4 173.7 16.4 C 173.7 15.1 174.5 14.4 175.6 14.4 C 175.9 14.4 176.3 14.5 176.6 14.6 C 176.6 14.6 176.6 15.1 176.6 15.1 C 176.3 15 175.9 14.9 175.6 14.9 C 174.8 14.9 174.2 15.4 174.2 16.5 C 174.21 16.49 174.2 17.6 174.2 17.6 L 176.1 17.6 L 176.1 18.1 L 174.2 18.1 L 174.2 24 L 173.7 24 L 173.7 18.1 Z M 177.7 18.1 L 176.8 18.1 L 176.8 17.6 L 177.7 17.6 C 177.7 17.6 177.71 16.4 177.7 16.4 C 177.7 15.1 178.6 14.4 179.6 14.4 C 179.9 14.4 180.3 14.5 180.6 14.6 C 180.6 14.6 180.6 15.1 180.6 15.1 C 180.3 15 179.9 14.9 179.6 14.9 C 178.8 14.9 178.2 15.4 178.2 16.5 C 178.22 16.49 178.2 17.6 178.2 17.6 L 180.1 17.6 L 180.1 18.1 L 178.2 18.1 L 178.2 24 L 177.7 24 L 177.7 18.1 Z M 181.4 21.7 C 181.4 21.68 181.4 17.6 181.4 17.6 L 181.9 17.6 C 181.9 17.6 181.9 21.71 181.9 21.7 C 181.9 22.9 182.6 23.6 183.8 23.6 C 185 23.6 185.7 22.9 185.7 21.7 C 185.7 21.7 185.7 17.6 185.7 17.6 L 186.2 17.6 C 186.2 17.6 186.2 21.67 186.2 21.7 C 186.2 23.1 185.3 24.1 183.8 24.1 C 182.3 24.1 181.4 23.1 181.4 21.7 Z M 191.9 18.1 C 191.9 18.1 191.9 18.6 191.9 18.6 C 191.4 18.3 190.8 18 190.1 18 C 189.2 18 188.6 18.5 188.6 19.2 C 188.6 19.9 189.2 20.2 190.2 20.5 C 191.3 20.9 192.3 21.2 192.3 22.3 C 192.3 23.4 191.4 24.1 190.1 24.1 C 189.3 24.1 188.6 23.9 188 23.4 C 188 23.4 188 22.7 188 22.7 C 188.5 23.3 189.3 23.6 190.1 23.6 C 191.1 23.6 191.8 23.1 191.8 22.3 C 191.8 21.6 191 21.3 190 20.9 C 189 20.6 188.1 20.3 188.1 19.2 C 188.1 18.2 188.9 17.5 190.1 17.5 C 190.8 17.5 191.5 17.7 191.9 18.1 Z M 193.9 15.3 C 193.9 15.1 194.1 14.9 194.3 14.9 C 194.5 14.9 194.7 15.1 194.7 15.3 C 194.7 15.5 194.5 15.7 194.3 15.7 C 194.1 15.7 193.9 15.5 193.9 15.3 Z M 194 17.6 L 194.6 17.6 L 194.6 24 L 194 24 L 194 17.6 Z M 196.4 20.8 C 196.4 18.9 197.8 17.5 199.5 17.5 C 201.1 17.5 202.5 18.9 202.5 20.8 C 202.5 22.8 201.1 24.1 199.5 24.1 C 197.8 24.1 196.4 22.8 196.4 20.8 Z M 202 20.8 C 202 19 200.8 18 199.5 18 C 198.2 18 196.9 19 196.9 20.8 C 196.9 22.6 198.2 23.6 199.5 23.6 C 200.8 23.6 202 22.6 202 20.8 Z M 209.1 19.8 C 209.11 19.76 209.1 24 209.1 24 L 208.6 24 C 208.6 24 208.61 19.97 208.6 20 C 208.6 18.7 207.9 18 206.8 18 C 205.7 18 204.8 18.7 204.8 19.9 C 204.82 19.91 204.8 24 204.8 24 L 204.3 24 L 204.3 17.6 L 204.7 17.6 L 204.8 18.8 C 204.8 18.8 204.79 18.76 204.8 18.8 C 205.1 18 205.9 17.5 206.9 17.5 C 208.2 17.5 209.1 18.4 209.1 19.8 Z M 214.5 20.8 C 214.5 18.9 215.9 17.5 217.5 17.5 C 219.2 17.5 220.6 18.9 220.6 20.8 C 220.6 22.8 219.2 24.1 217.5 24.1 C 215.9 24.1 214.5 22.8 214.5 20.8 Z M 220.1 20.8 C 220.1 19 218.8 18 217.5 18 C 216.2 18 215 19 215 20.8 C 215 22.6 216.2 23.6 217.5 23.6 C 218.8 23.6 220.1 22.6 220.1 20.8 Z M 222.4 17.6 L 222.8 17.6 C 222.8 17.6 222.87 19.24 222.9 19.2 C 223.3 18.1 224.4 17.5 225.4 17.5 C 226.9 17.5 228.3 18.8 228.3 20.8 C 228.3 22.8 226.9 24.1 225.4 24.1 C 224.4 24.1 223.3 23.5 222.9 22.5 C 222.91 22.45 222.9 26.6 222.9 26.6 L 222.4 26.6 L 222.4 17.6 Z M 227.8 20.8 C 227.8 19.1 226.7 18 225.3 18 C 224 18 222.9 19.1 222.9 20.8 C 222.9 22.5 224 23.6 225.3 23.6 C 226.7 23.6 227.8 22.5 227.8 20.8 Z M 230.7 17.6 L 232.6 17.6 L 232.6 18.1 L 230.7 18.1 C 230.7 18.1 230.73 22 230.7 22 C 230.7 23.2 231.4 23.6 232.3 23.6 C 232.4 23.6 232.6 23.6 232.8 23.6 C 232.8 23.6 232.8 24 232.8 24 C 232.7 24 232.5 24.1 232.2 24.1 C 231.1 24.1 230.2 23.4 230.2 22 C 230.23 22.02 230.2 18.1 230.2 18.1 L 229.2 18.1 L 229.2 17.6 L 230.2 17.6 L 230.2 16.1 L 230.7 16.1 L 230.7 17.6 Z M 234.1 15.3 C 234.1 15.1 234.2 14.9 234.5 14.9 C 234.7 14.9 234.9 15.1 234.9 15.3 C 234.9 15.5 234.7 15.7 234.5 15.7 C 234.2 15.7 234.1 15.5 234.1 15.3 Z M 234.2 17.6 L 234.7 17.6 L 234.7 24 L 234.2 24 L 234.2 17.6 Z M 244.7 19.7 C 244.75 19.68 244.7 24 244.7 24 L 244.2 24 C 244.2 24 244.25 19.73 244.2 19.7 C 244.2 18.7 243.8 18 242.8 18 C 241.7 18 241.1 18.8 241.1 19.7 C 241.14 19.74 241.1 24 241.1 24 L 240.6 24 C 240.6 24 240.63 19.73 240.6 19.7 C 240.6 18.7 240.1 18 239.1 18 C 238.1 18 237.5 18.8 237.5 19.8 C 237.52 19.76 237.5 24 237.5 24 L 237 24 L 237 17.6 L 237.4 17.6 L 237.5 18.7 C 237.5 18.7 237.49 18.68 237.5 18.7 C 237.8 18 238.4 17.5 239.2 17.5 C 240.2 17.5 240.7 18 241 18.8 C 241.3 18 241.9 17.5 242.8 17.5 C 244.1 17.5 244.7 18.4 244.7 19.7 Z M 246.5 20.8 C 246.5 18.8 247.9 17.5 249.4 17.5 C 250.4 17.5 251.4 18.1 251.9 19.2 C 251.91 19.22 252 17.6 252 17.6 L 252.4 17.6 L 252.4 24 L 252 24 C 252 24 251.91 22.4 251.9 22.4 C 251.4 23.6 250.4 24.1 249.4 24.1 C 247.9 24.1 246.5 22.8 246.5 20.8 Z M 251.9 20.8 C 251.9 19.1 250.8 18 249.5 18 C 248.1 18 247 19.1 247 20.8 C 247 22.5 248.1 23.6 249.5 23.6 C 250.8 23.6 251.9 22.5 251.9 20.8 Z M 254.7 14.5 L 255.2 14.5 L 255.2 24 L 254.7 24 L 254.7 14.5 Z M 262.6 21 C 262.6 21 257.6 21 257.6 21 C 257.7 22.6 258.7 23.6 260.1 23.6 C 260.9 23.6 261.7 23.4 262.4 22.7 C 262.4 22.7 262.4 23.3 262.4 23.3 C 261.7 23.8 260.9 24.1 260.1 24.1 C 258.3 24.1 257.1 22.8 257.1 20.8 C 257.1 18.8 258.5 17.5 260 17.5 C 261.4 17.5 262.7 18.6 262.7 20.7 C 262.7 20.8 262.6 20.9 262.6 21 Z M 262.1 20.5 C 262.1 18.8 261.1 18 260 18 C 258.8 18 257.7 19 257.6 20.5 C 257.6 20.5 262.1 20.5 262.1 20.5 Z M 267.7 20.8 C 267.7 18.8 269 17.5 270.6 17.5 C 271.6 17.5 272.6 18.1 273 19.2 C 273.03 19.18 273 14.5 273 14.5 L 273.5 14.5 L 273.5 24 L 273.1 24 L 273.1 22.4 C 273.1 22.4 273.06 22.39 273.1 22.4 C 272.6 23.6 271.6 24.1 270.6 24.1 C 269.1 24.1 267.7 22.8 267.7 20.8 Z M 273.1 20.8 C 273.1 19.1 271.9 18 270.6 18 C 269.3 18 268.2 19.1 268.2 20.8 C 268.2 22.5 269.3 23.6 270.6 23.6 C 271.9 23.6 273.1 22.5 273.1 20.8 Z M 275.7 21.7 C 275.73 21.68 275.7 17.6 275.7 17.6 L 276.2 17.6 C 276.2 17.6 276.24 21.71 276.2 21.7 C 276.2 22.9 277 23.6 278.1 23.6 C 279.3 23.6 280 22.9 280 21.7 C 280.03 21.7 280 17.6 280 17.6 L 280.5 17.6 C 280.5 17.6 280.53 21.67 280.5 21.7 C 280.5 23.1 279.6 24.1 278.1 24.1 C 276.6 24.1 275.7 23.1 275.7 21.7 Z M 289.9 18.1 C 289.9 18.1 289.9 18.6 289.9 18.6 C 289.4 18.3 288.8 18 288.1 18 C 287.2 18 286.5 18.5 286.5 19.2 C 286.5 19.9 287.2 20.2 288.2 20.5 C 289.2 20.9 290.2 21.2 290.2 22.3 C 290.2 23.4 289.4 24.1 288.1 24.1 C 287.3 24.1 286.6 23.9 285.9 23.4 C 285.9 23.4 285.9 22.7 285.9 22.7 C 286.5 23.3 287.2 23.6 288.1 23.6 C 289.1 23.6 289.7 23.1 289.7 22.3 C 289.7 21.6 289 21.3 288 20.9 C 286.9 20.6 286 20.3 286 19.2 C 286 18.2 286.9 17.5 288.1 17.5 C 288.8 17.5 289.4 17.7 289.9 18.1 Z M 291.5 20.8 C 291.5 18.9 292.9 17.5 294.6 17.5 C 296.3 17.5 297.6 18.9 297.6 20.8 C 297.6 22.8 296.3 24.1 294.6 24.1 C 292.9 24.1 291.5 22.8 291.5 20.8 Z M 297.1 20.8 C 297.1 19 295.9 18 294.6 18 C 293.3 18 292 19 292 20.8 C 292 22.6 293.3 23.6 294.6 23.6 C 295.9 23.6 297.1 22.6 297.1 20.8 Z M 304.2 19.8 C 304.23 19.76 304.2 24 304.2 24 L 303.7 24 C 303.7 24 303.73 19.97 303.7 20 C 303.7 18.7 303.1 18 301.9 18 C 300.8 18 299.9 18.7 299.9 19.9 C 299.95 19.91 299.9 24 299.9 24 L 299.4 24 L 299.4 17.6 L 299.8 17.6 L 299.9 18.8 C 299.9 18.8 299.91 18.76 299.9 18.8 C 300.3 18 301 17.5 302 17.5 C 303.3 17.5 304.2 18.4 304.2 19.8 Z M 306.2 23.6 C 306.2 23.3 306.4 23.1 306.7 23.1 C 307 23.1 307.2 23.3 307.2 23.6 C 307.2 23.8 307 24 306.7 24 C 306.4 24 306.2 23.8 306.2 23.6 Z M 313.1 15.1 L 313.6 15.1 L 313.6 23.5 L 317.7 23.5 L 317.7 24 L 313.1 24 L 313.1 15.1 Z M 318 15.5 C 317.98 15.53 318 15.1 318 15.1 L 318.5 15.1 C 318.5 15.1 318.49 15.52 318.5 15.5 C 318.5 16.5 318.1 17.5 317.9 18.1 C 317.9 18.1 317.4 18.1 317.4 18.1 C 317.7 17.5 318 16.5 318 15.5 Z M 320.3 21.7 C 320.31 21.68 320.3 17.6 320.3 17.6 L 320.8 17.6 C 320.8 17.6 320.81 21.71 320.8 21.7 C 320.8 22.9 321.5 23.6 322.7 23.6 C 323.9 23.6 324.6 22.9 324.6 21.7 C 324.61 21.7 324.6 17.6 324.6 17.6 L 325.1 17.6 C 325.1 17.6 325.11 21.67 325.1 21.7 C 325.1 23.1 324.2 24.1 322.7 24.1 C 321.2 24.1 320.3 23.1 320.3 21.7 Z M 332.1 19.8 C 332.09 19.76 332.1 24 332.1 24 L 331.6 24 C 331.6 24 331.59 19.97 331.6 20 C 331.6 18.7 330.9 18 329.8 18 C 328.7 18 327.8 18.7 327.8 19.9 C 327.81 19.91 327.8 24 327.8 24 L 327.3 24 L 327.3 17.6 L 327.7 17.6 L 327.8 18.8 C 327.8 18.8 327.77 18.76 327.8 18.8 C 328.1 18 328.9 17.5 329.9 17.5 C 331.2 17.5 332.1 18.4 332.1 19.8 Z M 339.4 21 C 339.4 21 334.4 21 334.4 21 C 334.4 22.6 335.5 23.6 336.9 23.6 C 337.7 23.6 338.5 23.4 339.2 22.7 C 339.2 22.7 339.2 23.3 339.2 23.3 C 338.5 23.8 337.7 24.1 336.9 24.1 C 335.1 24.1 333.8 22.8 333.8 20.8 C 333.8 18.8 335.3 17.5 336.8 17.5 C 338.2 17.5 339.4 18.6 339.4 20.7 C 339.4 20.8 339.4 20.9 339.4 21 Z M 338.9 20.5 C 338.9 18.8 337.9 18 336.8 18 C 335.6 18 334.5 19 334.4 20.5 C 334.4 20.5 338.9 20.5 338.9 20.5 Z " stroke="none" fill="#000"/>
  </g>
  <g id="Polygon26500">
    <path d="M 1.4 0.7 L 1.9 0.7 L 1.9 9.6 L 1.4 9.6 L 1.4 0.7 Z M 9.2 5.4 C 9.24 5.36 9.2 9.6 9.2 9.6 L 8.7 9.6 C 8.7 9.6 8.74 5.57 8.7 5.6 C 8.7 4.3 8.1 3.6 6.9 3.6 C 5.8 3.6 5 4.3 5 5.5 C 4.96 5.51 5 9.6 5 9.6 L 4.5 9.6 L 4.5 3.2 L 4.8 3.2 L 4.9 4.4 C 4.9 4.4 4.92 4.36 4.9 4.4 C 5.3 3.6 6 3.1 7 3.1 C 8.4 3.1 9.2 4 9.2 5.4 Z M 15 3.7 C 15 3.7 15 4.2 15 4.2 C 14.5 3.9 13.9 3.6 13.2 3.6 C 12.2 3.6 11.6 4.1 11.6 4.8 C 11.6 5.5 12.3 5.8 13.3 6.1 C 14.3 6.5 15.3 6.8 15.3 7.9 C 15.3 9 14.4 9.7 13.1 9.7 C 12.4 9.7 11.6 9.5 11 9 C 11 9 11 8.3 11 8.3 C 11.5 8.9 12.3 9.2 13.1 9.2 C 14.1 9.2 14.8 8.7 14.8 7.9 C 14.8 7.2 14.1 6.9 13.1 6.5 C 12 6.2 11.1 5.9 11.1 4.8 C 11.1 3.8 11.9 3.1 13.2 3.1 C 13.8 3.1 14.5 3.3 15 3.7 Z M 17.1 3.2 L 17.4 3.2 C 17.4 3.2 17.52 4.84 17.5 4.8 C 18 3.7 19 3.1 20 3.1 C 21.5 3.1 22.9 4.4 22.9 6.4 C 22.9 8.4 21.5 9.7 20 9.7 C 19 9.7 18 9.1 17.6 8.1 C 17.55 8.05 17.6 12.2 17.6 12.2 L 17.1 12.2 L 17.1 3.2 Z M 22.4 6.4 C 22.4 4.7 21.3 3.6 20 3.6 C 18.7 3.6 17.5 4.7 17.5 6.4 C 17.5 8.1 18.7 9.2 20 9.2 C 21.3 9.2 22.4 8.1 22.4 6.4 Z M 24.7 0.9 C 24.7 0.7 24.8 0.5 25.1 0.5 C 25.3 0.5 25.5 0.7 25.5 0.9 C 25.5 1.1 25.3 1.3 25.1 1.3 C 24.8 1.3 24.7 1.1 24.7 0.9 Z M 24.8 3.2 L 25.3 3.2 L 25.3 9.6 L 24.8 9.6 L 24.8 3.2 Z M 27.6 3.2 L 28 3.2 L 28.1 4.4 C 28.1 4.4 28.09 4.42 28.1 4.4 C 28.5 3.5 29.3 3.2 30 3.2 C 30.1 3.2 30.3 3.2 30.4 3.2 C 30.4 3.2 30.4 3.7 30.4 3.7 C 30.3 3.7 30.1 3.7 30 3.7 C 29.1 3.7 28.1 4.3 28.1 5.6 C 28.13 5.57 28.1 9.6 28.1 9.6 L 27.6 9.6 L 27.6 3.2 Z M 33.7 2.1 L 33.2 2.1 L 34.6 0.2 L 35.2 0.2 L 33.7 2.1 Z M 36.5 6.6 C 36.5 6.6 31.4 6.6 31.4 6.6 C 31.5 8.2 32.6 9.2 34 9.2 C 34.8 9.2 35.6 9 36.3 8.3 C 36.3 8.3 36.3 8.9 36.3 8.9 C 35.6 9.4 34.8 9.7 34 9.7 C 32.2 9.7 30.9 8.4 30.9 6.4 C 30.9 4.4 32.4 3.1 33.9 3.1 C 35.3 3.1 36.5 4.2 36.5 6.3 C 36.5 6.4 36.5 6.5 36.5 6.6 Z M 36 6.1 C 36 4.4 35 3.6 33.9 3.6 C 32.7 3.6 31.6 4.6 31.5 6.1 C 31.5 6.1 36 6.1 36 6.1 Z M 43.4 6.6 C 43.4 6.6 38.4 6.6 38.4 6.6 C 38.5 8.2 39.5 9.2 40.9 9.2 C 41.7 9.2 42.5 9 43.2 8.3 C 43.2 8.3 43.2 8.9 43.2 8.9 C 42.5 9.4 41.7 9.7 40.9 9.7 C 39.1 9.7 37.9 8.4 37.9 6.4 C 37.9 4.4 39.3 3.1 40.8 3.1 C 42.2 3.1 43.5 4.2 43.5 6.3 C 43.5 6.4 43.4 6.5 43.4 6.6 Z M 42.9 6.1 C 42.9 4.4 41.9 3.6 40.8 3.6 C 39.6 3.6 38.5 4.6 38.4 6.1 C 38.4 6.1 42.9 6.1 42.9 6.1 Z M 48.7 6.4 C 48.7 4.4 50.1 3.1 51.6 3.1 C 52.6 3.1 53.6 3.7 54.1 4.8 C 54.08 4.78 54.1 0.1 54.1 0.1 L 54.6 0.1 L 54.6 9.6 L 54.2 9.6 L 54.1 8 C 54.1 8 54.11 7.99 54.1 8 C 53.6 9.2 52.6 9.7 51.6 9.7 C 50.1 9.7 48.7 8.4 48.7 6.4 Z M 54.1 6.4 C 54.1 4.7 53 3.6 51.7 3.6 C 50.3 3.6 49.2 4.7 49.2 6.4 C 49.2 8.1 50.3 9.2 51.7 9.2 C 53 9.2 54.1 8.1 54.1 6.4 Z M 62 6.6 C 62 6.6 56.9 6.6 56.9 6.6 C 57 8.2 58 9.2 59.5 9.2 C 60.2 9.2 61.1 9 61.7 8.3 C 61.7 8.3 61.7 8.9 61.7 8.9 C 61.1 9.4 60.3 9.7 59.5 9.7 C 57.7 9.7 56.4 8.4 56.4 6.4 C 56.4 4.4 57.8 3.1 59.4 3.1 C 60.8 3.1 62 4.2 62 6.3 C 62 6.4 62 6.5 62 6.6 Z M 61.5 6.1 C 61.5 4.4 60.5 3.6 59.4 3.6 C 58.2 3.6 57 4.6 56.9 6.1 C 56.9 6.1 61.5 6.1 61.5 6.1 Z M 68.3 3.2 L 70.1 3.2 L 70.1 3.7 L 68.3 3.7 C 68.3 3.7 68.25 7.6 68.3 7.6 C 68.3 8.8 68.9 9.2 69.8 9.2 C 70 9.2 70.1 9.2 70.3 9.2 C 70.3 9.2 70.3 9.6 70.3 9.6 C 70.3 9.6 70 9.7 69.7 9.7 C 68.6 9.7 67.7 9 67.7 7.6 C 67.75 7.62 67.7 3.7 67.7 3.7 L 66.8 3.7 L 66.8 3.2 L 67.8 3.2 L 67.8 1.7 L 68.3 1.7 L 68.3 3.2 Z M 76.7 6.6 C 76.7 6.6 71.7 6.6 71.7 6.6 C 71.7 8.2 72.8 9.2 74.2 9.2 C 75 9.2 75.8 9 76.5 8.3 C 76.5 8.3 76.5 8.9 76.5 8.9 C 75.8 9.4 75 9.7 74.2 9.7 C 72.4 9.7 71.2 8.4 71.2 6.4 C 71.2 4.4 72.6 3.1 74.1 3.1 C 75.5 3.1 76.7 4.2 76.7 6.3 C 76.7 6.4 76.7 6.5 76.7 6.6 Z M 76.2 6.1 C 76.2 4.4 75.2 3.6 74.1 3.6 C 72.9 3.6 71.8 4.6 71.7 6.1 C 71.7 6.1 76.2 6.1 76.2 6.1 Z M 81.2 9.2 C 81.7 9.2 82.3 9.1 82.9 8.7 C 82.9 8.7 82.9 9.3 82.9 9.3 C 82.4 9.6 81.8 9.7 81.2 9.7 C 79.4 9.7 78.1 8.3 78.1 6.4 C 78.1 4.5 79.4 3.1 81.1 3.1 C 81.7 3.1 82.3 3.2 82.9 3.6 C 82.9 3.6 82.9 4.1 82.9 4.1 C 82.3 3.7 81.7 3.6 81.1 3.6 C 79.8 3.6 78.6 4.7 78.6 6.4 C 78.6 8.1 79.8 9.2 81.2 9.2 Z M 85.2 4.2 C 85.2 4.2 85.17 4.24 85.2 4.2 C 85.5 3.5 86.3 3.1 87.2 3.1 C 88.6 3.1 89.4 3.9 89.4 5.4 C 89.44 5.38 89.4 9.6 89.4 9.6 L 88.9 9.6 C 88.9 9.6 88.94 5.56 88.9 5.6 C 88.9 4.3 88.3 3.6 87.2 3.6 C 86.1 3.6 85.2 4.2 85.2 5.4 C 85.16 5.45 85.2 9.6 85.2 9.6 L 84.7 9.6 L 84.7 0.1 L 85.2 0.1 L 85.2 4.2 Z M 96.4 5.4 C 96.44 5.36 96.4 9.6 96.4 9.6 L 95.9 9.6 C 95.9 9.6 95.94 5.57 95.9 5.6 C 95.9 4.3 95.3 3.6 94.1 3.6 C 93 3.6 92.2 4.3 92.2 5.5 C 92.15 5.51 92.2 9.6 92.2 9.6 L 91.7 9.6 L 91.7 3.2 L 92 3.2 L 92.1 4.4 C 92.1 4.4 92.12 4.36 92.1 4.4 C 92.5 3.6 93.2 3.1 94.2 3.1 C 95.6 3.1 96.4 4 96.4 5.4 Z M 98.2 6.4 C 98.2 4.5 99.5 3.1 101.2 3.1 C 102.9 3.1 104.3 4.5 104.3 6.4 C 104.3 8.4 102.9 9.7 101.2 9.7 C 99.6 9.7 98.2 8.4 98.2 6.4 Z M 103.8 6.4 C 103.8 4.6 102.5 3.6 101.2 3.6 C 99.9 3.6 98.7 4.6 98.7 6.4 C 98.7 8.2 99.9 9.2 101.2 9.2 C 102.5 9.2 103.8 8.2 103.8 6.4 Z M 106.1 0.1 L 106.6 0.1 L 106.6 9.6 L 106.1 9.6 L 106.1 0.1 Z M 108.5 6.4 C 108.5 4.5 109.9 3.1 111.5 3.1 C 113.2 3.1 114.6 4.5 114.6 6.4 C 114.6 8.4 113.2 9.7 111.5 9.7 C 109.9 9.7 108.5 8.4 108.5 6.4 Z M 114.1 6.4 C 114.1 4.6 112.8 3.6 111.5 3.6 C 110.2 3.6 109 4.6 109 6.4 C 109 8.2 110.2 9.2 111.5 9.2 C 112.8 9.2 114.1 8.2 114.1 6.4 Z M 121.3 4.8 C 121.31 4.76 121.4 3.2 121.4 3.2 L 121.8 3.2 C 121.8 3.2 121.78 9.4 121.8 9.4 C 121.8 11.4 120.4 12.3 119 12.3 C 118.1 12.3 117.3 12 116.6 11.5 C 116.6 11.5 116.6 10.9 116.6 10.9 C 117.3 11.5 118.1 11.8 119 11.8 C 120.2 11.8 121.3 11.1 121.3 9.5 C 121.3 9.5 121.3 7.9 121.3 7.9 C 120.8 9 119.8 9.5 118.8 9.5 C 117.3 9.5 115.9 8.3 115.9 6.3 C 115.9 4.4 117.3 3.1 118.8 3.1 C 119.8 3.1 120.8 3.7 121.3 4.8 Z M 116.4 6.3 C 116.4 8 117.6 9 118.9 9 C 120.2 9 121.3 7.9 121.3 6.3 C 121.3 4.7 120.2 3.6 118.9 3.6 C 117.6 3.6 116.4 4.7 116.4 6.3 Z M 124 0.9 C 124 0.7 124.1 0.5 124.3 0.5 C 124.6 0.5 124.8 0.7 124.8 0.9 C 124.8 1.1 124.6 1.3 124.3 1.3 C 124.1 1.3 124 1.1 124 0.9 Z M 124.1 3.2 L 124.6 3.2 L 124.6 9.6 L 124.1 9.6 L 124.1 3.2 Z M 132 6.6 C 132 6.6 127 6.6 127 6.6 C 127.1 8.2 128.1 9.2 129.5 9.2 C 130.3 9.2 131.1 9 131.8 8.3 C 131.8 8.3 131.8 8.9 131.8 8.9 C 131.1 9.4 130.3 9.7 129.5 9.7 C 127.7 9.7 126.5 8.4 126.5 6.4 C 126.5 4.4 127.9 3.1 129.4 3.1 C 130.8 3.1 132.1 4.2 132.1 6.3 C 132.1 6.4 132 6.5 132 6.6 Z M 131.6 6.1 C 131.5 4.4 130.5 3.6 129.4 3.6 C 128.2 3.6 127.1 4.6 127 6.1 C 127 6.1 131.6 6.1 131.6 6.1 Z M 137.4 3.7 C 137.4 3.7 137.4 4.2 137.4 4.2 C 136.9 3.9 136.3 3.6 135.6 3.6 C 134.6 3.6 134 4.1 134 4.8 C 134 5.5 134.7 5.8 135.7 6.1 C 136.7 6.5 137.7 6.8 137.7 7.9 C 137.7 9 136.9 9.7 135.6 9.7 C 134.8 9.7 134 9.5 133.4 9 C 133.4 9 133.4 8.3 133.4 8.3 C 134 8.9 134.7 9.2 135.6 9.2 C 136.6 9.2 137.2 8.7 137.2 7.9 C 137.2 7.2 136.5 6.9 135.5 6.5 C 134.4 6.2 133.5 5.9 133.5 4.8 C 133.5 3.8 134.4 3.1 135.6 3.1 C 136.3 3.1 136.9 3.3 137.4 3.7 Z M 148.5 6.6 C 148.5 6.6 143.4 6.6 143.4 6.6 C 143.5 8.2 144.5 9.2 146 9.2 C 146.8 9.2 147.6 9 148.3 8.3 C 148.3 8.3 148.3 8.9 148.3 8.9 C 147.6 9.4 146.8 9.7 146 9.7 C 144.2 9.7 142.9 8.4 142.9 6.4 C 142.9 4.4 144.3 3.1 145.9 3.1 C 147.3 3.1 148.5 4.2 148.5 6.3 C 148.5 6.4 148.5 6.5 148.5 6.6 Z M 148 6.1 C 148 4.4 147 3.6 145.9 3.6 C 144.7 3.6 143.5 4.6 143.4 6.1 C 143.4 6.1 148 6.1 148 6.1 Z M 152.3 6.4 L 154.6 9.6 L 154 9.6 L 152 6.8 L 152 6.8 L 150 9.6 L 149.4 9.6 L 151.7 6.4 L 149.5 3.2 L 150.1 3.2 L 152 6 L 152 6 L 154 3.2 L 154.5 3.2 L 152.3 6.4 Z M 156 0.9 C 156 0.7 156.1 0.5 156.4 0.5 C 156.6 0.5 156.8 0.7 156.8 0.9 C 156.8 1.1 156.6 1.3 156.4 1.3 C 156.1 1.3 156 1.1 156 0.9 Z M 156.1 3.2 L 156.6 3.2 L 156.6 9.6 L 156.1 9.6 L 156.1 3.2 Z M 162.5 3.7 C 162.5 3.7 162.5 4.2 162.5 4.2 C 162 3.9 161.4 3.6 160.6 3.6 C 159.7 3.6 159.1 4.1 159.1 4.8 C 159.1 5.5 159.7 5.8 160.8 6.1 C 161.8 6.5 162.8 6.8 162.8 7.9 C 162.8 9 161.9 9.7 160.6 9.7 C 159.9 9.7 159.1 9.5 158.5 9 C 158.5 9 158.5 8.3 158.5 8.3 C 159 8.9 159.8 9.2 160.6 9.2 C 161.6 9.2 162.3 8.7 162.3 7.9 C 162.3 7.2 161.6 6.9 160.5 6.5 C 159.5 6.2 158.6 5.9 158.6 4.8 C 158.6 3.8 159.4 3.1 160.7 3.1 C 161.3 3.1 162 3.3 162.5 3.7 Z M 165.2 3.2 L 167.1 3.2 L 167.1 3.7 L 165.2 3.7 C 165.2 3.7 165.22 7.6 165.2 7.6 C 165.2 8.8 165.9 9.2 166.8 9.2 C 166.9 9.2 167.1 9.2 167.3 9.2 C 167.3 9.2 167.3 9.6 167.3 9.6 C 167.2 9.6 167 9.7 166.7 9.7 C 165.5 9.7 164.7 9 164.7 7.6 C 164.72 7.62 164.7 3.7 164.7 3.7 L 163.7 3.7 L 163.7 3.2 L 164.7 3.2 L 164.7 1.7 L 165.2 1.7 L 165.2 3.2 Z M 168.1 6.4 C 168.1 4.4 169.5 3.1 171 3.1 C 172 3.1 173.1 3.7 173.5 4.8 C 173.52 4.82 173.6 3.2 173.6 3.2 L 174 3.2 L 174 9.6 L 173.6 9.6 C 173.6 9.6 173.52 8 173.5 8 C 173.1 9.2 172 9.7 171 9.7 C 169.5 9.7 168.1 8.4 168.1 6.4 Z M 173.5 6.4 C 173.5 4.7 172.4 3.6 171.1 3.6 C 169.7 3.6 168.6 4.7 168.6 6.4 C 168.6 8.1 169.8 9.2 171.1 9.2 C 172.4 9.2 173.5 8.1 173.5 6.4 Z M 181.1 5.4 C 181.06 5.36 181.1 9.6 181.1 9.6 L 180.6 9.6 C 180.6 9.6 180.56 5.57 180.6 5.6 C 180.6 4.3 179.9 3.6 178.7 3.6 C 177.7 3.6 176.8 4.3 176.8 5.5 C 176.77 5.51 176.8 9.6 176.8 9.6 L 176.3 9.6 L 176.3 3.2 L 176.7 3.2 L 176.7 4.4 C 176.7 4.4 176.74 4.36 176.7 4.4 C 177.1 3.6 177.9 3.1 178.8 3.1 C 180.2 3.1 181.1 4 181.1 5.4 Z M 183.9 3.2 L 185.8 3.2 L 185.8 3.7 L 183.9 3.7 C 183.9 3.7 183.88 7.6 183.9 7.6 C 183.9 8.8 184.5 9.2 185.4 9.2 C 185.6 9.2 185.8 9.2 186 9.2 C 186 9.2 186 9.6 186 9.6 C 185.9 9.6 185.6 9.7 185.4 9.7 C 184.2 9.7 183.4 9 183.4 7.6 C 183.38 7.62 183.4 3.7 183.4 3.7 L 182.4 3.7 L 182.4 3.2 L 183.4 3.2 L 183.4 1.7 L 183.9 1.7 L 183.9 3.2 Z M 192.3 6.6 C 192.3 6.6 187.3 6.6 187.3 6.6 C 187.4 8.2 188.4 9.2 189.8 9.2 C 190.6 9.2 191.4 9 192.1 8.3 C 192.1 8.3 192.1 8.9 192.1 8.9 C 191.4 9.4 190.6 9.7 189.8 9.7 C 188 9.7 186.8 8.4 186.8 6.4 C 186.8 4.4 188.2 3.1 189.7 3.1 C 191.2 3.1 192.4 4.2 192.4 6.3 C 192.4 6.4 192.4 6.5 192.3 6.6 Z M 191.9 6.1 C 191.8 4.4 190.8 3.6 189.7 3.6 C 188.5 3.6 187.4 4.6 187.3 6.1 C 187.3 6.1 191.9 6.1 191.9 6.1 Z M 197.7 3.7 C 197.7 3.7 197.7 4.2 197.7 4.2 C 197.2 3.9 196.6 3.6 195.9 3.6 C 194.9 3.6 194.3 4.1 194.3 4.8 C 194.3 5.5 195 5.8 196 6.1 C 197 6.5 198 6.8 198 7.9 C 198 9 197.2 9.7 195.9 9.7 C 195.1 9.7 194.3 9.5 193.7 9 C 193.7 9 193.7 8.3 193.7 8.3 C 194.3 8.9 195 9.2 195.9 9.2 C 196.9 9.2 197.5 8.7 197.5 7.9 C 197.5 7.2 196.8 6.9 195.8 6.5 C 194.7 6.2 193.8 5.9 193.8 4.8 C 193.8 3.8 194.7 3.1 195.9 3.1 C 196.6 3.1 197.2 3.3 197.7 3.7 Z M 199.7 8.6 C 199.7 8.64 199.7 8.2 199.7 8.2 L 200.2 8.2 C 200.2 8.2 200.2 8.63 200.2 8.6 C 200.2 9.6 199.8 10.6 199.6 11.2 C 199.6 11.2 199.2 11.2 199.2 11.2 C 199.4 10.6 199.7 9.6 199.7 8.6 Z M 208.9 9.2 C 209.4 9.2 210 9.1 210.6 8.7 C 210.6 8.7 210.6 9.3 210.6 9.3 C 210.1 9.6 209.5 9.7 208.9 9.7 C 207.1 9.7 205.8 8.3 205.8 6.4 C 205.8 4.5 207.1 3.1 208.9 3.1 C 209.4 3.1 210 3.2 210.6 3.6 C 210.6 3.6 210.6 4.1 210.6 4.1 C 210 3.7 209.4 3.6 208.8 3.6 C 207.5 3.6 206.3 4.7 206.3 6.4 C 206.3 8.1 207.5 9.2 208.9 9.2 Z M 217.3 6.6 C 217.3 6.6 212.3 6.6 212.3 6.6 C 212.4 8.2 213.4 9.2 214.8 9.2 C 215.6 9.2 216.4 9 217.1 8.3 C 217.1 8.3 217.1 8.9 217.1 8.9 C 216.4 9.4 215.6 9.7 214.8 9.7 C 213 9.7 211.8 8.4 211.8 6.4 C 211.8 4.4 213.2 3.1 214.7 3.1 C 216.1 3.1 217.3 4.2 217.3 6.3 C 217.3 6.4 217.3 6.5 217.3 6.6 Z M 216.8 6.1 C 216.8 4.4 215.8 3.6 214.7 3.6 C 213.5 3.6 212.4 4.6 212.3 6.1 C 212.3 6.1 216.8 6.1 216.8 6.1 Z M 222.7 3.7 C 222.7 3.7 222.7 4.2 222.7 4.2 C 222.2 3.9 221.6 3.6 220.9 3.6 C 219.9 3.6 219.3 4.1 219.3 4.8 C 219.3 5.5 220 5.8 221 6.1 C 222 6.5 223 6.8 223 7.9 C 223 9 222.1 9.7 220.8 9.7 C 220.1 9.7 219.3 9.5 218.7 9 C 218.7 9 218.7 8.3 218.7 8.3 C 219.3 8.9 220 9.2 220.8 9.2 C 221.9 9.2 222.5 8.7 222.5 7.9 C 222.5 7.2 221.8 6.9 220.8 6.5 C 219.7 6.2 218.8 5.9 218.8 4.8 C 218.8 3.8 219.6 3.1 220.9 3.1 C 221.6 3.1 222.2 3.3 222.7 3.7 Z M 233.8 6.6 C 233.8 6.6 228.7 6.6 228.7 6.6 C 228.8 8.2 229.8 9.2 231.3 9.2 C 232 9.2 232.9 9 233.5 8.3 C 233.5 8.3 233.5 8.9 233.5 8.9 C 232.9 9.4 232.1 9.7 231.3 9.7 C 229.5 9.7 228.2 8.4 228.2 6.4 C 228.2 4.4 229.6 3.1 231.2 3.1 C 232.6 3.1 233.8 4.2 233.8 6.3 C 233.8 6.4 233.8 6.5 233.8 6.6 Z M 233.3 6.1 C 233.3 4.4 232.2 3.6 231.2 3.6 C 230 3.6 228.8 4.6 228.7 6.1 C 228.7 6.1 233.3 6.1 233.3 6.1 Z M 240.4 5.4 C 240.38 5.36 240.4 9.6 240.4 9.6 L 239.9 9.6 C 239.9 9.6 239.88 5.57 239.9 5.6 C 239.9 4.3 239.2 3.6 238.1 3.6 C 237 3.6 236.1 4.3 236.1 5.5 C 236.1 5.51 236.1 9.6 236.1 9.6 L 235.6 9.6 L 235.6 3.2 L 236 3.2 L 236 4.4 C 236 4.4 236.06 4.36 236.1 4.4 C 236.4 3.6 237.2 3.1 238.1 3.1 C 239.5 3.1 240.4 4 240.4 5.4 Z M 245.2 9.2 C 245.7 9.2 246.4 9.1 246.9 8.7 C 246.9 8.7 246.9 9.3 246.9 9.3 C 246.4 9.6 245.8 9.7 245.2 9.7 C 243.5 9.7 242.1 8.3 242.1 6.4 C 242.1 4.5 243.5 3.1 245.2 3.1 C 245.8 3.1 246.4 3.2 246.9 3.6 C 246.9 3.6 246.9 4.1 246.9 4.1 C 246.4 3.7 245.8 3.6 245.2 3.6 C 243.8 3.6 242.6 4.7 242.6 6.4 C 242.6 8.1 243.9 9.2 245.2 9.2 Z M 253.7 6.6 C 253.7 6.6 248.6 6.6 248.6 6.6 C 248.7 8.2 249.7 9.2 251.2 9.2 C 251.9 9.2 252.7 9 253.4 8.3 C 253.4 8.3 253.4 8.9 253.4 8.9 C 252.8 9.4 252 9.7 251.1 9.7 C 249.3 9.7 248.1 8.4 248.1 6.4 C 248.1 4.4 249.5 3.1 251.1 3.1 C 252.5 3.1 253.7 4.2 253.7 6.3 C 253.7 6.4 253.7 6.5 253.7 6.6 Z M 253.2 6.1 C 253.2 4.4 252.1 3.6 251.1 3.6 C 249.8 3.6 248.7 4.6 248.6 6.1 C 248.6 6.1 253.2 6.1 253.2 6.1 Z M 255.4 0.9 C 255.4 0.7 255.5 0.5 255.8 0.5 C 256 0.5 256.2 0.7 256.2 0.9 C 256.2 1.1 256 1.3 255.8 1.3 C 255.5 1.3 255.4 1.1 255.4 0.9 Z M 255.5 3.2 L 256 3.2 L 256 9.6 L 255.5 9.6 L 255.5 3.2 Z M 263.1 5.4 C 263.12 5.36 263.1 9.6 263.1 9.6 L 262.6 9.6 C 262.6 9.6 262.62 5.57 262.6 5.6 C 262.6 4.3 262 3.6 260.8 3.6 C 259.7 3.6 258.8 4.3 258.8 5.5 C 258.84 5.51 258.8 9.6 258.8 9.6 L 258.3 9.6 L 258.3 3.2 L 258.7 3.2 L 258.8 4.4 C 258.8 4.4 258.8 4.36 258.8 4.4 C 259.1 3.6 259.9 3.1 260.9 3.1 C 262.2 3.1 263.1 4 263.1 5.4 Z M 265.9 3.2 L 267.8 3.2 L 267.8 3.7 L 265.9 3.7 C 265.9 3.7 265.94 7.6 265.9 7.6 C 265.9 8.8 266.6 9.2 267.5 9.2 C 267.7 9.2 267.8 9.2 268 9.2 C 268 9.2 268 9.6 268 9.6 C 267.9 9.6 267.7 9.7 267.4 9.7 C 266.3 9.7 265.4 9 265.4 7.6 C 265.44 7.62 265.4 3.7 265.4 3.7 L 264.5 3.7 L 264.5 3.2 L 265.5 3.2 L 265.5 1.7 L 265.9 1.7 L 265.9 3.2 Z M 274.4 6.6 C 274.4 6.6 269.3 6.6 269.3 6.6 C 269.4 8.2 270.5 9.2 271.9 9.2 C 272.7 9.2 273.5 9 274.2 8.3 C 274.2 8.3 274.2 8.9 274.2 8.9 C 273.5 9.4 272.7 9.7 271.9 9.7 C 270.1 9.7 268.8 8.4 268.8 6.4 C 268.8 4.4 270.3 3.1 271.8 3.1 C 273.2 3.1 274.4 4.2 274.4 6.3 C 274.4 6.4 274.4 6.5 274.4 6.6 Z M 273.9 6.1 C 273.9 4.4 272.9 3.6 271.8 3.6 C 270.6 3.6 269.5 4.6 269.4 6.1 C 269.4 6.1 273.9 6.1 273.9 6.1 Z M 279.8 3.7 C 279.8 3.7 279.8 4.2 279.8 4.2 C 279.3 3.9 278.7 3.6 278 3.6 C 277 3.6 276.4 4.1 276.4 4.8 C 276.4 5.5 277.1 5.8 278.1 6.1 C 279.1 6.5 280.1 6.8 280.1 7.9 C 280.1 9 279.2 9.7 277.9 9.7 C 277.2 9.7 276.4 9.5 275.8 9 C 275.8 9 275.8 8.3 275.8 8.3 C 276.3 8.9 277.1 9.2 277.9 9.2 C 278.9 9.2 279.6 8.7 279.6 7.9 C 279.6 7.2 278.9 6.9 277.8 6.5 C 276.8 6.2 275.9 5.9 275.9 4.8 C 275.9 3.8 276.7 3.1 278 3.1 C 278.6 3.1 279.3 3.3 279.8 3.7 Z M 288.4 9.2 C 288.9 9.2 289.5 9.1 290.1 8.7 C 290.1 8.7 290.1 9.3 290.1 9.3 C 289.6 9.6 289 9.7 288.4 9.7 C 286.6 9.7 285.3 8.3 285.3 6.4 C 285.3 4.5 286.6 3.1 288.4 3.1 C 288.9 3.1 289.5 3.2 290.1 3.6 C 290.1 3.6 290.1 4.1 290.1 4.1 C 289.5 3.7 288.9 3.6 288.3 3.6 C 287 3.6 285.8 4.7 285.8 6.4 C 285.8 8.1 287 9.2 288.4 9.2 Z M 291.8 0.9 C 291.8 0.7 291.9 0.5 292.1 0.5 C 292.4 0.5 292.6 0.7 292.6 0.9 C 292.6 1.1 292.4 1.3 292.1 1.3 C 291.9 1.3 291.8 1.1 291.8 0.9 Z M 291.9 3.2 L 292.4 3.2 L 292.4 9.6 L 291.9 9.6 L 291.9 3.2 Z M 294.7 3.2 L 295.1 3.2 L 295.2 4.4 C 295.2 4.4 295.18 4.42 295.2 4.4 C 295.6 3.5 296.4 3.2 297.1 3.2 C 297.2 3.2 297.3 3.2 297.5 3.2 C 297.5 3.2 297.5 3.7 297.5 3.7 C 297.3 3.7 297.2 3.7 297.1 3.7 C 296.2 3.7 295.2 4.3 295.2 5.6 C 295.22 5.57 295.2 9.6 295.2 9.6 L 294.7 9.6 L 294.7 3.2 Z M 301.1 9.2 C 301.6 9.2 302.3 9.1 302.8 8.7 C 302.8 8.7 302.8 9.3 302.8 9.3 C 302.3 9.6 301.7 9.7 301.1 9.7 C 299.4 9.7 298 8.3 298 6.4 C 298 4.5 299.4 3.1 301.1 3.1 C 301.7 3.1 302.3 3.2 302.8 3.6 C 302.8 3.6 302.8 4.1 302.8 4.1 C 302.3 3.7 301.7 3.6 301.1 3.6 C 299.7 3.6 298.5 4.7 298.5 6.4 C 298.5 8.1 299.8 9.2 301.1 9.2 Z M 304.5 7.3 C 304.51 7.28 304.5 3.2 304.5 3.2 L 305 3.2 C 305 3.2 305.01 7.31 305 7.3 C 305 8.5 305.7 9.2 306.9 9.2 C 308.1 9.2 308.8 8.5 308.8 7.3 C 308.8 7.3 308.8 3.2 308.8 3.2 L 309.3 3.2 C 309.3 3.2 309.31 7.27 309.3 7.3 C 309.3 8.7 308.4 9.7 306.9 9.7 C 305.4 9.7 304.5 8.7 304.5 7.3 Z M 311.5 0.1 L 312 0.1 L 312 9.6 L 311.5 9.6 L 311.5 0.1 Z M 313.9 6.4 C 313.9 4.4 315.3 3.1 316.8 3.1 C 317.8 3.1 318.8 3.7 319.3 4.8 C 319.32 4.82 319.4 3.2 319.4 3.2 L 319.8 3.2 L 319.8 9.6 L 319.4 9.6 C 319.4 9.6 319.32 8 319.3 8 C 318.8 9.2 317.8 9.7 316.8 9.7 C 315.3 9.7 313.9 8.4 313.9 6.4 Z M 319.3 6.4 C 319.3 4.7 318.2 3.6 316.9 3.6 C 315.5 3.6 314.4 4.7 314.4 6.4 C 314.4 8.1 315.5 9.2 316.9 9.2 C 318.2 9.2 319.3 8.1 319.3 6.4 Z M 322 0.9 C 322 0.7 322.1 0.5 322.4 0.5 C 322.6 0.5 322.8 0.7 322.8 0.9 C 322.8 1.1 322.6 1.3 322.4 1.3 C 322.1 1.3 322 1.1 322 0.9 Z M 322.1 3.2 L 322.6 3.2 L 322.6 9.6 L 322.1 9.6 L 322.1 3.2 Z M 324.9 3.2 L 325.3 3.2 L 325.4 4.4 C 325.4 4.4 325.39 4.42 325.4 4.4 C 325.8 3.5 326.6 3.2 327.3 3.2 C 327.4 3.2 327.5 3.2 327.7 3.2 C 327.7 3.2 327.7 3.7 327.7 3.7 C 327.5 3.7 327.4 3.7 327.3 3.7 C 326.4 3.7 325.4 4.3 325.4 5.6 C 325.42 5.57 325.4 9.6 325.4 9.6 L 324.9 9.6 L 324.9 3.2 Z M 333.8 6.6 C 333.8 6.6 328.7 6.6 328.7 6.6 C 328.8 8.2 329.9 9.2 331.3 9.2 C 332.1 9.2 332.9 9 333.6 8.3 C 333.6 8.3 333.6 8.9 333.6 8.9 C 332.9 9.4 332.1 9.7 331.3 9.7 C 329.5 9.7 328.2 8.4 328.2 6.4 C 328.2 4.4 329.6 3.1 331.2 3.1 C 332.6 3.1 333.8 4.2 333.8 6.3 C 333.8 6.4 333.8 6.5 333.8 6.6 Z M 333.3 6.1 C 333.3 4.4 332.3 3.6 331.2 3.6 C 330 3.6 328.9 4.6 328.7 6.1 C 328.7 6.1 333.3 6.1 333.3 6.1 Z M 339.2 3.7 C 339.2 3.7 339.2 4.2 339.2 4.2 C 338.7 3.9 338 3.6 337.3 3.6 C 336.4 3.6 335.8 4.1 335.8 4.8 C 335.8 5.5 336.4 5.8 337.4 6.1 C 338.5 6.5 339.5 6.8 339.5 7.9 C 339.5 9 338.6 9.7 337.3 9.7 C 336.6 9.7 335.8 9.5 335.2 9 C 335.2 9 335.2 8.3 335.2 8.3 C 335.7 8.9 336.5 9.2 337.3 9.2 C 338.3 9.2 339 8.7 339 7.9 C 339 7.2 338.3 6.9 337.2 6.5 C 336.2 6.2 335.3 5.9 335.3 4.8 C 335.3 3.8 336.1 3.1 337.4 3.1 C 338 3.1 338.7 3.3 339.2 3.7 Z " stroke="none" fill="#000"/>
  </g>
</svg>