<?xml version="1.0" standalone="no"?>
<!DOCTYPE svg PUBLIC "-//W3C//DTD SVG 1.1//EN" "http://www.w3.org/Graphics/SVG/1.1/DTD/svg11.dtd">
<svg xmlns="http://www.w3.org/2000/svg" version="1.1" width="162px" height="221.4px" viewBox="0 0 162 221.4">
  <desc>Le principe de ce bureau est de pouvoir changer son environnement de travail la maison Pour cela, deux parois peuv</desc>
  <defs/>
  <g id="Polygon29962">
    <path d="M 0.7 150.4 C 0.7 148.4 2.1 147.1 3.6 147.1 C 4.6 147.1 5.6 147.7 6.1 148.8 C 6.07 148.78 6.1 144.1 6.1 144.1 L 6.6 144.1 L 6.6 153.6 L 6.2 153.6 L 6.1 152 C 6.1 152 6.1 151.99 6.1 152 C 5.6 153.2 4.6 153.7 3.6 153.7 C 2.1 153.7 0.7 152.4 0.7 150.4 Z M 6.1 150.4 C 6.1 148.7 5 147.6 3.6 147.6 C 2.3 147.6 1.2 148.7 1.2 150.4 C 1.2 152.1 2.3 153.2 3.6 153.2 C 5 153.2 6.1 152.1 6.1 150.4 Z M 14 150.6 C 14 150.6 8.9 150.6 8.9 150.6 C 9 152.2 10 153.2 11.5 153.2 C 12.2 153.2 13.1 153 13.7 152.3 C 13.7 152.3 13.7 152.9 13.7 152.9 C 13.1 153.4 12.3 153.7 11.4 153.7 C 9.7 153.7 8.4 152.4 8.4 150.4 C 8.4 148.4 9.8 147.1 11.4 147.1 C 12.8 147.1 14 148.2 14 150.3 C 14 150.4 14 150.5 14 150.6 Z M 13.5 150.1 C 13.5 148.4 12.4 147.6 11.4 147.6 C 10.2 147.6 9 148.6 8.9 150.1 C 8.9 150.1 13.5 150.1 13.5 150.1 Z M 19.3 144.1 L 19.8 144.1 L 19.8 153.6 L 19.3 153.6 L 19.3 144.1 Z M 22 151.3 C 22.03 151.28 22 147.2 22 147.2 L 22.5 147.2 C 22.5 147.2 22.53 151.31 22.5 151.3 C 22.5 152.5 23.3 153.2 24.4 153.2 C 25.6 153.2 26.3 152.5 26.3 151.3 C 26.33 151.3 26.3 147.2 26.3 147.2 L 26.8 147.2 C 26.8 147.2 26.83 151.27 26.8 151.3 C 26.8 152.7 25.9 153.7 24.4 153.7 C 22.9 153.7 22 152.7 22 151.3 Z M 36.8 149.3 C 36.75 149.28 36.8 153.6 36.8 153.6 L 36.3 153.6 C 36.3 153.6 36.25 149.33 36.3 149.3 C 36.3 148.3 35.8 147.6 34.8 147.6 C 33.8 147.6 33.1 148.4 33.1 149.3 C 33.14 149.34 33.1 153.6 33.1 153.6 L 32.6 153.6 C 32.6 153.6 32.64 149.33 32.6 149.3 C 32.6 148.3 32.1 147.6 31.1 147.6 C 30.1 147.6 29.5 148.4 29.5 149.4 C 29.53 149.36 29.5 153.6 29.5 153.6 L 29 153.6 L 29 147.2 L 29.4 147.2 L 29.5 148.3 C 29.5 148.3 29.49 148.28 29.5 148.3 C 29.8 147.6 30.4 147.1 31.2 147.1 C 32.2 147.1 32.7 147.6 33 148.4 C 33.3 147.6 33.9 147.1 34.8 147.1 C 36.1 147.1 36.8 148 36.8 149.3 Z M 38.9 144.9 C 38.9 144.7 39 144.5 39.3 144.5 C 39.5 144.5 39.7 144.7 39.7 144.9 C 39.7 145.1 39.5 145.3 39.3 145.3 C 39 145.3 38.9 145.1 38.9 144.9 Z M 39 147.2 L 39.5 147.2 L 39.5 153.6 L 39 153.6 L 39 147.2 Z M 44.5 146.1 L 43 144.2 L 43.6 144.2 L 45 146.1 L 44.5 146.1 Z M 46.9 150.6 C 46.9 150.6 41.9 150.6 41.9 150.6 C 42 152.2 43 153.2 44.4 153.2 C 45.2 153.2 46 153 46.7 152.3 C 46.7 152.3 46.7 152.9 46.7 152.9 C 46 153.4 45.2 153.7 44.4 153.7 C 42.6 153.7 41.4 152.4 41.4 150.4 C 41.4 148.4 42.8 147.1 44.3 147.1 C 45.7 147.1 47 148.2 47 150.3 C 47 150.4 46.9 150.5 46.9 150.6 Z M 46.5 150.1 C 46.4 148.4 45.4 147.6 44.3 147.6 C 43.1 147.6 42 148.6 41.9 150.1 C 41.9 150.1 46.5 150.1 46.5 150.1 Z M 48.8 147.2 L 49.2 147.2 L 49.2 148.4 C 49.2 148.4 49.22 148.42 49.2 148.4 C 49.6 147.5 50.5 147.2 51.1 147.2 C 51.2 147.2 51.4 147.2 51.5 147.2 C 51.5 147.2 51.5 147.7 51.5 147.7 C 51.4 147.7 51.2 147.7 51.1 147.7 C 50.2 147.7 49.3 148.3 49.3 149.6 C 49.26 149.57 49.3 153.6 49.3 153.6 L 48.8 153.6 L 48.8 147.2 Z M 57.6 150.6 C 57.6 150.6 52.6 150.6 52.6 150.6 C 52.7 152.2 53.7 153.2 55.1 153.2 C 55.9 153.2 56.7 153 57.4 152.3 C 57.4 152.3 57.4 152.9 57.4 152.9 C 56.7 153.4 55.9 153.7 55.1 153.7 C 53.3 153.7 52.1 152.4 52.1 150.4 C 52.1 148.4 53.5 147.1 55 147.1 C 56.4 147.1 57.6 148.2 57.6 150.3 C 57.6 150.4 57.6 150.5 57.6 150.6 Z M 57.1 150.1 C 57.1 148.4 56.1 147.6 55 147.6 C 53.8 147.6 52.7 148.6 52.6 150.1 C 52.6 150.1 57.1 150.1 57.1 150.1 Z M 59.2 153.2 C 59.2 152.9 59.4 152.7 59.7 152.7 C 60 152.7 60.2 152.9 60.2 153.2 C 60.2 153.4 60 153.6 59.7 153.6 C 59.4 153.6 59.2 153.4 59.2 153.2 Z " stroke="none" fill="#000"/>
  </g>
  <g id="Polygon29961">
    <path d="M 1.1 132.8 L 1.5 132.8 C 1.5 132.8 1.61 134.44 1.6 134.4 C 2.1 133.3 3.1 132.7 4.1 132.7 C 5.6 132.7 7 134 7 136 C 7 138 5.6 139.3 4.1 139.3 C 3.1 139.3 2.1 138.7 1.6 137.7 C 1.64 137.65 1.6 141.8 1.6 141.8 L 1.1 141.8 L 1.1 132.8 Z M 6.5 136 C 6.5 134.3 5.4 133.2 4.1 133.2 C 2.7 133.2 1.6 134.3 1.6 136 C 1.6 137.7 2.8 138.8 4.1 138.8 C 5.4 138.8 6.5 137.7 6.5 136 Z M 8.9 129.7 L 9.4 129.7 L 9.4 139.2 L 8.9 139.2 L 8.9 129.7 Z M 11.6 136.9 C 11.63 136.88 11.6 132.8 11.6 132.8 L 12.1 132.8 C 12.1 132.8 12.13 136.91 12.1 136.9 C 12.1 138.1 12.9 138.8 14 138.8 C 15.2 138.8 15.9 138.1 15.9 136.9 C 15.92 136.9 15.9 132.8 15.9 132.8 L 16.4 132.8 C 16.4 132.8 16.43 136.87 16.4 136.9 C 16.4 138.3 15.5 139.3 14 139.3 C 12.5 139.3 11.6 138.3 11.6 136.9 Z M 22.2 133.3 C 22.2 133.3 22.2 133.8 22.2 133.8 C 21.7 133.5 21.1 133.2 20.4 133.2 C 19.4 133.2 18.8 133.7 18.8 134.4 C 18.8 135.1 19.5 135.4 20.5 135.7 C 21.5 136.1 22.5 136.4 22.5 137.5 C 22.5 138.6 21.6 139.3 20.3 139.3 C 19.6 139.3 18.8 139.1 18.2 138.6 C 18.2 138.6 18.2 137.9 18.2 137.9 C 18.7 138.5 19.5 138.8 20.3 138.8 C 21.3 138.8 22 138.3 22 137.5 C 22 136.8 21.3 136.5 20.2 136.1 C 19.2 135.8 18.3 135.5 18.3 134.4 C 18.3 133.4 19.1 132.7 20.4 132.7 C 21 132.7 21.7 132.9 22.2 133.3 Z M 30.6 136 C 30.6 134.1 31.9 132.7 33.6 132.7 C 35.3 132.7 36.7 134.1 36.7 136 C 36.7 138 35.3 139.3 33.6 139.3 C 32 139.3 30.6 138 30.6 136 Z M 36.2 136 C 36.2 134.2 34.9 133.2 33.6 133.2 C 32.3 133.2 31.1 134.2 31.1 136 C 31.1 137.8 32.3 138.8 33.6 138.8 C 34.9 138.8 36.2 137.8 36.2 136 Z M 38.4 136.9 C 38.4 136.88 38.4 132.8 38.4 132.8 L 38.9 132.8 C 38.9 132.8 38.9 136.91 38.9 136.9 C 38.9 138.1 39.6 138.8 40.8 138.8 C 42 138.8 42.7 138.1 42.7 136.9 C 42.7 136.9 42.7 132.8 42.7 132.8 L 43.2 132.8 C 43.2 132.8 43.2 136.87 43.2 136.9 C 43.2 138.3 42.3 139.3 40.8 139.3 C 39.3 139.3 38.4 138.3 38.4 136.9 Z M 44.7 132.8 L 45.2 132.8 L 47.3 138.6 L 47.3 138.6 L 49.4 132.8 L 49.9 132.8 L 47.6 139.2 L 47 139.2 L 44.7 132.8 Z M 56.4 136.2 C 56.4 136.2 51.3 136.2 51.3 136.2 C 51.4 137.8 52.4 138.8 53.9 138.8 C 54.6 138.8 55.5 138.6 56.1 137.9 C 56.1 137.9 56.1 138.5 56.1 138.5 C 55.5 139 54.7 139.3 53.9 139.3 C 52.1 139.3 50.8 138 50.8 136 C 50.8 134 52.2 132.7 53.8 132.7 C 55.2 132.7 56.4 133.8 56.4 135.9 C 56.4 136 56.4 136.1 56.4 136.2 Z M 55.9 135.7 C 55.9 134 54.9 133.2 53.8 133.2 C 52.6 133.2 51.4 134.2 51.3 135.7 C 51.3 135.7 55.9 135.7 55.9 135.7 Z M 58.2 132.8 L 58.6 132.8 L 58.7 134 C 58.7 134 58.67 134.02 58.7 134 C 59 133.1 59.9 132.8 60.5 132.8 C 60.7 132.8 60.8 132.8 60.9 132.8 C 60.9 132.8 60.9 133.3 60.9 133.3 C 60.8 133.3 60.7 133.3 60.5 133.3 C 59.6 133.3 58.7 133.9 58.7 135.2 C 58.7 135.17 58.7 139.2 58.7 139.2 L 58.2 139.2 L 58.2 132.8 Z M 62.9 132.8 L 64.8 132.8 L 64.8 133.3 L 62.9 133.3 C 62.9 133.3 62.95 137.2 62.9 137.2 C 62.9 138.4 63.6 138.8 64.5 138.8 C 64.7 138.8 64.8 138.8 65 138.8 C 65 138.8 65 139.2 65 139.2 C 65 139.2 64.7 139.3 64.4 139.3 C 63.3 139.3 62.4 138.6 62.4 137.2 C 62.45 137.22 62.4 133.3 62.4 133.3 L 61.5 133.3 L 61.5 132.8 L 62.5 132.8 L 62.5 131.3 L 62.9 131.3 L 62.9 132.8 Z M 71.4 136.2 C 71.4 136.2 66.4 136.2 66.4 136.2 C 66.4 137.8 67.5 138.8 68.9 138.8 C 69.7 138.8 70.5 138.6 71.2 137.9 C 71.2 137.9 71.2 138.5 71.2 138.5 C 70.5 139 69.7 139.3 68.9 139.3 C 67.1 139.3 65.9 138 65.9 136 C 65.9 134 67.3 132.7 68.8 132.7 C 70.2 132.7 71.4 133.8 71.4 135.9 C 71.4 136 71.4 136.1 71.4 136.2 Z M 70.9 135.7 C 70.9 134 69.9 133.2 68.8 133.2 C 67.6 133.2 66.5 134.2 66.4 135.7 C 66.4 135.7 70.9 135.7 70.9 135.7 Z M 73.2 138.2 C 73.15 138.24 73.2 137.8 73.2 137.8 L 73.7 137.8 C 73.7 137.8 73.65 138.23 73.7 138.2 C 73.7 139.2 73.3 140.2 73 140.8 C 73 140.8 72.6 140.8 72.6 140.8 C 72.8 140.2 73.2 139.2 73.2 138.2 Z M 82.1 136 C 82.1 134 83.5 132.7 85 132.7 C 86.1 132.7 87.1 133.3 87.5 134.4 C 87.55 134.42 87.6 132.8 87.6 132.8 L 88 132.8 L 88 139.2 L 87.6 139.2 C 87.6 139.2 87.55 137.6 87.5 137.6 C 87.1 138.8 86.1 139.3 85.1 139.3 C 83.5 139.3 82.1 138 82.1 136 Z M 87.5 136 C 87.5 134.3 86.4 133.2 85.1 133.2 C 83.8 133.2 82.6 134.3 82.6 136 C 82.6 137.7 83.8 138.8 85.1 138.8 C 86.4 138.8 87.5 137.7 87.5 136 Z M 98 134.9 C 98.02 134.88 98 139.2 98 139.2 L 97.5 139.2 C 97.5 139.2 97.52 134.93 97.5 134.9 C 97.5 133.9 97 133.2 96 133.2 C 95 133.2 94.4 134 94.4 134.9 C 94.41 134.94 94.4 139.2 94.4 139.2 L 93.9 139.2 C 93.9 139.2 93.91 134.93 93.9 134.9 C 93.9 133.9 93.4 133.2 92.4 133.2 C 91.4 133.2 90.8 134 90.8 135 C 90.8 134.96 90.8 139.2 90.8 139.2 L 90.3 139.2 L 90.3 132.8 L 90.7 132.8 L 90.8 133.9 C 90.8 133.9 90.76 133.88 90.8 133.9 C 91 133.2 91.7 132.7 92.5 132.7 C 93.4 132.7 94 133.2 94.3 134 C 94.5 133.2 95.2 132.7 96.1 132.7 C 97.4 132.7 98 133.6 98 134.9 Z M 105.3 136.2 C 105.3 136.2 100.3 136.2 100.3 136.2 C 100.4 137.8 101.4 138.8 102.8 138.8 C 103.6 138.8 104.4 138.6 105.1 137.9 C 105.1 137.9 105.1 138.5 105.1 138.5 C 104.4 139 103.7 139.3 102.8 139.3 C 101 139.3 99.8 138 99.8 136 C 99.8 134 101.2 132.7 102.7 132.7 C 104.2 132.7 105.4 133.8 105.4 135.9 C 105.4 136 105.4 136.1 105.3 136.2 Z M 104.9 135.7 C 104.8 134 103.8 133.2 102.7 133.2 C 101.5 133.2 100.4 134.2 100.3 135.7 C 100.3 135.7 104.9 135.7 104.9 135.7 Z M 112 135 C 111.96 134.96 112 139.2 112 139.2 L 111.5 139.2 C 111.5 139.2 111.45 135.17 111.5 135.2 C 111.5 133.9 110.8 133.2 109.6 133.2 C 108.6 133.2 107.7 133.9 107.7 135.1 C 107.67 135.11 107.7 139.2 107.7 139.2 L 107.2 139.2 L 107.2 132.8 L 107.6 132.8 L 107.6 134 C 107.6 134 107.64 133.96 107.6 134 C 108 133.2 108.8 132.7 109.7 132.7 C 111.1 132.7 112 133.6 112 135 Z M 113.7 136 C 113.7 134 115.1 132.7 116.6 132.7 C 117.6 132.7 118.6 133.3 119.1 134.4 C 119.11 134.42 119.2 132.8 119.2 132.8 L 119.6 132.8 L 119.6 139.2 L 119.2 139.2 C 119.2 139.2 119.11 137.6 119.1 137.6 C 118.6 138.8 117.6 139.3 116.6 139.3 C 115.1 139.3 113.7 138 113.7 136 Z M 119.1 136 C 119.1 134.3 118 133.2 116.6 133.2 C 115.3 133.2 114.2 134.3 114.2 136 C 114.2 137.7 115.3 138.8 116.7 138.8 C 118 138.8 119.1 137.7 119.1 136 Z M 126.6 135 C 126.64 134.96 126.6 139.2 126.6 139.2 L 126.1 139.2 C 126.1 139.2 126.14 135.17 126.1 135.2 C 126.1 133.9 125.5 133.2 124.3 133.2 C 123.2 133.2 122.4 133.9 122.4 135.1 C 122.36 135.11 122.4 139.2 122.4 139.2 L 121.9 139.2 L 121.9 132.8 L 122.3 132.8 L 122.3 134 C 122.3 134 122.32 133.96 122.3 134 C 122.7 133.2 123.4 132.7 124.4 132.7 C 125.8 132.7 126.6 133.6 126.6 135 Z M 129.5 132.8 L 131.4 132.8 L 131.4 133.3 L 129.5 133.3 C 129.5 133.3 129.46 137.2 129.5 137.2 C 129.5 138.4 130.1 138.8 131 138.8 C 131.2 138.8 131.3 138.8 131.5 138.8 C 131.5 138.8 131.5 139.2 131.5 139.2 C 131.5 139.2 131.2 139.3 130.9 139.3 C 129.8 139.3 129 138.6 129 137.2 C 128.96 137.22 129 133.3 129 133.3 L 128 133.3 L 128 132.8 L 129 132.8 L 129 131.3 L 129.5 131.3 L 129.5 132.8 Z M 139.6 132.8 L 140 132.8 C 140 132.8 140.08 134.44 140.1 134.4 C 140.6 133.3 141.6 132.7 142.6 132.7 C 144.1 132.7 145.5 134 145.5 136 C 145.5 138 144.1 139.3 142.6 139.3 C 141.6 139.3 140.6 138.7 140.1 137.7 C 140.12 137.65 140.1 141.8 140.1 141.8 L 139.6 141.8 L 139.6 132.8 Z M 145 136 C 145 134.3 143.9 133.2 142.6 133.2 C 141.2 133.2 140.1 134.3 140.1 136 C 140.1 137.7 141.2 138.8 142.5 138.8 C 143.9 138.8 145 137.7 145 136 Z M 147.4 129.7 L 147.9 129.7 L 147.9 139.2 L 147.4 139.2 L 147.4 129.7 Z M 150.1 136.9 C 150.1 136.88 150.1 132.8 150.1 132.8 L 150.6 132.8 C 150.6 132.8 150.61 136.91 150.6 136.9 C 150.6 138.1 151.3 138.8 152.5 138.8 C 153.7 138.8 154.4 138.1 154.4 136.9 C 154.4 136.9 154.4 132.8 154.4 132.8 L 154.9 132.8 C 154.9 132.8 154.9 136.87 154.9 136.9 C 154.9 138.3 154 139.3 152.5 139.3 C 151 139.3 150.1 138.3 150.1 136.9 Z M 160.7 133.3 C 160.7 133.3 160.7 133.8 160.7 133.8 C 160.1 133.5 159.5 133.2 158.8 133.2 C 157.9 133.2 157.3 133.7 157.3 134.4 C 157.3 135.1 157.9 135.4 158.9 135.7 C 160 136.1 161 136.4 161 137.5 C 161 138.6 160.1 139.3 158.8 139.3 C 158 139.3 157.3 139.1 156.7 138.6 C 156.7 138.6 156.7 137.9 156.7 137.9 C 157.2 138.5 158 138.8 158.8 138.8 C 159.8 138.8 160.5 138.3 160.5 137.5 C 160.5 136.8 159.7 136.5 158.7 136.1 C 157.7 135.8 156.8 135.5 156.8 134.4 C 156.8 133.4 157.6 132.7 158.8 132.7 C 159.5 132.7 160.2 132.9 160.7 133.3 Z " stroke="none" fill="#000"/>
  </g>
  <g id="Polygon29960">
    <path d="M 1.8 118.4 L 3.7 118.4 L 3.7 118.9 L 1.8 118.9 C 1.8 118.9 1.82 122.8 1.8 122.8 C 1.8 124 2.5 124.4 3.4 124.4 C 3.5 124.4 3.7 124.4 3.9 124.4 C 3.9 124.4 3.9 124.8 3.9 124.8 C 3.8 124.8 3.6 124.9 3.3 124.9 C 2.1 124.9 1.3 124.2 1.3 122.8 C 1.32 122.82 1.3 118.9 1.3 118.9 L 0.3 118.9 L 0.3 118.4 L 1.3 118.4 L 1.3 116.9 L 1.8 116.9 L 1.8 118.4 Z M 5.3 118.4 L 5.7 118.4 L 5.7 119.6 C 5.7 119.6 5.72 119.62 5.7 119.6 C 6.1 118.7 7 118.4 7.6 118.4 C 7.7 118.4 7.9 118.4 8 118.4 C 8 118.4 8 118.9 8 118.9 C 7.9 118.9 7.7 118.9 7.6 118.9 C 6.7 118.9 5.8 119.5 5.8 120.8 C 5.76 120.77 5.8 124.8 5.8 124.8 L 5.3 124.8 L 5.3 118.4 Z M 8.6 121.6 C 8.6 119.6 10 118.3 11.5 118.3 C 12.5 118.3 13.5 118.9 14 120 C 13.97 120.02 14 118.4 14 118.4 L 14.4 118.4 L 14.4 124.8 L 14 124.8 C 14 124.8 13.97 123.2 14 123.2 C 13.5 124.4 12.5 124.9 11.5 124.9 C 10 124.9 8.6 123.6 8.6 121.6 Z M 14 121.6 C 14 119.9 12.8 118.8 11.5 118.8 C 10.2 118.8 9.1 119.9 9.1 121.6 C 9.1 123.3 10.2 124.4 11.5 124.4 C 12.8 124.4 14 123.3 14 121.6 Z M 17.4 118.4 L 19.3 118.4 L 19.3 118.9 L 17.4 118.9 C 17.4 118.9 17.4 122.8 17.4 122.8 C 17.4 124 18 124.4 18.9 124.4 C 19.1 124.4 19.3 124.4 19.5 124.4 C 19.5 124.4 19.5 124.8 19.5 124.8 C 19.4 124.8 19.2 124.9 18.9 124.9 C 17.7 124.9 16.9 124.2 16.9 122.8 C 16.9 122.82 16.9 118.9 16.9 118.9 L 15.9 118.9 L 15.9 118.4 L 16.9 118.4 L 16.9 116.9 L 17.4 116.9 L 17.4 118.4 Z M 20.7 116.1 C 20.7 115.9 20.9 115.7 21.1 115.7 C 21.4 115.7 21.5 115.9 21.5 116.1 C 21.5 116.3 21.4 116.5 21.1 116.5 C 20.9 116.5 20.7 116.3 20.7 116.1 Z M 20.9 118.4 L 21.4 118.4 L 21.4 124.8 L 20.9 124.8 L 20.9 118.4 Z M 23.2 121.6 C 23.2 119.7 24.6 118.3 26.3 118.3 C 27.9 118.3 29.3 119.7 29.3 121.6 C 29.3 123.6 27.9 124.9 26.3 124.9 C 24.6 124.9 23.2 123.6 23.2 121.6 Z M 28.8 121.6 C 28.8 119.8 27.6 118.8 26.3 118.8 C 25 118.8 23.7 119.8 23.7 121.6 C 23.7 123.4 25 124.4 26.3 124.4 C 27.6 124.4 28.8 123.4 28.8 121.6 Z M 35.9 120.6 C 35.93 120.56 35.9 124.8 35.9 124.8 L 35.4 124.8 C 35.4 124.8 35.42 120.77 35.4 120.8 C 35.4 119.5 34.8 118.8 33.6 118.8 C 32.5 118.8 31.6 119.5 31.6 120.7 C 31.64 120.71 31.6 124.8 31.6 124.8 L 31.1 124.8 L 31.1 118.4 L 31.5 118.4 L 31.6 119.6 C 31.6 119.6 31.61 119.56 31.6 119.6 C 32 118.8 32.7 118.3 33.7 118.3 C 35 118.3 35.9 119.2 35.9 120.6 Z M 38 123.8 C 38.04 123.84 38 123.4 38 123.4 L 38.5 123.4 C 38.5 123.4 38.54 123.83 38.5 123.8 C 38.5 124.8 38.1 125.8 37.9 126.4 C 37.9 126.4 37.5 126.4 37.5 126.4 C 37.7 125.8 38 124.8 38 123.8 Z M 49.3 118.9 C 49.3 118.9 49.3 119.4 49.3 119.4 C 48.8 119.1 48.2 118.8 47.5 118.8 C 46.5 118.8 45.9 119.3 45.9 120 C 45.9 120.7 46.6 121 47.6 121.3 C 48.6 121.7 49.6 122 49.6 123.1 C 49.6 124.2 48.7 124.9 47.4 124.9 C 46.7 124.9 45.9 124.7 45.3 124.2 C 45.3 124.2 45.3 123.5 45.3 123.5 C 45.8 124.1 46.6 124.4 47.4 124.4 C 48.4 124.4 49.1 123.9 49.1 123.1 C 49.1 122.4 48.4 122.1 47.3 121.7 C 46.3 121.4 45.4 121.1 45.4 120 C 45.4 119 46.2 118.3 47.5 118.3 C 48.1 118.3 48.8 118.5 49.3 118.9 Z M 50.9 121.6 C 50.9 119.7 52.3 118.3 53.9 118.3 C 55.6 118.3 57 119.7 57 121.6 C 57 123.6 55.6 124.9 53.9 124.9 C 52.3 124.9 50.9 123.6 50.9 121.6 Z M 56.5 121.6 C 56.5 119.8 55.2 118.8 53.9 118.8 C 52.6 118.8 51.4 119.8 51.4 121.6 C 51.4 123.4 52.6 124.4 53.9 124.4 C 55.2 124.4 56.5 123.4 56.5 121.6 Z M 58.7 116.1 C 58.7 115.9 58.9 115.7 59.1 115.7 C 59.3 115.7 59.5 115.9 59.5 116.1 C 59.5 116.3 59.3 116.5 59.1 116.5 C 58.9 116.5 58.7 116.3 58.7 116.1 Z M 58.8 118.4 L 59.3 118.4 L 59.3 124.8 L 58.8 124.8 L 58.8 118.4 Z M 62.3 118.4 L 64.2 118.4 L 64.2 118.9 L 62.3 118.9 C 62.3 118.9 62.33 122.8 62.3 122.8 C 62.3 124 63 124.4 63.9 124.4 C 64 124.4 64.2 124.4 64.4 124.4 C 64.4 124.4 64.4 124.8 64.4 124.8 C 64.3 124.8 64.1 124.9 63.8 124.9 C 62.7 124.9 61.8 124.2 61.8 122.8 C 61.83 122.82 61.8 118.9 61.8 118.9 L 60.8 118.9 L 60.8 118.4 L 61.8 118.4 L 61.8 116.9 L 62.3 116.9 L 62.3 118.4 Z M 70.3 121.6 C 70.3 119.6 71.7 118.3 73.2 118.3 C 74.2 118.3 75.2 118.9 75.7 120 C 75.66 119.98 75.7 115.3 75.7 115.3 L 76.2 115.3 L 76.2 124.8 L 75.8 124.8 L 75.7 123.2 C 75.7 123.2 75.69 123.19 75.7 123.2 C 75.2 124.4 74.2 124.9 73.2 124.9 C 71.7 124.9 70.3 123.6 70.3 121.6 Z M 75.7 121.6 C 75.7 119.9 74.6 118.8 73.2 118.8 C 71.9 118.8 70.8 119.9 70.8 121.6 C 70.8 123.3 71.9 124.4 73.2 124.4 C 74.6 124.4 75.7 123.3 75.7 121.6 Z M 78.6 116.3 C 78.64 116.33 78.6 115.9 78.6 115.9 L 79.1 115.9 C 79.1 115.9 79.14 116.32 79.1 116.3 C 79.1 117.3 78.7 118.3 78.5 118.9 C 78.5 118.9 78.1 118.9 78.1 118.9 C 78.3 118.3 78.6 117.3 78.6 116.3 Z M 81 122.5 C 80.97 122.48 81 118.4 81 118.4 L 81.5 118.4 C 81.5 118.4 81.47 122.51 81.5 122.5 C 81.5 123.7 82.2 124.4 83.4 124.4 C 84.5 124.4 85.3 123.7 85.3 122.5 C 85.26 122.5 85.3 118.4 85.3 118.4 L 85.8 118.4 C 85.8 118.4 85.76 122.47 85.8 122.5 C 85.8 123.9 84.8 124.9 83.4 124.9 C 81.9 124.9 81 123.9 81 122.5 Z M 92.7 120.6 C 92.75 120.56 92.7 124.8 92.7 124.8 L 92.2 124.8 C 92.2 124.8 92.25 120.77 92.2 120.8 C 92.2 119.5 91.6 118.8 90.4 118.8 C 89.4 118.8 88.5 119.5 88.5 120.7 C 88.46 120.71 88.5 124.8 88.5 124.8 L 88 124.8 L 88 118.4 L 88.4 118.4 L 88.4 119.6 C 88.4 119.6 88.43 119.56 88.4 119.6 C 88.8 118.8 89.5 118.3 90.5 118.3 C 91.9 118.3 92.7 119.2 92.7 120.6 Z M 100.1 121.8 C 100.1 121.8 95 121.8 95 121.8 C 95.1 123.4 96.1 124.4 97.6 124.4 C 98.3 124.4 99.1 124.2 99.8 123.5 C 99.8 123.5 99.8 124.1 99.8 124.1 C 99.2 124.6 98.4 124.9 97.5 124.9 C 95.7 124.9 94.5 123.6 94.5 121.6 C 94.5 119.6 95.9 118.3 97.5 118.3 C 98.9 118.3 100.1 119.4 100.1 121.5 C 100.1 121.6 100.1 121.7 100.1 121.8 Z M 99.6 121.3 C 99.6 119.6 98.5 118.8 97.5 118.8 C 96.2 118.8 95.1 119.8 95 121.3 C 95 121.3 99.6 121.3 99.6 121.3 Z M 106.5 121.6 C 106.5 119.6 107.9 118.3 109.4 118.3 C 110.4 118.3 111.4 118.9 111.9 120 C 111.87 120.02 111.9 118.4 111.9 118.4 L 112.3 118.4 L 112.3 124.8 L 111.9 124.8 C 111.9 124.8 111.87 123.2 111.9 123.2 C 111.4 124.4 110.4 124.9 109.4 124.9 C 107.9 124.9 106.5 123.6 106.5 121.6 Z M 111.9 121.6 C 111.9 119.9 110.7 118.8 109.4 118.8 C 108.1 118.8 107 119.9 107 121.6 C 107 123.3 108.1 124.4 109.4 124.4 C 110.7 124.4 111.9 123.3 111.9 121.6 Z M 122.3 120.5 C 122.35 120.48 122.3 124.8 122.3 124.8 L 121.8 124.8 C 121.8 124.8 121.84 120.53 121.8 120.5 C 121.8 119.5 121.4 118.8 120.4 118.8 C 119.3 118.8 118.7 119.6 118.7 120.5 C 118.73 120.54 118.7 124.8 118.7 124.8 L 118.2 124.8 C 118.2 124.8 118.23 120.53 118.2 120.5 C 118.2 119.5 117.7 118.8 116.7 118.8 C 115.7 118.8 115.1 119.6 115.1 120.6 C 115.12 120.56 115.1 124.8 115.1 124.8 L 114.6 124.8 L 114.6 118.4 L 115 118.4 L 115.1 119.5 C 115.1 119.5 115.09 119.48 115.1 119.5 C 115.4 118.8 116 118.3 116.8 118.3 C 117.8 118.3 118.3 118.8 118.6 119.6 C 118.9 118.8 119.5 118.3 120.4 118.3 C 121.7 118.3 122.3 119.2 122.3 120.5 Z M 125.1 120 C 125.5 118.9 126.5 118.3 127.5 118.3 C 129 118.3 130.4 119.6 130.4 121.6 C 130.4 123.6 129 124.9 127.5 124.9 C 126.5 124.9 125.5 124.4 125 123.2 C 125.02 123.19 125 124.8 125 124.8 L 124.6 124.8 L 124.6 115.3 L 125.1 115.3 C 125.1 115.3 125.06 119.99 125.1 120 Z M 125 121.6 C 125 123.3 126.2 124.4 127.5 124.4 C 128.8 124.4 129.9 123.3 129.9 121.6 C 129.9 119.9 128.8 118.8 127.5 118.8 C 126.2 118.8 125 119.9 125 121.6 Z M 132.2 116.1 C 132.2 115.9 132.3 115.7 132.6 115.7 C 132.8 115.7 133 115.9 133 116.1 C 133 116.3 132.8 116.5 132.6 116.5 C 132.3 116.5 132.2 116.3 132.2 116.1 Z M 132.3 118.4 L 132.8 118.4 L 132.8 124.8 L 132.3 124.8 L 132.3 118.4 Z M 134.7 121.6 C 134.7 119.6 136.1 118.3 137.6 118.3 C 138.6 118.3 139.6 118.9 140.1 120 C 140.08 120.02 140.2 118.4 140.2 118.4 L 140.6 118.4 L 140.6 124.8 L 140.2 124.8 C 140.2 124.8 140.08 123.2 140.1 123.2 C 139.6 124.4 138.6 124.9 137.6 124.9 C 136.1 124.9 134.7 123.6 134.7 121.6 Z M 140.1 121.6 C 140.1 119.9 139 118.8 137.6 118.8 C 136.3 118.8 135.2 119.9 135.2 121.6 C 135.2 123.3 136.3 124.4 137.6 124.4 C 138.9 124.4 140.1 123.3 140.1 121.6 Z M 147.6 120.6 C 147.62 120.56 147.6 124.8 147.6 124.8 L 147.1 124.8 C 147.1 124.8 147.12 120.77 147.1 120.8 C 147.1 119.5 146.5 118.8 145.3 118.8 C 144.2 118.8 143.3 119.5 143.3 120.7 C 143.33 120.71 143.3 124.8 143.3 124.8 L 142.8 124.8 L 142.8 118.4 L 143.2 118.4 L 143.3 119.6 C 143.3 119.6 143.3 119.56 143.3 119.6 C 143.6 118.8 144.4 118.3 145.4 118.3 C 146.7 118.3 147.6 119.2 147.6 120.6 Z M 152.4 124.4 C 152.9 124.4 153.6 124.3 154.2 123.9 C 154.2 123.9 154.2 124.5 154.2 124.5 C 153.7 124.8 153.1 124.9 152.4 124.9 C 150.7 124.9 149.4 123.5 149.4 121.6 C 149.4 119.7 150.7 118.3 152.4 118.3 C 153 118.3 153.6 118.4 154.2 118.8 C 154.2 118.8 154.2 119.3 154.2 119.3 C 153.6 118.9 153 118.8 152.4 118.8 C 151.1 118.8 149.9 119.9 149.9 121.6 C 149.9 123.3 151.1 124.4 152.4 124.4 Z M 160.9 121.8 C 160.9 121.8 155.8 121.8 155.8 121.8 C 155.9 123.4 157 124.4 158.4 124.4 C 159.2 124.4 160 124.2 160.7 123.5 C 160.7 123.5 160.7 124.1 160.7 124.1 C 160 124.6 159.2 124.9 158.4 124.9 C 156.6 124.9 155.3 123.6 155.3 121.6 C 155.3 119.6 156.8 118.3 158.3 118.3 C 159.7 118.3 160.9 119.4 160.9 121.5 C 160.9 121.6 160.9 121.7 160.9 121.8 Z M 160.4 121.3 C 160.4 119.6 159.4 118.8 158.3 118.8 C 157.1 118.8 156 119.8 155.9 121.3 C 155.9 121.3 160.4 121.3 160.4 121.3 Z " stroke="none" fill="#000"/>
  </g>
  <g id="Polygon29959">
    <path d="M 1.8 104 L 3.7 104 L 3.7 104.5 L 1.8 104.5 C 1.8 104.5 1.82 108.4 1.8 108.4 C 1.8 109.6 2.5 110 3.4 110 C 3.5 110 3.7 110 3.9 110 C 3.9 110 3.9 110.4 3.9 110.4 C 3.8 110.4 3.6 110.5 3.3 110.5 C 2.1 110.5 1.3 109.8 1.3 108.4 C 1.32 108.42 1.3 104.5 1.3 104.5 L 0.3 104.5 L 0.3 104 L 1.3 104 L 1.3 102.5 L 1.8 102.5 L 1.8 104 Z M 5.3 104 L 5.7 104 L 5.7 105.2 C 5.7 105.2 5.72 105.22 5.7 105.2 C 6.1 104.3 7 104 7.6 104 C 7.7 104 7.9 104 8 104 C 8 104 8 104.5 8 104.5 C 7.9 104.5 7.7 104.5 7.6 104.5 C 6.7 104.5 5.8 105.1 5.8 106.4 C 5.76 106.37 5.8 110.4 5.8 110.4 L 5.3 110.4 L 5.3 104 Z M 11.3 102.9 L 10.8 102.9 L 12.3 101 L 12.8 101 L 11.3 102.9 Z M 14.1 107.4 C 14.1 107.4 9.1 107.4 9.1 107.4 C 9.2 109 10.2 110 11.6 110 C 12.4 110 13.2 109.8 13.9 109.1 C 13.9 109.1 13.9 109.7 13.9 109.7 C 13.2 110.2 12.4 110.5 11.6 110.5 C 9.8 110.5 8.6 109.2 8.6 107.2 C 8.6 105.2 10 103.9 11.5 103.9 C 12.9 103.9 14.1 105 14.1 107.1 C 14.1 107.2 14.1 107.3 14.1 107.4 Z M 13.6 106.9 C 13.6 105.2 12.6 104.4 11.5 104.4 C 10.3 104.4 9.2 105.4 9.1 106.9 C 9.1 106.9 13.6 106.9 13.6 106.9 Z M 21.1 107.4 C 21.1 107.4 16 107.4 16 107.4 C 16.1 109 17.1 110 18.6 110 C 19.3 110 20.1 109.8 20.8 109.1 C 20.8 109.1 20.8 109.7 20.8 109.7 C 20.2 110.2 19.4 110.5 18.5 110.5 C 16.8 110.5 15.5 109.2 15.5 107.2 C 15.5 105.2 16.9 103.9 18.5 103.9 C 19.9 103.9 21.1 105 21.1 107.1 C 21.1 107.2 21.1 107.3 21.1 107.4 Z M 20.6 106.9 C 20.6 105.2 19.5 104.4 18.5 104.4 C 17.2 104.4 16.1 105.4 16 106.9 C 16 106.9 20.6 106.9 20.6 106.9 Z M 22.8 109.4 C 22.8 109.44 22.8 109 22.8 109 L 23.3 109 C 23.3 109 23.3 109.43 23.3 109.4 C 23.3 110.4 22.9 111.4 22.7 112 C 22.7 112 22.3 112 22.3 112 C 22.5 111.4 22.8 110.4 22.8 109.4 Z M 34.2 104.5 L 33.3 104.5 L 33.3 104 L 34.2 104 C 34.2 104 34.24 102.8 34.2 102.8 C 34.2 101.5 35.1 100.8 36.1 100.8 C 36.5 100.8 36.8 100.9 37.1 101 C 37.1 101 37.1 101.5 37.1 101.5 C 36.9 101.4 36.5 101.3 36.2 101.3 C 35.3 101.3 34.7 101.8 34.7 102.9 C 34.75 102.89 34.7 104 34.7 104 L 36.7 104 L 36.7 104.5 L 34.7 104.5 L 34.7 110.4 L 34.2 110.4 L 34.2 104.5 Z M 37.3 107.2 C 37.3 105.2 38.7 103.9 40.2 103.9 C 41.2 103.9 42.3 104.5 42.7 105.6 C 42.72 105.62 42.8 104 42.8 104 L 43.2 104 L 43.2 110.4 L 42.8 110.4 C 42.8 110.4 42.72 108.8 42.7 108.8 C 42.3 110 41.2 110.5 40.2 110.5 C 38.7 110.5 37.3 109.2 37.3 107.2 Z M 42.7 107.2 C 42.7 105.5 41.6 104.4 40.3 104.4 C 38.9 104.4 37.8 105.5 37.8 107.2 C 37.8 108.9 39 110 40.3 110 C 41.6 110 42.7 108.9 42.7 107.2 Z M 44.7 104 L 45.3 104 L 47.4 109.8 L 47.4 109.8 L 49.5 104 L 50 104 L 47.6 110.4 L 47.1 110.4 L 44.7 104 Z M 50.9 107.2 C 50.9 105.3 52.2 103.9 53.9 103.9 C 55.6 103.9 57 105.3 57 107.2 C 57 109.2 55.6 110.5 53.9 110.5 C 52.3 110.5 50.9 109.2 50.9 107.2 Z M 56.5 107.2 C 56.5 105.4 55.2 104.4 53.9 104.4 C 52.6 104.4 51.4 105.4 51.4 107.2 C 51.4 109 52.6 110 53.9 110 C 55.2 110 56.5 109 56.5 107.2 Z M 58.8 104 L 59.2 104 L 59.2 105.2 C 59.2 105.2 59.25 105.22 59.3 105.2 C 59.6 104.3 60.5 104 61.1 104 C 61.3 104 61.4 104 61.5 104 C 61.5 104 61.5 104.5 61.5 104.5 C 61.4 104.5 61.3 104.5 61.1 104.5 C 60.2 104.5 59.3 105.1 59.3 106.4 C 59.29 106.37 59.3 110.4 59.3 110.4 L 58.8 110.4 L 58.8 104 Z M 62.7 101.7 C 62.7 101.5 62.9 101.3 63.1 101.3 C 63.4 101.3 63.5 101.5 63.5 101.7 C 63.5 101.9 63.4 102.1 63.1 102.1 C 62.9 102.1 62.7 101.9 62.7 101.7 Z M 62.9 104 L 63.4 104 L 63.4 110.4 L 62.9 110.4 L 62.9 104 Z M 69.3 104.5 C 69.3 104.5 69.3 105 69.3 105 C 68.8 104.7 68.1 104.4 67.4 104.4 C 66.5 104.4 65.9 104.9 65.9 105.6 C 65.9 106.3 66.5 106.6 67.5 106.9 C 68.6 107.3 69.6 107.6 69.6 108.7 C 69.6 109.8 68.7 110.5 67.4 110.5 C 66.7 110.5 65.9 110.3 65.3 109.8 C 65.3 109.8 65.3 109.1 65.3 109.1 C 65.8 109.7 66.6 110 67.4 110 C 68.4 110 69.1 109.5 69.1 108.7 C 69.1 108 68.4 107.7 67.3 107.3 C 66.3 107 65.4 106.7 65.4 105.6 C 65.4 104.6 66.2 103.9 67.4 103.9 C 68.1 103.9 68.8 104.1 69.3 104.5 Z M 70.9 107.2 C 70.9 105.2 72.3 103.9 73.8 103.9 C 74.8 103.9 75.8 104.5 76.3 105.6 C 76.28 105.62 76.4 104 76.4 104 L 76.7 104 L 76.7 110.4 L 76.4 110.4 C 76.4 110.4 76.28 108.8 76.3 108.8 C 75.8 110 74.8 110.5 73.8 110.5 C 72.3 110.5 70.9 109.2 70.9 107.2 Z M 76.3 107.2 C 76.3 105.5 75.2 104.4 73.8 104.4 C 72.5 104.4 71.4 105.5 71.4 107.2 C 71.4 108.9 72.5 110 73.8 110 C 75.1 110 76.3 108.9 76.3 107.2 Z M 83.8 106.2 C 83.82 106.16 83.8 110.4 83.8 110.4 L 83.3 110.4 C 83.3 110.4 83.31 106.37 83.3 106.4 C 83.3 105.1 82.7 104.4 81.5 104.4 C 80.4 104.4 79.5 105.1 79.5 106.3 C 79.53 106.31 79.5 110.4 79.5 110.4 L 79 110.4 L 79 104 L 79.4 104 L 79.5 105.2 C 79.5 105.2 79.5 105.16 79.5 105.2 C 79.8 104.4 80.6 103.9 81.6 103.9 C 82.9 103.9 83.8 104.8 83.8 106.2 Z M 86.6 104 L 88.5 104 L 88.5 104.5 L 86.6 104.5 C 86.6 104.5 86.64 108.4 86.6 108.4 C 86.6 109.6 87.3 110 88.2 110 C 88.4 110 88.5 110 88.7 110 C 88.7 110 88.7 110.4 88.7 110.4 C 88.6 110.4 88.4 110.5 88.1 110.5 C 87 110.5 86.1 109.8 86.1 108.4 C 86.13 108.42 86.1 104.5 86.1 104.5 L 85.2 104.5 L 85.2 104 L 86.1 104 L 86.1 102.5 L 86.6 102.5 L 86.6 104 Z M 98.6 100.9 L 99.1 100.9 L 99.1 110.4 L 98.6 110.4 L 98.6 100.9 Z M 101 107.2 C 101 105.2 102.4 103.9 103.9 103.9 C 104.9 103.9 105.9 104.5 106.4 105.6 C 106.37 105.62 106.4 104 106.4 104 L 106.8 104 L 106.8 110.4 L 106.4 110.4 C 106.4 110.4 106.37 108.8 106.4 108.8 C 105.9 110 104.9 110.5 103.9 110.5 C 102.4 110.5 101 109.2 101 107.2 Z M 106.4 107.2 C 106.4 105.5 105.2 104.4 103.9 104.4 C 102.6 104.4 101.5 105.5 101.5 107.2 C 101.5 108.9 102.6 110 103.9 110 C 105.2 110 106.4 108.9 106.4 107.2 Z M 120.3 110 C 120.8 110 121.5 109.9 122 109.5 C 122 109.5 122 110.1 122 110.1 C 121.5 110.4 120.9 110.5 120.3 110.5 C 118.6 110.5 117.2 109.1 117.2 107.2 C 117.2 105.3 118.6 103.9 120.3 103.9 C 120.9 103.9 121.5 104 122 104.4 C 122 104.4 122 104.9 122 104.9 C 121.4 104.5 120.9 104.4 120.3 104.4 C 118.9 104.4 117.7 105.5 117.7 107.2 C 117.7 108.9 119 110 120.3 110 Z M 123.2 107.2 C 123.2 105.3 124.5 103.9 126.2 103.9 C 127.9 103.9 129.3 105.3 129.3 107.2 C 129.3 109.2 127.9 110.5 126.2 110.5 C 124.6 110.5 123.2 109.2 123.2 107.2 Z M 128.8 107.2 C 128.8 105.4 127.5 104.4 126.2 104.4 C 124.9 104.4 123.7 105.4 123.7 107.2 C 123.7 109 124.9 110 126.2 110 C 127.5 110 128.8 109 128.8 107.2 Z M 135.9 106.2 C 135.87 106.16 135.9 110.4 135.9 110.4 L 135.4 110.4 C 135.4 110.4 135.37 106.37 135.4 106.4 C 135.4 105.1 134.7 104.4 133.6 104.4 C 132.5 104.4 131.6 105.1 131.6 106.3 C 131.59 106.31 131.6 110.4 131.6 110.4 L 131.1 110.4 L 131.1 104 L 131.5 104 L 131.5 105.2 C 131.5 105.2 131.55 105.16 131.6 105.2 C 131.9 104.4 132.7 103.9 133.6 103.9 C 135 103.9 135.9 104.8 135.9 106.2 Z M 140.7 110 C 141.2 110 141.9 109.9 142.4 109.5 C 142.4 109.5 142.4 110.1 142.4 110.1 C 141.9 110.4 141.3 110.5 140.7 110.5 C 139 110.5 137.6 109.1 137.6 107.2 C 137.6 105.3 139 103.9 140.7 103.9 C 141.3 103.9 141.9 104 142.4 104.4 C 142.4 104.4 142.4 104.9 142.4 104.9 C 141.8 104.5 141.3 104.4 140.7 104.4 C 139.3 104.4 138.1 105.5 138.1 107.2 C 138.1 108.9 139.4 110 140.7 110 Z M 149.1 107.4 C 149.1 107.4 144.1 107.4 144.1 107.4 C 144.2 109 145.2 110 146.6 110 C 147.4 110 148.2 109.8 148.9 109.1 C 148.9 109.1 148.9 109.7 148.9 109.7 C 148.2 110.2 147.5 110.5 146.6 110.5 C 144.8 110.5 143.6 109.2 143.6 107.2 C 143.6 105.2 145 103.9 146.5 103.9 C 148 103.9 149.2 105 149.2 107.1 C 149.2 107.2 149.2 107.3 149.1 107.4 Z M 148.7 106.9 C 148.6 105.2 147.6 104.4 146.5 104.4 C 145.3 104.4 144.2 105.4 144.1 106.9 C 144.1 106.9 148.7 106.9 148.7 106.9 Z M 155.8 106.2 C 155.75 106.16 155.8 110.4 155.8 110.4 L 155.3 110.4 C 155.3 110.4 155.25 106.37 155.3 106.4 C 155.3 105.1 154.6 104.4 153.4 104.4 C 152.4 104.4 151.5 105.1 151.5 106.3 C 151.47 106.31 151.5 110.4 151.5 110.4 L 151 110.4 L 151 104 L 151.4 104 L 151.4 105.2 C 151.4 105.2 151.43 105.16 151.4 105.2 C 151.8 104.4 152.6 103.9 153.5 103.9 C 154.9 103.9 155.8 104.8 155.8 106.2 Z M 157.8 106.5 L 160.6 106.5 L 160.6 107 L 157.8 107 L 157.8 106.5 Z " stroke="none" fill="#000"/>
  </g>
  <g id="Polygon29958">
    <path d="M 4.7 90.1 C 4.7 90.1 4.7 90.6 4.7 90.6 C 4.2 90.3 3.6 90 2.9 90 C 1.9 90 1.3 90.5 1.3 91.2 C 1.3 91.9 2 92.2 3 92.5 C 4 92.9 5 93.2 5 94.3 C 5 95.4 4.1 96.1 2.8 96.1 C 2.1 96.1 1.3 95.9 0.7 95.4 C 0.7 95.4 0.7 94.7 0.7 94.7 C 1.2 95.3 2 95.6 2.8 95.6 C 3.9 95.6 4.5 95.1 4.5 94.3 C 4.5 93.6 3.8 93.3 2.8 92.9 C 1.7 92.6 0.8 92.3 0.8 91.2 C 0.8 90.2 1.6 89.5 2.9 89.5 C 3.6 89.5 4.2 89.7 4.7 90.1 Z M 6.3 92.8 C 6.3 90.9 7.7 89.5 9.3 89.5 C 11 89.5 12.4 90.9 12.4 92.8 C 12.4 94.8 11 96.1 9.3 96.1 C 7.7 96.1 6.3 94.8 6.3 92.8 Z M 11.9 92.8 C 11.9 91 10.6 90 9.3 90 C 8 90 6.8 91 6.8 92.8 C 6.8 94.6 8.1 95.6 9.3 95.6 C 10.6 95.6 11.9 94.6 11.9 92.8 Z M 14.1 87.3 C 14.1 87.1 14.3 86.9 14.5 86.9 C 14.7 86.9 14.9 87.1 14.9 87.3 C 14.9 87.5 14.7 87.7 14.5 87.7 C 14.3 87.7 14.1 87.5 14.1 87.3 Z M 14.2 89.6 L 14.7 89.6 L 14.7 96 L 14.2 96 L 14.2 89.6 Z M 17.7 89.6 L 19.6 89.6 L 19.6 90.1 L 17.7 90.1 C 17.7 90.1 17.75 94 17.7 94 C 17.7 95.2 18.4 95.6 19.3 95.6 C 19.5 95.6 19.6 95.6 19.8 95.6 C 19.8 95.6 19.8 96 19.8 96 C 19.8 96 19.5 96.1 19.2 96.1 C 18.1 96.1 17.2 95.4 17.2 94 C 17.24 94.02 17.2 90.1 17.2 90.1 L 16.3 90.1 L 16.3 89.6 L 17.3 89.6 L 17.3 88.1 L 17.7 88.1 L 17.7 89.6 Z M 25.9 92.8 C 25.9 90.8 27.3 89.5 28.8 89.5 C 29.8 89.5 30.9 90.1 31.3 91.2 C 31.3 91.18 31.3 86.5 31.3 86.5 L 31.8 86.5 L 31.8 96 L 31.4 96 L 31.3 94.4 C 31.3 94.4 31.32 94.39 31.3 94.4 C 30.9 95.6 29.8 96.1 28.8 96.1 C 27.3 96.1 25.9 94.8 25.9 92.8 Z M 31.3 92.8 C 31.3 91.1 30.2 90 28.9 90 C 27.6 90 26.4 91.1 26.4 92.8 C 26.4 94.5 27.6 95.6 28.9 95.6 C 30.2 95.6 31.3 94.5 31.3 92.8 Z M 34.3 87.5 C 34.27 87.53 34.3 87.1 34.3 87.1 L 34.8 87.1 C 34.8 87.1 34.77 87.52 34.8 87.5 C 34.8 88.5 34.4 89.5 34.1 90.1 C 34.1 90.1 33.7 90.1 33.7 90.1 C 34 89.5 34.3 88.5 34.3 87.5 Z M 36.6 93.7 C 36.6 93.68 36.6 89.6 36.6 89.6 L 37.1 89.6 C 37.1 89.6 37.1 93.71 37.1 93.7 C 37.1 94.9 37.8 95.6 39 95.6 C 40.2 95.6 40.9 94.9 40.9 93.7 C 40.9 93.7 40.9 89.6 40.9 89.6 L 41.4 89.6 C 41.4 89.6 41.4 93.67 41.4 93.7 C 41.4 95.1 40.5 96.1 39 96.1 C 37.5 96.1 36.6 95.1 36.6 93.7 Z M 48.4 91.8 C 48.38 91.76 48.4 96 48.4 96 L 47.9 96 C 47.9 96 47.88 91.97 47.9 92 C 47.9 90.7 47.2 90 46.1 90 C 45 90 44.1 90.7 44.1 91.9 C 44.1 91.91 44.1 96 44.1 96 L 43.6 96 L 43.6 89.6 L 44 89.6 L 44 90.8 C 44 90.8 44.06 90.76 44.1 90.8 C 44.4 90 45.2 89.5 46.1 89.5 C 47.5 89.5 48.4 90.4 48.4 91.8 Z M 55.7 93 C 55.7 93 50.6 93 50.6 93 C 50.7 94.6 51.8 95.6 53.2 95.6 C 54 95.6 54.8 95.4 55.5 94.7 C 55.5 94.7 55.5 95.3 55.5 95.3 C 54.8 95.8 54 96.1 53.2 96.1 C 51.4 96.1 50.1 94.8 50.1 92.8 C 50.1 90.8 51.5 89.5 53.1 89.5 C 54.5 89.5 55.7 90.6 55.7 92.7 C 55.7 92.8 55.7 92.9 55.7 93 Z M 55.2 92.5 C 55.2 90.8 54.2 90 53.1 90 C 51.9 90 50.8 91 50.6 92.5 C 50.6 92.5 55.2 92.5 55.2 92.5 Z M 62.3 92.8 C 62.3 90.8 63.7 89.5 65.2 89.5 C 66.2 89.5 67.3 90.1 67.7 91.2 C 67.73 91.22 67.8 89.6 67.8 89.6 L 68.2 89.6 L 68.2 96 L 67.8 96 C 67.8 96 67.73 94.4 67.7 94.4 C 67.3 95.6 66.2 96.1 65.2 96.1 C 63.7 96.1 62.3 94.8 62.3 92.8 Z M 67.7 92.8 C 67.7 91.1 66.6 90 65.3 90 C 63.9 90 62.8 91.1 62.8 92.8 C 62.8 94.5 64 95.6 65.3 95.6 C 66.6 95.6 67.7 94.5 67.7 92.8 Z M 78.2 91.7 C 78.2 91.68 78.2 96 78.2 96 L 77.7 96 C 77.7 96 77.7 91.73 77.7 91.7 C 77.7 90.7 77.2 90 76.2 90 C 75.2 90 74.6 90.8 74.6 91.7 C 74.59 91.74 74.6 96 74.6 96 L 74.1 96 C 74.1 96 74.09 91.73 74.1 91.7 C 74.1 90.7 73.6 90 72.6 90 C 71.6 90 71 90.8 71 91.8 C 70.98 91.76 71 96 71 96 L 70.5 96 L 70.5 89.6 L 70.9 89.6 L 70.9 90.7 C 70.9 90.7 70.94 90.68 70.9 90.7 C 71.2 90 71.9 89.5 72.7 89.5 C 73.6 89.5 74.2 90 74.4 90.8 C 74.7 90 75.4 89.5 76.3 89.5 C 77.6 89.5 78.2 90.4 78.2 91.7 Z M 80.9 91.2 C 81.3 90.1 82.4 89.5 83.4 89.5 C 84.9 89.5 86.3 90.8 86.3 92.8 C 86.3 94.8 84.9 96.1 83.4 96.1 C 82.4 96.1 81.3 95.6 80.9 94.4 C 80.88 94.39 80.8 96 80.8 96 L 80.4 96 L 80.4 86.5 L 80.9 86.5 C 80.9 86.5 80.91 91.19 80.9 91.2 Z M 80.9 92.8 C 80.9 94.5 82 95.6 83.3 95.6 C 84.7 95.6 85.8 94.5 85.8 92.8 C 85.8 91.1 84.7 90 83.3 90 C 82 90 80.9 91.1 80.9 92.8 Z M 88 87.3 C 88 87.1 88.2 86.9 88.4 86.9 C 88.7 86.9 88.8 87.1 88.8 87.3 C 88.8 87.5 88.7 87.7 88.4 87.7 C 88.2 87.7 88 87.5 88 87.3 Z M 88.2 89.6 L 88.7 89.6 L 88.7 96 L 88.2 96 L 88.2 89.6 Z M 90.5 92.8 C 90.5 90.8 91.9 89.5 93.4 89.5 C 94.4 89.5 95.5 90.1 95.9 91.2 C 95.94 91.22 96 89.6 96 89.6 L 96.4 89.6 L 96.4 96 L 96 96 C 96 96 95.94 94.4 95.9 94.4 C 95.5 95.6 94.4 96.1 93.4 96.1 C 91.9 96.1 90.5 94.8 90.5 92.8 Z M 95.9 92.8 C 95.9 91.1 94.8 90 93.5 90 C 92.2 90 91 91.1 91 92.8 C 91 94.5 92.2 95.6 93.5 95.6 C 94.8 95.6 95.9 94.5 95.9 92.8 Z M 103.5 91.8 C 103.47 91.76 103.5 96 103.5 96 L 103 96 C 103 96 102.97 91.97 103 92 C 103 90.7 102.3 90 101.2 90 C 100.1 90 99.2 90.7 99.2 91.9 C 99.19 91.91 99.2 96 99.2 96 L 98.7 96 L 98.7 89.6 L 99.1 89.6 L 99.1 90.8 C 99.1 90.8 99.15 90.76 99.2 90.8 C 99.5 90 100.3 89.5 101.2 89.5 C 102.6 89.5 103.5 90.4 103.5 91.8 Z M 108.3 95.6 C 108.8 95.6 109.5 95.5 110 95.1 C 110 95.1 110 95.7 110 95.7 C 109.5 96 108.9 96.1 108.3 96.1 C 106.6 96.1 105.2 94.7 105.2 92.8 C 105.2 90.9 106.6 89.5 108.3 89.5 C 108.9 89.5 109.5 89.6 110 90 C 110 90 110 90.5 110 90.5 C 109.4 90.1 108.9 90 108.3 90 C 106.9 90 105.7 91.1 105.7 92.8 C 105.7 94.5 107 95.6 108.3 95.6 Z M 116.7 93 C 116.7 93 111.7 93 111.7 93 C 111.8 94.6 112.8 95.6 114.2 95.6 C 115 95.6 115.8 95.4 116.5 94.7 C 116.5 94.7 116.5 95.3 116.5 95.3 C 115.8 95.8 115.1 96.1 114.2 96.1 C 112.4 96.1 111.2 94.8 111.2 92.8 C 111.2 90.8 112.6 89.5 114.1 89.5 C 115.6 89.5 116.8 90.6 116.8 92.7 C 116.8 92.8 116.8 92.9 116.7 93 Z M 116.3 92.5 C 116.2 90.8 115.2 90 114.1 90 C 112.9 90 111.8 91 111.7 92.5 C 111.7 92.5 116.3 92.5 116.3 92.5 Z M 126.5 95.6 C 127 95.6 127.6 95.5 128.2 95.1 C 128.2 95.1 128.2 95.7 128.2 95.7 C 127.7 96 127.1 96.1 126.5 96.1 C 124.7 96.1 123.4 94.7 123.4 92.8 C 123.4 90.9 124.7 89.5 126.4 89.5 C 127 89.5 127.6 89.6 128.2 90 C 128.2 90 128.2 90.5 128.2 90.5 C 127.6 90.1 127 90 126.4 90 C 125.1 90 123.9 91.1 123.9 92.8 C 123.9 94.5 125.1 95.6 126.5 95.6 Z M 129.3 92.8 C 129.3 90.8 130.7 89.5 132.2 89.5 C 133.3 89.5 134.3 90.1 134.7 91.2 C 134.74 91.22 134.8 89.6 134.8 89.6 L 135.2 89.6 L 135.2 96 L 134.8 96 C 134.8 96 134.74 94.4 134.7 94.4 C 134.3 95.6 133.3 96.1 132.2 96.1 C 130.7 96.1 129.3 94.8 129.3 92.8 Z M 134.7 92.8 C 134.7 91.1 133.6 90 132.3 90 C 131 90 129.8 91.1 129.8 92.8 C 129.8 94.5 131 95.6 132.3 95.6 C 133.6 95.6 134.7 94.5 134.7 92.8 Z M 137.5 86.5 L 138 86.5 L 138 96 L 137.5 96 L 137.5 86.5 Z M 140.6 90.1 L 139.6 90.1 L 139.6 89.6 L 140.6 89.6 C 140.6 89.6 140.58 88.4 140.6 88.4 C 140.6 87.1 141.4 86.4 142.5 86.4 C 142.8 86.4 143.2 86.5 143.4 86.6 C 143.4 86.6 143.4 87.1 143.4 87.1 C 143.2 87 142.8 86.9 142.5 86.9 C 141.7 86.9 141.1 87.4 141.1 88.5 C 141.09 88.49 141.1 89.6 141.1 89.6 L 143 89.6 L 143 90.1 L 141.1 90.1 L 141.1 96 L 140.6 96 L 140.6 90.1 Z M 149.2 93 C 149.2 93 144.2 93 144.2 93 C 144.2 94.6 145.3 95.6 146.7 95.6 C 147.5 95.6 148.3 95.4 149 94.7 C 149 94.7 149 95.3 149 95.3 C 148.3 95.8 147.5 96.1 146.7 96.1 C 144.9 96.1 143.7 94.8 143.7 92.8 C 143.7 90.8 145.1 89.5 146.6 89.5 C 148 89.5 149.2 90.6 149.2 92.7 C 149.2 92.8 149.2 92.9 149.2 93 Z M 148.7 92.5 C 148.7 90.8 147.7 90 146.6 90 C 145.4 90 144.3 91 144.2 92.5 C 144.2 92.5 148.7 92.5 148.7 92.5 Z M 151 93.7 C 150.96 93.68 151 89.6 151 89.6 L 151.5 89.6 C 151.5 89.6 151.46 93.71 151.5 93.7 C 151.5 94.9 152.2 95.6 153.3 95.6 C 154.5 95.6 155.3 94.9 155.3 93.7 C 155.25 93.7 155.3 89.6 155.3 89.6 L 155.8 89.6 C 155.8 89.6 155.75 93.67 155.8 93.7 C 155.8 95.1 154.8 96.1 153.3 96.1 C 151.9 96.1 151 95.1 151 93.7 Z M 157.8 92.1 L 160.6 92.1 L 160.6 92.6 L 157.8 92.6 L 157.8 92.1 Z " stroke="none" fill="#000"/>
  </g>
  <g id="Polygon29957">
    <path d="M 1.1 75.2 L 1.5 75.2 C 1.5 75.2 1.61 76.84 1.6 76.8 C 2.1 75.7 3.1 75.1 4.1 75.1 C 5.6 75.1 7 76.4 7 78.4 C 7 80.4 5.6 81.7 4.1 81.7 C 3.1 81.7 2.1 81.1 1.6 80.1 C 1.64 80.05 1.6 84.2 1.6 84.2 L 1.1 84.2 L 1.1 75.2 Z M 6.5 78.4 C 6.5 76.7 5.4 75.6 4.1 75.6 C 2.7 75.6 1.6 76.7 1.6 78.4 C 1.6 80.1 2.8 81.2 4.1 81.2 C 5.4 81.2 6.5 80.1 6.5 78.4 Z M 8.4 78.4 C 8.4 76.5 9.8 75.1 11.4 75.1 C 13.1 75.1 14.5 76.5 14.5 78.4 C 14.5 80.4 13.1 81.7 11.4 81.7 C 9.8 81.7 8.4 80.4 8.4 78.4 Z M 14 78.4 C 14 76.6 12.7 75.6 11.4 75.6 C 10.1 75.6 8.9 76.6 8.9 78.4 C 8.9 80.2 10.2 81.2 11.4 81.2 C 12.7 81.2 14 80.2 14 78.4 Z M 16.2 79.3 C 16.22 79.28 16.2 75.2 16.2 75.2 L 16.7 75.2 C 16.7 75.2 16.73 79.31 16.7 79.3 C 16.7 80.5 17.5 81.2 18.6 81.2 C 19.8 81.2 20.5 80.5 20.5 79.3 C 20.52 79.3 20.5 75.2 20.5 75.2 L 21 75.2 C 21 75.2 21.02 79.27 21 79.3 C 21 80.7 20.1 81.7 18.6 81.7 C 17.1 81.7 16.2 80.7 16.2 79.3 Z M 23.2 75.2 L 23.6 75.2 L 23.7 76.4 C 23.7 76.4 23.69 76.42 23.7 76.4 C 24.1 75.5 24.9 75.2 25.6 75.2 C 25.7 75.2 25.8 75.2 26 75.2 C 26 75.2 26 75.7 26 75.7 C 25.8 75.7 25.7 75.7 25.6 75.7 C 24.7 75.7 23.7 76.3 23.7 77.6 C 23.72 77.57 23.7 81.6 23.7 81.6 L 23.2 81.6 L 23.2 75.2 Z M 35.9 75.7 L 35 75.7 L 35 75.2 L 35.9 75.2 C 35.9 75.2 35.91 74 35.9 74 C 35.9 72.7 36.8 72 37.8 72 C 38.1 72 38.5 72.1 38.8 72.2 C 38.8 72.2 38.8 72.7 38.8 72.7 C 38.5 72.6 38.1 72.5 37.8 72.5 C 37 72.5 36.4 73 36.4 74.1 C 36.42 74.09 36.4 75.2 36.4 75.2 L 38.3 75.2 L 38.3 75.7 L 36.4 75.7 L 36.4 81.6 L 35.9 81.6 L 35.9 75.7 Z M 39 78.4 C 39 76.4 40.4 75.1 41.9 75.1 C 42.9 75.1 43.9 75.7 44.4 76.8 C 44.39 76.82 44.5 75.2 44.5 75.2 L 44.9 75.2 L 44.9 81.6 L 44.5 81.6 C 44.5 81.6 44.39 80 44.4 80 C 43.9 81.2 42.9 81.7 41.9 81.7 C 40.4 81.7 39 80.4 39 78.4 Z M 44.4 78.4 C 44.4 76.7 43.3 75.6 41.9 75.6 C 40.6 75.6 39.5 76.7 39.5 78.4 C 39.5 80.1 40.6 81.2 41.9 81.2 C 43.3 81.2 44.4 80.1 44.4 78.4 Z M 47 72.9 C 47 72.7 47.2 72.5 47.4 72.5 C 47.7 72.5 47.8 72.7 47.8 72.9 C 47.8 73.1 47.7 73.3 47.4 73.3 C 47.2 73.3 47 73.1 47 72.9 Z M 47.2 75.2 L 47.7 75.2 L 47.7 81.6 L 47.2 81.6 L 47.2 75.2 Z M 50 75.2 L 50.4 75.2 L 50.4 76.4 C 50.4 76.4 50.46 76.42 50.5 76.4 C 50.8 75.5 51.7 75.2 52.3 75.2 C 52.5 75.2 52.6 75.2 52.7 75.2 C 52.7 75.2 52.7 75.7 52.7 75.7 C 52.6 75.7 52.5 75.7 52.3 75.7 C 51.4 75.7 50.5 76.3 50.5 77.6 C 50.5 77.57 50.5 81.6 50.5 81.6 L 50 81.6 L 50 75.2 Z M 58.9 78.6 C 58.9 78.6 53.8 78.6 53.8 78.6 C 53.9 80.2 54.9 81.2 56.4 81.2 C 57.1 81.2 58 81 58.6 80.3 C 58.6 80.3 58.6 80.9 58.6 80.9 C 58 81.4 57.2 81.7 56.3 81.7 C 54.6 81.7 53.3 80.4 53.3 78.4 C 53.3 76.4 54.7 75.1 56.3 75.1 C 57.7 75.1 58.9 76.2 58.9 78.3 C 58.9 78.4 58.9 78.5 58.9 78.6 Z M 58.4 78.1 C 58.4 76.4 57.3 75.6 56.3 75.6 C 55 75.6 53.9 76.6 53.8 78.1 C 53.8 78.1 58.4 78.1 58.4 78.1 Z M 69.4 75.2 L 69.8 75.2 C 69.8 75.2 69.84 76.84 69.8 76.8 C 70.3 75.7 71.3 75.1 72.4 75.1 C 73.9 75.1 75.3 76.4 75.3 78.4 C 75.3 80.4 73.9 81.7 72.4 81.7 C 71.3 81.7 70.3 81.1 69.9 80.1 C 69.88 80.05 69.9 84.2 69.9 84.2 L 69.4 84.2 L 69.4 75.2 Z M 74.8 78.4 C 74.8 76.7 73.6 75.6 72.3 75.6 C 71 75.6 69.9 76.7 69.9 78.4 C 69.9 80.1 71 81.2 72.3 81.2 C 73.6 81.2 74.8 80.1 74.8 78.4 Z M 77.1 75.2 L 77.5 75.2 L 77.5 76.4 C 77.5 76.4 77.56 76.42 77.6 76.4 C 77.9 75.5 78.8 75.2 79.4 75.2 C 79.6 75.2 79.7 75.2 79.8 75.2 C 79.8 75.2 79.8 75.7 79.8 75.7 C 79.7 75.7 79.6 75.7 79.4 75.7 C 78.5 75.7 77.6 76.3 77.6 77.6 C 77.6 77.57 77.6 81.6 77.6 81.6 L 77.1 81.6 L 77.1 75.2 Z M 80.4 78.4 C 80.4 76.5 81.8 75.1 83.4 75.1 C 85.1 75.1 86.5 76.5 86.5 78.4 C 86.5 80.4 85.1 81.7 83.4 81.7 C 81.8 81.7 80.4 80.4 80.4 78.4 Z M 86 78.4 C 86 76.6 84.7 75.6 83.4 75.6 C 82.1 75.6 80.9 76.6 80.9 78.4 C 80.9 80.2 82.1 81.2 83.4 81.2 C 84.7 81.2 86 80.2 86 78.4 Z M 88.4 75.7 L 87.5 75.7 L 87.5 75.2 L 88.4 75.2 C 88.4 75.2 88.43 74 88.4 74 C 88.4 72.7 89.3 72 90.3 72 C 90.7 72 91 72.1 91.3 72.2 C 91.3 72.2 91.3 72.7 91.3 72.7 C 91.1 72.6 90.7 72.5 90.4 72.5 C 89.5 72.5 88.9 73 88.9 74.1 C 88.95 74.09 88.9 75.2 88.9 75.2 L 90.9 75.2 L 90.9 75.7 L 88.9 75.7 L 88.9 81.6 L 88.4 81.6 L 88.4 75.7 Z M 92.3 72.9 C 92.3 72.7 92.4 72.5 92.7 72.5 C 92.9 72.5 93.1 72.7 93.1 72.9 C 93.1 73.1 92.9 73.3 92.7 73.3 C 92.4 73.3 92.3 73.1 92.3 72.9 Z M 92.4 75.2 L 92.9 75.2 L 92.9 81.6 L 92.4 81.6 L 92.4 75.2 Z M 95.9 75.2 L 97.8 75.2 L 97.8 75.7 L 95.9 75.7 C 95.9 75.7 95.91 79.6 95.9 79.6 C 95.9 80.8 96.5 81.2 97.4 81.2 C 97.6 81.2 97.8 81.2 98 81.2 C 98 81.2 98 81.6 98 81.6 C 97.9 81.6 97.7 81.7 97.4 81.7 C 96.2 81.7 95.4 81 95.4 79.6 C 95.41 79.62 95.4 75.7 95.4 75.7 L 94.4 75.7 L 94.4 75.2 L 95.4 75.2 L 95.4 73.7 L 95.9 73.7 L 95.9 75.2 Z M 104.4 78.6 C 104.4 78.6 99.3 78.6 99.3 78.6 C 99.4 80.2 100.4 81.2 101.9 81.2 C 102.6 81.2 103.5 81 104.1 80.3 C 104.1 80.3 104.1 80.9 104.1 80.9 C 103.5 81.4 102.7 81.7 101.8 81.7 C 100.1 81.7 98.8 80.4 98.8 78.4 C 98.8 76.4 100.2 75.1 101.8 75.1 C 103.2 75.1 104.4 76.2 104.4 78.3 C 104.4 78.4 104.4 78.5 104.4 78.6 Z M 103.9 78.1 C 103.9 76.4 102.8 75.6 101.8 75.6 C 100.6 75.6 99.4 76.6 99.3 78.1 C 99.3 78.1 103.9 78.1 103.9 78.1 Z M 106.2 75.2 L 106.6 75.2 L 106.6 76.4 C 106.6 76.4 106.66 76.42 106.7 76.4 C 107 75.5 107.9 75.2 108.5 75.2 C 108.7 75.2 108.8 75.2 108.9 75.2 C 108.9 75.2 108.9 75.7 108.9 75.7 C 108.8 75.7 108.7 75.7 108.5 75.7 C 107.6 75.7 106.7 76.3 106.7 77.6 C 106.7 77.57 106.7 81.6 106.7 81.6 L 106.2 81.6 L 106.2 75.2 Z M 118.7 72.1 L 119.2 72.1 L 119.2 81.6 L 118.7 81.6 L 118.7 72.1 Z M 121.7 73.1 C 121.7 73.13 121.7 72.7 121.7 72.7 L 122.2 72.7 C 122.2 72.7 122.2 73.12 122.2 73.1 C 122.2 74.1 121.8 75.1 121.6 75.7 C 121.6 75.7 121.2 75.7 121.2 75.7 C 121.4 75.1 121.7 74.1 121.7 73.1 Z M 124 79.3 C 124.03 79.28 124 75.2 124 75.2 L 124.5 75.2 C 124.5 75.2 124.53 79.31 124.5 79.3 C 124.5 80.5 125.3 81.2 126.4 81.2 C 127.6 81.2 128.3 80.5 128.3 79.3 C 128.32 79.3 128.3 75.2 128.3 75.2 L 128.8 75.2 C 128.8 75.2 128.83 79.27 128.8 79.3 C 128.8 80.7 127.9 81.7 126.4 81.7 C 124.9 81.7 124 80.7 124 79.3 Z M 134.6 75.7 C 134.6 75.7 134.6 76.2 134.6 76.2 C 134.1 75.9 133.5 75.6 132.8 75.6 C 131.8 75.6 131.2 76.1 131.2 76.8 C 131.2 77.5 131.9 77.8 132.9 78.1 C 133.9 78.5 134.9 78.8 134.9 79.9 C 134.9 81 134 81.7 132.7 81.7 C 132 81.7 131.2 81.5 130.6 81 C 130.6 81 130.6 80.3 130.6 80.3 C 131.1 80.9 131.9 81.2 132.7 81.2 C 133.7 81.2 134.4 80.7 134.4 79.9 C 134.4 79.2 133.7 78.9 132.6 78.5 C 131.6 78.2 130.7 77.9 130.7 76.8 C 130.7 75.8 131.5 75.1 132.8 75.1 C 133.4 75.1 134.1 75.3 134.6 75.7 Z M 136.2 78.4 C 136.2 76.4 137.6 75.1 139.1 75.1 C 140.1 75.1 141.1 75.7 141.6 76.8 C 141.6 76.82 141.7 75.2 141.7 75.2 L 142.1 75.2 L 142.1 81.6 L 141.7 81.6 C 141.7 81.6 141.6 80 141.6 80 C 141.1 81.2 140.1 81.7 139.1 81.7 C 137.6 81.7 136.2 80.4 136.2 78.4 Z M 141.6 78.4 C 141.6 76.7 140.5 75.6 139.1 75.6 C 137.8 75.6 136.7 76.7 136.7 78.4 C 136.7 80.1 137.8 81.2 139.1 81.2 C 140.5 81.2 141.6 80.1 141.6 78.4 Z M 149.3 76.8 C 149.26 76.76 149.3 75.2 149.3 75.2 L 149.7 75.2 C 149.7 75.2 149.73 81.4 149.7 81.4 C 149.7 83.4 148.4 84.3 146.9 84.3 C 146.1 84.3 145.2 84 144.5 83.5 C 144.5 83.5 144.5 82.9 144.5 82.9 C 145.2 83.5 146.1 83.8 146.9 83.8 C 148.1 83.8 149.2 83.1 149.2 81.5 C 149.2 81.5 149.2 79.9 149.2 79.9 C 148.8 81 147.8 81.5 146.8 81.5 C 145.3 81.5 143.9 80.3 143.9 78.3 C 143.9 76.4 145.3 75.1 146.8 75.1 C 147.8 75.1 148.8 75.7 149.3 76.8 Z M 144.4 78.3 C 144.4 80 145.5 81 146.8 81 C 148.1 81 149.3 79.9 149.3 78.3 C 149.3 76.7 148.1 75.6 146.8 75.6 C 145.5 75.6 144.4 76.7 144.4 78.3 Z M 157.1 78.6 C 157.1 78.6 152.1 78.6 152.1 78.6 C 152.2 80.2 153.2 81.2 154.6 81.2 C 155.4 81.2 156.2 81 156.9 80.3 C 156.9 80.3 156.9 80.9 156.9 80.9 C 156.2 81.4 155.4 81.7 154.6 81.7 C 152.8 81.7 151.6 80.4 151.6 78.4 C 151.6 76.4 153 75.1 154.5 75.1 C 155.9 75.1 157.1 76.2 157.1 78.3 C 157.1 78.4 157.1 78.5 157.1 78.6 Z M 156.6 78.1 C 156.6 76.4 155.6 75.6 154.5 75.6 C 153.3 75.6 152.2 76.6 152.1 78.1 C 152.1 78.1 156.6 78.1 156.6 78.1 Z M 158.9 75.2 L 159.4 75.2 L 159.4 76.4 C 159.4 76.4 159.41 76.42 159.4 76.4 C 159.8 75.5 160.7 75.2 161.3 75.2 C 161.4 75.2 161.6 75.2 161.7 75.2 C 161.7 75.2 161.7 75.7 161.7 75.7 C 161.6 75.7 161.4 75.7 161.3 75.7 C 160.4 75.7 159.5 76.3 159.5 77.6 C 159.45 77.57 159.5 81.6 159.5 81.6 L 158.9 81.6 L 158.9 75.2 Z " stroke="none" fill="#000"/>
  </g>
  <g id="Polygon29956">
    <path d="M 1.1 60.8 L 1.5 60.8 C 1.5 60.8 1.61 62.44 1.6 62.4 C 2.1 61.3 3.1 60.7 4.1 60.7 C 5.6 60.7 7 62 7 64 C 7 66 5.6 67.3 4.1 67.3 C 3.1 67.3 2.1 66.7 1.6 65.7 C 1.64 65.65 1.6 69.8 1.6 69.8 L 1.1 69.8 L 1.1 60.8 Z M 6.5 64 C 6.5 62.3 5.4 61.2 4.1 61.2 C 2.7 61.2 1.6 62.3 1.6 64 C 1.6 65.7 2.8 66.8 4.1 66.8 C 5.4 66.8 6.5 65.7 6.5 64 Z M 8.4 64 C 8.4 62 9.8 60.7 11.3 60.7 C 12.3 60.7 13.3 61.3 13.8 62.4 C 13.81 62.42 13.9 60.8 13.9 60.8 L 14.3 60.8 L 14.3 67.2 L 13.9 67.2 C 13.9 67.2 13.81 65.6 13.8 65.6 C 13.3 66.8 12.3 67.3 11.3 67.3 C 9.8 67.3 8.4 66 8.4 64 Z M 13.8 64 C 13.8 62.3 12.7 61.2 11.4 61.2 C 10 61.2 8.9 62.3 8.9 64 C 8.9 65.7 10 66.8 11.4 66.8 C 12.7 66.8 13.8 65.7 13.8 64 Z M 16.6 60.8 L 17 60.8 L 17 62 C 17 62 17.03 62.02 17 62 C 17.4 61.1 18.3 60.8 18.9 60.8 C 19 60.8 19.2 60.8 19.3 60.8 C 19.3 60.8 19.3 61.3 19.3 61.3 C 19.2 61.3 19 61.3 18.9 61.3 C 18 61.3 17.1 61.9 17.1 63.2 C 17.06 63.17 17.1 67.2 17.1 67.2 L 16.6 67.2 L 16.6 60.8 Z M 19.9 64 C 19.9 62.1 21.2 60.7 22.9 60.7 C 24.6 60.7 25.9 62.1 25.9 64 C 25.9 66 24.6 67.3 22.9 67.3 C 21.2 67.3 19.9 66 19.9 64 Z M 25.4 64 C 25.4 62.2 24.2 61.2 22.9 61.2 C 21.6 61.2 20.4 62.2 20.4 64 C 20.4 65.8 21.6 66.8 22.9 66.8 C 24.2 66.8 25.4 65.8 25.4 64 Z M 27.7 58.5 C 27.7 58.3 27.8 58.1 28.1 58.1 C 28.3 58.1 28.5 58.3 28.5 58.5 C 28.5 58.7 28.3 58.9 28.1 58.9 C 27.8 58.9 27.7 58.7 27.7 58.5 Z M 27.8 60.8 L 28.3 60.8 L 28.3 67.2 L 27.8 67.2 L 27.8 60.8 Z M 34.2 61.3 C 34.2 61.3 34.2 61.8 34.2 61.8 C 33.7 61.5 33.1 61.2 32.4 61.2 C 31.4 61.2 30.8 61.7 30.8 62.4 C 30.8 63.1 31.5 63.4 32.5 63.7 C 33.5 64.1 34.5 64.4 34.5 65.5 C 34.5 66.6 33.6 67.3 32.3 67.3 C 31.6 67.3 30.8 67.1 30.2 66.6 C 30.2 66.6 30.2 65.9 30.2 65.9 C 30.7 66.5 31.5 66.8 32.3 66.8 C 33.3 66.8 34 66.3 34 65.5 C 34 64.8 33.3 64.5 32.2 64.1 C 31.2 63.8 30.3 63.5 30.3 62.4 C 30.3 61.4 31.1 60.7 32.4 60.7 C 33 60.7 33.7 60.9 34.2 61.3 Z M 42.2 60.8 L 42.6 60.8 C 42.6 60.8 42.64 62.44 42.6 62.4 C 43.1 61.3 44.1 60.7 45.2 60.7 C 46.7 60.7 48.1 62 48.1 64 C 48.1 66 46.7 67.3 45.2 67.3 C 44.1 67.3 43.1 66.7 42.7 65.7 C 42.68 65.65 42.7 69.8 42.7 69.8 L 42.2 69.8 L 42.2 60.8 Z M 47.6 64 C 47.6 62.3 46.4 61.2 45.1 61.2 C 43.8 61.2 42.7 62.3 42.7 64 C 42.7 65.7 43.8 66.8 45.1 66.8 C 46.4 66.8 47.6 65.7 47.6 64 Z M 55 64.2 C 55 64.2 49.9 64.2 49.9 64.2 C 50 65.8 51.1 66.8 52.5 66.8 C 53.3 66.8 54.1 66.6 54.8 65.9 C 54.8 65.9 54.8 66.5 54.8 66.5 C 54.1 67 53.3 67.3 52.5 67.3 C 50.7 67.3 49.4 66 49.4 64 C 49.4 62 50.9 60.7 52.4 60.7 C 53.8 60.7 55 61.8 55 63.9 C 55 64 55 64.1 55 64.2 Z M 54.5 63.7 C 54.5 62 53.5 61.2 52.4 61.2 C 51.2 61.2 50.1 62.2 50 63.7 C 50 63.7 54.5 63.7 54.5 63.7 Z M 56.7 64.9 C 56.74 64.88 56.7 60.8 56.7 60.8 L 57.2 60.8 C 57.2 60.8 57.25 64.91 57.2 64.9 C 57.2 66.1 58 66.8 59.1 66.8 C 60.3 66.8 61 66.1 61 64.9 C 61.04 64.9 61 60.8 61 60.8 L 61.5 60.8 C 61.5 60.8 61.54 64.87 61.5 64.9 C 61.5 66.3 60.6 67.3 59.1 67.3 C 57.7 67.3 56.7 66.3 56.7 64.9 Z M 63 60.8 L 63.5 60.8 L 65.6 66.6 L 65.6 66.6 L 67.7 60.8 L 68.3 60.8 L 65.9 67.2 L 65.4 67.2 L 63 60.8 Z M 74.7 64.2 C 74.7 64.2 69.7 64.2 69.7 64.2 C 69.7 65.8 70.8 66.8 72.2 66.8 C 73 66.8 73.8 66.6 74.5 65.9 C 74.5 65.9 74.5 66.5 74.5 66.5 C 73.8 67 73 67.3 72.2 67.3 C 70.4 67.3 69.2 66 69.2 64 C 69.2 62 70.6 60.7 72.1 60.7 C 73.5 60.7 74.7 61.8 74.7 63.9 C 74.7 64 74.7 64.1 74.7 64.2 Z M 74.2 63.7 C 74.2 62 73.2 61.2 72.1 61.2 C 70.9 61.2 69.8 62.2 69.7 63.7 C 69.7 63.7 74.2 63.7 74.2 63.7 Z M 81.3 63 C 81.33 62.96 81.3 67.2 81.3 67.2 L 80.8 67.2 C 80.8 67.2 80.83 63.17 80.8 63.2 C 80.8 61.9 80.2 61.2 79 61.2 C 77.9 61.2 77 61.9 77 63.1 C 77.05 63.11 77 67.2 77 67.2 L 76.5 67.2 L 76.5 60.8 L 76.9 60.8 L 77 62 C 77 62 77.01 61.96 77 62 C 77.4 61.2 78.1 60.7 79.1 60.7 C 80.4 60.7 81.3 61.6 81.3 63 Z M 84.1 60.8 L 86 60.8 L 86 61.3 L 84.1 61.3 C 84.1 61.3 84.15 65.2 84.1 65.2 C 84.1 66.4 84.8 66.8 85.7 66.8 C 85.9 66.8 86 66.8 86.2 66.8 C 86.2 66.8 86.2 67.2 86.2 67.2 C 86.2 67.2 85.9 67.3 85.6 67.3 C 84.5 67.3 83.6 66.6 83.6 65.2 C 83.65 65.22 83.6 61.3 83.6 61.3 L 82.7 61.3 L 82.7 60.8 L 83.7 60.8 L 83.7 59.3 L 84.1 59.3 L 84.1 60.8 Z M 97 61.3 C 97 61.3 97 61.8 97 61.8 C 96.5 61.5 95.9 61.2 95.2 61.2 C 94.2 61.2 93.6 61.7 93.6 62.4 C 93.6 63.1 94.3 63.4 95.3 63.7 C 96.3 64.1 97.3 64.4 97.3 65.5 C 97.3 66.6 96.4 67.3 95.1 67.3 C 94.4 67.3 93.6 67.1 93 66.6 C 93 66.6 93 65.9 93 65.9 C 93.6 66.5 94.3 66.8 95.1 66.8 C 96.2 66.8 96.8 66.3 96.8 65.5 C 96.8 64.8 96.1 64.5 95.1 64.1 C 94 63.8 93.1 63.5 93.1 62.4 C 93.1 61.4 93.9 60.7 95.2 60.7 C 95.9 60.7 96.5 60.9 97 61.3 Z M 104.2 64.2 C 104.2 64.2 99.1 64.2 99.1 64.2 C 99.2 65.8 100.2 66.8 101.7 66.8 C 102.4 66.8 103.3 66.6 103.9 65.9 C 103.9 65.9 103.9 66.5 103.9 66.5 C 103.3 67 102.5 67.3 101.7 67.3 C 99.9 67.3 98.6 66 98.6 64 C 98.6 62 100 60.7 101.6 60.7 C 103 60.7 104.2 61.8 104.2 63.9 C 104.2 64 104.2 64.1 104.2 64.2 Z M 103.7 63.7 C 103.7 62 102.6 61.2 101.6 61.2 C 100.4 61.2 99.2 62.2 99.1 63.7 C 99.1 63.7 103.7 63.7 103.7 63.7 Z M 111.9 60.8 L 112.3 60.8 L 112.4 62 C 112.4 62 112.4 62.02 112.4 62 C 112.8 61.1 113.6 60.8 114.3 60.8 C 114.4 60.8 114.6 60.8 114.7 60.8 C 114.7 60.8 114.7 61.3 114.7 61.3 C 114.6 61.3 114.4 61.3 114.3 61.3 C 113.4 61.3 112.4 61.9 112.4 63.2 C 112.43 63.17 112.4 67.2 112.4 67.2 L 111.9 67.2 L 111.9 60.8 Z M 120.8 64.2 C 120.8 64.2 115.7 64.2 115.7 64.2 C 115.8 65.8 116.9 66.8 118.3 66.8 C 119.1 66.8 119.9 66.6 120.6 65.9 C 120.6 65.9 120.6 66.5 120.6 66.5 C 119.9 67 119.1 67.3 118.3 67.3 C 116.5 67.3 115.2 66 115.2 64 C 115.2 62 116.7 60.7 118.2 60.7 C 119.6 60.7 120.8 61.8 120.8 63.9 C 120.8 64 120.8 64.1 120.8 64.2 Z M 120.3 63.7 C 120.3 62 119.3 61.2 118.2 61.2 C 117 61.2 115.9 62.2 115.8 63.7 C 115.8 63.7 120.3 63.7 120.3 63.7 Z M 123.2 60.8 L 125.1 60.8 L 125.1 61.3 L 123.2 61.3 C 123.2 61.3 123.25 65.2 123.2 65.2 C 123.2 66.4 123.9 66.8 124.8 66.8 C 125 66.8 125.1 66.8 125.3 66.8 C 125.3 66.8 125.3 67.2 125.3 67.2 C 125.3 67.2 125 67.3 124.7 67.3 C 123.6 67.3 122.7 66.6 122.7 65.2 C 122.74 65.22 122.7 61.3 122.7 61.3 L 121.8 61.3 L 121.8 60.8 L 122.8 60.8 L 122.8 59.3 L 123.2 59.3 L 123.2 60.8 Z M 126.1 64 C 126.1 62.1 127.5 60.7 129.2 60.7 C 130.9 60.7 132.2 62.1 132.2 64 C 132.2 66 130.9 67.3 129.2 67.3 C 127.5 67.3 126.1 66 126.1 64 Z M 131.7 64 C 131.7 62.2 130.5 61.2 129.2 61.2 C 127.9 61.2 126.6 62.2 126.6 64 C 126.6 65.8 127.9 66.8 129.2 66.8 C 130.5 66.8 131.7 65.8 131.7 64 Z M 134 64.9 C 133.96 64.88 134 60.8 134 60.8 L 134.5 60.8 C 134.5 60.8 134.47 64.91 134.5 64.9 C 134.5 66.1 135.2 66.8 136.4 66.8 C 137.5 66.8 138.3 66.1 138.3 64.9 C 138.26 64.9 138.3 60.8 138.3 60.8 L 138.8 60.8 C 138.8 60.8 138.76 64.87 138.8 64.9 C 138.8 66.3 137.8 67.3 136.4 67.3 C 134.9 67.3 134 66.3 134 64.9 Z M 141 60.8 L 141.4 60.8 L 141.4 62 C 141.4 62 141.43 62.02 141.4 62 C 141.8 61.1 142.7 60.8 143.3 60.8 C 143.4 60.8 143.6 60.8 143.7 60.8 C 143.7 60.8 143.7 61.3 143.7 61.3 C 143.6 61.3 143.4 61.3 143.3 61.3 C 142.4 61.3 141.5 61.9 141.5 63.2 C 141.46 63.17 141.5 67.2 141.5 67.2 L 141 67.2 L 141 60.8 Z M 149.8 63 C 149.81 62.96 149.8 67.2 149.8 67.2 L 149.3 67.2 C 149.3 67.2 149.31 63.17 149.3 63.2 C 149.3 61.9 148.7 61.2 147.5 61.2 C 146.4 61.2 145.5 61.9 145.5 63.1 C 145.53 63.11 145.5 67.2 145.5 67.2 L 145 67.2 L 145 60.8 L 145.4 60.8 L 145.5 62 C 145.5 62 145.49 61.96 145.5 62 C 145.8 61.2 146.6 60.7 147.6 60.7 C 148.9 60.7 149.8 61.6 149.8 63 Z M 157.1 64.2 C 157.1 64.2 152.1 64.2 152.1 64.2 C 152.2 65.8 153.2 66.8 154.6 66.8 C 155.4 66.8 156.2 66.6 156.9 65.9 C 156.9 65.9 156.9 66.5 156.9 66.5 C 156.2 67 155.4 67.3 154.6 67.3 C 152.8 67.3 151.6 66 151.6 64 C 151.6 62 153 60.7 154.5 60.7 C 155.9 60.7 157.1 61.8 157.1 63.9 C 157.1 64 157.1 64.1 157.1 64.2 Z M 156.6 63.7 C 156.6 62 155.6 61.2 154.5 61.2 C 153.3 61.2 152.2 62.2 152.1 63.7 C 152.1 63.7 156.6 63.7 156.6 63.7 Z M 158.9 60.8 L 159.4 60.8 L 159.4 62 C 159.4 62 159.41 62.02 159.4 62 C 159.8 61.1 160.7 60.8 161.3 60.8 C 161.4 60.8 161.6 60.8 161.7 60.8 C 161.7 60.8 161.7 61.3 161.7 61.3 C 161.6 61.3 161.4 61.3 161.3 61.3 C 160.4 61.3 159.5 61.9 159.5 63.2 C 159.45 63.17 159.5 67.2 159.5 67.2 L 158.9 67.2 L 158.9 60.8 Z " stroke="none" fill="#000"/>
  </g>
  <g id="Polygon29955">
    <path d="M 1.2 43.3 L 1.7 43.3 L 1.7 52.8 L 1.2 52.8 L 1.2 43.3 Z M 3.5 49.6 C 3.5 47.6 4.9 46.3 6.4 46.3 C 7.5 46.3 8.5 46.9 9 48 C 8.95 48.02 9 46.4 9 46.4 L 9.4 46.4 L 9.4 52.8 L 9 52.8 C 9 52.8 8.95 51.2 9 51.2 C 8.5 52.4 7.5 52.9 6.5 52.9 C 4.9 52.9 3.5 51.6 3.5 49.6 Z M 8.9 49.6 C 8.9 47.9 7.8 46.8 6.5 46.8 C 5.2 46.8 4 47.9 4 49.6 C 4 51.3 5.2 52.4 6.5 52.4 C 7.8 52.4 8.9 51.3 8.9 49.6 Z M 26.7 48.5 C 26.74 48.48 26.7 52.8 26.7 52.8 L 26.2 52.8 C 26.2 52.8 26.24 48.53 26.2 48.5 C 26.2 47.5 25.7 46.8 24.7 46.8 C 23.7 46.8 23.1 47.6 23.1 48.5 C 23.13 48.54 23.1 52.8 23.1 52.8 L 22.6 52.8 C 22.6 52.8 22.63 48.53 22.6 48.5 C 22.6 47.5 22.1 46.8 21.1 46.8 C 20.1 46.8 19.5 47.6 19.5 48.6 C 19.52 48.56 19.5 52.8 19.5 52.8 L 19 52.8 L 19 46.4 L 19.4 46.4 L 19.5 47.5 C 19.5 47.5 19.48 47.48 19.5 47.5 C 19.8 46.8 20.4 46.3 21.2 46.3 C 22.1 46.3 22.7 46.8 23 47.6 C 23.3 46.8 23.9 46.3 24.8 46.3 C 26.1 46.3 26.7 47.2 26.7 48.5 Z M 28.5 49.6 C 28.5 47.6 29.9 46.3 31.4 46.3 C 32.4 46.3 33.4 46.9 33.9 48 C 33.91 48.02 34 46.4 34 46.4 L 34.4 46.4 L 34.4 52.8 L 34 52.8 C 34 52.8 33.91 51.2 33.9 51.2 C 33.4 52.4 32.4 52.9 31.4 52.9 C 29.9 52.9 28.5 51.6 28.5 49.6 Z M 33.9 49.6 C 33.9 47.9 32.8 46.8 31.4 46.8 C 30.1 46.8 29 47.9 29 49.6 C 29 51.3 30.1 52.4 31.5 52.4 C 32.8 52.4 33.9 51.3 33.9 49.6 Z M 36.5 44.1 C 36.5 43.9 36.7 43.7 36.9 43.7 C 37.2 43.7 37.3 43.9 37.3 44.1 C 37.3 44.3 37.2 44.5 36.9 44.5 C 36.7 44.5 36.5 44.3 36.5 44.1 Z M 36.7 46.4 L 37.2 46.4 L 37.2 52.8 L 36.7 52.8 L 36.7 46.4 Z M 43.1 46.9 C 43.1 46.9 43.1 47.4 43.1 47.4 C 42.6 47.1 41.9 46.8 41.2 46.8 C 40.3 46.8 39.7 47.3 39.7 48 C 39.7 48.7 40.3 49 41.3 49.3 C 42.4 49.7 43.4 50 43.4 51.1 C 43.4 52.2 42.5 52.9 41.2 52.9 C 40.5 52.9 39.7 52.7 39.1 52.2 C 39.1 52.2 39.1 51.5 39.1 51.5 C 39.6 52.1 40.4 52.4 41.2 52.4 C 42.2 52.4 42.9 51.9 42.9 51.1 C 42.9 50.4 42.1 50.1 41.1 49.7 C 40.1 49.4 39.2 49.1 39.2 48 C 39.2 47 40 46.3 41.2 46.3 C 41.9 46.3 42.6 46.5 43.1 46.9 Z M 44.7 49.6 C 44.7 47.7 46 46.3 47.7 46.3 C 49.4 46.3 50.8 47.7 50.8 49.6 C 50.8 51.6 49.4 52.9 47.7 52.9 C 46 52.9 44.7 51.6 44.7 49.6 Z M 50.2 49.6 C 50.2 47.8 49 46.8 47.7 46.8 C 46.4 46.8 45.2 47.8 45.2 49.6 C 45.2 51.4 46.4 52.4 47.7 52.4 C 49 52.4 50.2 51.4 50.2 49.6 Z M 57.4 48.6 C 57.36 48.56 57.4 52.8 57.4 52.8 L 56.9 52.8 C 56.9 52.8 56.86 48.77 56.9 48.8 C 56.9 47.5 56.2 46.8 55 46.8 C 54 46.8 53.1 47.5 53.1 48.7 C 53.08 48.71 53.1 52.8 53.1 52.8 L 52.6 52.8 L 52.6 46.4 L 53 46.4 L 53 47.6 C 53 47.6 53.04 47.56 53 47.6 C 53.4 46.8 54.2 46.3 55.1 46.3 C 56.5 46.3 57.4 47.2 57.4 48.6 Z M 59.3 52.4 C 59.3 52.1 59.5 51.9 59.8 51.9 C 60.1 51.9 60.3 52.1 60.3 52.4 C 60.3 52.6 60.1 52.8 59.8 52.8 C 59.5 52.8 59.3 52.6 59.3 52.4 Z M 69.9 43.9 C 69.9 43.9 71.78 43.88 71.8 43.9 C 73.7 43.9 75 44.9 75 46.6 C 75 48.4 73.7 49.4 71.8 49.4 C 71.78 49.4 70.4 49.4 70.4 49.4 L 70.4 52.8 L 69.9 52.8 L 69.9 43.9 Z M 74.5 46.6 C 74.5 45.2 73.4 44.4 71.8 44.4 C 71.81 44.38 70.4 44.4 70.4 44.4 L 70.4 48.9 C 70.4 48.9 71.81 48.91 71.8 48.9 C 73.4 48.9 74.5 48.1 74.5 46.6 Z M 76.1 49.6 C 76.1 47.7 77.4 46.3 79.1 46.3 C 80.8 46.3 82.1 47.7 82.1 49.6 C 82.1 51.6 80.8 52.9 79.1 52.9 C 77.4 52.9 76.1 51.6 76.1 49.6 Z M 81.6 49.6 C 81.6 47.8 80.4 46.8 79.1 46.8 C 77.8 46.8 76.6 47.8 76.6 49.6 C 76.6 51.4 77.8 52.4 79.1 52.4 C 80.4 52.4 81.6 51.4 81.6 49.6 Z M 83.9 50.5 C 83.88 50.48 83.9 46.4 83.9 46.4 L 84.4 46.4 C 84.4 46.4 84.38 50.51 84.4 50.5 C 84.4 51.7 85.1 52.4 86.3 52.4 C 87.4 52.4 88.2 51.7 88.2 50.5 C 88.17 50.5 88.2 46.4 88.2 46.4 L 88.7 46.4 C 88.7 46.4 88.68 50.47 88.7 50.5 C 88.7 51.9 87.7 52.9 86.3 52.9 C 84.8 52.9 83.9 51.9 83.9 50.5 Z M 90.9 46.4 L 91.3 46.4 L 91.3 47.6 C 91.3 47.6 91.34 47.62 91.3 47.6 C 91.7 46.7 92.6 46.4 93.2 46.4 C 93.4 46.4 93.5 46.4 93.6 46.4 C 93.6 46.4 93.6 46.9 93.6 46.9 C 93.5 46.9 93.4 46.9 93.2 46.9 C 92.3 46.9 91.4 47.5 91.4 48.8 C 91.38 48.77 91.4 52.8 91.4 52.8 L 90.9 52.8 L 90.9 46.4 Z M 104.6 52.4 C 105.1 52.4 105.7 52.3 106.3 51.9 C 106.3 51.9 106.3 52.5 106.3 52.5 C 105.8 52.8 105.2 52.9 104.6 52.9 C 102.9 52.9 101.5 51.5 101.5 49.6 C 101.5 47.7 102.8 46.3 104.6 46.3 C 105.2 46.3 105.8 46.4 106.3 46.8 C 106.3 46.8 106.3 47.3 106.3 47.3 C 105.7 46.9 105.2 46.8 104.6 46.8 C 103.2 46.8 102 47.9 102 49.6 C 102 51.3 103.2 52.4 104.6 52.4 Z M 113 49.8 C 113 49.8 108 49.8 108 49.8 C 108.1 51.4 109.1 52.4 110.5 52.4 C 111.3 52.4 112.1 52.2 112.8 51.5 C 112.8 51.5 112.8 52.1 112.8 52.1 C 112.1 52.6 111.3 52.9 110.5 52.9 C 108.7 52.9 107.5 51.6 107.5 49.6 C 107.5 47.6 108.9 46.3 110.4 46.3 C 111.8 46.3 113.1 47.4 113.1 49.5 C 113.1 49.6 113 49.7 113 49.8 Z M 112.6 49.3 C 112.5 47.6 111.5 46.8 110.4 46.8 C 109.2 46.8 108.1 47.8 108 49.3 C 108 49.3 112.6 49.3 112.6 49.3 Z M 114.9 43.3 L 115.4 43.3 L 115.4 52.8 L 114.9 52.8 L 114.9 43.3 Z M 117.3 49.6 C 117.3 47.6 118.7 46.3 120.2 46.3 C 121.2 46.3 122.2 46.9 122.7 48 C 122.67 48.02 122.7 46.4 122.7 46.4 L 123.1 46.4 L 123.1 52.8 L 122.7 52.8 C 122.7 52.8 122.67 51.2 122.7 51.2 C 122.2 52.4 121.2 52.9 120.2 52.9 C 118.7 52.9 117.3 51.6 117.3 49.6 Z M 122.7 49.6 C 122.7 47.9 121.5 46.8 120.2 46.8 C 118.9 46.8 117.8 47.9 117.8 49.6 C 117.8 51.3 118.9 52.4 120.2 52.4 C 121.5 52.4 122.7 51.3 122.7 49.6 Z M 125.3 51.8 C 125.33 51.84 125.3 51.4 125.3 51.4 L 125.8 51.4 C 125.8 51.4 125.83 51.83 125.8 51.8 C 125.8 52.8 125.4 53.8 125.2 54.4 C 125.2 54.4 124.8 54.4 124.8 54.4 C 125 53.8 125.3 52.8 125.3 51.8 Z M 134.9 49.6 C 134.9 47.6 136.2 46.3 137.8 46.3 C 138.8 46.3 139.8 46.9 140.2 48 C 140.23 47.98 140.2 43.3 140.2 43.3 L 140.7 43.3 L 140.7 52.8 L 140.3 52.8 L 140.3 51.2 C 140.3 51.2 140.25 51.19 140.3 51.2 C 139.8 52.4 138.8 52.9 137.8 52.9 C 136.3 52.9 134.9 51.6 134.9 49.6 Z M 140.3 49.6 C 140.3 47.9 139.1 46.8 137.8 46.8 C 136.5 46.8 135.4 47.9 135.4 49.6 C 135.4 51.3 136.5 52.4 137.8 52.4 C 139.1 52.4 140.3 51.3 140.3 49.6 Z M 148.1 49.8 C 148.1 49.8 143.1 49.8 143.1 49.8 C 143.2 51.4 144.2 52.4 145.6 52.4 C 146.4 52.4 147.2 52.2 147.9 51.5 C 147.9 51.5 147.9 52.1 147.9 52.1 C 147.2 52.6 146.4 52.9 145.6 52.9 C 143.8 52.9 142.6 51.6 142.6 49.6 C 142.6 47.6 144 46.3 145.5 46.3 C 146.9 46.3 148.1 47.4 148.1 49.5 C 148.1 49.6 148.1 49.7 148.1 49.8 Z M 147.6 49.3 C 147.6 47.6 146.6 46.8 145.5 46.8 C 144.3 46.8 143.2 47.8 143.1 49.3 C 143.1 49.3 147.6 49.3 147.6 49.3 Z M 149.9 50.5 C 149.86 50.48 149.9 46.4 149.9 46.4 L 150.4 46.4 C 150.4 46.4 150.37 50.51 150.4 50.5 C 150.4 51.7 151.1 52.4 152.3 52.4 C 153.4 52.4 154.2 51.7 154.2 50.5 C 154.16 50.5 154.2 46.4 154.2 46.4 L 154.7 46.4 C 154.7 46.4 154.66 50.47 154.7 50.5 C 154.7 51.9 153.7 52.9 152.3 52.9 C 150.8 52.9 149.9 51.9 149.9 50.5 Z M 158.9 49.6 L 161.2 52.8 L 160.6 52.8 L 158.7 50 L 158.6 50 L 156.7 52.8 L 156.1 52.8 L 158.4 49.6 L 156.1 46.4 L 156.7 46.4 L 158.6 49.2 L 158.6 49.2 L 160.6 46.4 L 161.2 46.4 L 158.9 49.6 Z " stroke="none" fill="#000"/>
  </g>
  <g id="Polygon29954">
    <path d="M 6.3 35.4 C 6.3 35.4 1.2 35.4 1.2 35.4 C 1.3 37 2.3 38 3.8 38 C 4.5 38 5.3 37.8 6 37.1 C 6 37.1 6 37.7 6 37.7 C 5.4 38.2 4.6 38.5 3.7 38.5 C 1.9 38.5 0.7 37.2 0.7 35.2 C 0.7 33.2 2.1 31.9 3.6 31.9 C 5.1 31.9 6.3 33 6.3 35.1 C 6.3 35.2 6.3 35.3 6.3 35.4 Z M 5.8 34.9 C 5.7 33.2 4.7 32.4 3.6 32.4 C 2.4 32.4 1.3 33.4 1.2 34.9 C 1.2 34.9 5.8 34.9 5.8 34.9 Z M 12.9 34.2 C 12.86 34.16 12.9 38.4 12.9 38.4 L 12.4 38.4 C 12.4 38.4 12.36 34.37 12.4 34.4 C 12.4 33.1 11.7 32.4 10.5 32.4 C 9.5 32.4 8.6 33.1 8.6 34.3 C 8.58 34.31 8.6 38.4 8.6 38.4 L 8.1 38.4 L 8.1 32 L 8.5 32 L 8.5 33.2 C 8.5 33.2 8.54 33.16 8.5 33.2 C 8.9 32.4 9.7 31.9 10.6 31.9 C 12 31.9 12.9 32.8 12.9 34.2 Z M 14.2 32 L 14.7 32 L 16.8 37.8 L 16.8 37.8 L 18.9 32 L 19.4 32 L 17.1 38.4 L 16.5 38.4 L 14.2 32 Z M 20.9 29.7 C 20.9 29.5 21 29.3 21.3 29.3 C 21.5 29.3 21.7 29.5 21.7 29.7 C 21.7 29.9 21.5 30.1 21.3 30.1 C 21 30.1 20.9 29.9 20.9 29.7 Z M 21 32 L 21.5 32 L 21.5 38.4 L 21 38.4 L 21 32 Z M 23.8 32 L 24.2 32 L 24.3 33.2 C 24.3 33.2 24.3 33.22 24.3 33.2 C 24.7 32.3 25.5 32 26.2 32 C 26.3 32 26.5 32 26.6 32 C 26.6 32 26.6 32.5 26.6 32.5 C 26.5 32.5 26.3 32.5 26.2 32.5 C 25.3 32.5 24.3 33.1 24.3 34.4 C 24.33 34.37 24.3 38.4 24.3 38.4 L 23.8 38.4 L 23.8 32 Z M 27.1 35.2 C 27.1 33.3 28.5 31.9 30.2 31.9 C 31.8 31.9 33.2 33.3 33.2 35.2 C 33.2 37.2 31.8 38.5 30.2 38.5 C 28.5 38.5 27.1 37.2 27.1 35.2 Z M 32.7 35.2 C 32.7 33.4 31.5 32.4 30.2 32.4 C 28.9 32.4 27.6 33.4 27.6 35.2 C 27.6 37 28.9 38 30.2 38 C 31.5 38 32.7 37 32.7 35.2 Z M 39.8 34.2 C 39.83 34.16 39.8 38.4 39.8 38.4 L 39.3 38.4 C 39.3 38.4 39.32 34.37 39.3 34.4 C 39.3 33.1 38.7 32.4 37.5 32.4 C 36.4 32.4 35.5 33.1 35.5 34.3 C 35.54 34.31 35.5 38.4 35.5 38.4 L 35 38.4 L 35 32 L 35.4 32 L 35.5 33.2 C 35.5 33.2 35.51 33.16 35.5 33.2 C 35.9 32.4 36.6 31.9 37.6 31.9 C 38.9 31.9 39.8 32.8 39.8 34.2 Z M 46.8 34.2 C 46.81 34.16 46.8 38.4 46.8 38.4 L 46.3 38.4 C 46.3 38.4 46.31 34.37 46.3 34.4 C 46.3 33.1 45.6 32.4 44.5 32.4 C 43.4 32.4 42.5 33.1 42.5 34.3 C 42.53 34.31 42.5 38.4 42.5 38.4 L 42 38.4 L 42 32 L 42.4 32 L 42.5 33.2 C 42.5 33.2 42.49 33.16 42.5 33.2 C 42.8 32.4 43.6 31.9 44.6 31.9 C 45.9 31.9 46.8 32.8 46.8 34.2 Z M 54.1 35.4 C 54.1 35.4 49.1 35.4 49.1 35.4 C 49.2 37 50.2 38 51.6 38 C 52.4 38 53.2 37.8 53.9 37.1 C 53.9 37.1 53.9 37.7 53.9 37.7 C 53.2 38.2 52.4 38.5 51.6 38.5 C 49.8 38.5 48.6 37.2 48.6 35.2 C 48.6 33.2 50 31.9 51.5 31.9 C 52.9 31.9 54.1 33 54.1 35.1 C 54.1 35.2 54.1 35.3 54.1 35.4 Z M 53.6 34.9 C 53.6 33.2 52.6 32.4 51.5 32.4 C 50.3 32.4 49.2 33.4 49.1 34.9 C 49.1 34.9 53.6 34.9 53.6 34.9 Z M 63.7 34.1 C 63.67 34.08 63.7 38.4 63.7 38.4 L 63.2 38.4 C 63.2 38.4 63.17 34.13 63.2 34.1 C 63.2 33.1 62.7 32.4 61.7 32.4 C 60.7 32.4 60.1 33.2 60.1 34.1 C 60.06 34.14 60.1 38.4 60.1 38.4 L 59.6 38.4 C 59.6 38.4 59.56 34.13 59.6 34.1 C 59.6 33.1 59.1 32.4 58.1 32.4 C 57 32.4 56.4 33.2 56.4 34.2 C 56.45 34.16 56.4 38.4 56.4 38.4 L 55.9 38.4 L 55.9 32 L 56.3 32 L 56.4 33.1 C 56.4 33.1 56.41 33.08 56.4 33.1 C 56.7 32.4 57.3 31.9 58.1 31.9 C 59.1 31.9 59.7 32.4 59.9 33.2 C 60.2 32.4 60.8 31.9 61.7 31.9 C 63 31.9 63.7 32.8 63.7 34.1 Z M 71 35.4 C 71 35.4 65.9 35.4 65.9 35.4 C 66 37 67.1 38 68.5 38 C 69.3 38 70.1 37.8 70.8 37.1 C 70.8 37.1 70.8 37.7 70.8 37.7 C 70.1 38.2 69.3 38.5 68.5 38.5 C 66.7 38.5 65.4 37.2 65.4 35.2 C 65.4 33.2 66.9 31.9 68.4 31.9 C 69.8 31.9 71 33 71 35.1 C 71 35.2 71 35.3 71 35.4 Z M 70.5 34.9 C 70.5 33.2 69.5 32.4 68.4 32.4 C 67.2 32.4 66.1 33.4 66 34.9 C 66 34.9 70.5 34.9 70.5 34.9 Z M 77.6 34.2 C 77.6 34.16 77.6 38.4 77.6 38.4 L 77.1 38.4 C 77.1 38.4 77.1 34.37 77.1 34.4 C 77.1 33.1 76.4 32.4 75.3 32.4 C 74.2 32.4 73.3 33.1 73.3 34.3 C 73.32 34.31 73.3 38.4 73.3 38.4 L 72.8 38.4 L 72.8 32 L 73.2 32 L 73.3 33.2 C 73.3 33.2 73.28 33.16 73.3 33.2 C 73.6 32.4 74.4 31.9 75.4 31.9 C 76.7 31.9 77.6 32.8 77.6 34.2 Z M 80.4 32 L 82.3 32 L 82.3 32.5 L 80.4 32.5 C 80.4 32.5 80.42 36.4 80.4 36.4 C 80.4 37.6 81.1 38 82 38 C 82.1 38 82.3 38 82.5 38 C 82.5 38 82.5 38.4 82.5 38.4 C 82.4 38.4 82.2 38.5 81.9 38.5 C 80.7 38.5 79.9 37.8 79.9 36.4 C 79.92 36.42 79.9 32.5 79.9 32.5 L 78.9 32.5 L 78.9 32 L 79.9 32 L 79.9 30.5 L 80.4 30.5 L 80.4 32 Z M 90.6 35.2 C 90.6 33.2 92 31.9 93.5 31.9 C 94.5 31.9 95.6 32.5 96 33.6 C 96 33.58 96 28.9 96 28.9 L 96.5 28.9 L 96.5 38.4 L 96.1 38.4 L 96 36.8 C 96 36.8 96.02 36.79 96 36.8 C 95.6 38 94.5 38.5 93.5 38.5 C 92 38.5 90.6 37.2 90.6 35.2 Z M 96 35.2 C 96 33.5 94.9 32.4 93.6 32.4 C 92.3 32.4 91.1 33.5 91.1 35.2 C 91.1 36.9 92.3 38 93.6 38 C 94.9 38 96 36.9 96 35.2 Z M 103.9 35.4 C 103.9 35.4 98.8 35.4 98.8 35.4 C 98.9 37 100 38 101.4 38 C 102.2 38 103 37.8 103.7 37.1 C 103.7 37.1 103.7 37.7 103.7 37.7 C 103 38.2 102.2 38.5 101.4 38.5 C 99.6 38.5 98.3 37.2 98.3 35.2 C 98.3 33.2 99.8 31.9 101.3 31.9 C 102.7 31.9 103.9 33 103.9 35.1 C 103.9 35.2 103.9 35.3 103.9 35.4 Z M 103.4 34.9 C 103.4 33.2 102.4 32.4 101.3 32.4 C 100.1 32.4 99 33.4 98.9 34.9 C 98.9 34.9 103.4 34.9 103.4 34.9 Z M 113.6 32 L 115.4 32 L 115.4 32.5 L 113.6 32.5 C 113.6 32.5 113.55 36.4 113.6 36.4 C 113.6 37.6 114.2 38 115.1 38 C 115.3 38 115.4 38 115.6 38 C 115.6 38 115.6 38.4 115.6 38.4 C 115.6 38.4 115.3 38.5 115 38.5 C 113.9 38.5 113 37.8 113 36.4 C 113.05 36.42 113 32.5 113 32.5 L 112.1 32.5 L 112.1 32 L 113.1 32 L 113.1 30.5 L 113.6 30.5 L 113.6 32 Z M 117 32 L 117.4 32 L 117.4 33.2 C 117.4 33.2 117.45 33.22 117.5 33.2 C 117.8 32.3 118.7 32 119.3 32 C 119.5 32 119.6 32 119.7 32 C 119.7 32 119.7 32.5 119.7 32.5 C 119.6 32.5 119.5 32.5 119.3 32.5 C 118.4 32.5 117.5 33.1 117.5 34.4 C 117.49 34.37 117.5 38.4 117.5 38.4 L 117 38.4 L 117 32 Z M 120.3 35.2 C 120.3 33.2 121.7 31.9 123.2 31.9 C 124.2 31.9 125.2 32.5 125.7 33.6 C 125.7 33.62 125.8 32 125.8 32 L 126.2 32 L 126.2 38.4 L 125.8 38.4 C 125.8 38.4 125.7 36.8 125.7 36.8 C 125.2 38 124.2 38.5 123.2 38.5 C 121.7 38.5 120.3 37.2 120.3 35.2 Z M 125.7 35.2 C 125.7 33.5 124.6 32.4 123.2 32.4 C 121.9 32.4 120.8 33.5 120.8 35.2 C 120.8 36.9 121.9 38 123.2 38 C 124.6 38 125.7 36.9 125.7 35.2 Z M 127.7 32 L 128.2 32 L 130.3 37.8 L 130.4 37.8 L 132.5 32 L 133 32 L 130.6 38.4 L 130.1 38.4 L 127.7 32 Z M 133.9 35.2 C 133.9 33.2 135.3 31.9 136.8 31.9 C 137.8 31.9 138.8 32.5 139.3 33.6 C 139.27 33.62 139.3 32 139.3 32 L 139.7 32 L 139.7 38.4 L 139.3 38.4 C 139.3 38.4 139.27 36.8 139.3 36.8 C 138.8 38 137.8 38.5 136.8 38.5 C 135.3 38.5 133.9 37.2 133.9 35.2 Z M 139.3 35.2 C 139.3 33.5 138.1 32.4 136.8 32.4 C 135.5 32.4 134.4 33.5 134.4 35.2 C 134.4 36.9 135.5 38 136.8 38 C 138.1 38 139.3 36.9 139.3 35.2 Z M 141.9 29.7 C 141.9 29.5 142.1 29.3 142.3 29.3 C 142.5 29.3 142.7 29.5 142.7 29.7 C 142.7 29.9 142.5 30.1 142.3 30.1 C 142.1 30.1 141.9 29.9 141.9 29.7 Z M 142.1 32 L 142.6 32 L 142.6 38.4 L 142.1 38.4 L 142.1 32 Z M 144.9 28.9 L 145.4 28.9 L 145.4 38.4 L 144.9 38.4 L 144.9 28.9 Z M 158.5 30.9 L 158 30.9 L 156.4 29 L 157 29 L 158.5 30.9 Z M 154.6 35.2 C 154.6 33.2 156 31.9 157.5 31.9 C 158.5 31.9 159.5 32.5 160 33.6 C 159.97 33.62 160 32 160 32 L 160.4 32 L 160.4 38.4 L 160 38.4 C 160 38.4 159.97 36.8 160 36.8 C 159.5 38 158.5 38.5 157.5 38.5 C 156 38.5 154.6 37.2 154.6 35.2 Z M 160 35.2 C 160 33.5 158.8 32.4 157.5 32.4 C 156.2 32.4 155.1 33.5 155.1 35.2 C 155.1 36.9 156.2 38 157.5 38 C 158.8 38 160 36.9 160 35.2 Z " stroke="none" fill="#000"/>
  </g>
  <g id="Polygon29953">
    <path d="M 6.3 21 C 6.3 21 1.2 21 1.2 21 C 1.3 22.6 2.3 23.6 3.8 23.6 C 4.5 23.6 5.3 23.4 6 22.7 C 6 22.7 6 23.3 6 23.3 C 5.4 23.8 4.6 24.1 3.7 24.1 C 1.9 24.1 0.7 22.8 0.7 20.8 C 0.7 18.8 2.1 17.5 3.6 17.5 C 5.1 17.5 6.3 18.6 6.3 20.7 C 6.3 20.8 6.3 20.9 6.3 21 Z M 5.8 20.5 C 5.7 18.8 4.7 18 3.6 18 C 2.4 18 1.3 19 1.2 20.5 C 1.2 20.5 5.8 20.5 5.8 20.5 Z M 11.6 18.1 C 11.6 18.1 11.6 18.6 11.6 18.6 C 11.1 18.3 10.5 18 9.8 18 C 8.9 18 8.2 18.5 8.2 19.2 C 8.2 19.9 8.9 20.2 9.9 20.5 C 10.9 20.9 11.9 21.2 11.9 22.3 C 11.9 23.4 11.1 24.1 9.8 24.1 C 9 24.1 8.3 23.9 7.6 23.4 C 7.6 23.4 7.6 22.7 7.6 22.7 C 8.2 23.3 8.9 23.6 9.8 23.6 C 10.8 23.6 11.4 23.1 11.4 22.3 C 11.4 21.6 10.7 21.3 9.7 20.9 C 8.6 20.6 7.7 20.3 7.7 19.2 C 7.7 18.2 8.6 17.5 9.8 17.5 C 10.5 17.5 11.1 17.7 11.6 18.1 Z M 14.4 17.6 L 16.3 17.6 L 16.3 18.1 L 14.4 18.1 C 14.4 18.1 14.37 22 14.4 22 C 14.4 23.2 15 23.6 15.9 23.6 C 16.1 23.6 16.3 23.6 16.5 23.6 C 16.5 23.6 16.5 24 16.5 24 C 16.4 24 16.1 24.1 15.9 24.1 C 14.7 24.1 13.9 23.4 13.9 22 C 13.87 22.02 13.9 18.1 13.9 18.1 L 12.9 18.1 L 12.9 17.6 L 13.9 17.6 L 13.9 16.1 L 14.4 16.1 L 14.4 17.6 Z M 22.8 20.8 C 22.8 18.8 24.2 17.5 25.7 17.5 C 26.7 17.5 27.7 18.1 28.2 19.2 C 28.19 19.18 28.2 14.5 28.2 14.5 L 28.7 14.5 L 28.7 24 L 28.3 24 L 28.2 22.4 C 28.2 22.4 28.21 22.39 28.2 22.4 C 27.8 23.6 26.7 24.1 25.7 24.1 C 24.2 24.1 22.8 22.8 22.8 20.8 Z M 28.2 20.8 C 28.2 19.1 27.1 18 25.8 18 C 24.4 18 23.3 19.1 23.3 20.8 C 23.3 22.5 24.4 23.6 25.8 23.6 C 27.1 23.6 28.2 22.5 28.2 20.8 Z M 36.1 21 C 36.1 21 31 21 31 21 C 31.1 22.6 32.1 23.6 33.6 23.6 C 34.4 23.6 35.2 23.4 35.9 22.7 C 35.9 22.7 35.9 23.3 35.9 23.3 C 35.2 23.8 34.4 24.1 33.6 24.1 C 31.8 24.1 30.5 22.8 30.5 20.8 C 30.5 18.8 31.9 17.5 33.5 17.5 C 34.9 17.5 36.1 18.6 36.1 20.7 C 36.1 20.8 36.1 20.9 36.1 21 Z M 35.6 20.5 C 35.6 18.8 34.6 18 33.5 18 C 32.3 18 31.2 19 31 20.5 C 31 20.5 35.6 20.5 35.6 20.5 Z M 43.4 17.6 L 43.8 17.6 C 43.8 17.6 43.89 19.24 43.9 19.2 C 44.4 18.1 45.4 17.5 46.4 17.5 C 47.9 17.5 49.3 18.8 49.3 20.8 C 49.3 22.8 47.9 24.1 46.4 24.1 C 45.4 24.1 44.4 23.5 43.9 22.5 C 43.93 22.45 43.9 26.6 43.9 26.6 L 43.4 26.6 L 43.4 17.6 Z M 48.8 20.8 C 48.8 19.1 47.7 18 46.4 18 C 45 18 43.9 19.1 43.9 20.8 C 43.9 22.5 45 23.6 46.4 23.6 C 47.7 23.6 48.8 22.5 48.8 20.8 Z M 50.7 20.8 C 50.7 18.9 52.1 17.5 53.7 17.5 C 55.4 17.5 56.8 18.9 56.8 20.8 C 56.8 22.8 55.4 24.1 53.7 24.1 C 52.1 24.1 50.7 22.8 50.7 20.8 Z M 56.3 20.8 C 56.3 19 55 18 53.7 18 C 52.4 18 51.2 19 51.2 20.8 C 51.2 22.6 52.4 23.6 53.7 23.6 C 55 23.6 56.3 22.6 56.3 20.8 Z M 58.5 21.7 C 58.51 21.68 58.5 17.6 58.5 17.6 L 59 17.6 C 59 17.6 59.01 21.71 59 21.7 C 59 22.9 59.7 23.6 60.9 23.6 C 62.1 23.6 62.8 22.9 62.8 21.7 C 62.81 21.7 62.8 17.6 62.8 17.6 L 63.3 17.6 C 63.3 17.6 63.31 21.67 63.3 21.7 C 63.3 23.1 62.4 24.1 60.9 24.1 C 59.4 24.1 58.5 23.1 58.5 21.7 Z M 64.8 17.6 L 65.3 17.6 L 67.4 23.4 L 67.4 23.4 L 69.5 17.6 L 70 17.6 L 67.7 24 L 67.1 24 L 64.8 17.6 Z M 70.9 20.8 C 70.9 18.9 72.3 17.5 74 17.5 C 75.6 17.5 77 18.9 77 20.8 C 77 22.8 75.6 24.1 74 24.1 C 72.3 24.1 70.9 22.8 70.9 20.8 Z M 76.5 20.8 C 76.5 19 75.3 18 74 18 C 72.7 18 71.4 19 71.4 20.8 C 71.4 22.6 72.7 23.6 74 23.6 C 75.3 23.6 76.5 22.6 76.5 20.8 Z M 78.7 15.3 C 78.7 15.1 78.9 14.9 79.1 14.9 C 79.4 14.9 79.5 15.1 79.5 15.3 C 79.5 15.5 79.4 15.7 79.1 15.7 C 78.9 15.7 78.7 15.5 78.7 15.3 Z M 78.9 17.6 L 79.4 17.6 L 79.4 24 L 78.9 24 L 78.9 17.6 Z M 81.7 17.6 L 82.1 17.6 L 82.1 18.8 C 82.1 18.8 82.15 18.82 82.1 18.8 C 82.5 17.9 83.4 17.6 84 17.6 C 84.2 17.6 84.3 17.6 84.4 17.6 C 84.4 17.6 84.4 18.1 84.4 18.1 C 84.3 18.1 84.2 18.1 84 18.1 C 83.1 18.1 82.2 18.7 82.2 20 C 82.18 19.97 82.2 24 82.2 24 L 81.7 24 L 81.7 17.6 Z M 93.6 23.6 C 94.1 23.6 94.8 23.5 95.3 23.1 C 95.3 23.1 95.3 23.7 95.3 23.7 C 94.8 24 94.2 24.1 93.6 24.1 C 91.9 24.1 90.5 22.7 90.5 20.8 C 90.5 18.9 91.9 17.5 93.6 17.5 C 94.2 17.5 94.8 17.6 95.3 18 C 95.3 18 95.3 18.5 95.3 18.5 C 94.7 18.1 94.2 18 93.6 18 C 92.2 18 91 19.1 91 20.8 C 91 22.5 92.3 23.6 93.6 23.6 Z M 97.6 18.6 C 97.6 18.6 97.6 18.64 97.6 18.6 C 98 17.9 98.8 17.5 99.6 17.5 C 101 17.5 101.9 18.3 101.9 19.8 C 101.88 19.78 101.9 24 101.9 24 L 101.4 24 C 101.4 24 101.37 19.96 101.4 20 C 101.4 18.7 100.7 18 99.6 18 C 98.5 18 97.6 18.6 97.6 19.8 C 97.59 19.85 97.6 24 97.6 24 L 97.1 24 L 97.1 14.5 L 97.6 14.5 L 97.6 18.6 Z M 103.6 20.8 C 103.6 18.8 105 17.5 106.5 17.5 C 107.6 17.5 108.6 18.1 109 19.2 C 109.04 19.22 109.1 17.6 109.1 17.6 L 109.5 17.6 L 109.5 24 L 109.1 24 C 109.1 24 109.04 22.4 109 22.4 C 108.6 23.6 107.6 24.1 106.5 24.1 C 105 24.1 103.6 22.8 103.6 20.8 Z M 109 20.8 C 109 19.1 107.9 18 106.6 18 C 105.3 18 104.1 19.1 104.1 20.8 C 104.1 22.5 105.3 23.6 106.6 23.6 C 107.9 23.6 109 22.5 109 20.8 Z M 116.6 19.8 C 116.58 19.76 116.6 24 116.6 24 L 116.1 24 C 116.1 24 116.07 19.97 116.1 20 C 116.1 18.7 115.4 18 114.3 18 C 113.2 18 112.3 18.7 112.3 19.9 C 112.29 19.91 112.3 24 112.3 24 L 111.8 24 L 111.8 17.6 L 112.2 17.6 L 112.2 18.8 C 112.2 18.8 112.26 18.76 112.3 18.8 C 112.6 18 113.4 17.5 114.3 17.5 C 115.7 17.5 116.6 18.4 116.6 19.8 Z M 123.7 19.2 C 123.69 19.16 123.8 17.6 123.8 17.6 L 124.2 17.6 C 124.2 17.6 124.16 23.8 124.2 23.8 C 124.2 25.8 122.8 26.7 121.3 26.7 C 120.5 26.7 119.6 26.4 118.9 25.9 C 118.9 25.9 118.9 25.3 118.9 25.3 C 119.6 25.9 120.5 26.2 121.3 26.2 C 122.6 26.2 123.7 25.5 123.7 23.9 C 123.7 23.9 123.7 22.3 123.7 22.3 C 123.2 23.4 122.2 23.9 121.2 23.9 C 119.7 23.9 118.3 22.7 118.3 20.7 C 118.3 18.8 119.7 17.5 121.2 17.5 C 122.2 17.5 123.2 18.1 123.7 19.2 Z M 118.8 20.7 C 118.8 22.4 119.9 23.4 121.3 23.4 C 122.6 23.4 123.7 22.3 123.7 20.7 C 123.7 19.1 122.6 18 121.3 18 C 119.9 18 118.8 19.1 118.8 20.7 Z M 131.6 21 C 131.6 21 126.5 21 126.5 21 C 126.6 22.6 127.6 23.6 129.1 23.6 C 129.8 23.6 130.6 23.4 131.3 22.7 C 131.3 22.7 131.3 23.3 131.3 23.3 C 130.7 23.8 129.9 24.1 129 24.1 C 127.2 24.1 126 22.8 126 20.8 C 126 18.8 127.4 17.5 128.9 17.5 C 130.4 17.5 131.6 18.6 131.6 20.7 C 131.6 20.8 131.6 20.9 131.6 21 Z M 131.1 20.5 C 131 18.8 130 18 128.9 18 C 127.7 18 126.6 19 126.5 20.5 C 126.5 20.5 131.1 20.5 131.1 20.5 Z M 133.4 17.6 L 133.8 17.6 L 133.8 18.8 C 133.8 18.8 133.84 18.82 133.8 18.8 C 134.2 17.9 135.1 17.6 135.7 17.6 C 135.9 17.6 136 17.6 136.1 17.6 C 136.1 17.6 136.1 18.1 136.1 18.1 C 136 18.1 135.9 18.1 135.7 18.1 C 134.8 18.1 133.9 18.7 133.9 20 C 133.88 19.97 133.9 24 133.9 24 L 133.4 24 L 133.4 17.6 Z M 146.2 18.1 C 146.2 18.1 146.2 18.6 146.2 18.6 C 145.7 18.3 145.1 18 144.4 18 C 143.4 18 142.8 18.5 142.8 19.2 C 142.8 19.9 143.5 20.2 144.5 20.5 C 145.5 20.9 146.5 21.2 146.5 22.3 C 146.5 23.4 145.7 24.1 144.4 24.1 C 143.6 24.1 142.8 23.9 142.2 23.4 C 142.2 23.4 142.2 22.7 142.2 22.7 C 142.8 23.3 143.5 23.6 144.4 23.6 C 145.4 23.6 146 23.1 146 22.3 C 146 21.6 145.3 21.3 144.3 20.9 C 143.2 20.6 142.3 20.3 142.3 19.2 C 142.3 18.2 143.2 17.5 144.4 17.5 C 145.1 17.5 145.7 17.7 146.2 18.1 Z M 147.8 20.8 C 147.8 18.9 149.2 17.5 150.9 17.5 C 152.5 17.5 153.9 18.9 153.9 20.8 C 153.9 22.8 152.5 24.1 150.9 24.1 C 149.2 24.1 147.8 22.8 147.8 20.8 Z M 153.4 20.8 C 153.4 19 152.2 18 150.9 18 C 149.6 18 148.3 19 148.3 20.8 C 148.3 22.6 149.6 23.6 150.9 23.6 C 152.2 23.6 153.4 22.6 153.4 20.8 Z M 160.5 19.8 C 160.52 19.76 160.5 24 160.5 24 L 160 24 C 160 24 160.02 19.97 160 20 C 160 18.7 159.4 18 158.2 18 C 157.1 18 156.2 18.7 156.2 19.9 C 156.23 19.91 156.2 24 156.2 24 L 155.7 24 L 155.7 17.6 L 156.1 17.6 L 156.2 18.8 C 156.2 18.8 156.2 18.76 156.2 18.8 C 156.5 18 157.3 17.5 158.3 17.5 C 159.6 17.5 160.5 18.4 160.5 19.8 Z " stroke="none" fill="#000"/>
  </g>
  <g id="Polygon29952">
    <path d="M 1.4 0.7 L 1.9 0.7 L 1.9 9.1 L 6 9.1 L 6 9.6 L 1.4 9.6 L 1.4 0.7 Z M 12.2 6.6 C 12.2 6.6 7.1 6.6 7.1 6.6 C 7.2 8.2 8.2 9.2 9.7 9.2 C 10.5 9.2 11.3 9 12 8.3 C 12 8.3 12 8.9 12 8.9 C 11.3 9.4 10.5 9.7 9.7 9.7 C 7.9 9.7 6.6 8.4 6.6 6.4 C 6.6 4.4 8 3.1 9.6 3.1 C 11 3.1 12.2 4.2 12.2 6.3 C 12.2 6.4 12.2 6.5 12.2 6.6 Z M 11.7 6.1 C 11.7 4.4 10.7 3.6 9.6 3.6 C 8.4 3.6 7.2 4.6 7.1 6.1 C 7.1 6.1 11.7 6.1 11.7 6.1 Z M 23 3.2 L 23.4 3.2 C 23.4 3.2 23.46 4.84 23.5 4.8 C 23.9 3.7 25 3.1 26 3.1 C 27.5 3.1 28.9 4.4 28.9 6.4 C 28.9 8.4 27.5 9.7 26 9.7 C 25 9.7 23.9 9.1 23.5 8.1 C 23.5 8.05 23.5 12.2 23.5 12.2 L 23 12.2 L 23 3.2 Z M 28.4 6.4 C 28.4 4.7 27.3 3.6 25.9 3.6 C 24.6 3.6 23.5 4.7 23.5 6.4 C 23.5 8.1 24.6 9.2 25.9 9.2 C 27.2 9.2 28.4 8.1 28.4 6.4 Z M 30.7 3.2 L 31.1 3.2 L 31.2 4.4 C 31.2 4.4 31.18 4.42 31.2 4.4 C 31.6 3.5 32.4 3.2 33.1 3.2 C 33.2 3.2 33.3 3.2 33.4 3.2 C 33.4 3.2 33.4 3.7 33.4 3.7 C 33.3 3.7 33.2 3.7 33.1 3.7 C 32.2 3.7 31.2 4.3 31.2 5.6 C 31.22 5.57 31.2 9.6 31.2 9.6 L 30.7 9.6 L 30.7 3.2 Z M 34.7 0.9 C 34.7 0.7 34.8 0.5 35.1 0.5 C 35.3 0.5 35.5 0.7 35.5 0.9 C 35.5 1.1 35.3 1.3 35.1 1.3 C 34.8 1.3 34.7 1.1 34.7 0.9 Z M 34.8 3.2 L 35.3 3.2 L 35.3 9.6 L 34.8 9.6 L 34.8 3.2 Z M 42.4 5.4 C 42.42 5.36 42.4 9.6 42.4 9.6 L 41.9 9.6 C 41.9 9.6 41.92 5.57 41.9 5.6 C 41.9 4.3 41.3 3.6 40.1 3.6 C 39 3.6 38.1 4.3 38.1 5.5 C 38.14 5.51 38.1 9.6 38.1 9.6 L 37.6 9.6 L 37.6 3.2 L 38 3.2 L 38.1 4.4 C 38.1 4.4 38.1 4.36 38.1 4.4 C 38.5 3.6 39.2 3.1 40.2 3.1 C 41.5 3.1 42.4 4 42.4 5.4 Z M 47.2 9.2 C 47.8 9.2 48.4 9.1 49 8.7 C 49 8.7 49 9.3 49 9.3 C 48.5 9.6 47.9 9.7 47.2 9.7 C 45.5 9.7 44.2 8.3 44.2 6.4 C 44.2 4.5 45.5 3.1 47.2 3.1 C 47.8 3.1 48.4 3.2 49 3.6 C 49 3.6 49 4.1 49 4.1 C 48.4 3.7 47.8 3.6 47.2 3.6 C 45.9 3.6 44.7 4.7 44.7 6.4 C 44.7 8.1 45.9 9.2 47.2 9.2 Z M 50.6 0.9 C 50.6 0.7 50.8 0.5 51 0.5 C 51.3 0.5 51.4 0.7 51.4 0.9 C 51.4 1.1 51.3 1.3 51 1.3 C 50.8 1.3 50.6 1.1 50.6 0.9 Z M 50.8 3.2 L 51.3 3.2 L 51.3 9.6 L 50.8 9.6 L 50.8 3.2 Z M 53.6 3.2 L 54 3.2 C 54 3.2 54.06 4.84 54.1 4.8 C 54.5 3.7 55.6 3.1 56.6 3.1 C 58.1 3.1 59.5 4.4 59.5 6.4 C 59.5 8.4 58.1 9.7 56.6 9.7 C 55.6 9.7 54.5 9.1 54.1 8.1 C 54.1 8.05 54.1 12.2 54.1 12.2 L 53.6 12.2 L 53.6 3.2 Z M 59 6.4 C 59 4.7 57.9 3.6 56.5 3.6 C 55.2 3.6 54.1 4.7 54.1 6.4 C 54.1 8.1 55.2 9.2 56.5 9.2 C 57.8 9.2 59 8.1 59 6.4 Z M 66.4 6.6 C 66.4 6.6 61.4 6.6 61.4 6.6 C 61.5 8.2 62.5 9.2 63.9 9.2 C 64.7 9.2 65.5 9 66.2 8.3 C 66.2 8.3 66.2 8.9 66.2 8.9 C 65.5 9.4 64.7 9.7 63.9 9.7 C 62.1 9.7 60.9 8.4 60.9 6.4 C 60.9 4.4 62.3 3.1 63.8 3.1 C 65.2 3.1 66.4 4.2 66.4 6.3 C 66.4 6.4 66.4 6.5 66.4 6.6 Z M 65.9 6.1 C 65.9 4.4 64.9 3.6 63.8 3.6 C 62.6 3.6 61.5 4.6 61.4 6.1 C 61.4 6.1 65.9 6.1 65.9 6.1 Z M 76.8 6.4 C 76.8 4.4 78.2 3.1 79.7 3.1 C 80.7 3.1 81.7 3.7 82.2 4.8 C 82.17 4.78 82.2 0.1 82.2 0.1 L 82.7 0.1 L 82.7 9.6 L 82.3 9.6 L 82.2 8 C 82.2 8 82.2 7.99 82.2 8 C 81.7 9.2 80.7 9.7 79.7 9.7 C 78.2 9.7 76.8 8.4 76.8 6.4 Z M 82.2 6.4 C 82.2 4.7 81.1 3.6 79.7 3.6 C 78.4 3.6 77.3 4.7 77.3 6.4 C 77.3 8.1 78.4 9.2 79.7 9.2 C 81.1 9.2 82.2 8.1 82.2 6.4 Z M 90.1 6.6 C 90.1 6.6 85 6.6 85 6.6 C 85.1 8.2 86.1 9.2 87.6 9.2 C 88.3 9.2 89.2 9 89.8 8.3 C 89.8 8.3 89.8 8.9 89.8 8.9 C 89.2 9.4 88.4 9.7 87.5 9.7 C 85.8 9.7 84.5 8.4 84.5 6.4 C 84.5 4.4 85.9 3.1 87.5 3.1 C 88.9 3.1 90.1 4.2 90.1 6.3 C 90.1 6.4 90.1 6.5 90.1 6.6 Z M 89.6 6.1 C 89.6 4.4 88.5 3.6 87.5 3.6 C 86.3 3.6 85.1 4.6 85 6.1 C 85 6.1 89.6 6.1 89.6 6.1 Z M 103.5 9.2 C 104 9.2 104.7 9.1 105.2 8.7 C 105.2 8.7 105.2 9.3 105.2 9.3 C 104.7 9.6 104.1 9.7 103.5 9.7 C 101.8 9.7 100.4 8.3 100.4 6.4 C 100.4 4.5 101.8 3.1 103.5 3.1 C 104.1 3.1 104.7 3.2 105.2 3.6 C 105.2 3.6 105.2 4.1 105.2 4.1 C 104.7 3.7 104.1 3.6 103.5 3.6 C 102.2 3.6 100.9 4.7 100.9 6.4 C 100.9 8.1 102.2 9.2 103.5 9.2 Z M 112 6.6 C 112 6.6 106.9 6.6 106.9 6.6 C 107 8.2 108 9.2 109.5 9.2 C 110.2 9.2 111.1 9 111.7 8.3 C 111.7 8.3 111.7 8.9 111.7 8.9 C 111.1 9.4 110.3 9.7 109.4 9.7 C 107.7 9.7 106.4 8.4 106.4 6.4 C 106.4 4.4 107.8 3.1 109.4 3.1 C 110.8 3.1 112 4.2 112 6.3 C 112 6.4 112 6.5 112 6.6 Z M 111.5 6.1 C 111.5 4.4 110.4 3.6 109.4 3.6 C 108.1 3.6 107 4.6 106.9 6.1 C 106.9 6.1 111.5 6.1 111.5 6.1 Z M 123.3 4.8 C 123.7 3.7 124.7 3.1 125.8 3.1 C 127.3 3.1 128.7 4.4 128.7 6.4 C 128.7 8.4 127.3 9.7 125.8 9.7 C 124.7 9.7 123.7 9.2 123.2 8 C 123.25 7.99 123.2 9.6 123.2 9.6 L 122.8 9.6 L 122.8 0.1 L 123.3 0.1 C 123.3 0.1 123.28 4.79 123.3 4.8 Z M 123.3 6.4 C 123.3 8.1 124.4 9.2 125.7 9.2 C 127 9.2 128.2 8.1 128.2 6.4 C 128.2 4.7 127 3.6 125.7 3.6 C 124.4 3.6 123.3 4.7 123.3 6.4 Z M 130.4 7.3 C 130.41 7.28 130.4 3.2 130.4 3.2 L 130.9 3.2 C 130.9 3.2 130.91 7.31 130.9 7.3 C 130.9 8.5 131.6 9.2 132.8 9.2 C 134 9.2 134.7 8.5 134.7 7.3 C 134.71 7.3 134.7 3.2 134.7 3.2 L 135.2 3.2 C 135.2 3.2 135.21 7.27 135.2 7.3 C 135.2 8.7 134.3 9.7 132.8 9.7 C 131.3 9.7 130.4 8.7 130.4 7.3 Z M 137.4 3.2 L 137.8 3.2 L 137.9 4.4 C 137.9 4.4 137.87 4.42 137.9 4.4 C 138.3 3.5 139.1 3.2 139.8 3.2 C 139.9 3.2 140 3.2 140.1 3.2 C 140.1 3.2 140.1 3.7 140.1 3.7 C 140 3.7 139.9 3.7 139.8 3.7 C 138.9 3.7 137.9 4.3 137.9 5.6 C 137.91 5.57 137.9 9.6 137.9 9.6 L 137.4 9.6 L 137.4 3.2 Z M 146.3 6.6 C 146.3 6.6 141.2 6.6 141.2 6.6 C 141.3 8.2 142.3 9.2 143.8 9.2 C 144.5 9.2 145.4 9 146 8.3 C 146 8.3 146 8.9 146 8.9 C 145.4 9.4 144.6 9.7 143.8 9.7 C 142 9.7 140.7 8.4 140.7 6.4 C 140.7 4.4 142.1 3.1 143.7 3.1 C 145.1 3.1 146.3 4.2 146.3 6.3 C 146.3 6.4 146.3 6.5 146.3 6.6 Z M 145.8 6.1 C 145.8 4.4 144.8 3.6 143.7 3.6 C 142.5 3.6 141.3 4.6 141.2 6.1 C 141.2 6.1 145.8 6.1 145.8 6.1 Z M 147.6 6.4 C 147.6 4.4 149 3.1 150.5 3.1 C 151.6 3.1 152.6 3.7 153.1 4.8 C 153.06 4.82 153.1 3.2 153.1 3.2 L 153.5 3.2 L 153.5 9.6 L 153.1 9.6 C 153.1 9.6 153.06 8 153.1 8 C 152.6 9.2 151.6 9.7 150.6 9.7 C 149 9.7 147.6 8.4 147.6 6.4 Z M 153 6.4 C 153 4.7 151.9 3.6 150.6 3.6 C 149.3 3.6 148.1 4.7 148.1 6.4 C 148.1 8.1 149.3 9.2 150.6 9.2 C 151.9 9.2 153 8.1 153 6.4 Z M 155.7 7.3 C 155.72 7.28 155.7 3.2 155.7 3.2 L 156.2 3.2 C 156.2 3.2 156.22 7.31 156.2 7.3 C 156.2 8.5 157 9.2 158.1 9.2 C 159.3 9.2 160 8.5 160 7.3 C 160.02 7.3 160 3.2 160 3.2 L 160.5 3.2 C 160.5 3.2 160.52 7.27 160.5 7.3 C 160.5 8.7 159.6 9.7 158.1 9.7 C 156.6 9.7 155.7 8.7 155.7 7.3 Z " stroke="none" fill="#000"/>
  </g>
</svg>