<?xml version="1.0" standalone="no"?>
<!DOCTYPE svg PUBLIC "-//W3C//DTD SVG 1.1//EN" "http://www.w3.org/Graphics/SVG/1.1/DTD/svg11.dtd">
<svg xmlns="http://www.w3.org/2000/svg" version="1.1" width="371.3px" height="85.4px" viewBox="0 0 371.3 85.4">
  <desc>Verri re photovoltaique</desc>
  <defs/>
  <g id="Polygon28284">
    <path d="M 4.3 9.6 L 3.8 9.6 L 0.2 0.7 L 0.8 0.7 L 4 9 L 4.1 9 L 7.3 0.7 L 7.9 0.7 L 4.3 9.6 Z M 13.7 6.6 C 13.7 6.6 8.7 6.6 8.7 6.6 C 8.8 8.2 9.8 9.2 11.2 9.2 C 12 9.2 12.8 9 13.5 8.3 C 13.5 8.3 13.5 8.9 13.5 8.9 C 12.8 9.4 12 9.7 11.2 9.7 C 9.4 9.7 8.2 8.4 8.2 6.4 C 8.2 4.4 9.6 3.1 11.1 3.1 C 12.6 3.1 13.8 4.2 13.8 6.3 C 13.8 6.4 13.8 6.5 13.7 6.6 Z M 13.3 6.1 C 13.2 4.4 12.2 3.6 11.1 3.6 C 9.9 3.6 8.8 4.6 8.7 6.1 C 8.7 6.1 13.3 6.1 13.3 6.1 Z M 15.6 3.2 L 16 3.2 L 16 4.4 C 16 4.4 16.03 4.42 16 4.4 C 16.4 3.5 17.3 3.2 17.9 3.2 C 18 3.2 18.2 3.2 18.3 3.2 C 18.3 3.2 18.3 3.7 18.3 3.7 C 18.2 3.7 18 3.7 17.9 3.7 C 17 3.7 16.1 4.3 16.1 5.6 C 16.07 5.57 16.1 9.6 16.1 9.6 L 15.6 9.6 L 15.6 3.2 Z M 19.6 3.2 L 20 3.2 L 20.1 4.4 C 20.1 4.4 20.1 4.42 20.1 4.4 C 20.5 3.5 21.3 3.2 22 3.2 C 22.1 3.2 22.3 3.2 22.4 3.2 C 22.4 3.2 22.4 3.7 22.4 3.7 C 22.3 3.7 22.1 3.7 22 3.7 C 21.1 3.7 20.1 4.3 20.1 5.6 C 20.13 5.57 20.1 9.6 20.1 9.6 L 19.6 9.6 L 19.6 3.2 Z M 23.6 0.9 C 23.6 0.7 23.8 0.5 24 0.5 C 24.2 0.5 24.4 0.7 24.4 0.9 C 24.4 1.1 24.2 1.3 24 1.3 C 23.8 1.3 23.6 1.1 23.6 0.9 Z M 23.7 3.2 L 24.2 3.2 L 24.2 9.6 L 23.7 9.6 L 23.7 3.2 Z M 29.3 2.1 L 27.7 0.2 L 28.3 0.2 L 29.7 2.1 L 29.3 2.1 Z M 31.7 6.6 C 31.7 6.6 26.6 6.6 26.6 6.6 C 26.7 8.2 27.7 9.2 29.2 9.2 C 29.9 9.2 30.8 9 31.4 8.3 C 31.4 8.3 31.4 8.9 31.4 8.9 C 30.8 9.4 30 9.7 29.1 9.7 C 27.4 9.7 26.1 8.4 26.1 6.4 C 26.1 4.4 27.5 3.1 29.1 3.1 C 30.5 3.1 31.7 4.2 31.7 6.3 C 31.7 6.4 31.7 6.5 31.7 6.6 Z M 31.2 6.1 C 31.2 4.4 30.1 3.6 29.1 3.6 C 27.9 3.6 26.7 4.6 26.6 6.1 C 26.6 6.1 31.2 6.1 31.2 6.1 Z M 33.5 3.2 L 33.9 3.2 L 33.9 4.4 C 33.9 4.4 33.96 4.42 34 4.4 C 34.3 3.5 35.2 3.2 35.8 3.2 C 36 3.2 36.1 3.2 36.2 3.2 C 36.2 3.2 36.2 3.7 36.2 3.7 C 36.1 3.7 36 3.7 35.8 3.7 C 34.9 3.7 34 4.3 34 5.6 C 33.99 5.57 34 9.6 34 9.6 L 33.5 9.6 L 33.5 3.2 Z M 42.4 6.6 C 42.4 6.6 37.3 6.6 37.3 6.6 C 37.4 8.2 38.4 9.2 39.9 9.2 C 40.6 9.2 41.4 9 42.1 8.3 C 42.1 8.3 42.1 8.9 42.1 8.9 C 41.5 9.4 40.7 9.7 39.8 9.7 C 38.1 9.7 36.8 8.4 36.8 6.4 C 36.8 4.4 38.2 3.1 39.8 3.1 C 41.2 3.1 42.4 4.2 42.4 6.3 C 42.4 6.4 42.4 6.5 42.4 6.6 Z M 41.9 6.1 C 41.9 4.4 40.8 3.6 39.8 3.6 C 38.5 3.6 37.4 4.6 37.3 6.1 C 37.3 6.1 41.9 6.1 41.9 6.1 Z M 47.7 3.2 L 48 3.2 C 48 3.2 48.12 4.84 48.1 4.8 C 48.6 3.7 49.6 3.1 50.6 3.1 C 52.1 3.1 53.5 4.4 53.5 6.4 C 53.5 8.4 52.1 9.7 50.6 9.7 C 49.6 9.7 48.6 9.1 48.2 8.1 C 48.15 8.05 48.2 12.2 48.2 12.2 L 47.7 12.2 L 47.7 3.2 Z M 53 6.4 C 53 4.7 51.9 3.6 50.6 3.6 C 49.3 3.6 48.1 4.7 48.1 6.4 C 48.1 8.1 49.3 9.2 50.6 9.2 C 51.9 9.2 53 8.1 53 6.4 Z M 55.9 4.2 C 55.9 4.2 55.88 4.24 55.9 4.2 C 56.2 3.5 57 3.1 57.9 3.1 C 59.3 3.1 60.2 3.9 60.2 5.4 C 60.15 5.38 60.2 9.6 60.2 9.6 L 59.7 9.6 C 59.7 9.6 59.65 5.56 59.7 5.6 C 59.7 4.3 59 3.6 57.9 3.6 C 56.8 3.6 55.9 4.2 55.9 5.4 C 55.87 5.45 55.9 9.6 55.9 9.6 L 55.4 9.6 L 55.4 0.1 L 55.9 0.1 L 55.9 4.2 Z M 61.9 6.4 C 61.9 4.5 63.3 3.1 65 3.1 C 66.6 3.1 68 4.5 68 6.4 C 68 8.4 66.6 9.7 65 9.7 C 63.3 9.7 61.9 8.4 61.9 6.4 Z M 67.5 6.4 C 67.5 4.6 66.3 3.6 65 3.6 C 63.6 3.6 62.4 4.6 62.4 6.4 C 62.4 8.2 63.7 9.2 65 9.2 C 66.3 9.2 67.5 8.2 67.5 6.4 Z M 70.4 3.2 L 72.3 3.2 L 72.3 3.7 L 70.4 3.7 C 70.4 3.7 70.43 7.6 70.4 7.6 C 70.4 8.8 71.1 9.2 72 9.2 C 72.1 9.2 72.3 9.2 72.5 9.2 C 72.5 9.2 72.5 9.6 72.5 9.6 C 72.4 9.6 72.2 9.7 71.9 9.7 C 70.7 9.7 69.9 9 69.9 7.6 C 69.92 7.62 69.9 3.7 69.9 3.7 L 68.9 3.7 L 68.9 3.2 L 69.9 3.2 L 69.9 1.7 L 70.4 1.7 L 70.4 3.2 Z M 73.3 6.4 C 73.3 4.5 74.7 3.1 76.4 3.1 C 78 3.1 79.4 4.5 79.4 6.4 C 79.4 8.4 78 9.7 76.4 9.7 C 74.7 9.7 73.3 8.4 73.3 6.4 Z M 78.9 6.4 C 78.9 4.6 77.7 3.6 76.4 3.6 C 75.1 3.6 73.8 4.6 73.8 6.4 C 73.8 8.2 75.1 9.2 76.4 9.2 C 77.7 9.2 78.9 8.2 78.9 6.4 Z M 80.3 3.2 L 80.8 3.2 L 82.9 9 L 82.9 9 L 85 3.2 L 85.5 3.2 L 83.2 9.6 L 82.6 9.6 L 80.3 3.2 Z M 86.4 6.4 C 86.4 4.5 87.8 3.1 89.5 3.1 C 91.2 3.1 92.5 4.5 92.5 6.4 C 92.5 8.4 91.2 9.7 89.5 9.7 C 87.8 9.7 86.4 8.4 86.4 6.4 Z M 92 6.4 C 92 4.6 90.8 3.6 89.5 3.6 C 88.2 3.6 86.9 4.6 86.9 6.4 C 86.9 8.2 88.2 9.2 89.5 9.2 C 90.8 9.2 92 8.2 92 6.4 Z M 94.4 0.1 L 94.9 0.1 L 94.9 9.6 L 94.4 9.6 L 94.4 0.1 Z M 97.9 3.2 L 99.8 3.2 L 99.8 3.7 L 97.9 3.7 C 97.9 3.7 97.88 7.6 97.9 7.6 C 97.9 8.8 98.5 9.2 99.4 9.2 C 99.6 9.2 99.8 9.2 100 9.2 C 100 9.2 100 9.6 100 9.6 C 99.9 9.6 99.6 9.7 99.4 9.7 C 98.2 9.7 97.4 9 97.4 7.6 C 97.38 7.62 97.4 3.7 97.4 3.7 L 96.4 3.7 L 96.4 3.2 L 97.4 3.2 L 97.4 1.7 L 97.9 1.7 L 97.9 3.2 Z M 100.8 6.4 C 100.8 4.4 102.2 3.1 103.7 3.1 C 104.7 3.1 105.7 3.7 106.2 4.8 C 106.19 4.82 106.3 3.2 106.3 3.2 L 106.7 3.2 L 106.7 9.6 L 106.3 9.6 C 106.3 9.6 106.19 8 106.2 8 C 105.7 9.2 104.7 9.7 103.7 9.7 C 102.2 9.7 100.8 8.4 100.8 6.4 Z M 106.2 6.4 C 106.2 4.7 105.1 3.6 103.7 3.6 C 102.4 3.6 101.3 4.7 101.3 6.4 C 101.3 8.1 102.4 9.2 103.7 9.2 C 105 9.2 106.2 8.1 106.2 6.4 Z M 108.8 0.9 C 108.8 0.7 109 0.5 109.2 0.5 C 109.5 0.5 109.6 0.7 109.6 0.9 C 109.6 1.1 109.5 1.3 109.2 1.3 C 109 1.3 108.8 1.1 108.8 0.9 Z M 109 3.2 L 109.5 3.2 L 109.5 9.6 L 109 9.6 L 109 3.2 Z M 116.7 4.8 C 116.75 4.84 116.8 3.2 116.8 3.2 L 117.2 3.2 L 117.2 12.2 L 116.7 12.2 C 116.7 12.2 116.71 8.04 116.7 8 C 116.3 9.1 115.3 9.7 114.3 9.7 C 112.7 9.7 111.3 8.4 111.3 6.4 C 111.3 4.4 112.7 3.1 114.2 3.1 C 115.3 3.1 116.3 3.7 116.7 4.8 Z M 111.8 6.4 C 111.8 8.1 113 9.2 114.3 9.2 C 115.6 9.2 116.7 8.1 116.7 6.4 C 116.7 4.7 115.6 3.6 114.3 3.6 C 113 3.6 111.8 4.7 111.8 6.4 Z M 119.4 7.3 C 119.41 7.28 119.4 3.2 119.4 3.2 L 119.9 3.2 C 119.9 3.2 119.91 7.31 119.9 7.3 C 119.9 8.5 120.6 9.2 121.8 9.2 C 123 9.2 123.7 8.5 123.7 7.3 C 123.71 7.3 123.7 3.2 123.7 3.2 L 124.2 3.2 C 124.2 3.2 124.21 7.27 124.2 7.3 C 124.2 8.7 123.3 9.7 121.8 9.7 C 120.3 9.7 119.4 8.7 119.4 7.3 Z M 131.5 6.6 C 131.5 6.6 126.5 6.6 126.5 6.6 C 126.5 8.2 127.6 9.2 129 9.2 C 129.8 9.2 130.6 9 131.3 8.3 C 131.3 8.3 131.3 8.9 131.3 8.9 C 130.6 9.4 129.8 9.7 129 9.7 C 127.2 9.7 126 8.4 126 6.4 C 126 4.4 127.4 3.1 128.9 3.1 C 130.3 3.1 131.5 4.2 131.5 6.3 C 131.5 6.4 131.5 6.5 131.5 6.6 Z M 131 6.1 C 131 4.4 130 3.6 128.9 3.6 C 127.7 3.6 126.6 4.6 126.5 6.1 C 126.5 6.1 131 6.1 131 6.1 Z M 133.1 9.2 C 133.1 8.9 133.3 8.7 133.6 8.7 C 133.9 8.7 134.1 8.9 134.1 9.2 C 134.1 9.4 133.9 9.6 133.6 9.6 C 133.3 9.6 133.1 9.4 133.1 9.2 Z " stroke="none" fill="#fff"/>
  </g>
</svg>