<?xml version="1.0" standalone="no"?>
<!DOCTYPE svg PUBLIC "-//W3C//DTD SVG 1.1//EN" "http://www.w3.org/Graphics/SVG/1.1/DTD/svg11.dtd">
<svg xmlns="http://www.w3.org/2000/svg" version="1.1" width="305.4px" height="123.7px" viewBox="0 0 305.4 123.7">
  <desc>de recherches</desc>
  <defs/>
  <g id="Polygon22889">
    <path d="M 11.3 25.1 C 11.3 25.1 11.02 25.06 11 25.1 C 10.8 25.4 10.6 25.7 10.3 26 C 10 26.3 9.7 26.5 9.3 26.7 C 9 26.9 8.6 27 8.2 27.1 C 7.8 27.2 7.5 27.2 7.1 27.2 C 6.3 27.2 5.6 27.1 4.9 26.8 C 4.2 26.5 3.6 26.1 3.1 25.6 C 2.6 25.1 2.2 24.5 1.9 23.7 C 1.6 23 1.4 22.1 1.4 21.1 C 1.4 21.1 1.4 20.7 1.4 20.7 C 1.4 19.8 1.6 18.9 1.9 18.2 C 2.2 17.4 2.6 16.8 3.1 16.2 C 3.6 15.7 4.2 15.3 4.9 15 C 5.6 14.8 6.3 14.6 7.1 14.6 C 7.9 14.6 8.7 14.8 9.4 15.2 C 10.1 15.5 10.6 16.1 11 16.8 C 11.02 16.85 11.3 16.8 11.3 16.8 L 11.3 10.1 L 13.2 10.1 L 13.2 26.9 L 11.3 26.9 L 11.3 25.1 Z M 7.3 25.4 C 7.9 25.4 8.4 25.3 8.9 25.1 C 9.4 24.9 9.8 24.6 10.1 24.2 C 10.5 23.9 10.8 23.4 11 22.9 C 11.2 22.3 11.3 21.7 11.3 21.1 C 11.3 21.1 11.3 20.8 11.3 20.8 C 11.3 20.1 11.2 19.6 11 19 C 10.8 18.5 10.5 18 10.1 17.6 C 9.8 17.3 9.4 17 8.9 16.7 C 8.4 16.5 7.9 16.4 7.3 16.4 C 6.8 16.4 6.2 16.5 5.7 16.7 C 5.3 16.9 4.8 17.2 4.5 17.6 C 4.1 18 3.8 18.5 3.6 19 C 3.4 19.5 3.3 20.1 3.3 20.7 C 3.3 20.7 3.3 21.1 3.3 21.1 C 3.3 21.8 3.4 22.4 3.6 22.9 C 3.8 23.4 4.1 23.9 4.5 24.3 C 4.8 24.7 5.3 24.9 5.7 25.1 C 6.2 25.3 6.7 25.4 7.3 25.4 Z M 18.1 21.5 C 18.2 22.7 18.6 23.6 19.2 24.4 C 19.9 25.1 20.9 25.4 22.1 25.4 C 22.7 25.4 23.2 25.4 23.6 25.2 C 24 25.1 24.4 24.9 24.7 24.7 C 25 24.5 25.2 24.2 25.4 23.9 C 25.6 23.6 25.7 23.3 25.8 23 C 25.8 23 27.6 23.5 27.6 23.5 C 27.3 24.6 26.6 25.5 25.7 26.2 C 24.8 26.9 23.6 27.2 22.1 27.2 C 21.2 27.2 20.5 27.1 19.7 26.8 C 19 26.5 18.4 26.1 17.9 25.5 C 17.4 25 17 24.3 16.7 23.6 C 16.4 22.8 16.3 22 16.3 21.1 C 16.3 21.1 16.3 20.5 16.3 20.5 C 16.3 19.7 16.4 18.9 16.7 18.2 C 17 17.4 17.4 16.8 18 16.3 C 18.5 15.8 19.1 15.4 19.8 15.1 C 20.5 14.8 21.3 14.6 22.1 14.6 C 23.1 14.6 23.9 14.8 24.7 15.2 C 25.4 15.5 26 16 26.4 16.5 C 26.9 17 27.2 17.6 27.4 18.2 C 27.6 18.9 27.7 19.4 27.7 20 C 27.74 19.97 27.7 21.5 27.7 21.5 C 27.7 21.5 18.14 21.5 18.1 21.5 Z M 22.1 16.4 C 21.6 16.4 21.1 16.5 20.7 16.7 C 20.2 16.8 19.8 17.1 19.5 17.4 C 19.1 17.7 18.8 18 18.6 18.4 C 18.4 18.9 18.3 19.3 18.2 19.8 C 18.2 19.8 25.9 19.8 25.9 19.8 C 25.8 19.3 25.7 18.8 25.5 18.4 C 25.3 18 25 17.6 24.7 17.3 C 24.3 17 23.9 16.8 23.5 16.7 C 23 16.5 22.6 16.4 22.1 16.4 Z M 45.5 15 L 49.8 15 L 49.8 16.6 C 49.8 16.6 50.09 16.56 50.1 16.6 C 50.4 15.9 50.8 15.4 51.4 15.1 C 51.9 14.8 52.6 14.6 53.3 14.6 C 54.5 14.6 55.5 15 56.2 15.8 C 56.9 16.6 57.3 17.7 57.4 19.2 C 57.4 19.2 55.4 19.5 55.4 19.5 C 55.4 18.4 55.2 17.6 54.6 17.1 C 54.1 16.7 53.4 16.4 52.7 16.4 C 52.2 16.4 51.8 16.5 51.4 16.7 C 51 16.9 50.7 17.2 50.5 17.5 C 50.3 17.8 50.1 18.2 50 18.7 C 49.9 19.1 49.8 19.6 49.8 20.1 C 49.8 20.11 49.8 25.2 49.8 25.2 L 52.8 25.2 L 52.8 26.9 L 45.2 26.9 L 45.2 25.2 L 47.9 25.2 L 47.9 16.7 L 45.5 16.7 L 45.5 15 Z M 62.2 21.5 C 62.3 22.7 62.6 23.6 63.3 24.4 C 64 25.1 65 25.4 66.2 25.4 C 66.8 25.4 67.2 25.4 67.7 25.2 C 68.1 25.1 68.4 24.9 68.7 24.7 C 69 24.5 69.3 24.2 69.4 23.9 C 69.6 23.6 69.8 23.3 69.9 23 C 69.9 23 71.7 23.5 71.7 23.5 C 71.3 24.6 70.7 25.5 69.8 26.2 C 68.9 26.9 67.7 27.2 66.1 27.2 C 65.3 27.2 64.5 27.1 63.8 26.8 C 63.1 26.5 62.5 26.1 62 25.5 C 61.5 25 61.1 24.3 60.8 23.6 C 60.5 22.8 60.3 22 60.3 21.1 C 60.3 21.1 60.3 20.5 60.3 20.5 C 60.3 19.7 60.5 18.9 60.8 18.2 C 61.1 17.4 61.5 16.8 62 16.3 C 62.5 15.8 63.2 15.4 63.9 15.1 C 64.6 14.8 65.4 14.6 66.2 14.6 C 67.2 14.6 68 14.8 68.7 15.2 C 69.4 15.5 70 16 70.5 16.5 C 70.9 17 71.3 17.6 71.5 18.2 C 71.7 18.9 71.8 19.4 71.8 20 C 71.81 19.97 71.8 21.5 71.8 21.5 C 71.8 21.5 62.21 21.5 62.2 21.5 Z M 66.2 16.4 C 65.7 16.4 65.2 16.5 64.7 16.7 C 64.3 16.8 63.9 17.1 63.5 17.4 C 63.2 17.7 62.9 18 62.7 18.4 C 62.5 18.9 62.3 19.3 62.3 19.8 C 62.3 19.8 69.9 19.8 69.9 19.8 C 69.9 19.3 69.8 18.8 69.6 18.4 C 69.3 18 69.1 17.6 68.7 17.3 C 68.4 17 68 16.8 67.5 16.7 C 67.1 16.5 66.7 16.4 66.2 16.4 Z M 86.7 22.7 C 86.5 23.3 86.3 23.9 86 24.5 C 85.7 25 85.3 25.5 84.8 25.9 C 84.3 26.3 83.8 26.7 83.1 26.9 C 82.5 27.1 81.8 27.2 81 27.2 C 80.2 27.2 79.4 27.1 78.6 26.8 C 77.9 26.5 77.2 26.1 76.7 25.6 C 76.1 25.1 75.7 24.5 75.3 23.7 C 75 23 74.9 22.1 74.9 21.1 C 74.9 21.1 74.9 20.8 74.9 20.8 C 74.9 19.9 75 19 75.3 18.2 C 75.7 17.5 76.1 16.8 76.7 16.3 C 77.2 15.8 77.9 15.4 78.6 15.1 C 79.4 14.8 80.2 14.6 81 14.6 C 81.8 14.6 82.4 14.8 83.1 15 C 83.7 15.2 84.3 15.5 84.8 15.9 C 85.3 16.3 85.7 16.8 86 17.4 C 86.3 17.9 86.5 18.5 86.6 19.2 C 86.6 19.2 84.7 19.6 84.7 19.6 C 84.7 19.2 84.6 18.8 84.4 18.4 C 84.2 18 84 17.7 83.7 17.4 C 83.3 17.1 83 16.9 82.5 16.7 C 82.1 16.5 81.5 16.4 81 16.4 C 80.4 16.4 79.8 16.5 79.3 16.7 C 78.8 17 78.4 17.3 78 17.7 C 77.6 18 77.3 18.5 77.1 19.1 C 76.9 19.6 76.8 20.2 76.8 20.8 C 76.8 20.8 76.8 21.1 76.8 21.1 C 76.8 21.8 76.9 22.4 77.1 22.9 C 77.3 23.5 77.6 23.9 78 24.3 C 78.4 24.7 78.8 24.9 79.3 25.1 C 79.9 25.3 80.4 25.4 81 25.4 C 81.6 25.4 82.1 25.3 82.5 25.2 C 83 25 83.4 24.7 83.7 24.4 C 84 24.1 84.2 23.8 84.4 23.4 C 84.6 23 84.7 22.6 84.8 22.2 C 84.8 22.2 86.7 22.7 86.7 22.7 Z M 92.1 26.9 L 90.2 26.9 L 90.2 10.1 L 92.1 10.1 L 92.1 17.1 C 92.1 17.1 92.38 17.14 92.4 17.1 C 92.7 16.4 93.3 15.8 93.9 15.3 C 94.6 14.9 95.4 14.6 96.4 14.6 C 97.7 14.6 98.7 15.1 99.5 15.9 C 100.3 16.8 100.7 18.1 100.7 19.8 C 100.73 19.78 100.7 26.9 100.7 26.9 L 98.9 26.9 C 98.9 26.9 98.86 20.16 98.9 20.2 C 98.9 18.9 98.6 18 98 17.4 C 97.5 16.7 96.7 16.4 95.7 16.4 C 94.6 16.4 93.7 16.8 93.1 17.6 C 92.4 18.4 92.1 19.4 92.1 20.7 C 92.09 20.69 92.1 26.9 92.1 26.9 Z M 106.3 21.5 C 106.3 22.7 106.7 23.6 107.4 24.4 C 108.1 25.1 109 25.4 110.3 25.4 C 110.8 25.4 111.3 25.4 111.7 25.2 C 112.1 25.1 112.5 24.9 112.8 24.7 C 113.1 24.5 113.3 24.2 113.5 23.9 C 113.7 23.6 113.8 23.3 114 23 C 114 23 115.7 23.5 115.7 23.5 C 115.4 24.6 114.8 25.5 113.9 26.2 C 113 26.9 111.7 27.2 110.2 27.2 C 109.4 27.2 108.6 27.1 107.9 26.8 C 107.2 26.5 106.5 26.1 106 25.5 C 105.5 25 105.1 24.3 104.8 23.6 C 104.5 22.8 104.4 22 104.4 21.1 C 104.4 21.1 104.4 20.5 104.4 20.5 C 104.4 19.7 104.5 18.9 104.8 18.2 C 105.1 17.4 105.6 16.8 106.1 16.3 C 106.6 15.8 107.2 15.4 107.9 15.1 C 108.7 14.8 109.4 14.6 110.3 14.6 C 111.2 14.6 112.1 14.8 112.8 15.2 C 113.5 15.5 114.1 16 114.5 16.5 C 115 17 115.3 17.6 115.5 18.2 C 115.8 18.9 115.9 19.4 115.9 20 C 115.87 19.97 115.9 21.5 115.9 21.5 C 115.9 21.5 106.27 21.5 106.3 21.5 Z M 110.3 16.4 C 109.7 16.4 109.2 16.5 108.8 16.7 C 108.3 16.8 107.9 17.1 107.6 17.4 C 107.2 17.7 107 18 106.7 18.4 C 106.5 18.9 106.4 19.3 106.3 19.8 C 106.3 19.8 114 19.8 114 19.8 C 114 19.3 113.8 18.8 113.6 18.4 C 113.4 18 113.1 17.6 112.8 17.3 C 112.4 17 112.1 16.8 111.6 16.7 C 111.2 16.5 110.7 16.4 110.3 16.4 Z M 118.9 15 L 123.2 15 L 123.2 16.6 C 123.2 16.6 123.53 16.56 123.5 16.6 C 123.8 15.9 124.3 15.4 124.8 15.1 C 125.4 14.8 126 14.6 126.7 14.6 C 127.9 14.6 128.9 15 129.6 15.8 C 130.4 16.6 130.8 17.7 130.8 19.2 C 130.8 19.2 128.9 19.5 128.9 19.5 C 128.9 18.4 128.6 17.6 128.1 17.1 C 127.5 16.7 126.9 16.4 126.1 16.4 C 125.6 16.4 125.2 16.5 124.8 16.7 C 124.5 16.9 124.2 17.2 123.9 17.5 C 123.7 17.8 123.5 18.2 123.4 18.7 C 123.3 19.1 123.2 19.6 123.2 20.1 C 123.24 20.11 123.2 25.2 123.2 25.2 L 126.3 25.2 L 126.3 26.9 L 118.6 26.9 L 118.6 25.2 L 121.4 25.2 L 121.4 16.7 L 118.9 16.7 L 118.9 15 Z M 145.4 22.7 C 145.3 23.3 145.1 23.9 144.8 24.5 C 144.4 25 144 25.5 143.6 25.9 C 143.1 26.3 142.5 26.7 141.9 26.9 C 141.2 27.1 140.5 27.2 139.8 27.2 C 138.9 27.2 138.1 27.1 137.4 26.8 C 136.6 26.5 136 26.1 135.4 25.6 C 134.9 25.1 134.4 24.5 134.1 23.7 C 133.8 23 133.6 22.1 133.6 21.1 C 133.6 21.1 133.6 20.8 133.6 20.8 C 133.6 19.9 133.8 19 134.1 18.2 C 134.4 17.5 134.9 16.8 135.4 16.3 C 136 15.8 136.6 15.4 137.4 15.1 C 138.1 14.8 138.9 14.6 139.8 14.6 C 140.5 14.6 141.2 14.8 141.8 15 C 142.5 15.2 143 15.5 143.5 15.9 C 144 16.3 144.4 16.8 144.7 17.4 C 145 17.9 145.3 18.5 145.4 19.2 C 145.4 19.2 143.5 19.6 143.5 19.6 C 143.4 19.2 143.3 18.8 143.1 18.4 C 143 18 142.7 17.7 142.4 17.4 C 142.1 17.1 141.7 16.9 141.3 16.7 C 140.8 16.5 140.3 16.4 139.7 16.4 C 139.1 16.4 138.6 16.5 138.1 16.7 C 137.6 17 137.1 17.3 136.8 17.7 C 136.4 18 136.1 18.5 135.9 19.1 C 135.6 19.6 135.5 20.2 135.5 20.8 C 135.5 20.8 135.5 21.1 135.5 21.1 C 135.5 21.8 135.6 22.4 135.9 22.9 C 136.1 23.5 136.4 23.9 136.8 24.3 C 137.1 24.7 137.6 24.9 138.1 25.1 C 138.6 25.3 139.2 25.4 139.8 25.4 C 140.3 25.4 140.9 25.3 141.3 25.2 C 141.7 25 142.1 24.7 142.4 24.4 C 142.7 24.1 143 23.8 143.2 23.4 C 143.4 23 143.5 22.6 143.5 22.2 C 143.5 22.2 145.4 22.7 145.4 22.7 Z M 150.8 26.9 L 149 26.9 L 149 10.1 L 150.8 10.1 L 150.8 17.1 C 150.8 17.1 151.13 17.14 151.1 17.1 C 151.5 16.4 152 15.8 152.7 15.3 C 153.3 14.9 154.2 14.6 155.1 14.6 C 156.4 14.6 157.5 15.1 158.3 15.9 C 159.1 16.8 159.5 18.1 159.5 19.8 C 159.48 19.78 159.5 26.9 159.5 26.9 L 157.6 26.9 C 157.6 26.9 157.61 20.16 157.6 20.2 C 157.6 18.9 157.3 18 156.8 17.4 C 156.2 16.7 155.4 16.4 154.5 16.4 C 153.4 16.4 152.5 16.8 151.8 17.6 C 151.2 18.4 150.8 19.4 150.8 20.7 C 150.84 20.69 150.8 26.9 150.8 26.9 Z M 165 21.5 C 165.1 22.7 165.4 23.6 166.1 24.4 C 166.8 25.1 167.8 25.4 169 25.4 C 169.6 25.4 170.1 25.4 170.5 25.2 C 170.9 25.1 171.2 24.9 171.5 24.7 C 171.8 24.5 172.1 24.2 172.3 23.9 C 172.4 23.6 172.6 23.3 172.7 23 C 172.7 23 174.5 23.5 174.5 23.5 C 174.1 24.6 173.5 25.5 172.6 26.2 C 171.7 26.9 170.5 27.2 169 27.2 C 168.1 27.2 167.3 27.1 166.6 26.8 C 165.9 26.5 165.3 26.1 164.8 25.5 C 164.3 25 163.9 24.3 163.6 23.6 C 163.3 22.8 163.2 22 163.2 21.1 C 163.2 21.1 163.2 20.5 163.2 20.5 C 163.2 19.7 163.3 18.9 163.6 18.2 C 163.9 17.4 164.3 16.8 164.8 16.3 C 165.4 15.8 166 15.4 166.7 15.1 C 167.4 14.8 168.2 14.6 169 14.6 C 170 14.6 170.8 14.8 171.5 15.2 C 172.3 15.5 172.8 16 173.3 16.5 C 173.7 17 174.1 17.6 174.3 18.2 C 174.5 18.9 174.6 19.4 174.6 20 C 174.62 19.97 174.6 21.5 174.6 21.5 C 174.6 21.5 165.02 21.5 165 21.5 Z M 169 16.4 C 168.5 16.4 168 16.5 167.5 16.7 C 167.1 16.8 166.7 17.1 166.3 17.4 C 166 17.7 165.7 18 165.5 18.4 C 165.3 18.9 165.1 19.3 165.1 19.8 C 165.1 19.8 172.8 19.8 172.8 19.8 C 172.7 19.3 172.6 18.8 172.4 18.4 C 172.2 18 171.9 17.6 171.5 17.3 C 171.2 17 170.8 16.8 170.4 16.7 C 169.9 16.5 169.5 16.4 169 16.4 Z M 180.8 18 C 180.8 18.6 181.1 19.1 181.5 19.4 C 182 19.7 182.9 19.9 184.2 20 C 185.6 20.1 186.7 20.4 187.4 21 C 188.1 21.5 188.5 22.3 188.5 23.4 C 188.5 23.4 188.5 23.5 188.5 23.5 C 188.5 24.1 188.4 24.6 188.1 25.1 C 187.9 25.5 187.6 25.9 187.2 26.2 C 186.8 26.6 186.3 26.8 185.7 27 C 185.1 27.1 184.5 27.2 183.8 27.2 C 182.9 27.2 182.1 27.1 181.4 26.8 C 180.7 26.6 180.2 26.3 179.7 25.9 C 179.3 25.5 179 25 178.8 24.5 C 178.5 23.9 178.4 23.4 178.4 22.9 C 178.4 22.9 180.1 22.5 180.1 22.5 C 180.2 23.4 180.6 24.1 181.2 24.7 C 181.8 25.2 182.7 25.5 183.7 25.5 C 184.6 25.5 185.3 25.3 185.8 25 C 186.4 24.6 186.6 24.1 186.6 23.5 C 186.6 22.8 186.4 22.4 185.8 22.1 C 185.3 21.8 184.4 21.6 183.3 21.5 C 181.9 21.4 180.8 21.1 180.1 20.6 C 179.4 20 179 19.2 179 18.2 C 179 18.2 179 18 179 18 C 179 17.5 179.1 17 179.4 16.6 C 179.6 16.1 179.9 15.8 180.3 15.5 C 180.7 15.2 181.2 15 181.7 14.9 C 182.2 14.7 182.8 14.6 183.3 14.6 C 184.1 14.6 184.8 14.7 185.4 15 C 186 15.2 186.5 15.5 186.9 15.8 C 187.3 16.1 187.6 16.5 187.8 17 C 188 17.4 188.1 17.9 188.2 18.3 C 188.2 18.3 186.4 18.8 186.4 18.8 C 186.4 18 186 17.4 185.5 17 C 185 16.5 184.3 16.3 183.4 16.3 C 183.1 16.3 182.7 16.4 182.4 16.4 C 182.1 16.5 181.8 16.6 181.6 16.8 C 181.4 16.9 181.2 17.1 181 17.3 C 180.9 17.5 180.8 17.8 180.8 18 Z " stroke="none" fill="#000"/>
  </g>
</svg>