<?xml version="1.0" standalone="no"?>
<!DOCTYPE svg PUBLIC "-//W3C//DTD SVG 1.1//EN" "http://www.w3.org/Graphics/SVG/1.1/DTD/svg11.dtd">
<svg xmlns="http://www.w3.org/2000/svg" version="1.1" width="27px" height="14.5px" viewBox="0 0 27 14.5">
  <desc>19 22</desc>
  <defs/>
  <g id="Polygon31180">
    <path d="M 1.7 1.4 L 0.3 2 L 0.3 1.3 L 2.3 0.4 L 2.4 0.4 L 2.4 6.1 L 1.7 6.1 L 1.7 1.4 Z M 7.7 2.2 C 7.7 2.8 7.5 3.3 7 4 C 6.96 3.98 5.2 6.1 5.2 6.1 L 4.4 6.1 C 4.4 6.1 6.04 4.06 6 4.1 C 5.9 4.1 5.8 4.1 5.7 4.1 C 4.8 4.1 3.8 3.4 3.8 2.3 C 3.8 1.2 4.6 0.3 5.8 0.3 C 7 0.3 7.7 1.2 7.7 2.2 Z M 7 2.2 C 7 1.5 6.6 1 5.8 1 C 5.1 1 4.6 1.6 4.6 2.2 C 4.6 3 5.1 3.5 5.9 3.5 C 6.1 3.5 6.4 3.5 6.6 3.4 C 6.9 3 7 2.6 7 2.2 Z M 10.6 -0.6 L 11.3 -0.6 L 8.7 7.2 L 8 7.2 L 10.6 -0.6 Z M 14.7 2.1 C 14.7 1.5 14.3 1 13.6 1 C 12.9 1 12.4 1.3 12.1 1.7 C 12.1 1.7 12.1 0.9 12.1 0.9 C 12.4 0.6 13 0.3 13.6 0.3 C 14.8 0.3 15.4 1.1 15.4 2.1 C 15.4 3 14.7 3.9 13.2 5.5 C 13.23 5.47 15.6 5.5 15.6 5.5 L 15.6 6.1 C 15.6 6.1 11.84 6.14 11.8 6.1 C 14.4 3.3 14.7 2.8 14.7 2.1 Z M 19.2 2.1 C 19.2 1.5 18.8 1 18.1 1 C 17.4 1 16.9 1.3 16.6 1.7 C 16.6 1.7 16.6 0.9 16.6 0.9 C 16.9 0.6 17.5 0.3 18.1 0.3 C 19.3 0.3 19.9 1.1 19.9 2.1 C 19.9 3 19.2 3.9 17.7 5.5 C 17.73 5.47 20.1 5.5 20.1 5.5 L 20.1 6.1 C 20.1 6.1 16.34 6.14 16.3 6.1 C 18.9 3.3 19.2 2.8 19.2 2.1 Z " stroke="none" fill="#000"/>
  </g>
</svg>