<?xml version="1.0" standalone="no"?>
<!DOCTYPE svg PUBLIC "-//W3C//DTD SVG 1.1//EN" "http://www.w3.org/Graphics/SVG/1.1/DTD/svg11.dtd">
<svg xmlns="http://www.w3.org/2000/svg" version="1.1" width="27px" height="14.5px" viewBox="0 0 27 14.5">
  <desc>10 21</desc>
  <defs/>
  <g id="Polygon17572">
    <path d="M 1.7 1.4 L 0.3 2 L 0.3 1.3 L 2.3 0.4 L 2.4 0.4 L 2.4 6.1 L 1.7 6.1 L 1.7 1.4 Z M 8.3 3.3 C 8.3 5.1 7.3 6.3 6.1 6.3 C 4.9 6.3 4 5.1 4 3.3 C 4 1.4 4.9 0.3 6.1 0.3 C 7.3 0.3 8.3 1.4 8.3 3.3 Z M 4.7 3.3 C 4.7 4.8 5.3 5.6 6.1 5.6 C 6.9 5.6 7.5 4.7 7.5 3.3 C 7.5 1.8 6.9 1 6.1 1 C 5.3 1 4.7 1.8 4.7 3.3 Z M 11.4 -0.6 L 12.1 -0.6 L 9.5 7.2 L 8.8 7.2 L 11.4 -0.6 Z M 15.5 2.1 C 15.5 1.5 15.1 1 14.4 1 C 13.8 1 13.2 1.3 12.9 1.7 C 12.9 1.7 12.9 0.9 12.9 0.9 C 13.2 0.6 13.8 0.3 14.4 0.3 C 15.6 0.3 16.2 1.1 16.2 2.1 C 16.2 3 15.5 3.9 14 5.5 C 14.03 5.47 16.4 5.5 16.4 5.5 L 16.4 6.1 C 16.4 6.1 12.64 6.14 12.6 6.1 C 15.2 3.3 15.5 2.8 15.5 2.1 Z M 18.6 1.4 L 17.1 2 L 17.1 1.3 L 19.2 0.4 L 19.3 0.4 L 19.3 6.1 L 18.6 6.1 L 18.6 1.4 Z " stroke="none" fill="#000"/>
  </g>
</svg>