<?xml version="1.0" standalone="no"?>
<!DOCTYPE svg PUBLIC "-//W3C//DTD SVG 1.1//EN" "http://www.w3.org/Graphics/SVG/1.1/DTD/svg11.dtd">
<svg xmlns="http://www.w3.org/2000/svg" version="1.1" width="311px" height="31.7px" viewBox="0 0 311 31.7">
  <desc>UNIVERS SONORE</desc>
  <defs/>
  <g id="Polygon23895">
    <path d="M 69.7 9.2 C 69.66 9.22 69.7 1 69.7 1 L 73.7 1 C 73.7 1 73.71 9.18 73.7 9.2 C 73.7 10.7 74.5 11.5 75.8 11.5 C 77.1 11.5 77.9 10.7 77.9 9.2 C 77.89 9.16 77.9 1 77.9 1 L 82 1 C 82 1 81.96 9.22 82 9.2 C 82 12.7 79.6 15.2 75.8 15.2 C 71.9 15.2 69.7 12.7 69.7 9.2 Z M 96.9 14.9 L 93.1 14.9 L 88.1 7.4 L 88.1 7.4 L 88.1 14.9 L 84.2 14.9 L 84.2 1 L 88.1 1 L 93.1 8.3 L 93.1 8.3 L 93.1 1 L 96.9 1 L 96.9 14.9 Z M 99.4 1 L 103.4 1 L 103.4 14.9 L 99.4 14.9 L 99.4 1 Z M 114.1 14.9 L 109.7 14.9 L 104.5 1 L 108.7 1 L 111.9 10.6 L 115.1 1 L 119.3 1 L 114.1 14.9 Z M 120.4 1 L 130 1 L 130 4.6 L 124.5 4.6 L 124.5 6.3 L 129.5 6.3 L 129.5 9.5 L 124.5 9.5 L 124.5 11.3 L 130 11.3 L 130 14.9 L 120.4 14.9 L 120.4 1 Z M 143.7 14.9 L 138.9 14.9 L 136.3 10.6 L 136.2 10.6 L 136.2 14.9 L 132.1 14.9 L 132.1 1 C 132.1 1 137.05 0.98 137.1 1 C 140.5 1 142.9 2.5 142.9 5.8 C 142.9 7.1 142.4 9 140.1 10 C 140.06 9.98 143.7 14.9 143.7 14.9 Z M 137 7.5 C 138.1 7.5 138.9 7.1 138.9 6.1 C 138.9 5.1 138.1 4.6 137 4.6 C 137.02 4.65 136.2 4.6 136.2 4.6 L 136.2 7.5 C 136.2 7.5 137.03 7.55 137 7.5 Z M 153.8 1.7 C 153.8 1.7 153.8 5.2 153.8 5.2 C 153 4.6 151.5 4.2 150.3 4.2 C 149.2 4.2 148.6 4.5 148.6 5 C 148.6 5.5 149.2 5.7 150.3 6.1 C 152.2 6.7 154.7 7.6 154.7 10.6 C 154.7 13.2 152.7 15.2 149.2 15.2 C 147.4 15.2 145.8 14.6 144.7 14 C 144.7 14 144.7 10.2 144.7 10.2 C 145.8 11 147.3 11.7 148.7 11.7 C 150 11.7 150.6 11.2 150.6 10.7 C 150.6 10 149.6 9.7 148.5 9.3 C 147 8.8 144.6 7.8 144.6 5.1 C 144.6 2.7 146.5 0.7 150 0.7 C 151.5 0.7 152.8 1.1 153.8 1.7 Z M 169.6 1.7 C 169.6 1.7 169.6 5.2 169.6 5.2 C 168.7 4.6 167.2 4.2 166 4.2 C 164.9 4.2 164.4 4.5 164.4 5 C 164.4 5.5 165 5.7 166.1 6.1 C 167.9 6.7 170.5 7.6 170.5 10.6 C 170.5 13.2 168.5 15.2 165 15.2 C 163.2 15.2 161.5 14.6 160.5 14 C 160.5 14 160.5 10.2 160.5 10.2 C 161.5 11 163 11.7 164.5 11.7 C 165.7 11.7 166.3 11.2 166.3 10.7 C 166.3 10 165.4 9.7 164.2 9.3 C 162.7 8.8 160.4 7.8 160.4 5.1 C 160.4 2.7 162.3 0.7 165.7 0.7 C 167.2 0.7 168.6 1.1 169.6 1.7 Z M 171.5 7.9 C 171.5 3.6 174.8 0.6 178.9 0.6 C 183.1 0.6 186.3 3.6 186.3 7.9 C 186.3 12.2 183.1 15.2 178.9 15.2 C 174.8 15.2 171.5 12.2 171.5 7.9 Z M 182.2 7.9 C 182.2 5.6 180.6 4.3 178.9 4.3 C 177.2 4.3 175.6 5.6 175.6 7.9 C 175.6 10.2 177.2 11.5 178.9 11.5 C 180.6 11.5 182.2 10.2 182.2 7.9 Z M 200.8 14.9 L 196.9 14.9 L 191.9 7.4 L 191.9 7.4 L 191.9 14.9 L 188 14.9 L 188 1 L 191.9 1 L 196.9 8.3 L 196.9 8.3 L 196.9 1 L 200.8 1 L 200.8 14.9 Z M 202.5 7.9 C 202.5 3.6 205.7 0.6 209.9 0.6 C 214 0.6 217.3 3.6 217.3 7.9 C 217.3 12.2 214 15.2 209.9 15.2 C 205.7 15.2 202.5 12.2 202.5 7.9 Z M 213.2 7.9 C 213.2 5.6 211.5 4.3 209.9 4.3 C 208.2 4.3 206.6 5.6 206.6 7.9 C 206.6 10.2 208.2 11.5 209.9 11.5 C 211.5 11.5 213.2 10.2 213.2 7.9 Z M 230.5 14.9 L 225.8 14.9 L 223.1 10.6 L 223 10.6 L 223 14.9 L 219 14.9 L 219 1 C 219 1 223.93 0.98 223.9 1 C 227.4 1 229.8 2.5 229.8 5.8 C 229.8 7.1 229.2 9 226.9 10 C 226.94 9.98 230.5 14.9 230.5 14.9 Z M 223.9 7.5 C 224.9 7.5 225.7 7.1 225.7 6.1 C 225.7 5.1 224.9 4.6 223.9 4.6 C 223.89 4.65 223 4.6 223 4.6 L 223 7.5 C 223 7.5 223.91 7.55 223.9 7.5 Z M 231.9 1 L 241.5 1 L 241.5 4.6 L 236 4.6 L 236 6.3 L 240.9 6.3 L 240.9 9.5 L 236 9.5 L 236 11.3 L 241.5 11.3 L 241.5 14.9 L 231.9 14.9 L 231.9 1 Z " stroke="none" fill="#fff"/>
  </g>
</svg>