<?xml version="1.0" standalone="no"?>
<!DOCTYPE svg PUBLIC "-//W3C//DTD SVG 1.1//EN" "http://www.w3.org/Graphics/SVG/1.1/DTD/svg11.dtd">
<svg xmlns="http://www.w3.org/2000/svg" version="1.1" width="233px" height="34.1px" viewBox="0 0 233 34.1">
  <desc>ERGONOMIE</desc>
  <defs/>
  <g id="Polygon29796">
    <path d="M 51.2 1.1 L 61.6 1.1 L 61.6 5 L 55.6 5 L 55.6 6.9 L 61 6.9 L 61 10.4 L 55.6 10.4 L 55.6 12.3 L 61.6 12.3 L 61.6 16.3 L 51.2 16.3 L 51.2 1.1 Z M 76.6 16.3 L 71.4 16.3 L 68.5 11.6 L 68.4 11.6 L 68.4 16.3 L 63.9 16.3 L 63.9 1.1 C 63.9 1.1 69.35 1.08 69.3 1.1 C 73.1 1.1 75.8 2.8 75.8 6.4 C 75.8 7.8 75.2 9.9 72.6 10.9 C 72.64 10.92 76.6 16.3 76.6 16.3 Z M 69.3 8.3 C 70.4 8.3 71.3 7.7 71.3 6.7 C 71.3 5.6 70.4 5.1 69.3 5.1 C 69.31 5.08 68.4 5.1 68.4 5.1 L 68.4 8.3 C 68.4 8.3 69.33 8.25 69.3 8.3 Z M 85.4 12.7 C 86 12.7 86.5 12.5 86.9 12.3 C 86.91 12.32 86.9 8.1 86.9 8.1 L 90.9 8.1 C 90.9 8.1 90.92 14.88 90.9 14.9 C 89.4 15.9 87.6 16.6 85.3 16.6 C 80.9 16.6 77.2 13.6 77.2 8.7 C 77.2 3.8 81 0.7 85.3 0.7 C 87.3 0.7 88.9 1.2 90.2 1.9 C 90.2 1.9 90.2 6.2 90.2 6.2 C 88.9 5.1 87.2 4.8 85.9 4.8 C 83.2 4.8 81.6 6.6 81.6 8.8 C 81.6 11 83.2 12.7 85.4 12.7 Z M 92.3 8.7 C 92.3 4 95.9 0.7 100.4 0.7 C 104.9 0.7 108.4 4 108.4 8.7 C 108.4 13.4 104.9 16.6 100.4 16.6 C 95.8 16.6 92.3 13.4 92.3 8.7 Z M 104 8.7 C 104 6.1 102.2 4.7 100.4 4.7 C 98.5 4.7 96.8 6.1 96.8 8.7 C 96.8 11.2 98.5 12.6 100.4 12.6 C 102.2 12.6 104 11.2 104 8.7 Z M 124.3 16.3 L 120 16.3 L 114.6 8.1 L 114.5 8.1 L 114.5 16.3 L 110.3 16.3 L 110.3 1.1 L 114.6 1.1 L 120 9.1 L 120 9.1 L 120 1.1 L 124.3 1.1 L 124.3 16.3 Z M 126.1 8.7 C 126.1 4 129.7 0.7 134.2 0.7 C 138.8 0.7 142.3 4 142.3 8.7 C 142.3 13.4 138.8 16.6 134.2 16.6 C 129.7 16.6 126.1 13.4 126.1 8.7 Z M 137.8 8.7 C 137.8 6.1 136 4.7 134.2 4.7 C 132.4 4.7 130.6 6.1 130.6 8.7 C 130.6 11.2 132.4 12.6 134.2 12.6 C 136 12.6 137.8 11.2 137.8 8.7 Z M 147.4 16.3 L 143.2 16.3 L 145.3 1.1 L 150.5 1.1 L 152.9 9.5 L 152.9 9.5 L 155.3 1.1 L 160.3 1.1 L 162.4 16.3 L 158.2 16.3 L 157.3 7.1 L 157.3 7.1 L 154.7 16.3 L 150.9 16.3 L 148.4 7.1 L 148.3 7.1 L 147.4 16.3 Z M 164.2 1.1 L 168.7 1.1 L 168.7 16.3 L 164.2 16.3 L 164.2 1.1 Z M 171.3 1.1 L 181.8 1.1 L 181.8 5 L 175.8 5 L 175.8 6.9 L 181.2 6.9 L 181.2 10.4 L 175.8 10.4 L 175.8 12.3 L 181.8 12.3 L 181.8 16.3 L 171.3 16.3 L 171.3 1.1 Z " stroke="none" fill="#444443"/>
  </g>
</svg>