<?xml version="1.0" standalone="no"?>
<!DOCTYPE svg PUBLIC "-//W3C//DTD SVG 1.1//EN" "http://www.w3.org/Graphics/SVG/1.1/DTD/svg11.dtd">
<svg xmlns="http://www.w3.org/2000/svg" version="1.1" width="340.1px" height="191.4px" viewBox="0 0 340.1 191.4">
  <desc>Le bureau int gre deux tiroirs de rangement et une trappe qui accueille des prises secteur et usb Celle-ci peut cont</desc>
  <defs/>
  <g id="Polygon30369">
    <path d="M 1.1 46.4 L 1.5 46.4 C 1.5 46.4 1.61 48.04 1.6 48 C 2.1 46.9 3.1 46.3 4.1 46.3 C 5.6 46.3 7 47.6 7 49.6 C 7 51.6 5.6 52.9 4.1 52.9 C 3.1 52.9 2.1 52.3 1.6 51.3 C 1.64 51.25 1.6 55.4 1.6 55.4 L 1.1 55.4 L 1.1 46.4 Z M 6.5 49.6 C 6.5 47.9 5.4 46.8 4.1 46.8 C 2.7 46.8 1.6 47.9 1.6 49.6 C 1.6 51.3 2.8 52.4 4.1 52.4 C 5.4 52.4 6.5 51.3 6.5 49.6 Z M 8.4 49.6 C 8.4 47.6 9.8 46.3 11.3 46.3 C 12.3 46.3 13.3 46.9 13.8 48 C 13.81 48.02 13.9 46.4 13.9 46.4 L 14.3 46.4 L 14.3 52.8 L 13.9 52.8 C 13.9 52.8 13.81 51.2 13.8 51.2 C 13.3 52.4 12.3 52.9 11.3 52.9 C 9.8 52.9 8.4 51.6 8.4 49.6 Z M 13.8 49.6 C 13.8 47.9 12.7 46.8 11.4 46.8 C 10 46.8 8.9 47.9 8.9 49.6 C 8.9 51.3 10 52.4 11.4 52.4 C 12.7 52.4 13.8 51.3 13.8 49.6 Z M 19.2 52.4 C 19.7 52.4 20.4 52.3 20.9 51.9 C 20.9 51.9 20.9 52.5 20.9 52.5 C 20.4 52.8 19.8 52.9 19.2 52.9 C 17.5 52.9 16.1 51.5 16.1 49.6 C 16.1 47.7 17.4 46.3 19.2 46.3 C 19.8 46.3 20.4 46.4 20.9 46.8 C 20.9 46.8 20.9 47.3 20.9 47.3 C 20.3 46.9 19.8 46.8 19.2 46.8 C 17.8 46.8 16.6 47.9 16.6 49.6 C 16.6 51.3 17.8 52.4 19.2 52.4 Z M 27.6 49.8 C 27.6 49.8 22.6 49.8 22.6 49.8 C 22.7 51.4 23.7 52.4 25.1 52.4 C 25.9 52.4 26.7 52.2 27.4 51.5 C 27.4 51.5 27.4 52.1 27.4 52.1 C 26.7 52.6 25.9 52.9 25.1 52.9 C 23.3 52.9 22.1 51.6 22.1 49.6 C 22.1 47.6 23.5 46.3 25 46.3 C 26.4 46.3 27.7 47.4 27.7 49.5 C 27.7 49.6 27.6 49.7 27.6 49.8 Z M 27.2 49.3 C 27.1 47.6 26.1 46.8 25 46.8 C 23.8 46.8 22.7 47.8 22.6 49.3 C 22.6 49.3 27.2 49.3 27.2 49.3 Z M 32.5 49.6 C 32.5 47.6 33.9 46.3 35.4 46.3 C 36.4 46.3 37.4 46.9 37.9 48 C 37.86 47.98 37.9 43.3 37.9 43.3 L 38.4 43.3 L 38.4 52.8 L 38 52.8 L 37.9 51.2 C 37.9 51.2 37.88 51.19 37.9 51.2 C 37.4 52.4 36.4 52.9 35.4 52.9 C 33.9 52.9 32.5 51.6 32.5 49.6 Z M 37.9 49.6 C 37.9 47.9 36.8 46.8 35.4 46.8 C 34.1 46.8 33 47.9 33 49.6 C 33 51.3 34.1 52.4 35.4 52.4 C 36.8 52.4 37.9 51.3 37.9 49.6 Z M 45.8 49.8 C 45.8 49.8 40.7 49.8 40.7 49.8 C 40.8 51.4 41.8 52.4 43.3 52.4 C 44 52.4 44.8 52.2 45.5 51.5 C 45.5 51.5 45.5 52.1 45.5 52.1 C 44.9 52.6 44.1 52.9 43.2 52.9 C 41.4 52.9 40.2 51.6 40.2 49.6 C 40.2 47.6 41.6 46.3 43.2 46.3 C 44.6 46.3 45.8 47.4 45.8 49.5 C 45.8 49.6 45.8 49.7 45.8 49.8 Z M 45.3 49.3 C 45.3 47.6 44.2 46.8 43.2 46.8 C 41.9 46.8 40.8 47.8 40.7 49.3 C 40.7 49.3 45.3 49.3 45.3 49.3 Z M 51.6 46.4 L 53.5 46.4 L 53.5 46.9 L 51.6 46.9 C 51.6 46.9 51.6 50.8 51.6 50.8 C 51.6 52 52.2 52.4 53.1 52.4 C 53.3 52.4 53.5 52.4 53.7 52.4 C 53.7 52.4 53.7 52.8 53.7 52.8 C 53.6 52.8 53.4 52.9 53.1 52.9 C 51.9 52.9 51.1 52.2 51.1 50.8 C 51.1 50.82 51.1 46.9 51.1 46.9 L 50.1 46.9 L 50.1 46.4 L 51.1 46.4 L 51.1 44.9 L 51.6 44.9 L 51.6 46.4 Z M 55 46.4 L 55.4 46.4 L 55.5 47.6 C 55.5 47.6 55.5 47.62 55.5 47.6 C 55.9 46.7 56.7 46.4 57.4 46.4 C 57.5 46.4 57.7 46.4 57.8 46.4 C 57.8 46.4 57.8 46.9 57.8 46.9 C 57.7 46.9 57.5 46.9 57.4 46.9 C 56.5 46.9 55.5 47.5 55.5 48.8 C 55.53 48.77 55.5 52.8 55.5 52.8 L 55 52.8 L 55 46.4 Z M 58.3 49.6 C 58.3 47.6 59.7 46.3 61.2 46.3 C 62.3 46.3 63.3 46.9 63.7 48 C 63.74 48.02 63.8 46.4 63.8 46.4 L 64.2 46.4 L 64.2 52.8 L 63.8 52.8 C 63.8 52.8 63.74 51.2 63.7 51.2 C 63.3 52.4 62.3 52.9 61.2 52.9 C 59.7 52.9 58.3 51.6 58.3 49.6 Z M 63.7 49.6 C 63.7 47.9 62.6 46.8 61.3 46.8 C 60 46.8 58.8 47.9 58.8 49.6 C 58.8 51.3 60 52.4 61.3 52.4 C 62.6 52.4 63.7 51.3 63.7 49.6 Z M 65.8 46.4 L 66.3 46.4 L 68.4 52.2 L 68.4 52.2 L 70.5 46.4 L 71 46.4 L 68.7 52.8 L 68.1 52.8 L 65.8 46.4 Z M 71.9 49.6 C 71.9 47.6 73.3 46.3 74.8 46.3 C 75.8 46.3 76.8 46.9 77.3 48 C 77.32 48.02 77.4 46.4 77.4 46.4 L 77.8 46.4 L 77.8 52.8 L 77.4 52.8 C 77.4 52.8 77.32 51.2 77.3 51.2 C 76.8 52.4 75.8 52.9 74.8 52.9 C 73.3 52.9 71.9 51.6 71.9 49.6 Z M 77.3 49.6 C 77.3 47.9 76.2 46.8 74.9 46.8 C 73.5 46.8 72.4 47.9 72.4 49.6 C 72.4 51.3 73.5 52.4 74.9 52.4 C 76.2 52.4 77.3 51.3 77.3 49.6 Z M 80 44.1 C 80 43.9 80.1 43.7 80.4 43.7 C 80.6 43.7 80.8 43.9 80.8 44.1 C 80.8 44.3 80.6 44.5 80.4 44.5 C 80.1 44.5 80 44.3 80 44.1 Z M 80.1 46.4 L 80.6 46.4 L 80.6 52.8 L 80.1 52.8 L 80.1 46.4 Z M 83 43.3 L 83.5 43.3 L 83.5 52.8 L 83 52.8 L 83 43.3 Z M 85.5 52.4 C 85.5 52.1 85.7 51.9 86 51.9 C 86.3 51.9 86.5 52.1 86.5 52.4 C 86.5 52.6 86.3 52.8 86 52.8 C 85.7 52.8 85.5 52.6 85.5 52.4 Z " stroke="none" fill="#000"/>
  </g>
  <g id="Polygon30368">
    <path d="M 0.7 35.2 C 0.7 33.2 2.1 31.9 3.6 31.9 C 4.6 31.9 5.6 32.5 6.1 33.6 C 6.07 33.58 6.1 28.9 6.1 28.9 L 6.6 28.9 L 6.6 38.4 L 6.2 38.4 L 6.1 36.8 C 6.1 36.8 6.1 36.79 6.1 36.8 C 5.6 38 4.6 38.5 3.6 38.5 C 2.1 38.5 0.7 37.2 0.7 35.2 Z M 6.1 35.2 C 6.1 33.5 5 32.4 3.6 32.4 C 2.3 32.4 1.2 33.5 1.2 35.2 C 1.2 36.9 2.3 38 3.6 38 C 5 38 6.1 36.9 6.1 35.2 Z M 8.7 29.7 C 8.7 29.5 8.9 29.3 9.1 29.3 C 9.4 29.3 9.6 29.5 9.6 29.7 C 9.6 29.9 9.4 30.1 9.1 30.1 C 8.9 30.1 8.7 29.9 8.7 29.7 Z M 8.9 32 L 9.4 32 L 9.4 38.4 L 8.9 38.4 L 8.9 32 Z M 12 32.5 L 11 32.5 L 11 32 L 11.9 32 C 11.9 32 11.94 30.8 11.9 30.8 C 11.9 29.5 12.8 28.8 13.8 28.8 C 14.2 28.8 14.5 28.9 14.8 29 C 14.8 29 14.8 29.5 14.8 29.5 C 14.6 29.4 14.2 29.3 13.9 29.3 C 13 29.3 12.5 29.8 12.5 30.9 C 12.46 30.89 12.5 32 12.5 32 L 14.4 32 L 14.4 32.5 L 12.5 32.5 L 12.5 38.4 L 12 38.4 L 12 32.5 Z M 16 32.5 L 15 32.5 L 15 32 L 15.9 32 C 15.9 32 15.95 30.8 15.9 30.8 C 15.9 29.5 16.8 28.8 17.9 28.8 C 18.2 28.8 18.6 28.9 18.8 29 C 18.8 29 18.8 29.5 18.8 29.5 C 18.6 29.4 18.2 29.3 17.9 29.3 C 17 29.3 16.5 29.8 16.5 30.9 C 16.46 30.89 16.5 32 16.5 32 L 18.4 32 L 18.4 32.5 L 16.5 32.5 L 16.5 38.4 L 16 38.4 L 16 32.5 Z M 21.8 30.9 L 21.3 30.9 L 22.7 29 L 23.3 29 L 21.8 30.9 Z M 24.6 35.4 C 24.6 35.4 19.5 35.4 19.5 35.4 C 19.6 37 20.7 38 22.1 38 C 22.9 38 23.7 37.8 24.4 37.1 C 24.4 37.1 24.4 37.7 24.4 37.7 C 23.7 38.2 22.9 38.5 22.1 38.5 C 20.3 38.5 19 37.2 19 35.2 C 19 33.2 20.4 31.9 22 31.9 C 23.4 31.9 24.6 33 24.6 35.1 C 24.6 35.2 24.6 35.3 24.6 35.4 Z M 24.1 34.9 C 24.1 33.2 23.1 32.4 22 32.4 C 20.8 32.4 19.7 33.4 19.5 34.9 C 19.5 34.9 24.1 34.9 24.1 34.9 Z M 26.4 32 L 26.8 32 L 26.9 33.2 C 26.9 33.2 26.88 33.22 26.9 33.2 C 27.3 32.3 28.1 32 28.8 32 C 28.9 32 29 32 29.1 32 C 29.1 32 29.1 32.5 29.1 32.5 C 29 32.5 28.9 32.5 28.8 32.5 C 27.9 32.5 26.9 33.1 26.9 34.4 C 26.91 34.37 26.9 38.4 26.9 38.4 L 26.4 38.4 L 26.4 32 Z M 35.3 35.4 C 35.3 35.4 30.2 35.4 30.2 35.4 C 30.3 37 31.3 38 32.8 38 C 33.6 38 34.4 37.8 35.1 37.1 C 35.1 37.1 35.1 37.7 35.1 37.7 C 34.4 38.2 33.6 38.5 32.8 38.5 C 31 38.5 29.7 37.2 29.7 35.2 C 29.7 33.2 31.1 31.9 32.7 31.9 C 34.1 31.9 35.3 33 35.3 35.1 C 35.3 35.2 35.3 35.3 35.3 35.4 Z M 34.8 34.9 C 34.8 33.2 33.8 32.4 32.7 32.4 C 31.5 32.4 30.3 33.4 30.2 34.9 C 30.2 34.9 34.8 34.9 34.8 34.9 Z M 41.9 34.2 C 41.89 34.16 41.9 38.4 41.9 38.4 L 41.4 38.4 C 41.4 38.4 41.39 34.37 41.4 34.4 C 41.4 33.1 40.7 32.4 39.6 32.4 C 38.5 32.4 37.6 33.1 37.6 34.3 C 37.61 34.31 37.6 38.4 37.6 38.4 L 37.1 38.4 L 37.1 32 L 37.5 32 L 37.6 33.2 C 37.6 33.2 37.57 33.16 37.6 33.2 C 37.9 32.4 38.7 31.9 39.6 31.9 C 41 31.9 41.9 32.8 41.9 34.2 Z M 44.7 32 L 46.6 32 L 46.6 32.5 L 44.7 32.5 C 44.7 32.5 44.71 36.4 44.7 36.4 C 44.7 37.6 45.3 38 46.2 38 C 46.4 38 46.6 38 46.8 38 C 46.8 38 46.8 38.4 46.8 38.4 C 46.7 38.4 46.5 38.5 46.2 38.5 C 45 38.5 44.2 37.8 44.2 36.4 C 44.21 36.42 44.2 32.5 44.2 32.5 L 43.2 32.5 L 43.2 32 L 44.2 32 L 44.2 30.5 L 44.7 30.5 L 44.7 32 Z M 51.7 32.5 C 51.7 32.5 51.7 33 51.7 33 C 51.2 32.7 50.6 32.4 49.9 32.4 C 48.9 32.4 48.3 32.9 48.3 33.6 C 48.3 34.3 49 34.6 50 34.9 C 51 35.3 52 35.6 52 36.7 C 52 37.8 51.1 38.5 49.8 38.5 C 49.1 38.5 48.3 38.3 47.7 37.8 C 47.7 37.8 47.7 37.1 47.7 37.1 C 48.3 37.7 49 38 49.8 38 C 50.9 38 51.5 37.5 51.5 36.7 C 51.5 36 50.8 35.7 49.8 35.3 C 48.7 35 47.8 34.7 47.8 33.6 C 47.8 32.6 48.6 31.9 49.9 31.9 C 50.6 31.9 51.2 32.1 51.7 32.5 Z M 60.9 38 C 61.4 38 62.1 37.9 62.6 37.5 C 62.6 37.5 62.6 38.1 62.6 38.1 C 62.2 38.4 61.6 38.5 60.9 38.5 C 59.2 38.5 57.8 37.1 57.8 35.2 C 57.8 33.3 59.2 31.9 60.9 31.9 C 61.5 31.9 62.1 32 62.6 32.4 C 62.6 32.4 62.6 32.9 62.6 32.9 C 62.1 32.5 61.5 32.4 60.9 32.4 C 59.6 32.4 58.4 33.5 58.4 35.2 C 58.4 36.9 59.6 38 60.9 38 Z M 64.9 33 C 64.9 33 64.94 33.04 64.9 33 C 65.3 32.3 66.1 31.9 67 31.9 C 68.3 31.9 69.2 32.7 69.2 34.2 C 69.21 34.18 69.2 38.4 69.2 38.4 L 68.7 38.4 C 68.7 38.4 68.71 34.36 68.7 34.4 C 68.7 33.1 68.1 32.4 66.9 32.4 C 65.9 32.4 64.9 33 64.9 34.2 C 64.93 34.25 64.9 38.4 64.9 38.4 L 64.4 38.4 L 64.4 28.9 L 64.9 28.9 L 64.9 33 Z M 71 35.2 C 71 33.2 72.4 31.9 73.9 31.9 C 74.9 31.9 75.9 32.5 76.4 33.6 C 76.38 33.62 76.4 32 76.4 32 L 76.8 32 L 76.8 38.4 L 76.4 38.4 C 76.4 38.4 76.38 36.8 76.4 36.8 C 75.9 38 74.9 38.5 73.9 38.5 C 72.4 38.5 71 37.2 71 35.2 Z M 76.4 35.2 C 76.4 33.5 75.2 32.4 73.9 32.4 C 72.6 32.4 71.5 33.5 71.5 35.2 C 71.5 36.9 72.6 38 73.9 38 C 75.2 38 76.4 36.9 76.4 35.2 Z M 79.1 32 L 79.5 32 L 79.6 33.2 C 79.6 33.2 79.59 33.22 79.6 33.2 C 80 32.3 80.8 32 81.5 32 C 81.6 32 81.8 32 81.9 32 C 81.9 32 81.9 32.5 81.9 32.5 C 81.8 32.5 81.6 32.5 81.5 32.5 C 80.6 32.5 79.6 33.1 79.6 34.4 C 79.63 34.37 79.6 38.4 79.6 38.4 L 79.1 38.4 L 79.1 32 Z M 87.8 33.6 C 87.8 33.56 87.9 32 87.9 32 L 88.3 32 C 88.3 32 88.27 38.2 88.3 38.2 C 88.3 40.2 86.9 41.1 85.4 41.1 C 84.6 41.1 83.8 40.8 83 40.3 C 83 40.3 83 39.7 83 39.7 C 83.8 40.3 84.6 40.6 85.4 40.6 C 86.7 40.6 87.8 39.9 87.8 38.3 C 87.8 38.3 87.8 36.7 87.8 36.7 C 87.3 37.8 86.3 38.3 85.3 38.3 C 83.8 38.3 82.4 37.1 82.4 35.1 C 82.4 33.2 83.8 31.9 85.3 31.9 C 86.3 31.9 87.3 32.5 87.8 33.6 Z M 82.9 35.1 C 82.9 36.8 84.1 37.8 85.4 37.8 C 86.7 37.8 87.8 36.7 87.8 35.1 C 87.8 33.5 86.7 32.4 85.4 32.4 C 84 32.4 82.9 33.5 82.9 35.1 Z M 95.7 35.4 C 95.7 35.4 90.6 35.4 90.6 35.4 C 90.7 37 91.7 38 93.2 38 C 93.9 38 94.7 37.8 95.4 37.1 C 95.4 37.1 95.4 37.7 95.4 37.7 C 94.8 38.2 94 38.5 93.1 38.5 C 91.4 38.5 90.1 37.2 90.1 35.2 C 90.1 33.2 91.5 31.9 93.1 31.9 C 94.5 31.9 95.7 33 95.7 35.1 C 95.7 35.2 95.7 35.3 95.7 35.4 Z M 95.2 34.9 C 95.2 33.2 94.1 32.4 93.1 32.4 C 91.8 32.4 90.7 33.4 90.6 34.9 C 90.6 34.9 95.2 34.9 95.2 34.9 Z M 97.4 36.1 C 97.4 36.08 97.4 32 97.4 32 L 97.9 32 C 97.9 32 97.9 36.11 97.9 36.1 C 97.9 37.3 98.6 38 99.8 38 C 101 38 101.7 37.3 101.7 36.1 C 101.7 36.1 101.7 32 101.7 32 L 102.2 32 C 102.2 32 102.2 36.07 102.2 36.1 C 102.2 37.5 101.3 38.5 99.8 38.5 C 98.3 38.5 97.4 37.5 97.4 36.1 Z M 104.4 32 L 104.8 32 L 104.9 33.2 C 104.9 33.2 104.86 33.22 104.9 33.2 C 105.2 32.3 106.1 32 106.7 32 C 106.9 32 107 32 107.1 32 C 107.1 32 107.1 32.5 107.1 32.5 C 107 32.5 106.9 32.5 106.7 32.5 C 105.8 32.5 104.9 33.1 104.9 34.4 C 104.9 34.37 104.9 38.4 104.9 38.4 L 104.4 38.4 L 104.4 32 Z M 111.9 32.5 C 111.9 32.5 111.9 33 111.9 33 C 111.4 32.7 110.8 32.4 110.1 32.4 C 109.2 32.4 108.5 32.9 108.5 33.6 C 108.5 34.3 109.2 34.6 110.2 34.9 C 111.2 35.3 112.3 35.6 112.3 36.7 C 112.3 37.8 111.4 38.5 110.1 38.5 C 109.3 38.5 108.6 38.3 107.9 37.8 C 107.9 37.8 107.9 37.1 107.9 37.1 C 108.5 37.7 109.3 38 110.1 38 C 111.1 38 111.8 37.5 111.8 36.7 C 111.8 36 111 35.7 110 35.3 C 109 35 108 34.7 108 33.6 C 108 32.6 108.9 31.9 110.1 31.9 C 110.8 31.9 111.5 32.1 111.9 32.5 Z M 121.2 38 C 121.7 38 122.3 37.9 122.9 37.5 C 122.9 37.5 122.9 38.1 122.9 38.1 C 122.4 38.4 121.8 38.5 121.2 38.5 C 119.5 38.5 118.1 37.1 118.1 35.2 C 118.1 33.3 119.4 31.9 121.2 31.9 C 121.8 31.9 122.4 32 122.9 32.4 C 122.9 32.4 122.9 32.9 122.9 32.9 C 122.3 32.5 121.8 32.4 121.2 32.4 C 119.8 32.4 118.6 33.5 118.6 35.2 C 118.6 36.9 119.8 38 121.2 38 Z M 129.6 35.4 C 129.6 35.4 124.6 35.4 124.6 35.4 C 124.7 37 125.7 38 127.1 38 C 127.9 38 128.7 37.8 129.4 37.1 C 129.4 37.1 129.4 37.7 129.4 37.7 C 128.7 38.2 127.9 38.5 127.1 38.5 C 125.3 38.5 124.1 37.2 124.1 35.2 C 124.1 33.2 125.5 31.9 127 31.9 C 128.4 31.9 129.7 33 129.7 35.1 C 129.7 35.2 129.6 35.3 129.6 35.4 Z M 129.1 34.9 C 129.1 33.2 128.1 32.4 127 32.4 C 125.8 32.4 124.7 33.4 124.6 34.9 C 124.6 34.9 129.1 34.9 129.1 34.9 Z M 141 33.6 C 140.95 33.64 141 32 141 32 L 141.4 32 L 141.4 41 L 140.9 41 C 140.9 41 140.92 36.84 140.9 36.8 C 140.5 37.9 139.5 38.5 138.5 38.5 C 136.9 38.5 135.5 37.2 135.5 35.2 C 135.5 33.2 136.9 31.9 138.4 31.9 C 139.5 31.9 140.5 32.5 141 33.6 Z M 136 35.2 C 136 36.9 137.2 38 138.5 38 C 139.8 38 140.9 36.9 140.9 35.2 C 140.9 33.5 139.8 32.4 138.5 32.4 C 137.2 32.4 136 33.5 136 35.2 Z M 143.6 36.1 C 143.62 36.08 143.6 32 143.6 32 L 144.1 32 C 144.1 32 144.12 36.11 144.1 36.1 C 144.1 37.3 144.9 38 146 38 C 147.2 38 147.9 37.3 147.9 36.1 C 147.91 36.1 147.9 32 147.9 32 L 148.4 32 C 148.4 32 148.41 36.07 148.4 36.1 C 148.4 37.5 147.5 38.5 146 38.5 C 144.5 38.5 143.6 37.5 143.6 36.1 Z M 150.5 29.7 C 150.5 29.5 150.7 29.3 150.9 29.3 C 151.1 29.3 151.3 29.5 151.3 29.7 C 151.3 29.9 151.1 30.1 150.9 30.1 C 150.7 30.1 150.5 29.9 150.5 29.7 Z M 150.6 32 L 151.2 32 L 151.2 38.4 L 150.6 38.4 L 150.6 32 Z M 158 28.9 L 158.6 28.9 L 158.6 38.4 L 158 38.4 L 158 28.9 Z M 160.8 29.7 C 160.8 29.5 160.9 29.3 161.2 29.3 C 161.4 29.3 161.6 29.5 161.6 29.7 C 161.6 29.9 161.4 30.1 161.2 30.1 C 160.9 30.1 160.8 29.9 160.8 29.7 Z M 160.9 32 L 161.4 32 L 161.4 38.4 L 160.9 38.4 L 160.9 32 Z M 171.5 34.1 C 171.45 34.08 171.5 38.4 171.5 38.4 L 170.9 38.4 C 170.9 38.4 170.95 34.13 170.9 34.1 C 170.9 33.1 170.5 32.4 169.5 32.4 C 168.5 32.4 167.8 33.2 167.8 34.1 C 167.84 34.14 167.8 38.4 167.8 38.4 L 167.3 38.4 C 167.3 38.4 167.34 34.13 167.3 34.1 C 167.3 33.1 166.8 32.4 165.8 32.4 C 164.8 32.4 164.2 33.2 164.2 34.2 C 164.23 34.16 164.2 38.4 164.2 38.4 L 163.7 38.4 L 163.7 32 L 164.1 32 L 164.2 33.1 C 164.2 33.1 164.19 33.08 164.2 33.1 C 164.5 32.4 165.1 31.9 165.9 31.9 C 166.9 31.9 167.4 32.4 167.7 33.2 C 168 32.4 168.6 31.9 169.5 31.9 C 170.8 31.9 171.5 32.8 171.5 34.1 Z M 173.6 29.7 C 173.6 29.5 173.7 29.3 173.9 29.3 C 174.2 29.3 174.4 29.5 174.4 29.7 C 174.4 29.9 174.2 30.1 173.9 30.1 C 173.7 30.1 173.6 29.9 173.6 29.7 Z M 173.7 32 L 174.2 32 L 174.2 38.4 L 173.7 38.4 L 173.7 32 Z M 177.2 32 L 179.1 32 L 179.1 32.5 L 177.2 32.5 C 177.2 32.5 177.2 36.4 177.2 36.4 C 177.2 37.6 177.8 38 178.7 38 C 178.9 38 179.1 38 179.3 38 C 179.3 38 179.3 38.4 179.3 38.4 C 179.2 38.4 179 38.5 178.7 38.5 C 177.5 38.5 176.7 37.8 176.7 36.4 C 176.7 36.42 176.7 32.5 176.7 32.5 L 175.7 32.5 L 175.7 32 L 176.7 32 L 176.7 30.5 L 177.2 30.5 L 177.2 32 Z M 185.7 35.4 C 185.7 35.4 180.6 35.4 180.6 35.4 C 180.7 37 181.7 38 183.2 38 C 183.9 38 184.7 37.8 185.4 37.1 C 185.4 37.1 185.4 37.7 185.4 37.7 C 184.8 38.2 184 38.5 183.1 38.5 C 181.4 38.5 180.1 37.2 180.1 35.2 C 180.1 33.2 181.5 31.9 183.1 31.9 C 184.5 31.9 185.7 33 185.7 35.1 C 185.7 35.2 185.7 35.3 185.7 35.4 Z M 185.2 34.9 C 185.2 33.2 184.1 32.4 183.1 32.4 C 181.8 32.4 180.7 33.4 180.6 34.9 C 180.6 34.9 185.2 34.9 185.2 34.9 Z M 192.1 28.9 L 192.6 28.9 L 192.6 38.4 L 192.1 38.4 L 192.1 28.9 Z M 194.4 35.2 C 194.4 33.2 195.8 31.9 197.3 31.9 C 198.4 31.9 199.4 32.5 199.8 33.6 C 199.84 33.62 199.9 32 199.9 32 L 200.3 32 L 200.3 38.4 L 199.9 38.4 C 199.9 38.4 199.84 36.8 199.8 36.8 C 199.4 38 198.4 38.5 197.3 38.5 C 195.8 38.5 194.4 37.2 194.4 35.2 Z M 199.8 35.2 C 199.8 33.5 198.7 32.4 197.4 32.4 C 196.1 32.4 194.9 33.5 194.9 35.2 C 194.9 36.9 196.1 38 197.4 38 C 198.7 38 199.8 36.9 199.8 35.2 Z M 212.1 33.6 C 212.09 33.64 212.2 32 212.2 32 L 212.6 32 L 212.6 41 L 212.1 41 C 212.1 41 212.05 36.84 212.1 36.8 C 211.6 37.9 210.6 38.5 209.6 38.5 C 208.1 38.5 206.7 37.2 206.7 35.2 C 206.7 33.2 208.1 31.9 209.6 31.9 C 210.6 31.9 211.6 32.5 212.1 33.6 Z M 207.2 35.2 C 207.2 36.9 208.3 38 209.6 38 C 210.9 38 212.1 36.9 212.1 35.2 C 212.1 33.5 211 32.4 209.6 32.4 C 208.3 32.4 207.2 33.5 207.2 35.2 Z M 214.8 36.1 C 214.75 36.08 214.8 32 214.8 32 L 215.3 32 C 215.3 32 215.25 36.11 215.3 36.1 C 215.3 37.3 216 38 217.1 38 C 218.3 38 219 37.3 219 36.1 C 219.05 36.1 219 32 219 32 L 219.6 32 C 219.6 32 219.55 36.07 219.6 36.1 C 219.6 37.5 218.6 38.5 217.1 38.5 C 215.7 38.5 214.8 37.5 214.8 36.1 Z M 221.3 35.2 C 221.3 33.2 222.7 31.9 224.2 31.9 C 225.2 31.9 226.2 32.5 226.7 33.6 C 226.7 33.62 226.8 32 226.8 32 L 227.2 32 L 227.2 38.4 L 226.8 38.4 C 226.8 38.4 226.7 36.8 226.7 36.8 C 226.2 38 225.2 38.5 224.2 38.5 C 222.7 38.5 221.3 37.2 221.3 35.2 Z M 226.7 35.2 C 226.7 33.5 225.6 32.4 224.2 32.4 C 222.9 32.4 221.8 33.5 221.8 35.2 C 221.8 36.9 222.9 38 224.3 38 C 225.6 38 226.7 36.9 226.7 35.2 Z M 234.2 34.2 C 234.24 34.16 234.2 38.4 234.2 38.4 L 233.7 38.4 C 233.7 38.4 233.74 34.37 233.7 34.4 C 233.7 33.1 233.1 32.4 231.9 32.4 C 230.8 32.4 230 33.1 230 34.3 C 229.95 34.31 230 38.4 230 38.4 L 229.5 38.4 L 229.5 32 L 229.8 32 L 229.9 33.2 C 229.9 33.2 229.92 33.16 229.9 33.2 C 230.3 32.4 231 31.9 232 31.9 C 233.4 31.9 234.2 32.8 234.2 34.2 Z M 237.1 32 L 239 32 L 239 32.5 L 237.1 32.5 C 237.1 32.5 237.06 36.4 237.1 36.4 C 237.1 37.6 237.7 38 238.6 38 C 238.8 38 238.9 38 239.1 38 C 239.1 38 239.1 38.4 239.1 38.4 C 239.1 38.4 238.8 38.5 238.5 38.5 C 237.4 38.5 236.6 37.8 236.6 36.4 C 236.56 36.42 236.6 32.5 236.6 32.5 L 235.6 32.5 L 235.6 32 L 236.6 32 L 236.6 30.5 L 237.1 30.5 L 237.1 32 Z M 240.4 29.7 C 240.4 29.5 240.6 29.3 240.8 29.3 C 241 29.3 241.2 29.5 241.2 29.7 C 241.2 29.9 241 30.1 240.8 30.1 C 240.6 30.1 240.4 29.9 240.4 29.7 Z M 240.5 32 L 241 32 L 241 38.4 L 240.5 38.4 L 240.5 32 Z M 244 32 L 245.9 32 L 245.9 32.5 L 244 32.5 C 244 32.5 244.03 36.4 244 36.4 C 244 37.6 244.7 38 245.6 38 C 245.7 38 245.9 38 246.1 38 C 246.1 38 246.1 38.4 246.1 38.4 C 246 38.4 245.8 38.5 245.5 38.5 C 244.4 38.5 243.5 37.8 243.5 36.4 C 243.53 36.42 243.5 32.5 243.5 32.5 L 242.5 32.5 L 242.5 32 L 243.5 32 L 243.5 30.5 L 244 30.5 L 244 32 Z M 249.7 30.9 L 249.2 30.9 L 250.6 29 L 251.2 29 L 249.7 30.9 Z M 252.5 35.4 C 252.5 35.4 247.4 35.4 247.4 35.4 C 247.5 37 248.6 38 250 38 C 250.8 38 251.6 37.8 252.3 37.1 C 252.3 37.1 252.3 37.7 252.3 37.7 C 251.6 38.2 250.8 38.5 250 38.5 C 248.2 38.5 246.9 37.2 246.9 35.2 C 246.9 33.2 248.4 31.9 249.9 31.9 C 251.3 31.9 252.5 33 252.5 35.1 C 252.5 35.2 252.5 35.3 252.5 35.4 Z M 252 34.9 C 252 33.2 251 32.4 249.9 32.4 C 248.7 32.4 247.6 33.4 247.5 34.9 C 247.5 34.9 252 34.9 252 34.9 Z M 258.4 35.2 C 258.4 33.2 259.8 31.9 261.3 31.9 C 262.3 31.9 263.3 32.5 263.8 33.6 C 263.79 33.58 263.8 28.9 263.8 28.9 L 264.3 28.9 L 264.3 38.4 L 263.9 38.4 L 263.8 36.8 C 263.8 36.8 263.82 36.79 263.8 36.8 C 263.4 38 262.3 38.5 261.3 38.5 C 259.8 38.5 258.4 37.2 258.4 35.2 Z M 263.8 35.2 C 263.8 33.5 262.7 32.4 261.4 32.4 C 260 32.4 258.9 33.5 258.9 35.2 C 258.9 36.9 260 38 261.4 38 C 262.7 38 263.8 36.9 263.8 35.2 Z M 271.7 35.4 C 271.7 35.4 266.6 35.4 266.6 35.4 C 266.7 37 267.8 38 269.2 38 C 270 38 270.8 37.8 271.5 37.1 C 271.5 37.1 271.5 37.7 271.5 37.7 C 270.8 38.2 270 38.5 269.2 38.5 C 267.4 38.5 266.1 37.2 266.1 35.2 C 266.1 33.2 267.5 31.9 269.1 31.9 C 270.5 31.9 271.7 33 271.7 35.1 C 271.7 35.2 271.7 35.3 271.7 35.4 Z M 271.2 34.9 C 271.2 33.2 270.2 32.4 269.1 32.4 C 267.9 32.4 266.8 33.4 266.6 34.9 C 266.6 34.9 271.2 34.9 271.2 34.9 Z M 278.3 32.5 L 277.3 32.5 L 277.3 32 L 278.3 32 C 278.3 32 278.28 30.8 278.3 30.8 C 278.3 29.5 279.1 28.8 280.2 28.8 C 280.5 28.8 280.9 28.9 281.1 29 C 281.1 29 281.1 29.5 281.1 29.5 C 280.9 29.4 280.5 29.3 280.2 29.3 C 279.4 29.3 278.8 29.8 278.8 30.9 C 278.8 30.89 278.8 32 278.8 32 L 280.7 32 L 280.7 32.5 L 278.8 32.5 L 278.8 38.4 L 278.3 38.4 L 278.3 32.5 Z M 282.1 29.7 C 282.1 29.5 282.3 29.3 282.5 29.3 C 282.7 29.3 282.9 29.5 282.9 29.7 C 282.9 29.9 282.7 30.1 282.5 30.1 C 282.3 30.1 282.1 29.9 282.1 29.7 Z M 282.3 32 L 282.8 32 L 282.8 38.4 L 282.3 38.4 L 282.3 32 Z M 285.1 28.9 L 285.6 28.9 L 285.6 38.4 L 285.1 38.4 L 285.1 28.9 Z M 291.5 32.5 C 291.5 32.5 291.5 33 291.5 33 C 291 32.7 290.4 32.4 289.7 32.4 C 288.7 32.4 288.1 32.9 288.1 33.6 C 288.1 34.3 288.8 34.6 289.8 34.9 C 290.8 35.3 291.8 35.6 291.8 36.7 C 291.8 37.8 290.9 38.5 289.6 38.5 C 288.9 38.5 288.1 38.3 287.5 37.8 C 287.5 37.8 287.5 37.1 287.5 37.1 C 288 37.7 288.8 38 289.6 38 C 290.6 38 291.3 37.5 291.3 36.7 C 291.3 36 290.6 35.7 289.6 35.3 C 288.5 35 287.6 34.7 287.6 33.6 C 287.6 32.6 288.4 31.9 289.7 31.9 C 290.3 31.9 291 32.1 291.5 32.5 Z M 301.6 32.5 C 301.6 32.5 301.6 33 301.6 33 C 301.1 32.7 300.5 32.4 299.8 32.4 C 298.9 32.4 298.2 32.9 298.2 33.6 C 298.2 34.3 298.9 34.6 299.9 34.9 C 300.9 35.3 302 35.6 302 36.7 C 302 37.8 301.1 38.5 299.8 38.5 C 299 38.5 298.3 38.3 297.6 37.8 C 297.6 37.8 297.6 37.1 297.6 37.1 C 298.2 37.7 299 38 299.8 38 C 300.8 38 301.5 37.5 301.5 36.7 C 301.5 36 300.7 35.7 299.7 35.3 C 298.7 35 297.7 34.7 297.7 33.6 C 297.7 32.6 298.6 31.9 299.8 31.9 C 300.5 31.9 301.2 32.1 301.6 32.5 Z M 303.6 36.1 C 303.62 36.08 303.6 32 303.6 32 L 304.1 32 C 304.1 32 304.13 36.11 304.1 36.1 C 304.1 37.3 304.9 38 306 38 C 307.2 38 307.9 37.3 307.9 36.1 C 307.92 36.1 307.9 32 307.9 32 L 308.4 32 C 308.4 32 308.42 36.07 308.4 36.1 C 308.4 37.5 307.5 38.5 306 38.5 C 304.5 38.5 303.6 37.5 303.6 36.1 Z M 310.6 32 L 311 32 L 311.1 33.2 C 311.1 33.2 311.09 33.22 311.1 33.2 C 311.5 32.3 312.3 32 313 32 C 313.1 32 313.2 32 313.4 32 C 313.4 32 313.4 32.5 313.4 32.5 C 313.2 32.5 313.1 32.5 313 32.5 C 312.1 32.5 311.1 33.1 311.1 34.4 C 311.12 34.37 311.1 38.4 311.1 38.4 L 310.6 38.4 L 310.6 32 Z M 319 28.9 L 319.5 28.9 L 319.5 38.4 L 319 38.4 L 319 28.9 Z M 322 29.9 C 321.98 29.93 322 29.5 322 29.5 L 322.5 29.5 C 322.5 29.5 322.48 29.92 322.5 29.9 C 322.5 30.9 322.1 31.9 321.8 32.5 C 321.8 32.5 321.4 32.5 321.4 32.5 C 321.7 31.9 322 30.9 322 29.9 Z M 329.1 35.4 C 329.1 35.4 324.1 35.4 324.1 35.4 C 324.2 37 325.2 38 326.6 38 C 327.4 38 328.2 37.8 328.9 37.1 C 328.9 37.1 328.9 37.7 328.9 37.7 C 328.2 38.2 327.4 38.5 326.6 38.5 C 324.8 38.5 323.6 37.2 323.6 35.2 C 323.6 33.2 325 31.9 326.5 31.9 C 327.9 31.9 329.2 33 329.2 35.1 C 329.2 35.2 329.1 35.3 329.1 35.4 Z M 328.7 34.9 C 328.6 33.2 327.6 32.4 326.5 32.4 C 325.3 32.4 324.2 33.4 324.1 34.9 C 324.1 34.9 328.7 34.9 328.7 34.9 Z M 334.5 32.5 C 334.5 32.5 334.5 33 334.5 33 C 334 32.7 333.4 32.4 332.7 32.4 C 331.7 32.4 331.1 32.9 331.1 33.6 C 331.1 34.3 331.8 34.6 332.8 34.9 C 333.8 35.3 334.8 35.6 334.8 36.7 C 334.8 37.8 334 38.5 332.7 38.5 C 331.9 38.5 331.1 38.3 330.5 37.8 C 330.5 37.8 330.5 37.1 330.5 37.1 C 331.1 37.7 331.8 38 332.7 38 C 333.7 38 334.3 37.5 334.3 36.7 C 334.3 36 333.6 35.7 332.6 35.3 C 331.5 35 330.6 34.7 330.6 33.6 C 330.6 32.6 331.5 31.9 332.7 31.9 C 333.4 31.9 334 32.1 334.5 32.5 Z M 336.3 34.5 L 339.1 34.5 L 339.1 35 L 336.3 35 L 336.3 34.5 Z " stroke="none" fill="#000"/>
  </g>
  <g id="Polygon30367">
    <path d="M 6.1 19.2 C 6.1 19.24 6.2 17.6 6.2 17.6 L 6.6 17.6 L 6.6 26.6 L 6.1 26.6 C 6.1 26.6 6.06 22.44 6.1 22.4 C 5.6 23.5 4.6 24.1 3.6 24.1 C 2.1 24.1 0.7 22.8 0.7 20.8 C 0.7 18.8 2.1 17.5 3.6 17.5 C 4.6 17.5 5.6 18.1 6.1 19.2 Z M 1.2 20.8 C 1.2 22.5 2.3 23.6 3.6 23.6 C 5 23.6 6.1 22.5 6.1 20.8 C 6.1 19.1 5 18 3.6 18 C 2.3 18 1.2 19.1 1.2 20.8 Z M 8.8 21.7 C 8.76 21.68 8.8 17.6 8.8 17.6 L 9.3 17.6 C 9.3 17.6 9.26 21.71 9.3 21.7 C 9.3 22.9 10 23.6 11.1 23.6 C 12.3 23.6 13.1 22.9 13.1 21.7 C 13.06 21.7 13.1 17.6 13.1 17.6 L 13.6 17.6 C 13.6 17.6 13.56 21.67 13.6 21.7 C 13.6 23.1 12.6 24.1 11.1 24.1 C 9.7 24.1 8.8 23.1 8.8 21.7 Z M 15.6 15.3 C 15.6 15.1 15.8 14.9 16 14.9 C 16.3 14.9 16.5 15.1 16.5 15.3 C 16.5 15.5 16.3 15.7 16 15.7 C 15.8 15.7 15.6 15.5 15.6 15.3 Z M 15.8 17.6 L 16.3 17.6 L 16.3 24 L 15.8 24 L 15.8 17.6 Z M 22 20.8 C 22 18.8 23.4 17.5 24.9 17.5 C 25.9 17.5 27 18.1 27.4 19.2 C 27.42 19.22 27.5 17.6 27.5 17.6 L 27.9 17.6 L 27.9 24 L 27.5 24 C 27.5 24 27.42 22.4 27.4 22.4 C 27 23.6 25.9 24.1 24.9 24.1 C 23.4 24.1 22 22.8 22 20.8 Z M 27.4 20.8 C 27.4 19.1 26.3 18 25 18 C 23.6 18 22.5 19.1 22.5 20.8 C 22.5 22.5 23.7 23.6 25 23.6 C 26.3 23.6 27.4 22.5 27.4 20.8 Z M 32.8 23.6 C 33.3 23.6 34 23.5 34.5 23.1 C 34.5 23.1 34.5 23.7 34.5 23.7 C 34 24 33.4 24.1 32.8 24.1 C 31.1 24.1 29.7 22.7 29.7 20.8 C 29.7 18.9 31.1 17.5 32.8 17.5 C 33.4 17.5 34 17.6 34.5 18 C 34.5 18 34.5 18.5 34.5 18.5 C 33.9 18.1 33.4 18 32.8 18 C 31.4 18 30.2 19.1 30.2 20.8 C 30.2 22.5 31.5 23.6 32.8 23.6 Z M 38.8 23.6 C 39.3 23.6 39.9 23.5 40.5 23.1 C 40.5 23.1 40.5 23.7 40.5 23.7 C 40 24 39.4 24.1 38.8 24.1 C 37 24.1 35.7 22.7 35.7 20.8 C 35.7 18.9 37 17.5 38.7 17.5 C 39.3 17.5 39.9 17.6 40.5 18 C 40.5 18 40.5 18.5 40.5 18.5 C 39.9 18.1 39.3 18 38.7 18 C 37.4 18 36.2 19.1 36.2 20.8 C 36.2 22.5 37.4 23.6 38.8 23.6 Z M 42.2 21.7 C 42.17 21.68 42.2 17.6 42.2 17.6 L 42.7 17.6 C 42.7 17.6 42.67 21.71 42.7 21.7 C 42.7 22.9 43.4 23.6 44.6 23.6 C 45.7 23.6 46.5 22.9 46.5 21.7 C 46.47 21.7 46.5 17.6 46.5 17.6 L 47 17.6 C 47 17.6 46.97 21.67 47 21.7 C 47 23.1 46 24.1 44.6 24.1 C 43.1 24.1 42.2 23.1 42.2 21.7 Z M 54.3 21 C 54.3 21 49.2 21 49.2 21 C 49.3 22.6 50.3 23.6 51.8 23.6 C 52.6 23.6 53.4 23.4 54.1 22.7 C 54.1 22.7 54.1 23.3 54.1 23.3 C 53.4 23.8 52.6 24.1 51.8 24.1 C 50 24.1 48.7 22.8 48.7 20.8 C 48.7 18.8 50.1 17.5 51.7 17.5 C 53.1 17.5 54.3 18.6 54.3 20.7 C 54.3 20.8 54.3 20.9 54.3 21 Z M 53.8 20.5 C 53.8 18.8 52.8 18 51.7 18 C 50.5 18 49.3 19 49.2 20.5 C 49.2 20.5 53.8 20.5 53.8 20.5 Z M 56 15.3 C 56 15.1 56.2 14.9 56.4 14.9 C 56.6 14.9 56.8 15.1 56.8 15.3 C 56.8 15.5 56.6 15.7 56.4 15.7 C 56.2 15.7 56 15.5 56 15.3 Z M 56.1 17.6 L 56.6 17.6 L 56.6 24 L 56.1 24 L 56.1 17.6 Z M 59 14.5 L 59.5 14.5 L 59.5 24 L 59 24 L 59 14.5 Z M 61.9 14.5 L 62.4 14.5 L 62.4 24 L 61.9 24 L 61.9 14.5 Z M 69.8 21 C 69.8 21 64.7 21 64.7 21 C 64.8 22.6 65.8 23.6 67.3 23.6 C 68.1 23.6 68.9 23.4 69.6 22.7 C 69.6 22.7 69.6 23.3 69.6 23.3 C 68.9 23.8 68.1 24.1 67.3 24.1 C 65.5 24.1 64.2 22.8 64.2 20.8 C 64.2 18.8 65.6 17.5 67.2 17.5 C 68.6 17.5 69.8 18.6 69.8 20.7 C 69.8 20.8 69.8 20.9 69.8 21 Z M 69.3 20.5 C 69.3 18.8 68.3 18 67.2 18 C 66 18 64.8 19 64.7 20.5 C 64.7 20.5 69.3 20.5 69.3 20.5 Z M 75 20.8 C 75 18.8 76.4 17.5 77.9 17.5 C 78.9 17.5 79.9 18.1 80.4 19.2 C 80.39 19.18 80.4 14.5 80.4 14.5 L 80.9 14.5 L 80.9 24 L 80.5 24 L 80.4 22.4 C 80.4 22.4 80.42 22.39 80.4 22.4 C 80 23.6 78.9 24.1 77.9 24.1 C 76.4 24.1 75 22.8 75 20.8 Z M 80.4 20.8 C 80.4 19.1 79.3 18 78 18 C 76.6 18 75.5 19.1 75.5 20.8 C 75.5 22.5 76.6 23.6 78 23.6 C 79.3 23.6 80.4 22.5 80.4 20.8 Z M 88.3 21 C 88.3 21 83.2 21 83.2 21 C 83.3 22.6 84.4 23.6 85.8 23.6 C 86.6 23.6 87.4 23.4 88.1 22.7 C 88.1 22.7 88.1 23.3 88.1 23.3 C 87.4 23.8 86.6 24.1 85.8 24.1 C 84 24.1 82.7 22.8 82.7 20.8 C 82.7 18.8 84.1 17.5 85.7 17.5 C 87.1 17.5 88.3 18.6 88.3 20.7 C 88.3 20.8 88.3 20.9 88.3 21 Z M 87.8 20.5 C 87.8 18.8 86.8 18 85.7 18 C 84.5 18 83.4 19 83.2 20.5 C 83.2 20.5 87.8 20.5 87.8 20.5 Z M 93.7 18.1 C 93.7 18.1 93.7 18.6 93.7 18.6 C 93.2 18.3 92.5 18 91.8 18 C 90.9 18 90.3 18.5 90.3 19.2 C 90.3 19.9 90.9 20.2 91.9 20.5 C 93 20.9 94 21.2 94 22.3 C 94 23.4 93.1 24.1 91.8 24.1 C 91.1 24.1 90.3 23.9 89.7 23.4 C 89.7 23.4 89.7 22.7 89.7 22.7 C 90.2 23.3 91 23.6 91.8 23.6 C 92.8 23.6 93.5 23.1 93.5 22.3 C 93.5 21.6 92.8 21.3 91.7 20.9 C 90.7 20.6 89.8 20.3 89.8 19.2 C 89.8 18.2 90.6 17.5 91.9 17.5 C 92.5 17.5 93.2 17.7 93.7 18.1 Z M 99.6 17.6 L 100 17.6 C 100 17.6 100.05 19.24 100 19.2 C 100.5 18.1 101.6 17.5 102.6 17.5 C 104.1 17.5 105.5 18.8 105.5 20.8 C 105.5 22.8 104.1 24.1 102.6 24.1 C 101.5 24.1 100.5 23.5 100.1 22.5 C 100.09 22.45 100.1 26.6 100.1 26.6 L 99.6 26.6 L 99.6 17.6 Z M 105 20.8 C 105 19.1 103.8 18 102.5 18 C 101.2 18 100.1 19.1 100.1 20.8 C 100.1 22.5 101.2 23.6 102.5 23.6 C 103.8 23.6 105 22.5 105 20.8 Z M 107.3 17.6 L 107.7 17.6 L 107.8 18.8 C 107.8 18.8 107.77 18.82 107.8 18.8 C 108.1 17.9 109 17.6 109.6 17.6 C 109.8 17.6 109.9 17.6 110 17.6 C 110 17.6 110 18.1 110 18.1 C 109.9 18.1 109.8 18.1 109.6 18.1 C 108.7 18.1 107.8 18.7 107.8 20 C 107.8 19.97 107.8 24 107.8 24 L 107.3 24 L 107.3 17.6 Z M 111.3 15.3 C 111.3 15.1 111.4 14.9 111.7 14.9 C 111.9 14.9 112.1 15.1 112.1 15.3 C 112.1 15.5 111.9 15.7 111.7 15.7 C 111.4 15.7 111.3 15.5 111.3 15.3 Z M 111.4 17.6 L 111.9 17.6 L 111.9 24 L 111.4 24 L 111.4 17.6 Z M 117.8 18.1 C 117.8 18.1 117.8 18.6 117.8 18.6 C 117.3 18.3 116.7 18 116 18 C 115 18 114.4 18.5 114.4 19.2 C 114.4 19.9 115 20.2 116.1 20.5 C 117.1 20.9 118.1 21.2 118.1 22.3 C 118.1 23.4 117.2 24.1 115.9 24.1 C 115.2 24.1 114.4 23.9 113.8 23.4 C 113.8 23.4 113.8 22.7 113.8 22.7 C 114.3 23.3 115.1 23.6 115.9 23.6 C 116.9 23.6 117.6 23.1 117.6 22.3 C 117.6 21.6 116.9 21.3 115.8 20.9 C 114.8 20.6 113.9 20.3 113.9 19.2 C 113.9 18.2 114.7 17.5 116 17.5 C 116.6 17.5 117.3 17.7 117.8 18.1 Z M 124.9 21 C 124.9 21 119.9 21 119.9 21 C 120 22.6 121 23.6 122.5 23.6 C 123.2 23.6 124 23.4 124.7 22.7 C 124.7 22.7 124.7 23.3 124.7 23.3 C 124.1 23.8 123.3 24.1 122.4 24.1 C 120.6 24.1 119.4 22.8 119.4 20.8 C 119.4 18.8 120.8 17.5 122.3 17.5 C 123.8 17.5 125 18.6 125 20.7 C 125 20.8 125 20.9 124.9 21 Z M 124.5 20.5 C 124.4 18.8 123.4 18 122.3 18 C 121.1 18 120 19 119.9 20.5 C 119.9 20.5 124.5 20.5 124.5 20.5 Z M 130.3 18.1 C 130.3 18.1 130.3 18.6 130.3 18.6 C 129.8 18.3 129.2 18 128.5 18 C 127.6 18 126.9 18.5 126.9 19.2 C 126.9 19.9 127.6 20.2 128.6 20.5 C 129.6 20.9 130.6 21.2 130.6 22.3 C 130.6 23.4 129.8 24.1 128.5 24.1 C 127.7 24.1 127 23.9 126.3 23.4 C 126.3 23.4 126.3 22.7 126.3 22.7 C 126.9 23.3 127.6 23.6 128.5 23.6 C 129.5 23.6 130.1 23.1 130.1 22.3 C 130.1 21.6 129.4 21.3 128.4 20.9 C 127.3 20.6 126.4 20.3 126.4 19.2 C 126.4 18.2 127.3 17.5 128.5 17.5 C 129.2 17.5 129.8 17.7 130.3 18.1 Z M 139.8 18.1 C 139.8 18.1 139.8 18.6 139.8 18.6 C 139.3 18.3 138.7 18 138 18 C 137 18 136.4 18.5 136.4 19.2 C 136.4 19.9 137.1 20.2 138.1 20.5 C 139.1 20.9 140.1 21.2 140.1 22.3 C 140.1 23.4 139.2 24.1 137.9 24.1 C 137.2 24.1 136.4 23.9 135.8 23.4 C 135.8 23.4 135.8 22.7 135.8 22.7 C 136.4 23.3 137.1 23.6 137.9 23.6 C 139 23.6 139.6 23.1 139.6 22.3 C 139.6 21.6 138.9 21.3 137.9 20.9 C 136.8 20.6 135.9 20.3 135.9 19.2 C 135.9 18.2 136.7 17.5 138 17.5 C 138.7 17.5 139.3 17.7 139.8 18.1 Z M 147 21 C 147 21 141.9 21 141.9 21 C 142 22.6 143 23.6 144.5 23.6 C 145.2 23.6 146.1 23.4 146.7 22.7 C 146.7 22.7 146.7 23.3 146.7 23.3 C 146.1 23.8 145.3 24.1 144.5 24.1 C 142.7 24.1 141.4 22.8 141.4 20.8 C 141.4 18.8 142.8 17.5 144.4 17.5 C 145.8 17.5 147 18.6 147 20.7 C 147 20.8 147 20.9 147 21 Z M 146.5 20.5 C 146.5 18.8 145.4 18 144.4 18 C 143.2 18 142 19 141.9 20.5 C 141.9 20.5 146.5 20.5 146.5 20.5 Z M 151.4 23.6 C 151.9 23.6 152.6 23.5 153.1 23.1 C 153.1 23.1 153.1 23.7 153.1 23.7 C 152.6 24 152 24.1 151.4 24.1 C 149.7 24.1 148.3 22.7 148.3 20.8 C 148.3 18.9 149.7 17.5 151.4 17.5 C 152 17.5 152.6 17.6 153.1 18 C 153.1 18 153.1 18.5 153.1 18.5 C 152.6 18.1 152 18 151.4 18 C 150.1 18 148.8 19.1 148.8 20.8 C 148.8 22.5 150.1 23.6 151.4 23.6 Z M 155.6 17.6 L 157.5 17.6 L 157.5 18.1 L 155.6 18.1 C 155.6 18.1 155.6 22 155.6 22 C 155.6 23.2 156.2 23.6 157.1 23.6 C 157.3 23.6 157.5 23.6 157.7 23.6 C 157.7 23.6 157.7 24 157.7 24 C 157.6 24 157.4 24.1 157.1 24.1 C 155.9 24.1 155.1 23.4 155.1 22 C 155.1 22.02 155.1 18.1 155.1 18.1 L 154.1 18.1 L 154.1 17.6 L 155.1 17.6 L 155.1 16.1 L 155.6 16.1 L 155.6 17.6 Z M 164.1 21 C 164.1 21 159 21 159 21 C 159.1 22.6 160.1 23.6 161.6 23.6 C 162.3 23.6 163.1 23.4 163.8 22.7 C 163.8 22.7 163.8 23.3 163.8 23.3 C 163.2 23.8 162.4 24.1 161.5 24.1 C 159.8 24.1 158.5 22.8 158.5 20.8 C 158.5 18.8 159.9 17.5 161.5 17.5 C 162.9 17.5 164.1 18.6 164.1 20.7 C 164.1 20.8 164.1 20.9 164.1 21 Z M 163.6 20.5 C 163.6 18.8 162.5 18 161.5 18 C 160.2 18 159.1 19 159 20.5 C 159 20.5 163.6 20.5 163.6 20.5 Z M 165.8 21.7 C 165.8 21.68 165.8 17.6 165.8 17.6 L 166.3 17.6 C 166.3 17.6 166.3 21.71 166.3 21.7 C 166.3 22.9 167 23.6 168.2 23.6 C 169.4 23.6 170.1 22.9 170.1 21.7 C 170.1 21.7 170.1 17.6 170.1 17.6 L 170.6 17.6 C 170.6 17.6 170.6 21.67 170.6 21.7 C 170.6 23.1 169.7 24.1 168.2 24.1 C 166.7 24.1 165.8 23.1 165.8 21.7 Z M 172.8 17.6 L 173.2 17.6 L 173.3 18.8 C 173.3 18.8 173.26 18.82 173.3 18.8 C 173.6 17.9 174.5 17.6 175.1 17.6 C 175.3 17.6 175.4 17.6 175.5 17.6 C 175.5 17.6 175.5 18.1 175.5 18.1 C 175.4 18.1 175.3 18.1 175.1 18.1 C 174.2 18.1 173.3 18.7 173.3 20 C 173.3 19.97 173.3 24 173.3 24 L 172.8 24 L 172.8 17.6 Z M 185.5 21 C 185.5 21 180.5 21 180.5 21 C 180.6 22.6 181.6 23.6 183 23.6 C 183.8 23.6 184.6 23.4 185.3 22.7 C 185.3 22.7 185.3 23.3 185.3 23.3 C 184.6 23.8 183.8 24.1 183 24.1 C 181.2 24.1 180 22.8 180 20.8 C 180 18.8 181.4 17.5 182.9 17.5 C 184.3 17.5 185.6 18.6 185.6 20.7 C 185.6 20.8 185.5 20.9 185.5 21 Z M 185.1 20.5 C 185 18.8 184 18 182.9 18 C 181.7 18 180.6 19 180.5 20.5 C 180.5 20.5 185.1 20.5 185.1 20.5 Z M 188 17.6 L 189.9 17.6 L 189.9 18.1 L 188 18.1 C 188 18.1 187.98 22 188 22 C 188 23.2 188.6 23.6 189.5 23.6 C 189.7 23.6 189.9 23.6 190.1 23.6 C 190.1 23.6 190.1 24 190.1 24 C 190 24 189.7 24.1 189.5 24.1 C 188.3 24.1 187.5 23.4 187.5 22 C 187.48 22.02 187.5 18.1 187.5 18.1 L 186.5 18.1 L 186.5 17.6 L 187.5 17.6 L 187.5 16.1 L 188 16.1 L 188 17.6 Z M 195.1 21.7 C 195.11 21.68 195.1 17.6 195.1 17.6 L 195.6 17.6 C 195.6 17.6 195.61 21.71 195.6 21.7 C 195.6 22.9 196.3 23.6 197.5 23.6 C 198.7 23.6 199.4 22.9 199.4 21.7 C 199.41 21.7 199.4 17.6 199.4 17.6 L 199.9 17.6 C 199.9 17.6 199.91 21.67 199.9 21.7 C 199.9 23.1 199 24.1 197.5 24.1 C 196 24.1 195.1 23.1 195.1 21.7 Z M 205.7 18.1 C 205.7 18.1 205.7 18.6 205.7 18.6 C 205.2 18.3 204.5 18 203.8 18 C 202.9 18 202.3 18.5 202.3 19.2 C 202.3 19.9 202.9 20.2 203.9 20.5 C 205 20.9 206 21.2 206 22.3 C 206 23.4 205.1 24.1 203.8 24.1 C 203.1 24.1 202.3 23.9 201.7 23.4 C 201.7 23.4 201.7 22.7 201.7 22.7 C 202.2 23.3 203 23.6 203.8 23.6 C 204.8 23.6 205.5 23.1 205.5 22.3 C 205.5 21.6 204.7 21.3 203.7 20.9 C 202.7 20.6 201.8 20.3 201.8 19.2 C 201.8 18.2 202.6 17.5 203.8 17.5 C 204.5 17.5 205.2 17.7 205.7 18.1 Z M 208.2 19.2 C 208.7 18.1 209.7 17.5 210.7 17.5 C 212.2 17.5 213.6 18.8 213.6 20.8 C 213.6 22.8 212.2 24.1 210.7 24.1 C 209.7 24.1 208.7 23.6 208.2 22.4 C 208.19 22.39 208.1 24 208.1 24 L 207.7 24 L 207.7 14.5 L 208.2 14.5 C 208.2 14.5 208.22 19.19 208.2 19.2 Z M 208.2 20.8 C 208.2 22.5 209.3 23.6 210.6 23.6 C 212 23.6 213.1 22.5 213.1 20.8 C 213.1 19.1 212 18 210.7 18 C 209.3 18 208.2 19.1 208.2 20.8 Z M 215 23.6 C 215 23.3 215.2 23.1 215.5 23.1 C 215.7 23.1 216 23.3 216 23.6 C 216 23.8 215.7 24 215.5 24 C 215.2 24 215 23.8 215 23.6 Z M 225.8 24.1 C 223.6 24.1 221.5 22.4 221.5 19.5 C 221.5 16.6 223.6 15 225.8 15 C 226.8 15 227.5 15.2 228.1 15.6 C 228.1 15.6 228.1 16.1 228.1 16.1 C 227.4 15.7 226.7 15.4 225.7 15.4 C 223.9 15.4 222 16.9 222 19.5 C 222 22.2 223.9 23.6 225.8 23.6 C 226.7 23.6 227.4 23.4 228.1 23 C 228.1 23 228.1 23.5 228.1 23.5 C 227.5 23.9 226.7 24.1 225.8 24.1 Z M 234.8 21 C 234.8 21 229.7 21 229.7 21 C 229.8 22.6 230.8 23.6 232.3 23.6 C 233.1 23.6 233.9 23.4 234.6 22.7 C 234.6 22.7 234.6 23.3 234.6 23.3 C 233.9 23.8 233.1 24.1 232.3 24.1 C 230.5 24.1 229.2 22.8 229.2 20.8 C 229.2 18.8 230.6 17.5 232.2 17.5 C 233.6 17.5 234.8 18.6 234.8 20.7 C 234.8 20.8 234.8 20.9 234.8 21 Z M 234.3 20.5 C 234.3 18.8 233.3 18 232.2 18 C 231 18 229.9 19 229.7 20.5 C 229.7 20.5 234.3 20.5 234.3 20.5 Z M 236.6 14.5 L 237.1 14.5 L 237.1 24 L 236.6 24 L 236.6 14.5 Z M 239.5 14.5 L 240 14.5 L 240 24 L 239.5 24 L 239.5 14.5 Z M 247.4 21 C 247.4 21 242.4 21 242.4 21 C 242.5 22.6 243.5 23.6 244.9 23.6 C 245.7 23.6 246.5 23.4 247.2 22.7 C 247.2 22.7 247.2 23.3 247.2 23.3 C 246.5 23.8 245.7 24.1 244.9 24.1 C 243.1 24.1 241.9 22.8 241.9 20.8 C 241.9 18.8 243.3 17.5 244.8 17.5 C 246.2 17.5 247.5 18.6 247.5 20.7 C 247.5 20.8 247.4 20.9 247.4 21 Z M 247 20.5 C 246.9 18.8 245.9 18 244.8 18 C 243.6 18 242.5 19 242.4 20.5 C 242.4 20.5 247 20.5 247 20.5 Z M 249.1 20.1 L 251.9 20.1 L 251.9 20.6 L 249.1 20.6 L 249.1 20.1 Z M 256.6 23.6 C 257.1 23.6 257.8 23.5 258.4 23.1 C 258.4 23.1 258.4 23.7 258.4 23.7 C 257.9 24 257.3 24.1 256.6 24.1 C 254.9 24.1 253.6 22.7 253.6 20.8 C 253.6 18.9 254.9 17.5 256.6 17.5 C 257.2 17.5 257.8 17.6 258.4 18 C 258.4 18 258.4 18.5 258.4 18.5 C 257.8 18.1 257.2 18 256.6 18 C 255.3 18 254.1 19.1 254.1 20.8 C 254.1 22.5 255.3 23.6 256.6 23.6 Z M 260 15.3 C 260 15.1 260.2 14.9 260.4 14.9 C 260.7 14.9 260.8 15.1 260.8 15.3 C 260.8 15.5 260.7 15.7 260.4 15.7 C 260.2 15.7 260 15.5 260 15.3 Z M 260.2 17.6 L 260.7 17.6 L 260.7 24 L 260.2 24 L 260.2 17.6 Z M 266.8 17.6 L 267.2 17.6 C 267.2 17.6 267.32 19.24 267.3 19.2 C 267.8 18.1 268.8 17.5 269.8 17.5 C 271.3 17.5 272.7 18.8 272.7 20.8 C 272.7 22.8 271.3 24.1 269.8 24.1 C 268.8 24.1 267.8 23.5 267.4 22.5 C 267.35 22.45 267.4 26.6 267.4 26.6 L 266.8 26.6 L 266.8 17.6 Z M 272.2 20.8 C 272.2 19.1 271.1 18 269.8 18 C 268.5 18 267.3 19.1 267.3 20.8 C 267.3 22.5 268.5 23.6 269.8 23.6 C 271.1 23.6 272.2 22.5 272.2 20.8 Z M 279.7 21 C 279.7 21 274.6 21 274.6 21 C 274.7 22.6 275.7 23.6 277.2 23.6 C 277.9 23.6 278.8 23.4 279.4 22.7 C 279.4 22.7 279.4 23.3 279.4 23.3 C 278.8 23.8 278 24.1 277.2 24.1 C 275.4 24.1 274.1 22.8 274.1 20.8 C 274.1 18.8 275.5 17.5 277.1 17.5 C 278.5 17.5 279.7 18.6 279.7 20.7 C 279.7 20.8 279.7 20.9 279.7 21 Z M 279.2 20.5 C 279.2 18.8 278.2 18 277.1 18 C 275.9 18 274.7 19 274.6 20.5 C 274.6 20.5 279.2 20.5 279.2 20.5 Z M 281.4 21.7 C 281.42 21.68 281.4 17.6 281.4 17.6 L 281.9 17.6 C 281.9 17.6 281.92 21.71 281.9 21.7 C 281.9 22.9 282.7 23.6 283.8 23.6 C 285 23.6 285.7 22.9 285.7 21.7 C 285.71 21.7 285.7 17.6 285.7 17.6 L 286.2 17.6 C 286.2 17.6 286.22 21.67 286.2 21.7 C 286.2 23.1 285.3 24.1 283.8 24.1 C 282.3 24.1 281.4 23.1 281.4 21.7 Z M 289.1 17.6 L 291 17.6 L 291 18.1 L 289.1 18.1 C 289.1 18.1 289.1 22 289.1 22 C 289.1 23.2 289.7 23.6 290.6 23.6 C 290.8 23.6 291 23.6 291.2 23.6 C 291.2 23.6 291.2 24 291.2 24 C 291.1 24 290.8 24.1 290.6 24.1 C 289.4 24.1 288.6 23.4 288.6 22 C 288.59 22.02 288.6 18.1 288.6 18.1 L 287.6 18.1 L 287.6 17.6 L 288.6 17.6 L 288.6 16.1 L 289.1 16.1 L 289.1 17.6 Z M 298.9 23.6 C 299.4 23.6 300.1 23.5 300.7 23.1 C 300.7 23.1 300.7 23.7 300.7 23.7 C 300.2 24 299.6 24.1 298.9 24.1 C 297.2 24.1 295.9 22.7 295.9 20.8 C 295.9 18.9 297.2 17.5 298.9 17.5 C 299.5 17.5 300.1 17.6 300.7 18 C 300.7 18 300.7 18.5 300.7 18.5 C 300.1 18.1 299.5 18 298.9 18 C 297.6 18 296.4 19.1 296.4 20.8 C 296.4 22.5 297.6 23.6 298.9 23.6 Z M 301.8 20.8 C 301.8 18.9 303.2 17.5 304.9 17.5 C 306.5 17.5 307.9 18.9 307.9 20.8 C 307.9 22.8 306.5 24.1 304.9 24.1 C 303.2 24.1 301.8 22.8 301.8 20.8 Z M 307.4 20.8 C 307.4 19 306.2 18 304.9 18 C 303.6 18 302.3 19 302.3 20.8 C 302.3 22.6 303.6 23.6 304.9 23.6 C 306.2 23.6 307.4 22.6 307.4 20.8 Z M 314.5 19.8 C 314.51 19.76 314.5 24 314.5 24 L 314 24 C 314 24 314.01 19.97 314 20 C 314 18.7 313.4 18 312.2 18 C 311.1 18 310.2 18.7 310.2 19.9 C 310.23 19.91 310.2 24 310.2 24 L 309.7 24 L 309.7 17.6 L 310.1 17.6 L 310.2 18.8 C 310.2 18.8 310.19 18.76 310.2 18.8 C 310.5 18 311.3 17.5 312.3 17.5 C 313.6 17.5 314.5 18.4 314.5 19.8 Z M 317.3 17.6 L 319.2 17.6 L 319.2 18.1 L 317.3 18.1 C 317.3 18.1 317.33 22 317.3 22 C 317.3 23.2 318 23.6 318.9 23.6 C 319.1 23.6 319.2 23.6 319.4 23.6 C 319.4 23.6 319.4 24 319.4 24 C 319.3 24 319.1 24.1 318.8 24.1 C 317.7 24.1 316.8 23.4 316.8 22 C 316.83 22.02 316.8 18.1 316.8 18.1 L 315.8 18.1 L 315.8 17.6 L 316.8 17.6 L 316.8 16.1 L 317.3 16.1 L 317.3 17.6 Z M 325.8 21 C 325.8 21 320.7 21 320.7 21 C 320.8 22.6 321.9 23.6 323.3 23.6 C 324.1 23.6 324.9 23.4 325.6 22.7 C 325.6 22.7 325.6 23.3 325.6 23.3 C 324.9 23.8 324.1 24.1 323.3 24.1 C 321.5 24.1 320.2 22.8 320.2 20.8 C 320.2 18.8 321.7 17.5 323.2 17.5 C 324.6 17.5 325.8 18.6 325.8 20.7 C 325.8 20.8 325.8 20.9 325.8 21 Z M 325.3 20.5 C 325.3 18.8 324.3 18 323.2 18 C 322 18 320.9 19 320.8 20.5 C 320.8 20.5 325.3 20.5 325.3 20.5 Z M 332.4 19.8 C 332.41 19.76 332.4 24 332.4 24 L 331.9 24 C 331.9 24 331.9 19.97 331.9 20 C 331.9 18.7 331.2 18 330.1 18 C 329 18 328.1 18.7 328.1 19.9 C 328.12 19.91 328.1 24 328.1 24 L 327.6 24 L 327.6 17.6 L 328 17.6 L 328.1 18.8 C 328.1 18.8 328.09 18.76 328.1 18.8 C 328.4 18 329.2 17.5 330.2 17.5 C 331.5 17.5 332.4 18.4 332.4 19.8 Z M 334.5 15.3 C 334.5 15.1 334.7 14.9 334.9 14.9 C 335.1 14.9 335.3 15.1 335.3 15.3 C 335.3 15.5 335.1 15.7 334.9 15.7 C 334.7 15.7 334.5 15.5 334.5 15.3 Z M 334.6 17.6 L 335.1 17.6 L 335.1 24 L 334.6 24 L 334.6 17.6 Z M 337.5 17.6 L 337.9 17.6 L 337.9 18.8 C 337.9 18.8 337.93 18.82 337.9 18.8 C 338.3 17.9 339.2 17.6 339.8 17.6 C 339.9 17.6 340.1 17.6 340.2 17.6 C 340.2 17.6 340.2 18.1 340.2 18.1 C 340.1 18.1 339.9 18.1 339.8 18.1 C 338.9 18.1 338 18.7 338 20 C 337.96 19.97 338 24 338 24 L 337.5 24 L 337.5 17.6 Z " stroke="none" fill="#000"/>
  </g>
  <g id="Polygon30366">
    <path d="M 1.4 0.7 L 1.9 0.7 L 1.9 9.1 L 6 9.1 L 6 9.6 L 1.4 9.6 L 1.4 0.7 Z M 12.2 6.6 C 12.2 6.6 7.1 6.6 7.1 6.6 C 7.2 8.2 8.2 9.2 9.7 9.2 C 10.5 9.2 11.3 9 12 8.3 C 12 8.3 12 8.9 12 8.9 C 11.3 9.4 10.5 9.7 9.7 9.7 C 7.9 9.7 6.6 8.4 6.6 6.4 C 6.6 4.4 8 3.1 9.6 3.1 C 11 3.1 12.2 4.2 12.2 6.3 C 12.2 6.4 12.2 6.5 12.2 6.6 Z M 11.7 6.1 C 11.7 4.4 10.7 3.6 9.6 3.6 C 8.4 3.6 7.2 4.6 7.1 6.1 C 7.1 6.1 11.7 6.1 11.7 6.1 Z M 19.5 4.8 C 20 3.7 21 3.1 22 3.1 C 23.5 3.1 24.9 4.4 24.9 6.4 C 24.9 8.4 23.5 9.7 22 9.7 C 21 9.7 20 9.2 19.5 8 C 19.49 7.99 19.4 9.6 19.4 9.6 L 19 9.6 L 19 0.1 L 19.5 0.1 C 19.5 0.1 19.52 4.79 19.5 4.8 Z M 19.5 6.4 C 19.5 8.1 20.6 9.2 21.9 9.2 C 23.3 9.2 24.4 8.1 24.4 6.4 C 24.4 4.7 23.3 3.6 22 3.6 C 20.6 3.6 19.5 4.7 19.5 6.4 Z M 26.7 7.3 C 26.65 7.28 26.7 3.2 26.7 3.2 L 27.2 3.2 C 27.2 3.2 27.15 7.31 27.2 7.3 C 27.2 8.5 27.9 9.2 29 9.2 C 30.2 9.2 30.9 8.5 30.9 7.3 C 30.95 7.3 30.9 3.2 30.9 3.2 L 31.5 3.2 C 31.5 3.2 31.45 7.27 31.5 7.3 C 31.5 8.7 30.5 9.7 29 9.7 C 27.6 9.7 26.7 8.7 26.7 7.3 Z M 33.6 3.2 L 34.1 3.2 L 34.1 4.4 C 34.1 4.4 34.11 4.42 34.1 4.4 C 34.5 3.5 35.4 3.2 36 3.2 C 36.1 3.2 36.3 3.2 36.4 3.2 C 36.4 3.2 36.4 3.7 36.4 3.7 C 36.3 3.7 36.1 3.7 36 3.7 C 35.1 3.7 34.2 4.3 34.2 5.6 C 34.15 5.57 34.2 9.6 34.2 9.6 L 33.6 9.6 L 33.6 3.2 Z M 42.5 6.6 C 42.5 6.6 37.5 6.6 37.5 6.6 C 37.5 8.2 38.6 9.2 40 9.2 C 40.8 9.2 41.6 9 42.3 8.3 C 42.3 8.3 42.3 8.9 42.3 8.9 C 41.6 9.4 40.8 9.7 40 9.7 C 38.2 9.7 37 8.4 37 6.4 C 37 4.4 38.4 3.1 39.9 3.1 C 41.3 3.1 42.5 4.2 42.5 6.3 C 42.5 6.4 42.5 6.5 42.5 6.6 Z M 42 6.1 C 42 4.4 41 3.6 39.9 3.6 C 38.7 3.6 37.6 4.6 37.5 6.1 C 37.5 6.1 42 6.1 42 6.1 Z M 43.9 6.4 C 43.9 4.4 45.3 3.1 46.8 3.1 C 47.8 3.1 48.8 3.7 49.3 4.8 C 49.3 4.82 49.4 3.2 49.4 3.2 L 49.8 3.2 L 49.8 9.6 L 49.4 9.6 C 49.4 9.6 49.3 8 49.3 8 C 48.8 9.2 47.8 9.7 46.8 9.7 C 45.3 9.7 43.9 8.4 43.9 6.4 Z M 49.3 6.4 C 49.3 4.7 48.2 3.6 46.8 3.6 C 45.5 3.6 44.4 4.7 44.4 6.4 C 44.4 8.1 45.5 9.2 46.8 9.2 C 48.2 9.2 49.3 8.1 49.3 6.4 Z M 52 7.3 C 51.96 7.28 52 3.2 52 3.2 L 52.5 3.2 C 52.5 3.2 52.46 7.31 52.5 7.3 C 52.5 8.5 53.2 9.2 54.3 9.2 C 55.5 9.2 56.3 8.5 56.3 7.3 C 56.26 7.3 56.3 3.2 56.3 3.2 L 56.8 3.2 C 56.8 3.2 56.76 7.27 56.8 7.3 C 56.8 8.7 55.8 9.7 54.3 9.7 C 52.9 9.7 52 8.7 52 7.3 Z M 63.9 0.9 C 63.9 0.7 64 0.5 64.3 0.5 C 64.5 0.5 64.7 0.7 64.7 0.9 C 64.7 1.1 64.5 1.3 64.3 1.3 C 64 1.3 63.9 1.1 63.9 0.9 Z M 64 3.2 L 64.5 3.2 L 64.5 9.6 L 64 9.6 L 64 3.2 Z M 71.6 5.4 C 71.61 5.36 71.6 9.6 71.6 9.6 L 71.1 9.6 C 71.1 9.6 71.11 5.57 71.1 5.6 C 71.1 4.3 70.5 3.6 69.3 3.6 C 68.2 3.6 67.3 4.3 67.3 5.5 C 67.33 5.51 67.3 9.6 67.3 9.6 L 66.8 9.6 L 66.8 3.2 L 67.2 3.2 L 67.3 4.4 C 67.3 4.4 67.29 4.36 67.3 4.4 C 67.6 3.6 68.4 3.1 69.4 3.1 C 70.7 3.1 71.6 4 71.6 5.4 Z M 74.4 3.2 L 76.3 3.2 L 76.3 3.7 L 74.4 3.7 C 74.4 3.7 74.43 7.6 74.4 7.6 C 74.4 8.8 75.1 9.2 76 9.2 C 76.2 9.2 76.3 9.2 76.5 9.2 C 76.5 9.2 76.5 9.6 76.5 9.6 C 76.4 9.6 76.2 9.7 75.9 9.7 C 74.8 9.7 73.9 9 73.9 7.6 C 73.93 7.62 73.9 3.7 73.9 3.7 L 72.9 3.7 L 72.9 3.2 L 73.9 3.2 L 73.9 1.7 L 74.4 1.7 L 74.4 3.2 Z M 80.5 2.1 L 78.9 0.2 L 79.5 0.2 L 81 2.1 L 80.5 2.1 Z M 82.9 6.6 C 82.9 6.6 77.8 6.6 77.8 6.6 C 77.9 8.2 79 9.2 80.4 9.2 C 81.2 9.2 82 9 82.7 8.3 C 82.7 8.3 82.7 8.9 82.7 8.9 C 82 9.4 81.2 9.7 80.4 9.7 C 78.6 9.7 77.3 8.4 77.3 6.4 C 77.3 4.4 78.8 3.1 80.3 3.1 C 81.7 3.1 82.9 4.2 82.9 6.3 C 82.9 6.4 82.9 6.5 82.9 6.6 Z M 82.4 6.1 C 82.4 4.4 81.4 3.6 80.3 3.6 C 79.1 3.6 78 4.6 77.9 6.1 C 77.9 6.1 82.4 6.1 82.4 6.1 Z M 89.6 4.8 C 89.64 4.76 89.7 3.2 89.7 3.2 L 90.1 3.2 C 90.1 3.2 90.11 9.4 90.1 9.4 C 90.1 11.4 88.7 12.3 87.3 12.3 C 86.5 12.3 85.6 12 84.9 11.5 C 84.9 11.5 84.9 10.9 84.9 10.9 C 85.6 11.5 86.4 11.8 87.3 11.8 C 88.5 11.8 89.6 11.1 89.6 9.5 C 89.6 9.5 89.6 7.9 89.6 7.9 C 89.1 9 88.2 9.5 87.2 9.5 C 85.7 9.5 84.3 8.3 84.3 6.3 C 84.3 4.4 85.7 3.1 87.2 3.1 C 88.2 3.1 89.2 3.7 89.6 4.8 Z M 84.8 6.3 C 84.8 8 85.9 9 87.2 9 C 88.5 9 89.6 7.9 89.6 6.3 C 89.6 4.7 88.5 3.6 87.2 3.6 C 85.9 3.6 84.8 4.7 84.8 6.3 Z M 92.4 3.2 L 92.8 3.2 L 92.8 4.4 C 92.8 4.4 92.85 4.42 92.9 4.4 C 93.2 3.5 94.1 3.2 94.7 3.2 C 94.9 3.2 95 3.2 95.1 3.2 C 95.1 3.2 95.1 3.7 95.1 3.7 C 95 3.7 94.9 3.7 94.7 3.7 C 93.8 3.7 92.9 4.3 92.9 5.6 C 92.89 5.57 92.9 9.6 92.9 9.6 L 92.4 9.6 L 92.4 3.2 Z M 101.3 6.6 C 101.3 6.6 96.2 6.6 96.2 6.6 C 96.3 8.2 97.3 9.2 98.8 9.2 C 99.5 9.2 100.3 9 101 8.3 C 101 8.3 101 8.9 101 8.9 C 100.4 9.4 99.6 9.7 98.7 9.7 C 96.9 9.7 95.7 8.4 95.7 6.4 C 95.7 4.4 97.1 3.1 98.7 3.1 C 100.1 3.1 101.3 4.2 101.3 6.3 C 101.3 6.4 101.3 6.5 101.3 6.6 Z M 100.8 6.1 C 100.8 4.4 99.7 3.6 98.7 3.6 C 97.4 3.6 96.3 4.6 96.2 6.1 C 96.2 6.1 100.8 6.1 100.8 6.1 Z M 107.7 6.4 C 107.7 4.4 109 3.1 110.6 3.1 C 111.6 3.1 112.6 3.7 113 4.8 C 113.03 4.78 113 0.1 113 0.1 L 113.5 0.1 L 113.5 9.6 L 113.1 9.6 L 113.1 8 C 113.1 8 113.05 7.99 113.1 8 C 112.6 9.2 111.6 9.7 110.6 9.7 C 109.1 9.7 107.7 8.4 107.7 6.4 Z M 113.1 6.4 C 113.1 4.7 111.9 3.6 110.6 3.6 C 109.3 3.6 108.2 4.7 108.2 6.4 C 108.2 8.1 109.3 9.2 110.6 9.2 C 111.9 9.2 113.1 8.1 113.1 6.4 Z M 120.9 6.6 C 120.9 6.6 115.9 6.6 115.9 6.6 C 116 8.2 117 9.2 118.4 9.2 C 119.2 9.2 120 9 120.7 8.3 C 120.7 8.3 120.7 8.9 120.7 8.9 C 120 9.4 119.2 9.7 118.4 9.7 C 116.6 9.7 115.4 8.4 115.4 6.4 C 115.4 4.4 116.8 3.1 118.3 3.1 C 119.7 3.1 120.9 4.2 120.9 6.3 C 120.9 6.4 120.9 6.5 120.9 6.6 Z M 120.4 6.1 C 120.4 4.4 119.4 3.6 118.3 3.6 C 117.1 3.6 116 4.6 115.9 6.1 C 115.9 6.1 120.4 6.1 120.4 6.1 Z M 122.7 7.3 C 122.66 7.28 122.7 3.2 122.7 3.2 L 123.2 3.2 C 123.2 3.2 123.17 7.31 123.2 7.3 C 123.2 8.5 123.9 9.2 125.1 9.2 C 126.2 9.2 127 8.5 127 7.3 C 126.96 7.3 127 3.2 127 3.2 L 127.5 3.2 C 127.5 3.2 127.46 7.27 127.5 7.3 C 127.5 8.7 126.5 9.7 125.1 9.7 C 123.6 9.7 122.7 8.7 122.7 7.3 Z M 131.7 6.4 L 134 9.6 L 133.4 9.6 L 131.5 6.8 L 131.4 6.8 L 129.5 9.6 L 128.9 9.6 L 131.2 6.4 L 128.9 3.2 L 129.5 3.2 L 131.4 6 L 131.4 6 L 133.4 3.2 L 134 3.2 L 131.7 6.4 Z M 141.1 3.2 L 143 3.2 L 143 3.7 L 141.1 3.7 C 141.1 3.7 141.08 7.6 141.1 7.6 C 141.1 8.8 141.7 9.2 142.6 9.2 C 142.8 9.2 143 9.2 143.2 9.2 C 143.2 9.2 143.2 9.6 143.2 9.6 C 143.1 9.6 142.8 9.7 142.6 9.7 C 141.4 9.7 140.6 9 140.6 7.6 C 140.58 7.62 140.6 3.7 140.6 3.7 L 139.6 3.7 L 139.6 3.2 L 140.6 3.2 L 140.6 1.7 L 141.1 1.7 L 141.1 3.2 Z M 144.4 0.9 C 144.4 0.7 144.6 0.5 144.8 0.5 C 145 0.5 145.2 0.7 145.2 0.9 C 145.2 1.1 145 1.3 144.8 1.3 C 144.6 1.3 144.4 1.1 144.4 0.9 Z M 144.6 3.2 L 145.1 3.2 L 145.1 9.6 L 144.6 9.6 L 144.6 3.2 Z M 147.4 3.2 L 147.8 3.2 L 147.8 4.4 C 147.8 4.4 147.84 4.42 147.8 4.4 C 148.2 3.5 149.1 3.2 149.7 3.2 C 149.9 3.2 150 3.2 150.1 3.2 C 150.1 3.2 150.1 3.7 150.1 3.7 C 150 3.7 149.9 3.7 149.7 3.7 C 148.8 3.7 147.9 4.3 147.9 5.6 C 147.87 5.57 147.9 9.6 147.9 9.6 L 147.4 9.6 L 147.4 3.2 Z M 150.7 6.4 C 150.7 4.5 152 3.1 153.7 3.1 C 155.4 3.1 156.8 4.5 156.8 6.4 C 156.8 8.4 155.4 9.7 153.7 9.7 C 152 9.7 150.7 8.4 150.7 6.4 Z M 156.3 6.4 C 156.3 4.6 155 3.6 153.7 3.6 C 152.4 3.6 151.2 4.6 151.2 6.4 C 151.2 8.2 152.4 9.2 153.7 9.2 C 155 9.2 156.3 8.2 156.3 6.4 Z M 158.5 0.9 C 158.5 0.7 158.6 0.5 158.9 0.5 C 159.1 0.5 159.3 0.7 159.3 0.9 C 159.3 1.1 159.1 1.3 158.9 1.3 C 158.6 1.3 158.5 1.1 158.5 0.9 Z M 158.6 3.2 L 159.1 3.2 L 159.1 9.6 L 158.6 9.6 L 158.6 3.2 Z M 161.4 3.2 L 161.8 3.2 L 161.9 4.4 C 161.9 4.4 161.9 4.42 161.9 4.4 C 162.3 3.5 163.1 3.2 163.8 3.2 C 163.9 3.2 164.1 3.2 164.2 3.2 C 164.2 3.2 164.2 3.7 164.2 3.7 C 164.1 3.7 163.9 3.7 163.8 3.7 C 162.9 3.7 161.9 4.3 161.9 5.6 C 161.94 5.57 161.9 9.6 161.9 9.6 L 161.4 9.6 L 161.4 3.2 Z M 169 3.7 C 169 3.7 169 4.2 169 4.2 C 168.5 3.9 167.9 3.6 167.2 3.6 C 166.2 3.6 165.6 4.1 165.6 4.8 C 165.6 5.5 166.3 5.8 167.3 6.1 C 168.3 6.5 169.3 6.8 169.3 7.9 C 169.3 9 168.4 9.7 167.1 9.7 C 166.4 9.7 165.6 9.5 165 9 C 165 9 165 8.3 165 8.3 C 165.5 8.9 166.3 9.2 167.1 9.2 C 168.1 9.2 168.8 8.7 168.8 7.9 C 168.8 7.2 168.1 6.9 167 6.5 C 166 6.2 165.1 5.9 165.1 4.8 C 165.1 3.8 165.9 3.1 167.2 3.1 C 167.8 3.1 168.5 3.3 169 3.7 Z M 175.6 6.4 C 175.6 4.4 177 3.1 178.5 3.1 C 179.5 3.1 180.5 3.7 181 4.8 C 180.99 4.78 181 0.1 181 0.1 L 181.5 0.1 L 181.5 9.6 L 181.1 9.6 L 181 8 C 181 8 181.02 7.99 181 8 C 180.6 9.2 179.5 9.7 178.5 9.7 C 177 9.7 175.6 8.4 175.6 6.4 Z M 181 6.4 C 181 4.7 179.9 3.6 178.6 3.6 C 177.2 3.6 176.1 4.7 176.1 6.4 C 176.1 8.1 177.2 9.2 178.6 9.2 C 179.9 9.2 181 8.1 181 6.4 Z M 188.9 6.6 C 188.9 6.6 183.8 6.6 183.8 6.6 C 183.9 8.2 185 9.2 186.4 9.2 C 187.2 9.2 188 9 188.7 8.3 C 188.7 8.3 188.7 8.9 188.7 8.9 C 188 9.4 187.2 9.7 186.4 9.7 C 184.6 9.7 183.3 8.4 183.3 6.4 C 183.3 4.4 184.7 3.1 186.3 3.1 C 187.7 3.1 188.9 4.2 188.9 6.3 C 188.9 6.4 188.9 6.5 188.9 6.6 Z M 188.4 6.1 C 188.4 4.4 187.4 3.6 186.3 3.6 C 185.1 3.6 184 4.6 183.8 6.1 C 183.8 6.1 188.4 6.1 188.4 6.1 Z M 195.7 3.2 L 196.1 3.2 L 196.2 4.4 C 196.2 4.4 196.2 4.42 196.2 4.4 C 196.6 3.5 197.4 3.2 198.1 3.2 C 198.2 3.2 198.4 3.2 198.5 3.2 C 198.5 3.2 198.5 3.7 198.5 3.7 C 198.4 3.7 198.2 3.7 198.1 3.7 C 197.2 3.7 196.2 4.3 196.2 5.6 C 196.23 5.57 196.2 9.6 196.2 9.6 L 195.7 9.6 L 195.7 3.2 Z M 199 6.4 C 199 4.4 200.4 3.1 201.9 3.1 C 203 3.1 204 3.7 204.4 4.8 C 204.44 4.82 204.5 3.2 204.5 3.2 L 204.9 3.2 L 204.9 9.6 L 204.5 9.6 C 204.5 9.6 204.44 8 204.4 8 C 204 9.2 203 9.7 201.9 9.7 C 200.4 9.7 199 8.4 199 6.4 Z M 204.4 6.4 C 204.4 4.7 203.3 3.6 202 3.6 C 200.7 3.6 199.5 4.7 199.5 6.4 C 199.5 8.1 200.7 9.2 202 9.2 C 203.3 9.2 204.4 8.1 204.4 6.4 Z M 212 5.4 C 211.98 5.36 212 9.6 212 9.6 L 211.5 9.6 C 211.5 9.6 211.47 5.57 211.5 5.6 C 211.5 4.3 210.8 3.6 209.7 3.6 C 208.6 3.6 207.7 4.3 207.7 5.5 C 207.69 5.51 207.7 9.6 207.7 9.6 L 207.2 9.6 L 207.2 3.2 L 207.6 3.2 L 207.6 4.4 C 207.6 4.4 207.66 4.36 207.7 4.4 C 208 3.6 208.8 3.1 209.7 3.1 C 211.1 3.1 212 4 212 5.4 Z M 219.1 4.8 C 219.09 4.76 219.2 3.2 219.2 3.2 L 219.6 3.2 C 219.6 3.2 219.56 9.4 219.6 9.4 C 219.6 11.4 218.2 12.3 216.7 12.3 C 215.9 12.3 215 12 214.3 11.5 C 214.3 11.5 214.3 10.9 214.3 10.9 C 215 11.5 215.9 11.8 216.7 11.8 C 218 11.8 219.1 11.1 219.1 9.5 C 219.1 9.5 219.1 7.9 219.1 7.9 C 218.6 9 217.6 9.5 216.6 9.5 C 215.1 9.5 213.7 8.3 213.7 6.3 C 213.7 4.4 215.1 3.1 216.6 3.1 C 217.6 3.1 218.6 3.7 219.1 4.8 Z M 214.2 6.3 C 214.2 8 215.3 9 216.7 9 C 218 9 219.1 7.9 219.1 6.3 C 219.1 4.7 218 3.6 216.7 3.6 C 215.3 3.6 214.2 4.7 214.2 6.3 Z M 227 6.6 C 227 6.6 221.9 6.6 221.9 6.6 C 222 8.2 223 9.2 224.5 9.2 C 225.2 9.2 226 9 226.7 8.3 C 226.7 8.3 226.7 8.9 226.7 8.9 C 226.1 9.4 225.3 9.7 224.4 9.7 C 222.6 9.7 221.4 8.4 221.4 6.4 C 221.4 4.4 222.8 3.1 224.3 3.1 C 225.8 3.1 227 4.2 227 6.3 C 227 6.4 227 6.5 227 6.6 Z M 226.5 6.1 C 226.4 4.4 225.4 3.6 224.3 3.6 C 223.1 3.6 222 4.6 221.9 6.1 C 221.9 6.1 226.5 6.1 226.5 6.1 Z M 236.5 5.3 C 236.5 5.28 236.5 9.6 236.5 9.6 L 236 9.6 C 236 9.6 236 5.33 236 5.3 C 236 4.3 235.5 3.6 234.5 3.6 C 233.5 3.6 232.9 4.4 232.9 5.3 C 232.89 5.34 232.9 9.6 232.9 9.6 L 232.4 9.6 C 232.4 9.6 232.39 5.33 232.4 5.3 C 232.4 4.3 231.9 3.6 230.9 3.6 C 229.9 3.6 229.3 4.4 229.3 5.4 C 229.28 5.36 229.3 9.6 229.3 9.6 L 228.8 9.6 L 228.8 3.2 L 229.2 3.2 L 229.2 4.3 C 229.2 4.3 229.24 4.28 229.2 4.3 C 229.5 3.6 230.2 3.1 231 3.1 C 231.9 3.1 232.5 3.6 232.7 4.4 C 233 3.6 233.7 3.1 234.6 3.1 C 235.9 3.1 236.5 4 236.5 5.3 Z M 243.8 6.6 C 243.8 6.6 238.8 6.6 238.8 6.6 C 238.9 8.2 239.9 9.2 241.3 9.2 C 242.1 9.2 242.9 9 243.6 8.3 C 243.6 8.3 243.6 8.9 243.6 8.9 C 242.9 9.4 242.1 9.7 241.3 9.7 C 239.5 9.7 238.3 8.4 238.3 6.4 C 238.3 4.4 239.7 3.1 241.2 3.1 C 242.6 3.1 243.8 4.2 243.8 6.3 C 243.8 6.4 243.8 6.5 243.8 6.6 Z M 243.3 6.1 C 243.3 4.4 242.3 3.6 241.2 3.6 C 240 3.6 238.9 4.6 238.8 6.1 C 238.8 6.1 243.3 6.1 243.3 6.1 Z M 250.4 5.4 C 250.44 5.36 250.4 9.6 250.4 9.6 L 249.9 9.6 C 249.9 9.6 249.93 5.57 249.9 5.6 C 249.9 4.3 249.3 3.6 248.1 3.6 C 247 3.6 246.2 4.3 246.2 5.5 C 246.15 5.51 246.2 9.6 246.2 9.6 L 245.6 9.6 L 245.6 3.2 L 246 3.2 L 246.1 4.4 C 246.1 4.4 246.12 4.36 246.1 4.4 C 246.5 3.6 247.2 3.1 248.2 3.1 C 249.5 3.1 250.4 4 250.4 5.4 Z M 253.3 3.2 L 255.2 3.2 L 255.2 3.7 L 253.3 3.7 C 253.3 3.7 253.26 7.6 253.3 7.6 C 253.3 8.8 253.9 9.2 254.8 9.2 C 255 9.2 255.1 9.2 255.3 9.2 C 255.3 9.2 255.3 9.6 255.3 9.6 C 255.3 9.6 255 9.7 254.7 9.7 C 253.6 9.7 252.8 9 252.8 7.6 C 252.75 7.62 252.8 3.7 252.8 3.7 L 251.8 3.7 L 251.8 3.2 L 252.8 3.2 L 252.8 1.7 L 253.3 1.7 L 253.3 3.2 Z M 266.7 6.6 C 266.7 6.6 261.7 6.6 261.7 6.6 C 261.8 8.2 262.8 9.2 264.2 9.2 C 265 9.2 265.8 9 266.5 8.3 C 266.5 8.3 266.5 8.9 266.5 8.9 C 265.8 9.4 265.1 9.7 264.2 9.7 C 262.4 9.7 261.2 8.4 261.2 6.4 C 261.2 4.4 262.6 3.1 264.1 3.1 C 265.6 3.1 266.8 4.2 266.8 6.3 C 266.8 6.4 266.8 6.5 266.7 6.6 Z M 266.3 6.1 C 266.2 4.4 265.2 3.6 264.1 3.6 C 262.9 3.6 261.8 4.6 261.7 6.1 C 261.7 6.1 266.3 6.1 266.3 6.1 Z M 269.2 3.2 L 271.1 3.2 L 271.1 3.7 L 269.2 3.7 C 269.2 3.7 269.19 7.6 269.2 7.6 C 269.2 8.8 269.8 9.2 270.7 9.2 C 270.9 9.2 271.1 9.2 271.3 9.2 C 271.3 9.2 271.3 9.6 271.3 9.6 C 271.2 9.6 270.9 9.7 270.7 9.7 C 269.5 9.7 268.7 9 268.7 7.6 C 268.69 7.62 268.7 3.7 268.7 3.7 L 267.7 3.7 L 267.7 3.2 L 268.7 3.2 L 268.7 1.7 L 269.2 1.7 L 269.2 3.2 Z M 277.5 7.3 C 277.48 7.28 277.5 3.2 277.5 3.2 L 278 3.2 C 278 3.2 277.99 7.31 278 7.3 C 278 8.5 278.7 9.2 279.9 9.2 C 281 9.2 281.8 8.5 281.8 7.3 C 281.78 7.3 281.8 3.2 281.8 3.2 L 282.3 3.2 C 282.3 3.2 282.28 7.27 282.3 7.3 C 282.3 8.7 281.3 9.7 279.9 9.7 C 278.4 9.7 277.5 8.7 277.5 7.3 Z M 289.3 5.4 C 289.27 5.36 289.3 9.6 289.3 9.6 L 288.8 9.6 C 288.8 9.6 288.76 5.57 288.8 5.6 C 288.8 4.3 288.1 3.6 287 3.6 C 285.9 3.6 285 4.3 285 5.5 C 284.98 5.51 285 9.6 285 9.6 L 284.5 9.6 L 284.5 3.2 L 284.9 3.2 L 284.9 4.4 C 284.9 4.4 284.95 4.36 284.9 4.4 C 285.3 3.6 286.1 3.1 287 3.1 C 288.4 3.1 289.3 4 289.3 5.4 Z M 296.6 6.6 C 296.6 6.6 291.5 6.6 291.5 6.6 C 291.6 8.2 292.6 9.2 294.1 9.2 C 294.8 9.2 295.7 9 296.3 8.3 C 296.3 8.3 296.3 8.9 296.3 8.9 C 295.7 9.4 294.9 9.7 294.1 9.7 C 292.3 9.7 291 8.4 291 6.4 C 291 4.4 292.4 3.1 294 3.1 C 295.4 3.1 296.6 4.2 296.6 6.3 C 296.6 6.4 296.6 6.5 296.6 6.6 Z M 296.1 6.1 C 296.1 4.4 295.1 3.6 294 3.6 C 292.8 3.6 291.6 4.6 291.5 6.1 C 291.5 6.1 296.1 6.1 296.1 6.1 Z M 304 3.2 L 305.9 3.2 L 305.9 3.7 L 304 3.7 C 304 3.7 303.97 7.6 304 7.6 C 304 8.8 304.6 9.2 305.5 9.2 C 305.7 9.2 305.9 9.2 306 9.2 C 306 9.2 306 9.6 306 9.6 C 306 9.6 305.7 9.7 305.4 9.7 C 304.3 9.7 303.5 9 303.5 7.6 C 303.46 7.62 303.5 3.7 303.5 3.7 L 302.5 3.7 L 302.5 3.2 L 303.5 3.2 L 303.5 1.7 L 304 1.7 L 304 3.2 Z M 307.4 3.2 L 307.8 3.2 L 307.9 4.4 C 307.9 4.4 307.87 4.42 307.9 4.4 C 308.3 3.5 309.1 3.2 309.8 3.2 C 309.9 3.2 310 3.2 310.1 3.2 C 310.1 3.2 310.1 3.7 310.1 3.7 C 310 3.7 309.9 3.7 309.8 3.7 C 308.9 3.7 307.9 4.3 307.9 5.6 C 307.9 5.57 307.9 9.6 307.9 9.6 L 307.4 9.6 L 307.4 3.2 Z M 310.7 6.4 C 310.7 4.4 312.1 3.1 313.6 3.1 C 314.6 3.1 315.6 3.7 316.1 4.8 C 316.11 4.82 316.2 3.2 316.2 3.2 L 316.6 3.2 L 316.6 9.6 L 316.2 9.6 C 316.2 9.6 316.11 8 316.1 8 C 315.6 9.2 314.6 9.7 313.6 9.7 C 312.1 9.7 310.7 8.4 310.7 6.4 Z M 316.1 6.4 C 316.1 4.7 315 3.6 313.7 3.6 C 312.3 3.6 311.2 4.7 311.2 6.4 C 311.2 8.1 312.3 9.2 313.7 9.2 C 315 9.2 316.1 8.1 316.1 6.4 Z M 318.9 3.2 L 319.3 3.2 C 319.3 3.2 319.33 4.84 319.3 4.8 C 319.8 3.7 320.8 3.1 321.8 3.1 C 323.3 3.1 324.7 4.4 324.7 6.4 C 324.7 8.4 323.3 9.7 321.8 9.7 C 320.8 9.7 319.8 9.1 319.4 8.1 C 319.36 8.05 319.4 12.2 319.4 12.2 L 318.9 12.2 L 318.9 3.2 Z M 324.2 6.4 C 324.2 4.7 323.1 3.6 321.8 3.6 C 320.5 3.6 319.3 4.7 319.3 6.4 C 319.3 8.1 320.5 9.2 321.8 9.2 C 323.1 9.2 324.2 8.1 324.2 6.4 Z M 326.6 3.2 L 327 3.2 C 327 3.2 327.04 4.84 327 4.8 C 327.5 3.7 328.5 3.1 329.6 3.1 C 331.1 3.1 332.5 4.4 332.5 6.4 C 332.5 8.4 331.1 9.7 329.6 9.7 C 328.5 9.7 327.5 9.1 327.1 8.1 C 327.08 8.05 327.1 12.2 327.1 12.2 L 326.6 12.2 L 326.6 3.2 Z M 332 6.4 C 332 4.7 330.8 3.6 329.5 3.6 C 328.2 3.6 327.1 4.7 327.1 6.4 C 327.1 8.1 328.2 9.2 329.5 9.2 C 330.8 9.2 332 8.1 332 6.4 Z M 339.4 6.6 C 339.4 6.6 334.4 6.6 334.4 6.6 C 334.4 8.2 335.5 9.2 336.9 9.2 C 337.7 9.2 338.5 9 339.2 8.3 C 339.2 8.3 339.2 8.9 339.2 8.9 C 338.5 9.4 337.7 9.7 336.9 9.7 C 335.1 9.7 333.8 8.4 333.8 6.4 C 333.8 4.4 335.3 3.1 336.8 3.1 C 338.2 3.1 339.4 4.2 339.4 6.3 C 339.4 6.4 339.4 6.5 339.4 6.6 Z M 338.9 6.1 C 338.9 4.4 337.9 3.6 336.8 3.6 C 335.6 3.6 334.5 4.6 334.4 6.1 C 334.4 6.1 338.9 6.1 338.9 6.1 Z " stroke="none" fill="#000"/>
  </g>
</svg>