<?xml version="1.0" standalone="no"?>
<!DOCTYPE svg PUBLIC "-//W3C//DTD SVG 1.1//EN" "http://www.w3.org/Graphics/SVG/1.1/DTD/svg11.dtd">
<svg xmlns="http://www.w3.org/2000/svg" version="1.1" width="27px" height="14.5px" viewBox="0 0 27 14.5">
  <desc>18 22</desc>
  <defs/>
  <g id="Polygon30721">
    <path d="M 1.7 1.4 L 0.3 2 L 0.3 1.3 L 2.3 0.4 L 2.4 0.4 L 2.4 6.1 L 1.7 6.1 L 1.7 1.4 Z M 7.9 4.6 C 7.9 5.6 7.1 6.3 5.9 6.3 C 4.8 6.3 4 5.5 4 4.6 C 4 4 4.3 3.4 5 3.2 C 5 3.2 5 3.2 5 3.2 C 4.5 3 4.1 2.5 4.1 1.9 C 4.1 1.1 4.8 0.3 5.9 0.3 C 7.1 0.3 7.7 1.1 7.7 1.9 C 7.7 2.5 7.3 3 6.9 3.2 C 6.9 3.2 6.9 3.2 6.9 3.2 C 7.5 3.4 7.9 4 7.9 4.6 Z M 5.9 2.9 C 6.6 2.9 7.1 2.5 7.1 1.9 C 7.1 1.4 6.6 1 5.9 1 C 5.3 1 4.8 1.4 4.8 1.9 C 4.8 2.5 5.3 2.9 5.9 2.9 Z M 4.7 4.6 C 4.7 5.1 5.2 5.6 5.9 5.6 C 6.7 5.6 7.2 5.1 7.2 4.6 C 7.2 4 6.7 3.5 5.9 3.5 C 5.2 3.5 4.7 4 4.7 4.6 Z M 11.2 -0.6 L 11.9 -0.6 L 9.3 7.2 L 8.6 7.2 L 11.2 -0.6 Z M 15.3 2.1 C 15.3 1.5 14.9 1 14.2 1 C 13.5 1 13 1.3 12.7 1.7 C 12.7 1.7 12.7 0.9 12.7 0.9 C 13 0.6 13.6 0.3 14.2 0.3 C 15.4 0.3 16 1.1 16 2.1 C 16 3 15.3 3.9 13.8 5.5 C 13.82 5.47 16.2 5.5 16.2 5.5 L 16.2 6.1 C 16.2 6.1 12.43 6.14 12.4 6.1 C 15 3.3 15.3 2.8 15.3 2.1 Z M 19.8 2.1 C 19.8 1.5 19.4 1 18.7 1 C 18 1 17.5 1.3 17.2 1.7 C 17.2 1.7 17.2 0.9 17.2 0.9 C 17.5 0.6 18.1 0.3 18.7 0.3 C 19.9 0.3 20.5 1.1 20.5 2.1 C 20.5 3 19.8 3.9 18.3 5.5 C 18.32 5.47 20.7 5.5 20.7 5.5 L 20.7 6.1 C 20.7 6.1 16.93 6.14 16.9 6.1 C 19.5 3.3 19.8 2.8 19.8 2.1 Z " stroke="none" fill="#000"/>
  </g>
</svg>