<?xml version="1.0" standalone="no"?>
<!DOCTYPE svg PUBLIC "-//W3C//DTD SVG 1.1//EN" "http://www.w3.org/Graphics/SVG/1.1/DTD/svg11.dtd">
<svg xmlns="http://www.w3.org/2000/svg" version="1.1" width="305.4px" height="87.1px" viewBox="0 0 305.4 87.1">
  <desc>Z PHYR</desc>
  <defs/>
  <g id="Polygon17200">
    <path d="M 3.4 18.7 L 24.3 18.7 L 24.3 24.4 L 5.6 46 L 5.6 46.5 L 24.9 46.5 L 24.9 50 L 2.4 50 L 2.4 44.4 L 21.1 22.8 L 21.1 22.2 L 3.4 22.2 L 3.4 18.7 Z M 31.5 18.7 L 50.4 18.7 L 50.4 22.2 L 35.3 22.2 L 35.3 32.6 L 50.2 32.6 L 50.2 36.1 L 35.3 36.1 L 35.3 46.5 L 50.7 46.5 L 50.7 50 L 31.5 50 L 31.5 18.7 Z M 46.7 10.2 L 43 15.4 L 39.8 15.4 L 42.7 10.2 L 46.7 10.2 Z M 62.2 37.1 L 62.2 50 L 58.4 50 L 58.4 18.7 C 58.4 18.7 69.57 18.74 69.6 18.7 C 71.2 18.7 72.6 19 73.8 19.4 C 75 19.9 75.9 20.5 76.7 21.3 C 77.5 22.1 78.1 23 78.5 24 C 78.9 25 79.1 26.1 79.1 27.2 C 79.1 27.2 79.1 28.6 79.1 28.6 C 79.1 29.7 78.9 30.8 78.5 31.8 C 78.1 32.9 77.5 33.8 76.7 34.6 C 75.9 35.4 74.9 36 73.7 36.4 C 72.5 36.9 71.1 37.1 69.6 37.1 C 69.57 37.13 62.2 37.1 62.2 37.1 Z M 62.2 33.6 C 62.2 33.6 69.12 33.65 69.1 33.6 C 73.3 33.6 75.4 31.9 75.4 28.3 C 75.4 28.3 75.4 27.5 75.4 27.5 C 75.4 25.9 74.9 24.6 73.8 23.7 C 72.8 22.7 71.2 22.2 69.1 22.2 C 69.12 22.22 62.2 22.2 62.2 22.2 L 62.2 33.6 Z M 85.2 18.7 L 88.9 18.7 L 88.9 32.6 L 102.2 32.6 L 102.2 18.7 L 106 18.7 L 106 50 L 102.2 50 L 102.2 36.1 L 88.9 36.1 L 88.9 50 L 85.2 50 L 85.2 18.7 Z M 121 39 L 120.2 39 L 110.4 18.7 L 114.6 18.7 L 122.6 35.8 L 123.2 35.8 L 131.2 18.7 L 135.3 18.7 L 125.6 39 L 124.8 39 L 124.8 50 L 121 50 L 121 39 Z M 160 50 L 156.2 50 C 156.2 50 156.23 39.54 156.2 39.5 C 156.2 38.8 156.1 38.2 155.7 37.8 C 155.3 37.3 154.7 37.1 153.8 37.1 C 153.82 37.13 144.1 37.1 144.1 37.1 L 144.1 50 L 140.3 50 L 140.3 18.7 C 140.3 18.7 151.5 18.74 151.5 18.7 C 153.1 18.7 154.5 19 155.7 19.4 C 156.9 19.9 157.9 20.5 158.7 21.3 C 159.5 22.1 160 23 160.4 24 C 160.9 25 161.1 26.1 161.1 27.2 C 161.1 27.2 161.1 28.6 161.1 28.6 C 161.1 29.7 160.7 30.9 160.1 32 C 159.5 33.2 158.5 34.1 157.1 34.7 C 157.1 34.7 157.1 35.3 157.1 35.3 C 158 35.4 158.7 35.8 159.2 36.3 C 159.7 36.9 160 37.7 160 38.7 C 159.98 38.73 160 50 160 50 Z M 144.1 33.6 C 144.1 33.6 151.06 33.65 151.1 33.6 C 153.2 33.6 154.7 33.2 155.8 32.3 C 156.8 31.4 157.3 30 157.3 28.3 C 157.3 28.3 157.3 27.5 157.3 27.5 C 157.3 25.9 156.8 24.6 155.8 23.7 C 154.7 22.7 153.2 22.2 151.1 22.2 C 151.06 22.22 144.1 22.2 144.1 22.2 L 144.1 33.6 Z " stroke="none" fill="#000"/>
  </g>
</svg>