<?xml version="1.0" standalone="no"?>
<!DOCTYPE svg PUBLIC "-//W3C//DTD SVG 1.1//EN" "http://www.w3.org/Graphics/SVG/1.1/DTD/svg11.dtd">
<svg xmlns="http://www.w3.org/2000/svg" version="1.1" width="80px" height="15.8px" viewBox="0 0 80 15.8">
  <desc>3 Tweeters</desc>
  <defs/>
  <g id="Polygon26817">
    <path d="M 4.4 5.5 C 4.4 6.5 3.7 7.3 2.4 7.3 C 1.6 7.3 1 7.1 0.6 6.6 C 0.6 6.6 0.6 6.1 0.6 6.1 C 1 6.6 1.6 7 2.4 7 C 3.4 7 4 6.3 4 5.5 C 4 4.6 3.4 4 2.2 4 C 2.21 3.98 1.4 4 1.4 4 L 1.4 3.6 C 1.4 3.6 2.08 3.6 2.1 3.6 C 3.2 3.6 3.8 3 3.8 2.2 C 3.8 1.4 3.2 0.8 2.3 0.8 C 1.7 0.8 1.1 1.1 0.8 1.5 C 0.8 1.5 0.8 1 0.8 1 C 1.2 0.7 1.7 0.4 2.3 0.4 C 3.4 0.4 4.2 1.2 4.2 2.1 C 4.2 2.9 3.7 3.6 2.9 3.7 C 3.8 3.9 4.4 4.6 4.4 5.5 Z M 9.8 0.9 L 7.6 0.9 L 7.6 0.5 L 12.4 0.5 L 12.4 0.9 L 10.2 0.9 L 10.2 7.2 L 9.8 7.2 L 9.8 0.9 Z M 15.6 3 L 15.6 3 L 14.1 7.2 L 13.6 7.2 L 12.2 2.4 L 12.6 2.4 L 13.8 6.8 L 13.9 6.8 L 15.4 2.4 L 15.8 2.4 L 17.3 6.8 L 17.3 6.8 L 18.5 2.4 L 18.9 2.4 L 17.5 7.2 L 17.1 7.2 L 15.6 3 Z M 23.9 5 C 23.9 5 20.1 5 20.1 5 C 20.1 6.2 20.9 7 22 7 C 22.6 7 23.2 6.8 23.7 6.3 C 23.7 6.3 23.7 6.7 23.7 6.7 C 23.2 7.1 22.6 7.3 22 7.3 C 20.6 7.3 19.7 6.4 19.7 4.9 C 19.7 3.3 20.7 2.4 21.9 2.4 C 23 2.4 23.9 3.2 23.9 4.7 C 23.9 4.8 23.9 4.9 23.9 5 Z M 23.5 4.6 C 23.5 3.3 22.7 2.7 21.9 2.7 C 21 2.7 20.1 3.4 20.1 4.6 C 20.1 4.6 23.5 4.6 23.5 4.6 Z M 29.1 5 C 29.1 5 25.3 5 25.3 5 C 25.3 6.2 26.1 7 27.2 7 C 27.8 7 28.4 6.8 28.9 6.3 C 28.9 6.3 28.9 6.7 28.9 6.7 C 28.4 7.1 27.8 7.3 27.2 7.3 C 25.8 7.3 24.9 6.4 24.9 4.9 C 24.9 3.3 26 2.4 27.1 2.4 C 28.2 2.4 29.1 3.2 29.1 4.7 C 29.1 4.8 29.1 4.9 29.1 5 Z M 28.7 4.6 C 28.7 3.3 27.9 2.7 27.1 2.7 C 26.2 2.7 25.4 3.4 25.3 4.6 C 25.3 4.6 28.7 4.6 28.7 4.6 Z M 30.9 2.4 L 32.4 2.4 L 32.4 2.8 L 30.9 2.8 C 30.9 2.8 30.94 5.73 30.9 5.7 C 30.9 6.6 31.4 6.9 32.1 6.9 C 32.2 6.9 32.4 6.9 32.5 6.9 C 32.5 6.9 32.5 7.3 32.5 7.3 C 32.5 7.3 32.3 7.3 32.1 7.3 C 31.2 7.3 30.6 6.8 30.6 5.8 C 30.57 5.75 30.6 2.8 30.6 2.8 L 29.8 2.8 L 29.8 2.4 L 30.6 2.4 L 30.6 1.3 L 30.9 1.3 L 30.9 2.4 Z M 37.3 5 C 37.3 5 33.5 5 33.5 5 C 33.6 6.2 34.4 7 35.4 7 C 36 7 36.6 6.8 37.2 6.3 C 37.2 6.3 37.2 6.7 37.2 6.7 C 36.7 7.1 36.1 7.3 35.4 7.3 C 34.1 7.3 33.1 6.4 33.1 4.9 C 33.1 3.3 34.2 2.4 35.4 2.4 C 36.4 2.4 37.3 3.2 37.3 4.7 C 37.3 4.8 37.3 4.9 37.3 5 Z M 37 4.6 C 37 3.3 36.2 2.7 35.4 2.7 C 34.5 2.7 33.6 3.4 33.5 4.6 C 33.5 4.6 37 4.6 37 4.6 Z M 38.7 2.4 L 39 2.4 L 39.1 3.3 C 39.1 3.3 39.06 3.33 39.1 3.3 C 39.3 2.7 40 2.4 40.5 2.4 C 40.6 2.4 40.7 2.4 40.8 2.4 C 40.8 2.4 40.8 2.8 40.8 2.8 C 40.7 2.8 40.6 2.8 40.5 2.8 C 39.8 2.8 39.1 3.2 39.1 4.2 C 39.09 4.2 39.1 7.2 39.1 7.2 L 38.7 7.2 L 38.7 2.4 Z M 44.4 2.8 C 44.4 2.8 44.4 3.2 44.4 3.2 C 44 2.9 43.6 2.7 43 2.7 C 42.3 2.7 41.8 3.1 41.8 3.6 C 41.8 4.2 42.3 4.4 43.1 4.6 C 43.9 4.9 44.6 5.1 44.6 6 C 44.6 6.8 44 7.3 43 7.3 C 42.4 7.3 41.9 7.1 41.4 6.8 C 41.4 6.8 41.4 6.3 41.4 6.3 C 41.8 6.7 42.4 7 43 7 C 43.8 7 44.3 6.6 44.3 6 C 44.3 5.4 43.7 5.2 42.9 4.9 C 42.1 4.7 41.5 4.4 41.5 3.6 C 41.5 2.9 42.1 2.4 43 2.4 C 43.5 2.4 44 2.5 44.4 2.8 Z " stroke="none" fill="#000"/>
  </g>
</svg>