<?xml version="1.0" standalone="no"?>
<!DOCTYPE svg PUBLIC "-//W3C//DTD SVG 1.1//EN" "http://www.w3.org/Graphics/SVG/1.1/DTD/svg11.dtd">
<svg xmlns="http://www.w3.org/2000/svg" version="1.1" width="27px" height="14.5px" viewBox="0 0 27 14.5">
  <desc>8 22</desc>
  <defs/>
  <g id="Polygon27270">
    <path d="M 4.4 4.6 C 4.4 5.6 3.6 6.3 2.4 6.3 C 1.3 6.3 0.5 5.5 0.5 4.6 C 0.5 4 0.8 3.4 1.5 3.2 C 1.5 3.2 1.5 3.2 1.5 3.2 C 1 3 0.6 2.5 0.6 1.9 C 0.6 1.1 1.3 0.3 2.4 0.3 C 3.6 0.3 4.2 1.1 4.2 1.9 C 4.2 2.5 3.9 3 3.4 3.2 C 3.4 3.2 3.4 3.2 3.4 3.2 C 4.1 3.4 4.4 4 4.4 4.6 Z M 2.4 2.9 C 3.1 2.9 3.6 2.5 3.6 1.9 C 3.6 1.4 3.1 1 2.4 1 C 1.8 1 1.3 1.4 1.3 1.9 C 1.3 2.5 1.8 2.9 2.4 2.9 Z M 1.2 4.6 C 1.2 5.1 1.7 5.6 2.4 5.6 C 3.2 5.6 3.7 5.1 3.7 4.6 C 3.7 4 3.2 3.5 2.4 3.5 C 1.7 3.5 1.2 4 1.2 4.6 Z M 7.7 -0.6 L 8.4 -0.6 L 5.8 7.2 L 5.1 7.2 L 7.7 -0.6 Z M 11.8 2.1 C 11.8 1.5 11.4 1 10.7 1 C 10.1 1 9.5 1.3 9.2 1.7 C 9.2 1.7 9.2 0.9 9.2 0.9 C 9.5 0.6 10.1 0.3 10.7 0.3 C 11.9 0.3 12.5 1.1 12.5 2.1 C 12.5 3 11.8 3.9 10.3 5.5 C 10.33 5.47 12.7 5.5 12.7 5.5 L 12.7 6.1 C 12.7 6.1 8.94 6.14 8.9 6.1 C 11.5 3.3 11.8 2.8 11.8 2.1 Z M 16.3 2.1 C 16.3 1.5 15.9 1 15.2 1 C 14.6 1 14 1.3 13.7 1.7 C 13.7 1.7 13.7 0.9 13.7 0.9 C 14 0.6 14.6 0.3 15.2 0.3 C 16.4 0.3 17 1.1 17 2.1 C 17 3 16.3 3.9 14.8 5.5 C 14.83 5.47 17.2 5.5 17.2 5.5 L 17.2 6.1 C 17.2 6.1 13.44 6.14 13.4 6.1 C 16 3.3 16.3 2.8 16.3 2.1 Z " stroke="none" fill="#000"/>
  </g>
</svg>