<?xml version="1.0" standalone="no"?>
<!DOCTYPE svg PUBLIC "-//W3C//DTD SVG 1.1//EN" "http://www.w3.org/Graphics/SVG/1.1/DTD/svg11.dtd">
<svg xmlns="http://www.w3.org/2000/svg" version="1.1" width="27px" height="14.5px" viewBox="0 0 27 14.5">
  <desc>15 22</desc>
  <defs/>
  <g id="Polygon30041">
    <path d="M 1.7 1.4 L 0.3 2 L 0.3 1.3 L 2.3 0.4 L 2.4 0.4 L 2.4 6.1 L 1.7 6.1 L 1.7 1.4 Z M 7.2 1.1 L 5.2 1.1 C 5.2 1.1 4.93 2.71 4.9 2.7 C 5.1 2.7 5.3 2.6 5.6 2.6 C 6.8 2.6 7.5 3.5 7.5 4.4 C 7.5 5.3 6.8 6.3 5.4 6.3 C 4.8 6.3 4.3 6.1 3.9 5.7 C 3.9 5.7 3.9 4.9 3.9 4.9 C 4.3 5.3 4.9 5.6 5.4 5.6 C 6.2 5.6 6.7 5.1 6.7 4.4 C 6.7 3.7 6.2 3.2 5.3 3.2 C 4.9 3.2 4.6 3.3 4.3 3.5 C 4.31 3.47 4.2 3.4 4.2 3.4 L 4.7 0.4 L 7.2 0.4 L 7.2 1.1 Z M 10.7 -0.6 L 11.4 -0.6 L 8.8 7.2 L 8.1 7.2 L 10.7 -0.6 Z M 14.8 2.1 C 14.8 1.5 14.4 1 13.7 1 C 13 1 12.5 1.3 12.2 1.7 C 12.2 1.7 12.2 0.9 12.2 0.9 C 12.5 0.6 13.1 0.3 13.7 0.3 C 14.9 0.3 15.5 1.1 15.5 2.1 C 15.5 3 14.7 3.9 13.3 5.5 C 13.32 5.47 15.7 5.5 15.7 5.5 L 15.7 6.1 C 15.7 6.1 11.93 6.14 11.9 6.1 C 14.5 3.3 14.8 2.8 14.8 2.1 Z M 19.3 2.1 C 19.3 1.5 18.9 1 18.2 1 C 17.5 1 17 1.3 16.7 1.7 C 16.7 1.7 16.7 0.9 16.7 0.9 C 17 0.6 17.6 0.3 18.2 0.3 C 19.4 0.3 20 1.1 20 2.1 C 20 3 19.2 3.9 17.8 5.5 C 17.82 5.47 20.2 5.5 20.2 5.5 L 20.2 6.1 C 20.2 6.1 16.43 6.14 16.4 6.1 C 19 3.3 19.3 2.8 19.3 2.1 Z " stroke="none" fill="#000"/>
  </g>
</svg>