<?xml version="1.0" standalone="no"?>
<!DOCTYPE svg PUBLIC "-//W3C//DTD SVG 1.1//EN" "http://www.w3.org/Graphics/SVG/1.1/DTD/svg11.dtd">
<svg xmlns="http://www.w3.org/2000/svg" version="1.1" width="27px" height="14.5px" viewBox="0 0 27 14.5">
  <desc>21 22</desc>
  <defs/>
  <g id="Polygon31456">
    <path d="M 3.1 2.1 C 3.1 1.5 2.7 1 2 1 C 1.4 1 0.9 1.3 0.6 1.7 C 0.6 1.7 0.6 0.9 0.6 0.9 C 0.9 0.6 1.5 0.3 2.1 0.3 C 3.2 0.3 3.9 1.1 3.9 2.1 C 3.9 3 3.1 3.9 1.7 5.5 C 1.67 5.47 4.1 5.5 4.1 5.5 L 4.1 6.1 C 4.1 6.1 0.28 6.14 0.3 6.1 C 2.8 3.3 3.1 2.8 3.1 2.1 Z M 6.2 1.4 L 4.8 2 L 4.8 1.3 L 6.9 0.4 L 6.9 0.4 L 6.9 6.1 L 6.2 6.1 L 6.2 1.4 Z M 10.8 -0.6 L 11.5 -0.6 L 8.9 7.2 L 8.3 7.2 L 10.8 -0.6 Z M 14.9 2.1 C 14.9 1.5 14.5 1 13.8 1 C 13.2 1 12.7 1.3 12.3 1.7 C 12.3 1.7 12.3 0.9 12.3 0.9 C 12.7 0.6 13.2 0.3 13.9 0.3 C 15 0.3 15.7 1.1 15.7 2.1 C 15.7 3 14.9 3.9 13.5 5.5 C 13.46 5.47 15.9 5.5 15.9 5.5 L 15.9 6.1 C 15.9 6.1 12.07 6.14 12.1 6.1 C 14.6 3.3 14.9 2.8 14.9 2.1 Z M 19.4 2.1 C 19.4 1.5 19 1 18.3 1 C 17.7 1 17.2 1.3 16.9 1.7 C 16.9 1.7 16.9 0.9 16.9 0.9 C 17.2 0.6 17.7 0.3 18.4 0.3 C 19.5 0.3 20.2 1.1 20.2 2.1 C 20.2 3 19.4 3.9 18 5.5 C 17.96 5.47 20.4 5.5 20.4 5.5 L 20.4 6.1 C 20.4 6.1 16.57 6.14 16.6 6.1 C 19.1 3.3 19.4 2.8 19.4 2.1 Z " stroke="none" fill="#000"/>
  </g>
</svg>