<?xml version="1.0" standalone="no"?>
<!DOCTYPE svg PUBLIC "-//W3C//DTD SVG 1.1//EN" "http://www.w3.org/Graphics/SVG/1.1/DTD/svg11.dtd">
<svg xmlns="http://www.w3.org/2000/svg" version="1.1" width="27px" height="14.5px" viewBox="0 0 27 14.5">
  <desc>6 22</desc>
  <defs/>
  <g id="Polygon26104">
    <path d="M 4.4 4.3 C 4.4 5.4 3.5 6.3 2.4 6.3 C 1.2 6.3 0.4 5.4 0.4 4.3 C 0.4 3.7 0.7 3.2 1.2 2.6 C 1.19 2.56 2.9 0.4 2.9 0.4 L 3.7 0.4 C 3.7 0.4 2.07 2.52 2.1 2.5 C 2.2 2.5 2.3 2.5 2.5 2.5 C 3.4 2.5 4.4 3.2 4.4 4.3 Z M 3.6 4.3 C 3.6 3.5 3 3.1 2.2 3.1 C 2 3.1 1.8 3.1 1.5 3.2 C 1.2 3.6 1.1 3.9 1.1 4.3 C 1.1 5 1.6 5.6 2.4 5.6 C 3.1 5.6 3.6 5 3.6 4.3 Z M 7.5 -0.6 L 8.2 -0.6 L 5.6 7.2 L 4.9 7.2 L 7.5 -0.6 Z M 11.6 2.1 C 11.6 1.5 11.2 1 10.5 1 C 9.9 1 9.4 1.3 9 1.7 C 9 1.7 9 0.9 9 0.9 C 9.4 0.6 9.9 0.3 10.6 0.3 C 11.7 0.3 12.3 1.1 12.3 2.1 C 12.3 3 11.6 3.9 10.1 5.5 C 10.15 5.47 12.5 5.5 12.5 5.5 L 12.5 6.1 C 12.5 6.1 8.76 6.14 8.8 6.1 C 11.3 3.3 11.6 2.8 11.6 2.1 Z M 16.1 2.1 C 16.1 1.5 15.7 1 15 1 C 14.4 1 13.9 1.3 13.5 1.7 C 13.5 1.7 13.5 0.9 13.5 0.9 C 13.9 0.6 14.4 0.3 15.1 0.3 C 16.2 0.3 16.8 1.1 16.8 2.1 C 16.8 3 16.1 3.9 14.6 5.5 C 14.65 5.47 17 5.5 17 5.5 L 17 6.1 C 17 6.1 13.26 6.14 13.3 6.1 C 15.8 3.3 16.1 2.8 16.1 2.1 Z " stroke="none" fill="#000"/>
  </g>
</svg>