<?xml version="1.0" standalone="no"?>
<!DOCTYPE svg PUBLIC "-//W3C//DTD SVG 1.1//EN" "http://www.w3.org/Graphics/SVG/1.1/DTD/svg11.dtd">
<svg xmlns="http://www.w3.org/2000/svg" version="1.1" width="162px" height="140.4px" viewBox="0 0 162 140.4">
  <desc>L ensemble est tudi pour pouvoir tre pos sur un meuble troit comme un buffet ou une commode Gr ce aux enceintes</desc>
  <defs/>
  <g id="Polygon27137">
    <path d="M 1.1 118.4 L 1.5 118.4 L 1.6 119.6 C 1.6 119.6 1.61 119.62 1.6 119.6 C 2 118.7 2.8 118.4 3.5 118.4 C 3.6 118.4 3.8 118.4 3.9 118.4 C 3.9 118.4 3.9 118.9 3.9 118.9 C 3.8 118.9 3.6 118.9 3.5 118.9 C 2.6 118.9 1.7 119.5 1.6 120.8 C 1.64 120.77 1.6 124.8 1.6 124.8 L 1.1 124.8 L 1.1 118.4 Z M 10 121.8 C 10 121.8 5 121.8 5 121.8 C 5 123.4 6.1 124.4 7.5 124.4 C 8.3 124.4 9.1 124.2 9.8 123.5 C 9.8 123.5 9.8 124.1 9.8 124.1 C 9.1 124.6 8.3 124.9 7.5 124.9 C 5.7 124.9 4.5 123.6 4.5 121.6 C 4.5 119.6 5.9 118.3 7.4 118.3 C 8.8 118.3 10 119.4 10 121.5 C 10 121.6 10 121.7 10 121.8 Z M 9.5 121.3 C 9.5 119.6 8.5 118.8 7.4 118.8 C 6.2 118.8 5.1 119.8 5 121.3 C 5 121.3 9.5 121.3 9.5 121.3 Z M 16.6 120.6 C 16.62 120.56 16.6 124.8 16.6 124.8 L 16.1 124.8 C 16.1 124.8 16.12 120.77 16.1 120.8 C 16.1 119.5 15.5 118.8 14.3 118.8 C 13.2 118.8 12.3 119.5 12.3 120.7 C 12.34 120.71 12.3 124.8 12.3 124.8 L 11.8 124.8 L 11.8 118.4 L 12.2 118.4 L 12.3 119.6 C 12.3 119.6 12.3 119.56 12.3 119.6 C 12.6 118.8 13.4 118.3 14.4 118.3 C 15.7 118.3 16.6 119.2 16.6 120.6 Z M 21.4 124.4 C 21.9 124.4 22.6 124.3 23.2 123.9 C 23.2 123.9 23.2 124.5 23.2 124.5 C 22.7 124.8 22.1 124.9 21.4 124.9 C 19.7 124.9 18.4 123.5 18.4 121.6 C 18.4 119.7 19.7 118.3 21.4 118.3 C 22 118.3 22.6 118.4 23.2 118.8 C 23.2 118.8 23.2 119.3 23.2 119.3 C 22.6 118.9 22 118.8 21.4 118.8 C 20.1 118.8 18.9 119.9 18.9 121.6 C 18.9 123.3 20.1 124.4 21.4 124.4 Z M 29.9 121.8 C 29.9 121.8 24.8 121.8 24.8 121.8 C 24.9 123.4 26 124.4 27.4 124.4 C 28.2 124.4 29 124.2 29.7 123.5 C 29.7 123.5 29.7 124.1 29.7 124.1 C 29 124.6 28.2 124.9 27.4 124.9 C 25.6 124.9 24.3 123.6 24.3 121.6 C 24.3 119.6 25.8 118.3 27.3 118.3 C 28.7 118.3 29.9 119.4 29.9 121.5 C 29.9 121.6 29.9 121.7 29.9 121.8 Z M 29.4 121.3 C 29.4 119.6 28.4 118.8 27.3 118.8 C 26.1 118.8 25 119.8 24.9 121.3 C 24.9 121.3 29.4 121.3 29.4 121.3 Z M 38.6 117.3 L 38.2 117.3 L 36.6 115.4 L 37.2 115.4 L 38.6 117.3 Z M 34.7 121.6 C 34.7 119.6 36.1 118.3 37.6 118.3 C 38.7 118.3 39.7 118.9 40.1 120 C 40.14 120.02 40.2 118.4 40.2 118.4 L 40.6 118.4 L 40.6 124.8 L 40.2 124.8 C 40.2 124.8 40.14 123.2 40.1 123.2 C 39.7 124.4 38.7 124.9 37.6 124.9 C 36.1 124.9 34.7 123.6 34.7 121.6 Z M 40.1 121.6 C 40.1 119.9 39 118.8 37.7 118.8 C 36.4 118.8 35.2 119.9 35.2 121.6 C 35.2 123.3 36.4 124.4 37.7 124.4 C 39 124.4 40.1 123.3 40.1 121.6 Z M 46.4 115.3 L 46.9 115.3 L 46.9 124.8 L 46.4 124.8 L 46.4 115.3 Z M 48.8 121.6 C 48.8 119.6 50.2 118.3 51.7 118.3 C 52.7 118.3 53.7 118.9 54.2 120 C 54.17 120.02 54.2 118.4 54.2 118.4 L 54.6 118.4 L 54.6 124.8 L 54.2 124.8 C 54.2 124.8 54.17 123.2 54.2 123.2 C 53.7 124.4 52.7 124.9 51.7 124.9 C 50.2 124.9 48.8 123.6 48.8 121.6 Z M 54.2 121.6 C 54.2 119.9 53 118.8 51.7 118.8 C 50.4 118.8 49.3 119.9 49.3 121.6 C 49.3 123.3 50.4 124.4 51.7 124.4 C 53 124.4 54.2 123.3 54.2 121.6 Z M 60.9 118.4 L 62.8 118.4 L 62.8 118.9 L 60.9 118.9 C 60.9 118.9 60.93 122.8 60.9 122.8 C 60.9 124 61.6 124.4 62.5 124.4 C 62.7 124.4 62.8 124.4 63 124.4 C 63 124.4 63 124.8 63 124.8 C 62.9 124.8 62.7 124.9 62.4 124.9 C 61.3 124.9 60.4 124.2 60.4 122.8 C 60.43 122.82 60.4 118.9 60.4 118.9 L 59.4 118.9 L 59.4 118.4 L 60.4 118.4 L 60.4 116.9 L 60.9 116.9 L 60.9 118.4 Z M 63.8 121.6 C 63.8 119.6 65.2 118.3 66.7 118.3 C 67.8 118.3 68.8 118.9 69.2 120 C 69.24 120.02 69.3 118.4 69.3 118.4 L 69.7 118.4 L 69.7 124.8 L 69.3 124.8 C 69.3 124.8 69.24 123.2 69.2 123.2 C 68.8 124.4 67.8 124.9 66.7 124.9 C 65.2 124.9 63.8 123.6 63.8 121.6 Z M 69.2 121.6 C 69.2 119.9 68.1 118.8 66.8 118.8 C 65.5 118.8 64.3 119.9 64.3 121.6 C 64.3 123.3 65.5 124.4 66.8 124.4 C 68.1 124.4 69.2 123.3 69.2 121.6 Z M 71.9 116.1 C 71.9 115.9 72 115.7 72.3 115.7 C 72.5 115.7 72.7 115.9 72.7 116.1 C 72.7 116.3 72.5 116.5 72.3 116.5 C 72 116.5 71.9 116.3 71.9 116.1 Z M 72 118.4 L 72.5 118.4 L 72.5 124.8 L 72 124.8 L 72 118.4 Z M 74.9 115.3 L 75.4 115.3 L 75.4 124.8 L 74.9 124.8 L 74.9 115.3 Z M 77.7 115.3 L 78.2 115.3 L 78.2 124.8 L 77.7 124.8 L 77.7 115.3 Z M 85.7 121.8 C 85.7 121.8 80.6 121.8 80.6 121.8 C 80.7 123.4 81.7 124.4 83.2 124.4 C 83.9 124.4 84.8 124.2 85.4 123.5 C 85.4 123.5 85.4 124.1 85.4 124.1 C 84.8 124.6 84 124.9 83.1 124.9 C 81.4 124.9 80.1 123.6 80.1 121.6 C 80.1 119.6 81.5 118.3 83.1 118.3 C 84.5 118.3 85.7 119.4 85.7 121.5 C 85.7 121.6 85.7 121.7 85.7 121.8 Z M 85.2 121.3 C 85.2 119.6 84.1 118.8 83.1 118.8 C 81.9 118.8 80.7 119.8 80.6 121.3 C 80.6 121.3 85.2 121.3 85.2 121.3 Z M 90.5 121.6 C 90.5 119.6 91.9 118.3 93.4 118.3 C 94.4 118.3 95.4 118.9 95.9 120 C 95.89 119.98 95.9 115.3 95.9 115.3 L 96.4 115.3 L 96.4 124.8 L 96 124.8 L 95.9 123.2 C 95.9 123.2 95.92 123.19 95.9 123.2 C 95.5 124.4 94.4 124.9 93.4 124.9 C 91.9 124.9 90.5 123.6 90.5 121.6 Z M 95.9 121.6 C 95.9 119.9 94.8 118.8 93.5 118.8 C 92.1 118.8 91 119.9 91 121.6 C 91 123.3 92.1 124.4 93.5 124.4 C 94.8 124.4 95.9 123.3 95.9 121.6 Z M 98.9 116.3 C 98.87 116.33 98.9 115.9 98.9 115.9 L 99.4 115.9 C 99.4 115.9 99.37 116.32 99.4 116.3 C 99.4 117.3 99 118.3 98.7 118.9 C 98.7 118.9 98.3 118.9 98.3 118.9 C 98.6 118.3 98.9 117.3 98.9 116.3 Z M 101.2 122.5 C 101.2 122.48 101.2 118.4 101.2 118.4 L 101.7 118.4 C 101.7 118.4 101.7 122.51 101.7 122.5 C 101.7 123.7 102.4 124.4 103.6 124.4 C 104.7 124.4 105.5 123.7 105.5 122.5 C 105.49 122.5 105.5 118.4 105.5 118.4 L 106 118.4 C 106 118.4 105.99 122.47 106 122.5 C 106 123.9 105.1 124.9 103.6 124.9 C 102.1 124.9 101.2 123.9 101.2 122.5 Z M 113 120.6 C 112.98 120.56 113 124.8 113 124.8 L 112.5 124.8 C 112.5 124.8 112.47 120.77 112.5 120.8 C 112.5 119.5 111.8 118.8 110.7 118.8 C 109.6 118.8 108.7 119.5 108.7 120.7 C 108.69 120.71 108.7 124.8 108.7 124.8 L 108.2 124.8 L 108.2 118.4 L 108.6 118.4 L 108.6 119.6 C 108.6 119.6 108.66 119.56 108.7 119.6 C 109 118.8 109.8 118.3 110.7 118.3 C 112.1 118.3 113 119.2 113 120.6 Z M 122.6 124.9 C 120.4 124.9 118.3 123.2 118.3 120.3 C 118.3 117.4 120.4 115.8 122.6 115.8 C 123.5 115.8 124.3 116 124.9 116.4 C 124.9 116.4 124.9 116.9 124.9 116.9 C 124.2 116.5 123.5 116.2 122.5 116.2 C 120.7 116.2 118.8 117.7 118.8 120.3 C 118.8 123 120.7 124.4 122.6 124.4 C 123.5 124.4 124.2 124.2 124.9 123.8 C 124.9 123.8 124.9 124.3 124.9 124.3 C 124.3 124.7 123.5 124.9 122.6 124.9 Z M 133.4 120.3 C 133.4 123.1 131.4 124.8 128.7 124.8 C 128.69 124.8 126.9 124.8 126.9 124.8 L 126.9 115.9 C 126.9 115.9 128.69 115.88 128.7 115.9 C 131.5 115.9 133.4 117.6 133.4 120.3 Z M 127.4 124.3 C 127.4 124.3 128.71 124.32 128.7 124.3 C 131.1 124.3 132.8 122.9 132.8 120.3 C 132.8 117.8 131.1 116.4 128.7 116.4 C 128.72 116.38 127.4 116.4 127.4 116.4 L 127.4 124.3 Z M 134.6 124.4 C 134.6 124.1 134.8 123.9 135.1 123.9 C 135.4 123.9 135.6 124.1 135.6 124.4 C 135.6 124.6 135.4 124.8 135.1 124.8 C 134.8 124.8 134.6 124.6 134.6 124.4 Z " stroke="none" fill="#000"/>
  </g>
  <g id="Polygon27136">
    <path d="M 0.7 107.2 C 0.7 105.2 2.1 103.9 3.6 103.9 C 4.6 103.9 5.6 104.5 6.1 105.6 C 6.07 105.58 6.1 100.9 6.1 100.9 L 6.6 100.9 L 6.6 110.4 L 6.2 110.4 L 6.1 108.8 C 6.1 108.8 6.1 108.79 6.1 108.8 C 5.6 110 4.6 110.5 3.6 110.5 C 2.1 110.5 0.7 109.2 0.7 107.2 Z M 6.1 107.2 C 6.1 105.5 5 104.4 3.6 104.4 C 2.3 104.4 1.2 105.5 1.2 107.2 C 1.2 108.9 2.3 110 3.6 110 C 5 110 6.1 108.9 6.1 107.2 Z M 14 107.4 C 14 107.4 8.9 107.4 8.9 107.4 C 9 109 10 110 11.5 110 C 12.2 110 13.1 109.8 13.7 109.1 C 13.7 109.1 13.7 109.7 13.7 109.7 C 13.1 110.2 12.3 110.5 11.4 110.5 C 9.7 110.5 8.4 109.2 8.4 107.2 C 8.4 105.2 9.8 103.9 11.4 103.9 C 12.8 103.9 14 105 14 107.1 C 14 107.2 14 107.3 14 107.4 Z M 13.5 106.9 C 13.5 105.2 12.4 104.4 11.4 104.4 C 10.2 104.4 9 105.4 8.9 106.9 C 8.9 106.9 13.5 106.9 13.5 106.9 Z M 22.4 102.2 L 20.1 103.3 L 20.1 102.7 L 22.8 101.5 L 23 101.5 L 23 110.4 L 22.4 110.4 L 22.4 102.2 Z M 30.1 103.8 C 30.1 102.8 29.4 101.8 28 101.8 C 27.1 101.8 26.3 102.3 25.8 102.9 C 25.8 102.9 25.8 102.3 25.8 102.3 C 26.3 101.7 27.1 101.4 28 101.4 C 29.7 101.4 30.6 102.5 30.6 103.8 C 30.6 105.3 29.5 106.6 26.5 109.9 C 26.47 109.9 30.8 109.9 30.8 109.9 L 30.8 110.4 C 30.8 110.4 25.39 110.4 25.4 110.4 C 29.5 105.9 30.1 105.1 30.1 103.8 Z M 40.3 110 C 40.8 110 41.5 109.9 42 109.5 C 42 109.5 42 110.1 42 110.1 C 41.5 110.4 40.9 110.5 40.3 110.5 C 38.6 110.5 37.2 109.1 37.2 107.2 C 37.2 105.3 38.5 103.9 40.3 103.9 C 40.9 103.9 41.5 104 42 104.4 C 42 104.4 42 104.9 42 104.9 C 41.4 104.5 40.9 104.4 40.3 104.4 C 38.9 104.4 37.7 105.5 37.7 107.2 C 37.7 108.9 38.9 110 40.3 110 Z M 51.5 106.1 C 51.51 106.08 51.5 110.4 51.5 110.4 L 51 110.4 C 51 110.4 51.01 106.13 51 106.1 C 51 105.1 50.5 104.4 49.5 104.4 C 48.5 104.4 47.9 105.2 47.9 106.1 C 47.9 106.14 47.9 110.4 47.9 110.4 L 47.4 110.4 C 47.4 110.4 47.39 106.13 47.4 106.1 C 47.4 105.1 46.9 104.4 45.9 104.4 C 44.9 104.4 44.3 105.2 44.3 106.2 C 44.28 106.16 44.3 110.4 44.3 110.4 L 43.8 110.4 L 43.8 104 L 44.2 104 L 44.2 105.1 C 44.2 105.1 44.25 105.08 44.2 105.1 C 44.5 104.4 45.2 103.9 46 103.9 C 46.9 103.9 47.5 104.4 47.7 105.2 C 48 104.4 48.7 103.9 49.6 103.9 C 50.9 103.9 51.5 104.8 51.5 106.1 Z M 58.9 104.5 L 58 104.5 L 58 104 L 58.9 104 C 58.9 104 58.9 102.8 58.9 102.8 C 58.9 101.5 59.7 100.8 60.8 100.8 C 61.1 100.8 61.5 100.9 61.8 101 C 61.8 101 61.8 101.5 61.8 101.5 C 61.5 101.4 61.1 101.3 60.8 101.3 C 60 101.3 59.4 101.8 59.4 102.9 C 59.41 102.89 59.4 104 59.4 104 L 61.3 104 L 61.3 104.5 L 59.4 104.5 L 59.4 110.4 L 58.9 110.4 L 58.9 104.5 Z M 62 107.2 C 62 105.2 63.4 103.9 64.9 103.9 C 65.9 103.9 66.9 104.5 67.4 105.6 C 67.38 105.62 67.5 104 67.5 104 L 67.8 104 L 67.8 110.4 L 67.5 110.4 C 67.5 110.4 67.38 108.8 67.4 108.8 C 66.9 110 65.9 110.5 64.9 110.5 C 63.4 110.5 62 109.2 62 107.2 Z M 67.4 107.2 C 67.4 105.5 66.3 104.4 64.9 104.4 C 63.6 104.4 62.5 105.5 62.5 107.2 C 62.5 108.9 63.6 110 64.9 110 C 66.2 110 67.4 108.9 67.4 107.2 Z M 70 101.7 C 70 101.5 70.2 101.3 70.4 101.3 C 70.7 101.3 70.8 101.5 70.8 101.7 C 70.8 101.9 70.7 102.1 70.4 102.1 C 70.2 102.1 70 101.9 70 101.7 Z M 70.2 104 L 70.7 104 L 70.7 110.4 L 70.2 110.4 L 70.2 104 Z M 73.7 104 L 75.6 104 L 75.6 104.5 L 73.7 104.5 C 73.7 104.5 73.67 108.4 73.7 108.4 C 73.7 109.6 74.3 110 75.2 110 C 75.4 110 75.6 110 75.7 110 C 75.7 110 75.7 110.4 75.7 110.4 C 75.7 110.4 75.4 110.5 75.1 110.5 C 74 110.5 73.2 109.8 73.2 108.4 C 73.17 108.42 73.2 104.5 73.2 104.5 L 72.2 104.5 L 72.2 104 L 73.2 104 L 73.2 102.5 L 73.7 102.5 L 73.7 104 Z M 81.5 107.2 C 81.5 105.2 82.9 103.9 84.4 103.9 C 85.5 103.9 86.5 104.5 86.9 105.6 C 86.92 105.58 86.9 100.9 86.9 100.9 L 87.4 100.9 L 87.4 110.4 L 87 110.4 L 87 108.8 C 87 108.8 86.94 108.79 86.9 108.8 C 86.5 110 85.5 110.5 84.4 110.5 C 82.9 110.5 81.5 109.2 81.5 107.2 Z M 86.9 107.2 C 86.9 105.5 85.8 104.4 84.5 104.4 C 83.2 104.4 82 105.5 82 107.2 C 82 108.9 83.2 110 84.5 110 C 85.8 110 86.9 108.9 86.9 107.2 Z M 89.9 101.9 C 89.89 101.93 89.9 101.5 89.9 101.5 L 90.4 101.5 C 90.4 101.5 90.39 101.92 90.4 101.9 C 90.4 102.9 90 103.9 89.8 104.5 C 89.8 104.5 89.4 104.5 89.4 104.5 C 89.6 103.9 89.9 102.9 89.9 101.9 Z M 91.5 107.2 C 91.5 105.2 92.9 103.9 94.4 103.9 C 95.4 103.9 96.4 104.5 96.9 105.6 C 96.89 105.62 97 104 97 104 L 97.4 104 L 97.4 110.4 L 97 110.4 C 97 110.4 96.89 108.8 96.9 108.8 C 96.4 110 95.4 110.5 94.4 110.5 C 92.9 110.5 91.5 109.2 91.5 107.2 Z M 96.9 107.2 C 96.9 105.5 95.8 104.4 94.4 104.4 C 93.1 104.4 92 105.5 92 107.2 C 92 108.9 93.1 110 94.4 110 C 95.7 110 96.9 108.9 96.9 107.2 Z M 99.5 101.7 C 99.5 101.5 99.7 101.3 99.9 101.3 C 100.2 101.3 100.3 101.5 100.3 101.7 C 100.3 101.9 100.2 102.1 99.9 102.1 C 99.7 102.1 99.5 101.9 99.5 101.7 Z M 99.7 104 L 100.2 104 L 100.2 110.4 L 99.7 110.4 L 99.7 104 Z M 102.5 100.9 L 103 100.9 L 103 110.4 L 102.5 110.4 L 102.5 100.9 Z M 105.4 100.9 L 105.9 100.9 L 105.9 110.4 L 105.4 110.4 L 105.4 100.9 Z M 113.3 107.4 C 113.3 107.4 108.3 107.4 108.3 107.4 C 108.3 109 109.4 110 110.8 110 C 111.6 110 112.4 109.8 113.1 109.1 C 113.1 109.1 113.1 109.7 113.1 109.7 C 112.4 110.2 111.6 110.5 110.8 110.5 C 109 110.5 107.8 109.2 107.8 107.2 C 107.8 105.2 109.2 103.9 110.7 103.9 C 112.1 103.9 113.3 105 113.3 107.1 C 113.3 107.2 113.3 107.3 113.3 107.4 Z M 112.8 106.9 C 112.8 105.2 111.8 104.4 110.7 104.4 C 109.5 104.4 108.4 105.4 108.3 106.9 C 108.3 106.9 112.8 106.9 112.8 106.9 Z M 115.1 108.1 C 115.06 108.08 115.1 104 115.1 104 L 115.6 104 C 115.6 104 115.56 108.11 115.6 108.1 C 115.6 109.3 116.3 110 117.4 110 C 118.6 110 119.4 109.3 119.4 108.1 C 119.35 108.1 119.4 104 119.4 104 L 119.9 104 C 119.9 104 119.85 108.07 119.9 108.1 C 119.9 109.5 118.9 110.5 117.4 110.5 C 116 110.5 115.1 109.5 115.1 108.1 Z M 122.1 104 L 122.5 104 L 122.5 105.2 C 122.5 105.2 122.52 105.22 122.5 105.2 C 122.9 104.3 123.8 104 124.4 104 C 124.5 104 124.7 104 124.8 104 C 124.8 104 124.8 104.5 124.8 104.5 C 124.7 104.5 124.5 104.5 124.4 104.5 C 123.5 104.5 122.6 105.1 122.6 106.4 C 122.55 106.37 122.6 110.4 122.6 110.4 L 122.1 110.4 L 122.1 104 Z M 129.6 104.5 C 129.6 104.5 129.6 105 129.6 105 C 129.1 104.7 128.5 104.4 127.8 104.4 C 126.8 104.4 126.2 104.9 126.2 105.6 C 126.2 106.3 126.9 106.6 127.9 106.9 C 128.9 107.3 129.9 107.6 129.9 108.7 C 129.9 109.8 129 110.5 127.8 110.5 C 127 110.5 126.2 110.3 125.6 109.8 C 125.6 109.8 125.6 109.1 125.6 109.1 C 126.2 109.7 126.9 110 127.8 110 C 128.8 110 129.4 109.5 129.4 108.7 C 129.4 108 128.7 107.7 127.7 107.3 C 126.6 107 125.7 106.7 125.7 105.6 C 125.7 104.6 126.5 103.9 127.8 103.9 C 128.5 103.9 129.1 104.1 129.6 104.5 Z M 136.6 104 L 137 104 L 137.1 105.2 C 137.1 105.2 137.08 105.22 137.1 105.2 C 137.5 104.3 138.3 104 139 104 C 139.1 104 139.2 104 139.4 104 C 139.4 104 139.4 104.5 139.4 104.5 C 139.2 104.5 139.1 104.5 139 104.5 C 138.1 104.5 137.1 105.1 137.1 106.4 C 137.12 106.37 137.1 110.4 137.1 110.4 L 136.6 110.4 L 136.6 104 Z M 142.7 102.9 L 142.2 102.9 L 143.6 101 L 144.2 101 L 142.7 102.9 Z M 145.5 107.4 C 145.5 107.4 140.4 107.4 140.4 107.4 C 140.5 109 141.5 110 143 110 C 143.8 110 144.6 109.8 145.3 109.1 C 145.3 109.1 145.3 109.7 145.3 109.7 C 144.6 110.2 143.8 110.5 143 110.5 C 141.2 110.5 139.9 109.2 139.9 107.2 C 139.9 105.2 141.3 103.9 142.9 103.9 C 144.3 103.9 145.5 105 145.5 107.1 C 145.5 107.2 145.5 107.3 145.5 107.4 Z M 145 106.9 C 145 105.2 144 104.4 142.9 104.4 C 141.7 104.4 140.6 105.4 140.4 106.9 C 140.4 106.9 145 106.9 145 106.9 Z M 147.5 104.5 L 146.5 104.5 L 146.5 104 L 147.5 104 C 147.5 104 147.49 102.8 147.5 102.8 C 147.5 101.5 148.3 100.8 149.4 100.8 C 149.7 100.8 150.1 100.9 150.3 101 C 150.3 101 150.3 101.5 150.3 101.5 C 150.1 101.4 149.7 101.3 149.4 101.3 C 148.6 101.3 148 101.8 148 102.9 C 148 102.89 148 104 148 104 L 149.9 104 L 149.9 104.5 L 148 104.5 L 148 110.4 L 147.5 110.4 L 147.5 104.5 Z M 153.3 102.9 L 152.8 102.9 L 154.3 101 L 154.8 101 L 153.3 102.9 Z M 156.1 107.4 C 156.1 107.4 151.1 107.4 151.1 107.4 C 151.2 109 152.2 110 153.6 110 C 154.4 110 155.2 109.8 155.9 109.1 C 155.9 109.1 155.9 109.7 155.9 109.7 C 155.2 110.2 154.4 110.5 153.6 110.5 C 151.8 110.5 150.6 109.2 150.6 107.2 C 150.6 105.2 152 103.9 153.5 103.9 C 154.9 103.9 156.2 105 156.2 107.1 C 156.2 107.2 156.1 107.3 156.1 107.4 Z M 155.6 106.9 C 155.6 105.2 154.6 104.4 153.5 104.4 C 152.3 104.4 151.2 105.4 151.1 106.9 C 151.1 106.9 155.6 106.9 155.6 106.9 Z M 157.8 106.5 L 160.6 106.5 L 160.6 107 L 157.8 107 L 157.8 106.5 Z " stroke="none" fill="#000"/>
  </g>
  <g id="Polygon27135">
    <path d="M 1.8 89.6 L 3.7 89.6 L 3.7 90.1 L 1.8 90.1 C 1.8 90.1 1.82 94 1.8 94 C 1.8 95.2 2.5 95.6 3.4 95.6 C 3.5 95.6 3.7 95.6 3.9 95.6 C 3.9 95.6 3.9 96 3.9 96 C 3.8 96 3.6 96.1 3.3 96.1 C 2.1 96.1 1.3 95.4 1.3 94 C 1.32 94.02 1.3 90.1 1.3 90.1 L 0.3 90.1 L 0.3 89.6 L 1.3 89.6 L 1.3 88.1 L 1.8 88.1 L 1.8 89.6 Z M 4.7 92.8 C 4.7 90.9 6.1 89.5 7.8 89.5 C 9.4 89.5 10.8 90.9 10.8 92.8 C 10.8 94.8 9.4 96.1 7.8 96.1 C 6.1 96.1 4.7 94.8 4.7 92.8 Z M 10.3 92.8 C 10.3 91 9.1 90 7.8 90 C 6.5 90 5.2 91 5.2 92.8 C 5.2 94.6 6.5 95.6 7.8 95.6 C 9.1 95.6 10.3 94.6 10.3 92.8 Z M 12.5 93.7 C 12.54 93.68 12.5 89.6 12.5 89.6 L 13 89.6 C 13 89.6 13.04 93.71 13 93.7 C 13 94.9 13.8 95.6 14.9 95.6 C 16.1 95.6 16.8 94.9 16.8 93.7 C 16.84 93.7 16.8 89.6 16.8 89.6 L 17.3 89.6 C 17.3 89.6 17.34 93.67 17.3 93.7 C 17.3 95.1 16.4 96.1 14.9 96.1 C 13.5 96.1 12.5 95.1 12.5 93.7 Z M 20.2 89.6 L 22.1 89.6 L 22.1 90.1 L 20.2 90.1 C 20.2 90.1 20.22 94 20.2 94 C 20.2 95.2 20.9 95.6 21.8 95.6 C 21.9 95.6 22.1 95.6 22.3 95.6 C 22.3 95.6 22.3 96 22.3 96 C 22.2 96 22 96.1 21.7 96.1 C 20.5 96.1 19.7 95.4 19.7 94 C 19.72 94.02 19.7 90.1 19.7 90.1 L 18.7 90.1 L 18.7 89.6 L 19.7 89.6 L 19.7 88.1 L 20.2 88.1 L 20.2 89.6 Z M 32.9 93 C 32.9 93 27.9 93 27.9 93 C 27.9 94.6 29 95.6 30.4 95.6 C 31.2 95.6 32 95.4 32.7 94.7 C 32.7 94.7 32.7 95.3 32.7 95.3 C 32 95.8 31.2 96.1 30.4 96.1 C 28.6 96.1 27.4 94.8 27.4 92.8 C 27.4 90.8 28.8 89.5 30.3 89.5 C 31.7 89.5 32.9 90.6 32.9 92.7 C 32.9 92.8 32.9 92.9 32.9 93 Z M 32.4 92.5 C 32.4 90.8 31.4 90 30.3 90 C 29.1 90 28 91 27.9 92.5 C 27.9 92.5 32.4 92.5 32.4 92.5 Z M 38.3 90.1 C 38.3 90.1 38.3 90.6 38.3 90.6 C 37.8 90.3 37.2 90 36.5 90 C 35.5 90 34.9 90.5 34.9 91.2 C 34.9 91.9 35.6 92.2 36.6 92.5 C 37.6 92.9 38.6 93.2 38.6 94.3 C 38.6 95.4 37.7 96.1 36.4 96.1 C 35.7 96.1 34.9 95.9 34.3 95.4 C 34.3 95.4 34.3 94.7 34.3 94.7 C 34.8 95.3 35.6 95.6 36.4 95.6 C 37.4 95.6 38.1 95.1 38.1 94.3 C 38.1 93.6 37.4 93.3 36.3 92.9 C 35.3 92.6 34.4 92.3 34.4 91.2 C 34.4 90.2 35.2 89.5 36.5 89.5 C 37.1 89.5 37.8 89.7 38.3 90.1 Z M 41 89.6 L 42.9 89.6 L 42.9 90.1 L 41 90.1 C 41 90.1 41.03 94 41 94 C 41 95.2 41.7 95.6 42.6 95.6 C 42.7 95.6 42.9 95.6 43.1 95.6 C 43.1 95.6 43.1 96 43.1 96 C 43 96 42.8 96.1 42.5 96.1 C 41.4 96.1 40.5 95.4 40.5 94 C 40.53 94.02 40.5 90.1 40.5 90.1 L 39.5 90.1 L 39.5 89.6 L 40.5 89.6 L 40.5 88.1 L 41 88.1 L 41 89.6 Z M 48.6 86.5 L 49.1 86.5 L 49.1 96 L 48.6 96 L 48.6 86.5 Z M 51.4 87.3 C 51.4 87.1 51.5 86.9 51.7 86.9 C 52 86.9 52.2 87.1 52.2 87.3 C 52.2 87.5 52 87.7 51.7 87.7 C 51.5 87.7 51.4 87.5 51.4 87.3 Z M 51.5 89.6 L 52 89.6 L 52 96 L 51.5 96 L 51.5 89.6 Z M 62 91.7 C 62.04 91.68 62 96 62 96 L 61.5 96 C 61.5 96 61.54 91.73 61.5 91.7 C 61.5 90.7 61 90 60.1 90 C 59 90 58.4 90.8 58.4 91.7 C 58.43 91.74 58.4 96 58.4 96 L 57.9 96 C 57.9 96 57.93 91.73 57.9 91.7 C 57.9 90.7 57.4 90 56.4 90 C 55.4 90 54.8 90.8 54.8 91.8 C 54.82 91.76 54.8 96 54.8 96 L 54.3 96 L 54.3 89.6 L 54.7 89.6 L 54.8 90.7 C 54.8 90.7 54.78 90.68 54.8 90.7 C 55.1 90 55.7 89.5 56.5 89.5 C 57.4 89.5 58 90 58.3 90.8 C 58.6 90 59.2 89.5 60.1 89.5 C 61.4 89.5 62 90.4 62 91.7 Z M 64.1 87.3 C 64.1 87.1 64.3 86.9 64.5 86.9 C 64.8 86.9 64.9 87.1 64.9 87.3 C 64.9 87.5 64.8 87.7 64.5 87.7 C 64.3 87.7 64.1 87.5 64.1 87.3 Z M 64.3 89.6 L 64.8 89.6 L 64.8 96 L 64.3 96 L 64.3 89.6 Z M 67.8 89.6 L 69.7 89.6 L 69.7 90.1 L 67.8 90.1 C 67.8 90.1 67.79 94 67.8 94 C 67.8 95.2 68.4 95.6 69.3 95.6 C 69.5 95.6 69.7 95.6 69.9 95.6 C 69.9 95.6 69.9 96 69.9 96 C 69.8 96 69.5 96.1 69.3 96.1 C 68.1 96.1 67.3 95.4 67.3 94 C 67.29 94.02 67.3 90.1 67.3 90.1 L 66.3 90.1 L 66.3 89.6 L 67.3 89.6 L 67.3 88.1 L 67.8 88.1 L 67.8 89.6 Z M 73.4 88.5 L 72.9 88.5 L 74.4 86.6 L 75 86.6 L 73.4 88.5 Z M 76.3 93 C 76.3 93 71.2 93 71.2 93 C 71.3 94.6 72.3 95.6 73.8 95.6 C 74.5 95.6 75.3 95.4 76 94.7 C 76 94.7 76 95.3 76 95.3 C 75.4 95.8 74.6 96.1 73.7 96.1 C 71.9 96.1 70.7 94.8 70.7 92.8 C 70.7 90.8 72.1 89.5 73.6 89.5 C 75.1 89.5 76.3 90.6 76.3 92.7 C 76.3 92.8 76.3 92.9 76.3 93 Z M 75.8 92.5 C 75.7 90.8 74.7 90 73.6 90 C 72.4 90 71.3 91 71.2 92.5 C 71.2 92.5 75.8 92.5 75.8 92.5 Z M 77.8 95.6 C 77.8 95.3 78 95.1 78.3 95.1 C 78.6 95.1 78.8 95.3 78.8 95.6 C 78.8 95.8 78.6 96 78.3 96 C 78 96 77.8 95.8 77.8 95.6 Z M 85.3 87.1 L 85.8 87.1 L 85.8 95.5 L 89.9 95.5 L 89.9 96 L 85.3 96 L 85.3 87.1 Z M 96.1 93 C 96.1 93 91 93 91 93 C 91.1 94.6 92.2 95.6 93.6 95.6 C 94.4 95.6 95.2 95.4 95.9 94.7 C 95.9 94.7 95.9 95.3 95.9 95.3 C 95.2 95.8 94.4 96.1 93.6 96.1 C 91.8 96.1 90.5 94.8 90.5 92.8 C 90.5 90.8 92 89.5 93.5 89.5 C 94.9 89.5 96.1 90.6 96.1 92.7 C 96.1 92.8 96.1 92.9 96.1 93 Z M 95.6 92.5 C 95.6 90.8 94.6 90 93.5 90 C 92.3 90 91.2 91 91.1 92.5 C 91.1 92.5 95.6 92.5 95.6 92.5 Z M 97.8 93.7 C 97.84 93.68 97.8 89.6 97.8 89.6 L 98.3 89.6 C 98.3 89.6 98.34 93.71 98.3 93.7 C 98.3 94.9 99.1 95.6 100.2 95.6 C 101.4 95.6 102.1 94.9 102.1 93.7 C 102.14 93.7 102.1 89.6 102.1 89.6 L 102.6 89.6 C 102.6 89.6 102.64 93.67 102.6 93.7 C 102.6 95.1 101.7 96.1 100.2 96.1 C 98.8 96.1 97.8 95.1 97.8 93.7 Z M 104.8 89.6 L 105.2 89.6 L 105.3 90.8 C 105.3 90.8 105.3 90.82 105.3 90.8 C 105.7 89.9 106.5 89.6 107.2 89.6 C 107.3 89.6 107.5 89.6 107.6 89.6 C 107.6 89.6 107.6 90.1 107.6 90.1 C 107.5 90.1 107.3 90.1 107.2 90.1 C 106.3 90.1 105.4 90.7 105.3 92 C 105.34 91.97 105.3 96 105.3 96 L 104.8 96 L 104.8 89.6 Z M 112.4 92.8 C 112.4 90.8 113.8 89.5 115.3 89.5 C 116.3 89.5 117.3 90.1 117.8 91.2 C 117.75 91.18 117.8 86.5 117.8 86.5 L 118.3 86.5 L 118.3 96 L 117.9 96 L 117.8 94.4 C 117.8 94.4 117.78 94.39 117.8 94.4 C 117.3 95.6 116.3 96.1 115.3 96.1 C 113.8 96.1 112.4 94.8 112.4 92.8 Z M 117.8 92.8 C 117.8 91.1 116.6 90 115.3 90 C 114 90 112.9 91.1 112.9 92.8 C 112.9 94.5 114 95.6 115.3 95.6 C 116.6 95.6 117.8 94.5 117.8 92.8 Z M 120.4 87.3 C 120.4 87.1 120.6 86.9 120.8 86.9 C 121.1 86.9 121.2 87.1 121.2 87.3 C 121.2 87.5 121.1 87.7 120.8 87.7 C 120.6 87.7 120.4 87.5 120.4 87.3 Z M 120.6 89.6 L 121.1 89.6 L 121.1 96 L 120.6 96 L 120.6 89.6 Z M 122.9 92.8 C 122.9 90.8 124.3 89.5 125.8 89.5 C 126.9 89.5 127.9 90.1 128.3 91.2 C 128.35 91.22 128.4 89.6 128.4 89.6 L 128.8 89.6 L 128.8 96 L 128.4 96 C 128.4 96 128.35 94.4 128.3 94.4 C 127.9 95.6 126.9 96.1 125.9 96.1 C 124.3 96.1 122.9 94.8 122.9 92.8 Z M 128.3 92.8 C 128.3 91.1 127.2 90 125.9 90 C 124.6 90 123.4 91.1 123.4 92.8 C 123.4 94.5 124.6 95.6 125.9 95.6 C 127.2 95.6 128.3 94.5 128.3 92.8 Z M 138.8 91.7 C 138.82 91.68 138.8 96 138.8 96 L 138.3 96 C 138.3 96 138.32 91.73 138.3 91.7 C 138.3 90.7 137.8 90 136.8 90 C 135.8 90 135.2 90.8 135.2 91.7 C 135.21 91.74 135.2 96 135.2 96 L 134.7 96 C 134.7 96 134.71 91.73 134.7 91.7 C 134.7 90.7 134.2 90 133.2 90 C 132.2 90 131.6 90.8 131.6 91.8 C 131.6 91.76 131.6 96 131.6 96 L 131.1 96 L 131.1 89.6 L 131.5 89.6 L 131.6 90.7 C 131.6 90.7 131.56 90.68 131.6 90.7 C 131.8 90 132.5 89.5 133.3 89.5 C 134.2 89.5 134.8 90 135.1 90.8 C 135.3 90 136 89.5 136.9 89.5 C 138.2 89.5 138.8 90.4 138.8 91.7 Z M 143.7 88.5 L 142.2 86.6 L 142.8 86.6 L 144.2 88.5 L 143.7 88.5 Z M 146.1 93 C 146.1 93 141.1 93 141.1 93 C 141.2 94.6 142.2 95.6 143.6 95.6 C 144.4 95.6 145.2 95.4 145.9 94.7 C 145.9 94.7 145.9 95.3 145.9 95.3 C 145.2 95.8 144.5 96.1 143.6 96.1 C 141.8 96.1 140.6 94.8 140.6 92.8 C 140.6 90.8 142 89.5 143.5 89.5 C 145 89.5 146.2 90.6 146.2 92.7 C 146.2 92.8 146.2 92.9 146.1 93 Z M 145.7 92.5 C 145.6 90.8 144.6 90 143.5 90 C 142.3 90 141.2 91 141.1 92.5 C 141.1 92.5 145.7 92.5 145.7 92.5 Z M 148.6 89.6 L 150.5 89.6 L 150.5 90.1 L 148.6 90.1 C 148.6 90.1 148.59 94 148.6 94 C 148.6 95.2 149.2 95.6 150.1 95.6 C 150.3 95.6 150.5 95.6 150.7 95.6 C 150.7 95.6 150.7 96 150.7 96 C 150.6 96 150.3 96.1 150.1 96.1 C 148.9 96.1 148.1 95.4 148.1 94 C 148.09 94.02 148.1 90.1 148.1 90.1 L 147.1 90.1 L 147.1 89.6 L 148.1 89.6 L 148.1 88.1 L 148.6 88.1 L 148.6 89.6 Z M 152 89.6 L 152.4 89.6 L 152.5 90.8 C 152.5 90.8 152.49 90.82 152.5 90.8 C 152.9 89.9 153.7 89.6 154.4 89.6 C 154.5 89.6 154.7 89.6 154.8 89.6 C 154.8 89.6 154.8 90.1 154.8 90.1 C 154.7 90.1 154.5 90.1 154.4 90.1 C 153.5 90.1 152.5 90.7 152.5 92 C 152.53 91.97 152.5 96 152.5 96 L 152 96 L 152 89.6 Z M 160.9 93 C 160.9 93 155.8 93 155.8 93 C 155.9 94.6 157 95.6 158.4 95.6 C 159.2 95.6 160 95.4 160.7 94.7 C 160.7 94.7 160.7 95.3 160.7 95.3 C 160 95.8 159.2 96.1 158.4 96.1 C 156.6 96.1 155.3 94.8 155.3 92.8 C 155.3 90.8 156.8 89.5 158.3 89.5 C 159.7 89.5 160.9 90.6 160.9 92.7 C 160.9 92.8 160.9 92.9 160.9 93 Z M 160.4 92.5 C 160.4 90.8 159.4 90 158.3 90 C 157.1 90 156 91 155.9 92.5 C 155.9 92.5 160.4 92.5 160.4 92.5 Z " stroke="none" fill="#000"/>
  </g>
  <g id="Polygon27134">
    <path d="M 1.1 75.2 L 1.5 75.2 C 1.5 75.2 1.61 76.84 1.6 76.8 C 2.1 75.7 3.1 75.1 4.1 75.1 C 5.6 75.1 7 76.4 7 78.4 C 7 80.4 5.6 81.7 4.1 81.7 C 3.1 81.7 2.1 81.1 1.6 80.1 C 1.64 80.05 1.6 84.2 1.6 84.2 L 1.1 84.2 L 1.1 75.2 Z M 6.5 78.4 C 6.5 76.7 5.4 75.6 4.1 75.6 C 2.7 75.6 1.6 76.7 1.6 78.4 C 1.6 80.1 2.8 81.2 4.1 81.2 C 5.4 81.2 6.5 80.1 6.5 78.4 Z M 8.4 78.4 C 8.4 76.4 9.8 75.1 11.3 75.1 C 12.3 75.1 13.3 75.7 13.8 76.8 C 13.81 76.82 13.9 75.2 13.9 75.2 L 14.3 75.2 L 14.3 81.6 L 13.9 81.6 C 13.9 81.6 13.81 80 13.8 80 C 13.3 81.2 12.3 81.7 11.3 81.7 C 9.8 81.7 8.4 80.4 8.4 78.4 Z M 13.8 78.4 C 13.8 76.7 12.7 75.6 11.4 75.6 C 10 75.6 8.9 76.7 8.9 78.4 C 8.9 80.1 10 81.2 11.4 81.2 C 12.7 81.2 13.8 80.1 13.8 78.4 Z M 19.2 81.2 C 19.7 81.2 20.4 81.1 20.9 80.7 C 20.9 80.7 20.9 81.3 20.9 81.3 C 20.4 81.6 19.8 81.7 19.2 81.7 C 17.5 81.7 16.1 80.3 16.1 78.4 C 16.1 76.5 17.4 75.1 19.2 75.1 C 19.8 75.1 20.4 75.2 20.9 75.6 C 20.9 75.6 20.9 76.1 20.9 76.1 C 20.3 75.7 19.8 75.6 19.2 75.6 C 17.8 75.6 16.6 76.7 16.6 78.4 C 16.6 80.1 17.8 81.2 19.2 81.2 Z M 23.4 75.2 L 25.3 75.2 L 25.3 75.7 L 23.4 75.7 C 23.4 75.7 23.36 79.6 23.4 79.6 C 23.4 80.8 24 81.2 24.9 81.2 C 25.1 81.2 25.2 81.2 25.4 81.2 C 25.4 81.2 25.4 81.6 25.4 81.6 C 25.4 81.6 25.1 81.7 24.8 81.7 C 23.7 81.7 22.9 81 22.9 79.6 C 22.86 79.62 22.9 75.7 22.9 75.7 L 21.9 75.7 L 21.9 75.2 L 22.9 75.2 L 22.9 73.7 L 23.4 73.7 L 23.4 75.2 Z M 31.8 78.6 C 31.8 78.6 26.8 78.6 26.8 78.6 C 26.9 80.2 27.9 81.2 29.3 81.2 C 30.1 81.2 30.9 81 31.6 80.3 C 31.6 80.3 31.6 80.9 31.6 80.9 C 30.9 81.4 30.1 81.7 29.3 81.7 C 27.5 81.7 26.3 80.4 26.3 78.4 C 26.3 76.4 27.7 75.1 29.2 75.1 C 30.6 75.1 31.8 76.2 31.8 78.3 C 31.8 78.4 31.8 78.5 31.8 78.6 Z M 31.3 78.1 C 31.3 76.4 30.3 75.6 29.2 75.6 C 28 75.6 26.9 76.6 26.8 78.1 C 26.8 78.1 31.3 78.1 31.3 78.1 Z M 37.2 75.7 C 37.2 75.7 37.2 76.2 37.2 76.2 C 36.7 75.9 36.1 75.6 35.4 75.6 C 34.4 75.6 33.8 76.1 33.8 76.8 C 33.8 77.5 34.5 77.8 35.5 78.1 C 36.5 78.5 37.5 78.8 37.5 79.9 C 37.5 81 36.6 81.7 35.4 81.7 C 34.6 81.7 33.8 81.5 33.2 81 C 33.2 81 33.2 80.3 33.2 80.3 C 33.8 80.9 34.5 81.2 35.4 81.2 C 36.4 81.2 37 80.7 37 79.9 C 37 79.2 36.3 78.9 35.3 78.5 C 34.2 78.2 33.3 77.9 33.3 76.8 C 33.3 75.8 34.2 75.1 35.4 75.1 C 36.1 75.1 36.7 75.3 37.2 75.7 Z M 39.2 80.6 C 39.18 80.64 39.2 80.2 39.2 80.2 L 39.7 80.2 C 39.7 80.2 39.68 80.63 39.7 80.6 C 39.7 81.6 39.3 82.6 39 83.2 C 39 83.2 38.6 83.2 38.6 83.2 C 38.9 82.6 39.2 81.6 39.2 80.6 Z M 50.7 72.1 L 51.2 72.1 L 51.2 81.6 L 50.7 81.6 L 50.7 72.1 Z M 53.7 73.1 C 53.7 73.13 53.7 72.7 53.7 72.7 L 54.2 72.7 C 54.2 72.7 54.21 73.12 54.2 73.1 C 54.2 74.1 53.8 75.1 53.6 75.7 C 53.6 75.7 53.2 75.7 53.2 75.7 C 53.4 75.1 53.7 74.1 53.7 73.1 Z M 60.9 78.6 C 60.9 78.6 55.8 78.6 55.8 78.6 C 55.9 80.2 56.9 81.2 58.4 81.2 C 59.1 81.2 59.9 81 60.6 80.3 C 60.6 80.3 60.6 80.9 60.6 80.9 C 60 81.4 59.2 81.7 58.3 81.7 C 56.5 81.7 55.3 80.4 55.3 78.4 C 55.3 76.4 56.7 75.1 58.3 75.1 C 59.7 75.1 60.9 76.2 60.9 78.3 C 60.9 78.4 60.9 78.5 60.9 78.6 Z M 60.4 78.1 C 60.4 76.4 59.3 75.6 58.3 75.6 C 57 75.6 55.9 76.6 55.8 78.1 C 55.8 78.1 60.4 78.1 60.4 78.1 Z M 67.5 77.4 C 67.47 77.36 67.5 81.6 67.5 81.6 L 67 81.6 C 67 81.6 66.96 77.57 67 77.6 C 67 76.3 66.3 75.6 65.2 75.6 C 64.1 75.6 63.2 76.3 63.2 77.5 C 63.18 77.51 63.2 81.6 63.2 81.6 L 62.7 81.6 L 62.7 75.2 L 63.1 75.2 L 63.1 76.4 C 63.1 76.4 63.15 76.36 63.1 76.4 C 63.5 75.6 64.3 75.1 65.2 75.1 C 66.6 75.1 67.5 76 67.5 77.4 Z M 72.3 81.2 C 72.8 81.2 73.5 81.1 74 80.7 C 74 80.7 74 81.3 74 81.3 C 73.5 81.6 72.9 81.7 72.3 81.7 C 70.6 81.7 69.2 80.3 69.2 78.4 C 69.2 76.5 70.6 75.1 72.3 75.1 C 72.9 75.1 73.5 75.2 74 75.6 C 74 75.6 74 76.1 74 76.1 C 73.4 75.7 72.9 75.6 72.3 75.6 C 70.9 75.6 69.7 76.7 69.7 78.4 C 69.7 80.1 70.9 81.2 72.3 81.2 Z M 75.2 78.4 C 75.2 76.5 76.5 75.1 78.2 75.1 C 79.9 75.1 81.3 76.5 81.3 78.4 C 81.3 80.4 79.9 81.7 78.2 81.7 C 76.6 81.7 75.2 80.4 75.2 78.4 Z M 80.8 78.4 C 80.8 76.6 79.5 75.6 78.2 75.6 C 76.9 75.6 75.7 76.6 75.7 78.4 C 75.7 80.2 76.9 81.2 78.2 81.2 C 79.5 81.2 80.8 80.2 80.8 78.4 Z M 90.8 77.3 C 90.81 77.28 90.8 81.6 90.8 81.6 L 90.3 81.6 C 90.3 81.6 90.3 77.33 90.3 77.3 C 90.3 76.3 89.8 75.6 88.8 75.6 C 87.8 75.6 87.2 76.4 87.2 77.3 C 87.19 77.34 87.2 81.6 87.2 81.6 L 86.7 81.6 C 86.7 81.6 86.69 77.33 86.7 77.3 C 86.7 76.3 86.2 75.6 85.2 75.6 C 84.2 75.6 83.6 76.4 83.6 77.4 C 83.58 77.36 83.6 81.6 83.6 81.6 L 83.1 81.6 L 83.1 75.2 L 83.5 75.2 L 83.5 76.3 C 83.5 76.3 83.55 76.28 83.5 76.3 C 83.8 75.6 84.5 75.1 85.3 75.1 C 86.2 75.1 86.8 75.6 87 76.4 C 87.3 75.6 88 75.1 88.9 75.1 C 90.2 75.1 90.8 76 90.8 77.3 Z M 93.5 76.8 C 94 75.7 95 75.1 96 75.1 C 97.5 75.1 98.9 76.4 98.9 78.4 C 98.9 80.4 97.5 81.7 96 81.7 C 95 81.7 94 81.2 93.5 80 C 93.48 79.99 93.4 81.6 93.4 81.6 L 93 81.6 L 93 72.1 L 93.5 72.1 C 93.5 72.1 93.52 76.79 93.5 76.8 Z M 93.5 78.4 C 93.5 80.1 94.6 81.2 95.9 81.2 C 97.3 81.2 98.4 80.1 98.4 78.4 C 98.4 76.7 97.3 75.6 96 75.6 C 94.6 75.6 93.5 76.7 93.5 78.4 Z M 100.7 75.2 L 101.1 75.2 L 101.2 76.4 C 101.2 76.4 101.2 76.42 101.2 76.4 C 101.6 75.5 102.4 75.2 103.1 75.2 C 103.2 75.2 103.4 75.2 103.5 75.2 C 103.5 75.2 103.5 75.7 103.5 75.7 C 103.4 75.7 103.2 75.7 103.1 75.7 C 102.2 75.7 101.2 76.3 101.2 77.6 C 101.23 77.57 101.2 81.6 101.2 81.6 L 100.7 81.6 L 100.7 75.2 Z M 109.6 78.6 C 109.6 78.6 104.5 78.6 104.5 78.6 C 104.6 80.2 105.7 81.2 107.1 81.2 C 107.9 81.2 108.7 81 109.4 80.3 C 109.4 80.3 109.4 80.9 109.4 80.9 C 108.7 81.4 107.9 81.7 107.1 81.7 C 105.3 81.7 104 80.4 104 78.4 C 104 76.4 105.5 75.1 107 75.1 C 108.4 75.1 109.6 76.2 109.6 78.3 C 109.6 78.4 109.6 78.5 109.6 78.6 Z M 109.1 78.1 C 109.1 76.4 108.1 75.6 107 75.6 C 105.8 75.6 104.7 76.6 104.6 78.1 C 104.6 78.1 109.1 78.1 109.1 78.1 Z M 119.2 77.3 C 119.15 77.28 119.2 81.6 119.2 81.6 L 118.6 81.6 C 118.6 81.6 118.65 77.33 118.6 77.3 C 118.6 76.3 118.2 75.6 117.2 75.6 C 116.2 75.6 115.5 76.4 115.5 77.3 C 115.54 77.34 115.5 81.6 115.5 81.6 L 115 81.6 C 115 81.6 115.04 77.33 115 77.3 C 115 76.3 114.5 75.6 113.5 75.6 C 112.5 75.6 111.9 76.4 111.9 77.4 C 111.93 77.36 111.9 81.6 111.9 81.6 L 111.4 81.6 L 111.4 75.2 L 111.8 75.2 L 111.9 76.3 C 111.9 76.3 111.89 76.28 111.9 76.3 C 112.2 75.6 112.8 75.1 113.6 75.1 C 114.6 75.1 115.1 75.6 115.4 76.4 C 115.7 75.6 116.3 75.1 117.2 75.1 C 118.5 75.1 119.2 76 119.2 77.3 Z M 126.5 78.6 C 126.5 78.6 121.4 78.6 121.4 78.6 C 121.5 80.2 122.5 81.2 124 81.2 C 124.7 81.2 125.6 81 126.2 80.3 C 126.2 80.3 126.2 80.9 126.2 80.9 C 125.6 81.4 124.8 81.7 124 81.7 C 122.2 81.7 120.9 80.4 120.9 78.4 C 120.9 76.4 122.3 75.1 123.9 75.1 C 125.3 75.1 126.5 76.2 126.5 78.3 C 126.5 78.4 126.5 78.5 126.5 78.6 Z M 126 78.1 C 126 76.4 124.9 75.6 123.9 75.6 C 122.7 75.6 121.5 76.6 121.4 78.1 C 121.4 78.1 126 78.1 126 78.1 Z M 133.1 77.4 C 133.08 77.36 133.1 81.6 133.1 81.6 L 132.6 81.6 C 132.6 81.6 132.58 77.57 132.6 77.6 C 132.6 76.3 131.9 75.6 130.8 75.6 C 129.7 75.6 128.8 76.3 128.8 77.5 C 128.8 77.51 128.8 81.6 128.8 81.6 L 128.3 81.6 L 128.3 75.2 L 128.7 75.2 L 128.8 76.4 C 128.8 76.4 128.76 76.36 128.8 76.4 C 129.1 75.6 129.9 75.1 130.8 75.1 C 132.2 75.1 133.1 76 133.1 77.4 Z M 135.9 75.2 L 137.8 75.2 L 137.8 75.7 L 135.9 75.7 C 135.9 75.7 135.9 79.6 135.9 79.6 C 135.9 80.8 136.5 81.2 137.4 81.2 C 137.6 81.2 137.8 81.2 138 81.2 C 138 81.2 138 81.6 138 81.6 C 137.9 81.6 137.7 81.7 137.4 81.7 C 136.2 81.7 135.4 81 135.4 79.6 C 135.4 79.62 135.4 75.7 135.4 75.7 L 134.4 75.7 L 134.4 75.2 L 135.4 75.2 L 135.4 73.7 L 135.9 73.7 L 135.9 75.2 Z M 147.6 78.4 C 147.6 76.4 149 75.1 150.5 75.1 C 151.6 75.1 152.6 75.7 153 76.8 C 153.02 76.78 153 72.1 153 72.1 L 153.5 72.1 L 153.5 81.6 L 153.1 81.6 L 153.1 80 C 153.1 80 153.04 79.99 153 80 C 152.6 81.2 151.6 81.7 150.5 81.7 C 149 81.7 147.6 80.4 147.6 78.4 Z M 153 78.4 C 153 76.7 151.9 75.6 150.6 75.6 C 149.3 75.6 148.1 76.7 148.1 78.4 C 148.1 80.1 149.3 81.2 150.6 81.2 C 151.9 81.2 153 80.1 153 78.4 Z M 155.7 79.3 C 155.72 79.28 155.7 75.2 155.7 75.2 L 156.2 75.2 C 156.2 75.2 156.22 79.31 156.2 79.3 C 156.2 80.5 157 81.2 158.1 81.2 C 159.3 81.2 160 80.5 160 79.3 C 160.02 79.3 160 75.2 160 75.2 L 160.5 75.2 C 160.5 75.2 160.52 79.27 160.5 79.3 C 160.5 80.7 159.6 81.7 158.1 81.7 C 156.6 81.7 155.7 80.7 155.7 79.3 Z " stroke="none" fill="#000"/>
  </g>
  <g id="Polygon27133">
    <path d="M 5.1 66.8 C 5.9 66.8 6.5 66.7 7.2 66.4 C 7.15 66.37 7.2 62.4 7.2 62.4 L 7.7 62.4 C 7.7 62.4 7.66 66.7 7.7 66.7 C 6.9 67.1 6 67.3 5.1 67.3 C 2.7 67.3 0.8 65.5 0.8 62.7 C 0.8 60 2.7 58.2 5 58.2 C 5.9 58.2 6.8 58.4 7.5 58.8 C 7.5 58.8 7.5 59.4 7.5 59.4 C 6.8 58.9 5.9 58.7 5 58.7 C 3 58.7 1.3 60.3 1.3 62.7 C 1.3 65.2 3 66.8 5.1 66.8 Z M 9.8 60.8 L 10.2 60.8 L 10.2 62 C 10.2 62 10.22 62.02 10.2 62 C 10.6 61.1 11.5 60.8 12.1 60.8 C 12.2 60.8 12.4 60.8 12.5 60.8 C 12.5 60.8 12.5 61.3 12.5 61.3 C 12.4 61.3 12.2 61.3 12.1 61.3 C 11.2 61.3 10.3 61.9 10.3 63.2 C 10.26 63.17 10.3 67.2 10.3 67.2 L 9.8 67.2 L 9.8 60.8 Z M 18 59.7 L 17.5 59.7 L 16.3 58.2 L 15.1 59.7 L 14.6 59.7 L 16.1 57.8 L 16.5 57.8 L 18 59.7 Z M 13.1 64 C 13.1 62 14.5 60.7 16 60.7 C 17 60.7 18 61.3 18.5 62.4 C 18.47 62.42 18.5 60.8 18.5 60.8 L 18.9 60.8 L 18.9 67.2 L 18.5 67.2 C 18.5 67.2 18.47 65.6 18.5 65.6 C 18 66.8 17 67.3 16 67.3 C 14.5 67.3 13.1 66 13.1 64 Z M 18.5 64 C 18.5 62.3 17.3 61.2 16 61.2 C 14.7 61.2 13.6 62.3 13.6 64 C 13.6 65.7 14.7 66.8 16 66.8 C 17.3 66.8 18.5 65.7 18.5 64 Z M 23.8 66.8 C 24.3 66.8 25 66.7 25.6 66.3 C 25.6 66.3 25.6 66.9 25.6 66.9 C 25.1 67.2 24.5 67.3 23.8 67.3 C 22.1 67.3 20.8 65.9 20.8 64 C 20.8 62.1 22.1 60.7 23.8 60.7 C 24.4 60.7 25 60.8 25.6 61.2 C 25.6 61.2 25.6 61.7 25.6 61.7 C 25 61.3 24.4 61.2 23.8 61.2 C 22.5 61.2 21.3 62.3 21.3 64 C 21.3 65.7 22.5 66.8 23.8 66.8 Z M 32.3 64.2 C 32.3 64.2 27.2 64.2 27.2 64.2 C 27.3 65.8 28.4 66.8 29.8 66.8 C 30.6 66.8 31.4 66.6 32.1 65.9 C 32.1 65.9 32.1 66.5 32.1 66.5 C 31.4 67 30.6 67.3 29.8 67.3 C 28 67.3 26.7 66 26.7 64 C 26.7 62 28.2 60.7 29.7 60.7 C 31.1 60.7 32.3 61.8 32.3 63.9 C 32.3 64 32.3 64.1 32.3 64.2 Z M 31.8 63.7 C 31.8 62 30.8 61.2 29.7 61.2 C 28.5 61.2 27.4 62.2 27.3 63.7 C 27.3 63.7 31.8 63.7 31.8 63.7 Z M 42.6 64 C 42.6 62 44 60.7 45.5 60.7 C 46.5 60.7 47.5 61.3 48 62.4 C 48.02 62.42 48.1 60.8 48.1 60.8 L 48.5 60.8 L 48.5 67.2 L 48.1 67.2 C 48.1 67.2 48.02 65.6 48 65.6 C 47.5 66.8 46.5 67.3 45.5 67.3 C 44 67.3 42.6 66 42.6 64 Z M 48 64 C 48 62.3 46.9 61.2 45.6 61.2 C 44.2 61.2 43.1 62.3 43.1 64 C 43.1 65.7 44.2 66.8 45.6 66.8 C 46.9 66.8 48 65.7 48 64 Z M 50.7 64.9 C 50.68 64.88 50.7 60.8 50.7 60.8 L 51.2 60.8 C 51.2 60.8 51.18 64.91 51.2 64.9 C 51.2 66.1 51.9 66.8 53.1 66.8 C 54.2 66.8 55 66.1 55 64.9 C 54.98 64.9 55 60.8 55 60.8 L 55.5 60.8 C 55.5 60.8 55.48 64.87 55.5 64.9 C 55.5 66.3 54.5 67.3 53.1 67.3 C 51.6 67.3 50.7 66.3 50.7 64.9 Z M 59.8 64 L 62 67.2 L 61.5 67.2 L 59.5 64.4 L 59.5 64.4 L 57.5 67.2 L 56.9 67.2 L 59.2 64 L 56.9 60.8 L 57.5 60.8 L 59.5 63.6 L 59.5 63.6 L 61.4 60.8 L 62 60.8 L 59.8 64 Z M 77.6 64.2 C 77.6 64.2 72.5 64.2 72.5 64.2 C 72.6 65.8 73.6 66.8 75.1 66.8 C 75.9 66.8 76.7 66.6 77.4 65.9 C 77.4 65.9 77.4 66.5 77.4 66.5 C 76.7 67 75.9 67.3 75.1 67.3 C 73.3 67.3 72 66 72 64 C 72 62 73.4 60.7 75 60.7 C 76.4 60.7 77.6 61.8 77.6 63.9 C 77.6 64 77.6 64.1 77.6 64.2 Z M 77.1 63.7 C 77.1 62 76.1 61.2 75 61.2 C 73.8 61.2 72.7 62.2 72.5 63.7 C 72.5 63.7 77.1 63.7 77.1 63.7 Z M 84.2 63 C 84.2 62.96 84.2 67.2 84.2 67.2 L 83.7 67.2 C 83.7 67.2 83.69 63.17 83.7 63.2 C 83.7 61.9 83 61.2 81.9 61.2 C 80.8 61.2 79.9 61.9 79.9 63.1 C 79.91 63.11 79.9 67.2 79.9 67.2 L 79.4 67.2 L 79.4 60.8 L 79.8 60.8 L 79.9 62 C 79.9 62 79.88 61.96 79.9 62 C 80.2 61.2 81 60.7 82 60.7 C 83.3 60.7 84.2 61.6 84.2 63 Z M 89 66.8 C 89.5 66.8 90.2 66.7 90.7 66.3 C 90.7 66.3 90.7 66.9 90.7 66.9 C 90.2 67.2 89.6 67.3 89 67.3 C 87.3 67.3 85.9 65.9 85.9 64 C 85.9 62.1 87.3 60.7 89 60.7 C 89.6 60.7 90.2 60.8 90.7 61.2 C 90.7 61.2 90.7 61.7 90.7 61.7 C 90.2 61.3 89.6 61.2 89 61.2 C 87.7 61.2 86.4 62.3 86.4 64 C 86.4 65.7 87.7 66.8 89 66.8 Z M 97.5 64.2 C 97.5 64.2 92.4 64.2 92.4 64.2 C 92.5 65.8 93.5 66.8 95 66.8 C 95.7 66.8 96.6 66.6 97.2 65.9 C 97.2 65.9 97.2 66.5 97.2 66.5 C 96.6 67 95.8 67.3 94.9 67.3 C 93.2 67.3 91.9 66 91.9 64 C 91.9 62 93.3 60.7 94.9 60.7 C 96.3 60.7 97.5 61.8 97.5 63.9 C 97.5 64 97.5 64.1 97.5 64.2 Z M 97 63.7 C 97 62 95.9 61.2 94.9 61.2 C 93.7 61.2 92.5 62.2 92.4 63.7 C 92.4 63.7 97 63.7 97 63.7 Z M 99.2 58.5 C 99.2 58.3 99.4 58.1 99.6 58.1 C 99.8 58.1 100 58.3 100 58.5 C 100 58.7 99.8 58.9 99.6 58.9 C 99.4 58.9 99.2 58.7 99.2 58.5 Z M 99.3 60.8 L 99.8 60.8 L 99.8 67.2 L 99.3 67.2 L 99.3 60.8 Z M 106.9 63 C 106.94 62.96 106.9 67.2 106.9 67.2 L 106.4 67.2 C 106.4 67.2 106.43 63.17 106.4 63.2 C 106.4 61.9 105.8 61.2 104.6 61.2 C 103.5 61.2 102.7 61.9 102.7 63.1 C 102.65 63.11 102.7 67.2 102.7 67.2 L 102.1 67.2 L 102.1 60.8 L 102.5 60.8 L 102.6 62 C 102.6 62 102.62 61.96 102.6 62 C 103 61.2 103.7 60.7 104.7 60.7 C 106 60.7 106.9 61.6 106.9 63 Z M 109.8 60.8 L 111.7 60.8 L 111.7 61.3 L 109.8 61.3 C 109.8 61.3 109.76 65.2 109.8 65.2 C 109.8 66.4 110.4 66.8 111.3 66.8 C 111.5 66.8 111.6 66.8 111.8 66.8 C 111.8 66.8 111.8 67.2 111.8 67.2 C 111.8 67.2 111.5 67.3 111.2 67.3 C 110.1 67.3 109.3 66.6 109.3 65.2 C 109.25 65.22 109.3 61.3 109.3 61.3 L 108.3 61.3 L 108.3 60.8 L 109.3 60.8 L 109.3 59.3 L 109.8 59.3 L 109.8 60.8 Z M 118.2 64.2 C 118.2 64.2 113.2 64.2 113.2 64.2 C 113.2 65.8 114.3 66.8 115.7 66.8 C 116.5 66.8 117.3 66.6 118 65.9 C 118 65.9 118 66.5 118 66.5 C 117.3 67 116.5 67.3 115.7 67.3 C 113.9 67.3 112.7 66 112.7 64 C 112.7 62 114.1 60.7 115.6 60.7 C 117 60.7 118.2 61.8 118.2 63.9 C 118.2 64 118.2 64.1 118.2 64.2 Z M 117.7 63.7 C 117.7 62 116.7 61.2 115.6 61.2 C 114.4 61.2 113.3 62.2 113.2 63.7 C 113.2 63.7 117.7 63.7 117.7 63.7 Z M 123.6 61.3 C 123.6 61.3 123.6 61.8 123.6 61.8 C 123.1 61.5 122.5 61.2 121.8 61.2 C 120.8 61.2 120.2 61.7 120.2 62.4 C 120.2 63.1 120.9 63.4 121.9 63.7 C 122.9 64.1 123.9 64.4 123.9 65.5 C 123.9 66.6 123 67.3 121.7 67.3 C 121 67.3 120.2 67.1 119.6 66.6 C 119.6 66.6 119.6 65.9 119.6 65.9 C 120.1 66.5 120.9 66.8 121.7 66.8 C 122.8 66.8 123.4 66.3 123.4 65.5 C 123.4 64.8 122.7 64.5 121.7 64.1 C 120.6 63.8 119.7 63.5 119.7 62.4 C 119.7 61.4 120.5 60.7 121.8 60.7 C 122.5 60.7 123.1 60.9 123.6 61.3 Z M 137.2 66.8 C 137.7 66.8 138.4 66.7 138.9 66.3 C 138.9 66.3 138.9 66.9 138.9 66.9 C 138.5 67.2 137.9 67.3 137.2 67.3 C 135.5 67.3 134.1 65.9 134.1 64 C 134.1 62.1 135.5 60.7 137.2 60.7 C 137.8 60.7 138.4 60.8 138.9 61.2 C 138.9 61.2 138.9 61.7 138.9 61.7 C 138.4 61.3 137.8 61.2 137.2 61.2 C 135.9 61.2 134.6 62.3 134.6 64 C 134.6 65.7 135.9 66.8 137.2 66.8 Z M 140.1 64 C 140.1 62.1 141.5 60.7 143.2 60.7 C 144.8 60.7 146.2 62.1 146.2 64 C 146.2 66 144.8 67.3 143.2 67.3 C 141.5 67.3 140.1 66 140.1 64 Z M 145.7 64 C 145.7 62.2 144.5 61.2 143.2 61.2 C 141.8 61.2 140.6 62.2 140.6 64 C 140.6 65.8 141.9 66.8 143.2 66.8 C 144.5 66.8 145.7 65.8 145.7 64 Z M 155.7 62.9 C 155.74 62.88 155.7 67.2 155.7 67.2 L 155.2 67.2 C 155.2 67.2 155.24 62.93 155.2 62.9 C 155.2 61.9 154.7 61.2 153.8 61.2 C 152.7 61.2 152.1 62 152.1 62.9 C 152.13 62.94 152.1 67.2 152.1 67.2 L 151.6 67.2 C 151.6 67.2 151.63 62.93 151.6 62.9 C 151.6 61.9 151.1 61.2 150.1 61.2 C 149.1 61.2 148.5 62 148.5 63 C 148.52 62.96 148.5 67.2 148.5 67.2 L 148 67.2 L 148 60.8 L 148.4 60.8 L 148.5 61.9 C 148.5 61.9 148.48 61.88 148.5 61.9 C 148.8 61.2 149.4 60.7 150.2 60.7 C 151.1 60.7 151.7 61.2 152 62 C 152.3 61.2 152.9 60.7 153.8 60.7 C 155.1 60.7 155.7 61.6 155.7 62.9 Z M 157.8 63.3 L 160.6 63.3 L 160.6 63.8 L 157.8 63.8 L 157.8 63.3 Z " stroke="none" fill="#000"/>
  </g>
  <g id="Polygon27132">
    <path d="M 1.6 48 C 2.1 46.9 3.1 46.3 4.1 46.3 C 5.6 46.3 7 47.6 7 49.6 C 7 51.6 5.6 52.9 4.1 52.9 C 3.1 52.9 2.1 52.4 1.6 51.2 C 1.61 51.19 1.5 52.8 1.5 52.8 L 1.1 52.8 L 1.1 43.3 L 1.6 43.3 C 1.6 43.3 1.64 47.99 1.6 48 Z M 1.6 49.6 C 1.6 51.3 2.8 52.4 4.1 52.4 C 5.4 52.4 6.5 51.3 6.5 49.6 C 6.5 47.9 5.4 46.8 4.1 46.8 C 2.7 46.8 1.6 47.9 1.6 49.6 Z M 8.8 50.5 C 8.77 50.48 8.8 46.4 8.8 46.4 L 9.3 46.4 C 9.3 46.4 9.28 50.51 9.3 50.5 C 9.3 51.7 10 52.4 11.2 52.4 C 12.3 52.4 13.1 51.7 13.1 50.5 C 13.07 50.5 13.1 46.4 13.1 46.4 L 13.6 46.4 C 13.6 46.4 13.57 50.47 13.6 50.5 C 13.6 51.9 12.6 52.9 11.2 52.9 C 9.7 52.9 8.8 51.9 8.8 50.5 Z M 16 46.9 L 15 46.9 L 15 46.4 L 16 46.4 C 16 46.4 16 45.2 16 45.2 C 16 43.9 16.8 43.2 17.9 43.2 C 18.2 43.2 18.6 43.3 18.9 43.4 C 18.9 43.4 18.9 43.9 18.9 43.9 C 18.6 43.8 18.2 43.7 17.9 43.7 C 17.1 43.7 16.5 44.2 16.5 45.3 C 16.51 45.29 16.5 46.4 16.5 46.4 L 18.4 46.4 L 18.4 46.9 L 16.5 46.9 L 16.5 52.8 L 16 52.8 L 16 46.9 Z M 20 46.9 L 19.1 46.9 L 19.1 46.4 L 20 46.4 C 20 46.4 20 45.2 20 45.2 C 20 43.9 20.9 43.2 21.9 43.2 C 22.2 43.2 22.6 43.3 22.9 43.4 C 22.9 43.4 22.9 43.9 22.9 43.9 C 22.6 43.8 22.2 43.7 21.9 43.7 C 21.1 43.7 20.5 44.2 20.5 45.3 C 20.52 45.29 20.5 46.4 20.5 46.4 L 22.4 46.4 L 22.4 46.9 L 20.5 46.9 L 20.5 52.8 L 20 52.8 L 20 46.9 Z M 28.6 49.8 C 28.6 49.8 23.6 49.8 23.6 49.8 C 23.7 51.4 24.7 52.4 26.1 52.4 C 26.9 52.4 27.7 52.2 28.4 51.5 C 28.4 51.5 28.4 52.1 28.4 52.1 C 27.7 52.6 27 52.9 26.1 52.9 C 24.3 52.9 23.1 51.6 23.1 49.6 C 23.1 47.6 24.5 46.3 26 46.3 C 27.5 46.3 28.7 47.4 28.7 49.5 C 28.7 49.6 28.7 49.7 28.6 49.8 Z M 28.2 49.3 C 28.1 47.6 27.1 46.8 26 46.8 C 24.8 46.8 23.7 47.8 23.6 49.3 C 23.6 49.3 28.2 49.3 28.2 49.3 Z M 31.1 46.4 L 33 46.4 L 33 46.9 L 31.1 46.9 C 31.1 46.9 31.09 50.8 31.1 50.8 C 31.1 52 31.7 52.4 32.6 52.4 C 32.8 52.4 33 52.4 33.2 52.4 C 33.2 52.4 33.2 52.8 33.2 52.8 C 33.1 52.8 32.8 52.9 32.6 52.9 C 31.4 52.9 30.6 52.2 30.6 50.8 C 30.59 50.82 30.6 46.9 30.6 46.9 L 29.6 46.9 L 29.6 46.4 L 30.6 46.4 L 30.6 44.9 L 31.1 44.9 L 31.1 46.4 Z M 45.6 49.6 C 45.6 47.7 47 46.3 48.7 46.3 C 50.3 46.3 51.7 47.7 51.7 49.6 C 51.7 51.6 50.3 52.9 48.7 52.9 C 47 52.9 45.6 51.6 45.6 49.6 Z M 51.2 49.6 C 51.2 47.8 50 46.8 48.7 46.8 C 47.4 46.8 46.1 47.8 46.1 49.6 C 46.1 51.4 47.4 52.4 48.7 52.4 C 50 52.4 51.2 51.4 51.2 49.6 Z M 53.5 50.5 C 53.46 50.48 53.5 46.4 53.5 46.4 L 54 46.4 C 54 46.4 53.96 50.51 54 50.5 C 54 51.7 54.7 52.4 55.8 52.4 C 57 52.4 57.8 51.7 57.8 50.5 C 57.75 50.5 57.8 46.4 57.8 46.4 L 58.3 46.4 C 58.3 46.4 58.25 50.47 58.3 50.5 C 58.3 51.9 57.3 52.9 55.8 52.9 C 54.4 52.9 53.5 51.9 53.5 50.5 Z M 72 50.5 C 72 50.48 72 46.4 72 46.4 L 72.5 46.4 C 72.5 46.4 72.5 50.51 72.5 50.5 C 72.5 51.7 73.2 52.4 74.4 52.4 C 75.6 52.4 76.3 51.7 76.3 50.5 C 76.3 50.5 76.3 46.4 76.3 46.4 L 76.8 46.4 C 76.8 46.4 76.8 50.47 76.8 50.5 C 76.8 51.9 75.9 52.9 74.4 52.9 C 72.9 52.9 72 51.9 72 50.5 Z M 83.8 48.6 C 83.78 48.56 83.8 52.8 83.8 52.8 L 83.3 52.8 C 83.3 52.8 83.28 48.77 83.3 48.8 C 83.3 47.5 82.6 46.8 81.5 46.8 C 80.4 46.8 79.5 47.5 79.5 48.7 C 79.5 48.71 79.5 52.8 79.5 52.8 L 79 52.8 L 79 46.4 L 79.4 46.4 L 79.5 47.6 C 79.5 47.6 79.46 47.56 79.5 47.6 C 79.8 46.8 80.6 46.3 81.5 46.3 C 82.9 46.3 83.8 47.2 83.8 48.6 Z M 91.1 49.8 C 91.1 49.8 86 49.8 86 49.8 C 86.1 51.4 87.2 52.4 88.6 52.4 C 89.4 52.4 90.2 52.2 90.9 51.5 C 90.9 51.5 90.9 52.1 90.9 52.1 C 90.2 52.6 89.4 52.9 88.6 52.9 C 86.8 52.9 85.5 51.6 85.5 49.6 C 85.5 47.6 87 46.3 88.5 46.3 C 89.9 46.3 91.1 47.4 91.1 49.5 C 91.1 49.6 91.1 49.7 91.1 49.8 Z M 90.6 49.3 C 90.6 47.6 89.6 46.8 88.5 46.8 C 87.3 46.8 86.2 47.8 86.1 49.3 C 86.1 49.3 90.6 49.3 90.6 49.3 Z M 107.2 52.4 C 107.7 52.4 108.3 52.3 108.9 51.9 C 108.9 51.9 108.9 52.5 108.9 52.5 C 108.4 52.8 107.8 52.9 107.2 52.9 C 105.5 52.9 104.1 51.5 104.1 49.6 C 104.1 47.7 105.4 46.3 107.2 46.3 C 107.8 46.3 108.4 46.4 108.9 46.8 C 108.9 46.8 108.9 47.3 108.9 47.3 C 108.3 46.9 107.8 46.8 107.2 46.8 C 105.8 46.8 104.6 47.9 104.6 49.6 C 104.6 51.3 105.8 52.4 107.2 52.4 Z M 110.1 49.6 C 110.1 47.7 111.4 46.3 113.1 46.3 C 114.8 46.3 116.1 47.7 116.1 49.6 C 116.1 51.6 114.8 52.9 113.1 52.9 C 111.4 52.9 110.1 51.6 110.1 49.6 Z M 115.6 49.6 C 115.6 47.8 114.4 46.8 113.1 46.8 C 111.8 46.8 110.6 47.8 110.6 49.6 C 110.6 51.4 111.8 52.4 113.1 52.4 C 114.4 52.4 115.6 51.4 115.6 49.6 Z M 125.7 48.5 C 125.69 48.48 125.7 52.8 125.7 52.8 L 125.2 52.8 C 125.2 52.8 125.19 48.53 125.2 48.5 C 125.2 47.5 124.7 46.8 123.7 46.8 C 122.7 46.8 122.1 47.6 122.1 48.5 C 122.08 48.54 122.1 52.8 122.1 52.8 L 121.6 52.8 C 121.6 52.8 121.58 48.53 121.6 48.5 C 121.6 47.5 121.1 46.8 120.1 46.8 C 119.1 46.8 118.5 47.6 118.5 48.6 C 118.47 48.56 118.5 52.8 118.5 52.8 L 118 52.8 L 118 46.4 L 118.4 46.4 L 118.4 47.5 C 118.4 47.5 118.44 47.48 118.4 47.5 C 118.7 46.8 119.3 46.3 120.2 46.3 C 121.1 46.3 121.7 46.8 121.9 47.6 C 122.2 46.8 122.9 46.3 123.8 46.3 C 125.1 46.3 125.7 47.2 125.7 48.5 Z M 135.6 48.5 C 135.63 48.48 135.6 52.8 135.6 52.8 L 135.1 52.8 C 135.1 52.8 135.13 48.53 135.1 48.5 C 135.1 47.5 134.6 46.8 133.6 46.8 C 132.6 46.8 132 47.6 132 48.5 C 132.02 48.54 132 52.8 132 52.8 L 131.5 52.8 C 131.5 52.8 131.52 48.53 131.5 48.5 C 131.5 47.5 131 46.8 130 46.8 C 129 46.8 128.4 47.6 128.4 48.6 C 128.41 48.56 128.4 52.8 128.4 52.8 L 127.9 52.8 L 127.9 46.4 L 128.3 46.4 L 128.4 47.5 C 128.4 47.5 128.37 47.48 128.4 47.5 C 128.6 46.8 129.3 46.3 130.1 46.3 C 131 46.3 131.6 46.8 131.9 47.6 C 132.2 46.8 132.8 46.3 133.7 46.3 C 135 46.3 135.6 47.2 135.6 48.5 Z M 137.4 49.6 C 137.4 47.7 138.8 46.3 140.4 46.3 C 142.1 46.3 143.5 47.7 143.5 49.6 C 143.5 51.6 142.1 52.9 140.4 52.9 C 138.8 52.9 137.4 51.6 137.4 49.6 Z M 143 49.6 C 143 47.8 141.7 46.8 140.4 46.8 C 139.1 46.8 137.9 47.8 137.9 49.6 C 137.9 51.4 139.1 52.4 140.4 52.4 C 141.7 52.4 143 51.4 143 49.6 Z M 144.8 49.6 C 144.8 47.6 146.2 46.3 147.8 46.3 C 148.8 46.3 149.8 46.9 150.2 48 C 150.22 47.98 150.2 43.3 150.2 43.3 L 150.7 43.3 L 150.7 52.8 L 150.3 52.8 L 150.3 51.2 C 150.3 51.2 150.25 51.19 150.2 51.2 C 149.8 52.4 148.8 52.9 147.8 52.9 C 146.3 52.9 144.8 51.6 144.8 49.6 Z M 150.2 49.6 C 150.2 47.9 149.1 46.8 147.8 46.8 C 146.5 46.8 145.4 47.9 145.4 49.6 C 145.4 51.3 146.5 52.4 147.8 52.4 C 149.1 52.4 150.2 51.3 150.2 49.6 Z M 158.1 49.8 C 158.1 49.8 153.1 49.8 153.1 49.8 C 153.2 51.4 154.2 52.4 155.6 52.4 C 156.4 52.4 157.2 52.2 157.9 51.5 C 157.9 51.5 157.9 52.1 157.9 52.1 C 157.2 52.6 156.4 52.9 155.6 52.9 C 153.8 52.9 152.6 51.6 152.6 49.6 C 152.6 47.6 154 46.3 155.5 46.3 C 156.9 46.3 158.1 47.4 158.1 49.5 C 158.1 49.6 158.1 49.7 158.1 49.8 Z M 157.6 49.3 C 157.6 47.6 156.6 46.8 155.5 46.8 C 154.3 46.8 153.2 47.8 153.1 49.3 C 153.1 49.3 157.6 49.3 157.6 49.3 Z M 159.7 52.4 C 159.7 52.1 159.9 51.9 160.2 51.9 C 160.5 51.9 160.7 52.1 160.7 52.4 C 160.7 52.6 160.5 52.8 160.2 52.8 C 159.9 52.8 159.7 52.6 159.7 52.4 Z " stroke="none" fill="#000"/>
  </g>
  <g id="Polygon27131">
    <path d="M 8.9 34.1 C 8.87 34.08 8.9 38.4 8.9 38.4 L 8.4 38.4 C 8.4 38.4 8.36 34.13 8.4 34.1 C 8.4 33.1 7.9 32.4 6.9 32.4 C 5.9 32.4 5.3 33.2 5.3 34.1 C 5.26 34.14 5.3 38.4 5.3 38.4 L 4.8 38.4 C 4.8 38.4 4.75 34.13 4.8 34.1 C 4.8 33.1 4.2 32.4 3.3 32.4 C 2.2 32.4 1.6 33.2 1.6 34.2 C 1.64 34.16 1.6 38.4 1.6 38.4 L 1.1 38.4 L 1.1 32 L 1.5 32 L 1.6 33.1 C 1.6 33.1 1.61 33.08 1.6 33.1 C 1.9 32.4 2.5 31.9 3.3 31.9 C 4.3 31.9 4.8 32.4 5.1 33.2 C 5.4 32.4 6 31.9 6.9 31.9 C 8.2 31.9 8.9 32.8 8.9 34.1 Z M 16.2 35.4 C 16.2 35.4 11.1 35.4 11.1 35.4 C 11.2 37 12.3 38 13.7 38 C 14.5 38 15.3 37.8 16 37.1 C 16 37.1 16 37.7 16 37.7 C 15.3 38.2 14.5 38.5 13.7 38.5 C 11.9 38.5 10.6 37.2 10.6 35.2 C 10.6 33.2 12 31.9 13.6 31.9 C 15 31.9 16.2 33 16.2 35.1 C 16.2 35.2 16.2 35.3 16.2 35.4 Z M 15.7 34.9 C 15.7 33.2 14.7 32.4 13.6 32.4 C 12.4 32.4 11.3 33.4 11.1 34.9 C 11.1 34.9 15.7 34.9 15.7 34.9 Z M 17.9 36.1 C 17.93 36.08 17.9 32 17.9 32 L 18.4 32 C 18.4 32 18.43 36.11 18.4 36.1 C 18.4 37.3 19.2 38 20.3 38 C 21.5 38 22.2 37.3 22.2 36.1 C 22.22 36.1 22.2 32 22.2 32 L 22.7 32 C 22.7 32 22.73 36.07 22.7 36.1 C 22.7 37.5 21.8 38.5 20.3 38.5 C 18.8 38.5 17.9 37.5 17.9 36.1 Z M 25.4 33.6 C 25.9 32.5 26.9 31.9 27.9 31.9 C 29.4 31.9 30.8 33.2 30.8 35.2 C 30.8 37.2 29.4 38.5 27.9 38.5 C 26.9 38.5 25.9 38 25.4 36.8 C 25.39 36.79 25.3 38.4 25.3 38.4 L 24.9 38.4 L 24.9 28.9 L 25.4 28.9 C 25.4 28.9 25.43 33.59 25.4 33.6 Z M 25.4 35.2 C 25.4 36.9 26.5 38 27.9 38 C 29.2 38 30.3 36.9 30.3 35.2 C 30.3 33.5 29.2 32.4 27.9 32.4 C 26.5 32.4 25.4 33.5 25.4 35.2 Z M 32.7 28.9 L 33.2 28.9 L 33.2 38.4 L 32.7 38.4 L 32.7 28.9 Z M 40.6 35.4 C 40.6 35.4 35.6 35.4 35.6 35.4 C 35.6 37 36.7 38 38.1 38 C 38.9 38 39.7 37.8 40.4 37.1 C 40.4 37.1 40.4 37.7 40.4 37.7 C 39.7 38.2 38.9 38.5 38.1 38.5 C 36.3 38.5 35.1 37.2 35.1 35.2 C 35.1 33.2 36.5 31.9 38 31.9 C 39.4 31.9 40.6 33 40.6 35.1 C 40.6 35.2 40.6 35.3 40.6 35.4 Z M 40.1 34.9 C 40.1 33.2 39.1 32.4 38 32.4 C 36.8 32.4 35.7 33.4 35.6 34.9 C 35.6 34.9 40.1 34.9 40.1 34.9 Z M 57.1 30.9 L 56.6 30.9 L 58 29 L 58.6 29 L 57.1 30.9 Z M 59.9 35.4 C 59.9 35.4 54.8 35.4 54.8 35.4 C 54.9 37 56 38 57.4 38 C 58.2 38 59 37.8 59.7 37.1 C 59.7 37.1 59.7 37.7 59.7 37.7 C 59 38.2 58.2 38.5 57.4 38.5 C 55.6 38.5 54.3 37.2 54.3 35.2 C 54.3 33.2 55.8 31.9 57.3 31.9 C 58.7 31.9 59.9 33 59.9 35.1 C 59.9 35.2 59.9 35.3 59.9 35.4 Z M 59.4 34.9 C 59.4 33.2 58.4 32.4 57.3 32.4 C 56.1 32.4 55 33.4 54.9 34.9 C 54.9 34.9 59.4 34.9 59.4 34.9 Z M 62.3 32 L 64.2 32 L 64.2 32.5 L 62.3 32.5 C 62.3 32.5 62.35 36.4 62.3 36.4 C 62.3 37.6 63 38 63.9 38 C 64.1 38 64.2 38 64.4 38 C 64.4 38 64.4 38.4 64.4 38.4 C 64.3 38.4 64.1 38.5 63.8 38.5 C 62.7 38.5 61.8 37.8 61.8 36.4 C 61.84 36.42 61.8 32.5 61.8 32.5 L 60.9 32.5 L 60.9 32 L 61.9 32 L 61.9 30.5 L 62.3 30.5 L 62.3 32 Z M 65.8 32 L 66.2 32 L 66.2 33.2 C 66.2 33.2 66.25 33.22 66.2 33.2 C 66.6 32.3 67.5 32 68.1 32 C 68.3 32 68.4 32 68.5 32 C 68.5 32 68.5 32.5 68.5 32.5 C 68.4 32.5 68.3 32.5 68.1 32.5 C 67.2 32.5 66.3 33.1 66.3 34.4 C 66.28 34.37 66.3 38.4 66.3 38.4 L 65.8 38.4 L 65.8 32 Z M 69.1 35.2 C 69.1 33.3 70.4 31.9 72.1 31.9 C 73.8 31.9 75.2 33.3 75.2 35.2 C 75.2 37.2 73.8 38.5 72.1 38.5 C 70.5 38.5 69.1 37.2 69.1 35.2 Z M 74.7 35.2 C 74.7 33.4 73.4 32.4 72.1 32.4 C 70.8 32.4 69.6 33.4 69.6 35.2 C 69.6 37 70.8 38 72.1 38 C 73.4 38 74.7 37 74.7 35.2 Z M 76.9 29.7 C 76.9 29.5 77 29.3 77.3 29.3 C 77.5 29.3 77.7 29.5 77.7 29.7 C 77.7 29.9 77.5 30.1 77.3 30.1 C 77 30.1 76.9 29.9 76.9 29.7 Z M 77 32 L 77.5 32 L 77.5 38.4 L 77 38.4 L 77 32 Z M 80.5 32 L 82.4 32 L 82.4 32.5 L 80.5 32.5 C 80.5 32.5 80.53 36.4 80.5 36.4 C 80.5 37.6 81.2 38 82.1 38 C 82.2 38 82.4 38 82.6 38 C 82.6 38 82.6 38.4 82.6 38.4 C 82.5 38.4 82.3 38.5 82 38.5 C 80.8 38.5 80 37.8 80 36.4 C 80.02 36.42 80 32.5 80 32.5 L 79 32.5 L 79 32 L 80 32 L 80 30.5 L 80.5 30.5 L 80.5 32 Z M 98.9 38 C 99.4 38 100 37.9 100.6 37.5 C 100.6 37.5 100.6 38.1 100.6 38.1 C 100.1 38.4 99.5 38.5 98.9 38.5 C 97.1 38.5 95.8 37.1 95.8 35.2 C 95.8 33.3 97.1 31.9 98.9 31.9 C 99.4 31.9 100 32 100.6 32.4 C 100.6 32.4 100.6 32.9 100.6 32.9 C 100 32.5 99.4 32.4 98.8 32.4 C 97.5 32.4 96.3 33.5 96.3 35.2 C 96.3 36.9 97.5 38 98.9 38 Z M 101.7 35.2 C 101.7 33.3 103.1 31.9 104.8 31.9 C 106.5 31.9 107.8 33.3 107.8 35.2 C 107.8 37.2 106.5 38.5 104.8 38.5 C 103.1 38.5 101.7 37.2 101.7 35.2 Z M 107.3 35.2 C 107.3 33.4 106.1 32.4 104.8 32.4 C 103.5 32.4 102.3 33.4 102.3 35.2 C 102.3 37 103.5 38 104.8 38 C 106.1 38 107.3 37 107.3 35.2 Z M 117.4 34.1 C 117.38 34.08 117.4 38.4 117.4 38.4 L 116.9 38.4 C 116.9 38.4 116.88 34.13 116.9 34.1 C 116.9 33.1 116.4 32.4 115.4 32.4 C 114.4 32.4 113.8 33.2 113.8 34.1 C 113.77 34.14 113.8 38.4 113.8 38.4 L 113.3 38.4 C 113.3 38.4 113.27 34.13 113.3 34.1 C 113.3 33.1 112.8 32.4 111.8 32.4 C 110.7 32.4 110.2 33.2 110.2 34.2 C 110.16 34.16 110.2 38.4 110.2 38.4 L 109.7 38.4 L 109.7 32 L 110.1 32 L 110.1 33.1 C 110.1 33.1 110.12 33.08 110.1 33.1 C 110.4 32.4 111 31.9 111.8 31.9 C 112.8 31.9 113.4 32.4 113.6 33.2 C 113.9 32.4 114.5 31.9 115.5 31.9 C 116.7 31.9 117.4 32.8 117.4 34.1 Z M 127.3 34.1 C 127.32 34.08 127.3 38.4 127.3 38.4 L 126.8 38.4 C 126.8 38.4 126.82 34.13 126.8 34.1 C 126.8 33.1 126.3 32.4 125.3 32.4 C 124.3 32.4 123.7 33.2 123.7 34.1 C 123.71 34.14 123.7 38.4 123.7 38.4 L 123.2 38.4 C 123.2 38.4 123.21 34.13 123.2 34.1 C 123.2 33.1 122.7 32.4 121.7 32.4 C 120.7 32.4 120.1 33.2 120.1 34.2 C 120.1 34.16 120.1 38.4 120.1 38.4 L 119.6 38.4 L 119.6 32 L 120 32 L 120 33.1 C 120 33.1 120.06 33.08 120.1 33.1 C 120.3 32.4 121 31.9 121.8 31.9 C 122.7 31.9 123.3 32.4 123.6 33.2 C 123.8 32.4 124.5 31.9 125.4 31.9 C 126.7 31.9 127.3 32.8 127.3 34.1 Z M 134.6 35.4 C 134.6 35.4 129.6 35.4 129.6 35.4 C 129.7 37 130.7 38 132.1 38 C 132.9 38 133.7 37.8 134.4 37.1 C 134.4 37.1 134.4 37.7 134.4 37.7 C 133.7 38.2 132.9 38.5 132.1 38.5 C 130.3 38.5 129.1 37.2 129.1 35.2 C 129.1 33.2 130.5 31.9 132 31.9 C 133.5 31.9 134.7 33 134.7 35.1 C 134.7 35.2 134.7 35.3 134.6 35.4 Z M 134.2 34.9 C 134.1 33.2 133.1 32.4 132 32.4 C 130.8 32.4 129.7 33.4 129.6 34.9 C 129.6 34.9 134.2 34.9 134.2 34.9 Z M 148.7 36.1 C 148.74 36.08 148.7 32 148.7 32 L 149.2 32 C 149.2 32 149.24 36.11 149.2 36.1 C 149.2 37.3 150 38 151.1 38 C 152.3 38 153 37.3 153 36.1 C 153.03 36.1 153 32 153 32 L 153.5 32 C 153.5 32 153.53 36.07 153.5 36.1 C 153.5 37.5 152.6 38.5 151.1 38.5 C 149.6 38.5 148.7 37.5 148.7 36.1 Z M 160.5 34.2 C 160.52 34.16 160.5 38.4 160.5 38.4 L 160 38.4 C 160 38.4 160.02 34.37 160 34.4 C 160 33.1 159.4 32.4 158.2 32.4 C 157.1 32.4 156.2 33.1 156.2 34.3 C 156.23 34.31 156.2 38.4 156.2 38.4 L 155.7 38.4 L 155.7 32 L 156.1 32 L 156.2 33.2 C 156.2 33.2 156.2 33.16 156.2 33.2 C 156.5 32.4 157.3 31.9 158.3 31.9 C 159.6 31.9 160.5 32.8 160.5 34.2 Z " stroke="none" fill="#000"/>
  </g>
  <g id="Polygon27130">
    <path d="M 1.1 17.6 L 1.5 17.6 C 1.5 17.6 1.61 19.24 1.6 19.2 C 2.1 18.1 3.1 17.5 4.1 17.5 C 5.6 17.5 7 18.8 7 20.8 C 7 22.8 5.6 24.1 4.1 24.1 C 3.1 24.1 2.1 23.5 1.6 22.5 C 1.64 22.45 1.6 26.6 1.6 26.6 L 1.1 26.6 L 1.1 17.6 Z M 6.5 20.8 C 6.5 19.1 5.4 18 4.1 18 C 2.7 18 1.6 19.1 1.6 20.8 C 1.6 22.5 2.8 23.6 4.1 23.6 C 5.4 23.6 6.5 22.5 6.5 20.8 Z M 8.4 20.8 C 8.4 18.9 9.8 17.5 11.4 17.5 C 13.1 17.5 14.5 18.9 14.5 20.8 C 14.5 22.8 13.1 24.1 11.4 24.1 C 9.8 24.1 8.4 22.8 8.4 20.8 Z M 14 20.8 C 14 19 12.7 18 11.4 18 C 10.1 18 8.9 19 8.9 20.8 C 8.9 22.6 10.2 23.6 11.4 23.6 C 12.7 23.6 14 22.6 14 20.8 Z M 16.2 21.7 C 16.22 21.68 16.2 17.6 16.2 17.6 L 16.7 17.6 C 16.7 17.6 16.73 21.71 16.7 21.7 C 16.7 22.9 17.5 23.6 18.6 23.6 C 19.8 23.6 20.5 22.9 20.5 21.7 C 20.52 21.7 20.5 17.6 20.5 17.6 L 21 17.6 C 21 17.6 21.02 21.67 21 21.7 C 21 23.1 20.1 24.1 18.6 24.1 C 17.1 24.1 16.2 23.1 16.2 21.7 Z M 22.5 17.6 L 23 17.6 L 25.1 23.4 L 25.1 23.4 L 27.2 17.6 L 27.7 17.6 L 25.4 24 L 24.8 24 L 22.5 17.6 Z M 28.6 20.8 C 28.6 18.9 30 17.5 31.7 17.5 C 33.3 17.5 34.7 18.9 34.7 20.8 C 34.7 22.8 33.3 24.1 31.7 24.1 C 30 24.1 28.6 22.8 28.6 20.8 Z M 34.2 20.8 C 34.2 19 33 18 31.7 18 C 30.4 18 29.1 19 29.1 20.8 C 29.1 22.6 30.4 23.6 31.7 23.6 C 33 23.6 34.2 22.6 34.2 20.8 Z M 36.4 15.3 C 36.4 15.1 36.6 14.9 36.8 14.9 C 37.1 14.9 37.2 15.1 37.2 15.3 C 37.2 15.5 37.1 15.7 36.8 15.7 C 36.6 15.7 36.4 15.5 36.4 15.3 Z M 36.6 17.6 L 37.1 17.6 L 37.1 24 L 36.6 24 L 36.6 17.6 Z M 39.4 17.6 L 39.8 17.6 L 39.9 18.8 C 39.9 18.8 39.86 18.82 39.9 18.8 C 40.2 17.9 41.1 17.6 41.7 17.6 C 41.9 17.6 42 17.6 42.1 17.6 C 42.1 17.6 42.1 18.1 42.1 18.1 C 42 18.1 41.9 18.1 41.7 18.1 C 40.8 18.1 39.9 18.7 39.9 20 C 39.9 19.97 39.9 24 39.9 24 L 39.4 24 L 39.4 17.6 Z M 54.5 16.5 L 53.9 16.5 L 55.4 14.6 L 55.9 14.6 L 57.4 16.5 L 56.8 16.5 L 55.6 15 L 54.5 16.5 Z M 58.3 21 C 58.3 21 53.2 21 53.2 21 C 53.3 22.6 54.3 23.6 55.8 23.6 C 56.5 23.6 57.4 23.4 58 22.7 C 58 22.7 58 23.3 58 23.3 C 57.4 23.8 56.6 24.1 55.7 24.1 C 54 24.1 52.7 22.8 52.7 20.8 C 52.7 18.8 54.1 17.5 55.7 17.5 C 57.1 17.5 58.3 18.6 58.3 20.7 C 58.3 20.8 58.3 20.9 58.3 21 Z M 57.8 20.5 C 57.8 18.8 56.7 18 55.7 18 C 54.4 18 53.3 19 53.2 20.5 C 53.2 20.5 57.8 20.5 57.8 20.5 Z M 60.7 17.6 L 62.6 17.6 L 62.6 18.1 L 60.7 18.1 C 60.7 18.1 60.71 22 60.7 22 C 60.7 23.2 61.3 23.6 62.2 23.6 C 62.4 23.6 62.6 23.6 62.8 23.6 C 62.8 23.6 62.8 24 62.8 24 C 62.7 24 62.5 24.1 62.2 24.1 C 61 24.1 60.2 23.4 60.2 22 C 60.21 22.02 60.2 18.1 60.2 18.1 L 59.2 18.1 L 59.2 17.6 L 60.2 17.6 L 60.2 16.1 L 60.7 16.1 L 60.7 17.6 Z M 64.1 17.6 L 64.6 17.6 L 64.6 18.8 C 64.6 18.8 64.61 18.82 64.6 18.8 C 65 17.9 65.8 17.6 66.5 17.6 C 66.6 17.6 66.8 17.6 66.9 17.6 C 66.9 17.6 66.9 18.1 66.9 18.1 C 66.8 18.1 66.6 18.1 66.5 18.1 C 65.6 18.1 64.7 18.7 64.6 20 C 64.65 19.97 64.6 24 64.6 24 L 64.1 24 L 64.1 17.6 Z M 73 21 C 73 21 68 21 68 21 C 68 22.6 69.1 23.6 70.5 23.6 C 71.3 23.6 72.1 23.4 72.8 22.7 C 72.8 22.7 72.8 23.3 72.8 23.3 C 72.1 23.8 71.3 24.1 70.5 24.1 C 68.7 24.1 67.5 22.8 67.5 20.8 C 67.5 18.8 68.9 17.5 70.4 17.5 C 71.8 17.5 73 18.6 73 20.7 C 73 20.8 73 20.9 73 21 Z M 72.5 20.5 C 72.5 18.8 71.5 18 70.4 18 C 69.2 18 68.1 19 68 20.5 C 68 20.5 72.5 20.5 72.5 20.5 Z M 84.8 17.6 L 85.2 17.6 C 85.2 17.6 85.29 19.24 85.3 19.2 C 85.8 18.1 86.8 17.5 87.8 17.5 C 89.3 17.5 90.7 18.8 90.7 20.8 C 90.7 22.8 89.3 24.1 87.8 24.1 C 86.8 24.1 85.8 23.5 85.3 22.5 C 85.33 22.45 85.3 26.6 85.3 26.6 L 84.8 26.6 L 84.8 17.6 Z M 90.2 20.8 C 90.2 19.1 89.1 18 87.8 18 C 86.4 18 85.3 19.1 85.3 20.8 C 85.3 22.5 86.4 23.6 87.8 23.6 C 89.1 23.6 90.2 22.5 90.2 20.8 Z M 92.1 20.8 C 92.1 18.9 93.5 17.5 95.1 17.5 C 96.8 17.5 98.2 18.9 98.2 20.8 C 98.2 22.8 96.8 24.1 95.1 24.1 C 93.5 24.1 92.1 22.8 92.1 20.8 Z M 97.7 20.8 C 97.7 19 96.4 18 95.1 18 C 93.8 18 92.6 19 92.6 20.8 C 92.6 22.6 93.8 23.6 95.1 23.6 C 96.4 23.6 97.7 22.6 97.7 20.8 Z M 103.5 18.1 C 103.5 18.1 103.5 18.6 103.5 18.6 C 103 18.3 102.4 18 101.7 18 C 100.8 18 100.1 18.5 100.1 19.2 C 100.1 19.9 100.8 20.2 101.8 20.5 C 102.8 20.9 103.9 21.2 103.9 22.3 C 103.9 23.4 103 24.1 101.7 24.1 C 100.9 24.1 100.2 23.9 99.5 23.4 C 99.5 23.4 99.5 22.7 99.5 22.7 C 100.1 23.3 100.9 23.6 101.7 23.6 C 102.7 23.6 103.4 23.1 103.4 22.3 C 103.4 21.6 102.6 21.3 101.6 20.9 C 100.6 20.6 99.6 20.3 99.6 19.2 C 99.6 18.2 100.5 17.5 101.7 17.5 C 102.4 17.5 103.1 17.7 103.5 18.1 Z M 107.9 16.5 L 107.4 16.5 L 108.8 14.6 L 109.4 14.6 L 107.9 16.5 Z M 110.7 21 C 110.7 21 105.7 21 105.7 21 C 105.8 22.6 106.8 23.6 108.2 23.6 C 109 23.6 109.8 23.4 110.5 22.7 C 110.5 22.7 110.5 23.3 110.5 23.3 C 109.8 23.8 109 24.1 108.2 24.1 C 106.4 24.1 105.2 22.8 105.2 20.8 C 105.2 18.8 106.6 17.5 108.1 17.5 C 109.5 17.5 110.7 18.6 110.7 20.7 C 110.7 20.8 110.7 20.9 110.7 21 Z M 110.2 20.5 C 110.2 18.8 109.2 18 108.1 18 C 106.9 18 105.8 19 105.7 20.5 C 105.7 20.5 110.2 20.5 110.2 20.5 Z M 126.1 18.1 C 126.1 18.1 126.1 18.6 126.1 18.6 C 125.6 18.3 125 18 124.3 18 C 123.3 18 122.7 18.5 122.7 19.2 C 122.7 19.9 123.4 20.2 124.4 20.5 C 125.4 20.9 126.4 21.2 126.4 22.3 C 126.4 23.4 125.5 24.1 124.2 24.1 C 123.5 24.1 122.7 23.9 122.1 23.4 C 122.1 23.4 122.1 22.7 122.1 22.7 C 122.6 23.3 123.4 23.6 124.2 23.6 C 125.2 23.6 125.9 23.1 125.9 22.3 C 125.9 21.6 125.2 21.3 124.2 20.9 C 123.1 20.6 122.2 20.3 122.2 19.2 C 122.2 18.2 123 17.5 124.3 17.5 C 124.9 17.5 125.6 17.7 126.1 18.1 Z M 128.1 21.7 C 128.07 21.68 128.1 17.6 128.1 17.6 L 128.6 17.6 C 128.6 17.6 128.57 21.71 128.6 21.7 C 128.6 22.9 129.3 23.6 130.5 23.6 C 131.6 23.6 132.4 22.9 132.4 21.7 C 132.36 21.7 132.4 17.6 132.4 17.6 L 132.9 17.6 C 132.9 17.6 132.87 21.67 132.9 21.7 C 132.9 23.1 131.9 24.1 130.5 24.1 C 129 24.1 128.1 23.1 128.1 21.7 Z M 135.1 17.6 L 135.5 17.6 L 135.5 18.8 C 135.5 18.8 135.53 18.82 135.5 18.8 C 135.9 17.9 136.8 17.6 137.4 17.6 C 137.5 17.6 137.7 17.6 137.8 17.6 C 137.8 17.6 137.8 18.1 137.8 18.1 C 137.7 18.1 137.5 18.1 137.4 18.1 C 136.5 18.1 135.6 18.7 135.6 20 C 135.57 19.97 135.6 24 135.6 24 L 135.1 24 L 135.1 17.6 Z M 148.7 21.7 C 148.74 21.68 148.7 17.6 148.7 17.6 L 149.2 17.6 C 149.2 17.6 149.24 21.71 149.2 21.7 C 149.2 22.9 150 23.6 151.1 23.6 C 152.3 23.6 153 22.9 153 21.7 C 153.03 21.7 153 17.6 153 17.6 L 153.5 17.6 C 153.5 17.6 153.53 21.67 153.5 21.7 C 153.5 23.1 152.6 24.1 151.1 24.1 C 149.6 24.1 148.7 23.1 148.7 21.7 Z M 160.5 19.8 C 160.52 19.76 160.5 24 160.5 24 L 160 24 C 160 24 160.02 19.97 160 20 C 160 18.7 159.4 18 158.2 18 C 157.1 18 156.2 18.7 156.2 19.9 C 156.23 19.91 156.2 24 156.2 24 L 155.7 24 L 155.7 17.6 L 156.1 17.6 L 156.2 18.8 C 156.2 18.8 156.2 18.76 156.2 18.8 C 156.5 18 157.3 17.5 158.3 17.5 C 159.6 17.5 160.5 18.4 160.5 19.8 Z " stroke="none" fill="#000"/>
  </g>
  <g id="Polygon27129">
    <path d="M 1.4 0.7 L 1.9 0.7 L 1.9 9.1 L 6 9.1 L 6 9.6 L 1.4 9.6 L 1.4 0.7 Z M 6.3 1.1 C 6.28 1.13 6.3 0.7 6.3 0.7 L 6.8 0.7 C 6.8 0.7 6.78 1.12 6.8 1.1 C 6.8 2.1 6.4 3.1 6.1 3.7 C 6.1 3.7 5.7 3.7 5.7 3.7 C 6 3.1 6.3 2.1 6.3 1.1 Z M 13.4 6.6 C 13.4 6.6 8.4 6.6 8.4 6.6 C 8.5 8.2 9.5 9.2 10.9 9.2 C 11.7 9.2 12.5 9 13.2 8.3 C 13.2 8.3 13.2 8.9 13.2 8.9 C 12.5 9.4 11.7 9.7 10.9 9.7 C 9.1 9.7 7.9 8.4 7.9 6.4 C 7.9 4.4 9.3 3.1 10.8 3.1 C 12.2 3.1 13.5 4.2 13.5 6.3 C 13.5 6.4 13.4 6.5 13.4 6.6 Z M 12.9 6.1 C 12.9 4.4 11.9 3.6 10.8 3.6 C 9.6 3.6 8.5 4.6 8.4 6.1 C 8.4 6.1 12.9 6.1 12.9 6.1 Z M 20 5.4 C 20.04 5.36 20 9.6 20 9.6 L 19.5 9.6 C 19.5 9.6 19.54 5.57 19.5 5.6 C 19.5 4.3 18.9 3.6 17.7 3.6 C 16.6 3.6 15.8 4.3 15.8 5.5 C 15.76 5.51 15.8 9.6 15.8 9.6 L 15.3 9.6 L 15.3 3.2 L 15.6 3.2 L 15.7 4.4 C 15.7 4.4 15.72 4.36 15.7 4.4 C 16.1 3.6 16.8 3.1 17.8 3.1 C 19.2 3.1 20 4 20 5.4 Z M 25.8 3.7 C 25.8 3.7 25.8 4.2 25.8 4.2 C 25.3 3.9 24.7 3.6 24 3.6 C 23 3.6 22.4 4.1 22.4 4.8 C 22.4 5.5 23.1 5.8 24.1 6.1 C 25.1 6.5 26.1 6.8 26.1 7.9 C 26.1 9 25.2 9.7 23.9 9.7 C 23.2 9.7 22.4 9.5 21.8 9 C 21.8 9 21.8 8.3 21.8 8.3 C 22.3 8.9 23.1 9.2 23.9 9.2 C 24.9 9.2 25.6 8.7 25.6 7.9 C 25.6 7.2 24.9 6.9 23.9 6.5 C 22.8 6.2 21.9 5.9 21.9 4.8 C 21.9 3.8 22.7 3.1 24 3.1 C 24.6 3.1 25.3 3.3 25.8 3.7 Z M 33 6.6 C 33 6.6 27.9 6.6 27.9 6.6 C 28 8.2 29 9.2 30.5 9.2 C 31.2 9.2 32.1 9 32.7 8.3 C 32.7 8.3 32.7 8.9 32.7 8.9 C 32.1 9.4 31.3 9.7 30.4 9.7 C 28.7 9.7 27.4 8.4 27.4 6.4 C 27.4 4.4 28.8 3.1 30.4 3.1 C 31.8 3.1 33 4.2 33 6.3 C 33 6.4 33 6.5 33 6.6 Z M 32.5 6.1 C 32.5 4.4 31.4 3.6 30.4 3.6 C 29.1 3.6 28 4.6 27.9 6.1 C 27.9 6.1 32.5 6.1 32.5 6.1 Z M 42.5 5.3 C 42.51 5.28 42.5 9.6 42.5 9.6 L 42 9.6 C 42 9.6 42.01 5.33 42 5.3 C 42 4.3 41.5 3.6 40.5 3.6 C 39.5 3.6 38.9 4.4 38.9 5.3 C 38.9 5.34 38.9 9.6 38.9 9.6 L 38.4 9.6 C 38.4 9.6 38.4 5.33 38.4 5.3 C 38.4 4.3 37.9 3.6 36.9 3.6 C 35.9 3.6 35.3 4.4 35.3 5.4 C 35.29 5.36 35.3 9.6 35.3 9.6 L 34.8 9.6 L 34.8 3.2 L 35.2 3.2 L 35.2 4.3 C 35.2 4.3 35.25 4.28 35.3 4.3 C 35.5 3.6 36.2 3.1 37 3.1 C 37.9 3.1 38.5 3.6 38.7 4.4 C 39 3.6 39.7 3.1 40.6 3.1 C 41.9 3.1 42.5 4 42.5 5.3 Z M 45.2 4.8 C 45.7 3.7 46.7 3.1 47.7 3.1 C 49.2 3.1 50.6 4.4 50.6 6.4 C 50.6 8.4 49.2 9.7 47.7 9.7 C 46.7 9.7 45.7 9.2 45.2 8 C 45.19 7.99 45.1 9.6 45.1 9.6 L 44.7 9.6 L 44.7 0.1 L 45.2 0.1 C 45.2 0.1 45.23 4.79 45.2 4.8 Z M 45.2 6.4 C 45.2 8.1 46.3 9.2 47.7 9.2 C 49 9.2 50.1 8.1 50.1 6.4 C 50.1 4.7 49 3.6 47.7 3.6 C 46.3 3.6 45.2 4.7 45.2 6.4 Z M 52.5 0.1 L 53 0.1 L 53 9.6 L 52.5 9.6 L 52.5 0.1 Z M 60.4 6.6 C 60.4 6.6 55.4 6.6 55.4 6.6 C 55.4 8.2 56.5 9.2 57.9 9.2 C 58.7 9.2 59.5 9 60.2 8.3 C 60.2 8.3 60.2 8.9 60.2 8.9 C 59.5 9.4 58.7 9.7 57.9 9.7 C 56.1 9.7 54.9 8.4 54.9 6.4 C 54.9 4.4 56.3 3.1 57.8 3.1 C 59.2 3.1 60.4 4.2 60.4 6.3 C 60.4 6.4 60.4 6.5 60.4 6.6 Z M 59.9 6.1 C 59.9 4.4 58.9 3.6 57.8 3.6 C 56.6 3.6 55.5 4.6 55.4 6.1 C 55.4 6.1 59.9 6.1 59.9 6.1 Z M 74.9 6.6 C 74.9 6.6 69.8 6.6 69.8 6.6 C 69.9 8.2 70.9 9.2 72.4 9.2 C 73.2 9.2 74 9 74.7 8.3 C 74.7 8.3 74.7 8.9 74.7 8.9 C 74 9.4 73.2 9.7 72.4 9.7 C 70.6 9.7 69.3 8.4 69.3 6.4 C 69.3 4.4 70.7 3.1 72.3 3.1 C 73.7 3.1 74.9 4.2 74.9 6.3 C 74.9 6.4 74.9 6.5 74.9 6.6 Z M 74.4 6.1 C 74.4 4.4 73.4 3.6 72.3 3.6 C 71.1 3.6 70 4.6 69.8 6.1 C 69.8 6.1 74.4 6.1 74.4 6.1 Z M 80.3 3.7 C 80.3 3.7 80.3 4.2 80.3 4.2 C 79.8 3.9 79.1 3.6 78.4 3.6 C 77.5 3.6 76.9 4.1 76.9 4.8 C 76.9 5.5 77.5 5.8 78.5 6.1 C 79.6 6.5 80.6 6.8 80.6 7.9 C 80.6 9 79.7 9.7 78.4 9.7 C 77.7 9.7 76.9 9.5 76.3 9 C 76.3 9 76.3 8.3 76.3 8.3 C 76.8 8.9 77.6 9.2 78.4 9.2 C 79.4 9.2 80.1 8.7 80.1 7.9 C 80.1 7.2 79.4 6.9 78.3 6.5 C 77.3 6.2 76.4 5.9 76.4 4.8 C 76.4 3.8 77.2 3.1 78.4 3.1 C 79.1 3.1 79.8 3.3 80.3 3.7 Z M 83 3.2 L 84.9 3.2 L 84.9 3.7 L 83 3.7 C 83 3.7 83.01 7.6 83 7.6 C 83 8.8 83.6 9.2 84.5 9.2 C 84.7 9.2 84.9 9.2 85.1 9.2 C 85.1 9.2 85.1 9.6 85.1 9.6 C 85 9.6 84.8 9.7 84.5 9.7 C 83.3 9.7 82.5 9 82.5 7.6 C 82.51 7.62 82.5 3.7 82.5 3.7 L 81.5 3.7 L 81.5 3.2 L 82.5 3.2 L 82.5 1.7 L 83 1.7 L 83 3.2 Z M 96.2 2.1 L 95.7 2.1 L 97.2 0.2 L 97.7 0.2 L 96.2 2.1 Z M 99 6.6 C 99 6.6 94 6.6 94 6.6 C 94.1 8.2 95.1 9.2 96.5 9.2 C 97.3 9.2 98.1 9 98.8 8.3 C 98.8 8.3 98.8 8.9 98.8 8.9 C 98.1 9.4 97.3 9.7 96.5 9.7 C 94.7 9.7 93.5 8.4 93.5 6.4 C 93.5 4.4 94.9 3.1 96.4 3.1 C 97.8 3.1 99 4.2 99 6.3 C 99 6.4 99 6.5 99 6.6 Z M 98.5 6.1 C 98.5 4.4 97.5 3.6 96.4 3.6 C 95.2 3.6 94.1 4.6 94 6.1 C 94 6.1 98.5 6.1 98.5 6.1 Z M 101.5 3.2 L 103.4 3.2 L 103.4 3.7 L 101.5 3.7 C 101.5 3.7 101.47 7.6 101.5 7.6 C 101.5 8.8 102.1 9.2 103 9.2 C 103.2 9.2 103.4 9.2 103.5 9.2 C 103.5 9.2 103.5 9.6 103.5 9.6 C 103.5 9.6 103.2 9.7 102.9 9.7 C 101.8 9.7 101 9 101 7.6 C 100.97 7.62 101 3.7 101 3.7 L 100 3.7 L 100 3.2 L 101 3.2 L 101 1.7 L 101.5 1.7 L 101.5 3.2 Z M 104.8 7.3 C 104.82 7.28 104.8 3.2 104.8 3.2 L 105.3 3.2 C 105.3 3.2 105.32 7.31 105.3 7.3 C 105.3 8.5 106.1 9.2 107.2 9.2 C 108.4 9.2 109.1 8.5 109.1 7.3 C 109.12 7.3 109.1 3.2 109.1 3.2 L 109.6 3.2 C 109.6 3.2 109.62 7.27 109.6 7.3 C 109.6 8.7 108.7 9.7 107.2 9.7 C 105.7 9.7 104.8 8.7 104.8 7.3 Z M 111.4 6.4 C 111.4 4.4 112.8 3.1 114.3 3.1 C 115.3 3.1 116.3 3.7 116.7 4.8 C 116.75 4.78 116.7 0.1 116.7 0.1 L 117.3 0.1 L 117.3 9.6 L 116.9 9.6 L 116.8 8 C 116.8 8 116.77 7.99 116.8 8 C 116.3 9.2 115.3 9.7 114.3 9.7 C 112.8 9.7 111.4 8.4 111.4 6.4 Z M 116.8 6.4 C 116.8 4.7 115.6 3.6 114.3 3.6 C 113 3.6 111.9 4.7 111.9 6.4 C 111.9 8.1 113 9.2 114.3 9.2 C 115.6 9.2 116.8 8.1 116.8 6.4 Z M 119.4 0.9 C 119.4 0.7 119.6 0.5 119.8 0.5 C 120.1 0.5 120.2 0.7 120.2 0.9 C 120.2 1.1 120.1 1.3 119.8 1.3 C 119.6 1.3 119.4 1.1 119.4 0.9 Z M 119.6 3.2 L 120.1 3.2 L 120.1 9.6 L 119.6 9.6 L 119.6 3.2 Z M 124.7 2.1 L 124.2 2.1 L 125.6 0.2 L 126.2 0.2 L 124.7 2.1 Z M 127.5 6.6 C 127.5 6.6 122.4 6.6 122.4 6.6 C 122.5 8.2 123.6 9.2 125 9.2 C 125.8 9.2 126.6 9 127.3 8.3 C 127.3 8.3 127.3 8.9 127.3 8.9 C 126.6 9.4 125.8 9.7 125 9.7 C 123.2 9.7 121.9 8.4 121.9 6.4 C 121.9 4.4 123.4 3.1 124.9 3.1 C 126.3 3.1 127.5 4.2 127.5 6.3 C 127.5 6.4 127.5 6.5 127.5 6.6 Z M 127 6.1 C 127 4.4 126 3.6 124.9 3.6 C 123.7 3.6 122.6 4.6 122.5 6.1 C 122.5 6.1 127 6.1 127 6.1 Z M 136.9 3.2 L 137.3 3.2 C 137.3 3.2 137.33 4.84 137.3 4.8 C 137.8 3.7 138.8 3.1 139.8 3.1 C 141.4 3.1 142.7 4.4 142.7 6.4 C 142.7 8.4 141.4 9.7 139.8 9.7 C 138.8 9.7 137.8 9.1 137.4 8.1 C 137.37 8.05 137.4 12.2 137.4 12.2 L 136.9 12.2 L 136.9 3.2 Z M 142.2 6.4 C 142.2 4.7 141.1 3.6 139.8 3.6 C 138.5 3.6 137.3 4.7 137.3 6.4 C 137.3 8.1 138.5 9.2 139.8 9.2 C 141.1 9.2 142.2 8.1 142.2 6.4 Z M 144.1 6.4 C 144.1 4.5 145.5 3.1 147.2 3.1 C 148.8 3.1 150.2 4.5 150.2 6.4 C 150.2 8.4 148.8 9.7 147.2 9.7 C 145.5 9.7 144.1 8.4 144.1 6.4 Z M 149.7 6.4 C 149.7 4.6 148.5 3.6 147.2 3.6 C 145.9 3.6 144.6 4.6 144.6 6.4 C 144.6 8.2 145.9 9.2 147.2 9.2 C 148.5 9.2 149.7 8.2 149.7 6.4 Z M 152 7.3 C 151.95 7.28 152 3.2 152 3.2 L 152.5 3.2 C 152.5 3.2 152.45 7.31 152.5 7.3 C 152.5 8.5 153.2 9.2 154.3 9.2 C 155.5 9.2 156.2 8.5 156.2 7.3 C 156.25 7.3 156.2 3.2 156.2 3.2 L 156.8 3.2 C 156.8 3.2 156.75 7.27 156.8 7.3 C 156.8 8.7 155.8 9.7 154.3 9.7 C 152.9 9.7 152 8.7 152 7.3 Z M 158.9 3.2 L 159.4 3.2 L 159.4 4.4 C 159.4 4.4 159.41 4.42 159.4 4.4 C 159.8 3.5 160.7 3.2 161.3 3.2 C 161.4 3.2 161.6 3.2 161.7 3.2 C 161.7 3.2 161.7 3.7 161.7 3.7 C 161.6 3.7 161.4 3.7 161.3 3.7 C 160.4 3.7 159.5 4.3 159.5 5.6 C 159.45 5.57 159.5 9.6 159.5 9.6 L 158.9 9.6 L 158.9 3.2 Z " stroke="none" fill="#000"/>
  </g>
</svg>