<?xml version="1.0" standalone="no"?>
<!DOCTYPE svg PUBLIC "-//W3C//DTD SVG 1.1//EN" "http://www.w3.org/Graphics/SVG/1.1/DTD/svg11.dtd">
<svg xmlns="http://www.w3.org/2000/svg" version="1.1" width="491.1px" height="71.2px" viewBox="0 0 491.1 71.2">
  <desc>Parcourez l image de haut en bas pour explorer le Z phyr</desc>
  <defs/>
  <g id="Polygon29209">
    <path d="M 41.5 0.9 C 41.5 0.9 43.73 0.92 43.7 0.9 C 46.1 0.9 47.3 2.5 47.3 4.2 C 47.3 6.4 45.5 7.9 42 7.9 C 42 7.9 40.7 7.9 40.7 7.9 L 40 12.7 L 39.8 12.7 L 41.5 0.9 Z M 47.1 4.2 C 47.1 2.6 45.9 1.1 43.7 1.1 C 43.7 1.11 41.6 1.1 41.6 1.1 L 40.7 7.7 C 40.7 7.7 42.03 7.71 42 7.7 C 45.4 7.7 47.1 6.3 47.1 4.2 Z M 55.3 12.7 L 55.1 12.7 L 55.4 10 C 55.4 10 55.43 10.05 55.4 10 C 54.7 11.9 53.2 12.8 51.6 12.8 C 49.8 12.8 48.3 11.5 48.3 9.1 C 48.3 6.3 50.4 4.3 52.6 4.3 C 54.2 4.3 55.6 5.4 55.8 7.2 C 55.83 7.17 55.8 7.2 55.8 7.2 L 56.3 4.4 L 56.4 4.4 L 55.3 12.7 Z M 48.5 9.1 C 48.5 11.4 49.9 12.6 51.7 12.6 C 53.9 12.6 55.7 10.4 55.7 7.9 C 55.7 5.7 54.2 4.5 52.6 4.5 C 50.5 4.5 48.5 6.4 48.5 9.1 Z M 59.8 4.4 L 59.5 6.2 C 59.5 6.2 59.55 6.22 59.6 6.2 C 60.1 5 61.3 4.3 62.3 4.3 C 62.4 4.3 62.7 4.3 62.8 4.4 C 62.8 4.4 62.8 4.5 62.8 4.5 C 62.6 4.5 62.5 4.5 62.3 4.5 C 61 4.5 59.7 5.5 59.4 7.1 C 59.42 7.09 58.6 12.7 58.6 12.7 L 58.4 12.7 L 59.6 4.4 L 59.8 4.4 Z M 67.3 4.5 C 65 4.5 63 6.4 63 9 C 63 11.3 64.4 12.6 66.4 12.6 C 67 12.6 67.8 12.5 68.6 12 C 68.6 12 68.5 12.2 68.5 12.2 C 67.9 12.6 67.1 12.8 66.3 12.8 C 64.3 12.8 62.8 11.4 62.8 9 C 62.8 6.3 64.9 4.3 67.3 4.3 C 68 4.3 68.8 4.5 69.6 4.9 C 69.6 4.9 69.5 5.1 69.5 5.1 C 68.8 4.6 68 4.5 67.3 4.5 Z M 70.6 9.2 C 70.6 6.2 72.7 4.3 75 4.3 C 76.9 4.3 78.4 5.6 78.4 7.9 C 78.4 10.9 76.2 12.8 74 12.8 C 72.1 12.8 70.6 11.4 70.6 9.2 Z M 78.2 7.9 C 78.2 5.7 76.8 4.5 75 4.5 C 72.8 4.5 70.8 6.2 70.8 9.2 C 70.8 11.4 72.2 12.6 74 12.6 C 76.1 12.6 78.2 10.8 78.2 7.9 Z M 86.6 9.8 C 86.3 11.9 85 12.8 83.5 12.8 C 81.8 12.8 80.6 11.8 80.6 10.1 C 80.6 9.9 80.7 9.6 80.7 9.4 C 80.67 9.45 81.4 4.4 81.4 4.4 L 81.6 4.4 C 81.6 4.4 80.87 9.45 80.9 9.4 C 80.9 9.6 80.8 9.8 80.8 10.1 C 80.8 11.7 81.9 12.6 83.4 12.6 C 84.8 12.6 86.1 11.8 86.4 9.8 C 86.36 9.8 87.1 4.4 87.1 4.4 L 87.3 4.4 C 87.3 4.4 86.56 9.8 86.6 9.8 Z M 90.5 4.4 L 90.3 6.2 C 90.3 6.2 90.32 6.22 90.3 6.2 C 90.9 5 92 4.3 93.1 4.3 C 93.2 4.3 93.4 4.3 93.6 4.4 C 93.6 4.4 93.5 4.5 93.5 4.5 C 93.4 4.5 93.2 4.5 93.1 4.5 C 91.8 4.5 90.5 5.5 90.2 7.1 C 90.19 7.09 89.4 12.7 89.4 12.7 L 89.2 12.7 L 90.4 4.4 L 90.5 4.4 Z M 93.8 8.6 C 93.8 8.7 93.8 8.9 93.8 9.1 C 93.8 11.3 95.1 12.6 97.2 12.6 C 98.4 12.6 99.4 12.2 100.3 11.4 C 100.3 11.4 100.3 11.7 100.3 11.7 C 99.4 12.4 98.4 12.8 97.2 12.8 C 95 12.8 93.6 11.4 93.6 9.1 C 93.6 6.3 95.5 4.3 97.8 4.3 C 99.6 4.3 100.9 5.6 100.9 7.7 C 100.9 8 100.9 8.3 100.8 8.6 C 100.8 8.6 93.8 8.6 93.8 8.6 Z M 93.9 8.4 C 93.9 8.4 100.7 8.4 100.7 8.4 C 100.7 8.1 100.7 7.8 100.7 7.7 C 100.7 5.7 99.5 4.5 97.7 4.5 C 95.8 4.5 94.1 6 93.9 8.4 Z M 107.4 12.7 L 101.6 12.7 L 108.5 4.6 L 108.5 4.6 L 103.2 4.6 L 103.2 4.4 L 108.9 4.4 L 102 12.5 L 102 12.5 L 107.5 12.5 L 107.4 12.7 Z M 116.4 0.1 L 116.6 0.1 L 114.8 12.7 L 114.6 12.7 L 116.4 0.1 Z M 120.1 1.4 C 119.9 2.8 119.3 4 118.9 4.6 C 118.9 4.6 118.7 4.6 118.7 4.6 C 119.1 4 119.7 2.7 119.9 1.4 C 119.88 1.37 119.9 0.9 119.9 0.9 L 120.1 0.9 C 120.1 0.9 120.08 1.37 120.1 1.4 Z M 123.2 1.1 C 123.2 1.3 123.1 1.5 122.9 1.5 C 122.8 1.5 122.7 1.4 122.7 1.2 C 122.7 1 122.8 0.9 123 0.9 C 123.1 0.9 123.2 1 123.2 1.1 Z M 122.4 4.4 L 122.6 4.4 L 121.5 12.7 L 121.3 12.7 L 122.4 4.4 Z M 126 4.4 L 125.8 6 C 125.8 6 125.86 5.98 125.9 6 C 126.3 4.9 127.3 4.3 128.4 4.3 C 129.5 4.3 130.3 5 130.4 6.2 C 131 4.9 132 4.3 133.1 4.3 C 134.3 4.3 135.2 5.1 135.2 6.5 C 135.2 6.7 135.2 6.9 135.1 7.2 C 135.12 7.25 134.4 12.7 134.4 12.7 L 134.2 12.7 C 134.2 12.7 134.92 7.25 134.9 7.2 C 135 6.9 135 6.7 135 6.5 C 135 5.2 134.2 4.5 133.1 4.5 C 131.8 4.5 130.7 5.5 130.4 7 C 130.43 7.03 129.6 12.7 129.6 12.7 L 129.4 12.7 C 129.4 12.7 130.2 7.25 130.2 7.2 C 130.2 6.9 130.3 6.7 130.3 6.5 C 130.3 5.2 129.5 4.5 128.3 4.5 C 127.1 4.5 125.9 5.5 125.7 7 C 125.71 7.03 124.9 12.7 124.9 12.7 L 124.7 12.7 L 125.9 4.4 L 126 4.4 Z M 144.4 12.7 L 144.2 12.7 L 144.5 10 C 144.5 10 144.52 10.05 144.5 10 C 143.8 11.9 142.3 12.8 140.7 12.8 C 138.9 12.8 137.4 11.5 137.4 9.1 C 137.4 6.3 139.5 4.3 141.7 4.3 C 143.3 4.3 144.7 5.4 144.9 7.2 C 144.92 7.17 144.9 7.2 144.9 7.2 L 145.3 4.4 L 145.5 4.4 L 144.4 12.7 Z M 137.6 9.1 C 137.6 11.4 139 12.6 140.8 12.6 C 143 12.6 144.8 10.4 144.8 7.9 C 144.8 5.7 143.3 4.5 141.7 4.5 C 139.6 4.5 137.6 6.4 137.6 9.1 Z M 154.3 12.9 C 153.9 15.6 152.2 16.3 150.3 16.3 C 149.5 16.3 148.2 16.1 147.3 15.4 C 147.3 15.4 147.3 15.2 147.3 15.2 C 148.2 15.9 149.6 16.1 150.4 16.1 C 152.1 16.1 153.7 15.5 154.1 12.9 C 154.09 12.88 154.5 9.9 154.5 9.9 C 154.5 9.9 154.51 9.91 154.5 9.9 C 153.8 11.7 152.3 12.6 150.7 12.6 C 149 12.6 147.5 11.3 147.5 9.1 C 147.5 6.2 149.6 4.3 151.7 4.3 C 153.3 4.3 154.7 5.3 154.9 7.1 C 154.89 7.11 154.9 7.1 154.9 7.1 L 155.3 4.4 L 155.5 4.4 C 155.5 4.4 154.3 12.89 154.3 12.9 Z M 147.7 9.1 C 147.7 11.2 149.1 12.4 150.8 12.4 C 152.8 12.4 154.8 10.6 154.8 7.8 C 154.8 5.7 153.4 4.5 151.7 4.5 C 149.7 4.5 147.7 6.3 147.7 9.1 Z M 157.6 8.6 C 157.6 8.7 157.6 8.9 157.6 9.1 C 157.6 11.3 158.9 12.6 161 12.6 C 162.2 12.6 163.2 12.2 164.1 11.4 C 164.1 11.4 164 11.7 164 11.7 C 163.2 12.4 162.2 12.8 161 12.8 C 158.8 12.8 157.4 11.4 157.4 9.1 C 157.4 6.3 159.3 4.3 161.6 4.3 C 163.4 4.3 164.7 5.6 164.7 7.7 C 164.7 8 164.7 8.3 164.6 8.6 C 164.6 8.6 157.6 8.6 157.6 8.6 Z M 157.7 8.4 C 157.7 8.4 164.4 8.4 164.4 8.4 C 164.5 8.1 164.5 7.8 164.5 7.7 C 164.5 5.7 163.3 4.5 161.5 4.5 C 159.6 4.5 157.9 6 157.7 8.4 Z M 178.2 12.7 L 178 12.7 L 178.4 10 C 178.4 10 178.36 10.05 178.4 10 C 177.6 11.9 176.1 12.8 174.5 12.8 C 172.7 12.8 171.2 11.5 171.2 9.2 C 171.2 6.2 173.4 4.3 175.5 4.3 C 177.2 4.3 178.5 5.4 178.8 7.2 C 178.75 7.17 178.8 7.2 178.8 7.2 L 179.8 0.1 L 180 0.1 L 178.2 12.7 Z M 171.4 9.2 C 171.4 11.4 172.9 12.6 174.5 12.6 C 176.6 12.6 178.6 10.8 178.6 7.9 C 178.6 5.7 177.2 4.5 175.5 4.5 C 173.5 4.5 171.4 6.3 171.4 9.2 Z M 181.5 8.6 C 181.5 8.7 181.5 8.9 181.5 9.1 C 181.5 11.3 182.8 12.6 184.9 12.6 C 186.1 12.6 187.1 12.2 188 11.4 C 188 11.4 187.9 11.7 187.9 11.7 C 187.1 12.4 186.1 12.8 184.9 12.8 C 182.7 12.8 181.3 11.4 181.3 9.1 C 181.3 6.3 183.2 4.3 185.4 4.3 C 187.3 4.3 188.6 5.6 188.6 7.7 C 188.6 8 188.5 8.3 188.5 8.6 C 188.5 8.6 181.5 8.6 181.5 8.6 Z M 181.6 8.4 C 181.6 8.4 188.3 8.4 188.3 8.4 C 188.4 8.1 188.4 7.8 188.4 7.7 C 188.4 5.7 187.2 4.5 185.4 4.5 C 183.5 4.5 181.8 6 181.6 8.4 Z M 200.9 12.7 C 200.9 12.7 201.65 7.25 201.7 7.2 C 201.7 6.9 201.7 6.7 201.7 6.6 C 201.7 5.2 200.8 4.5 199.3 4.5 C 197.8 4.5 196.4 5.5 196.2 7 C 196.15 7.03 195.4 12.7 195.4 12.7 L 195.1 12.7 L 196.9 0.1 L 197.1 0.1 L 196.3 6 C 196.3 6 196.31 6.04 196.3 6 C 196.9 4.9 198 4.3 199.3 4.3 C 200.9 4.3 201.9 5.1 201.9 6.6 C 201.9 6.7 201.9 6.9 201.9 7.2 C 201.86 7.25 201.1 12.7 201.1 12.7 L 200.9 12.7 Z M 211.1 12.7 L 210.9 12.7 L 211.3 10 C 211.3 10 211.24 10.05 211.2 10 C 210.5 11.9 209 12.8 207.5 12.8 C 205.6 12.8 204.1 11.5 204.1 9.1 C 204.1 6.3 206.2 4.3 208.4 4.3 C 210 4.3 211.4 5.4 211.6 7.2 C 211.64 7.17 211.7 7.2 211.7 7.2 L 212.1 4.4 L 212.2 4.4 L 211.1 12.7 Z M 204.3 9.1 C 204.3 11.4 205.8 12.6 207.5 12.6 C 209.7 12.6 211.5 10.4 211.5 7.9 C 211.5 5.7 210 4.5 208.4 4.5 C 206.3 4.5 204.3 6.4 204.3 9.1 Z M 220.5 9.8 C 220.2 11.9 218.9 12.8 217.4 12.8 C 215.7 12.8 214.5 11.8 214.5 10.1 C 214.5 9.9 214.6 9.6 214.6 9.4 C 214.58 9.45 215.3 4.4 215.3 4.4 L 215.5 4.4 C 215.5 4.4 214.78 9.45 214.8 9.4 C 214.8 9.6 214.7 9.8 214.7 10.1 C 214.7 11.7 215.8 12.6 217.4 12.6 C 218.8 12.6 220 11.8 220.3 9.8 C 220.27 9.8 221 4.4 221 4.4 L 221.2 4.4 C 221.2 4.4 220.48 9.8 220.5 9.8 Z M 225.6 12.8 C 224.5 12.8 223.5 12.3 223.5 10.9 C 223.5 10.8 223.5 10.6 223.6 10.4 C 223.56 10.38 224.4 4.6 224.4 4.6 L 223.1 4.6 L 223.1 4.4 L 224.4 4.4 L 224.7 2.4 L 224.9 2.4 L 224.6 4.4 L 227.2 4.4 L 227.1 4.6 L 224.6 4.6 C 224.6 4.6 223.77 10.38 223.8 10.4 C 223.7 10.6 223.7 10.8 223.7 10.9 C 223.7 12.2 224.6 12.6 225.6 12.6 C 225.8 12.6 226 12.6 226.3 12.5 C 226.3 12.5 226.2 12.7 226.2 12.7 C 226.1 12.8 225.8 12.8 225.6 12.8 Z M 232.6 8.6 C 232.6 8.7 232.6 8.9 232.6 9.1 C 232.6 11.3 233.8 12.6 236 12.6 C 237.1 12.6 238.1 12.2 239 11.4 C 239 11.4 239 11.7 239 11.7 C 238.2 12.4 237.1 12.8 235.9 12.8 C 233.7 12.8 232.4 11.4 232.4 9.1 C 232.4 6.3 234.3 4.3 236.5 4.3 C 238.3 4.3 239.7 5.6 239.7 7.7 C 239.7 8 239.6 8.3 239.6 8.6 C 239.6 8.6 232.6 8.6 232.6 8.6 Z M 232.6 8.4 C 232.6 8.4 239.4 8.4 239.4 8.4 C 239.4 8.1 239.4 7.8 239.4 7.7 C 239.4 5.7 238.2 4.5 236.5 4.5 C 234.6 4.5 232.9 6 232.6 8.4 Z M 242.8 4.4 L 242.6 6.1 C 242.6 6.1 242.61 6.09 242.6 6.1 C 243.2 4.9 244.4 4.3 245.7 4.3 C 247.2 4.3 248.3 5.1 248.3 6.6 C 248.3 6.7 248.2 6.9 248.2 7.2 C 248.19 7.25 247.4 12.7 247.4 12.7 L 247.2 12.7 C 247.2 12.7 247.99 7.25 248 7.2 C 248 6.9 248 6.7 248 6.6 C 248 5.2 247.1 4.5 245.6 4.5 C 244.1 4.5 242.7 5.5 242.5 7 C 242.48 7.03 241.7 12.7 241.7 12.7 L 241.5 12.7 L 242.6 4.4 L 242.8 4.4 Z M 256.2 7.1 C 256.2 7.1 256.22 7.06 256.2 7.1 C 256.9 5.2 258.5 4.3 260.1 4.3 C 261.8 4.3 263.4 5.6 263.4 7.9 C 263.4 10.9 261.2 12.8 259 12.8 C 257.4 12.8 256.1 11.8 255.8 9.9 C 255.82 9.94 255.8 9.9 255.8 9.9 L 255.4 12.7 L 255.2 12.7 L 257 0.1 L 257.2 0.1 L 256.2 7.1 Z M 263.2 7.9 C 263.2 5.7 261.7 4.5 260.1 4.5 C 258 4.5 255.9 6.3 255.9 9.2 C 255.9 11.4 257.4 12.6 259.1 12.6 C 261.1 12.6 263.2 10.8 263.2 7.9 Z M 272.2 12.7 L 272.1 12.7 L 272.4 10 C 272.4 10 272.41 10.05 272.4 10 C 271.7 11.9 270.1 12.8 268.6 12.8 C 266.8 12.8 265.2 11.5 265.2 9.1 C 265.2 6.3 267.4 4.3 269.6 4.3 C 271.2 4.3 272.6 5.4 272.8 7.2 C 272.8 7.17 272.8 7.2 272.8 7.2 L 273.2 4.4 L 273.4 4.4 L 272.2 12.7 Z M 265.4 9.1 C 265.4 11.4 266.9 12.6 268.6 12.6 C 270.9 12.6 272.7 10.4 272.7 7.9 C 272.7 5.7 271.2 4.5 269.5 4.5 C 267.5 4.5 265.4 6.4 265.4 9.1 Z M 278.4 4.5 C 277.1 4.5 276 5.2 276 6.2 C 276 7.3 276.8 7.8 277.7 8.1 C 279.4 8.8 280.4 9.4 280.4 10.7 C 280.4 12 279.2 12.8 277.7 12.8 C 276.8 12.8 275.6 12.5 274.8 11.8 C 274.8 11.8 274.8 11.6 274.8 11.6 C 275.6 12.3 276.8 12.6 277.8 12.6 C 279.1 12.6 280.2 11.9 280.2 10.7 C 280.2 9.5 279.3 9 277.6 8.3 C 276.7 7.9 275.8 7.5 275.8 6.3 C 275.8 5.1 277 4.3 278.4 4.3 C 279.2 4.3 280.2 4.5 280.8 5 C 280.8 5 280.8 5.2 280.8 5.2 C 280.1 4.7 279.1 4.5 278.4 4.5 Z M 288.6 4.4 L 288.3 7.1 C 288.3 7.1 288.27 7.06 288.3 7.1 C 289 5.2 290.5 4.3 292.1 4.3 C 293.9 4.3 295.4 5.6 295.4 7.9 C 295.4 10.9 293.3 12.8 291.1 12.8 C 289.5 12.8 288.1 11.8 287.9 9.9 C 287.88 9.94 287.9 9.9 287.9 9.9 L 287 16.2 L 286.8 16.2 L 288.4 4.4 L 288.6 4.4 Z M 288 9.2 C 288 11.4 289.4 12.6 291.1 12.6 C 293.2 12.6 295.2 10.8 295.2 7.9 C 295.2 5.7 293.8 4.5 292.1 4.5 C 290.1 4.5 288 6.3 288 9.2 Z M 297.3 9.2 C 297.3 6.2 299.4 4.3 301.7 4.3 C 303.6 4.3 305.1 5.6 305.1 7.9 C 305.1 10.9 303 12.8 300.7 12.8 C 298.8 12.8 297.3 11.4 297.3 9.2 Z M 304.9 7.9 C 304.9 5.7 303.5 4.5 301.7 4.5 C 299.5 4.5 297.5 6.2 297.5 9.2 C 297.5 11.4 298.9 12.6 300.7 12.6 C 302.9 12.6 304.9 10.8 304.9 7.9 Z M 313.3 9.8 C 313 11.9 311.7 12.8 310.2 12.8 C 308.5 12.8 307.3 11.8 307.3 10.1 C 307.3 9.9 307.4 9.6 307.4 9.4 C 307.39 9.45 308.1 4.4 308.1 4.4 L 308.3 4.4 C 308.3 4.4 307.59 9.45 307.6 9.4 C 307.6 9.6 307.5 9.8 307.5 10.1 C 307.5 11.7 308.6 12.6 310.2 12.6 C 311.6 12.6 312.8 11.8 313.1 9.8 C 313.08 9.8 313.8 4.4 313.8 4.4 L 314 4.4 C 314 4.4 313.29 9.8 313.3 9.8 Z M 317.3 4.4 L 317 6.2 C 317 6.2 317.04 6.22 317 6.2 C 317.6 5 318.7 4.3 319.8 4.3 C 319.9 4.3 320.2 4.3 320.3 4.4 C 320.3 4.4 320.3 4.5 320.3 4.5 C 320.1 4.5 319.9 4.5 319.8 4.5 C 318.5 4.5 317.2 5.5 316.9 7.1 C 316.91 7.09 316.1 12.7 316.1 12.7 L 315.9 12.7 L 317.1 4.4 L 317.3 4.4 Z M 325.4 8.6 C 325.4 8.7 325.4 8.9 325.4 9.1 C 325.4 11.3 326.7 12.6 328.8 12.6 C 330 12.6 330.9 12.2 331.8 11.4 C 331.8 11.4 331.8 11.7 331.8 11.7 C 331 12.4 329.9 12.8 328.7 12.8 C 326.5 12.8 325.2 11.4 325.2 9.1 C 325.2 6.3 327.1 4.3 329.3 4.3 C 331.1 4.3 332.5 5.6 332.5 7.7 C 332.5 8 332.4 8.3 332.4 8.6 C 332.4 8.6 325.4 8.6 325.4 8.6 Z M 325.4 8.4 C 325.4 8.4 332.2 8.4 332.2 8.4 C 332.3 8.1 332.3 7.8 332.3 7.7 C 332.3 5.7 331 4.5 329.3 4.5 C 327.4 4.5 325.7 6 325.4 8.4 Z M 336.9 8.5 L 339.4 12.7 L 339.2 12.7 L 336.8 8.6 L 333.4 12.7 L 333.2 12.7 L 336.7 8.5 L 334.4 4.4 L 334.6 4.4 L 336.9 8.4 L 340.3 4.4 L 340.5 4.4 L 336.9 8.5 Z M 342.8 4.4 L 342.5 7.1 C 342.5 7.1 342.48 7.06 342.5 7.1 C 343.2 5.2 344.7 4.3 346.3 4.3 C 348.1 4.3 349.6 5.6 349.6 7.9 C 349.6 10.9 347.5 12.8 345.3 12.8 C 343.7 12.8 342.3 11.8 342.1 9.9 C 342.08 9.94 342.1 9.9 342.1 9.9 L 341.2 16.2 L 341 16.2 L 342.6 4.4 L 342.8 4.4 Z M 342.2 9.2 C 342.2 11.4 343.6 12.6 345.3 12.6 C 347.4 12.6 349.4 10.8 349.4 7.9 C 349.4 5.7 348 4.5 346.3 4.5 C 344.3 4.5 342.2 6.3 342.2 9.2 Z M 353.4 0.1 L 353.6 0.1 L 351.8 12.7 L 351.6 12.7 L 353.4 0.1 Z M 355 9.2 C 355 6.2 357.1 4.3 359.4 4.3 C 361.3 4.3 362.8 5.6 362.8 7.9 C 362.8 10.9 360.7 12.8 358.4 12.8 C 356.5 12.8 355 11.4 355 9.2 Z M 362.6 7.9 C 362.6 5.7 361.2 4.5 359.4 4.5 C 357.2 4.5 355.2 6.2 355.2 9.2 C 355.2 11.4 356.6 12.6 358.4 12.6 C 360.5 12.6 362.6 10.8 362.6 7.9 Z M 366.1 4.4 L 365.8 6.2 C 365.8 6.2 365.85 6.22 365.9 6.2 C 366.4 5 367.6 4.3 368.6 4.3 C 368.7 4.3 369 4.3 369.1 4.4 C 369.1 4.4 369.1 4.5 369.1 4.5 C 369 4.5 368.8 4.5 368.6 4.5 C 367.3 4.5 366 5.5 365.7 7.1 C 365.73 7.09 364.9 12.7 364.9 12.7 L 364.7 12.7 L 365.9 4.4 L 366.1 4.4 Z M 369.4 8.6 C 369.4 8.7 369.4 8.9 369.4 9.1 C 369.4 11.3 370.6 12.6 372.8 12.6 C 373.9 12.6 374.9 12.2 375.8 11.4 C 375.8 11.4 375.8 11.7 375.8 11.7 C 374.9 12.4 373.9 12.8 372.7 12.8 C 370.5 12.8 369.2 11.4 369.2 9.1 C 369.2 6.3 371.1 4.3 373.3 4.3 C 375.1 4.3 376.4 5.6 376.4 7.7 C 376.4 8 376.4 8.3 376.4 8.6 C 376.4 8.6 369.4 8.6 369.4 8.6 Z M 369.4 8.4 C 369.4 8.4 376.2 8.4 376.2 8.4 C 376.2 8.1 376.2 7.8 376.2 7.7 C 376.2 5.7 375 4.5 373.3 4.5 C 371.4 4.5 369.7 6 369.4 8.4 Z M 379.6 4.4 L 379.4 6.2 C 379.4 6.2 379.38 6.22 379.4 6.2 C 379.9 5 381.1 4.3 382.1 4.3 C 382.3 4.3 382.5 4.3 382.6 4.4 C 382.6 4.4 382.6 4.5 382.6 4.5 C 382.5 4.5 382.3 4.5 382.1 4.5 C 380.8 4.5 379.6 5.5 379.3 7.1 C 379.26 7.09 378.5 12.7 378.5 12.7 L 378.3 12.7 L 379.4 4.4 L 379.6 4.4 Z M 389.4 0.1 L 389.6 0.1 L 387.8 12.7 L 387.6 12.7 L 389.4 0.1 Z M 391.2 8.6 C 391.2 8.7 391.2 8.9 391.2 9.1 C 391.2 11.3 392.5 12.6 394.6 12.6 C 395.8 12.6 396.8 12.2 397.7 11.4 C 397.7 11.4 397.6 11.7 397.6 11.7 C 396.8 12.4 395.8 12.8 394.6 12.8 C 392.4 12.8 391 11.4 391 9.1 C 391 6.3 392.9 4.3 395.2 4.3 C 397 4.3 398.3 5.6 398.3 7.7 C 398.3 8 398.3 8.3 398.2 8.6 C 398.2 8.6 391.2 8.6 391.2 8.6 Z M 391.3 8.4 C 391.3 8.4 398 8.4 398 8.4 C 398.1 8.1 398.1 7.8 398.1 7.7 C 398.1 5.7 396.9 4.5 395.1 4.5 C 393.2 4.5 391.5 6 391.3 8.4 Z M 411.1 12.7 L 403.7 12.7 L 412.8 1.1 L 412.8 1.1 L 405.8 1.1 L 405.9 0.9 L 413.2 0.9 L 404.1 12.5 L 404.1 12.5 L 411.2 12.5 L 411.1 12.7 Z M 417.5 2.8 L 417.2 2.8 L 419.5 0.3 L 419.8 0.3 L 417.5 2.8 Z M 413.4 8.6 C 413.4 8.7 413.4 8.9 413.4 9.1 C 413.4 11.3 414.7 12.6 416.8 12.6 C 418 12.6 418.9 12.2 419.9 11.4 C 419.9 11.4 419.8 11.7 419.8 11.7 C 419 12.4 417.9 12.8 416.7 12.8 C 414.6 12.8 413.2 11.4 413.2 9.1 C 413.2 6.3 415.1 4.3 417.3 4.3 C 419.2 4.3 420.5 5.6 420.5 7.7 C 420.5 8 420.4 8.3 420.4 8.6 C 420.4 8.6 413.4 8.6 413.4 8.6 Z M 413.4 8.4 C 413.4 8.4 420.2 8.4 420.2 8.4 C 420.3 8.1 420.3 7.8 420.3 7.7 C 420.3 5.7 419 4.5 417.3 4.5 C 415.4 4.5 413.7 6 413.4 8.4 Z M 423.6 4.4 L 423.3 7.1 C 423.3 7.1 423.3 7.06 423.3 7.1 C 424 5.2 425.5 4.3 427.1 4.3 C 428.9 4.3 430.5 5.6 430.5 7.9 C 430.5 10.9 428.3 12.8 426.1 12.8 C 424.5 12.8 423.2 11.8 422.9 9.9 C 422.9 9.94 422.9 9.9 422.9 9.9 L 422 16.2 L 421.8 16.2 L 423.5 4.4 L 423.6 4.4 Z M 423 9.2 C 423 11.4 424.5 12.6 426.1 12.6 C 428.2 12.6 430.3 10.8 430.3 7.9 C 430.3 5.7 428.8 4.5 427.1 4.5 C 425.1 4.5 423 6.3 423 9.2 Z M 438.1 12.7 C 438.1 12.7 438.88 7.25 438.9 7.2 C 438.9 6.9 438.9 6.7 438.9 6.6 C 438.9 5.2 438 4.5 436.5 4.5 C 435 4.5 433.6 5.5 433.4 7 C 433.38 7.03 432.6 12.7 432.6 12.7 L 432.4 12.7 L 434.1 0.1 L 434.4 0.1 L 433.5 6 C 433.5 6 433.54 6.04 433.5 6 C 434.1 4.9 435.3 4.3 436.6 4.3 C 438.1 4.3 439.2 5.1 439.2 6.6 C 439.2 6.7 439.1 6.9 439.1 7.2 C 439.09 7.25 438.3 12.7 438.3 12.7 L 438.1 12.7 Z M 441.6 16.2 L 441.4 16.2 L 443.4 12.4 L 441.3 4.4 L 441.5 4.4 L 443.6 12.1 L 443.6 12.1 L 447.7 4.4 L 447.9 4.4 L 441.6 16.2 Z M 450.2 4.4 L 450 6.2 C 450 6.2 450.01 6.22 450 6.2 C 450.6 5 451.7 4.3 452.8 4.3 C 452.9 4.3 453.1 4.3 453.3 4.4 C 453.3 4.4 453.2 4.5 453.2 4.5 C 453.1 4.5 452.9 4.5 452.8 4.5 C 451.5 4.5 450.2 5.5 449.9 7.1 C 449.89 7.09 449.1 12.7 449.1 12.7 L 448.9 12.7 L 450.1 4.4 L 450.2 4.4 Z " stroke="none" fill="#000"/>
  </g>
</svg>