<?xml version="1.0" standalone="no"?>
<!DOCTYPE svg PUBLIC "-//W3C//DTD SVG 1.1//EN" "http://www.w3.org/Graphics/SVG/1.1/DTD/svg11.dtd">
<svg xmlns="http://www.w3.org/2000/svg" version="1.1" width="94px" height="34.1px" viewBox="0 0 94 34.1">
  <desc>PAROIS</desc>
  <defs/>
  <g id="Polygon29874">
    <path d="M 1.3 1.1 C 1.3 1.1 6.38 1.08 6.4 1.1 C 11 1.1 13.5 3.3 13.5 6.7 C 13.5 9.8 11.3 12.6 6.7 12.6 C 6.69 12.64 5.8 12.6 5.8 12.6 L 5.8 16.3 L 1.3 16.3 L 1.3 1.1 Z M 9.1 6.9 C 9.1 5.7 8.1 5.1 6.9 5.1 C 6.85 5.08 5.8 5.1 5.8 5.1 L 5.8 8.7 C 5.8 8.7 6.89 8.72 6.9 8.7 C 8.1 8.7 9.1 8.1 9.1 6.9 Z M 24.4 16.3 L 23.4 13.3 L 18.3 13.3 L 17.4 16.3 L 12.8 16.3 L 18.3 1.1 L 23.4 1.1 L 29 16.3 L 24.4 16.3 Z M 19.5 9.7 L 22.2 9.7 L 20.8 5.6 L 19.5 9.7 Z M 42.8 16.3 L 37.6 16.3 L 34.7 11.6 L 34.6 11.6 L 34.6 16.3 L 30.2 16.3 L 30.2 1.1 C 30.2 1.1 35.6 1.08 35.6 1.1 C 39.4 1.1 42 2.8 42 6.4 C 42 7.8 41.4 9.9 38.9 10.9 C 38.89 10.92 42.8 16.3 42.8 16.3 Z M 35.6 8.3 C 36.7 8.3 37.6 7.7 37.6 6.7 C 37.6 5.6 36.7 5.1 35.6 5.1 C 35.56 5.08 34.6 5.1 34.6 5.1 L 34.6 8.3 C 34.6 8.3 35.58 8.25 35.6 8.3 Z M 43.4 8.7 C 43.4 4 47 0.7 51.5 0.7 C 56 0.7 59.5 4 59.5 8.7 C 59.5 13.4 56 16.6 51.5 16.6 C 46.9 16.6 43.4 13.4 43.4 8.7 Z M 55.1 8.7 C 55.1 6.1 53.3 4.7 51.5 4.7 C 49.6 4.7 47.9 6.1 47.9 8.7 C 47.9 11.2 49.6 12.6 51.5 12.6 C 53.3 12.6 55.1 11.2 55.1 8.7 Z M 61.4 1.1 L 65.9 1.1 L 65.9 16.3 L 61.4 16.3 L 61.4 1.1 Z M 78.1 1.8 C 78.1 1.8 78.1 5.7 78.1 5.7 C 77.2 5 75.6 4.6 74.2 4.6 C 73 4.6 72.4 5 72.4 5.5 C 72.4 6 73.1 6.2 74.3 6.7 C 76.3 7.4 79.1 8.3 79.1 11.6 C 79.1 14.5 76.9 16.6 73.1 16.6 C 71.1 16.6 69.3 16 68.2 15.3 C 68.2 15.3 68.2 11.2 68.2 11.2 C 69.3 12.1 71 12.8 72.6 12.8 C 73.9 12.8 74.6 12.3 74.6 11.7 C 74.6 11 73.5 10.6 72.3 10.2 C 70.7 9.6 68.1 8.5 68.1 5.6 C 68.1 2.9 70.2 0.8 73.9 0.8 C 75.6 0.8 77 1.2 78.1 1.8 Z " stroke="none" fill="#444443"/>
  </g>
</svg>