<?xml version="1.0" standalone="no"?>
<!DOCTYPE svg PUBLIC "-//W3C//DTD SVG 1.1//EN" "http://www.w3.org/Graphics/SVG/1.1/DTD/svg11.dtd">
<svg xmlns="http://www.w3.org/2000/svg" version="1.1" width="51.1px" height="13.4px" viewBox="0 0 51.1 13.4">
  <desc>Bras de lecture</desc>
  <defs/>
  <g id="Polygon24990">
    <path d="M 4.2 4.3 C 4.2 5.1 3.6 5.8 2.4 5.8 C 2.37 5.77 0.8 5.8 0.8 5.8 L 0.8 0.4 C 0.8 0.4 2.29 0.41 2.3 0.4 C 3.4 0.4 4 1 4 1.8 C 4 2.4 3.6 2.8 3.2 3 C 3.8 3.2 4.2 3.7 4.2 4.3 Z M 1.3 2.8 C 1.3 2.8 2.29 2.8 2.3 2.8 C 3.1 2.8 3.5 2.4 3.5 1.8 C 3.5 1.2 3.1 0.9 2.4 0.9 C 2.36 0.88 1.3 0.9 1.3 0.9 L 1.3 2.8 Z M 3.7 4.3 C 3.7 3.6 3.1 3.3 2.4 3.3 C 2.42 3.26 1.3 3.3 1.3 3.3 L 1.3 5.3 C 1.3 5.3 2.38 5.3 2.4 5.3 C 3.2 5.3 3.7 4.9 3.7 4.3 Z M 5.3 1.9 L 5.6 1.9 L 5.7 2.5 C 5.7 2.5 5.71 2.53 5.7 2.5 C 6 2 6.5 1.9 6.8 1.9 C 6.9 1.9 7 1.9 7.1 1.9 C 7.1 1.9 7.1 2.4 7.1 2.4 C 7 2.3 6.9 2.3 6.8 2.3 C 6.3 2.3 5.7 2.7 5.7 3.5 C 5.75 3.46 5.7 5.8 5.7 5.8 L 5.3 5.8 L 5.3 1.9 Z M 7.5 3.8 C 7.5 2.6 8.3 1.8 9.2 1.8 C 9.8 1.8 10.3 2.1 10.6 2.7 C 10.64 2.66 10.7 1.9 10.7 1.9 L 11.1 1.9 L 11.1 5.8 L 10.7 5.8 C 10.7 5.8 10.64 5.01 10.6 5 C 10.3 5.6 9.8 5.9 9.2 5.9 C 8.3 5.9 7.5 5.1 7.5 3.8 Z M 10.6 3.8 C 10.6 2.9 10 2.3 9.3 2.3 C 8.5 2.3 7.9 2.9 7.9 3.8 C 7.9 4.8 8.5 5.4 9.3 5.4 C 10 5.4 10.6 4.8 10.6 3.8 Z M 14.7 2.2 C 14.7 2.2 14.7 2.7 14.7 2.7 C 14.4 2.5 14 2.3 13.5 2.3 C 13 2.3 12.7 2.5 12.7 2.9 C 12.7 3.3 13.1 3.4 13.6 3.6 C 14.2 3.8 14.9 4 14.9 4.7 C 14.9 5.4 14.3 5.9 13.5 5.9 C 13 5.9 12.5 5.7 12.2 5.4 C 12.2 5.4 12.2 4.8 12.2 4.8 C 12.5 5.1 12.9 5.4 13.5 5.4 C 14.1 5.4 14.4 5.1 14.4 4.7 C 14.4 4.3 14 4.2 13.4 4 C 12.8 3.8 12.2 3.6 12.2 2.9 C 12.2 2.3 12.7 1.8 13.5 1.8 C 14 1.8 14.4 2 14.7 2.2 Z M 17.4 3.8 C 17.4 2.6 18.3 1.8 19.2 1.8 C 19.7 1.8 20.3 2.1 20.6 2.6 C 20.57 2.62 20.6 0 20.6 0 L 21.1 0 L 21.1 5.8 L 20.7 5.8 C 20.7 5.8 20.6 5.01 20.6 5 C 20.3 5.6 19.7 5.9 19.2 5.9 C 18.3 5.9 17.4 5.1 17.4 3.8 Z M 20.6 3.8 C 20.6 2.9 20 2.3 19.2 2.3 C 18.5 2.3 17.9 2.9 17.9 3.8 C 17.9 4.8 18.5 5.4 19.2 5.4 C 20 5.4 20.6 4.8 20.6 3.8 Z M 25.5 4 C 25.5 4 22.6 4 22.6 4 C 22.7 4.9 23.2 5.4 24 5.4 C 24.5 5.4 24.9 5.2 25.3 4.8 C 25.3 4.8 25.3 5.4 25.3 5.4 C 24.9 5.7 24.5 5.9 24 5.9 C 22.8 5.9 22.1 5.1 22.1 3.9 C 22.1 2.6 23 1.8 23.9 1.8 C 24.8 1.8 25.6 2.5 25.6 3.8 C 25.6 3.9 25.5 3.9 25.5 4 Z M 25.1 3.6 C 25.1 2.7 24.5 2.3 23.9 2.3 C 23.3 2.3 22.7 2.8 22.6 3.6 C 22.6 3.6 25.1 3.6 25.1 3.6 Z M 28.4 0 L 28.9 0 L 28.9 5.8 L 28.4 5.8 L 28.4 0 Z M 33.4 4 C 33.4 4 30.4 4 30.4 4 C 30.5 4.9 31.1 5.4 31.8 5.4 C 32.3 5.4 32.8 5.2 33.2 4.8 C 33.2 4.8 33.2 5.4 33.2 5.4 C 32.8 5.7 32.3 5.9 31.8 5.9 C 30.7 5.9 29.9 5.1 29.9 3.9 C 29.9 2.6 30.8 1.8 31.8 1.8 C 32.7 1.8 33.4 2.5 33.4 3.8 C 33.4 3.9 33.4 3.9 33.4 4 Z M 32.9 3.6 C 32.9 2.7 32.3 2.3 31.8 2.3 C 31.1 2.3 30.5 2.8 30.4 3.6 C 30.4 3.6 32.9 3.6 32.9 3.6 Z M 36.1 5.4 C 36.4 5.4 36.8 5.3 37.1 5.1 C 37.1 5.1 37.1 5.6 37.1 5.6 C 36.8 5.7 36.5 5.9 36.1 5.9 C 35 5.9 34.2 5 34.2 3.8 C 34.2 2.7 35 1.8 36.1 1.8 C 36.5 1.8 36.8 1.9 37.1 2.1 C 37.1 2.1 37.1 2.6 37.1 2.6 C 36.8 2.4 36.5 2.3 36.1 2.3 C 35.3 2.3 34.6 2.9 34.6 3.8 C 34.6 4.8 35.3 5.4 36.1 5.4 Z M 38.8 1.9 L 39.9 1.9 L 39.9 2.3 L 38.8 2.3 C 38.8 2.3 38.79 4.45 38.8 4.5 C 38.8 5.1 39.2 5.4 39.7 5.4 C 39.8 5.4 39.9 5.4 40 5.3 C 40 5.3 40 5.8 40 5.8 C 40 5.8 39.8 5.8 39.6 5.8 C 38.8 5.8 38.3 5.3 38.3 4.5 C 38.3 4.47 38.3 2.3 38.3 2.3 L 37.7 2.3 L 37.7 1.9 L 38.3 1.9 L 38.3 1 L 38.8 1 L 38.8 1.9 Z M 40.8 4.3 C 40.8 4.31 40.8 1.9 40.8 1.9 L 41.3 1.9 C 41.3 1.9 41.29 4.34 41.3 4.3 C 41.3 5 41.7 5.4 42.3 5.4 C 42.9 5.4 43.4 5 43.4 4.3 C 43.36 4.33 43.4 1.9 43.4 1.9 L 43.8 1.9 C 43.8 1.9 43.85 4.31 43.8 4.3 C 43.8 5.2 43.3 5.9 42.3 5.9 C 41.4 5.9 40.8 5.2 40.8 4.3 Z M 45.1 1.9 L 45.5 1.9 L 45.5 2.5 C 45.5 2.5 45.55 2.53 45.6 2.5 C 45.8 2 46.3 1.9 46.7 1.9 C 46.8 1.9 46.8 1.9 46.9 1.9 C 46.9 1.9 46.9 2.4 46.9 2.4 C 46.8 2.3 46.8 2.3 46.7 2.3 C 46.1 2.3 45.6 2.7 45.6 3.5 C 45.59 3.46 45.6 5.8 45.6 5.8 L 45.1 5.8 L 45.1 1.9 Z M 50.7 4 C 50.7 4 47.8 4 47.8 4 C 47.9 4.9 48.4 5.4 49.2 5.4 C 49.7 5.4 50.1 5.2 50.5 4.8 C 50.5 4.8 50.5 5.4 50.5 5.4 C 50.1 5.7 49.7 5.9 49.2 5.9 C 48 5.9 47.3 5.1 47.3 3.9 C 47.3 2.6 48.2 1.8 49.1 1.8 C 50 1.8 50.8 2.5 50.8 3.8 C 50.8 3.9 50.7 3.9 50.7 4 Z M 50.3 3.6 C 50.3 2.7 49.7 2.3 49.1 2.3 C 48.5 2.3 47.9 2.8 47.8 3.6 C 47.8 3.6 50.3 3.6 50.3 3.6 Z " stroke="none" fill="#fff"/>
  </g>
</svg>