<?xml version="1.0" standalone="no"?>
<!DOCTYPE svg PUBLIC "-//W3C//DTD SVG 1.1//EN" "http://www.w3.org/Graphics/SVG/1.1/DTD/svg11.dtd">
<svg xmlns="http://www.w3.org/2000/svg" version="1.1" width="78.5px" height="14.4px" viewBox="0 0 78.5 14.4">
  <desc>molette de navigation</desc>
  <defs/>
  <g id="Polygon22558">
    <path d="M 5.5 3.2 C 5.53 3.18 5.5 5.8 5.5 5.8 L 5 5.8 C 5 5.8 5.04 3.24 5 3.2 C 5 2.6 4.8 2.3 4.2 2.3 C 3.7 2.3 3.3 2.8 3.3 3.3 C 3.33 3.26 3.3 5.8 3.3 5.8 L 2.8 5.8 C 2.8 5.8 2.84 3.24 2.8 3.2 C 2.8 2.6 2.6 2.3 2 2.3 C 1.4 2.3 1.1 2.8 1.1 3.3 C 1.14 3.3 1.1 5.8 1.1 5.8 L 0.6 5.8 L 0.6 1.9 L 1 1.9 L 1.1 2.5 C 1.1 2.5 1.1 2.49 1.1 2.5 C 1.3 2.1 1.7 1.8 2.1 1.8 C 2.7 1.8 3 2.1 3.2 2.5 C 3.4 2.1 3.8 1.8 4.3 1.8 C 5.2 1.8 5.5 2.4 5.5 3.2 Z M 6.5 3.8 C 6.5 2.7 7.3 1.8 8.4 1.8 C 9.5 1.8 10.3 2.7 10.3 3.8 C 10.3 5 9.5 5.9 8.4 5.9 C 7.3 5.9 6.5 5 6.5 3.8 Z M 9.8 3.8 C 9.8 2.9 9.1 2.3 8.4 2.3 C 7.7 2.3 7 2.9 7 3.8 C 7 4.8 7.7 5.4 8.4 5.4 C 9.1 5.4 9.8 4.8 9.8 3.8 Z M 11.4 0 L 11.8 0 L 11.8 5.8 L 11.4 5.8 L 11.4 0 Z M 16.4 4 C 16.4 4 13.4 4 13.4 4 C 13.5 4.9 14 5.4 14.8 5.4 C 15.3 5.4 15.7 5.2 16.2 4.8 C 16.2 4.8 16.2 5.4 16.2 5.4 C 15.8 5.7 15.3 5.9 14.8 5.9 C 13.7 5.9 12.9 5.1 12.9 3.9 C 12.9 2.6 13.8 1.8 14.7 1.8 C 15.6 1.8 16.4 2.5 16.4 3.8 C 16.4 3.9 16.4 3.9 16.4 4 Z M 15.9 3.6 C 15.9 2.7 15.3 2.3 14.7 2.3 C 14.1 2.3 13.5 2.8 13.4 3.6 C 13.4 3.6 15.9 3.6 15.9 3.6 Z M 18 1.9 L 19.1 1.9 L 19.1 2.3 L 18 2.3 C 18 2.3 17.98 4.45 18 4.5 C 18 5.1 18.3 5.4 18.9 5.4 C 19 5.4 19.1 5.4 19.2 5.3 C 19.2 5.3 19.2 5.8 19.2 5.8 C 19.2 5.8 19 5.8 18.8 5.8 C 18 5.8 17.5 5.3 17.5 4.5 C 17.49 4.47 17.5 2.3 17.5 2.3 L 16.9 2.3 L 16.9 1.9 L 17.5 1.9 L 17.5 1 L 18 1 L 18 1.9 Z M 20.7 1.9 L 21.8 1.9 L 21.8 2.3 L 20.7 2.3 C 20.7 2.3 20.66 4.45 20.7 4.5 C 20.7 5.1 21 5.4 21.5 5.4 C 21.7 5.4 21.8 5.4 21.9 5.3 C 21.9 5.3 21.9 5.8 21.9 5.8 C 21.8 5.8 21.7 5.8 21.5 5.8 C 20.7 5.8 20.2 5.3 20.2 4.5 C 20.17 4.47 20.2 2.3 20.2 2.3 L 19.6 2.3 L 19.6 1.9 L 20.2 1.9 L 20.2 1 L 20.7 1 L 20.7 1.9 Z M 25.9 4 C 25.9 4 22.9 4 22.9 4 C 23 4.9 23.5 5.4 24.3 5.4 C 24.8 5.4 25.3 5.2 25.7 4.8 C 25.7 4.8 25.7 5.4 25.7 5.4 C 25.3 5.7 24.8 5.9 24.3 5.9 C 23.2 5.9 22.4 5.1 22.4 3.9 C 22.4 2.6 23.3 1.8 24.3 1.8 C 25.2 1.8 25.9 2.5 25.9 3.8 C 25.9 3.9 25.9 3.9 25.9 4 Z M 25.4 3.6 C 25.4 2.7 24.8 2.3 24.2 2.3 C 23.6 2.3 23 2.8 22.9 3.6 C 22.9 3.6 25.4 3.6 25.4 3.6 Z M 28.7 3.8 C 28.7 2.6 29.5 1.8 30.4 1.8 C 31 1.8 31.6 2.1 31.8 2.6 C 31.84 2.62 31.8 0 31.8 0 L 32.3 0 L 32.3 5.8 L 31.9 5.8 C 31.9 5.8 31.87 5.01 31.9 5 C 31.6 5.6 31 5.9 30.4 5.9 C 29.5 5.9 28.7 5.1 28.7 3.8 Z M 31.9 3.8 C 31.9 2.9 31.3 2.3 30.5 2.3 C 29.8 2.3 29.2 2.9 29.2 3.8 C 29.2 4.8 29.8 5.4 30.5 5.4 C 31.3 5.4 31.9 4.8 31.9 3.8 Z M 36.8 4 C 36.8 4 33.9 4 33.9 4 C 33.9 4.9 34.5 5.4 35.3 5.4 C 35.7 5.4 36.2 5.2 36.6 4.8 C 36.6 4.8 36.6 5.4 36.6 5.4 C 36.2 5.7 35.8 5.9 35.3 5.9 C 34.1 5.9 33.4 5.1 33.4 3.9 C 33.4 2.6 34.2 1.8 35.2 1.8 C 36.1 1.8 36.8 2.5 36.8 3.8 C 36.8 3.9 36.8 3.9 36.8 4 Z M 36.3 3.6 C 36.3 2.7 35.8 2.3 35.2 2.3 C 34.5 2.3 34 2.8 33.9 3.6 C 33.9 3.6 36.3 3.6 36.3 3.6 Z M 42.9 3.2 C 42.92 3.22 42.9 5.8 42.9 5.8 L 42.4 5.8 C 42.4 5.8 42.43 3.43 42.4 3.4 C 42.4 2.7 42.1 2.3 41.4 2.3 C 40.8 2.3 40.4 2.8 40.4 3.4 C 40.37 3.38 40.4 5.8 40.4 5.8 L 39.9 5.8 L 39.9 1.9 L 40.3 1.9 L 40.3 2.5 C 40.3 2.5 40.33 2.5 40.3 2.5 C 40.5 2.1 41 1.8 41.5 1.8 C 42.4 1.8 42.9 2.4 42.9 3.2 Z M 43.9 3.8 C 43.9 2.6 44.8 1.8 45.7 1.8 C 46.2 1.8 46.8 2.1 47.1 2.7 C 47.1 2.66 47.2 1.9 47.2 1.9 L 47.6 1.9 L 47.6 5.8 L 47.2 5.8 C 47.2 5.8 47.1 5.01 47.1 5 C 46.8 5.6 46.2 5.9 45.7 5.9 C 44.8 5.9 43.9 5.1 43.9 3.8 Z M 47.1 3.8 C 47.1 2.9 46.5 2.3 45.7 2.3 C 45 2.3 44.4 2.9 44.4 3.8 C 44.4 4.8 45 5.4 45.7 5.4 C 46.5 5.4 47.1 4.8 47.1 3.8 Z M 48.4 1.9 L 48.9 1.9 L 50.1 5.2 L 50.1 5.2 L 51.3 1.9 L 51.8 1.9 L 50.4 5.8 L 49.8 5.8 L 48.4 1.9 Z M 52.5 0.6 C 52.5 0.4 52.7 0.2 52.9 0.2 C 53.1 0.2 53.2 0.4 53.2 0.6 C 53.2 0.7 53.1 0.9 52.9 0.9 C 52.7 0.9 52.5 0.7 52.5 0.6 Z M 52.6 1.9 L 53.1 1.9 L 53.1 5.8 L 52.6 5.8 L 52.6 1.9 Z M 57.4 2.6 C 57.36 2.61 57.4 1.9 57.4 1.9 L 57.8 1.9 C 57.8 1.9 57.82 5.52 57.8 5.5 C 57.8 6.8 56.9 7.4 56 7.4 C 55.5 7.4 55 7.2 54.6 6.9 C 54.6 6.9 54.6 6.3 54.6 6.3 C 55 6.7 55.5 6.9 56 6.9 C 56.7 6.9 57.3 6.4 57.3 5.6 C 57.3 5.6 57.3 4.9 57.3 4.9 C 57 5.4 56.5 5.7 55.9 5.7 C 55 5.7 54.2 4.9 54.2 3.8 C 54.2 2.6 55 1.8 55.9 1.8 C 56.5 1.8 57.1 2.1 57.4 2.6 Z M 54.7 3.8 C 54.7 4.6 55.3 5.3 56 5.3 C 56.8 5.3 57.3 4.6 57.3 3.7 C 57.3 2.9 56.8 2.3 56 2.3 C 55.3 2.3 54.7 2.9 54.7 3.8 Z M 58.9 3.8 C 58.9 2.6 59.7 1.8 60.6 1.8 C 61.2 1.8 61.7 2.1 62 2.7 C 62.05 2.66 62.1 1.9 62.1 1.9 L 62.5 1.9 L 62.5 5.8 L 62.1 5.8 C 62.1 5.8 62.05 5.01 62 5 C 61.7 5.6 61.2 5.9 60.6 5.9 C 59.7 5.9 58.9 5.1 58.9 3.8 Z M 62 3.8 C 62 2.9 61.4 2.3 60.7 2.3 C 59.9 2.3 59.3 2.9 59.3 3.8 C 59.3 4.8 59.9 5.4 60.7 5.4 C 61.4 5.4 62 4.8 62 3.8 Z M 64.4 1.9 L 65.6 1.9 L 65.6 2.3 L 64.4 2.3 C 64.4 2.3 64.43 4.45 64.4 4.5 C 64.4 5.1 64.8 5.4 65.3 5.4 C 65.4 5.4 65.5 5.4 65.7 5.3 C 65.7 5.3 65.7 5.8 65.7 5.8 C 65.6 5.8 65.4 5.8 65.2 5.8 C 64.5 5.8 63.9 5.3 63.9 4.5 C 63.94 4.47 63.9 2.3 63.9 2.3 L 63.4 2.3 L 63.4 1.9 L 64 1.9 L 64 1 L 64.4 1 L 64.4 1.9 Z M 66.4 0.6 C 66.4 0.4 66.5 0.2 66.7 0.2 C 66.9 0.2 67.1 0.4 67.1 0.6 C 67.1 0.7 66.9 0.9 66.7 0.9 C 66.5 0.9 66.4 0.7 66.4 0.6 Z M 66.5 1.9 L 67 1.9 L 67 5.8 L 66.5 5.8 L 66.5 1.9 Z M 68 3.8 C 68 2.7 68.8 1.8 69.9 1.8 C 71 1.8 71.8 2.7 71.8 3.8 C 71.8 5 71 5.9 69.9 5.9 C 68.8 5.9 68 5 68 3.8 Z M 71.3 3.8 C 71.3 2.9 70.7 2.3 69.9 2.3 C 69.2 2.3 68.5 2.9 68.5 3.8 C 68.5 4.8 69.2 5.4 69.9 5.4 C 70.7 5.4 71.3 4.8 71.3 3.8 Z M 75.9 3.2 C 75.9 3.22 75.9 5.8 75.9 5.8 L 75.4 5.8 C 75.4 5.8 75.41 3.43 75.4 3.4 C 75.4 2.7 75.1 2.3 74.4 2.3 C 73.8 2.3 73.4 2.8 73.4 3.4 C 73.35 3.38 73.4 5.8 73.4 5.8 L 72.9 5.8 L 72.9 1.9 L 73.2 1.9 L 73.3 2.5 C 73.3 2.5 73.31 2.5 73.3 2.5 C 73.5 2.1 74 1.8 74.5 1.8 C 75.3 1.8 75.9 2.4 75.9 3.2 Z " stroke="none" fill="#fff"/>
  </g>
</svg>