<?xml version="1.0" standalone="no"?>
<!DOCTYPE svg PUBLIC "-//W3C//DTD SVG 1.1//EN" "http://www.w3.org/Graphics/SVG/1.1/DTD/svg11.dtd">
<svg xmlns="http://www.w3.org/2000/svg" version="1.1" width="233px" height="34.1px" viewBox="0 0 233 34.1">
  <desc>R GLAGES</desc>
  <defs/>
  <g id="Polygon26973">
    <path d="M 75.3 16.3 L 70.1 16.3 L 67.2 11.6 L 67.1 11.6 L 67.1 16.3 L 62.7 16.3 L 62.7 1.1 C 62.7 1.1 68.11 1.08 68.1 1.1 C 71.9 1.1 74.6 2.8 74.6 6.4 C 74.6 7.8 73.9 9.9 71.4 10.9 C 71.4 10.92 75.3 16.3 75.3 16.3 Z M 68.1 8.3 C 69.2 8.3 70.1 7.7 70.1 6.7 C 70.1 5.6 69.2 5.1 68.1 5.1 C 68.07 5.08 67.1 5.1 67.1 5.1 L 67.1 8.3 C 67.1 8.3 68.09 8.25 68.1 8.3 Z M 86.1 -3.8 L 82.9 -0.1 L 79.8 -0.1 L 82 -3.8 L 86.1 -3.8 Z M 76.8 1.1 L 87.3 1.1 L 87.3 5 L 81.3 5 L 81.3 6.9 L 86.7 6.9 L 86.7 10.4 L 81.3 10.4 L 81.3 12.3 L 87.3 12.3 L 87.3 16.3 L 76.8 16.3 L 76.8 1.1 Z M 96.9 12.7 C 97.5 12.7 98 12.5 98.4 12.3 C 98.44 12.32 98.4 8.1 98.4 8.1 L 102.4 8.1 C 102.4 8.1 102.44 14.88 102.4 14.9 C 101 15.9 99.1 16.6 96.8 16.6 C 92.4 16.6 88.7 13.6 88.7 8.7 C 88.7 3.8 92.5 0.7 96.8 0.7 C 98.8 0.7 100.5 1.2 101.7 1.9 C 101.7 1.9 101.7 6.2 101.7 6.2 C 100.4 5.1 98.7 4.8 97.5 4.8 C 94.7 4.8 93.2 6.6 93.2 8.8 C 93.2 11 94.7 12.7 96.9 12.7 Z M 104.6 1.1 L 109 1.1 L 109 12.3 L 115 12.3 L 115 16.3 L 104.6 16.3 L 104.6 1.1 Z M 126.9 16.3 L 125.9 13.3 L 120.9 13.3 L 119.9 16.3 L 115.3 16.3 L 120.8 1.1 L 125.9 1.1 L 131.5 16.3 L 126.9 16.3 Z M 122 9.7 L 124.7 9.7 L 123.3 5.6 L 122 9.7 Z M 139.5 12.7 C 140.1 12.7 140.7 12.5 141.1 12.3 C 141.09 12.32 141.1 8.1 141.1 8.1 L 145.1 8.1 C 145.1 8.1 145.1 14.88 145.1 14.9 C 143.6 15.9 141.8 16.6 139.5 16.6 C 135.1 16.6 131.3 13.6 131.3 8.7 C 131.3 3.8 135.1 0.7 139.5 0.7 C 141.5 0.7 143.1 1.2 144.3 1.9 C 144.3 1.9 144.3 6.2 144.3 6.2 C 143 5.1 141.4 4.8 140.1 4.8 C 137.4 4.8 135.8 6.6 135.8 8.8 C 135.8 11 137.4 12.7 139.5 12.7 Z M 147.2 1.1 L 157.7 1.1 L 157.7 5 L 151.7 5 L 151.7 6.9 L 157.1 6.9 L 157.1 10.4 L 151.7 10.4 L 151.7 12.3 L 157.7 12.3 L 157.7 16.3 L 147.2 16.3 L 147.2 1.1 Z M 169.7 1.8 C 169.7 1.8 169.7 5.7 169.7 5.7 C 168.7 5 167.1 4.6 165.8 4.6 C 164.6 4.6 163.9 5 163.9 5.5 C 163.9 6 164.6 6.2 165.8 6.7 C 167.8 7.4 170.6 8.3 170.6 11.6 C 170.6 14.5 168.4 16.6 164.6 16.6 C 162.6 16.6 160.8 16 159.7 15.3 C 159.7 15.3 159.7 11.2 159.7 11.2 C 160.8 12.1 162.5 12.8 164.1 12.8 C 165.4 12.8 166.1 12.3 166.1 11.7 C 166.1 11 165 10.6 163.8 10.2 C 162.2 9.6 159.6 8.5 159.6 5.6 C 159.6 2.9 161.7 0.8 165.4 0.8 C 167.1 0.8 168.6 1.2 169.7 1.8 Z " stroke="none" fill="#444443"/>
  </g>
</svg>