<?xml version="1.0" standalone="no"?>
<!DOCTYPE svg PUBLIC "-//W3C//DTD SVG 1.1//EN" "http://www.w3.org/Graphics/SVG/1.1/DTD/svg11.dtd">
<svg xmlns="http://www.w3.org/2000/svg" version="1.1" width="233px" height="34.1px" viewBox="0 0 233 34.1">
  <desc>RANGEMENTS</desc>
  <defs/>
  <g id="Polygon30448">
    <path d="M 55.3 16.3 L 50.1 16.3 L 47.2 11.6 L 47.1 11.6 L 47.1 16.3 L 42.7 16.3 L 42.7 1.1 C 42.7 1.1 48.06 1.08 48.1 1.1 C 51.9 1.1 54.5 2.8 54.5 6.4 C 54.5 7.8 53.9 9.9 51.4 10.9 C 51.36 10.92 55.3 16.3 55.3 16.3 Z M 48 8.3 C 49.2 8.3 50 7.7 50 6.7 C 50 5.6 49.2 5.1 48 5.1 C 48.02 5.08 47.1 5.1 47.1 5.1 L 47.1 8.3 C 47.1 8.3 48.04 8.25 48 8.3 Z M 66.9 16.3 L 65.9 13.3 L 60.9 13.3 L 59.9 16.3 L 55.3 16.3 L 60.8 1.1 L 65.9 1.1 L 71.5 16.3 L 66.9 16.3 Z M 62 9.7 L 64.7 9.7 L 63.4 5.6 L 62 9.7 Z M 86.6 16.3 L 82.4 16.3 L 77 8.1 L 76.9 8.1 L 76.9 16.3 L 72.7 16.3 L 72.7 1.1 L 77 1.1 L 82.4 9.1 L 82.4 9.1 L 82.4 1.1 L 86.6 1.1 L 86.6 16.3 Z M 96.8 12.7 C 97.3 12.7 97.9 12.5 98.3 12.3 C 98.3 12.32 98.3 8.1 98.3 8.1 L 102.3 8.1 C 102.3 8.1 102.3 14.88 102.3 14.9 C 100.8 15.9 99 16.6 96.7 16.6 C 92.3 16.6 88.5 13.6 88.5 8.7 C 88.5 3.8 92.3 0.7 96.7 0.7 C 98.7 0.7 100.3 1.2 101.5 1.9 C 101.5 1.9 101.5 6.2 101.5 6.2 C 100.2 5.1 98.6 4.8 97.3 4.8 C 94.6 4.8 93 6.6 93 8.8 C 93 11 94.6 12.7 96.8 12.7 Z M 104.4 1.1 L 114.9 1.1 L 114.9 5 L 108.9 5 L 108.9 6.9 L 114.3 6.9 L 114.3 10.4 L 108.9 10.4 L 108.9 12.3 L 114.9 12.3 L 114.9 16.3 L 104.4 16.3 L 104.4 1.1 Z M 120.6 16.3 L 116.4 16.3 L 118.5 1.1 L 123.7 1.1 L 126.1 9.5 L 126.1 9.5 L 128.5 1.1 L 133.5 1.1 L 135.6 16.3 L 131.4 16.3 L 130.5 7.1 L 130.4 7.1 L 127.8 16.3 L 124.1 16.3 L 121.6 7.1 L 121.5 7.1 L 120.6 16.3 Z M 137.4 1.1 L 147.9 1.1 L 147.9 5 L 141.9 5 L 141.9 6.9 L 147.3 6.9 L 147.3 10.4 L 141.9 10.4 L 141.9 12.3 L 147.9 12.3 L 147.9 16.3 L 137.4 16.3 L 137.4 1.1 Z M 164.1 16.3 L 159.9 16.3 L 154.4 8.1 L 154.4 8.1 L 154.4 16.3 L 150.2 16.3 L 150.2 1.1 L 154.4 1.1 L 159.9 9.1 L 159.9 9.1 L 159.9 1.1 L 164.1 1.1 L 164.1 16.3 Z M 170 5.1 L 165.8 5.1 L 165.8 1.1 L 178.6 1.1 L 178.6 5.1 L 174.5 5.1 L 174.5 16.3 L 170 16.3 L 170 5.1 Z M 189.7 1.8 C 189.7 1.8 189.7 5.7 189.7 5.7 C 188.7 5 187.1 4.6 185.8 4.6 C 184.6 4.6 184 5 184 5.5 C 184 6 184.7 6.2 185.9 6.7 C 187.9 7.4 190.7 8.3 190.7 11.6 C 190.7 14.5 188.5 16.6 184.7 16.6 C 182.7 16.6 180.9 16 179.8 15.3 C 179.8 15.3 179.8 11.2 179.8 11.2 C 180.9 12.1 182.5 12.8 184.1 12.8 C 185.5 12.8 186.1 12.3 186.1 11.7 C 186.1 11 185.1 10.6 183.8 10.2 C 182.2 9.6 179.6 8.5 179.6 5.6 C 179.6 2.9 181.7 0.8 185.5 0.8 C 187.1 0.8 188.6 1.2 189.7 1.8 Z " stroke="none" fill="#444443"/>
  </g>
</svg>