<?xml version="1.0" standalone="no"?>
<!DOCTYPE svg PUBLIC "-//W3C//DTD SVG 1.1//EN" "http://www.w3.org/Graphics/SVG/1.1/DTD/svg11.dtd">
<svg xmlns="http://www.w3.org/2000/svg" version="1.1" width="491.1px" height="71.2px" viewBox="0 0 491.1 71.2">
  <desc>Modulez votre environnement de travail</desc>
  <defs/>
  <g id="Polygon30565">
    <path d="M 115.9 12.7 L 115.7 12.7 L 115.2 1.3 L 115.2 1.3 L 109.5 12.7 L 109.3 12.7 L 106.7 1.3 L 106.7 1.3 L 103.3 12.7 L 103 12.7 L 106.6 0.9 L 106.8 0.9 L 109.4 12.4 L 109.5 12.4 L 115.2 0.9 L 115.4 0.9 L 115.9 12.7 Z M 118.3 9.2 C 118.3 6.2 120.5 4.3 122.8 4.3 C 124.7 4.3 126.2 5.6 126.2 7.9 C 126.2 10.9 124 12.8 121.8 12.8 C 119.9 12.8 118.3 11.4 118.3 9.2 Z M 126 7.9 C 126 5.7 124.6 4.5 122.8 4.5 C 120.6 4.5 118.6 6.2 118.6 9.2 C 118.6 11.4 120 12.6 121.8 12.6 C 123.9 12.6 126 10.8 126 7.9 Z M 135.1 12.7 L 134.9 12.7 L 135.2 10 C 135.2 10 135.22 10.05 135.2 10 C 134.5 11.9 133 12.8 131.4 12.8 C 129.6 12.8 128 11.5 128 9.2 C 128 6.2 130.2 4.3 132.4 4.3 C 134 4.3 135.4 5.4 135.6 7.2 C 135.62 7.17 135.6 7.2 135.6 7.2 L 136.6 0.1 L 136.8 0.1 L 135.1 12.7 Z M 128.3 9.2 C 128.3 11.4 129.7 12.6 131.4 12.6 C 133.4 12.6 135.5 10.8 135.5 7.9 C 135.5 5.7 134.1 4.5 132.4 4.5 C 130.3 4.5 128.3 6.3 128.3 9.2 Z M 144.5 9.8 C 144.2 11.9 142.9 12.8 141.4 12.8 C 139.7 12.8 138.5 11.8 138.5 10.1 C 138.5 9.9 138.5 9.6 138.6 9.4 C 138.56 9.45 139.3 4.4 139.3 4.4 L 139.5 4.4 C 139.5 4.4 138.76 9.45 138.8 9.4 C 138.7 9.6 138.7 9.8 138.7 10.1 C 138.7 11.7 139.8 12.6 141.3 12.6 C 142.7 12.6 144 11.8 144.2 9.8 C 144.25 9.8 145 4.4 145 4.4 L 145.2 4.4 C 145.2 4.4 144.46 9.8 144.5 9.8 Z M 148.9 0.1 L 149.1 0.1 L 147.4 12.7 L 147.1 12.7 L 148.9 0.1 Z M 150.7 8.6 C 150.7 8.7 150.7 8.9 150.7 9.1 C 150.7 11.3 152 12.6 154.1 12.6 C 155.3 12.6 156.3 12.2 157.2 11.4 C 157.2 11.4 157.1 11.7 157.1 11.7 C 156.3 12.4 155.3 12.8 154.1 12.8 C 151.9 12.8 150.5 11.4 150.5 9.1 C 150.5 6.3 152.4 4.3 154.7 4.3 C 156.5 4.3 157.8 5.6 157.8 7.7 C 157.8 8 157.8 8.3 157.7 8.6 C 157.7 8.6 150.7 8.6 150.7 8.6 Z M 150.8 8.4 C 150.8 8.4 157.5 8.4 157.5 8.4 C 157.6 8.1 157.6 7.8 157.6 7.7 C 157.6 5.7 156.4 4.5 154.6 4.5 C 152.7 4.5 151 6 150.8 8.4 Z M 164.3 12.7 L 158.5 12.7 L 165.4 4.6 L 165.4 4.6 L 160.1 4.6 L 160.1 4.4 L 165.8 4.4 L 158.9 12.5 L 158.9 12.5 L 164.3 12.5 L 164.3 12.7 Z M 171.3 4.4 L 171.5 4.4 L 173.4 12.5 L 173.4 12.5 L 177.6 4.4 L 177.8 4.4 L 173.5 12.7 L 173.3 12.7 L 171.3 4.4 Z M 178.5 9.2 C 178.5 6.2 180.6 4.3 182.9 4.3 C 184.8 4.3 186.3 5.6 186.3 7.9 C 186.3 10.9 184.2 12.8 181.9 12.8 C 180 12.8 178.5 11.4 178.5 9.2 Z M 186.1 7.9 C 186.1 5.7 184.7 4.5 182.9 4.5 C 180.7 4.5 178.7 6.2 178.7 9.2 C 178.7 11.4 180.1 12.6 181.9 12.6 C 184 12.6 186.1 10.8 186.1 7.9 Z M 190.6 12.8 C 189.5 12.8 188.6 12.3 188.6 10.9 C 188.6 10.8 188.6 10.6 188.6 10.4 C 188.61 10.38 189.4 4.6 189.4 4.6 L 188.1 4.6 L 188.2 4.4 L 189.5 4.4 L 189.7 2.4 L 189.9 2.4 L 189.7 4.4 L 192.2 4.4 L 192.2 4.6 L 189.6 4.6 C 189.6 4.6 188.82 10.38 188.8 10.4 C 188.8 10.6 188.8 10.8 188.8 10.9 C 188.8 12.2 189.6 12.6 190.6 12.6 C 190.9 12.6 191.1 12.6 191.3 12.5 C 191.3 12.5 191.3 12.7 191.3 12.7 C 191.2 12.8 190.8 12.8 190.6 12.8 Z M 194.3 4.4 L 194.1 6.2 C 194.1 6.2 194.1 6.22 194.1 6.2 C 194.7 5 195.8 4.3 196.9 4.3 C 197 4.3 197.2 4.3 197.3 4.4 C 197.3 4.4 197.3 4.5 197.3 4.5 C 197.2 4.5 197 4.5 196.9 4.5 C 195.5 4.5 194.3 5.5 194 7.1 C 193.97 7.09 193.2 12.7 193.2 12.7 L 193 12.7 L 194.1 4.4 L 194.3 4.4 Z M 197.6 8.6 C 197.6 8.7 197.6 8.9 197.6 9.1 C 197.6 11.3 198.9 12.6 201 12.6 C 202.2 12.6 203.2 12.2 204.1 11.4 C 204.1 11.4 204 11.7 204 11.7 C 203.2 12.4 202.2 12.8 201 12.8 C 198.8 12.8 197.4 11.4 197.4 9.1 C 197.4 6.3 199.3 4.3 201.6 4.3 C 203.4 4.3 204.7 5.6 204.7 7.7 C 204.7 8 204.7 8.3 204.6 8.6 C 204.6 8.6 197.6 8.6 197.6 8.6 Z M 197.7 8.4 C 197.7 8.4 204.4 8.4 204.4 8.4 C 204.5 8.1 204.5 7.8 204.5 7.7 C 204.5 5.7 203.3 4.5 201.5 4.5 C 199.6 4.5 197.9 6 197.7 8.4 Z M 211.4 8.6 C 211.4 8.7 211.4 8.9 211.4 9.1 C 211.4 11.3 212.7 12.6 214.8 12.6 C 216 12.6 216.9 12.2 217.9 11.4 C 217.9 11.4 217.8 11.7 217.8 11.7 C 217 12.4 215.9 12.8 214.8 12.8 C 212.6 12.8 211.2 11.4 211.2 9.1 C 211.2 6.3 213.1 4.3 215.3 4.3 C 217.2 4.3 218.5 5.6 218.5 7.7 C 218.5 8 218.4 8.3 218.4 8.6 C 218.4 8.6 211.4 8.6 211.4 8.6 Z M 211.4 8.4 C 211.4 8.4 218.2 8.4 218.2 8.4 C 218.3 8.1 218.3 7.8 218.3 7.7 C 218.3 5.7 217 4.5 215.3 4.5 C 213.4 4.5 211.7 6 211.4 8.4 Z M 221.6 4.4 L 221.4 6.1 C 221.4 6.1 221.43 6.09 221.4 6.1 C 222 4.9 223.2 4.3 224.5 4.3 C 226 4.3 227.1 5.1 227.1 6.6 C 227.1 6.7 227.1 6.9 227 7.2 C 227.01 7.25 226.2 12.7 226.2 12.7 L 226 12.7 C 226 12.7 226.81 7.25 226.8 7.2 C 226.9 6.9 226.9 6.7 226.9 6.6 C 226.9 5.2 225.9 4.5 224.5 4.5 C 222.9 4.5 221.5 5.5 221.3 7 C 221.3 7.03 220.5 12.7 220.5 12.7 L 220.3 12.7 L 221.5 4.4 L 221.6 4.4 Z M 229.2 4.4 L 229.4 4.4 L 231.3 12.5 L 231.4 12.5 L 235.5 4.4 L 235.7 4.4 L 231.4 12.7 L 231.2 12.7 L 229.2 4.4 Z M 238.8 1.1 C 238.8 1.3 238.7 1.5 238.5 1.5 C 238.3 1.5 238.2 1.4 238.2 1.2 C 238.2 1 238.4 0.9 238.6 0.9 C 238.7 0.9 238.8 1 238.8 1.1 Z M 238 4.4 L 238.2 4.4 L 237 12.7 L 236.8 12.7 L 238 4.4 Z M 241.6 4.4 L 241.4 6.2 C 241.4 6.2 241.39 6.22 241.4 6.2 C 241.9 5 243.1 4.3 244.2 4.3 C 244.3 4.3 244.5 4.3 244.6 4.4 C 244.6 4.4 244.6 4.5 244.6 4.5 C 244.5 4.5 244.3 4.5 244.2 4.5 C 242.8 4.5 241.6 5.5 241.3 7.1 C 241.26 7.09 240.5 12.7 240.5 12.7 L 240.3 12.7 L 241.4 4.4 L 241.6 4.4 Z M 244.7 9.2 C 244.7 6.2 246.8 4.3 249.1 4.3 C 251 4.3 252.5 5.6 252.5 7.9 C 252.5 10.9 250.4 12.8 248.1 12.8 C 246.2 12.8 244.7 11.4 244.7 9.2 Z M 252.3 7.9 C 252.3 5.7 250.9 4.5 249.1 4.5 C 247 4.5 244.9 6.2 244.9 9.2 C 244.9 11.4 246.3 12.6 248.1 12.6 C 250.3 12.6 252.3 10.8 252.3 7.9 Z M 255.8 4.4 L 255.6 6.1 C 255.6 6.1 255.59 6.09 255.6 6.1 C 256.2 4.9 257.4 4.3 258.7 4.3 C 260.2 4.3 261.2 5.1 261.2 6.6 C 261.2 6.7 261.2 6.9 261.2 7.2 C 261.17 7.25 260.4 12.7 260.4 12.7 L 260.2 12.7 C 260.2 12.7 260.96 7.25 261 7.2 C 261 6.9 261 6.7 261 6.6 C 261 5.2 260.1 4.5 258.6 4.5 C 257.1 4.5 255.7 5.5 255.5 7 C 255.46 7.03 254.7 12.7 254.7 12.7 L 254.5 12.7 L 255.6 4.4 L 255.8 4.4 Z M 264.8 4.4 L 264.6 6.1 C 264.6 6.1 264.59 6.09 264.6 6.1 C 265.2 4.9 266.3 4.3 267.7 4.3 C 269.2 4.3 270.2 5.1 270.2 6.6 C 270.2 6.7 270.2 6.9 270.2 7.2 C 270.16 7.25 269.4 12.7 269.4 12.7 L 269.2 12.7 C 269.2 12.7 269.96 7.25 270 7.2 C 270 6.9 270 6.7 270 6.6 C 270 5.2 269.1 4.5 267.6 4.5 C 266.1 4.5 264.7 5.5 264.5 7 C 264.46 7.03 263.7 12.7 263.7 12.7 L 263.5 12.7 L 264.6 4.4 L 264.8 4.4 Z M 272.6 8.6 C 272.6 8.7 272.6 8.9 272.6 9.1 C 272.6 11.3 273.9 12.6 276 12.6 C 277.2 12.6 278.1 12.2 279.1 11.4 C 279.1 11.4 279 11.7 279 11.7 C 278.2 12.4 277.1 12.8 276 12.8 C 273.8 12.8 272.4 11.4 272.4 9.1 C 272.4 6.3 274.3 4.3 276.5 4.3 C 278.4 4.3 279.7 5.6 279.7 7.7 C 279.7 8 279.6 8.3 279.6 8.6 C 279.6 8.6 272.6 8.6 272.6 8.6 Z M 272.6 8.4 C 272.6 8.4 279.4 8.4 279.4 8.4 C 279.5 8.1 279.5 7.8 279.5 7.7 C 279.5 5.7 278.2 4.5 276.5 4.5 C 274.6 4.5 272.9 6 272.6 8.4 Z M 282.8 4.4 L 282.6 6 C 282.6 6 282.65 5.98 282.6 6 C 283.1 4.9 284.1 4.3 285.1 4.3 C 286.3 4.3 287.1 5 287.2 6.2 C 287.8 4.9 288.8 4.3 289.9 4.3 C 291.1 4.3 292 5.1 292 6.5 C 292 6.7 292 6.9 291.9 7.2 C 291.92 7.25 291.2 12.7 291.2 12.7 L 290.9 12.7 C 290.9 12.7 291.71 7.25 291.7 7.2 C 291.8 6.9 291.8 6.7 291.8 6.5 C 291.8 5.2 291 4.5 289.8 4.5 C 288.6 4.5 287.4 5.5 287.2 7 C 287.23 7.03 286.4 12.7 286.4 12.7 L 286.2 12.7 C 286.2 12.7 286.99 7.25 287 7.2 C 287 6.9 287.1 6.7 287.1 6.5 C 287.1 5.2 286.3 4.5 285.1 4.5 C 283.9 4.5 282.7 5.5 282.5 7 C 282.5 7.03 281.7 12.7 281.7 12.7 L 281.5 12.7 L 282.7 4.4 L 282.8 4.4 Z M 294.4 8.6 C 294.4 8.7 294.4 8.9 294.4 9.1 C 294.4 11.3 295.6 12.6 297.8 12.6 C 298.9 12.6 299.9 12.2 300.8 11.4 C 300.8 11.4 300.8 11.7 300.8 11.7 C 299.9 12.4 298.9 12.8 297.7 12.8 C 295.5 12.8 294.2 11.4 294.2 9.1 C 294.2 6.3 296.1 4.3 298.3 4.3 C 300.1 4.3 301.4 5.6 301.4 7.7 C 301.4 8 301.4 8.3 301.4 8.6 C 301.4 8.6 294.4 8.6 294.4 8.6 Z M 294.4 8.4 C 294.4 8.4 301.2 8.4 301.2 8.4 C 301.2 8.1 301.2 7.8 301.2 7.7 C 301.2 5.7 300 4.5 298.3 4.5 C 296.4 4.5 294.7 6 294.4 8.4 Z M 304.6 4.4 L 304.4 6.1 C 304.4 6.1 304.4 6.09 304.4 6.1 C 305 4.9 306.2 4.3 307.5 4.3 C 309 4.3 310 5.1 310 6.6 C 310 6.7 310 6.9 310 7.2 C 309.98 7.25 309.2 12.7 309.2 12.7 L 309 12.7 C 309 12.7 309.77 7.25 309.8 7.2 C 309.8 6.9 309.8 6.7 309.8 6.6 C 309.8 5.2 308.9 4.5 307.4 4.5 C 305.9 4.5 304.5 5.5 304.3 7 C 304.27 7.03 303.5 12.7 303.5 12.7 L 303.3 12.7 L 304.4 4.4 L 304.6 4.4 Z M 314.7 12.8 C 313.5 12.8 312.6 12.3 312.6 10.9 C 312.6 10.8 312.6 10.6 312.6 10.4 C 312.64 10.38 313.4 4.6 313.4 4.6 L 312.2 4.6 L 312.2 4.4 L 313.5 4.4 L 313.8 2.4 L 314 2.4 L 313.7 4.4 L 316.2 4.4 L 316.2 4.6 L 313.7 4.6 C 313.7 4.6 312.84 10.38 312.8 10.4 C 312.8 10.6 312.8 10.8 312.8 10.9 C 312.8 12.2 313.6 12.6 314.7 12.6 C 314.9 12.6 315.1 12.6 315.4 12.5 C 315.4 12.5 315.3 12.7 315.3 12.7 C 315.2 12.8 314.9 12.8 314.7 12.8 Z M 328.4 12.7 L 328.3 12.7 L 328.6 10 C 328.6 10 328.6 10.05 328.6 10 C 327.9 11.9 326.4 12.8 324.8 12.8 C 323 12.8 321.4 11.5 321.4 9.2 C 321.4 6.2 323.6 4.3 325.8 4.3 C 327.4 4.3 328.7 5.4 329 7.2 C 329 7.17 329 7.2 329 7.2 L 330 0.1 L 330.2 0.1 L 328.4 12.7 Z M 321.6 9.2 C 321.6 11.4 323.1 12.6 324.8 12.6 C 326.8 12.6 328.9 10.8 328.9 7.9 C 328.9 5.7 327.4 4.5 325.8 4.5 C 323.7 4.5 321.6 6.3 321.6 9.2 Z M 331.8 8.6 C 331.7 8.7 331.7 8.9 331.7 9.1 C 331.7 11.3 333 12.6 335.1 12.6 C 336.3 12.6 337.3 12.2 338.2 11.4 C 338.2 11.4 338.2 11.7 338.2 11.7 C 337.3 12.4 336.3 12.8 335.1 12.8 C 332.9 12.8 331.5 11.4 331.5 9.1 C 331.5 6.3 333.4 4.3 335.7 4.3 C 337.5 4.3 338.8 5.6 338.8 7.7 C 338.8 8 338.8 8.3 338.7 8.6 C 338.7 8.6 331.8 8.6 331.8 8.6 Z M 331.8 8.4 C 331.8 8.4 338.6 8.4 338.6 8.4 C 338.6 8.1 338.6 7.8 338.6 7.7 C 338.6 5.7 337.4 4.5 335.7 4.5 C 333.8 4.5 332.1 6 331.8 8.4 Z M 347.9 12.8 C 346.7 12.8 345.8 12.3 345.8 10.9 C 345.8 10.8 345.8 10.6 345.8 10.4 C 345.84 10.38 346.6 4.6 346.6 4.6 L 345.4 4.6 L 345.4 4.4 L 346.7 4.4 L 347 2.4 L 347.2 2.4 L 346.9 4.4 L 349.4 4.4 L 349.4 4.6 L 346.9 4.6 C 346.9 4.6 346.04 10.38 346 10.4 C 346 10.6 346 10.8 346 10.9 C 346 12.2 346.8 12.6 347.9 12.6 C 348.1 12.6 348.3 12.6 348.6 12.5 C 348.6 12.5 348.5 12.7 348.5 12.7 C 348.4 12.8 348.1 12.8 347.9 12.8 Z M 351.5 4.4 L 351.3 6.2 C 351.3 6.2 351.32 6.22 351.3 6.2 C 351.9 5 353 4.3 354.1 4.3 C 354.2 4.3 354.5 4.3 354.6 4.4 C 354.6 4.4 354.5 4.5 354.5 4.5 C 354.4 4.5 354.2 4.5 354.1 4.5 C 352.8 4.5 351.5 5.5 351.2 7.1 C 351.19 7.09 350.4 12.7 350.4 12.7 L 350.2 12.7 L 351.4 4.4 L 351.5 4.4 Z M 361.6 12.7 L 361.4 12.7 L 361.8 10 C 361.8 10 361.78 10.05 361.8 10 C 361.1 11.9 359.5 12.8 358 12.8 C 356.2 12.8 354.6 11.5 354.6 9.1 C 354.6 6.3 356.8 4.3 359 4.3 C 360.6 4.3 361.9 5.4 362.2 7.2 C 362.18 7.17 362.2 7.2 362.2 7.2 L 362.6 4.4 L 362.8 4.4 L 361.6 12.7 Z M 354.8 9.1 C 354.8 11.4 356.3 12.6 358 12.6 C 360.3 12.6 362.1 10.4 362.1 7.9 C 362.1 5.7 360.6 4.5 358.9 4.5 C 356.9 4.5 354.8 6.4 354.8 9.1 Z M 365 4.4 L 365.2 4.4 L 367.1 12.5 L 367.1 12.5 L 371.3 4.4 L 371.5 4.4 L 367.2 12.7 L 367 12.7 L 365 4.4 Z M 379.2 12.7 L 379 12.7 L 379.4 10 C 379.4 10 379.35 10.05 379.4 10 C 378.6 11.9 377.1 12.8 375.6 12.8 C 373.8 12.8 372.2 11.5 372.2 9.1 C 372.2 6.3 374.3 4.3 376.5 4.3 C 378.1 4.3 379.5 5.4 379.7 7.2 C 379.75 7.17 379.8 7.2 379.8 7.2 L 380.2 4.4 L 380.4 4.4 L 379.2 12.7 Z M 372.4 9.1 C 372.4 11.4 373.9 12.6 375.6 12.6 C 377.9 12.6 379.6 10.4 379.6 7.9 C 379.6 5.7 378.1 4.5 376.5 4.5 C 374.4 4.5 372.4 6.4 372.4 9.1 Z M 384.4 1.1 C 384.4 1.3 384.2 1.5 384 1.5 C 383.9 1.5 383.8 1.4 383.8 1.2 C 383.8 1 383.9 0.9 384.1 0.9 C 384.3 0.9 384.4 1 384.4 1.1 Z M 383.6 4.4 L 383.8 4.4 L 382.6 12.7 L 382.4 12.7 L 383.6 4.4 Z M 387.7 0.1 L 387.9 0.1 L 386.1 12.7 L 385.9 12.7 L 387.7 0.1 Z " stroke="none" fill="#000"/>
  </g>
</svg>