<?xml version="1.0" standalone="no"?>
<!DOCTYPE svg PUBLIC "-//W3C//DTD SVG 1.1//EN" "http://www.w3.org/Graphics/SVG/1.1/DTD/svg11.dtd">
<svg xmlns="http://www.w3.org/2000/svg" version="1.1" width="27px" height="14.5px" viewBox="0 0 27 14.5">
  <desc>3 22</desc>
  <defs/>
  <g id="Polygon23565">
    <path d="M 2 0.3 C 3.1 0.3 3.8 1 3.8 1.8 C 3.8 2.4 3.4 2.9 2.9 3.2 C 2.9 3.2 2.9 3.2 2.9 3.2 C 3.5 3.4 3.9 3.8 3.9 4.6 C 3.9 5.5 3.3 6.2 2 6.2 C 1.4 6.2 0.9 6 0.5 5.7 C 0.5 5.7 0.5 4.9 0.5 4.9 C 0.8 5.3 1.4 5.6 2 5.6 C 2.7 5.6 3.2 5.1 3.2 4.5 C 3.2 3.9 2.7 3.5 1.9 3.5 C 1.91 3.52 1.2 3.5 1.2 3.5 L 1.2 2.9 C 1.2 2.9 1.75 2.92 1.8 2.9 C 2.6 2.9 3 2.5 3 1.9 C 3 1.4 2.7 1 2 1 C 1.4 1 0.9 1.2 0.6 1.6 C 0.6 1.6 0.6 0.8 0.6 0.8 C 0.9 0.5 1.5 0.3 2 0.3 Z M 7.2 -0.6 L 7.9 -0.6 L 5.4 7.2 L 4.7 7.2 L 7.2 -0.6 Z M 11.3 2.1 C 11.3 1.5 10.9 1 10.2 1 C 9.6 1 9.1 1.3 8.8 1.7 C 8.8 1.7 8.8 0.9 8.8 0.9 C 9.1 0.6 9.7 0.3 10.3 0.3 C 11.4 0.3 12.1 1.1 12.1 2.1 C 12.1 3 11.3 3.9 9.9 5.5 C 9.87 5.47 12.3 5.5 12.3 5.5 L 12.3 6.1 C 12.3 6.1 8.48 6.14 8.5 6.1 C 11 3.3 11.3 2.8 11.3 2.1 Z M 15.8 2.1 C 15.8 1.5 15.4 1 14.7 1 C 14.1 1 13.6 1.3 13.3 1.7 C 13.3 1.7 13.3 0.9 13.3 0.9 C 13.6 0.6 14.2 0.3 14.8 0.3 C 15.9 0.3 16.6 1.1 16.6 2.1 C 16.6 3 15.8 3.9 14.4 5.5 C 14.37 5.47 16.8 5.5 16.8 5.5 L 16.8 6.1 C 16.8 6.1 12.98 6.14 13 6.1 C 15.5 3.3 15.8 2.8 15.8 2.1 Z " stroke="none" fill="#000"/>
  </g>
</svg>