<?xml version="1.0" standalone="no"?>
<!DOCTYPE svg PUBLIC "-//W3C//DTD SVG 1.1//EN" "http://www.w3.org/Graphics/SVG/1.1/DTD/svg11.dtd">
<svg xmlns="http://www.w3.org/2000/svg" version="1.1" width="371.3px" height="85.4px" viewBox="0 0 371.3 85.4">
  <desc>Autour de ce mat riau innovant, nous avons pens un sc nario de vie bord complet, en prenant en compte la gestion d</desc>
  <defs/>
  <g id="Polygon17630">
    <path d="M 4.6 45.3 L 4.1 45.3 L 2.6 43.4 L 3.2 43.4 L 4.6 45.3 Z M 0.7 49.6 C 0.7 47.6 2.1 46.3 3.6 46.3 C 4.6 46.3 5.6 46.9 6.1 48 C 6.1 48.02 6.2 46.4 6.2 46.4 L 6.6 46.4 L 6.6 52.8 L 6.2 52.8 C 6.2 52.8 6.1 51.2 6.1 51.2 C 5.6 52.4 4.6 52.9 3.6 52.9 C 2.1 52.9 0.7 51.6 0.7 49.6 Z M 6.1 49.6 C 6.1 47.9 5 46.8 3.6 46.8 C 2.3 46.8 1.2 47.9 1.2 49.6 C 1.2 51.3 2.3 52.4 3.6 52.4 C 5 52.4 6.1 51.3 6.1 49.6 Z M 12.2 50.5 C 12.23 50.48 12.2 46.4 12.2 46.4 L 12.7 46.4 C 12.7 46.4 12.73 50.51 12.7 50.5 C 12.7 51.7 13.5 52.4 14.6 52.4 C 15.8 52.4 16.5 51.7 16.5 50.5 C 16.52 50.5 16.5 46.4 16.5 46.4 L 17 46.4 C 17 46.4 17.03 50.47 17 50.5 C 17 51.9 16.1 52.9 14.6 52.9 C 13.1 52.9 12.2 51.9 12.2 50.5 Z M 24 48.6 C 24.01 48.56 24 52.8 24 52.8 L 23.5 52.8 C 23.5 52.8 23.51 48.77 23.5 48.8 C 23.5 47.5 22.8 46.8 21.7 46.8 C 20.6 46.8 19.7 47.5 19.7 48.7 C 19.73 48.71 19.7 52.8 19.7 52.8 L 19.2 52.8 L 19.2 46.4 L 19.6 46.4 L 19.7 47.6 C 19.7 47.6 19.69 47.56 19.7 47.6 C 20 46.8 20.8 46.3 21.8 46.3 C 23.1 46.3 24 47.2 24 48.6 Z M 31.3 49.8 C 31.3 49.8 26.3 49.8 26.3 49.8 C 26.4 51.4 27.4 52.4 28.8 52.4 C 29.6 52.4 30.4 52.2 31.1 51.5 C 31.1 51.5 31.1 52.1 31.1 52.1 C 30.4 52.6 29.6 52.9 28.8 52.9 C 27 52.9 25.8 51.6 25.8 49.6 C 25.8 47.6 27.2 46.3 28.7 46.3 C 30.1 46.3 31.3 47.4 31.3 49.5 C 31.3 49.6 31.3 49.7 31.3 49.8 Z M 30.8 49.3 C 30.8 47.6 29.8 46.8 28.7 46.8 C 27.5 46.8 26.4 47.8 26.3 49.3 C 26.3 49.3 30.8 49.3 30.8 49.3 Z M 35.6 46.4 L 36.1 46.4 L 38.2 52.2 L 38.2 52.2 L 40.3 46.4 L 40.9 46.4 L 38.5 52.8 L 38 52.8 L 35.6 46.4 Z M 47.3 49.8 C 47.3 49.8 42.3 49.8 42.3 49.8 C 42.3 51.4 43.4 52.4 44.8 52.4 C 45.6 52.4 46.4 52.2 47.1 51.5 C 47.1 51.5 47.1 52.1 47.1 52.1 C 46.4 52.6 45.6 52.9 44.8 52.9 C 43 52.9 41.8 51.6 41.8 49.6 C 41.8 47.6 43.2 46.3 44.7 46.3 C 46.1 46.3 47.3 47.4 47.3 49.5 C 47.3 49.6 47.3 49.7 47.3 49.8 Z M 46.8 49.3 C 46.8 47.6 45.8 46.8 44.7 46.8 C 43.5 46.8 42.4 47.8 42.3 49.3 C 42.3 49.3 46.8 49.3 46.8 49.3 Z M 49.1 46.4 L 49.5 46.4 L 49.6 47.6 C 49.6 47.6 49.61 47.62 49.6 47.6 C 50 46.7 50.8 46.4 51.5 46.4 C 51.6 46.4 51.8 46.4 51.9 46.4 C 51.9 46.4 51.9 46.9 51.9 46.9 C 51.8 46.9 51.6 46.9 51.5 46.9 C 50.6 46.9 49.7 47.5 49.6 48.8 C 49.64 48.77 49.6 52.8 49.6 52.8 L 49.1 52.8 L 49.1 46.4 Z M 53.2 46.4 L 53.6 46.4 L 53.7 47.6 C 53.7 47.6 53.67 47.62 53.7 47.6 C 54.1 46.7 54.9 46.4 55.6 46.4 C 55.7 46.4 55.8 46.4 55.9 46.4 C 55.9 46.4 55.9 46.9 55.9 46.9 C 55.8 46.9 55.7 46.9 55.6 46.9 C 54.7 46.9 53.7 47.5 53.7 48.8 C 53.71 48.77 53.7 52.8 53.7 52.8 L 53.2 52.8 L 53.2 46.4 Z M 57.2 44.1 C 57.2 43.9 57.3 43.7 57.6 43.7 C 57.8 43.7 58 43.9 58 44.1 C 58 44.3 57.8 44.5 57.6 44.5 C 57.3 44.5 57.2 44.3 57.2 44.1 Z M 57.3 46.4 L 57.8 46.4 L 57.8 52.8 L 57.3 52.8 L 57.3 46.4 Z M 62.8 45.3 L 61.3 43.4 L 61.9 43.4 L 63.3 45.3 L 62.8 45.3 Z M 65.2 49.8 C 65.2 49.8 60.2 49.8 60.2 49.8 C 60.3 51.4 61.3 52.4 62.7 52.4 C 63.5 52.4 64.3 52.2 65 51.5 C 65 51.5 65 52.1 65 52.1 C 64.3 52.6 63.6 52.9 62.7 52.9 C 60.9 52.9 59.7 51.6 59.7 49.6 C 59.7 47.6 61.1 46.3 62.6 46.3 C 64.1 46.3 65.3 47.4 65.3 49.5 C 65.3 49.6 65.3 49.7 65.2 49.8 Z M 64.8 49.3 C 64.7 47.6 63.7 46.8 62.6 46.8 C 61.4 46.8 60.3 47.8 60.2 49.3 C 60.2 49.3 64.8 49.3 64.8 49.3 Z M 67.1 46.4 L 67.5 46.4 L 67.5 47.6 C 67.5 47.6 67.53 47.62 67.5 47.6 C 67.9 46.7 68.8 46.4 69.4 46.4 C 69.5 46.4 69.7 46.4 69.8 46.4 C 69.8 46.4 69.8 46.9 69.8 46.9 C 69.7 46.9 69.5 46.9 69.4 46.9 C 68.5 46.9 67.6 47.5 67.6 48.8 C 67.57 48.77 67.6 52.8 67.6 52.8 L 67.1 52.8 L 67.1 46.4 Z M 75.9 49.8 C 75.9 49.8 70.9 49.8 70.9 49.8 C 71 51.4 72 52.4 73.4 52.4 C 74.2 52.4 75 52.2 75.7 51.5 C 75.7 51.5 75.7 52.1 75.7 52.1 C 75 52.6 74.2 52.9 73.4 52.9 C 71.6 52.9 70.4 51.6 70.4 49.6 C 70.4 47.6 71.8 46.3 73.3 46.3 C 74.7 46.3 76 47.4 76 49.5 C 76 49.6 75.9 49.7 75.9 49.8 Z M 75.5 49.3 C 75.4 47.6 74.4 46.8 73.3 46.8 C 72.1 46.8 71 47.8 70.9 49.3 C 70.9 49.3 75.5 49.3 75.5 49.3 Z M 81.2 46.4 L 81.6 46.4 C 81.6 46.4 81.69 48.04 81.7 48 C 82.2 46.9 83.2 46.3 84.2 46.3 C 85.7 46.3 87.1 47.6 87.1 49.6 C 87.1 51.6 85.7 52.9 84.2 52.9 C 83.2 52.9 82.2 52.3 81.7 51.3 C 81.73 51.25 81.7 55.4 81.7 55.4 L 81.2 55.4 L 81.2 46.4 Z M 86.6 49.6 C 86.6 47.9 85.5 46.8 84.2 46.8 C 82.8 46.8 81.7 47.9 81.7 49.6 C 81.7 51.3 82.8 52.4 84.2 52.4 C 85.5 52.4 86.6 51.3 86.6 49.6 Z M 89.4 47.4 C 89.4 47.4 89.46 47.44 89.5 47.4 C 89.8 46.7 90.6 46.3 91.5 46.3 C 92.8 46.3 93.7 47.1 93.7 48.6 C 93.73 48.58 93.7 52.8 93.7 52.8 L 93.2 52.8 C 93.2 52.8 93.23 48.76 93.2 48.8 C 93.2 47.5 92.6 46.8 91.4 46.8 C 90.4 46.8 89.4 47.4 89.4 48.6 C 89.45 48.65 89.4 52.8 89.4 52.8 L 88.9 52.8 L 88.9 43.3 L 89.4 43.3 L 89.4 47.4 Z M 95.5 49.6 C 95.5 47.7 96.8 46.3 98.5 46.3 C 100.2 46.3 101.6 47.7 101.6 49.6 C 101.6 51.6 100.2 52.9 98.5 52.9 C 96.9 52.9 95.5 51.6 95.5 49.6 Z M 101.1 49.6 C 101.1 47.8 99.8 46.8 98.5 46.8 C 97.2 46.8 96 47.8 96 49.6 C 96 51.4 97.2 52.4 98.5 52.4 C 99.8 52.4 101.1 51.4 101.1 49.6 Z M 104 46.4 L 105.9 46.4 L 105.9 46.9 L 104 46.9 C 104 46.9 104 50.8 104 50.8 C 104 52 104.6 52.4 105.5 52.4 C 105.7 52.4 105.9 52.4 106.1 52.4 C 106.1 52.4 106.1 52.8 106.1 52.8 C 106 52.8 105.8 52.9 105.5 52.9 C 104.3 52.9 103.5 52.2 103.5 50.8 C 103.5 50.82 103.5 46.9 103.5 46.9 L 102.5 46.9 L 102.5 46.4 L 103.5 46.4 L 103.5 44.9 L 104 44.9 L 104 46.4 Z M 106.9 49.6 C 106.9 47.7 108.3 46.3 109.9 46.3 C 111.6 46.3 113 47.7 113 49.6 C 113 51.6 111.6 52.9 109.9 52.9 C 108.3 52.9 106.9 51.6 106.9 49.6 Z M 112.5 49.6 C 112.5 47.8 111.2 46.8 109.9 46.8 C 108.6 46.8 107.4 47.8 107.4 49.6 C 107.4 51.4 108.6 52.4 109.9 52.4 C 111.2 52.4 112.5 51.4 112.5 49.6 Z M 113.9 46.4 L 114.4 46.4 L 116.5 52.2 L 116.5 52.2 L 118.6 46.4 L 119.1 46.4 L 116.8 52.8 L 116.2 52.8 L 113.9 46.4 Z M 120 49.6 C 120 47.7 121.4 46.3 123.1 46.3 C 124.7 46.3 126.1 47.7 126.1 49.6 C 126.1 51.6 124.7 52.9 123.1 52.9 C 121.4 52.9 120 51.6 120 49.6 Z M 125.6 49.6 C 125.6 47.8 124.4 46.8 123.1 46.8 C 121.7 46.8 120.5 47.8 120.5 49.6 C 120.5 51.4 121.8 52.4 123.1 52.4 C 124.4 52.4 125.6 51.4 125.6 49.6 Z M 128 43.3 L 128.5 43.3 L 128.5 52.8 L 128 52.8 L 128 43.3 Z M 131.5 46.4 L 133.4 46.4 L 133.4 46.9 L 131.5 46.9 C 131.5 46.9 131.46 50.8 131.5 50.8 C 131.5 52 132.1 52.4 133 52.4 C 133.2 52.4 133.3 52.4 133.5 52.4 C 133.5 52.4 133.5 52.8 133.5 52.8 C 133.5 52.8 133.2 52.9 132.9 52.9 C 131.8 52.9 131 52.2 131 50.8 C 130.95 50.82 131 46.9 131 46.9 L 130 46.9 L 130 46.4 L 131 46.4 L 131 44.9 L 131.5 44.9 L 131.5 46.4 Z M 134.4 49.6 C 134.4 47.6 135.8 46.3 137.3 46.3 C 138.3 46.3 139.3 46.9 139.8 48 C 139.76 48.02 139.8 46.4 139.8 46.4 L 140.2 46.4 L 140.2 52.8 L 139.8 52.8 C 139.8 52.8 139.76 51.2 139.8 51.2 C 139.3 52.4 138.3 52.9 137.3 52.9 C 135.8 52.9 134.4 51.6 134.4 49.6 Z M 139.8 49.6 C 139.8 47.9 138.6 46.8 137.3 46.8 C 136 46.8 134.9 47.9 134.9 49.6 C 134.9 51.3 136 52.4 137.3 52.4 C 138.6 52.4 139.8 51.3 139.8 49.6 Z M 142.4 44.1 C 142.4 43.9 142.6 43.7 142.8 43.7 C 143 43.7 143.2 43.9 143.2 44.1 C 143.2 44.3 143 44.5 142.8 44.5 C 142.6 44.5 142.4 44.3 142.4 44.1 Z M 142.5 46.4 L 143 46.4 L 143 52.8 L 142.5 52.8 L 142.5 46.4 Z M 150.3 48 C 150.32 48.04 150.4 46.4 150.4 46.4 L 150.8 46.4 L 150.8 55.4 L 150.3 55.4 C 150.3 55.4 150.29 51.24 150.3 51.2 C 149.9 52.3 148.8 52.9 147.8 52.9 C 146.3 52.9 144.9 51.6 144.9 49.6 C 144.9 47.6 146.3 46.3 147.8 46.3 C 148.8 46.3 149.9 46.9 150.3 48 Z M 145.4 49.6 C 145.4 51.3 146.6 52.4 147.9 52.4 C 149.2 52.4 150.3 51.3 150.3 49.6 C 150.3 47.9 149.2 46.8 147.9 46.8 C 146.5 46.8 145.4 47.9 145.4 49.6 Z M 153 50.5 C 152.99 50.48 153 46.4 153 46.4 L 153.5 46.4 C 153.5 46.4 153.49 50.51 153.5 50.5 C 153.5 51.7 154.2 52.4 155.4 52.4 C 156.5 52.4 157.3 51.7 157.3 50.5 C 157.28 50.5 157.3 46.4 157.3 46.4 L 157.8 46.4 C 157.8 46.4 157.78 50.47 157.8 50.5 C 157.8 51.9 156.8 52.9 155.4 52.9 C 153.9 52.9 153 51.9 153 50.5 Z M 165.1 49.8 C 165.1 49.8 160 49.8 160 49.8 C 160.1 51.4 161.2 52.4 162.6 52.4 C 163.4 52.4 164.2 52.2 164.9 51.5 C 164.9 51.5 164.9 52.1 164.9 52.1 C 164.2 52.6 163.4 52.9 162.6 52.9 C 160.8 52.9 159.5 51.6 159.5 49.6 C 159.5 47.6 161 46.3 162.5 46.3 C 163.9 46.3 165.1 47.4 165.1 49.5 C 165.1 49.6 165.1 49.7 165.1 49.8 Z M 164.6 49.3 C 164.6 47.6 163.6 46.8 162.5 46.8 C 161.3 46.8 160.2 47.8 160.1 49.3 C 160.1 49.3 164.6 49.3 164.6 49.3 Z M 166.7 52.4 C 166.7 52.1 166.9 51.9 167.2 51.9 C 167.4 51.9 167.6 52.1 167.6 52.4 C 167.6 52.6 167.4 52.8 167.2 52.8 C 166.9 52.8 166.7 52.6 166.7 52.4 Z " stroke="none" fill="#000"/>
  </g>
  <g id="Polygon17629">
    <path d="M 1.2 28.9 L 1.7 28.9 L 1.7 38.4 L 1.2 38.4 L 1.2 28.9 Z M 9.1 35.4 C 9.1 35.4 4.1 35.4 4.1 35.4 C 4.1 37 5.2 38 6.6 38 C 7.4 38 8.2 37.8 8.9 37.1 C 8.9 37.1 8.9 37.7 8.9 37.7 C 8.2 38.2 7.4 38.5 6.6 38.5 C 4.8 38.5 3.6 37.2 3.6 35.2 C 3.6 33.2 5 31.9 6.5 31.9 C 7.9 31.9 9.1 33 9.1 35.1 C 9.1 35.2 9.1 35.3 9.1 35.4 Z M 8.6 34.9 C 8.6 33.2 7.6 32.4 6.5 32.4 C 5.3 32.4 4.2 33.4 4.1 34.9 C 4.1 34.9 8.6 34.9 8.6 34.9 Z M 14.9 32 L 16.8 32 L 16.8 32.5 L 14.9 32.5 C 14.9 32.5 14.86 36.4 14.9 36.4 C 14.9 37.6 15.5 38 16.4 38 C 16.6 38 16.7 38 16.9 38 C 16.9 38 16.9 38.4 16.9 38.4 C 16.9 38.4 16.6 38.5 16.3 38.5 C 15.2 38.5 14.4 37.8 14.4 36.4 C 14.36 36.42 14.4 32.5 14.4 32.5 L 13.4 32.5 L 13.4 32 L 14.4 32 L 14.4 30.5 L 14.9 30.5 L 14.9 32 Z M 18.3 32 L 18.7 32 L 18.7 33.2 C 18.7 33.2 18.76 33.22 18.8 33.2 C 19.1 32.3 20 32 20.6 32 C 20.8 32 20.9 32 21 32 C 21 32 21 32.5 21 32.5 C 20.9 32.5 20.8 32.5 20.6 32.5 C 19.7 32.5 18.8 33.1 18.8 34.4 C 18.8 34.37 18.8 38.4 18.8 38.4 L 18.3 38.4 L 18.3 32 Z M 21.6 35.2 C 21.6 33.2 23 31.9 24.5 31.9 C 25.5 31.9 26.5 32.5 27 33.6 C 27.01 33.62 27.1 32 27.1 32 L 27.5 32 L 27.5 38.4 L 27.1 38.4 C 27.1 38.4 27.01 36.8 27 36.8 C 26.5 38 25.5 38.5 24.5 38.5 C 23 38.5 21.6 37.2 21.6 35.2 Z M 27 35.2 C 27 33.5 25.9 32.4 24.5 32.4 C 23.2 32.4 22.1 33.5 22.1 35.2 C 22.1 36.9 23.2 38 24.6 38 C 25.9 38 27 36.9 27 35.2 Z M 29.6 29.7 C 29.6 29.5 29.8 29.3 30 29.3 C 30.3 29.3 30.4 29.5 30.4 29.7 C 30.4 29.9 30.3 30.1 30 30.1 C 29.8 30.1 29.6 29.9 29.6 29.7 Z M 29.8 32 L 30.3 32 L 30.3 38.4 L 29.8 38.4 L 29.8 32 Z M 33.3 32 L 35.2 32 L 35.2 32.5 L 33.3 32.5 C 33.3 32.5 33.29 36.4 33.3 36.4 C 33.3 37.6 33.9 38 34.8 38 C 35 38 35.2 38 35.4 38 C 35.4 38 35.4 38.4 35.4 38.4 C 35.3 38.4 35 38.5 34.8 38.5 C 33.6 38.5 32.8 37.8 32.8 36.4 C 32.79 36.42 32.8 32.5 32.8 32.5 L 31.8 32.5 L 31.8 32 L 32.8 32 L 32.8 30.5 L 33.3 30.5 L 33.3 32 Z M 41.8 35.4 C 41.8 35.4 36.7 35.4 36.7 35.4 C 36.8 37 37.8 38 39.3 38 C 40 38 40.8 37.8 41.5 37.1 C 41.5 37.1 41.5 37.7 41.5 37.7 C 40.9 38.2 40.1 38.5 39.2 38.5 C 37.4 38.5 36.2 37.2 36.2 35.2 C 36.2 33.2 37.6 31.9 39.1 31.9 C 40.6 31.9 41.8 33 41.8 35.1 C 41.8 35.2 41.8 35.3 41.8 35.4 Z M 41.3 34.9 C 41.2 33.2 40.2 32.4 39.1 32.4 C 37.9 32.4 36.8 33.4 36.7 34.9 C 36.7 34.9 41.3 34.9 41.3 34.9 Z M 51.3 34.1 C 51.3 34.08 51.3 38.4 51.3 38.4 L 50.8 38.4 C 50.8 38.4 50.8 34.13 50.8 34.1 C 50.8 33.1 50.3 32.4 49.3 32.4 C 48.3 32.4 47.7 33.2 47.7 34.1 C 47.69 34.14 47.7 38.4 47.7 38.4 L 47.2 38.4 C 47.2 38.4 47.19 34.13 47.2 34.1 C 47.2 33.1 46.7 32.4 45.7 32.4 C 44.7 32.4 44.1 33.2 44.1 34.2 C 44.08 34.16 44.1 38.4 44.1 38.4 L 43.6 38.4 L 43.6 32 L 44 32 L 44 33.1 C 44 33.1 44.04 33.08 44 33.1 C 44.3 32.4 45 31.9 45.8 31.9 C 46.7 31.9 47.3 32.4 47.5 33.2 C 47.8 32.4 48.5 31.9 49.4 31.9 C 50.7 31.9 51.3 32.8 51.3 34.1 Z M 58.6 35.4 C 58.6 35.4 53.6 35.4 53.6 35.4 C 53.7 37 54.7 38 56.1 38 C 56.9 38 57.7 37.8 58.4 37.1 C 58.4 37.1 58.4 37.7 58.4 37.7 C 57.7 38.2 56.9 38.5 56.1 38.5 C 54.3 38.5 53.1 37.2 53.1 35.2 C 53.1 33.2 54.5 31.9 56 31.9 C 57.4 31.9 58.6 33 58.6 35.1 C 58.6 35.2 58.6 35.3 58.6 35.4 Z M 58.1 34.9 C 58.1 33.2 57.1 32.4 56 32.4 C 54.8 32.4 53.7 33.4 53.6 34.9 C 53.6 34.9 58.1 34.9 58.1 34.9 Z M 65.2 34.2 C 65.24 34.16 65.2 38.4 65.2 38.4 L 64.7 38.4 C 64.7 38.4 64.73 34.37 64.7 34.4 C 64.7 33.1 64.1 32.4 62.9 32.4 C 61.8 32.4 61 33.1 61 34.3 C 60.95 34.31 61 38.4 61 38.4 L 60.4 38.4 L 60.4 32 L 60.8 32 L 60.9 33.2 C 60.9 33.2 60.92 33.16 60.9 33.2 C 61.3 32.4 62 31.9 63 31.9 C 64.3 31.9 65.2 32.8 65.2 34.2 Z M 68.1 32 L 70 32 L 70 32.5 L 68.1 32.5 C 68.1 32.5 68.06 36.4 68.1 36.4 C 68.1 37.6 68.7 38 69.6 38 C 69.8 38 69.9 38 70.1 38 C 70.1 38 70.1 38.4 70.1 38.4 C 70.1 38.4 69.8 38.5 69.5 38.5 C 68.4 38.5 67.6 37.8 67.6 36.4 C 67.55 36.42 67.6 32.5 67.6 32.5 L 66.6 32.5 L 66.6 32 L 67.6 32 L 67.6 30.5 L 68.1 30.5 L 68.1 32 Z M 74.3 35.2 C 74.3 33.2 75.7 31.9 77.3 31.9 C 78.3 31.9 79.3 32.5 79.7 33.6 C 79.73 33.58 79.7 28.9 79.7 28.9 L 80.2 28.9 L 80.2 38.4 L 79.8 38.4 L 79.8 36.8 C 79.8 36.8 79.75 36.79 79.7 36.8 C 79.3 38 78.3 38.5 77.3 38.5 C 75.8 38.5 74.3 37.2 74.3 35.2 Z M 79.7 35.2 C 79.7 33.5 78.6 32.4 77.3 32.4 C 76 32.4 74.9 33.5 74.9 35.2 C 74.9 36.9 76 38 77.3 38 C 78.6 38 79.7 36.9 79.7 35.2 Z M 87.6 35.4 C 87.6 35.4 82.6 35.4 82.6 35.4 C 82.7 37 83.7 38 85.1 38 C 85.9 38 86.7 37.8 87.4 37.1 C 87.4 37.1 87.4 37.7 87.4 37.7 C 86.7 38.2 85.9 38.5 85.1 38.5 C 83.3 38.5 82.1 37.2 82.1 35.2 C 82.1 33.2 83.5 31.9 85 31.9 C 86.4 31.9 87.6 33 87.6 35.1 C 87.6 35.2 87.6 35.3 87.6 35.4 Z M 87.1 34.9 C 87.1 33.2 86.1 32.4 85 32.4 C 83.8 32.4 82.7 33.4 82.6 34.9 C 82.6 34.9 87.1 34.9 87.1 34.9 Z M 93 32.5 C 93 32.5 93 33 93 33 C 92.5 32.7 91.9 32.4 91.2 32.4 C 90.2 32.4 89.6 32.9 89.6 33.6 C 89.6 34.3 90.3 34.6 91.3 34.9 C 92.3 35.3 93.3 35.6 93.3 36.7 C 93.3 37.8 92.4 38.5 91.1 38.5 C 90.4 38.5 89.6 38.3 89 37.8 C 89 37.8 89 37.1 89 37.1 C 89.6 37.7 90.3 38 91.1 38 C 92.2 38 92.8 37.5 92.8 36.7 C 92.8 36 92.1 35.7 91.1 35.3 C 90 35 89.1 34.7 89.1 33.6 C 89.1 32.6 89.9 31.9 91.2 31.9 C 91.9 31.9 92.5 32.1 93 32.5 Z M 103.5 35.4 C 103.5 35.4 98.5 35.4 98.5 35.4 C 98.6 37 99.6 38 101.1 38 C 101.8 38 102.6 37.8 103.3 37.1 C 103.3 37.1 103.3 37.7 103.3 37.7 C 102.7 38.2 101.9 38.5 101 38.5 C 99.2 38.5 98 37.2 98 35.2 C 98 33.2 99.4 31.9 100.9 31.9 C 102.4 31.9 103.6 33 103.6 35.1 C 103.6 35.2 103.6 35.3 103.5 35.4 Z M 103.1 34.9 C 103 33.2 102 32.4 100.9 32.4 C 99.7 32.4 98.6 33.4 98.5 34.9 C 98.5 34.9 103.1 34.9 103.1 34.9 Z M 104.9 35.2 C 104.9 33.2 106.3 31.9 107.8 31.9 C 108.8 31.9 109.9 32.5 110.3 33.6 C 110.33 33.62 110.4 32 110.4 32 L 110.8 32 L 110.8 38.4 L 110.4 38.4 C 110.4 38.4 110.33 36.8 110.3 36.8 C 109.9 38 108.8 38.5 107.8 38.5 C 106.3 38.5 104.9 37.2 104.9 35.2 Z M 110.3 35.2 C 110.3 33.5 109.2 32.4 107.9 32.4 C 106.5 32.4 105.4 33.5 105.4 35.2 C 105.4 36.9 106.6 38 107.9 38 C 109.2 38 110.3 36.9 110.3 35.2 Z M 113 36.1 C 112.99 36.08 113 32 113 32 L 113.5 32 C 113.5 32 113.5 36.11 113.5 36.1 C 113.5 37.3 114.2 38 115.4 38 C 116.5 38 117.3 37.3 117.3 36.1 C 117.29 36.1 117.3 32 117.3 32 L 117.8 32 C 117.8 32 117.79 36.07 117.8 36.1 C 117.8 37.5 116.9 38.5 115.4 38.5 C 113.9 38.5 113 37.5 113 36.1 Z M 122.1 35.2 L 124.3 38.4 L 123.8 38.4 L 121.8 35.6 L 121.8 35.6 L 119.8 38.4 L 119.2 38.4 L 121.5 35.2 L 119.3 32 L 119.8 32 L 121.8 34.8 L 121.8 34.8 L 123.7 32 L 124.3 32 L 122.1 35.2 Z M 129.1 36.1 C 129.14 36.08 129.1 32 129.1 32 L 129.6 32 C 129.6 32 129.64 36.11 129.6 36.1 C 129.6 37.3 130.4 38 131.5 38 C 132.7 38 133.4 37.3 133.4 36.1 C 133.43 36.1 133.4 32 133.4 32 L 133.9 32 C 133.9 32 133.94 36.07 133.9 36.1 C 133.9 37.5 133 38.5 131.5 38.5 C 130 38.5 129.1 37.5 129.1 36.1 Z M 139.7 32.5 C 139.7 32.5 139.7 33 139.7 33 C 139.2 32.7 138.6 32.4 137.9 32.4 C 136.9 32.4 136.3 32.9 136.3 33.6 C 136.3 34.3 137 34.6 138 34.9 C 139 35.3 140 35.6 140 36.7 C 140 37.8 139.1 38.5 137.8 38.5 C 137.1 38.5 136.3 38.3 135.7 37.8 C 135.7 37.8 135.7 37.1 135.7 37.1 C 136.2 37.7 137 38 137.8 38 C 138.8 38 139.5 37.5 139.5 36.7 C 139.5 36 138.8 35.7 137.8 35.3 C 136.7 35 135.8 34.7 135.8 33.6 C 135.8 32.6 136.6 31.9 137.9 31.9 C 138.5 31.9 139.2 32.1 139.7 32.5 Z M 144 30.9 L 143.5 30.9 L 145 29 L 145.6 29 L 144 30.9 Z M 146.9 35.4 C 146.9 35.4 141.8 35.4 141.8 35.4 C 141.9 37 142.9 38 144.4 38 C 145.1 38 146 37.8 146.6 37.1 C 146.6 37.1 146.6 37.7 146.6 37.7 C 146 38.2 145.2 38.5 144.3 38.5 C 142.6 38.5 141.3 37.2 141.3 35.2 C 141.3 33.2 142.7 31.9 144.3 31.9 C 145.7 31.9 146.9 33 146.9 35.1 C 146.9 35.2 146.9 35.3 146.9 35.4 Z M 146.4 34.9 C 146.4 33.2 145.3 32.4 144.3 32.4 C 143 32.4 141.9 33.4 141.8 34.9 C 141.8 34.9 146.4 34.9 146.4 34.9 Z M 153.8 35.4 C 153.8 35.4 148.7 35.4 148.7 35.4 C 148.8 37 149.9 38 151.3 38 C 152.1 38 152.9 37.8 153.6 37.1 C 153.6 37.1 153.6 37.7 153.6 37.7 C 152.9 38.2 152.1 38.5 151.3 38.5 C 149.5 38.5 148.2 37.2 148.2 35.2 C 148.2 33.2 149.7 31.9 151.2 31.9 C 152.6 31.9 153.8 33 153.8 35.1 C 153.8 35.2 153.8 35.3 153.8 35.4 Z M 153.3 34.9 C 153.3 33.2 152.3 32.4 151.2 32.4 C 150 32.4 148.9 33.4 148.8 34.9 C 148.8 34.9 153.3 34.9 153.3 34.9 Z M 164.1 35.4 C 164.1 35.4 159.1 35.4 159.1 35.4 C 159.1 37 160.2 38 161.6 38 C 162.4 38 163.2 37.8 163.9 37.1 C 163.9 37.1 163.9 37.7 163.9 37.7 C 163.2 38.2 162.4 38.5 161.6 38.5 C 159.8 38.5 158.6 37.2 158.6 35.2 C 158.6 33.2 160 31.9 161.5 31.9 C 162.9 31.9 164.1 33 164.1 35.1 C 164.1 35.2 164.1 35.3 164.1 35.4 Z M 163.6 34.9 C 163.6 33.2 162.6 32.4 161.5 32.4 C 160.3 32.4 159.2 33.4 159.1 34.9 C 159.1 34.9 163.6 34.9 163.6 34.9 Z M 166.6 32 L 168.5 32 L 168.5 32.5 L 166.6 32.5 C 166.6 32.5 166.56 36.4 166.6 36.4 C 166.6 37.6 167.2 38 168.1 38 C 168.3 38 168.4 38 168.6 38 C 168.6 38 168.6 38.4 168.6 38.4 C 168.6 38.4 168.3 38.5 168 38.5 C 166.9 38.5 166.1 37.8 166.1 36.4 C 166.06 36.42 166.1 32.5 166.1 32.5 L 165.1 32.5 L 165.1 32 L 166.1 32 L 166.1 30.5 L 166.6 30.5 L 166.6 32 Z M 173.3 28.9 L 173.8 28.9 L 173.8 38.4 L 173.3 38.4 L 173.3 28.9 Z M 176.3 29.9 C 176.34 29.93 176.3 29.5 176.3 29.5 L 176.8 29.5 C 176.8 29.5 176.85 29.92 176.8 29.9 C 176.8 30.9 176.5 31.9 176.2 32.5 C 176.2 32.5 175.8 32.5 175.8 32.5 C 176 31.9 176.3 30.9 176.3 29.9 Z M 177.9 35.2 C 177.9 33.2 179.3 31.9 180.8 31.9 C 181.9 31.9 182.9 32.5 183.3 33.6 C 183.34 33.62 183.4 32 183.4 32 L 183.8 32 L 183.8 38.4 L 183.4 38.4 C 183.4 38.4 183.34 36.8 183.3 36.8 C 182.9 38 181.9 38.5 180.8 38.5 C 179.3 38.5 177.9 37.2 177.9 35.2 Z M 183.3 35.2 C 183.3 33.5 182.2 32.4 180.9 32.4 C 179.6 32.4 178.4 33.5 178.4 35.2 C 178.4 36.9 179.6 38 180.9 38 C 182.2 38 183.3 36.9 183.3 35.2 Z M 186 36.1 C 186 36.08 186 32 186 32 L 186.5 32 C 186.5 32 186.51 36.11 186.5 36.1 C 186.5 37.3 187.2 38 188.4 38 C 189.6 38 190.3 37.3 190.3 36.1 C 190.3 36.1 190.3 32 190.3 32 L 190.8 32 C 190.8 32 190.8 36.07 190.8 36.1 C 190.8 37.5 189.9 38.5 188.4 38.5 C 186.9 38.5 186 37.5 186 36.1 Z M 193.7 32 L 195.6 32 L 195.6 32.5 L 193.7 32.5 C 193.7 32.5 193.68 36.4 193.7 36.4 C 193.7 37.6 194.3 38 195.2 38 C 195.4 38 195.6 38 195.8 38 C 195.8 38 195.8 38.4 195.8 38.4 C 195.7 38.4 195.4 38.5 195.2 38.5 C 194 38.5 193.2 37.8 193.2 36.4 C 193.18 36.42 193.2 32.5 193.2 32.5 L 192.2 32.5 L 192.2 32 L 193.2 32 L 193.2 30.5 L 193.7 30.5 L 193.7 32 Z M 196.6 35.2 C 196.6 33.3 197.9 31.9 199.6 31.9 C 201.3 31.9 202.7 33.3 202.7 35.2 C 202.7 37.2 201.3 38.5 199.6 38.5 C 198 38.5 196.6 37.2 196.6 35.2 Z M 202.2 35.2 C 202.2 33.4 200.9 32.4 199.6 32.4 C 198.3 32.4 197.1 33.4 197.1 35.2 C 197.1 37 198.3 38 199.6 38 C 200.9 38 202.2 37 202.2 35.2 Z M 204.3 34.5 L 207.1 34.5 L 207.1 35 L 204.3 35 L 204.3 34.5 Z M 212.8 32.5 C 212.8 32.5 212.8 33 212.8 33 C 212.3 32.7 211.7 32.4 211 32.4 C 210 32.4 209.4 32.9 209.4 33.6 C 209.4 34.3 210.1 34.6 211.1 34.9 C 212.1 35.3 213.1 35.6 213.1 36.7 C 213.1 37.8 212.2 38.5 211 38.5 C 210.2 38.5 209.4 38.3 208.8 37.8 C 208.8 37.8 208.8 37.1 208.8 37.1 C 209.4 37.7 210.1 38 211 38 C 212 38 212.6 37.5 212.6 36.7 C 212.6 36 211.9 35.7 210.9 35.3 C 209.8 35 208.9 34.7 208.9 33.6 C 208.9 32.6 209.8 31.9 211 31.9 C 211.7 31.9 212.3 32.1 212.8 32.5 Z M 214.8 36.1 C 214.78 36.08 214.8 32 214.8 32 L 215.3 32 C 215.3 32 215.28 36.11 215.3 36.1 C 215.3 37.3 216 38 217.2 38 C 218.3 38 219.1 37.3 219.1 36.1 C 219.08 36.1 219.1 32 219.1 32 L 219.6 32 C 219.6 32 219.58 36.07 219.6 36.1 C 219.6 37.5 218.6 38.5 217.2 38.5 C 215.7 38.5 214.8 37.5 214.8 36.1 Z M 222 32.5 L 221.1 32.5 L 221.1 32 L 222 32 C 222 32 222 30.8 222 30.8 C 222 29.5 222.9 28.8 223.9 28.8 C 224.2 28.8 224.6 28.9 224.9 29 C 224.9 29 224.9 29.5 224.9 29.5 C 224.6 29.4 224.2 29.3 223.9 29.3 C 223.1 29.3 222.5 29.8 222.5 30.9 C 222.52 30.89 222.5 32 222.5 32 L 224.4 32 L 224.4 32.5 L 222.5 32.5 L 222.5 38.4 L 222 38.4 L 222 32.5 Z M 226 32.5 L 225.1 32.5 L 225.1 32 L 226 32 C 226 32 226.01 30.8 226 30.8 C 226 29.5 226.9 28.8 227.9 28.8 C 228.3 28.8 228.6 28.9 228.9 29 C 228.9 29 228.9 29.5 228.9 29.5 C 228.6 29.4 228.3 29.3 227.9 29.3 C 227.1 29.3 226.5 29.8 226.5 30.9 C 226.53 30.89 226.5 32 226.5 32 L 228.4 32 L 228.4 32.5 L 226.5 32.5 L 226.5 38.4 L 226 38.4 L 226 32.5 Z M 229.8 29.7 C 229.8 29.5 230 29.3 230.2 29.3 C 230.5 29.3 230.6 29.5 230.6 29.7 C 230.6 29.9 230.5 30.1 230.2 30.1 C 230 30.1 229.8 29.9 229.8 29.7 Z M 230 32 L 230.5 32 L 230.5 38.4 L 230 38.4 L 230 32 Z M 236.4 32.5 C 236.4 32.5 236.4 33 236.4 33 C 235.9 32.7 235.2 32.4 234.5 32.4 C 233.6 32.4 233 32.9 233 33.6 C 233 34.3 233.6 34.6 234.6 34.9 C 235.7 35.3 236.7 35.6 236.7 36.7 C 236.7 37.8 235.8 38.5 234.5 38.5 C 233.7 38.5 233 38.3 232.4 37.8 C 232.4 37.8 232.4 37.1 232.4 37.1 C 232.9 37.7 233.7 38 234.5 38 C 235.5 38 236.2 37.5 236.2 36.7 C 236.2 36 235.4 35.7 234.4 35.3 C 233.4 35 232.5 34.7 232.5 33.6 C 232.5 32.6 233.3 31.9 234.5 31.9 C 235.2 31.9 235.9 32.1 236.4 32.5 Z M 238 35.2 C 238 33.2 239.4 31.9 240.9 31.9 C 241.9 31.9 242.9 32.5 243.4 33.6 C 243.37 33.62 243.4 32 243.4 32 L 243.8 32 L 243.8 38.4 L 243.4 38.4 C 243.4 38.4 243.37 36.8 243.4 36.8 C 242.9 38 241.9 38.5 240.9 38.5 C 239.4 38.5 238 37.2 238 35.2 Z M 243.4 35.2 C 243.4 33.5 242.2 32.4 240.9 32.4 C 239.6 32.4 238.5 33.5 238.5 35.2 C 238.5 36.9 239.6 38 240.9 38 C 242.2 38 243.4 36.9 243.4 35.2 Z M 250.9 34.2 C 250.91 34.16 250.9 38.4 250.9 38.4 L 250.4 38.4 C 250.4 38.4 250.41 34.37 250.4 34.4 C 250.4 33.1 249.7 32.4 248.6 32.4 C 247.5 32.4 246.6 33.1 246.6 34.3 C 246.63 34.31 246.6 38.4 246.6 38.4 L 246.1 38.4 L 246.1 32 L 246.5 32 L 246.6 33.2 C 246.6 33.2 246.59 33.16 246.6 33.2 C 246.9 32.4 247.7 31.9 248.7 31.9 C 250 31.9 250.9 32.8 250.9 34.2 Z M 255.7 38 C 256.2 38 256.9 37.9 257.4 37.5 C 257.4 37.5 257.4 38.1 257.4 38.1 C 257 38.4 256.4 38.5 255.7 38.5 C 254 38.5 252.7 37.1 252.7 35.2 C 252.7 33.3 254 31.9 255.7 31.9 C 256.3 31.9 256.9 32 257.4 32.4 C 257.4 32.4 257.4 32.9 257.4 32.9 C 256.9 32.5 256.3 32.4 255.7 32.4 C 254.4 32.4 253.2 33.5 253.2 35.2 C 253.2 36.9 254.4 38 255.7 38 Z M 264.2 35.4 C 264.2 35.4 259.1 35.4 259.1 35.4 C 259.2 37 260.2 38 261.7 38 C 262.5 38 263.3 37.8 264 37.1 C 264 37.1 264 37.7 264 37.7 C 263.3 38.2 262.5 38.5 261.7 38.5 C 259.9 38.5 258.6 37.2 258.6 35.2 C 258.6 33.2 260 31.9 261.6 31.9 C 263 31.9 264.2 33 264.2 35.1 C 264.2 35.2 264.2 35.3 264.2 35.4 Z M 263.7 34.9 C 263.7 33.2 262.7 32.4 261.6 32.4 C 260.4 32.4 259.2 33.4 259.1 34.9 C 259.1 34.9 263.7 34.9 263.7 34.9 Z M 271.7 30.9 L 271.2 30.9 L 272.6 29 L 273.2 29 L 271.7 30.9 Z M 274.5 35.4 C 274.5 35.4 269.4 35.4 269.4 35.4 C 269.5 37 270.6 38 272 38 C 272.8 38 273.6 37.8 274.3 37.1 C 274.3 37.1 274.3 37.7 274.3 37.7 C 273.6 38.2 272.8 38.5 272 38.5 C 270.2 38.5 268.9 37.2 268.9 35.2 C 268.9 33.2 270.4 31.9 271.9 31.9 C 273.3 31.9 274.5 33 274.5 35.1 C 274.5 35.2 274.5 35.3 274.5 35.4 Z M 274 34.9 C 274 33.2 273 32.4 271.9 32.4 C 270.7 32.4 269.6 33.4 269.5 34.9 C 269.5 34.9 274 34.9 274 34.9 Z M 281.1 34.2 C 281.11 34.16 281.1 38.4 281.1 38.4 L 280.6 38.4 C 280.6 38.4 280.6 34.37 280.6 34.4 C 280.6 33.1 279.9 32.4 278.8 32.4 C 277.7 32.4 276.8 33.1 276.8 34.3 C 276.82 34.31 276.8 38.4 276.8 38.4 L 276.3 38.4 L 276.3 32 L 276.7 32 L 276.8 33.2 C 276.8 33.2 276.79 33.16 276.8 33.2 C 277.1 32.4 277.9 31.9 278.9 31.9 C 280.2 31.9 281.1 32.8 281.1 34.2 Z M 285.6 30.9 L 285.1 30.9 L 286.5 29 L 287.1 29 L 285.6 30.9 Z M 288.4 35.4 C 288.4 35.4 283.4 35.4 283.4 35.4 C 283.4 37 284.5 38 285.9 38 C 286.7 38 287.5 37.8 288.2 37.1 C 288.2 37.1 288.2 37.7 288.2 37.7 C 287.5 38.2 286.7 38.5 285.9 38.5 C 284.1 38.5 282.9 37.2 282.9 35.2 C 282.9 33.2 284.3 31.9 285.8 31.9 C 287.2 31.9 288.4 33 288.4 35.1 C 288.4 35.2 288.4 35.3 288.4 35.4 Z M 287.9 34.9 C 287.9 33.2 286.9 32.4 285.8 32.4 C 284.6 32.4 283.5 33.4 283.4 34.9 C 283.4 34.9 287.9 34.9 287.9 34.9 Z M 290.2 32 L 290.6 32 L 290.7 33.2 C 290.7 33.2 290.71 33.22 290.7 33.2 C 291.1 32.3 291.9 32 292.6 32 C 292.7 32 292.9 32 293 32 C 293 32 293 32.5 293 32.5 C 292.9 32.5 292.7 32.5 292.6 32.5 C 291.7 32.5 290.8 33.1 290.7 34.4 C 290.74 34.37 290.7 38.4 290.7 38.4 L 290.2 38.4 L 290.2 32 Z M 298.9 33.6 C 298.92 33.56 299 32 299 32 L 299.4 32 C 299.4 32 299.38 38.2 299.4 38.2 C 299.4 40.2 298 41.1 296.6 41.1 C 295.7 41.1 294.9 40.8 294.2 40.3 C 294.2 40.3 294.2 39.7 294.2 39.7 C 294.9 40.3 295.7 40.6 296.6 40.6 C 297.8 40.6 298.9 39.9 298.9 38.3 C 298.9 38.3 298.9 36.7 298.9 36.7 C 298.4 37.8 297.4 38.3 296.4 38.3 C 294.9 38.3 293.5 37.1 293.5 35.1 C 293.5 33.2 294.9 31.9 296.4 31.9 C 297.4 31.9 298.4 32.5 298.9 33.6 Z M 294 35.1 C 294 36.8 295.2 37.8 296.5 37.8 C 297.8 37.8 298.9 36.7 298.9 35.1 C 298.9 33.5 297.8 32.4 296.5 32.4 C 295.2 32.4 294 33.5 294 35.1 Z M 303.9 30.9 L 303.5 30.9 L 304.9 29 L 305.5 29 L 303.9 30.9 Z M 306.8 35.4 C 306.8 35.4 301.7 35.4 301.7 35.4 C 301.8 37 302.8 38 304.3 38 C 305 38 305.9 37.8 306.5 37.1 C 306.5 37.1 306.5 37.7 306.5 37.7 C 305.9 38.2 305.1 38.5 304.3 38.5 C 302.5 38.5 301.2 37.2 301.2 35.2 C 301.2 33.2 302.6 31.9 304.2 31.9 C 305.6 31.9 306.8 33 306.8 35.1 C 306.8 35.2 306.8 35.3 306.8 35.4 Z M 306.3 34.9 C 306.3 33.2 305.3 32.4 304.2 32.4 C 303 32.4 301.8 33.4 301.7 34.9 C 301.7 34.9 306.3 34.9 306.3 34.9 Z M 308.6 32 L 309 32 L 309.1 33.2 C 309.1 33.2 309.07 33.22 309.1 33.2 C 309.4 32.3 310.3 32 310.9 32 C 311.1 32 311.2 32 311.3 32 C 311.3 32 311.3 32.5 311.3 32.5 C 311.2 32.5 311.1 32.5 310.9 32.5 C 310 32.5 309.1 33.1 309.1 34.4 C 309.1 34.37 309.1 38.4 309.1 38.4 L 308.6 38.4 L 308.6 32 Z M 312.6 29.7 C 312.6 29.5 312.7 29.3 313 29.3 C 313.2 29.3 313.4 29.5 313.4 29.7 C 313.4 29.9 313.2 30.1 313 30.1 C 312.7 30.1 312.6 29.9 312.6 29.7 Z M 312.7 32 L 313.2 32 L 313.2 38.4 L 312.7 38.4 L 312.7 32 Z M 320.5 33.6 C 320.48 33.64 320.6 32 320.6 32 L 320.9 32 L 320.9 41 L 320.4 41 C 320.4 41 320.44 36.84 320.4 36.8 C 320 37.9 319 38.5 318 38.5 C 316.5 38.5 315.1 37.2 315.1 35.2 C 315.1 33.2 316.5 31.9 318 31.9 C 319 31.9 320 32.5 320.5 33.6 Z M 315.6 35.2 C 315.6 36.9 316.7 38 318 38 C 319.3 38 320.5 36.9 320.5 35.2 C 320.5 33.5 319.4 32.4 318 32.4 C 316.7 32.4 315.6 33.5 315.6 35.2 Z M 323.1 36.1 C 323.14 36.08 323.1 32 323.1 32 L 323.6 32 C 323.6 32 323.65 36.11 323.6 36.1 C 323.6 37.3 324.4 38 325.5 38 C 326.7 38 327.4 37.3 327.4 36.1 C 327.44 36.1 327.4 32 327.4 32 L 327.9 32 C 327.9 32 327.94 36.07 327.9 36.1 C 327.9 37.5 327 38.5 325.5 38.5 C 324.1 38.5 323.1 37.5 323.1 36.1 Z M 335.2 35.4 C 335.2 35.4 330.2 35.4 330.2 35.4 C 330.3 37 331.3 38 332.8 38 C 333.5 38 334.3 37.8 335 37.1 C 335 37.1 335 37.7 335 37.7 C 334.4 38.2 333.6 38.5 332.7 38.5 C 330.9 38.5 329.7 37.2 329.7 35.2 C 329.7 33.2 331.1 31.9 332.6 31.9 C 334.1 31.9 335.3 33 335.3 35.1 C 335.3 35.2 335.3 35.3 335.2 35.4 Z M 334.8 34.9 C 334.7 33.2 333.7 32.4 332.6 32.4 C 331.4 32.4 330.3 33.4 330.2 34.9 C 330.2 34.9 334.8 34.9 334.8 34.9 Z M 345.4 33.6 C 345.37 33.56 345.4 32 345.4 32 L 345.8 32 C 345.8 32 345.84 38.2 345.8 38.2 C 345.8 40.2 344.5 41.1 343 41.1 C 342.2 41.1 341.3 40.8 340.6 40.3 C 340.6 40.3 340.6 39.7 340.6 39.7 C 341.3 40.3 342.2 40.6 343 40.6 C 344.2 40.6 345.3 39.9 345.3 38.3 C 345.3 38.3 345.3 36.7 345.3 36.7 C 344.9 37.8 343.9 38.3 342.9 38.3 C 341.4 38.3 340 37.1 340 35.1 C 340 33.2 341.4 31.9 342.9 31.9 C 343.9 31.9 344.9 32.5 345.4 33.6 Z M 340.5 35.1 C 340.5 36.8 341.6 37.8 342.9 37.8 C 344.2 37.8 345.4 36.7 345.4 35.1 C 345.4 33.5 344.2 32.4 342.9 32.4 C 341.6 32.4 340.5 33.5 340.5 35.1 Z M 348.1 32 L 348.5 32 L 348.6 33.2 C 348.6 33.2 348.59 33.22 348.6 33.2 C 349 32.3 349.8 32 350.5 32 C 350.6 32 350.7 32 350.9 32 C 350.9 32 350.9 32.5 350.9 32.5 C 350.7 32.5 350.6 32.5 350.5 32.5 C 349.6 32.5 348.6 33.1 348.6 34.4 C 348.62 34.37 348.6 38.4 348.6 38.4 L 348.1 38.4 L 348.1 32 Z M 356.4 30.9 L 355.8 30.9 L 354.6 29.4 L 353.5 30.9 L 352.9 30.9 L 354.4 29 L 354.9 29 L 356.4 30.9 Z M 351.4 35.2 C 351.4 33.2 352.8 31.9 354.3 31.9 C 355.3 31.9 356.4 32.5 356.8 33.6 C 356.83 33.62 356.9 32 356.9 32 L 357.3 32 L 357.3 38.4 L 356.9 38.4 C 356.9 38.4 356.83 36.8 356.8 36.8 C 356.4 38 355.3 38.5 354.3 38.5 C 352.8 38.5 351.4 37.2 351.4 35.2 Z M 356.8 35.2 C 356.8 33.5 355.7 32.4 354.4 32.4 C 353.1 32.4 351.9 33.5 351.9 35.2 C 351.9 36.9 353.1 38 354.4 38 C 355.7 38 356.8 36.9 356.8 35.2 Z M 362.2 38 C 362.7 38 363.4 37.9 363.9 37.5 C 363.9 37.5 363.9 38.1 363.9 38.1 C 363.4 38.4 362.8 38.5 362.2 38.5 C 360.5 38.5 359.1 37.1 359.1 35.2 C 359.1 33.3 360.5 31.9 362.2 31.9 C 362.8 31.9 363.4 32 363.9 32.4 C 363.9 32.4 363.9 32.9 363.9 32.9 C 363.4 32.5 362.8 32.4 362.2 32.4 C 360.8 32.4 359.6 33.5 359.6 35.2 C 359.6 36.9 360.9 38 362.2 38 Z M 370.7 35.4 C 370.7 35.4 365.6 35.4 365.6 35.4 C 365.7 37 366.7 38 368.2 38 C 368.9 38 369.7 37.8 370.4 37.1 C 370.4 37.1 370.4 37.7 370.4 37.7 C 369.8 38.2 369 38.5 368.1 38.5 C 366.3 38.5 365.1 37.2 365.1 35.2 C 365.1 33.2 366.5 31.9 368.1 31.9 C 369.5 31.9 370.7 33 370.7 35.1 C 370.7 35.2 370.7 35.3 370.7 35.4 Z M 370.2 34.9 C 370.2 33.2 369.1 32.4 368.1 32.4 C 366.8 32.4 365.7 33.4 365.6 34.9 C 365.6 34.9 370.2 34.9 370.2 34.9 Z " stroke="none" fill="#000"/>
  </g>
  <g id="Polygon17628">
    <path d="M 0.4 17.6 L 0.9 17.6 L 3 23.4 L 3 23.4 L 5.1 17.6 L 5.7 17.6 L 3.3 24 L 2.8 24 L 0.4 17.6 Z M 7.1 15.3 C 7.1 15.1 7.3 14.9 7.5 14.9 C 7.7 14.9 7.9 15.1 7.9 15.3 C 7.9 15.5 7.7 15.7 7.5 15.7 C 7.3 15.7 7.1 15.5 7.1 15.3 Z M 7.2 17.6 L 7.7 17.6 L 7.7 24 L 7.2 24 L 7.2 17.6 Z M 15.2 21 C 15.2 21 10.1 21 10.1 21 C 10.2 22.6 11.2 23.6 12.7 23.6 C 13.4 23.6 14.3 23.4 14.9 22.7 C 14.9 22.7 14.9 23.3 14.9 23.3 C 14.3 23.8 13.5 24.1 12.6 24.1 C 10.9 24.1 9.6 22.8 9.6 20.8 C 9.6 18.8 11 17.5 12.6 17.5 C 14 17.5 15.2 18.6 15.2 20.7 C 15.2 20.8 15.2 20.9 15.2 21 Z M 14.7 20.5 C 14.7 18.8 13.6 18 12.6 18 C 11.4 18 10.2 19 10.1 20.5 C 10.1 20.5 14.7 20.5 14.7 20.5 Z M 24.1 16.5 L 23.7 16.5 L 22.1 14.6 L 22.7 14.6 L 24.1 16.5 Z M 20.2 20.8 C 20.2 18.8 21.6 17.5 23.1 17.5 C 24.1 17.5 25.2 18.1 25.6 19.2 C 25.62 19.22 25.7 17.6 25.7 17.6 L 26.1 17.6 L 26.1 24 L 25.7 24 C 25.7 24 25.62 22.4 25.6 22.4 C 25.2 23.6 24.1 24.1 23.1 24.1 C 21.6 24.1 20.2 22.8 20.2 20.8 Z M 25.6 20.8 C 25.6 19.1 24.5 18 23.2 18 C 21.8 18 20.7 19.1 20.7 20.8 C 20.7 22.5 21.9 23.6 23.2 23.6 C 24.5 23.6 25.6 22.5 25.6 20.8 Z M 32.5 19.2 C 33 18.1 34 17.5 35 17.5 C 36.5 17.5 37.9 18.8 37.9 20.8 C 37.9 22.8 36.5 24.1 35 24.1 C 34 24.1 33 23.6 32.5 22.4 C 32.51 22.39 32.4 24 32.4 24 L 32 24 L 32 14.5 L 32.5 14.5 C 32.5 14.5 32.54 19.19 32.5 19.2 Z M 32.5 20.8 C 32.5 22.5 33.7 23.6 35 23.6 C 36.3 23.6 37.4 22.5 37.4 20.8 C 37.4 19.1 36.3 18 35 18 C 33.6 18 32.5 19.1 32.5 20.8 Z M 39.3 20.8 C 39.3 18.9 40.7 17.5 42.3 17.5 C 44 17.5 45.4 18.9 45.4 20.8 C 45.4 22.8 44 24.1 42.3 24.1 C 40.7 24.1 39.3 22.8 39.3 20.8 Z M 44.9 20.8 C 44.9 19 43.6 18 42.3 18 C 41 18 39.8 19 39.8 20.8 C 39.8 22.6 41.1 23.6 42.3 23.6 C 43.6 23.6 44.9 22.6 44.9 20.8 Z M 47.2 17.6 L 47.6 17.6 L 47.7 18.8 C 47.7 18.8 47.68 18.82 47.7 18.8 C 48.1 17.9 48.9 17.6 49.6 17.6 C 49.7 17.6 49.8 17.6 49.9 17.6 C 49.9 17.6 49.9 18.1 49.9 18.1 C 49.8 18.1 49.7 18.1 49.6 18.1 C 48.7 18.1 47.7 18.7 47.7 20 C 47.71 19.97 47.7 24 47.7 24 L 47.2 24 L 47.2 17.6 Z M 50.5 20.8 C 50.5 18.8 51.9 17.5 53.4 17.5 C 54.4 17.5 55.5 18.1 55.9 19.2 C 55.9 19.18 55.9 14.5 55.9 14.5 L 56.4 14.5 L 56.4 24 L 56 24 L 55.9 22.4 C 55.9 22.4 55.92 22.39 55.9 22.4 C 55.5 23.6 54.4 24.1 53.4 24.1 C 51.9 24.1 50.5 22.8 50.5 20.8 Z M 55.9 20.8 C 55.9 19.1 54.8 18 53.5 18 C 52.2 18 51 19.1 51 20.8 C 51 22.5 52.2 23.6 53.5 23.6 C 54.8 23.6 55.9 22.5 55.9 20.8 Z M 65 23.6 C 65.5 23.6 66.1 23.5 66.7 23.1 C 66.7 23.1 66.7 23.7 66.7 23.7 C 66.2 24 65.6 24.1 65 24.1 C 63.3 24.1 61.9 22.7 61.9 20.8 C 61.9 18.9 63.2 17.5 65 17.5 C 65.6 17.5 66.2 17.6 66.7 18 C 66.7 18 66.7 18.5 66.7 18.5 C 66.1 18.1 65.6 18 65 18 C 63.6 18 62.4 19.1 62.4 20.8 C 62.4 22.5 63.6 23.6 65 23.6 Z M 67.9 20.8 C 67.9 18.9 69.2 17.5 70.9 17.5 C 72.6 17.5 73.9 18.9 73.9 20.8 C 73.9 22.8 72.6 24.1 70.9 24.1 C 69.2 24.1 67.9 22.8 67.9 20.8 Z M 73.4 20.8 C 73.4 19 72.2 18 70.9 18 C 69.6 18 68.4 19 68.4 20.8 C 68.4 22.6 69.6 23.6 70.9 23.6 C 72.2 23.6 73.4 22.6 73.4 20.8 Z M 83.5 19.7 C 83.5 19.68 83.5 24 83.5 24 L 83 24 C 83 24 82.99 19.73 83 19.7 C 83 18.7 82.5 18 81.5 18 C 80.5 18 79.9 18.8 79.9 19.7 C 79.88 19.74 79.9 24 79.9 24 L 79.4 24 C 79.4 24 79.38 19.73 79.4 19.7 C 79.4 18.7 78.9 18 77.9 18 C 76.9 18 76.3 18.8 76.3 19.8 C 76.27 19.76 76.3 24 76.3 24 L 75.8 24 L 75.8 17.6 L 76.2 17.6 L 76.2 18.7 C 76.2 18.7 76.24 18.68 76.2 18.7 C 76.5 18 77.1 17.5 78 17.5 C 78.9 17.5 79.5 18 79.7 18.8 C 80 18 80.7 17.5 81.6 17.5 C 82.9 17.5 83.5 18.4 83.5 19.7 Z M 85.7 17.6 L 86.1 17.6 C 86.1 17.6 86.17 19.24 86.2 19.2 C 86.6 18.1 87.7 17.5 88.7 17.5 C 90.2 17.5 91.6 18.8 91.6 20.8 C 91.6 22.8 90.2 24.1 88.7 24.1 C 87.7 24.1 86.6 23.5 86.2 22.5 C 86.21 22.45 86.2 26.6 86.2 26.6 L 85.7 26.6 L 85.7 17.6 Z M 91.1 20.8 C 91.1 19.1 90 18 88.6 18 C 87.3 18 86.2 19.1 86.2 20.8 C 86.2 22.5 87.3 23.6 88.6 23.6 C 90 23.6 91.1 22.5 91.1 20.8 Z M 93.5 14.5 L 94 14.5 L 94 24 L 93.5 24 L 93.5 14.5 Z M 101.4 21 C 101.4 21 96.3 21 96.3 21 C 96.4 22.6 97.5 23.6 98.9 23.6 C 99.7 23.6 100.5 23.4 101.2 22.7 C 101.2 22.7 101.2 23.3 101.2 23.3 C 100.5 23.8 99.7 24.1 98.9 24.1 C 97.1 24.1 95.8 22.8 95.8 20.8 C 95.8 18.8 97.2 17.5 98.8 17.5 C 100.2 17.5 101.4 18.6 101.4 20.7 C 101.4 20.8 101.4 20.9 101.4 21 Z M 100.9 20.5 C 100.9 18.8 99.9 18 98.8 18 C 97.6 18 96.5 19 96.3 20.5 C 96.3 20.5 100.9 20.5 100.9 20.5 Z M 103.8 17.6 L 105.7 17.6 L 105.7 18.1 L 103.8 18.1 C 103.8 18.1 103.84 22 103.8 22 C 103.8 23.2 104.5 23.6 105.4 23.6 C 105.6 23.6 105.7 23.6 105.9 23.6 C 105.9 23.6 105.9 24 105.9 24 C 105.8 24 105.6 24.1 105.3 24.1 C 104.2 24.1 103.3 23.4 103.3 22 C 103.33 22.02 103.3 18.1 103.3 18.1 L 102.3 18.1 L 102.3 17.6 L 103.3 17.6 L 103.3 16.1 L 103.8 16.1 L 103.8 17.6 Z M 107.2 23 C 107.18 23.04 107.2 22.6 107.2 22.6 L 107.7 22.6 C 107.7 22.6 107.69 23.03 107.7 23 C 107.7 24 107.3 25 107.1 25.6 C 107.1 25.6 106.6 25.6 106.6 25.6 C 106.9 25 107.2 24 107.2 23 Z M 118.6 21 C 118.6 21 113.6 21 113.6 21 C 113.7 22.6 114.7 23.6 116.1 23.6 C 116.9 23.6 117.7 23.4 118.4 22.7 C 118.4 22.7 118.4 23.3 118.4 23.3 C 117.7 23.8 116.9 24.1 116.1 24.1 C 114.3 24.1 113.1 22.8 113.1 20.8 C 113.1 18.8 114.5 17.5 116 17.5 C 117.4 17.5 118.6 18.6 118.6 20.7 C 118.6 20.8 118.6 20.9 118.6 21 Z M 118.1 20.5 C 118.1 18.8 117.1 18 116 18 C 114.8 18 113.7 19 113.6 20.5 C 113.6 20.5 118.1 20.5 118.1 20.5 Z M 125.2 19.8 C 125.23 19.76 125.2 24 125.2 24 L 124.7 24 C 124.7 24 124.73 19.97 124.7 20 C 124.7 18.7 124.1 18 122.9 18 C 121.8 18 120.9 18.7 120.9 19.9 C 120.95 19.91 120.9 24 120.9 24 L 120.4 24 L 120.4 17.6 L 120.8 17.6 L 120.9 18.8 C 120.9 18.8 120.91 18.76 120.9 18.8 C 121.3 18 122 17.5 123 17.5 C 124.3 17.5 125.2 18.4 125.2 19.8 Z M 131.1 17.6 L 131.5 17.6 C 131.5 17.6 131.57 19.24 131.6 19.2 C 132 18.1 133.1 17.5 134.1 17.5 C 135.6 17.5 137 18.8 137 20.8 C 137 22.8 135.6 24.1 134.1 24.1 C 133.1 24.1 132 23.5 131.6 22.5 C 131.6 22.45 131.6 26.6 131.6 26.6 L 131.1 26.6 L 131.1 17.6 Z M 136.5 20.8 C 136.5 19.1 135.4 18 134 18 C 132.7 18 131.6 19.1 131.6 20.8 C 131.6 22.5 132.7 23.6 134 23.6 C 135.3 23.6 136.5 22.5 136.5 20.8 Z M 138.8 17.6 L 139.2 17.6 L 139.3 18.8 C 139.3 18.8 139.28 18.82 139.3 18.8 C 139.7 17.9 140.5 17.6 141.2 17.6 C 141.3 17.6 141.4 17.6 141.6 17.6 C 141.6 17.6 141.6 18.1 141.6 18.1 C 141.4 18.1 141.3 18.1 141.2 18.1 C 140.3 18.1 139.3 18.7 139.3 20 C 139.32 19.97 139.3 24 139.3 24 L 138.8 24 L 138.8 17.6 Z M 147.7 21 C 147.7 21 142.6 21 142.6 21 C 142.7 22.6 143.7 23.6 145.2 23.6 C 146 23.6 146.8 23.4 147.5 22.7 C 147.5 22.7 147.5 23.3 147.5 23.3 C 146.8 23.8 146 24.1 145.2 24.1 C 143.4 24.1 142.1 22.8 142.1 20.8 C 142.1 18.8 143.5 17.5 145.1 17.5 C 146.5 17.5 147.7 18.6 147.7 20.7 C 147.7 20.8 147.7 20.9 147.7 21 Z M 147.2 20.5 C 147.2 18.8 146.2 18 145.1 18 C 143.9 18 142.8 19 142.6 20.5 C 142.6 20.5 147.2 20.5 147.2 20.5 Z M 154.3 19.8 C 154.3 19.76 154.3 24 154.3 24 L 153.8 24 C 153.8 24 153.79 19.97 153.8 20 C 153.8 18.7 153.1 18 152 18 C 150.9 18 150 18.7 150 19.9 C 150.01 19.91 150 24 150 24 L 149.5 24 L 149.5 17.6 L 149.9 17.6 L 150 18.8 C 150 18.8 149.98 18.76 150 18.8 C 150.3 18 151.1 17.5 152.1 17.5 C 153.4 17.5 154.3 18.4 154.3 19.8 Z M 156 20.8 C 156 18.8 157.4 17.5 158.9 17.5 C 160 17.5 161 18.1 161.4 19.2 C 161.45 19.22 161.5 17.6 161.5 17.6 L 161.9 17.6 L 161.9 24 L 161.5 24 C 161.5 24 161.45 22.4 161.4 22.4 C 161 23.6 160 24.1 159 24.1 C 157.4 24.1 156 22.8 156 20.8 Z M 161.4 20.8 C 161.4 19.1 160.3 18 159 18 C 157.7 18 156.5 19.1 156.5 20.8 C 156.5 22.5 157.7 23.6 159 23.6 C 160.3 23.6 161.4 22.5 161.4 20.8 Z M 169 19.8 C 168.98 19.76 169 24 169 24 L 168.5 24 C 168.5 24 168.48 19.97 168.5 20 C 168.5 18.7 167.8 18 166.7 18 C 165.6 18 164.7 18.7 164.7 19.9 C 164.7 19.91 164.7 24 164.7 24 L 164.2 24 L 164.2 17.6 L 164.6 17.6 L 164.7 18.8 C 164.7 18.8 164.66 18.76 164.7 18.8 C 165 18 165.8 17.5 166.7 17.5 C 168.1 17.5 169 18.4 169 19.8 Z M 171.8 17.6 L 173.7 17.6 L 173.7 18.1 L 171.8 18.1 C 171.8 18.1 171.8 22 171.8 22 C 171.8 23.2 172.4 23.6 173.3 23.6 C 173.5 23.6 173.7 23.6 173.9 23.6 C 173.9 23.6 173.9 24 173.9 24 C 173.8 24 173.6 24.1 173.3 24.1 C 172.1 24.1 171.3 23.4 171.3 22 C 171.3 22.02 171.3 18.1 171.3 18.1 L 170.3 18.1 L 170.3 17.6 L 171.3 17.6 L 171.3 16.1 L 171.8 16.1 L 171.8 17.6 Z M 183.9 21 C 183.9 21 178.9 21 178.9 21 C 179 22.6 180 23.6 181.5 23.6 C 182.2 23.6 183 23.4 183.7 22.7 C 183.7 22.7 183.7 23.3 183.7 23.3 C 183 23.8 182.3 24.1 181.4 24.1 C 179.6 24.1 178.4 22.8 178.4 20.8 C 178.4 18.8 179.8 17.5 181.3 17.5 C 182.8 17.5 184 18.6 184 20.7 C 184 20.8 184 20.9 183.9 21 Z M 183.5 20.5 C 183.4 18.8 182.4 18 181.3 18 C 180.1 18 179 19 178.9 20.5 C 178.9 20.5 183.5 20.5 183.5 20.5 Z M 190.6 19.8 C 190.56 19.76 190.6 24 190.6 24 L 190.1 24 C 190.1 24 190.06 19.97 190.1 20 C 190.1 18.7 189.4 18 188.2 18 C 187.2 18 186.3 18.7 186.3 19.9 C 186.27 19.91 186.3 24 186.3 24 L 185.8 24 L 185.8 17.6 L 186.2 17.6 L 186.2 18.8 C 186.2 18.8 186.24 18.76 186.2 18.8 C 186.6 18 187.4 17.5 188.3 17.5 C 189.7 17.5 190.6 18.4 190.6 19.8 Z M 199.1 23.6 C 199.6 23.6 200.2 23.5 200.8 23.1 C 200.8 23.1 200.8 23.7 200.8 23.7 C 200.3 24 199.7 24.1 199.1 24.1 C 197.3 24.1 196 22.7 196 20.8 C 196 18.9 197.3 17.5 199 17.5 C 199.6 17.5 200.2 17.6 200.8 18 C 200.8 18 200.8 18.5 200.8 18.5 C 200.2 18.1 199.6 18 199 18 C 197.7 18 196.5 19.1 196.5 20.8 C 196.5 22.5 197.7 23.6 199.1 23.6 Z M 201.9 20.8 C 201.9 18.9 203.3 17.5 205 17.5 C 206.7 17.5 208 18.9 208 20.8 C 208 22.8 206.7 24.1 205 24.1 C 203.3 24.1 201.9 22.8 201.9 20.8 Z M 207.5 20.8 C 207.5 19 206.3 18 205 18 C 203.7 18 202.4 19 202.4 20.8 C 202.4 22.6 203.7 23.6 205 23.6 C 206.3 23.6 207.5 22.6 207.5 20.8 Z M 217.6 19.7 C 217.57 19.68 217.6 24 217.6 24 L 217.1 24 C 217.1 24 217.07 19.73 217.1 19.7 C 217.1 18.7 216.6 18 215.6 18 C 214.6 18 214 18.8 214 19.7 C 213.96 19.74 214 24 214 24 L 213.5 24 C 213.5 24 213.46 19.73 213.5 19.7 C 213.5 18.7 213 18 212 18 C 210.9 18 210.3 18.8 210.3 19.8 C 210.35 19.76 210.3 24 210.3 24 L 209.8 24 L 209.8 17.6 L 210.2 17.6 L 210.3 18.7 C 210.3 18.7 210.31 18.68 210.3 18.7 C 210.6 18 211.2 17.5 212 17.5 C 213 17.5 213.6 18 213.8 18.8 C 214.1 18 214.7 17.5 215.6 17.5 C 216.9 17.5 217.6 18.4 217.6 19.7 Z M 219.8 17.6 L 220.2 17.6 C 220.2 17.6 220.25 19.24 220.2 19.2 C 220.7 18.1 221.7 17.5 222.8 17.5 C 224.3 17.5 225.7 18.8 225.7 20.8 C 225.7 22.8 224.3 24.1 222.8 24.1 C 221.7 24.1 220.7 23.5 220.3 22.5 C 220.28 22.45 220.3 26.6 220.3 26.6 L 219.8 26.6 L 219.8 17.6 Z M 225.2 20.8 C 225.2 19.1 224 18 222.7 18 C 221.4 18 220.3 19.1 220.3 20.8 C 220.3 22.5 221.4 23.6 222.7 23.6 C 224 23.6 225.2 22.5 225.2 20.8 Z M 228.1 17.6 L 230 17.6 L 230 18.1 L 228.1 18.1 C 228.1 18.1 228.11 22 228.1 22 C 228.1 23.2 228.7 23.6 229.6 23.6 C 229.8 23.6 230 23.6 230.2 23.6 C 230.2 23.6 230.2 24 230.2 24 C 230.1 24 229.9 24.1 229.6 24.1 C 228.4 24.1 227.6 23.4 227.6 22 C 227.6 22.02 227.6 18.1 227.6 18.1 L 226.6 18.1 L 226.6 17.6 L 227.6 17.6 L 227.6 16.1 L 228.1 16.1 L 228.1 17.6 Z M 236.6 21 C 236.6 21 231.5 21 231.5 21 C 231.6 22.6 232.6 23.6 234.1 23.6 C 234.8 23.6 235.7 23.4 236.3 22.7 C 236.3 22.7 236.3 23.3 236.3 23.3 C 235.7 23.8 234.9 24.1 234 24.1 C 232.3 24.1 231 22.8 231 20.8 C 231 18.8 232.4 17.5 234 17.5 C 235.4 17.5 236.6 18.6 236.6 20.7 C 236.6 20.8 236.6 20.9 236.6 21 Z M 236.1 20.5 C 236.1 18.8 235 18 234 18 C 232.8 18 231.6 19 231.5 20.5 C 231.5 20.5 236.1 20.5 236.1 20.5 Z M 242.1 14.5 L 242.6 14.5 L 242.6 24 L 242.1 24 L 242.1 14.5 Z M 244.5 20.8 C 244.5 18.8 245.9 17.5 247.4 17.5 C 248.4 17.5 249.4 18.1 249.9 19.2 C 249.88 19.22 249.9 17.6 249.9 17.6 L 250.3 17.6 L 250.3 24 L 249.9 24 C 249.9 24 249.88 22.4 249.9 22.4 C 249.4 23.6 248.4 24.1 247.4 24.1 C 245.9 24.1 244.5 22.8 244.5 20.8 Z M 249.9 20.8 C 249.9 19.1 248.7 18 247.4 18 C 246.1 18 245 19.1 245 20.8 C 245 22.5 246.1 23.6 247.4 23.6 C 248.7 23.6 249.9 22.5 249.9 20.8 Z M 261.2 19.2 C 261.22 19.16 261.3 17.6 261.3 17.6 L 261.7 17.6 C 261.7 17.6 261.68 23.8 261.7 23.8 C 261.7 25.8 260.3 26.7 258.9 26.7 C 258 26.7 257.2 26.4 256.5 25.9 C 256.5 25.9 256.5 25.3 256.5 25.3 C 257.2 25.9 258 26.2 258.9 26.2 C 260.1 26.2 261.2 25.5 261.2 23.9 C 261.2 23.9 261.2 22.3 261.2 22.3 C 260.7 23.4 259.7 23.9 258.7 23.9 C 257.2 23.9 255.8 22.7 255.8 20.7 C 255.8 18.8 257.2 17.5 258.7 17.5 C 259.7 17.5 260.7 18.1 261.2 19.2 Z M 256.3 20.7 C 256.3 22.4 257.5 23.4 258.8 23.4 C 260.1 23.4 261.2 22.3 261.2 20.7 C 261.2 19.1 260.1 18 258.8 18 C 257.5 18 256.3 19.1 256.3 20.7 Z M 269.1 21 C 269.1 21 264 21 264 21 C 264.1 22.6 265.1 23.6 266.6 23.6 C 267.3 23.6 268.2 23.4 268.8 22.7 C 268.8 22.7 268.8 23.3 268.8 23.3 C 268.2 23.8 267.4 24.1 266.6 24.1 C 264.8 24.1 263.5 22.8 263.5 20.8 C 263.5 18.8 264.9 17.5 266.5 17.5 C 267.9 17.5 269.1 18.6 269.1 20.7 C 269.1 20.8 269.1 20.9 269.1 21 Z M 268.6 20.5 C 268.6 18.8 267.6 18 266.5 18 C 265.3 18 264.1 19 264 20.5 C 264 20.5 268.6 20.5 268.6 20.5 Z M 274.5 18.1 C 274.5 18.1 274.5 18.6 274.5 18.6 C 273.9 18.3 273.3 18 272.6 18 C 271.7 18 271.1 18.5 271.1 19.2 C 271.1 19.9 271.7 20.2 272.7 20.5 C 273.8 20.9 274.8 21.2 274.8 22.3 C 274.8 23.4 273.9 24.1 272.6 24.1 C 271.8 24.1 271.1 23.9 270.5 23.4 C 270.5 23.4 270.5 22.7 270.5 22.7 C 271 23.3 271.8 23.6 272.6 23.6 C 273.6 23.6 274.3 23.1 274.3 22.3 C 274.3 21.6 273.5 21.3 272.5 20.9 C 271.5 20.6 270.6 20.3 270.6 19.2 C 270.6 18.2 271.4 17.5 272.6 17.5 C 273.3 17.5 274 17.7 274.5 18.1 Z M 277.2 17.6 L 279.1 17.6 L 279.1 18.1 L 277.2 18.1 C 277.2 18.1 277.2 22 277.2 22 C 277.2 23.2 277.8 23.6 278.7 23.6 C 278.9 23.6 279.1 23.6 279.3 23.6 C 279.3 23.6 279.3 24 279.3 24 C 279.2 24 279 24.1 278.7 24.1 C 277.5 24.1 276.7 23.4 276.7 22 C 276.7 22.02 276.7 18.1 276.7 18.1 L 275.7 18.1 L 275.7 17.6 L 276.7 17.6 L 276.7 16.1 L 277.2 16.1 L 277.2 17.6 Z M 280.5 15.3 C 280.5 15.1 280.7 14.9 280.9 14.9 C 281.2 14.9 281.3 15.1 281.3 15.3 C 281.3 15.5 281.2 15.7 280.9 15.7 C 280.7 15.7 280.5 15.5 280.5 15.3 Z M 280.7 17.6 L 281.2 17.6 L 281.2 24 L 280.7 24 L 280.7 17.6 Z M 283 20.8 C 283 18.9 284.4 17.5 286.1 17.5 C 287.7 17.5 289.1 18.9 289.1 20.8 C 289.1 22.8 287.7 24.1 286.1 24.1 C 284.4 24.1 283 22.8 283 20.8 Z M 288.6 20.8 C 288.6 19 287.4 18 286.1 18 C 284.8 18 283.5 19 283.5 20.8 C 283.5 22.6 284.8 23.6 286.1 23.6 C 287.4 23.6 288.6 22.6 288.6 20.8 Z M 295.7 19.8 C 295.73 19.76 295.7 24 295.7 24 L 295.2 24 C 295.2 24 295.22 19.97 295.2 20 C 295.2 18.7 294.6 18 293.4 18 C 292.3 18 291.4 18.7 291.4 19.9 C 291.44 19.91 291.4 24 291.4 24 L 290.9 24 L 290.9 17.6 L 291.3 17.6 L 291.4 18.8 C 291.4 18.8 291.41 18.76 291.4 18.8 C 291.8 18 292.5 17.5 293.5 17.5 C 294.8 17.5 295.7 18.4 295.7 19.8 Z M 301.2 20.8 C 301.2 18.8 302.5 17.5 304.1 17.5 C 305.1 17.5 306.1 18.1 306.5 19.2 C 306.53 19.18 306.5 14.5 306.5 14.5 L 307 14.5 L 307 24 L 306.6 24 L 306.6 22.4 C 306.6 22.4 306.55 22.39 306.6 22.4 C 306.1 23.6 305.1 24.1 304.1 24.1 C 302.6 24.1 301.2 22.8 301.2 20.8 Z M 306.6 20.8 C 306.6 19.1 305.4 18 304.1 18 C 302.8 18 301.7 19.1 301.7 20.8 C 301.7 22.5 302.8 23.6 304.1 23.6 C 305.4 23.6 306.6 22.5 306.6 20.8 Z M 314.4 21 C 314.4 21 309.4 21 309.4 21 C 309.5 22.6 310.5 23.6 311.9 23.6 C 312.7 23.6 313.5 23.4 314.2 22.7 C 314.2 22.7 314.2 23.3 314.2 23.3 C 313.5 23.8 312.7 24.1 311.9 24.1 C 310.1 24.1 308.9 22.8 308.9 20.8 C 308.9 18.8 310.3 17.5 311.8 17.5 C 313.2 17.5 314.4 18.6 314.4 20.7 C 314.4 20.8 314.4 20.9 314.4 21 Z M 313.9 20.5 C 313.9 18.8 312.9 18 311.8 18 C 310.6 18 309.5 19 309.4 20.5 C 309.4 20.5 313.9 20.5 313.9 20.5 Z M 319.8 18.1 C 319.8 18.1 319.8 18.6 319.8 18.6 C 319.3 18.3 318.7 18 318 18 C 317 18 316.4 18.5 316.4 19.2 C 316.4 19.9 317.1 20.2 318.1 20.5 C 319.1 20.9 320.1 21.2 320.1 22.3 C 320.1 23.4 319.2 24.1 318 24.1 C 317.2 24.1 316.4 23.9 315.8 23.4 C 315.8 23.4 315.8 22.7 315.8 22.7 C 316.4 23.3 317.1 23.6 318 23.6 C 319 23.6 319.6 23.1 319.6 22.3 C 319.6 21.6 318.9 21.3 317.9 20.9 C 316.8 20.6 315.9 20.3 315.9 19.2 C 315.9 18.2 316.8 17.5 318 17.5 C 318.7 17.5 319.3 17.7 319.8 18.1 Z M 325.1 20.8 C 325.1 18.8 326.5 17.5 328 17.5 C 329 17.5 330 18.1 330.5 19.2 C 330.47 19.18 330.5 14.5 330.5 14.5 L 331 14.5 L 331 24 L 330.6 24 L 330.5 22.4 C 330.5 22.4 330.49 22.39 330.5 22.4 C 330 23.6 329 24.1 328 24.1 C 326.5 24.1 325.1 22.8 325.1 20.8 Z M 330.5 20.8 C 330.5 19.1 329.4 18 328 18 C 326.7 18 325.6 19.1 325.6 20.8 C 325.6 22.5 326.7 23.6 328 23.6 C 329.4 23.6 330.5 22.5 330.5 20.8 Z M 335.5 16.5 L 335.1 16.5 L 336.5 14.6 L 337.1 14.6 L 335.5 16.5 Z M 338.4 21 C 338.4 21 333.3 21 333.3 21 C 333.4 22.6 334.4 23.6 335.9 23.6 C 336.6 23.6 337.5 23.4 338.1 22.7 C 338.1 22.7 338.1 23.3 338.1 23.3 C 337.5 23.8 336.7 24.1 335.8 24.1 C 334.1 24.1 332.8 22.8 332.8 20.8 C 332.8 18.8 334.2 17.5 335.8 17.5 C 337.2 17.5 338.4 18.6 338.4 20.7 C 338.4 20.8 338.4 20.9 338.4 21 Z M 337.9 20.5 C 337.9 18.8 336.8 18 335.8 18 C 334.5 18 333.4 19 333.3 20.5 C 333.3 20.5 337.9 20.5 337.9 20.5 Z M 342.8 23.6 C 343.3 23.6 344 23.5 344.5 23.1 C 344.5 23.1 344.5 23.7 344.5 23.7 C 344 24 343.4 24.1 342.8 24.1 C 341.1 24.1 339.7 22.7 339.7 20.8 C 339.7 18.9 341.1 17.5 342.8 17.5 C 343.4 17.5 344 17.6 344.5 18 C 344.5 18 344.5 18.5 344.5 18.5 C 344 18.1 343.4 18 342.8 18 C 341.5 18 340.2 19.1 340.2 20.8 C 340.2 22.5 341.5 23.6 342.8 23.6 Z M 346.8 18.6 C 346.8 18.6 346.82 18.64 346.8 18.6 C 347.2 17.9 348 17.5 348.8 17.5 C 350.2 17.5 351.1 18.3 351.1 19.8 C 351.09 19.78 351.1 24 351.1 24 L 350.6 24 C 350.6 24 350.59 19.96 350.6 20 C 350.6 18.7 350 18 348.8 18 C 347.8 18 346.8 18.6 346.8 19.8 C 346.81 19.85 346.8 24 346.8 24 L 346.3 24 L 346.3 14.5 L 346.8 14.5 L 346.8 18.6 Z M 358.4 21 C 358.4 21 353.4 21 353.4 21 C 353.4 22.6 354.5 23.6 355.9 23.6 C 356.7 23.6 357.5 23.4 358.2 22.7 C 358.2 22.7 358.2 23.3 358.2 23.3 C 357.5 23.8 356.7 24.1 355.9 24.1 C 354.1 24.1 352.9 22.8 352.9 20.8 C 352.9 18.8 354.3 17.5 355.8 17.5 C 357.2 17.5 358.4 18.6 358.4 20.7 C 358.4 20.8 358.4 20.9 358.4 21 Z M 357.9 20.5 C 357.9 18.8 356.9 18 355.8 18 C 354.6 18 353.5 19 353.4 20.5 C 353.4 20.5 357.9 20.5 357.9 20.5 Z M 360.9 17.6 L 362.8 17.6 L 362.8 18.1 L 360.9 18.1 C 360.9 18.1 360.86 22 360.9 22 C 360.9 23.2 361.5 23.6 362.4 23.6 C 362.6 23.6 362.7 23.6 362.9 23.6 C 362.9 23.6 362.9 24 362.9 24 C 362.9 24 362.6 24.1 362.3 24.1 C 361.2 24.1 360.4 23.4 360.4 22 C 360.36 22.02 360.4 18.1 360.4 18.1 L 359.4 18.1 L 359.4 17.6 L 360.4 17.6 L 360.4 16.1 L 360.9 16.1 L 360.9 17.6 Z M 367.8 18.1 C 367.8 18.1 367.8 18.6 367.8 18.6 C 367.3 18.3 366.7 18 366 18 C 365.1 18 364.5 18.5 364.5 19.2 C 364.5 19.9 365.1 20.2 366.1 20.5 C 367.2 20.9 368.2 21.2 368.2 22.3 C 368.2 23.4 367.3 24.1 366 24.1 C 365.2 24.1 364.5 23.9 363.9 23.4 C 363.9 23.4 363.9 22.7 363.9 22.7 C 364.4 23.3 365.2 23.6 366 23.6 C 367 23.6 367.7 23.1 367.7 22.3 C 367.7 21.6 366.9 21.3 365.9 20.9 C 364.9 20.6 363.9 20.3 363.9 19.2 C 363.9 18.2 364.8 17.5 366 17.5 C 366.7 17.5 367.4 17.7 367.8 18.1 Z M 369.8 23 C 369.83 23.04 369.8 22.6 369.8 22.6 L 370.3 22.6 C 370.3 22.6 370.33 23.03 370.3 23 C 370.3 24 369.9 25 369.7 25.6 C 369.7 25.6 369.3 25.6 369.3 25.6 C 369.5 25 369.8 24 369.8 23 Z " stroke="none" fill="#000"/>
  </g>
  <g id="Polygon17627">
    <path d="M 7.4 9.6 L 6.1 6.5 L 2 6.5 L 0.8 9.6 L 0.2 9.6 L 3.8 0.7 L 4.4 0.7 L 8 9.6 L 7.4 9.6 Z M 2.2 6 L 6 6 L 4.1 1.3 L 2.2 6 Z M 9.2 7.3 C 9.17 7.28 9.2 3.2 9.2 3.2 L 9.7 3.2 C 9.7 3.2 9.67 7.31 9.7 7.3 C 9.7 8.5 10.4 9.2 11.6 9.2 C 12.7 9.2 13.5 8.5 13.5 7.3 C 13.46 7.3 13.5 3.2 13.5 3.2 L 14 3.2 C 14 3.2 13.97 7.27 14 7.3 C 14 8.7 13 9.7 11.6 9.7 C 10.1 9.7 9.2 8.7 9.2 7.3 Z M 16.8 3.2 L 18.7 3.2 L 18.7 3.7 L 16.8 3.7 C 16.8 3.7 16.85 7.6 16.8 7.6 C 16.8 8.8 17.5 9.2 18.4 9.2 C 18.6 9.2 18.7 9.2 18.9 9.2 C 18.9 9.2 18.9 9.6 18.9 9.6 C 18.9 9.6 18.6 9.7 18.3 9.7 C 17.2 9.7 16.3 9 16.3 7.6 C 16.34 7.62 16.3 3.7 16.3 3.7 L 15.4 3.7 L 15.4 3.2 L 16.4 3.2 L 16.4 1.7 L 16.8 1.7 L 16.8 3.2 Z M 19.7 6.4 C 19.7 4.5 21.1 3.1 22.8 3.1 C 24.5 3.1 25.8 4.5 25.8 6.4 C 25.8 8.4 24.5 9.7 22.8 9.7 C 21.1 9.7 19.7 8.4 19.7 6.4 Z M 25.3 6.4 C 25.3 4.6 24.1 3.6 22.8 3.6 C 21.5 3.6 20.2 4.6 20.2 6.4 C 20.2 8.2 21.5 9.2 22.8 9.2 C 24.1 9.2 25.3 8.2 25.3 6.4 Z M 27.6 7.3 C 27.56 7.28 27.6 3.2 27.6 3.2 L 28.1 3.2 C 28.1 3.2 28.07 7.31 28.1 7.3 C 28.1 8.5 28.8 9.2 30 9.2 C 31.1 9.2 31.9 8.5 31.9 7.3 C 31.86 7.3 31.9 3.2 31.9 3.2 L 32.4 3.2 C 32.4 3.2 32.36 7.27 32.4 7.3 C 32.4 8.7 31.4 9.7 30 9.7 C 28.5 9.7 27.6 8.7 27.6 7.3 Z M 34.6 3.2 L 35 3.2 L 35 4.4 C 35 4.4 35.03 4.42 35 4.4 C 35.4 3.5 36.3 3.2 36.9 3.2 C 37 3.2 37.2 3.2 37.3 3.2 C 37.3 3.2 37.3 3.7 37.3 3.7 C 37.2 3.7 37 3.7 36.9 3.7 C 36 3.7 35.1 4.3 35.1 5.6 C 35.06 5.57 35.1 9.6 35.1 9.6 L 34.6 9.6 L 34.6 3.2 Z M 41.3 6.4 C 41.3 4.4 42.7 3.1 44.2 3.1 C 45.2 3.1 46.2 3.7 46.7 4.8 C 46.69 4.78 46.7 0.1 46.7 0.1 L 47.2 0.1 L 47.2 9.6 L 46.8 9.6 L 46.7 8 C 46.7 8 46.71 7.99 46.7 8 C 46.3 9.2 45.2 9.7 44.2 9.7 C 42.7 9.7 41.3 8.4 41.3 6.4 Z M 46.7 6.4 C 46.7 4.7 45.6 3.6 44.3 3.6 C 42.9 3.6 41.8 4.7 41.8 6.4 C 41.8 8.1 42.9 9.2 44.3 9.2 C 45.6 9.2 46.7 8.1 46.7 6.4 Z M 54.6 6.6 C 54.6 6.6 49.5 6.6 49.5 6.6 C 49.6 8.2 50.6 9.2 52.1 9.2 C 52.9 9.2 53.7 9 54.4 8.3 C 54.4 8.3 54.4 8.9 54.4 8.9 C 53.7 9.4 52.9 9.7 52.1 9.7 C 50.3 9.7 49 8.4 49 6.4 C 49 4.4 50.4 3.1 52 3.1 C 53.4 3.1 54.6 4.2 54.6 6.3 C 54.6 6.4 54.6 6.5 54.6 6.6 Z M 54.1 6.1 C 54.1 4.4 53.1 3.6 52 3.6 C 50.8 3.6 49.7 4.6 49.5 6.1 C 49.5 6.1 54.1 6.1 54.1 6.1 Z M 62.5 9.2 C 63 9.2 63.6 9.1 64.2 8.7 C 64.2 8.7 64.2 9.3 64.2 9.3 C 63.7 9.6 63.1 9.7 62.5 9.7 C 60.7 9.7 59.4 8.3 59.4 6.4 C 59.4 4.5 60.7 3.1 62.5 3.1 C 63 3.1 63.6 3.2 64.2 3.6 C 64.2 3.6 64.2 4.1 64.2 4.1 C 63.6 3.7 63 3.6 62.4 3.6 C 61.1 3.6 59.9 4.7 59.9 6.4 C 59.9 8.1 61.1 9.2 62.5 9.2 Z M 70.9 6.6 C 70.9 6.6 65.9 6.6 65.9 6.6 C 65.9 8.2 67 9.2 68.4 9.2 C 69.2 9.2 70 9 70.7 8.3 C 70.7 8.3 70.7 8.9 70.7 8.9 C 70 9.4 69.2 9.7 68.4 9.7 C 66.6 9.7 65.4 8.4 65.4 6.4 C 65.4 4.4 66.8 3.1 68.3 3.1 C 69.7 3.1 70.9 4.2 70.9 6.3 C 70.9 6.4 70.9 6.5 70.9 6.6 Z M 70.4 6.1 C 70.4 4.4 69.4 3.6 68.3 3.6 C 67.1 3.6 66 4.6 65.9 6.1 C 65.9 6.1 70.4 6.1 70.4 6.1 Z M 83.9 5.3 C 83.9 5.28 83.9 9.6 83.9 9.6 L 83.4 9.6 C 83.4 9.6 83.39 5.33 83.4 5.3 C 83.4 4.3 82.9 3.6 81.9 3.6 C 80.9 3.6 80.3 4.4 80.3 5.3 C 80.28 5.34 80.3 9.6 80.3 9.6 L 79.8 9.6 C 79.8 9.6 79.78 5.33 79.8 5.3 C 79.8 4.3 79.3 3.6 78.3 3.6 C 77.3 3.6 76.7 4.4 76.7 5.4 C 76.67 5.36 76.7 9.6 76.7 9.6 L 76.2 9.6 L 76.2 3.2 L 76.6 3.2 L 76.6 4.3 C 76.6 4.3 76.64 4.28 76.6 4.3 C 76.9 3.6 77.5 3.1 78.4 3.1 C 79.3 3.1 79.9 3.6 80.1 4.4 C 80.4 3.6 81.1 3.1 82 3.1 C 83.3 3.1 83.9 4 83.9 5.3 Z M 85.6 6.4 C 85.6 4.4 87.1 3.1 88.6 3.1 C 89.6 3.1 90.6 3.7 91.1 4.8 C 91.06 4.82 91.1 3.2 91.1 3.2 L 91.5 3.2 L 91.5 9.6 L 91.1 9.6 C 91.1 9.6 91.06 8 91.1 8 C 90.6 9.2 89.6 9.7 88.6 9.7 C 87.1 9.7 85.6 8.4 85.6 6.4 Z M 91 6.4 C 91 4.7 89.9 3.6 88.6 3.6 C 87.3 3.6 86.2 4.7 86.2 6.4 C 86.2 8.1 87.3 9.2 88.6 9.2 C 89.9 9.2 91 8.1 91 6.4 Z M 94.5 3.2 L 96.4 3.2 L 96.4 3.7 L 94.5 3.7 C 94.5 3.7 94.49 7.6 94.5 7.6 C 94.5 8.8 95.1 9.2 96 9.2 C 96.2 9.2 96.4 9.2 96.6 9.2 C 96.6 9.2 96.6 9.6 96.6 9.6 C 96.5 9.6 96.2 9.7 96 9.7 C 94.8 9.7 94 9 94 7.6 C 93.99 7.62 94 3.7 94 3.7 L 93 3.7 L 93 3.2 L 94 3.2 L 94 1.7 L 94.5 1.7 L 94.5 3.2 Z M 100.1 2.1 L 99.6 2.1 L 101.1 0.2 L 101.7 0.2 L 100.1 2.1 Z M 103 6.6 C 103 6.6 97.9 6.6 97.9 6.6 C 98 8.2 99 9.2 100.5 9.2 C 101.2 9.2 102 9 102.7 8.3 C 102.7 8.3 102.7 8.9 102.7 8.9 C 102.1 9.4 101.3 9.7 100.4 9.7 C 98.6 9.7 97.4 8.4 97.4 6.4 C 97.4 4.4 98.8 3.1 100.3 3.1 C 101.8 3.1 103 4.2 103 6.3 C 103 6.4 103 6.5 103 6.6 Z M 102.5 6.1 C 102.4 4.4 101.4 3.6 100.3 3.6 C 99.1 3.6 98 4.6 97.9 6.1 C 97.9 6.1 102.5 6.1 102.5 6.1 Z M 104.8 3.2 L 105.2 3.2 L 105.2 4.4 C 105.2 4.4 105.24 4.42 105.2 4.4 C 105.6 3.5 106.5 3.2 107.1 3.2 C 107.3 3.2 107.4 3.2 107.5 3.2 C 107.5 3.2 107.5 3.7 107.5 3.7 C 107.4 3.7 107.3 3.7 107.1 3.7 C 106.2 3.7 105.3 4.3 105.3 5.6 C 105.28 5.57 105.3 9.6 105.3 9.6 L 104.8 9.6 L 104.8 3.2 Z M 108.7 0.9 C 108.7 0.7 108.9 0.5 109.1 0.5 C 109.4 0.5 109.5 0.7 109.5 0.9 C 109.5 1.1 109.4 1.3 109.1 1.3 C 108.9 1.3 108.7 1.1 108.7 0.9 Z M 108.9 3.2 L 109.4 3.2 L 109.4 9.6 L 108.9 9.6 L 108.9 3.2 Z M 111.2 6.4 C 111.2 4.4 112.6 3.1 114.1 3.1 C 115.2 3.1 116.2 3.7 116.7 4.8 C 116.66 4.82 116.7 3.2 116.7 3.2 L 117.1 3.2 L 117.1 9.6 L 116.7 9.6 C 116.7 9.6 116.66 8 116.7 8 C 116.2 9.2 115.2 9.7 114.2 9.7 C 112.6 9.7 111.2 8.4 111.2 6.4 Z M 116.6 6.4 C 116.6 4.7 115.5 3.6 114.2 3.6 C 112.9 3.6 111.7 4.7 111.7 6.4 C 111.7 8.1 112.9 9.2 114.2 9.2 C 115.5 9.2 116.6 8.1 116.6 6.4 Z M 119.3 7.3 C 119.32 7.28 119.3 3.2 119.3 3.2 L 119.8 3.2 C 119.8 3.2 119.82 7.31 119.8 7.3 C 119.8 8.5 120.6 9.2 121.7 9.2 C 122.9 9.2 123.6 8.5 123.6 7.3 C 123.62 7.3 123.6 3.2 123.6 3.2 L 124.1 3.2 C 124.1 3.2 124.12 7.27 124.1 7.3 C 124.1 8.7 123.2 9.7 121.7 9.7 C 120.2 9.7 119.3 8.7 119.3 7.3 Z M 129.6 0.9 C 129.6 0.7 129.8 0.5 130 0.5 C 130.3 0.5 130.4 0.7 130.4 0.9 C 130.4 1.1 130.3 1.3 130 1.3 C 129.8 1.3 129.6 1.1 129.6 0.9 Z M 129.8 3.2 L 130.3 3.2 L 130.3 9.6 L 129.8 9.6 L 129.8 3.2 Z M 137.4 5.4 C 137.39 5.36 137.4 9.6 137.4 9.6 L 136.9 9.6 C 136.9 9.6 136.89 5.57 136.9 5.6 C 136.9 4.3 136.2 3.6 135.1 3.6 C 134 3.6 133.1 4.3 133.1 5.5 C 133.11 5.51 133.1 9.6 133.1 9.6 L 132.6 9.6 L 132.6 3.2 L 133 3.2 L 133.1 4.4 C 133.1 4.4 133.07 4.36 133.1 4.4 C 133.4 3.6 134.2 3.1 135.1 3.1 C 136.5 3.1 137.4 4 137.4 5.4 Z M 144.4 5.4 C 144.37 5.36 144.4 9.6 144.4 9.6 L 143.9 9.6 C 143.9 9.6 143.87 5.57 143.9 5.6 C 143.9 4.3 143.2 3.6 142.1 3.6 C 141 3.6 140.1 4.3 140.1 5.5 C 140.09 5.51 140.1 9.6 140.1 9.6 L 139.6 9.6 L 139.6 3.2 L 140 3.2 L 140 4.4 C 140 4.4 140.05 4.36 140.1 4.4 C 140.4 3.6 141.2 3.1 142.1 3.1 C 143.5 3.1 144.4 4 144.4 5.4 Z M 146.1 6.4 C 146.1 4.5 147.5 3.1 149.2 3.1 C 150.8 3.1 152.2 4.5 152.2 6.4 C 152.2 8.4 150.8 9.7 149.2 9.7 C 147.5 9.7 146.1 8.4 146.1 6.4 Z M 151.7 6.4 C 151.7 4.6 150.5 3.6 149.2 3.6 C 147.9 3.6 146.6 4.6 146.6 6.4 C 146.6 8.2 147.9 9.2 149.2 9.2 C 150.5 9.2 151.7 8.2 151.7 6.4 Z M 153.1 3.2 L 153.6 3.2 L 155.7 9 L 155.7 9 L 157.8 3.2 L 158.3 3.2 L 156 9.6 L 155.4 9.6 L 153.1 3.2 Z M 159.2 6.4 C 159.2 4.4 160.6 3.1 162.1 3.1 C 163.2 3.1 164.2 3.7 164.6 4.8 C 164.64 4.82 164.7 3.2 164.7 3.2 L 165.1 3.2 L 165.1 9.6 L 164.7 9.6 C 164.7 9.6 164.64 8 164.6 8 C 164.2 9.2 163.2 9.7 162.1 9.7 C 160.6 9.7 159.2 8.4 159.2 6.4 Z M 164.6 6.4 C 164.6 4.7 163.5 3.6 162.2 3.6 C 160.9 3.6 159.7 4.7 159.7 6.4 C 159.7 8.1 160.9 9.2 162.2 9.2 C 163.5 9.2 164.6 8.1 164.6 6.4 Z M 172.2 5.4 C 172.18 5.36 172.2 9.6 172.2 9.6 L 171.7 9.6 C 171.7 9.6 171.67 5.57 171.7 5.6 C 171.7 4.3 171 3.6 169.9 3.6 C 168.8 3.6 167.9 4.3 167.9 5.5 C 167.89 5.51 167.9 9.6 167.9 9.6 L 167.4 9.6 L 167.4 3.2 L 167.8 3.2 L 167.8 4.4 C 167.8 4.4 167.86 4.36 167.9 4.4 C 168.2 3.6 169 3.1 169.9 3.1 C 171.3 3.1 172.2 4 172.2 5.4 Z M 175 3.2 L 176.9 3.2 L 176.9 3.7 L 175 3.7 C 175 3.7 175 7.6 175 7.6 C 175 8.8 175.6 9.2 176.5 9.2 C 176.7 9.2 176.9 9.2 177.1 9.2 C 177.1 9.2 177.1 9.6 177.1 9.6 C 177 9.6 176.7 9.7 176.5 9.7 C 175.3 9.7 174.5 9 174.5 7.6 C 174.49 7.62 174.5 3.7 174.5 3.7 L 173.5 3.7 L 173.5 3.2 L 174.5 3.2 L 174.5 1.7 L 175 1.7 L 175 3.2 Z M 178.3 8.6 C 178.35 8.64 178.3 8.2 178.3 8.2 L 178.8 8.2 C 178.8 8.2 178.85 8.63 178.8 8.6 C 178.8 9.6 178.5 10.6 178.2 11.2 C 178.2 11.2 177.8 11.2 177.8 11.2 C 178 10.6 178.3 9.6 178.3 8.6 Z M 189.2 5.4 C 189.21 5.36 189.2 9.6 189.2 9.6 L 188.7 9.6 C 188.7 9.6 188.71 5.57 188.7 5.6 C 188.7 4.3 188.1 3.6 186.9 3.6 C 185.8 3.6 184.9 4.3 184.9 5.5 C 184.93 5.51 184.9 9.6 184.9 9.6 L 184.4 9.6 L 184.4 3.2 L 184.8 3.2 L 184.9 4.4 C 184.9 4.4 184.9 4.36 184.9 4.4 C 185.2 3.6 186 3.1 187 3.1 C 188.3 3.1 189.2 4 189.2 5.4 Z M 191 6.4 C 191 4.5 192.3 3.1 194 3.1 C 195.7 3.1 197 4.5 197 6.4 C 197 8.4 195.7 9.7 194 9.7 C 192.3 9.7 191 8.4 191 6.4 Z M 196.5 6.4 C 196.5 4.6 195.3 3.6 194 3.6 C 192.7 3.6 191.5 4.6 191.5 6.4 C 191.5 8.2 192.7 9.2 194 9.2 C 195.3 9.2 196.5 8.2 196.5 6.4 Z M 198.8 7.3 C 198.78 7.28 198.8 3.2 198.8 3.2 L 199.3 3.2 C 199.3 3.2 199.28 7.31 199.3 7.3 C 199.3 8.5 200 9.2 201.2 9.2 C 202.3 9.2 203.1 8.5 203.1 7.3 C 203.08 7.3 203.1 3.2 203.1 3.2 L 203.6 3.2 C 203.6 3.2 203.58 7.27 203.6 7.3 C 203.6 8.7 202.6 9.7 201.2 9.7 C 199.7 9.7 198.8 8.7 198.8 7.3 Z M 209.3 3.7 C 209.3 3.7 209.3 4.2 209.3 4.2 C 208.8 3.9 208.2 3.6 207.5 3.6 C 206.6 3.6 205.9 4.1 205.9 4.8 C 205.9 5.5 206.6 5.8 207.6 6.1 C 208.6 6.5 209.6 6.8 209.6 7.9 C 209.6 9 208.8 9.7 207.5 9.7 C 206.7 9.7 206 9.5 205.3 9 C 205.3 9 205.3 8.3 205.3 8.3 C 205.9 8.9 206.6 9.2 207.5 9.2 C 208.5 9.2 209.1 8.7 209.1 7.9 C 209.1 7.2 208.4 6.9 207.4 6.5 C 206.3 6.2 205.4 5.9 205.4 4.8 C 205.4 3.8 206.3 3.1 207.5 3.1 C 208.2 3.1 208.8 3.3 209.3 3.7 Z M 214.4 6.4 C 214.4 4.4 215.8 3.1 217.3 3.1 C 218.3 3.1 219.3 3.7 219.8 4.8 C 219.78 4.82 219.8 3.2 219.8 3.2 L 220.2 3.2 L 220.2 9.6 L 219.8 9.6 C 219.8 9.6 219.78 8 219.8 8 C 219.3 9.2 218.3 9.7 217.3 9.7 C 215.8 9.7 214.4 8.4 214.4 6.4 Z M 219.8 6.4 C 219.8 4.7 218.6 3.6 217.3 3.6 C 216 3.6 214.9 4.7 214.9 6.4 C 214.9 8.1 216 9.2 217.3 9.2 C 218.6 9.2 219.8 8.1 219.8 6.4 Z M 221.8 3.2 L 222.3 3.2 L 224.4 9 L 224.4 9 L 226.5 3.2 L 227 3.2 L 224.7 9.6 L 224.1 9.6 L 221.8 3.2 Z M 227.9 6.4 C 227.9 4.5 229.3 3.1 231 3.1 C 232.7 3.1 234 4.5 234 6.4 C 234 8.4 232.7 9.7 231 9.7 C 229.3 9.7 227.9 8.4 227.9 6.4 Z M 233.5 6.4 C 233.5 4.6 232.3 3.6 231 3.6 C 229.7 3.6 228.4 4.6 228.4 6.4 C 228.4 8.2 229.7 9.2 231 9.2 C 232.3 9.2 233.5 8.2 233.5 6.4 Z M 240.6 5.4 C 240.63 5.36 240.6 9.6 240.6 9.6 L 240.1 9.6 C 240.1 9.6 240.13 5.57 240.1 5.6 C 240.1 4.3 239.5 3.6 238.3 3.6 C 237.2 3.6 236.3 4.3 236.3 5.5 C 236.35 5.51 236.3 9.6 236.3 9.6 L 235.8 9.6 L 235.8 3.2 L 236.2 3.2 L 236.3 4.4 C 236.3 4.4 236.31 4.36 236.3 4.4 C 236.7 3.6 237.4 3.1 238.4 3.1 C 239.7 3.1 240.6 4 240.6 5.4 Z M 246.4 3.7 C 246.4 3.7 246.4 4.2 246.4 4.2 C 245.9 3.9 245.3 3.6 244.6 3.6 C 243.6 3.6 243 4.1 243 4.8 C 243 5.5 243.7 5.8 244.7 6.1 C 245.7 6.5 246.7 6.8 246.7 7.9 C 246.7 9 245.8 9.7 244.5 9.7 C 243.8 9.7 243 9.5 242.4 9 C 242.4 9 242.4 8.3 242.4 8.3 C 242.9 8.9 243.7 9.2 244.5 9.2 C 245.5 9.2 246.2 8.7 246.2 7.9 C 246.2 7.2 245.5 6.9 244.4 6.5 C 243.4 6.2 242.5 5.9 242.5 4.8 C 242.5 3.8 243.3 3.1 244.6 3.1 C 245.2 3.1 245.9 3.3 246.4 3.7 Z M 251.9 3.2 L 252.3 3.2 C 252.3 3.2 252.34 4.84 252.3 4.8 C 252.8 3.7 253.8 3.1 254.9 3.1 C 256.4 3.1 257.8 4.4 257.8 6.4 C 257.8 8.4 256.4 9.7 254.9 9.7 C 253.8 9.7 252.8 9.1 252.4 8.1 C 252.38 8.05 252.4 12.2 252.4 12.2 L 251.9 12.2 L 251.9 3.2 Z M 257.3 6.4 C 257.3 4.7 256.1 3.6 254.8 3.6 C 253.5 3.6 252.4 4.7 252.4 6.4 C 252.4 8.1 253.5 9.2 254.8 9.2 C 256.1 9.2 257.3 8.1 257.3 6.4 Z M 264.7 6.6 C 264.7 6.6 259.6 6.6 259.6 6.6 C 259.7 8.2 260.8 9.2 262.2 9.2 C 263 9.2 263.8 9 264.5 8.3 C 264.5 8.3 264.5 8.9 264.5 8.9 C 263.8 9.4 263 9.7 262.2 9.7 C 260.4 9.7 259.1 8.4 259.1 6.4 C 259.1 4.4 260.6 3.1 262.1 3.1 C 263.5 3.1 264.7 4.2 264.7 6.3 C 264.7 6.4 264.7 6.5 264.7 6.6 Z M 264.2 6.1 C 264.2 4.4 263.2 3.6 262.1 3.6 C 260.9 3.6 259.8 4.6 259.7 6.1 C 259.7 6.1 264.2 6.1 264.2 6.1 Z M 271.3 5.4 C 271.31 5.36 271.3 9.6 271.3 9.6 L 270.8 9.6 C 270.8 9.6 270.81 5.57 270.8 5.6 C 270.8 4.3 270.2 3.6 269 3.6 C 267.9 3.6 267 4.3 267 5.5 C 267.03 5.51 267 9.6 267 9.6 L 266.5 9.6 L 266.5 3.2 L 266.9 3.2 L 267 4.4 C 267 4.4 266.99 4.36 267 4.4 C 267.3 3.6 268.1 3.1 269.1 3.1 C 270.4 3.1 271.3 4 271.3 5.4 Z M 277.1 3.7 C 277.1 3.7 277.1 4.2 277.1 4.2 C 276.6 3.9 275.9 3.6 275.2 3.6 C 274.3 3.6 273.7 4.1 273.7 4.8 C 273.7 5.5 274.3 5.8 275.3 6.1 C 276.4 6.5 277.4 6.8 277.4 7.9 C 277.4 9 276.5 9.7 275.2 9.7 C 274.5 9.7 273.7 9.5 273.1 9 C 273.1 9 273.1 8.3 273.1 8.3 C 273.6 8.9 274.4 9.2 275.2 9.2 C 276.2 9.2 276.9 8.7 276.9 7.9 C 276.9 7.2 276.2 6.9 275.1 6.5 C 274.1 6.2 273.2 5.9 273.2 4.8 C 273.2 3.8 274 3.1 275.3 3.1 C 275.9 3.1 276.6 3.3 277.1 3.7 Z M 281.4 2.1 L 280.9 2.1 L 282.4 0.2 L 283 0.2 L 281.4 2.1 Z M 284.2 6.6 C 284.2 6.6 279.2 6.6 279.2 6.6 C 279.3 8.2 280.3 9.2 281.7 9.2 C 282.5 9.2 283.3 9 284 8.3 C 284 8.3 284 8.9 284 8.9 C 283.3 9.4 282.5 9.7 281.7 9.7 C 279.9 9.7 278.7 8.4 278.7 6.4 C 278.7 4.4 280.1 3.1 281.6 3.1 C 283.1 3.1 284.3 4.2 284.3 6.3 C 284.3 6.4 284.2 6.5 284.2 6.6 Z M 283.8 6.1 C 283.7 4.4 282.7 3.6 281.6 3.6 C 280.4 3.6 279.3 4.6 279.2 6.1 C 279.2 6.1 283.8 6.1 283.8 6.1 Z M 289.4 7.3 C 289.41 7.28 289.4 3.2 289.4 3.2 L 289.9 3.2 C 289.9 3.2 289.91 7.31 289.9 7.3 C 289.9 8.5 290.6 9.2 291.8 9.2 C 293 9.2 293.7 8.5 293.7 7.3 C 293.7 7.3 293.7 3.2 293.7 3.2 L 294.2 3.2 C 294.2 3.2 294.21 7.27 294.2 7.3 C 294.2 8.7 293.3 9.7 291.8 9.7 C 290.3 9.7 289.4 8.7 289.4 7.3 Z M 301.2 5.4 C 301.19 5.36 301.2 9.6 301.2 9.6 L 300.7 9.6 C 300.7 9.6 300.69 5.57 300.7 5.6 C 300.7 4.3 300 3.6 298.9 3.6 C 297.8 3.6 296.9 4.3 296.9 5.5 C 296.91 5.51 296.9 9.6 296.9 9.6 L 296.4 9.6 L 296.4 3.2 L 296.8 3.2 L 296.9 4.4 C 296.9 4.4 296.87 4.36 296.9 4.4 C 297.2 3.6 298 3.1 298.9 3.1 C 300.3 3.1 301.2 4 301.2 5.4 Z M 310.4 3.7 C 310.4 3.7 310.4 4.2 310.4 4.2 C 309.9 3.9 309.3 3.6 308.5 3.6 C 307.6 3.6 307 4.1 307 4.8 C 307 5.5 307.6 5.8 308.7 6.1 C 309.7 6.5 310.7 6.8 310.7 7.9 C 310.7 9 309.8 9.7 308.5 9.7 C 307.8 9.7 307 9.5 306.4 9 C 306.4 9 306.4 8.3 306.4 8.3 C 306.9 8.9 307.7 9.2 308.5 9.2 C 309.5 9.2 310.2 8.7 310.2 7.9 C 310.2 7.2 309.5 6.9 308.4 6.5 C 307.4 6.2 306.5 5.9 306.5 4.8 C 306.5 3.8 307.3 3.1 308.6 3.1 C 309.2 3.1 309.9 3.3 310.4 3.7 Z M 315.1 9.2 C 315.6 9.2 316.2 9.1 316.8 8.7 C 316.8 8.7 316.8 9.3 316.8 9.3 C 316.3 9.6 315.7 9.7 315.1 9.7 C 313.3 9.7 312 8.3 312 6.4 C 312 4.5 313.3 3.1 315 3.1 C 315.6 3.1 316.2 3.2 316.8 3.6 C 316.8 3.6 316.8 4.1 316.8 4.1 C 316.2 3.7 315.6 3.6 315 3.6 C 313.7 3.6 312.5 4.7 312.5 6.4 C 312.5 8.1 313.7 9.2 315.1 9.2 Z M 320.7 2.1 L 320.2 2.1 L 321.6 0.2 L 322.2 0.2 L 320.7 2.1 Z M 323.5 6.6 C 323.5 6.6 318.5 6.6 318.5 6.6 C 318.5 8.2 319.6 9.2 321 9.2 C 321.8 9.2 322.6 9 323.3 8.3 C 323.3 8.3 323.3 8.9 323.3 8.9 C 322.6 9.4 321.8 9.7 321 9.7 C 319.2 9.7 318 8.4 318 6.4 C 318 4.4 319.4 3.1 320.9 3.1 C 322.3 3.1 323.5 4.2 323.5 6.3 C 323.5 6.4 323.5 6.5 323.5 6.6 Z M 323 6.1 C 323 4.4 322 3.6 320.9 3.6 C 319.7 3.6 318.6 4.6 318.5 6.1 C 318.5 6.1 323 6.1 323 6.1 Z M 330.1 5.4 C 330.12 5.36 330.1 9.6 330.1 9.6 L 329.6 9.6 C 329.6 9.6 329.62 5.57 329.6 5.6 C 329.6 4.3 329 3.6 327.8 3.6 C 326.7 3.6 325.8 4.3 325.8 5.5 C 325.84 5.51 325.8 9.6 325.8 9.6 L 325.3 9.6 L 325.3 3.2 L 325.7 3.2 L 325.8 4.4 C 325.8 4.4 325.8 4.36 325.8 4.4 C 326.1 3.6 326.9 3.1 327.9 3.1 C 329.2 3.1 330.1 4 330.1 5.4 Z M 331.9 6.4 C 331.9 4.4 333.3 3.1 334.8 3.1 C 335.8 3.1 336.8 3.7 337.3 4.8 C 337.27 4.82 337.3 3.2 337.3 3.2 L 337.7 3.2 L 337.7 9.6 L 337.3 9.6 C 337.3 9.6 337.27 8 337.3 8 C 336.8 9.2 335.8 9.7 334.8 9.7 C 333.3 9.7 331.9 8.4 331.9 6.4 Z M 337.3 6.4 C 337.3 4.7 336.1 3.6 334.8 3.6 C 333.5 3.6 332.4 4.7 332.4 6.4 C 332.4 8.1 333.5 9.2 334.8 9.2 C 336.1 9.2 337.3 8.1 337.3 6.4 Z M 340 3.2 L 340.4 3.2 L 340.5 4.4 C 340.5 4.4 340.49 4.42 340.5 4.4 C 340.9 3.5 341.7 3.2 342.4 3.2 C 342.5 3.2 342.6 3.2 342.8 3.2 C 342.8 3.2 342.8 3.7 342.8 3.7 C 342.6 3.7 342.5 3.7 342.4 3.7 C 341.5 3.7 340.5 4.3 340.5 5.6 C 340.52 5.57 340.5 9.6 340.5 9.6 L 340 9.6 L 340 3.2 Z M 344 0.9 C 344 0.7 344.1 0.5 344.4 0.5 C 344.6 0.5 344.8 0.7 344.8 0.9 C 344.8 1.1 344.6 1.3 344.4 1.3 C 344.1 1.3 344 1.1 344 0.9 Z M 344.1 3.2 L 344.6 3.2 L 344.6 9.6 L 344.1 9.6 L 344.1 3.2 Z M 346.5 6.4 C 346.5 4.5 347.9 3.1 349.5 3.1 C 351.2 3.1 352.6 4.5 352.6 6.4 C 352.6 8.4 351.2 9.7 349.5 9.7 C 347.9 9.7 346.5 8.4 346.5 6.4 Z M 352.1 6.4 C 352.1 4.6 350.8 3.6 349.5 3.6 C 348.2 3.6 347 4.6 347 6.4 C 347 8.2 348.2 9.2 349.5 9.2 C 350.8 9.2 352.1 8.2 352.1 6.4 Z M 357.4 6.4 C 357.4 4.4 358.8 3.1 360.3 3.1 C 361.3 3.1 362.3 3.7 362.8 4.8 C 362.76 4.78 362.8 0.1 362.8 0.1 L 363.3 0.1 L 363.3 9.6 L 362.9 9.6 L 362.8 8 C 362.8 8 362.78 7.99 362.8 8 C 362.3 9.2 361.3 9.7 360.3 9.7 C 358.8 9.7 357.4 8.4 357.4 6.4 Z M 362.8 6.4 C 362.8 4.7 361.7 3.6 360.3 3.6 C 359 3.6 357.9 4.7 357.9 6.4 C 357.9 8.1 359 9.2 360.3 9.2 C 361.7 9.2 362.8 8.1 362.8 6.4 Z M 370.7 6.6 C 370.7 6.6 365.6 6.6 365.6 6.6 C 365.7 8.2 366.7 9.2 368.2 9.2 C 368.9 9.2 369.7 9 370.4 8.3 C 370.4 8.3 370.4 8.9 370.4 8.9 C 369.8 9.4 369 9.7 368.1 9.7 C 366.3 9.7 365.1 8.4 365.1 6.4 C 365.1 4.4 366.5 3.1 368.1 3.1 C 369.5 3.1 370.7 4.2 370.7 6.3 C 370.7 6.4 370.7 6.5 370.7 6.6 Z M 370.2 6.1 C 370.2 4.4 369.1 3.6 368.1 3.6 C 366.8 3.6 365.7 4.6 365.6 6.1 C 365.6 6.1 370.2 6.1 370.2 6.1 Z " stroke="none" fill="#000"/>
  </g>
</svg>