<?xml version="1.0" standalone="no"?>
<!DOCTYPE svg PUBLIC "-//W3C//DTD SVG 1.1//EN" "http://www.w3.org/Graphics/SVG/1.1/DTD/svg11.dtd">
<svg xmlns="http://www.w3.org/2000/svg" version="1.1" width="587px" height="159.4px" viewBox="0 0 587 159.4">
  <desc>Portfolio</desc>
  <defs/>
  <g id="Polygon22729">
    <path d="M 140.4 51.4 L 140.4 67.2 L 132.5 67.2 L 132.5 25.2 C 132.5 25.2 148.91 25.2 148.9 25.2 C 151.1 25.2 152.9 25.6 154.5 26.2 C 156.1 27 157.5 27.9 158.5 29 C 159.6 30.1 160.4 31.5 160.9 32.9 C 161.5 34.4 161.7 35.9 161.7 37.4 C 161.7 37.4 161.7 38.8 161.7 38.8 C 161.7 40.4 161.5 41.9 160.9 43.4 C 160.4 44.9 159.6 46.3 158.5 47.4 C 157.5 48.6 156.1 49.6 154.5 50.3 C 152.9 51 151.1 51.4 148.9 51.4 C 148.91 51.36 140.4 51.4 140.4 51.4 Z M 140.4 43.8 C 140.4 43.8 148.13 43.8 148.1 43.8 C 149.9 43.8 151.3 43.3 152.3 42.4 C 153.3 41.4 153.8 40.2 153.8 38.6 C 153.8 38.6 153.8 37.9 153.8 37.9 C 153.8 36.4 153.3 35.2 152.3 34.2 C 151.3 33.2 149.9 32.8 148.1 32.8 C 148.13 32.76 140.4 32.8 140.4 32.8 L 140.4 43.8 Z M 198.7 52.7 C 198.7 55.2 198.3 57.4 197.4 59.2 C 196.6 61.2 195.5 62.8 194 64 C 192.6 65.4 190.9 66.3 189.1 67 C 187.2 67.7 185.3 68 183.2 68 C 181.2 68 179.2 67.7 177.4 67 C 175.5 66.3 173.9 65.4 172.4 64 C 171 62.8 169.8 61.2 169 59.2 C 168.2 57.4 167.7 55.2 167.7 52.7 C 167.7 52.7 167.7 52 167.7 52 C 167.7 49.5 168.2 47.4 169 45.4 C 169.8 43.6 171 41.9 172.4 40.6 C 173.9 39.3 175.5 38.3 177.4 37.6 C 179.2 36.9 181.2 36.6 183.2 36.6 C 185.3 36.6 187.2 36.9 189.1 37.6 C 190.9 38.3 192.6 39.3 194 40.6 C 195.5 41.9 196.6 43.6 197.4 45.4 C 198.3 47.4 198.7 49.5 198.7 52 C 198.7 52 198.7 52.7 198.7 52.7 Z M 183.2 60.8 C 184.3 60.8 185.3 60.7 186.3 60.3 C 187.2 59.9 188.1 59.4 188.8 58.7 C 189.5 58.1 190.1 57.2 190.5 56.2 C 190.9 55.3 191.1 54.2 191.1 52.9 C 191.1 52.9 191.1 51.7 191.1 51.7 C 191.1 50.5 190.9 49.4 190.5 48.4 C 190.1 47.4 189.5 46.6 188.8 45.9 C 188.1 45.2 187.2 44.7 186.3 44.3 C 185.3 44 184.3 43.8 183.2 43.8 C 182.1 43.8 181.1 44 180.2 44.3 C 179.2 44.7 178.4 45.2 177.6 45.9 C 176.9 46.6 176.4 47.4 175.9 48.4 C 175.5 49.4 175.3 50.5 175.3 51.7 C 175.3 51.7 175.3 52.9 175.3 52.9 C 175.3 54.2 175.5 55.3 175.9 56.2 C 176.4 57.2 176.9 58.1 177.6 58.7 C 178.4 59.4 179.2 59.9 180.2 60.3 C 181.1 60.7 182.1 60.8 183.2 60.8 Z M 204.8 37.4 L 217.4 37.4 L 217.4 41.8 C 217.4 41.8 218.51 41.76 218.5 41.8 C 219.1 40.1 220 38.8 221.4 37.9 C 222.7 37 224.3 36.6 226.2 36.6 C 229.1 36.6 231.5 37.5 233.3 39.4 C 235.1 41.2 236 44.1 236 47.9 C 236.03 47.88 236 49.2 236 49.2 L 228.2 49.9 C 228.2 49.9 228.23 49.08 228.2 49.1 C 228.2 47.4 227.8 46.1 227 45.1 C 226.1 44.2 224.9 43.7 223.2 43.7 C 221.5 43.7 220.2 44.3 219.2 45.4 C 218.3 46.6 217.8 48.2 217.8 50.4 C 217.79 50.4 217.8 60 217.8 60 L 224.6 60 L 224.6 67.2 L 204.1 67.2 L 204.1 60 L 210.2 60 L 210.2 44.6 L 204.8 44.6 L 204.8 37.4 Z M 242.1 37.4 L 251 37.4 L 251 25.2 L 258.5 25.2 L 258.5 37.4 L 269.3 37.4 L 269.3 44.6 L 258.5 44.6 C 258.5 44.6 258.53 58.2 258.5 58.2 C 258.5 59.4 259.1 60 260.1 60 C 260.15 60 268.2 60 268.2 60 L 268.2 67.2 C 268.2 67.2 255.59 67.2 255.6 67.2 C 254.2 67.2 253.1 66.8 252.3 65.9 C 251.4 65 251 63.9 251 62.5 C 250.97 62.52 251 44.6 251 44.6 L 242.1 44.6 L 242.1 37.4 Z M 279.5 37.4 L 287.9 37.4 C 287.9 37.4 287.93 31.32 287.9 31.3 C 287.9 29.6 288.5 28.2 289.7 27 C 290.8 25.8 292.3 25.2 294 25.2 C 293.99 25.2 306.1 25.2 306.1 25.2 L 306.1 32.4 C 306.1 32.4 297.11 32.4 297.1 32.4 C 296 32.4 295.5 33 295.5 34.2 C 295.49 34.2 295.5 37.4 295.5 37.4 L 307.2 37.4 L 307.2 44.6 L 295.5 44.6 L 295.5 67.2 L 287.9 67.2 L 287.9 44.6 L 279.5 44.6 L 279.5 37.4 Z M 345.6 52.7 C 345.6 55.2 345.2 57.4 344.3 59.2 C 343.5 61.2 342.3 62.8 340.9 64 C 339.5 65.4 337.8 66.3 336 67 C 334.1 67.7 332.1 68 330.1 68 C 328.1 68 326.1 67.7 324.3 67 C 322.4 66.3 320.7 65.4 319.3 64 C 317.9 62.8 316.7 61.2 315.9 59.2 C 315 57.4 314.6 55.2 314.6 52.7 C 314.6 52.7 314.6 52 314.6 52 C 314.6 49.5 315 47.4 315.9 45.4 C 316.7 43.6 317.9 41.9 319.3 40.6 C 320.7 39.3 322.4 38.3 324.3 37.6 C 326.1 36.9 328.1 36.6 330.1 36.6 C 332.1 36.6 334.1 36.9 336 37.6 C 337.8 38.3 339.5 39.3 340.9 40.6 C 342.3 41.9 343.5 43.6 344.3 45.4 C 345.2 47.4 345.6 49.5 345.6 52 C 345.6 52 345.6 52.7 345.6 52.7 Z M 330.1 60.8 C 331.2 60.8 332.2 60.7 333.2 60.3 C 334.1 59.9 335 59.4 335.7 58.7 C 336.4 58.1 337 57.2 337.4 56.2 C 337.8 55.3 338 54.2 338 52.9 C 338 52.9 338 51.7 338 51.7 C 338 50.5 337.8 49.4 337.4 48.4 C 337 47.4 336.4 46.6 335.7 45.9 C 335 45.2 334.1 44.7 333.2 44.3 C 332.2 44 331.2 43.8 330.1 43.8 C 329 43.8 328 44 327 44.3 C 326.1 44.7 325.2 45.2 324.5 45.9 C 323.8 46.6 323.2 47.4 322.8 48.4 C 322.4 49.4 322.2 50.5 322.2 51.7 C 322.2 51.7 322.2 52.9 322.2 52.9 C 322.2 54.2 322.4 55.3 322.8 56.2 C 323.2 57.2 323.8 58.1 324.5 58.7 C 325.2 59.4 326.1 59.9 327 60.3 C 328 60.7 329 60.8 330.1 60.8 Z M 353 60 L 363.4 60 L 363.4 32.4 L 353.3 32.4 L 353.3 25.2 L 371 25.2 L 371 60 L 380.7 60 L 380.7 67.2 L 353 67.2 L 353 60 Z M 390.4 60 L 400.5 60 L 400.5 44.6 L 391.1 44.6 L 391.1 37.4 L 408 37.4 L 408 60 L 416.7 60 L 416.7 67.2 L 390.4 67.2 L 390.4 60 Z M 409.9 28.6 C 409.9 29.4 409.8 30.2 409.5 30.9 C 409.2 31.6 408.7 32.2 408.2 32.7 C 407.7 33.2 407.1 33.6 406.4 33.9 C 405.7 34.2 405 34.3 404.2 34.3 C 403.4 34.3 402.7 34.2 402 33.9 C 401.3 33.6 400.7 33.2 400.2 32.7 C 399.7 32.2 399.3 31.6 399 30.9 C 398.7 30.2 398.5 29.4 398.5 28.6 C 398.5 27.8 398.7 27.1 399 26.4 C 399.3 25.7 399.7 25.1 400.2 24.6 C 400.7 24.1 401.3 23.7 402 23.4 C 402.7 23.1 403.4 22.9 404.2 22.9 C 405 22.9 405.7 23.1 406.4 23.4 C 407.1 23.7 407.7 24.1 408.2 24.6 C 408.7 25.1 409.2 25.7 409.5 26.4 C 409.8 27.1 409.9 27.8 409.9 28.6 Z M 455.7 52.7 C 455.7 55.2 455.3 57.4 454.5 59.2 C 453.6 61.2 452.5 62.8 451.1 64 C 449.6 65.4 448 66.3 446.1 67 C 444.3 67.7 442.3 68 440.3 68 C 438.2 68 436.3 67.7 434.4 67 C 432.6 66.3 430.9 65.4 429.5 64 C 428 62.8 426.9 61.2 426 59.2 C 425.2 57.4 424.8 55.2 424.8 52.7 C 424.8 52.7 424.8 52 424.8 52 C 424.8 49.5 425.2 47.4 426 45.4 C 426.9 43.6 428 41.9 429.5 40.6 C 430.9 39.3 432.6 38.3 434.4 37.6 C 436.3 36.9 438.2 36.6 440.3 36.6 C 442.3 36.6 444.3 36.9 446.1 37.6 C 448 38.3 449.6 39.3 451.1 40.6 C 452.5 41.9 453.6 43.6 454.5 45.4 C 455.3 47.4 455.7 49.5 455.7 52 C 455.7 52 455.7 52.7 455.7 52.7 Z M 440.3 60.8 C 441.3 60.8 442.4 60.7 443.3 60.3 C 444.3 59.9 445.1 59.4 445.8 58.7 C 446.6 58.1 447.1 57.2 447.6 56.2 C 448 55.3 448.2 54.2 448.2 52.9 C 448.2 52.9 448.2 51.7 448.2 51.7 C 448.2 50.5 448 49.4 447.6 48.4 C 447.1 47.4 446.6 46.6 445.8 45.9 C 445.1 45.2 444.3 44.7 443.3 44.3 C 442.4 44 441.3 43.8 440.3 43.8 C 439.2 43.8 438.2 44 437.2 44.3 C 436.2 44.7 435.4 45.2 434.7 45.9 C 434 46.6 433.4 47.4 433 48.4 C 432.6 49.4 432.3 50.5 432.3 51.7 C 432.3 51.7 432.3 52.9 432.3 52.9 C 432.3 54.2 432.6 55.3 433 56.2 C 433.4 57.2 434 58.1 434.7 58.7 C 435.4 59.4 436.2 59.9 437.2 60.3 C 438.2 60.7 439.2 60.8 440.3 60.8 Z " stroke="none" fill="#fff"/>
  </g>
</svg>