<?xml version="1.0" standalone="no"?>
<!DOCTYPE svg PUBLIC "-//W3C//DTD SVG 1.1//EN" "http://www.w3.org/Graphics/SVG/1.1/DTD/svg11.dtd">
<svg xmlns="http://www.w3.org/2000/svg" version="1.1" width="342.4px" height="203.4px" viewBox="0 0 342.4 203.4">
  <desc>Nous visons avec ce projet une nouvelle g n ration d acheteur, plus sensible aux enjeux environnementaux Pens pour</desc>
  <defs/>
  <g id="Polygon17732">
    <path d="M 1 44.1 C 1 43.9 1.2 43.7 1.4 43.7 C 1.7 43.7 1.8 43.9 1.8 44.1 C 1.8 44.3 1.7 44.5 1.4 44.5 C 1.2 44.5 1 44.3 1 44.1 Z M 1.2 46.4 L 1.7 46.4 L 1.7 52.8 L 1.2 52.8 L 1.2 46.4 Z M 3.6 49.6 C 3.6 47.6 4.9 46.3 6.5 46.3 C 7.5 46.3 8.5 46.9 8.9 48 C 8.93 47.98 8.9 43.3 8.9 43.3 L 9.4 43.3 L 9.4 52.8 L 9 52.8 L 9 51.2 C 9 51.2 8.95 51.19 9 51.2 C 8.5 52.4 7.5 52.9 6.5 52.9 C 5 52.9 3.6 51.6 3.6 49.6 Z M 9 49.6 C 9 47.9 7.8 46.8 6.5 46.8 C 5.2 46.8 4.1 47.9 4.1 49.6 C 4.1 51.3 5.2 52.4 6.5 52.4 C 7.8 52.4 9 51.3 9 49.6 Z M 14 45.3 L 13.5 45.3 L 15 43.4 L 15.5 43.4 L 14 45.3 Z M 16.8 49.8 C 16.8 49.8 11.8 49.8 11.8 49.8 C 11.9 51.4 12.9 52.4 14.3 52.4 C 15.1 52.4 15.9 52.2 16.6 51.5 C 16.6 51.5 16.6 52.1 16.6 52.1 C 15.9 52.6 15.1 52.9 14.3 52.9 C 12.5 52.9 11.3 51.6 11.3 49.6 C 11.3 47.6 12.7 46.3 14.2 46.3 C 15.6 46.3 16.8 47.4 16.8 49.5 C 16.8 49.6 16.8 49.7 16.8 49.8 Z M 16.3 49.3 C 16.3 47.6 15.3 46.8 14.2 46.8 C 13 46.8 11.9 47.8 11.8 49.3 C 11.8 49.3 16.3 49.3 16.3 49.3 Z M 18.2 49.6 C 18.2 47.6 19.6 46.3 21.1 46.3 C 22.1 46.3 23.1 46.9 23.6 48 C 23.6 48.02 23.7 46.4 23.7 46.4 L 24.1 46.4 L 24.1 52.8 L 23.7 52.8 C 23.7 52.8 23.6 51.2 23.6 51.2 C 23.1 52.4 22.1 52.9 21.1 52.9 C 19.6 52.9 18.2 51.6 18.2 49.6 Z M 23.6 49.6 C 23.6 47.9 22.5 46.8 21.1 46.8 C 19.8 46.8 18.7 47.9 18.7 49.6 C 18.7 51.3 19.8 52.4 21.2 52.4 C 22.5 52.4 23.6 51.3 23.6 49.6 Z M 26.4 43.3 L 26.9 43.3 L 26.9 52.8 L 26.4 52.8 L 26.4 43.3 Z M 32.7 46.4 L 33.1 46.4 C 33.1 46.4 33.14 48.04 33.1 48 C 33.6 46.9 34.6 46.3 35.7 46.3 C 37.2 46.3 38.6 47.6 38.6 49.6 C 38.6 51.6 37.2 52.9 35.7 52.9 C 34.6 52.9 33.6 52.3 33.2 51.3 C 33.18 51.25 33.2 55.4 33.2 55.4 L 32.7 55.4 L 32.7 46.4 Z M 38.1 49.6 C 38.1 47.9 36.9 46.8 35.6 46.8 C 34.3 46.8 33.2 47.9 33.2 49.6 C 33.2 51.3 34.3 52.4 35.6 52.4 C 36.9 52.4 38.1 51.3 38.1 49.6 Z M 39.9 49.6 C 39.9 47.7 41.3 46.3 43 46.3 C 44.7 46.3 46 47.7 46 49.6 C 46 51.6 44.7 52.9 43 52.9 C 41.3 52.9 39.9 51.6 39.9 49.6 Z M 45.5 49.6 C 45.5 47.8 44.3 46.8 43 46.8 C 41.7 46.8 40.4 47.8 40.4 49.6 C 40.4 51.4 41.7 52.4 43 52.4 C 44.3 52.4 45.5 51.4 45.5 49.6 Z M 47.8 50.5 C 47.76 50.48 47.8 46.4 47.8 46.4 L 48.3 46.4 C 48.3 46.4 48.26 50.51 48.3 50.5 C 48.3 51.7 49 52.4 50.1 52.4 C 51.3 52.4 52.1 51.7 52.1 50.5 C 52.06 50.5 52.1 46.4 52.1 46.4 L 52.6 46.4 C 52.6 46.4 52.56 50.47 52.6 50.5 C 52.6 51.9 51.6 52.9 50.1 52.9 C 48.7 52.9 47.8 51.9 47.8 50.5 Z M 54.8 46.4 L 55.2 46.4 L 55.2 47.6 C 55.2 47.6 55.22 47.62 55.2 47.6 C 55.6 46.7 56.5 46.4 57.1 46.4 C 57.2 46.4 57.4 46.4 57.5 46.4 C 57.5 46.4 57.5 46.9 57.5 46.9 C 57.4 46.9 57.2 46.9 57.1 46.9 C 56.2 46.9 55.3 47.5 55.3 48.8 C 55.26 48.77 55.3 52.8 55.3 52.8 L 54.8 52.8 L 54.8 46.4 Z M 65.5 46.9 C 65.5 46.9 65.5 47.4 65.5 47.4 C 65 47.1 64.4 46.8 63.7 46.8 C 62.8 46.8 62.1 47.3 62.1 48 C 62.1 48.7 62.8 49 63.8 49.3 C 64.8 49.7 65.9 50 65.9 51.1 C 65.9 52.2 65 52.9 63.7 52.9 C 62.9 52.9 62.2 52.7 61.5 52.2 C 61.5 52.2 61.5 51.5 61.5 51.5 C 62.1 52.1 62.9 52.4 63.7 52.4 C 64.7 52.4 65.4 51.9 65.4 51.1 C 65.4 50.4 64.6 50.1 63.6 49.7 C 62.6 49.4 61.6 49.1 61.6 48 C 61.6 47 62.5 46.3 63.7 46.3 C 64.4 46.3 65.1 46.5 65.5 46.9 Z M 67.8 44.3 C 67.8 44.33 67.8 43.9 67.8 43.9 L 68.3 43.9 C 68.3 43.9 68.3 44.32 68.3 44.3 C 68.3 45.3 67.9 46.3 67.7 46.9 C 67.7 46.9 67.3 46.9 67.3 46.9 C 67.5 46.3 67.8 45.3 67.8 44.3 Z M 72.1 45.3 L 71.6 45.3 L 73.1 43.4 L 73.7 43.4 L 72.1 45.3 Z M 74.9 49.8 C 74.9 49.8 69.9 49.8 69.9 49.8 C 70 51.4 71 52.4 72.5 52.4 C 73.2 52.4 74 52.2 74.7 51.5 C 74.7 51.5 74.7 52.1 74.7 52.1 C 74.1 52.6 73.3 52.9 72.4 52.9 C 70.6 52.9 69.4 51.6 69.4 49.6 C 69.4 47.6 70.8 46.3 72.3 46.3 C 73.8 46.3 75 47.4 75 49.5 C 75 49.6 75 49.7 74.9 49.8 Z M 74.5 49.3 C 74.4 47.6 73.4 46.8 72.3 46.8 C 71.1 46.8 70 47.8 69.9 49.3 C 69.9 49.3 74.5 49.3 74.5 49.3 Z M 75.8 46.4 L 76.4 46.4 L 78.5 52.2 L 78.5 52.2 L 80.6 46.4 L 81.1 46.4 L 78.7 52.8 L 78.2 52.8 L 75.8 46.4 Z M 82 49.6 C 82 47.6 83.4 46.3 84.9 46.3 C 85.9 46.3 86.9 46.9 87.4 48 C 87.38 48.02 87.5 46.4 87.5 46.4 L 87.8 46.4 L 87.8 52.8 L 87.5 52.8 C 87.5 52.8 87.38 51.2 87.4 51.2 C 86.9 52.4 85.9 52.9 84.9 52.9 C 83.4 52.9 82 51.6 82 49.6 Z M 87.4 49.6 C 87.4 47.9 86.3 46.8 84.9 46.8 C 83.6 46.8 82.5 47.9 82.5 49.6 C 82.5 51.3 83.6 52.4 84.9 52.4 C 86.2 52.4 87.4 51.3 87.4 49.6 Z M 89.7 49.6 C 89.7 47.6 91.1 46.3 92.6 46.3 C 93.6 46.3 94.6 46.9 95.1 48 C 95.06 47.98 95.1 43.3 95.1 43.3 L 95.6 43.3 L 95.6 52.8 L 95.2 52.8 L 95.1 51.2 C 95.1 51.2 95.09 51.19 95.1 51.2 C 94.6 52.4 93.6 52.9 92.6 52.9 C 91.1 52.9 89.7 51.6 89.7 49.6 Z M 95.1 49.6 C 95.1 47.9 94 46.8 92.6 46.8 C 91.3 46.8 90.2 47.9 90.2 49.6 C 90.2 51.3 91.3 52.4 92.6 52.4 C 94 52.4 95.1 51.3 95.1 49.6 Z M 103 49.8 C 103 49.8 97.9 49.8 97.9 49.8 C 98 51.4 99 52.4 100.5 52.4 C 101.2 52.4 102 52.2 102.7 51.5 C 102.7 51.5 102.7 52.1 102.7 52.1 C 102.1 52.6 101.3 52.9 100.4 52.9 C 98.6 52.9 97.4 51.6 97.4 49.6 C 97.4 47.6 98.8 46.3 100.4 46.3 C 101.8 46.3 103 47.4 103 49.5 C 103 49.6 103 49.7 103 49.8 Z M 102.5 49.3 C 102.5 47.6 101.4 46.8 100.4 46.8 C 99.1 46.8 98 47.8 97.9 49.3 C 97.9 49.3 102.5 49.3 102.5 49.3 Z M 104.8 46.4 L 105.2 46.4 L 105.2 47.6 C 105.2 47.6 105.25 47.62 105.2 47.6 C 105.6 46.7 106.5 46.4 107.1 46.4 C 107.3 46.4 107.4 46.4 107.5 46.4 C 107.5 46.4 107.5 46.9 107.5 46.9 C 107.4 46.9 107.3 46.9 107.1 46.9 C 106.2 46.9 105.3 47.5 105.3 48.8 C 105.29 48.77 105.3 52.8 105.3 52.8 L 104.8 52.8 L 104.8 46.4 Z M 112.1 43.3 L 112.6 43.3 L 112.6 52.8 L 112.1 52.8 L 112.1 43.3 Z M 120 49.8 C 120 49.8 114.9 49.8 114.9 49.8 C 115 51.4 116 52.4 117.5 52.4 C 118.3 52.4 119.1 52.2 119.8 51.5 C 119.8 51.5 119.8 52.1 119.8 52.1 C 119.1 52.6 118.3 52.9 117.5 52.9 C 115.7 52.9 114.4 51.6 114.4 49.6 C 114.4 47.6 115.8 46.3 117.4 46.3 C 118.8 46.3 120 47.4 120 49.5 C 120 49.6 120 49.7 120 49.8 Z M 119.5 49.3 C 119.5 47.6 118.5 46.8 117.4 46.8 C 116.2 46.8 115.1 47.8 114.9 49.3 C 114.9 49.3 119.5 49.3 119.5 49.3 Z M 125.8 46.4 L 127.7 46.4 L 127.7 46.9 L 125.8 46.9 C 125.8 46.9 125.83 50.8 125.8 50.8 C 125.8 52 126.5 52.4 127.4 52.4 C 127.5 52.4 127.7 52.4 127.9 52.4 C 127.9 52.4 127.9 52.8 127.9 52.8 C 127.8 52.8 127.6 52.9 127.3 52.9 C 126.2 52.9 125.3 52.2 125.3 50.8 C 125.33 50.82 125.3 46.9 125.3 46.9 L 124.3 46.9 L 124.3 46.4 L 125.3 46.4 L 125.3 44.9 L 125.8 44.9 L 125.8 46.4 Z M 134.3 49.8 C 134.3 49.8 129.2 49.8 129.2 49.8 C 129.3 51.4 130.4 52.4 131.8 52.4 C 132.6 52.4 133.4 52.2 134.1 51.5 C 134.1 51.5 134.1 52.1 134.1 52.1 C 133.4 52.6 132.6 52.9 131.8 52.9 C 130 52.9 128.7 51.6 128.7 49.6 C 128.7 47.6 130.1 46.3 131.7 46.3 C 133.1 46.3 134.3 47.4 134.3 49.5 C 134.3 49.6 134.3 49.7 134.3 49.8 Z M 133.8 49.3 C 133.8 47.6 132.8 46.8 131.7 46.8 C 130.5 46.8 129.4 47.8 129.2 49.3 C 129.2 49.3 133.8 49.3 133.8 49.3 Z M 143.8 48.5 C 143.84 48.48 143.8 52.8 143.8 52.8 L 143.3 52.8 C 143.3 52.8 143.34 48.53 143.3 48.5 C 143.3 47.5 142.8 46.8 141.8 46.8 C 140.8 46.8 140.2 47.6 140.2 48.5 C 140.23 48.54 140.2 52.8 140.2 52.8 L 139.7 52.8 C 139.7 52.8 139.73 48.53 139.7 48.5 C 139.7 47.5 139.2 46.8 138.2 46.8 C 137.2 46.8 136.6 47.6 136.6 48.6 C 136.62 48.56 136.6 52.8 136.6 52.8 L 136.1 52.8 L 136.1 46.4 L 136.5 46.4 L 136.6 47.5 C 136.6 47.5 136.58 47.48 136.6 47.5 C 136.9 46.8 137.5 46.3 138.3 46.3 C 139.2 46.3 139.8 46.8 140.1 47.6 C 140.4 46.8 141 46.3 141.9 46.3 C 143.2 46.3 143.8 47.2 143.8 48.5 Z M 146.1 46.4 L 146.4 46.4 C 146.4 46.4 146.52 48.04 146.5 48 C 147 46.9 148 46.3 149 46.3 C 150.5 46.3 151.9 47.6 151.9 49.6 C 151.9 51.6 150.5 52.9 149 52.9 C 148 52.9 147 52.3 146.6 51.3 C 146.55 51.25 146.6 55.4 146.6 55.4 L 146.1 55.4 L 146.1 46.4 Z M 151.4 49.6 C 151.4 47.9 150.3 46.8 149 46.8 C 147.7 46.8 146.5 47.9 146.5 49.6 C 146.5 51.3 147.7 52.4 149 52.4 C 150.3 52.4 151.4 51.3 151.4 49.6 Z M 157.3 46.9 C 157.3 46.9 157.3 47.4 157.3 47.4 C 156.8 47.1 156.2 46.8 155.5 46.8 C 154.5 46.8 153.9 47.3 153.9 48 C 153.9 48.7 154.6 49 155.6 49.3 C 156.6 49.7 157.6 50 157.6 51.1 C 157.6 52.2 156.8 52.9 155.5 52.9 C 154.7 52.9 153.9 52.7 153.3 52.2 C 153.3 52.2 153.3 51.5 153.3 51.5 C 153.9 52.1 154.6 52.4 155.5 52.4 C 156.5 52.4 157.1 51.9 157.1 51.1 C 157.1 50.4 156.4 50.1 155.4 49.7 C 154.3 49.4 153.4 49.1 153.4 48 C 153.4 47 154.3 46.3 155.5 46.3 C 156.2 46.3 156.8 46.5 157.3 46.9 Z M 162.4 49.6 C 162.4 47.6 163.8 46.3 165.3 46.3 C 166.3 46.3 167.3 46.9 167.8 48 C 167.78 47.98 167.8 43.3 167.8 43.3 L 168.3 43.3 L 168.3 52.8 L 167.9 52.8 L 167.8 51.2 C 167.8 51.2 167.81 51.19 167.8 51.2 C 167.3 52.4 166.3 52.9 165.3 52.9 C 163.8 52.9 162.4 51.6 162.4 49.6 Z M 167.8 49.6 C 167.8 47.9 166.7 46.8 165.4 46.8 C 164 46.8 162.9 47.9 162.9 49.6 C 162.9 51.3 164 52.4 165.4 52.4 C 166.7 52.4 167.8 51.3 167.8 49.6 Z M 170.8 44.3 C 170.76 44.33 170.8 43.9 170.8 43.9 L 171.3 43.9 C 171.3 43.9 171.26 44.32 171.3 44.3 C 171.3 45.3 170.9 46.3 170.6 46.9 C 170.6 46.9 170.2 46.9 170.2 46.9 C 170.4 46.3 170.8 45.3 170.8 44.3 Z M 173.1 50.5 C 173.09 50.48 173.1 46.4 173.1 46.4 L 173.6 46.4 C 173.6 46.4 173.59 50.51 173.6 50.5 C 173.6 51.7 174.3 52.4 175.5 52.4 C 176.6 52.4 177.4 51.7 177.4 50.5 C 177.38 50.5 177.4 46.4 177.4 46.4 L 177.9 46.4 C 177.9 46.4 177.88 50.47 177.9 50.5 C 177.9 51.9 176.9 52.9 175.5 52.9 C 174 52.9 173.1 51.9 173.1 50.5 Z M 184.9 48.6 C 184.87 48.56 184.9 52.8 184.9 52.8 L 184.4 52.8 C 184.4 52.8 184.37 48.77 184.4 48.8 C 184.4 47.5 183.7 46.8 182.6 46.8 C 181.5 46.8 180.6 47.5 180.6 48.7 C 180.58 48.71 180.6 52.8 180.6 52.8 L 180.1 52.8 L 180.1 46.4 L 180.5 46.4 L 180.5 47.6 C 180.5 47.6 180.55 47.56 180.5 47.6 C 180.9 46.8 181.7 46.3 182.6 46.3 C 184 46.3 184.9 47.2 184.9 48.6 Z M 194.1 47.1 L 194.1 47.1 L 192.1 52.8 L 191.5 52.8 L 189.7 46.4 L 190.2 46.4 L 191.8 52.2 L 191.8 52.2 L 193.8 46.4 L 194.3 46.4 L 196.3 52.2 L 196.4 52.2 L 198 46.4 L 198.5 46.4 L 196.6 52.8 L 196.1 52.8 L 194.1 47.1 Z M 205.1 49.8 C 205.1 49.8 200 49.8 200 49.8 C 200.1 51.4 201.1 52.4 202.6 52.4 C 203.3 52.4 204.2 52.2 204.8 51.5 C 204.8 51.5 204.8 52.1 204.8 52.1 C 204.2 52.6 203.4 52.9 202.5 52.9 C 200.8 52.9 199.5 51.6 199.5 49.6 C 199.5 47.6 200.9 46.3 202.5 46.3 C 203.9 46.3 205.1 47.4 205.1 49.5 C 205.1 49.6 205.1 49.7 205.1 49.8 Z M 204.6 49.3 C 204.6 47.6 203.5 46.8 202.5 46.8 C 201.2 46.8 200.1 47.8 200 49.3 C 200 49.3 204.6 49.3 204.6 49.3 Z M 212 49.8 C 212 49.8 206.9 49.8 206.9 49.8 C 207 51.4 208.1 52.4 209.5 52.4 C 210.3 52.4 211.1 52.2 211.8 51.5 C 211.8 51.5 211.8 52.1 211.8 52.1 C 211.1 52.6 210.3 52.9 209.5 52.9 C 207.7 52.9 206.4 51.6 206.4 49.6 C 206.4 47.6 207.9 46.3 209.4 46.3 C 210.8 46.3 212 47.4 212 49.5 C 212 49.6 212 49.7 212 49.8 Z M 211.5 49.3 C 211.5 47.6 210.5 46.8 209.4 46.8 C 208.2 46.8 207.1 47.8 207 49.3 C 207 49.3 211.5 49.3 211.5 49.3 Z M 217.7 52.8 L 214.3 49.5 L 214.3 52.8 L 213.8 52.8 L 213.8 43.3 L 214.3 43.3 L 214.3 49.4 L 217.6 46.4 L 218.3 46.4 L 215 49.4 L 218.4 52.8 L 217.7 52.8 Z M 218.9 48.9 L 221.8 48.9 L 221.8 49.4 L 218.9 49.4 L 218.9 48.9 Z M 229 49.8 C 229 49.8 223.9 49.8 223.9 49.8 C 224 51.4 225.1 52.4 226.5 52.4 C 227.3 52.4 228.1 52.2 228.8 51.5 C 228.8 51.5 228.8 52.1 228.8 52.1 C 228.1 52.6 227.3 52.9 226.5 52.9 C 224.7 52.9 223.4 51.6 223.4 49.6 C 223.4 47.6 224.9 46.3 226.4 46.3 C 227.8 46.3 229 47.4 229 49.5 C 229 49.6 229 49.7 229 49.8 Z M 228.5 49.3 C 228.5 47.6 227.5 46.8 226.4 46.8 C 225.2 46.8 224.1 47.8 224 49.3 C 224 49.3 228.5 49.3 228.5 49.3 Z M 235.6 48.6 C 235.6 48.56 235.6 52.8 235.6 52.8 L 235.1 52.8 C 235.1 52.8 235.1 48.77 235.1 48.8 C 235.1 47.5 234.4 46.8 233.3 46.8 C 232.2 46.8 231.3 47.5 231.3 48.7 C 231.32 48.71 231.3 52.8 231.3 52.8 L 230.8 52.8 L 230.8 46.4 L 231.2 46.4 L 231.3 47.6 C 231.3 47.6 231.28 47.56 231.3 47.6 C 231.6 46.8 232.4 46.3 233.4 46.3 C 234.7 46.3 235.6 47.2 235.6 48.6 Z M 237.4 49.6 C 237.4 47.6 238.7 46.3 240.3 46.3 C 241.3 46.3 242.3 46.9 242.7 48 C 242.73 47.98 242.7 43.3 242.7 43.3 L 243.2 43.3 L 243.2 52.8 L 242.8 52.8 L 242.8 51.2 C 242.8 51.2 242.76 51.19 242.8 51.2 C 242.3 52.4 241.3 52.9 240.3 52.9 C 238.8 52.9 237.4 51.6 237.4 49.6 Z M 242.8 49.6 C 242.8 47.9 241.6 46.8 240.3 46.8 C 239 46.8 237.9 47.9 237.9 49.6 C 237.9 51.3 239 52.4 240.3 52.4 C 241.6 52.4 242.8 51.3 242.8 49.6 Z M 248.5 49.6 C 248.5 47.7 249.9 46.3 251.6 46.3 C 253.2 46.3 254.6 47.7 254.6 49.6 C 254.6 51.6 253.2 52.9 251.6 52.9 C 249.9 52.9 248.5 51.6 248.5 49.6 Z M 254.1 49.6 C 254.1 47.8 252.9 46.8 251.6 46.8 C 250.3 46.8 249 47.8 249 49.6 C 249 51.4 250.3 52.4 251.6 52.4 C 252.9 52.4 254.1 51.4 254.1 49.6 Z M 256.4 50.5 C 256.35 50.48 256.4 46.4 256.4 46.4 L 256.9 46.4 C 256.9 46.4 256.85 50.51 256.9 50.5 C 256.9 51.7 257.6 52.4 258.7 52.4 C 259.9 52.4 260.6 51.7 260.6 50.5 C 260.65 50.5 260.6 46.4 260.6 46.4 L 261.2 46.4 C 261.2 46.4 261.15 50.47 261.2 50.5 C 261.2 51.9 260.2 52.9 258.7 52.9 C 257.3 52.9 256.4 51.9 256.4 50.5 Z M 266.4 49.6 C 266.4 47.6 267.8 46.3 269.3 46.3 C 270.3 46.3 271.3 46.9 271.7 48 C 271.75 47.98 271.7 43.3 271.7 43.3 L 272.3 43.3 L 272.3 52.8 L 271.9 52.8 L 271.8 51.2 C 271.8 51.2 271.77 51.19 271.8 51.2 C 271.3 52.4 270.3 52.9 269.3 52.9 C 267.8 52.9 266.4 51.6 266.4 49.6 Z M 271.8 49.6 C 271.8 47.9 270.6 46.8 269.3 46.8 C 268 46.8 266.9 47.9 266.9 49.6 C 266.9 51.3 268 52.4 269.3 52.4 C 270.6 52.4 271.8 51.3 271.8 49.6 Z M 279.6 49.8 C 279.6 49.8 274.6 49.8 274.6 49.8 C 274.7 51.4 275.7 52.4 277.1 52.4 C 277.9 52.4 278.7 52.2 279.4 51.5 C 279.4 51.5 279.4 52.1 279.4 52.1 C 278.7 52.6 278 52.9 277.1 52.9 C 275.3 52.9 274.1 51.6 274.1 49.6 C 274.1 47.6 275.5 46.3 277 46.3 C 278.5 46.3 279.7 47.4 279.7 49.5 C 279.7 49.6 279.7 49.7 279.6 49.8 Z M 279.2 49.3 C 279.1 47.6 278.1 46.8 277 46.8 C 275.8 46.8 274.7 47.8 274.6 49.3 C 274.6 49.3 279.2 49.3 279.2 49.3 Z M 283.9 46.4 L 284.5 46.4 L 286.6 52.2 L 286.6 52.2 L 288.7 46.4 L 289.2 46.4 L 286.8 52.8 L 286.3 52.8 L 283.9 46.4 Z M 290.1 49.6 C 290.1 47.6 291.5 46.3 293 46.3 C 294 46.3 295 46.9 295.5 48 C 295.48 48.02 295.6 46.4 295.6 46.4 L 295.9 46.4 L 295.9 52.8 L 295.6 52.8 C 295.6 52.8 295.48 51.2 295.5 51.2 C 295 52.4 294 52.9 293 52.9 C 291.5 52.9 290.1 51.6 290.1 49.6 Z M 295.5 49.6 C 295.5 47.9 294.4 46.8 293 46.8 C 291.7 46.8 290.6 47.9 290.6 49.6 C 290.6 51.3 291.7 52.4 293 52.4 C 294.3 52.4 295.5 51.3 295.5 49.6 Z M 300.9 52.4 C 301.4 52.4 302 52.3 302.6 51.9 C 302.6 51.9 302.6 52.5 302.6 52.5 C 302.1 52.8 301.5 52.9 300.9 52.9 C 299.1 52.9 297.8 51.5 297.8 49.6 C 297.8 47.7 299.1 46.3 300.8 46.3 C 301.4 46.3 302 46.4 302.6 46.8 C 302.6 46.8 302.6 47.3 302.6 47.3 C 302 46.9 301.4 46.8 300.8 46.8 C 299.5 46.8 298.3 47.9 298.3 49.6 C 298.3 51.3 299.5 52.4 300.9 52.4 Z M 303.7 49.6 C 303.7 47.6 305.1 46.3 306.6 46.3 C 307.7 46.3 308.7 46.9 309.2 48 C 309.15 48.02 309.2 46.4 309.2 46.4 L 309.6 46.4 L 309.6 52.8 L 309.2 52.8 C 309.2 52.8 309.15 51.2 309.2 51.2 C 308.7 52.4 307.7 52.9 306.7 52.9 C 305.1 52.9 303.7 51.6 303.7 49.6 Z M 309.1 49.6 C 309.1 47.9 308 46.8 306.7 46.8 C 305.4 46.8 304.2 47.9 304.2 49.6 C 304.2 51.3 305.4 52.4 306.7 52.4 C 308 52.4 309.1 51.3 309.1 49.6 Z M 316.7 48.6 C 316.69 48.56 316.7 52.8 316.7 52.8 L 316.2 52.8 C 316.2 52.8 316.18 48.77 316.2 48.8 C 316.2 47.5 315.5 46.8 314.4 46.8 C 313.3 46.8 312.4 47.5 312.4 48.7 C 312.4 48.71 312.4 52.8 312.4 52.8 L 311.9 52.8 L 311.9 46.4 L 312.3 46.4 L 312.4 47.6 C 312.4 47.6 312.37 47.56 312.4 47.6 C 312.7 46.8 313.5 46.3 314.4 46.3 C 315.8 46.3 316.7 47.2 316.7 48.6 Z M 321.5 52.4 C 322 52.4 322.7 52.3 323.2 51.9 C 323.2 51.9 323.2 52.5 323.2 52.5 C 322.7 52.8 322.1 52.9 321.5 52.9 C 319.8 52.9 318.4 51.5 318.4 49.6 C 318.4 47.7 319.8 46.3 321.5 46.3 C 322.1 46.3 322.7 46.4 323.2 46.8 C 323.2 46.8 323.2 47.3 323.2 47.3 C 322.7 46.9 322.1 46.8 321.5 46.8 C 320.2 46.8 318.9 47.9 318.9 49.6 C 318.9 51.3 320.2 52.4 321.5 52.4 Z M 330 49.8 C 330 49.8 324.9 49.8 324.9 49.8 C 325 51.4 326 52.4 327.5 52.4 C 328.2 52.4 329 52.2 329.7 51.5 C 329.7 51.5 329.7 52.1 329.7 52.1 C 329.1 52.6 328.3 52.9 327.4 52.9 C 325.7 52.9 324.4 51.6 324.4 49.6 C 324.4 47.6 325.8 46.3 327.4 46.3 C 328.8 46.3 330 47.4 330 49.5 C 330 49.6 330 49.7 330 49.8 Z M 329.5 49.3 C 329.5 47.6 328.4 46.8 327.4 46.8 C 326.1 46.8 325 47.8 324.9 49.3 C 324.9 49.3 329.5 49.3 329.5 49.3 Z M 335.3 46.9 C 335.3 46.9 335.3 47.4 335.3 47.4 C 334.8 47.1 334.2 46.8 333.5 46.8 C 332.6 46.8 331.9 47.3 331.9 48 C 331.9 48.7 332.6 49 333.6 49.3 C 334.6 49.7 335.6 50 335.6 51.1 C 335.6 52.2 334.8 52.9 333.5 52.9 C 332.7 52.9 332 52.7 331.3 52.2 C 331.3 52.2 331.3 51.5 331.3 51.5 C 331.9 52.1 332.6 52.4 333.5 52.4 C 334.5 52.4 335.1 51.9 335.1 51.1 C 335.1 50.4 334.4 50.1 333.4 49.7 C 332.3 49.4 331.4 49.1 331.4 48 C 331.4 47 332.3 46.3 333.5 46.3 C 334.2 46.3 334.8 46.5 335.3 46.9 Z M 337.2 52.4 C 337.2 52.1 337.4 51.9 337.7 51.9 C 337.9 51.9 338.1 52.1 338.1 52.4 C 338.1 52.6 337.9 52.8 337.7 52.8 C 337.4 52.8 337.2 52.6 337.2 52.4 Z " stroke="none" fill="#000"/>
  </g>
  <g id="Polygon17731">
    <path d="M 1.1 36.1 C 1.06 36.08 1.1 32 1.1 32 L 1.6 32 C 1.6 32 1.56 36.11 1.6 36.1 C 1.6 37.3 2.3 38 3.4 38 C 4.6 38 5.4 37.3 5.4 36.1 C 5.35 36.1 5.4 32 5.4 32 L 5.9 32 C 5.9 32 5.86 36.07 5.9 36.1 C 5.9 37.5 4.9 38.5 3.4 38.5 C 2 38.5 1.1 37.5 1.1 36.1 Z M 12.8 34.2 C 12.84 34.16 12.8 38.4 12.8 38.4 L 12.3 38.4 C 12.3 38.4 12.34 34.37 12.3 34.4 C 12.3 33.1 11.7 32.4 10.5 32.4 C 9.4 32.4 8.6 33.1 8.6 34.3 C 8.56 34.31 8.6 38.4 8.6 38.4 L 8.1 38.4 L 8.1 32 L 8.4 32 L 8.5 33.2 C 8.5 33.2 8.52 33.16 8.5 33.2 C 8.9 32.4 9.6 31.9 10.6 31.9 C 12 31.9 12.8 32.8 12.8 34.2 Z M 20.1 35.4 C 20.1 35.4 15.1 35.4 15.1 35.4 C 15.2 37 16.2 38 17.7 38 C 18.4 38 19.2 37.8 19.9 37.1 C 19.9 37.1 19.9 37.7 19.9 37.7 C 19.2 38.2 18.5 38.5 17.6 38.5 C 15.8 38.5 14.6 37.2 14.6 35.2 C 14.6 33.2 16 31.9 17.5 31.9 C 19 31.9 20.2 33 20.2 35.1 C 20.2 35.2 20.2 35.3 20.1 35.4 Z M 19.7 34.9 C 19.6 33.2 18.6 32.4 17.5 32.4 C 16.3 32.4 15.2 33.4 15.1 34.9 C 15.1 34.9 19.7 34.9 19.7 34.9 Z M 25.3 29.7 C 25.3 29.5 25.4 29.3 25.7 29.3 C 25.9 29.3 26.1 29.5 26.1 29.7 C 26.1 29.9 25.9 30.1 25.7 30.1 C 25.4 30.1 25.3 29.9 25.3 29.7 Z M 25.4 37.7 C 25.43 37.72 25.4 32 25.4 32 L 25.9 32 C 25.9 32 25.93 37.73 25.9 37.7 C 25.9 39.2 25.6 40.1 24.9 41 C 24.9 41 24.3 41 24.3 41 C 25 40.2 25.4 39.2 25.4 37.7 Z M 33.4 35.4 C 33.4 35.4 28.3 35.4 28.3 35.4 C 28.4 37 29.4 38 30.9 38 C 31.6 38 32.5 37.8 33.1 37.1 C 33.1 37.1 33.1 37.7 33.1 37.7 C 32.5 38.2 31.7 38.5 30.8 38.5 C 29.1 38.5 27.8 37.2 27.8 35.2 C 27.8 33.2 29.2 31.9 30.8 31.9 C 32.2 31.9 33.4 33 33.4 35.1 C 33.4 35.2 33.4 35.3 33.4 35.4 Z M 32.9 34.9 C 32.9 33.2 31.8 32.4 30.8 32.4 C 29.5 32.4 28.4 33.4 28.3 34.9 C 28.3 34.9 32.9 34.9 32.9 34.9 Z M 35.1 36.1 C 35.1 36.08 35.1 32 35.1 32 L 35.6 32 C 35.6 32 35.61 36.11 35.6 36.1 C 35.6 37.3 36.3 38 37.5 38 C 38.7 38 39.4 37.3 39.4 36.1 C 39.4 36.1 39.4 32 39.4 32 L 39.9 32 C 39.9 32 39.9 36.07 39.9 36.1 C 39.9 37.5 39 38.5 37.5 38.5 C 36 38.5 35.1 37.5 35.1 36.1 Z M 46.9 34.2 C 46.89 34.16 46.9 38.4 46.9 38.4 L 46.4 38.4 C 46.4 38.4 46.38 34.37 46.4 34.4 C 46.4 33.1 45.7 32.4 44.6 32.4 C 43.5 32.4 42.6 33.1 42.6 34.3 C 42.6 34.31 42.6 38.4 42.6 38.4 L 42.1 38.4 L 42.1 32 L 42.5 32 L 42.6 33.2 C 42.6 33.2 42.57 33.16 42.6 33.2 C 42.9 32.4 43.7 31.9 44.6 31.9 C 46 31.9 46.9 32.8 46.9 34.2 Z M 54.2 35.4 C 54.2 35.4 49.1 35.4 49.1 35.4 C 49.2 37 50.3 38 51.7 38 C 52.5 38 53.3 37.8 54 37.1 C 54 37.1 54 37.7 54 37.7 C 53.3 38.2 52.5 38.5 51.7 38.5 C 49.9 38.5 48.6 37.2 48.6 35.2 C 48.6 33.2 50.1 31.9 51.6 31.9 C 53 31.9 54.2 33 54.2 35.1 C 54.2 35.2 54.2 35.3 54.2 35.4 Z M 53.7 34.9 C 53.7 33.2 52.7 32.4 51.6 32.4 C 50.4 32.4 49.3 33.4 49.2 34.9 C 49.2 34.9 53.7 34.9 53.7 34.9 Z M 59.7 32.5 L 58.7 32.5 L 58.7 32 L 59.7 32 C 59.7 32 59.66 30.8 59.7 30.8 C 59.7 29.5 60.5 28.8 61.6 28.8 C 61.9 28.8 62.3 28.9 62.5 29 C 62.5 29 62.5 29.5 62.5 29.5 C 62.3 29.4 61.9 29.3 61.6 29.3 C 60.7 29.3 60.2 29.8 60.2 30.9 C 60.17 30.89 60.2 32 60.2 32 L 62.1 32 L 62.1 32.5 L 60.2 32.5 L 60.2 38.4 L 59.7 38.4 L 59.7 32.5 Z M 62.7 35.2 C 62.7 33.2 64.1 31.9 65.6 31.9 C 66.7 31.9 67.7 32.5 68.1 33.6 C 68.14 33.62 68.2 32 68.2 32 L 68.6 32 L 68.6 38.4 L 68.2 38.4 C 68.2 38.4 68.14 36.8 68.1 36.8 C 67.7 38 66.7 38.5 65.6 38.5 C 64.1 38.5 62.7 37.2 62.7 35.2 Z M 68.1 35.2 C 68.1 33.5 67 32.4 65.7 32.4 C 64.4 32.4 63.2 33.5 63.2 35.2 C 63.2 36.9 64.4 38 65.7 38 C 67 38 68.1 36.9 68.1 35.2 Z M 78.6 34.1 C 78.62 34.08 78.6 38.4 78.6 38.4 L 78.1 38.4 C 78.1 38.4 78.11 34.13 78.1 34.1 C 78.1 33.1 77.6 32.4 76.6 32.4 C 75.6 32.4 75 33.2 75 34.1 C 75 34.14 75 38.4 75 38.4 L 74.5 38.4 C 74.5 38.4 74.5 34.13 74.5 34.1 C 74.5 33.1 74 32.4 73 32.4 C 72 32.4 71.4 33.2 71.4 34.2 C 71.39 34.16 71.4 38.4 71.4 38.4 L 70.9 38.4 L 70.9 32 L 71.3 32 L 71.3 33.1 C 71.3 33.1 71.36 33.08 71.4 33.1 C 71.6 32.4 72.3 31.9 73.1 31.9 C 74 31.9 74.6 32.4 74.8 33.2 C 75.1 32.4 75.8 31.9 76.7 31.9 C 78 31.9 78.6 32.8 78.6 34.1 Z M 80.7 29.7 C 80.7 29.5 80.9 29.3 81.1 29.3 C 81.4 29.3 81.5 29.5 81.5 29.7 C 81.5 29.9 81.4 30.1 81.1 30.1 C 80.9 30.1 80.7 29.9 80.7 29.7 Z M 80.9 32 L 81.4 32 L 81.4 38.4 L 80.9 38.4 L 80.9 32 Z M 83.7 28.9 L 84.2 28.9 L 84.2 38.4 L 83.7 38.4 L 83.7 28.9 Z M 86.6 28.9 L 87.1 28.9 L 87.1 38.4 L 86.6 38.4 L 86.6 28.9 Z M 94.5 35.4 C 94.5 35.4 89.5 35.4 89.5 35.4 C 89.5 37 90.6 38 92 38 C 92.8 38 93.6 37.8 94.3 37.1 C 94.3 37.1 94.3 37.7 94.3 37.7 C 93.6 38.2 92.8 38.5 92 38.5 C 90.2 38.5 88.9 37.2 88.9 35.2 C 88.9 33.2 90.4 31.9 91.9 31.9 C 93.3 31.9 94.5 33 94.5 35.1 C 94.5 35.2 94.5 35.3 94.5 35.4 Z M 94 34.9 C 94 33.2 93 32.4 91.9 32.4 C 90.7 32.4 89.6 33.4 89.5 34.9 C 89.5 34.9 94 34.9 94 34.9 Z M 99.3 35.2 C 99.3 33.2 100.7 31.9 102.2 31.9 C 103.2 31.9 104.2 32.5 104.7 33.6 C 104.67 33.58 104.7 28.9 104.7 28.9 L 105.2 28.9 L 105.2 38.4 L 104.8 38.4 L 104.7 36.8 C 104.7 36.8 104.7 36.79 104.7 36.8 C 104.2 38 103.2 38.5 102.2 38.5 C 100.7 38.5 99.3 37.2 99.3 35.2 Z M 104.7 35.2 C 104.7 33.5 103.6 32.4 102.2 32.4 C 100.9 32.4 99.8 33.5 99.8 35.2 C 99.8 36.9 100.9 38 102.2 38 C 103.6 38 104.7 36.9 104.7 35.2 Z M 112.6 35.4 C 112.6 35.4 107.5 35.4 107.5 35.4 C 107.6 37 108.6 38 110.1 38 C 110.8 38 111.7 37.8 112.3 37.1 C 112.3 37.1 112.3 37.7 112.3 37.7 C 111.7 38.2 110.9 38.5 110 38.5 C 108.3 38.5 107 37.2 107 35.2 C 107 33.2 108.4 31.9 110 31.9 C 111.4 31.9 112.6 33 112.6 35.1 C 112.6 35.2 112.6 35.3 112.6 35.4 Z M 112.1 34.9 C 112.1 33.2 111 32.4 110 32.4 C 108.8 32.4 107.6 33.4 107.5 34.9 C 107.5 34.9 112.1 34.9 112.1 34.9 Z M 117.4 35.2 C 117.4 33.2 118.8 31.9 120.3 31.9 C 121.3 31.9 122.3 32.5 122.7 33.6 C 122.74 33.58 122.7 28.9 122.7 28.9 L 123.2 28.9 L 123.2 38.4 L 122.8 38.4 L 122.8 36.8 C 122.8 36.8 122.76 36.79 122.8 36.8 C 122.3 38 121.3 38.5 120.3 38.5 C 118.8 38.5 117.4 37.2 117.4 35.2 Z M 122.8 35.2 C 122.8 33.5 121.6 32.4 120.3 32.4 C 119 32.4 117.9 33.5 117.9 35.2 C 117.9 36.9 119 38 120.3 38 C 121.6 38 122.8 36.9 122.8 35.2 Z M 130.6 35.4 C 130.6 35.4 125.6 35.4 125.6 35.4 C 125.7 37 126.7 38 128.1 38 C 128.9 38 129.7 37.8 130.4 37.1 C 130.4 37.1 130.4 37.7 130.4 37.7 C 129.7 38.2 128.9 38.5 128.1 38.5 C 126.3 38.5 125.1 37.2 125.1 35.2 C 125.1 33.2 126.5 31.9 128 31.9 C 129.4 31.9 130.7 33 130.7 35.1 C 130.7 35.2 130.6 35.3 130.6 35.4 Z M 130.2 34.9 C 130.1 33.2 129.1 32.4 128 32.4 C 126.8 32.4 125.7 33.4 125.6 34.9 C 125.6 34.9 130.2 34.9 130.2 34.9 Z M 132.4 36.1 C 132.37 36.08 132.4 32 132.4 32 L 132.9 32 C 132.9 32 132.87 36.11 132.9 36.1 C 132.9 37.3 133.6 38 134.8 38 C 135.9 38 136.7 37.3 136.7 36.1 C 136.67 36.1 136.7 32 136.7 32 L 137.2 32 C 137.2 32 137.17 36.07 137.2 36.1 C 137.2 37.5 136.2 38.5 134.8 38.5 C 133.3 38.5 132.4 37.5 132.4 36.1 Z M 141.4 35.2 L 143.7 38.4 L 143.1 38.4 L 141.2 35.6 L 141.2 35.6 L 139.2 38.4 L 138.6 38.4 L 140.9 35.2 L 138.6 32 L 139.2 32 L 141.1 34.8 L 141.2 34.8 L 143.1 32 L 143.7 32 L 141.4 35.2 Z M 153.7 35.4 C 153.7 35.4 148.7 35.4 148.7 35.4 C 148.8 37 149.8 38 151.2 38 C 152 38 152.8 37.8 153.5 37.1 C 153.5 37.1 153.5 37.7 153.5 37.7 C 152.8 38.2 152.1 38.5 151.2 38.5 C 149.4 38.5 148.2 37.2 148.2 35.2 C 148.2 33.2 149.6 31.9 151.1 31.9 C 152.6 31.9 153.8 33 153.8 35.1 C 153.8 35.2 153.8 35.3 153.7 35.4 Z M 153.3 34.9 C 153.2 33.2 152.2 32.4 151.1 32.4 C 149.9 32.4 148.8 33.4 148.7 34.9 C 148.7 34.9 153.3 34.9 153.3 34.9 Z M 160.4 34.2 C 160.36 34.16 160.4 38.4 160.4 38.4 L 159.9 38.4 C 159.9 38.4 159.85 34.37 159.9 34.4 C 159.9 33.1 159.2 32.4 158 32.4 C 157 32.4 156.1 33.1 156.1 34.3 C 156.07 34.31 156.1 38.4 156.1 38.4 L 155.6 38.4 L 155.6 32 L 156 32 L 156 33.2 C 156 33.2 156.04 33.16 156 33.2 C 156.4 32.4 157.2 31.9 158.1 31.9 C 159.5 31.9 160.4 32.8 160.4 34.2 Z M 162.7 32.5 L 161.8 32.5 L 161.8 32 L 162.7 32 C 162.7 32 162.71 30.8 162.7 30.8 C 162.7 29.5 163.6 28.8 164.6 28.8 C 165 28.8 165.3 28.9 165.6 29 C 165.6 29 165.6 29.5 165.6 29.5 C 165.3 29.4 165 29.3 164.6 29.3 C 163.8 29.3 163.2 29.8 163.2 30.9 C 163.22 30.89 163.2 32 163.2 32 L 165.1 32 L 165.1 32.5 L 163.2 32.5 L 163.2 38.4 L 162.7 38.4 L 162.7 32.5 Z M 165.8 35.2 C 165.8 33.2 167.2 31.9 168.7 31.9 C 169.7 31.9 170.7 32.5 171.2 33.6 C 171.19 33.62 171.3 32 171.3 32 L 171.7 32 L 171.7 38.4 L 171.3 38.4 C 171.3 38.4 171.19 36.8 171.2 36.8 C 170.7 38 169.7 38.5 168.7 38.5 C 167.2 38.5 165.8 37.2 165.8 35.2 Z M 171.2 35.2 C 171.2 33.5 170.1 32.4 168.7 32.4 C 167.4 32.4 166.3 33.5 166.3 35.2 C 166.3 36.9 167.4 38 168.7 38 C 170.1 38 171.2 36.9 171.2 35.2 Z M 178.7 34.2 C 178.73 34.16 178.7 38.4 178.7 38.4 L 178.2 38.4 C 178.2 38.4 178.23 34.37 178.2 34.4 C 178.2 33.1 177.6 32.4 176.4 32.4 C 175.3 32.4 174.4 33.1 174.4 34.3 C 174.44 34.31 174.4 38.4 174.4 38.4 L 173.9 38.4 L 173.9 32 L 174.3 32 L 174.4 33.2 C 174.4 33.2 174.41 33.16 174.4 33.2 C 174.8 32.4 175.5 31.9 176.5 31.9 C 177.8 31.9 178.7 32.8 178.7 34.2 Z M 181.5 32 L 183.4 32 L 183.4 32.5 L 181.5 32.5 C 181.5 32.5 181.55 36.4 181.5 36.4 C 181.5 37.6 182.2 38 183.1 38 C 183.3 38 183.4 38 183.6 38 C 183.6 38 183.6 38.4 183.6 38.4 C 183.6 38.4 183.3 38.5 183 38.5 C 181.9 38.5 181 37.8 181 36.4 C 181.05 36.42 181 32.5 181 32.5 L 180.1 32.5 L 180.1 32 L 181.1 32 L 181.1 30.5 L 181.5 30.5 L 181.5 32 Z M 188.5 32.5 C 188.5 32.5 188.5 33 188.5 33 C 188 32.7 187.4 32.4 186.7 32.4 C 185.8 32.4 185.1 32.9 185.1 33.6 C 185.1 34.3 185.8 34.6 186.8 34.9 C 187.8 35.3 188.8 35.6 188.8 36.7 C 188.8 37.8 188 38.5 186.7 38.5 C 185.9 38.5 185.2 38.3 184.5 37.8 C 184.5 37.8 184.5 37.1 184.5 37.1 C 185.1 37.7 185.8 38 186.7 38 C 187.7 38 188.3 37.5 188.3 36.7 C 188.3 36 187.6 35.7 186.6 35.3 C 185.5 35 184.6 34.7 184.6 33.6 C 184.6 32.6 185.5 31.9 186.7 31.9 C 187.4 31.9 188 32.1 188.5 32.5 Z M 190.5 37.4 C 190.51 37.44 190.5 37 190.5 37 L 191 37 C 191 37 191.02 37.43 191 37.4 C 191 38.4 190.6 39.4 190.4 40 C 190.4 40 190 40 190 40 C 190.2 39.4 190.5 38.4 190.5 37.4 Z M 199.2 38 C 199.7 38 200.4 37.9 200.9 37.5 C 200.9 37.5 200.9 38.1 200.9 38.1 C 200.4 38.4 199.8 38.5 199.2 38.5 C 197.5 38.5 196.1 37.1 196.1 35.2 C 196.1 33.3 197.5 31.9 199.2 31.9 C 199.8 31.9 200.4 32 200.9 32.4 C 200.9 32.4 200.9 32.9 200.9 32.9 C 200.4 32.5 199.8 32.4 199.2 32.4 C 197.8 32.4 196.6 33.5 196.6 35.2 C 196.6 36.9 197.9 38 199.2 38 Z M 207.7 35.4 C 207.7 35.4 202.6 35.4 202.6 35.4 C 202.7 37 203.7 38 205.2 38 C 205.9 38 206.7 37.8 207.4 37.1 C 207.4 37.1 207.4 37.7 207.4 37.7 C 206.8 38.2 206 38.5 205.1 38.5 C 203.3 38.5 202.1 37.2 202.1 35.2 C 202.1 33.2 203.5 31.9 205 31.9 C 206.5 31.9 207.7 33 207.7 35.1 C 207.7 35.2 207.7 35.3 207.7 35.4 Z M 207.2 34.9 C 207.1 33.2 206.1 32.4 205 32.4 C 203.8 32.4 202.7 33.4 202.6 34.9 C 202.6 34.9 207.2 34.9 207.2 34.9 Z M 213.4 33.6 C 213.8 32.5 214.9 31.9 215.9 31.9 C 217.4 31.9 218.8 33.2 218.8 35.2 C 218.8 37.2 217.4 38.5 215.9 38.5 C 214.8 38.5 213.8 38 213.4 36.8 C 213.35 36.79 213.3 38.4 213.3 38.4 L 212.9 38.4 L 212.9 28.9 L 213.4 28.9 C 213.4 28.9 213.39 33.59 213.4 33.6 Z M 213.4 35.2 C 213.4 36.9 214.5 38 215.8 38 C 217.1 38 218.3 36.9 218.3 35.2 C 218.3 33.5 217.1 32.4 215.8 32.4 C 214.5 32.4 213.4 33.5 213.4 35.2 Z M 220.1 35.2 C 220.1 33.2 221.5 31.9 223.1 31.9 C 224.1 31.9 225.1 32.5 225.6 33.6 C 225.56 33.62 225.6 32 225.6 32 L 226 32 L 226 38.4 L 225.6 38.4 C 225.6 38.4 225.56 36.8 225.6 36.8 C 225.1 38 224.1 38.5 223.1 38.5 C 221.5 38.5 220.1 37.2 220.1 35.2 Z M 225.5 35.2 C 225.5 33.5 224.4 32.4 223.1 32.4 C 221.8 32.4 220.6 33.5 220.6 35.2 C 220.6 36.9 221.8 38 223.1 38 C 224.4 38 225.5 36.9 225.5 35.2 Z M 229 32 L 230.9 32 L 230.9 32.5 L 229 32.5 C 229 32.5 228.99 36.4 229 36.4 C 229 37.6 229.6 38 230.5 38 C 230.7 38 230.9 38 231.1 38 C 231.1 38 231.1 38.4 231.1 38.4 C 231 38.4 230.7 38.5 230.5 38.5 C 229.3 38.5 228.5 37.8 228.5 36.4 C 228.49 36.42 228.5 32.5 228.5 32.5 L 227.5 32.5 L 227.5 32 L 228.5 32 L 228.5 30.5 L 229 30.5 L 229 32 Z M 237.4 35.4 C 237.4 35.4 232.4 35.4 232.4 35.4 C 232.5 37 233.5 38 235 38 C 235.7 38 236.5 37.8 237.2 37.1 C 237.2 37.1 237.2 37.7 237.2 37.7 C 236.6 38.2 235.8 38.5 234.9 38.5 C 233.1 38.5 231.9 37.2 231.9 35.2 C 231.9 33.2 233.3 31.9 234.8 31.9 C 236.3 31.9 237.5 33 237.5 35.1 C 237.5 35.2 237.5 35.3 237.4 35.4 Z M 237 34.9 C 236.9 33.2 235.9 32.4 234.8 32.4 C 233.6 32.4 232.5 33.4 232.4 34.9 C 232.4 34.9 237 34.9 237 34.9 Z M 238.8 35.2 C 238.8 33.2 240.2 31.9 241.7 31.9 C 242.7 31.9 243.8 32.5 244.2 33.6 C 244.23 33.62 244.3 32 244.3 32 L 244.7 32 L 244.7 38.4 L 244.3 38.4 C 244.3 38.4 244.23 36.8 244.2 36.8 C 243.8 38 242.7 38.5 241.7 38.5 C 240.2 38.5 238.8 37.2 238.8 35.2 Z M 244.2 35.2 C 244.2 33.5 243.1 32.4 241.8 32.4 C 240.4 32.4 239.3 33.5 239.3 35.2 C 239.3 36.9 240.5 38 241.8 38 C 243.1 38 244.2 36.9 244.2 35.2 Z M 246.9 36.1 C 246.89 36.08 246.9 32 246.9 32 L 247.4 32 C 247.4 32 247.4 36.11 247.4 36.1 C 247.4 37.3 248.1 38 249.3 38 C 250.4 38 251.2 37.3 251.2 36.1 C 251.19 36.1 251.2 32 251.2 32 L 251.7 32 C 251.7 32 251.69 36.07 251.7 36.1 C 251.7 37.5 250.8 38.5 249.3 38.5 C 247.8 38.5 246.9 37.5 246.9 36.1 Z M 256.9 35.2 C 256.9 33.2 258.2 31.9 259.8 31.9 C 260.8 31.9 261.8 32.5 262.2 33.6 C 262.23 33.58 262.2 28.9 262.2 28.9 L 262.7 28.9 L 262.7 38.4 L 262.3 38.4 L 262.3 36.8 C 262.3 36.8 262.26 36.79 262.3 36.8 C 261.8 38 260.8 38.5 259.8 38.5 C 258.3 38.5 256.9 37.2 256.9 35.2 Z M 262.3 35.2 C 262.3 33.5 261.1 32.4 259.8 32.4 C 258.5 32.4 257.4 33.5 257.4 35.2 C 257.4 36.9 258.5 38 259.8 38 C 261.1 38 262.3 36.9 262.3 35.2 Z M 270.1 35.4 C 270.1 35.4 265.1 35.4 265.1 35.4 C 265.2 37 266.2 38 267.6 38 C 268.4 38 269.2 37.8 269.9 37.1 C 269.9 37.1 269.9 37.7 269.9 37.7 C 269.2 38.2 268.4 38.5 267.6 38.5 C 265.8 38.5 264.6 37.2 264.6 35.2 C 264.6 33.2 266 31.9 267.5 31.9 C 268.9 31.9 270.2 33 270.2 35.1 C 270.2 35.2 270.1 35.3 270.1 35.4 Z M 269.6 34.9 C 269.6 33.2 268.6 32.4 267.5 32.4 C 266.3 32.4 265.2 33.4 265.1 34.9 C 265.1 34.9 269.6 34.9 269.6 34.9 Z M 277.1 30.2 L 274.7 31.3 L 274.7 30.7 L 277.5 29.5 L 277.6 29.5 L 277.6 38.4 L 277.1 38.4 L 277.1 30.2 Z M 286.5 33.9 C 286.5 36.9 285.1 38.5 283.4 38.5 C 281.7 38.5 280.3 36.9 280.3 33.9 C 280.3 31 281.7 29.4 283.4 29.4 C 285.1 29.4 286.5 31 286.5 33.9 Z M 280.9 33.9 C 280.9 36.6 282 38.1 283.4 38.1 C 284.8 38.1 286 36.6 286 33.9 C 286 31.3 284.8 29.8 283.4 29.8 C 282 29.8 280.9 31.3 280.9 33.9 Z M 299.7 34.1 C 299.67 34.08 299.7 38.4 299.7 38.4 L 299.2 38.4 C 299.2 38.4 299.16 34.13 299.2 34.1 C 299.2 33.1 298.7 32.4 297.7 32.4 C 296.7 32.4 296.1 33.2 296.1 34.1 C 296.05 34.14 296.1 38.4 296.1 38.4 L 295.6 38.4 C 295.6 38.4 295.55 34.13 295.6 34.1 C 295.6 33.1 295 32.4 294.1 32.4 C 293 32.4 292.4 33.2 292.4 34.2 C 292.44 34.16 292.4 38.4 292.4 38.4 L 291.9 38.4 L 291.9 32 L 292.3 32 L 292.4 33.1 C 292.4 33.1 292.41 33.08 292.4 33.1 C 292.7 32.4 293.3 31.9 294.1 31.9 C 295.1 31.9 295.6 32.4 295.9 33.2 C 296.2 32.4 296.8 31.9 297.7 31.9 C 299 31.9 299.7 32.8 299.7 34.1 Z M 304.6 30.9 L 303 29 L 303.6 29 L 305.1 30.9 L 304.6 30.9 Z M 307 35.4 C 307 35.4 301.9 35.4 301.9 35.4 C 302 37 303.1 38 304.5 38 C 305.3 38 306.1 37.8 306.8 37.1 C 306.8 37.1 306.8 37.7 306.8 37.7 C 306.1 38.2 305.3 38.5 304.5 38.5 C 302.7 38.5 301.4 37.2 301.4 35.2 C 301.4 33.2 302.8 31.9 304.4 31.9 C 305.8 31.9 307 33 307 35.1 C 307 35.2 307 35.3 307 35.4 Z M 306.5 34.9 C 306.5 33.2 305.5 32.4 304.4 32.4 C 303.2 32.4 302.1 33.4 301.9 34.9 C 301.9 34.9 306.5 34.9 306.5 34.9 Z M 309.4 32 L 311.3 32 L 311.3 32.5 L 309.4 32.5 C 309.4 32.5 309.43 36.4 309.4 36.4 C 309.4 37.6 310.1 38 311 38 C 311.2 38 311.3 38 311.5 38 C 311.5 38 311.5 38.4 311.5 38.4 C 311.4 38.4 311.2 38.5 310.9 38.5 C 309.8 38.5 308.9 37.8 308.9 36.4 C 308.93 36.42 308.9 32.5 308.9 32.5 L 307.9 32.5 L 307.9 32 L 308.9 32 L 308.9 30.5 L 309.4 30.5 L 309.4 32 Z M 312.9 32 L 313.3 32 L 313.3 33.2 C 313.3 33.2 313.33 33.22 313.3 33.2 C 313.7 32.3 314.6 32 315.2 32 C 315.3 32 315.5 32 315.6 32 C 315.6 32 315.6 32.5 315.6 32.5 C 315.5 32.5 315.3 32.5 315.2 32.5 C 314.3 32.5 313.4 33.1 313.4 34.4 C 313.37 34.37 313.4 38.4 313.4 38.4 L 312.9 38.4 L 312.9 32 Z M 321.7 35.4 C 321.7 35.4 316.7 35.4 316.7 35.4 C 316.8 37 317.8 38 319.2 38 C 320 38 320.8 37.8 321.5 37.1 C 321.5 37.1 321.5 37.7 321.5 37.7 C 320.8 38.2 320 38.5 319.2 38.5 C 317.4 38.5 316.2 37.2 316.2 35.2 C 316.2 33.2 317.6 31.9 319.1 31.9 C 320.5 31.9 321.8 33 321.8 35.1 C 321.8 35.2 321.7 35.3 321.7 35.4 Z M 321.3 34.9 C 321.2 33.2 320.2 32.4 319.1 32.4 C 317.9 32.4 316.8 33.4 316.7 34.9 C 316.7 34.9 321.3 34.9 321.3 34.9 Z M 332.1 35.4 C 332.1 35.4 327 35.4 327 35.4 C 327.1 37 328.1 38 329.6 38 C 330.4 38 331.2 37.8 331.9 37.1 C 331.9 37.1 331.9 37.7 331.9 37.7 C 331.2 38.2 330.4 38.5 329.6 38.5 C 327.8 38.5 326.5 37.2 326.5 35.2 C 326.5 33.2 327.9 31.9 329.5 31.9 C 330.9 31.9 332.1 33 332.1 35.1 C 332.1 35.2 332.1 35.3 332.1 35.4 Z M 331.6 34.9 C 331.6 33.2 330.6 32.4 329.5 32.4 C 328.3 32.4 327.1 33.4 327 34.9 C 327 34.9 331.6 34.9 331.6 34.9 Z M 337.5 32.5 C 337.5 32.5 337.5 33 337.5 33 C 337 32.7 336.3 32.4 335.6 32.4 C 334.7 32.4 334.1 32.9 334.1 33.6 C 334.1 34.3 334.7 34.6 335.7 34.9 C 336.8 35.3 337.8 35.6 337.8 36.7 C 337.8 37.8 336.9 38.5 335.6 38.5 C 334.9 38.5 334.1 38.3 333.5 37.8 C 333.5 37.8 333.5 37.1 333.5 37.1 C 334 37.7 334.8 38 335.6 38 C 336.6 38 337.3 37.5 337.3 36.7 C 337.3 36 336.5 35.7 335.5 35.3 C 334.5 35 333.6 34.7 333.6 33.6 C 333.6 32.6 334.4 31.9 335.6 31.9 C 336.3 31.9 337 32.1 337.5 32.5 Z M 340.2 32 L 342.1 32 L 342.1 32.5 L 340.2 32.5 C 340.2 32.5 340.2 36.4 340.2 36.4 C 340.2 37.6 340.8 38 341.7 38 C 341.9 38 342.1 38 342.3 38 C 342.3 38 342.3 38.4 342.3 38.4 C 342.2 38.4 342 38.5 341.7 38.5 C 340.5 38.5 339.7 37.8 339.7 36.4 C 339.7 36.42 339.7 32.5 339.7 32.5 L 338.7 32.5 L 338.7 32 L 339.7 32 L 339.7 30.5 L 340.2 30.5 L 340.2 32 Z " stroke="none" fill="#000"/>
  </g>
  <g id="Polygon17730">
    <path d="M 1.8 17.6 L 3.7 17.6 L 3.7 18.1 L 1.8 18.1 C 1.8 18.1 1.82 22 1.8 22 C 1.8 23.2 2.5 23.6 3.4 23.6 C 3.5 23.6 3.7 23.6 3.9 23.6 C 3.9 23.6 3.9 24 3.9 24 C 3.8 24 3.6 24.1 3.3 24.1 C 2.1 24.1 1.3 23.4 1.3 22 C 1.32 22.02 1.3 18.1 1.3 18.1 L 0.3 18.1 L 0.3 17.6 L 1.3 17.6 L 1.3 16.1 L 1.8 16.1 L 1.8 17.6 Z M 10.3 21 C 10.3 21 5.2 21 5.2 21 C 5.3 22.6 6.3 23.6 7.8 23.6 C 8.6 23.6 9.4 23.4 10.1 22.7 C 10.1 22.7 10.1 23.3 10.1 23.3 C 9.4 23.8 8.6 24.1 7.8 24.1 C 6 24.1 4.7 22.8 4.7 20.8 C 4.7 18.8 6.1 17.5 7.7 17.5 C 9.1 17.5 10.3 18.6 10.3 20.7 C 10.3 20.8 10.3 20.9 10.3 21 Z M 9.8 20.5 C 9.8 18.8 8.8 18 7.7 18 C 6.5 18 5.4 19 5.2 20.5 C 5.2 20.5 9.8 20.5 9.8 20.5 Z M 12 21.7 C 12.02 21.68 12 17.6 12 17.6 L 12.5 17.6 C 12.5 17.6 12.53 21.71 12.5 21.7 C 12.5 22.9 13.3 23.6 14.4 23.6 C 15.6 23.6 16.3 22.9 16.3 21.7 C 16.32 21.7 16.3 17.6 16.3 17.6 L 16.8 17.6 C 16.8 17.6 16.82 21.67 16.8 21.7 C 16.8 23.1 15.9 24.1 14.4 24.1 C 12.9 24.1 12 23.1 12 21.7 Z M 19 17.6 L 19.4 17.6 L 19.5 18.8 C 19.5 18.8 19.49 18.82 19.5 18.8 C 19.9 17.9 20.7 17.6 21.4 17.6 C 21.5 17.6 21.6 17.6 21.8 17.6 C 21.8 17.6 21.8 18.1 21.8 18.1 C 21.6 18.1 21.5 18.1 21.4 18.1 C 20.5 18.1 19.5 18.7 19.5 20 C 19.52 19.97 19.5 24 19.5 24 L 19 24 L 19 17.6 Z M 22.4 23 C 22.43 23.04 22.4 22.6 22.4 22.6 L 22.9 22.6 C 22.9 22.6 22.93 23.03 22.9 23 C 22.9 24 22.5 25 22.3 25.6 C 22.3 25.6 21.9 25.6 21.9 25.6 C 22.1 25 22.4 24 22.4 23 Z M 29.1 17.6 L 29.5 17.6 C 29.5 17.6 29.53 19.24 29.5 19.2 C 30 18.1 31 17.5 32 17.5 C 33.5 17.5 34.9 18.8 34.9 20.8 C 34.9 22.8 33.5 24.1 32 24.1 C 31 24.1 30 23.5 29.6 22.5 C 29.56 22.45 29.6 26.6 29.6 26.6 L 29.1 26.6 L 29.1 17.6 Z M 34.4 20.8 C 34.4 19.1 33.3 18 32 18 C 30.7 18 29.5 19.1 29.5 20.8 C 29.5 22.5 30.7 23.6 32 23.6 C 33.3 23.6 34.4 22.5 34.4 20.8 Z M 36.8 14.5 L 37.3 14.5 L 37.3 24 L 36.8 24 L 36.8 14.5 Z M 39.5 21.7 C 39.55 21.68 39.5 17.6 39.5 17.6 L 40 17.6 C 40 17.6 40.05 21.71 40 21.7 C 40 22.9 40.8 23.6 41.9 23.6 C 43.1 23.6 43.8 22.9 43.8 21.7 C 43.84 21.7 43.8 17.6 43.8 17.6 L 44.3 17.6 C 44.3 17.6 44.35 21.67 44.3 21.7 C 44.3 23.1 43.4 24.1 41.9 24.1 C 40.5 24.1 39.5 23.1 39.5 21.7 Z M 50.1 18.1 C 50.1 18.1 50.1 18.6 50.1 18.6 C 49.6 18.3 49 18 48.3 18 C 47.3 18 46.7 18.5 46.7 19.2 C 46.7 19.9 47.4 20.2 48.4 20.5 C 49.4 20.9 50.4 21.2 50.4 22.3 C 50.4 23.4 49.5 24.1 48.2 24.1 C 47.5 24.1 46.7 23.9 46.1 23.4 C 46.1 23.4 46.1 22.7 46.1 22.7 C 46.6 23.3 47.4 23.6 48.2 23.6 C 49.3 23.6 49.9 23.1 49.9 22.3 C 49.9 21.6 49.2 21.3 48.2 20.9 C 47.1 20.6 46.2 20.3 46.2 19.2 C 46.2 18.2 47 17.5 48.3 17.5 C 49 17.5 49.6 17.7 50.1 18.1 Z M 59.7 18.1 C 59.7 18.1 59.7 18.6 59.7 18.6 C 59.2 18.3 58.6 18 57.9 18 C 56.9 18 56.3 18.5 56.3 19.2 C 56.3 19.9 57 20.2 58 20.5 C 59 20.9 60 21.2 60 22.3 C 60 23.4 59.1 24.1 57.8 24.1 C 57.1 24.1 56.3 23.9 55.7 23.4 C 55.7 23.4 55.7 22.7 55.7 22.7 C 56.2 23.3 57 23.6 57.8 23.6 C 58.8 23.6 59.5 23.1 59.5 22.3 C 59.5 21.6 58.8 21.3 57.8 20.9 C 56.7 20.6 55.8 20.3 55.8 19.2 C 55.8 18.2 56.6 17.5 57.9 17.5 C 58.5 17.5 59.2 17.7 59.7 18.1 Z M 66.9 21 C 66.9 21 61.8 21 61.8 21 C 61.9 22.6 62.9 23.6 64.4 23.6 C 65.1 23.6 66 23.4 66.6 22.7 C 66.6 22.7 66.6 23.3 66.6 23.3 C 66 23.8 65.2 24.1 64.3 24.1 C 62.6 24.1 61.3 22.8 61.3 20.8 C 61.3 18.8 62.7 17.5 64.3 17.5 C 65.7 17.5 66.9 18.6 66.9 20.7 C 66.9 20.8 66.9 20.9 66.9 21 Z M 66.4 20.5 C 66.4 18.8 65.3 18 64.3 18 C 63 18 61.9 19 61.8 20.5 C 61.8 20.5 66.4 20.5 66.4 20.5 Z M 73.5 19.8 C 73.48 19.76 73.5 24 73.5 24 L 73 24 C 73 24 72.97 19.97 73 20 C 73 18.7 72.3 18 71.2 18 C 70.1 18 69.2 18.7 69.2 19.9 C 69.19 19.91 69.2 24 69.2 24 L 68.7 24 L 68.7 17.6 L 69.1 17.6 L 69.1 18.8 C 69.1 18.8 69.16 18.76 69.2 18.8 C 69.5 18 70.3 17.5 71.2 17.5 C 72.6 17.5 73.5 18.4 73.5 19.8 Z M 79.2 18.1 C 79.2 18.1 79.2 18.6 79.2 18.6 C 78.7 18.3 78.1 18 77.4 18 C 76.5 18 75.8 18.5 75.8 19.2 C 75.8 19.9 76.5 20.2 77.5 20.5 C 78.5 20.9 79.5 21.2 79.5 22.3 C 79.5 23.4 78.7 24.1 77.4 24.1 C 76.6 24.1 75.9 23.9 75.2 23.4 C 75.2 23.4 75.2 22.7 75.2 22.7 C 75.8 23.3 76.5 23.6 77.4 23.6 C 78.4 23.6 79 23.1 79 22.3 C 79 21.6 78.3 21.3 77.3 20.9 C 76.2 20.6 75.3 20.3 75.3 19.2 C 75.3 18.2 76.2 17.5 77.4 17.5 C 78.1 17.5 78.7 17.7 79.2 18.1 Z M 81.2 15.3 C 81.2 15.1 81.3 14.9 81.6 14.9 C 81.8 14.9 82 15.1 82 15.3 C 82 15.5 81.8 15.7 81.6 15.7 C 81.3 15.7 81.2 15.5 81.2 15.3 Z M 81.3 17.6 L 81.8 17.6 L 81.8 24 L 81.3 24 L 81.3 17.6 Z M 84.6 19.2 C 85.1 18.1 86.1 17.5 87.1 17.5 C 88.6 17.5 90 18.8 90 20.8 C 90 22.8 88.6 24.1 87.1 24.1 C 86.1 24.1 85.1 23.6 84.6 22.4 C 84.61 22.39 84.5 24 84.5 24 L 84.1 24 L 84.1 14.5 L 84.6 14.5 C 84.6 14.5 84.65 19.19 84.6 19.2 Z M 84.6 20.8 C 84.6 22.5 85.8 23.6 87.1 23.6 C 88.4 23.6 89.5 22.5 89.5 20.8 C 89.5 19.1 88.4 18 87.1 18 C 85.8 18 84.6 19.1 84.6 20.8 Z M 91.9 14.5 L 92.4 14.5 L 92.4 24 L 91.9 24 L 91.9 14.5 Z M 99.8 21 C 99.8 21 94.8 21 94.8 21 C 94.9 22.6 95.9 23.6 97.3 23.6 C 98.1 23.6 98.9 23.4 99.6 22.7 C 99.6 22.7 99.6 23.3 99.6 23.3 C 98.9 23.8 98.1 24.1 97.3 24.1 C 95.5 24.1 94.3 22.8 94.3 20.8 C 94.3 18.8 95.7 17.5 97.2 17.5 C 98.6 17.5 99.9 18.6 99.9 20.7 C 99.9 20.8 99.8 20.9 99.8 21 Z M 99.3 20.5 C 99.3 18.8 98.3 18 97.2 18 C 96 18 94.9 19 94.8 20.5 C 94.8 20.5 99.3 20.5 99.3 20.5 Z M 105.2 20.8 C 105.2 18.8 106.6 17.5 108.1 17.5 C 109.1 17.5 110.1 18.1 110.6 19.2 C 110.59 19.22 110.7 17.6 110.7 17.6 L 111.1 17.6 L 111.1 24 L 110.7 24 C 110.7 24 110.59 22.4 110.6 22.4 C 110.1 23.6 109.1 24.1 108.1 24.1 C 106.6 24.1 105.2 22.8 105.2 20.8 Z M 110.6 20.8 C 110.6 19.1 109.5 18 108.1 18 C 106.8 18 105.7 19.1 105.7 20.8 C 105.7 22.5 106.8 23.6 108.1 23.6 C 109.4 23.6 110.6 22.5 110.6 20.8 Z M 113.3 21.7 C 113.25 21.68 113.3 17.6 113.3 17.6 L 113.8 17.6 C 113.8 17.6 113.75 21.71 113.8 21.7 C 113.8 22.9 114.5 23.6 115.6 23.6 C 116.8 23.6 117.5 22.9 117.5 21.7 C 117.55 21.7 117.5 17.6 117.5 17.6 L 118 17.6 C 118 17.6 118.05 21.67 118 21.7 C 118 23.1 117.1 24.1 115.6 24.1 C 114.2 24.1 113.3 23.1 113.3 21.7 Z M 122.3 20.8 L 124.6 24 L 124 24 L 122 21.2 L 122 21.2 L 120.1 24 L 119.5 24 L 121.7 20.8 L 119.5 17.6 L 120.1 17.6 L 122 20.4 L 122 20.4 L 124 17.6 L 124.5 17.6 L 122.3 20.8 Z M 135.2 21 C 135.2 21 130.1 21 130.1 21 C 130.2 22.6 131.3 23.6 132.7 23.6 C 133.5 23.6 134.3 23.4 135 22.7 C 135 22.7 135 23.3 135 23.3 C 134.3 23.8 133.5 24.1 132.7 24.1 C 130.9 24.1 129.6 22.8 129.6 20.8 C 129.6 18.8 131.1 17.5 132.6 17.5 C 134 17.5 135.2 18.6 135.2 20.7 C 135.2 20.8 135.2 20.9 135.2 21 Z M 134.7 20.5 C 134.7 18.8 133.7 18 132.6 18 C 131.4 18 130.3 19 130.2 20.5 C 130.2 20.5 134.7 20.5 134.7 20.5 Z M 141.8 19.8 C 141.8 19.76 141.8 24 141.8 24 L 141.3 24 C 141.3 24 141.3 19.97 141.3 20 C 141.3 18.7 140.6 18 139.5 18 C 138.4 18 137.5 18.7 137.5 19.9 C 137.52 19.91 137.5 24 137.5 24 L 137 24 L 137 17.6 L 137.4 17.6 L 137.5 18.8 C 137.5 18.8 137.48 18.76 137.5 18.8 C 137.8 18 138.6 17.5 139.6 17.5 C 140.9 17.5 141.8 18.4 141.8 19.8 Z M 143.9 15.3 C 143.9 15.1 144.1 14.9 144.3 14.9 C 144.5 14.9 144.7 15.1 144.7 15.3 C 144.7 15.5 144.5 15.7 144.3 15.7 C 144.1 15.7 143.9 15.5 143.9 15.3 Z M 144 23.3 C 144.05 23.32 144 17.6 144 17.6 L 144.6 17.6 C 144.6 17.6 144.55 23.33 144.6 23.3 C 144.6 24.8 144.2 25.7 143.6 26.6 C 143.6 26.6 142.9 26.6 142.9 26.6 C 143.7 25.8 144 24.8 144 23.3 Z M 152 21 C 152 21 146.9 21 146.9 21 C 147 22.6 148 23.6 149.5 23.6 C 150.3 23.6 151.1 23.4 151.8 22.7 C 151.8 22.7 151.8 23.3 151.8 23.3 C 151.1 23.8 150.3 24.1 149.5 24.1 C 147.7 24.1 146.4 22.8 146.4 20.8 C 146.4 18.8 147.8 17.5 149.4 17.5 C 150.8 17.5 152 18.6 152 20.7 C 152 20.8 152 20.9 152 21 Z M 151.5 20.5 C 151.5 18.8 150.5 18 149.4 18 C 148.2 18 147 19 146.9 20.5 C 146.9 20.5 151.5 20.5 151.5 20.5 Z M 153.7 21.7 C 153.72 21.68 153.7 17.6 153.7 17.6 L 154.2 17.6 C 154.2 17.6 154.22 21.71 154.2 21.7 C 154.2 22.9 155 23.6 156.1 23.6 C 157.3 23.6 158 22.9 158 21.7 C 158.02 21.7 158 17.6 158 17.6 L 158.5 17.6 C 158.5 17.6 158.52 21.67 158.5 21.7 C 158.5 23.1 157.6 24.1 156.1 24.1 C 154.6 24.1 153.7 23.1 153.7 21.7 Z M 162.8 20.8 L 165.1 24 L 164.5 24 L 162.5 21.2 L 162.5 21.2 L 160.5 24 L 159.9 24 L 162.2 20.8 L 160 17.6 L 160.6 17.6 L 162.5 20.4 L 162.5 20.4 L 164.5 17.6 L 165 17.6 L 162.8 20.8 Z M 175.7 21 C 175.7 21 170.6 21 170.6 21 C 170.7 22.6 171.7 23.6 173.2 23.6 C 173.9 23.6 174.8 23.4 175.4 22.7 C 175.4 22.7 175.4 23.3 175.4 23.3 C 174.8 23.8 174 24.1 173.1 24.1 C 171.4 24.1 170.1 22.8 170.1 20.8 C 170.1 18.8 171.5 17.5 173.1 17.5 C 174.5 17.5 175.7 18.6 175.7 20.7 C 175.7 20.8 175.7 20.9 175.7 21 Z M 175.2 20.5 C 175.2 18.8 174.1 18 173.1 18 C 171.8 18 170.7 19 170.6 20.5 C 170.6 20.5 175.2 20.5 175.2 20.5 Z M 182.3 19.8 C 182.27 19.76 182.3 24 182.3 24 L 181.8 24 C 181.8 24 181.77 19.97 181.8 20 C 181.8 18.7 181.1 18 180 18 C 178.9 18 178 18.7 178 19.9 C 177.99 19.91 178 24 178 24 L 177.5 24 L 177.5 17.6 L 177.9 17.6 L 177.9 18.8 C 177.9 18.8 177.95 18.76 178 18.8 C 178.3 18 179.1 17.5 180 17.5 C 181.4 17.5 182.3 18.4 182.3 19.8 Z M 183.6 17.6 L 184.1 17.6 L 186.2 23.4 L 186.2 23.4 L 188.3 17.6 L 188.8 17.6 L 186.5 24 L 185.9 24 L 183.6 17.6 Z M 190.3 15.3 C 190.3 15.1 190.4 14.9 190.7 14.9 C 190.9 14.9 191.1 15.1 191.1 15.3 C 191.1 15.5 190.9 15.7 190.7 15.7 C 190.4 15.7 190.3 15.5 190.3 15.3 Z M 190.4 17.6 L 190.9 17.6 L 190.9 24 L 190.4 24 L 190.4 17.6 Z M 193.2 17.6 L 193.6 17.6 L 193.7 18.8 C 193.7 18.8 193.71 18.82 193.7 18.8 C 194.1 17.9 194.9 17.6 195.6 17.6 C 195.7 17.6 195.9 17.6 196 17.6 C 196 17.6 196 18.1 196 18.1 C 195.9 18.1 195.7 18.1 195.6 18.1 C 194.7 18.1 193.8 18.7 193.7 20 C 193.75 19.97 193.7 24 193.7 24 L 193.2 24 L 193.2 17.6 Z M 196.5 20.8 C 196.5 18.9 197.9 17.5 199.6 17.5 C 201.3 17.5 202.6 18.9 202.6 20.8 C 202.6 22.8 201.3 24.1 199.6 24.1 C 197.9 24.1 196.5 22.8 196.5 20.8 Z M 202.1 20.8 C 202.1 19 200.9 18 199.6 18 C 198.3 18 197 19 197 20.8 C 197 22.6 198.3 23.6 199.6 23.6 C 200.9 23.6 202.1 22.6 202.1 20.8 Z M 209.2 19.8 C 209.24 19.76 209.2 24 209.2 24 L 208.7 24 C 208.7 24 208.73 19.97 208.7 20 C 208.7 18.7 208.1 18 206.9 18 C 205.8 18 205 18.7 205 19.9 C 204.95 19.91 205 24 205 24 L 204.5 24 L 204.5 17.6 L 204.8 17.6 L 204.9 18.8 C 204.9 18.8 204.92 18.76 204.9 18.8 C 205.3 18 206 17.5 207 17.5 C 208.4 17.5 209.2 18.4 209.2 19.8 Z M 216.2 19.8 C 216.22 19.76 216.2 24 216.2 24 L 215.7 24 C 215.7 24 215.72 19.97 215.7 20 C 215.7 18.7 215.1 18 213.9 18 C 212.8 18 211.9 18.7 211.9 19.9 C 211.94 19.91 211.9 24 211.9 24 L 211.4 24 L 211.4 17.6 L 211.8 17.6 L 211.9 18.8 C 211.9 18.8 211.9 18.76 211.9 18.8 C 212.2 18 213 17.5 214 17.5 C 215.3 17.5 216.2 18.4 216.2 19.8 Z M 223.5 21 C 223.5 21 218.5 21 218.5 21 C 218.6 22.6 219.6 23.6 221 23.6 C 221.8 23.6 222.6 23.4 223.3 22.7 C 223.3 22.7 223.3 23.3 223.3 23.3 C 222.6 23.8 221.8 24.1 221 24.1 C 219.2 24.1 218 22.8 218 20.8 C 218 18.8 219.4 17.5 220.9 17.5 C 222.3 17.5 223.6 18.6 223.6 20.7 C 223.6 20.8 223.5 20.9 223.5 21 Z M 223.1 20.5 C 223 18.8 222 18 220.9 18 C 219.7 18 218.6 19 218.5 20.5 C 218.5 20.5 223.1 20.5 223.1 20.5 Z M 233.1 19.7 C 233.08 19.68 233.1 24 233.1 24 L 232.6 24 C 232.6 24 232.58 19.73 232.6 19.7 C 232.6 18.7 232.1 18 231.1 18 C 230.1 18 229.5 18.8 229.5 19.7 C 229.47 19.74 229.5 24 229.5 24 L 229 24 C 229 24 228.97 19.73 229 19.7 C 229 18.7 228.5 18 227.5 18 C 226.4 18 225.9 18.8 225.9 19.8 C 225.86 19.76 225.9 24 225.9 24 L 225.4 24 L 225.4 17.6 L 225.7 17.6 L 225.8 18.7 C 225.8 18.7 225.82 18.68 225.8 18.7 C 226.1 18 226.7 17.5 227.5 17.5 C 228.5 17.5 229.1 18 229.3 18.8 C 229.6 18 230.2 17.5 231.1 17.5 C 232.4 17.5 233.1 18.4 233.1 19.7 Z M 240.4 21 C 240.4 21 235.3 21 235.3 21 C 235.4 22.6 236.5 23.6 237.9 23.6 C 238.7 23.6 239.5 23.4 240.2 22.7 C 240.2 22.7 240.2 23.3 240.2 23.3 C 239.5 23.8 238.7 24.1 237.9 24.1 C 236.1 24.1 234.8 22.8 234.8 20.8 C 234.8 18.8 236.3 17.5 237.8 17.5 C 239.2 17.5 240.4 18.6 240.4 20.7 C 240.4 20.8 240.4 20.9 240.4 21 Z M 239.9 20.5 C 239.9 18.8 238.9 18 237.8 18 C 236.6 18 235.5 19 235.4 20.5 C 235.4 20.5 239.9 20.5 239.9 20.5 Z M 247 19.8 C 247.01 19.76 247 24 247 24 L 246.5 24 C 246.5 24 246.51 19.97 246.5 20 C 246.5 18.7 245.8 18 244.7 18 C 243.6 18 242.7 18.7 242.7 19.9 C 242.73 19.91 242.7 24 242.7 24 L 242.2 24 L 242.2 17.6 L 242.6 17.6 L 242.7 18.8 C 242.7 18.8 242.69 18.76 242.7 18.8 C 243 18 243.8 17.5 244.8 17.5 C 246.1 17.5 247 18.4 247 19.8 Z M 249.8 17.6 L 251.7 17.6 L 251.7 18.1 L 249.8 18.1 C 249.8 18.1 249.83 22 249.8 22 C 249.8 23.2 250.5 23.6 251.4 23.6 C 251.5 23.6 251.7 23.6 251.9 23.6 C 251.9 23.6 251.9 24 251.9 24 C 251.8 24 251.6 24.1 251.3 24.1 C 250.2 24.1 249.3 23.4 249.3 22 C 249.33 22.02 249.3 18.1 249.3 18.1 L 248.3 18.1 L 248.3 17.6 L 249.3 17.6 L 249.3 16.1 L 249.8 16.1 L 249.8 17.6 Z M 252.7 20.8 C 252.7 18.8 254.1 17.5 255.6 17.5 C 256.6 17.5 257.7 18.1 258.1 19.2 C 258.14 19.22 258.2 17.6 258.2 17.6 L 258.6 17.6 L 258.6 24 L 258.2 24 C 258.2 24 258.14 22.4 258.1 22.4 C 257.7 23.6 256.6 24.1 255.6 24.1 C 254.1 24.1 252.7 22.8 252.7 20.8 Z M 258.1 20.8 C 258.1 19.1 257 18 255.7 18 C 254.4 18 253.2 19.1 253.2 20.8 C 253.2 22.5 254.4 23.6 255.7 23.6 C 257 23.6 258.1 22.5 258.1 20.8 Z M 260.8 21.7 C 260.8 21.68 260.8 17.6 260.8 17.6 L 261.3 17.6 C 261.3 17.6 261.3 21.71 261.3 21.7 C 261.3 22.9 262 23.6 263.2 23.6 C 264.4 23.6 265.1 22.9 265.1 21.7 C 265.1 21.7 265.1 17.6 265.1 17.6 L 265.6 17.6 C 265.6 17.6 265.6 21.67 265.6 21.7 C 265.6 23.1 264.7 24.1 263.2 24.1 C 261.7 24.1 260.8 23.1 260.8 21.7 Z M 269.9 20.8 L 272.2 24 L 271.6 24 L 269.6 21.2 L 269.6 21.2 L 267.6 24 L 267 24 L 269.3 20.8 L 267.1 17.6 L 267.6 17.6 L 269.6 20.4 L 269.6 20.4 L 271.5 17.6 L 272.1 17.6 L 269.9 20.8 Z M 273.4 23.6 C 273.4 23.3 273.6 23.1 273.9 23.1 C 274.2 23.1 274.4 23.3 274.4 23.6 C 274.4 23.8 274.2 24 273.9 24 C 273.6 24 273.4 23.8 273.4 23.6 Z M 280.7 15.1 C 280.7 15.1 282.54 15.08 282.5 15.1 C 284.4 15.1 285.7 16.1 285.7 17.8 C 285.7 19.6 284.4 20.6 282.5 20.6 C 282.54 20.6 281.2 20.6 281.2 20.6 L 281.2 24 L 280.7 24 L 280.7 15.1 Z M 285.2 17.8 C 285.2 16.4 284.2 15.6 282.6 15.6 C 282.56 15.58 281.2 15.6 281.2 15.6 L 281.2 20.1 C 281.2 20.1 282.56 20.11 282.6 20.1 C 284.2 20.1 285.2 19.3 285.2 17.8 Z M 292.4 21 C 292.4 21 287.3 21 287.3 21 C 287.4 22.6 288.4 23.6 289.9 23.6 C 290.7 23.6 291.5 23.4 292.2 22.7 C 292.2 22.7 292.2 23.3 292.2 23.3 C 291.5 23.8 290.7 24.1 289.9 24.1 C 288.1 24.1 286.8 22.8 286.8 20.8 C 286.8 18.8 288.2 17.5 289.8 17.5 C 291.2 17.5 292.4 18.6 292.4 20.7 C 292.4 20.8 292.4 20.9 292.4 21 Z M 291.9 20.5 C 291.9 18.8 290.9 18 289.8 18 C 288.6 18 287.4 19 287.3 20.5 C 287.3 20.5 291.9 20.5 291.9 20.5 Z M 299 19.8 C 298.99 19.76 299 24 299 24 L 298.5 24 C 298.5 24 298.49 19.97 298.5 20 C 298.5 18.7 297.8 18 296.7 18 C 295.6 18 294.7 18.7 294.7 19.9 C 294.71 19.91 294.7 24 294.7 24 L 294.2 24 L 294.2 17.6 L 294.6 17.6 L 294.7 18.8 C 294.7 18.8 294.67 18.76 294.7 18.8 C 295 18 295.8 17.5 296.7 17.5 C 298.1 17.5 299 18.4 299 19.8 Z M 304.7 18.1 C 304.7 18.1 304.7 18.6 304.7 18.6 C 304.2 18.3 303.6 18 302.9 18 C 302 18 301.3 18.5 301.3 19.2 C 301.3 19.9 302 20.2 303 20.5 C 304 20.9 305.1 21.2 305.1 22.3 C 305.1 23.4 304.2 24.1 302.9 24.1 C 302.1 24.1 301.4 23.9 300.7 23.4 C 300.7 23.4 300.7 22.7 300.7 22.7 C 301.3 23.3 302.1 23.6 302.9 23.6 C 303.9 23.6 304.5 23.1 304.5 22.3 C 304.5 21.6 303.8 21.3 302.8 20.9 C 301.8 20.6 300.8 20.3 300.8 19.2 C 300.8 18.2 301.7 17.5 302.9 17.5 C 303.6 17.5 304.2 17.7 304.7 18.1 Z M 309.1 16.5 L 308.6 16.5 L 310 14.6 L 310.6 14.6 L 309.1 16.5 Z M 311.9 21 C 311.9 21 306.9 21 306.9 21 C 306.9 22.6 308 23.6 309.4 23.6 C 310.2 23.6 311 23.4 311.7 22.7 C 311.7 22.7 311.7 23.3 311.7 23.3 C 311 23.8 310.2 24.1 309.4 24.1 C 307.6 24.1 306.4 22.8 306.4 20.8 C 306.4 18.8 307.8 17.5 309.3 17.5 C 310.7 17.5 311.9 18.6 311.9 20.7 C 311.9 20.8 311.9 20.9 311.9 21 Z M 311.4 20.5 C 311.4 18.8 310.4 18 309.3 18 C 308.1 18 307 19 306.9 20.5 C 306.9 20.5 311.4 20.5 311.4 20.5 Z M 317.7 17.6 L 318.1 17.6 C 318.1 17.6 318.19 19.24 318.2 19.2 C 318.7 18.1 319.7 17.5 320.7 17.5 C 322.2 17.5 323.6 18.8 323.6 20.8 C 323.6 22.8 322.2 24.1 320.7 24.1 C 319.7 24.1 318.7 23.5 318.2 22.5 C 318.22 22.45 318.2 26.6 318.2 26.6 L 317.7 26.6 L 317.7 17.6 Z M 323.1 20.8 C 323.1 19.1 322 18 320.7 18 C 319.3 18 318.2 19.1 318.2 20.8 C 318.2 22.5 319.3 23.6 320.6 23.6 C 322 23.6 323.1 22.5 323.1 20.8 Z M 325 20.8 C 325 18.9 326.3 17.5 328 17.5 C 329.7 17.5 331.1 18.9 331.1 20.8 C 331.1 22.8 329.7 24.1 328 24.1 C 326.4 24.1 325 22.8 325 20.8 Z M 330.6 20.8 C 330.6 19 329.3 18 328 18 C 326.7 18 325.5 19 325.5 20.8 C 325.5 22.6 326.7 23.6 328 23.6 C 329.3 23.6 330.6 22.6 330.6 20.8 Z M 332.8 21.7 C 332.8 21.68 332.8 17.6 332.8 17.6 L 333.3 17.6 C 333.3 17.6 333.3 21.71 333.3 21.7 C 333.3 22.9 334 23.6 335.2 23.6 C 336.4 23.6 337.1 22.9 337.1 21.7 C 337.1 21.7 337.1 17.6 337.1 17.6 L 337.6 17.6 C 337.6 17.6 337.6 21.67 337.6 21.7 C 337.6 23.1 336.7 24.1 335.2 24.1 C 333.7 24.1 332.8 23.1 332.8 21.7 Z M 339.8 17.6 L 340.2 17.6 L 340.3 18.8 C 340.3 18.8 340.26 18.82 340.3 18.8 C 340.6 17.9 341.5 17.6 342.1 17.6 C 342.3 17.6 342.4 17.6 342.5 17.6 C 342.5 17.6 342.5 18.1 342.5 18.1 C 342.4 18.1 342.3 18.1 342.1 18.1 C 341.2 18.1 340.3 18.7 340.3 20 C 340.3 19.97 340.3 24 340.3 24 L 339.8 24 L 339.8 17.6 Z " stroke="none" fill="#000"/>
  </g>
  <g id="Polygon17729">
    <path d="M 8 9.6 L 7.5 9.6 L 1.9 1.5 L 1.9 1.5 L 1.9 9.6 L 1.4 9.6 L 1.4 0.7 L 2 0.7 L 7.5 8.7 L 7.5 8.7 L 7.5 0.7 L 8 0.7 L 8 9.6 Z M 10 6.4 C 10 4.5 11.4 3.1 13 3.1 C 14.7 3.1 16.1 4.5 16.1 6.4 C 16.1 8.4 14.7 9.7 13 9.7 C 11.4 9.7 10 8.4 10 6.4 Z M 15.6 6.4 C 15.6 4.6 14.3 3.6 13 3.6 C 11.7 3.6 10.5 4.6 10.5 6.4 C 10.5 8.2 11.7 9.2 13 9.2 C 14.3 9.2 15.6 8.2 15.6 6.4 Z M 17.8 7.3 C 17.82 7.28 17.8 3.2 17.8 3.2 L 18.3 3.2 C 18.3 3.2 18.32 7.31 18.3 7.3 C 18.3 8.5 19.1 9.2 20.2 9.2 C 21.4 9.2 22.1 8.5 22.1 7.3 C 22.12 7.3 22.1 3.2 22.1 3.2 L 22.6 3.2 C 22.6 3.2 22.62 7.27 22.6 7.3 C 22.6 8.7 21.7 9.7 20.2 9.7 C 18.7 9.7 17.8 8.7 17.8 7.3 Z M 28.4 3.7 C 28.4 3.7 28.4 4.2 28.4 4.2 C 27.9 3.9 27.3 3.6 26.5 3.6 C 25.6 3.6 25 4.1 25 4.8 C 25 5.5 25.6 5.8 26.7 6.1 C 27.7 6.5 28.7 6.8 28.7 7.9 C 28.7 9 27.8 9.7 26.5 9.7 C 25.8 9.7 25 9.5 24.4 9 C 24.4 9 24.4 8.3 24.4 8.3 C 24.9 8.9 25.7 9.2 26.5 9.2 C 27.5 9.2 28.2 8.7 28.2 7.9 C 28.2 7.2 27.5 6.9 26.4 6.5 C 25.4 6.2 24.5 5.9 24.5 4.8 C 24.5 3.8 25.3 3.1 26.6 3.1 C 27.2 3.1 27.9 3.3 28.4 3.7 Z M 33.8 3.2 L 34.3 3.2 L 36.4 9 L 36.5 9 L 38.6 3.2 L 39.1 3.2 L 36.7 9.6 L 36.2 9.6 L 33.8 3.2 Z M 40.5 0.9 C 40.5 0.7 40.7 0.5 40.9 0.5 C 41.1 0.5 41.3 0.7 41.3 0.9 C 41.3 1.1 41.1 1.3 40.9 1.3 C 40.7 1.3 40.5 1.1 40.5 0.9 Z M 40.6 3.2 L 41.1 3.2 L 41.1 9.6 L 40.6 9.6 L 40.6 3.2 Z M 47 3.7 C 47 3.7 47 4.2 47 4.2 C 46.5 3.9 45.9 3.6 45.2 3.6 C 44.2 3.6 43.6 4.1 43.6 4.8 C 43.6 5.5 44.3 5.8 45.3 6.1 C 46.3 6.5 47.3 6.8 47.3 7.9 C 47.3 9 46.5 9.7 45.2 9.7 C 44.4 9.7 43.6 9.5 43 9 C 43 9 43 8.3 43 8.3 C 43.6 8.9 44.3 9.2 45.2 9.2 C 46.2 9.2 46.8 8.7 46.8 7.9 C 46.8 7.2 46.1 6.9 45.1 6.5 C 44 6.2 43.1 5.9 43.1 4.8 C 43.1 3.8 44 3.1 45.2 3.1 C 45.9 3.1 46.5 3.3 47 3.7 Z M 48.6 6.4 C 48.6 4.5 50 3.1 51.7 3.1 C 53.3 3.1 54.7 4.5 54.7 6.4 C 54.7 8.4 53.3 9.7 51.7 9.7 C 50 9.7 48.6 8.4 48.6 6.4 Z M 54.2 6.4 C 54.2 4.6 53 3.6 51.7 3.6 C 50.4 3.6 49.1 4.6 49.1 6.4 C 49.1 8.2 50.4 9.2 51.7 9.2 C 53 9.2 54.2 8.2 54.2 6.4 Z M 61.3 5.4 C 61.31 5.36 61.3 9.6 61.3 9.6 L 60.8 9.6 C 60.8 9.6 60.81 5.57 60.8 5.6 C 60.8 4.3 60.2 3.6 59 3.6 C 57.9 3.6 57 4.3 57 5.5 C 57.03 5.51 57 9.6 57 9.6 L 56.5 9.6 L 56.5 3.2 L 56.9 3.2 L 57 4.4 C 57 4.4 56.99 4.36 57 4.4 C 57.3 3.6 58.1 3.1 59.1 3.1 C 60.4 3.1 61.3 4 61.3 5.4 Z M 67.1 3.7 C 67.1 3.7 67.1 4.2 67.1 4.2 C 66.6 3.9 65.9 3.6 65.2 3.6 C 64.3 3.6 63.7 4.1 63.7 4.8 C 63.7 5.5 64.3 5.8 65.3 6.1 C 66.4 6.5 67.4 6.8 67.4 7.9 C 67.4 9 66.5 9.7 65.2 9.7 C 64.5 9.7 63.7 9.5 63.1 9 C 63.1 9 63.1 8.3 63.1 8.3 C 63.6 8.9 64.4 9.2 65.2 9.2 C 66.2 9.2 66.9 8.7 66.9 7.9 C 66.9 7.2 66.2 6.9 65.1 6.5 C 64.1 6.2 63.2 5.9 63.2 4.8 C 63.2 3.8 64 3.1 65.3 3.1 C 65.9 3.1 66.6 3.3 67.1 3.7 Z M 73.1 6.4 C 73.1 4.4 74.5 3.1 76 3.1 C 77 3.1 78 3.7 78.5 4.8 C 78.47 4.82 78.5 3.2 78.5 3.2 L 78.9 3.2 L 78.9 9.6 L 78.5 9.6 C 78.5 9.6 78.47 8 78.5 8 C 78 9.2 77 9.7 76 9.7 C 74.5 9.7 73.1 8.4 73.1 6.4 Z M 78.5 6.4 C 78.5 4.7 77.3 3.6 76 3.6 C 74.7 3.6 73.6 4.7 73.6 6.4 C 73.6 8.1 74.7 9.2 76 9.2 C 77.3 9.2 78.5 8.1 78.5 6.4 Z M 80.5 3.2 L 81 3.2 L 83.1 9 L 83.1 9 L 85.2 3.2 L 85.7 3.2 L 83.4 9.6 L 82.8 9.6 L 80.5 3.2 Z M 92.2 6.6 C 92.2 6.6 87.1 6.6 87.1 6.6 C 87.2 8.2 88.3 9.2 89.7 9.2 C 90.5 9.2 91.3 9 92 8.3 C 92 8.3 92 8.9 92 8.9 C 91.3 9.4 90.5 9.7 89.7 9.7 C 87.9 9.7 86.6 8.4 86.6 6.4 C 86.6 4.4 88.1 3.1 89.6 3.1 C 91 3.1 92.2 4.2 92.2 6.3 C 92.2 6.4 92.2 6.5 92.2 6.6 Z M 91.7 6.1 C 91.7 4.4 90.7 3.6 89.6 3.6 C 88.4 3.6 87.3 4.6 87.2 6.1 C 87.2 6.1 91.7 6.1 91.7 6.1 Z M 96.6 9.2 C 97.2 9.2 97.8 9.1 98.4 8.7 C 98.4 8.7 98.4 9.3 98.4 9.3 C 97.9 9.6 97.3 9.7 96.6 9.7 C 94.9 9.7 93.6 8.3 93.6 6.4 C 93.6 4.5 94.9 3.1 96.6 3.1 C 97.2 3.1 97.8 3.2 98.4 3.6 C 98.4 3.6 98.4 4.1 98.4 4.1 C 97.8 3.7 97.2 3.6 96.6 3.6 C 95.3 3.6 94.1 4.7 94.1 6.4 C 94.1 8.1 95.3 9.2 96.6 9.2 Z M 107.2 9.2 C 107.7 9.2 108.3 9.1 108.9 8.7 C 108.9 8.7 108.9 9.3 108.9 9.3 C 108.4 9.6 107.8 9.7 107.2 9.7 C 105.4 9.7 104.1 8.3 104.1 6.4 C 104.1 4.5 105.4 3.1 107.1 3.1 C 107.7 3.1 108.3 3.2 108.9 3.6 C 108.9 3.6 108.9 4.1 108.9 4.1 C 108.3 3.7 107.7 3.6 107.1 3.6 C 105.8 3.6 104.6 4.7 104.6 6.4 C 104.6 8.1 105.8 9.2 107.2 9.2 Z M 115.6 6.6 C 115.6 6.6 110.6 6.6 110.6 6.6 C 110.6 8.2 111.7 9.2 113.1 9.2 C 113.9 9.2 114.7 9 115.4 8.3 C 115.4 8.3 115.4 8.9 115.4 8.9 C 114.7 9.4 113.9 9.7 113.1 9.7 C 111.3 9.7 110 8.4 110 6.4 C 110 4.4 111.5 3.1 113 3.1 C 114.4 3.1 115.6 4.2 115.6 6.3 C 115.6 6.4 115.6 6.5 115.6 6.6 Z M 115.1 6.1 C 115.1 4.4 114.1 3.6 113 3.6 C 111.8 3.6 110.7 4.6 110.6 6.1 C 110.6 6.1 115.1 6.1 115.1 6.1 Z M 121.8 3.2 L 122.2 3.2 C 122.2 3.2 122.28 4.84 122.3 4.8 C 122.8 3.7 123.8 3.1 124.8 3.1 C 126.3 3.1 127.7 4.4 127.7 6.4 C 127.7 8.4 126.3 9.7 124.8 9.7 C 123.8 9.7 122.8 9.1 122.3 8.1 C 122.32 8.05 122.3 12.2 122.3 12.2 L 121.8 12.2 L 121.8 3.2 Z M 127.2 6.4 C 127.2 4.7 126.1 3.6 124.8 3.6 C 123.4 3.6 122.3 4.7 122.3 6.4 C 122.3 8.1 123.4 9.2 124.7 9.2 C 126.1 9.2 127.2 8.1 127.2 6.4 Z M 129.5 3.2 L 129.9 3.2 L 130 4.4 C 130 4.4 130 4.42 130 4.4 C 130.4 3.5 131.2 3.2 131.9 3.2 C 132 3.2 132.2 3.2 132.3 3.2 C 132.3 3.2 132.3 3.7 132.3 3.7 C 132.2 3.7 132 3.7 131.9 3.7 C 131 3.7 130 4.3 130 5.6 C 130.03 5.57 130 9.6 130 9.6 L 129.5 9.6 L 129.5 3.2 Z M 132.8 6.4 C 132.8 4.5 134.2 3.1 135.9 3.1 C 137.5 3.1 138.9 4.5 138.9 6.4 C 138.9 8.4 137.5 9.7 135.9 9.7 C 134.2 9.7 132.8 8.4 132.8 6.4 Z M 138.4 6.4 C 138.4 4.6 137.2 3.6 135.9 3.6 C 134.6 3.6 133.3 4.6 133.3 6.4 C 133.3 8.2 134.6 9.2 135.9 9.2 C 137.2 9.2 138.4 8.2 138.4 6.4 Z M 140.6 0.9 C 140.6 0.7 140.8 0.5 141 0.5 C 141.3 0.5 141.4 0.7 141.4 0.9 C 141.4 1.1 141.3 1.3 141 1.3 C 140.8 1.3 140.6 1.1 140.6 0.9 Z M 140.8 8.9 C 140.79 8.92 140.8 3.2 140.8 3.2 L 141.3 3.2 C 141.3 3.2 141.29 8.93 141.3 8.9 C 141.3 10.4 141 11.3 140.3 12.2 C 140.3 12.2 139.7 12.2 139.7 12.2 C 140.4 11.4 140.8 10.4 140.8 8.9 Z M 148.7 6.6 C 148.7 6.6 143.7 6.6 143.7 6.6 C 143.8 8.2 144.8 9.2 146.2 9.2 C 147 9.2 147.8 9 148.5 8.3 C 148.5 8.3 148.5 8.9 148.5 8.9 C 147.8 9.4 147 9.7 146.2 9.7 C 144.4 9.7 143.2 8.4 143.2 6.4 C 143.2 4.4 144.6 3.1 146.1 3.1 C 147.5 3.1 148.7 4.2 148.7 6.3 C 148.7 6.4 148.7 6.5 148.7 6.6 Z M 148.2 6.1 C 148.2 4.4 147.2 3.6 146.1 3.6 C 144.9 3.6 143.8 4.6 143.7 6.1 C 143.7 6.1 148.2 6.1 148.2 6.1 Z M 151.2 3.2 L 153.1 3.2 L 153.1 3.7 L 151.2 3.7 C 151.2 3.7 151.17 7.6 151.2 7.6 C 151.2 8.8 151.8 9.2 152.7 9.2 C 152.9 9.2 153.1 9.2 153.2 9.2 C 153.2 9.2 153.2 9.6 153.2 9.6 C 153.2 9.6 152.9 9.7 152.6 9.7 C 151.5 9.7 150.7 9 150.7 7.6 C 150.66 7.62 150.7 3.7 150.7 3.7 L 149.7 3.7 L 149.7 3.2 L 150.7 3.2 L 150.7 1.7 L 151.2 1.7 L 151.2 3.2 Z M 158.8 7.3 C 158.83 7.28 158.8 3.2 158.8 3.2 L 159.3 3.2 C 159.3 3.2 159.33 7.31 159.3 7.3 C 159.3 8.5 160.1 9.2 161.2 9.2 C 162.4 9.2 163.1 8.5 163.1 7.3 C 163.13 7.3 163.1 3.2 163.1 3.2 L 163.6 3.2 C 163.6 3.2 163.63 7.27 163.6 7.3 C 163.6 8.7 162.7 9.7 161.2 9.7 C 159.7 9.7 158.8 8.7 158.8 7.3 Z M 170.6 5.4 C 170.61 5.36 170.6 9.6 170.6 9.6 L 170.1 9.6 C 170.1 9.6 170.11 5.57 170.1 5.6 C 170.1 4.3 169.5 3.6 168.3 3.6 C 167.2 3.6 166.3 4.3 166.3 5.5 C 166.33 5.51 166.3 9.6 166.3 9.6 L 165.8 9.6 L 165.8 3.2 L 166.2 3.2 L 166.3 4.4 C 166.3 4.4 166.29 4.36 166.3 4.4 C 166.6 3.6 167.4 3.1 168.4 3.1 C 169.7 3.1 170.6 4 170.6 5.4 Z M 177.9 6.6 C 177.9 6.6 172.9 6.6 172.9 6.6 C 173 8.2 174 9.2 175.4 9.2 C 176.2 9.2 177 9 177.7 8.3 C 177.7 8.3 177.7 8.9 177.7 8.9 C 177 9.4 176.2 9.7 175.4 9.7 C 173.6 9.7 172.4 8.4 172.4 6.4 C 172.4 4.4 173.8 3.1 175.3 3.1 C 176.7 3.1 177.9 4.2 177.9 6.3 C 177.9 6.4 177.9 6.5 177.9 6.6 Z M 177.4 6.1 C 177.4 4.4 176.4 3.6 175.3 3.6 C 174.1 3.6 173 4.6 172.9 6.1 C 172.9 6.1 177.4 6.1 177.4 6.1 Z M 188.9 5.4 C 188.92 5.36 188.9 9.6 188.9 9.6 L 188.4 9.6 C 188.4 9.6 188.42 5.57 188.4 5.6 C 188.4 4.3 187.8 3.6 186.6 3.6 C 185.5 3.6 184.6 4.3 184.6 5.5 C 184.64 5.51 184.6 9.6 184.6 9.6 L 184.1 9.6 L 184.1 3.2 L 184.5 3.2 L 184.6 4.4 C 184.6 4.4 184.6 4.36 184.6 4.4 C 184.9 3.6 185.7 3.1 186.7 3.1 C 188 3.1 188.9 4 188.9 5.4 Z M 190.7 6.4 C 190.7 4.5 192 3.1 193.7 3.1 C 195.4 3.1 196.7 4.5 196.7 6.4 C 196.7 8.4 195.4 9.7 193.7 9.7 C 192 9.7 190.7 8.4 190.7 6.4 Z M 196.2 6.4 C 196.2 4.6 195 3.6 193.7 3.6 C 192.4 3.6 191.2 4.6 191.2 6.4 C 191.2 8.2 192.4 9.2 193.7 9.2 C 195 9.2 196.2 8.2 196.2 6.4 Z M 198.5 7.3 C 198.49 7.28 198.5 3.2 198.5 3.2 L 199 3.2 C 199 3.2 198.99 7.31 199 7.3 C 199 8.5 199.7 9.2 200.9 9.2 C 202 9.2 202.8 8.5 202.8 7.3 C 202.78 7.3 202.8 3.2 202.8 3.2 L 203.3 3.2 C 203.3 3.2 203.28 7.27 203.3 7.3 C 203.3 8.7 202.3 9.7 200.9 9.7 C 199.4 9.7 198.5 8.7 198.5 7.3 Z M 204.7 3.2 L 205.3 3.2 L 207.4 9 L 207.4 9 L 209.5 3.2 L 210 3.2 L 207.7 9.6 L 207.1 9.6 L 204.7 3.2 Z M 216.5 6.6 C 216.5 6.6 211.4 6.6 211.4 6.6 C 211.5 8.2 212.5 9.2 214 9.2 C 214.7 9.2 215.5 9 216.2 8.3 C 216.2 8.3 216.2 8.9 216.2 8.9 C 215.6 9.4 214.8 9.7 213.9 9.7 C 212.2 9.7 210.9 8.4 210.9 6.4 C 210.9 4.4 212.3 3.1 213.9 3.1 C 215.3 3.1 216.5 4.2 216.5 6.3 C 216.5 6.4 216.5 6.5 216.5 6.6 Z M 216 6.1 C 216 4.4 214.9 3.6 213.9 3.6 C 212.6 3.6 211.5 4.6 211.4 6.1 C 211.4 6.1 216 6.1 216 6.1 Z M 218.3 0.1 L 218.8 0.1 L 218.8 9.6 L 218.3 9.6 L 218.3 0.1 Z M 221.2 0.1 L 221.7 0.1 L 221.7 9.6 L 221.2 9.6 L 221.2 0.1 Z M 229.1 6.6 C 229.1 6.6 224.1 6.6 224.1 6.6 C 224.1 8.2 225.2 9.2 226.6 9.2 C 227.4 9.2 228.2 9 228.9 8.3 C 228.9 8.3 228.9 8.9 228.9 8.9 C 228.2 9.4 227.4 9.7 226.6 9.7 C 224.8 9.7 223.6 8.4 223.6 6.4 C 223.6 4.4 225 3.1 226.5 3.1 C 227.9 3.1 229.1 4.2 229.1 6.3 C 229.1 6.4 229.1 6.5 229.1 6.6 Z M 228.6 6.1 C 228.6 4.4 227.6 3.6 226.5 3.6 C 225.3 3.6 224.2 4.6 224.1 6.1 C 224.1 6.1 228.6 6.1 228.6 6.1 Z M 240.2 4.8 C 240.24 4.76 240.3 3.2 240.3 3.2 L 240.7 3.2 C 240.7 3.2 240.71 9.4 240.7 9.4 C 240.7 11.4 239.3 12.3 237.9 12.3 C 237.1 12.3 236.2 12 235.5 11.5 C 235.5 11.5 235.5 10.9 235.5 10.9 C 236.2 11.5 237 11.8 237.9 11.8 C 239.1 11.8 240.2 11.1 240.2 9.5 C 240.2 9.5 240.2 7.9 240.2 7.9 C 239.7 9 238.8 9.5 237.8 9.5 C 236.3 9.5 234.9 8.3 234.9 6.3 C 234.9 4.4 236.3 3.1 237.8 3.1 C 238.8 3.1 239.8 3.7 240.2 4.8 Z M 235.4 6.3 C 235.4 8 236.5 9 237.8 9 C 239.1 9 240.2 7.9 240.2 6.3 C 240.2 4.7 239.1 3.6 237.8 3.6 C 236.5 3.6 235.4 4.7 235.4 6.3 Z M 245.3 2.1 L 244.8 2.1 L 246.2 0.2 L 246.8 0.2 L 245.3 2.1 Z M 248.1 6.6 C 248.1 6.6 243 6.6 243 6.6 C 243.1 8.2 244.2 9.2 245.6 9.2 C 246.4 9.2 247.2 9 247.9 8.3 C 247.9 8.3 247.9 8.9 247.9 8.9 C 247.2 9.4 246.4 9.7 245.6 9.7 C 243.8 9.7 242.5 8.4 242.5 6.4 C 242.5 4.4 244 3.1 245.5 3.1 C 246.9 3.1 248.1 4.2 248.1 6.3 C 248.1 6.4 248.1 6.5 248.1 6.6 Z M 247.6 6.1 C 247.6 4.4 246.6 3.6 245.5 3.6 C 244.3 3.6 243.2 4.6 243.1 6.1 C 243.1 6.1 247.6 6.1 247.6 6.1 Z M 254.7 5.4 C 254.71 5.36 254.7 9.6 254.7 9.6 L 254.2 9.6 C 254.2 9.6 254.21 5.57 254.2 5.6 C 254.2 4.3 253.5 3.6 252.4 3.6 C 251.3 3.6 250.4 4.3 250.4 5.5 C 250.43 5.51 250.4 9.6 250.4 9.6 L 249.9 9.6 L 249.9 3.2 L 250.3 3.2 L 250.4 4.4 C 250.4 4.4 250.39 4.36 250.4 4.4 C 250.7 3.6 251.5 3.1 252.5 3.1 C 253.8 3.1 254.7 4 254.7 5.4 Z M 259.2 2.1 L 258.7 2.1 L 260.1 0.2 L 260.7 0.2 L 259.2 2.1 Z M 262 6.6 C 262 6.6 257 6.6 257 6.6 C 257.1 8.2 258.1 9.2 259.5 9.2 C 260.3 9.2 261.1 9 261.8 8.3 C 261.8 8.3 261.8 8.9 261.8 8.9 C 261.1 9.4 260.3 9.7 259.5 9.7 C 257.7 9.7 256.5 8.4 256.5 6.4 C 256.5 4.4 257.9 3.1 259.4 3.1 C 260.8 3.1 262 4.2 262 6.3 C 262 6.4 262 6.5 262 6.6 Z M 261.5 6.1 C 261.5 4.4 260.5 3.6 259.4 3.6 C 258.2 3.6 257.1 4.6 257 6.1 C 257 6.1 261.5 6.1 261.5 6.1 Z M 263.8 3.2 L 264.3 3.2 L 264.3 4.4 C 264.3 4.4 264.31 4.42 264.3 4.4 C 264.7 3.5 265.5 3.2 266.2 3.2 C 266.3 3.2 266.5 3.2 266.6 3.2 C 266.6 3.2 266.6 3.7 266.6 3.7 C 266.5 3.7 266.3 3.7 266.2 3.7 C 265.3 3.7 264.4 4.3 264.3 5.6 C 264.35 5.57 264.3 9.6 264.3 9.6 L 263.8 9.6 L 263.8 3.2 Z M 267.1 6.4 C 267.1 4.4 268.5 3.1 270 3.1 C 271.1 3.1 272.1 3.7 272.6 4.8 C 272.56 4.82 272.6 3.2 272.6 3.2 L 273 3.2 L 273 9.6 L 272.6 9.6 C 272.6 9.6 272.56 8 272.6 8 C 272.1 9.2 271.1 9.7 270.1 9.7 C 268.5 9.7 267.1 8.4 267.1 6.4 Z M 272.5 6.4 C 272.5 4.7 271.4 3.6 270.1 3.6 C 268.8 3.6 267.6 4.7 267.6 6.4 C 267.6 8.1 268.8 9.2 270.1 9.2 C 271.4 9.2 272.5 8.1 272.5 6.4 Z M 276 3.2 L 277.9 3.2 L 277.9 3.7 L 276 3.7 C 276 3.7 275.99 7.6 276 7.6 C 276 8.8 276.6 9.2 277.5 9.2 C 277.7 9.2 277.9 9.2 278.1 9.2 C 278.1 9.2 278.1 9.6 278.1 9.6 C 278 9.6 277.7 9.7 277.5 9.7 C 276.3 9.7 275.5 9 275.5 7.6 C 275.48 7.62 275.5 3.7 275.5 3.7 L 274.5 3.7 L 274.5 3.2 L 275.5 3.2 L 275.5 1.7 L 276 1.7 L 276 3.2 Z M 279.3 0.9 C 279.3 0.7 279.5 0.5 279.7 0.5 C 279.9 0.5 280.1 0.7 280.1 0.9 C 280.1 1.1 279.9 1.3 279.7 1.3 C 279.5 1.3 279.3 1.1 279.3 0.9 Z M 279.5 3.2 L 280 3.2 L 280 9.6 L 279.5 9.6 L 279.5 3.2 Z M 281.8 6.4 C 281.8 4.5 283.2 3.1 284.9 3.1 C 286.5 3.1 287.9 4.5 287.9 6.4 C 287.9 8.4 286.5 9.7 284.9 9.7 C 283.2 9.7 281.8 8.4 281.8 6.4 Z M 287.4 6.4 C 287.4 4.6 286.2 3.6 284.9 3.6 C 283.6 3.6 282.3 4.6 282.3 6.4 C 282.3 8.2 283.6 9.2 284.9 9.2 C 286.2 9.2 287.4 8.2 287.4 6.4 Z M 294.5 5.4 C 294.51 5.36 294.5 9.6 294.5 9.6 L 294 9.6 C 294 9.6 294.01 5.57 294 5.6 C 294 4.3 293.4 3.6 292.2 3.6 C 291.1 3.6 290.2 4.3 290.2 5.5 C 290.23 5.51 290.2 9.6 290.2 9.6 L 289.7 9.6 L 289.7 3.2 L 290.1 3.2 L 290.2 4.4 C 290.2 4.4 290.19 4.36 290.2 4.4 C 290.5 3.6 291.3 3.1 292.3 3.1 C 293.6 3.1 294.5 4 294.5 5.4 Z M 300.7 6.4 C 300.7 4.4 302 3.1 303.6 3.1 C 304.6 3.1 305.6 3.7 306 4.8 C 306.03 4.78 306 0.1 306 0.1 L 306.5 0.1 L 306.5 9.6 L 306.1 9.6 L 306.1 8 C 306.1 8 306.05 7.99 306.1 8 C 305.6 9.2 304.6 9.7 303.6 9.7 C 302.1 9.7 300.7 8.4 300.7 6.4 Z M 306.1 6.4 C 306.1 4.7 304.9 3.6 303.6 3.6 C 302.3 3.6 301.2 4.7 301.2 6.4 C 301.2 8.1 302.3 9.2 303.6 9.2 C 304.9 9.2 306.1 8.1 306.1 6.4 Z M 309 1.1 C 309.01 1.13 309 0.7 309 0.7 L 309.5 0.7 C 309.5 0.7 309.51 1.12 309.5 1.1 C 309.5 2.1 309.1 3.1 308.9 3.7 C 308.9 3.7 308.5 3.7 308.5 3.7 C 308.7 3.1 309 2.1 309 1.1 Z M 310.6 6.4 C 310.6 4.4 312 3.1 313.5 3.1 C 314.5 3.1 315.5 3.7 316 4.8 C 316 4.82 316.1 3.2 316.1 3.2 L 316.5 3.2 L 316.5 9.6 L 316.1 9.6 C 316.1 9.6 316 8 316 8 C 315.5 9.2 314.5 9.7 313.5 9.7 C 312 9.7 310.6 8.4 310.6 6.4 Z M 316 6.4 C 316 4.7 314.9 3.6 313.5 3.6 C 312.2 3.6 311.1 4.7 311.1 6.4 C 311.1 8.1 312.2 9.2 313.6 9.2 C 314.9 9.2 316 8.1 316 6.4 Z M 321.4 9.2 C 321.9 9.2 322.5 9.1 323.1 8.7 C 323.1 8.7 323.1 9.3 323.1 9.3 C 322.6 9.6 322 9.7 321.4 9.7 C 319.6 9.7 318.3 8.3 318.3 6.4 C 318.3 4.5 319.6 3.1 321.4 3.1 C 322 3.1 322.6 3.2 323.1 3.6 C 323.1 3.6 323.1 4.1 323.1 4.1 C 322.5 3.7 322 3.6 321.4 3.6 C 320 3.6 318.8 4.7 318.8 6.4 C 318.8 8.1 320 9.2 321.4 9.2 Z M 325.4 4.2 C 325.4 4.2 325.38 4.24 325.4 4.2 C 325.7 3.5 326.5 3.1 327.4 3.1 C 328.8 3.1 329.7 3.9 329.7 5.4 C 329.66 5.38 329.7 9.6 329.7 9.6 L 329.2 9.6 C 329.2 9.6 329.15 5.56 329.2 5.6 C 329.2 4.3 328.5 3.6 327.4 3.6 C 326.3 3.6 325.4 4.2 325.4 5.4 C 325.37 5.45 325.4 9.6 325.4 9.6 L 324.9 9.6 L 324.9 0.1 L 325.4 0.1 L 325.4 4.2 Z M 337 6.6 C 337 6.6 331.9 6.6 331.9 6.6 C 332 8.2 333 9.2 334.5 9.2 C 335.2 9.2 336.1 9 336.7 8.3 C 336.7 8.3 336.7 8.9 336.7 8.9 C 336.1 9.4 335.3 9.7 334.5 9.7 C 332.7 9.7 331.4 8.4 331.4 6.4 C 331.4 4.4 332.8 3.1 334.4 3.1 C 335.8 3.1 337 4.2 337 6.3 C 337 6.4 337 6.5 337 6.6 Z M 336.5 6.1 C 336.5 4.4 335.5 3.6 334.4 3.6 C 333.2 3.6 332 4.6 331.9 6.1 C 331.9 6.1 336.5 6.1 336.5 6.1 Z M 338.6 5.7 L 341.5 5.7 L 341.5 6.2 L 338.6 6.2 L 338.6 5.7 Z " stroke="none" fill="#000"/>
  </g>
</svg>