<?xml version="1.0" standalone="no"?>
<!DOCTYPE svg PUBLIC "-//W3C//DTD SVG 1.1//EN" "http://www.w3.org/Graphics/SVG/1.1/DTD/svg11.dtd">
<svg xmlns="http://www.w3.org/2000/svg" version="1.1" width="27px" height="14.5px" viewBox="0 0 27 14.5">
  <desc>20 22</desc>
  <defs/>
  <g id="Polygon31339">
    <path d="M 3.1 2.1 C 3.1 1.5 2.7 1 2 1 C 1.4 1 0.9 1.3 0.6 1.7 C 0.6 1.7 0.6 0.9 0.6 0.9 C 0.9 0.6 1.5 0.3 2.1 0.3 C 3.2 0.3 3.9 1.1 3.9 2.1 C 3.9 3 3.1 3.9 1.7 5.5 C 1.67 5.47 4.1 5.5 4.1 5.5 L 4.1 6.1 C 4.1 6.1 0.28 6.14 0.3 6.1 C 2.8 3.3 3.1 2.8 3.1 2.1 Z M 9.3 3.3 C 9.3 5.1 8.3 6.3 7.1 6.3 C 5.9 6.3 5 5.1 5 3.3 C 5 1.4 5.9 0.3 7.1 0.3 C 8.3 0.3 9.3 1.4 9.3 3.3 Z M 5.7 3.3 C 5.7 4.8 6.3 5.6 7.1 5.6 C 7.9 5.6 8.5 4.7 8.5 3.3 C 8.5 1.8 7.9 1 7.1 1 C 6.3 1 5.7 1.8 5.7 3.3 Z M 12.4 -0.6 L 13.1 -0.6 L 10.5 7.2 L 9.8 7.2 L 12.4 -0.6 Z M 16.5 2.1 C 16.5 1.5 16.1 1 15.4 1 C 14.8 1 14.2 1.3 13.9 1.7 C 13.9 1.7 13.9 0.9 13.9 0.9 C 14.2 0.6 14.8 0.3 15.4 0.3 C 16.6 0.3 17.2 1.1 17.2 2.1 C 17.2 3 16.5 3.9 15 5.5 C 15.04 5.47 17.4 5.5 17.4 5.5 L 17.4 6.1 C 17.4 6.1 13.65 6.14 13.6 6.1 C 16.2 3.3 16.5 2.8 16.5 2.1 Z M 21 2.1 C 21 1.5 20.6 1 19.9 1 C 19.3 1 18.7 1.3 18.4 1.7 C 18.4 1.7 18.4 0.9 18.4 0.9 C 18.7 0.6 19.3 0.3 19.9 0.3 C 21.1 0.3 21.7 1.1 21.7 2.1 C 21.7 3 21 3.9 19.5 5.5 C 19.54 5.47 21.9 5.5 21.9 5.5 L 21.9 6.1 C 21.9 6.1 18.15 6.14 18.1 6.1 C 20.7 3.3 21 2.8 21 2.1 Z " stroke="none" fill="#000"/>
  </g>
</svg>