<?xml version="1.0" standalone="no"?>
<!DOCTYPE svg PUBLIC "-//W3C//DTD SVG 1.1//EN" "http://www.w3.org/Graphics/SVG/1.1/DTD/svg11.dtd">
<svg xmlns="http://www.w3.org/2000/svg" version="1.1" width="286.3px" height="506.4px" viewBox="0 0 286.3 506.4">
  <desc>En partenariat avec l b nisterie Talec Brest, nous devions penser un luminaire qui valorise le travail du bois Da</desc>
  <defs/>
  <g id="Polygon30996">
    <path d="M 4.5 108.8 C 4.5 109.7 3.8 110.4 2.6 110.4 C 2.55 110.4 0.9 110.4 0.9 110.4 L 0.9 104.5 C 0.9 104.5 2.46 104.46 2.5 104.5 C 3.6 104.5 4.3 105.1 4.3 106 C 4.3 106.7 3.9 107.2 3.3 107.3 C 4.1 107.5 4.5 108.1 4.5 108.8 Z M 1.3 107.2 C 1.3 107.2 2.51 107.19 2.5 107.2 C 3.5 107.2 3.9 106.6 3.9 106 C 3.9 105.2 3.4 104.8 2.5 104.8 C 2.52 104.78 1.3 104.8 1.3 104.8 L 1.3 107.2 Z M 4.2 108.8 C 4.2 108 3.6 107.5 2.6 107.5 C 2.59 107.52 1.3 107.5 1.3 107.5 L 1.3 110.1 C 1.3 110.1 2.56 110.08 2.6 110.1 C 3.6 110.1 4.2 109.5 4.2 108.8 Z M 7 104.8 L 5 104.8 L 5 104.5 L 9.3 104.5 L 9.3 104.8 L 7.4 104.8 L 7.4 110.4 L 7 110.4 L 7 104.8 Z M 13.2 104.8 C 13.2 104.8 13.2 105.2 13.2 105.2 C 12.8 104.8 12.2 104.7 11.8 104.7 C 11.1 104.7 10.5 105.1 10.5 105.8 C 10.5 106.5 11 106.8 11.9 107.2 C 12.7 107.6 13.4 108 13.4 108.9 C 13.4 109.9 12.6 110.5 11.6 110.5 C 11 110.5 10.4 110.2 10 109.9 C 10 109.9 10 109.5 10 109.5 C 10.4 109.9 11 110.2 11.6 110.2 C 12.4 110.2 13.1 109.7 13.1 108.9 C 13.1 108.2 12.5 107.9 11.7 107.5 C 10.8 107.1 10.1 106.7 10.1 105.8 C 10.1 104.9 10.9 104.4 11.8 104.4 C 12.3 104.4 12.8 104.5 13.2 104.8 Z M 16.8 110.1 C 16.8 109.9 16.9 109.8 17.1 109.8 C 17.3 109.8 17.4 109.9 17.4 110.1 C 17.4 110.3 17.3 110.4 17.1 110.4 C 16.9 110.4 16.8 110.3 16.8 110.1 Z M 22.3 104.9 L 20.7 105.6 L 20.7 105.3 L 22.5 104.4 L 22.6 104.4 L 22.6 110.4 L 22.3 110.4 L 22.3 104.9 Z M 26.4 105.4 L 25.4 104.1 L 25.8 104.1 L 26.8 105.4 L 26.4 105.4 Z M 28 108.4 C 28 108.4 24.7 108.4 24.7 108.4 C 24.7 109.5 25.4 110.2 26.4 110.2 C 26.9 110.2 27.4 110 27.9 109.5 C 27.9 109.5 27.9 109.9 27.9 109.9 C 27.4 110.3 26.9 110.5 26.4 110.5 C 25.2 110.5 24.3 109.6 24.3 108.3 C 24.3 106.9 25.3 106.1 26.3 106.1 C 27.2 106.1 28.1 106.8 28.1 108.2 C 28.1 108.3 28 108.3 28 108.4 Z M 27.7 108.1 C 27.7 106.9 27 106.4 26.3 106.4 C 25.5 106.4 24.8 107 24.7 108.1 C 24.7 108.1 27.7 108.1 27.7 108.1 Z M 29.3 106.2 L 29.5 106.2 L 29.6 106.9 C 29.6 106.9 29.57 106.94 29.6 106.9 C 29.8 106.4 30.4 106.1 30.8 106.1 C 30.9 106.1 31 106.1 31.1 106.1 C 31.1 106.1 31.1 106.5 31.1 106.5 C 31 106.4 30.9 106.4 30.8 106.4 C 30.2 106.4 29.6 106.9 29.6 107.7 C 29.59 107.71 29.6 110.4 29.6 110.4 L 29.3 110.4 L 29.3 106.2 Z M 35.2 108.4 C 35.2 108.4 31.8 108.4 31.8 108.4 C 31.9 109.5 32.5 110.2 33.5 110.2 C 34 110.2 34.6 110 35 109.5 C 35 109.5 35 109.9 35 109.9 C 34.6 110.3 34 110.5 33.5 110.5 C 32.3 110.5 31.5 109.6 31.5 108.3 C 31.5 106.9 32.4 106.1 33.4 106.1 C 34.4 106.1 35.2 106.8 35.2 108.2 C 35.2 108.3 35.2 108.3 35.2 108.4 Z M 34.8 108.1 C 34.8 106.9 34.2 106.4 33.4 106.4 C 32.6 106.4 31.9 107 31.8 108.1 C 31.8 108.1 34.8 108.1 34.8 108.1 Z M 38.4 108.3 C 38.4 106.9 39.3 106.1 40.3 106.1 C 41 106.1 41.7 106.5 42 107.2 C 42 107.22 42 106.2 42 106.2 L 42.3 106.2 L 42.3 110.4 L 42 110.4 C 42 110.4 42 109.34 42 109.3 C 41.7 110.1 41 110.5 40.3 110.5 C 39.3 110.5 38.4 109.6 38.4 108.3 Z M 42 108.3 C 42 107.1 41.2 106.4 40.4 106.4 C 39.5 106.4 38.7 107.1 38.7 108.3 C 38.7 109.4 39.5 110.2 40.4 110.2 C 41.2 110.2 42 109.4 42 108.3 Z M 47 107.6 C 47.02 107.58 47 110.4 47 110.4 L 46.7 110.4 C 46.7 110.4 46.69 107.71 46.7 107.7 C 46.7 106.9 46.2 106.4 45.5 106.4 C 44.8 106.4 44.2 106.9 44.2 107.7 C 44.17 107.67 44.2 110.4 44.2 110.4 L 43.8 110.4 L 43.8 106.2 L 44.1 106.2 L 44.1 106.9 C 44.1 106.9 44.14 106.9 44.1 106.9 C 44.4 106.4 44.9 106.1 45.5 106.1 C 46.4 106.1 47 106.7 47 107.6 Z M 51.7 107.6 C 51.68 107.58 51.7 110.4 51.7 110.4 L 51.3 110.4 C 51.3 110.4 51.34 107.71 51.3 107.7 C 51.3 106.9 50.9 106.4 50.1 106.4 C 49.4 106.4 48.8 106.9 48.8 107.7 C 48.82 107.67 48.8 110.4 48.8 110.4 L 48.5 110.4 L 48.5 106.2 L 48.8 106.2 L 48.8 106.9 C 48.8 106.9 48.8 106.9 48.8 106.9 C 49 106.4 49.5 106.1 50.2 106.1 C 51.1 106.1 51.7 106.7 51.7 107.6 Z M 54.7 105.4 L 54.3 105.4 L 55.3 104.1 L 55.7 104.1 L 54.7 105.4 Z M 56.6 108.4 C 56.6 108.4 53.2 108.4 53.2 108.4 C 53.2 109.5 53.9 110.2 54.9 110.2 C 55.4 110.2 55.9 110 56.4 109.5 C 56.4 109.5 56.4 109.9 56.4 109.9 C 56 110.3 55.4 110.5 54.9 110.5 C 53.7 110.5 52.8 109.6 52.8 108.3 C 52.8 106.9 53.8 106.1 54.8 106.1 C 55.8 106.1 56.6 106.8 56.6 108.2 C 56.6 108.3 56.6 108.3 56.6 108.4 Z M 56.2 108.1 C 56.2 106.9 55.5 106.4 54.8 106.4 C 54 106.4 53.3 107 53.2 108.1 C 53.2 108.1 56.2 108.1 56.2 108.1 Z M 61.2 108.4 C 61.2 108.4 57.8 108.4 57.8 108.4 C 57.9 109.5 58.6 110.2 59.5 110.2 C 60 110.2 60.6 110 61 109.5 C 61 109.5 61 109.9 61 109.9 C 60.6 110.3 60 110.5 59.5 110.5 C 58.3 110.5 57.5 109.6 57.5 108.3 C 57.5 106.9 58.4 106.1 59.4 106.1 C 60.4 106.1 61.2 106.8 61.2 108.2 C 61.2 108.3 61.2 108.3 61.2 108.4 Z M 60.9 108.1 C 60.8 106.9 60.2 106.4 59.4 106.4 C 58.6 106.4 57.9 107 57.8 108.1 C 57.8 108.1 60.9 108.1 60.9 108.1 Z M 64.5 110.1 C 64.5 109.9 64.7 109.8 64.9 109.8 C 65.1 109.8 65.2 109.9 65.2 110.1 C 65.2 110.3 65.1 110.4 64.9 110.4 C 64.7 110.4 64.5 110.3 64.5 110.1 Z M 71.6 106 C 71.6 105.4 71.1 104.7 70.2 104.7 C 69.6 104.7 69 105 68.7 105.4 C 68.7 105.4 68.7 105 68.7 105 C 69 104.6 69.6 104.4 70.2 104.4 C 71.3 104.4 71.9 105.2 71.9 106 C 71.9 107 71.2 107.9 69.2 110.1 C 69.17 110.06 72.1 110.1 72.1 110.1 L 72.1 110.4 C 72.1 110.4 68.45 110.4 68.4 110.4 C 71.2 107.4 71.6 106.8 71.6 106 Z M 77.3 107.4 C 77.3 109.4 76.3 110.5 75.2 110.5 C 74.1 110.5 73.1 109.4 73.1 107.4 C 73.1 105.5 74.1 104.4 75.2 104.4 C 76.3 104.4 77.3 105.5 77.3 107.4 Z M 73.5 107.4 C 73.5 109.2 74.2 110.2 75.2 110.2 C 76.1 110.2 76.9 109.2 76.9 107.4 C 76.9 105.7 76.1 104.7 75.2 104.7 C 74.2 104.7 73.5 105.7 73.5 107.4 Z M 79.7 104.9 L 78.1 105.6 L 78.1 105.3 L 79.9 104.4 L 80 104.4 L 80 110.4 L 79.7 110.4 L 79.7 104.9 Z M 84.8 104.8 L 81.7 104.8 L 81.7 104.5 L 85.3 104.5 L 82.2 110.4 L 81.8 110.4 L 84.8 104.8 Z " stroke="none" fill="#000"/>
  </g>
  <g id="Polygon30995">
    <path d="M 1.1 75.2 L 1.5 75.2 C 1.5 75.2 1.61 76.84 1.6 76.8 C 2.1 75.7 3.1 75.1 4.1 75.1 C 5.6 75.1 7 76.4 7 78.4 C 7 80.4 5.6 81.7 4.1 81.7 C 3.1 81.7 2.1 81.1 1.6 80.1 C 1.64 80.05 1.6 84.2 1.6 84.2 L 1.1 84.2 L 1.1 75.2 Z M 6.5 78.4 C 6.5 76.7 5.4 75.6 4.1 75.6 C 2.7 75.6 1.6 76.7 1.6 78.4 C 1.6 80.1 2.8 81.2 4.1 81.2 C 5.4 81.2 6.5 80.1 6.5 78.4 Z M 8.4 78.4 C 8.4 76.4 9.8 75.1 11.3 75.1 C 12.3 75.1 13.3 75.7 13.8 76.8 C 13.81 76.82 13.9 75.2 13.9 75.2 L 14.3 75.2 L 14.3 81.6 L 13.9 81.6 C 13.9 81.6 13.81 80 13.8 80 C 13.3 81.2 12.3 81.7 11.3 81.7 C 9.8 81.7 8.4 80.4 8.4 78.4 Z M 13.8 78.4 C 13.8 76.7 12.7 75.6 11.4 75.6 C 10 75.6 8.9 76.7 8.9 78.4 C 8.9 80.1 10 81.2 11.4 81.2 C 12.7 81.2 13.8 80.1 13.8 78.4 Z M 16.6 75.2 L 17 75.2 L 17 76.4 C 17 76.4 17.03 76.42 17 76.4 C 17.4 75.5 18.3 75.2 18.9 75.2 C 19 75.2 19.2 75.2 19.3 75.2 C 19.3 75.2 19.3 75.7 19.3 75.7 C 19.2 75.7 19 75.7 18.9 75.7 C 18 75.7 17.1 76.3 17.1 77.6 C 17.06 77.57 17.1 81.6 17.1 81.6 L 16.6 81.6 L 16.6 75.2 Z M 23.8 72.1 L 24.3 72.1 L 24.3 81.6 L 23.8 81.6 L 23.8 72.1 Z M 31.8 78.6 C 31.8 78.6 26.7 78.6 26.7 78.6 C 26.8 80.2 27.8 81.2 29.3 81.2 C 30 81.2 30.9 81 31.5 80.3 C 31.5 80.3 31.5 80.9 31.5 80.9 C 30.9 81.4 30.1 81.7 29.2 81.7 C 27.5 81.7 26.2 80.4 26.2 78.4 C 26.2 76.4 27.6 75.1 29.2 75.1 C 30.6 75.1 31.8 76.2 31.8 78.3 C 31.8 78.4 31.8 78.5 31.8 78.6 Z M 31.3 78.1 C 31.3 76.4 30.2 75.6 29.2 75.6 C 27.9 75.6 26.8 76.6 26.7 78.1 C 26.7 78.1 31.3 78.1 31.3 78.1 Z M 37.1 75.7 C 37.1 75.7 37.1 76.2 37.1 76.2 C 36.6 75.9 36 75.6 35.3 75.6 C 34.4 75.6 33.7 76.1 33.7 76.8 C 33.7 77.5 34.4 77.8 35.4 78.1 C 36.4 78.5 37.5 78.8 37.5 79.9 C 37.5 81 36.6 81.7 35.3 81.7 C 34.5 81.7 33.8 81.5 33.1 81 C 33.1 81 33.1 80.3 33.1 80.3 C 33.7 80.9 34.5 81.2 35.3 81.2 C 36.3 81.2 36.9 80.7 36.9 79.9 C 36.9 79.2 36.2 78.9 35.2 78.5 C 34.2 78.2 33.2 77.9 33.2 76.8 C 33.2 75.8 34.1 75.1 35.3 75.1 C 36 75.1 36.6 75.3 37.1 75.7 Z M 42.2 78.4 C 42.2 76.4 43.6 75.1 45.1 75.1 C 46.1 75.1 47.2 75.7 47.6 76.8 C 47.63 76.82 47.7 75.2 47.7 75.2 L 48.1 75.2 L 48.1 81.6 L 47.7 81.6 C 47.7 81.6 47.63 80 47.6 80 C 47.2 81.2 46.1 81.7 45.1 81.7 C 43.6 81.7 42.2 80.4 42.2 78.4 Z M 47.6 78.4 C 47.6 76.7 46.5 75.6 45.2 75.6 C 43.8 75.6 42.7 76.7 42.7 78.4 C 42.7 80.1 43.9 81.2 45.2 81.2 C 46.5 81.2 47.6 80.1 47.6 78.4 Z M 50.4 75.2 L 50.8 75.2 L 50.8 76.4 C 50.8 76.4 50.84 76.42 50.8 76.4 C 51.2 75.5 52.1 75.2 52.7 75.2 C 52.9 75.2 53 75.2 53.1 75.2 C 53.1 75.2 53.1 75.7 53.1 75.7 C 53 75.7 52.9 75.7 52.7 75.7 C 51.8 75.7 50.9 76.3 50.9 77.6 C 50.88 77.57 50.9 81.6 50.9 81.6 L 50.4 81.6 L 50.4 75.2 Z M 55.1 75.2 L 57 75.2 L 57 75.7 L 55.1 75.7 C 55.1 75.7 55.13 79.6 55.1 79.6 C 55.1 80.8 55.8 81.2 56.7 81.2 C 56.8 81.2 57 81.2 57.2 81.2 C 57.2 81.2 57.2 81.6 57.2 81.6 C 57.1 81.6 56.9 81.7 56.6 81.7 C 55.5 81.7 54.6 81 54.6 79.6 C 54.62 79.62 54.6 75.7 54.6 75.7 L 53.6 75.7 L 53.6 75.2 L 54.6 75.2 L 54.6 73.7 L 55.1 73.7 L 55.1 75.2 Z M 58.5 72.9 C 58.5 72.7 58.6 72.5 58.8 72.5 C 59.1 72.5 59.3 72.7 59.3 72.9 C 59.3 73.1 59.1 73.3 58.8 73.3 C 58.6 73.3 58.5 73.1 58.5 72.9 Z M 58.6 75.2 L 59.1 75.2 L 59.1 81.6 L 58.6 81.6 L 58.6 75.2 Z M 65 75.7 C 65 75.7 65 76.2 65 76.2 C 64.5 75.9 63.9 75.6 63.1 75.6 C 62.2 75.6 61.6 76.1 61.6 76.8 C 61.6 77.5 62.2 77.8 63.3 78.1 C 64.3 78.5 65.3 78.8 65.3 79.9 C 65.3 81 64.4 81.7 63.1 81.7 C 62.4 81.7 61.6 81.5 61 81 C 61 81 61 80.3 61 80.3 C 61.5 80.9 62.3 81.2 63.1 81.2 C 64.1 81.2 64.8 80.7 64.8 79.9 C 64.8 79.2 64.1 78.9 63 78.5 C 62 78.2 61.1 77.9 61.1 76.8 C 61.1 75.8 61.9 75.1 63.2 75.1 C 63.8 75.1 64.5 75.3 65 75.7 Z M 66.6 78.4 C 66.6 76.4 68 75.1 69.5 75.1 C 70.5 75.1 71.5 75.7 72 76.8 C 71.99 76.82 72.1 75.2 72.1 75.2 L 72.5 75.2 L 72.5 81.6 L 72.1 81.6 C 72.1 81.6 71.99 80 72 80 C 71.5 81.2 70.5 81.7 69.5 81.7 C 68 81.7 66.6 80.4 66.6 78.4 Z M 72 78.4 C 72 76.7 70.9 75.6 69.5 75.6 C 68.2 75.6 67.1 76.7 67.1 78.4 C 67.1 80.1 68.2 81.2 69.5 81.2 C 70.8 81.2 72 80.1 72 78.4 Z M 79.5 77.4 C 79.52 77.36 79.5 81.6 79.5 81.6 L 79 81.6 C 79 81.6 79.02 77.57 79 77.6 C 79 76.3 78.4 75.6 77.2 75.6 C 76.1 75.6 75.2 76.3 75.2 77.5 C 75.24 77.51 75.2 81.6 75.2 81.6 L 74.7 81.6 L 74.7 75.2 L 75.1 75.2 L 75.2 76.4 C 75.2 76.4 75.2 76.36 75.2 76.4 C 75.5 75.6 76.3 75.1 77.3 75.1 C 78.6 75.1 79.5 76 79.5 77.4 Z M 85.3 75.7 C 85.3 75.7 85.3 76.2 85.3 76.2 C 84.8 75.9 84.2 75.6 83.4 75.6 C 82.5 75.6 81.9 76.1 81.9 76.8 C 81.9 77.5 82.5 77.8 83.6 78.1 C 84.6 78.5 85.6 78.8 85.6 79.9 C 85.6 81 84.7 81.7 83.4 81.7 C 82.7 81.7 81.9 81.5 81.3 81 C 81.3 81 81.3 80.3 81.3 80.3 C 81.8 80.9 82.6 81.2 83.4 81.2 C 84.4 81.2 85.1 80.7 85.1 79.9 C 85.1 79.2 84.4 78.9 83.3 78.5 C 82.3 78.2 81.4 77.9 81.4 76.8 C 81.4 75.8 82.2 75.1 83.5 75.1 C 84.1 75.1 84.8 75.3 85.3 75.7 Z M 87.1 81.2 C 87.1 80.9 87.3 80.7 87.6 80.7 C 87.9 80.7 88.1 80.9 88.1 81.2 C 88.1 81.4 87.9 81.6 87.6 81.6 C 87.3 81.6 87.1 81.4 87.1 81.2 Z " stroke="none" fill="#000"/>
  </g>
  <g id="Polygon30994">
    <path d="M 3.8 66.8 C 4.3 66.8 4.9 66.7 5.5 66.3 C 5.5 66.3 5.5 66.9 5.5 66.9 C 5 67.2 4.4 67.3 3.8 67.3 C 2 67.3 0.7 65.9 0.7 64 C 0.7 62.1 2 60.7 3.8 60.7 C 4.3 60.7 4.9 60.8 5.5 61.2 C 5.5 61.2 5.5 61.7 5.5 61.7 C 4.9 61.3 4.3 61.2 3.7 61.2 C 2.4 61.2 1.2 62.3 1.2 64 C 1.2 65.7 2.4 66.8 3.8 66.8 Z M 6.6 64 C 6.6 62.1 8 60.7 9.7 60.7 C 11.4 60.7 12.7 62.1 12.7 64 C 12.7 66 11.4 67.3 9.7 67.3 C 8 67.3 6.6 66 6.6 64 Z M 12.2 64 C 12.2 62.2 11 61.2 9.7 61.2 C 8.4 61.2 7.2 62.2 7.2 64 C 7.2 65.8 8.4 66.8 9.7 66.8 C 11 66.8 12.2 65.8 12.2 64 Z M 19.3 63 C 19.34 62.96 19.3 67.2 19.3 67.2 L 18.8 67.2 C 18.8 67.2 18.84 63.17 18.8 63.2 C 18.8 61.9 18.2 61.2 17 61.2 C 15.9 61.2 15.1 61.9 15.1 63.1 C 15.06 63.11 15.1 67.2 15.1 67.2 L 14.6 67.2 L 14.6 60.8 L 15 60.8 L 15 62 C 15 62 15.02 61.96 15 62 C 15.4 61.2 16.1 60.7 17.1 60.7 C 18.5 60.7 19.3 61.6 19.3 63 Z M 22.2 60.8 L 24.1 60.8 L 24.1 61.3 L 22.2 61.3 C 22.2 61.3 22.16 65.2 22.2 65.2 C 22.2 66.4 22.8 66.8 23.7 66.8 C 23.9 66.8 24 66.8 24.2 66.8 C 24.2 66.8 24.2 67.2 24.2 67.2 C 24.2 67.2 23.9 67.3 23.6 67.3 C 22.5 67.3 21.7 66.6 21.7 65.2 C 21.66 65.22 21.7 61.3 21.7 61.3 L 20.7 61.3 L 20.7 60.8 L 21.7 60.8 L 21.7 59.3 L 22.2 59.3 L 22.2 60.8 Z M 25.6 60.8 L 26 60.8 L 26.1 62 C 26.1 62 26.06 62.02 26.1 62 C 26.4 61.1 27.3 60.8 27.9 60.8 C 28.1 60.8 28.2 60.8 28.3 60.8 C 28.3 60.8 28.3 61.3 28.3 61.3 C 28.2 61.3 28.1 61.3 27.9 61.3 C 27 61.3 26.1 61.9 26.1 63.2 C 26.1 63.17 26.1 67.2 26.1 67.2 L 25.6 67.2 L 25.6 60.8 Z M 28.9 64 C 28.9 62 30.3 60.7 31.8 60.7 C 32.8 60.7 33.8 61.3 34.3 62.4 C 34.31 62.42 34.4 60.8 34.4 60.8 L 34.8 60.8 L 34.8 67.2 L 34.4 67.2 C 34.4 67.2 34.31 65.6 34.3 65.6 C 33.8 66.8 32.8 67.3 31.8 67.3 C 30.3 67.3 28.9 66 28.9 64 Z M 34.3 64 C 34.3 62.3 33.2 61.2 31.8 61.2 C 30.5 61.2 29.4 62.3 29.4 64 C 29.4 65.7 30.5 66.8 31.9 66.8 C 33.2 66.8 34.3 65.7 34.3 64 Z M 36.9 58.5 C 36.9 58.3 37.1 58.1 37.3 58.1 C 37.6 58.1 37.8 58.3 37.8 58.5 C 37.8 58.7 37.6 58.9 37.3 58.9 C 37.1 58.9 36.9 58.7 36.9 58.5 Z M 37.1 60.8 L 37.6 60.8 L 37.6 67.2 L 37.1 67.2 L 37.1 60.8 Z M 44.7 63 C 44.7 62.96 44.7 67.2 44.7 67.2 L 44.2 67.2 C 44.2 67.2 44.2 63.17 44.2 63.2 C 44.2 61.9 43.5 61.2 42.4 61.2 C 41.3 61.2 40.4 61.9 40.4 63.1 C 40.41 63.11 40.4 67.2 40.4 67.2 L 39.9 67.2 L 39.9 60.8 L 40.3 60.8 L 40.4 62 C 40.4 62 40.38 61.96 40.4 62 C 40.7 61.2 41.5 60.7 42.5 60.7 C 43.8 60.7 44.7 61.6 44.7 63 Z M 47.5 60.8 L 49.4 60.8 L 49.4 61.3 L 47.5 61.3 C 47.5 61.3 47.52 65.2 47.5 65.2 C 47.5 66.4 48.2 66.8 49.1 66.8 C 49.2 66.8 49.4 66.8 49.6 66.8 C 49.6 66.8 49.6 67.2 49.6 67.2 C 49.5 67.2 49.3 67.3 49 67.3 C 47.8 67.3 47 66.6 47 65.2 C 47.02 65.22 47 61.3 47 61.3 L 46 61.3 L 46 60.8 L 47 60.8 L 47 59.3 L 47.5 59.3 L 47.5 60.8 Z M 56 64.2 C 56 64.2 50.9 64.2 50.9 64.2 C 51 65.8 52 66.8 53.5 66.8 C 54.3 66.8 55.1 66.6 55.8 65.9 C 55.8 65.9 55.8 66.5 55.8 66.5 C 55.1 67 54.3 67.3 53.5 67.3 C 51.7 67.3 50.4 66 50.4 64 C 50.4 62 51.8 60.7 53.4 60.7 C 54.8 60.7 56 61.8 56 63.9 C 56 64 56 64.1 56 64.2 Z M 55.5 63.7 C 55.5 62 54.5 61.2 53.4 61.2 C 52.2 61.2 51 62.2 50.9 63.7 C 50.9 63.7 55.5 63.7 55.5 63.7 Z M 61.4 61.3 C 61.4 61.3 61.4 61.8 61.4 61.8 C 60.9 61.5 60.2 61.2 59.5 61.2 C 58.6 61.2 58 61.7 58 62.4 C 58 63.1 58.6 63.4 59.6 63.7 C 60.7 64.1 61.7 64.4 61.7 65.5 C 61.7 66.6 60.8 67.3 59.5 67.3 C 58.8 67.3 58 67.1 57.4 66.6 C 57.4 66.6 57.4 65.9 57.4 65.9 C 57.9 66.5 58.7 66.8 59.5 66.8 C 60.5 66.8 61.2 66.3 61.2 65.5 C 61.2 64.8 60.4 64.5 59.4 64.1 C 58.4 63.8 57.5 63.5 57.5 62.4 C 57.5 61.4 58.3 60.7 59.5 60.7 C 60.2 60.7 60.9 60.9 61.4 61.3 Z M 68.4 64 C 68.4 62 69.8 60.7 71.3 60.7 C 72.3 60.7 73.3 61.3 73.8 62.4 C 73.76 62.38 73.8 57.7 73.8 57.7 L 74.3 57.7 L 74.3 67.2 L 73.9 67.2 L 73.8 65.6 C 73.8 65.6 73.78 65.59 73.8 65.6 C 73.3 66.8 72.3 67.3 71.3 67.3 C 69.8 67.3 68.4 66 68.4 64 Z M 73.8 64 C 73.8 62.3 72.7 61.2 71.3 61.2 C 70 61.2 68.9 62.3 68.9 64 C 68.9 65.7 70 66.8 71.3 66.8 C 72.7 66.8 73.8 65.7 73.8 64 Z M 81.6 64.2 C 81.6 64.2 76.6 64.2 76.6 64.2 C 76.7 65.8 77.7 66.8 79.2 66.8 C 79.9 66.8 80.7 66.6 81.4 65.9 C 81.4 65.9 81.4 66.5 81.4 66.5 C 80.8 67 80 67.3 79.1 67.3 C 77.3 67.3 76.1 66 76.1 64 C 76.1 62 77.5 60.7 79 60.7 C 80.5 60.7 81.7 61.8 81.7 63.9 C 81.7 64 81.7 64.1 81.6 64.2 Z M 81.2 63.7 C 81.1 62 80.1 61.2 79 61.2 C 77.8 61.2 76.7 62.2 76.6 63.7 C 76.6 63.7 81.2 63.7 81.2 63.7 Z M 89.1 61.3 L 88.2 61.3 L 88.2 60.8 L 89.1 60.8 C 89.1 60.8 89.11 59.6 89.1 59.6 C 89.1 58.3 90 57.6 91 57.6 C 91.3 57.6 91.7 57.7 92 57.8 C 92 57.8 92 58.3 92 58.3 C 91.7 58.2 91.3 58.1 91 58.1 C 90.2 58.1 89.6 58.6 89.6 59.7 C 89.62 59.69 89.6 60.8 89.6 60.8 L 91.5 60.8 L 91.5 61.3 L 89.6 61.3 L 89.6 67.2 L 89.1 67.2 L 89.1 61.3 Z M 92.2 64 C 92.2 62 93.6 60.7 95.1 60.7 C 96.1 60.7 97.1 61.3 97.6 62.4 C 97.59 62.42 97.7 60.8 97.7 60.8 L 98.1 60.8 L 98.1 67.2 L 97.7 67.2 C 97.7 67.2 97.59 65.6 97.6 65.6 C 97.1 66.8 96.1 67.3 95.1 67.3 C 93.6 67.3 92.2 66 92.2 64 Z M 97.6 64 C 97.6 62.3 96.5 61.2 95.1 61.2 C 93.8 61.2 92.7 62.3 92.7 64 C 92.7 65.7 93.8 66.8 95.1 66.8 C 96.5 66.8 97.6 65.7 97.6 64 Z M 100.2 58.5 C 100.2 58.3 100.4 58.1 100.6 58.1 C 100.9 58.1 101 58.3 101 58.5 C 101 58.7 100.9 58.9 100.6 58.9 C 100.4 58.9 100.2 58.7 100.2 58.5 Z M 100.4 60.8 L 100.9 60.8 L 100.9 67.2 L 100.4 67.2 L 100.4 60.8 Z M 106.7 61.3 C 106.7 61.3 106.7 61.8 106.7 61.8 C 106.2 61.5 105.6 61.2 104.9 61.2 C 104 61.2 103.3 61.7 103.3 62.4 C 103.3 63.1 104 63.4 105 63.7 C 106.1 64.1 107.1 64.4 107.1 65.5 C 107.1 66.6 106.2 67.3 104.9 67.3 C 104.1 67.3 103.4 67.1 102.8 66.6 C 102.8 66.6 102.8 65.9 102.8 65.9 C 103.3 66.5 104.1 66.8 104.9 66.8 C 105.9 66.8 106.6 66.3 106.6 65.5 C 106.6 64.8 105.8 64.5 104.8 64.1 C 103.8 63.8 102.8 63.5 102.8 62.4 C 102.8 61.4 103.7 60.7 104.9 60.7 C 105.6 60.7 106.3 60.9 106.7 61.3 Z M 108.4 64 C 108.4 62 109.8 60.7 111.3 60.7 C 112.3 60.7 113.3 61.3 113.8 62.4 C 113.77 62.42 113.8 60.8 113.8 60.8 L 114.2 60.8 L 114.2 67.2 L 113.8 67.2 C 113.8 67.2 113.77 65.6 113.8 65.6 C 113.3 66.8 112.3 67.3 111.3 67.3 C 109.8 67.3 108.4 66 108.4 64 Z M 113.8 64 C 113.8 62.3 112.6 61.2 111.3 61.2 C 110 61.2 108.9 62.3 108.9 64 C 108.9 65.7 110 66.8 111.3 66.8 C 112.6 66.8 113.8 65.7 113.8 64 Z M 117 62.4 C 117.4 61.3 118.5 60.7 119.5 60.7 C 121 60.7 122.4 62 122.4 64 C 122.4 66 121 67.3 119.5 67.3 C 118.5 67.3 117.4 66.8 117 65.6 C 116.98 65.59 116.9 67.2 116.9 67.2 L 116.5 67.2 L 116.5 57.7 L 117 57.7 C 117 57.7 117.02 62.39 117 62.4 Z M 117 64 C 117 65.7 118.1 66.8 119.4 66.8 C 120.8 66.8 121.9 65.7 121.9 64 C 121.9 62.3 120.8 61.2 119.5 61.2 C 118.1 61.2 117 62.3 117 64 Z M 124.1 58.5 C 124.1 58.3 124.3 58.1 124.5 58.1 C 124.8 58.1 124.9 58.3 124.9 58.5 C 124.9 58.7 124.8 58.9 124.5 58.9 C 124.3 58.9 124.1 58.7 124.1 58.5 Z M 124.3 60.8 L 124.8 60.8 L 124.8 67.2 L 124.3 67.2 L 124.3 60.8 Z M 127.1 57.7 L 127.6 57.7 L 127.6 67.2 L 127.1 67.2 L 127.1 57.7 Z M 129.8 58.5 C 129.8 58.3 130 58.1 130.2 58.1 C 130.5 58.1 130.6 58.3 130.6 58.5 C 130.6 58.7 130.5 58.9 130.2 58.9 C 130 58.9 129.8 58.7 129.8 58.5 Z M 130 60.8 L 130.5 60.8 L 130.5 67.2 L 130 67.2 L 130 60.8 Z M 133.5 60.8 L 135.4 60.8 L 135.4 61.3 L 133.5 61.3 C 133.5 61.3 133.48 65.2 133.5 65.2 C 133.5 66.4 134.1 66.8 135 66.8 C 135.2 66.8 135.4 66.8 135.6 66.8 C 135.6 66.8 135.6 67.2 135.6 67.2 C 135.5 67.2 135.2 67.3 135 67.3 C 133.8 67.3 133 66.6 133 65.2 C 132.98 65.22 133 61.3 133 61.3 L 132 61.3 L 132 60.8 L 133 60.8 L 133 59.3 L 133.5 59.3 L 133.5 60.8 Z M 139.1 59.7 L 138.6 59.7 L 140.1 57.8 L 140.7 57.8 L 139.1 59.7 Z M 141.9 64.2 C 141.9 64.2 136.9 64.2 136.9 64.2 C 137 65.8 138 66.8 139.4 66.8 C 140.2 66.8 141 66.6 141.7 65.9 C 141.7 65.9 141.7 66.5 141.7 66.5 C 141 67 140.2 67.3 139.4 67.3 C 137.6 67.3 136.4 66 136.4 64 C 136.4 62 137.8 60.7 139.3 60.7 C 140.8 60.7 142 61.8 142 63.9 C 142 64 142 64.1 141.9 64.2 Z M 141.5 63.7 C 141.4 62 140.4 61.2 139.3 61.2 C 138.1 61.2 137 62.2 136.9 63.7 C 136.9 63.7 141.5 63.7 141.5 63.7 Z M 143.7 66.2 C 143.68 66.24 143.7 65.8 143.7 65.8 L 144.2 65.8 C 144.2 65.8 144.18 66.23 144.2 66.2 C 144.2 67.2 143.8 68.2 143.5 68.8 C 143.5 68.8 143.1 68.8 143.1 68.8 C 143.4 68.2 143.7 67.2 143.7 66.2 Z M 151.8 57.7 L 152.3 57.7 L 152.3 67.2 L 151.8 67.2 L 151.8 57.7 Z M 154.5 58.5 C 154.5 58.3 154.7 58.1 154.9 58.1 C 155.1 58.1 155.3 58.3 155.3 58.5 C 155.3 58.7 155.1 58.9 154.9 58.9 C 154.7 58.9 154.5 58.7 154.5 58.5 Z M 154.6 60.8 L 155.1 60.8 L 155.1 67.2 L 154.6 67.2 L 154.6 60.8 Z M 159.7 59.7 L 159.2 59.7 L 160.7 57.8 L 161.3 57.8 L 159.7 59.7 Z M 162.6 64.2 C 162.6 64.2 157.5 64.2 157.5 64.2 C 157.6 65.8 158.6 66.8 160.1 66.8 C 160.8 66.8 161.6 66.6 162.3 65.9 C 162.3 65.9 162.3 66.5 162.3 66.5 C 161.7 67 160.9 67.3 160 67.3 C 158.3 67.3 157 66 157 64 C 157 62 158.4 60.7 160 60.7 C 161.4 60.7 162.6 61.8 162.6 63.9 C 162.6 64 162.6 64.1 162.6 64.2 Z M 162.1 63.7 C 162.1 62 161 61.2 160 61.2 C 158.7 61.2 157.6 62.2 157.5 63.7 C 157.5 63.7 162.1 63.7 162.1 63.7 Z M 169.5 64.2 C 169.5 64.2 164.4 64.2 164.4 64.2 C 164.5 65.8 165.6 66.8 167 66.8 C 167.8 66.8 168.6 66.6 169.3 65.9 C 169.3 65.9 169.3 66.5 169.3 66.5 C 168.6 67 167.8 67.3 167 67.3 C 165.2 67.3 163.9 66 163.9 64 C 163.9 62 165.4 60.7 166.9 60.7 C 168.3 60.7 169.5 61.8 169.5 63.9 C 169.5 64 169.5 64.1 169.5 64.2 Z M 169 63.7 C 169 62 168 61.2 166.9 61.2 C 165.7 61.2 164.6 62.2 164.5 63.7 C 164.5 63.7 169 63.7 169 63.7 Z M 174.9 61.3 C 174.9 61.3 174.9 61.8 174.9 61.8 C 174.4 61.5 173.8 61.2 173 61.2 C 172.1 61.2 171.5 61.7 171.5 62.4 C 171.5 63.1 172.1 63.4 173.2 63.7 C 174.2 64.1 175.2 64.4 175.2 65.5 C 175.2 66.6 174.3 67.3 173 67.3 C 172.3 67.3 171.5 67.1 170.9 66.6 C 170.9 66.6 170.9 65.9 170.9 65.9 C 171.4 66.5 172.2 66.8 173 66.8 C 174 66.8 174.7 66.3 174.7 65.5 C 174.7 64.8 174 64.5 172.9 64.1 C 171.9 63.8 171 63.5 171 62.4 C 171 61.4 171.8 60.7 173.1 60.7 C 173.7 60.7 174.4 60.9 174.9 61.3 Z M 185.8 59.7 L 185.3 59.7 L 183.8 57.8 L 184.4 57.8 L 185.8 59.7 Z M 181.9 64 C 181.9 62 183.3 60.7 184.8 60.7 C 185.8 60.7 186.8 61.3 187.3 62.4 C 187.3 62.42 187.4 60.8 187.4 60.8 L 187.8 60.8 L 187.8 67.2 L 187.4 67.2 C 187.4 67.2 187.3 65.6 187.3 65.6 C 186.8 66.8 185.8 67.3 184.8 67.3 C 183.3 67.3 181.9 66 181.9 64 Z M 187.3 64 C 187.3 62.3 186.2 61.2 184.8 61.2 C 183.5 61.2 182.4 62.3 182.4 64 C 182.4 65.7 183.5 66.8 184.8 66.8 C 186.2 66.8 187.3 65.7 187.3 64 Z M 195.5 57.7 L 196 57.7 L 196 67.2 L 195.5 67.2 L 195.5 57.7 Z M 198.5 58.7 C 198.49 58.73 198.5 58.3 198.5 58.3 L 199 58.3 C 199 58.3 199 58.72 199 58.7 C 199 59.7 198.6 60.7 198.4 61.3 C 198.4 61.3 198 61.3 198 61.3 C 198.2 60.7 198.5 59.7 198.5 58.7 Z M 200.1 64 C 200.1 62.1 201.4 60.7 203.1 60.7 C 204.8 60.7 206.2 62.1 206.2 64 C 206.2 66 204.8 67.3 203.1 67.3 C 201.5 67.3 200.1 66 200.1 64 Z M 205.7 64 C 205.7 62.2 204.4 61.2 203.1 61.2 C 201.8 61.2 200.6 62.2 200.6 64 C 200.6 65.8 201.8 66.8 203.1 66.8 C 204.4 66.8 205.7 65.8 205.7 64 Z M 207.9 64.9 C 207.9 64.88 207.9 60.8 207.9 60.8 L 208.4 60.8 C 208.4 60.8 208.4 64.91 208.4 64.9 C 208.4 66.1 209.1 66.8 210.3 66.8 C 211.5 66.8 212.2 66.1 212.2 64.9 C 212.2 64.9 212.2 60.8 212.2 60.8 L 212.7 60.8 C 212.7 60.8 212.7 64.87 212.7 64.9 C 212.7 66.3 211.8 67.3 210.3 67.3 C 208.8 67.3 207.9 66.3 207.9 64.9 Z M 215.6 60.8 L 217.5 60.8 L 217.5 61.3 L 215.6 61.3 C 215.6 61.3 215.58 65.2 215.6 65.2 C 215.6 66.4 216.2 66.8 217.1 66.8 C 217.3 66.8 217.5 66.8 217.7 66.8 C 217.7 66.8 217.7 67.2 217.7 67.2 C 217.6 67.2 217.3 67.3 217.1 67.3 C 215.9 67.3 215.1 66.6 215.1 65.2 C 215.08 65.22 215.1 61.3 215.1 61.3 L 214.1 61.3 L 214.1 60.8 L 215.1 60.8 L 215.1 59.3 L 215.6 59.3 L 215.6 60.8 Z M 218.9 58.5 C 218.9 58.3 219.1 58.1 219.3 58.1 C 219.5 58.1 219.7 58.3 219.7 58.5 C 219.7 58.7 219.5 58.9 219.3 58.9 C 219.1 58.9 218.9 58.7 218.9 58.5 Z M 219.1 60.8 L 219.6 60.8 L 219.6 67.2 L 219.1 67.2 L 219.1 60.8 Z M 221.9 57.7 L 222.4 57.7 L 222.4 67.2 L 221.9 67.2 L 221.9 57.7 Z M 224.8 57.7 L 225.3 57.7 L 225.3 67.2 L 224.8 67.2 L 224.8 57.7 Z M 227.1 64 C 227.1 62 228.5 60.7 230 60.7 C 231 60.7 232.1 61.3 232.5 62.4 C 232.54 62.42 232.6 60.8 232.6 60.8 L 233 60.8 L 233 67.2 L 232.6 67.2 C 232.6 67.2 232.54 65.6 232.5 65.6 C 232.1 66.8 231 67.3 230 67.3 C 228.5 67.3 227.1 66 227.1 64 Z M 232.5 64 C 232.5 62.3 231.4 61.2 230.1 61.2 C 228.8 61.2 227.6 62.3 227.6 64 C 227.6 65.7 228.8 66.8 230.1 66.8 C 231.4 66.8 232.5 65.7 232.5 64 Z M 240.2 62.4 C 240.21 62.36 240.3 60.8 240.3 60.8 L 240.7 60.8 C 240.7 60.8 240.67 67 240.7 67 C 240.7 69 239.3 69.9 237.9 69.9 C 237 69.9 236.2 69.6 235.5 69.1 C 235.5 69.1 235.5 68.5 235.5 68.5 C 236.2 69.1 237 69.4 237.9 69.4 C 239.1 69.4 240.2 68.7 240.2 67.1 C 240.2 67.1 240.2 65.5 240.2 65.5 C 239.7 66.6 238.7 67.1 237.7 67.1 C 236.2 67.1 234.8 65.9 234.8 63.9 C 234.8 62 236.2 60.7 237.7 60.7 C 238.7 60.7 239.7 61.3 240.2 62.4 Z M 235.3 63.9 C 235.3 65.6 236.5 66.6 237.8 66.6 C 239.1 66.6 240.2 65.5 240.2 63.9 C 240.2 62.3 239.1 61.2 237.8 61.2 C 236.4 61.2 235.3 62.3 235.3 63.9 Z M 248.1 64.2 C 248.1 64.2 243 64.2 243 64.2 C 243.1 65.8 244.1 66.8 245.6 66.8 C 246.3 66.8 247.2 66.6 247.8 65.9 C 247.8 65.9 247.8 66.5 247.8 66.5 C 247.2 67 246.4 67.3 245.5 67.3 C 243.8 67.3 242.5 66 242.5 64 C 242.5 62 243.9 60.7 245.5 60.7 C 246.9 60.7 248.1 61.8 248.1 63.9 C 248.1 64 248.1 64.1 248.1 64.2 Z M 247.6 63.7 C 247.6 62 246.5 61.2 245.5 61.2 C 244.2 61.2 243.1 62.2 243 63.7 C 243 63.7 247.6 63.7 247.6 63.7 Z M 255.2 64.9 C 255.21 64.88 255.2 60.8 255.2 60.8 L 255.7 60.8 C 255.7 60.8 255.71 64.91 255.7 64.9 C 255.7 66.1 256.4 66.8 257.6 66.8 C 258.8 66.8 259.5 66.1 259.5 64.9 C 259.5 64.9 259.5 60.8 259.5 60.8 L 260 60.8 C 260 60.8 260.01 64.87 260 64.9 C 260 66.3 259.1 67.3 257.6 67.3 C 256.1 67.3 255.2 66.3 255.2 64.9 Z M 262.9 60.8 L 264.8 60.8 L 264.8 61.3 L 262.9 61.3 C 262.9 61.3 262.89 65.2 262.9 65.2 C 262.9 66.4 263.5 66.8 264.4 66.8 C 264.6 66.8 264.8 66.8 265 66.8 C 265 66.8 265 67.2 265 67.2 C 264.9 67.2 264.6 67.3 264.4 67.3 C 263.2 67.3 262.4 66.6 262.4 65.2 C 262.38 65.22 262.4 61.3 262.4 61.3 L 261.4 61.3 L 261.4 60.8 L 262.4 60.8 L 262.4 59.3 L 262.9 59.3 L 262.9 60.8 Z M 266.2 58.5 C 266.2 58.3 266.4 58.1 266.6 58.1 C 266.8 58.1 267 58.3 267 58.5 C 267 58.7 266.8 58.9 266.6 58.9 C 266.4 58.9 266.2 58.7 266.2 58.5 Z M 266.4 60.8 L 266.9 60.8 L 266.9 67.2 L 266.4 67.2 L 266.4 60.8 Z M 269.2 57.7 L 269.7 57.7 L 269.7 67.2 L 269.2 67.2 L 269.2 57.7 Z M 271.9 58.5 C 271.9 58.3 272.1 58.1 272.3 58.1 C 272.6 58.1 272.7 58.3 272.7 58.5 C 272.7 58.7 272.6 58.9 272.3 58.9 C 272.1 58.9 271.9 58.7 271.9 58.5 Z M 272.1 60.8 L 272.6 60.8 L 272.6 67.2 L 272.1 67.2 L 272.1 60.8 Z M 278.4 61.3 C 278.4 61.3 278.4 61.8 278.4 61.8 C 277.9 61.5 277.3 61.2 276.6 61.2 C 275.7 61.2 275 61.7 275 62.4 C 275 63.1 275.7 63.4 276.7 63.7 C 277.7 64.1 278.8 64.4 278.8 65.5 C 278.8 66.6 277.9 67.3 276.6 67.3 C 275.8 67.3 275.1 67.1 274.4 66.6 C 274.4 66.6 274.4 65.9 274.4 65.9 C 275 66.5 275.8 66.8 276.6 66.8 C 277.6 66.8 278.2 66.3 278.2 65.5 C 278.2 64.8 277.5 64.5 276.5 64.1 C 275.5 63.8 274.5 63.5 274.5 62.4 C 274.5 61.4 275.4 60.7 276.6 60.7 C 277.3 60.7 277.9 60.9 278.4 61.3 Z M 282.8 59.7 L 282.3 59.7 L 283.7 57.8 L 284.3 57.8 L 282.8 59.7 Z M 285.6 64.2 C 285.6 64.2 280.6 64.2 280.6 64.2 C 280.6 65.8 281.7 66.8 283.1 66.8 C 283.9 66.8 284.7 66.6 285.4 65.9 C 285.4 65.9 285.4 66.5 285.4 66.5 C 284.7 67 283.9 67.3 283.1 67.3 C 281.3 67.3 280.1 66 280.1 64 C 280.1 62 281.5 60.7 283 60.7 C 284.4 60.7 285.6 61.8 285.6 63.9 C 285.6 64 285.6 64.1 285.6 64.2 Z M 285.1 63.7 C 285.1 62 284.1 61.2 283 61.2 C 281.8 61.2 280.7 62.2 280.6 63.7 C 280.6 63.7 285.1 63.7 285.1 63.7 Z " stroke="none" fill="#000"/>
  </g>
  <g id="Polygon30993">
    <path d="M 6.3 49.8 C 6.3 49.8 1.2 49.8 1.2 49.8 C 1.3 51.4 2.3 52.4 3.8 52.4 C 4.5 52.4 5.3 52.2 6 51.5 C 6 51.5 6 52.1 6 52.1 C 5.4 52.6 4.6 52.9 3.7 52.9 C 1.9 52.9 0.7 51.6 0.7 49.6 C 0.7 47.6 2.1 46.3 3.6 46.3 C 5.1 46.3 6.3 47.4 6.3 49.5 C 6.3 49.6 6.3 49.7 6.3 49.8 Z M 5.8 49.3 C 5.7 47.6 4.7 46.8 3.6 46.8 C 2.4 46.8 1.3 47.8 1.2 49.3 C 1.2 49.3 5.8 49.3 5.8 49.3 Z M 10.1 49.6 L 12.3 52.8 L 11.8 52.8 L 9.8 50 L 9.8 50 L 7.8 52.8 L 7.2 52.8 L 9.5 49.6 L 7.2 46.4 L 7.8 46.4 L 9.8 49.2 L 9.8 49.2 L 11.7 46.4 L 12.3 46.4 L 10.1 49.6 Z M 13.7 44.1 C 13.7 43.9 13.9 43.7 14.1 43.7 C 14.4 43.7 14.5 43.9 14.5 44.1 C 14.5 44.3 14.4 44.5 14.1 44.5 C 13.9 44.5 13.7 44.3 13.7 44.1 Z M 13.9 46.4 L 14.4 46.4 L 14.4 52.8 L 13.9 52.8 L 13.9 46.4 Z M 20.2 46.9 C 20.2 46.9 20.2 47.4 20.2 47.4 C 19.7 47.1 19.1 46.8 18.4 46.8 C 17.5 46.8 16.8 47.3 16.8 48 C 16.8 48.7 17.5 49 18.5 49.3 C 19.5 49.7 20.6 50 20.6 51.1 C 20.6 52.2 19.7 52.9 18.4 52.9 C 17.6 52.9 16.9 52.7 16.2 52.2 C 16.2 52.2 16.2 51.5 16.2 51.5 C 16.8 52.1 17.6 52.4 18.4 52.4 C 19.4 52.4 20.1 51.9 20.1 51.1 C 20.1 50.4 19.3 50.1 18.3 49.7 C 17.3 49.4 16.3 49.1 16.3 48 C 16.3 47 17.2 46.3 18.4 46.3 C 19.1 46.3 19.8 46.5 20.2 46.9 Z M 23 46.4 L 24.9 46.4 L 24.9 46.9 L 23 46.9 C 23 46.9 22.99 50.8 23 50.8 C 23 52 23.6 52.4 24.5 52.4 C 24.7 52.4 24.9 52.4 25.1 52.4 C 25.1 52.4 25.1 52.8 25.1 52.8 C 25 52.8 24.7 52.9 24.5 52.9 C 23.3 52.9 22.5 52.2 22.5 50.8 C 22.49 50.82 22.5 46.9 22.5 46.9 L 21.5 46.9 L 21.5 46.4 L 22.5 46.4 L 22.5 44.9 L 23 44.9 L 23 46.4 Z M 25.9 49.6 C 25.9 47.6 27.3 46.3 28.8 46.3 C 29.8 46.3 30.8 46.9 31.3 48 C 31.3 48.02 31.4 46.4 31.4 46.4 L 31.8 46.4 L 31.8 52.8 L 31.4 52.8 C 31.4 52.8 31.3 51.2 31.3 51.2 C 30.8 52.4 29.8 52.9 28.8 52.9 C 27.3 52.9 25.9 51.6 25.9 49.6 Z M 31.3 49.6 C 31.3 47.9 30.2 46.8 28.8 46.8 C 27.5 46.8 26.4 47.9 26.4 49.6 C 26.4 51.3 27.5 52.4 28.8 52.4 C 30.2 52.4 31.3 51.3 31.3 49.6 Z M 38.8 48.6 C 38.83 48.56 38.8 52.8 38.8 52.8 L 38.3 52.8 C 38.3 52.8 38.33 48.77 38.3 48.8 C 38.3 47.5 37.7 46.8 36.5 46.8 C 35.4 46.8 34.5 47.5 34.5 48.7 C 34.55 48.71 34.5 52.8 34.5 52.8 L 34 52.8 L 34 46.4 L 34.4 46.4 L 34.5 47.6 C 34.5 47.6 34.51 47.56 34.5 47.6 C 34.9 46.8 35.6 46.3 36.6 46.3 C 37.9 46.3 38.8 47.2 38.8 48.6 Z M 41.7 46.4 L 43.5 46.4 L 43.5 46.9 L 41.7 46.9 C 41.7 46.9 41.65 50.8 41.7 50.8 C 41.7 52 42.3 52.4 43.2 52.4 C 43.4 52.4 43.5 52.4 43.7 52.4 C 43.7 52.4 43.7 52.8 43.7 52.8 C 43.7 52.8 43.4 52.9 43.1 52.9 C 42 52.9 41.1 52.2 41.1 50.8 C 41.15 50.82 41.1 46.9 41.1 46.9 L 40.2 46.9 L 40.2 46.4 L 41.2 46.4 L 41.2 44.9 L 41.7 44.9 L 41.7 46.4 Z M 50.1 49.8 C 50.1 49.8 45.1 49.8 45.1 49.8 C 45.1 51.4 46.2 52.4 47.6 52.4 C 48.4 52.4 49.2 52.2 49.9 51.5 C 49.9 51.5 49.9 52.1 49.9 52.1 C 49.2 52.6 48.4 52.9 47.6 52.9 C 45.8 52.9 44.6 51.6 44.6 49.6 C 44.6 47.6 46 46.3 47.5 46.3 C 48.9 46.3 50.1 47.4 50.1 49.5 C 50.1 49.6 50.1 49.7 50.1 49.8 Z M 49.6 49.3 C 49.6 47.6 48.6 46.8 47.5 46.8 C 46.3 46.8 45.2 47.8 45.1 49.3 C 45.1 49.3 49.6 49.3 49.6 49.3 Z M 51.9 51.8 C 51.85 51.84 51.9 51.4 51.9 51.4 L 52.4 51.4 C 52.4 51.4 52.35 51.83 52.4 51.8 C 52.4 52.8 52 53.8 51.7 54.4 C 51.7 54.4 51.3 54.4 51.3 54.4 C 51.5 53.8 51.9 52.8 51.9 51.8 Z M 61.8 52.4 C 62.3 52.4 62.9 52.3 63.5 51.9 C 63.5 51.9 63.5 52.5 63.5 52.5 C 63 52.8 62.4 52.9 61.8 52.9 C 60 52.9 58.7 51.5 58.7 49.6 C 58.7 47.7 60 46.3 61.8 46.3 C 62.3 46.3 62.9 46.4 63.5 46.8 C 63.5 46.8 63.5 47.3 63.5 47.3 C 62.9 46.9 62.3 46.8 61.7 46.8 C 60.4 46.8 59.2 47.9 59.2 49.6 C 59.2 51.3 60.4 52.4 61.8 52.4 Z M 70.2 49.8 C 70.2 49.8 65.2 49.8 65.2 49.8 C 65.2 51.4 66.3 52.4 67.7 52.4 C 68.5 52.4 69.3 52.2 70 51.5 C 70 51.5 70 52.1 70 52.1 C 69.3 52.6 68.5 52.9 67.7 52.9 C 65.9 52.9 64.7 51.6 64.7 49.6 C 64.7 47.6 66.1 46.3 67.6 46.3 C 69 46.3 70.2 47.4 70.2 49.5 C 70.2 49.6 70.2 49.7 70.2 49.8 Z M 69.7 49.3 C 69.7 47.6 68.7 46.8 67.6 46.8 C 66.4 46.8 65.3 47.8 65.2 49.3 C 65.2 49.3 69.7 49.3 69.7 49.3 Z M 76.7 46.4 L 77.1 46.4 C 77.1 46.4 77.15 48.04 77.1 48 C 77.6 46.9 78.6 46.3 79.7 46.3 C 81.2 46.3 82.6 47.6 82.6 49.6 C 82.6 51.6 81.2 52.9 79.7 52.9 C 78.6 52.9 77.6 52.3 77.2 51.3 C 77.18 51.25 77.2 55.4 77.2 55.4 L 76.7 55.4 L 76.7 46.4 Z M 82.1 49.6 C 82.1 47.9 80.9 46.8 79.6 46.8 C 78.3 46.8 77.2 47.9 77.2 49.6 C 77.2 51.3 78.3 52.4 79.6 52.4 C 80.9 52.4 82.1 51.3 82.1 49.6 Z M 84.4 46.4 L 84.8 46.4 L 84.9 47.6 C 84.9 47.6 84.86 47.62 84.9 47.6 C 85.2 46.7 86.1 46.4 86.7 46.4 C 86.9 46.4 87 46.4 87.1 46.4 C 87.1 46.4 87.1 46.9 87.1 46.9 C 87 46.9 86.9 46.9 86.7 46.9 C 85.8 46.9 84.9 47.5 84.9 48.8 C 84.9 48.77 84.9 52.8 84.9 52.8 L 84.4 52.8 L 84.4 46.4 Z M 87.7 49.6 C 87.7 47.7 89.1 46.3 90.7 46.3 C 92.4 46.3 93.8 47.7 93.8 49.6 C 93.8 51.6 92.4 52.9 90.7 52.9 C 89.1 52.9 87.7 51.6 87.7 49.6 Z M 93.3 49.6 C 93.3 47.8 92 46.8 90.7 46.8 C 89.4 46.8 88.2 47.8 88.2 49.6 C 88.2 51.4 89.4 52.4 90.7 52.4 C 92 52.4 93.3 51.4 93.3 49.6 Z M 95.5 44.1 C 95.5 43.9 95.7 43.7 95.9 43.7 C 96.1 43.7 96.3 43.9 96.3 44.1 C 96.3 44.3 96.1 44.5 95.9 44.5 C 95.7 44.5 95.5 44.3 95.5 44.1 Z M 95.7 52.1 C 95.65 52.12 95.7 46.4 95.7 46.4 L 96.2 46.4 C 96.2 46.4 96.15 52.13 96.2 52.1 C 96.2 53.6 95.8 54.5 95.2 55.4 C 95.2 55.4 94.5 55.4 94.5 55.4 C 95.3 54.6 95.7 53.6 95.7 52.1 Z M 103.6 49.8 C 103.6 49.8 98.5 49.8 98.5 49.8 C 98.6 51.4 99.6 52.4 101.1 52.4 C 101.9 52.4 102.7 52.2 103.4 51.5 C 103.4 51.5 103.4 52.1 103.4 52.1 C 102.7 52.6 101.9 52.9 101.1 52.9 C 99.3 52.9 98 51.6 98 49.6 C 98 47.6 99.4 46.3 101 46.3 C 102.4 46.3 103.6 47.4 103.6 49.5 C 103.6 49.6 103.6 49.7 103.6 49.8 Z M 103.1 49.3 C 103.1 47.6 102.1 46.8 101 46.8 C 99.8 46.8 98.7 47.8 98.5 49.3 C 98.5 49.3 103.1 49.3 103.1 49.3 Z M 106 46.4 L 107.9 46.4 L 107.9 46.9 L 106 46.9 C 106 46.9 106.03 50.8 106 50.8 C 106 52 106.7 52.4 107.6 52.4 C 107.7 52.4 107.9 52.4 108.1 52.4 C 108.1 52.4 108.1 52.8 108.1 52.8 C 108 52.8 107.8 52.9 107.5 52.9 C 106.4 52.9 105.5 52.2 105.5 50.8 C 105.53 50.82 105.5 46.9 105.5 46.9 L 104.5 46.9 L 104.5 46.4 L 105.5 46.4 L 105.5 44.9 L 106 44.9 L 106 46.4 Z M 113.6 49.6 C 113.6 47.6 115 46.3 116.5 46.3 C 117.5 46.3 118.5 46.9 119 48 C 118.96 47.98 119 43.3 119 43.3 L 119.5 43.3 L 119.5 52.8 L 119.1 52.8 L 119 51.2 C 119 51.2 118.99 51.19 119 51.2 C 118.5 52.4 117.5 52.9 116.5 52.9 C 115 52.9 113.6 51.6 113.6 49.6 Z M 119 49.6 C 119 47.9 117.9 46.8 116.5 46.8 C 115.2 46.8 114.1 47.9 114.1 49.6 C 114.1 51.3 115.2 52.4 116.5 52.4 C 117.9 52.4 119 51.3 119 49.6 Z M 126.9 49.8 C 126.9 49.8 121.8 49.8 121.8 49.8 C 121.9 51.4 122.9 52.4 124.4 52.4 C 125.1 52.4 125.9 52.2 126.6 51.5 C 126.6 51.5 126.6 52.1 126.6 52.1 C 126 52.6 125.2 52.9 124.3 52.9 C 122.5 52.9 121.3 51.6 121.3 49.6 C 121.3 47.6 122.7 46.3 124.3 46.3 C 125.7 46.3 126.9 47.4 126.9 49.5 C 126.9 49.6 126.9 49.7 126.9 49.8 Z M 126.4 49.3 C 126.4 47.6 125.3 46.8 124.3 46.8 C 123 46.8 121.9 47.8 121.8 49.3 C 121.8 49.3 126.4 49.3 126.4 49.3 Z M 127.7 46.4 L 128.3 46.4 L 130.4 52.2 L 130.4 52.2 L 132.5 46.4 L 133 46.4 L 130.6 52.8 L 130.1 52.8 L 127.7 46.4 Z M 133.9 49.6 C 133.9 47.6 135.3 46.3 136.8 46.3 C 137.8 46.3 138.8 46.9 139.3 48 C 139.29 48.02 139.4 46.4 139.4 46.4 L 139.8 46.4 L 139.8 52.8 L 139.4 52.8 C 139.4 52.8 139.29 51.2 139.3 51.2 C 138.8 52.4 137.8 52.9 136.8 52.9 C 135.3 52.9 133.9 51.6 133.9 49.6 Z M 139.3 49.6 C 139.3 47.9 138.2 46.8 136.8 46.8 C 135.5 46.8 134.4 47.9 134.4 49.6 C 134.4 51.3 135.5 52.4 136.8 52.4 C 138.1 52.4 139.3 51.3 139.3 49.6 Z M 141.9 44.1 C 141.9 43.9 142.1 43.7 142.3 43.7 C 142.6 43.7 142.7 43.9 142.7 44.1 C 142.7 44.3 142.6 44.5 142.3 44.5 C 142.1 44.5 141.9 44.3 141.9 44.1 Z M 142.1 46.4 L 142.6 46.4 L 142.6 52.8 L 142.1 52.8 L 142.1 46.4 Z M 145.6 46.4 L 147.5 46.4 L 147.5 46.9 L 145.6 46.9 C 145.6 46.9 145.58 50.8 145.6 50.8 C 145.6 52 146.2 52.4 147.1 52.4 C 147.3 52.4 147.5 52.4 147.7 52.4 C 147.7 52.4 147.7 52.8 147.7 52.8 C 147.6 52.8 147.3 52.9 147.1 52.9 C 145.9 52.9 145.1 52.2 145.1 50.8 C 145.07 50.82 145.1 46.9 145.1 46.9 L 144.1 46.9 L 144.1 46.4 L 145.1 46.4 L 145.1 44.9 L 145.6 44.9 L 145.6 46.4 Z M 153.6 46.4 L 154 46.4 C 154 46.4 154.04 48.04 154 48 C 154.5 46.9 155.5 46.3 156.6 46.3 C 158.1 46.3 159.5 47.6 159.5 49.6 C 159.5 51.6 158.1 52.9 156.6 52.9 C 155.5 52.9 154.5 52.3 154.1 51.3 C 154.08 51.25 154.1 55.4 154.1 55.4 L 153.6 55.4 L 153.6 46.4 Z M 159 49.6 C 159 47.9 157.8 46.8 156.5 46.8 C 155.2 46.8 154.1 47.9 154.1 49.6 C 154.1 51.3 155.2 52.4 156.5 52.4 C 157.8 52.4 159 51.3 159 49.6 Z M 161.3 46.4 L 161.7 46.4 L 161.7 47.6 C 161.7 47.6 161.76 47.62 161.8 47.6 C 162.1 46.7 163 46.4 163.6 46.4 C 163.8 46.4 163.9 46.4 164 46.4 C 164 46.4 164 46.9 164 46.9 C 163.9 46.9 163.8 46.9 163.6 46.9 C 162.7 46.9 161.8 47.5 161.8 48.8 C 161.79 48.77 161.8 52.8 161.8 52.8 L 161.3 52.8 L 161.3 46.4 Z M 170.2 49.8 C 170.2 49.8 165.1 49.8 165.1 49.8 C 165.2 51.4 166.2 52.4 167.7 52.4 C 168.4 52.4 169.2 52.2 169.9 51.5 C 169.9 51.5 169.9 52.1 169.9 52.1 C 169.3 52.6 168.5 52.9 167.6 52.9 C 165.9 52.9 164.6 51.6 164.6 49.6 C 164.6 47.6 166 46.3 167.6 46.3 C 169 46.3 170.2 47.4 170.2 49.5 C 170.2 49.6 170.2 49.7 170.2 49.8 Z M 169.7 49.3 C 169.7 47.6 168.6 46.8 167.6 46.8 C 166.3 46.8 165.2 47.8 165.1 49.3 C 165.1 49.3 169.7 49.3 169.7 49.3 Z M 176.8 48.6 C 176.77 48.56 176.8 52.8 176.8 52.8 L 176.3 52.8 C 176.3 52.8 176.27 48.77 176.3 48.8 C 176.3 47.5 175.6 46.8 174.5 46.8 C 173.4 46.8 172.5 47.5 172.5 48.7 C 172.49 48.71 172.5 52.8 172.5 52.8 L 172 52.8 L 172 46.4 L 172.4 46.4 L 172.4 47.6 C 172.4 47.6 172.45 47.56 172.4 47.6 C 172.8 46.8 173.6 46.3 174.5 46.3 C 175.9 46.3 176.8 47.2 176.8 48.6 Z M 178.5 49.6 C 178.5 47.6 179.9 46.3 181.4 46.3 C 182.4 46.3 183.5 46.9 183.9 48 C 183.9 47.98 183.9 43.3 183.9 43.3 L 184.4 43.3 L 184.4 52.8 L 184 52.8 L 183.9 51.2 C 183.9 51.2 183.92 51.19 183.9 51.2 C 183.5 52.4 182.4 52.9 181.4 52.9 C 179.9 52.9 178.5 51.6 178.5 49.6 Z M 183.9 49.6 C 183.9 47.9 182.8 46.8 181.5 46.8 C 180.2 46.8 179 47.9 179 49.6 C 179 51.3 180.2 52.4 181.5 52.4 C 182.8 52.4 183.9 51.3 183.9 49.6 Z M 186.7 46.4 L 187.1 46.4 L 187.1 47.6 C 187.1 47.6 187.15 47.62 187.1 47.6 C 187.5 46.7 188.4 46.4 189 46.4 C 189.2 46.4 189.3 46.4 189.4 46.4 C 189.4 46.4 189.4 46.9 189.4 46.9 C 189.3 46.9 189.2 46.9 189 46.9 C 188.1 46.9 187.2 47.5 187.2 48.8 C 187.19 48.77 187.2 52.8 187.2 52.8 L 186.7 52.8 L 186.7 46.4 Z M 195.5 49.8 C 195.5 49.8 190.5 49.8 190.5 49.8 C 190.6 51.4 191.6 52.4 193.1 52.4 C 193.8 52.4 194.6 52.2 195.3 51.5 C 195.3 51.5 195.3 52.1 195.3 52.1 C 194.7 52.6 193.9 52.9 193 52.9 C 191.2 52.9 190 51.6 190 49.6 C 190 47.6 191.4 46.3 192.9 46.3 C 194.4 46.3 195.6 47.4 195.6 49.5 C 195.6 49.6 195.6 49.7 195.5 49.8 Z M 195.1 49.3 C 195 47.6 194 46.8 192.9 46.8 C 191.7 46.8 190.6 47.8 190.5 49.3 C 190.5 49.3 195.1 49.3 195.1 49.3 Z M 207.1 49.8 C 207.1 49.8 202.1 49.8 202.1 49.8 C 202.2 51.4 203.2 52.4 204.6 52.4 C 205.4 52.4 206.2 52.2 206.9 51.5 C 206.9 51.5 206.9 52.1 206.9 52.1 C 206.2 52.6 205.4 52.9 204.6 52.9 C 202.8 52.9 201.6 51.6 201.6 49.6 C 201.6 47.6 203 46.3 204.5 46.3 C 205.9 46.3 207.1 47.4 207.1 49.5 C 207.1 49.6 207.1 49.7 207.1 49.8 Z M 206.6 49.3 C 206.6 47.6 205.6 46.8 204.5 46.8 C 203.3 46.8 202.2 47.8 202.1 49.3 C 202.1 49.3 206.6 49.3 206.6 49.3 Z M 213.7 48.6 C 213.74 48.56 213.7 52.8 213.7 52.8 L 213.2 52.8 C 213.2 52.8 213.23 48.77 213.2 48.8 C 213.2 47.5 212.6 46.8 211.4 46.8 C 210.3 46.8 209.5 47.5 209.5 48.7 C 209.45 48.71 209.5 52.8 209.5 52.8 L 208.9 52.8 L 208.9 46.4 L 209.3 46.4 L 209.4 47.6 C 209.4 47.6 209.42 47.56 209.4 47.6 C 209.8 46.8 210.5 46.3 211.5 46.3 C 212.8 46.3 213.7 47.2 213.7 48.6 Z M 223.2 52.4 C 223.7 52.4 224.4 52.3 224.9 51.9 C 224.9 51.9 224.9 52.5 224.9 52.5 C 224.4 52.8 223.8 52.9 223.2 52.9 C 221.5 52.9 220.1 51.5 220.1 49.6 C 220.1 47.7 221.5 46.3 223.2 46.3 C 223.8 46.3 224.4 46.4 224.9 46.8 C 224.9 46.8 224.9 47.3 224.9 47.3 C 224.3 46.9 223.8 46.8 223.2 46.8 C 221.8 46.8 220.6 47.9 220.6 49.6 C 220.6 51.3 221.9 52.4 223.2 52.4 Z M 226.1 49.6 C 226.1 47.7 227.4 46.3 229.1 46.3 C 230.8 46.3 232.2 47.7 232.2 49.6 C 232.2 51.6 230.8 52.9 229.1 52.9 C 227.5 52.9 226.1 51.6 226.1 49.6 Z M 231.7 49.6 C 231.7 47.8 230.4 46.8 229.1 46.8 C 227.8 46.8 226.6 47.8 226.6 49.6 C 226.6 51.4 227.8 52.4 229.1 52.4 C 230.4 52.4 231.7 51.4 231.7 49.6 Z M 241.7 48.5 C 241.71 48.48 241.7 52.8 241.7 52.8 L 241.2 52.8 C 241.2 52.8 241.21 48.53 241.2 48.5 C 241.2 47.5 240.7 46.8 239.7 46.8 C 238.7 46.8 238.1 47.6 238.1 48.5 C 238.1 48.54 238.1 52.8 238.1 52.8 L 237.6 52.8 C 237.6 52.8 237.6 48.53 237.6 48.5 C 237.6 47.5 237.1 46.8 236.1 46.8 C 235.1 46.8 234.5 47.6 234.5 48.6 C 234.49 48.56 234.5 52.8 234.5 52.8 L 234 52.8 L 234 46.4 L 234.4 46.4 L 234.4 47.5 C 234.4 47.5 234.45 47.48 234.5 47.5 C 234.7 46.8 235.4 46.3 236.2 46.3 C 237.1 46.3 237.7 46.8 237.9 47.6 C 238.2 46.8 238.9 46.3 239.8 46.3 C 241.1 46.3 241.7 47.2 241.7 48.5 Z M 243.9 46.4 L 244.3 46.4 C 244.3 46.4 244.39 48.04 244.4 48 C 244.9 46.9 245.9 46.3 246.9 46.3 C 248.4 46.3 249.8 47.6 249.8 49.6 C 249.8 51.6 248.4 52.9 246.9 52.9 C 245.9 52.9 244.9 52.3 244.4 51.3 C 244.43 51.25 244.4 55.4 244.4 55.4 L 243.9 55.4 L 243.9 46.4 Z M 249.3 49.6 C 249.3 47.9 248.2 46.8 246.9 46.8 C 245.5 46.8 244.4 47.9 244.4 49.6 C 244.4 51.3 245.5 52.4 246.8 52.4 C 248.2 52.4 249.3 51.3 249.3 49.6 Z M 252.2 46.4 L 254.1 46.4 L 254.1 46.9 L 252.2 46.9 C 252.2 46.9 252.25 50.8 252.2 50.8 C 252.2 52 252.9 52.4 253.8 52.4 C 254 52.4 254.1 52.4 254.3 52.4 C 254.3 52.4 254.3 52.8 254.3 52.8 C 254.3 52.8 254 52.9 253.7 52.9 C 252.6 52.9 251.7 52.2 251.7 50.8 C 251.75 50.82 251.7 46.9 251.7 46.9 L 250.8 46.9 L 250.8 46.4 L 251.8 46.4 L 251.8 44.9 L 252.2 44.9 L 252.2 46.4 Z M 260.7 49.8 C 260.7 49.8 255.7 49.8 255.7 49.8 C 255.7 51.4 256.8 52.4 258.2 52.4 C 259 52.4 259.8 52.2 260.5 51.5 C 260.5 51.5 260.5 52.1 260.5 52.1 C 259.8 52.6 259 52.9 258.2 52.9 C 256.4 52.9 255.2 51.6 255.2 49.6 C 255.2 47.6 256.6 46.3 258.1 46.3 C 259.5 46.3 260.7 47.4 260.7 49.5 C 260.7 49.6 260.7 49.7 260.7 49.8 Z M 260.2 49.3 C 260.2 47.6 259.2 46.8 258.1 46.8 C 256.9 46.8 255.8 47.8 255.7 49.3 C 255.7 49.3 260.2 49.3 260.2 49.3 Z M 266.7 49.6 C 266.7 47.6 268.1 46.3 269.6 46.3 C 270.6 46.3 271.7 46.9 272.1 48 C 272.1 47.98 272.1 43.3 272.1 43.3 L 272.6 43.3 L 272.6 52.8 L 272.2 52.8 L 272.1 51.2 C 272.1 51.2 272.13 51.19 272.1 51.2 C 271.7 52.4 270.7 52.9 269.6 52.9 C 268.1 52.9 266.7 51.6 266.7 49.6 Z M 272.1 49.6 C 272.1 47.9 271 46.8 269.7 46.8 C 268.4 46.8 267.2 47.9 267.2 49.6 C 267.2 51.3 268.4 52.4 269.7 52.4 C 271 52.4 272.1 51.3 272.1 49.6 Z M 280 49.8 C 280 49.8 274.9 49.8 274.9 49.8 C 275 51.4 276.1 52.4 277.5 52.4 C 278.3 52.4 279.1 52.2 279.8 51.5 C 279.8 51.5 279.8 52.1 279.8 52.1 C 279.1 52.6 278.3 52.9 277.5 52.9 C 275.7 52.9 274.4 51.6 274.4 49.6 C 274.4 47.6 275.9 46.3 277.4 46.3 C 278.8 46.3 280 47.4 280 49.5 C 280 49.6 280 49.7 280 49.8 Z M 279.5 49.3 C 279.5 47.6 278.5 46.8 277.4 46.8 C 276.2 46.8 275.1 47.8 275 49.3 C 275 49.3 279.5 49.3 279.5 49.3 Z M 285.4 46.9 C 285.4 46.9 285.4 47.4 285.4 47.4 C 284.9 47.1 284.3 46.8 283.6 46.8 C 282.6 46.8 282 47.3 282 48 C 282 48.7 282.7 49 283.7 49.3 C 284.7 49.7 285.7 50 285.7 51.1 C 285.7 52.2 284.8 52.9 283.5 52.9 C 282.8 52.9 282 52.7 281.4 52.2 C 281.4 52.2 281.4 51.5 281.4 51.5 C 281.9 52.1 282.7 52.4 283.5 52.4 C 284.5 52.4 285.2 51.9 285.2 51.1 C 285.2 50.4 284.5 50.1 283.4 49.7 C 282.4 49.4 281.5 49.1 281.5 48 C 281.5 47 282.3 46.3 283.6 46.3 C 284.2 46.3 284.9 46.5 285.4 46.9 Z " stroke="none" fill="#000"/>
  </g>
  <g id="Polygon30992">
    <path d="M 0.7 35.2 C 0.7 33.2 2.1 31.9 3.6 31.9 C 4.6 31.9 5.6 32.5 6.1 33.6 C 6.07 33.58 6.1 28.9 6.1 28.9 L 6.6 28.9 L 6.6 38.4 L 6.2 38.4 L 6.1 36.8 C 6.1 36.8 6.1 36.79 6.1 36.8 C 5.6 38 4.6 38.5 3.6 38.5 C 2.1 38.5 0.7 37.2 0.7 35.2 Z M 6.1 35.2 C 6.1 33.5 5 32.4 3.6 32.4 C 2.3 32.4 1.2 33.5 1.2 35.2 C 1.2 36.9 2.3 38 3.6 38 C 5 38 6.1 36.9 6.1 35.2 Z M 8.8 36.1 C 8.77 36.08 8.8 32 8.8 32 L 9.3 32 C 9.3 32 9.28 36.11 9.3 36.1 C 9.3 37.3 10 38 11.2 38 C 12.3 38 13.1 37.3 13.1 36.1 C 13.07 36.1 13.1 32 13.1 32 L 13.6 32 C 13.6 32 13.57 36.07 13.6 36.1 C 13.6 37.5 12.6 38.5 11.2 38.5 C 9.7 38.5 8.8 37.5 8.8 36.1 Z M 23 33.6 C 23.4 32.5 24.4 31.9 25.4 31.9 C 26.9 31.9 28.3 33.2 28.3 35.2 C 28.3 37.2 26.9 38.5 25.4 38.5 C 24.4 38.5 23.4 38 22.9 36.8 C 22.92 36.79 22.9 38.4 22.9 38.4 L 22.5 38.4 L 22.5 28.9 L 23 28.9 C 23 28.9 22.96 33.59 23 33.6 Z M 22.9 35.2 C 22.9 36.9 24.1 38 25.4 38 C 26.7 38 27.8 36.9 27.8 35.2 C 27.8 33.5 26.7 32.4 25.4 32.4 C 24.1 32.4 22.9 33.5 22.9 35.2 Z M 29.7 35.2 C 29.7 33.3 31.1 31.9 32.8 31.9 C 34.4 31.9 35.8 33.3 35.8 35.2 C 35.8 37.2 34.4 38.5 32.8 38.5 C 31.1 38.5 29.7 37.2 29.7 35.2 Z M 35.3 35.2 C 35.3 33.4 34.1 32.4 32.8 32.4 C 31.5 32.4 30.2 33.4 30.2 35.2 C 30.2 37 31.5 38 32.8 38 C 34.1 38 35.3 37 35.3 35.2 Z M 37.5 29.7 C 37.5 29.5 37.7 29.3 37.9 29.3 C 38.2 29.3 38.3 29.5 38.3 29.7 C 38.3 29.9 38.2 30.1 37.9 30.1 C 37.7 30.1 37.5 29.9 37.5 29.7 Z M 37.7 32 L 38.2 32 L 38.2 38.4 L 37.7 38.4 L 37.7 32 Z M 44 32.5 C 44 32.5 44 33 44 33 C 43.5 32.7 42.9 32.4 42.2 32.4 C 41.3 32.4 40.6 32.9 40.6 33.6 C 40.6 34.3 41.3 34.6 42.3 34.9 C 43.3 35.3 44.3 35.6 44.3 36.7 C 44.3 37.8 43.5 38.5 42.2 38.5 C 41.4 38.5 40.7 38.3 40 37.8 C 40 37.8 40 37.1 40 37.1 C 40.6 37.7 41.3 38 42.2 38 C 43.2 38 43.8 37.5 43.8 36.7 C 43.8 36 43.1 35.7 42.1 35.3 C 41 35 40.1 34.7 40.1 33.6 C 40.1 32.6 41 31.9 42.2 31.9 C 42.9 31.9 43.5 32.1 44 32.5 Z M 45.9 38 C 45.9 37.7 46.1 37.5 46.3 37.5 C 46.6 37.5 46.8 37.7 46.8 38 C 46.8 38.2 46.6 38.4 46.3 38.4 C 46.1 38.4 45.9 38.2 45.9 38 Z M 62.3 33.9 C 62.3 36.7 60.4 38.4 57.6 38.4 C 57.62 38.4 55.8 38.4 55.8 38.4 L 55.8 29.5 C 55.8 29.5 57.62 29.48 57.6 29.5 C 60.4 29.5 62.3 31.2 62.3 33.9 Z M 56.3 37.9 C 56.3 37.9 57.64 37.92 57.6 37.9 C 60 37.9 61.8 36.5 61.8 33.9 C 61.8 31.4 60 30 57.7 30 C 57.65 29.98 56.3 30 56.3 30 L 56.3 37.9 Z M 63.8 35.2 C 63.8 33.2 65.2 31.9 66.7 31.9 C 67.7 31.9 68.7 32.5 69.2 33.6 C 69.16 33.62 69.2 32 69.2 32 L 69.6 32 L 69.6 38.4 L 69.2 38.4 C 69.2 38.4 69.16 36.8 69.2 36.8 C 68.7 38 67.7 38.5 66.7 38.5 C 65.2 38.5 63.8 37.2 63.8 35.2 Z M 69.2 35.2 C 69.2 33.5 68 32.4 66.7 32.4 C 65.4 32.4 64.3 33.5 64.3 35.2 C 64.3 36.9 65.4 38 66.7 38 C 68 38 69.2 36.9 69.2 35.2 Z M 76.7 34.2 C 76.7 34.16 76.7 38.4 76.7 38.4 L 76.2 38.4 C 76.2 38.4 76.2 34.37 76.2 34.4 C 76.2 33.1 75.5 32.4 74.4 32.4 C 73.3 32.4 72.4 33.1 72.4 34.3 C 72.41 34.31 72.4 38.4 72.4 38.4 L 71.9 38.4 L 71.9 32 L 72.3 32 L 72.4 33.2 C 72.4 33.2 72.38 33.16 72.4 33.2 C 72.7 32.4 73.5 31.9 74.5 31.9 C 75.8 31.9 76.7 32.8 76.7 34.2 Z M 82.4 32.5 C 82.4 32.5 82.4 33 82.4 33 C 81.9 32.7 81.3 32.4 80.6 32.4 C 79.7 32.4 79 32.9 79 33.6 C 79 34.3 79.7 34.6 80.7 34.9 C 81.8 35.3 82.8 35.6 82.8 36.7 C 82.8 37.8 81.9 38.5 80.6 38.5 C 79.8 38.5 79.1 38.3 78.5 37.8 C 78.5 37.8 78.5 37.1 78.5 37.1 C 79 37.7 79.8 38 80.6 38 C 81.6 38 82.3 37.5 82.3 36.7 C 82.3 36 81.5 35.7 80.5 35.3 C 79.5 35 78.5 34.7 78.5 33.6 C 78.5 32.6 79.4 31.9 80.6 31.9 C 81.3 31.9 82 32.1 82.4 32.5 Z M 91.2 28.9 L 91.7 28.9 L 91.7 38.4 L 91.2 38.4 L 91.2 28.9 Z M 99.2 35.4 C 99.2 35.4 94.1 35.4 94.1 35.4 C 94.2 37 95.2 38 96.7 38 C 97.4 38 98.3 37.8 98.9 37.1 C 98.9 37.1 98.9 37.7 98.9 37.7 C 98.3 38.2 97.5 38.5 96.6 38.5 C 94.9 38.5 93.6 37.2 93.6 35.2 C 93.6 33.2 95 31.9 96.6 31.9 C 98 31.9 99.2 33 99.2 35.1 C 99.2 35.2 99.2 35.3 99.2 35.4 Z M 98.7 34.9 C 98.7 33.2 97.6 32.4 96.6 32.4 C 95.3 32.4 94.2 33.4 94.1 34.9 C 94.1 34.9 98.7 34.9 98.7 34.9 Z M 108.2 33.6 C 108.6 32.5 109.6 31.9 110.7 31.9 C 112.2 31.9 113.6 33.2 113.6 35.2 C 113.6 37.2 112.2 38.5 110.7 38.5 C 109.6 38.5 108.6 38 108.1 36.8 C 108.15 36.79 108.1 38.4 108.1 38.4 L 107.7 38.4 L 107.7 28.9 L 108.2 28.9 C 108.2 28.9 108.18 33.59 108.2 33.6 Z M 108.2 35.2 C 108.2 36.9 109.3 38 110.6 38 C 111.9 38 113.1 36.9 113.1 35.2 C 113.1 33.5 111.9 32.4 110.6 32.4 C 109.3 32.4 108.2 33.5 108.2 35.2 Z M 115.3 36.1 C 115.31 36.08 115.3 32 115.3 32 L 115.8 32 C 115.8 32 115.81 36.11 115.8 36.1 C 115.8 37.3 116.5 38 117.7 38 C 118.9 38 119.6 37.3 119.6 36.1 C 119.61 36.1 119.6 32 119.6 32 L 120.1 32 C 120.1 32 120.11 36.07 120.1 36.1 C 120.1 37.5 119.2 38.5 117.7 38.5 C 116.2 38.5 115.3 37.5 115.3 36.1 Z M 123 32 L 124.9 32 L 124.9 32.5 L 123 32.5 C 123 32.5 122.99 36.4 123 36.4 C 123 37.6 123.6 38 124.5 38 C 124.7 38 124.9 38 125.1 38 C 125.1 38 125.1 38.4 125.1 38.4 C 125 38.4 124.7 38.5 124.5 38.5 C 123.3 38.5 122.5 37.8 122.5 36.4 C 122.49 36.42 122.5 32.5 122.5 32.5 L 121.5 32.5 L 121.5 32 L 122.5 32 L 122.5 30.5 L 123 30.5 L 123 32 Z M 132.6 35.2 C 132.6 33.2 134 31.9 135.5 31.9 C 136.5 31.9 137.5 32.5 138 33.6 C 137.97 33.58 138 28.9 138 28.9 L 138.5 28.9 L 138.5 38.4 L 138.1 38.4 L 138 36.8 C 138 36.8 137.99 36.79 138 36.8 C 137.5 38 136.5 38.5 135.5 38.5 C 134 38.5 132.6 37.2 132.6 35.2 Z M 138 35.2 C 138 33.5 136.9 32.4 135.5 32.4 C 134.2 32.4 133.1 33.5 133.1 35.2 C 133.1 36.9 134.2 38 135.5 38 C 136.9 38 138 36.9 138 35.2 Z M 145.9 35.4 C 145.9 35.4 140.8 35.4 140.8 35.4 C 140.9 37 141.9 38 143.4 38 C 144.1 38 145 37.8 145.6 37.1 C 145.6 37.1 145.6 37.7 145.6 37.7 C 145 38.2 144.2 38.5 143.3 38.5 C 141.6 38.5 140.3 37.2 140.3 35.2 C 140.3 33.2 141.7 31.9 143.3 31.9 C 144.7 31.9 145.9 33 145.9 35.1 C 145.9 35.2 145.9 35.3 145.9 35.4 Z M 145.4 34.9 C 145.4 33.2 144.3 32.4 143.3 32.4 C 142 32.4 140.9 33.4 140.8 34.9 C 140.8 34.9 145.4 34.9 145.4 34.9 Z M 157 38 C 157.5 38 158.2 37.9 158.7 37.5 C 158.7 37.5 158.7 38.1 158.7 38.1 C 158.2 38.4 157.6 38.5 157 38.5 C 155.3 38.5 153.9 37.1 153.9 35.2 C 153.9 33.3 155.3 31.9 157 31.9 C 157.6 31.9 158.2 32 158.7 32.4 C 158.7 32.4 158.7 32.9 158.7 32.9 C 158.2 32.5 157.6 32.4 157 32.4 C 155.6 32.4 154.4 33.5 154.4 35.2 C 154.4 36.9 155.7 38 157 38 Z M 159.9 35.2 C 159.9 33.3 161.3 31.9 162.9 31.9 C 164.6 31.9 166 33.3 166 35.2 C 166 37.2 164.6 38.5 162.9 38.5 C 161.3 38.5 159.9 37.2 159.9 35.2 Z M 165.5 35.2 C 165.5 33.4 164.2 32.4 162.9 32.4 C 161.6 32.4 160.4 33.4 160.4 35.2 C 160.4 37 161.6 38 162.9 38 C 164.2 38 165.5 37 165.5 35.2 Z M 175.5 34.1 C 175.52 34.08 175.5 38.4 175.5 38.4 L 175 38.4 C 175 38.4 175.02 34.13 175 34.1 C 175 33.1 174.5 32.4 173.5 32.4 C 172.5 32.4 171.9 33.2 171.9 34.1 C 171.91 34.14 171.9 38.4 171.9 38.4 L 171.4 38.4 C 171.4 38.4 171.41 34.13 171.4 34.1 C 171.4 33.1 170.9 32.4 169.9 32.4 C 168.9 32.4 168.3 33.2 168.3 34.2 C 168.3 34.16 168.3 38.4 168.3 38.4 L 167.8 38.4 L 167.8 32 L 168.2 32 L 168.2 33.1 C 168.2 33.1 168.26 33.08 168.3 33.1 C 168.5 32.4 169.2 31.9 170 31.9 C 170.9 31.9 171.5 32.4 171.8 33.2 C 172 32.4 172.7 31.9 173.6 31.9 C 174.9 31.9 175.5 32.8 175.5 34.1 Z M 177.7 32 L 178.1 32 C 178.1 32 178.2 33.64 178.2 33.6 C 178.7 32.5 179.7 31.9 180.7 31.9 C 182.2 31.9 183.6 33.2 183.6 35.2 C 183.6 37.2 182.2 38.5 180.7 38.5 C 179.7 38.5 178.7 37.9 178.2 36.9 C 178.23 36.85 178.2 41 178.2 41 L 177.7 41 L 177.7 32 Z M 183.1 35.2 C 183.1 33.5 182 32.4 180.7 32.4 C 179.3 32.4 178.2 33.5 178.2 35.2 C 178.2 36.9 179.3 38 180.7 38 C 182 38 183.1 36.9 183.1 35.2 Z M 185.5 28.9 L 186 28.9 L 186 38.4 L 185.5 38.4 L 185.5 28.9 Z M 190.6 30.9 L 190.1 30.9 L 191.5 29 L 192.1 29 L 190.6 30.9 Z M 193.4 35.4 C 193.4 35.4 188.4 35.4 188.4 35.4 C 188.4 37 189.5 38 190.9 38 C 191.7 38 192.5 37.8 193.2 37.1 C 193.2 37.1 193.2 37.7 193.2 37.7 C 192.5 38.2 191.7 38.5 190.9 38.5 C 189.1 38.5 187.9 37.2 187.9 35.2 C 187.9 33.2 189.3 31.9 190.8 31.9 C 192.2 31.9 193.4 33 193.4 35.1 C 193.4 35.2 193.4 35.3 193.4 35.4 Z M 192.9 34.9 C 192.9 33.2 191.9 32.4 190.8 32.4 C 189.6 32.4 188.5 33.4 188.4 34.9 C 188.4 34.9 192.9 34.9 192.9 34.9 Z M 195.9 32 L 197.8 32 L 197.8 32.5 L 195.9 32.5 C 195.9 32.5 195.86 36.4 195.9 36.4 C 195.9 37.6 196.5 38 197.4 38 C 197.6 38 197.7 38 197.9 38 C 197.9 38 197.9 38.4 197.9 38.4 C 197.9 38.4 197.6 38.5 197.3 38.5 C 196.2 38.5 195.4 37.8 195.4 36.4 C 195.36 36.42 195.4 32.5 195.4 32.5 L 194.4 32.5 L 194.4 32 L 195.4 32 L 195.4 30.5 L 195.9 30.5 L 195.9 32 Z M 204.3 35.4 C 204.3 35.4 199.3 35.4 199.3 35.4 C 199.4 37 200.4 38 201.8 38 C 202.6 38 203.4 37.8 204.1 37.1 C 204.1 37.1 204.1 37.7 204.1 37.7 C 203.4 38.2 202.6 38.5 201.8 38.5 C 200 38.5 198.8 37.2 198.8 35.2 C 198.8 33.2 200.2 31.9 201.7 31.9 C 203.1 31.9 204.3 33 204.3 35.1 C 204.3 35.2 204.3 35.3 204.3 35.4 Z M 203.8 34.9 C 203.8 33.2 202.8 32.4 201.7 32.4 C 200.5 32.4 199.4 33.4 199.3 34.9 C 199.3 34.9 203.8 34.9 203.8 34.9 Z M 206.1 32 L 206.6 32 L 206.6 33.2 C 206.6 33.2 206.61 33.22 206.6 33.2 C 207 32.3 207.8 32 208.5 32 C 208.6 32 208.8 32 208.9 32 C 208.9 32 208.9 32.5 208.9 32.5 C 208.8 32.5 208.6 32.5 208.5 32.5 C 207.6 32.5 206.7 33.1 206.6 34.4 C 206.65 34.37 206.6 38.4 206.6 38.4 L 206.1 38.4 L 206.1 32 Z M 216.6 28.9 L 217.1 28.9 L 217.1 38.4 L 216.6 38.4 L 216.6 28.9 Z M 219 35.2 C 219 33.2 220.4 31.9 221.9 31.9 C 222.9 31.9 223.9 32.5 224.4 33.6 C 224.41 33.62 224.5 32 224.5 32 L 224.9 32 L 224.9 38.4 L 224.5 38.4 C 224.5 38.4 224.41 36.8 224.4 36.8 C 223.9 38 222.9 38.5 221.9 38.5 C 220.4 38.5 219 37.2 219 35.2 Z M 224.4 35.2 C 224.4 33.5 223.3 32.4 222 32.4 C 220.6 32.4 219.5 33.5 219.5 35.2 C 219.5 36.9 220.6 38 222 38 C 223.3 38 224.4 36.9 224.4 35.2 Z M 236.5 38 C 237 38 237.6 37.9 238.2 37.5 C 238.2 37.5 238.2 38.1 238.2 38.1 C 237.7 38.4 237.1 38.5 236.5 38.5 C 234.7 38.5 233.4 37.1 233.4 35.2 C 233.4 33.3 234.7 31.9 236.5 31.9 C 237.1 31.9 237.7 32 238.2 32.4 C 238.2 32.4 238.2 32.9 238.2 32.9 C 237.6 32.5 237.1 32.4 236.5 32.4 C 235.1 32.4 233.9 33.5 233.9 35.2 C 233.9 36.9 235.1 38 236.5 38 Z M 239.4 35.2 C 239.4 33.3 240.7 31.9 242.4 31.9 C 244.1 31.9 245.4 33.3 245.4 35.2 C 245.4 37.2 244.1 38.5 242.4 38.5 C 240.7 38.5 239.4 37.2 239.4 35.2 Z M 244.9 35.2 C 244.9 33.4 243.7 32.4 242.4 32.4 C 241.1 32.4 239.9 33.4 239.9 35.2 C 239.9 37 241.1 38 242.4 38 C 243.7 38 244.9 37 244.9 35.2 Z M 247.3 28.9 L 247.8 28.9 L 247.8 38.4 L 247.3 38.4 L 247.3 28.9 Z M 250.2 28.9 L 250.7 28.9 L 250.7 38.4 L 250.2 38.4 L 250.2 28.9 Z M 258.1 35.4 C 258.1 35.4 253 35.4 253 35.4 C 253.1 37 254.2 38 255.6 38 C 256.4 38 257.2 37.8 257.9 37.1 C 257.9 37.1 257.9 37.7 257.9 37.7 C 257.2 38.2 256.4 38.5 255.6 38.5 C 253.8 38.5 252.5 37.2 252.5 35.2 C 252.5 33.2 253.9 31.9 255.5 31.9 C 256.9 31.9 258.1 33 258.1 35.1 C 258.1 35.2 258.1 35.3 258.1 35.4 Z M 257.6 34.9 C 257.6 33.2 256.6 32.4 255.5 32.4 C 254.3 32.4 253.2 33.4 253 34.9 C 253 34.9 257.6 34.9 257.6 34.9 Z M 262.5 38 C 263 38 263.7 37.9 264.3 37.5 C 264.3 37.5 264.3 38.1 264.3 38.1 C 263.8 38.4 263.2 38.5 262.5 38.5 C 260.8 38.5 259.5 37.1 259.5 35.2 C 259.5 33.3 260.8 31.9 262.5 31.9 C 263.1 31.9 263.7 32 264.3 32.4 C 264.3 32.4 264.3 32.9 264.3 32.9 C 263.7 32.5 263.1 32.4 262.5 32.4 C 261.2 32.4 260 33.5 260 35.2 C 260 36.9 261.2 38 262.5 38 Z M 266.7 32 L 268.6 32 L 268.6 32.5 L 266.7 32.5 C 266.7 32.5 266.72 36.4 266.7 36.4 C 266.7 37.6 267.4 38 268.3 38 C 268.4 38 268.6 38 268.8 38 C 268.8 38 268.8 38.4 268.8 38.4 C 268.7 38.4 268.5 38.5 268.2 38.5 C 267 38.5 266.2 37.8 266.2 36.4 C 266.21 36.42 266.2 32.5 266.2 32.5 L 265.2 32.5 L 265.2 32 L 266.2 32 L 266.2 30.5 L 266.7 30.5 L 266.7 32 Z M 270 29.7 C 270 29.5 270.2 29.3 270.4 29.3 C 270.7 29.3 270.8 29.5 270.8 29.7 C 270.8 29.9 270.7 30.1 270.4 30.1 C 270.2 30.1 270 29.9 270 29.7 Z M 270.2 32 L 270.7 32 L 270.7 38.4 L 270.2 38.4 L 270.2 32 Z M 272.5 35.2 C 272.5 33.3 273.9 31.9 275.6 31.9 C 277.3 31.9 278.6 33.3 278.6 35.2 C 278.6 37.2 277.3 38.5 275.6 38.5 C 273.9 38.5 272.5 37.2 272.5 35.2 Z M 278.1 35.2 C 278.1 33.4 276.9 32.4 275.6 32.4 C 274.3 32.4 273.1 33.4 273.1 35.2 C 273.1 37 274.3 38 275.6 38 C 276.9 38 278.1 37 278.1 35.2 Z M 285.2 34.2 C 285.24 34.16 285.2 38.4 285.2 38.4 L 284.7 38.4 C 284.7 38.4 284.74 34.37 284.7 34.4 C 284.7 33.1 284.1 32.4 282.9 32.4 C 281.8 32.4 281 33.1 281 34.3 C 280.96 34.31 281 38.4 281 38.4 L 280.5 38.4 L 280.5 32 L 280.9 32 L 280.9 33.2 C 280.9 33.2 280.92 33.16 280.9 33.2 C 281.3 32.4 282 31.9 283 31.9 C 284.4 31.9 285.2 32.8 285.2 34.2 Z " stroke="none" fill="#000"/>
  </g>
  <g id="Polygon30991">
    <path d="M 0.7 20.8 C 0.7 18.8 2.1 17.5 3.6 17.5 C 4.6 17.5 5.6 18.1 6.1 19.2 C 6.07 19.18 6.1 14.5 6.1 14.5 L 6.6 14.5 L 6.6 24 L 6.2 24 L 6.1 22.4 C 6.1 22.4 6.1 22.39 6.1 22.4 C 5.6 23.6 4.6 24.1 3.6 24.1 C 2.1 24.1 0.7 22.8 0.7 20.8 Z M 6.1 20.8 C 6.1 19.1 5 18 3.6 18 C 2.3 18 1.2 19.1 1.2 20.8 C 1.2 22.5 2.3 23.6 3.6 23.6 C 5 23.6 6.1 22.5 6.1 20.8 Z M 14 21 C 14 21 8.9 21 8.9 21 C 9 22.6 10 23.6 11.5 23.6 C 12.2 23.6 13.1 23.4 13.7 22.7 C 13.7 22.7 13.7 23.3 13.7 23.3 C 13.1 23.8 12.3 24.1 11.4 24.1 C 9.7 24.1 8.4 22.8 8.4 20.8 C 8.4 18.8 9.8 17.5 11.4 17.5 C 12.8 17.5 14 18.6 14 20.7 C 14 20.8 14 20.9 14 21 Z M 13.5 20.5 C 13.5 18.8 12.4 18 11.4 18 C 10.2 18 9 19 8.9 20.5 C 8.9 20.5 13.5 20.5 13.5 20.5 Z M 14.8 17.6 L 15.4 17.6 L 17.5 23.4 L 17.5 23.4 L 19.6 17.6 L 20.1 17.6 L 17.7 24 L 17.2 24 L 14.8 17.6 Z M 21.5 15.3 C 21.5 15.1 21.7 14.9 21.9 14.9 C 22.2 14.9 22.3 15.1 22.3 15.3 C 22.3 15.5 22.2 15.7 21.9 15.7 C 21.7 15.7 21.5 15.5 21.5 15.3 Z M 21.7 17.6 L 22.2 17.6 L 22.2 24 L 21.7 24 L 21.7 17.6 Z M 24 20.8 C 24 18.9 25.4 17.5 27.1 17.5 C 28.8 17.5 30.1 18.9 30.1 20.8 C 30.1 22.8 28.8 24.1 27.1 24.1 C 25.4 24.1 24 22.8 24 20.8 Z M 29.6 20.8 C 29.6 19 28.4 18 27.1 18 C 25.8 18 24.5 19 24.5 20.8 C 24.5 22.6 25.8 23.6 27.1 23.6 C 28.4 23.6 29.6 22.6 29.6 20.8 Z M 36.7 19.8 C 36.73 19.76 36.7 24 36.7 24 L 36.2 24 C 36.2 24 36.23 19.97 36.2 20 C 36.2 18.7 35.6 18 34.4 18 C 33.3 18 32.4 18.7 32.4 19.9 C 32.45 19.91 32.4 24 32.4 24 L 31.9 24 L 31.9 17.6 L 32.3 17.6 L 32.4 18.8 C 32.4 18.8 32.41 18.76 32.4 18.8 C 32.8 18 33.5 17.5 34.5 17.5 C 35.8 17.5 36.7 18.4 36.7 19.8 Z M 42.5 18.1 C 42.5 18.1 42.5 18.6 42.5 18.6 C 42 18.3 41.4 18 40.7 18 C 39.7 18 39.1 18.5 39.1 19.2 C 39.1 19.9 39.8 20.2 40.8 20.5 C 41.8 20.9 42.8 21.2 42.8 22.3 C 42.8 23.4 41.9 24.1 40.6 24.1 C 39.9 24.1 39.1 23.9 38.5 23.4 C 38.5 23.4 38.5 22.7 38.5 22.7 C 39 23.3 39.8 23.6 40.6 23.6 C 41.6 23.6 42.3 23.1 42.3 22.3 C 42.3 21.6 41.6 21.3 40.5 20.9 C 39.5 20.6 38.6 20.3 38.6 19.2 C 38.6 18.2 39.4 17.5 40.7 17.5 C 41.3 17.5 42 17.7 42.5 18.1 Z M 49.6 17.6 L 50 17.6 C 50 17.6 50.04 19.24 50 19.2 C 50.5 18.1 51.5 17.5 52.5 17.5 C 54.1 17.5 55.4 18.8 55.4 20.8 C 55.4 22.8 54.1 24.1 52.5 24.1 C 51.5 24.1 50.5 23.5 50.1 22.5 C 50.07 22.45 50.1 26.6 50.1 26.6 L 49.6 26.6 L 49.6 17.6 Z M 54.9 20.8 C 54.9 19.1 53.8 18 52.5 18 C 51.2 18 50 19.1 50 20.8 C 50 22.5 51.2 23.6 52.5 23.6 C 53.8 23.6 54.9 22.5 54.9 20.8 Z M 62.4 21 C 62.4 21 57.3 21 57.3 21 C 57.4 22.6 58.5 23.6 59.9 23.6 C 60.7 23.6 61.5 23.4 62.2 22.7 C 62.2 22.7 62.2 23.3 62.2 23.3 C 61.5 23.8 60.7 24.1 59.9 24.1 C 58.1 24.1 56.8 22.8 56.8 20.8 C 56.8 18.8 58.3 17.5 59.8 17.5 C 61.2 17.5 62.4 18.6 62.4 20.7 C 62.4 20.8 62.4 20.9 62.4 21 Z M 61.9 20.5 C 61.9 18.8 60.9 18 59.8 18 C 58.6 18 57.5 19 57.4 20.5 C 57.4 20.5 61.9 20.5 61.9 20.5 Z M 69 19.8 C 69.01 19.76 69 24 69 24 L 68.5 24 C 68.5 24 68.51 19.97 68.5 20 C 68.5 18.7 67.8 18 66.7 18 C 65.6 18 64.7 18.7 64.7 19.9 C 64.72 19.91 64.7 24 64.7 24 L 64.2 24 L 64.2 17.6 L 64.6 17.6 L 64.7 18.8 C 64.7 18.8 64.69 18.76 64.7 18.8 C 65 18 65.8 17.5 66.8 17.5 C 68.1 17.5 69 18.4 69 19.8 Z M 74.8 18.1 C 74.8 18.1 74.8 18.6 74.8 18.6 C 74.3 18.3 73.6 18 72.9 18 C 72 18 71.4 18.5 71.4 19.2 C 71.4 19.9 72 20.2 73 20.5 C 74.1 20.9 75.1 21.2 75.1 22.3 C 75.1 23.4 74.2 24.1 72.9 24.1 C 72.2 24.1 71.4 23.9 70.8 23.4 C 70.8 23.4 70.8 22.7 70.8 22.7 C 71.3 23.3 72.1 23.6 72.9 23.6 C 73.9 23.6 74.6 23.1 74.6 22.3 C 74.6 21.6 73.8 21.3 72.8 20.9 C 71.8 20.6 70.9 20.3 70.9 19.2 C 70.9 18.2 71.7 17.5 72.9 17.5 C 73.6 17.5 74.3 17.7 74.8 18.1 Z M 81.9 21 C 81.9 21 76.9 21 76.9 21 C 77 22.6 78 23.6 79.4 23.6 C 80.2 23.6 81 23.4 81.7 22.7 C 81.7 22.7 81.7 23.3 81.7 23.3 C 81 23.8 80.2 24.1 79.4 24.1 C 77.6 24.1 76.4 22.8 76.4 20.8 C 76.4 18.8 77.8 17.5 79.3 17.5 C 80.7 17.5 82 18.6 82 20.7 C 82 20.8 81.9 20.9 81.9 21 Z M 81.5 20.5 C 81.4 18.8 80.4 18 79.3 18 C 78.1 18 77 19 76.9 20.5 C 76.9 20.5 81.5 20.5 81.5 20.5 Z M 83.8 17.6 L 84.2 17.6 L 84.2 18.8 C 84.2 18.8 84.22 18.82 84.2 18.8 C 84.6 17.9 85.5 17.6 86.1 17.6 C 86.2 17.6 86.4 17.6 86.5 17.6 C 86.5 17.6 86.5 18.1 86.5 18.1 C 86.4 18.1 86.2 18.1 86.1 18.1 C 85.2 18.1 84.3 18.7 84.3 20 C 84.26 19.97 84.3 24 84.3 24 L 83.8 24 L 83.8 17.6 Z M 92.5 21.7 C 92.47 21.68 92.5 17.6 92.5 17.6 L 93 17.6 C 93 17.6 92.97 21.71 93 21.7 C 93 22.9 93.7 23.6 94.9 23.6 C 96 23.6 96.8 22.9 96.8 21.7 C 96.76 21.7 96.8 17.6 96.8 17.6 L 97.3 17.6 C 97.3 17.6 97.26 21.67 97.3 21.7 C 97.3 23.1 96.3 24.1 94.9 24.1 C 93.4 24.1 92.5 23.1 92.5 21.7 Z M 104.2 19.8 C 104.25 19.76 104.2 24 104.2 24 L 103.7 24 C 103.7 24 103.75 19.97 103.7 20 C 103.7 18.7 103.1 18 101.9 18 C 100.9 18 100 18.7 100 19.9 C 99.96 19.91 100 24 100 24 L 99.5 24 L 99.5 17.6 L 99.9 17.6 L 99.9 18.8 C 99.9 18.8 99.93 18.76 99.9 18.8 C 100.3 18 101 17.5 102 17.5 C 103.4 17.5 104.2 18.4 104.2 19.8 Z M 111.5 14.5 L 112 14.5 L 112 24 L 111.5 24 L 111.5 14.5 Z M 114.2 21.7 C 114.24 21.68 114.2 17.6 114.2 17.6 L 114.7 17.6 C 114.7 17.6 114.75 21.71 114.7 21.7 C 114.7 22.9 115.5 23.6 116.6 23.6 C 117.8 23.6 118.5 22.9 118.5 21.7 C 118.54 21.7 118.5 17.6 118.5 17.6 L 119 17.6 C 119 17.6 119.04 21.67 119 21.7 C 119 23.1 118.1 24.1 116.6 24.1 C 115.2 24.1 114.2 23.1 114.2 21.7 Z M 129 19.7 C 128.97 19.68 129 24 129 24 L 128.5 24 C 128.5 24 128.46 19.73 128.5 19.7 C 128.5 18.7 128 18 127 18 C 126 18 125.4 18.8 125.4 19.7 C 125.35 19.74 125.4 24 125.4 24 L 124.9 24 C 124.9 24 124.85 19.73 124.9 19.7 C 124.9 18.7 124.3 18 123.4 18 C 122.3 18 121.7 18.8 121.7 19.8 C 121.74 19.76 121.7 24 121.7 24 L 121.2 24 L 121.2 17.6 L 121.6 17.6 L 121.7 18.7 C 121.7 18.7 121.71 18.68 121.7 18.7 C 122 18 122.6 17.5 123.4 17.5 C 124.4 17.5 124.9 18 125.2 18.8 C 125.5 18 126.1 17.5 127 17.5 C 128.3 17.5 129 18.4 129 19.7 Z M 131.1 15.3 C 131.1 15.1 131.2 14.9 131.5 14.9 C 131.7 14.9 131.9 15.1 131.9 15.3 C 131.9 15.5 131.7 15.7 131.5 15.7 C 131.2 15.7 131.1 15.5 131.1 15.3 Z M 131.2 17.6 L 131.7 17.6 L 131.7 24 L 131.2 24 L 131.2 17.6 Z M 138.8 19.8 C 138.82 19.76 138.8 24 138.8 24 L 138.3 24 C 138.3 24 138.32 19.97 138.3 20 C 138.3 18.7 137.7 18 136.5 18 C 135.4 18 134.5 18.7 134.5 19.9 C 134.53 19.91 134.5 24 134.5 24 L 134 24 L 134 17.6 L 134.4 17.6 L 134.5 18.8 C 134.5 18.8 134.5 18.76 134.5 18.8 C 134.8 18 135.6 17.5 136.6 17.5 C 137.9 17.5 138.8 18.4 138.8 19.8 Z M 140.6 20.8 C 140.6 18.8 142 17.5 143.5 17.5 C 144.5 17.5 145.5 18.1 146 19.2 C 145.97 19.22 146 17.6 146 17.6 L 146.4 17.6 L 146.4 24 L 146 24 C 146 24 145.97 22.4 146 22.4 C 145.5 23.6 144.5 24.1 143.5 24.1 C 142 24.1 140.6 22.8 140.6 20.8 Z M 146 20.8 C 146 19.1 144.8 18 143.5 18 C 142.2 18 141.1 19.1 141.1 20.8 C 141.1 22.5 142.2 23.6 143.5 23.6 C 144.8 23.6 146 22.5 146 20.8 Z M 148.6 15.3 C 148.6 15.1 148.8 14.9 149 14.9 C 149.2 14.9 149.4 15.1 149.4 15.3 C 149.4 15.5 149.2 15.7 149 15.7 C 148.8 15.7 148.6 15.5 148.6 15.3 Z M 148.8 17.6 L 149.3 17.6 L 149.3 24 L 148.8 24 L 148.8 17.6 Z M 151.6 17.6 L 152 17.6 L 152 18.8 C 152 18.8 152.04 18.82 152 18.8 C 152.4 17.9 153.3 17.6 153.9 17.6 C 154.1 17.6 154.2 17.6 154.3 17.6 C 154.3 17.6 154.3 18.1 154.3 18.1 C 154.2 18.1 154.1 18.1 153.9 18.1 C 153 18.1 152.1 18.7 152.1 20 C 152.08 19.97 152.1 24 152.1 24 L 151.6 24 L 151.6 17.6 Z M 160.4 21 C 160.4 21 155.4 21 155.4 21 C 155.5 22.6 156.5 23.6 157.9 23.6 C 158.7 23.6 159.5 23.4 160.2 22.7 C 160.2 22.7 160.2 23.3 160.2 23.3 C 159.5 23.8 158.8 24.1 157.9 24.1 C 156.1 24.1 154.9 22.8 154.9 20.8 C 154.9 18.8 156.3 17.5 157.8 17.5 C 159.3 17.5 160.5 18.6 160.5 20.7 C 160.5 20.8 160.5 20.9 160.4 21 Z M 160 20.5 C 159.9 18.8 158.9 18 157.8 18 C 156.6 18 155.5 19 155.4 20.5 C 155.4 20.5 160 20.5 160 20.5 Z M 172.2 19.2 C 172.25 19.24 172.3 17.6 172.3 17.6 L 172.7 17.6 L 172.7 26.6 L 172.2 26.6 C 172.2 26.6 172.21 22.44 172.2 22.4 C 171.8 23.5 170.8 24.1 169.8 24.1 C 168.2 24.1 166.8 22.8 166.8 20.8 C 166.8 18.8 168.2 17.5 169.7 17.5 C 170.8 17.5 171.8 18.1 172.2 19.2 Z M 167.3 20.8 C 167.3 22.5 168.5 23.6 169.8 23.6 C 171.1 23.6 172.2 22.5 172.2 20.8 C 172.2 19.1 171.1 18 169.8 18 C 168.5 18 167.3 19.1 167.3 20.8 Z M 174.9 21.7 C 174.91 21.68 174.9 17.6 174.9 17.6 L 175.4 17.6 C 175.4 17.6 175.41 21.71 175.4 21.7 C 175.4 22.9 176.1 23.6 177.3 23.6 C 178.5 23.6 179.2 22.9 179.2 21.7 C 179.21 21.7 179.2 17.6 179.2 17.6 L 179.7 17.6 C 179.7 17.6 179.71 21.67 179.7 21.7 C 179.7 23.1 178.8 24.1 177.3 24.1 C 175.8 24.1 174.9 23.1 174.9 21.7 Z M 181.8 15.3 C 181.8 15.1 182 14.9 182.2 14.9 C 182.4 14.9 182.6 15.1 182.6 15.3 C 182.6 15.5 182.4 15.7 182.2 15.7 C 182 15.7 181.8 15.5 181.8 15.3 Z M 181.9 17.6 L 182.4 17.6 L 182.4 24 L 181.9 24 L 181.9 17.6 Z M 188.8 17.6 L 189.3 17.6 L 191.4 23.4 L 191.4 23.4 L 193.5 17.6 L 194 17.6 L 191.7 24 L 191.1 24 L 188.8 17.6 Z M 194.9 20.8 C 194.9 18.8 196.3 17.5 197.8 17.5 C 198.8 17.5 199.9 18.1 200.3 19.2 C 200.34 19.22 200.4 17.6 200.4 17.6 L 200.8 17.6 L 200.8 24 L 200.4 24 C 200.4 24 200.34 22.4 200.3 22.4 C 199.9 23.6 198.8 24.1 197.8 24.1 C 196.3 24.1 194.9 22.8 194.9 20.8 Z M 200.3 20.8 C 200.3 19.1 199.2 18 197.9 18 C 196.6 18 195.4 19.1 195.4 20.8 C 195.4 22.5 196.6 23.6 197.9 23.6 C 199.2 23.6 200.3 22.5 200.3 20.8 Z M 203.1 14.5 L 203.6 14.5 L 203.6 24 L 203.1 24 L 203.1 14.5 Z M 205.5 20.8 C 205.5 18.9 206.9 17.5 208.5 17.5 C 210.2 17.5 211.6 18.9 211.6 20.8 C 211.6 22.8 210.2 24.1 208.5 24.1 C 206.9 24.1 205.5 22.8 205.5 20.8 Z M 211.1 20.8 C 211.1 19 209.8 18 208.5 18 C 207.2 18 206 19 206 20.8 C 206 22.6 207.2 23.6 208.5 23.6 C 209.8 23.6 211.1 22.6 211.1 20.8 Z M 213.4 17.6 L 213.8 17.6 L 213.8 18.8 C 213.8 18.8 213.86 18.82 213.9 18.8 C 214.2 17.9 215.1 17.6 215.7 17.6 C 215.9 17.6 216 17.6 216.1 17.6 C 216.1 17.6 216.1 18.1 216.1 18.1 C 216 18.1 215.9 18.1 215.7 18.1 C 214.8 18.1 213.9 18.7 213.9 20 C 213.9 19.97 213.9 24 213.9 24 L 213.4 24 L 213.4 17.6 Z M 217.4 15.3 C 217.4 15.1 217.5 14.9 217.7 14.9 C 218 14.9 218.2 15.1 218.2 15.3 C 218.2 15.5 218 15.7 217.7 15.7 C 217.5 15.7 217.4 15.5 217.4 15.3 Z M 217.5 17.6 L 218 17.6 L 218 24 L 217.5 24 L 217.5 17.6 Z M 223.9 18.1 C 223.9 18.1 223.9 18.6 223.9 18.6 C 223.4 18.3 222.8 18 222 18 C 221.1 18 220.5 18.5 220.5 19.2 C 220.5 19.9 221.1 20.2 222.2 20.5 C 223.2 20.9 224.2 21.2 224.2 22.3 C 224.2 23.4 223.3 24.1 222 24.1 C 221.3 24.1 220.5 23.9 219.9 23.4 C 219.9 23.4 219.9 22.7 219.9 22.7 C 220.4 23.3 221.2 23.6 222 23.6 C 223 23.6 223.7 23.1 223.7 22.3 C 223.7 21.6 223 21.3 221.9 20.9 C 220.9 20.6 220 20.3 220 19.2 C 220 18.2 220.8 17.5 222.1 17.5 C 222.7 17.5 223.4 17.7 223.9 18.1 Z M 231 21 C 231 21 226 21 226 21 C 226.1 22.6 227.1 23.6 228.5 23.6 C 229.3 23.6 230.1 23.4 230.8 22.7 C 230.8 22.7 230.8 23.3 230.8 23.3 C 230.1 23.8 229.4 24.1 228.5 24.1 C 226.7 24.1 225.5 22.8 225.5 20.8 C 225.5 18.8 226.9 17.5 228.4 17.5 C 229.9 17.5 231.1 18.6 231.1 20.7 C 231.1 20.8 231.1 20.9 231 21 Z M 230.6 20.5 C 230.5 18.8 229.5 18 228.4 18 C 227.2 18 226.1 19 226 20.5 C 226 20.5 230.6 20.5 230.6 20.5 Z M 237.9 14.5 L 238.4 14.5 L 238.4 24 L 237.9 24 L 237.9 14.5 Z M 245.9 21 C 245.9 21 240.8 21 240.8 21 C 240.9 22.6 241.9 23.6 243.4 23.6 C 244.1 23.6 245 23.4 245.6 22.7 C 245.6 22.7 245.6 23.3 245.6 23.3 C 245 23.8 244.2 24.1 243.3 24.1 C 241.6 24.1 240.3 22.8 240.3 20.8 C 240.3 18.8 241.7 17.5 243.3 17.5 C 244.7 17.5 245.9 18.6 245.9 20.7 C 245.9 20.8 245.9 20.9 245.9 21 Z M 245.4 20.5 C 245.4 18.8 244.3 18 243.3 18 C 242 18 240.9 19 240.8 20.5 C 240.8 20.5 245.4 20.5 245.4 20.5 Z M 253.3 17.6 L 255.2 17.6 L 255.2 18.1 L 253.3 18.1 C 253.3 18.1 253.26 22 253.3 22 C 253.3 23.2 253.9 23.6 254.8 23.6 C 255 23.6 255.1 23.6 255.3 23.6 C 255.3 23.6 255.3 24 255.3 24 C 255.3 24 255 24.1 254.7 24.1 C 253.6 24.1 252.8 23.4 252.8 22 C 252.76 22.02 252.8 18.1 252.8 18.1 L 251.8 18.1 L 251.8 17.6 L 252.8 17.6 L 252.8 16.1 L 253.3 16.1 L 253.3 17.6 Z M 256.7 17.6 L 257.1 17.6 L 257.2 18.8 C 257.2 18.8 257.16 18.82 257.2 18.8 C 257.5 17.9 258.4 17.6 259 17.6 C 259.2 17.6 259.3 17.6 259.4 17.6 C 259.4 17.6 259.4 18.1 259.4 18.1 C 259.3 18.1 259.2 18.1 259 18.1 C 258.1 18.1 257.2 18.7 257.2 20 C 257.2 19.97 257.2 24 257.2 24 L 256.7 24 L 256.7 17.6 Z M 260 20.8 C 260 18.8 261.4 17.5 262.9 17.5 C 263.9 17.5 264.9 18.1 265.4 19.2 C 265.41 19.22 265.5 17.6 265.5 17.6 L 265.9 17.6 L 265.9 24 L 265.5 24 C 265.5 24 265.41 22.4 265.4 22.4 C 264.9 23.6 263.9 24.1 262.9 24.1 C 261.4 24.1 260 22.8 260 20.8 Z M 265.4 20.8 C 265.4 19.1 264.3 18 262.9 18 C 261.6 18 260.5 19.1 260.5 20.8 C 260.5 22.5 261.6 23.6 263 23.6 C 264.3 23.6 265.4 22.5 265.4 20.8 Z M 267.4 17.6 L 268 17.6 L 270.1 23.4 L 270.1 23.4 L 272.2 17.6 L 272.7 17.6 L 270.3 24 L 269.8 24 L 267.4 17.6 Z M 273.6 20.8 C 273.6 18.8 275 17.5 276.5 17.5 C 277.5 17.5 278.5 18.1 279 19.2 C 278.98 19.22 279.1 17.6 279.1 17.6 L 279.4 17.6 L 279.4 24 L 279.1 24 C 279.1 24 278.98 22.4 279 22.4 C 278.5 23.6 277.5 24.1 276.5 24.1 C 275 24.1 273.6 22.8 273.6 20.8 Z M 279 20.8 C 279 19.1 277.9 18 276.5 18 C 275.2 18 274.1 19.1 274.1 20.8 C 274.1 22.5 275.2 23.6 276.5 23.6 C 277.8 23.6 279 22.5 279 20.8 Z M 281.6 15.3 C 281.6 15.1 281.8 14.9 282 14.9 C 282.3 14.9 282.4 15.1 282.4 15.3 C 282.4 15.5 282.3 15.7 282 15.7 C 281.8 15.7 281.6 15.5 281.6 15.3 Z M 281.8 17.6 L 282.3 17.6 L 282.3 24 L 281.8 24 L 281.8 17.6 Z M 284.6 14.5 L 285.1 14.5 L 285.1 24 L 284.6 24 L 284.6 14.5 Z " stroke="none" fill="#000"/>
  </g>
  <g id="Polygon30990">
    <path d="M 1.4 0.7 L 5.8 0.7 L 5.8 1.2 L 1.9 1.2 L 1.9 4.8 L 5.5 4.8 L 5.5 5.3 L 1.9 5.3 L 1.9 9.1 L 5.8 9.1 L 5.8 9.6 L 1.4 9.6 L 1.4 0.7 Z M 12.6 5.4 C 12.59 5.36 12.6 9.6 12.6 9.6 L 12.1 9.6 C 12.1 9.6 12.08 5.57 12.1 5.6 C 12.1 4.3 11.4 3.6 10.3 3.6 C 9.2 3.6 8.3 4.3 8.3 5.5 C 8.3 5.51 8.3 9.6 8.3 9.6 L 7.8 9.6 L 7.8 3.2 L 8.2 3.2 L 8.3 4.4 C 8.3 4.4 8.27 4.36 8.3 4.4 C 8.6 3.6 9.4 3.1 10.3 3.1 C 11.7 3.1 12.6 4 12.6 5.4 Z M 17.8 3.2 L 18.1 3.2 C 18.1 3.2 18.22 4.84 18.2 4.8 C 18.7 3.7 19.7 3.1 20.7 3.1 C 22.2 3.1 23.6 4.4 23.6 6.4 C 23.6 8.4 22.2 9.7 20.7 9.7 C 19.7 9.7 18.7 9.1 18.3 8.1 C 18.26 8.05 18.3 12.2 18.3 12.2 L 17.8 12.2 L 17.8 3.2 Z M 23.1 6.4 C 23.1 4.7 22 3.6 20.7 3.6 C 19.4 3.6 18.2 4.7 18.2 6.4 C 18.2 8.1 19.4 9.2 20.7 9.2 C 22 9.2 23.1 8.1 23.1 6.4 Z M 25 6.4 C 25 4.4 26.4 3.1 27.9 3.1 C 28.9 3.1 30 3.7 30.4 4.8 C 30.42 4.82 30.5 3.2 30.5 3.2 L 30.9 3.2 L 30.9 9.6 L 30.5 9.6 C 30.5 9.6 30.42 8 30.4 8 C 30 9.2 28.9 9.7 27.9 9.7 C 26.4 9.7 25 8.4 25 6.4 Z M 30.4 6.4 C 30.4 4.7 29.3 3.6 28 3.6 C 26.6 3.6 25.5 4.7 25.5 6.4 C 25.5 8.1 26.7 9.2 28 9.2 C 29.3 9.2 30.4 8.1 30.4 6.4 Z M 33.2 3.2 L 33.6 3.2 L 33.6 4.4 C 33.6 4.4 33.64 4.42 33.6 4.4 C 34 3.5 34.9 3.2 35.5 3.2 C 35.7 3.2 35.8 3.2 35.9 3.2 C 35.9 3.2 35.9 3.7 35.9 3.7 C 35.8 3.7 35.7 3.7 35.5 3.7 C 34.6 3.7 33.7 4.3 33.7 5.6 C 33.68 5.57 33.7 9.6 33.7 9.6 L 33.2 9.6 L 33.2 3.2 Z M 37.9 3.2 L 39.8 3.2 L 39.8 3.7 L 37.9 3.7 C 37.9 3.7 37.92 7.6 37.9 7.6 C 37.9 8.8 38.6 9.2 39.5 9.2 C 39.6 9.2 39.8 9.2 40 9.2 C 40 9.2 40 9.6 40 9.6 C 39.9 9.6 39.7 9.7 39.4 9.7 C 38.2 9.7 37.4 9 37.4 7.6 C 37.42 7.62 37.4 3.7 37.4 3.7 L 36.4 3.7 L 36.4 3.2 L 37.4 3.2 L 37.4 1.7 L 37.9 1.7 L 37.9 3.2 Z M 46.4 6.6 C 46.4 6.6 41.3 6.6 41.3 6.6 C 41.4 8.2 42.4 9.2 43.9 9.2 C 44.7 9.2 45.5 9 46.2 8.3 C 46.2 8.3 46.2 8.9 46.2 8.9 C 45.5 9.4 44.7 9.7 43.9 9.7 C 42.1 9.7 40.8 8.4 40.8 6.4 C 40.8 4.4 42.2 3.1 43.8 3.1 C 45.2 3.1 46.4 4.2 46.4 6.3 C 46.4 6.4 46.4 6.5 46.4 6.6 Z M 45.9 6.1 C 45.9 4.4 44.9 3.6 43.8 3.6 C 42.6 3.6 41.5 4.6 41.3 6.1 C 41.3 6.1 45.9 6.1 45.9 6.1 Z M 53 5.4 C 53 5.36 53 9.6 53 9.6 L 52.5 9.6 C 52.5 9.6 52.49 5.57 52.5 5.6 C 52.5 4.3 51.8 3.6 50.7 3.6 C 49.6 3.6 48.7 4.3 48.7 5.5 C 48.71 5.51 48.7 9.6 48.7 9.6 L 48.2 9.6 L 48.2 3.2 L 48.6 3.2 L 48.7 4.4 C 48.7 4.4 48.68 4.36 48.7 4.4 C 49 3.6 49.8 3.1 50.8 3.1 C 52.1 3.1 53 4 53 5.4 Z M 54.7 6.4 C 54.7 4.4 56.1 3.1 57.6 3.1 C 58.7 3.1 59.7 3.7 60.1 4.8 C 60.15 4.82 60.2 3.2 60.2 3.2 L 60.6 3.2 L 60.6 9.6 L 60.2 9.6 C 60.2 9.6 60.15 8 60.1 8 C 59.7 9.2 58.7 9.7 57.7 9.7 C 56.1 9.7 54.7 8.4 54.7 6.4 Z M 60.1 6.4 C 60.1 4.7 59 3.6 57.7 3.6 C 56.4 3.6 55.2 4.7 55.2 6.4 C 55.2 8.1 56.4 9.2 57.7 9.2 C 59 9.2 60.1 8.1 60.1 6.4 Z M 62.9 3.2 L 63.3 3.2 L 63.4 4.4 C 63.4 4.4 63.36 4.42 63.4 4.4 C 63.7 3.5 64.6 3.2 65.2 3.2 C 65.4 3.2 65.5 3.2 65.6 3.2 C 65.6 3.2 65.6 3.7 65.6 3.7 C 65.5 3.7 65.4 3.7 65.2 3.7 C 64.3 3.7 63.4 4.3 63.4 5.6 C 63.4 5.57 63.4 9.6 63.4 9.6 L 62.9 9.6 L 62.9 3.2 Z M 66.9 0.9 C 66.9 0.7 67 0.5 67.3 0.5 C 67.5 0.5 67.7 0.7 67.7 0.9 C 67.7 1.1 67.5 1.3 67.3 1.3 C 67 1.3 66.9 1.1 66.9 0.9 Z M 67 3.2 L 67.5 3.2 L 67.5 9.6 L 67 9.6 L 67 3.2 Z M 69.4 6.4 C 69.4 4.4 70.8 3.1 72.3 3.1 C 73.3 3.1 74.3 3.7 74.8 4.8 C 74.78 4.82 74.8 3.2 74.8 3.2 L 75.2 3.2 L 75.2 9.6 L 74.8 9.6 C 74.8 9.6 74.78 8 74.8 8 C 74.3 9.2 73.3 9.7 72.3 9.7 C 70.8 9.7 69.4 8.4 69.4 6.4 Z M 74.8 6.4 C 74.8 4.7 73.6 3.6 72.3 3.6 C 71 3.6 69.9 4.7 69.9 6.4 C 69.9 8.1 71 9.2 72.3 9.2 C 73.6 9.2 74.8 8.1 74.8 6.4 Z M 78.2 3.2 L 80.1 3.2 L 80.1 3.7 L 78.2 3.7 C 78.2 3.7 78.21 7.6 78.2 7.6 C 78.2 8.8 78.8 9.2 79.7 9.2 C 79.9 9.2 80.1 9.2 80.3 9.2 C 80.3 9.2 80.3 9.6 80.3 9.6 C 80.2 9.6 80 9.7 79.7 9.7 C 78.5 9.7 77.7 9 77.7 7.6 C 77.7 7.62 77.7 3.7 77.7 3.7 L 76.7 3.7 L 76.7 3.2 L 77.7 3.2 L 77.7 1.7 L 78.2 1.7 L 78.2 3.2 Z M 84.1 6.4 C 84.1 4.4 85.5 3.1 87 3.1 C 88 3.1 89 3.7 89.5 4.8 C 89.49 4.82 89.6 3.2 89.6 3.2 L 90 3.2 L 90 9.6 L 89.6 9.6 C 89.6 9.6 89.49 8 89.5 8 C 89 9.2 88 9.7 87 9.7 C 85.5 9.7 84.1 8.4 84.1 6.4 Z M 89.5 6.4 C 89.5 4.7 88.4 3.6 87 3.6 C 85.7 3.6 84.6 4.7 84.6 6.4 C 84.6 8.1 85.7 9.2 87 9.2 C 88.4 9.2 89.5 8.1 89.5 6.4 Z M 91.5 3.2 L 92 3.2 L 94.1 9 L 94.1 9 L 96.2 3.2 L 96.8 3.2 L 94.4 9.6 L 93.9 9.6 L 91.5 3.2 Z M 103.2 6.6 C 103.2 6.6 98.2 6.6 98.2 6.6 C 98.3 8.2 99.3 9.2 100.7 9.2 C 101.5 9.2 102.3 9 103 8.3 C 103 8.3 103 8.9 103 8.9 C 102.3 9.4 101.5 9.7 100.7 9.7 C 98.9 9.7 97.7 8.4 97.7 6.4 C 97.7 4.4 99.1 3.1 100.6 3.1 C 102 3.1 103.2 4.2 103.2 6.3 C 103.2 6.4 103.2 6.5 103.2 6.6 Z M 102.7 6.1 C 102.7 4.4 101.7 3.6 100.6 3.6 C 99.4 3.6 98.3 4.6 98.2 6.1 C 98.2 6.1 102.7 6.1 102.7 6.1 Z M 107.7 9.2 C 108.2 9.2 108.8 9.1 109.4 8.7 C 109.4 8.7 109.4 9.3 109.4 9.3 C 108.9 9.6 108.3 9.7 107.7 9.7 C 105.9 9.7 104.6 8.3 104.6 6.4 C 104.6 4.5 105.9 3.1 107.7 3.1 C 108.2 3.1 108.8 3.2 109.4 3.6 C 109.4 3.6 109.4 4.1 109.4 4.1 C 108.8 3.7 108.2 3.6 107.6 3.6 C 106.3 3.6 105.1 4.7 105.1 6.4 C 105.1 8.1 106.3 9.2 107.7 9.2 Z M 114.2 0.1 L 114.7 0.1 L 114.7 9.6 L 114.2 9.6 L 114.2 0.1 Z M 117.2 1.1 C 117.18 1.13 117.2 0.7 117.2 0.7 L 117.7 0.7 C 117.7 0.7 117.68 1.12 117.7 1.1 C 117.7 2.1 117.3 3.1 117 3.7 C 117 3.7 116.6 3.7 116.6 3.7 C 116.9 3.1 117.2 2.1 117.2 1.1 Z M 121.5 2.1 L 121 2.1 L 122.5 0.2 L 123 0.2 L 121.5 2.1 Z M 124.3 6.6 C 124.3 6.6 119.3 6.6 119.3 6.6 C 119.4 8.2 120.4 9.2 121.8 9.2 C 122.6 9.2 123.4 9 124.1 8.3 C 124.1 8.3 124.1 8.9 124.1 8.9 C 123.4 9.4 122.6 9.7 121.8 9.7 C 120 9.7 118.8 8.4 118.8 6.4 C 118.8 4.4 120.2 3.1 121.7 3.1 C 123.1 3.1 124.4 4.2 124.4 6.3 C 124.4 6.4 124.3 6.5 124.3 6.6 Z M 123.9 6.1 C 123.8 4.4 122.8 3.6 121.7 3.6 C 120.5 3.6 119.4 4.6 119.3 6.1 C 119.3 6.1 123.9 6.1 123.9 6.1 Z M 126.7 4.8 C 127.1 3.7 128.1 3.1 129.1 3.1 C 130.6 3.1 132 4.4 132 6.4 C 132 8.4 130.6 9.7 129.1 9.7 C 128.1 9.7 127.1 9.2 126.6 8 C 126.62 7.99 126.6 9.6 126.6 9.6 L 126.2 9.6 L 126.2 0.1 L 126.7 0.1 C 126.7 0.1 126.66 4.79 126.7 4.8 Z M 126.6 6.4 C 126.6 8.1 127.8 9.2 129.1 9.2 C 130.4 9.2 131.5 8.1 131.5 6.4 C 131.5 4.7 130.4 3.6 129.1 3.6 C 127.8 3.6 126.6 4.7 126.6 6.4 Z M 136.2 2.1 L 135.7 2.1 L 137.1 0.2 L 137.7 0.2 L 136.2 2.1 Z M 139 6.6 C 139 6.6 133.9 6.6 133.9 6.6 C 134 8.2 135 9.2 136.5 9.2 C 137.3 9.2 138.1 9 138.8 8.3 C 138.8 8.3 138.8 8.9 138.8 8.9 C 138.1 9.4 137.3 9.7 136.5 9.7 C 134.7 9.7 133.4 8.4 133.4 6.4 C 133.4 4.4 134.8 3.1 136.4 3.1 C 137.8 3.1 139 4.2 139 6.3 C 139 6.4 139 6.5 139 6.6 Z M 138.5 6.1 C 138.5 4.4 137.5 3.6 136.4 3.6 C 135.2 3.6 134.1 4.6 133.9 6.1 C 133.9 6.1 138.5 6.1 138.5 6.1 Z M 145.6 5.4 C 145.59 5.36 145.6 9.6 145.6 9.6 L 145.1 9.6 C 145.1 9.6 145.09 5.57 145.1 5.6 C 145.1 4.3 144.4 3.6 143.3 3.6 C 142.2 3.6 141.3 4.3 141.3 5.5 C 141.31 5.51 141.3 9.6 141.3 9.6 L 140.8 9.6 L 140.8 3.2 L 141.2 3.2 L 141.3 4.4 C 141.3 4.4 141.27 4.36 141.3 4.4 C 141.6 3.6 142.4 3.1 143.4 3.1 C 144.7 3.1 145.6 4 145.6 5.4 Z M 147.7 0.9 C 147.7 0.7 147.9 0.5 148.1 0.5 C 148.3 0.5 148.5 0.7 148.5 0.9 C 148.5 1.1 148.3 1.3 148.1 1.3 C 147.9 1.3 147.7 1.1 147.7 0.9 Z M 147.8 3.2 L 148.3 3.2 L 148.3 9.6 L 147.8 9.6 L 147.8 3.2 Z M 154.2 3.7 C 154.2 3.7 154.2 4.2 154.2 4.2 C 153.7 3.9 153.1 3.6 152.4 3.6 C 151.4 3.6 150.8 4.1 150.8 4.8 C 150.8 5.5 151.5 5.8 152.5 6.1 C 153.5 6.5 154.5 6.8 154.5 7.9 C 154.5 9 153.6 9.7 152.4 9.7 C 151.6 9.7 150.8 9.5 150.2 9 C 150.2 9 150.2 8.3 150.2 8.3 C 150.8 8.9 151.5 9.2 152.4 9.2 C 153.4 9.2 154 8.7 154 7.9 C 154 7.2 153.3 6.9 152.3 6.5 C 151.2 6.2 150.3 5.9 150.3 4.8 C 150.3 3.8 151.2 3.1 152.4 3.1 C 153.1 3.1 153.7 3.3 154.2 3.7 Z M 156.9 3.2 L 158.8 3.2 L 158.8 3.7 L 156.9 3.7 C 156.9 3.7 156.95 7.6 156.9 7.6 C 156.9 8.8 157.6 9.2 158.5 9.2 C 158.7 9.2 158.8 9.2 159 9.2 C 159 9.2 159 9.6 159 9.6 C 159 9.6 158.7 9.7 158.4 9.7 C 157.3 9.7 156.4 9 156.4 7.6 C 156.44 7.62 156.4 3.7 156.4 3.7 L 155.5 3.7 L 155.5 3.2 L 156.5 3.2 L 156.5 1.7 L 156.9 1.7 L 156.9 3.2 Z M 165.4 6.6 C 165.4 6.6 160.4 6.6 160.4 6.6 C 160.4 8.2 161.5 9.2 162.9 9.2 C 163.7 9.2 164.5 9 165.2 8.3 C 165.2 8.3 165.2 8.9 165.2 8.9 C 164.5 9.4 163.7 9.7 162.9 9.7 C 161.1 9.7 159.9 8.4 159.9 6.4 C 159.9 4.4 161.3 3.1 162.8 3.1 C 164.2 3.1 165.4 4.2 165.4 6.3 C 165.4 6.4 165.4 6.5 165.4 6.6 Z M 164.9 6.1 C 164.9 4.4 163.9 3.6 162.8 3.6 C 161.6 3.6 160.5 4.6 160.4 6.1 C 160.4 6.1 164.9 6.1 164.9 6.1 Z M 167.2 3.2 L 167.6 3.2 L 167.7 4.4 C 167.7 4.4 167.7 4.42 167.7 4.4 C 168.1 3.5 168.9 3.2 169.6 3.2 C 169.7 3.2 169.9 3.2 170 3.2 C 170 3.2 170 3.7 170 3.7 C 169.9 3.7 169.7 3.7 169.6 3.7 C 168.7 3.7 167.7 4.3 167.7 5.6 C 167.73 5.57 167.7 9.6 167.7 9.6 L 167.2 9.6 L 167.2 3.2 Z M 171.2 0.9 C 171.2 0.7 171.4 0.5 171.6 0.5 C 171.8 0.5 172 0.7 172 0.9 C 172 1.1 171.8 1.3 171.6 1.3 C 171.4 1.3 171.2 1.1 171.2 0.9 Z M 171.3 3.2 L 171.8 3.2 L 171.8 9.6 L 171.3 9.6 L 171.3 3.2 Z M 179.3 6.6 C 179.3 6.6 174.2 6.6 174.2 6.6 C 174.3 8.2 175.3 9.2 176.8 9.2 C 177.5 9.2 178.4 9 179 8.3 C 179 8.3 179 8.9 179 8.9 C 178.4 9.4 177.6 9.7 176.7 9.7 C 175 9.7 173.7 8.4 173.7 6.4 C 173.7 4.4 175.1 3.1 176.7 3.1 C 178.1 3.1 179.3 4.2 179.3 6.3 C 179.3 6.4 179.3 6.5 179.3 6.6 Z M 178.8 6.1 C 178.8 4.4 177.7 3.6 176.7 3.6 C 175.5 3.6 174.3 4.6 174.2 6.1 C 174.2 6.1 178.8 6.1 178.8 6.1 Z M 186.8 1.2 L 183.9 1.2 L 183.9 0.7 L 190.3 0.7 L 190.3 1.2 L 187.3 1.2 L 186.1 9.6 L 185.6 9.6 L 186.8 1.2 Z M 194.7 9.6 L 194.3 9.6 L 194.5 8.1 C 194.5 8.1 194.49 8.08 194.5 8.1 C 193.9 9.1 192.9 9.7 191.9 9.7 C 190.5 9.7 189.3 8.7 189.3 6.9 C 189.3 4.7 190.9 3.1 192.6 3.1 C 193.7 3.1 194.7 3.8 194.9 4.8 C 194.94 4.85 195 4.8 195 4.8 L 195.3 3.2 L 195.7 3.2 L 194.7 9.6 Z M 189.8 6.8 C 189.8 8.4 190.9 9.2 192 9.2 C 193.6 9.2 194.8 7.6 194.8 6 C 194.8 4.5 193.8 3.6 192.6 3.6 C 191.1 3.6 189.8 4.9 189.8 6.8 Z M 198.5 0.1 L 199 0.1 L 197.6 9.6 L 197.1 9.6 L 198.5 0.1 Z M 200.4 6.6 C 200.4 6.6 200.38 6.76 200.4 6.8 C 200.4 8.4 201.3 9.2 202.8 9.2 C 203.5 9.2 204.2 9 204.9 8.4 C 204.9 8.4 204.8 9 204.8 9 C 204.2 9.5 203.5 9.7 202.7 9.7 C 201 9.7 199.9 8.6 199.9 6.8 C 199.9 4.8 201.3 3.1 203.1 3.1 C 204.5 3.1 205.5 4.2 205.5 5.7 C 205.5 6 205.4 6.3 205.4 6.6 C 205.38 6.59 200.4 6.6 200.4 6.6 Z M 200.4 6.1 C 200.4 6.1 205 6.1 205 6.1 C 205 5.9 205 5.8 205 5.7 C 205 4.4 204.1 3.6 203.1 3.6 C 201.8 3.6 200.7 4.6 200.4 6.1 Z M 210.2 3.6 C 208.6 3.6 207.3 4.9 207.3 6.7 C 207.3 8.3 208.2 9.2 209.5 9.2 C 210 9.2 210.6 9.1 211.2 8.7 C 211.2 8.7 211.1 9.3 211.1 9.3 C 210.6 9.6 210 9.7 209.4 9.7 C 207.9 9.7 206.7 8.5 206.7 6.8 C 206.7 4.8 208.2 3.1 210.3 3.1 C 210.9 3.1 211.4 3.3 211.9 3.6 C 211.9 3.6 211.8 4.1 211.8 4.1 C 211.4 3.8 210.8 3.6 210.2 3.6 Z M 219.8 2.1 L 219.3 2.1 L 217.7 0.2 L 218.3 0.2 L 219.8 2.1 Z M 215.9 6.4 C 215.9 4.4 217.3 3.1 218.8 3.1 C 219.8 3.1 220.8 3.7 221.3 4.8 C 221.28 4.82 221.3 3.2 221.3 3.2 L 221.7 3.2 L 221.7 9.6 L 221.3 9.6 C 221.3 9.6 221.28 8 221.3 8 C 220.8 9.2 219.8 9.7 218.8 9.7 C 217.3 9.7 215.9 8.4 215.9 6.4 Z M 221.3 6.4 C 221.3 4.7 220.1 3.6 218.8 3.6 C 217.5 3.6 216.4 4.7 216.4 6.4 C 216.4 8.1 217.5 9.2 218.8 9.2 C 220.1 9.2 221.3 8.1 221.3 6.4 Z M 232.6 7.2 C 232.6 8.5 231.6 9.6 229.7 9.6 C 229.68 9.6 227.3 9.6 227.3 9.6 L 227.3 0.7 C 227.3 0.7 229.55 0.68 229.5 0.7 C 231.3 0.7 232.3 1.6 232.3 2.9 C 232.3 4 231.7 4.7 230.8 5 C 232 5.3 232.6 6.1 232.6 7.2 Z M 227.8 4.8 C 227.8 4.8 229.62 4.79 229.6 4.8 C 231.1 4.8 231.8 4 231.8 3 C 231.8 1.8 231 1.2 229.6 1.2 C 229.63 1.18 227.8 1.2 227.8 1.2 L 227.8 4.8 Z M 232.1 7.2 C 232.1 6 231.2 5.3 229.7 5.3 C 229.74 5.28 227.8 5.3 227.8 5.3 L 227.8 9.1 C 227.8 9.1 229.69 9.12 229.7 9.1 C 231.3 9.1 232.1 8.3 232.1 7.2 Z M 234.5 3.2 L 234.9 3.2 L 235 4.4 C 235 4.4 234.98 4.42 235 4.4 C 235.4 3.5 236.2 3.2 236.9 3.2 C 237 3.2 237.1 3.2 237.3 3.2 C 237.3 3.2 237.3 3.7 237.3 3.7 C 237.1 3.7 237 3.7 236.9 3.7 C 236 3.7 235 4.3 235 5.6 C 235.02 5.57 235 9.6 235 9.6 L 234.5 9.6 L 234.5 3.2 Z M 243.4 6.6 C 243.4 6.6 238.3 6.6 238.3 6.6 C 238.4 8.2 239.4 9.2 240.9 9.2 C 241.7 9.2 242.5 9 243.2 8.3 C 243.2 8.3 243.2 8.9 243.2 8.9 C 242.5 9.4 241.7 9.7 240.9 9.7 C 239.1 9.7 237.8 8.4 237.8 6.4 C 237.8 4.4 239.2 3.1 240.8 3.1 C 242.2 3.1 243.4 4.2 243.4 6.3 C 243.4 6.4 243.4 6.5 243.4 6.6 Z M 242.9 6.1 C 242.9 4.4 241.9 3.6 240.8 3.6 C 239.6 3.6 238.5 4.6 238.3 6.1 C 238.3 6.1 242.9 6.1 242.9 6.1 Z M 248.8 3.7 C 248.8 3.7 248.8 4.2 248.8 4.2 C 248.3 3.9 247.6 3.6 246.9 3.6 C 246 3.6 245.4 4.1 245.4 4.8 C 245.4 5.5 246 5.8 247 6.1 C 248.1 6.5 249.1 6.8 249.1 7.9 C 249.1 9 248.2 9.7 246.9 9.7 C 246.2 9.7 245.4 9.5 244.8 9 C 244.8 9 244.8 8.3 244.8 8.3 C 245.3 8.9 246.1 9.2 246.9 9.2 C 247.9 9.2 248.6 8.7 248.6 7.9 C 248.6 7.2 247.8 6.9 246.8 6.5 C 245.8 6.2 244.9 5.9 244.9 4.8 C 244.9 3.8 245.7 3.1 246.9 3.1 C 247.6 3.1 248.3 3.3 248.8 3.7 Z M 251.5 3.2 L 253.4 3.2 L 253.4 3.7 L 251.5 3.7 C 251.5 3.7 251.51 7.6 251.5 7.6 C 251.5 8.8 252.1 9.2 253 9.2 C 253.2 9.2 253.4 9.2 253.6 9.2 C 253.6 9.2 253.6 9.6 253.6 9.6 C 253.5 9.6 253.3 9.7 253 9.7 C 251.8 9.7 251 9 251 7.6 C 251 7.62 251 3.7 251 3.7 L 250 3.7 L 250 3.2 L 251 3.2 L 251 1.7 L 251.5 1.7 L 251.5 3.2 Z M 254.9 8.6 C 254.86 8.64 254.9 8.2 254.9 8.2 L 255.4 8.2 C 255.4 8.2 255.36 8.63 255.4 8.6 C 255.4 9.6 255 10.6 254.7 11.2 C 254.7 11.2 254.3 11.2 254.3 11.2 C 254.5 10.6 254.9 9.6 254.9 8.6 Z M 265.3 5.4 C 265.26 5.36 265.3 9.6 265.3 9.6 L 264.8 9.6 C 264.8 9.6 264.76 5.57 264.8 5.6 C 264.8 4.3 264.1 3.6 262.9 3.6 C 261.9 3.6 261 4.3 261 5.5 C 260.98 5.51 261 9.6 261 9.6 L 260.5 9.6 L 260.5 3.2 L 260.9 3.2 L 260.9 4.4 C 260.9 4.4 260.94 4.36 260.9 4.4 C 261.3 3.6 262.1 3.1 263 3.1 C 264.4 3.1 265.3 4 265.3 5.4 Z M 267 6.4 C 267 4.5 268.4 3.1 270.1 3.1 C 271.7 3.1 273.1 4.5 273.1 6.4 C 273.1 8.4 271.7 9.7 270.1 9.7 C 268.4 9.7 267 8.4 267 6.4 Z M 272.6 6.4 C 272.6 4.6 271.3 3.6 270.1 3.6 C 268.7 3.6 267.5 4.6 267.5 6.4 C 267.5 8.2 268.8 9.2 270.1 9.2 C 271.3 9.2 272.6 8.2 272.6 6.4 Z M 274.8 7.3 C 274.83 7.28 274.8 3.2 274.8 3.2 L 275.3 3.2 C 275.3 3.2 275.33 7.31 275.3 7.3 C 275.3 8.5 276.1 9.2 277.2 9.2 C 278.4 9.2 279.1 8.5 279.1 7.3 C 279.12 7.3 279.1 3.2 279.1 3.2 L 279.6 3.2 C 279.6 3.2 279.63 7.27 279.6 7.3 C 279.6 8.7 278.7 9.7 277.2 9.7 C 275.7 9.7 274.8 8.7 274.8 7.3 Z M 285.4 3.7 C 285.4 3.7 285.4 4.2 285.4 4.2 C 284.9 3.9 284.3 3.6 283.6 3.6 C 282.6 3.6 282 4.1 282 4.8 C 282 5.5 282.7 5.8 283.7 6.1 C 284.7 6.5 285.7 6.8 285.7 7.9 C 285.7 9 284.8 9.7 283.5 9.7 C 282.8 9.7 282 9.5 281.4 9 C 281.4 9 281.4 8.3 281.4 8.3 C 281.9 8.9 282.7 9.2 283.5 9.2 C 284.5 9.2 285.2 8.7 285.2 7.9 C 285.2 7.2 284.5 6.9 283.4 6.5 C 282.4 6.2 281.5 5.9 281.5 4.8 C 281.5 3.8 282.3 3.1 283.6 3.1 C 284.2 3.1 284.9 3.3 285.4 3.7 Z " stroke="none" fill="#000"/>
  </g>
</svg>