<?xml version="1.0" standalone="no"?>
<!DOCTYPE svg PUBLIC "-//W3C//DTD SVG 1.1//EN" "http://www.w3.org/Graphics/SVG/1.1/DTD/svg11.dtd">
<svg xmlns="http://www.w3.org/2000/svg" version="1.1" width="207px" height="251.4px" viewBox="0 0 207 251.4">
  <desc>In order to reflect in the future of navigation, the B n teau Company has established a partnership with the Ensaama</desc>
  <defs/>
  <g id="Polygon17091">
    <path d="M 1.8 118.4 L 3.7 118.4 L 3.7 118.9 L 1.8 118.9 C 1.8 118.9 1.82 122.8 1.8 122.8 C 1.8 124 2.5 124.4 3.4 124.4 C 3.5 124.4 3.7 124.4 3.9 124.4 C 3.9 124.4 3.9 124.8 3.9 124.8 C 3.8 124.8 3.6 124.9 3.3 124.9 C 2.1 124.9 1.3 124.2 1.3 122.8 C 1.32 122.82 1.3 118.9 1.3 118.9 L 0.3 118.9 L 0.3 118.4 L 1.3 118.4 L 1.3 116.9 L 1.8 116.9 L 1.8 118.4 Z M 4.7 121.6 C 4.7 119.7 6.1 118.3 7.8 118.3 C 9.4 118.3 10.8 119.7 10.8 121.6 C 10.8 123.6 9.4 124.9 7.8 124.9 C 6.1 124.9 4.7 123.6 4.7 121.6 Z M 10.3 121.6 C 10.3 119.8 9.1 118.8 7.8 118.8 C 6.5 118.8 5.2 119.8 5.2 121.6 C 5.2 123.4 6.5 124.4 7.8 124.4 C 9.1 124.4 10.3 123.4 10.3 121.6 Z M 16.6 120 C 17 118.9 18.1 118.3 19.1 118.3 C 20.6 118.3 22 119.6 22 121.6 C 22 123.6 20.6 124.9 19.1 124.9 C 18 124.9 17 124.4 16.6 123.2 C 16.56 123.19 16.5 124.8 16.5 124.8 L 16.1 124.8 L 16.1 115.3 L 16.6 115.3 C 16.6 115.3 16.59 119.99 16.6 120 Z M 16.6 121.6 C 16.6 123.3 17.7 124.4 19 124.4 C 20.3 124.4 21.5 123.3 21.5 121.6 C 21.5 119.9 20.4 118.8 19 118.8 C 17.7 118.8 16.6 119.9 16.6 121.6 Z M 23.4 121.6 C 23.4 119.7 24.7 118.3 26.4 118.3 C 28.1 118.3 29.4 119.7 29.4 121.6 C 29.4 123.6 28.1 124.9 26.4 124.9 C 24.7 124.9 23.4 123.6 23.4 121.6 Z M 28.9 121.6 C 28.9 119.8 27.7 118.8 26.4 118.8 C 25.1 118.8 23.9 119.8 23.9 121.6 C 23.9 123.4 25.1 124.4 26.4 124.4 C 27.7 124.4 28.9 123.4 28.9 121.6 Z M 30.8 121.6 C 30.8 119.6 32.2 118.3 33.7 118.3 C 34.7 118.3 35.7 118.9 36.2 120 C 36.22 120.02 36.3 118.4 36.3 118.4 L 36.7 118.4 L 36.7 124.8 L 36.3 124.8 C 36.3 124.8 36.22 123.2 36.2 123.2 C 35.7 124.4 34.7 124.9 33.7 124.9 C 32.2 124.9 30.8 123.6 30.8 121.6 Z M 36.2 121.6 C 36.2 119.9 35.1 118.8 33.8 118.8 C 32.4 118.8 31.3 119.9 31.3 121.6 C 31.3 123.3 32.4 124.4 33.8 124.4 C 35.1 124.4 36.2 123.3 36.2 121.6 Z M 39.6 118.4 L 41.5 118.4 L 41.5 118.9 L 39.6 118.9 C 39.6 118.9 39.65 122.8 39.6 122.8 C 39.6 124 40.3 124.4 41.2 124.4 C 41.4 124.4 41.5 124.4 41.7 124.4 C 41.7 124.4 41.7 124.8 41.7 124.8 C 41.7 124.8 41.4 124.9 41.1 124.9 C 40 124.9 39.1 124.2 39.1 122.8 C 39.14 122.82 39.1 118.9 39.1 118.9 L 38.2 118.9 L 38.2 118.4 L 39.2 118.4 L 39.2 116.9 L 39.6 116.9 L 39.6 118.4 Z M 50 118.9 C 50 118.9 50 119.4 50 119.4 C 49.5 119.1 48.9 118.8 48.2 118.8 C 47.3 118.8 46.6 119.3 46.6 120 C 46.6 120.7 47.3 121 48.3 121.3 C 49.3 121.7 50.3 122 50.3 123.1 C 50.3 124.2 49.5 124.9 48.2 124.9 C 47.4 124.9 46.7 124.7 46 124.2 C 46 124.2 46 123.5 46 123.5 C 46.6 124.1 47.3 124.4 48.2 124.4 C 49.2 124.4 49.8 123.9 49.8 123.1 C 49.8 122.4 49.1 122.1 48.1 121.7 C 47 121.4 46.1 121.1 46.1 120 C 46.1 119 47 118.3 48.2 118.3 C 48.9 118.3 49.5 118.5 50 118.9 Z M 52.6 119.4 C 52.6 119.4 52.61 119.44 52.6 119.4 C 53 118.7 53.8 118.3 54.6 118.3 C 56 118.3 56.9 119.1 56.9 120.6 C 56.88 120.58 56.9 124.8 56.9 124.8 L 56.4 124.8 C 56.4 124.8 56.38 120.76 56.4 120.8 C 56.4 119.5 55.7 118.8 54.6 118.8 C 53.5 118.8 52.6 119.4 52.6 120.6 C 52.59 120.65 52.6 124.8 52.6 124.8 L 52.1 124.8 L 52.1 115.3 L 52.6 115.3 L 52.6 119.4 Z M 58.6 121.6 C 58.6 119.7 60 118.3 61.7 118.3 C 63.3 118.3 64.7 119.7 64.7 121.6 C 64.7 123.6 63.3 124.9 61.7 124.9 C 60 124.9 58.6 123.6 58.6 121.6 Z M 64.2 121.6 C 64.2 119.8 63 118.8 61.7 118.8 C 60.4 118.8 59.1 119.8 59.1 121.6 C 59.1 123.4 60.4 124.4 61.7 124.4 C 63 124.4 64.2 123.4 64.2 121.6 Z M 70.2 119.1 L 70.1 119.1 L 68.2 124.8 L 67.6 124.8 L 65.7 118.4 L 66.3 118.4 L 67.9 124.2 L 67.9 124.2 L 69.9 118.4 L 70.4 118.4 L 72.4 124.2 L 72.4 124.2 L 74.1 118.4 L 74.6 118.4 L 72.7 124.8 L 72.1 124.8 L 70.2 119.1 Z M 79.6 118.9 C 79.6 118.9 79.6 119.4 79.6 119.4 C 79.1 119.1 78.4 118.8 77.7 118.8 C 76.8 118.8 76.2 119.3 76.2 120 C 76.2 120.7 76.8 121 77.8 121.3 C 78.9 121.7 79.9 122 79.9 123.1 C 79.9 124.2 79 124.9 77.7 124.9 C 77 124.9 76.2 124.7 75.6 124.2 C 75.6 124.2 75.6 123.5 75.6 123.5 C 76.1 124.1 76.9 124.4 77.7 124.4 C 78.7 124.4 79.4 123.9 79.4 123.1 C 79.4 122.4 78.6 122.1 77.6 121.7 C 76.6 121.4 75.7 121.1 75.7 120 C 75.7 119 76.5 118.3 77.7 118.3 C 78.4 118.3 79.1 118.5 79.6 118.9 Z M 81.4 124.4 C 81.4 124.1 81.6 123.9 81.9 123.9 C 82.2 123.9 82.4 124.1 82.4 124.4 C 82.4 124.6 82.2 124.8 81.9 124.8 C 81.6 124.8 81.4 124.6 81.4 124.4 Z " stroke="none" fill="#000"/>
  </g>
  <g id="Polygon17090">
    <path d="M 1.8 104 L 3.7 104 L 3.7 104.5 L 1.8 104.5 C 1.8 104.5 1.82 108.4 1.8 108.4 C 1.8 109.6 2.5 110 3.4 110 C 3.5 110 3.7 110 3.9 110 C 3.9 110 3.9 110.4 3.9 110.4 C 3.8 110.4 3.6 110.5 3.3 110.5 C 2.1 110.5 1.3 109.8 1.3 108.4 C 1.32 108.42 1.3 104.5 1.3 104.5 L 0.3 104.5 L 0.3 104 L 1.3 104 L 1.3 102.5 L 1.8 102.5 L 1.8 104 Z M 5.8 105 C 5.8 105 5.77 105.04 5.8 105 C 6.1 104.3 6.9 103.9 7.8 103.9 C 9.2 103.9 10 104.7 10 106.2 C 10.04 106.18 10 110.4 10 110.4 L 9.5 110.4 C 9.5 110.4 9.54 106.36 9.5 106.4 C 9.5 105.1 8.9 104.4 7.8 104.4 C 6.7 104.4 5.8 105 5.8 106.2 C 5.76 106.25 5.8 110.4 5.8 110.4 L 5.3 110.4 L 5.3 100.9 L 5.8 100.9 L 5.8 105 Z M 17.4 107.4 C 17.4 107.4 12.3 107.4 12.3 107.4 C 12.4 109 13.4 110 14.9 110 C 15.6 110 16.5 109.8 17.1 109.1 C 17.1 109.1 17.1 109.7 17.1 109.7 C 16.5 110.2 15.7 110.5 14.8 110.5 C 13.1 110.5 11.8 109.2 11.8 107.2 C 11.8 105.2 13.2 103.9 14.8 103.9 C 16.2 103.9 17.4 105 17.4 107.1 C 17.4 107.2 17.4 107.3 17.4 107.4 Z M 16.9 106.9 C 16.9 105.2 15.8 104.4 14.8 104.4 C 13.5 104.4 12.4 105.4 12.3 106.9 C 12.3 106.9 16.9 106.9 16.9 106.9 Z M 24.7 104 L 25.1 104 C 25.1 104 25.21 105.64 25.2 105.6 C 25.7 104.5 26.7 103.9 27.7 103.9 C 29.2 103.9 30.6 105.2 30.6 107.2 C 30.6 109.2 29.2 110.5 27.7 110.5 C 26.7 110.5 25.7 109.9 25.2 108.9 C 25.24 108.85 25.2 113 25.2 113 L 24.7 113 L 24.7 104 Z M 30.1 107.2 C 30.1 105.5 29 104.4 27.7 104.4 C 26.3 104.4 25.2 105.5 25.2 107.2 C 25.2 108.9 26.4 110 27.7 110 C 29 110 30.1 108.9 30.1 107.2 Z M 32.5 104 L 32.9 104 L 32.9 105.2 C 32.9 105.2 32.92 105.22 32.9 105.2 C 33.3 104.3 34.2 104 34.8 104 C 34.9 104 35.1 104 35.2 104 C 35.2 104 35.2 104.5 35.2 104.5 C 35.1 104.5 34.9 104.5 34.8 104.5 C 33.9 104.5 33 105.1 33 106.4 C 32.96 106.37 33 110.4 33 110.4 L 32.5 110.4 L 32.5 104 Z M 35.8 107.2 C 35.8 105.3 37.1 103.9 38.8 103.9 C 40.5 103.9 41.8 105.3 41.8 107.2 C 41.8 109.2 40.5 110.5 38.8 110.5 C 37.1 110.5 35.8 109.2 35.8 107.2 Z M 41.3 107.2 C 41.3 105.4 40.1 104.4 38.8 104.4 C 37.5 104.4 36.3 105.4 36.3 107.2 C 36.3 109 37.5 110 38.8 110 C 40.1 110 41.3 109 41.3 107.2 Z M 43.2 107.2 C 43.2 105.2 44.6 103.9 46.1 103.9 C 47.1 103.9 48.2 104.5 48.6 105.6 C 48.6 105.58 48.6 100.9 48.6 100.9 L 49.1 100.9 L 49.1 110.4 L 48.7 110.4 L 48.6 108.8 C 48.6 108.8 48.62 108.79 48.6 108.8 C 48.2 110 47.1 110.5 46.1 110.5 C 44.6 110.5 43.2 109.2 43.2 107.2 Z M 48.6 107.2 C 48.6 105.5 47.5 104.4 46.2 104.4 C 44.9 104.4 43.7 105.5 43.7 107.2 C 43.7 108.9 44.9 110 46.2 110 C 47.5 110 48.6 108.9 48.6 107.2 Z M 51.3 108.1 C 51.3 108.08 51.3 104 51.3 104 L 51.8 104 C 51.8 104 51.8 108.11 51.8 108.1 C 51.8 109.3 52.5 110 53.7 110 C 54.8 110 55.6 109.3 55.6 108.1 C 55.59 108.1 55.6 104 55.6 104 L 56.1 104 C 56.1 104 56.09 108.07 56.1 108.1 C 56.1 109.5 55.2 110.5 53.7 110.5 C 52.2 110.5 51.3 109.5 51.3 108.1 Z M 60.9 110 C 61.4 110 62.1 109.9 62.6 109.5 C 62.6 109.5 62.6 110.1 62.6 110.1 C 62.1 110.4 61.5 110.5 60.9 110.5 C 59.2 110.5 57.8 109.1 57.8 107.2 C 57.8 105.3 59.2 103.9 60.9 103.9 C 61.5 103.9 62.1 104 62.6 104.4 C 62.6 104.4 62.6 104.9 62.6 104.9 C 62.1 104.5 61.5 104.4 60.9 104.4 C 59.6 104.4 58.3 105.5 58.3 107.2 C 58.3 108.9 59.6 110 60.9 110 Z M 65.1 104 L 67 104 L 67 104.5 L 65.1 104.5 C 65.1 104.5 65.09 108.4 65.1 108.4 C 65.1 109.6 65.7 110 66.6 110 C 66.8 110 67 110 67.2 110 C 67.2 110 67.2 110.4 67.2 110.4 C 67.1 110.4 66.8 110.5 66.6 110.5 C 65.4 110.5 64.6 109.8 64.6 108.4 C 64.59 108.42 64.6 104.5 64.6 104.5 L 63.6 104.5 L 63.6 104 L 64.6 104 L 64.6 102.5 L 65.1 102.5 L 65.1 104 Z M 68.4 101.7 C 68.4 101.5 68.6 101.3 68.8 101.3 C 69.1 101.3 69.2 101.5 69.2 101.7 C 69.2 101.9 69.1 102.1 68.8 102.1 C 68.6 102.1 68.4 101.9 68.4 101.7 Z M 68.6 104 L 69.1 104 L 69.1 110.4 L 68.6 110.4 L 68.6 104 Z M 70.9 107.2 C 70.9 105.3 72.3 103.9 74 103.9 C 75.6 103.9 77 105.3 77 107.2 C 77 109.2 75.6 110.5 74 110.5 C 72.3 110.5 70.9 109.2 70.9 107.2 Z M 76.5 107.2 C 76.5 105.4 75.3 104.4 74 104.4 C 72.7 104.4 71.4 105.4 71.4 107.2 C 71.4 109 72.7 110 74 110 C 75.3 110 76.5 109 76.5 107.2 Z M 83.6 106.2 C 83.62 106.16 83.6 110.4 83.6 110.4 L 83.1 110.4 C 83.1 110.4 83.12 106.37 83.1 106.4 C 83.1 105.1 82.5 104.4 81.3 104.4 C 80.2 104.4 79.3 105.1 79.3 106.3 C 79.34 106.31 79.3 110.4 79.3 110.4 L 78.8 110.4 L 78.8 104 L 79.2 104 L 79.3 105.2 C 79.3 105.2 79.3 105.16 79.3 105.2 C 79.7 104.4 80.4 103.9 81.4 103.9 C 82.7 103.9 83.6 104.8 83.6 106.2 Z M 90.9 107.2 C 90.9 105.2 92.3 103.9 93.8 103.9 C 94.8 103.9 95.9 104.5 96.3 105.6 C 96.33 105.62 96.4 104 96.4 104 L 96.8 104 L 96.8 110.4 L 96.4 110.4 C 96.4 110.4 96.33 108.8 96.3 108.8 C 95.9 110 94.8 110.5 93.8 110.5 C 92.3 110.5 90.9 109.2 90.9 107.2 Z M 96.3 107.2 C 96.3 105.5 95.2 104.4 93.9 104.4 C 92.5 104.4 91.4 105.5 91.4 107.2 C 91.4 108.9 92.6 110 93.9 110 C 95.2 110 96.3 108.9 96.3 107.2 Z M 99.1 104 L 99.5 104 L 99.5 105.2 C 99.5 105.2 99.54 105.22 99.5 105.2 C 99.9 104.3 100.8 104 101.4 104 C 101.6 104 101.7 104 101.8 104 C 101.8 104 101.8 104.5 101.8 104.5 C 101.7 104.5 101.6 104.5 101.4 104.5 C 100.5 104.5 99.6 105.1 99.6 106.4 C 99.58 106.37 99.6 110.4 99.6 110.4 L 99.1 110.4 L 99.1 104 Z M 107.9 107.4 C 107.9 107.4 102.9 107.4 102.9 107.4 C 103 109 104 110 105.4 110 C 106.2 110 107 109.8 107.7 109.1 C 107.7 109.1 107.7 109.7 107.7 109.7 C 107 110.2 106.3 110.5 105.4 110.5 C 103.6 110.5 102.4 109.2 102.4 107.2 C 102.4 105.2 103.8 103.9 105.3 103.9 C 106.8 103.9 108 105 108 107.1 C 108 107.2 108 107.3 107.9 107.4 Z M 107.5 106.9 C 107.4 105.2 106.4 104.4 105.3 104.4 C 104.1 104.4 103 105.4 102.9 106.9 C 102.9 106.9 107.5 106.9 107.5 106.9 Z M 109.3 107.2 C 109.3 105.2 110.7 103.9 112.2 103.9 C 113.2 103.9 114.3 104.5 114.7 105.6 C 114.72 105.62 114.8 104 114.8 104 L 115.2 104 L 115.2 110.4 L 114.8 110.4 C 114.8 110.4 114.72 108.8 114.7 108.8 C 114.3 110 113.2 110.5 112.2 110.5 C 110.7 110.5 109.3 109.2 109.3 107.2 Z M 114.7 107.2 C 114.7 105.5 113.6 104.4 112.3 104.4 C 110.9 104.4 109.8 105.5 109.8 107.2 C 109.8 108.9 111 110 112.3 110 C 113.6 110 114.7 108.9 114.7 107.2 Z M 121 104.5 C 121 104.5 121 105 121 105 C 120.5 104.7 119.9 104.4 119.2 104.4 C 118.2 104.4 117.6 104.9 117.6 105.6 C 117.6 106.3 118.3 106.6 119.3 106.9 C 120.3 107.3 121.3 107.6 121.3 108.7 C 121.3 109.8 120.5 110.5 119.2 110.5 C 118.4 110.5 117.6 110.3 117 109.8 C 117 109.8 117 109.1 117 109.1 C 117.6 109.7 118.3 110 119.2 110 C 120.2 110 120.8 109.5 120.8 108.7 C 120.8 108 120.1 107.7 119.1 107.3 C 118 107 117.1 106.7 117.1 105.6 C 117.1 104.6 118 103.9 119.2 103.9 C 119.9 103.9 120.5 104.1 121 104.5 Z M 128.2 107.2 C 128.2 105.2 129.6 103.9 131.1 103.9 C 132.1 103.9 133.1 104.5 133.6 105.6 C 133.59 105.62 133.7 104 133.7 104 L 134.1 104 L 134.1 110.4 L 133.7 110.4 C 133.7 110.4 133.59 108.8 133.6 108.8 C 133.1 110 132.1 110.5 131.1 110.5 C 129.6 110.5 128.2 109.2 128.2 107.2 Z M 133.6 107.2 C 133.6 105.5 132.5 104.4 131.1 104.4 C 129.8 104.4 128.7 105.5 128.7 107.2 C 128.7 108.9 129.8 110 131.1 110 C 132.5 110 133.6 108.9 133.6 107.2 Z M 141.1 106.2 C 141.13 106.16 141.1 110.4 141.1 110.4 L 140.6 110.4 C 140.6 110.4 140.63 106.37 140.6 106.4 C 140.6 105.1 140 104.4 138.8 104.4 C 137.7 104.4 136.8 105.1 136.8 106.3 C 136.85 106.31 136.8 110.4 136.8 110.4 L 136.3 110.4 L 136.3 104 L 136.7 104 L 136.8 105.2 C 136.8 105.2 136.81 105.16 136.8 105.2 C 137.2 104.4 137.9 103.9 138.9 103.9 C 140.2 103.9 141.1 104.8 141.1 106.2 Z M 142.9 107.2 C 142.9 105.2 144.3 103.9 145.8 103.9 C 146.8 103.9 147.8 104.5 148.3 105.6 C 148.26 105.58 148.3 100.9 148.3 100.9 L 148.8 100.9 L 148.8 110.4 L 148.4 110.4 L 148.3 108.8 C 148.3 108.8 148.28 108.79 148.3 108.8 C 147.8 110 146.8 110.5 145.8 110.5 C 144.3 110.5 142.9 109.2 142.9 107.2 Z M 148.3 107.2 C 148.3 105.5 147.2 104.4 145.8 104.4 C 144.5 104.4 143.4 105.5 143.4 107.2 C 143.4 108.9 144.5 110 145.8 110 C 147.2 110 148.3 108.9 148.3 107.2 Z M 157.1 105.6 C 157.5 104.5 158.6 103.9 159.6 103.9 C 161.1 103.9 162.5 105.2 162.5 107.2 C 162.5 109.2 161.1 110.5 159.6 110.5 C 158.5 110.5 157.5 110 157.1 108.8 C 157.06 108.79 157 110.4 157 110.4 L 156.6 110.4 L 156.6 100.9 L 157.1 100.9 C 157.1 100.9 157.1 105.59 157.1 105.6 Z M 157.1 107.2 C 157.1 108.9 158.2 110 159.5 110 C 160.8 110 162 108.9 162 107.2 C 162 105.5 160.9 104.4 159.5 104.4 C 158.2 104.4 157.1 105.5 157.1 107.2 Z M 165.2 113 L 164.6 113 L 165.8 110.1 L 163.4 104 L 163.9 104 L 166 109.5 L 166 109.5 L 168.1 104 L 168.6 104 L 165.2 113 Z M 180.4 105.6 C 180.36 105.56 180.4 104 180.4 104 L 180.8 104 C 180.8 104 180.83 110.2 180.8 110.2 C 180.8 112.2 179.5 113.1 178 113.1 C 177.2 113.1 176.3 112.8 175.6 112.3 C 175.6 112.3 175.6 111.7 175.6 111.7 C 176.3 112.3 177.2 112.6 178 112.6 C 179.2 112.6 180.3 111.9 180.3 110.3 C 180.3 110.3 180.3 108.7 180.3 108.7 C 179.9 109.8 178.9 110.3 177.9 110.3 C 176.4 110.3 175 109.1 175 107.1 C 175 105.2 176.4 103.9 177.9 103.9 C 178.9 103.9 179.9 104.5 180.4 105.6 Z M 175.5 107.1 C 175.5 108.8 176.6 109.8 177.9 109.8 C 179.2 109.8 180.4 108.7 180.4 107.1 C 180.4 105.5 179.2 104.4 177.9 104.4 C 176.6 104.4 175.5 105.5 175.5 107.1 Z M 182.7 107.2 C 182.7 105.3 184 103.9 185.7 103.9 C 187.4 103.9 188.7 105.3 188.7 107.2 C 188.7 109.2 187.4 110.5 185.7 110.5 C 184 110.5 182.7 109.2 182.7 107.2 Z M 188.2 107.2 C 188.2 105.4 187 104.4 185.7 104.4 C 184.4 104.4 183.2 105.4 183.2 107.2 C 183.2 109 184.4 110 185.7 110 C 187 110 188.2 109 188.2 107.2 Z M 190.5 101.7 C 190.5 101.5 190.6 101.3 190.8 101.3 C 191.1 101.3 191.3 101.5 191.3 101.7 C 191.3 101.9 191.1 102.1 190.8 102.1 C 190.6 102.1 190.5 101.9 190.5 101.7 Z M 190.6 104 L 191.1 104 L 191.1 110.4 L 190.6 110.4 L 190.6 104 Z M 198.2 106.2 C 198.2 106.16 198.2 110.4 198.2 110.4 L 197.7 110.4 C 197.7 110.4 197.7 106.37 197.7 106.4 C 197.7 105.1 197 104.4 195.9 104.4 C 194.8 104.4 193.9 105.1 193.9 106.3 C 193.92 106.31 193.9 110.4 193.9 110.4 L 193.4 110.4 L 193.4 104 L 193.8 104 L 193.9 105.2 C 193.9 105.2 193.88 105.16 193.9 105.2 C 194.2 104.4 195 103.9 196 103.9 C 197.3 103.9 198.2 104.8 198.2 106.2 Z M 205.3 105.6 C 205.32 105.56 205.4 104 205.4 104 L 205.8 104 C 205.8 104 205.79 110.2 205.8 110.2 C 205.8 112.2 204.4 113.1 203 113.1 C 202.1 113.1 201.3 112.8 200.6 112.3 C 200.6 112.3 200.6 111.7 200.6 111.7 C 201.3 112.3 202.1 112.6 203 112.6 C 204.2 112.6 205.3 111.9 205.3 110.3 C 205.3 110.3 205.3 108.7 205.3 108.7 C 204.8 109.8 203.8 110.3 202.8 110.3 C 201.3 110.3 199.9 109.1 199.9 107.1 C 199.9 105.2 201.3 103.9 202.8 103.9 C 203.8 103.9 204.9 104.5 205.3 105.6 Z M 200.4 107.1 C 200.4 108.8 201.6 109.8 202.9 109.8 C 204.2 109.8 205.3 108.7 205.3 107.1 C 205.3 105.5 204.2 104.4 202.9 104.4 C 201.6 104.4 200.4 105.5 200.4 107.1 Z " stroke="none" fill="#000"/>
  </g>
  <g id="Polygon17089">
    <path d="M 4.9 90.3 L 4.9 90.3 L 2.9 96 L 2.3 96 L 0.5 89.6 L 1 89.6 L 2.6 95.4 L 2.7 95.4 L 4.6 89.6 L 5.2 89.6 L 7.2 95.4 L 7.2 95.4 L 8.8 89.6 L 9.3 89.6 L 7.5 96 L 6.9 96 L 4.9 90.3 Z M 10.3 92.8 C 10.3 90.9 11.7 89.5 13.4 89.5 C 15 89.5 16.4 90.9 16.4 92.8 C 16.4 94.8 15 96.1 13.4 96.1 C 11.7 96.1 10.3 94.8 10.3 92.8 Z M 15.9 92.8 C 15.9 91 14.7 90 13.4 90 C 12.1 90 10.8 91 10.8 92.8 C 10.8 94.6 12.1 95.6 13.4 95.6 C 14.7 95.6 15.9 94.6 15.9 92.8 Z M 18.2 89.6 L 18.6 89.6 L 18.7 90.8 C 18.7 90.8 18.71 90.82 18.7 90.8 C 19.1 89.9 19.9 89.6 20.6 89.6 C 20.7 89.6 20.9 89.6 21 89.6 C 21 89.6 21 90.1 21 90.1 C 20.9 90.1 20.7 90.1 20.6 90.1 C 19.7 90.1 18.8 90.7 18.7 92 C 18.74 91.97 18.7 96 18.7 96 L 18.2 96 L 18.2 89.6 Z M 26.2 96 L 22.8 92.7 L 22.8 96 L 22.3 96 L 22.3 86.5 L 22.8 86.5 L 22.8 92.6 L 26 89.6 L 26.7 89.6 L 23.5 92.6 L 26.9 96 L 26.2 96 Z M 28 87.3 C 28 87.1 28.2 86.9 28.4 86.9 C 28.7 86.9 28.8 87.1 28.8 87.3 C 28.8 87.5 28.7 87.7 28.4 87.7 C 28.2 87.7 28 87.5 28 87.3 Z M 28.2 89.6 L 28.7 89.6 L 28.7 96 L 28.2 96 L 28.2 89.6 Z M 35.8 91.8 C 35.79 91.76 35.8 96 35.8 96 L 35.3 96 C 35.3 96 35.29 91.97 35.3 92 C 35.3 90.7 34.6 90 33.5 90 C 32.4 90 31.5 90.7 31.5 91.9 C 31.51 91.91 31.5 96 31.5 96 L 31 96 L 31 89.6 L 31.4 89.6 L 31.5 90.8 C 31.5 90.8 31.47 90.76 31.5 90.8 C 31.8 90 32.6 89.5 33.6 89.5 C 34.9 89.5 35.8 90.4 35.8 91.8 Z M 42.9 91.2 C 42.91 91.16 43 89.6 43 89.6 L 43.4 89.6 C 43.4 89.6 43.38 95.8 43.4 95.8 C 43.4 97.8 42 98.7 40.6 98.7 C 39.7 98.7 38.9 98.4 38.2 97.9 C 38.2 97.9 38.2 97.3 38.2 97.3 C 38.9 97.9 39.7 98.2 40.6 98.2 C 41.8 98.2 42.9 97.5 42.9 95.9 C 42.9 95.9 42.9 94.3 42.9 94.3 C 42.4 95.4 41.4 95.9 40.4 95.9 C 38.9 95.9 37.5 94.7 37.5 92.7 C 37.5 90.8 38.9 89.5 40.4 89.5 C 41.4 89.5 42.4 90.1 42.9 91.2 Z M 38 92.7 C 38 94.4 39.2 95.4 40.5 95.4 C 41.8 95.4 42.9 94.3 42.9 92.7 C 42.9 91.1 41.8 90 40.5 90 C 39.2 90 38 91.1 38 92.7 Z M 48.1 92.8 C 48.1 90.8 49.5 89.5 51 89.5 C 52 89.5 53 90.1 53.4 91.2 C 53.45 91.18 53.4 86.5 53.4 86.5 L 54 86.5 L 54 96 L 53.6 96 L 53.5 94.4 C 53.5 94.4 53.47 94.39 53.5 94.4 C 53 95.6 52 96.1 51 96.1 C 49.5 96.1 48.1 94.8 48.1 92.8 Z M 53.5 92.8 C 53.5 91.1 52.3 90 51 90 C 49.7 90 48.6 91.1 48.6 92.8 C 48.6 94.5 49.7 95.6 51 95.6 C 52.3 95.6 53.5 94.5 53.5 92.8 Z M 56.1 93.7 C 56.15 93.68 56.1 89.6 56.1 89.6 L 56.7 89.6 C 56.7 89.6 56.65 93.71 56.7 93.7 C 56.7 94.9 57.4 95.6 58.5 95.6 C 59.7 95.6 60.4 94.9 60.4 93.7 C 60.45 93.7 60.4 89.6 60.4 89.6 L 60.9 89.6 C 60.9 89.6 60.95 93.67 60.9 93.7 C 60.9 95.1 60 96.1 58.5 96.1 C 57.1 96.1 56.1 95.1 56.1 93.7 Z M 63.1 89.6 L 63.6 89.6 L 63.6 90.8 C 63.6 90.8 63.61 90.82 63.6 90.8 C 64 89.9 64.8 89.6 65.5 89.6 C 65.6 89.6 65.8 89.6 65.9 89.6 C 65.9 89.6 65.9 90.1 65.9 90.1 C 65.8 90.1 65.6 90.1 65.5 90.1 C 64.6 90.1 63.7 90.7 63.6 92 C 63.65 91.97 63.6 96 63.6 96 L 63.1 96 L 63.1 89.6 Z M 67.1 87.3 C 67.1 87.1 67.3 86.9 67.5 86.9 C 67.7 86.9 67.9 87.1 67.9 87.3 C 67.9 87.5 67.7 87.7 67.5 87.7 C 67.3 87.7 67.1 87.5 67.1 87.3 Z M 67.2 89.6 L 67.8 89.6 L 67.8 96 L 67.2 96 L 67.2 89.6 Z M 74.9 91.8 C 74.86 91.76 74.9 96 74.9 96 L 74.4 96 C 74.4 96 74.35 91.97 74.4 92 C 74.4 90.7 73.7 90 72.5 90 C 71.5 90 70.6 90.7 70.6 91.9 C 70.57 91.91 70.6 96 70.6 96 L 70.1 96 L 70.1 89.6 L 70.5 89.6 L 70.5 90.8 C 70.5 90.8 70.54 90.76 70.5 90.8 C 70.9 90 71.7 89.5 72.6 89.5 C 74 89.5 74.9 90.4 74.9 91.8 Z M 82 91.2 C 81.97 91.16 82 89.6 82 89.6 L 82.4 89.6 C 82.4 89.6 82.44 95.8 82.4 95.8 C 82.4 97.8 81.1 98.7 79.6 98.7 C 78.8 98.7 77.9 98.4 77.2 97.9 C 77.2 97.9 77.2 97.3 77.2 97.3 C 77.9 97.9 78.8 98.2 79.6 98.2 C 80.8 98.2 81.9 97.5 81.9 95.9 C 81.9 95.9 81.9 94.3 81.9 94.3 C 81.5 95.4 80.5 95.9 79.5 95.9 C 78 95.9 76.6 94.7 76.6 92.7 C 76.6 90.8 78 89.5 79.5 89.5 C 80.5 89.5 81.5 90.1 82 91.2 Z M 77.1 92.7 C 77.1 94.4 78.2 95.4 79.5 95.4 C 80.8 95.4 82 94.3 82 92.7 C 82 91.1 80.8 90 79.5 90 C 78.2 90 77.1 91.1 77.1 92.7 Z M 91.1 90.3 L 91.1 90.3 L 89.1 96 L 88.5 96 L 86.7 89.6 L 87.2 89.6 L 88.8 95.4 L 88.9 95.4 L 90.8 89.6 L 91.4 89.6 L 93.4 95.4 L 93.4 95.4 L 95 89.6 L 95.5 89.6 L 93.7 96 L 93.1 96 L 91.1 90.3 Z M 96.5 92.8 C 96.5 90.9 97.9 89.5 99.6 89.5 C 101.3 89.5 102.6 90.9 102.6 92.8 C 102.6 94.8 101.3 96.1 99.6 96.1 C 97.9 96.1 96.5 94.8 96.5 92.8 Z M 102.1 92.8 C 102.1 91 100.9 90 99.6 90 C 98.3 90 97 91 97 92.8 C 97 94.6 98.3 95.6 99.6 95.6 C 100.9 95.6 102.1 94.6 102.1 92.8 Z M 104.4 89.6 L 104.9 89.6 L 104.9 90.8 C 104.9 90.8 104.92 90.82 104.9 90.8 C 105.3 89.9 106.2 89.6 106.8 89.6 C 106.9 89.6 107.1 89.6 107.2 89.6 C 107.2 89.6 107.2 90.1 107.2 90.1 C 107.1 90.1 106.9 90.1 106.8 90.1 C 105.9 90.1 105 90.7 105 92 C 104.95 91.97 105 96 105 96 L 104.4 96 L 104.4 89.6 Z M 112.4 96 L 109 92.7 L 109 96 L 108.5 96 L 108.5 86.5 L 109 86.5 L 109 92.6 L 112.2 89.6 L 112.9 89.6 L 109.7 92.6 L 113.1 96 L 112.4 96 Z M 117.9 90.1 C 117.9 90.1 117.9 90.6 117.9 90.6 C 117.4 90.3 116.8 90 116.1 90 C 115.1 90 114.5 90.5 114.5 91.2 C 114.5 91.9 115.2 92.2 116.2 92.5 C 117.2 92.9 118.2 93.2 118.2 94.3 C 118.2 95.4 117.4 96.1 116.1 96.1 C 115.3 96.1 114.5 95.9 113.9 95.4 C 113.9 95.4 113.9 94.7 113.9 94.7 C 114.5 95.3 115.2 95.6 116.1 95.6 C 117.1 95.6 117.7 95.1 117.7 94.3 C 117.7 93.6 117 93.3 116 92.9 C 114.9 92.6 114 92.3 114 91.2 C 114 90.2 114.9 89.5 116.1 89.5 C 116.8 89.5 117.4 89.7 117.9 90.1 Z M 120.5 90.6 C 120.5 90.6 120.49 90.64 120.5 90.6 C 120.9 89.9 121.6 89.5 122.5 89.5 C 123.9 89.5 124.8 90.3 124.8 91.8 C 124.76 91.78 124.8 96 124.8 96 L 124.3 96 C 124.3 96 124.26 91.96 124.3 92 C 124.3 90.7 123.6 90 122.5 90 C 121.4 90 120.5 90.6 120.5 91.8 C 120.48 91.85 120.5 96 120.5 96 L 120 96 L 120 86.5 L 120.5 86.5 L 120.5 90.6 Z M 126.5 92.8 C 126.5 90.9 127.9 89.5 129.6 89.5 C 131.2 89.5 132.6 90.9 132.6 92.8 C 132.6 94.8 131.2 96.1 129.6 96.1 C 127.9 96.1 126.5 94.8 126.5 92.8 Z M 132.1 92.8 C 132.1 91 130.9 90 129.6 90 C 128.3 90 127 91 127 92.8 C 127 94.6 128.3 95.6 129.6 95.6 C 130.9 95.6 132.1 94.6 132.1 92.8 Z M 134.4 89.6 L 134.8 89.6 C 134.8 89.6 134.89 91.24 134.9 91.2 C 135.4 90.1 136.4 89.5 137.4 89.5 C 138.9 89.5 140.3 90.8 140.3 92.8 C 140.3 94.8 138.9 96.1 137.4 96.1 C 136.4 96.1 135.4 95.5 134.9 94.5 C 134.93 94.45 134.9 98.6 134.9 98.6 L 134.4 98.6 L 134.4 89.6 Z M 139.8 92.8 C 139.8 91.1 138.7 90 137.4 90 C 136 90 134.9 91.1 134.9 92.8 C 134.9 94.5 136 95.6 137.4 95.6 C 138.7 95.6 139.8 94.5 139.8 92.8 Z M 145.7 90.1 C 145.7 90.1 145.7 90.6 145.7 90.6 C 145.2 90.3 144.6 90 143.9 90 C 142.9 90 142.3 90.5 142.3 91.2 C 142.3 91.9 143 92.2 144 92.5 C 145 92.9 146 93.2 146 94.3 C 146 95.4 145.1 96.1 143.8 96.1 C 143.1 96.1 142.3 95.9 141.7 95.4 C 141.7 95.4 141.7 94.7 141.7 94.7 C 142.2 95.3 143 95.6 143.8 95.6 C 144.9 95.6 145.5 95.1 145.5 94.3 C 145.5 93.6 144.8 93.3 143.8 92.9 C 142.7 92.6 141.8 92.3 141.8 91.2 C 141.8 90.2 142.6 89.5 143.9 89.5 C 144.6 89.5 145.2 89.7 145.7 90.1 Z M 147.7 95 C 147.67 95.04 147.7 94.6 147.7 94.6 L 148.2 94.6 C 148.2 94.6 148.18 95.03 148.2 95 C 148.2 96 147.8 97 147.5 97.6 C 147.5 97.6 147.1 97.6 147.1 97.6 C 147.4 97 147.7 96 147.7 95 Z M 153.7 91.2 C 154.1 90.1 155.1 89.5 156.2 89.5 C 157.7 89.5 159.1 90.8 159.1 92.8 C 159.1 94.8 157.7 96.1 156.2 96.1 C 155.1 96.1 154.1 95.6 153.6 94.4 C 153.65 94.39 153.6 96 153.6 96 L 153.2 96 L 153.2 86.5 L 153.7 86.5 C 153.7 86.5 153.68 91.19 153.7 91.2 Z M 153.7 92.8 C 153.7 94.5 154.8 95.6 156.1 95.6 C 157.4 95.6 158.6 94.5 158.6 92.8 C 158.6 91.1 157.4 90 156.1 90 C 154.8 90 153.7 91.1 153.7 92.8 Z M 161.8 98.6 L 161.2 98.6 L 162.4 95.7 L 159.9 89.6 L 160.5 89.6 L 162.6 95.1 L 162.6 95.1 L 164.7 89.6 L 165.2 89.6 L 161.8 98.6 Z M 168.3 89.6 L 168.9 89.6 L 171 95.4 L 171 95.4 L 173.1 89.6 L 173.6 89.6 L 171.2 96 L 170.7 96 L 168.3 89.6 Z M 175 87.3 C 175 87.1 175.2 86.9 175.4 86.9 C 175.6 86.9 175.8 87.1 175.8 87.3 C 175.8 87.5 175.6 87.7 175.4 87.7 C 175.2 87.7 175 87.5 175 87.3 Z M 175.2 89.6 L 175.7 89.6 L 175.7 96 L 175.2 96 L 175.2 89.6 Z M 181.5 90.1 C 181.5 90.1 181.5 90.6 181.5 90.6 C 181 90.3 180.4 90 179.7 90 C 178.8 90 178.1 90.5 178.1 91.2 C 178.1 91.9 178.8 92.2 179.8 92.5 C 180.8 92.9 181.8 93.2 181.8 94.3 C 181.8 95.4 181 96.1 179.7 96.1 C 178.9 96.1 178.2 95.9 177.5 95.4 C 177.5 95.4 177.5 94.7 177.5 94.7 C 178.1 95.3 178.8 95.6 179.7 95.6 C 180.7 95.6 181.3 95.1 181.3 94.3 C 181.3 93.6 180.6 93.3 179.6 92.9 C 178.5 92.6 177.6 92.3 177.6 91.2 C 177.6 90.2 178.5 89.5 179.7 89.5 C 180.4 89.5 181 89.7 181.5 90.1 Z M 183.5 87.3 C 183.5 87.1 183.7 86.9 183.9 86.9 C 184.1 86.9 184.3 87.1 184.3 87.3 C 184.3 87.5 184.1 87.7 183.9 87.7 C 183.7 87.7 183.5 87.5 183.5 87.3 Z M 183.6 89.6 L 184.1 89.6 L 184.1 96 L 183.6 96 L 183.6 89.6 Z M 187.1 89.6 L 189 89.6 L 189 90.1 L 187.1 90.1 C 187.1 90.1 187.13 94 187.1 94 C 187.1 95.2 187.8 95.6 188.7 95.6 C 188.8 95.6 189 95.6 189.2 95.6 C 189.2 95.6 189.2 96 189.2 96 C 189.1 96 188.9 96.1 188.6 96.1 C 187.5 96.1 186.6 95.4 186.6 94 C 186.63 94.02 186.6 90.1 186.6 90.1 L 185.6 90.1 L 185.6 89.6 L 186.6 89.6 L 186.6 88.1 L 187.1 88.1 L 187.1 89.6 Z M 190.5 87.3 C 190.5 87.1 190.6 86.9 190.8 86.9 C 191.1 86.9 191.3 87.1 191.3 87.3 C 191.3 87.5 191.1 87.7 190.8 87.7 C 190.6 87.7 190.5 87.5 190.5 87.3 Z M 190.6 89.6 L 191.1 89.6 L 191.1 96 L 190.6 96 L 190.6 89.6 Z M 198.2 91.8 C 198.2 91.76 198.2 96 198.2 96 L 197.7 96 C 197.7 96 197.7 91.97 197.7 92 C 197.7 90.7 197 90 195.9 90 C 194.8 90 193.9 90.7 193.9 91.9 C 193.92 91.91 193.9 96 193.9 96 L 193.4 96 L 193.4 89.6 L 193.8 89.6 L 193.9 90.8 C 193.9 90.8 193.88 90.76 193.9 90.8 C 194.2 90 195 89.5 196 89.5 C 197.3 89.5 198.2 90.4 198.2 91.8 Z M 205.3 91.2 C 205.32 91.16 205.4 89.6 205.4 89.6 L 205.8 89.6 C 205.8 89.6 205.79 95.8 205.8 95.8 C 205.8 97.8 204.4 98.7 203 98.7 C 202.1 98.7 201.3 98.4 200.6 97.9 C 200.6 97.9 200.6 97.3 200.6 97.3 C 201.3 97.9 202.1 98.2 203 98.2 C 204.2 98.2 205.3 97.5 205.3 95.9 C 205.3 95.9 205.3 94.3 205.3 94.3 C 204.8 95.4 203.8 95.9 202.8 95.9 C 201.3 95.9 199.9 94.7 199.9 92.7 C 199.9 90.8 201.3 89.5 202.8 89.5 C 203.8 89.5 204.9 90.1 205.3 91.2 Z M 200.4 92.7 C 200.4 94.4 201.6 95.4 202.9 95.4 C 204.2 95.4 205.3 94.3 205.3 92.7 C 205.3 91.1 204.2 90 202.9 90 C 201.6 90 200.4 91.1 200.4 92.7 Z " stroke="none" fill="#000"/>
  </g>
  <g id="Polygon17088">
    <path d="M 1.6 76.8 C 2.1 75.7 3.1 75.1 4.1 75.1 C 5.6 75.1 7 76.4 7 78.4 C 7 80.4 5.6 81.7 4.1 81.7 C 3.1 81.7 2.1 81.2 1.6 80 C 1.61 79.99 1.5 81.6 1.5 81.6 L 1.1 81.6 L 1.1 72.1 L 1.6 72.1 C 1.6 72.1 1.64 76.79 1.6 76.8 Z M 1.6 78.4 C 1.6 80.1 2.8 81.2 4.1 81.2 C 5.4 81.2 6.5 80.1 6.5 78.4 C 6.5 76.7 5.4 75.6 4.1 75.6 C 2.7 75.6 1.6 76.7 1.6 78.4 Z M 8.4 78.4 C 8.4 76.5 9.8 75.1 11.4 75.1 C 13.1 75.1 14.5 76.5 14.5 78.4 C 14.5 80.4 13.1 81.7 11.4 81.7 C 9.8 81.7 8.4 80.4 8.4 78.4 Z M 14 78.4 C 14 76.6 12.7 75.6 11.4 75.6 C 10.1 75.6 8.9 76.6 8.9 78.4 C 8.9 80.2 10.2 81.2 11.4 81.2 C 12.7 81.2 14 80.2 14 78.4 Z M 15.9 78.4 C 15.9 76.4 17.3 75.1 18.8 75.1 C 19.8 75.1 20.8 75.7 21.3 76.8 C 21.26 76.82 21.3 75.2 21.3 75.2 L 21.7 75.2 L 21.7 81.6 L 21.3 81.6 C 21.3 81.6 21.26 80 21.3 80 C 20.8 81.2 19.8 81.7 18.8 81.7 C 17.3 81.7 15.9 80.4 15.9 78.4 Z M 21.3 78.4 C 21.3 76.7 20.1 75.6 18.8 75.6 C 17.5 75.6 16.4 76.7 16.4 78.4 C 16.4 80.1 17.5 81.2 18.8 81.2 C 20.1 81.2 21.3 80.1 21.3 78.4 Z M 24.7 75.2 L 26.6 75.2 L 26.6 75.7 L 24.7 75.7 C 24.7 75.7 24.69 79.6 24.7 79.6 C 24.7 80.8 25.3 81.2 26.2 81.2 C 26.4 81.2 26.6 81.2 26.8 81.2 C 26.8 81.2 26.8 81.6 26.8 81.6 C 26.7 81.6 26.4 81.7 26.2 81.7 C 25 81.7 24.2 81 24.2 79.6 C 24.19 79.62 24.2 75.7 24.2 75.7 L 23.2 75.7 L 23.2 75.2 L 24.2 75.2 L 24.2 73.7 L 24.7 73.7 L 24.7 75.2 Z M 31.7 75.7 C 31.7 75.7 31.7 76.2 31.7 76.2 C 31.2 75.9 30.6 75.6 29.9 75.6 C 28.9 75.6 28.3 76.1 28.3 76.8 C 28.3 77.5 29 77.8 30 78.1 C 31 78.5 32 78.8 32 79.9 C 32 81 31.1 81.7 29.8 81.7 C 29.1 81.7 28.3 81.5 27.7 81 C 27.7 81 27.7 80.3 27.7 80.3 C 28.2 80.9 29 81.2 29.8 81.2 C 30.8 81.2 31.5 80.7 31.5 79.9 C 31.5 79.2 30.8 78.9 29.7 78.5 C 28.7 78.2 27.8 77.9 27.8 76.8 C 27.8 75.8 28.6 75.1 29.9 75.1 C 30.5 75.1 31.2 75.3 31.7 75.7 Z M 38.3 72.9 C 38.3 72.7 38.5 72.5 38.7 72.5 C 38.9 72.5 39.1 72.7 39.1 72.9 C 39.1 73.1 38.9 73.3 38.7 73.3 C 38.5 73.3 38.3 73.1 38.3 72.9 Z M 38.5 75.2 L 39 75.2 L 39 81.6 L 38.5 81.6 L 38.5 75.2 Z M 46.1 77.4 C 46.07 77.36 46.1 81.6 46.1 81.6 L 45.6 81.6 C 45.6 81.6 45.56 77.57 45.6 77.6 C 45.6 76.3 44.9 75.6 43.7 75.6 C 42.7 75.6 41.8 76.3 41.8 77.5 C 41.78 77.51 41.8 81.6 41.8 81.6 L 41.3 81.6 L 41.3 75.2 L 41.7 75.2 L 41.7 76.4 C 41.7 76.4 41.75 76.36 41.7 76.4 C 42.1 75.6 42.9 75.1 43.8 75.1 C 45.2 75.1 46.1 76 46.1 77.4 Z M 57.9 76.8 C 57.86 76.76 57.9 75.2 57.9 75.2 L 58.3 75.2 C 58.3 75.2 58.33 81.4 58.3 81.4 C 58.3 83.4 56.9 84.3 55.5 84.3 C 54.7 84.3 53.8 84 53.1 83.5 C 53.1 83.5 53.1 82.9 53.1 82.9 C 53.8 83.5 54.7 83.8 55.5 83.8 C 56.7 83.8 57.8 83.1 57.8 81.5 C 57.8 81.5 57.8 79.9 57.8 79.9 C 57.4 81 56.4 81.5 55.4 81.5 C 53.9 81.5 52.5 80.3 52.5 78.3 C 52.5 76.4 53.9 75.1 55.4 75.1 C 56.4 75.1 57.4 75.7 57.9 76.8 Z M 53 78.3 C 53 80 54.1 81 55.4 81 C 56.7 81 57.8 79.9 57.8 78.3 C 57.8 76.7 56.7 75.6 55.4 75.6 C 54.1 75.6 53 76.7 53 78.3 Z M 60.6 75.2 L 61 75.2 L 61.1 76.4 C 61.1 76.4 61.08 76.42 61.1 76.4 C 61.5 75.5 62.3 75.2 63 75.2 C 63.1 75.2 63.2 75.2 63.3 75.2 C 63.3 75.2 63.3 75.7 63.3 75.7 C 63.2 75.7 63.1 75.7 63 75.7 C 62.1 75.7 61.1 76.3 61.1 77.6 C 61.11 77.57 61.1 81.6 61.1 81.6 L 60.6 81.6 L 60.6 75.2 Z M 63.9 78.4 C 63.9 76.5 65.3 75.1 67 75.1 C 68.6 75.1 70 76.5 70 78.4 C 70 80.4 68.6 81.7 67 81.7 C 65.3 81.7 63.9 80.4 63.9 78.4 Z M 69.5 78.4 C 69.5 76.6 68.3 75.6 67 75.6 C 65.6 75.6 64.4 76.6 64.4 78.4 C 64.4 80.2 65.7 81.2 67 81.2 C 68.3 81.2 69.5 80.2 69.5 78.4 Z M 71.7 79.3 C 71.73 79.28 71.7 75.2 71.7 75.2 L 72.2 75.2 C 72.2 75.2 72.24 79.31 72.2 79.3 C 72.2 80.5 73 81.2 74.1 81.2 C 75.3 81.2 76 80.5 76 79.3 C 76.03 79.3 76 75.2 76 75.2 L 76.5 75.2 C 76.5 75.2 76.53 79.27 76.5 79.3 C 76.5 80.7 75.6 81.7 74.1 81.7 C 72.6 81.7 71.7 80.7 71.7 79.3 Z M 78.7 75.2 L 79.1 75.2 C 79.1 75.2 79.2 76.84 79.2 76.8 C 79.7 75.7 80.7 75.1 81.7 75.1 C 83.2 75.1 84.6 76.4 84.6 78.4 C 84.6 80.4 83.2 81.7 81.7 81.7 C 80.7 81.7 79.7 81.1 79.2 80.1 C 79.23 80.05 79.2 84.2 79.2 84.2 L 78.7 84.2 L 78.7 75.2 Z M 84.1 78.4 C 84.1 76.7 83 75.6 81.7 75.6 C 80.3 75.6 79.2 76.7 79.2 78.4 C 79.2 80.1 80.3 81.2 81.7 81.2 C 83 81.2 84.1 80.1 84.1 78.4 Z M 90 75.7 C 90 75.7 90 76.2 90 76.2 C 89.5 75.9 88.9 75.6 88.2 75.6 C 87.2 75.6 86.6 76.1 86.6 76.8 C 86.6 77.5 87.3 77.8 88.3 78.1 C 89.3 78.5 90.3 78.8 90.3 79.9 C 90.3 81 89.4 81.7 88.1 81.7 C 87.4 81.7 86.6 81.5 86 81 C 86 81 86 80.3 86 80.3 C 86.6 80.9 87.3 81.2 88.1 81.2 C 89.2 81.2 89.8 80.7 89.8 79.9 C 89.8 79.2 89.1 78.9 88.1 78.5 C 87 78.2 86.1 77.9 86.1 76.8 C 86.1 75.8 86.9 75.1 88.2 75.1 C 88.9 75.1 89.5 75.3 90 75.7 Z M 96.3 78.4 C 96.3 76.5 97.7 75.1 99.3 75.1 C 101 75.1 102.4 76.5 102.4 78.4 C 102.4 80.4 101 81.7 99.3 81.7 C 97.7 81.7 96.3 80.4 96.3 78.4 Z M 101.9 78.4 C 101.9 76.6 100.6 75.6 99.3 75.6 C 98 75.6 96.8 76.6 96.8 78.4 C 96.8 80.2 98 81.2 99.3 81.2 C 100.6 81.2 101.9 80.2 101.9 78.4 Z M 104.3 75.7 L 103.4 75.7 L 103.4 75.2 L 104.3 75.2 C 104.3 75.2 104.32 74 104.3 74 C 104.3 72.7 105.2 72 106.2 72 C 106.6 72 106.9 72.1 107.2 72.2 C 107.2 72.2 107.2 72.7 107.2 72.7 C 106.9 72.6 106.6 72.5 106.3 72.5 C 105.4 72.5 104.8 73 104.8 74.1 C 104.84 74.09 104.8 75.2 104.8 75.2 L 106.8 75.2 L 106.8 75.7 L 104.8 75.7 L 104.8 81.6 L 104.3 81.6 L 104.3 75.7 Z M 113 75.2 L 114.9 75.2 L 114.9 75.7 L 113 75.7 C 113 75.7 113.04 79.6 113 79.6 C 113 80.8 113.7 81.2 114.6 81.2 C 114.8 81.2 114.9 81.2 115.1 81.2 C 115.1 81.2 115.1 81.6 115.1 81.6 C 115 81.6 114.8 81.7 114.5 81.7 C 113.4 81.7 112.5 81 112.5 79.6 C 112.54 79.62 112.5 75.7 112.5 75.7 L 111.6 75.7 L 111.6 75.2 L 112.6 75.2 L 112.6 73.7 L 113 73.7 L 113 75.2 Z M 117 76.2 C 117 76.2 116.99 76.24 117 76.2 C 117.4 75.5 118.1 75.1 119 75.1 C 120.4 75.1 121.3 75.9 121.3 77.4 C 121.26 77.38 121.3 81.6 121.3 81.6 L 120.8 81.6 C 120.8 81.6 120.76 77.56 120.8 77.6 C 120.8 76.3 120.1 75.6 119 75.6 C 117.9 75.6 117 76.2 117 77.4 C 116.98 77.45 117 81.6 117 81.6 L 116.5 81.6 L 116.5 72.1 L 117 72.1 L 117 76.2 Z M 123.5 75.2 L 123.9 75.2 L 123.9 76.4 C 123.9 76.4 123.94 76.42 123.9 76.4 C 124.3 75.5 125.2 75.2 125.8 75.2 C 126 75.2 126.1 75.2 126.2 75.2 C 126.2 75.2 126.2 75.7 126.2 75.7 C 126.1 75.7 126 75.7 125.8 75.7 C 124.9 75.7 124 76.3 124 77.6 C 123.98 77.57 124 81.6 124 81.6 L 123.5 81.6 L 123.5 75.2 Z M 132.3 78.6 C 132.3 78.6 127.3 78.6 127.3 78.6 C 127.4 80.2 128.4 81.2 129.8 81.2 C 130.6 81.2 131.4 81 132.1 80.3 C 132.1 80.3 132.1 80.9 132.1 80.9 C 131.4 81.4 130.6 81.7 129.8 81.7 C 128 81.7 126.8 80.4 126.8 78.4 C 126.8 76.4 128.2 75.1 129.7 75.1 C 131.2 75.1 132.4 76.2 132.4 78.3 C 132.4 78.4 132.4 78.5 132.3 78.6 Z M 131.9 78.1 C 131.8 76.4 130.8 75.6 129.7 75.6 C 128.5 75.6 127.4 76.6 127.3 78.1 C 127.3 78.1 131.9 78.1 131.9 78.1 Z M 139.3 78.6 C 139.3 78.6 134.2 78.6 134.2 78.6 C 134.3 80.2 135.3 81.2 136.8 81.2 C 137.5 81.2 138.4 81 139 80.3 C 139 80.3 139 80.9 139 80.9 C 138.4 81.4 137.6 81.7 136.8 81.7 C 135 81.7 133.7 80.4 133.7 78.4 C 133.7 76.4 135.1 75.1 136.7 75.1 C 138.1 75.1 139.3 76.2 139.3 78.3 C 139.3 78.4 139.3 78.5 139.3 78.6 Z M 138.8 78.1 C 138.8 76.4 137.8 75.6 136.7 75.6 C 135.5 75.6 134.3 76.6 134.2 78.1 C 134.2 78.1 138.8 78.1 138.8 78.1 Z M 145.8 75.2 L 146.2 75.2 C 146.2 75.2 146.25 76.84 146.2 76.8 C 146.7 75.7 147.7 75.1 148.8 75.1 C 150.3 75.1 151.7 76.4 151.7 78.4 C 151.7 80.4 150.3 81.7 148.8 81.7 C 147.7 81.7 146.7 81.1 146.3 80.1 C 146.28 80.05 146.3 84.2 146.3 84.2 L 145.8 84.2 L 145.8 75.2 Z M 151.2 78.4 C 151.2 76.7 150 75.6 148.7 75.6 C 147.4 75.6 146.3 76.7 146.3 78.4 C 146.3 80.1 147.4 81.2 148.7 81.2 C 150 81.2 151.2 80.1 151.2 78.4 Z M 158.6 78.6 C 158.6 78.6 153.6 78.6 153.6 78.6 C 153.6 80.2 154.7 81.2 156.1 81.2 C 156.9 81.2 157.7 81 158.4 80.3 C 158.4 80.3 158.4 80.9 158.4 80.9 C 157.7 81.4 156.9 81.7 156.1 81.7 C 154.3 81.7 153.1 80.4 153.1 78.4 C 153.1 76.4 154.5 75.1 156 75.1 C 157.4 75.1 158.6 76.2 158.6 78.3 C 158.6 78.4 158.6 78.5 158.6 78.6 Z M 158.1 78.1 C 158.1 76.4 157.1 75.6 156 75.6 C 154.8 75.6 153.7 76.6 153.6 78.1 C 153.6 78.1 158.1 78.1 158.1 78.1 Z M 160.4 75.2 L 160.8 75.2 L 160.9 76.4 C 160.9 76.4 160.9 76.42 160.9 76.4 C 161.3 75.5 162.1 75.2 162.8 75.2 C 162.9 75.2 163.1 75.2 163.2 75.2 C 163.2 75.2 163.2 75.7 163.2 75.7 C 163.1 75.7 162.9 75.7 162.8 75.7 C 161.9 75.7 160.9 76.3 160.9 77.6 C 160.93 77.57 160.9 81.6 160.9 81.6 L 160.4 81.6 L 160.4 75.2 Z M 168 75.7 C 168 75.7 168 76.2 168 76.2 C 167.5 75.9 166.9 75.6 166.2 75.6 C 165.2 75.6 164.6 76.1 164.6 76.8 C 164.6 77.5 165.3 77.8 166.3 78.1 C 167.3 78.5 168.3 78.8 168.3 79.9 C 168.3 81 167.4 81.7 166.1 81.7 C 165.4 81.7 164.6 81.5 164 81 C 164 81 164 80.3 164 80.3 C 164.5 80.9 165.3 81.2 166.1 81.2 C 167.1 81.2 167.8 80.7 167.8 79.9 C 167.8 79.2 167.1 78.9 166 78.5 C 165 78.2 164.1 77.9 164.1 76.8 C 164.1 75.8 164.9 75.1 166.2 75.1 C 166.8 75.1 167.5 75.3 168 75.7 Z M 169.6 78.4 C 169.6 76.5 171 75.1 172.6 75.1 C 174.3 75.1 175.7 76.5 175.7 78.4 C 175.7 80.4 174.3 81.7 172.6 81.7 C 171 81.7 169.6 80.4 169.6 78.4 Z M 175.2 78.4 C 175.2 76.6 173.9 75.6 172.6 75.6 C 171.3 75.6 170.1 76.6 170.1 78.4 C 170.1 80.2 171.3 81.2 172.6 81.2 C 173.9 81.2 175.2 80.2 175.2 78.4 Z M 182.3 77.4 C 182.28 77.36 182.3 81.6 182.3 81.6 L 181.8 81.6 C 181.8 81.6 181.78 77.57 181.8 77.6 C 181.8 76.3 181.1 75.6 180 75.6 C 178.9 75.6 178 76.3 178 77.5 C 178 77.51 178 81.6 178 81.6 L 177.5 81.6 L 177.5 75.2 L 177.9 75.2 L 178 76.4 C 178 76.4 177.96 76.36 178 76.4 C 178.3 75.6 179.1 75.1 180 75.1 C 181.4 75.1 182.3 76 182.3 77.4 Z M 188 75.7 C 188 75.7 188 76.2 188 76.2 C 187.5 75.9 186.9 75.6 186.2 75.6 C 185.3 75.6 184.6 76.1 184.6 76.8 C 184.6 77.5 185.3 77.8 186.3 78.1 C 187.3 78.5 188.3 78.8 188.3 79.9 C 188.3 81 187.5 81.7 186.2 81.7 C 185.4 81.7 184.7 81.5 184 81 C 184 81 184 80.3 184 80.3 C 184.6 80.9 185.3 81.2 186.2 81.2 C 187.2 81.2 187.8 80.7 187.8 79.9 C 187.8 79.2 187.1 78.9 186.1 78.5 C 185 78.2 184.1 77.9 184.1 76.8 C 184.1 75.8 185 75.1 186.2 75.1 C 186.9 75.1 187.5 75.3 188 75.7 Z M 195.3 76.8 C 195.7 75.7 196.7 75.1 197.7 75.1 C 199.3 75.1 200.7 76.4 200.7 78.4 C 200.7 80.4 199.2 81.7 197.7 81.7 C 196.7 81.7 195.7 81.2 195.2 80 C 195.24 79.99 195.2 81.6 195.2 81.6 L 194.8 81.6 L 194.8 72.1 L 195.3 72.1 C 195.3 72.1 195.28 76.79 195.3 76.8 Z M 195.3 78.4 C 195.3 80.1 196.4 81.2 197.7 81.2 C 199 81.2 200.2 80.1 200.2 78.4 C 200.2 76.7 199 75.6 197.7 75.6 C 196.4 75.6 195.3 76.7 195.3 78.4 Z M 203.4 84.2 L 202.8 84.2 L 204 81.3 L 201.5 75.2 L 202.1 75.2 L 204.2 80.7 L 204.2 80.7 L 206.3 75.2 L 206.8 75.2 L 203.4 84.2 Z " stroke="none" fill="#000"/>
  </g>
  <g id="Polygon17087">
    <path d="M 0.7 64 C 0.7 62.1 2.1 60.7 3.7 60.7 C 5.4 60.7 6.8 62.1 6.8 64 C 6.8 66 5.4 67.3 3.7 67.3 C 2.1 67.3 0.7 66 0.7 64 Z M 6.3 64 C 6.3 62.2 5 61.2 3.7 61.2 C 2.4 61.2 1.2 62.2 1.2 64 C 1.2 65.8 2.4 66.8 3.7 66.8 C 5 66.8 6.3 65.8 6.3 64 Z M 8.7 61.3 L 7.8 61.3 L 7.8 60.8 L 8.7 60.8 C 8.7 60.8 8.72 59.6 8.7 59.6 C 8.7 58.3 9.6 57.6 10.6 57.6 C 11 57.6 11.3 57.7 11.6 57.8 C 11.6 57.8 11.6 58.3 11.6 58.3 C 11.4 58.2 11 58.1 10.7 58.1 C 9.8 58.1 9.2 58.6 9.2 59.7 C 9.24 59.69 9.2 60.8 9.2 60.8 L 11.2 60.8 L 11.2 61.3 L 9.2 61.3 L 9.2 67.2 L 8.7 67.2 L 8.7 61.3 Z M 18.7 61.3 L 17.7 61.3 L 17.7 60.8 L 18.7 60.8 C 18.7 60.8 18.69 59.6 18.7 59.6 C 18.7 58.3 19.5 57.6 20.6 57.6 C 20.9 57.6 21.3 57.7 21.5 57.8 C 21.5 57.8 21.5 58.3 21.5 58.3 C 21.3 58.2 20.9 58.1 20.6 58.1 C 19.8 58.1 19.2 58.6 19.2 59.7 C 19.2 59.69 19.2 60.8 19.2 60.8 L 21.1 60.8 L 21.1 61.3 L 19.2 61.3 L 19.2 67.2 L 18.7 67.2 L 18.7 61.3 Z M 22.5 58.5 C 22.5 58.3 22.7 58.1 22.9 58.1 C 23.2 58.1 23.3 58.3 23.3 58.5 C 23.3 58.7 23.2 58.9 22.9 58.9 C 22.7 58.9 22.5 58.7 22.5 58.5 Z M 22.7 60.8 L 23.2 60.8 L 23.2 67.2 L 22.7 67.2 L 22.7 60.8 Z M 24.7 60.8 L 25.3 60.8 L 27.4 66.6 L 27.4 66.6 L 29.5 60.8 L 30 60.8 L 27.7 67.2 L 27.1 67.2 L 24.7 60.8 Z M 36.5 64.2 C 36.5 64.2 31.4 64.2 31.4 64.2 C 31.5 65.8 32.5 66.8 34 66.8 C 34.7 66.8 35.5 66.6 36.2 65.9 C 36.2 65.9 36.2 66.5 36.2 66.5 C 35.6 67 34.8 67.3 33.9 67.3 C 32.2 67.3 30.9 66 30.9 64 C 30.9 62 32.3 60.7 33.9 60.7 C 35.3 60.7 36.5 61.8 36.5 63.9 C 36.5 64 36.5 64.1 36.5 64.2 Z M 36 63.7 C 36 62 34.9 61.2 33.9 61.2 C 32.6 61.2 31.5 62.2 31.4 63.7 C 31.4 63.7 36 63.7 36 63.7 Z M 52.3 62.9 C 52.25 62.88 52.3 67.2 52.3 67.2 L 51.8 67.2 C 51.8 67.2 51.75 62.93 51.8 62.9 C 51.8 61.9 51.3 61.2 50.3 61.2 C 49.3 61.2 48.6 62 48.6 62.9 C 48.64 62.94 48.6 67.2 48.6 67.2 L 48.1 67.2 C 48.1 67.2 48.14 62.93 48.1 62.9 C 48.1 61.9 47.6 61.2 46.6 61.2 C 45.6 61.2 45 62 45 63 C 45.03 62.96 45 67.2 45 67.2 L 44.5 67.2 L 44.5 60.8 L 44.9 60.8 L 45 61.9 C 45 61.9 44.99 61.88 45 61.9 C 45.3 61.2 45.9 60.7 46.7 60.7 C 47.7 60.7 48.2 61.2 48.5 62 C 48.8 61.2 49.4 60.7 50.3 60.7 C 51.6 60.7 52.3 61.6 52.3 62.9 Z M 54 64 C 54 62.1 55.4 60.7 57.1 60.7 C 58.7 60.7 60.1 62.1 60.1 64 C 60.1 66 58.7 67.3 57.1 67.3 C 55.4 67.3 54 66 54 64 Z M 59.6 64 C 59.6 62.2 58.4 61.2 57.1 61.2 C 55.7 61.2 54.5 62.2 54.5 64 C 54.5 65.8 55.8 66.8 57.1 66.8 C 58.4 66.8 59.6 65.8 59.6 64 Z M 66.7 63 C 66.7 62.96 66.7 67.2 66.7 67.2 L 66.2 67.2 C 66.2 67.2 66.2 63.17 66.2 63.2 C 66.2 61.9 65.5 61.2 64.4 61.2 C 63.3 61.2 62.4 61.9 62.4 63.1 C 62.42 63.11 62.4 67.2 62.4 67.2 L 61.9 67.2 L 61.9 60.8 L 62.3 60.8 L 62.4 62 C 62.4 62 62.38 61.96 62.4 62 C 62.7 61.2 63.5 60.7 64.5 60.7 C 65.8 60.7 66.7 61.6 66.7 63 Z M 69.5 60.8 L 71.4 60.8 L 71.4 61.3 L 69.5 61.3 C 69.5 61.3 69.52 65.2 69.5 65.2 C 69.5 66.4 70.2 66.8 71.1 66.8 C 71.2 66.8 71.4 66.8 71.6 66.8 C 71.6 66.8 71.6 67.2 71.6 67.2 C 71.5 67.2 71.3 67.3 71 67.3 C 69.8 67.3 69 66.6 69 65.2 C 69.02 65.22 69 61.3 69 61.3 L 68 61.3 L 68 60.8 L 69 60.8 L 69 59.3 L 69.5 59.3 L 69.5 60.8 Z M 73.5 61.8 C 73.5 61.8 73.47 61.84 73.5 61.8 C 73.8 61.1 74.6 60.7 75.5 60.7 C 76.9 60.7 77.7 61.5 77.7 63 C 77.74 62.98 77.7 67.2 77.7 67.2 L 77.2 67.2 C 77.2 67.2 77.24 63.16 77.2 63.2 C 77.2 61.9 76.6 61.2 75.4 61.2 C 74.4 61.2 73.5 61.8 73.5 63 C 73.46 63.05 73.5 67.2 73.5 67.2 L 73 67.2 L 73 57.7 L 73.5 57.7 L 73.5 61.8 Z M 83.5 61.3 C 83.5 61.3 83.5 61.8 83.5 61.8 C 83 61.5 82.4 61.2 81.7 61.2 C 80.7 61.2 80.1 61.7 80.1 62.4 C 80.1 63.1 80.8 63.4 81.8 63.7 C 82.8 64.1 83.8 64.4 83.8 65.5 C 83.8 66.6 82.9 67.3 81.7 67.3 C 80.9 67.3 80.1 67.1 79.5 66.6 C 79.5 66.6 79.5 65.9 79.5 65.9 C 80.1 66.5 80.8 66.8 81.7 66.8 C 82.7 66.8 83.3 66.3 83.3 65.5 C 83.3 64.8 82.6 64.5 81.6 64.1 C 80.5 63.8 79.6 63.5 79.6 62.4 C 79.6 61.4 80.5 60.7 81.7 60.7 C 82.4 60.7 83 60.9 83.5 61.3 Z M 95.4 61.5 L 95.3 61.5 L 93.4 67.2 L 92.8 67.2 L 90.9 60.8 L 91.4 60.8 L 93.1 66.6 L 93.1 66.6 L 95.1 60.8 L 95.6 60.8 L 97.6 66.6 L 97.6 66.6 L 99.3 60.8 L 99.8 60.8 L 97.9 67.2 L 97.3 67.2 L 95.4 61.5 Z M 106.3 64.2 C 106.3 64.2 101.3 64.2 101.3 64.2 C 101.4 65.8 102.4 66.8 103.8 66.8 C 104.6 66.8 105.4 66.6 106.1 65.9 C 106.1 65.9 106.1 66.5 106.1 66.5 C 105.4 67 104.6 67.3 103.8 67.3 C 102 67.3 100.8 66 100.8 64 C 100.8 62 102.2 60.7 103.7 60.7 C 105.2 60.7 106.4 61.8 106.4 63.9 C 106.4 64 106.4 64.1 106.3 64.2 Z M 105.9 63.7 C 105.8 62 104.8 61.2 103.7 61.2 C 102.5 61.2 101.4 62.2 101.3 63.7 C 101.3 63.7 105.9 63.7 105.9 63.7 Z M 114.9 61.8 C 114.9 61.8 114.92 61.84 114.9 61.8 C 115.3 61.1 116.1 60.7 116.9 60.7 C 118.3 60.7 119.2 61.5 119.2 63 C 119.19 62.98 119.2 67.2 119.2 67.2 L 118.7 67.2 C 118.7 67.2 118.69 63.16 118.7 63.2 C 118.7 61.9 118.1 61.2 116.9 61.2 C 115.9 61.2 114.9 61.8 114.9 63 C 114.91 63.05 114.9 67.2 114.9 67.2 L 114.4 67.2 L 114.4 57.7 L 114.9 57.7 L 114.9 61.8 Z M 120.9 64 C 120.9 62 122.4 60.7 123.9 60.7 C 124.9 60.7 125.9 61.3 126.4 62.4 C 126.36 62.42 126.4 60.8 126.4 60.8 L 126.8 60.8 L 126.8 67.2 L 126.4 67.2 C 126.4 67.2 126.36 65.6 126.4 65.6 C 125.9 66.8 124.9 67.3 123.9 67.3 C 122.4 67.3 120.9 66 120.9 64 Z M 126.3 64 C 126.3 62.3 125.2 61.2 123.9 61.2 C 122.6 61.2 121.5 62.3 121.5 64 C 121.5 65.7 122.6 66.8 123.9 66.8 C 125.2 66.8 126.3 65.7 126.3 64 Z M 128.4 60.8 L 128.9 60.8 L 131 66.6 L 131 66.6 L 133.1 60.8 L 133.6 60.8 L 131.3 67.2 L 130.7 67.2 L 128.4 60.8 Z M 140.1 64.2 C 140.1 64.2 135 64.2 135 64.2 C 135.1 65.8 136.2 66.8 137.6 66.8 C 138.4 66.8 139.2 66.6 139.9 65.9 C 139.9 65.9 139.9 66.5 139.9 66.5 C 139.2 67 138.4 67.3 137.6 67.3 C 135.8 67.3 134.5 66 134.5 64 C 134.5 62 135.9 60.7 137.5 60.7 C 138.9 60.7 140.1 61.8 140.1 63.9 C 140.1 64 140.1 64.1 140.1 64.2 Z M 139.6 63.7 C 139.6 62 138.6 61.2 137.5 61.2 C 136.3 61.2 135.2 62.2 135 63.7 C 135 63.7 139.6 63.7 139.6 63.7 Z M 147.7 64 C 147.7 62 149.1 60.7 150.6 60.7 C 151.6 60.7 152.6 61.3 153.1 62.4 C 153.09 62.38 153.1 57.7 153.1 57.7 L 153.6 57.7 L 153.6 67.2 L 153.2 67.2 L 153.1 65.6 C 153.1 65.6 153.11 65.59 153.1 65.6 C 152.7 66.8 151.6 67.3 150.6 67.3 C 149.1 67.3 147.7 66 147.7 64 Z M 153.1 64 C 153.1 62.3 152 61.2 150.7 61.2 C 149.3 61.2 148.2 62.3 148.2 64 C 148.2 65.7 149.3 66.8 150.7 66.8 C 152 66.8 153.1 65.7 153.1 64 Z M 161 64.2 C 161 64.2 155.9 64.2 155.9 64.2 C 156 65.8 157 66.8 158.5 66.8 C 159.3 66.8 160.1 66.6 160.8 65.9 C 160.8 65.9 160.8 66.5 160.8 66.5 C 160.1 67 159.3 67.3 158.5 67.3 C 156.7 67.3 155.4 66 155.4 64 C 155.4 62 156.8 60.7 158.4 60.7 C 159.8 60.7 161 61.8 161 63.9 C 161 64 161 64.1 161 64.2 Z M 160.5 63.7 C 160.5 62 159.5 61.2 158.4 61.2 C 157.2 61.2 156 62.2 155.9 63.7 C 155.9 63.7 160.5 63.7 160.5 63.7 Z M 161.9 60.8 L 162.4 60.8 L 164.5 66.6 L 164.5 66.6 L 166.6 60.8 L 167.1 60.8 L 164.8 67.2 L 164.2 67.2 L 161.9 60.8 Z M 173.6 64.2 C 173.6 64.2 168.5 64.2 168.5 64.2 C 168.6 65.8 169.6 66.8 171.1 66.8 C 171.8 66.8 172.7 66.6 173.3 65.9 C 173.3 65.9 173.3 66.5 173.3 66.5 C 172.7 67 171.9 67.3 171.1 67.3 C 169.3 67.3 168 66 168 64 C 168 62 169.4 60.7 171 60.7 C 172.4 60.7 173.6 61.8 173.6 63.9 C 173.6 64 173.6 64.1 173.6 64.2 Z M 173.1 63.7 C 173.1 62 172 61.2 171 61.2 C 169.8 61.2 168.6 62.2 168.5 63.7 C 168.5 63.7 173.1 63.7 173.1 63.7 Z M 175.4 57.7 L 175.9 57.7 L 175.9 67.2 L 175.4 67.2 L 175.4 57.7 Z M 177.8 64 C 177.8 62.1 179.2 60.7 180.8 60.7 C 182.5 60.7 183.9 62.1 183.9 64 C 183.9 66 182.5 67.3 180.8 67.3 C 179.2 67.3 177.8 66 177.8 64 Z M 183.4 64 C 183.4 62.2 182.1 61.2 180.8 61.2 C 179.5 61.2 178.3 62.2 178.3 64 C 178.3 65.8 179.5 66.8 180.8 66.8 C 182.1 66.8 183.4 65.8 183.4 64 Z M 185.7 60.8 L 186.1 60.8 C 186.1 60.8 186.17 62.44 186.2 62.4 C 186.6 61.3 187.7 60.7 188.7 60.7 C 190.2 60.7 191.6 62 191.6 64 C 191.6 66 190.2 67.3 188.7 67.3 C 187.7 67.3 186.6 66.7 186.2 65.7 C 186.2 65.65 186.2 69.8 186.2 69.8 L 185.7 69.8 L 185.7 60.8 Z M 191.1 64 C 191.1 62.3 190 61.2 188.6 61.2 C 187.3 61.2 186.2 62.3 186.2 64 C 186.2 65.7 187.3 66.8 188.6 66.8 C 189.9 66.8 191.1 65.7 191.1 64 Z M 198.5 64.2 C 198.5 64.2 193.5 64.2 193.5 64.2 C 193.6 65.8 194.6 66.8 196 66.8 C 196.8 66.8 197.6 66.6 198.3 65.9 C 198.3 65.9 198.3 66.5 198.3 66.5 C 197.6 67 196.8 67.3 196 67.3 C 194.2 67.3 193 66 193 64 C 193 62 194.4 60.7 195.9 60.7 C 197.3 60.7 198.6 61.8 198.6 63.9 C 198.6 64 198.5 64.1 198.5 64.2 Z M 198.1 63.7 C 198 62 197 61.2 195.9 61.2 C 194.7 61.2 193.6 62.2 193.5 63.7 C 193.5 63.7 198.1 63.7 198.1 63.7 Z M 199.9 64 C 199.9 62 201.3 60.7 202.8 60.7 C 203.8 60.7 204.8 61.3 205.3 62.4 C 205.29 62.38 205.3 57.7 205.3 57.7 L 205.8 57.7 L 205.8 67.2 L 205.4 67.2 L 205.3 65.6 C 205.3 65.6 205.31 65.59 205.3 65.6 C 204.9 66.8 203.8 67.3 202.8 67.3 C 201.3 67.3 199.9 66 199.9 64 Z M 205.3 64 C 205.3 62.3 204.2 61.2 202.9 61.2 C 201.5 61.2 200.4 62.3 200.4 64 C 200.4 65.7 201.5 66.8 202.9 66.8 C 204.2 66.8 205.3 65.7 205.3 64 Z " stroke="none" fill="#000"/>
  </g>
  <g id="Polygon17086">
    <path d="M 1.4 43.9 L 5.8 43.9 L 5.8 44.4 L 1.9 44.4 L 1.9 48 L 5.5 48 L 5.5 48.5 L 1.9 48.5 L 1.9 52.3 L 5.8 52.3 L 5.8 52.8 L 1.4 52.8 L 1.4 43.9 Z M 12.6 48.6 C 12.59 48.56 12.6 52.8 12.6 52.8 L 12.1 52.8 C 12.1 52.8 12.08 48.77 12.1 48.8 C 12.1 47.5 11.4 46.8 10.3 46.8 C 9.2 46.8 8.3 47.5 8.3 48.7 C 8.3 48.71 8.3 52.8 8.3 52.8 L 7.8 52.8 L 7.8 46.4 L 8.2 46.4 L 8.3 47.6 C 8.3 47.6 8.27 47.56 8.3 47.6 C 8.6 46.8 9.4 46.3 10.3 46.3 C 11.7 46.3 12.6 47.2 12.6 48.6 Z M 18.3 46.9 C 18.3 46.9 18.3 47.4 18.3 47.4 C 17.8 47.1 17.2 46.8 16.5 46.8 C 15.6 46.8 14.9 47.3 14.9 48 C 14.9 48.7 15.6 49 16.6 49.3 C 17.6 49.7 18.6 50 18.6 51.1 C 18.6 52.2 17.8 52.9 16.5 52.9 C 15.7 52.9 15 52.7 14.3 52.2 C 14.3 52.2 14.3 51.5 14.3 51.5 C 14.9 52.1 15.6 52.4 16.5 52.4 C 17.5 52.4 18.1 51.9 18.1 51.1 C 18.1 50.4 17.4 50.1 16.4 49.7 C 15.3 49.4 14.4 49.1 14.4 48 C 14.4 47 15.3 46.3 16.5 46.3 C 17.2 46.3 17.8 46.5 18.3 46.9 Z M 19.9 49.6 C 19.9 47.6 21.3 46.3 22.8 46.3 C 23.9 46.3 24.9 46.9 25.4 48 C 25.36 48.02 25.4 46.4 25.4 46.4 L 25.8 46.4 L 25.8 52.8 L 25.4 52.8 C 25.4 52.8 25.36 51.2 25.4 51.2 C 24.9 52.4 23.9 52.9 22.9 52.9 C 21.3 52.9 19.9 51.6 19.9 49.6 Z M 25.3 49.6 C 25.3 47.9 24.2 46.8 22.9 46.8 C 21.6 46.8 20.4 47.9 20.4 49.6 C 20.4 51.3 21.6 52.4 22.9 52.4 C 24.2 52.4 25.3 51.3 25.3 49.6 Z M 27.6 49.6 C 27.6 47.6 29.1 46.3 30.6 46.3 C 31.6 46.3 32.6 46.9 33.1 48 C 33.06 48.02 33.1 46.4 33.1 46.4 L 33.5 46.4 L 33.5 52.8 L 33.1 52.8 C 33.1 52.8 33.06 51.2 33.1 51.2 C 32.6 52.4 31.6 52.9 30.6 52.9 C 29.1 52.9 27.6 51.6 27.6 49.6 Z M 33 49.6 C 33 47.9 31.9 46.8 30.6 46.8 C 29.3 46.8 28.2 47.9 28.2 49.6 C 28.2 51.3 29.3 52.4 30.6 52.4 C 31.9 52.4 33 51.3 33 49.6 Z M 43.5 48.5 C 43.53 48.48 43.5 52.8 43.5 52.8 L 43 52.8 C 43 52.8 43.03 48.53 43 48.5 C 43 47.5 42.5 46.8 41.5 46.8 C 40.5 46.8 39.9 47.6 39.9 48.5 C 39.92 48.54 39.9 52.8 39.9 52.8 L 39.4 52.8 C 39.4 52.8 39.42 48.53 39.4 48.5 C 39.4 47.5 38.9 46.8 37.9 46.8 C 36.9 46.8 36.3 47.6 36.3 48.6 C 36.31 48.56 36.3 52.8 36.3 52.8 L 35.8 52.8 L 35.8 46.4 L 36.2 46.4 L 36.3 47.5 C 36.3 47.5 36.27 47.48 36.3 47.5 C 36.6 46.8 37.2 46.3 38 46.3 C 38.9 46.3 39.5 46.8 39.8 47.6 C 40.1 46.8 40.7 46.3 41.6 46.3 C 42.9 46.3 43.5 47.2 43.5 48.5 Z M 45.3 49.6 C 45.3 47.6 46.7 46.3 48.2 46.3 C 49.2 46.3 50.2 46.9 50.7 48 C 50.7 48.02 50.8 46.4 50.8 46.4 L 51.2 46.4 L 51.2 52.8 L 50.8 52.8 C 50.8 52.8 50.7 51.2 50.7 51.2 C 50.2 52.4 49.2 52.9 48.2 52.9 C 46.7 52.9 45.3 51.6 45.3 49.6 Z M 50.7 49.6 C 50.7 47.9 49.6 46.8 48.2 46.8 C 46.9 46.8 45.8 47.9 45.8 49.6 C 45.8 51.3 46.9 52.4 48.3 52.4 C 49.6 52.4 50.7 51.3 50.7 49.6 Z M 65.4 46.9 C 65.4 46.9 65.4 47.4 65.4 47.4 C 64.9 47.1 64.3 46.8 63.6 46.8 C 62.7 46.8 62 47.3 62 48 C 62 48.7 62.7 49 63.7 49.3 C 64.7 49.7 65.8 50 65.8 51.1 C 65.8 52.2 64.9 52.9 63.6 52.9 C 62.8 52.9 62.1 52.7 61.4 52.2 C 61.4 52.2 61.4 51.5 61.4 51.5 C 62 52.1 62.8 52.4 63.6 52.4 C 64.6 52.4 65.3 51.9 65.3 51.1 C 65.3 50.4 64.5 50.1 63.5 49.7 C 62.5 49.4 61.5 49.1 61.5 48 C 61.5 47 62.4 46.3 63.6 46.3 C 64.3 46.3 65 46.5 65.4 46.9 Z M 70.1 52.4 C 70.6 52.4 71.3 52.3 71.8 51.9 C 71.8 51.9 71.8 52.5 71.8 52.5 C 71.4 52.8 70.8 52.9 70.1 52.9 C 68.4 52.9 67.1 51.5 67.1 49.6 C 67.1 47.7 68.4 46.3 70.1 46.3 C 70.7 46.3 71.3 46.4 71.8 46.8 C 71.8 46.8 71.8 47.3 71.8 47.3 C 71.3 46.9 70.7 46.8 70.1 46.8 C 68.8 46.8 67.6 47.9 67.6 49.6 C 67.6 51.3 68.8 52.4 70.1 52.4 Z M 74.1 47.4 C 74.1 47.4 74.14 47.44 74.1 47.4 C 74.5 46.7 75.3 46.3 76.2 46.3 C 77.5 46.3 78.4 47.1 78.4 48.6 C 78.41 48.58 78.4 52.8 78.4 52.8 L 77.9 52.8 C 77.9 52.8 77.91 48.76 77.9 48.8 C 77.9 47.5 77.3 46.8 76.1 46.8 C 75.1 46.8 74.1 47.4 74.1 48.6 C 74.13 48.65 74.1 52.8 74.1 52.8 L 73.6 52.8 L 73.6 43.3 L 74.1 43.3 L 74.1 47.4 Z M 80.2 49.6 C 80.2 47.7 81.5 46.3 83.2 46.3 C 84.9 46.3 86.2 47.7 86.2 49.6 C 86.2 51.6 84.9 52.9 83.2 52.9 C 81.5 52.9 80.2 51.6 80.2 49.6 Z M 85.7 49.6 C 85.7 47.8 84.5 46.8 83.2 46.8 C 81.9 46.8 80.7 47.8 80.7 49.6 C 80.7 51.4 81.9 52.4 83.2 52.4 C 84.5 52.4 85.7 51.4 85.7 49.6 Z M 87.6 49.6 C 87.6 47.7 89 46.3 90.7 46.3 C 92.3 46.3 93.7 47.7 93.7 49.6 C 93.7 51.6 92.3 52.9 90.7 52.9 C 89 52.9 87.6 51.6 87.6 49.6 Z M 93.2 49.6 C 93.2 47.8 92 46.8 90.7 46.8 C 89.4 46.8 88.1 47.8 88.1 49.6 C 88.1 51.4 89.4 52.4 90.7 52.4 C 92 52.4 93.2 51.4 93.2 49.6 Z M 95.6 43.3 L 96.1 43.3 L 96.1 52.8 L 95.6 52.8 L 95.6 43.3 Z M 98.1 52.4 C 98.1 52.1 98.3 51.9 98.6 51.9 C 98.9 51.9 99.1 52.1 99.1 52.4 C 99.1 52.6 98.9 52.8 98.6 52.8 C 98.3 52.8 98.1 52.6 98.1 52.4 Z M 116.3 48.3 C 116.3 51.1 114.4 52.8 111.7 52.8 C 111.66 52.8 109.9 52.8 109.9 52.8 L 109.9 43.9 C 109.9 43.9 111.66 43.88 111.7 43.9 C 114.5 43.9 116.3 45.6 116.3 48.3 Z M 110.4 52.3 C 110.4 52.3 111.68 52.32 111.7 52.3 C 114.1 52.3 115.8 50.9 115.8 48.3 C 115.8 45.8 114.1 44.4 111.7 44.4 C 111.7 44.38 110.4 44.4 110.4 44.4 L 110.4 52.3 Z M 118.2 50.5 C 118.17 50.48 118.2 46.4 118.2 46.4 L 118.7 46.4 C 118.7 46.4 118.67 50.51 118.7 50.5 C 118.7 51.7 119.4 52.4 120.6 52.4 C 121.7 52.4 122.5 51.7 122.5 50.5 C 122.46 50.5 122.5 46.4 122.5 46.4 L 123 46.4 C 123 46.4 122.96 50.47 123 50.5 C 123 51.9 122 52.9 120.6 52.9 C 119.1 52.9 118.2 51.9 118.2 50.5 Z M 125.2 46.4 L 125.6 46.4 L 125.6 47.6 C 125.6 47.6 125.63 47.62 125.6 47.6 C 126 46.7 126.9 46.4 127.5 46.4 C 127.6 46.4 127.8 46.4 127.9 46.4 C 127.9 46.4 127.9 46.9 127.9 46.9 C 127.8 46.9 127.6 46.9 127.5 46.9 C 126.6 46.9 125.7 47.5 125.7 48.8 C 125.66 48.77 125.7 52.8 125.7 52.8 L 125.2 52.8 L 125.2 46.4 Z M 129.1 44.1 C 129.1 43.9 129.3 43.7 129.5 43.7 C 129.8 43.7 129.9 43.9 129.9 44.1 C 129.9 44.3 129.8 44.5 129.5 44.5 C 129.3 44.5 129.1 44.3 129.1 44.1 Z M 129.3 46.4 L 129.8 46.4 L 129.8 52.8 L 129.3 52.8 L 129.3 46.4 Z M 136.9 48.6 C 136.87 48.56 136.9 52.8 136.9 52.8 L 136.4 52.8 C 136.4 52.8 136.37 48.77 136.4 48.8 C 136.4 47.5 135.7 46.8 134.6 46.8 C 133.5 46.8 132.6 47.5 132.6 48.7 C 132.59 48.71 132.6 52.8 132.6 52.8 L 132.1 52.8 L 132.1 46.4 L 132.5 46.4 L 132.5 47.6 C 132.5 47.6 132.55 47.56 132.6 47.6 C 132.9 46.8 133.7 46.3 134.6 46.3 C 136 46.3 136.9 47.2 136.9 48.6 Z M 144 48 C 143.99 47.96 144.1 46.4 144.1 46.4 L 144.5 46.4 C 144.5 46.4 144.46 52.6 144.5 52.6 C 144.5 54.6 143.1 55.5 141.6 55.5 C 140.8 55.5 139.9 55.2 139.2 54.7 C 139.2 54.7 139.2 54.1 139.2 54.1 C 139.9 54.7 140.8 55 141.6 55 C 142.8 55 144 54.3 144 52.7 C 144 52.7 144 51.1 144 51.1 C 143.5 52.2 142.5 52.7 141.5 52.7 C 140 52.7 138.6 51.5 138.6 49.5 C 138.6 47.6 140 46.3 141.5 46.3 C 142.5 46.3 143.5 46.9 144 48 Z M 139.1 49.5 C 139.1 51.2 140.2 52.2 141.6 52.2 C 142.9 52.2 144 51.1 144 49.5 C 144 47.9 142.9 46.8 141.6 46.8 C 140.2 46.8 139.1 47.9 139.1 49.5 Z M 154.7 49.6 C 154.7 47.6 156.1 46.3 157.6 46.3 C 158.6 46.3 159.7 46.9 160.1 48 C 160.14 48.02 160.2 46.4 160.2 46.4 L 160.6 46.4 L 160.6 52.8 L 160.2 52.8 C 160.2 52.8 160.14 51.2 160.1 51.2 C 159.7 52.4 158.6 52.9 157.6 52.9 C 156.1 52.9 154.7 51.6 154.7 49.6 Z M 160.1 49.6 C 160.1 47.9 159 46.8 157.7 46.8 C 156.4 46.8 155.2 47.9 155.2 49.6 C 155.2 51.3 156.4 52.4 157.7 52.4 C 159 52.4 160.1 51.3 160.1 49.6 Z M 171.3 46.4 L 171.7 46.4 C 171.7 46.4 171.79 48.04 171.8 48 C 172.3 46.9 173.3 46.3 174.3 46.3 C 175.8 46.3 177.2 47.6 177.2 49.6 C 177.2 51.6 175.8 52.9 174.3 52.9 C 173.3 52.9 172.3 52.3 171.8 51.3 C 171.83 51.25 171.8 55.4 171.8 55.4 L 171.3 55.4 L 171.3 46.4 Z M 176.7 49.6 C 176.7 47.9 175.6 46.8 174.3 46.8 C 172.9 46.8 171.8 47.9 171.8 49.6 C 171.8 51.3 172.9 52.4 174.3 52.4 C 175.6 52.4 176.7 51.3 176.7 49.6 Z M 184.2 49.8 C 184.2 49.8 179.1 49.8 179.1 49.8 C 179.2 51.4 180.2 52.4 181.7 52.4 C 182.4 52.4 183.2 52.2 183.9 51.5 C 183.9 51.5 183.9 52.1 183.9 52.1 C 183.3 52.6 182.5 52.9 181.6 52.9 C 179.8 52.9 178.6 51.6 178.6 49.6 C 178.6 47.6 180 46.3 181.5 46.3 C 183 46.3 184.2 47.4 184.2 49.5 C 184.2 49.6 184.2 49.7 184.2 49.8 Z M 183.7 49.3 C 183.7 47.6 182.6 46.8 181.5 46.8 C 180.3 46.8 179.2 47.8 179.1 49.3 C 179.1 49.3 183.7 49.3 183.7 49.3 Z M 186 46.4 L 186.4 46.4 L 186.4 47.6 C 186.4 47.6 186.45 47.62 186.4 47.6 C 186.8 46.7 187.7 46.4 188.3 46.4 C 188.5 46.4 188.6 46.4 188.7 46.4 C 188.7 46.4 188.7 46.9 188.7 46.9 C 188.6 46.9 188.5 46.9 188.3 46.9 C 187.4 46.9 186.5 47.5 186.5 48.8 C 186.48 48.77 186.5 52.8 186.5 52.8 L 186 52.8 L 186 46.4 Z M 189.9 44.1 C 189.9 43.9 190.1 43.7 190.3 43.7 C 190.6 43.7 190.7 43.9 190.7 44.1 C 190.7 44.3 190.6 44.5 190.3 44.5 C 190.1 44.5 189.9 44.3 189.9 44.1 Z M 190.1 46.4 L 190.6 46.4 L 190.6 52.8 L 190.1 52.8 L 190.1 46.4 Z M 192.4 49.6 C 192.4 47.7 193.8 46.3 195.5 46.3 C 197.2 46.3 198.5 47.7 198.5 49.6 C 198.5 51.6 197.2 52.9 195.5 52.9 C 193.8 52.9 192.4 51.6 192.4 49.6 Z M 198 49.6 C 198 47.8 196.8 46.8 195.5 46.8 C 194.2 46.8 192.9 47.8 192.9 49.6 C 192.9 51.4 194.2 52.4 195.5 52.4 C 196.8 52.4 198 51.4 198 49.6 Z M 199.9 49.6 C 199.9 47.6 201.3 46.3 202.8 46.3 C 203.8 46.3 204.8 46.9 205.3 48 C 205.29 47.98 205.3 43.3 205.3 43.3 L 205.8 43.3 L 205.8 52.8 L 205.4 52.8 L 205.3 51.2 C 205.3 51.2 205.31 51.19 205.3 51.2 C 204.9 52.4 203.8 52.9 202.8 52.9 C 201.3 52.9 199.9 51.6 199.9 49.6 Z M 205.3 49.6 C 205.3 47.9 204.2 46.8 202.9 46.8 C 201.5 46.8 200.4 47.9 200.4 49.6 C 200.4 51.3 201.5 52.4 202.9 52.4 C 204.2 52.4 205.3 51.3 205.3 49.6 Z " stroke="none" fill="#000"/>
  </g>
  <g id="Polygon17085">
    <path d="M 6.3 35.4 C 6.3 35.4 1.2 35.4 1.2 35.4 C 1.3 37 2.3 38 3.8 38 C 4.5 38 5.3 37.8 6 37.1 C 6 37.1 6 37.7 6 37.7 C 5.4 38.2 4.6 38.5 3.7 38.5 C 1.9 38.5 0.7 37.2 0.7 35.2 C 0.7 33.2 2.1 31.9 3.6 31.9 C 5.1 31.9 6.3 33 6.3 35.1 C 6.3 35.2 6.3 35.3 6.3 35.4 Z M 5.8 34.9 C 5.7 33.2 4.7 32.4 3.6 32.4 C 2.4 32.4 1.3 33.4 1.2 34.9 C 1.2 34.9 5.8 34.9 5.8 34.9 Z M 11.6 32.5 C 11.6 32.5 11.6 33 11.6 33 C 11.1 32.7 10.5 32.4 9.8 32.4 C 8.9 32.4 8.2 32.9 8.2 33.6 C 8.2 34.3 8.9 34.6 9.9 34.9 C 10.9 35.3 11.9 35.6 11.9 36.7 C 11.9 37.8 11.1 38.5 9.8 38.5 C 9 38.5 8.3 38.3 7.6 37.8 C 7.6 37.8 7.6 37.1 7.6 37.1 C 8.2 37.7 8.9 38 9.8 38 C 10.8 38 11.4 37.5 11.4 36.7 C 11.4 36 10.7 35.7 9.7 35.3 C 8.6 35 7.7 34.7 7.7 33.6 C 7.7 32.6 8.6 31.9 9.8 31.9 C 10.5 31.9 11.1 32.1 11.6 32.5 Z M 14.4 32 L 16.3 32 L 16.3 32.5 L 14.4 32.5 C 14.4 32.5 14.37 36.4 14.4 36.4 C 14.4 37.6 15 38 15.9 38 C 16.1 38 16.3 38 16.5 38 C 16.5 38 16.5 38.4 16.5 38.4 C 16.4 38.4 16.1 38.5 15.9 38.5 C 14.7 38.5 13.9 37.8 13.9 36.4 C 13.87 36.42 13.9 32.5 13.9 32.5 L 12.9 32.5 L 12.9 32 L 13.9 32 L 13.9 30.5 L 14.4 30.5 L 14.4 32 Z M 17.3 35.2 C 17.3 33.2 18.7 31.9 20.2 31.9 C 21.2 31.9 22.2 32.5 22.7 33.6 C 22.68 33.62 22.8 32 22.8 32 L 23.1 32 L 23.1 38.4 L 22.8 38.4 C 22.8 38.4 22.68 36.8 22.7 36.8 C 22.2 38 21.2 38.5 20.2 38.5 C 18.7 38.5 17.3 37.2 17.3 35.2 Z M 22.7 35.2 C 22.7 33.5 21.6 32.4 20.2 32.4 C 18.9 32.4 17.8 33.5 17.8 35.2 C 17.8 36.9 18.9 38 20.2 38 C 21.5 38 22.7 36.9 22.7 35.2 Z M 25.9 33.6 C 26.4 32.5 27.4 31.9 28.4 31.9 C 29.9 31.9 31.3 33.2 31.3 35.2 C 31.3 37.2 29.9 38.5 28.4 38.5 C 27.4 38.5 26.4 38 25.9 36.8 C 25.9 36.79 25.8 38.4 25.8 38.4 L 25.4 38.4 L 25.4 28.9 L 25.9 28.9 C 25.9 28.9 25.93 33.59 25.9 33.6 Z M 25.9 35.2 C 25.9 36.9 27 38 28.4 38 C 29.7 38 30.8 36.9 30.8 35.2 C 30.8 33.5 29.7 32.4 28.4 32.4 C 27 32.4 25.9 33.5 25.9 35.2 Z M 33.2 28.9 L 33.7 28.9 L 33.7 38.4 L 33.2 38.4 L 33.2 28.9 Z M 35.9 29.7 C 35.9 29.5 36.1 29.3 36.3 29.3 C 36.5 29.3 36.7 29.5 36.7 29.7 C 36.7 29.9 36.5 30.1 36.3 30.1 C 36.1 30.1 35.9 29.9 35.9 29.7 Z M 36 32 L 36.5 32 L 36.5 38.4 L 36 38.4 L 36 32 Z M 42.4 32.5 C 42.4 32.5 42.4 33 42.4 33 C 41.9 32.7 41.3 32.4 40.6 32.4 C 39.6 32.4 39 32.9 39 33.6 C 39 34.3 39.7 34.6 40.7 34.9 C 41.7 35.3 42.7 35.6 42.7 36.7 C 42.7 37.8 41.9 38.5 40.6 38.5 C 39.8 38.5 39 38.3 38.4 37.8 C 38.4 37.8 38.4 37.1 38.4 37.1 C 39 37.7 39.7 38 40.6 38 C 41.6 38 42.2 37.5 42.2 36.7 C 42.2 36 41.5 35.7 40.5 35.3 C 39.4 35 38.5 34.7 38.5 33.6 C 38.5 32.6 39.4 31.9 40.6 31.9 C 41.3 31.9 41.9 32.1 42.4 32.5 Z M 45 33 C 45 33 44.99 33.04 45 33 C 45.3 32.3 46.1 31.9 47 31.9 C 48.4 31.9 49.3 32.7 49.3 34.2 C 49.26 34.18 49.3 38.4 49.3 38.4 L 48.8 38.4 C 48.8 38.4 48.76 34.36 48.8 34.4 C 48.8 33.1 48.1 32.4 47 32.4 C 45.9 32.4 45 33 45 34.2 C 44.97 34.25 45 38.4 45 38.4 L 44.5 38.4 L 44.5 28.9 L 45 28.9 L 45 33 Z M 56.6 35.4 C 56.6 35.4 51.5 35.4 51.5 35.4 C 51.6 37 52.6 38 54.1 38 C 54.9 38 55.7 37.8 56.4 37.1 C 56.4 37.1 56.4 37.7 56.4 37.7 C 55.7 38.2 54.9 38.5 54.1 38.5 C 52.3 38.5 51 37.2 51 35.2 C 51 33.2 52.4 31.9 54 31.9 C 55.4 31.9 56.6 33 56.6 35.1 C 56.6 35.2 56.6 35.3 56.6 35.4 Z M 56.1 34.9 C 56.1 33.2 55.1 32.4 54 32.4 C 52.8 32.4 51.6 33.4 51.5 34.9 C 51.5 34.9 56.1 34.9 56.1 34.9 Z M 58 35.2 C 58 33.2 59.4 31.9 60.9 31.9 C 61.9 31.9 62.9 32.5 63.3 33.6 C 63.34 33.58 63.3 28.9 63.3 28.9 L 63.8 28.9 L 63.8 38.4 L 63.4 38.4 L 63.4 36.8 C 63.4 36.8 63.36 36.79 63.4 36.8 C 62.9 38 61.9 38.5 60.9 38.5 C 59.4 38.5 58 37.2 58 35.2 Z M 63.4 35.2 C 63.4 33.5 62.2 32.4 60.9 32.4 C 59.6 32.4 58.5 33.5 58.5 35.2 C 58.5 36.9 59.6 38 60.9 38 C 62.2 38 63.4 36.9 63.4 35.2 Z M 72.7 35.2 C 72.7 33.2 74.1 31.9 75.6 31.9 C 76.6 31.9 77.6 32.5 78.1 33.6 C 78.1 33.62 78.2 32 78.2 32 L 78.6 32 L 78.6 38.4 L 78.2 38.4 C 78.2 38.4 78.1 36.8 78.1 36.8 C 77.6 38 76.6 38.5 75.6 38.5 C 74.1 38.5 72.7 37.2 72.7 35.2 Z M 78.1 35.2 C 78.1 33.5 77 32.4 75.6 32.4 C 74.3 32.4 73.2 33.5 73.2 35.2 C 73.2 36.9 74.3 38 75.6 38 C 77 38 78.1 36.9 78.1 35.2 Z M 87.9 32 L 88.3 32 C 88.3 32 88.33 33.64 88.3 33.6 C 88.8 32.5 89.8 31.9 90.8 31.9 C 92.4 31.9 93.7 33.2 93.7 35.2 C 93.7 37.2 92.4 38.5 90.8 38.5 C 89.8 38.5 88.8 37.9 88.4 36.9 C 88.37 36.85 88.4 41 88.4 41 L 87.9 41 L 87.9 32 Z M 93.2 35.2 C 93.2 33.5 92.1 32.4 90.8 32.4 C 89.5 32.4 88.3 33.5 88.3 35.2 C 88.3 36.9 89.5 38 90.8 38 C 92.1 38 93.2 36.9 93.2 35.2 Z M 95.1 35.2 C 95.1 33.2 96.5 31.9 98 31.9 C 99 31.9 100.1 32.5 100.5 33.6 C 100.54 33.62 100.6 32 100.6 32 L 101 32 L 101 38.4 L 100.6 38.4 C 100.6 38.4 100.54 36.8 100.5 36.8 C 100.1 38 99 38.5 98 38.5 C 96.5 38.5 95.1 37.2 95.1 35.2 Z M 100.5 35.2 C 100.5 33.5 99.4 32.4 98.1 32.4 C 96.8 32.4 95.6 33.5 95.6 35.2 C 95.6 36.9 96.8 38 98.1 38 C 99.4 38 100.5 36.9 100.5 35.2 Z M 103.3 32 L 103.7 32 L 103.7 33.2 C 103.7 33.2 103.75 33.22 103.8 33.2 C 104.1 32.3 105 32 105.6 32 C 105.8 32 105.9 32 106 32 C 106 32 106 32.5 106 32.5 C 105.9 32.5 105.8 32.5 105.6 32.5 C 104.7 32.5 103.8 33.1 103.8 34.4 C 103.79 34.37 103.8 38.4 103.8 38.4 L 103.3 38.4 L 103.3 32 Z M 108 32 L 109.9 32 L 109.9 32.5 L 108 32.5 C 108 32.5 108.04 36.4 108 36.4 C 108 37.6 108.7 38 109.6 38 C 109.8 38 109.9 38 110.1 38 C 110.1 38 110.1 38.4 110.1 38.4 C 110 38.4 109.8 38.5 109.5 38.5 C 108.4 38.5 107.5 37.8 107.5 36.4 C 107.53 36.42 107.5 32.5 107.5 32.5 L 106.5 32.5 L 106.5 32 L 107.5 32 L 107.5 30.5 L 108 30.5 L 108 32 Z M 116.3 34.2 C 116.26 34.16 116.3 38.4 116.3 38.4 L 115.8 38.4 C 115.8 38.4 115.75 34.37 115.8 34.4 C 115.8 33.1 115.1 32.4 113.9 32.4 C 112.9 32.4 112 33.1 112 34.3 C 111.97 34.31 112 38.4 112 38.4 L 111.5 38.4 L 111.5 32 L 111.9 32 L 111.9 33.2 C 111.9 33.2 111.94 33.16 111.9 33.2 C 112.3 32.4 113.1 31.9 114 31.9 C 115.4 31.9 116.3 32.8 116.3 34.2 Z M 123.6 35.4 C 123.6 35.4 118.5 35.4 118.5 35.4 C 118.6 37 119.6 38 121.1 38 C 121.8 38 122.7 37.8 123.3 37.1 C 123.3 37.1 123.3 37.7 123.3 37.7 C 122.7 38.2 121.9 38.5 121 38.5 C 119.3 38.5 118 37.2 118 35.2 C 118 33.2 119.4 31.9 121 31.9 C 122.4 31.9 123.6 33 123.6 35.1 C 123.6 35.2 123.6 35.3 123.6 35.4 Z M 123.1 34.9 C 123.1 33.2 122 32.4 121 32.4 C 119.7 32.4 118.6 33.4 118.5 34.9 C 118.5 34.9 123.1 34.9 123.1 34.9 Z M 125.4 32 L 125.8 32 L 125.8 33.2 C 125.8 33.2 125.86 33.22 125.9 33.2 C 126.2 32.3 127.1 32 127.7 32 C 127.9 32 128 32 128.1 32 C 128.1 32 128.1 32.5 128.1 32.5 C 128 32.5 127.9 32.5 127.7 32.5 C 126.8 32.5 125.9 33.1 125.9 34.4 C 125.89 34.37 125.9 38.4 125.9 38.4 L 125.4 38.4 L 125.4 32 Z M 132.9 32.5 C 132.9 32.5 132.9 33 132.9 33 C 132.4 32.7 131.8 32.4 131.1 32.4 C 130.2 32.4 129.5 32.9 129.5 33.6 C 129.5 34.3 130.2 34.6 131.2 34.9 C 132.2 35.3 133.2 35.6 133.2 36.7 C 133.2 37.8 132.4 38.5 131.1 38.5 C 130.3 38.5 129.6 38.3 128.9 37.8 C 128.9 37.8 128.9 37.1 128.9 37.1 C 129.5 37.7 130.2 38 131.1 38 C 132.1 38 132.7 37.5 132.7 36.7 C 132.7 36 132 35.7 131 35.3 C 129.9 35 129 34.7 129 33.6 C 129 32.6 129.9 31.9 131.1 31.9 C 131.8 31.9 132.4 32.1 132.9 32.5 Z M 135.5 33 C 135.5 33 135.52 33.04 135.5 33 C 135.9 32.3 136.7 31.9 137.5 31.9 C 138.9 31.9 139.8 32.7 139.8 34.2 C 139.79 34.18 139.8 38.4 139.8 38.4 L 139.3 38.4 C 139.3 38.4 139.28 34.36 139.3 34.4 C 139.3 33.1 138.6 32.4 137.5 32.4 C 136.5 32.4 135.5 33 135.5 34.2 C 135.5 34.25 135.5 38.4 135.5 38.4 L 135 38.4 L 135 28.9 L 135.5 28.9 L 135.5 33 Z M 141.9 29.7 C 141.9 29.5 142.1 29.3 142.3 29.3 C 142.5 29.3 142.7 29.5 142.7 29.7 C 142.7 29.9 142.5 30.1 142.3 30.1 C 142.1 30.1 141.9 29.9 141.9 29.7 Z M 142 32 L 142.5 32 L 142.5 38.4 L 142 38.4 L 142 32 Z M 144.9 32 L 145.2 32 C 145.2 32 145.32 33.64 145.3 33.6 C 145.8 32.5 146.8 31.9 147.8 31.9 C 149.3 31.9 150.7 33.2 150.7 35.2 C 150.7 37.2 149.3 38.5 147.8 38.5 C 146.8 38.5 145.8 37.9 145.4 36.9 C 145.36 36.85 145.4 41 145.4 41 L 144.9 41 L 144.9 32 Z M 150.2 35.2 C 150.2 33.5 149.1 32.4 147.8 32.4 C 146.5 32.4 145.3 33.5 145.3 35.2 C 145.3 36.9 146.5 38 147.8 38 C 149.1 38 150.2 36.9 150.2 35.2 Z M 163.1 32.7 L 163.1 32.7 L 161.1 38.4 L 160.6 38.4 L 158.7 32 L 159.2 32 L 160.8 37.8 L 160.9 37.8 L 162.9 32 L 163.4 32 L 165.4 37.8 L 165.4 37.8 L 167 32 L 167.5 32 L 165.7 38.4 L 165.1 38.4 L 163.1 32.7 Z M 169.1 29.7 C 169.1 29.5 169.2 29.3 169.5 29.3 C 169.7 29.3 169.9 29.5 169.9 29.7 C 169.9 29.9 169.7 30.1 169.5 30.1 C 169.2 30.1 169.1 29.9 169.1 29.7 Z M 169.2 32 L 169.7 32 L 169.7 38.4 L 169.2 38.4 L 169.2 32 Z M 172.7 32 L 174.6 32 L 174.6 32.5 L 172.7 32.5 C 172.7 32.5 172.7 36.4 172.7 36.4 C 172.7 37.6 173.3 38 174.2 38 C 174.4 38 174.6 38 174.8 38 C 174.8 38 174.8 38.4 174.8 38.4 C 174.7 38.4 174.5 38.5 174.2 38.5 C 173 38.5 172.2 37.8 172.2 36.4 C 172.2 36.42 172.2 32.5 172.2 32.5 L 171.2 32.5 L 171.2 32 L 172.2 32 L 172.2 30.5 L 172.7 30.5 L 172.7 32 Z M 176.6 33 C 176.6 33 176.65 33.04 176.7 33 C 177 32.3 177.8 31.9 178.7 31.9 C 180 31.9 180.9 32.7 180.9 34.2 C 180.92 34.18 180.9 38.4 180.9 38.4 L 180.4 38.4 C 180.4 38.4 180.42 34.36 180.4 34.4 C 180.4 33.1 179.8 32.4 178.6 32.4 C 177.6 32.4 176.6 33 176.6 34.2 C 176.64 34.25 176.6 38.4 176.6 38.4 L 176.1 38.4 L 176.1 28.9 L 176.6 28.9 L 176.6 33 Z M 190.7 32 L 192.6 32 L 192.6 32.5 L 190.7 32.5 C 190.7 32.5 190.7 36.4 190.7 36.4 C 190.7 37.6 191.3 38 192.2 38 C 192.4 38 192.6 38 192.8 38 C 192.8 38 192.8 38.4 192.8 38.4 C 192.7 38.4 192.5 38.5 192.2 38.5 C 191 38.5 190.2 37.8 190.2 36.4 C 190.2 36.42 190.2 32.5 190.2 32.5 L 189.2 32.5 L 189.2 32 L 190.2 32 L 190.2 30.5 L 190.7 30.5 L 190.7 32 Z M 194.6 33 C 194.6 33 194.65 33.04 194.7 33 C 195 32.3 195.8 31.9 196.7 31.9 C 198 31.9 198.9 32.7 198.9 34.2 C 198.92 34.18 198.9 38.4 198.9 38.4 L 198.4 38.4 C 198.4 38.4 198.42 34.36 198.4 34.4 C 198.4 33.1 197.8 32.4 196.6 32.4 C 195.6 32.4 194.6 33 194.6 34.2 C 194.64 34.25 194.6 38.4 194.6 38.4 L 194.1 38.4 L 194.1 28.9 L 194.6 28.9 L 194.6 33 Z M 206.2 35.4 C 206.2 35.4 201.2 35.4 201.2 35.4 C 201.3 37 202.3 38 203.7 38 C 204.5 38 205.3 37.8 206 37.1 C 206 37.1 206 37.7 206 37.7 C 205.3 38.2 204.6 38.5 203.7 38.5 C 201.9 38.5 200.7 37.2 200.7 35.2 C 200.7 33.2 202.1 31.9 203.6 31.9 C 205.1 31.9 206.3 33 206.3 35.1 C 206.3 35.2 206.3 35.3 206.2 35.4 Z M 205.8 34.9 C 205.7 33.2 204.7 32.4 203.6 32.4 C 202.4 32.4 201.3 33.4 201.2 34.9 C 201.2 34.9 205.8 34.9 205.8 34.9 Z " stroke="none" fill="#000"/>
  </g>
  <g id="Polygon17084">
    <path d="M 0.4 17.6 L 0.9 17.6 L 3 23.4 L 3 23.4 L 5.1 17.6 L 5.7 17.6 L 3.3 24 L 2.8 24 L 0.4 17.6 Z M 7.1 15.3 C 7.1 15.1 7.3 14.9 7.5 14.9 C 7.7 14.9 7.9 15.1 7.9 15.3 C 7.9 15.5 7.7 15.7 7.5 15.7 C 7.3 15.7 7.1 15.5 7.1 15.3 Z M 7.2 17.6 L 7.7 17.6 L 7.7 24 L 7.2 24 L 7.2 17.6 Z M 15 19.2 C 14.98 19.16 15 17.6 15 17.6 L 15.4 17.6 C 15.4 17.6 15.44 23.8 15.4 23.8 C 15.4 25.8 14.1 26.7 12.6 26.7 C 11.8 26.7 10.9 26.4 10.2 25.9 C 10.2 25.9 10.2 25.3 10.2 25.3 C 10.9 25.9 11.8 26.2 12.6 26.2 C 13.8 26.2 14.9 25.5 14.9 23.9 C 14.9 23.9 14.9 22.3 14.9 22.3 C 14.5 23.4 13.5 23.9 12.5 23.9 C 11 23.9 9.6 22.7 9.6 20.7 C 9.6 18.8 11 17.5 12.5 17.5 C 13.5 17.5 14.5 18.1 15 19.2 Z M 10.1 20.7 C 10.1 22.4 11.2 23.4 12.5 23.4 C 13.8 23.4 15 22.3 15 20.7 C 15 19.1 13.8 18 12.5 18 C 11.2 18 10.1 19.1 10.1 20.7 Z M 17.3 20.8 C 17.3 18.8 18.7 17.5 20.2 17.5 C 21.2 17.5 22.2 18.1 22.7 19.2 C 22.68 19.22 22.8 17.6 22.8 17.6 L 23.1 17.6 L 23.1 24 L 22.8 24 C 22.8 24 22.68 22.4 22.7 22.4 C 22.2 23.6 21.2 24.1 20.2 24.1 C 18.7 24.1 17.3 22.8 17.3 20.8 Z M 22.7 20.8 C 22.7 19.1 21.6 18 20.2 18 C 18.9 18 17.8 19.1 17.8 20.8 C 17.8 22.5 18.9 23.6 20.2 23.6 C 21.5 23.6 22.7 22.5 22.7 20.8 Z M 26.1 17.6 L 28 17.6 L 28 18.1 L 26.1 18.1 C 26.1 18.1 26.11 22 26.1 22 C 26.1 23.2 26.7 23.6 27.6 23.6 C 27.8 23.6 28 23.6 28.2 23.6 C 28.2 23.6 28.2 24 28.2 24 C 28.1 24 27.9 24.1 27.6 24.1 C 26.4 24.1 25.6 23.4 25.6 22 C 25.61 22.02 25.6 18.1 25.6 18.1 L 24.6 18.1 L 24.6 17.6 L 25.6 17.6 L 25.6 16.1 L 26.1 16.1 L 26.1 17.6 Z M 29.4 15.3 C 29.4 15.1 29.6 14.9 29.8 14.9 C 30.1 14.9 30.2 15.1 30.2 15.3 C 30.2 15.5 30.1 15.7 29.8 15.7 C 29.6 15.7 29.4 15.5 29.4 15.3 Z M 29.6 17.6 L 30.1 17.6 L 30.1 24 L 29.6 24 L 29.6 17.6 Z M 31.9 20.8 C 31.9 18.9 33.3 17.5 35 17.5 C 36.7 17.5 38 18.9 38 20.8 C 38 22.8 36.7 24.1 35 24.1 C 33.3 24.1 31.9 22.8 31.9 20.8 Z M 37.5 20.8 C 37.5 19 36.3 18 35 18 C 33.7 18 32.4 19 32.4 20.8 C 32.4 22.6 33.7 23.6 35 23.6 C 36.3 23.6 37.5 22.6 37.5 20.8 Z M 44.6 19.8 C 44.64 19.76 44.6 24 44.6 24 L 44.1 24 C 44.1 24 44.14 19.97 44.1 20 C 44.1 18.7 43.5 18 42.3 18 C 41.2 18 40.4 18.7 40.4 19.9 C 40.35 19.91 40.4 24 40.4 24 L 39.9 24 L 39.9 17.6 L 40.2 17.6 L 40.3 18.8 C 40.3 18.8 40.32 18.76 40.3 18.8 C 40.7 18 41.4 17.5 42.4 17.5 C 43.8 17.5 44.6 18.4 44.6 19.8 Z M 46.8 23 C 46.75 23.04 46.8 22.6 46.8 22.6 L 47.3 22.6 C 47.3 22.6 47.25 23.03 47.3 23 C 47.3 24 46.9 25 46.6 25.6 C 46.6 25.6 46.2 25.6 46.2 25.6 C 46.4 25 46.8 24 46.8 23 Z M 53.3 17.6 L 55.2 17.6 L 55.2 18.1 L 53.3 18.1 C 53.3 18.1 53.27 22 53.3 22 C 53.3 23.2 53.9 23.6 54.8 23.6 C 55 23.6 55.2 23.6 55.3 23.6 C 55.3 23.6 55.3 24 55.3 24 C 55.3 24 55 24.1 54.7 24.1 C 53.6 24.1 52.8 23.4 52.8 22 C 52.77 22.02 52.8 18.1 52.8 18.1 L 51.8 18.1 L 51.8 17.6 L 52.8 17.6 L 52.8 16.1 L 53.3 16.1 L 53.3 17.6 Z M 57.2 18.6 C 57.2 18.6 57.22 18.64 57.2 18.6 C 57.6 17.9 58.4 17.5 59.2 17.5 C 60.6 17.5 61.5 18.3 61.5 19.8 C 61.49 19.78 61.5 24 61.5 24 L 61 24 C 61 24 60.99 19.96 61 20 C 61 18.7 60.4 18 59.2 18 C 58.2 18 57.2 18.6 57.2 19.8 C 57.21 19.85 57.2 24 57.2 24 L 56.7 24 L 56.7 14.5 L 57.2 14.5 L 57.2 18.6 Z M 68.8 21 C 68.8 21 63.8 21 63.8 21 C 63.8 22.6 64.9 23.6 66.3 23.6 C 67.1 23.6 67.9 23.4 68.6 22.7 C 68.6 22.7 68.6 23.3 68.6 23.3 C 67.9 23.8 67.1 24.1 66.3 24.1 C 64.5 24.1 63.3 22.8 63.3 20.8 C 63.3 18.8 64.7 17.5 66.2 17.5 C 67.6 17.5 68.8 18.6 68.8 20.7 C 68.8 20.8 68.8 20.9 68.8 21 Z M 68.3 20.5 C 68.3 18.8 67.3 18 66.2 18 C 65 18 63.9 19 63.8 20.5 C 63.8 20.5 68.3 20.5 68.3 20.5 Z M 79.6 21.6 C 79.6 22.9 78.6 24 76.6 24 C 76.64 24 74.2 24 74.2 24 L 74.2 15.1 C 74.2 15.1 76.51 15.08 76.5 15.1 C 78.3 15.1 79.2 16 79.2 17.3 C 79.2 18.4 78.7 19.1 77.7 19.4 C 78.9 19.7 79.6 20.5 79.6 21.6 Z M 74.7 19.2 C 74.7 19.2 76.58 19.19 76.6 19.2 C 78 19.2 78.7 18.4 78.7 17.4 C 78.7 16.2 77.9 15.6 76.6 15.6 C 76.6 15.58 74.7 15.6 74.7 15.6 L 74.7 19.2 Z M 79.1 21.6 C 79.1 20.4 78.2 19.7 76.7 19.7 C 76.7 19.68 74.7 19.7 74.7 19.7 L 74.7 23.5 C 74.7 23.5 76.66 23.52 76.7 23.5 C 78.2 23.5 79.1 22.7 79.1 21.6 Z M 83.8 16.5 L 83.3 16.5 L 84.7 14.6 L 85.3 14.6 L 83.8 16.5 Z M 86.6 21 C 86.6 21 81.5 21 81.5 21 C 81.6 22.6 82.7 23.6 84.1 23.6 C 84.9 23.6 85.7 23.4 86.4 22.7 C 86.4 22.7 86.4 23.3 86.4 23.3 C 85.7 23.8 84.9 24.1 84.1 24.1 C 82.3 24.1 81 22.8 81 20.8 C 81 18.8 82.5 17.5 84 17.5 C 85.4 17.5 86.6 18.6 86.6 20.7 C 86.6 20.8 86.6 20.9 86.6 21 Z M 86.1 20.5 C 86.1 18.8 85.1 18 84 18 C 82.8 18 81.7 19 81.6 20.5 C 81.6 20.5 86.1 20.5 86.1 20.5 Z M 93.2 19.8 C 93.2 19.76 93.2 24 93.2 24 L 92.7 24 C 92.7 24 92.7 19.97 92.7 20 C 92.7 18.7 92 18 90.9 18 C 89.8 18 88.9 18.7 88.9 19.9 C 88.92 19.91 88.9 24 88.9 24 L 88.4 24 L 88.4 17.6 L 88.8 17.6 L 88.9 18.8 C 88.9 18.8 88.88 18.76 88.9 18.8 C 89.2 18 90 17.5 91 17.5 C 92.3 17.5 93.2 18.4 93.2 19.8 Z M 97.7 16.5 L 97.2 16.5 L 98.6 14.6 L 99.2 14.6 L 97.7 16.5 Z M 100.5 21 C 100.5 21 95.5 21 95.5 21 C 95.5 22.6 96.6 23.6 98 23.6 C 98.8 23.6 99.6 23.4 100.3 22.7 C 100.3 22.7 100.3 23.3 100.3 23.3 C 99.6 23.8 98.8 24.1 98 24.1 C 96.2 24.1 95 22.8 95 20.8 C 95 18.8 96.4 17.5 97.9 17.5 C 99.3 17.5 100.5 18.6 100.5 20.7 C 100.5 20.8 100.5 20.9 100.5 21 Z M 100 20.5 C 100 18.8 99 18 97.9 18 C 96.7 18 95.6 19 95.5 20.5 C 95.5 20.5 100 20.5 100 20.5 Z M 103 17.6 L 104.9 17.6 L 104.9 18.1 L 103 18.1 C 103 18.1 102.96 22 103 22 C 103 23.2 103.6 23.6 104.5 23.6 C 104.7 23.6 104.8 23.6 105 23.6 C 105 23.6 105 24 105 24 C 105 24 104.7 24.1 104.4 24.1 C 103.3 24.1 102.5 23.4 102.5 22 C 102.46 22.02 102.5 18.1 102.5 18.1 L 101.5 18.1 L 101.5 17.6 L 102.5 17.6 L 102.5 16.1 L 103 16.1 L 103 17.6 Z M 111.4 21 C 111.4 21 106.4 21 106.4 21 C 106.5 22.6 107.5 23.6 108.9 23.6 C 109.7 23.6 110.5 23.4 111.2 22.7 C 111.2 22.7 111.2 23.3 111.2 23.3 C 110.5 23.8 109.7 24.1 108.9 24.1 C 107.1 24.1 105.9 22.8 105.9 20.8 C 105.9 18.8 107.3 17.5 108.8 17.5 C 110.2 17.5 111.4 18.6 111.4 20.7 C 111.4 20.8 111.4 20.9 111.4 21 Z M 110.9 20.5 C 110.9 18.8 109.9 18 108.8 18 C 107.6 18 106.5 19 106.4 20.5 C 106.4 20.5 110.9 20.5 110.9 20.5 Z M 112.8 20.8 C 112.8 18.8 114.2 17.5 115.7 17.5 C 116.7 17.5 117.7 18.1 118.2 19.2 C 118.2 19.22 118.3 17.6 118.3 17.6 L 118.7 17.6 L 118.7 24 L 118.3 24 C 118.3 24 118.2 22.4 118.2 22.4 C 117.7 23.6 116.7 24.1 115.7 24.1 C 114.2 24.1 112.8 22.8 112.8 20.8 Z M 118.2 20.8 C 118.2 19.1 117.1 18 115.7 18 C 114.4 18 113.3 19.1 113.3 20.8 C 113.3 22.5 114.4 23.6 115.8 23.6 C 117.1 23.6 118.2 22.5 118.2 20.8 Z M 120.9 21.7 C 120.86 21.68 120.9 17.6 120.9 17.6 L 121.4 17.6 C 121.4 17.6 121.37 21.71 121.4 21.7 C 121.4 22.9 122.1 23.6 123.3 23.6 C 124.4 23.6 125.2 22.9 125.2 21.7 C 125.16 21.7 125.2 17.6 125.2 17.6 L 125.7 17.6 C 125.7 17.6 125.66 21.67 125.7 21.7 C 125.7 23.1 124.7 24.1 123.3 24.1 C 121.8 24.1 120.9 23.1 120.9 21.7 Z M 135.1 24.1 C 132.9 24.1 130.8 22.4 130.8 19.5 C 130.8 16.6 132.9 15 135.1 15 C 136.1 15 136.9 15.2 137.4 15.6 C 137.4 15.6 137.4 16.1 137.4 16.1 C 136.8 15.7 136 15.4 135.1 15.4 C 133.3 15.4 131.3 16.9 131.3 19.5 C 131.3 22.2 133.3 23.6 135.1 23.6 C 136 23.6 136.7 23.4 137.4 23 C 137.4 23 137.4 23.5 137.4 23.5 C 136.8 23.9 136.1 24.1 135.1 24.1 Z M 138.5 20.8 C 138.5 18.9 139.9 17.5 141.6 17.5 C 143.3 17.5 144.6 18.9 144.6 20.8 C 144.6 22.8 143.3 24.1 141.6 24.1 C 139.9 24.1 138.5 22.8 138.5 20.8 Z M 144.1 20.8 C 144.1 19 142.9 18 141.6 18 C 140.3 18 139.1 19 139.1 20.8 C 139.1 22.6 140.3 23.6 141.6 23.6 C 142.9 23.6 144.1 22.6 144.1 20.8 Z M 154.2 19.7 C 154.18 19.68 154.2 24 154.2 24 L 153.7 24 C 153.7 24 153.68 19.73 153.7 19.7 C 153.7 18.7 153.2 18 152.2 18 C 151.2 18 150.6 18.8 150.6 19.7 C 150.57 19.74 150.6 24 150.6 24 L 150.1 24 C 150.1 24 150.07 19.73 150.1 19.7 C 150.1 18.7 149.6 18 148.6 18 C 147.5 18 147 18.8 147 19.8 C 146.96 19.76 147 24 147 24 L 146.5 24 L 146.5 17.6 L 146.9 17.6 L 146.9 18.7 C 146.9 18.7 146.92 18.68 146.9 18.7 C 147.2 18 147.8 17.5 148.6 17.5 C 149.6 17.5 150.2 18 150.4 18.8 C 150.7 18 151.3 17.5 152.3 17.5 C 153.5 17.5 154.2 18.4 154.2 19.7 Z M 156.4 17.6 L 156.8 17.6 C 156.8 17.6 156.86 19.24 156.9 19.2 C 157.3 18.1 158.4 17.5 159.4 17.5 C 160.9 17.5 162.3 18.8 162.3 20.8 C 162.3 22.8 160.9 24.1 159.4 24.1 C 158.3 24.1 157.3 23.5 156.9 22.5 C 156.89 22.45 156.9 26.6 156.9 26.6 L 156.4 26.6 L 156.4 17.6 Z M 161.8 20.8 C 161.8 19.1 160.7 18 159.3 18 C 158 18 156.9 19.1 156.9 20.8 C 156.9 22.5 158 23.6 159.3 23.6 C 160.6 23.6 161.8 22.5 161.8 20.8 Z M 163.7 20.8 C 163.7 18.8 165.1 17.5 166.6 17.5 C 167.6 17.5 168.6 18.1 169.1 19.2 C 169.06 19.22 169.1 17.6 169.1 17.6 L 169.5 17.6 L 169.5 24 L 169.1 24 C 169.1 24 169.06 22.4 169.1 22.4 C 168.6 23.6 167.6 24.1 166.6 24.1 C 165.1 24.1 163.7 22.8 163.7 20.8 Z M 169.1 20.8 C 169.1 19.1 167.9 18 166.6 18 C 165.3 18 164.2 19.1 164.2 20.8 C 164.2 22.5 165.3 23.6 166.6 23.6 C 167.9 23.6 169.1 22.5 169.1 20.8 Z M 176.6 19.8 C 176.6 19.76 176.6 24 176.6 24 L 176.1 24 C 176.1 24 176.1 19.97 176.1 20 C 176.1 18.7 175.4 18 174.3 18 C 173.2 18 172.3 18.7 172.3 19.9 C 172.31 19.91 172.3 24 172.3 24 L 171.8 24 L 171.8 17.6 L 172.2 17.6 L 172.3 18.8 C 172.3 18.8 172.28 18.76 172.3 18.8 C 172.6 18 173.4 17.5 174.4 17.5 C 175.7 17.5 176.6 18.4 176.6 19.8 Z M 179.7 26.6 L 179.2 26.6 L 180.3 23.7 L 177.9 17.6 L 178.5 17.6 L 180.6 23.1 L 180.6 23.1 L 182.7 17.6 L 183.2 17.6 L 179.7 26.6 Z M 188.3 18.6 C 188.3 18.6 188.27 18.64 188.3 18.6 C 188.6 17.9 189.4 17.5 190.3 17.5 C 191.7 17.5 192.5 18.3 192.5 19.8 C 192.54 19.78 192.5 24 192.5 24 L 192 24 C 192 24 192.04 19.96 192 20 C 192 18.7 191.4 18 190.2 18 C 189.2 18 188.3 18.6 188.3 19.8 C 188.26 19.85 188.3 24 188.3 24 L 187.8 24 L 187.8 14.5 L 188.3 14.5 L 188.3 18.6 Z M 194.3 20.8 C 194.3 18.8 195.7 17.5 197.2 17.5 C 198.2 17.5 199.2 18.1 199.7 19.2 C 199.71 19.22 199.8 17.6 199.8 17.6 L 200.2 17.6 L 200.2 24 L 199.8 24 C 199.8 24 199.71 22.4 199.7 22.4 C 199.2 23.6 198.2 24.1 197.2 24.1 C 195.7 24.1 194.3 22.8 194.3 20.8 Z M 199.7 20.8 C 199.7 19.1 198.6 18 197.2 18 C 195.9 18 194.8 19.1 194.8 20.8 C 194.8 22.5 195.9 23.6 197.3 23.6 C 198.6 23.6 199.7 22.5 199.7 20.8 Z M 206 18.1 C 206 18.1 206 18.6 206 18.6 C 205.5 18.3 204.9 18 204.2 18 C 203.2 18 202.6 18.5 202.6 19.2 C 202.6 19.9 203.3 20.2 204.3 20.5 C 205.3 20.9 206.3 21.2 206.3 22.3 C 206.3 23.4 205.5 24.1 204.2 24.1 C 203.4 24.1 202.6 23.9 202 23.4 C 202 23.4 202 22.7 202 22.7 C 202.6 23.3 203.3 23.6 204.2 23.6 C 205.2 23.6 205.8 23.1 205.8 22.3 C 205.8 21.6 205.1 21.3 204.1 20.9 C 203 20.6 202.1 20.3 202.1 19.2 C 202.1 18.2 203 17.5 204.2 17.5 C 204.9 17.5 205.5 17.7 206 18.1 Z " stroke="none" fill="#000"/>
  </g>
  <g id="Polygon17083">
    <path d="M 1.4 0.7 L 1.9 0.7 L 1.9 9.6 L 1.4 9.6 L 1.4 0.7 Z M 9.2 5.4 C 9.24 5.36 9.2 9.6 9.2 9.6 L 8.7 9.6 C 8.7 9.6 8.74 5.57 8.7 5.6 C 8.7 4.3 8.1 3.6 6.9 3.6 C 5.8 3.6 5 4.3 5 5.5 C 4.96 5.51 5 9.6 5 9.6 L 4.5 9.6 L 4.5 3.2 L 4.8 3.2 L 4.9 4.4 C 4.9 4.4 4.92 4.36 4.9 4.4 C 5.3 3.6 6 3.1 7 3.1 C 8.4 3.1 9.2 4 9.2 5.4 Z M 14.7 6.4 C 14.7 4.5 16.1 3.1 17.8 3.1 C 19.4 3.1 20.8 4.5 20.8 6.4 C 20.8 8.4 19.4 9.7 17.8 9.7 C 16.1 9.7 14.7 8.4 14.7 6.4 Z M 20.3 6.4 C 20.3 4.6 19.1 3.6 17.8 3.6 C 16.5 3.6 15.2 4.6 15.2 6.4 C 15.2 8.2 16.5 9.2 17.8 9.2 C 19.1 9.2 20.3 8.2 20.3 6.4 Z M 22.6 3.2 L 23 3.2 L 23.1 4.4 C 23.1 4.4 23.1 4.42 23.1 4.4 C 23.5 3.5 24.3 3.2 25 3.2 C 25.1 3.2 25.3 3.2 25.4 3.2 C 25.4 3.2 25.4 3.7 25.4 3.7 C 25.3 3.7 25.1 3.7 25 3.7 C 24.1 3.7 23.1 4.3 23.1 5.6 C 23.14 5.57 23.1 9.6 23.1 9.6 L 22.6 9.6 L 22.6 3.2 Z M 25.9 6.4 C 25.9 4.4 27.3 3.1 28.8 3.1 C 29.9 3.1 30.9 3.7 31.3 4.8 C 31.32 4.78 31.3 0.1 31.3 0.1 L 31.8 0.1 L 31.8 9.6 L 31.4 9.6 L 31.4 8 C 31.4 8 31.34 7.99 31.3 8 C 30.9 9.2 29.9 9.7 28.8 9.7 C 27.3 9.7 25.9 8.4 25.9 6.4 Z M 31.3 6.4 C 31.3 4.7 30.2 3.6 28.9 3.6 C 27.6 3.6 26.4 4.7 26.4 6.4 C 26.4 8.1 27.6 9.2 28.9 9.2 C 30.2 9.2 31.3 8.1 31.3 6.4 Z M 39.2 6.6 C 39.2 6.6 34.2 6.6 34.2 6.6 C 34.2 8.2 35.3 9.2 36.7 9.2 C 37.5 9.2 38.3 9 39 8.3 C 39 8.3 39 8.9 39 8.9 C 38.3 9.4 37.5 9.7 36.7 9.7 C 34.9 9.7 33.7 8.4 33.7 6.4 C 33.7 4.4 35.1 3.1 36.6 3.1 C 38 3.1 39.2 4.2 39.2 6.3 C 39.2 6.4 39.2 6.5 39.2 6.6 Z M 38.7 6.1 C 38.7 4.4 37.7 3.6 36.6 3.6 C 35.4 3.6 34.3 4.6 34.2 6.1 C 34.2 6.1 38.7 6.1 38.7 6.1 Z M 41 3.2 L 41.4 3.2 L 41.5 4.4 C 41.5 4.4 41.51 4.42 41.5 4.4 C 41.9 3.5 42.7 3.2 43.4 3.2 C 43.5 3.2 43.7 3.2 43.8 3.2 C 43.8 3.2 43.8 3.7 43.8 3.7 C 43.7 3.7 43.5 3.7 43.4 3.7 C 42.5 3.7 41.6 4.3 41.5 5.6 C 41.54 5.57 41.5 9.6 41.5 9.6 L 41 9.6 L 41 3.2 Z M 49.1 3.2 L 51 3.2 L 51 3.7 L 49.1 3.7 C 49.1 3.7 49.1 7.6 49.1 7.6 C 49.1 8.8 49.7 9.2 50.6 9.2 C 50.8 9.2 51 9.2 51.2 9.2 C 51.2 9.2 51.2 9.6 51.2 9.6 C 51.1 9.6 50.9 9.7 50.6 9.7 C 49.4 9.7 48.6 9 48.6 7.6 C 48.6 7.62 48.6 3.7 48.6 3.7 L 47.6 3.7 L 47.6 3.2 L 48.6 3.2 L 48.6 1.7 L 49.1 1.7 L 49.1 3.2 Z M 52 6.4 C 52 4.5 53.4 3.1 55 3.1 C 56.7 3.1 58.1 4.5 58.1 6.4 C 58.1 8.4 56.7 9.7 55 9.7 C 53.4 9.7 52 8.4 52 6.4 Z M 57.6 6.4 C 57.6 4.6 56.3 3.6 55 3.6 C 53.7 3.6 52.5 4.6 52.5 6.4 C 52.5 8.2 53.7 9.2 55 9.2 C 56.3 9.2 57.6 8.2 57.6 6.4 Z M 63.6 3.2 L 64.1 3.2 L 64.1 4.4 C 64.1 4.4 64.12 4.42 64.1 4.4 C 64.5 3.5 65.4 3.2 66 3.2 C 66.1 3.2 66.3 3.2 66.4 3.2 C 66.4 3.2 66.4 3.7 66.4 3.7 C 66.3 3.7 66.1 3.7 66 3.7 C 65.1 3.7 64.2 4.3 64.2 5.6 C 64.15 5.57 64.2 9.6 64.2 9.6 L 63.6 9.6 L 63.6 3.2 Z M 72.5 6.6 C 72.5 6.6 67.5 6.6 67.5 6.6 C 67.5 8.2 68.6 9.2 70 9.2 C 70.8 9.2 71.6 9 72.3 8.3 C 72.3 8.3 72.3 8.9 72.3 8.9 C 71.6 9.4 70.8 9.7 70 9.7 C 68.2 9.7 67 8.4 67 6.4 C 67 4.4 68.4 3.1 69.9 3.1 C 71.3 3.1 72.5 4.2 72.5 6.3 C 72.5 6.4 72.5 6.5 72.5 6.6 Z M 72 6.1 C 72 4.4 71 3.6 69.9 3.6 C 68.7 3.6 67.6 4.6 67.5 6.1 C 67.5 6.1 72 6.1 72 6.1 Z M 74.5 3.7 L 73.6 3.7 L 73.6 3.2 L 74.5 3.2 C 74.5 3.2 74.52 2 74.5 2 C 74.5 0.7 75.4 0 76.4 0 C 76.8 0 77.1 0.1 77.4 0.2 C 77.4 0.2 77.4 0.7 77.4 0.7 C 77.1 0.6 76.8 0.5 76.5 0.5 C 75.6 0.5 75 1 75 2.1 C 75.04 2.09 75 3.2 75 3.2 L 77 3.2 L 77 3.7 L 75 3.7 L 75 9.6 L 74.5 9.6 L 74.5 3.7 Z M 78.5 0.1 L 79 0.1 L 79 9.6 L 78.5 9.6 L 78.5 0.1 Z M 86.4 6.6 C 86.4 6.6 81.4 6.6 81.4 6.6 C 81.5 8.2 82.5 9.2 83.9 9.2 C 84.7 9.2 85.5 9 86.2 8.3 C 86.2 8.3 86.2 8.9 86.2 8.9 C 85.5 9.4 84.7 9.7 83.9 9.7 C 82.1 9.7 80.9 8.4 80.9 6.4 C 80.9 4.4 82.3 3.1 83.8 3.1 C 85.2 3.1 86.5 4.2 86.5 6.3 C 86.5 6.4 86.4 6.5 86.4 6.6 Z M 86 6.1 C 85.9 4.4 84.9 3.6 83.8 3.6 C 82.6 3.6 81.5 4.6 81.4 6.1 C 81.4 6.1 86 6.1 86 6.1 Z M 90.9 9.2 C 91.4 9.2 92.1 9.1 92.6 8.7 C 92.6 8.7 92.6 9.3 92.6 9.3 C 92.1 9.6 91.5 9.7 90.9 9.7 C 89.2 9.7 87.8 8.3 87.8 6.4 C 87.8 4.5 89.1 3.1 90.9 3.1 C 91.5 3.1 92.1 3.2 92.6 3.6 C 92.6 3.6 92.6 4.1 92.6 4.1 C 92 3.7 91.5 3.6 90.9 3.6 C 89.5 3.6 88.3 4.7 88.3 6.4 C 88.3 8.1 89.5 9.2 90.9 9.2 Z M 95.1 3.2 L 97 3.2 L 97 3.7 L 95.1 3.7 C 95.1 3.7 95.06 7.6 95.1 7.6 C 95.1 8.8 95.7 9.2 96.6 9.2 C 96.8 9.2 96.9 9.2 97.1 9.2 C 97.1 9.2 97.1 9.6 97.1 9.6 C 97.1 9.6 96.8 9.7 96.5 9.7 C 95.4 9.7 94.6 9 94.6 7.6 C 94.56 7.62 94.6 3.7 94.6 3.7 L 93.6 3.7 L 93.6 3.2 L 94.6 3.2 L 94.6 1.7 L 95.1 1.7 L 95.1 3.2 Z M 102.1 0.9 C 102.1 0.7 102.2 0.5 102.5 0.5 C 102.7 0.5 102.9 0.7 102.9 0.9 C 102.9 1.1 102.7 1.3 102.5 1.3 C 102.2 1.3 102.1 1.1 102.1 0.9 Z M 102.2 3.2 L 102.7 3.2 L 102.7 9.6 L 102.2 9.6 L 102.2 3.2 Z M 109.8 5.4 C 109.81 5.36 109.8 9.6 109.8 9.6 L 109.3 9.6 C 109.3 9.6 109.31 5.57 109.3 5.6 C 109.3 4.3 108.6 3.6 107.5 3.6 C 106.4 3.6 105.5 4.3 105.5 5.5 C 105.53 5.51 105.5 9.6 105.5 9.6 L 105 9.6 L 105 3.2 L 105.4 3.2 L 105.5 4.4 C 105.5 4.4 105.49 4.36 105.5 4.4 C 105.8 3.6 106.6 3.1 107.6 3.1 C 108.9 3.1 109.8 4 109.8 5.4 Z M 116.3 3.2 L 118.2 3.2 L 118.2 3.7 L 116.3 3.7 C 116.3 3.7 116.3 7.6 116.3 7.6 C 116.3 8.8 116.9 9.2 117.8 9.2 C 118 9.2 118.2 9.2 118.4 9.2 C 118.4 9.2 118.4 9.6 118.4 9.6 C 118.3 9.6 118.1 9.7 117.8 9.7 C 116.6 9.7 115.8 9 115.8 7.6 C 115.8 7.62 115.8 3.7 115.8 3.7 L 114.8 3.7 L 114.8 3.2 L 115.8 3.2 L 115.8 1.7 L 116.3 1.7 L 116.3 3.2 Z M 120.2 4.2 C 120.2 4.2 120.25 4.24 120.3 4.2 C 120.6 3.5 121.4 3.1 122.3 3.1 C 123.6 3.1 124.5 3.9 124.5 5.4 C 124.52 5.38 124.5 9.6 124.5 9.6 L 124 9.6 C 124 9.6 124.02 5.56 124 5.6 C 124 4.3 123.4 3.6 122.2 3.6 C 121.2 3.6 120.2 4.2 120.2 5.4 C 120.24 5.45 120.2 9.6 120.2 9.6 L 119.7 9.6 L 119.7 0.1 L 120.2 0.1 L 120.2 4.2 Z M 131.8 6.6 C 131.8 6.6 126.8 6.6 126.8 6.6 C 126.9 8.2 127.9 9.2 129.3 9.2 C 130.1 9.2 130.9 9 131.6 8.3 C 131.6 8.3 131.6 8.9 131.6 8.9 C 130.9 9.4 130.2 9.7 129.3 9.7 C 127.5 9.7 126.3 8.4 126.3 6.4 C 126.3 4.4 127.7 3.1 129.2 3.1 C 130.7 3.1 131.9 4.2 131.9 6.3 C 131.9 6.4 131.9 6.5 131.8 6.6 Z M 131.4 6.1 C 131.3 4.4 130.3 3.6 129.2 3.6 C 128 3.6 126.9 4.6 126.8 6.1 C 126.8 6.1 131.4 6.1 131.4 6.1 Z M 137.7 3.7 L 136.7 3.7 L 136.7 3.2 L 137.6 3.2 C 137.6 3.2 137.64 2 137.6 2 C 137.6 0.7 138.5 0 139.5 0 C 139.9 0 140.2 0.1 140.5 0.2 C 140.5 0.2 140.5 0.7 140.5 0.7 C 140.3 0.6 139.9 0.5 139.6 0.5 C 138.7 0.5 138.2 1 138.2 2.1 C 138.16 2.09 138.2 3.2 138.2 3.2 L 140.1 3.2 L 140.1 3.7 L 138.2 3.7 L 138.2 9.6 L 137.7 9.6 L 137.7 3.7 Z M 141.3 7.3 C 141.34 7.28 141.3 3.2 141.3 3.2 L 141.8 3.2 C 141.8 3.2 141.84 7.31 141.8 7.3 C 141.8 8.5 142.6 9.2 143.7 9.2 C 144.9 9.2 145.6 8.5 145.6 7.3 C 145.63 7.3 145.6 3.2 145.6 3.2 L 146.1 3.2 C 146.1 3.2 146.14 7.27 146.1 7.3 C 146.1 8.7 145.2 9.7 143.7 9.7 C 142.2 9.7 141.3 8.7 141.3 7.3 Z M 149 3.2 L 150.9 3.2 L 150.9 3.7 L 149 3.7 C 149 3.7 149.02 7.6 149 7.6 C 149 8.8 149.7 9.2 150.6 9.2 C 150.7 9.2 150.9 9.2 151.1 9.2 C 151.1 9.2 151.1 9.6 151.1 9.6 C 151 9.6 150.8 9.7 150.5 9.7 C 149.3 9.7 148.5 9 148.5 7.6 C 148.51 7.62 148.5 3.7 148.5 3.7 L 147.5 3.7 L 147.5 3.2 L 148.5 3.2 L 148.5 1.7 L 149 1.7 L 149 3.2 Z M 152.4 7.3 C 152.37 7.28 152.4 3.2 152.4 3.2 L 152.9 3.2 C 152.9 3.2 152.87 7.31 152.9 7.3 C 152.9 8.5 153.6 9.2 154.8 9.2 C 155.9 9.2 156.7 8.5 156.7 7.3 C 156.66 7.3 156.7 3.2 156.7 3.2 L 157.2 3.2 C 157.2 3.2 157.16 7.27 157.2 7.3 C 157.2 8.7 156.2 9.7 154.8 9.7 C 153.3 9.7 152.4 8.7 152.4 7.3 Z M 159.4 3.2 L 159.8 3.2 L 159.8 4.4 C 159.8 4.4 159.83 4.42 159.8 4.4 C 160.2 3.5 161.1 3.2 161.7 3.2 C 161.8 3.2 162 3.2 162.1 3.2 C 162.1 3.2 162.1 3.7 162.1 3.7 C 162 3.7 161.8 3.7 161.7 3.7 C 160.8 3.7 159.9 4.3 159.9 5.6 C 159.86 5.57 159.9 9.6 159.9 9.6 L 159.4 9.6 L 159.4 3.2 Z M 168.2 6.6 C 168.2 6.6 163.2 6.6 163.2 6.6 C 163.3 8.2 164.3 9.2 165.7 9.2 C 166.5 9.2 167.3 9 168 8.3 C 168 8.3 168 8.9 168 8.9 C 167.3 9.4 166.5 9.7 165.7 9.7 C 163.9 9.7 162.7 8.4 162.7 6.4 C 162.7 4.4 164.1 3.1 165.6 3.1 C 167 3.1 168.3 4.2 168.3 6.3 C 168.3 6.4 168.2 6.5 168.2 6.6 Z M 167.7 6.1 C 167.7 4.4 166.7 3.6 165.6 3.6 C 164.4 3.6 163.3 4.6 163.2 6.1 C 163.2 6.1 167.7 6.1 167.7 6.1 Z M 173.3 6.4 C 173.3 4.5 174.7 3.1 176.4 3.1 C 178.1 3.1 179.4 4.5 179.4 6.4 C 179.4 8.4 178.1 9.7 176.4 9.7 C 174.7 9.7 173.3 8.4 173.3 6.4 Z M 178.9 6.4 C 178.9 4.6 177.7 3.6 176.4 3.6 C 175.1 3.6 173.8 4.6 173.8 6.4 C 173.8 8.2 175.1 9.2 176.4 9.2 C 177.7 9.2 178.9 8.2 178.9 6.4 Z M 181.4 3.7 L 180.4 3.7 L 180.4 3.2 L 181.4 3.2 C 181.4 3.2 181.38 2 181.4 2 C 181.4 0.7 182.2 0 183.3 0 C 183.6 0 184 0.1 184.2 0.2 C 184.2 0.2 184.2 0.7 184.2 0.7 C 184 0.6 183.6 0.5 183.3 0.5 C 182.5 0.5 181.9 1 181.9 2.1 C 181.9 2.09 181.9 3.2 181.9 3.2 L 183.8 3.2 L 183.8 3.7 L 181.9 3.7 L 181.9 9.6 L 181.4 9.6 L 181.4 3.7 Z M 193.4 5.4 C 193.4 5.36 193.4 9.6 193.4 9.6 L 192.9 9.6 C 192.9 9.6 192.9 5.57 192.9 5.6 C 192.9 4.3 192.2 3.6 191.1 3.6 C 190 3.6 189.1 4.3 189.1 5.5 C 189.12 5.51 189.1 9.6 189.1 9.6 L 188.6 9.6 L 188.6 3.2 L 189 3.2 L 189.1 4.4 C 189.1 4.4 189.08 4.36 189.1 4.4 C 189.4 3.6 190.2 3.1 191.2 3.1 C 192.5 3.1 193.4 4 193.4 5.4 Z M 195.1 6.4 C 195.1 4.4 196.5 3.1 198 3.1 C 199.1 3.1 200.1 3.7 200.6 4.8 C 200.56 4.82 200.6 3.2 200.6 3.2 L 201 3.2 L 201 9.6 L 200.6 9.6 C 200.6 9.6 200.56 8 200.6 8 C 200.1 9.2 199.1 9.7 198.1 9.7 C 196.5 9.7 195.1 8.4 195.1 6.4 Z M 200.5 6.4 C 200.5 4.7 199.4 3.6 198.1 3.6 C 196.8 3.6 195.6 4.7 195.6 6.4 C 195.6 8.1 196.8 9.2 198.1 9.2 C 199.4 9.2 200.5 8.1 200.5 6.4 Z M 203.1 5.7 L 206 5.7 L 206 6.2 L 203.1 6.2 L 203.1 5.7 Z " stroke="none" fill="#000"/>
  </g>
</svg>