<?xml version="1.0" standalone="no"?>
<!DOCTYPE svg PUBLIC "-//W3C//DTD SVG 1.1//EN" "http://www.w3.org/Graphics/SVG/1.1/DTD/svg11.dtd">
<svg xmlns="http://www.w3.org/2000/svg" version="1.1" width="342.4px" height="203.4px" viewBox="0 0 342.4 203.4">
  <desc>Nous visons avec ce projet une nouvelle g n ration d acheteurs, plus sensible aux enjeux environnementaux Pens pour</desc>
  <defs/>
  <g id="Polygon28365">
    <path d="M 1 44.1 C 1 43.9 1.2 43.7 1.4 43.7 C 1.7 43.7 1.8 43.9 1.8 44.1 C 1.8 44.3 1.7 44.5 1.4 44.5 C 1.2 44.5 1 44.3 1 44.1 Z M 1.2 46.4 L 1.7 46.4 L 1.7 52.8 L 1.2 52.8 L 1.2 46.4 Z M 3.6 49.6 C 3.6 47.6 4.9 46.3 6.5 46.3 C 7.5 46.3 8.5 46.9 8.9 48 C 8.93 47.98 8.9 43.3 8.9 43.3 L 9.4 43.3 L 9.4 52.8 L 9 52.8 L 9 51.2 C 9 51.2 8.95 51.19 9 51.2 C 8.5 52.4 7.5 52.9 6.5 52.9 C 5 52.9 3.6 51.6 3.6 49.6 Z M 9 49.6 C 9 47.9 7.8 46.8 6.5 46.8 C 5.2 46.8 4.1 47.9 4.1 49.6 C 4.1 51.3 5.2 52.4 6.5 52.4 C 7.8 52.4 9 51.3 9 49.6 Z M 14 45.3 L 13.5 45.3 L 15 43.4 L 15.5 43.4 L 14 45.3 Z M 16.8 49.8 C 16.8 49.8 11.8 49.8 11.8 49.8 C 11.9 51.4 12.9 52.4 14.3 52.4 C 15.1 52.4 15.9 52.2 16.6 51.5 C 16.6 51.5 16.6 52.1 16.6 52.1 C 15.9 52.6 15.1 52.9 14.3 52.9 C 12.5 52.9 11.3 51.6 11.3 49.6 C 11.3 47.6 12.7 46.3 14.2 46.3 C 15.6 46.3 16.8 47.4 16.8 49.5 C 16.8 49.6 16.8 49.7 16.8 49.8 Z M 16.3 49.3 C 16.3 47.6 15.3 46.8 14.2 46.8 C 13 46.8 11.9 47.8 11.8 49.3 C 11.8 49.3 16.3 49.3 16.3 49.3 Z M 18.2 49.6 C 18.2 47.6 19.6 46.3 21.1 46.3 C 22.1 46.3 23.1 46.9 23.6 48 C 23.6 48.02 23.7 46.4 23.7 46.4 L 24.1 46.4 L 24.1 52.8 L 23.7 52.8 C 23.7 52.8 23.6 51.2 23.6 51.2 C 23.1 52.4 22.1 52.9 21.1 52.9 C 19.6 52.9 18.2 51.6 18.2 49.6 Z M 23.6 49.6 C 23.6 47.9 22.5 46.8 21.1 46.8 C 19.8 46.8 18.7 47.9 18.7 49.6 C 18.7 51.3 19.8 52.4 21.2 52.4 C 22.5 52.4 23.6 51.3 23.6 49.6 Z M 26.4 43.3 L 26.9 43.3 L 26.9 52.8 L 26.4 52.8 L 26.4 43.3 Z M 32.7 46.4 L 33.1 46.4 C 33.1 46.4 33.14 48.04 33.1 48 C 33.6 46.9 34.6 46.3 35.7 46.3 C 37.2 46.3 38.6 47.6 38.6 49.6 C 38.6 51.6 37.2 52.9 35.7 52.9 C 34.6 52.9 33.6 52.3 33.2 51.3 C 33.18 51.25 33.2 55.4 33.2 55.4 L 32.7 55.4 L 32.7 46.4 Z M 38.1 49.6 C 38.1 47.9 36.9 46.8 35.6 46.8 C 34.3 46.8 33.2 47.9 33.2 49.6 C 33.2 51.3 34.3 52.4 35.6 52.4 C 36.9 52.4 38.1 51.3 38.1 49.6 Z M 39.9 49.6 C 39.9 47.7 41.3 46.3 43 46.3 C 44.7 46.3 46 47.7 46 49.6 C 46 51.6 44.7 52.9 43 52.9 C 41.3 52.9 39.9 51.6 39.9 49.6 Z M 45.5 49.6 C 45.5 47.8 44.3 46.8 43 46.8 C 41.7 46.8 40.4 47.8 40.4 49.6 C 40.4 51.4 41.7 52.4 43 52.4 C 44.3 52.4 45.5 51.4 45.5 49.6 Z M 47.8 50.5 C 47.76 50.48 47.8 46.4 47.8 46.4 L 48.3 46.4 C 48.3 46.4 48.26 50.51 48.3 50.5 C 48.3 51.7 49 52.4 50.1 52.4 C 51.3 52.4 52.1 51.7 52.1 50.5 C 52.06 50.5 52.1 46.4 52.1 46.4 L 52.6 46.4 C 52.6 46.4 52.56 50.47 52.6 50.5 C 52.6 51.9 51.6 52.9 50.1 52.9 C 48.7 52.9 47.8 51.9 47.8 50.5 Z M 54.8 46.4 L 55.2 46.4 L 55.2 47.6 C 55.2 47.6 55.22 47.62 55.2 47.6 C 55.6 46.7 56.5 46.4 57.1 46.4 C 57.2 46.4 57.4 46.4 57.5 46.4 C 57.5 46.4 57.5 46.9 57.5 46.9 C 57.4 46.9 57.2 46.9 57.1 46.9 C 56.2 46.9 55.3 47.5 55.3 48.8 C 55.26 48.77 55.3 52.8 55.3 52.8 L 54.8 52.8 L 54.8 46.4 Z M 65.5 46.9 C 65.5 46.9 65.5 47.4 65.5 47.4 C 65 47.1 64.4 46.8 63.7 46.8 C 62.8 46.8 62.1 47.3 62.1 48 C 62.1 48.7 62.8 49 63.8 49.3 C 64.8 49.7 65.9 50 65.9 51.1 C 65.9 52.2 65 52.9 63.7 52.9 C 62.9 52.9 62.2 52.7 61.5 52.2 C 61.5 52.2 61.5 51.5 61.5 51.5 C 62.1 52.1 62.9 52.4 63.7 52.4 C 64.7 52.4 65.4 51.9 65.4 51.1 C 65.4 50.4 64.6 50.1 63.6 49.7 C 62.6 49.4 61.6 49.1 61.6 48 C 61.6 47 62.5 46.3 63.7 46.3 C 64.4 46.3 65.1 46.5 65.5 46.9 Z M 67.8 44.3 C 67.8 44.33 67.8 43.9 67.8 43.9 L 68.3 43.9 C 68.3 43.9 68.3 44.32 68.3 44.3 C 68.3 45.3 67.9 46.3 67.7 46.9 C 67.7 46.9 67.3 46.9 67.3 46.9 C 67.5 46.3 67.8 45.3 67.8 44.3 Z M 72.1 45.3 L 71.6 45.3 L 73.1 43.4 L 73.7 43.4 L 72.1 45.3 Z M 74.9 49.8 C 74.9 49.8 69.9 49.8 69.9 49.8 C 70 51.4 71 52.4 72.5 52.4 C 73.2 52.4 74 52.2 74.7 51.5 C 74.7 51.5 74.7 52.1 74.7 52.1 C 74.1 52.6 73.3 52.9 72.4 52.9 C 70.6 52.9 69.4 51.6 69.4 49.6 C 69.4 47.6 70.8 46.3 72.3 46.3 C 73.8 46.3 75 47.4 75 49.5 C 75 49.6 75 49.7 74.9 49.8 Z M 74.5 49.3 C 74.4 47.6 73.4 46.8 72.3 46.8 C 71.1 46.8 70 47.8 69.9 49.3 C 69.9 49.3 74.5 49.3 74.5 49.3 Z M 75.8 46.4 L 76.4 46.4 L 78.5 52.2 L 78.5 52.2 L 80.6 46.4 L 81.1 46.4 L 78.7 52.8 L 78.2 52.8 L 75.8 46.4 Z M 82 49.6 C 82 47.6 83.4 46.3 84.9 46.3 C 85.9 46.3 86.9 46.9 87.4 48 C 87.38 48.02 87.5 46.4 87.5 46.4 L 87.8 46.4 L 87.8 52.8 L 87.5 52.8 C 87.5 52.8 87.38 51.2 87.4 51.2 C 86.9 52.4 85.9 52.9 84.9 52.9 C 83.4 52.9 82 51.6 82 49.6 Z M 87.4 49.6 C 87.4 47.9 86.3 46.8 84.9 46.8 C 83.6 46.8 82.5 47.9 82.5 49.6 C 82.5 51.3 83.6 52.4 84.9 52.4 C 86.2 52.4 87.4 51.3 87.4 49.6 Z M 89.7 49.6 C 89.7 47.6 91.1 46.3 92.6 46.3 C 93.6 46.3 94.6 46.9 95.1 48 C 95.06 47.98 95.1 43.3 95.1 43.3 L 95.6 43.3 L 95.6 52.8 L 95.2 52.8 L 95.1 51.2 C 95.1 51.2 95.09 51.19 95.1 51.2 C 94.6 52.4 93.6 52.9 92.6 52.9 C 91.1 52.9 89.7 51.6 89.7 49.6 Z M 95.1 49.6 C 95.1 47.9 94 46.8 92.6 46.8 C 91.3 46.8 90.2 47.9 90.2 49.6 C 90.2 51.3 91.3 52.4 92.6 52.4 C 94 52.4 95.1 51.3 95.1 49.6 Z M 103 49.8 C 103 49.8 97.9 49.8 97.9 49.8 C 98 51.4 99 52.4 100.5 52.4 C 101.2 52.4 102 52.2 102.7 51.5 C 102.7 51.5 102.7 52.1 102.7 52.1 C 102.1 52.6 101.3 52.9 100.4 52.9 C 98.6 52.9 97.4 51.6 97.4 49.6 C 97.4 47.6 98.8 46.3 100.4 46.3 C 101.8 46.3 103 47.4 103 49.5 C 103 49.6 103 49.7 103 49.8 Z M 102.5 49.3 C 102.5 47.6 101.4 46.8 100.4 46.8 C 99.1 46.8 98 47.8 97.9 49.3 C 97.9 49.3 102.5 49.3 102.5 49.3 Z M 104.8 46.4 L 105.2 46.4 L 105.2 47.6 C 105.2 47.6 105.25 47.62 105.2 47.6 C 105.6 46.7 106.5 46.4 107.1 46.4 C 107.3 46.4 107.4 46.4 107.5 46.4 C 107.5 46.4 107.5 46.9 107.5 46.9 C 107.4 46.9 107.3 46.9 107.1 46.9 C 106.2 46.9 105.3 47.5 105.3 48.8 C 105.29 48.77 105.3 52.8 105.3 52.8 L 104.8 52.8 L 104.8 46.4 Z M 112.1 43.3 L 112.6 43.3 L 112.6 52.8 L 112.1 52.8 L 112.1 43.3 Z M 120 49.8 C 120 49.8 114.9 49.8 114.9 49.8 C 115 51.4 116 52.4 117.5 52.4 C 118.3 52.4 119.1 52.2 119.8 51.5 C 119.8 51.5 119.8 52.1 119.8 52.1 C 119.1 52.6 118.3 52.9 117.5 52.9 C 115.7 52.9 114.4 51.6 114.4 49.6 C 114.4 47.6 115.8 46.3 117.4 46.3 C 118.8 46.3 120 47.4 120 49.5 C 120 49.6 120 49.7 120 49.8 Z M 119.5 49.3 C 119.5 47.6 118.5 46.8 117.4 46.8 C 116.2 46.8 115.1 47.8 114.9 49.3 C 114.9 49.3 119.5 49.3 119.5 49.3 Z M 125.8 46.4 L 127.7 46.4 L 127.7 46.9 L 125.8 46.9 C 125.8 46.9 125.83 50.8 125.8 50.8 C 125.8 52 126.5 52.4 127.4 52.4 C 127.5 52.4 127.7 52.4 127.9 52.4 C 127.9 52.4 127.9 52.8 127.9 52.8 C 127.8 52.8 127.6 52.9 127.3 52.9 C 126.2 52.9 125.3 52.2 125.3 50.8 C 125.33 50.82 125.3 46.9 125.3 46.9 L 124.3 46.9 L 124.3 46.4 L 125.3 46.4 L 125.3 44.9 L 125.8 44.9 L 125.8 46.4 Z M 134.3 49.8 C 134.3 49.8 129.2 49.8 129.2 49.8 C 129.3 51.4 130.4 52.4 131.8 52.4 C 132.6 52.4 133.4 52.2 134.1 51.5 C 134.1 51.5 134.1 52.1 134.1 52.1 C 133.4 52.6 132.6 52.9 131.8 52.9 C 130 52.9 128.7 51.6 128.7 49.6 C 128.7 47.6 130.1 46.3 131.7 46.3 C 133.1 46.3 134.3 47.4 134.3 49.5 C 134.3 49.6 134.3 49.7 134.3 49.8 Z M 133.8 49.3 C 133.8 47.6 132.8 46.8 131.7 46.8 C 130.5 46.8 129.4 47.8 129.2 49.3 C 129.2 49.3 133.8 49.3 133.8 49.3 Z M 143.8 48.5 C 143.84 48.48 143.8 52.8 143.8 52.8 L 143.3 52.8 C 143.3 52.8 143.34 48.53 143.3 48.5 C 143.3 47.5 142.8 46.8 141.8 46.8 C 140.8 46.8 140.2 47.6 140.2 48.5 C 140.23 48.54 140.2 52.8 140.2 52.8 L 139.7 52.8 C 139.7 52.8 139.73 48.53 139.7 48.5 C 139.7 47.5 139.2 46.8 138.2 46.8 C 137.2 46.8 136.6 47.6 136.6 48.6 C 136.62 48.56 136.6 52.8 136.6 52.8 L 136.1 52.8 L 136.1 46.4 L 136.5 46.4 L 136.6 47.5 C 136.6 47.5 136.58 47.48 136.6 47.5 C 136.9 46.8 137.5 46.3 138.3 46.3 C 139.2 46.3 139.8 46.8 140.1 47.6 C 140.4 46.8 141 46.3 141.9 46.3 C 143.2 46.3 143.8 47.2 143.8 48.5 Z M 146.1 46.4 L 146.4 46.4 C 146.4 46.4 146.52 48.04 146.5 48 C 147 46.9 148 46.3 149 46.3 C 150.5 46.3 151.9 47.6 151.9 49.6 C 151.9 51.6 150.5 52.9 149 52.9 C 148 52.9 147 52.3 146.6 51.3 C 146.55 51.25 146.6 55.4 146.6 55.4 L 146.1 55.4 L 146.1 46.4 Z M 151.4 49.6 C 151.4 47.9 150.3 46.8 149 46.8 C 147.7 46.8 146.5 47.9 146.5 49.6 C 146.5 51.3 147.7 52.4 149 52.4 C 150.3 52.4 151.4 51.3 151.4 49.6 Z M 157.3 46.9 C 157.3 46.9 157.3 47.4 157.3 47.4 C 156.8 47.1 156.2 46.8 155.5 46.8 C 154.5 46.8 153.9 47.3 153.9 48 C 153.9 48.7 154.6 49 155.6 49.3 C 156.6 49.7 157.6 50 157.6 51.1 C 157.6 52.2 156.8 52.9 155.5 52.9 C 154.7 52.9 153.9 52.7 153.3 52.2 C 153.3 52.2 153.3 51.5 153.3 51.5 C 153.9 52.1 154.6 52.4 155.5 52.4 C 156.5 52.4 157.1 51.9 157.1 51.1 C 157.1 50.4 156.4 50.1 155.4 49.7 C 154.3 49.4 153.4 49.1 153.4 48 C 153.4 47 154.3 46.3 155.5 46.3 C 156.2 46.3 156.8 46.5 157.3 46.9 Z M 162.4 49.6 C 162.4 47.6 163.8 46.3 165.3 46.3 C 166.3 46.3 167.3 46.9 167.8 48 C 167.78 47.98 167.8 43.3 167.8 43.3 L 168.3 43.3 L 168.3 52.8 L 167.9 52.8 L 167.8 51.2 C 167.8 51.2 167.81 51.19 167.8 51.2 C 167.3 52.4 166.3 52.9 165.3 52.9 C 163.8 52.9 162.4 51.6 162.4 49.6 Z M 167.8 49.6 C 167.8 47.9 166.7 46.8 165.4 46.8 C 164 46.8 162.9 47.9 162.9 49.6 C 162.9 51.3 164 52.4 165.4 52.4 C 166.7 52.4 167.8 51.3 167.8 49.6 Z M 170.8 44.3 C 170.76 44.33 170.8 43.9 170.8 43.9 L 171.3 43.9 C 171.3 43.9 171.26 44.32 171.3 44.3 C 171.3 45.3 170.9 46.3 170.6 46.9 C 170.6 46.9 170.2 46.9 170.2 46.9 C 170.4 46.3 170.8 45.3 170.8 44.3 Z M 173.1 50.5 C 173.09 50.48 173.1 46.4 173.1 46.4 L 173.6 46.4 C 173.6 46.4 173.59 50.51 173.6 50.5 C 173.6 51.7 174.3 52.4 175.5 52.4 C 176.6 52.4 177.4 51.7 177.4 50.5 C 177.38 50.5 177.4 46.4 177.4 46.4 L 177.9 46.4 C 177.9 46.4 177.88 50.47 177.9 50.5 C 177.9 51.9 176.9 52.9 175.5 52.9 C 174 52.9 173.1 51.9 173.1 50.5 Z M 184.9 48.6 C 184.87 48.56 184.9 52.8 184.9 52.8 L 184.4 52.8 C 184.4 52.8 184.37 48.77 184.4 48.8 C 184.4 47.5 183.7 46.8 182.6 46.8 C 181.5 46.8 180.6 47.5 180.6 48.7 C 180.58 48.71 180.6 52.8 180.6 52.8 L 180.1 52.8 L 180.1 46.4 L 180.5 46.4 L 180.5 47.6 C 180.5 47.6 180.55 47.56 180.5 47.6 C 180.9 46.8 181.7 46.3 182.6 46.3 C 184 46.3 184.9 47.2 184.9 48.6 Z M 194.1 47.1 L 194.1 47.1 L 192.1 52.8 L 191.5 52.8 L 189.7 46.4 L 190.2 46.4 L 191.8 52.2 L 191.8 52.2 L 193.8 46.4 L 194.3 46.4 L 196.3 52.2 L 196.4 52.2 L 198 46.4 L 198.5 46.4 L 196.6 52.8 L 196.1 52.8 L 194.1 47.1 Z M 205.1 49.8 C 205.1 49.8 200 49.8 200 49.8 C 200.1 51.4 201.1 52.4 202.6 52.4 C 203.3 52.4 204.2 52.2 204.8 51.5 C 204.8 51.5 204.8 52.1 204.8 52.1 C 204.2 52.6 203.4 52.9 202.5 52.9 C 200.8 52.9 199.5 51.6 199.5 49.6 C 199.5 47.6 200.9 46.3 202.5 46.3 C 203.9 46.3 205.1 47.4 205.1 49.5 C 205.1 49.6 205.1 49.7 205.1 49.8 Z M 204.6 49.3 C 204.6 47.6 203.5 46.8 202.5 46.8 C 201.2 46.8 200.1 47.8 200 49.3 C 200 49.3 204.6 49.3 204.6 49.3 Z M 212 49.8 C 212 49.8 206.9 49.8 206.9 49.8 C 207 51.4 208.1 52.4 209.5 52.4 C 210.3 52.4 211.1 52.2 211.8 51.5 C 211.8 51.5 211.8 52.1 211.8 52.1 C 211.1 52.6 210.3 52.9 209.5 52.9 C 207.7 52.9 206.4 51.6 206.4 49.6 C 206.4 47.6 207.9 46.3 209.4 46.3 C 210.8 46.3 212 47.4 212 49.5 C 212 49.6 212 49.7 212 49.8 Z M 211.5 49.3 C 211.5 47.6 210.5 46.8 209.4 46.8 C 208.2 46.8 207.1 47.8 207 49.3 C 207 49.3 211.5 49.3 211.5 49.3 Z M 217.7 52.8 L 214.3 49.5 L 214.3 52.8 L 213.8 52.8 L 213.8 43.3 L 214.3 43.3 L 214.3 49.4 L 217.6 46.4 L 218.3 46.4 L 215 49.4 L 218.4 52.8 L 217.7 52.8 Z M 218.9 48.9 L 221.8 48.9 L 221.8 49.4 L 218.9 49.4 L 218.9 48.9 Z M 229 49.8 C 229 49.8 223.9 49.8 223.9 49.8 C 224 51.4 225.1 52.4 226.5 52.4 C 227.3 52.4 228.1 52.2 228.8 51.5 C 228.8 51.5 228.8 52.1 228.8 52.1 C 228.1 52.6 227.3 52.9 226.5 52.9 C 224.7 52.9 223.4 51.6 223.4 49.6 C 223.4 47.6 224.9 46.3 226.4 46.3 C 227.8 46.3 229 47.4 229 49.5 C 229 49.6 229 49.7 229 49.8 Z M 228.5 49.3 C 228.5 47.6 227.5 46.8 226.4 46.8 C 225.2 46.8 224.1 47.8 224 49.3 C 224 49.3 228.5 49.3 228.5 49.3 Z M 235.6 48.6 C 235.6 48.56 235.6 52.8 235.6 52.8 L 235.1 52.8 C 235.1 52.8 235.1 48.77 235.1 48.8 C 235.1 47.5 234.4 46.8 233.3 46.8 C 232.2 46.8 231.3 47.5 231.3 48.7 C 231.32 48.71 231.3 52.8 231.3 52.8 L 230.8 52.8 L 230.8 46.4 L 231.2 46.4 L 231.3 47.6 C 231.3 47.6 231.28 47.56 231.3 47.6 C 231.6 46.8 232.4 46.3 233.4 46.3 C 234.7 46.3 235.6 47.2 235.6 48.6 Z M 237.4 49.6 C 237.4 47.6 238.7 46.3 240.3 46.3 C 241.3 46.3 242.3 46.9 242.7 48 C 242.73 47.98 242.7 43.3 242.7 43.3 L 243.2 43.3 L 243.2 52.8 L 242.8 52.8 L 242.8 51.2 C 242.8 51.2 242.76 51.19 242.8 51.2 C 242.3 52.4 241.3 52.9 240.3 52.9 C 238.8 52.9 237.4 51.6 237.4 49.6 Z M 242.8 49.6 C 242.8 47.9 241.6 46.8 240.3 46.8 C 239 46.8 237.9 47.9 237.9 49.6 C 237.9 51.3 239 52.4 240.3 52.4 C 241.6 52.4 242.8 51.3 242.8 49.6 Z M 248.5 49.6 C 248.5 47.7 249.9 46.3 251.6 46.3 C 253.2 46.3 254.6 47.7 254.6 49.6 C 254.6 51.6 253.2 52.9 251.6 52.9 C 249.9 52.9 248.5 51.6 248.5 49.6 Z M 254.1 49.6 C 254.1 47.8 252.9 46.8 251.6 46.8 C 250.3 46.8 249 47.8 249 49.6 C 249 51.4 250.3 52.4 251.6 52.4 C 252.9 52.4 254.1 51.4 254.1 49.6 Z M 256.4 50.5 C 256.35 50.48 256.4 46.4 256.4 46.4 L 256.9 46.4 C 256.9 46.4 256.85 50.51 256.9 50.5 C 256.9 51.7 257.6 52.4 258.7 52.4 C 259.9 52.4 260.6 51.7 260.6 50.5 C 260.65 50.5 260.6 46.4 260.6 46.4 L 261.2 46.4 C 261.2 46.4 261.15 50.47 261.2 50.5 C 261.2 51.9 260.2 52.9 258.7 52.9 C 257.3 52.9 256.4 51.9 256.4 50.5 Z M 266.4 49.6 C 266.4 47.6 267.8 46.3 269.3 46.3 C 270.3 46.3 271.3 46.9 271.7 48 C 271.75 47.98 271.7 43.3 271.7 43.3 L 272.3 43.3 L 272.3 52.8 L 271.9 52.8 L 271.8 51.2 C 271.8 51.2 271.77 51.19 271.8 51.2 C 271.3 52.4 270.3 52.9 269.3 52.9 C 267.8 52.9 266.4 51.6 266.4 49.6 Z M 271.8 49.6 C 271.8 47.9 270.6 46.8 269.3 46.8 C 268 46.8 266.9 47.9 266.9 49.6 C 266.9 51.3 268 52.4 269.3 52.4 C 270.6 52.4 271.8 51.3 271.8 49.6 Z M 279.6 49.8 C 279.6 49.8 274.6 49.8 274.6 49.8 C 274.7 51.4 275.7 52.4 277.1 52.4 C 277.9 52.4 278.7 52.2 279.4 51.5 C 279.4 51.5 279.4 52.1 279.4 52.1 C 278.7 52.6 278 52.9 277.1 52.9 C 275.3 52.9 274.1 51.6 274.1 49.6 C 274.1 47.6 275.5 46.3 277 46.3 C 278.5 46.3 279.7 47.4 279.7 49.5 C 279.7 49.6 279.7 49.7 279.6 49.8 Z M 279.2 49.3 C 279.1 47.6 278.1 46.8 277 46.8 C 275.8 46.8 274.7 47.8 274.6 49.3 C 274.6 49.3 279.2 49.3 279.2 49.3 Z M 283.9 46.4 L 284.5 46.4 L 286.6 52.2 L 286.6 52.2 L 288.7 46.4 L 289.2 46.4 L 286.8 52.8 L 286.3 52.8 L 283.9 46.4 Z M 290.1 49.6 C 290.1 47.6 291.5 46.3 293 46.3 C 294 46.3 295 46.9 295.5 48 C 295.48 48.02 295.6 46.4 295.6 46.4 L 295.9 46.4 L 295.9 52.8 L 295.6 52.8 C 295.6 52.8 295.48 51.2 295.5 51.2 C 295 52.4 294 52.9 293 52.9 C 291.5 52.9 290.1 51.6 290.1 49.6 Z M 295.5 49.6 C 295.5 47.9 294.4 46.8 293 46.8 C 291.7 46.8 290.6 47.9 290.6 49.6 C 290.6 51.3 291.7 52.4 293 52.4 C 294.3 52.4 295.5 51.3 295.5 49.6 Z M 300.9 52.4 C 301.4 52.4 302 52.3 302.6 51.9 C 302.6 51.9 302.6 52.5 302.6 52.5 C 302.1 52.8 301.5 52.9 300.9 52.9 C 299.1 52.9 297.8 51.5 297.8 49.6 C 297.8 47.7 299.1 46.3 300.8 46.3 C 301.4 46.3 302 46.4 302.6 46.8 C 302.6 46.8 302.6 47.3 302.6 47.3 C 302 46.9 301.4 46.8 300.8 46.8 C 299.5 46.8 298.3 47.9 298.3 49.6 C 298.3 51.3 299.5 52.4 300.9 52.4 Z M 303.7 49.6 C 303.7 47.6 305.1 46.3 306.6 46.3 C 307.7 46.3 308.7 46.9 309.2 48 C 309.15 48.02 309.2 46.4 309.2 46.4 L 309.6 46.4 L 309.6 52.8 L 309.2 52.8 C 309.2 52.8 309.15 51.2 309.2 51.2 C 308.7 52.4 307.7 52.9 306.7 52.9 C 305.1 52.9 303.7 51.6 303.7 49.6 Z M 309.1 49.6 C 309.1 47.9 308 46.8 306.7 46.8 C 305.4 46.8 304.2 47.9 304.2 49.6 C 304.2 51.3 305.4 52.4 306.7 52.4 C 308 52.4 309.1 51.3 309.1 49.6 Z M 316.7 48.6 C 316.69 48.56 316.7 52.8 316.7 52.8 L 316.2 52.8 C 316.2 52.8 316.18 48.77 316.2 48.8 C 316.2 47.5 315.5 46.8 314.4 46.8 C 313.3 46.8 312.4 47.5 312.4 48.7 C 312.4 48.71 312.4 52.8 312.4 52.8 L 311.9 52.8 L 311.9 46.4 L 312.3 46.4 L 312.4 47.6 C 312.4 47.6 312.37 47.56 312.4 47.6 C 312.7 46.8 313.5 46.3 314.4 46.3 C 315.8 46.3 316.7 47.2 316.7 48.6 Z M 321.5 52.4 C 322 52.4 322.7 52.3 323.2 51.9 C 323.2 51.9 323.2 52.5 323.2 52.5 C 322.7 52.8 322.1 52.9 321.5 52.9 C 319.8 52.9 318.4 51.5 318.4 49.6 C 318.4 47.7 319.8 46.3 321.5 46.3 C 322.1 46.3 322.7 46.4 323.2 46.8 C 323.2 46.8 323.2 47.3 323.2 47.3 C 322.7 46.9 322.1 46.8 321.5 46.8 C 320.2 46.8 318.9 47.9 318.9 49.6 C 318.9 51.3 320.2 52.4 321.5 52.4 Z M 330 49.8 C 330 49.8 324.9 49.8 324.9 49.8 C 325 51.4 326 52.4 327.5 52.4 C 328.2 52.4 329 52.2 329.7 51.5 C 329.7 51.5 329.7 52.1 329.7 52.1 C 329.1 52.6 328.3 52.9 327.4 52.9 C 325.7 52.9 324.4 51.6 324.4 49.6 C 324.4 47.6 325.8 46.3 327.4 46.3 C 328.8 46.3 330 47.4 330 49.5 C 330 49.6 330 49.7 330 49.8 Z M 329.5 49.3 C 329.5 47.6 328.4 46.8 327.4 46.8 C 326.1 46.8 325 47.8 324.9 49.3 C 324.9 49.3 329.5 49.3 329.5 49.3 Z M 335.3 46.9 C 335.3 46.9 335.3 47.4 335.3 47.4 C 334.8 47.1 334.2 46.8 333.5 46.8 C 332.6 46.8 331.9 47.3 331.9 48 C 331.9 48.7 332.6 49 333.6 49.3 C 334.6 49.7 335.6 50 335.6 51.1 C 335.6 52.2 334.8 52.9 333.5 52.9 C 332.7 52.9 332 52.7 331.3 52.2 C 331.3 52.2 331.3 51.5 331.3 51.5 C 331.9 52.1 332.6 52.4 333.5 52.4 C 334.5 52.4 335.1 51.9 335.1 51.1 C 335.1 50.4 334.4 50.1 333.4 49.7 C 332.3 49.4 331.4 49.1 331.4 48 C 331.4 47 332.3 46.3 333.5 46.3 C 334.2 46.3 334.8 46.5 335.3 46.9 Z M 337.2 52.4 C 337.2 52.1 337.4 51.9 337.7 51.9 C 337.9 51.9 338.1 52.1 338.1 52.4 C 338.1 52.6 337.9 52.8 337.7 52.8 C 337.4 52.8 337.2 52.6 337.2 52.4 Z " stroke="none" fill="#000"/>
  </g>
  <g id="Polygon28364">
    <path d="M 1.1 36.1 C 1.06 36.08 1.1 32 1.1 32 L 1.6 32 C 1.6 32 1.56 36.11 1.6 36.1 C 1.6 37.3 2.3 38 3.4 38 C 4.6 38 5.4 37.3 5.4 36.1 C 5.35 36.1 5.4 32 5.4 32 L 5.9 32 C 5.9 32 5.86 36.07 5.9 36.1 C 5.9 37.5 4.9 38.5 3.4 38.5 C 2 38.5 1.1 37.5 1.1 36.1 Z M 12.8 34.2 C 12.84 34.16 12.8 38.4 12.8 38.4 L 12.3 38.4 C 12.3 38.4 12.34 34.37 12.3 34.4 C 12.3 33.1 11.7 32.4 10.5 32.4 C 9.4 32.4 8.6 33.1 8.6 34.3 C 8.56 34.31 8.6 38.4 8.6 38.4 L 8.1 38.4 L 8.1 32 L 8.4 32 L 8.5 33.2 C 8.5 33.2 8.52 33.16 8.5 33.2 C 8.9 32.4 9.6 31.9 10.6 31.9 C 12 31.9 12.8 32.8 12.8 34.2 Z M 20.1 35.4 C 20.1 35.4 15.1 35.4 15.1 35.4 C 15.2 37 16.2 38 17.7 38 C 18.4 38 19.2 37.8 19.9 37.1 C 19.9 37.1 19.9 37.7 19.9 37.7 C 19.2 38.2 18.5 38.5 17.6 38.5 C 15.8 38.5 14.6 37.2 14.6 35.2 C 14.6 33.2 16 31.9 17.5 31.9 C 19 31.9 20.2 33 20.2 35.1 C 20.2 35.2 20.2 35.3 20.1 35.4 Z M 19.7 34.9 C 19.6 33.2 18.6 32.4 17.5 32.4 C 16.3 32.4 15.2 33.4 15.1 34.9 C 15.1 34.9 19.7 34.9 19.7 34.9 Z M 24.8 29.7 C 24.8 29.5 24.9 29.3 25.2 29.3 C 25.4 29.3 25.6 29.5 25.6 29.7 C 25.6 29.9 25.4 30.1 25.2 30.1 C 24.9 30.1 24.8 29.9 24.8 29.7 Z M 24.9 37.7 C 24.92 37.72 24.9 32 24.9 32 L 25.4 32 C 25.4 32 25.42 37.73 25.4 37.7 C 25.4 39.2 25.1 40.1 24.4 41 C 24.4 41 23.8 41 23.8 41 C 24.5 40.2 24.9 39.2 24.9 37.7 Z M 32.9 35.4 C 32.9 35.4 27.8 35.4 27.8 35.4 C 27.9 37 28.9 38 30.4 38 C 31.1 38 31.9 37.8 32.6 37.1 C 32.6 37.1 32.6 37.7 32.6 37.7 C 32 38.2 31.2 38.5 30.3 38.5 C 28.5 38.5 27.3 37.2 27.3 35.2 C 27.3 33.2 28.7 31.9 30.2 31.9 C 31.7 31.9 32.9 33 32.9 35.1 C 32.9 35.2 32.9 35.3 32.9 35.4 Z M 32.4 34.9 C 32.3 33.2 31.3 32.4 30.2 32.4 C 29 32.4 27.9 33.4 27.8 34.9 C 27.8 34.9 32.4 34.9 32.4 34.9 Z M 34.6 36.1 C 34.59 36.08 34.6 32 34.6 32 L 35.1 32 C 35.1 32 35.1 36.11 35.1 36.1 C 35.1 37.3 35.8 38 37 38 C 38.1 38 38.9 37.3 38.9 36.1 C 38.89 36.1 38.9 32 38.9 32 L 39.4 32 C 39.4 32 39.39 36.07 39.4 36.1 C 39.4 37.5 38.5 38.5 37 38.5 C 35.5 38.5 34.6 37.5 34.6 36.1 Z M 46.4 34.2 C 46.38 34.16 46.4 38.4 46.4 38.4 L 45.9 38.4 C 45.9 38.4 45.87 34.37 45.9 34.4 C 45.9 33.1 45.2 32.4 44.1 32.4 C 43 32.4 42.1 33.1 42.1 34.3 C 42.09 34.31 42.1 38.4 42.1 38.4 L 41.6 38.4 L 41.6 32 L 42 32 L 42 33.2 C 42 33.2 42.06 33.16 42.1 33.2 C 42.4 32.4 43.2 31.9 44.1 31.9 C 45.5 31.9 46.4 32.8 46.4 34.2 Z M 53.7 35.4 C 53.7 35.4 48.6 35.4 48.6 35.4 C 48.7 37 49.7 38 51.2 38 C 52 38 52.8 37.8 53.5 37.1 C 53.5 37.1 53.5 37.7 53.5 37.7 C 52.8 38.2 52 38.5 51.2 38.5 C 49.4 38.5 48.1 37.2 48.1 35.2 C 48.1 33.2 49.5 31.9 51.1 31.9 C 52.5 31.9 53.7 33 53.7 35.1 C 53.7 35.2 53.7 35.3 53.7 35.4 Z M 53.2 34.9 C 53.2 33.2 52.2 32.4 51.1 32.4 C 49.9 32.4 48.8 33.4 48.6 34.9 C 48.6 34.9 53.2 34.9 53.2 34.9 Z M 58.6 32.5 L 57.7 32.5 L 57.7 32 L 58.6 32 C 58.6 32 58.64 30.8 58.6 30.8 C 58.6 29.5 59.5 28.8 60.5 28.8 C 60.9 28.8 61.2 28.9 61.5 29 C 61.5 29 61.5 29.5 61.5 29.5 C 61.3 29.4 60.9 29.3 60.6 29.3 C 59.7 29.3 59.2 29.8 59.2 30.9 C 59.15 30.89 59.2 32 59.2 32 L 61.1 32 L 61.1 32.5 L 59.2 32.5 L 59.2 38.4 L 58.6 38.4 L 58.6 32.5 Z M 61.7 35.2 C 61.7 33.2 63.1 31.9 64.6 31.9 C 65.6 31.9 66.7 32.5 67.1 33.6 C 67.12 33.62 67.2 32 67.2 32 L 67.6 32 L 67.6 38.4 L 67.2 38.4 C 67.2 38.4 67.12 36.8 67.1 36.8 C 66.7 38 65.6 38.5 64.6 38.5 C 63.1 38.5 61.7 37.2 61.7 35.2 Z M 67.1 35.2 C 67.1 33.5 66 32.4 64.7 32.4 C 63.3 32.4 62.2 33.5 62.2 35.2 C 62.2 36.9 63.4 38 64.7 38 C 66 38 67.1 36.9 67.1 35.2 Z M 77.6 34.1 C 77.6 34.08 77.6 38.4 77.6 38.4 L 77.1 38.4 C 77.1 38.4 77.09 34.13 77.1 34.1 C 77.1 33.1 76.6 32.4 75.6 32.4 C 74.6 32.4 74 33.2 74 34.1 C 73.98 34.14 74 38.4 74 38.4 L 73.5 38.4 C 73.5 38.4 73.48 34.13 73.5 34.1 C 73.5 33.1 73 32.4 72 32.4 C 71 32.4 70.4 33.2 70.4 34.2 C 70.37 34.16 70.4 38.4 70.4 38.4 L 69.9 38.4 L 69.9 32 L 70.3 32 L 70.3 33.1 C 70.3 33.1 70.34 33.08 70.3 33.1 C 70.6 32.4 71.2 31.9 72.1 31.9 C 73 31.9 73.6 32.4 73.8 33.2 C 74.1 32.4 74.8 31.9 75.7 31.9 C 77 31.9 77.6 32.8 77.6 34.1 Z M 79.7 29.7 C 79.7 29.5 79.9 29.3 80.1 29.3 C 80.3 29.3 80.5 29.5 80.5 29.7 C 80.5 29.9 80.3 30.1 80.1 30.1 C 79.9 30.1 79.7 29.9 79.7 29.7 Z M 79.8 32 L 80.3 32 L 80.3 38.4 L 79.8 38.4 L 79.8 32 Z M 82.7 28.9 L 83.2 28.9 L 83.2 38.4 L 82.7 38.4 L 82.7 28.9 Z M 85.6 28.9 L 86.1 28.9 L 86.1 38.4 L 85.6 38.4 L 85.6 28.9 Z M 93.5 35.4 C 93.5 35.4 88.4 35.4 88.4 35.4 C 88.5 37 89.5 38 91 38 C 91.8 38 92.6 37.8 93.3 37.1 C 93.3 37.1 93.3 37.7 93.3 37.7 C 92.6 38.2 91.8 38.5 91 38.5 C 89.2 38.5 87.9 37.2 87.9 35.2 C 87.9 33.2 89.3 31.9 90.9 31.9 C 92.3 31.9 93.5 33 93.5 35.1 C 93.5 35.2 93.5 35.3 93.5 35.4 Z M 93 34.9 C 93 33.2 92 32.4 90.9 32.4 C 89.7 32.4 88.6 33.4 88.4 34.9 C 88.4 34.9 93 34.9 93 34.9 Z M 97.8 35.2 C 97.8 33.2 99.2 31.9 100.7 31.9 C 101.7 31.9 102.7 32.5 103.1 33.6 C 103.14 33.58 103.1 28.9 103.1 28.9 L 103.6 28.9 L 103.6 38.4 L 103.2 38.4 L 103.2 36.8 C 103.2 36.8 103.16 36.79 103.2 36.8 C 102.7 38 101.7 38.5 100.7 38.5 C 99.2 38.5 97.8 37.2 97.8 35.2 Z M 103.2 35.2 C 103.2 33.5 102 32.4 100.7 32.4 C 99.4 32.4 98.3 33.5 98.3 35.2 C 98.3 36.9 99.4 38 100.7 38 C 102 38 103.2 36.9 103.2 35.2 Z M 111 35.4 C 111 35.4 106 35.4 106 35.4 C 106.1 37 107.1 38 108.5 38 C 109.3 38 110.1 37.8 110.8 37.1 C 110.8 37.1 110.8 37.7 110.8 37.7 C 110.1 38.2 109.3 38.5 108.5 38.5 C 106.7 38.5 105.5 37.2 105.5 35.2 C 105.5 33.2 106.9 31.9 108.4 31.9 C 109.8 31.9 111.1 33 111.1 35.1 C 111.1 35.2 111 35.3 111 35.4 Z M 110.6 34.9 C 110.5 33.2 109.5 32.4 108.4 32.4 C 107.2 32.4 106.1 33.4 106 34.9 C 106 34.9 110.6 34.9 110.6 34.9 Z M 115.3 35.2 C 115.3 33.2 116.7 31.9 118.2 31.9 C 119.2 31.9 120.2 32.5 120.7 33.6 C 120.69 33.58 120.7 28.9 120.7 28.9 L 121.2 28.9 L 121.2 38.4 L 120.8 38.4 L 120.7 36.8 C 120.7 36.8 120.72 36.79 120.7 36.8 C 120.3 38 119.2 38.5 118.2 38.5 C 116.7 38.5 115.3 37.2 115.3 35.2 Z M 120.7 35.2 C 120.7 33.5 119.6 32.4 118.3 32.4 C 116.9 32.4 115.8 33.5 115.8 35.2 C 115.8 36.9 116.9 38 118.3 38 C 119.6 38 120.7 36.9 120.7 35.2 Z M 128.6 35.4 C 128.6 35.4 123.5 35.4 123.5 35.4 C 123.6 37 124.7 38 126.1 38 C 126.9 38 127.7 37.8 128.4 37.1 C 128.4 37.1 128.4 37.7 128.4 37.7 C 127.7 38.2 126.9 38.5 126.1 38.5 C 124.3 38.5 123 37.2 123 35.2 C 123 33.2 124.4 31.9 126 31.9 C 127.4 31.9 128.6 33 128.6 35.1 C 128.6 35.2 128.6 35.3 128.6 35.4 Z M 128.1 34.9 C 128.1 33.2 127.1 32.4 126 32.4 C 124.8 32.4 123.7 33.4 123.5 34.9 C 123.5 34.9 128.1 34.9 128.1 34.9 Z M 130.3 36.1 C 130.33 36.08 130.3 32 130.3 32 L 130.8 32 C 130.8 32 130.83 36.11 130.8 36.1 C 130.8 37.3 131.6 38 132.7 38 C 133.9 38 134.6 37.3 134.6 36.1 C 134.62 36.1 134.6 32 134.6 32 L 135.1 32 C 135.1 32 135.13 36.07 135.1 36.1 C 135.1 37.5 134.2 38.5 132.7 38.5 C 131.2 38.5 130.3 37.5 130.3 36.1 Z M 139.4 35.2 L 141.7 38.4 L 141.1 38.4 L 139.1 35.6 L 139.1 35.6 L 137.1 38.4 L 136.6 38.4 L 138.8 35.2 L 136.6 32 L 137.2 32 L 139.1 34.8 L 139.1 34.8 L 141.1 32 L 141.6 32 L 139.4 35.2 Z M 151.2 35.4 C 151.2 35.4 146.1 35.4 146.1 35.4 C 146.2 37 147.3 38 148.7 38 C 149.5 38 150.3 37.8 151 37.1 C 151 37.1 151 37.7 151 37.7 C 150.3 38.2 149.5 38.5 148.7 38.5 C 146.9 38.5 145.6 37.2 145.6 35.2 C 145.6 33.2 147.1 31.9 148.6 31.9 C 150 31.9 151.2 33 151.2 35.1 C 151.2 35.2 151.2 35.3 151.2 35.4 Z M 150.7 34.9 C 150.7 33.2 149.7 32.4 148.6 32.4 C 147.4 32.4 146.3 33.4 146.2 34.9 C 146.2 34.9 150.7 34.9 150.7 34.9 Z M 157.8 34.2 C 157.8 34.16 157.8 38.4 157.8 38.4 L 157.3 38.4 C 157.3 38.4 157.3 34.37 157.3 34.4 C 157.3 33.1 156.6 32.4 155.5 32.4 C 154.4 32.4 153.5 33.1 153.5 34.3 C 153.52 34.31 153.5 38.4 153.5 38.4 L 153 38.4 L 153 32 L 153.4 32 L 153.5 33.2 C 153.5 33.2 153.48 33.16 153.5 33.2 C 153.8 32.4 154.6 31.9 155.6 31.9 C 156.9 31.9 157.8 32.8 157.8 34.2 Z M 160.2 32.5 L 159.2 32.5 L 159.2 32 L 160.2 32 C 160.2 32 160.16 30.8 160.2 30.8 C 160.2 29.5 161 28.8 162.1 28.8 C 162.4 28.8 162.8 28.9 163 29 C 163 29 163 29.5 163 29.5 C 162.8 29.4 162.4 29.3 162.1 29.3 C 161.2 29.3 160.7 29.8 160.7 30.9 C 160.67 30.89 160.7 32 160.7 32 L 162.6 32 L 162.6 32.5 L 160.7 32.5 L 160.7 38.4 L 160.2 38.4 L 160.2 32.5 Z M 163.2 35.2 C 163.2 33.2 164.6 31.9 166.1 31.9 C 167.2 31.9 168.2 32.5 168.6 33.6 C 168.64 33.62 168.7 32 168.7 32 L 169.1 32 L 169.1 38.4 L 168.7 38.4 C 168.7 38.4 168.64 36.8 168.6 36.8 C 168.2 38 167.2 38.5 166.1 38.5 C 164.6 38.5 163.2 37.2 163.2 35.2 Z M 168.6 35.2 C 168.6 33.5 167.5 32.4 166.2 32.4 C 164.9 32.4 163.7 33.5 163.7 35.2 C 163.7 36.9 164.9 38 166.2 38 C 167.5 38 168.6 36.9 168.6 35.2 Z M 176.2 34.2 C 176.18 34.16 176.2 38.4 176.2 38.4 L 175.7 38.4 C 175.7 38.4 175.67 34.37 175.7 34.4 C 175.7 33.1 175 32.4 173.9 32.4 C 172.8 32.4 171.9 33.1 171.9 34.3 C 171.89 34.31 171.9 38.4 171.9 38.4 L 171.4 38.4 L 171.4 32 L 171.8 32 L 171.8 33.2 C 171.8 33.2 171.86 33.16 171.9 33.2 C 172.2 32.4 173 31.9 173.9 31.9 C 175.3 31.9 176.2 32.8 176.2 34.2 Z M 179 32 L 180.9 32 L 180.9 32.5 L 179 32.5 C 179 32.5 179 36.4 179 36.4 C 179 37.6 179.6 38 180.5 38 C 180.7 38 180.9 38 181.1 38 C 181.1 38 181.1 38.4 181.1 38.4 C 181 38.4 180.7 38.5 180.5 38.5 C 179.3 38.5 178.5 37.8 178.5 36.4 C 178.49 36.42 178.5 32.5 178.5 32.5 L 177.5 32.5 L 177.5 32 L 178.5 32 L 178.5 30.5 L 179 30.5 L 179 32 Z M 186 32.5 C 186 32.5 186 33 186 33 C 185.5 32.7 184.9 32.4 184.2 32.4 C 183.2 32.4 182.6 32.9 182.6 33.6 C 182.6 34.3 183.3 34.6 184.3 34.9 C 185.3 35.3 186.3 35.6 186.3 36.7 C 186.3 37.8 185.4 38.5 184.1 38.5 C 183.4 38.5 182.6 38.3 182 37.8 C 182 37.8 182 37.1 182 37.1 C 182.5 37.7 183.3 38 184.1 38 C 185.1 38 185.8 37.5 185.8 36.7 C 185.8 36 185.1 35.7 184 35.3 C 183 35 182.1 34.7 182.1 33.6 C 182.1 32.6 182.9 31.9 184.2 31.9 C 184.8 31.9 185.5 32.1 186 32.5 Z M 188 37.4 C 187.96 37.44 188 37 188 37 L 188.5 37 C 188.5 37 188.46 37.43 188.5 37.4 C 188.5 38.4 188.1 39.4 187.8 40 C 187.8 40 187.4 40 187.4 40 C 187.6 39.4 188 38.4 188 37.4 Z M 196.1 38 C 196.6 38 197.3 37.9 197.9 37.5 C 197.9 37.5 197.9 38.1 197.9 38.1 C 197.4 38.4 196.8 38.5 196.1 38.5 C 194.4 38.5 193.1 37.1 193.1 35.2 C 193.1 33.3 194.4 31.9 196.1 31.9 C 196.7 31.9 197.3 32 197.9 32.4 C 197.9 32.4 197.9 32.9 197.9 32.9 C 197.3 32.5 196.7 32.4 196.1 32.4 C 194.8 32.4 193.6 33.5 193.6 35.2 C 193.6 36.9 194.8 38 196.1 38 Z M 204.6 35.4 C 204.6 35.4 199.5 35.4 199.5 35.4 C 199.6 37 200.7 38 202.1 38 C 202.9 38 203.7 37.8 204.4 37.1 C 204.4 37.1 204.4 37.7 204.4 37.7 C 203.7 38.2 202.9 38.5 202.1 38.5 C 200.3 38.5 199 37.2 199 35.2 C 199 33.2 200.4 31.9 202 31.9 C 203.4 31.9 204.6 33 204.6 35.1 C 204.6 35.2 204.6 35.3 204.6 35.4 Z M 204.1 34.9 C 204.1 33.2 203.1 32.4 202 32.4 C 200.8 32.4 199.7 33.4 199.5 34.9 C 199.5 34.9 204.1 34.9 204.1 34.9 Z M 209.8 33.6 C 210.2 32.5 211.3 31.9 212.3 31.9 C 213.8 31.9 215.2 33.2 215.2 35.2 C 215.2 37.2 213.8 38.5 212.3 38.5 C 211.3 38.5 210.2 38 209.8 36.8 C 209.78 36.79 209.7 38.4 209.7 38.4 L 209.3 38.4 L 209.3 28.9 L 209.8 28.9 C 209.8 28.9 209.82 33.59 209.8 33.6 Z M 209.8 35.2 C 209.8 36.9 210.9 38 212.2 38 C 213.6 38 214.7 36.9 214.7 35.2 C 214.7 33.5 213.6 32.4 212.3 32.4 C 210.9 32.4 209.8 33.5 209.8 35.2 Z M 216.6 35.2 C 216.6 33.2 218 31.9 219.5 31.9 C 220.5 31.9 221.5 32.5 222 33.6 C 221.99 33.62 222.1 32 222.1 32 L 222.5 32 L 222.5 38.4 L 222.1 38.4 C 222.1 38.4 221.99 36.8 222 36.8 C 221.5 38 220.5 38.5 219.5 38.5 C 218 38.5 216.6 37.2 216.6 35.2 Z M 222 35.2 C 222 33.5 220.9 32.4 219.5 32.4 C 218.2 32.4 217.1 33.5 217.1 35.2 C 217.1 36.9 218.2 38 219.5 38 C 220.8 38 222 36.9 222 35.2 Z M 225.4 32 L 227.3 32 L 227.3 32.5 L 225.4 32.5 C 225.4 32.5 225.42 36.4 225.4 36.4 C 225.4 37.6 226.1 38 227 38 C 227.1 38 227.3 38 227.5 38 C 227.5 38 227.5 38.4 227.5 38.4 C 227.4 38.4 227.2 38.5 226.9 38.5 C 225.7 38.5 224.9 37.8 224.9 36.4 C 224.91 36.42 224.9 32.5 224.9 32.5 L 223.9 32.5 L 223.9 32 L 224.9 32 L 224.9 30.5 L 225.4 30.5 L 225.4 32 Z M 233.9 35.4 C 233.9 35.4 228.8 35.4 228.8 35.4 C 228.9 37 229.9 38 231.4 38 C 232.1 38 233 37.8 233.6 37.1 C 233.6 37.1 233.6 37.7 233.6 37.7 C 233 38.2 232.2 38.5 231.4 38.5 C 229.6 38.5 228.3 37.2 228.3 35.2 C 228.3 33.2 229.7 31.9 231.3 31.9 C 232.7 31.9 233.9 33 233.9 35.1 C 233.9 35.2 233.9 35.3 233.9 35.4 Z M 233.4 34.9 C 233.4 33.2 232.4 32.4 231.3 32.4 C 230.1 32.4 228.9 33.4 228.8 34.9 C 228.8 34.9 233.4 34.9 233.4 34.9 Z M 235.2 35.2 C 235.2 33.2 236.6 31.9 238.1 31.9 C 239.2 31.9 240.2 32.5 240.7 33.6 C 240.66 33.62 240.7 32 240.7 32 L 241.1 32 L 241.1 38.4 L 240.7 38.4 C 240.7 38.4 240.66 36.8 240.7 36.8 C 240.2 38 239.2 38.5 238.2 38.5 C 236.6 38.5 235.2 37.2 235.2 35.2 Z M 240.6 35.2 C 240.6 33.5 239.5 32.4 238.2 32.4 C 236.9 32.4 235.7 33.5 235.7 35.2 C 235.7 36.9 236.9 38 238.2 38 C 239.5 38 240.6 36.9 240.6 35.2 Z M 243.3 36.1 C 243.32 36.08 243.3 32 243.3 32 L 243.8 32 C 243.8 32 243.82 36.11 243.8 36.1 C 243.8 37.3 244.6 38 245.7 38 C 246.9 38 247.6 37.3 247.6 36.1 C 247.62 36.1 247.6 32 247.6 32 L 248.1 32 C 248.1 32 248.12 36.07 248.1 36.1 C 248.1 37.5 247.2 38.5 245.7 38.5 C 244.2 38.5 243.3 37.5 243.3 36.1 Z M 252.8 35.2 C 252.8 33.2 254.2 31.9 255.7 31.9 C 256.7 31.9 257.7 32.5 258.1 33.6 C 258.15 33.58 258.1 28.9 258.1 28.9 L 258.7 28.9 L 258.7 38.4 L 258.3 38.4 L 258.2 36.8 C 258.2 36.8 258.17 36.79 258.2 36.8 C 257.7 38 256.7 38.5 255.7 38.5 C 254.2 38.5 252.8 37.2 252.8 35.2 Z M 258.2 35.2 C 258.2 33.5 257 32.4 255.7 32.4 C 254.4 32.4 253.3 33.5 253.3 35.2 C 253.3 36.9 254.4 38 255.7 38 C 257 38 258.2 36.9 258.2 35.2 Z M 266 35.4 C 266 35.4 261 35.4 261 35.4 C 261.1 37 262.1 38 263.5 38 C 264.3 38 265.1 37.8 265.8 37.1 C 265.8 37.1 265.8 37.7 265.8 37.7 C 265.1 38.2 264.4 38.5 263.5 38.5 C 261.7 38.5 260.5 37.2 260.5 35.2 C 260.5 33.2 261.9 31.9 263.4 31.9 C 264.9 31.9 266.1 33 266.1 35.1 C 266.1 35.2 266.1 35.3 266 35.4 Z M 265.6 34.9 C 265.5 33.2 264.5 32.4 263.4 32.4 C 262.2 32.4 261.1 33.4 261 34.9 C 261 34.9 265.6 34.9 265.6 34.9 Z M 272.5 30.2 L 270.1 31.3 L 270.1 30.7 L 272.9 29.5 L 273 29.5 L 273 38.4 L 272.5 38.4 L 272.5 30.2 Z M 281.9 33.9 C 281.9 36.9 280.5 38.5 278.8 38.5 C 277.1 38.5 275.7 36.9 275.7 33.9 C 275.7 31 277.1 29.4 278.8 29.4 C 280.5 29.4 281.9 31 281.9 33.9 Z M 276.3 33.9 C 276.3 36.6 277.4 38.1 278.8 38.1 C 280.2 38.1 281.4 36.6 281.4 33.9 C 281.4 31.3 280.2 29.8 278.8 29.8 C 277.4 29.8 276.3 31.3 276.3 33.9 Z M 294.6 34.1 C 294.56 34.08 294.6 38.4 294.6 38.4 L 294.1 38.4 C 294.1 38.4 294.06 34.13 294.1 34.1 C 294.1 33.1 293.6 32.4 292.6 32.4 C 291.6 32.4 290.9 33.2 290.9 34.1 C 290.95 34.14 290.9 38.4 290.9 38.4 L 290.4 38.4 C 290.4 38.4 290.45 34.13 290.4 34.1 C 290.4 33.1 289.9 32.4 288.9 32.4 C 287.9 32.4 287.3 33.2 287.3 34.2 C 287.34 34.16 287.3 38.4 287.3 38.4 L 286.8 38.4 L 286.8 32 L 287.2 32 L 287.3 33.1 C 287.3 33.1 287.3 33.08 287.3 33.1 C 287.6 32.4 288.2 31.9 289 31.9 C 290 31.9 290.5 32.4 290.8 33.2 C 291.1 32.4 291.7 31.9 292.6 31.9 C 293.9 31.9 294.6 32.8 294.6 34.1 Z M 299.5 30.9 L 297.9 29 L 298.5 29 L 299.9 30.9 L 299.5 30.9 Z M 301.9 35.4 C 301.9 35.4 296.8 35.4 296.8 35.4 C 296.9 37 297.9 38 299.4 38 C 300.2 38 301 37.8 301.7 37.1 C 301.7 37.1 301.7 37.7 301.7 37.7 C 301 38.2 300.2 38.5 299.4 38.5 C 297.6 38.5 296.3 37.2 296.3 35.2 C 296.3 33.2 297.7 31.9 299.3 31.9 C 300.7 31.9 301.9 33 301.9 35.1 C 301.9 35.2 301.9 35.3 301.9 35.4 Z M 301.4 34.9 C 301.4 33.2 300.4 32.4 299.3 32.4 C 298.1 32.4 296.9 33.4 296.8 34.9 C 296.8 34.9 301.4 34.9 301.4 34.9 Z M 304.3 32 L 306.2 32 L 306.2 32.5 L 304.3 32.5 C 304.3 32.5 304.33 36.4 304.3 36.4 C 304.3 37.6 305 38 305.9 38 C 306 38 306.2 38 306.4 38 C 306.4 38 306.4 38.4 306.4 38.4 C 306.3 38.4 306.1 38.5 305.8 38.5 C 304.7 38.5 303.8 37.8 303.8 36.4 C 303.83 36.42 303.8 32.5 303.8 32.5 L 302.8 32.5 L 302.8 32 L 303.8 32 L 303.8 30.5 L 304.3 30.5 L 304.3 32 Z M 307.8 32 L 308.2 32 L 308.2 33.2 C 308.2 33.2 308.23 33.22 308.2 33.2 C 308.6 32.3 309.5 32 310.1 32 C 310.2 32 310.4 32 310.5 32 C 310.5 32 310.5 32.5 310.5 32.5 C 310.4 32.5 310.2 32.5 310.1 32.5 C 309.2 32.5 308.3 33.1 308.3 34.4 C 308.26 34.37 308.3 38.4 308.3 38.4 L 307.8 38.4 L 307.8 32 Z M 316.6 35.4 C 316.6 35.4 311.6 35.4 311.6 35.4 C 311.7 37 312.7 38 314.1 38 C 314.9 38 315.7 37.8 316.4 37.1 C 316.4 37.1 316.4 37.7 316.4 37.7 C 315.7 38.2 314.9 38.5 314.1 38.5 C 312.3 38.5 311.1 37.2 311.1 35.2 C 311.1 33.2 312.5 31.9 314 31.9 C 315.4 31.9 316.7 33 316.7 35.1 C 316.7 35.2 316.6 35.3 316.6 35.4 Z M 316.2 34.9 C 316.1 33.2 315.1 32.4 314 32.4 C 312.8 32.4 311.7 33.4 311.6 34.9 C 311.6 34.9 316.2 34.9 316.2 34.9 Z M 322 32.5 C 322 32.5 322 33 322 33 C 321.5 32.7 320.9 32.4 320.2 32.4 C 319.2 32.4 318.6 32.9 318.6 33.6 C 318.6 34.3 319.3 34.6 320.3 34.9 C 321.3 35.3 322.3 35.6 322.3 36.7 C 322.3 37.8 321.5 38.5 320.2 38.5 C 319.4 38.5 318.6 38.3 318 37.8 C 318 37.8 318 37.1 318 37.1 C 318.6 37.7 319.3 38 320.2 38 C 321.2 38 321.8 37.5 321.8 36.7 C 321.8 36 321.1 35.7 320.1 35.3 C 319 35 318.1 34.7 318.1 33.6 C 318.1 32.6 319 31.9 320.2 31.9 C 320.9 31.9 321.5 32.1 322 32.5 Z M 332.1 35.4 C 332.1 35.4 327 35.4 327 35.4 C 327.1 37 328.1 38 329.6 38 C 330.4 38 331.2 37.8 331.9 37.1 C 331.9 37.1 331.9 37.7 331.9 37.7 C 331.2 38.2 330.4 38.5 329.6 38.5 C 327.8 38.5 326.5 37.2 326.5 35.2 C 326.5 33.2 327.9 31.9 329.5 31.9 C 330.9 31.9 332.1 33 332.1 35.1 C 332.1 35.2 332.1 35.3 332.1 35.4 Z M 331.6 34.9 C 331.6 33.2 330.6 32.4 329.5 32.4 C 328.3 32.4 327.1 33.4 327 34.9 C 327 34.9 331.6 34.9 331.6 34.9 Z M 337.5 32.5 C 337.5 32.5 337.5 33 337.5 33 C 337 32.7 336.3 32.4 335.6 32.4 C 334.7 32.4 334.1 32.9 334.1 33.6 C 334.1 34.3 334.7 34.6 335.7 34.9 C 336.8 35.3 337.8 35.6 337.8 36.7 C 337.8 37.8 336.9 38.5 335.6 38.5 C 334.9 38.5 334.1 38.3 333.5 37.8 C 333.5 37.8 333.5 37.1 333.5 37.1 C 334 37.7 334.8 38 335.6 38 C 336.6 38 337.3 37.5 337.3 36.7 C 337.3 36 336.5 35.7 335.5 35.3 C 334.5 35 333.6 34.7 333.6 33.6 C 333.6 32.6 334.4 31.9 335.6 31.9 C 336.3 31.9 337 32.1 337.5 32.5 Z M 340.2 32 L 342.1 32 L 342.1 32.5 L 340.2 32.5 C 340.2 32.5 340.2 36.4 340.2 36.4 C 340.2 37.6 340.8 38 341.7 38 C 341.9 38 342.1 38 342.3 38 C 342.3 38 342.3 38.4 342.3 38.4 C 342.2 38.4 342 38.5 341.7 38.5 C 340.5 38.5 339.7 37.8 339.7 36.4 C 339.7 36.42 339.7 32.5 339.7 32.5 L 338.7 32.5 L 338.7 32 L 339.7 32 L 339.7 30.5 L 340.2 30.5 L 340.2 32 Z " stroke="none" fill="#000"/>
  </g>
  <g id="Polygon28363">
    <path d="M 1.8 17.6 L 3.7 17.6 L 3.7 18.1 L 1.8 18.1 C 1.8 18.1 1.82 22 1.8 22 C 1.8 23.2 2.5 23.6 3.4 23.6 C 3.5 23.6 3.7 23.6 3.9 23.6 C 3.9 23.6 3.9 24 3.9 24 C 3.8 24 3.6 24.1 3.3 24.1 C 2.1 24.1 1.3 23.4 1.3 22 C 1.32 22.02 1.3 18.1 1.3 18.1 L 0.3 18.1 L 0.3 17.6 L 1.3 17.6 L 1.3 16.1 L 1.8 16.1 L 1.8 17.6 Z M 10.3 21 C 10.3 21 5.2 21 5.2 21 C 5.3 22.6 6.3 23.6 7.8 23.6 C 8.6 23.6 9.4 23.4 10.1 22.7 C 10.1 22.7 10.1 23.3 10.1 23.3 C 9.4 23.8 8.6 24.1 7.8 24.1 C 6 24.1 4.7 22.8 4.7 20.8 C 4.7 18.8 6.1 17.5 7.7 17.5 C 9.1 17.5 10.3 18.6 10.3 20.7 C 10.3 20.8 10.3 20.9 10.3 21 Z M 9.8 20.5 C 9.8 18.8 8.8 18 7.7 18 C 6.5 18 5.4 19 5.2 20.5 C 5.2 20.5 9.8 20.5 9.8 20.5 Z M 12 21.7 C 12.02 21.68 12 17.6 12 17.6 L 12.5 17.6 C 12.5 17.6 12.53 21.71 12.5 21.7 C 12.5 22.9 13.3 23.6 14.4 23.6 C 15.6 23.6 16.3 22.9 16.3 21.7 C 16.32 21.7 16.3 17.6 16.3 17.6 L 16.8 17.6 C 16.8 17.6 16.82 21.67 16.8 21.7 C 16.8 23.1 15.9 24.1 14.4 24.1 C 12.9 24.1 12 23.1 12 21.7 Z M 19 17.6 L 19.4 17.6 L 19.5 18.8 C 19.5 18.8 19.49 18.82 19.5 18.8 C 19.9 17.9 20.7 17.6 21.4 17.6 C 21.5 17.6 21.6 17.6 21.8 17.6 C 21.8 17.6 21.8 18.1 21.8 18.1 C 21.6 18.1 21.5 18.1 21.4 18.1 C 20.5 18.1 19.5 18.7 19.5 20 C 19.52 19.97 19.5 24 19.5 24 L 19 24 L 19 17.6 Z M 26.6 18.1 C 26.6 18.1 26.6 18.6 26.6 18.6 C 26.1 18.3 25.5 18 24.7 18 C 23.8 18 23.2 18.5 23.2 19.2 C 23.2 19.9 23.8 20.2 24.9 20.5 C 25.9 20.9 26.9 21.2 26.9 22.3 C 26.9 23.4 26 24.1 24.7 24.1 C 24 24.1 23.2 23.9 22.6 23.4 C 22.6 23.4 22.6 22.7 22.6 22.7 C 23.1 23.3 23.9 23.6 24.7 23.6 C 25.7 23.6 26.4 23.1 26.4 22.3 C 26.4 21.6 25.7 21.3 24.6 20.9 C 23.6 20.6 22.7 20.3 22.7 19.2 C 22.7 18.2 23.5 17.5 24.8 17.5 C 25.4 17.5 26.1 17.7 26.6 18.1 Z M 28.5 23 C 28.55 23.04 28.5 22.6 28.5 22.6 L 29.1 22.6 C 29.1 22.6 29.05 23.03 29.1 23 C 29.1 24 28.7 25 28.4 25.6 C 28.4 25.6 28 25.6 28 25.6 C 28.2 25 28.5 24 28.5 23 Z M 34.3 17.6 L 34.7 17.6 C 34.7 17.6 34.77 19.24 34.8 19.2 C 35.2 18.1 36.3 17.5 37.3 17.5 C 38.8 17.5 40.2 18.8 40.2 20.8 C 40.2 22.8 38.8 24.1 37.3 24.1 C 36.3 24.1 35.2 23.5 34.8 22.5 C 34.81 22.45 34.8 26.6 34.8 26.6 L 34.3 26.6 L 34.3 17.6 Z M 39.7 20.8 C 39.7 19.1 38.6 18 37.2 18 C 35.9 18 34.8 19.1 34.8 20.8 C 34.8 22.5 35.9 23.6 37.2 23.6 C 38.6 23.6 39.7 22.5 39.7 20.8 Z M 42.1 14.5 L 42.6 14.5 L 42.6 24 L 42.1 24 L 42.1 14.5 Z M 44.8 21.7 C 44.79 21.68 44.8 17.6 44.8 17.6 L 45.3 17.6 C 45.3 17.6 45.29 21.71 45.3 21.7 C 45.3 22.9 46 23.6 47.2 23.6 C 48.3 23.6 49.1 22.9 49.1 21.7 C 49.09 21.7 49.1 17.6 49.1 17.6 L 49.6 17.6 C 49.6 17.6 49.59 21.67 49.6 21.7 C 49.6 23.1 48.7 24.1 47.2 24.1 C 45.7 24.1 44.8 23.1 44.8 21.7 Z M 55.3 18.1 C 55.3 18.1 55.3 18.6 55.3 18.6 C 54.8 18.3 54.2 18 53.5 18 C 52.6 18 51.9 18.5 51.9 19.2 C 51.9 19.9 52.6 20.2 53.6 20.5 C 54.6 20.9 55.7 21.2 55.7 22.3 C 55.7 23.4 54.8 24.1 53.5 24.1 C 52.7 24.1 52 23.9 51.3 23.4 C 51.3 23.4 51.3 22.7 51.3 22.7 C 51.9 23.3 52.7 23.6 53.5 23.6 C 54.5 23.6 55.1 23.1 55.1 22.3 C 55.1 21.6 54.4 21.3 53.4 20.9 C 52.4 20.6 51.4 20.3 51.4 19.2 C 51.4 18.2 52.3 17.5 53.5 17.5 C 54.2 17.5 54.8 17.7 55.3 18.1 Z M 64.1 18.1 C 64.1 18.1 64.1 18.6 64.1 18.6 C 63.6 18.3 62.9 18 62.2 18 C 61.3 18 60.7 18.5 60.7 19.2 C 60.7 19.9 61.3 20.2 62.3 20.5 C 63.4 20.9 64.4 21.2 64.4 22.3 C 64.4 23.4 63.5 24.1 62.2 24.1 C 61.5 24.1 60.7 23.9 60.1 23.4 C 60.1 23.4 60.1 22.7 60.1 22.7 C 60.6 23.3 61.4 23.6 62.2 23.6 C 63.2 23.6 63.9 23.1 63.9 22.3 C 63.9 21.6 63.1 21.3 62.1 20.9 C 61.1 20.6 60.2 20.3 60.2 19.2 C 60.2 18.2 61 17.5 62.2 17.5 C 62.9 17.5 63.6 17.7 64.1 18.1 Z M 71.2 21 C 71.2 21 66.2 21 66.2 21 C 66.3 22.6 67.3 23.6 68.7 23.6 C 69.5 23.6 70.3 23.4 71 22.7 C 71 22.7 71 23.3 71 23.3 C 70.3 23.8 69.5 24.1 68.7 24.1 C 66.9 24.1 65.7 22.8 65.7 20.8 C 65.7 18.8 67.1 17.5 68.6 17.5 C 70 17.5 71.3 18.6 71.3 20.7 C 71.3 20.8 71.2 20.9 71.2 21 Z M 70.8 20.5 C 70.7 18.8 69.7 18 68.6 18 C 67.4 18 66.3 19 66.2 20.5 C 66.2 20.5 70.8 20.5 70.8 20.5 Z M 77.8 19.8 C 77.85 19.76 77.8 24 77.8 24 L 77.3 24 C 77.3 24 77.34 19.97 77.3 20 C 77.3 18.7 76.7 18 75.5 18 C 74.5 18 73.6 18.7 73.6 19.9 C 73.56 19.91 73.6 24 73.6 24 L 73.1 24 L 73.1 17.6 L 73.5 17.6 L 73.5 18.8 C 73.5 18.8 73.53 18.76 73.5 18.8 C 73.9 18 74.6 17.5 75.6 17.5 C 77 17.5 77.8 18.4 77.8 19.8 Z M 83.6 18.1 C 83.6 18.1 83.6 18.6 83.6 18.6 C 83.1 18.3 82.5 18 81.8 18 C 80.8 18 80.2 18.5 80.2 19.2 C 80.2 19.9 80.9 20.2 81.9 20.5 C 82.9 20.9 83.9 21.2 83.9 22.3 C 83.9 23.4 83 24.1 81.7 24.1 C 81 24.1 80.2 23.9 79.6 23.4 C 79.6 23.4 79.6 22.7 79.6 22.7 C 80.2 23.3 80.9 23.6 81.7 23.6 C 82.8 23.6 83.4 23.1 83.4 22.3 C 83.4 21.6 82.7 21.3 81.7 20.9 C 80.6 20.6 79.7 20.3 79.7 19.2 C 79.7 18.2 80.5 17.5 81.8 17.5 C 82.5 17.5 83.1 17.7 83.6 18.1 Z M 85.6 15.3 C 85.6 15.1 85.7 14.9 85.9 14.9 C 86.2 14.9 86.4 15.1 86.4 15.3 C 86.4 15.5 86.2 15.7 85.9 15.7 C 85.7 15.7 85.6 15.5 85.6 15.3 Z M 85.7 17.6 L 86.2 17.6 L 86.2 24 L 85.7 24 L 85.7 17.6 Z M 89 19.2 C 89.5 18.1 90.5 17.5 91.5 17.5 C 93 17.5 94.4 18.8 94.4 20.8 C 94.4 22.8 93 24.1 91.5 24.1 C 90.5 24.1 89.5 23.6 89 22.4 C 88.98 22.39 88.9 24 88.9 24 L 88.5 24 L 88.5 14.5 L 89 14.5 C 89 14.5 89.02 19.19 89 19.2 Z M 89 20.8 C 89 22.5 90.1 23.6 91.4 23.6 C 92.8 23.6 93.9 22.5 93.9 20.8 C 93.9 19.1 92.8 18 91.5 18 C 90.1 18 89 19.1 89 20.8 Z M 96.3 14.5 L 96.8 14.5 L 96.8 24 L 96.3 24 L 96.3 14.5 Z M 104.2 21 C 104.2 21 99.1 21 99.1 21 C 99.2 22.6 100.3 23.6 101.7 23.6 C 102.5 23.6 103.3 23.4 104 22.7 C 104 22.7 104 23.3 104 23.3 C 103.3 23.8 102.5 24.1 101.7 24.1 C 99.9 24.1 98.6 22.8 98.6 20.8 C 98.6 18.8 100.1 17.5 101.6 17.5 C 103 17.5 104.2 18.6 104.2 20.7 C 104.2 20.8 104.2 20.9 104.2 21 Z M 103.7 20.5 C 103.7 18.8 102.7 18 101.6 18 C 100.4 18 99.3 19 99.2 20.5 C 99.2 20.5 103.7 20.5 103.7 20.5 Z M 108.7 20.8 C 108.7 18.8 110.1 17.5 111.6 17.5 C 112.6 17.5 113.6 18.1 114.1 19.2 C 114.08 19.22 114.2 17.6 114.2 17.6 L 114.6 17.6 L 114.6 24 L 114.2 24 C 114.2 24 114.08 22.4 114.1 22.4 C 113.6 23.6 112.6 24.1 111.6 24.1 C 110.1 24.1 108.7 22.8 108.7 20.8 Z M 114.1 20.8 C 114.1 19.1 113 18 111.6 18 C 110.3 18 109.2 19.1 109.2 20.8 C 109.2 22.5 110.3 23.6 111.6 23.6 C 112.9 23.6 114.1 22.5 114.1 20.8 Z M 116.7 21.7 C 116.75 21.68 116.7 17.6 116.7 17.6 L 117.3 17.6 C 117.3 17.6 117.25 21.71 117.3 21.7 C 117.3 22.9 118 23.6 119.1 23.6 C 120.3 23.6 121 22.9 121 21.7 C 121.04 21.7 121 17.6 121 17.6 L 121.5 17.6 C 121.5 17.6 121.55 21.67 121.5 21.7 C 121.5 23.1 120.6 24.1 119.1 24.1 C 117.7 24.1 116.7 23.1 116.7 21.7 Z M 125.8 20.8 L 128.1 24 L 127.5 24 L 125.5 21.2 L 125.5 21.2 L 123.6 24 L 123 24 L 125.2 20.8 L 123 17.6 L 123.6 17.6 L 125.5 20.4 L 125.5 20.4 L 127.5 17.6 L 128 17.6 L 125.8 20.8 Z M 137.8 21 C 137.8 21 132.8 21 132.8 21 C 132.8 22.6 133.9 23.6 135.3 23.6 C 136.1 23.6 136.9 23.4 137.6 22.7 C 137.6 22.7 137.6 23.3 137.6 23.3 C 136.9 23.8 136.1 24.1 135.3 24.1 C 133.5 24.1 132.3 22.8 132.3 20.8 C 132.3 18.8 133.7 17.5 135.2 17.5 C 136.6 17.5 137.8 18.6 137.8 20.7 C 137.8 20.8 137.8 20.9 137.8 21 Z M 137.3 20.5 C 137.3 18.8 136.3 18 135.2 18 C 134 18 132.9 19 132.8 20.5 C 132.8 20.5 137.3 20.5 137.3 20.5 Z M 144.4 19.8 C 144.43 19.76 144.4 24 144.4 24 L 143.9 24 C 143.9 24 143.92 19.97 143.9 20 C 143.9 18.7 143.3 18 142.1 18 C 141 18 140.1 18.7 140.1 19.9 C 140.14 19.91 140.1 24 140.1 24 L 139.6 24 L 139.6 17.6 L 140 17.6 L 140.1 18.8 C 140.1 18.8 140.11 18.76 140.1 18.8 C 140.5 18 141.2 17.5 142.2 17.5 C 143.5 17.5 144.4 18.4 144.4 19.8 Z M 146.5 15.3 C 146.5 15.1 146.7 14.9 146.9 14.9 C 147.2 14.9 147.3 15.1 147.3 15.3 C 147.3 15.5 147.2 15.7 146.9 15.7 C 146.7 15.7 146.5 15.5 146.5 15.3 Z M 146.7 23.3 C 146.67 23.32 146.7 17.6 146.7 17.6 L 147.2 17.6 C 147.2 17.6 147.17 23.33 147.2 23.3 C 147.2 24.8 146.8 25.7 146.2 26.6 C 146.2 26.6 145.5 26.6 145.5 26.6 C 146.3 25.8 146.7 24.8 146.7 23.3 Z M 154.6 21 C 154.6 21 149.6 21 149.6 21 C 149.6 22.6 150.7 23.6 152.1 23.6 C 152.9 23.6 153.7 23.4 154.4 22.7 C 154.4 22.7 154.4 23.3 154.4 23.3 C 153.7 23.8 152.9 24.1 152.1 24.1 C 150.3 24.1 149 22.8 149 20.8 C 149 18.8 150.5 17.5 152 17.5 C 153.4 17.5 154.6 18.6 154.6 20.7 C 154.6 20.8 154.6 20.9 154.6 21 Z M 154.1 20.5 C 154.1 18.8 153.1 18 152 18 C 150.8 18 149.7 19 149.6 20.5 C 149.6 20.5 154.1 20.5 154.1 20.5 Z M 156.3 21.7 C 156.34 21.68 156.3 17.6 156.3 17.6 L 156.8 17.6 C 156.8 17.6 156.85 21.71 156.8 21.7 C 156.8 22.9 157.6 23.6 158.7 23.6 C 159.9 23.6 160.6 22.9 160.6 21.7 C 160.64 21.7 160.6 17.6 160.6 17.6 L 161.1 17.6 C 161.1 17.6 161.14 21.67 161.1 21.7 C 161.1 23.1 160.2 24.1 158.7 24.1 C 157.3 24.1 156.3 23.1 156.3 21.7 Z M 165.4 20.8 L 167.7 24 L 167.1 24 L 165.1 21.2 L 165.1 21.2 L 163.1 24 L 162.6 24 L 164.8 20.8 L 162.6 17.6 L 163.2 17.6 L 165.1 20.4 L 165.1 20.4 L 167.1 17.6 L 167.6 17.6 L 165.4 20.8 Z M 177.4 21 C 177.4 21 172.4 21 172.4 21 C 172.4 22.6 173.5 23.6 174.9 23.6 C 175.7 23.6 176.5 23.4 177.2 22.7 C 177.2 22.7 177.2 23.3 177.2 23.3 C 176.5 23.8 175.7 24.1 174.9 24.1 C 173.1 24.1 171.9 22.8 171.9 20.8 C 171.9 18.8 173.3 17.5 174.8 17.5 C 176.2 17.5 177.4 18.6 177.4 20.7 C 177.4 20.8 177.4 20.9 177.4 21 Z M 176.9 20.5 C 176.9 18.8 175.9 18 174.8 18 C 173.6 18 172.5 19 172.4 20.5 C 172.4 20.5 176.9 20.5 176.9 20.5 Z M 184 19.8 C 184.02 19.76 184 24 184 24 L 183.5 24 C 183.5 24 183.52 19.97 183.5 20 C 183.5 18.7 182.9 18 181.7 18 C 180.6 18 179.7 18.7 179.7 19.9 C 179.74 19.91 179.7 24 179.7 24 L 179.2 24 L 179.2 17.6 L 179.6 17.6 L 179.7 18.8 C 179.7 18.8 179.7 18.76 179.7 18.8 C 180.1 18 180.8 17.5 181.8 17.5 C 183.1 17.5 184 18.4 184 19.8 Z M 185.3 17.6 L 185.9 17.6 L 188 23.4 L 188 23.4 L 190.1 17.6 L 190.6 17.6 L 188.2 24 L 187.7 24 L 185.3 17.6 Z M 192 15.3 C 192 15.1 192.2 14.9 192.4 14.9 C 192.7 14.9 192.8 15.1 192.8 15.3 C 192.8 15.5 192.7 15.7 192.4 15.7 C 192.2 15.7 192 15.5 192 15.3 Z M 192.2 17.6 L 192.7 17.6 L 192.7 24 L 192.2 24 L 192.2 17.6 Z M 195 17.6 L 195.4 17.6 L 195.4 18.8 C 195.4 18.8 195.46 18.82 195.5 18.8 C 195.8 17.9 196.7 17.6 197.3 17.6 C 197.5 17.6 197.6 17.6 197.7 17.6 C 197.7 17.6 197.7 18.1 197.7 18.1 C 197.6 18.1 197.5 18.1 197.3 18.1 C 196.4 18.1 195.5 18.7 195.5 20 C 195.49 19.97 195.5 24 195.5 24 L 195 24 L 195 17.6 Z M 198.3 20.8 C 198.3 18.9 199.7 17.5 201.3 17.5 C 203 17.5 204.4 18.9 204.4 20.8 C 204.4 22.8 203 24.1 201.3 24.1 C 199.7 24.1 198.3 22.8 198.3 20.8 Z M 203.9 20.8 C 203.9 19 202.6 18 201.3 18 C 200 18 198.8 19 198.8 20.8 C 198.8 22.6 200 23.6 201.3 23.6 C 202.6 23.6 203.9 22.6 203.9 20.8 Z M 211 19.8 C 210.99 19.76 211 24 211 24 L 210.5 24 C 210.5 24 210.48 19.97 210.5 20 C 210.5 18.7 209.8 18 208.7 18 C 207.6 18 206.7 18.7 206.7 19.9 C 206.7 19.91 206.7 24 206.7 24 L 206.2 24 L 206.2 17.6 L 206.6 17.6 L 206.7 18.8 C 206.7 18.8 206.67 18.76 206.7 18.8 C 207 18 207.8 17.5 208.7 17.5 C 210.1 17.5 211 18.4 211 19.8 Z M 218 19.8 C 217.97 19.76 218 24 218 24 L 217.5 24 C 217.5 24 217.47 19.97 217.5 20 C 217.5 18.7 216.8 18 215.7 18 C 214.6 18 213.7 18.7 213.7 19.9 C 213.69 19.91 213.7 24 213.7 24 L 213.2 24 L 213.2 17.6 L 213.6 17.6 L 213.6 18.8 C 213.6 18.8 213.65 18.76 213.6 18.8 C 214 18 214.8 17.5 215.7 17.5 C 217.1 17.5 218 18.4 218 19.8 Z M 225.3 21 C 225.3 21 220.2 21 220.2 21 C 220.3 22.6 221.3 23.6 222.8 23.6 C 223.6 23.6 224.4 23.4 225.1 22.7 C 225.1 22.7 225.1 23.3 225.1 23.3 C 224.4 23.8 223.6 24.1 222.8 24.1 C 221 24.1 219.7 22.8 219.7 20.8 C 219.7 18.8 221.1 17.5 222.7 17.5 C 224.1 17.5 225.3 18.6 225.3 20.7 C 225.3 20.8 225.3 20.9 225.3 21 Z M 224.8 20.5 C 224.8 18.8 223.8 18 222.7 18 C 221.5 18 220.3 19 220.2 20.5 C 220.2 20.5 224.8 20.5 224.8 20.5 Z M 234.8 19.7 C 234.83 19.68 234.8 24 234.8 24 L 234.3 24 C 234.3 24 234.33 19.73 234.3 19.7 C 234.3 18.7 233.8 18 232.8 18 C 231.8 18 231.2 18.8 231.2 19.7 C 231.22 19.74 231.2 24 231.2 24 L 230.7 24 C 230.7 24 230.71 19.73 230.7 19.7 C 230.7 18.7 230.2 18 229.2 18 C 228.2 18 227.6 18.8 227.6 19.8 C 227.61 19.76 227.6 24 227.6 24 L 227.1 24 L 227.1 17.6 L 227.5 17.6 L 227.6 18.7 C 227.6 18.7 227.57 18.68 227.6 18.7 C 227.8 18 228.5 17.5 229.3 17.5 C 230.2 17.5 230.8 18 231.1 18.8 C 231.3 18 232 17.5 232.9 17.5 C 234.2 17.5 234.8 18.4 234.8 19.7 Z M 242.1 21 C 242.1 21 237.1 21 237.1 21 C 237.2 22.6 238.2 23.6 239.7 23.6 C 240.4 23.6 241.2 23.4 241.9 22.7 C 241.9 22.7 241.9 23.3 241.9 23.3 C 241.3 23.8 240.5 24.1 239.6 24.1 C 237.8 24.1 236.6 22.8 236.6 20.8 C 236.6 18.8 238 17.5 239.5 17.5 C 241 17.5 242.2 18.6 242.2 20.7 C 242.2 20.8 242.2 20.9 242.1 21 Z M 241.7 20.5 C 241.6 18.8 240.6 18 239.5 18 C 238.3 18 237.2 19 237.1 20.5 C 237.1 20.5 241.7 20.5 241.7 20.5 Z M 248.8 19.8 C 248.76 19.76 248.8 24 248.8 24 L 248.3 24 C 248.3 24 248.26 19.97 248.3 20 C 248.3 18.7 247.6 18 246.4 18 C 245.4 18 244.5 18.7 244.5 19.9 C 244.48 19.91 244.5 24 244.5 24 L 244 24 L 244 17.6 L 244.4 17.6 L 244.4 18.8 C 244.4 18.8 244.44 18.76 244.4 18.8 C 244.8 18 245.6 17.5 246.5 17.5 C 247.9 17.5 248.8 18.4 248.8 19.8 Z M 251.6 17.6 L 253.5 17.6 L 253.5 18.1 L 251.6 18.1 C 251.6 18.1 251.58 22 251.6 22 C 251.6 23.2 252.2 23.6 253.1 23.6 C 253.3 23.6 253.5 23.6 253.7 23.6 C 253.7 23.6 253.7 24 253.7 24 C 253.6 24 253.3 24.1 253.1 24.1 C 251.9 24.1 251.1 23.4 251.1 22 C 251.08 22.02 251.1 18.1 251.1 18.1 L 250.1 18.1 L 250.1 17.6 L 251.1 17.6 L 251.1 16.1 L 251.6 16.1 L 251.6 17.6 Z M 254.5 20.8 C 254.5 18.8 255.9 17.5 257.4 17.5 C 258.4 17.5 259.4 18.1 259.9 19.2 C 259.89 19.22 260 17.6 260 17.6 L 260.4 17.6 L 260.4 24 L 260 24 C 260 24 259.89 22.4 259.9 22.4 C 259.4 23.6 258.4 24.1 257.4 24.1 C 255.9 24.1 254.5 22.8 254.5 20.8 Z M 259.9 20.8 C 259.9 19.1 258.8 18 257.4 18 C 256.1 18 255 19.1 255 20.8 C 255 22.5 256.1 23.6 257.4 23.6 C 258.7 23.6 259.9 22.5 259.9 20.8 Z M 262.6 21.7 C 262.55 21.68 262.6 17.6 262.6 17.6 L 263.1 17.6 C 263.1 17.6 263.05 21.71 263.1 21.7 C 263.1 22.9 263.8 23.6 264.9 23.6 C 266.1 23.6 266.8 22.9 266.8 21.7 C 266.85 21.7 266.8 17.6 266.8 17.6 L 267.3 17.6 C 267.3 17.6 267.35 21.67 267.3 21.7 C 267.3 23.1 266.4 24.1 264.9 24.1 C 263.5 24.1 262.6 23.1 262.6 21.7 Z M 271.6 20.8 L 273.9 24 L 273.3 24 L 271.3 21.2 L 271.3 21.2 L 269.4 24 L 268.8 24 L 271 20.8 L 268.8 17.6 L 269.4 17.6 L 271.3 20.4 L 271.3 20.4 L 273.3 17.6 L 273.8 17.6 L 271.6 20.8 Z M 275.2 23.6 C 275.2 23.3 275.4 23.1 275.7 23.1 C 275.9 23.1 276.1 23.3 276.1 23.6 C 276.1 23.8 275.9 24 275.7 24 C 275.4 24 275.2 23.8 275.2 23.6 Z M 281.5 15.1 C 281.5 15.1 283.41 15.08 283.4 15.1 C 285.3 15.1 286.6 16.1 286.6 17.8 C 286.6 19.6 285.3 20.6 283.4 20.6 C 283.41 20.6 282 20.6 282 20.6 L 282 24 L 281.5 24 L 281.5 15.1 Z M 286.1 17.8 C 286.1 16.4 285.1 15.6 283.4 15.6 C 283.44 15.58 282 15.6 282 15.6 L 282 20.1 C 282 20.1 283.44 20.11 283.4 20.1 C 285.1 20.1 286.1 19.3 286.1 17.8 Z M 293.3 21 C 293.3 21 288.2 21 288.2 21 C 288.3 22.6 289.3 23.6 290.8 23.6 C 291.5 23.6 292.3 23.4 293 22.7 C 293 22.7 293 23.3 293 23.3 C 292.4 23.8 291.6 24.1 290.7 24.1 C 288.9 24.1 287.7 22.8 287.7 20.8 C 287.7 18.8 289.1 17.5 290.6 17.5 C 292.1 17.5 293.3 18.6 293.3 20.7 C 293.3 20.8 293.3 20.9 293.3 21 Z M 292.8 20.5 C 292.8 18.8 291.7 18 290.6 18 C 289.4 18 288.3 19 288.2 20.5 C 288.2 20.5 292.8 20.5 292.8 20.5 Z M 299.9 19.8 C 299.86 19.76 299.9 24 299.9 24 L 299.4 24 C 299.4 24 299.36 19.97 299.4 20 C 299.4 18.7 298.7 18 297.5 18 C 296.5 18 295.6 18.7 295.6 19.9 C 295.58 19.91 295.6 24 295.6 24 L 295.1 24 L 295.1 17.6 L 295.5 17.6 L 295.5 18.8 C 295.5 18.8 295.55 18.76 295.5 18.8 C 295.9 18 296.7 17.5 297.6 17.5 C 299 17.5 299.9 18.4 299.9 19.8 Z M 305.6 18.1 C 305.6 18.1 305.6 18.6 305.6 18.6 C 305.1 18.3 304.5 18 303.8 18 C 302.8 18 302.2 18.5 302.2 19.2 C 302.2 19.9 302.9 20.2 303.9 20.5 C 304.9 20.9 305.9 21.2 305.9 22.3 C 305.9 23.4 305.1 24.1 303.8 24.1 C 303 24.1 302.2 23.9 301.6 23.4 C 301.6 23.4 301.6 22.7 301.6 22.7 C 302.2 23.3 302.9 23.6 303.8 23.6 C 304.8 23.6 305.4 23.1 305.4 22.3 C 305.4 21.6 304.7 21.3 303.7 20.9 C 302.6 20.6 301.7 20.3 301.7 19.2 C 301.7 18.2 302.6 17.5 303.8 17.5 C 304.5 17.5 305.1 17.7 305.6 18.1 Z M 310 16.5 L 309.5 16.5 L 310.9 14.6 L 311.5 14.6 L 310 16.5 Z M 312.8 21 C 312.8 21 307.7 21 307.7 21 C 307.8 22.6 308.9 23.6 310.3 23.6 C 311.1 23.6 311.9 23.4 312.6 22.7 C 312.6 22.7 312.6 23.3 312.6 23.3 C 311.9 23.8 311.1 24.1 310.3 24.1 C 308.5 24.1 307.2 22.8 307.2 20.8 C 307.2 18.8 308.6 17.5 310.2 17.5 C 311.6 17.5 312.8 18.6 312.8 20.7 C 312.8 20.8 312.8 20.9 312.8 21 Z M 312.3 20.5 C 312.3 18.8 311.3 18 310.2 18 C 309 18 307.9 19 307.7 20.5 C 307.7 20.5 312.3 20.5 312.3 20.5 Z M 317.7 17.6 L 318.1 17.6 C 318.1 17.6 318.19 19.24 318.2 19.2 C 318.7 18.1 319.7 17.5 320.7 17.5 C 322.2 17.5 323.6 18.8 323.6 20.8 C 323.6 22.8 322.2 24.1 320.7 24.1 C 319.7 24.1 318.7 23.5 318.2 22.5 C 318.22 22.45 318.2 26.6 318.2 26.6 L 317.7 26.6 L 317.7 17.6 Z M 323.1 20.8 C 323.1 19.1 322 18 320.7 18 C 319.3 18 318.2 19.1 318.2 20.8 C 318.2 22.5 319.3 23.6 320.6 23.6 C 322 23.6 323.1 22.5 323.1 20.8 Z M 325 20.8 C 325 18.9 326.3 17.5 328 17.5 C 329.7 17.5 331.1 18.9 331.1 20.8 C 331.1 22.8 329.7 24.1 328 24.1 C 326.4 24.1 325 22.8 325 20.8 Z M 330.6 20.8 C 330.6 19 329.3 18 328 18 C 326.7 18 325.5 19 325.5 20.8 C 325.5 22.6 326.7 23.6 328 23.6 C 329.3 23.6 330.6 22.6 330.6 20.8 Z M 332.8 21.7 C 332.8 21.68 332.8 17.6 332.8 17.6 L 333.3 17.6 C 333.3 17.6 333.3 21.71 333.3 21.7 C 333.3 22.9 334 23.6 335.2 23.6 C 336.4 23.6 337.1 22.9 337.1 21.7 C 337.1 21.7 337.1 17.6 337.1 17.6 L 337.6 17.6 C 337.6 17.6 337.6 21.67 337.6 21.7 C 337.6 23.1 336.7 24.1 335.2 24.1 C 333.7 24.1 332.8 23.1 332.8 21.7 Z M 339.8 17.6 L 340.2 17.6 L 340.3 18.8 C 340.3 18.8 340.26 18.82 340.3 18.8 C 340.6 17.9 341.5 17.6 342.1 17.6 C 342.3 17.6 342.4 17.6 342.5 17.6 C 342.5 17.6 342.5 18.1 342.5 18.1 C 342.4 18.1 342.3 18.1 342.1 18.1 C 341.2 18.1 340.3 18.7 340.3 20 C 340.3 19.97 340.3 24 340.3 24 L 339.8 24 L 339.8 17.6 Z " stroke="none" fill="#000"/>
  </g>
  <g id="Polygon28362">
    <path d="M 8 9.6 L 7.5 9.6 L 1.9 1.5 L 1.9 1.5 L 1.9 9.6 L 1.4 9.6 L 1.4 0.7 L 2 0.7 L 7.5 8.7 L 7.5 8.7 L 7.5 0.7 L 8 0.7 L 8 9.6 Z M 10 6.4 C 10 4.5 11.4 3.1 13 3.1 C 14.7 3.1 16.1 4.5 16.1 6.4 C 16.1 8.4 14.7 9.7 13 9.7 C 11.4 9.7 10 8.4 10 6.4 Z M 15.6 6.4 C 15.6 4.6 14.3 3.6 13 3.6 C 11.7 3.6 10.5 4.6 10.5 6.4 C 10.5 8.2 11.7 9.2 13 9.2 C 14.3 9.2 15.6 8.2 15.6 6.4 Z M 17.8 7.3 C 17.82 7.28 17.8 3.2 17.8 3.2 L 18.3 3.2 C 18.3 3.2 18.32 7.31 18.3 7.3 C 18.3 8.5 19.1 9.2 20.2 9.2 C 21.4 9.2 22.1 8.5 22.1 7.3 C 22.12 7.3 22.1 3.2 22.1 3.2 L 22.6 3.2 C 22.6 3.2 22.62 7.27 22.6 7.3 C 22.6 8.7 21.7 9.7 20.2 9.7 C 18.7 9.7 17.8 8.7 17.8 7.3 Z M 28.4 3.7 C 28.4 3.7 28.4 4.2 28.4 4.2 C 27.9 3.9 27.3 3.6 26.5 3.6 C 25.6 3.6 25 4.1 25 4.8 C 25 5.5 25.6 5.8 26.7 6.1 C 27.7 6.5 28.7 6.8 28.7 7.9 C 28.7 9 27.8 9.7 26.5 9.7 C 25.8 9.7 25 9.5 24.4 9 C 24.4 9 24.4 8.3 24.4 8.3 C 24.9 8.9 25.7 9.2 26.5 9.2 C 27.5 9.2 28.2 8.7 28.2 7.9 C 28.2 7.2 27.5 6.9 26.4 6.5 C 25.4 6.2 24.5 5.9 24.5 4.8 C 24.5 3.8 25.3 3.1 26.6 3.1 C 27.2 3.1 27.9 3.3 28.4 3.7 Z M 33.8 3.2 L 34.3 3.2 L 36.4 9 L 36.5 9 L 38.6 3.2 L 39.1 3.2 L 36.7 9.6 L 36.2 9.6 L 33.8 3.2 Z M 40.5 0.9 C 40.5 0.7 40.7 0.5 40.9 0.5 C 41.1 0.5 41.3 0.7 41.3 0.9 C 41.3 1.1 41.1 1.3 40.9 1.3 C 40.7 1.3 40.5 1.1 40.5 0.9 Z M 40.6 3.2 L 41.1 3.2 L 41.1 9.6 L 40.6 9.6 L 40.6 3.2 Z M 47 3.7 C 47 3.7 47 4.2 47 4.2 C 46.5 3.9 45.9 3.6 45.2 3.6 C 44.2 3.6 43.6 4.1 43.6 4.8 C 43.6 5.5 44.3 5.8 45.3 6.1 C 46.3 6.5 47.3 6.8 47.3 7.9 C 47.3 9 46.5 9.7 45.2 9.7 C 44.4 9.7 43.6 9.5 43 9 C 43 9 43 8.3 43 8.3 C 43.6 8.9 44.3 9.2 45.2 9.2 C 46.2 9.2 46.8 8.7 46.8 7.9 C 46.8 7.2 46.1 6.9 45.1 6.5 C 44 6.2 43.1 5.9 43.1 4.8 C 43.1 3.8 44 3.1 45.2 3.1 C 45.9 3.1 46.5 3.3 47 3.7 Z M 48.6 6.4 C 48.6 4.5 50 3.1 51.7 3.1 C 53.3 3.1 54.7 4.5 54.7 6.4 C 54.7 8.4 53.3 9.7 51.7 9.7 C 50 9.7 48.6 8.4 48.6 6.4 Z M 54.2 6.4 C 54.2 4.6 53 3.6 51.7 3.6 C 50.4 3.6 49.1 4.6 49.1 6.4 C 49.1 8.2 50.4 9.2 51.7 9.2 C 53 9.2 54.2 8.2 54.2 6.4 Z M 61.3 5.4 C 61.31 5.36 61.3 9.6 61.3 9.6 L 60.8 9.6 C 60.8 9.6 60.81 5.57 60.8 5.6 C 60.8 4.3 60.2 3.6 59 3.6 C 57.9 3.6 57 4.3 57 5.5 C 57.03 5.51 57 9.6 57 9.6 L 56.5 9.6 L 56.5 3.2 L 56.9 3.2 L 57 4.4 C 57 4.4 56.99 4.36 57 4.4 C 57.3 3.6 58.1 3.1 59.1 3.1 C 60.4 3.1 61.3 4 61.3 5.4 Z M 67.1 3.7 C 67.1 3.7 67.1 4.2 67.1 4.2 C 66.6 3.9 65.9 3.6 65.2 3.6 C 64.3 3.6 63.7 4.1 63.7 4.8 C 63.7 5.5 64.3 5.8 65.3 6.1 C 66.4 6.5 67.4 6.8 67.4 7.9 C 67.4 9 66.5 9.7 65.2 9.7 C 64.5 9.7 63.7 9.5 63.1 9 C 63.1 9 63.1 8.3 63.1 8.3 C 63.6 8.9 64.4 9.2 65.2 9.2 C 66.2 9.2 66.9 8.7 66.9 7.9 C 66.9 7.2 66.2 6.9 65.1 6.5 C 64.1 6.2 63.2 5.9 63.2 4.8 C 63.2 3.8 64 3.1 65.3 3.1 C 65.9 3.1 66.6 3.3 67.1 3.7 Z M 73.1 6.4 C 73.1 4.4 74.5 3.1 76 3.1 C 77 3.1 78 3.7 78.5 4.8 C 78.47 4.82 78.5 3.2 78.5 3.2 L 78.9 3.2 L 78.9 9.6 L 78.5 9.6 C 78.5 9.6 78.47 8 78.5 8 C 78 9.2 77 9.7 76 9.7 C 74.5 9.7 73.1 8.4 73.1 6.4 Z M 78.5 6.4 C 78.5 4.7 77.3 3.6 76 3.6 C 74.7 3.6 73.6 4.7 73.6 6.4 C 73.6 8.1 74.7 9.2 76 9.2 C 77.3 9.2 78.5 8.1 78.5 6.4 Z M 80.5 3.2 L 81 3.2 L 83.1 9 L 83.1 9 L 85.2 3.2 L 85.7 3.2 L 83.4 9.6 L 82.8 9.6 L 80.5 3.2 Z M 92.2 6.6 C 92.2 6.6 87.1 6.6 87.1 6.6 C 87.2 8.2 88.3 9.2 89.7 9.2 C 90.5 9.2 91.3 9 92 8.3 C 92 8.3 92 8.9 92 8.9 C 91.3 9.4 90.5 9.7 89.7 9.7 C 87.9 9.7 86.6 8.4 86.6 6.4 C 86.6 4.4 88.1 3.1 89.6 3.1 C 91 3.1 92.2 4.2 92.2 6.3 C 92.2 6.4 92.2 6.5 92.2 6.6 Z M 91.7 6.1 C 91.7 4.4 90.7 3.6 89.6 3.6 C 88.4 3.6 87.3 4.6 87.2 6.1 C 87.2 6.1 91.7 6.1 91.7 6.1 Z M 96.6 9.2 C 97.2 9.2 97.8 9.1 98.4 8.7 C 98.4 8.7 98.4 9.3 98.4 9.3 C 97.9 9.6 97.3 9.7 96.6 9.7 C 94.9 9.7 93.6 8.3 93.6 6.4 C 93.6 4.5 94.9 3.1 96.6 3.1 C 97.2 3.1 97.8 3.2 98.4 3.6 C 98.4 3.6 98.4 4.1 98.4 4.1 C 97.8 3.7 97.2 3.6 96.6 3.6 C 95.3 3.6 94.1 4.7 94.1 6.4 C 94.1 8.1 95.3 9.2 96.6 9.2 Z M 107.2 9.2 C 107.7 9.2 108.3 9.1 108.9 8.7 C 108.9 8.7 108.9 9.3 108.9 9.3 C 108.4 9.6 107.8 9.7 107.2 9.7 C 105.4 9.7 104.1 8.3 104.1 6.4 C 104.1 4.5 105.4 3.1 107.1 3.1 C 107.7 3.1 108.3 3.2 108.9 3.6 C 108.9 3.6 108.9 4.1 108.9 4.1 C 108.3 3.7 107.7 3.6 107.1 3.6 C 105.8 3.6 104.6 4.7 104.6 6.4 C 104.6 8.1 105.8 9.2 107.2 9.2 Z M 115.6 6.6 C 115.6 6.6 110.6 6.6 110.6 6.6 C 110.6 8.2 111.7 9.2 113.1 9.2 C 113.9 9.2 114.7 9 115.4 8.3 C 115.4 8.3 115.4 8.9 115.4 8.9 C 114.7 9.4 113.9 9.7 113.1 9.7 C 111.3 9.7 110 8.4 110 6.4 C 110 4.4 111.5 3.1 113 3.1 C 114.4 3.1 115.6 4.2 115.6 6.3 C 115.6 6.4 115.6 6.5 115.6 6.6 Z M 115.1 6.1 C 115.1 4.4 114.1 3.6 113 3.6 C 111.8 3.6 110.7 4.6 110.6 6.1 C 110.6 6.1 115.1 6.1 115.1 6.1 Z M 121.8 3.2 L 122.2 3.2 C 122.2 3.2 122.28 4.84 122.3 4.8 C 122.8 3.7 123.8 3.1 124.8 3.1 C 126.3 3.1 127.7 4.4 127.7 6.4 C 127.7 8.4 126.3 9.7 124.8 9.7 C 123.8 9.7 122.8 9.1 122.3 8.1 C 122.32 8.05 122.3 12.2 122.3 12.2 L 121.8 12.2 L 121.8 3.2 Z M 127.2 6.4 C 127.2 4.7 126.1 3.6 124.8 3.6 C 123.4 3.6 122.3 4.7 122.3 6.4 C 122.3 8.1 123.4 9.2 124.7 9.2 C 126.1 9.2 127.2 8.1 127.2 6.4 Z M 129.5 3.2 L 129.9 3.2 L 130 4.4 C 130 4.4 130 4.42 130 4.4 C 130.4 3.5 131.2 3.2 131.9 3.2 C 132 3.2 132.2 3.2 132.3 3.2 C 132.3 3.2 132.3 3.7 132.3 3.7 C 132.2 3.7 132 3.7 131.9 3.7 C 131 3.7 130 4.3 130 5.6 C 130.03 5.57 130 9.6 130 9.6 L 129.5 9.6 L 129.5 3.2 Z M 132.8 6.4 C 132.8 4.5 134.2 3.1 135.9 3.1 C 137.5 3.1 138.9 4.5 138.9 6.4 C 138.9 8.4 137.5 9.7 135.9 9.7 C 134.2 9.7 132.8 8.4 132.8 6.4 Z M 138.4 6.4 C 138.4 4.6 137.2 3.6 135.9 3.6 C 134.6 3.6 133.3 4.6 133.3 6.4 C 133.3 8.2 134.6 9.2 135.9 9.2 C 137.2 9.2 138.4 8.2 138.4 6.4 Z M 140.6 0.9 C 140.6 0.7 140.8 0.5 141 0.5 C 141.3 0.5 141.4 0.7 141.4 0.9 C 141.4 1.1 141.3 1.3 141 1.3 C 140.8 1.3 140.6 1.1 140.6 0.9 Z M 140.8 8.9 C 140.79 8.92 140.8 3.2 140.8 3.2 L 141.3 3.2 C 141.3 3.2 141.29 8.93 141.3 8.9 C 141.3 10.4 141 11.3 140.3 12.2 C 140.3 12.2 139.7 12.2 139.7 12.2 C 140.4 11.4 140.8 10.4 140.8 8.9 Z M 148.7 6.6 C 148.7 6.6 143.7 6.6 143.7 6.6 C 143.8 8.2 144.8 9.2 146.2 9.2 C 147 9.2 147.8 9 148.5 8.3 C 148.5 8.3 148.5 8.9 148.5 8.9 C 147.8 9.4 147 9.7 146.2 9.7 C 144.4 9.7 143.2 8.4 143.2 6.4 C 143.2 4.4 144.6 3.1 146.1 3.1 C 147.5 3.1 148.7 4.2 148.7 6.3 C 148.7 6.4 148.7 6.5 148.7 6.6 Z M 148.2 6.1 C 148.2 4.4 147.2 3.6 146.1 3.6 C 144.9 3.6 143.8 4.6 143.7 6.1 C 143.7 6.1 148.2 6.1 148.2 6.1 Z M 151.2 3.2 L 153.1 3.2 L 153.1 3.7 L 151.2 3.7 C 151.2 3.7 151.17 7.6 151.2 7.6 C 151.2 8.8 151.8 9.2 152.7 9.2 C 152.9 9.2 153.1 9.2 153.2 9.2 C 153.2 9.2 153.2 9.6 153.2 9.6 C 153.2 9.6 152.9 9.7 152.6 9.7 C 151.5 9.7 150.7 9 150.7 7.6 C 150.66 7.62 150.7 3.7 150.7 3.7 L 149.7 3.7 L 149.7 3.2 L 150.7 3.2 L 150.7 1.7 L 151.2 1.7 L 151.2 3.2 Z M 158.8 7.3 C 158.83 7.28 158.8 3.2 158.8 3.2 L 159.3 3.2 C 159.3 3.2 159.33 7.31 159.3 7.3 C 159.3 8.5 160.1 9.2 161.2 9.2 C 162.4 9.2 163.1 8.5 163.1 7.3 C 163.13 7.3 163.1 3.2 163.1 3.2 L 163.6 3.2 C 163.6 3.2 163.63 7.27 163.6 7.3 C 163.6 8.7 162.7 9.7 161.2 9.7 C 159.7 9.7 158.8 8.7 158.8 7.3 Z M 170.6 5.4 C 170.61 5.36 170.6 9.6 170.6 9.6 L 170.1 9.6 C 170.1 9.6 170.11 5.57 170.1 5.6 C 170.1 4.3 169.5 3.6 168.3 3.6 C 167.2 3.6 166.3 4.3 166.3 5.5 C 166.33 5.51 166.3 9.6 166.3 9.6 L 165.8 9.6 L 165.8 3.2 L 166.2 3.2 L 166.3 4.4 C 166.3 4.4 166.29 4.36 166.3 4.4 C 166.6 3.6 167.4 3.1 168.4 3.1 C 169.7 3.1 170.6 4 170.6 5.4 Z M 177.9 6.6 C 177.9 6.6 172.9 6.6 172.9 6.6 C 173 8.2 174 9.2 175.4 9.2 C 176.2 9.2 177 9 177.7 8.3 C 177.7 8.3 177.7 8.9 177.7 8.9 C 177 9.4 176.2 9.7 175.4 9.7 C 173.6 9.7 172.4 8.4 172.4 6.4 C 172.4 4.4 173.8 3.1 175.3 3.1 C 176.7 3.1 177.9 4.2 177.9 6.3 C 177.9 6.4 177.9 6.5 177.9 6.6 Z M 177.4 6.1 C 177.4 4.4 176.4 3.6 175.3 3.6 C 174.1 3.6 173 4.6 172.9 6.1 C 172.9 6.1 177.4 6.1 177.4 6.1 Z M 188.9 5.4 C 188.92 5.36 188.9 9.6 188.9 9.6 L 188.4 9.6 C 188.4 9.6 188.42 5.57 188.4 5.6 C 188.4 4.3 187.8 3.6 186.6 3.6 C 185.5 3.6 184.6 4.3 184.6 5.5 C 184.64 5.51 184.6 9.6 184.6 9.6 L 184.1 9.6 L 184.1 3.2 L 184.5 3.2 L 184.6 4.4 C 184.6 4.4 184.6 4.36 184.6 4.4 C 184.9 3.6 185.7 3.1 186.7 3.1 C 188 3.1 188.9 4 188.9 5.4 Z M 190.7 6.4 C 190.7 4.5 192 3.1 193.7 3.1 C 195.4 3.1 196.7 4.5 196.7 6.4 C 196.7 8.4 195.4 9.7 193.7 9.7 C 192 9.7 190.7 8.4 190.7 6.4 Z M 196.2 6.4 C 196.2 4.6 195 3.6 193.7 3.6 C 192.4 3.6 191.2 4.6 191.2 6.4 C 191.2 8.2 192.4 9.2 193.7 9.2 C 195 9.2 196.2 8.2 196.2 6.4 Z M 198.5 7.3 C 198.49 7.28 198.5 3.2 198.5 3.2 L 199 3.2 C 199 3.2 198.99 7.31 199 7.3 C 199 8.5 199.7 9.2 200.9 9.2 C 202 9.2 202.8 8.5 202.8 7.3 C 202.78 7.3 202.8 3.2 202.8 3.2 L 203.3 3.2 C 203.3 3.2 203.28 7.27 203.3 7.3 C 203.3 8.7 202.3 9.7 200.9 9.7 C 199.4 9.7 198.5 8.7 198.5 7.3 Z M 204.7 3.2 L 205.3 3.2 L 207.4 9 L 207.4 9 L 209.5 3.2 L 210 3.2 L 207.7 9.6 L 207.1 9.6 L 204.7 3.2 Z M 216.5 6.6 C 216.5 6.6 211.4 6.6 211.4 6.6 C 211.5 8.2 212.5 9.2 214 9.2 C 214.7 9.2 215.5 9 216.2 8.3 C 216.2 8.3 216.2 8.9 216.2 8.9 C 215.6 9.4 214.8 9.7 213.9 9.7 C 212.2 9.7 210.9 8.4 210.9 6.4 C 210.9 4.4 212.3 3.1 213.9 3.1 C 215.3 3.1 216.5 4.2 216.5 6.3 C 216.5 6.4 216.5 6.5 216.5 6.6 Z M 216 6.1 C 216 4.4 214.9 3.6 213.9 3.6 C 212.6 3.6 211.5 4.6 211.4 6.1 C 211.4 6.1 216 6.1 216 6.1 Z M 218.3 0.1 L 218.8 0.1 L 218.8 9.6 L 218.3 9.6 L 218.3 0.1 Z M 221.2 0.1 L 221.7 0.1 L 221.7 9.6 L 221.2 9.6 L 221.2 0.1 Z M 229.1 6.6 C 229.1 6.6 224.1 6.6 224.1 6.6 C 224.1 8.2 225.2 9.2 226.6 9.2 C 227.4 9.2 228.2 9 228.9 8.3 C 228.9 8.3 228.9 8.9 228.9 8.9 C 228.2 9.4 227.4 9.7 226.6 9.7 C 224.8 9.7 223.6 8.4 223.6 6.4 C 223.6 4.4 225 3.1 226.5 3.1 C 227.9 3.1 229.1 4.2 229.1 6.3 C 229.1 6.4 229.1 6.5 229.1 6.6 Z M 228.6 6.1 C 228.6 4.4 227.6 3.6 226.5 3.6 C 225.3 3.6 224.2 4.6 224.1 6.1 C 224.1 6.1 228.6 6.1 228.6 6.1 Z M 240.2 4.8 C 240.24 4.76 240.3 3.2 240.3 3.2 L 240.7 3.2 C 240.7 3.2 240.71 9.4 240.7 9.4 C 240.7 11.4 239.3 12.3 237.9 12.3 C 237.1 12.3 236.2 12 235.5 11.5 C 235.5 11.5 235.5 10.9 235.5 10.9 C 236.2 11.5 237 11.8 237.9 11.8 C 239.1 11.8 240.2 11.1 240.2 9.5 C 240.2 9.5 240.2 7.9 240.2 7.9 C 239.7 9 238.8 9.5 237.8 9.5 C 236.3 9.5 234.9 8.3 234.9 6.3 C 234.9 4.4 236.3 3.1 237.8 3.1 C 238.8 3.1 239.8 3.7 240.2 4.8 Z M 235.4 6.3 C 235.4 8 236.5 9 237.8 9 C 239.1 9 240.2 7.9 240.2 6.3 C 240.2 4.7 239.1 3.6 237.8 3.6 C 236.5 3.6 235.4 4.7 235.4 6.3 Z M 245.3 2.1 L 244.8 2.1 L 246.2 0.2 L 246.8 0.2 L 245.3 2.1 Z M 248.1 6.6 C 248.1 6.6 243 6.6 243 6.6 C 243.1 8.2 244.2 9.2 245.6 9.2 C 246.4 9.2 247.2 9 247.9 8.3 C 247.9 8.3 247.9 8.9 247.9 8.9 C 247.2 9.4 246.4 9.7 245.6 9.7 C 243.8 9.7 242.5 8.4 242.5 6.4 C 242.5 4.4 244 3.1 245.5 3.1 C 246.9 3.1 248.1 4.2 248.1 6.3 C 248.1 6.4 248.1 6.5 248.1 6.6 Z M 247.6 6.1 C 247.6 4.4 246.6 3.6 245.5 3.6 C 244.3 3.6 243.2 4.6 243.1 6.1 C 243.1 6.1 247.6 6.1 247.6 6.1 Z M 254.7 5.4 C 254.71 5.36 254.7 9.6 254.7 9.6 L 254.2 9.6 C 254.2 9.6 254.21 5.57 254.2 5.6 C 254.2 4.3 253.5 3.6 252.4 3.6 C 251.3 3.6 250.4 4.3 250.4 5.5 C 250.43 5.51 250.4 9.6 250.4 9.6 L 249.9 9.6 L 249.9 3.2 L 250.3 3.2 L 250.4 4.4 C 250.4 4.4 250.39 4.36 250.4 4.4 C 250.7 3.6 251.5 3.1 252.5 3.1 C 253.8 3.1 254.7 4 254.7 5.4 Z M 259.2 2.1 L 258.7 2.1 L 260.1 0.2 L 260.7 0.2 L 259.2 2.1 Z M 262 6.6 C 262 6.6 257 6.6 257 6.6 C 257.1 8.2 258.1 9.2 259.5 9.2 C 260.3 9.2 261.1 9 261.8 8.3 C 261.8 8.3 261.8 8.9 261.8 8.9 C 261.1 9.4 260.3 9.7 259.5 9.7 C 257.7 9.7 256.5 8.4 256.5 6.4 C 256.5 4.4 257.9 3.1 259.4 3.1 C 260.8 3.1 262 4.2 262 6.3 C 262 6.4 262 6.5 262 6.6 Z M 261.5 6.1 C 261.5 4.4 260.5 3.6 259.4 3.6 C 258.2 3.6 257.1 4.6 257 6.1 C 257 6.1 261.5 6.1 261.5 6.1 Z M 263.8 3.2 L 264.3 3.2 L 264.3 4.4 C 264.3 4.4 264.31 4.42 264.3 4.4 C 264.7 3.5 265.5 3.2 266.2 3.2 C 266.3 3.2 266.5 3.2 266.6 3.2 C 266.6 3.2 266.6 3.7 266.6 3.7 C 266.5 3.7 266.3 3.7 266.2 3.7 C 265.3 3.7 264.4 4.3 264.3 5.6 C 264.35 5.57 264.3 9.6 264.3 9.6 L 263.8 9.6 L 263.8 3.2 Z M 267.1 6.4 C 267.1 4.4 268.5 3.1 270 3.1 C 271.1 3.1 272.1 3.7 272.6 4.8 C 272.56 4.82 272.6 3.2 272.6 3.2 L 273 3.2 L 273 9.6 L 272.6 9.6 C 272.6 9.6 272.56 8 272.6 8 C 272.1 9.2 271.1 9.7 270.1 9.7 C 268.5 9.7 267.1 8.4 267.1 6.4 Z M 272.5 6.4 C 272.5 4.7 271.4 3.6 270.1 3.6 C 268.8 3.6 267.6 4.7 267.6 6.4 C 267.6 8.1 268.8 9.2 270.1 9.2 C 271.4 9.2 272.5 8.1 272.5 6.4 Z M 276 3.2 L 277.9 3.2 L 277.9 3.7 L 276 3.7 C 276 3.7 275.99 7.6 276 7.6 C 276 8.8 276.6 9.2 277.5 9.2 C 277.7 9.2 277.9 9.2 278.1 9.2 C 278.1 9.2 278.1 9.6 278.1 9.6 C 278 9.6 277.7 9.7 277.5 9.7 C 276.3 9.7 275.5 9 275.5 7.6 C 275.48 7.62 275.5 3.7 275.5 3.7 L 274.5 3.7 L 274.5 3.2 L 275.5 3.2 L 275.5 1.7 L 276 1.7 L 276 3.2 Z M 279.3 0.9 C 279.3 0.7 279.5 0.5 279.7 0.5 C 279.9 0.5 280.1 0.7 280.1 0.9 C 280.1 1.1 279.9 1.3 279.7 1.3 C 279.5 1.3 279.3 1.1 279.3 0.9 Z M 279.5 3.2 L 280 3.2 L 280 9.6 L 279.5 9.6 L 279.5 3.2 Z M 281.8 6.4 C 281.8 4.5 283.2 3.1 284.9 3.1 C 286.5 3.1 287.9 4.5 287.9 6.4 C 287.9 8.4 286.5 9.7 284.9 9.7 C 283.2 9.7 281.8 8.4 281.8 6.4 Z M 287.4 6.4 C 287.4 4.6 286.2 3.6 284.9 3.6 C 283.6 3.6 282.3 4.6 282.3 6.4 C 282.3 8.2 283.6 9.2 284.9 9.2 C 286.2 9.2 287.4 8.2 287.4 6.4 Z M 294.5 5.4 C 294.51 5.36 294.5 9.6 294.5 9.6 L 294 9.6 C 294 9.6 294.01 5.57 294 5.6 C 294 4.3 293.4 3.6 292.2 3.6 C 291.1 3.6 290.2 4.3 290.2 5.5 C 290.23 5.51 290.2 9.6 290.2 9.6 L 289.7 9.6 L 289.7 3.2 L 290.1 3.2 L 290.2 4.4 C 290.2 4.4 290.19 4.36 290.2 4.4 C 290.5 3.6 291.3 3.1 292.3 3.1 C 293.6 3.1 294.5 4 294.5 5.4 Z M 300.7 6.4 C 300.7 4.4 302 3.1 303.6 3.1 C 304.6 3.1 305.6 3.7 306 4.8 C 306.03 4.78 306 0.1 306 0.1 L 306.5 0.1 L 306.5 9.6 L 306.1 9.6 L 306.1 8 C 306.1 8 306.05 7.99 306.1 8 C 305.6 9.2 304.6 9.7 303.6 9.7 C 302.1 9.7 300.7 8.4 300.7 6.4 Z M 306.1 6.4 C 306.1 4.7 304.9 3.6 303.6 3.6 C 302.3 3.6 301.2 4.7 301.2 6.4 C 301.2 8.1 302.3 9.2 303.6 9.2 C 304.9 9.2 306.1 8.1 306.1 6.4 Z M 309 1.1 C 309.01 1.13 309 0.7 309 0.7 L 309.5 0.7 C 309.5 0.7 309.51 1.12 309.5 1.1 C 309.5 2.1 309.1 3.1 308.9 3.7 C 308.9 3.7 308.5 3.7 308.5 3.7 C 308.7 3.1 309 2.1 309 1.1 Z M 310.6 6.4 C 310.6 4.4 312 3.1 313.5 3.1 C 314.5 3.1 315.5 3.7 316 4.8 C 316 4.82 316.1 3.2 316.1 3.2 L 316.5 3.2 L 316.5 9.6 L 316.1 9.6 C 316.1 9.6 316 8 316 8 C 315.5 9.2 314.5 9.7 313.5 9.7 C 312 9.7 310.6 8.4 310.6 6.4 Z M 316 6.4 C 316 4.7 314.9 3.6 313.5 3.6 C 312.2 3.6 311.1 4.7 311.1 6.4 C 311.1 8.1 312.2 9.2 313.6 9.2 C 314.9 9.2 316 8.1 316 6.4 Z M 321.4 9.2 C 321.9 9.2 322.5 9.1 323.1 8.7 C 323.1 8.7 323.1 9.3 323.1 9.3 C 322.6 9.6 322 9.7 321.4 9.7 C 319.6 9.7 318.3 8.3 318.3 6.4 C 318.3 4.5 319.6 3.1 321.4 3.1 C 322 3.1 322.6 3.2 323.1 3.6 C 323.1 3.6 323.1 4.1 323.1 4.1 C 322.5 3.7 322 3.6 321.4 3.6 C 320 3.6 318.8 4.7 318.8 6.4 C 318.8 8.1 320 9.2 321.4 9.2 Z M 325.4 4.2 C 325.4 4.2 325.38 4.24 325.4 4.2 C 325.7 3.5 326.5 3.1 327.4 3.1 C 328.8 3.1 329.7 3.9 329.7 5.4 C 329.66 5.38 329.7 9.6 329.7 9.6 L 329.2 9.6 C 329.2 9.6 329.15 5.56 329.2 5.6 C 329.2 4.3 328.5 3.6 327.4 3.6 C 326.3 3.6 325.4 4.2 325.4 5.4 C 325.37 5.45 325.4 9.6 325.4 9.6 L 324.9 9.6 L 324.9 0.1 L 325.4 0.1 L 325.4 4.2 Z M 337 6.6 C 337 6.6 331.9 6.6 331.9 6.6 C 332 8.2 333 9.2 334.5 9.2 C 335.2 9.2 336.1 9 336.7 8.3 C 336.7 8.3 336.7 8.9 336.7 8.9 C 336.1 9.4 335.3 9.7 334.5 9.7 C 332.7 9.7 331.4 8.4 331.4 6.4 C 331.4 4.4 332.8 3.1 334.4 3.1 C 335.8 3.1 337 4.2 337 6.3 C 337 6.4 337 6.5 337 6.6 Z M 336.5 6.1 C 336.5 4.4 335.5 3.6 334.4 3.6 C 333.2 3.6 332 4.6 331.9 6.1 C 331.9 6.1 336.5 6.1 336.5 6.1 Z M 338.6 5.7 L 341.5 5.7 L 341.5 6.2 L 338.6 6.2 L 338.6 5.7 Z " stroke="none" fill="#000"/>
  </g>
</svg>