<?xml version="1.0" standalone="no"?>
<!DOCTYPE svg PUBLIC "-//W3C//DTD SVG 1.1//EN" "http://www.w3.org/Graphics/SVG/1.1/DTD/svg11.dtd">
<svg xmlns="http://www.w3.org/2000/svg" version="1.1" width="27px" height="14.5px" viewBox="0 0 27 14.5">
  <desc>2 22</desc>
  <defs/>
  <g id="Polygon23246">
    <path d="M 3.1 2.1 C 3.1 1.5 2.7 1 2 1 C 1.4 1 0.9 1.3 0.6 1.7 C 0.6 1.7 0.6 0.9 0.6 0.9 C 0.9 0.6 1.5 0.3 2.1 0.3 C 3.2 0.3 3.9 1.1 3.9 2.1 C 3.9 3 3.1 3.9 1.7 5.5 C 1.67 5.47 4.1 5.5 4.1 5.5 L 4.1 6.1 C 4.1 6.1 0.28 6.14 0.3 6.1 C 2.8 3.3 3.1 2.8 3.1 2.1 Z M 7.3 -0.6 L 8 -0.6 L 5.5 7.2 L 4.8 7.2 L 7.3 -0.6 Z M 11.4 2.1 C 11.4 1.5 11 1 10.3 1 C 9.7 1 9.2 1.3 8.9 1.7 C 8.9 1.7 8.9 0.9 8.9 0.9 C 9.2 0.6 9.8 0.3 10.4 0.3 C 11.5 0.3 12.2 1.1 12.2 2.1 C 12.2 3 11.4 3.9 10 5.5 C 9.97 5.47 12.4 5.5 12.4 5.5 L 12.4 6.1 C 12.4 6.1 8.58 6.14 8.6 6.1 C 11.1 3.3 11.4 2.8 11.4 2.1 Z M 15.9 2.1 C 15.9 1.5 15.5 1 14.8 1 C 14.2 1 13.7 1.3 13.4 1.7 C 13.4 1.7 13.4 0.9 13.4 0.9 C 13.7 0.6 14.3 0.3 14.9 0.3 C 16 0.3 16.7 1.1 16.7 2.1 C 16.7 3 15.9 3.9 14.5 5.5 C 14.47 5.47 16.9 5.5 16.9 5.5 L 16.9 6.1 C 16.9 6.1 13.08 6.14 13.1 6.1 C 15.6 3.3 15.9 2.8 15.9 2.1 Z " stroke="none" fill="#000"/>
  </g>
</svg>