<?xml version="1.0" standalone="no"?>
<!DOCTYPE svg PUBLIC "-//W3C//DTD SVG 1.1//EN" "http://www.w3.org/Graphics/SVG/1.1/DTD/svg11.dtd">
<svg xmlns="http://www.w3.org/2000/svg" version="1.1" width="111.1px" height="20.4px" viewBox="0 0 111.1 20.4">
  <desc>2- Radio Craft, Philippe Starck</desc>
  <defs/>
  <g id="Polygon24247">
    <path d="M 3.6 9.6 C 3.6 9.6 -0.01 9.6 0 9.6 C 3.3 6.5 3.8 5.9 3.8 5.1 C 3.8 4.4 3.3 3.9 2.5 3.9 C 2 3.9 1.4 4.1 1 4.6 C 1 4.6 1 4.2 1 4.2 C 1.5 3.8 2 3.6 2.6 3.6 C 3.5 3.6 4.1 4.2 4.1 5.1 C 4.1 6.1 3.3 6.8 0.8 9.3 C 0.79 9.27 0.8 9.3 0.8 9.3 L 3.7 9.3 L 3.6 9.6 Z M 4.8 7 L 6.7 7 L 6.7 7.3 L 4.8 7.3 L 4.8 7 Z M 11.5 7 L 13.7 9.6 L 13.3 9.6 L 11.1 7 L 11 7 L 10.6 9.6 L 10.3 9.6 L 11.1 3.7 C 11.1 3.7 12.3 3.66 12.3 3.7 C 13.6 3.7 14.1 4.4 14.1 5.2 C 14.1 6.2 13.4 7 11.9 7 C 11.89 6.95 11.5 7 11.5 7 Z M 11 6.6 C 11 6.6 11.92 6.63 11.9 6.6 C 13.1 6.6 13.8 6 13.8 5.2 C 13.8 4.5 13.3 4 12.3 4 C 12.26 3.98 11.4 4 11.4 4 L 11 6.6 Z M 18.3 9.6 L 18 9.6 L 18.1 8.6 C 18.1 8.6 18.11 8.58 18.1 8.6 C 17.7 9.3 17.1 9.7 16.4 9.7 C 15.5 9.7 14.7 9 14.7 7.8 C 14.7 6.3 15.7 5.3 16.8 5.3 C 17.6 5.3 18.2 5.7 18.4 6.4 C 18.42 6.43 18.4 6.4 18.4 6.4 L 18.6 5.4 L 18.9 5.4 L 18.3 9.6 Z M 15 7.7 C 15 8.8 15.7 9.4 16.5 9.4 C 17.5 9.4 18.3 8.3 18.3 7.2 C 18.3 6.2 17.6 5.6 16.9 5.6 C 15.9 5.6 15 6.5 15 7.7 Z M 23.4 9.6 L 23.1 9.6 C 23.1 9.6 23.24 8.57 23.2 8.6 C 22.8 9.3 22.2 9.7 21.5 9.7 C 20.6 9.7 19.8 9 19.8 7.8 C 19.8 6.4 20.8 5.3 22 5.3 C 22.7 5.3 23.3 5.7 23.5 6.4 C 23.53 6.42 24 3.2 24 3.2 L 24.3 3.2 L 23.4 9.6 Z M 20.1 7.8 C 20.1 8.8 20.8 9.4 21.5 9.4 C 22.5 9.4 23.4 8.5 23.4 7.2 C 23.4 6.2 22.8 5.6 22 5.6 C 21 5.6 20.1 6.5 20.1 7.8 Z M 26.2 3.8 C 26.2 4 26.1 4.1 25.9 4.1 C 25.8 4.1 25.7 4 25.7 3.8 C 25.7 3.7 25.8 3.5 25.9 3.5 C 26.1 3.5 26.2 3.6 26.2 3.8 Z M 25.6 5.4 L 25.9 5.4 L 25.3 9.6 L 24.9 9.6 L 25.6 5.4 Z M 26.8 7.8 C 26.8 6.3 27.9 5.3 29.1 5.3 C 30.1 5.3 30.9 6 30.9 7.2 C 30.9 8.6 29.8 9.7 28.6 9.7 C 27.6 9.7 26.8 8.9 26.8 7.8 Z M 30.5 7.2 C 30.5 6.2 29.9 5.6 29.1 5.6 C 28 5.6 27.2 6.5 27.2 7.8 C 27.2 8.8 27.8 9.4 28.6 9.4 C 29.6 9.4 30.5 8.5 30.5 7.2 Z M 39 4.4 C 38.6 4.1 38.1 3.9 37.5 3.9 C 36.1 3.9 34.6 5.1 34.6 7 C 34.6 8.5 35.7 9.4 36.8 9.4 C 37.5 9.4 38 9.1 38.4 8.9 C 38.4 8.9 38.3 9.3 38.3 9.3 C 37.9 9.5 37.4 9.7 36.8 9.7 C 35.4 9.7 34.3 8.7 34.3 7 C 34.3 4.9 35.9 3.6 37.5 3.6 C 38.2 3.6 38.7 3.8 39 4 C 39 4 39 4.4 39 4.4 Z M 40.3 5.4 L 40.2 6.2 C 40.2 6.2 40.2 6.15 40.2 6.2 C 40.5 5.6 41.1 5.3 41.6 5.3 C 41.6 5.3 41.8 5.3 41.8 5.3 C 41.8 5.3 41.8 5.7 41.8 5.7 C 41.7 5.7 41.6 5.6 41.5 5.6 C 40.9 5.6 40.2 6.1 40.1 7 C 40.1 6.97 39.7 9.6 39.7 9.6 L 39.4 9.6 L 40 5.4 L 40.3 5.4 Z M 45.5 9.6 L 45.3 9.6 L 45.4 8.6 C 45.4 8.6 45.38 8.58 45.4 8.6 C 45 9.3 44.3 9.7 43.6 9.7 C 42.7 9.7 41.9 9 41.9 7.8 C 41.9 6.3 43 5.3 44.1 5.3 C 44.9 5.3 45.5 5.7 45.7 6.4 C 45.68 6.43 45.7 6.4 45.7 6.4 L 45.9 5.4 L 46.2 5.4 L 45.5 9.6 Z M 42.3 7.7 C 42.3 8.8 43 9.4 43.7 9.4 C 44.8 9.4 45.6 8.3 45.6 7.2 C 45.6 6.2 44.9 5.6 44.1 5.6 C 43.1 5.6 42.3 6.5 42.3 7.7 Z M 47.8 5.7 L 47.1 5.7 L 47.2 5.4 L 47.9 5.4 C 47.9 5.4 47.99 4.55 48 4.6 C 48.1 3.6 48.7 3.2 49.4 3.2 C 49.6 3.2 49.8 3.2 50 3.3 C 50 3.3 49.9 3.6 49.9 3.6 C 49.7 3.6 49.6 3.5 49.4 3.5 C 48.8 3.5 48.4 3.8 48.3 4.6 C 48.32 4.55 48.2 5.4 48.2 5.4 L 49.4 5.4 L 49.4 5.7 L 48.2 5.7 L 47.6 9.6 L 47.2 9.6 L 47.8 5.7 Z M 51.1 9.6 C 50.5 9.6 50 9.3 50 8.6 C 50 8.5 50 8.4 50 8.3 C 50.02 8.29 50.4 5.7 50.4 5.7 L 49.7 5.7 L 49.8 5.4 L 50.5 5.4 L 50.6 4.4 L 50.9 4.4 L 50.8 5.4 L 52.1 5.4 L 52 5.7 L 50.7 5.7 C 50.7 5.7 50.36 8.32 50.4 8.3 C 50.3 8.4 50.3 8.5 50.3 8.6 C 50.3 9.1 50.7 9.3 51.2 9.3 C 51.4 9.3 51.6 9.3 51.7 9.2 C 51.7 9.2 51.7 9.6 51.7 9.6 C 51.6 9.6 51.3 9.6 51.1 9.6 Z M 53 8.9 C 52.9 9.5 52.6 10.1 52.2 10.7 C 52.2 10.7 51.9 10.7 51.9 10.7 C 52.2 10.2 52.5 9.6 52.6 8.9 C 52.6 8.8 52.6 8.7 52.6 8.7 C 52.6 8.7 53 8.7 53 8.7 C 53 8.7 53 8.8 53 8.9 Z M 57.6 3.7 C 57.6 3.7 58.66 3.66 58.7 3.7 C 59.9 3.7 60.6 4.4 60.6 5.4 C 60.6 6.5 59.7 7.3 58 7.3 C 58.02 7.34 57.4 7.3 57.4 7.3 L 57.1 9.6 L 56.8 9.6 L 57.6 3.7 Z M 60.3 5.4 C 60.3 4.7 59.8 4 58.7 4 C 58.69 3.98 57.9 4 57.9 4 L 57.5 7 C 57.5 7 58.04 7.01 58 7 C 59.6 7 60.3 6.3 60.3 5.4 Z M 64 9.6 C 64 9.6 64.36 6.9 64.4 6.9 C 64.4 6.8 64.4 6.7 64.4 6.6 C 64.4 6 63.9 5.6 63.3 5.6 C 62.5 5.6 61.9 6.2 61.8 6.9 C 61.83 6.89 61.4 9.6 61.4 9.6 L 61.1 9.6 L 62 3.2 L 62.4 3.2 L 61.9 6.1 C 61.9 6.1 61.94 6.08 61.9 6.1 C 62.2 5.6 62.8 5.3 63.4 5.3 C 64.2 5.3 64.7 5.8 64.7 6.5 C 64.7 6.6 64.7 6.7 64.7 6.8 C 64.7 6.82 64.3 9.6 64.3 9.6 L 64 9.6 Z M 67.1 3.8 C 67.1 4 66.9 4.1 66.8 4.1 C 66.6 4.1 66.5 4 66.5 3.8 C 66.5 3.7 66.6 3.5 66.8 3.5 C 66.9 3.5 67.1 3.6 67.1 3.8 Z M 66.4 5.4 L 66.7 5.4 L 66.1 9.6 L 65.8 9.6 L 66.4 5.4 Z M 68.6 3.2 L 69 3.2 L 68 9.6 L 67.7 9.6 L 68.6 3.2 Z M 70.9 3.8 C 70.9 4 70.7 4.1 70.6 4.1 C 70.4 4.1 70.3 4 70.3 3.8 C 70.3 3.7 70.4 3.5 70.6 3.5 C 70.8 3.5 70.9 3.6 70.9 3.8 Z M 70.2 5.4 L 70.6 5.4 L 69.9 9.6 L 69.6 9.6 L 70.2 5.4 Z M 72.4 5.4 C 72.4 5.4 72.26 6.37 72.3 6.4 C 72.7 5.7 73.3 5.3 74 5.3 C 74.9 5.3 75.7 6 75.7 7.2 C 75.7 8.6 74.7 9.7 73.5 9.7 C 72.8 9.7 72.2 9.2 72 8.5 C 71.96 8.52 71.6 11.3 71.6 11.3 L 71.2 11.3 L 72.1 5.4 L 72.4 5.4 Z M 72.1 7.8 C 72.1 8.8 72.7 9.4 73.5 9.4 C 74.5 9.4 75.4 8.4 75.4 7.1 C 75.4 6.1 74.7 5.6 74 5.6 C 73 5.6 72.1 6.5 72.1 7.8 Z M 77.5 5.4 C 77.5 5.4 77.39 6.37 77.4 6.4 C 77.8 5.7 78.4 5.3 79.1 5.3 C 80 5.3 80.8 6 80.8 7.2 C 80.8 8.6 79.8 9.7 78.6 9.7 C 77.9 9.7 77.3 9.2 77.1 8.5 C 77.09 8.52 76.7 11.3 76.7 11.3 L 76.4 11.3 L 77.2 5.4 L 77.5 5.4 Z M 77.2 7.8 C 77.2 8.8 77.8 9.4 78.6 9.4 C 79.6 9.4 80.5 8.4 80.5 7.1 C 80.5 6.1 79.9 5.6 79.1 5.6 C 78.1 5.6 77.2 6.5 77.2 7.8 Z M 82.1 7.6 C 82.1 7.6 82.06 7.7 82.1 7.7 C 82.1 8.8 82.7 9.4 83.7 9.4 C 84.1 9.4 84.6 9.2 85.1 8.8 C 85.1 8.8 85 9.2 85 9.2 C 84.6 9.5 84.1 9.7 83.6 9.7 C 82.5 9.7 81.7 9 81.7 7.8 C 81.7 6.4 82.7 5.3 83.9 5.3 C 84.8 5.3 85.5 6 85.5 7 C 85.5 7.2 85.4 7.4 85.4 7.6 C 85.4 7.59 82.1 7.6 82.1 7.6 Z M 82.1 7.3 C 82.1 7.3 85.1 7.3 85.1 7.3 C 85.1 7.2 85.1 7.1 85.1 7 C 85.1 6.1 84.6 5.6 83.9 5.6 C 83 5.6 82.3 6.2 82.1 7.3 Z M 92.4 4.4 C 92 4.1 91.5 3.9 91 3.9 C 90.1 3.9 89.5 4.4 89.5 5 C 89.5 5.6 90 6 90.7 6.4 C 91.5 6.9 92 7.3 92 8.1 C 92 9 91.2 9.7 90.1 9.7 C 89.5 9.7 88.8 9.4 88.4 9.1 C 88.4 9.1 88.5 8.7 88.5 8.7 C 88.9 9.1 89.5 9.4 90.1 9.4 C 91 9.4 91.6 8.8 91.6 8.1 C 91.6 7.4 91.2 7.1 90.4 6.6 C 89.6 6.2 89.2 5.8 89.2 5.1 C 89.2 4.3 89.9 3.6 91 3.6 C 91.5 3.6 92.1 3.7 92.4 4 C 92.4 4 92.4 4.4 92.4 4.4 Z M 94.4 9.6 C 93.7 9.6 93.2 9.3 93.2 8.6 C 93.2 8.5 93.3 8.4 93.3 8.3 C 93.27 8.29 93.7 5.7 93.7 5.7 L 93 5.7 L 93 5.4 L 93.7 5.4 L 93.9 4.4 L 94.2 4.4 L 94 5.4 L 95.3 5.4 L 95.3 5.7 L 94 5.7 C 94 5.7 93.61 8.32 93.6 8.3 C 93.6 8.4 93.6 8.5 93.6 8.6 C 93.6 9.1 93.9 9.3 94.4 9.3 C 94.6 9.3 94.8 9.3 95 9.2 C 95 9.2 94.9 9.6 94.9 9.6 C 94.8 9.6 94.6 9.6 94.4 9.6 Z M 99.3 9.6 L 99.1 9.6 L 99.2 8.6 C 99.2 8.6 99.17 8.58 99.2 8.6 C 98.8 9.3 98.1 9.7 97.4 9.7 C 96.5 9.7 95.7 9 95.7 7.8 C 95.7 6.3 96.8 5.3 97.9 5.3 C 98.7 5.3 99.3 5.7 99.5 6.4 C 99.48 6.43 99.5 6.4 99.5 6.4 L 99.7 5.4 L 100 5.4 L 99.3 9.6 Z M 96.1 7.7 C 96.1 8.8 96.8 9.4 97.5 9.4 C 98.6 9.4 99.4 8.3 99.4 7.2 C 99.4 6.2 98.7 5.6 97.9 5.6 C 96.9 5.6 96.1 6.5 96.1 7.7 Z M 101.8 5.4 L 101.7 6.2 C 101.7 6.2 101.69 6.15 101.7 6.2 C 102 5.6 102.6 5.3 103.1 5.3 C 103.1 5.3 103.2 5.3 103.3 5.3 C 103.3 5.3 103.3 5.7 103.3 5.7 C 103.2 5.7 103.1 5.6 103 5.6 C 102.4 5.6 101.7 6.1 101.6 7 C 101.58 6.97 101.2 9.6 101.2 9.6 L 100.9 9.6 L 101.5 5.4 L 101.8 5.4 Z M 105.7 5.6 C 104.7 5.6 103.7 6.5 103.7 7.7 C 103.7 8.7 104.4 9.4 105.2 9.4 C 105.6 9.4 106 9.3 106.4 9 C 106.4 9 106.3 9.4 106.3 9.4 C 106 9.6 105.6 9.7 105.2 9.7 C 104.2 9.7 103.4 8.9 103.4 7.7 C 103.4 6.4 104.4 5.3 105.7 5.3 C 106.2 5.3 106.5 5.4 106.8 5.6 C 106.8 5.6 106.8 5.9 106.8 5.9 C 106.5 5.7 106.1 5.6 105.7 5.6 Z M 108.5 7.3 L 110.5 9.6 L 110.1 9.6 L 108.1 7.3 L 107.8 9.6 L 107.4 9.6 L 108.4 3.2 L 108.7 3.2 L 108.1 7.3 L 110.6 5.4 L 111 5.4 L 108.5 7.3 Z " stroke="none" fill="#000"/>
  </g>
</svg>