<?xml version="1.0" standalone="no"?>
<!DOCTYPE svg PUBLIC "-//W3C//DTD SVG 1.1//EN" "http://www.w3.org/Graphics/SVG/1.1/DTD/svg11.dtd">
<svg xmlns="http://www.w3.org/2000/svg" version="1.1" width="305.4px" height="83.1px" viewBox="0 0 305.4 83.1">
  <desc>PORTRAIT</desc>
  <defs/>
  <g id="Polygon31554">
    <path d="M 7.5 37.1 L 7.5 50 L 3.8 50 L 3.8 18.7 C 3.8 18.7 14.95 18.74 14.9 18.7 C 16.6 18.7 18 19 19.1 19.4 C 20.3 19.9 21.3 20.5 22.1 21.3 C 22.9 22.1 23.5 23 23.9 24 C 24.3 25 24.5 26.1 24.5 27.2 C 24.5 27.2 24.5 28.6 24.5 28.6 C 24.5 29.7 24.3 30.8 23.9 31.8 C 23.5 32.9 22.9 33.8 22.1 34.6 C 21.3 35.4 20.3 36 19.1 36.4 C 17.9 36.9 16.5 37.1 14.9 37.1 C 14.95 37.13 7.5 37.1 7.5 37.1 Z M 7.5 33.6 C 7.5 33.6 14.5 33.65 14.5 33.6 C 18.7 33.6 20.8 31.9 20.8 28.3 C 20.8 28.3 20.8 27.5 20.8 27.5 C 20.8 25.9 20.2 24.6 19.2 23.7 C 18.2 22.7 16.6 22.2 14.5 22.2 C 14.5 22.22 7.5 22.2 7.5 22.2 L 7.5 33.6 Z M 30 30.9 C 30 26.8 31 23.7 32.9 21.5 C 34.8 19.2 37.5 18.1 41 18.1 C 44.4 18.1 47.1 19.2 49 21.5 C 51 23.7 51.9 26.8 51.9 30.9 C 51.9 30.9 51.9 37.8 51.9 37.8 C 51.9 42 51 45.2 49 47.3 C 47.1 49.5 44.4 50.6 41 50.6 C 37.5 50.6 34.8 49.5 32.9 47.3 C 31 45.2 30 42 30 37.8 C 30 37.8 30 30.9 30 30.9 Z M 41 47.1 C 43.4 47.1 45.2 46.3 46.4 44.6 C 47.6 43 48.2 40.6 48.2 37.6 C 48.2 37.6 48.2 31.1 48.2 31.1 C 48.2 28.3 47.6 26 46.4 24.2 C 45.2 22.5 43.4 21.6 41 21.6 C 38.6 21.6 36.7 22.5 35.5 24.2 C 34.3 26 33.7 28.3 33.7 31.1 C 33.7 31.1 33.7 37.6 33.7 37.6 C 33.7 40.6 34.3 43 35.5 44.6 C 36.7 46.3 38.6 47.1 41 47.1 Z M 78 50 L 74.3 50 C 74.3 50 74.3 39.54 74.3 39.5 C 74.3 38.8 74.1 38.2 73.8 37.8 C 73.4 37.3 72.8 37.1 71.9 37.1 C 71.89 37.13 62.2 37.1 62.2 37.1 L 62.2 50 L 58.4 50 L 58.4 18.7 C 58.4 18.7 69.57 18.74 69.6 18.7 C 71.2 18.7 72.6 19 73.8 19.4 C 75 19.9 75.9 20.5 76.7 21.3 C 77.5 22.1 78.1 23 78.5 24 C 78.9 25 79.1 26.1 79.1 27.2 C 79.1 27.2 79.1 28.6 79.1 28.6 C 79.1 29.7 78.8 30.9 78.2 32 C 77.5 33.2 76.5 34.1 75.2 34.7 C 75.2 34.7 75.2 35.3 75.2 35.3 C 76.1 35.4 76.8 35.8 77.3 36.3 C 77.8 36.9 78 37.7 78 38.7 C 78.05 38.73 78 50 78 50 Z M 62.2 33.6 C 62.2 33.6 69.12 33.65 69.1 33.6 C 71.2 33.6 72.8 33.2 73.8 32.3 C 74.9 31.4 75.4 30 75.4 28.3 C 75.4 28.3 75.4 27.5 75.4 27.5 C 75.4 25.9 74.9 24.6 73.8 23.7 C 72.8 22.7 71.2 22.2 69.1 22.2 C 69.12 22.22 62.2 22.2 62.2 22.2 L 62.2 33.6 Z M 84.6 18.7 L 106.6 18.7 L 106.6 22.2 L 97.5 22.2 L 97.5 50 L 93.7 50 L 93.7 22.2 L 84.6 22.2 L 84.6 18.7 Z M 132.7 50 L 128.9 50 C 128.9 50 128.92 39.54 128.9 39.5 C 128.9 38.8 128.7 38.2 128.4 37.8 C 128 37.3 127.4 37.1 126.5 37.1 C 126.51 37.13 116.8 37.1 116.8 37.1 L 116.8 50 L 113 50 L 113 18.7 C 113 18.7 124.19 18.74 124.2 18.7 C 125.8 18.7 127.2 19 128.4 19.4 C 129.6 19.9 130.6 20.5 131.4 21.3 C 132.1 22.1 132.7 23 133.1 24 C 133.5 25 133.7 26.1 133.7 27.2 C 133.7 27.2 133.7 28.6 133.7 28.6 C 133.7 29.7 133.4 30.9 132.8 32 C 132.1 33.2 131.2 34.1 129.8 34.7 C 129.8 34.7 129.8 35.3 129.8 35.3 C 130.7 35.4 131.4 35.8 131.9 36.3 C 132.4 36.9 132.7 37.7 132.7 38.7 C 132.67 38.73 132.7 50 132.7 50 Z M 116.8 33.6 C 116.8 33.6 123.75 33.65 123.7 33.6 C 125.9 33.6 127.4 33.2 128.5 32.3 C 129.5 31.4 130 30 130 28.3 C 130 28.3 130 27.5 130 27.5 C 130 25.9 129.5 24.6 128.5 23.7 C 127.4 22.7 125.9 22.2 123.7 22.2 C 123.75 22.22 116.8 22.2 116.8 22.2 L 116.8 33.6 Z M 156.9 42.2 L 143.5 42.2 L 141.2 50 L 137.2 50 L 146.7 18.7 L 153.7 18.7 L 163.2 50 L 159.2 50 L 156.9 42.2 Z M 149.9 20.3 L 144.5 38.7 L 155.9 38.7 L 150.5 20.3 L 149.9 20.3 Z M 167.6 18.7 L 187.4 18.7 L 187.4 22.2 L 179.4 22.2 L 179.4 46.5 L 187.4 46.5 L 187.4 50 L 167.6 50 L 167.6 46.5 L 175.6 46.5 L 175.6 22.2 L 167.6 22.2 L 167.6 18.7 Z M 193.9 18.7 L 215.8 18.7 L 215.8 22.2 L 206.7 22.2 L 206.7 50 L 203 50 L 203 22.2 L 193.9 22.2 L 193.9 18.7 Z " stroke="none" fill="#000"/>
  </g>
</svg>