<?xml version="1.0" standalone="no"?>
<!DOCTYPE svg PUBLIC "-//W3C//DTD SVG 1.1//EN" "http://www.w3.org/Graphics/SVG/1.1/DTD/svg11.dtd">
<svg xmlns="http://www.w3.org/2000/svg" version="1.1" width="136.1px" height="34.1px" viewBox="0 0 136.1 34.1">
  <desc>EXTERIEUR</desc>
  <defs/>
  <g id="Polygon17465">
    <path d="M 1.3 1.1 L 11.8 1.1 L 11.8 5 L 5.8 5 L 5.8 6.9 L 11.2 6.9 L 11.2 10.4 L 5.8 10.4 L 5.8 12.3 L 11.8 12.3 L 11.8 16.3 L 1.3 16.3 L 1.3 1.1 Z M 17.4 8.7 L 12.7 1.1 L 17.8 1.1 L 20.4 5.5 L 22.8 1.1 L 27.8 1.1 L 23.1 8.7 L 27.9 16.3 L 22.8 16.3 L 20.2 11.8 L 17.8 16.3 L 12.7 16.3 L 17.4 8.7 Z M 32.3 5.1 L 28.1 5.1 L 28.1 1.1 L 40.9 1.1 L 40.9 5.1 L 36.8 5.1 L 36.8 16.3 L 32.3 16.3 L 32.3 5.1 Z M 42.6 1.1 L 53.1 1.1 L 53.1 5 L 47 5 L 47 6.9 L 52.5 6.9 L 52.5 10.4 L 47 10.4 L 47 12.3 L 53.1 12.3 L 53.1 16.3 L 42.6 16.3 L 42.6 1.1 Z M 68 16.3 L 62.8 16.3 L 59.9 11.6 L 59.8 11.6 L 59.8 16.3 L 55.4 16.3 L 55.4 1.1 C 55.4 1.1 60.81 1.08 60.8 1.1 C 64.6 1.1 67.3 2.8 67.3 6.4 C 67.3 7.8 66.6 9.9 64.1 10.9 C 64.1 10.92 68 16.3 68 16.3 Z M 60.8 8.3 C 61.9 8.3 62.8 7.7 62.8 6.7 C 62.8 5.6 61.9 5.1 60.8 5.1 C 60.77 5.08 59.8 5.1 59.8 5.1 L 59.8 8.3 C 59.8 8.3 60.79 8.25 60.8 8.3 Z M 69.5 1.1 L 74 1.1 L 74 16.3 L 69.5 16.3 L 69.5 1.1 Z M 76.6 1.1 L 87.1 1.1 L 87.1 5 L 81 5 L 81 6.9 L 86.5 6.9 L 86.5 10.4 L 81 10.4 L 81 12.3 L 87.1 12.3 L 87.1 16.3 L 76.6 16.3 L 76.6 1.1 Z M 89.2 10.1 C 89.21 10.08 89.2 1.1 89.2 1.1 L 93.6 1.1 C 93.6 1.1 93.64 10.04 93.6 10 C 93.6 11.7 94.5 12.6 95.9 12.6 C 97.4 12.6 98.2 11.7 98.2 10 C 98.21 10.02 98.2 1.1 98.2 1.1 L 102.7 1.1 C 102.7 1.1 102.66 10.08 102.7 10.1 C 102.7 13.9 100.1 16.6 95.9 16.6 C 91.7 16.6 89.2 13.9 89.2 10.1 Z M 117.8 16.3 L 112.5 16.3 L 109.7 11.6 L 109.6 11.6 L 109.6 16.3 L 105.1 16.3 L 105.1 1.1 C 105.1 1.1 110.53 1.08 110.5 1.1 C 114.3 1.1 117 2.8 117 6.4 C 117 7.8 116.3 9.9 113.8 10.9 C 113.82 10.92 117.8 16.3 117.8 16.3 Z M 110.5 8.3 C 111.6 8.3 112.5 7.7 112.5 6.7 C 112.5 5.6 111.6 5.1 110.5 5.1 C 110.49 5.08 109.6 5.1 109.6 5.1 L 109.6 8.3 C 109.6 8.3 110.51 8.25 110.5 8.3 Z " stroke="none" fill="#444443"/>
  </g>
</svg>