<?xml version="1.0" standalone="no"?>
<!DOCTYPE svg PUBLIC "-//W3C//DTD SVG 1.1//EN" "http://www.w3.org/Graphics/SVG/1.1/DTD/svg11.dtd">
<svg xmlns="http://www.w3.org/2000/svg" version="1.1" width="491.1px" height="71.2px" viewBox="0 0 491.1 71.2">
  <desc>Parcourez l image de haut en bas pour explorer le Z phyr</desc>
  <defs/>
  <g id="Polygon18285">
    <path d="M 3 0.9 C 3 0.9 5.22 0.92 5.2 0.9 C 7.5 0.9 8.8 2.5 8.8 4.2 C 8.8 6.4 7 7.9 3.5 7.9 C 3.48 7.9 2.2 7.9 2.2 7.9 L 1.5 12.7 L 1.3 12.7 L 3 0.9 Z M 8.6 4.2 C 8.6 2.6 7.4 1.1 5.2 1.1 C 5.18 1.11 3.1 1.1 3.1 1.1 L 2.2 7.7 C 2.2 7.7 3.52 7.71 3.5 7.7 C 6.9 7.7 8.6 6.3 8.6 4.2 Z M 16.8 12.7 L 16.6 12.7 L 16.9 10 C 16.9 10 16.92 10.05 16.9 10 C 16.2 11.9 14.7 12.8 13.1 12.8 C 11.3 12.8 9.7 11.5 9.7 9.1 C 9.7 6.3 11.9 4.3 14.1 4.3 C 15.7 4.3 17.1 5.4 17.3 7.2 C 17.31 7.17 17.3 7.2 17.3 7.2 L 17.7 4.4 L 17.9 4.4 L 16.8 12.7 Z M 10 9.1 C 10 11.4 11.4 12.6 13.1 12.6 C 15.4 12.6 17.2 10.4 17.2 7.9 C 17.2 5.7 15.7 4.5 14.1 4.5 C 12 4.5 10 6.4 10 9.1 Z M 21.3 4.4 L 21 6.2 C 21 6.2 21.04 6.22 21 6.2 C 21.6 5 22.7 4.3 23.8 4.3 C 23.9 4.3 24.2 4.3 24.3 4.4 C 24.3 4.4 24.2 4.5 24.2 4.5 C 24.1 4.5 23.9 4.5 23.8 4.5 C 22.5 4.5 21.2 5.5 20.9 7.1 C 20.91 7.09 20.1 12.7 20.1 12.7 L 19.9 12.7 L 21.1 4.4 L 21.3 4.4 Z M 28.8 4.5 C 26.5 4.5 24.5 6.4 24.5 9 C 24.5 11.3 25.9 12.6 27.8 12.6 C 28.5 12.6 29.3 12.5 30.1 12 C 30.1 12 30 12.2 30 12.2 C 29.4 12.6 28.6 12.8 27.8 12.8 C 25.8 12.8 24.3 11.4 24.3 9 C 24.3 6.3 26.4 4.3 28.8 4.3 C 29.5 4.3 30.3 4.5 31.1 4.9 C 31.1 4.9 31 5.1 31 5.1 C 30.3 4.6 29.5 4.5 28.8 4.5 Z M 32 9.2 C 32 6.2 34.2 4.3 36.5 4.3 C 38.4 4.3 39.9 5.6 39.9 7.9 C 39.9 10.9 37.7 12.8 35.4 12.8 C 33.5 12.8 32 11.4 32 9.2 Z M 39.7 7.9 C 39.7 5.7 38.3 4.5 36.5 4.5 C 34.3 4.5 32.2 6.2 32.2 9.2 C 32.2 11.4 33.7 12.6 35.5 12.6 C 37.6 12.6 39.7 10.8 39.7 7.9 Z M 48.1 9.8 C 47.7 11.9 46.5 12.8 44.9 12.8 C 43.3 12.8 42.1 11.8 42.1 10.1 C 42.1 9.9 42.1 9.6 42.2 9.4 C 42.15 9.45 42.9 4.4 42.9 4.4 L 43.1 4.4 C 43.1 4.4 42.36 9.45 42.4 9.4 C 42.3 9.6 42.3 9.8 42.3 10.1 C 42.3 11.7 43.4 12.6 44.9 12.6 C 46.3 12.6 47.6 11.8 47.8 9.8 C 47.84 9.8 48.6 4.4 48.6 4.4 L 48.8 4.4 C 48.8 4.4 48.05 9.8 48.1 9.8 Z M 52 4.4 L 51.8 6.2 C 51.8 6.2 51.8 6.22 51.8 6.2 C 52.4 5 53.5 4.3 54.6 4.3 C 54.7 4.3 54.9 4.3 55 4.4 C 55 4.4 55 4.5 55 4.5 C 54.9 4.5 54.7 4.5 54.6 4.5 C 53.3 4.5 52 5.5 51.7 7.1 C 51.68 7.09 50.9 12.7 50.9 12.7 L 50.7 12.7 L 51.9 4.4 L 52 4.4 Z M 55.3 8.6 C 55.3 8.7 55.3 8.9 55.3 9.1 C 55.3 11.3 56.6 12.6 58.7 12.6 C 59.9 12.6 60.9 12.2 61.8 11.4 C 61.8 11.4 61.7 11.7 61.7 11.7 C 60.9 12.4 59.9 12.8 58.7 12.8 C 56.5 12.8 55.1 11.4 55.1 9.1 C 55.1 6.3 57 4.3 59.3 4.3 C 61.1 4.3 62.4 5.6 62.4 7.7 C 62.4 8 62.4 8.3 62.3 8.6 C 62.3 8.6 55.3 8.6 55.3 8.6 Z M 55.4 8.4 C 55.4 8.4 62.1 8.4 62.1 8.4 C 62.2 8.1 62.2 7.8 62.2 7.7 C 62.2 5.7 61 4.5 59.2 4.5 C 57.3 4.5 55.6 6 55.4 8.4 Z M 68.9 12.7 L 63.1 12.7 L 70 4.6 L 70 4.6 L 64.7 4.6 L 64.7 4.4 L 70.4 4.4 L 63.5 12.5 L 63.5 12.5 L 68.9 12.5 L 68.9 12.7 Z M 77.9 0.1 L 78.1 0.1 L 76.3 12.7 L 76.1 12.7 L 77.9 0.1 Z M 81.6 1.4 C 81.4 2.8 80.7 4 80.4 4.6 C 80.4 4.6 80.2 4.6 80.2 4.6 C 80.6 4 81.2 2.7 81.4 1.4 C 81.36 1.37 81.4 0.9 81.4 0.9 L 81.6 0.9 C 81.6 0.9 81.57 1.37 81.6 1.4 Z M 84.7 1.1 C 84.7 1.3 84.6 1.5 84.4 1.5 C 84.3 1.5 84.1 1.4 84.1 1.2 C 84.1 1 84.3 0.9 84.5 0.9 C 84.6 0.9 84.7 1 84.7 1.1 Z M 83.9 4.4 L 84.1 4.4 L 83 12.7 L 82.8 12.7 L 83.9 4.4 Z M 87.5 4.4 L 87.3 6 C 87.3 6 87.34 5.98 87.3 6 C 87.8 4.9 88.8 4.3 89.8 4.3 C 91 4.3 91.8 5 91.9 6.2 C 92.5 4.9 93.5 4.3 94.6 4.3 C 95.8 4.3 96.7 5.1 96.7 6.5 C 96.7 6.7 96.7 6.9 96.6 7.2 C 96.61 7.25 95.8 12.7 95.8 12.7 L 95.6 12.7 C 95.6 12.7 96.4 7.25 96.4 7.2 C 96.5 6.9 96.5 6.7 96.5 6.5 C 96.5 5.2 95.7 4.5 94.5 4.5 C 93.3 4.5 92.1 5.5 91.9 7 C 91.92 7.03 91.1 12.7 91.1 12.7 L 90.9 12.7 C 90.9 12.7 91.68 7.25 91.7 7.2 C 91.7 6.9 91.7 6.7 91.7 6.5 C 91.7 5.2 91 4.5 89.8 4.5 C 88.5 4.5 87.4 5.5 87.2 7 C 87.2 7.03 86.4 12.7 86.4 12.7 L 86.2 12.7 L 87.4 4.4 L 87.5 4.4 Z M 105.8 12.7 L 105.7 12.7 L 106 10 C 106 10 106.01 10.05 106 10 C 105.3 11.9 103.7 12.8 102.2 12.8 C 100.4 12.8 98.8 11.5 98.8 9.1 C 98.8 6.3 101 4.3 103.2 4.3 C 104.8 4.3 106.2 5.4 106.4 7.2 C 106.4 7.17 106.4 7.2 106.4 7.2 L 106.8 4.4 L 107 4.4 L 105.8 12.7 Z M 99 9.1 C 99 11.4 100.5 12.6 102.2 12.6 C 104.5 12.6 106.3 10.4 106.3 7.9 C 106.3 5.7 104.8 4.5 103.1 4.5 C 101.1 4.5 99 6.4 99 9.1 Z M 115.8 12.9 C 115.4 15.6 113.7 16.3 111.8 16.3 C 111 16.3 109.7 16.1 108.8 15.4 C 108.8 15.4 108.8 15.2 108.8 15.2 C 109.7 15.9 111 16.1 111.8 16.1 C 113.6 16.1 115.2 15.5 115.6 12.9 C 115.58 12.88 116 9.9 116 9.9 C 116 9.9 115.99 9.91 116 9.9 C 115.3 11.7 113.8 12.6 112.2 12.6 C 110.5 12.6 108.9 11.3 108.9 9.1 C 108.9 6.2 111.1 4.3 113.2 4.3 C 114.8 4.3 116.1 5.3 116.4 7.1 C 116.37 7.11 116.4 7.1 116.4 7.1 L 116.8 4.4 L 117 4.4 C 117 4.4 115.79 12.89 115.8 12.9 Z M 109.2 9.1 C 109.2 11.2 110.6 12.4 112.3 12.4 C 114.2 12.4 116.3 10.6 116.3 7.8 C 116.3 5.7 114.8 4.5 113.2 4.5 C 111.2 4.5 109.2 6.3 109.2 9.1 Z M 119.1 8.6 C 119.1 8.7 119.1 8.9 119.1 9.1 C 119.1 11.3 120.4 12.6 122.5 12.6 C 123.7 12.6 124.7 12.2 125.6 11.4 C 125.6 11.4 125.5 11.7 125.5 11.7 C 124.7 12.4 123.7 12.8 122.5 12.8 C 120.3 12.8 118.9 11.4 118.9 9.1 C 118.9 6.3 120.8 4.3 123.1 4.3 C 124.9 4.3 126.2 5.6 126.2 7.7 C 126.2 8 126.2 8.3 126.1 8.6 C 126.1 8.6 119.1 8.6 119.1 8.6 Z M 119.2 8.4 C 119.2 8.4 125.9 8.4 125.9 8.4 C 126 8.1 126 7.8 126 7.7 C 126 5.7 124.8 4.5 123 4.5 C 121.1 4.5 119.4 6 119.2 8.4 Z M 139.7 12.7 L 139.5 12.7 L 139.9 10 C 139.9 10 139.84 10.05 139.8 10 C 139.1 11.9 137.6 12.8 136 12.8 C 134.2 12.8 132.7 11.5 132.7 9.2 C 132.7 6.2 134.9 4.3 137 4.3 C 138.7 4.3 140 5.4 140.2 7.2 C 140.24 7.17 140.3 7.2 140.3 7.2 L 141.2 0.1 L 141.4 0.1 L 139.7 12.7 Z M 132.9 9.2 C 132.9 11.4 134.3 12.6 136 12.6 C 138 12.6 140.1 10.8 140.1 7.9 C 140.1 5.7 138.7 4.5 137 4.5 C 135 4.5 132.9 6.3 132.9 9.2 Z M 143 8.6 C 143 8.7 143 8.9 143 9.1 C 143 11.3 144.3 12.6 146.4 12.6 C 147.6 12.6 148.5 12.2 149.4 11.4 C 149.4 11.4 149.4 11.7 149.4 11.7 C 148.6 12.4 147.5 12.8 146.3 12.8 C 144.2 12.8 142.8 11.4 142.8 9.1 C 142.8 6.3 144.7 4.3 146.9 4.3 C 148.7 4.3 150.1 5.6 150.1 7.7 C 150.1 8 150 8.3 150 8.6 C 150 8.6 143 8.6 143 8.6 Z M 143 8.4 C 143 8.4 149.8 8.4 149.8 8.4 C 149.9 8.1 149.9 7.8 149.9 7.7 C 149.9 5.7 148.6 4.5 146.9 4.5 C 145 4.5 143.3 6 143 8.4 Z M 162.4 12.7 C 162.4 12.7 163.14 7.25 163.1 7.2 C 163.2 6.9 163.2 6.7 163.2 6.6 C 163.2 5.2 162.2 4.5 160.8 4.5 C 159.3 4.5 157.9 5.5 157.6 7 C 157.64 7.03 156.8 12.7 156.8 12.7 L 156.6 12.7 L 158.4 0.1 L 158.6 0.1 L 157.8 6 C 157.8 6 157.8 6.04 157.8 6 C 158.4 4.9 159.5 4.3 160.8 4.3 C 162.4 4.3 163.4 5.1 163.4 6.6 C 163.4 6.7 163.4 6.9 163.3 7.2 C 163.34 7.25 162.6 12.7 162.6 12.7 L 162.4 12.7 Z M 172.6 12.7 L 172.4 12.7 L 172.7 10 C 172.7 10 172.73 10.05 172.7 10 C 172 11.9 170.5 12.8 168.9 12.8 C 167.1 12.8 165.6 11.5 165.6 9.1 C 165.6 6.3 167.7 4.3 169.9 4.3 C 171.5 4.3 172.9 5.4 173.1 7.2 C 173.12 7.17 173.1 7.2 173.1 7.2 L 173.6 4.4 L 173.7 4.4 L 172.6 12.7 Z M 165.8 9.1 C 165.8 11.4 167.2 12.6 169 12.6 C 171.2 12.6 173 10.4 173 7.9 C 173 5.7 171.5 4.5 169.9 4.5 C 167.8 4.5 165.8 6.4 165.8 9.1 Z M 182 9.8 C 181.7 11.9 180.4 12.8 178.9 12.8 C 177.2 12.8 176 11.8 176 10.1 C 176 9.9 176 9.6 176.1 9.4 C 176.06 9.45 176.8 4.4 176.8 4.4 L 177 4.4 C 177 4.4 176.27 9.45 176.3 9.4 C 176.3 9.6 176.2 9.8 176.2 10.1 C 176.2 11.7 177.3 12.6 178.8 12.6 C 180.2 12.6 181.5 11.8 181.8 9.8 C 181.76 9.8 182.5 4.4 182.5 4.4 L 182.7 4.4 C 182.7 4.4 181.96 9.8 182 9.8 Z M 187.1 12.8 C 185.9 12.8 185 12.3 185 10.9 C 185 10.8 185 10.6 185 10.4 C 185.05 10.38 185.9 4.6 185.9 4.6 L 184.6 4.6 L 184.6 4.4 L 185.9 4.4 L 186.2 2.4 L 186.4 2.4 L 186.1 4.4 L 188.6 4.4 L 188.6 4.6 L 186.1 4.6 C 186.1 4.6 185.25 10.38 185.3 10.4 C 185.2 10.6 185.2 10.8 185.2 10.9 C 185.2 12.2 186 12.6 187.1 12.6 C 187.3 12.6 187.5 12.6 187.8 12.5 C 187.8 12.5 187.7 12.7 187.7 12.7 C 187.6 12.8 187.3 12.8 187.1 12.8 Z M 194.1 8.6 C 194.1 8.7 194.1 8.9 194.1 9.1 C 194.1 11.3 195.3 12.6 197.5 12.6 C 198.6 12.6 199.6 12.2 200.5 11.4 C 200.5 11.4 200.5 11.7 200.5 11.7 C 199.6 12.4 198.6 12.8 197.4 12.8 C 195.2 12.8 193.9 11.4 193.9 9.1 C 193.9 6.3 195.8 4.3 198 4.3 C 199.8 4.3 201.1 5.6 201.1 7.7 C 201.1 8 201.1 8.3 201.1 8.6 C 201.1 8.6 194.1 8.6 194.1 8.6 Z M 194.1 8.4 C 194.1 8.4 200.9 8.4 200.9 8.4 C 200.9 8.1 200.9 7.8 200.9 7.7 C 200.9 5.7 199.7 4.5 198 4.5 C 196.1 4.5 194.4 6 194.1 8.4 Z M 204.3 4.4 L 204.1 6.1 C 204.1 6.1 204.1 6.09 204.1 6.1 C 204.7 4.9 205.9 4.3 207.2 4.3 C 208.7 4.3 209.7 5.1 209.7 6.6 C 209.7 6.7 209.7 6.9 209.7 7.2 C 209.68 7.25 208.9 12.7 208.9 12.7 L 208.7 12.7 C 208.7 12.7 209.47 7.25 209.5 7.2 C 209.5 6.9 209.5 6.7 209.5 6.6 C 209.5 5.2 208.6 4.5 207.1 4.5 C 205.6 4.5 204.2 5.5 204 7 C 203.97 7.03 203.2 12.7 203.2 12.7 L 203 12.7 L 204.1 4.4 L 204.3 4.4 Z M 217.7 7.1 C 217.7 7.1 217.71 7.06 217.7 7.1 C 218.4 5.2 219.9 4.3 221.6 4.3 C 223.3 4.3 224.9 5.6 224.9 7.9 C 224.9 10.9 222.7 12.8 220.5 12.8 C 218.9 12.8 217.6 11.8 217.3 9.9 C 217.31 9.94 217.3 9.9 217.3 9.9 L 216.9 12.7 L 216.7 12.7 L 218.5 0.1 L 218.7 0.1 L 217.7 7.1 Z M 224.7 7.9 C 224.7 5.7 223.2 4.5 221.5 4.5 C 219.5 4.5 217.4 6.3 217.4 9.2 C 217.4 11.4 218.9 12.6 220.6 12.6 C 222.6 12.6 224.7 10.8 224.7 7.9 Z M 233.7 12.7 L 233.6 12.7 L 233.9 10 C 233.9 10 233.89 10.05 233.9 10 C 233.2 11.9 231.6 12.8 230.1 12.8 C 228.3 12.8 226.7 11.5 226.7 9.1 C 226.7 6.3 228.9 4.3 231.1 4.3 C 232.7 4.3 234 5.4 234.3 7.2 C 234.29 7.17 234.3 7.2 234.3 7.2 L 234.7 4.4 L 234.9 4.4 L 233.7 12.7 Z M 226.9 9.1 C 226.9 11.4 228.4 12.6 230.1 12.6 C 232.4 12.6 234.2 10.4 234.2 7.9 C 234.2 5.7 232.7 4.5 231 4.5 C 229 4.5 226.9 6.4 226.9 9.1 Z M 239.9 4.5 C 238.6 4.5 237.5 5.2 237.5 6.2 C 237.5 7.3 238.3 7.8 239.2 8.1 C 240.9 8.8 241.9 9.4 241.9 10.7 C 241.9 12 240.7 12.8 239.2 12.8 C 238.2 12.8 237.1 12.5 236.3 11.8 C 236.3 11.8 236.3 11.6 236.3 11.6 C 237.1 12.3 238.2 12.6 239.3 12.6 C 240.6 12.6 241.7 11.9 241.7 10.7 C 241.7 9.5 240.8 9 239.1 8.3 C 238.2 7.9 237.3 7.5 237.3 6.3 C 237.3 5.1 238.5 4.3 239.9 4.3 C 240.7 4.3 241.6 4.5 242.3 5 C 242.3 5 242.3 5.2 242.3 5.2 C 241.5 4.7 240.5 4.5 239.9 4.5 Z M 250.1 4.4 L 249.7 7.1 C 249.7 7.1 249.76 7.06 249.8 7.1 C 250.5 5.2 252 4.3 253.6 4.3 C 255.4 4.3 256.9 5.6 256.9 7.9 C 256.9 10.9 254.8 12.8 252.6 12.8 C 250.9 12.8 249.6 11.8 249.4 9.9 C 249.37 9.94 249.3 9.9 249.3 9.9 L 248.5 16.2 L 248.3 16.2 L 249.9 4.4 L 250.1 4.4 Z M 249.5 9.2 C 249.5 11.4 250.9 12.6 252.6 12.6 C 254.6 12.6 256.7 10.8 256.7 7.9 C 256.7 5.7 255.3 4.5 253.6 4.5 C 251.6 4.5 249.5 6.3 249.5 9.2 Z M 258.8 9.2 C 258.8 6.2 260.9 4.3 263.2 4.3 C 265.1 4.3 266.6 5.6 266.6 7.9 C 266.6 10.9 264.5 12.8 262.2 12.8 C 260.3 12.8 258.8 11.4 258.8 9.2 Z M 266.4 7.9 C 266.4 5.7 265 4.5 263.2 4.5 C 261 4.5 259 6.2 259 9.2 C 259 11.4 260.4 12.6 262.2 12.6 C 264.3 12.6 266.4 10.8 266.4 7.9 Z M 274.8 9.8 C 274.5 11.9 273.2 12.8 271.7 12.8 C 270 12.8 268.8 11.8 268.8 10.1 C 268.8 9.9 268.9 9.6 268.9 9.4 C 268.87 9.45 269.6 4.4 269.6 4.4 L 269.8 4.4 C 269.8 4.4 269.08 9.45 269.1 9.4 C 269.1 9.6 269 9.8 269 10.1 C 269 11.7 270.1 12.6 271.7 12.6 C 273.1 12.6 274.3 11.8 274.6 9.8 C 274.57 9.8 275.3 4.4 275.3 4.4 L 275.5 4.4 C 275.5 4.4 274.77 9.8 274.8 9.8 Z M 278.7 4.4 L 278.5 6.2 C 278.5 6.2 278.53 6.22 278.5 6.2 C 279.1 5 280.2 4.3 281.3 4.3 C 281.4 4.3 281.7 4.3 281.8 4.4 C 281.8 4.4 281.7 4.5 281.7 4.5 C 281.6 4.5 281.4 4.5 281.3 4.5 C 280 4.5 278.7 5.5 278.4 7.1 C 278.4 7.09 277.6 12.7 277.6 12.7 L 277.4 12.7 L 278.6 4.4 L 278.7 4.4 Z M 286.9 8.6 C 286.9 8.7 286.9 8.9 286.9 9.1 C 286.9 11.3 288.1 12.6 290.3 12.6 C 291.4 12.6 292.4 12.2 293.3 11.4 C 293.3 11.4 293.3 11.7 293.3 11.7 C 292.5 12.4 291.4 12.8 290.2 12.8 C 288 12.8 286.7 11.4 286.7 9.1 C 286.7 6.3 288.6 4.3 290.8 4.3 C 292.6 4.3 293.9 5.6 293.9 7.7 C 293.9 8 293.9 8.3 293.9 8.6 C 293.9 8.6 286.9 8.6 286.9 8.6 Z M 286.9 8.4 C 286.9 8.4 293.7 8.4 293.7 8.4 C 293.7 8.1 293.7 7.8 293.7 7.7 C 293.7 5.7 292.5 4.5 290.8 4.5 C 288.9 4.5 287.2 6 286.9 8.4 Z M 298.4 8.5 L 300.8 12.7 L 300.6 12.7 L 298.3 8.6 L 294.9 12.7 L 294.6 12.7 L 298.2 8.5 L 295.9 4.4 L 296.1 4.4 L 298.3 8.4 L 301.7 4.4 L 302 4.4 L 298.4 8.5 Z M 304.3 4.4 L 303.9 7.1 C 303.9 7.1 303.97 7.06 304 7.1 C 304.7 5.2 306.2 4.3 307.8 4.3 C 309.6 4.3 311.1 5.6 311.1 7.9 C 311.1 10.9 309 12.8 306.8 12.8 C 305.1 12.8 303.8 11.8 303.6 9.9 C 303.57 9.94 303.6 9.9 303.6 9.9 L 302.7 16.2 L 302.5 16.2 L 304.1 4.4 L 304.3 4.4 Z M 303.7 9.2 C 303.7 11.4 305.1 12.6 306.8 12.6 C 308.8 12.6 310.9 10.8 310.9 7.9 C 310.9 5.7 309.5 4.5 307.8 4.5 C 305.8 4.5 303.7 6.3 303.7 9.2 Z M 314.9 0.1 L 315.1 0.1 L 313.3 12.7 L 313.1 12.7 L 314.9 0.1 Z M 316.4 9.2 C 316.4 6.2 318.6 4.3 320.9 4.3 C 322.8 4.3 324.3 5.6 324.3 7.9 C 324.3 10.9 322.1 12.8 319.9 12.8 C 318 12.8 316.4 11.4 316.4 9.2 Z M 324.1 7.9 C 324.1 5.7 322.7 4.5 320.9 4.5 C 318.7 4.5 316.7 6.2 316.7 9.2 C 316.7 11.4 318.1 12.6 319.9 12.6 C 322 12.6 324.1 10.8 324.1 7.9 Z M 327.6 4.4 L 327.3 6.2 C 327.3 6.2 327.34 6.22 327.3 6.2 C 327.9 5 329 4.3 330.1 4.3 C 330.2 4.3 330.5 4.3 330.6 4.4 C 330.6 4.4 330.6 4.5 330.6 4.5 C 330.4 4.5 330.2 4.5 330.1 4.5 C 328.8 4.5 327.5 5.5 327.2 7.1 C 327.21 7.09 326.4 12.7 326.4 12.7 L 326.2 12.7 L 327.4 4.4 L 327.6 4.4 Z M 330.9 8.6 C 330.9 8.7 330.9 8.9 330.9 9.1 C 330.9 11.3 332.1 12.6 334.2 12.6 C 335.4 12.6 336.4 12.2 337.3 11.4 C 337.3 11.4 337.3 11.7 337.3 11.7 C 336.4 12.4 335.4 12.8 334.2 12.8 C 332 12.8 330.6 11.4 330.6 9.1 C 330.6 6.3 332.6 4.3 334.8 4.3 C 336.6 4.3 337.9 5.6 337.9 7.7 C 337.9 8 337.9 8.3 337.8 8.6 C 337.8 8.6 330.9 8.6 330.9 8.6 Z M 330.9 8.4 C 330.9 8.4 337.7 8.4 337.7 8.4 C 337.7 8.1 337.7 7.8 337.7 7.7 C 337.7 5.7 336.5 4.5 334.8 4.5 C 332.9 4.5 331.2 6 330.9 8.4 Z M 341.1 4.4 L 340.9 6.2 C 340.9 6.2 340.87 6.22 340.9 6.2 C 341.4 5 342.6 4.3 343.6 4.3 C 343.8 4.3 344 4.3 344.1 4.4 C 344.1 4.4 344.1 4.5 344.1 4.5 C 344 4.5 343.8 4.5 343.6 4.5 C 342.3 4.5 341.1 5.5 340.7 7.1 C 340.74 7.09 340 12.7 340 12.7 L 339.8 12.7 L 340.9 4.4 L 341.1 4.4 Z M 350.9 0.1 L 351.1 0.1 L 349.3 12.7 L 349.1 12.7 L 350.9 0.1 Z M 352.7 8.6 C 352.7 8.7 352.7 8.9 352.7 9.1 C 352.7 11.3 354 12.6 356.1 12.6 C 357.3 12.6 358.2 12.2 359.2 11.4 C 359.2 11.4 359.1 11.7 359.1 11.7 C 358.3 12.4 357.2 12.8 356.1 12.8 C 353.9 12.8 352.5 11.4 352.5 9.1 C 352.5 6.3 354.4 4.3 356.6 4.3 C 358.5 4.3 359.8 5.6 359.8 7.7 C 359.8 8 359.7 8.3 359.7 8.6 C 359.7 8.6 352.7 8.6 352.7 8.6 Z M 352.7 8.4 C 352.7 8.4 359.5 8.4 359.5 8.4 C 359.6 8.1 359.6 7.8 359.6 7.7 C 359.6 5.7 358.3 4.5 356.6 4.5 C 354.7 4.5 353 6 352.7 8.4 Z M 372.6 12.7 L 365.2 12.7 L 374.3 1.1 L 374.3 1.1 L 367.3 1.1 L 367.4 0.9 L 374.7 0.9 L 365.6 12.5 L 365.6 12.5 L 372.6 12.5 L 372.6 12.7 Z M 379 2.8 L 378.7 2.8 L 381 0.3 L 381.3 0.3 L 379 2.8 Z M 374.9 8.6 C 374.9 8.7 374.9 8.9 374.9 9.1 C 374.9 11.3 376.2 12.6 378.3 12.6 C 379.4 12.6 380.4 12.2 381.3 11.4 C 381.3 11.4 381.3 11.7 381.3 11.7 C 380.5 12.4 379.4 12.8 378.2 12.8 C 376 12.8 374.7 11.4 374.7 9.1 C 374.7 6.3 376.6 4.3 378.8 4.3 C 380.6 4.3 382 5.6 382 7.7 C 382 8 381.9 8.3 381.9 8.6 C 381.9 8.6 374.9 8.6 374.9 8.6 Z M 374.9 8.4 C 374.9 8.4 381.7 8.4 381.7 8.4 C 381.8 8.1 381.8 7.8 381.8 7.7 C 381.8 5.7 380.5 4.5 378.8 4.5 C 376.9 4.5 375.2 6 374.9 8.4 Z M 385.1 4.4 L 384.8 7.1 C 384.8 7.1 384.79 7.06 384.8 7.1 C 385.5 5.2 387 4.3 388.6 4.3 C 390.4 4.3 392 5.6 392 7.9 C 392 10.9 389.8 12.8 387.6 12.8 C 386 12.8 384.6 11.8 384.4 9.9 C 384.39 9.94 384.4 9.9 384.4 9.9 L 383.5 16.2 L 383.3 16.2 L 384.9 4.4 L 385.1 4.4 Z M 384.5 9.2 C 384.5 11.4 385.9 12.6 387.6 12.6 C 389.7 12.6 391.8 10.8 391.8 7.9 C 391.8 5.7 390.3 4.5 388.6 4.5 C 386.6 4.5 384.5 6.3 384.5 9.2 Z M 399.6 12.7 C 399.6 12.7 400.37 7.25 400.4 7.2 C 400.4 6.9 400.4 6.7 400.4 6.6 C 400.4 5.2 399.5 4.5 398 4.5 C 396.5 4.5 395.1 5.5 394.9 7 C 394.87 7.03 394.1 12.7 394.1 12.7 L 393.9 12.7 L 395.6 0.1 L 395.8 0.1 L 395 6 C 395 6 395.03 6.04 395 6 C 395.6 4.9 396.8 4.3 398.1 4.3 C 399.6 4.3 400.6 5.1 400.6 6.6 C 400.6 6.7 400.6 6.9 400.6 7.2 C 400.58 7.25 399.8 12.7 399.8 12.7 L 399.6 12.7 Z M 403.1 16.2 L 402.9 16.2 L 404.9 12.4 L 402.8 4.4 L 402.9 4.4 L 405 12.1 L 405.1 12.1 L 409.1 4.4 L 409.4 4.4 L 403.1 16.2 Z M 411.7 4.4 L 411.5 6.2 C 411.5 6.2 411.5 6.22 411.5 6.2 C 412.1 5 413.2 4.3 414.3 4.3 C 414.4 4.3 414.6 4.3 414.7 4.4 C 414.7 4.4 414.7 4.5 414.7 4.5 C 414.6 4.5 414.4 4.5 414.3 4.5 C 412.9 4.5 411.7 5.5 411.4 7.1 C 411.37 7.09 410.6 12.7 410.6 12.7 L 410.4 12.7 L 411.5 4.4 L 411.7 4.4 Z " stroke="none" fill="#000"/>
  </g>
</svg>