<?xml version="1.0" standalone="no"?>
<!DOCTYPE svg PUBLIC "-//W3C//DTD SVG 1.1//EN" "http://www.w3.org/Graphics/SVG/1.1/DTD/svg11.dtd">
<svg xmlns="http://www.w3.org/2000/svg" version="1.1" width="51.1px" height="13.4px" viewBox="0 0 51.1 13.4">
  <desc>Ecran</desc>
  <defs/>
  <g id="Polygon25068">
    <path d="M 0.8 0.4 L 3.6 0.4 L 3.6 0.9 L 1.3 0.9 L 1.3 2.8 L 3.4 2.8 L 3.4 3.3 L 1.3 3.3 L 1.3 5.3 L 3.6 5.3 L 3.6 5.8 L 0.8 5.8 L 0.8 0.4 Z M 6.3 5.4 C 6.6 5.4 7 5.3 7.4 5.1 C 7.4 5.1 7.4 5.6 7.4 5.6 C 7.1 5.7 6.7 5.9 6.3 5.9 C 5.2 5.9 4.4 5 4.4 3.8 C 4.4 2.7 5.2 1.8 6.3 1.8 C 6.7 1.8 7.1 1.9 7.4 2.1 C 7.4 2.1 7.4 2.6 7.4 2.6 C 7 2.4 6.7 2.3 6.3 2.3 C 5.6 2.3 4.9 2.9 4.9 3.8 C 4.9 4.8 5.6 5.4 6.3 5.4 Z M 8.4 1.9 L 8.8 1.9 L 8.9 2.5 C 8.9 2.5 8.87 2.53 8.9 2.5 C 9.1 2 9.6 1.9 10 1.9 C 10.1 1.9 10.2 1.9 10.2 1.9 C 10.2 1.9 10.2 2.4 10.2 2.4 C 10.2 2.3 10.1 2.3 10 2.3 C 9.5 2.3 8.9 2.7 8.9 3.5 C 8.9 3.46 8.9 5.8 8.9 5.8 L 8.4 5.8 L 8.4 1.9 Z M 10.6 3.8 C 10.6 2.6 11.5 1.8 12.4 1.8 C 12.9 1.8 13.5 2.1 13.8 2.7 C 13.79 2.66 13.9 1.9 13.9 1.9 L 14.3 1.9 L 14.3 5.8 L 13.9 5.8 C 13.9 5.8 13.79 5.01 13.8 5 C 13.5 5.6 12.9 5.9 12.4 5.9 C 11.5 5.9 10.6 5.1 10.6 3.8 Z M 13.8 3.8 C 13.8 2.9 13.2 2.3 12.4 2.3 C 11.7 2.3 11.1 2.9 11.1 3.8 C 11.1 4.8 11.7 5.4 12.4 5.4 C 13.2 5.4 13.8 4.8 13.8 3.8 Z M 18.6 3.2 C 18.59 3.22 18.6 5.8 18.6 5.8 L 18.1 5.8 C 18.1 5.8 18.1 3.43 18.1 3.4 C 18.1 2.7 17.8 2.3 17.1 2.3 C 16.5 2.3 16 2.8 16 3.4 C 16.04 3.38 16 5.8 16 5.8 L 15.5 5.8 L 15.5 1.9 L 15.9 1.9 L 16 2.5 C 16 2.5 16 2.5 16 2.5 C 16.2 2.1 16.6 1.8 17.2 1.8 C 18 1.8 18.6 2.4 18.6 3.2 Z " stroke="none" fill="#fff"/>
  </g>
</svg>