<?xml version="1.0" standalone="no"?>
<!DOCTYPE svg PUBLIC "-//W3C//DTD SVG 1.1//EN" "http://www.w3.org/Graphics/SVG/1.1/DTD/svg11.dtd">
<svg xmlns="http://www.w3.org/2000/svg" version="1.1" width="103px" height="13.6px" viewBox="0 0 103 13.6">
  <desc>5- Ceramic speaker, Nendo</desc>
  <defs/>
  <g id="Polygon24482">
    <path d="M 4.1 0.8 L 2.1 0.8 L 1.3 3 C 1.3 3 1.35 2.99 1.4 3 C 1.6 2.9 1.8 2.8 2.2 2.8 C 3.3 2.8 3.9 3.6 3.9 4.5 C 3.9 5.5 3.1 6.5 1.7 6.5 C 1.1 6.5 0.5 6.2 0.2 5.9 C 0.2 5.9 0.2 5.5 0.2 5.5 C 0.6 5.9 1.1 6.2 1.8 6.2 C 2.8 6.2 3.5 5.5 3.5 4.5 C 3.5 3.8 3.1 3.2 2.1 3.2 C 1.7 3.2 1.3 3.2 1 3.4 C 0.95 3.41 0.9 3.4 0.9 3.4 L 1.9 0.5 L 4.2 0.5 L 4.1 0.8 Z M 5.1 3.8 L 7 3.8 L 7 4.1 L 5.1 4.1 L 5.1 3.8 Z M 15.3 1.2 C 14.9 0.9 14.4 0.7 13.8 0.7 C 12.4 0.7 10.9 1.9 10.9 3.8 C 10.9 5.3 12 6.2 13.1 6.2 C 13.7 6.2 14.3 5.9 14.6 5.7 C 14.6 5.7 14.6 6.1 14.6 6.1 C 14.2 6.3 13.7 6.5 13 6.5 C 11.7 6.5 10.5 5.5 10.5 3.8 C 10.5 1.7 12.1 0.4 13.8 0.4 C 14.5 0.4 15 0.6 15.3 0.8 C 15.3 0.8 15.3 1.2 15.3 1.2 Z M 15.9 4.4 C 15.9 4.4 15.89 4.5 15.9 4.5 C 15.9 5.6 16.5 6.2 17.5 6.2 C 18 6.2 18.4 6 18.9 5.6 C 18.9 5.6 18.9 6 18.9 6 C 18.4 6.3 18 6.5 17.4 6.5 C 16.3 6.5 15.6 5.8 15.6 4.6 C 15.6 3.2 16.5 2.1 17.7 2.1 C 18.6 2.1 19.3 2.8 19.3 3.8 C 19.3 4 19.3 4.2 19.2 4.4 C 19.22 4.39 15.9 4.4 15.9 4.4 Z M 15.9 4.1 C 15.9 4.1 18.9 4.1 18.9 4.1 C 19 4 19 3.9 19 3.8 C 19 2.9 18.4 2.4 17.7 2.4 C 16.9 2.4 16.1 3 15.9 4.1 Z M 21 2.2 L 21 3 C 21 3 20.96 2.95 21 3 C 21.3 2.4 21.9 2.1 22.3 2.1 C 22.4 2.1 22.5 2.1 22.6 2.1 C 22.6 2.1 22.5 2.5 22.5 2.5 C 22.5 2.5 22.4 2.4 22.3 2.4 C 21.7 2.4 21 2.9 20.9 3.8 C 20.86 3.77 20.5 6.4 20.5 6.4 L 20.1 6.4 L 20.8 2.2 L 21 2.2 Z M 26.3 6.4 L 26 6.4 L 26.1 5.4 C 26.1 5.4 26.14 5.38 26.1 5.4 C 25.7 6.1 25.1 6.5 24.4 6.5 C 23.5 6.5 22.7 5.8 22.7 4.6 C 22.7 3.1 23.7 2.1 24.8 2.1 C 25.6 2.1 26.2 2.5 26.4 3.2 C 26.44 3.23 26.4 3.2 26.4 3.2 L 26.7 2.2 L 26.9 2.2 L 26.3 6.4 Z M 23 4.5 C 23 5.6 23.7 6.2 24.5 6.2 C 25.6 6.2 26.3 5.1 26.3 4 C 26.3 3 25.6 2.4 24.9 2.4 C 23.9 2.4 23 3.3 23 4.5 Z M 28.7 2.2 L 28.6 2.9 C 28.6 2.9 28.66 2.86 28.7 2.9 C 28.9 2.4 29.4 2.1 29.9 2.1 C 30.4 2.1 30.9 2.4 30.9 3 C 31.2 2.4 31.8 2.1 32.3 2.1 C 32.9 2.1 33.4 2.6 33.4 3.2 C 33.4 3.4 33.4 3.5 33.4 3.6 C 33.38 3.61 33 6.4 33 6.4 L 32.6 6.4 C 32.6 6.4 33.04 3.64 33 3.6 C 33.1 3.5 33.1 3.4 33.1 3.3 C 33.1 2.8 32.7 2.4 32.2 2.4 C 31.6 2.4 31.1 3 31 3.7 C 30.97 3.67 30.6 6.4 30.6 6.4 L 30.2 6.4 C 30.2 6.4 30.64 3.64 30.6 3.6 C 30.7 3.5 30.7 3.4 30.7 3.3 C 30.7 2.8 30.4 2.4 29.8 2.4 C 29.2 2.4 28.7 3 28.6 3.7 C 28.56 3.67 28.2 6.4 28.2 6.4 L 27.8 6.4 L 28.4 2.2 L 28.7 2.2 Z M 35.7 0.6 C 35.7 0.8 35.6 0.9 35.5 0.9 C 35.3 0.9 35.2 0.8 35.2 0.6 C 35.2 0.5 35.3 0.3 35.5 0.3 C 35.6 0.3 35.7 0.4 35.7 0.6 Z M 35.1 2.2 L 35.4 2.2 L 34.8 6.4 L 34.5 6.4 L 35.1 2.2 Z M 38.7 2.4 C 37.6 2.4 36.7 3.3 36.7 4.5 C 36.7 5.5 37.3 6.2 38.2 6.2 C 38.5 6.2 38.9 6.1 39.3 5.8 C 39.3 5.8 39.2 6.2 39.2 6.2 C 38.9 6.4 38.5 6.5 38.1 6.5 C 37.1 6.5 36.3 5.7 36.3 4.5 C 36.3 3.2 37.3 2.1 38.7 2.1 C 39.1 2.1 39.5 2.2 39.8 2.4 C 39.8 2.4 39.7 2.7 39.7 2.7 C 39.4 2.5 39.1 2.4 38.7 2.4 Z M 44.3 2.4 C 43.8 2.4 43.3 2.7 43.3 3.2 C 43.3 3.6 43.7 3.8 44.2 4.1 C 44.9 4.4 45.4 4.6 45.4 5.3 C 45.4 6 44.8 6.5 44 6.5 C 43.4 6.5 42.9 6.2 42.5 5.9 C 42.5 5.9 42.5 5.5 42.5 5.5 C 42.9 5.9 43.5 6.2 44 6.2 C 44.7 6.2 45.1 5.8 45.1 5.3 C 45.1 4.8 44.7 4.6 44 4.3 C 43.4 4.1 42.9 3.8 42.9 3.2 C 42.9 2.5 43.5 2.1 44.3 2.1 C 44.8 2.1 45.3 2.3 45.6 2.5 C 45.6 2.5 45.6 2.9 45.6 2.9 C 45.3 2.6 44.8 2.4 44.3 2.4 Z M 47.3 2.2 C 47.3 2.2 47.23 3.17 47.2 3.2 C 47.6 2.5 48.3 2.1 49 2.1 C 49.9 2.1 50.7 2.8 50.7 4 C 50.7 5.4 49.6 6.5 48.5 6.5 C 47.7 6.5 47.1 6 46.9 5.3 C 46.93 5.32 46.5 8.1 46.5 8.1 L 46.2 8.1 L 47.1 2.2 L 47.3 2.2 Z M 47 4.6 C 47 5.6 47.7 6.2 48.5 6.2 C 49.4 6.2 50.4 5.2 50.4 3.9 C 50.4 2.9 49.7 2.4 49 2.4 C 48 2.4 47 3.3 47 4.6 Z M 51.9 4.4 C 51.9 4.4 51.9 4.5 51.9 4.5 C 51.9 5.6 52.5 6.2 53.5 6.2 C 54 6.2 54.4 6 54.9 5.6 C 54.9 5.6 54.9 6 54.9 6 C 54.5 6.3 54 6.5 53.4 6.5 C 52.3 6.5 51.6 5.8 51.6 4.6 C 51.6 3.2 52.5 2.1 53.7 2.1 C 54.7 2.1 55.3 2.8 55.3 3.8 C 55.3 4 55.3 4.2 55.2 4.4 C 55.24 4.39 51.9 4.4 51.9 4.4 Z M 51.9 4.1 C 51.9 4.1 55 4.1 55 4.1 C 55 4 55 3.9 55 3.8 C 55 2.9 54.4 2.4 53.7 2.4 C 52.9 2.4 52.1 3 51.9 4.1 Z M 59.8 6.4 L 59.5 6.4 L 59.6 5.4 C 59.6 5.4 59.61 5.38 59.6 5.4 C 59.2 6.1 58.6 6.5 57.9 6.5 C 57 6.5 56.2 5.8 56.2 4.6 C 56.2 3.1 57.2 2.1 58.3 2.1 C 59.1 2.1 59.7 2.5 59.9 3.2 C 59.91 3.23 59.9 3.2 59.9 3.2 L 60.1 2.2 L 60.4 2.2 L 59.8 6.4 Z M 56.5 4.5 C 56.5 5.6 57.2 6.2 58 6.2 C 59 6.2 59.8 5.1 59.8 4 C 59.8 3 59.1 2.4 58.4 2.4 C 57.4 2.4 56.5 3.3 56.5 4.5 Z M 62.4 4.1 L 64.4 6.4 L 64 6.4 L 62 4.1 L 61.6 6.4 L 61.3 6.4 L 62.2 0 L 62.6 0 L 62 4.1 L 64.4 2.2 L 64.9 2.2 L 62.4 4.1 Z M 65.3 4.4 C 65.3 4.4 65.3 4.5 65.3 4.5 C 65.3 5.6 65.9 6.2 66.9 6.2 C 67.4 6.2 67.8 6 68.3 5.6 C 68.3 5.6 68.3 6 68.3 6 C 67.9 6.3 67.4 6.5 66.8 6.5 C 65.7 6.5 65 5.8 65 4.6 C 65 3.2 65.9 2.1 67.1 2.1 C 68.1 2.1 68.7 2.8 68.7 3.8 C 68.7 4 68.7 4.2 68.6 4.4 C 68.64 4.39 65.3 4.4 65.3 4.4 Z M 65.3 4.1 C 65.3 4.1 68.4 4.1 68.4 4.1 C 68.4 4 68.4 3.9 68.4 3.8 C 68.4 2.9 67.8 2.4 67.1 2.4 C 66.3 2.4 65.5 3 65.3 4.1 Z M 70.4 2.2 L 70.4 3 C 70.4 3 70.38 2.95 70.4 3 C 70.7 2.4 71.3 2.1 71.7 2.1 C 71.8 2.1 71.9 2.1 72 2.1 C 72 2.1 72 2.5 72 2.5 C 71.9 2.5 71.8 2.4 71.7 2.4 C 71.1 2.4 70.4 2.9 70.3 3.8 C 70.27 3.77 69.9 6.4 69.9 6.4 L 69.6 6.4 L 70.2 2.2 L 70.4 2.2 Z M 72.3 5.7 C 72.2 6.3 71.9 6.9 71.5 7.5 C 71.5 7.5 71.2 7.5 71.2 7.5 C 71.6 7 71.8 6.4 71.9 5.7 C 72 5.6 72 5.5 72 5.5 C 72 5.5 72.3 5.5 72.3 5.5 C 72.3 5.5 72.3 5.6 72.3 5.7 Z M 80.4 6.4 L 80.1 6.4 L 77.2 1 L 77.2 1 L 76.4 6.4 L 76.1 6.4 L 77 0.5 L 77.3 0.5 L 80.2 5.8 L 80.2 5.8 L 81 0.5 L 81.3 0.5 L 80.4 6.4 Z M 82.4 4.4 C 82.4 4.4 82.42 4.5 82.4 4.5 C 82.4 5.6 83.1 6.2 84 6.2 C 84.5 6.2 85 6 85.4 5.6 C 85.4 5.6 85.4 6 85.4 6 C 85 6.3 84.5 6.5 83.9 6.5 C 82.8 6.5 82.1 5.8 82.1 4.6 C 82.1 3.2 83 2.1 84.2 2.1 C 85.2 2.1 85.8 2.8 85.8 3.8 C 85.8 4 85.8 4.2 85.8 4.4 C 85.76 4.39 82.4 4.4 82.4 4.4 Z M 82.5 4.1 C 82.5 4.1 85.5 4.1 85.5 4.1 C 85.5 4 85.5 3.9 85.5 3.8 C 85.5 2.9 84.9 2.4 84.2 2.4 C 83.4 2.4 82.6 3 82.5 4.1 Z M 87.6 2.2 L 87.5 2.9 C 87.5 2.9 87.5 2.9 87.5 2.9 C 87.8 2.4 88.3 2.1 89 2.1 C 89.7 2.1 90.3 2.6 90.3 3.4 C 90.3 3.4 90.3 3.5 90.3 3.7 C 90.27 3.68 89.9 6.4 89.9 6.4 L 89.5 6.4 C 89.5 6.4 89.94 3.71 89.9 3.7 C 90 3.6 90 3.5 90 3.4 C 90 2.8 89.5 2.4 88.9 2.4 C 88.1 2.4 87.5 3 87.4 3.7 C 87.4 3.72 87 6.4 87 6.4 L 86.7 6.4 L 87.3 2.2 L 87.6 2.2 Z M 94.9 6.4 L 94.7 6.4 C 94.7 6.4 94.77 5.37 94.8 5.4 C 94.4 6.1 93.7 6.5 93 6.5 C 92.1 6.5 91.3 5.8 91.3 4.6 C 91.3 3.2 92.4 2.1 93.5 2.1 C 94.3 2.1 94.9 2.5 95.1 3.2 C 95.06 3.22 95.5 0 95.5 0 L 95.9 0 L 94.9 6.4 Z M 91.6 4.6 C 91.6 5.6 92.3 6.2 93 6.2 C 94 6.2 94.9 5.3 94.9 4 C 94.9 3 94.4 2.4 93.5 2.4 C 92.6 2.4 91.6 3.3 91.6 4.6 Z M 96.4 4.6 C 96.4 3.1 97.5 2.1 98.7 2.1 C 99.8 2.1 100.5 2.8 100.5 4 C 100.5 5.4 99.5 6.5 98.2 6.5 C 97.2 6.5 96.4 5.7 96.4 4.6 Z M 100.2 4 C 100.2 3 99.6 2.4 98.7 2.4 C 97.7 2.4 96.8 3.3 96.8 4.6 C 96.8 5.6 97.4 6.2 98.2 6.2 C 99.3 6.2 100.2 5.3 100.2 4 Z " stroke="none" fill="#000"/>
  </g>
</svg>