<?xml version="1.0" standalone="no"?>
<!DOCTYPE svg PUBLIC "-//W3C//DTD SVG 1.1//EN" "http://www.w3.org/Graphics/SVG/1.1/DTD/svg11.dtd">
<svg xmlns="http://www.w3.org/2000/svg" version="1.1" width="115.2px" height="34.1px" viewBox="0 0 115.2 34.1">
  <desc>TABLETTE</desc>
  <defs/>
  <g id="Polygon30197">
    <path d="M 4.6 5.1 L 0.4 5.1 L 0.4 1.1 L 13.2 1.1 L 13.2 5.1 L 9 5.1 L 9 16.3 L 4.6 16.3 L 4.6 5.1 Z M 23.3 16.3 L 22.3 13.3 L 17.3 13.3 L 16.3 16.3 L 11.8 16.3 L 17.2 1.1 L 22.4 1.1 L 27.9 16.3 L 23.3 16.3 Z M 18.4 9.7 L 21.1 9.7 L 19.8 5.6 L 18.4 9.7 Z M 29.2 1.1 C 29.2 1.1 35.66 1.08 35.7 1.1 C 39.3 1.1 41.2 2.9 41.2 5.2 C 41.2 6.8 40.3 7.9 39 8.5 C 39 8.5 39 8.5 39 8.5 C 40.6 9.1 41.5 10.3 41.5 12 C 41.5 14.3 39.7 16.3 35.9 16.3 C 35.92 16.26 29.2 16.3 29.2 16.3 L 29.2 1.1 Z M 35.5 7.1 C 36.5 7.1 37 6.5 37 5.9 C 37 5.3 36.5 4.8 35.5 4.8 C 35.45 4.76 33.5 4.8 33.5 4.8 L 33.5 7.1 C 33.5 7.1 35.45 7.09 35.5 7.1 Z M 35.5 12.6 C 36.7 12.6 37.2 12 37.2 11.3 C 37.2 10.6 36.6 10.1 35.5 10.1 C 35.54 10.06 33.5 10.1 33.5 10.1 L 33.5 12.6 C 33.5 12.6 35.52 12.58 35.5 12.6 Z M 43.4 1.1 L 47.9 1.1 L 47.9 12.3 L 53.8 12.3 L 53.8 16.3 L 43.4 16.3 L 43.4 1.1 Z M 55.5 1.1 L 66 1.1 L 66 5 L 60 5 L 60 6.9 L 65.4 6.9 L 65.4 10.4 L 60 10.4 L 60 12.3 L 66 12.3 L 66 16.3 L 55.5 16.3 L 55.5 1.1 Z M 71.6 5.1 L 67.4 5.1 L 67.4 1.1 L 80.2 1.1 L 80.2 5.1 L 76 5.1 L 76 16.3 L 71.6 16.3 L 71.6 5.1 Z M 85.1 5.1 L 80.9 5.1 L 80.9 1.1 L 93.7 1.1 L 93.7 5.1 L 89.5 5.1 L 89.5 16.3 L 85.1 16.3 L 85.1 5.1 Z M 95.4 1.1 L 105.9 1.1 L 105.9 5 L 99.8 5 L 99.8 6.9 L 105.2 6.9 L 105.2 10.4 L 99.8 10.4 L 99.8 12.3 L 105.9 12.3 L 105.9 16.3 L 95.4 16.3 L 95.4 1.1 Z " stroke="none" fill="#444443"/>
  </g>
</svg>