<?xml version="1.0" standalone="no"?>
<!DOCTYPE svg PUBLIC "-//W3C//DTD SVG 1.1//EN" "http://www.w3.org/Graphics/SVG/1.1/DTD/svg11.dtd">
<svg xmlns="http://www.w3.org/2000/svg" version="1.1" width="134.1px" height="15.8px" viewBox="0 0 134.1 15.8">
  <desc>Spirale accoustique</desc>
  <defs/>
  <g id="Polygon26661">
    <path d="M 4.1 0.9 C 4.1 0.9 4.1 1.3 4.1 1.3 C 3.7 0.9 3.1 0.8 2.6 0.8 C 1.8 0.8 1.1 1.3 1.1 2.1 C 1.1 2.8 1.7 3.2 2.7 3.6 C 3.7 4.1 4.4 4.5 4.4 5.5 C 4.4 6.6 3.5 7.4 2.4 7.4 C 1.7 7.4 1 7.1 0.6 6.7 C 0.6 6.7 0.6 6.2 0.6 6.2 C 1.1 6.7 1.7 7 2.4 7 C 3.3 7 4.1 6.4 4.1 5.6 C 4.1 4.8 3.4 4.4 2.4 3.9 C 1.4 3.5 0.7 3.1 0.7 2.1 C 0.7 1 1.5 0.4 2.6 0.4 C 3.2 0.4 3.7 0.6 4.1 0.9 Z M 5.8 2.4 L 6.1 2.4 C 6.1 2.4 6.18 3.65 6.2 3.6 C 6.5 2.8 7.3 2.4 8.1 2.4 C 9.2 2.4 10.3 3.3 10.3 4.8 C 10.3 6.4 9.2 7.3 8.1 7.3 C 7.3 7.3 6.5 6.9 6.2 6.1 C 6.2 6.08 6.2 9.2 6.2 9.2 L 5.8 9.2 L 5.8 2.4 Z M 9.9 4.8 C 9.9 3.5 9 2.7 8 2.7 C 7 2.7 6.2 3.5 6.2 4.8 C 6.2 6.1 7 7 8 7 C 9 7 9.9 6.1 9.9 4.8 Z M 11.6 0.7 C 11.6 0.5 11.7 0.4 11.9 0.4 C 12 0.4 12.2 0.5 12.2 0.7 C 12.2 0.9 12 1 11.9 1 C 11.7 1 11.6 0.9 11.6 0.7 Z M 11.7 2.4 L 12.1 2.4 L 12.1 7.2 L 11.7 7.2 L 11.7 2.4 Z M 13.8 2.4 L 14.1 2.4 L 14.1 3.3 C 14.1 3.3 14.15 3.33 14.2 3.3 C 14.4 2.7 15.1 2.4 15.6 2.4 C 15.7 2.4 15.8 2.4 15.9 2.4 C 15.9 2.4 15.9 2.8 15.9 2.8 C 15.8 2.8 15.7 2.8 15.6 2.8 C 14.9 2.8 14.2 3.2 14.2 4.2 C 14.18 4.2 14.2 7.2 14.2 7.2 L 13.8 7.2 L 13.8 2.4 Z M 16.3 4.8 C 16.3 3.3 17.4 2.4 18.5 2.4 C 19.3 2.4 20 2.8 20.4 3.6 C 20.38 3.64 20.4 2.4 20.4 2.4 L 20.7 2.4 L 20.7 7.2 L 20.4 7.2 C 20.4 7.2 20.38 6.04 20.4 6 C 20 6.9 19.3 7.3 18.5 7.3 C 17.4 7.3 16.3 6.4 16.3 4.8 Z M 20.4 4.8 C 20.4 3.5 19.5 2.7 18.5 2.7 C 17.5 2.7 16.7 3.5 16.7 4.8 C 16.7 6.1 17.5 7 18.5 7 C 19.5 7 20.4 6.1 20.4 4.8 Z M 22.5 0 L 22.9 0 L 22.9 7.2 L 22.5 7.2 L 22.5 0 Z M 28.5 5 C 28.5 5 24.7 5 24.7 5 C 24.7 6.2 25.5 7 26.6 7 C 27.2 7 27.8 6.8 28.3 6.3 C 28.3 6.3 28.3 6.7 28.3 6.7 C 27.8 7.1 27.2 7.3 26.6 7.3 C 25.2 7.3 24.3 6.4 24.3 4.9 C 24.3 3.3 25.3 2.4 26.5 2.4 C 27.6 2.4 28.5 3.2 28.5 4.7 C 28.5 4.8 28.5 4.9 28.5 5 Z M 28.1 4.6 C 28.1 3.3 27.3 2.7 26.5 2.7 C 25.6 2.7 24.7 3.4 24.7 4.6 C 24.7 4.6 28.1 4.6 28.1 4.6 Z M 32.1 4.8 C 32.1 3.3 33.2 2.4 34.3 2.4 C 35.1 2.4 35.8 2.8 36.2 3.6 C 36.2 3.64 36.3 2.4 36.3 2.4 L 36.6 2.4 L 36.6 7.2 L 36.3 7.2 C 36.3 7.2 36.2 6.04 36.2 6 C 35.8 6.9 35.1 7.3 34.3 7.3 C 33.2 7.3 32.1 6.4 32.1 4.8 Z M 36.2 4.8 C 36.2 3.5 35.3 2.7 34.3 2.7 C 33.3 2.7 32.5 3.5 32.5 4.8 C 32.5 6.1 33.4 7 34.4 7 C 35.3 7 36.2 6.1 36.2 4.8 Z M 40.3 7 C 40.6 7 41.1 6.9 41.5 6.6 C 41.5 6.6 41.5 7 41.5 7 C 41.2 7.2 40.7 7.3 40.3 7.3 C 39 7.3 37.9 6.3 37.9 4.8 C 37.9 3.4 38.9 2.4 40.2 2.4 C 40.7 2.4 41.1 2.4 41.5 2.7 C 41.5 2.7 41.5 3.1 41.5 3.1 C 41.1 2.8 40.7 2.7 40.2 2.7 C 39.2 2.7 38.3 3.5 38.3 4.8 C 38.3 6.1 39.2 7 40.3 7 Z M 44.8 7 C 45.1 7 45.6 6.9 46.1 6.6 C 46.1 6.6 46.1 7 46.1 7 C 45.7 7.2 45.2 7.3 44.8 7.3 C 43.5 7.3 42.4 6.3 42.4 4.8 C 42.4 3.4 43.4 2.4 44.7 2.4 C 45.2 2.4 45.6 2.4 46.1 2.7 C 46.1 2.7 46.1 3.1 46.1 3.1 C 45.6 2.8 45.2 2.7 44.7 2.7 C 43.7 2.7 42.8 3.5 42.8 4.8 C 42.8 6.1 43.7 7 44.8 7 Z M 46.9 4.8 C 46.9 3.4 48 2.4 49.2 2.4 C 50.5 2.4 51.5 3.4 51.5 4.8 C 51.5 6.3 50.5 7.3 49.2 7.3 C 48 7.3 46.9 6.3 46.9 4.8 Z M 51.1 4.8 C 51.1 3.5 50.2 2.7 49.2 2.7 C 48.2 2.7 47.3 3.5 47.3 4.8 C 47.3 6.2 48.3 7 49.2 7 C 50.2 7 51.1 6.2 51.1 4.8 Z M 52.8 5.5 C 52.84 5.5 52.8 2.4 52.8 2.4 L 53.2 2.4 C 53.2 2.4 53.21 5.52 53.2 5.5 C 53.2 6.4 53.8 7 54.6 7 C 55.5 7 56.1 6.4 56.1 5.5 C 56.08 5.51 56.1 2.4 56.1 2.4 L 56.5 2.4 C 56.5 2.4 56.46 5.49 56.5 5.5 C 56.5 6.6 55.8 7.3 54.6 7.3 C 53.5 7.3 52.8 6.6 52.8 5.5 Z M 60.8 2.8 C 60.8 2.8 60.8 3.2 60.8 3.2 C 60.4 2.9 60 2.7 59.4 2.7 C 58.7 2.7 58.2 3.1 58.2 3.6 C 58.2 4.2 58.7 4.4 59.5 4.6 C 60.3 4.9 61 5.1 61 6 C 61 6.8 60.4 7.3 59.4 7.3 C 58.8 7.3 58.2 7.1 57.8 6.8 C 57.8 6.8 57.8 6.3 57.8 6.3 C 58.2 6.7 58.8 7 59.4 7 C 60.2 7 60.7 6.6 60.7 6 C 60.7 5.4 60.1 5.2 59.3 4.9 C 58.5 4.7 57.9 4.4 57.9 3.6 C 57.9 2.9 58.5 2.4 59.4 2.4 C 59.9 2.4 60.4 2.5 60.8 2.8 Z M 62.9 2.4 L 64.3 2.4 L 64.3 2.8 L 62.9 2.8 C 62.9 2.8 62.87 5.73 62.9 5.7 C 62.9 6.6 63.3 6.9 64 6.9 C 64.2 6.9 64.3 6.9 64.4 6.9 C 64.4 6.9 64.4 7.3 64.4 7.3 C 64.4 7.3 64.2 7.3 64 7.3 C 63.1 7.3 62.5 6.8 62.5 5.8 C 62.49 5.75 62.5 2.8 62.5 2.8 L 61.7 2.8 L 61.7 2.4 L 62.5 2.4 L 62.5 1.3 L 62.9 1.3 L 62.9 2.4 Z M 65.4 0.7 C 65.4 0.5 65.5 0.4 65.7 0.4 C 65.9 0.4 66 0.5 66 0.7 C 66 0.9 65.9 1 65.7 1 C 65.5 1 65.4 0.9 65.4 0.7 Z M 65.5 2.4 L 65.9 2.4 L 65.9 7.2 L 65.5 7.2 L 65.5 2.4 Z M 71.4 3.7 C 71.36 3.65 71.4 2.4 71.4 2.4 L 71.7 2.4 L 71.7 9.2 L 71.3 9.2 C 71.3 9.2 71.33 6.07 71.3 6.1 C 71 6.9 70.2 7.3 69.5 7.3 C 68.3 7.3 67.3 6.4 67.3 4.8 C 67.3 3.3 68.3 2.4 69.5 2.4 C 70.2 2.4 71 2.8 71.4 3.7 Z M 67.6 4.8 C 67.6 6.1 68.5 7 69.5 7 C 70.5 7 71.3 6.1 71.3 4.8 C 71.3 3.5 70.5 2.7 69.5 2.7 C 68.5 2.7 67.6 3.5 67.6 4.8 Z M 73.4 5.5 C 73.37 5.5 73.4 2.4 73.4 2.4 L 73.7 2.4 C 73.7 2.4 73.74 5.52 73.7 5.5 C 73.7 6.4 74.3 7 75.2 7 C 76 7 76.6 6.4 76.6 5.5 C 76.61 5.51 76.6 2.4 76.6 2.4 L 77 2.4 C 77 2.4 76.99 5.49 77 5.5 C 77 6.6 76.3 7.3 75.2 7.3 C 74.1 7.3 73.4 6.6 73.4 5.5 Z M 82.5 5 C 82.5 5 78.7 5 78.7 5 C 78.8 6.2 79.5 7 80.6 7 C 81.2 7 81.8 6.8 82.3 6.3 C 82.3 6.3 82.3 6.7 82.3 6.7 C 81.8 7.1 81.2 7.3 80.6 7.3 C 79.3 7.3 78.3 6.4 78.3 4.9 C 78.3 3.3 79.4 2.4 80.5 2.4 C 81.6 2.4 82.5 3.2 82.5 4.7 C 82.5 4.8 82.5 4.9 82.5 5 Z M 82.1 4.6 C 82.1 3.3 81.4 2.7 80.5 2.7 C 79.6 2.7 78.8 3.4 78.7 4.6 C 78.7 4.6 82.1 4.6 82.1 4.6 Z " stroke="none" fill="#000"/>
  </g>
</svg>