<?xml version="1.0" standalone="no"?>
<!DOCTYPE svg PUBLIC "-//W3C//DTD SVG 1.1//EN" "http://www.w3.org/Graphics/SVG/1.1/DTD/svg11.dtd">
<svg xmlns="http://www.w3.org/2000/svg" version="1.1" width="162px" height="29.4px" viewBox="0 0 162 29.4">
  <desc>ENCOMBREMENT</desc>
  <defs/>
  <g id="Polygon27051">
    <path d="M 1.1 0.9 L 9.9 0.9 L 9.9 4.2 L 4.8 4.2 L 4.8 5.7 L 9.4 5.7 L 9.4 8.7 L 4.8 8.7 L 4.8 10.3 L 9.9 10.3 L 9.9 13.6 L 1.1 13.6 L 1.1 0.9 Z M 23.4 13.6 L 19.9 13.6 L 15.3 6.8 L 15.3 6.8 L 15.3 13.6 L 11.8 13.6 L 11.8 0.9 L 15.3 0.9 L 19.9 7.6 L 19.9 7.6 L 19.9 0.9 L 23.4 0.9 L 23.4 13.6 Z M 31.7 13.9 C 28 13.9 25 11.2 25 7.3 C 25 3.3 28 0.6 31.7 0.6 C 33.2 0.6 34.3 1 35.3 1.5 C 35.3 1.5 35.3 5.1 35.3 5.1 C 34.3 4.3 33.4 4 32.2 4 C 30.2 4 28.8 5.4 28.8 7.3 C 28.8 9.1 30.2 10.5 32.2 10.5 C 33.4 10.5 34.3 10.1 35.3 9.4 C 35.3 9.4 35.3 13 35.3 13 C 34.3 13.5 33.2 13.9 31.7 13.9 Z M 36.4 7.2 C 36.4 3.3 39.4 0.6 43.2 0.6 C 47 0.6 49.9 3.3 49.9 7.2 C 49.9 11.2 47 13.9 43.2 13.9 C 39.4 13.9 36.4 11.2 36.4 7.2 Z M 46.2 7.2 C 46.2 5.1 44.7 3.9 43.2 3.9 C 41.6 3.9 40.2 5.1 40.2 7.2 C 40.2 9.4 41.6 10.6 43.2 10.6 C 44.7 10.6 46.2 9.4 46.2 7.2 Z M 54.2 13.6 L 50.7 13.6 L 52.4 0.9 L 56.8 0.9 L 58.8 8 L 58.8 8 L 60.8 0.9 L 65 0.9 L 66.7 13.6 L 63.2 13.6 L 62.5 5.9 L 62.4 5.9 L 60.2 13.6 L 57.1 13.6 L 55 5.9 L 55 5.9 L 54.2 13.6 Z M 68.3 0.9 C 68.3 0.9 73.71 0.9 73.7 0.9 C 76.7 0.9 78.3 2.5 78.3 4.4 C 78.3 5.7 77.6 6.6 76.5 7.1 C 76.5 7.1 76.5 7.1 76.5 7.1 C 77.9 7.6 78.6 8.7 78.6 10 C 78.6 11.9 77.1 13.6 73.9 13.6 C 73.93 13.6 68.3 13.6 68.3 13.6 L 68.3 0.9 Z M 73.5 5.9 C 74.4 5.9 74.9 5.5 74.9 5 C 74.9 4.5 74.4 4 73.5 4 C 73.54 3.98 71.9 4 71.9 4 L 71.9 5.9 C 71.9 5.9 73.54 5.93 73.5 5.9 Z M 73.6 10.5 C 74.5 10.5 75 10.1 75 9.5 C 75 8.9 74.5 8.4 73.6 8.4 C 73.61 8.41 71.9 8.4 71.9 8.4 L 71.9 10.5 C 71.9 10.5 73.59 10.52 73.6 10.5 Z M 90.8 13.6 L 86.4 13.6 L 84 9.7 L 83.9 9.7 L 83.9 13.6 L 80.2 13.6 L 80.2 0.9 C 80.2 0.9 84.74 0.9 84.7 0.9 C 87.9 0.9 90.1 2.3 90.1 5.3 C 90.1 6.5 89.6 8.2 87.5 9.1 C 87.5 9.13 90.8 13.6 90.8 13.6 Z M 84.7 6.9 C 85.7 6.9 86.4 6.5 86.4 5.6 C 86.4 4.7 85.7 4.2 84.7 4.2 C 84.71 4.25 83.9 4.2 83.9 4.2 L 83.9 6.9 C 83.9 6.9 84.73 6.9 84.7 6.9 Z M 92 0.9 L 100.8 0.9 L 100.8 4.2 L 95.7 4.2 L 95.7 5.7 L 100.3 5.7 L 100.3 8.7 L 95.7 8.7 L 95.7 10.3 L 100.8 10.3 L 100.8 13.6 L 92 13.6 L 92 0.9 Z M 105.6 13.6 L 102.1 13.6 L 103.8 0.9 L 108.1 0.9 L 110.1 8 L 110.2 8 L 112.1 0.9 L 116.3 0.9 L 118.1 13.6 L 114.6 13.6 L 113.8 5.9 L 113.8 5.9 L 111.6 13.6 L 108.5 13.6 L 106.4 5.9 L 106.3 5.9 L 105.6 13.6 Z M 119.6 0.9 L 128.4 0.9 L 128.4 4.2 L 123.3 4.2 L 123.3 5.7 L 127.9 5.7 L 127.9 8.7 L 123.3 8.7 L 123.3 10.3 L 128.4 10.3 L 128.4 13.6 L 119.6 13.6 L 119.6 0.9 Z M 142 13.6 L 138.4 13.6 L 133.9 6.8 L 133.8 6.8 L 133.8 13.6 L 130.3 13.6 L 130.3 0.9 L 133.9 0.9 L 138.4 7.6 L 138.4 7.6 L 138.4 0.9 L 142 0.9 L 142 13.6 Z M 146.9 4.2 L 143.4 4.2 L 143.4 0.9 L 154.1 0.9 L 154.1 4.2 L 150.6 4.2 L 150.6 13.6 L 146.9 13.6 L 146.9 4.2 Z " stroke="none" fill="#444443"/>
  </g>
</svg>