<?xml version="1.0" standalone="no"?>
<!DOCTYPE svg PUBLIC "-//W3C//DTD SVG 1.1//EN" "http://www.w3.org/Graphics/SVG/1.1/DTD/svg11.dtd">
<svg xmlns="http://www.w3.org/2000/svg" version="1.1" width="305.4px" height="123.7px" viewBox="0 0 305.4 123.7">
  <desc>b nisterie TALEC</desc>
  <defs/>
  <g id="Polygon30800">
    <path d="M 2.3 10.1 L 12.4 10.1 L 12.4 12 L 4.3 12 L 4.3 17.5 L 12.3 17.5 L 12.3 19.4 L 4.3 19.4 L 4.3 25 L 12.6 25 L 12.6 26.9 L 2.3 26.9 L 2.3 10.1 Z M 10.4 5.5 L 8.4 8.3 L 6.7 8.3 L 8.3 5.5 L 10.4 5.5 Z M 18.2 26.9 L 16.3 26.9 L 16.3 10.1 L 18.2 10.1 L 18.2 16.8 C 18.2 16.8 18.5 16.85 18.5 16.8 C 18.9 16.1 19.5 15.6 20.2 15.2 C 21 14.8 21.8 14.6 22.6 14.6 C 23.4 14.6 24.1 14.8 24.7 15 C 25.4 15.3 26 15.7 26.5 16.2 C 27 16.7 27.4 17.4 27.7 18.1 C 28 18.9 28.1 19.7 28.1 20.7 C 28.1 20.7 28.1 21.2 28.1 21.2 C 28.1 22.1 28 23 27.7 23.8 C 27.4 24.5 27 25.1 26.5 25.7 C 26 26.2 25.4 26.6 24.7 26.8 C 24 27.1 23.3 27.2 22.6 27.2 C 22.2 27.2 21.8 27.2 21.4 27.1 C 21 27 20.6 26.9 20.3 26.7 C 19.9 26.5 19.6 26.3 19.3 26 C 19 25.7 18.7 25.4 18.5 25.1 C 18.5 25.06 18.2 25.1 18.2 25.1 L 18.2 26.9 Z M 22.2 25.4 C 22.8 25.4 23.3 25.3 23.8 25.1 C 24.3 24.9 24.7 24.7 25 24.3 C 25.4 23.9 25.7 23.5 25.9 22.9 C 26.1 22.4 26.2 21.8 26.2 21.2 C 26.2 21.2 26.2 20.7 26.2 20.7 C 26.2 20 26.1 19.5 25.9 18.9 C 25.7 18.4 25.4 18 25 17.6 C 24.7 17.2 24.3 16.9 23.8 16.7 C 23.3 16.5 22.8 16.4 22.2 16.4 C 21.6 16.4 21.1 16.5 20.6 16.7 C 20.2 17 19.7 17.3 19.4 17.6 C 19 18 18.7 18.5 18.5 19 C 18.3 19.6 18.2 20.1 18.2 20.8 C 18.2 20.8 18.2 21.1 18.2 21.1 C 18.2 21.7 18.3 22.3 18.5 22.9 C 18.7 23.4 19 23.9 19.4 24.2 C 19.7 24.6 20.2 24.9 20.6 25.1 C 21.1 25.3 21.6 25.4 22.2 25.4 Z M 32.8 21.5 C 32.9 22.7 33.2 23.6 33.9 24.4 C 34.6 25.1 35.6 25.4 36.8 25.4 C 37.4 25.4 37.9 25.4 38.3 25.2 C 38.7 25.1 39.1 24.9 39.3 24.7 C 39.6 24.5 39.9 24.2 40.1 23.9 C 40.3 23.6 40.4 23.3 40.5 23 C 40.5 23 42.3 23.5 42.3 23.5 C 42 24.6 41.3 25.5 40.4 26.2 C 39.5 26.9 38.3 27.2 36.8 27.2 C 35.9 27.2 35.1 27.1 34.4 26.8 C 33.7 26.5 33.1 26.1 32.6 25.5 C 32.1 25 31.7 24.3 31.4 23.6 C 31.1 22.8 31 22 31 21.1 C 31 21.1 31 20.5 31 20.5 C 31 19.7 31.1 18.9 31.4 18.2 C 31.7 17.4 32.1 16.8 32.6 16.3 C 33.2 15.8 33.8 15.4 34.5 15.1 C 35.2 14.8 36 14.6 36.8 14.6 C 37.8 14.6 38.6 14.8 39.3 15.2 C 40.1 15.5 40.6 16 41.1 16.5 C 41.6 17 41.9 17.6 42.1 18.2 C 42.3 18.9 42.4 19.4 42.4 20 C 42.43 19.97 42.4 21.5 42.4 21.5 C 42.4 21.5 32.83 21.5 32.8 21.5 Z M 36.8 16.4 C 36.3 16.4 35.8 16.5 35.3 16.7 C 34.9 16.8 34.5 17.1 34.1 17.4 C 33.8 17.7 33.5 18 33.3 18.4 C 33.1 18.9 32.9 19.3 32.9 19.8 C 32.9 19.8 40.6 19.8 40.6 19.8 C 40.5 19.3 40.4 18.8 40.2 18.4 C 40 18 39.7 17.6 39.3 17.3 C 39 17 38.6 16.8 38.2 16.7 C 37.7 16.5 37.3 16.4 36.8 16.4 Z M 39.7 10.4 L 37.7 13.2 L 35.9 13.2 L 37.5 10.4 L 39.7 10.4 Z M 48 26.9 L 46.2 26.9 L 46.2 15 L 48 15 L 48 17 C 48 17 48.31 16.99 48.3 17 C 49 15.4 50.3 14.6 52.2 14.6 C 53.5 14.6 54.6 15.1 55.4 15.9 C 56.3 16.8 56.7 18.1 56.7 19.8 C 56.66 19.78 56.7 26.9 56.7 26.9 L 54.8 26.9 C 54.8 26.9 54.79 20.16 54.8 20.2 C 54.8 18.9 54.5 18 54 17.4 C 53.4 16.7 52.6 16.4 51.7 16.4 C 50.5 16.4 49.6 16.8 49 17.6 C 48.3 18.4 48 19.4 48 20.7 C 48.02 20.69 48 26.9 48 26.9 Z M 64.5 11.4 C 64.5 11 64.7 10.6 65 10.2 C 65.4 9.9 65.8 9.7 66.2 9.7 C 66.7 9.7 67.1 9.9 67.4 10.2 C 67.7 10.6 67.9 11 67.9 11.4 C 67.9 11.9 67.7 12.3 67.4 12.6 C 67.1 12.9 66.7 13.1 66.2 13.1 C 65.8 13.1 65.4 12.9 65 12.6 C 64.7 12.3 64.5 11.9 64.5 11.4 Z M 61.1 25.2 L 65.3 25.2 L 65.3 16.7 L 61.6 16.7 L 61.6 15 L 67.2 15 L 67.2 25.2 L 71.1 25.2 L 71.1 26.9 L 61.1 26.9 L 61.1 25.2 Z M 78 18 C 78 18.6 78.2 19.1 78.7 19.4 C 79.2 19.7 80.1 19.9 81.4 20 C 82.8 20.1 83.9 20.4 84.6 21 C 85.3 21.5 85.7 22.3 85.7 23.4 C 85.7 23.4 85.7 23.5 85.7 23.5 C 85.7 24.1 85.6 24.6 85.3 25.1 C 85.1 25.5 84.8 25.9 84.4 26.2 C 84 26.6 83.5 26.8 82.9 27 C 82.3 27.1 81.7 27.2 81 27.2 C 80 27.2 79.3 27.1 78.6 26.8 C 77.9 26.6 77.4 26.3 76.9 25.9 C 76.5 25.5 76.2 25 75.9 24.5 C 75.7 23.9 75.6 23.4 75.6 22.9 C 75.6 22.9 77.3 22.5 77.3 22.5 C 77.4 23.4 77.8 24.1 78.4 24.7 C 79 25.2 79.8 25.5 80.9 25.5 C 81.8 25.5 82.5 25.3 83 25 C 83.5 24.6 83.8 24.1 83.8 23.5 C 83.8 22.8 83.5 22.4 83 22.1 C 82.5 21.8 81.6 21.6 80.4 21.5 C 79.1 21.4 78 21.1 77.3 20.6 C 76.5 20 76.2 19.2 76.2 18.2 C 76.2 18.2 76.2 18 76.2 18 C 76.2 17.5 76.3 17 76.5 16.6 C 76.8 16.1 77.1 15.8 77.5 15.5 C 77.9 15.2 78.4 15 78.9 14.9 C 79.4 14.7 79.9 14.6 80.5 14.6 C 81.3 14.6 82 14.7 82.6 15 C 83.2 15.2 83.6 15.5 84 15.8 C 84.4 16.1 84.8 16.5 85 17 C 85.2 17.4 85.3 17.9 85.4 18.3 C 85.4 18.3 83.6 18.8 83.6 18.8 C 83.5 18 83.2 17.4 82.7 17 C 82.2 16.5 81.5 16.3 80.6 16.3 C 80.3 16.3 79.9 16.4 79.6 16.4 C 79.3 16.5 79 16.6 78.8 16.8 C 78.6 16.9 78.4 17.1 78.2 17.3 C 78.1 17.5 78 17.8 78 18 Z M 89.8 15 L 93.6 15 L 93.6 10.1 L 95.4 10.1 L 95.4 15 L 100 15 L 100 16.7 L 95.4 16.7 C 95.4 16.7 95.42 24.43 95.4 24.4 C 95.4 24.9 95.6 25.2 96.1 25.2 C 96.07 25.15 99.5 25.2 99.5 25.2 L 99.5 26.9 C 99.5 26.9 95.4 26.88 95.4 26.9 C 94.9 26.9 94.4 26.7 94.1 26.4 C 93.7 26 93.6 25.6 93.6 25 C 93.55 25.01 93.6 16.7 93.6 16.7 L 89.8 16.7 L 89.8 15 Z M 106.3 21.5 C 106.3 22.7 106.7 23.6 107.4 24.4 C 108.1 25.1 109 25.4 110.3 25.4 C 110.8 25.4 111.3 25.4 111.7 25.2 C 112.1 25.1 112.5 24.9 112.8 24.7 C 113.1 24.5 113.3 24.2 113.5 23.9 C 113.7 23.6 113.8 23.3 114 23 C 114 23 115.7 23.5 115.7 23.5 C 115.4 24.6 114.8 25.5 113.9 26.2 C 113 26.9 111.7 27.2 110.2 27.2 C 109.4 27.2 108.6 27.1 107.9 26.8 C 107.2 26.5 106.5 26.1 106 25.5 C 105.5 25 105.1 24.3 104.8 23.6 C 104.5 22.8 104.4 22 104.4 21.1 C 104.4 21.1 104.4 20.5 104.4 20.5 C 104.4 19.7 104.5 18.9 104.8 18.2 C 105.1 17.4 105.6 16.8 106.1 16.3 C 106.6 15.8 107.2 15.4 107.9 15.1 C 108.7 14.8 109.4 14.6 110.3 14.6 C 111.2 14.6 112.1 14.8 112.8 15.2 C 113.5 15.5 114.1 16 114.5 16.5 C 115 17 115.3 17.6 115.5 18.2 C 115.8 18.9 115.9 19.4 115.9 20 C 115.87 19.97 115.9 21.5 115.9 21.5 C 115.9 21.5 106.27 21.5 106.3 21.5 Z M 110.3 16.4 C 109.7 16.4 109.2 16.5 108.8 16.7 C 108.3 16.8 107.9 17.1 107.6 17.4 C 107.2 17.7 107 18 106.7 18.4 C 106.5 18.9 106.4 19.3 106.3 19.8 C 106.3 19.8 114 19.8 114 19.8 C 114 19.3 113.8 18.8 113.6 18.4 C 113.4 18 113.1 17.6 112.8 17.3 C 112.4 17 112.1 16.8 111.6 16.7 C 111.2 16.5 110.7 16.4 110.3 16.4 Z M 118.9 15 L 123.2 15 L 123.2 16.6 C 123.2 16.6 123.53 16.56 123.5 16.6 C 123.8 15.9 124.3 15.4 124.8 15.1 C 125.4 14.8 126 14.6 126.7 14.6 C 127.9 14.6 128.9 15 129.6 15.8 C 130.4 16.6 130.8 17.7 130.8 19.2 C 130.8 19.2 128.9 19.5 128.9 19.5 C 128.9 18.4 128.6 17.6 128.1 17.1 C 127.5 16.7 126.9 16.4 126.1 16.4 C 125.6 16.4 125.2 16.5 124.8 16.7 C 124.5 16.9 124.2 17.2 123.9 17.5 C 123.7 17.8 123.5 18.2 123.4 18.7 C 123.3 19.1 123.2 19.6 123.2 20.1 C 123.24 20.11 123.2 25.2 123.2 25.2 L 126.3 25.2 L 126.3 26.9 L 118.6 26.9 L 118.6 25.2 L 121.4 25.2 L 121.4 16.7 L 118.9 16.7 L 118.9 15 Z M 138 11.4 C 138 11 138.1 10.6 138.5 10.2 C 138.8 9.9 139.2 9.7 139.7 9.7 C 140.1 9.7 140.5 9.9 140.8 10.2 C 141.2 10.6 141.3 11 141.3 11.4 C 141.3 11.9 141.2 12.3 140.8 12.6 C 140.5 12.9 140.1 13.1 139.7 13.1 C 139.2 13.1 138.8 12.9 138.5 12.6 C 138.1 12.3 138 11.9 138 11.4 Z M 134.6 25.2 L 138.7 25.2 L 138.7 16.7 L 135 16.7 L 135 15 L 140.6 15 L 140.6 25.2 L 144.5 25.2 L 144.5 26.9 L 134.6 26.9 L 134.6 25.2 Z M 150.3 21.5 C 150.4 22.7 150.8 23.6 151.4 24.4 C 152.1 25.1 153.1 25.4 154.3 25.4 C 154.9 25.4 155.4 25.4 155.8 25.2 C 156.2 25.1 156.6 24.9 156.9 24.7 C 157.1 24.5 157.4 24.2 157.6 23.9 C 157.8 23.6 157.9 23.3 158 23 C 158 23 159.8 23.5 159.8 23.5 C 159.5 24.6 158.8 25.5 157.9 26.2 C 157 26.9 155.8 27.2 154.3 27.2 C 153.4 27.2 152.6 27.1 151.9 26.8 C 151.2 26.5 150.6 26.1 150.1 25.5 C 149.6 25 149.2 24.3 148.9 23.6 C 148.6 22.8 148.5 22 148.5 21.1 C 148.5 21.1 148.5 20.5 148.5 20.5 C 148.5 19.7 148.6 18.9 148.9 18.2 C 149.2 17.4 149.6 16.8 150.1 16.3 C 150.7 15.8 151.3 15.4 152 15.1 C 152.7 14.8 153.5 14.6 154.3 14.6 C 155.3 14.6 156.1 14.8 156.9 15.2 C 157.6 15.5 158.1 16 158.6 16.5 C 159.1 17 159.4 17.6 159.6 18.2 C 159.8 18.9 159.9 19.4 159.9 20 C 159.94 19.97 159.9 21.5 159.9 21.5 C 159.9 21.5 150.34 21.5 150.3 21.5 Z M 154.3 16.4 C 153.8 16.4 153.3 16.5 152.8 16.7 C 152.4 16.8 152 17.1 151.6 17.4 C 151.3 17.7 151 18 150.8 18.4 C 150.6 18.9 150.4 19.3 150.4 19.8 C 150.4 19.8 158.1 19.8 158.1 19.8 C 158 19.3 157.9 18.8 157.7 18.4 C 157.5 18 157.2 17.6 156.9 17.3 C 156.5 17 156.1 16.8 155.7 16.7 C 155.2 16.5 154.8 16.4 154.3 16.4 Z M 177.7 10.1 L 189.5 10.1 L 189.5 12 L 184.6 12 L 184.6 26.9 L 182.6 26.9 L 182.6 12 L 177.7 12 L 177.7 10.1 Z M 201.9 22.7 L 194.7 22.7 L 193.5 26.9 L 191.3 26.9 L 196.4 10.1 L 200.2 10.1 L 205.3 26.9 L 203.1 26.9 L 201.9 22.7 Z M 198.1 10.9 L 195.2 20.8 L 201.3 20.8 L 198.4 10.9 L 198.1 10.9 Z M 207.7 10.1 L 209.7 10.1 L 209.7 25 L 218.5 25 L 218.5 26.9 L 207.7 26.9 L 207.7 10.1 Z M 222.6 10.1 L 232.8 10.1 L 232.8 12 L 224.6 12 L 224.6 17.5 L 232.6 17.5 L 232.6 19.4 L 224.6 19.4 L 224.6 25 L 232.9 25 L 232.9 26.9 L 222.6 26.9 L 222.6 10.1 Z M 242.4 25.3 C 243.1 25.3 243.7 25.2 244.2 25 C 244.7 24.8 245.1 24.5 245.4 24.1 C 245.7 23.7 246 23.2 246.1 22.7 C 246.3 22.2 246.3 21.7 246.3 21.1 C 246.34 21.12 246.3 20.8 246.3 20.8 L 248.4 20.8 C 248.4 20.8 248.35 21.12 248.4 21.1 C 248.4 22 248.2 22.8 248 23.5 C 247.7 24.3 247.3 24.9 246.8 25.5 C 246.3 26 245.7 26.4 245 26.7 C 244.3 27.1 243.4 27.2 242.4 27.2 C 240.6 27.2 239.1 26.6 238.1 25.5 C 237.1 24.3 236.5 22.6 236.5 20.4 C 236.5 20.4 236.5 16.6 236.5 16.6 C 236.5 14.4 237.1 12.7 238.1 11.5 C 239.1 10.3 240.6 9.7 242.4 9.7 C 243.4 9.7 244.3 9.9 245 10.2 C 245.7 10.5 246.3 11 246.8 11.5 C 247.3 12.1 247.7 12.7 248 13.5 C 248.2 14.2 248.4 15 248.4 15.8 C 248.35 15.84 248.4 16.1 248.4 16.1 L 246.3 16.1 C 246.3 16.1 246.34 15.84 246.3 15.8 C 246.3 15.3 246.2 14.8 246.1 14.3 C 245.9 13.7 245.7 13.3 245.4 12.9 C 245.1 12.5 244.7 12.2 244.2 12 C 243.7 11.7 243.1 11.6 242.4 11.6 C 241.2 11.6 240.2 12.1 239.5 13 C 238.9 14 238.6 15.2 238.6 16.8 C 238.6 16.8 238.6 20.2 238.6 20.2 C 238.6 21.9 238.9 23.1 239.5 24 C 240.2 24.9 241.2 25.3 242.4 25.3 Z " stroke="none" fill="#000"/>
  </g>
</svg>