<?xml version="1.0" standalone="no"?>
<!DOCTYPE svg PUBLIC "-//W3C//DTD SVG 1.1//EN" "http://www.w3.org/Graphics/SVG/1.1/DTD/svg11.dtd">
<svg xmlns="http://www.w3.org/2000/svg" version="1.1" width="83px" height="13.4px" viewBox="0 0 83 13.4">
  <desc>Plateau nervur</desc>
  <defs/>
  <g id="Polygon22705">
    <path d="M 0.8 0.4 C 0.8 0.4 2.01 0.41 2 0.4 C 3.2 0.4 4 1 4 2.1 C 4 3.2 3.2 3.9 2 3.9 C 2.01 3.85 1.3 3.9 1.3 3.9 L 1.3 5.8 L 0.8 5.8 L 0.8 0.4 Z M 3.5 2.1 C 3.5 1.3 3 0.9 2 0.9 C 2.04 0.88 1.3 0.9 1.3 0.9 L 1.3 3.4 C 1.3 3.4 2.04 3.38 2 3.4 C 3 3.4 3.5 2.9 3.5 2.1 Z M 5 0 L 5.5 0 L 5.5 5.8 L 5 5.8 L 5 0 Z M 6.5 3.8 C 6.5 2.6 7.4 1.8 8.3 1.8 C 8.8 1.8 9.4 2.1 9.7 2.7 C 9.72 2.66 9.8 1.9 9.8 1.9 L 10.2 1.9 L 10.2 5.8 L 9.8 5.8 C 9.8 5.8 9.72 5.01 9.7 5 C 9.4 5.6 8.8 5.9 8.3 5.9 C 7.4 5.9 6.5 5.1 6.5 3.8 Z M 9.7 3.8 C 9.7 2.9 9.1 2.3 8.4 2.3 C 7.6 2.3 7 2.9 7 3.8 C 7 4.8 7.6 5.4 8.4 5.4 C 9.1 5.4 9.7 4.8 9.7 3.8 Z M 12.1 1.9 L 13.2 1.9 L 13.2 2.3 L 12.1 2.3 C 12.1 2.3 12.1 4.45 12.1 4.5 C 12.1 5.1 12.5 5.4 13 5.4 C 13.1 5.4 13.2 5.4 13.3 5.3 C 13.3 5.3 13.3 5.8 13.3 5.8 C 13.3 5.8 13.1 5.8 12.9 5.8 C 12.1 5.8 11.6 5.3 11.6 4.5 C 11.61 4.47 11.6 2.3 11.6 2.3 L 11 2.3 L 11 1.9 L 11.6 1.9 L 11.6 1 L 12.1 1 L 12.1 1.9 Z M 17.3 4 C 17.3 4 14.3 4 14.3 4 C 14.4 4.9 15 5.4 15.8 5.4 C 16.2 5.4 16.7 5.2 17.1 4.8 C 17.1 4.8 17.1 5.4 17.1 5.4 C 16.7 5.7 16.3 5.9 15.7 5.9 C 14.6 5.9 13.9 5.1 13.9 3.9 C 13.9 2.6 14.7 1.8 15.7 1.8 C 16.6 1.8 17.3 2.5 17.3 3.8 C 17.3 3.9 17.3 3.9 17.3 4 Z M 16.8 3.6 C 16.8 2.7 16.3 2.3 15.7 2.3 C 15 2.3 14.4 2.8 14.4 3.6 C 14.4 3.6 16.8 3.6 16.8 3.6 Z M 18.1 3.8 C 18.1 2.6 18.9 1.8 19.8 1.8 C 20.4 1.8 21 2.1 21.3 2.7 C 21.27 2.66 21.3 1.9 21.3 1.9 L 21.7 1.9 L 21.7 5.8 L 21.3 5.8 C 21.3 5.8 21.27 5.01 21.3 5 C 21 5.6 20.4 5.9 19.8 5.9 C 18.9 5.9 18.1 5.1 18.1 3.8 Z M 21.3 3.8 C 21.3 2.9 20.7 2.3 19.9 2.3 C 19.2 2.3 18.6 2.9 18.6 3.8 C 18.6 4.8 19.2 5.4 19.9 5.4 C 20.7 5.4 21.3 4.8 21.3 3.8 Z M 23 4.3 C 22.97 4.31 23 1.9 23 1.9 L 23.5 1.9 C 23.5 1.9 23.46 4.34 23.5 4.3 C 23.5 5 23.9 5.4 24.5 5.4 C 25.1 5.4 25.5 5 25.5 4.3 C 25.53 4.33 25.5 1.9 25.5 1.9 L 26 1.9 C 26 1.9 26.02 4.31 26 4.3 C 26 5.2 25.4 5.9 24.5 5.9 C 23.5 5.9 23 5.2 23 4.3 Z M 32.3 3.2 C 32.34 3.22 32.3 5.8 32.3 5.8 L 31.9 5.8 C 31.9 5.8 31.85 3.43 31.9 3.4 C 31.9 2.7 31.5 2.3 30.9 2.3 C 30.3 2.3 29.8 2.8 29.8 3.4 C 29.79 3.38 29.8 5.8 29.8 5.8 L 29.3 5.8 L 29.3 1.9 L 29.7 1.9 L 29.7 2.5 C 29.7 2.5 29.75 2.5 29.8 2.5 C 30 2.1 30.4 1.8 31 1.8 C 31.8 1.8 32.3 2.4 32.3 3.2 Z M 36.8 4 C 36.8 4 33.8 4 33.8 4 C 33.9 4.9 34.5 5.4 35.3 5.4 C 35.7 5.4 36.2 5.2 36.6 4.8 C 36.6 4.8 36.6 5.4 36.6 5.4 C 36.2 5.7 35.7 5.9 35.2 5.9 C 34.1 5.9 33.3 5.1 33.3 3.9 C 33.3 2.6 34.2 1.8 35.2 1.8 C 36.1 1.8 36.8 2.5 36.8 3.8 C 36.8 3.9 36.8 3.9 36.8 4 Z M 36.3 3.6 C 36.3 2.7 35.7 2.3 35.2 2.3 C 34.5 2.3 33.9 2.8 33.8 3.6 C 33.8 3.6 36.3 3.6 36.3 3.6 Z M 37.8 1.9 L 38.2 1.9 L 38.3 2.5 C 38.3 2.5 38.27 2.53 38.3 2.5 C 38.5 2 39.1 1.9 39.4 1.9 C 39.5 1.9 39.6 1.9 39.6 1.9 C 39.6 1.9 39.6 2.4 39.6 2.4 C 39.6 2.3 39.5 2.3 39.4 2.3 C 38.9 2.3 38.3 2.7 38.3 3.5 C 38.31 3.46 38.3 5.8 38.3 5.8 L 37.8 5.8 L 37.8 1.9 Z M 40 1.9 L 40.5 1.9 L 41.7 5.2 L 41.7 5.2 L 42.8 1.9 L 43.3 1.9 L 41.9 5.8 L 41.4 5.8 L 40 1.9 Z M 44.1 4.3 C 44.13 4.31 44.1 1.9 44.1 1.9 L 44.6 1.9 C 44.6 1.9 44.62 4.34 44.6 4.3 C 44.6 5 45 5.4 45.6 5.4 C 46.3 5.4 46.7 5 46.7 4.3 C 46.69 4.33 46.7 1.9 46.7 1.9 L 47.2 1.9 C 47.2 1.9 47.18 4.31 47.2 4.3 C 47.2 5.2 46.6 5.9 45.6 5.9 C 44.7 5.9 44.1 5.2 44.1 4.3 Z M 48.4 1.9 L 48.8 1.9 L 48.9 2.5 C 48.9 2.5 48.89 2.53 48.9 2.5 C 49.2 2 49.7 1.9 50 1.9 C 50.1 1.9 50.2 1.9 50.3 1.9 C 50.3 1.9 50.3 2.4 50.3 2.4 C 50.2 2.3 50.1 2.3 50 2.3 C 49.5 2.3 48.9 2.7 48.9 3.5 C 48.92 3.46 48.9 5.8 48.9 5.8 L 48.4 5.8 L 48.4 1.9 Z M 52.4 1.3 L 51.9 1.3 L 52.8 0.1 L 53.3 0.1 L 52.4 1.3 Z M 54.1 4 C 54.1 4 51.1 4 51.1 4 C 51.2 4.9 51.8 5.4 52.5 5.4 C 53 5.4 53.5 5.2 53.9 4.8 C 53.9 4.8 53.9 5.4 53.9 5.4 C 53.5 5.7 53 5.9 52.5 5.9 C 51.4 5.9 50.6 5.1 50.6 3.9 C 50.6 2.6 51.5 1.8 52.5 1.8 C 53.4 1.8 54.1 2.5 54.1 3.8 C 54.1 3.9 54.1 3.9 54.1 4 Z M 53.6 3.6 C 53.6 2.7 53 2.3 52.5 2.3 C 51.8 2.3 51.2 2.8 51.1 3.6 C 51.1 3.6 53.6 3.6 53.6 3.6 Z " stroke="none" fill="#fff"/>
  </g>
</svg>