<?xml version="1.0" standalone="no"?>
<!DOCTYPE svg PUBLIC "-//W3C//DTD SVG 1.1//EN" "http://www.w3.org/Graphics/SVG/1.1/DTD/svg11.dtd">
<svg xmlns="http://www.w3.org/2000/svg" version="1.1" width="305.4px" height="93.1px" viewBox="0 0 305.4 93.1">
  <desc>SLIDE</desc>
  <defs/>
  <g id="Polygon29401">
    <path d="M 21 27.8 C 21 26.7 20.8 25.9 20.4 25.1 C 20 24.3 19.5 23.7 18.8 23.2 C 18.1 22.7 17.3 22.3 16.4 22 C 15.5 21.7 14.6 21.6 13.6 21.6 C 12.7 21.6 11.9 21.7 11.2 21.9 C 10.4 22.2 9.7 22.5 9.1 22.9 C 8.5 23.3 8 23.8 7.6 24.4 C 7.3 25 7.1 25.7 7.1 26.6 C 7.1 26.6 7.1 26.8 7.1 26.8 C 7.1 27.7 7.3 28.4 7.6 29 C 8 29.6 8.5 30.2 9.2 30.6 C 9.9 31 10.8 31.4 11.8 31.7 C 12.9 31.9 14.1 32.2 15.5 32.4 C 18.8 32.9 21.2 33.9 22.7 35.3 C 24.3 36.7 25 38.6 25 41 C 25 41 25 41.5 25 41.5 C 25 42.8 24.8 44.1 24.3 45.2 C 23.9 46.3 23.2 47.3 22.3 48.1 C 21.4 48.9 20.3 49.5 18.9 49.9 C 17.6 50.4 16 50.6 14.3 50.6 C 12.3 50.6 10.5 50.3 9 49.7 C 7.5 49.2 6.2 48.4 5.2 47.3 C 4.1 46.3 3.3 45.1 2.8 43.7 C 2.3 42.3 2 40.8 2 39.2 C 2.01 39.18 2 37.8 2 37.8 L 5.8 37.8 C 5.8 37.8 5.76 38.91 5.8 38.9 C 5.8 41.7 6.5 43.7 8 45.1 C 9.5 46.4 11.6 47.1 14.3 47.1 C 16.6 47.1 18.3 46.6 19.5 45.6 C 20.7 44.6 21.3 43.2 21.3 41.5 C 21.3 41.5 21.3 41.2 21.3 41.2 C 21.3 39.6 20.7 38.3 19.5 37.5 C 18.3 36.6 16.3 36 13.6 35.6 C 12 35.4 10.6 35.1 9.3 34.7 C 8.1 34.2 7 33.7 6.1 33 C 5.2 32.3 4.5 31.4 4.1 30.4 C 3.6 29.5 3.3 28.3 3.3 27 C 3.3 27 3.3 26.4 3.3 26.4 C 3.3 25.2 3.6 24.1 4.1 23.1 C 4.6 22.1 5.3 21.2 6.2 20.4 C 7.1 19.7 8.2 19.1 9.5 18.7 C 10.7 18.3 12.1 18.1 13.7 18.1 C 15.4 18.1 17 18.4 18.4 18.9 C 19.7 19.4 20.9 20.1 21.9 20.9 C 22.8 21.8 23.5 22.8 24 23.9 C 24.5 25 24.8 26.2 24.8 27.5 C 24.77 27.49 24.8 29.4 24.8 29.4 L 21 29.4 C 21 29.4 21.02 27.76 21 27.8 Z M 31.2 18.7 L 34.9 18.7 L 34.9 46.5 L 51.3 46.5 L 51.3 50 L 31.2 50 L 31.2 18.7 Z M 58.4 18.7 L 78.2 18.7 L 78.2 22.2 L 70.2 22.2 L 70.2 46.5 L 78.2 46.5 L 78.2 50 L 58.4 50 L 58.4 46.5 L 66.4 46.5 L 66.4 22.2 L 58.4 22.2 L 58.4 18.7 Z M 85.2 18.7 C 85.2 18.7 95.45 18.74 95.5 18.7 C 99.3 18.7 102.1 19.7 103.9 21.5 C 105.7 23.4 106.6 26.3 106.6 30.3 C 106.6 30.3 106.6 38.4 106.6 38.4 C 106.6 42.4 105.7 45.4 103.9 47.2 C 102.1 49.1 99.3 50 95.5 50 C 95.45 49.98 85.2 50 85.2 50 L 85.2 46.5 L 87.9 46.5 L 87.9 22.2 L 85.2 22.2 L 85.2 18.7 Z M 94.9 46.5 C 96.3 46.5 97.5 46.4 98.5 46.1 C 99.5 45.8 100.3 45.4 100.9 44.7 C 101.6 44.1 102.1 43.2 102.4 42.2 C 102.7 41.1 102.9 39.7 102.9 38.1 C 102.9 38.1 102.9 30.6 102.9 30.6 C 102.9 29 102.7 27.6 102.4 26.6 C 102.1 25.5 101.6 24.6 100.9 24 C 100.3 23.3 99.5 22.9 98.5 22.6 C 97.5 22.4 96.3 22.2 94.9 22.2 C 94.92 22.22 91.6 22.2 91.6 22.2 L 91.6 46.5 C 91.6 46.5 94.92 46.5 94.9 46.5 Z M 113.4 18.7 L 132.4 18.7 L 132.4 22.2 L 117.2 22.2 L 117.2 32.6 L 132.1 32.6 L 132.1 36.1 L 117.2 36.1 L 117.2 46.5 L 132.6 46.5 L 132.6 50 L 113.4 50 L 113.4 18.7 Z " stroke="none" fill="#000"/>
  </g>
</svg>