<?xml version="1.0" standalone="no"?>
<!DOCTYPE svg PUBLIC "-//W3C//DTD SVG 1.1//EN" "http://www.w3.org/Graphics/SVG/1.1/DTD/svg11.dtd">
<svg xmlns="http://www.w3.org/2000/svg" version="1.1" width="27px" height="14.5px" viewBox="0 0 27 14.5">
  <desc>17 22</desc>
  <defs/>
  <g id="Polygon30643">
    <path d="M 1.7 1.4 L 0.3 2 L 0.3 1.3 L 2.3 0.4 L 2.4 0.4 L 2.4 6.1 L 1.7 6.1 L 1.7 1.4 Z M 6.6 1.1 L 3.9 1.1 L 3.9 0.4 L 7.7 0.4 L 4.7 6.1 L 3.9 6.1 L 6.6 1.1 Z M 10.1 -0.6 L 10.7 -0.6 L 8.2 7.2 L 7.5 7.2 L 10.1 -0.6 Z M 14.2 2.1 C 14.2 1.5 13.8 1 13 1 C 12.4 1 11.9 1.3 11.6 1.7 C 11.6 1.7 11.6 0.9 11.6 0.9 C 11.9 0.6 12.5 0.3 13.1 0.3 C 14.2 0.3 14.9 1.1 14.9 2.1 C 14.9 3 14.1 3.9 12.7 5.5 C 12.69 5.47 15.1 5.5 15.1 5.5 L 15.1 6.1 C 15.1 6.1 11.3 6.14 11.3 6.1 C 13.8 3.3 14.2 2.8 14.2 2.1 Z M 18.7 2.1 C 18.7 1.5 18.3 1 17.5 1 C 16.9 1 16.4 1.3 16.1 1.7 C 16.1 1.7 16.1 0.9 16.1 0.9 C 16.4 0.6 17 0.3 17.6 0.3 C 18.7 0.3 19.4 1.1 19.4 2.1 C 19.4 3 18.6 3.9 17.2 5.5 C 17.19 5.47 19.6 5.5 19.6 5.5 L 19.6 6.1 C 19.6 6.1 15.8 6.14 15.8 6.1 C 18.3 3.3 18.7 2.8 18.7 2.1 Z " stroke="none" fill="#000"/>
  </g>
</svg>