<?xml version="1.0" standalone="no"?>
<!DOCTYPE svg PUBLIC "-//W3C//DTD SVG 1.1//EN" "http://www.w3.org/Graphics/SVG/1.1/DTD/svg11.dtd">
<svg xmlns="http://www.w3.org/2000/svg" version="1.1" width="27px" height="14.5px" viewBox="0 0 27 14.5">
  <desc>12 22</desc>
  <defs/>
  <g id="Polygon29005">
    <path d="M 1.7 1.4 L 0.3 2 L 0.3 1.3 L 2.3 0.4 L 2.4 0.4 L 2.4 6.1 L 1.7 6.1 L 1.7 1.4 Z M 6.6 2.1 C 6.6 1.5 6.2 1 5.5 1 C 4.9 1 4.4 1.3 4.1 1.7 C 4.1 1.7 4.1 0.9 4.1 0.9 C 4.4 0.6 5 0.3 5.6 0.3 C 6.7 0.3 7.4 1.1 7.4 2.1 C 7.4 3 6.6 3.9 5.2 5.5 C 5.17 5.47 7.6 5.5 7.6 5.5 L 7.6 6.1 C 7.6 6.1 3.78 6.14 3.8 6.1 C 6.3 3.3 6.6 2.8 6.6 2.1 Z M 10.8 -0.6 L 11.5 -0.6 L 8.9 7.2 L 8.3 7.2 L 10.8 -0.6 Z M 14.9 2.1 C 14.9 1.5 14.5 1 13.8 1 C 13.2 1 12.7 1.3 12.3 1.7 C 12.3 1.7 12.3 0.9 12.3 0.9 C 12.7 0.6 13.2 0.3 13.9 0.3 C 15 0.3 15.7 1.1 15.7 2.1 C 15.7 3 14.9 3.9 13.5 5.5 C 13.46 5.47 15.9 5.5 15.9 5.5 L 15.9 6.1 C 15.9 6.1 12.07 6.14 12.1 6.1 C 14.6 3.3 14.9 2.8 14.9 2.1 Z M 19.4 2.1 C 19.4 1.5 19 1 18.3 1 C 17.7 1 17.2 1.3 16.9 1.7 C 16.9 1.7 16.9 0.9 16.9 0.9 C 17.2 0.6 17.7 0.3 18.4 0.3 C 19.5 0.3 20.2 1.1 20.2 2.1 C 20.2 3 19.4 3.9 18 5.5 C 17.96 5.47 20.4 5.5 20.4 5.5 L 20.4 6.1 C 20.4 6.1 16.57 6.14 16.6 6.1 C 19.1 3.3 19.4 2.8 19.4 2.1 Z " stroke="none" fill="#000"/>
  </g>
</svg>