<?xml version="1.0" standalone="no"?>
<!DOCTYPE svg PUBLIC "-//W3C//DTD SVG 1.1//EN" "http://www.w3.org/Graphics/SVG/1.1/DTD/svg11.dtd">
<svg xmlns="http://www.w3.org/2000/svg" version="1.1" width="27px" height="14.5px" viewBox="0 0 27 14.5">
  <desc>9 21</desc>
  <defs/>
  <g id="Polygon16926">
    <path d="M 4.3 2.2 C 4.3 2.8 4 3.3 3.5 4 C 3.46 3.98 1.7 6.1 1.7 6.1 L 0.9 6.1 C 0.9 6.1 2.54 4.06 2.5 4.1 C 2.4 4.1 2.3 4.1 2.2 4.1 C 1.3 4.1 0.3 3.4 0.3 2.3 C 0.3 1.2 1.2 0.3 2.3 0.3 C 3.5 0.3 4.3 1.2 4.3 2.2 Z M 3.5 2.2 C 3.5 1.5 3.1 1 2.3 1 C 1.6 1 1.1 1.6 1.1 2.2 C 1.1 3 1.6 3.5 2.4 3.5 C 2.6 3.5 2.9 3.5 3.1 3.4 C 3.4 3 3.5 2.6 3.5 2.2 Z M 7.1 -0.6 L 7.8 -0.6 L 5.2 7.2 L 4.5 7.2 L 7.1 -0.6 Z M 11.2 2.1 C 11.2 1.5 10.8 1 10.1 1 C 9.5 1 8.9 1.3 8.6 1.7 C 8.6 1.7 8.6 0.9 8.6 0.9 C 8.9 0.6 9.5 0.3 10.1 0.3 C 11.3 0.3 11.9 1.1 11.9 2.1 C 11.9 3 11.2 3.9 9.7 5.5 C 9.73 5.47 12.1 5.5 12.1 5.5 L 12.1 6.1 C 12.1 6.1 8.34 6.14 8.3 6.1 C 10.9 3.3 11.2 2.8 11.2 2.1 Z M 14.3 1.4 L 12.8 2 L 12.8 1.3 L 14.9 0.4 L 15 0.4 L 15 6.1 L 14.3 6.1 L 14.3 1.4 Z " stroke="none" fill="#000"/>
  </g>
</svg>