<?xml version="1.0" standalone="no"?>
<!DOCTYPE svg PUBLIC "-//W3C//DTD SVG 1.1//EN" "http://www.w3.org/Graphics/SVG/1.1/DTD/svg11.dtd">
<svg xmlns="http://www.w3.org/2000/svg" version="1.1" width="27px" height="14.5px" viewBox="0 0 27 14.5">
  <desc>13 21</desc>
  <defs/>
  <g id="Polygon18188">
    <path d="M 1.7 1.4 L 0.3 2 L 0.3 1.3 L 2.3 0.4 L 2.4 0.4 L 2.4 6.1 L 1.7 6.1 L 1.7 1.4 Z M 5.5 0.3 C 6.6 0.3 7.2 1 7.2 1.8 C 7.2 2.4 6.9 2.9 6.4 3.2 C 6.4 3.2 6.4 3.2 6.4 3.2 C 7 3.4 7.4 3.8 7.4 4.6 C 7.4 5.5 6.8 6.2 5.5 6.2 C 4.9 6.2 4.4 6 4 5.7 C 4 5.7 4 4.9 4 4.9 C 4.3 5.3 4.8 5.6 5.5 5.6 C 6.2 5.6 6.7 5.1 6.7 4.5 C 6.7 3.9 6.2 3.5 5.4 3.5 C 5.41 3.52 4.7 3.5 4.7 3.5 L 4.7 2.9 C 4.7 2.9 5.25 2.92 5.2 2.9 C 6.1 2.9 6.5 2.5 6.5 1.9 C 6.5 1.4 6.2 1 5.4 1 C 4.9 1 4.4 1.2 4.1 1.6 C 4.1 1.6 4.1 0.8 4.1 0.8 C 4.4 0.5 4.9 0.3 5.5 0.3 Z M 10.7 -0.6 L 11.4 -0.6 L 8.8 7.2 L 8.2 7.2 L 10.7 -0.6 Z M 14.8 2.1 C 14.8 1.5 14.4 1 13.7 1 C 13.1 1 12.6 1.3 12.2 1.7 C 12.2 1.7 12.2 0.9 12.2 0.9 C 12.6 0.6 13.1 0.3 13.8 0.3 C 14.9 0.3 15.6 1.1 15.6 2.1 C 15.6 3 14.8 3.9 13.4 5.5 C 13.36 5.47 15.8 5.5 15.8 5.5 L 15.8 6.1 C 15.8 6.1 11.97 6.14 12 6.1 C 14.5 3.3 14.8 2.8 14.8 2.1 Z M 17.9 1.4 L 16.5 2 L 16.5 1.3 L 18.5 0.4 L 18.6 0.4 L 18.6 6.1 L 17.9 6.1 L 17.9 1.4 Z " stroke="none" fill="#000"/>
  </g>
</svg>