<?xml version="1.0" standalone="no"?>
<!DOCTYPE svg PUBLIC "-//W3C//DTD SVG 1.1//EN" "http://www.w3.org/Graphics/SVG/1.1/DTD/svg11.dtd">
<svg xmlns="http://www.w3.org/2000/svg" version="1.1" width="311px" height="31.7px" viewBox="0 0 311 31.7">
  <desc>REPENSER LA CHAINE HI-FI</desc>
  <defs/>
  <g id="Polygon23325">
    <path d="M 38 14.9 L 33.2 14.9 L 30.6 10.6 L 30.5 10.6 L 30.5 14.9 L 26.5 14.9 L 26.5 1 C 26.5 1 31.4 0.98 31.4 1 C 34.9 1 37.3 2.5 37.3 5.8 C 37.3 7.1 36.7 9 34.4 10 C 34.41 9.98 38 14.9 38 14.9 Z M 31.4 7.5 C 32.4 7.5 33.2 7.1 33.2 6.1 C 33.2 5.1 32.4 4.6 31.4 4.6 C 31.36 4.65 30.5 4.6 30.5 4.6 L 30.5 7.5 C 30.5 7.5 31.38 7.55 31.4 7.5 Z M 39.4 1 L 49 1 L 49 4.6 L 43.4 4.6 L 43.4 6.3 L 48.4 6.3 L 48.4 9.5 L 43.4 9.5 L 43.4 11.3 L 49 11.3 L 49 14.9 L 39.4 14.9 L 39.4 1 Z M 51.1 1 C 51.1 1 55.69 0.98 55.7 1 C 59.9 1 62.2 3 62.2 6.2 C 62.2 8.9 60.1 11.6 56 11.6 C 55.97 11.56 55.1 11.6 55.1 11.6 L 55.1 14.9 L 51.1 14.9 L 51.1 1 Z M 58.1 6.3 C 58.1 5.2 57.3 4.6 56.1 4.6 C 56.12 4.65 55.1 4.6 55.1 4.6 L 55.1 8 C 55.1 8 56.15 7.97 56.2 8 C 57.3 8 58.1 7.4 58.1 6.3 Z M 63.8 1 L 73.4 1 L 73.4 4.6 L 67.8 4.6 L 67.8 6.3 L 72.8 6.3 L 72.8 9.5 L 67.8 9.5 L 67.8 11.3 L 73.4 11.3 L 73.4 14.9 L 63.8 14.9 L 63.8 1 Z M 88.2 14.9 L 84.4 14.9 L 79.4 7.4 L 79.3 7.4 L 79.3 14.9 L 75.5 14.9 L 75.5 1 L 79.4 1 L 84.4 8.3 L 84.4 8.3 L 84.4 1 L 88.2 1 L 88.2 14.9 Z M 99.4 1.7 C 99.4 1.7 99.4 5.2 99.4 5.2 C 98.6 4.6 97.1 4.2 95.9 4.2 C 94.8 4.2 94.2 4.5 94.2 5 C 94.2 5.5 94.8 5.7 95.9 6.1 C 97.8 6.7 100.3 7.6 100.3 10.6 C 100.3 13.2 98.3 15.2 94.8 15.2 C 93 15.2 91.4 14.6 90.4 14 C 90.4 14 90.4 10.2 90.4 10.2 C 91.4 11 92.9 11.7 94.3 11.7 C 95.6 11.7 96.2 11.2 96.2 10.7 C 96.2 10 95.2 9.7 94.1 9.3 C 92.6 8.8 90.2 7.8 90.2 5.1 C 90.2 2.7 92.2 0.7 95.6 0.7 C 97.1 0.7 98.4 1.1 99.4 1.7 Z M 102.1 1 L 111.7 1 L 111.7 4.6 L 106.2 4.6 L 106.2 6.3 L 111.1 6.3 L 111.1 9.5 L 106.2 9.5 L 106.2 11.3 L 111.7 11.3 L 111.7 14.9 L 102.1 14.9 L 102.1 1 Z M 125.4 14.9 L 120.6 14.9 L 117.9 10.6 L 117.8 10.6 L 117.8 14.9 L 113.8 14.9 L 113.8 1 C 113.8 1 118.74 0.98 118.7 1 C 122.2 1 124.6 2.5 124.6 5.8 C 124.6 7.1 124.1 9 121.7 10 C 121.75 9.98 125.4 14.9 125.4 14.9 Z M 118.7 7.5 C 119.7 7.5 120.5 7.1 120.5 6.1 C 120.5 5.1 119.7 4.6 118.7 4.6 C 118.7 4.65 117.8 4.6 117.8 4.6 L 117.8 7.5 C 117.8 7.5 118.72 7.55 118.7 7.5 Z M 131 1 L 135 1 L 135 11.2 L 140.5 11.2 L 140.5 14.9 L 131 14.9 L 131 1 Z M 151.4 14.9 L 150.5 12.1 L 145.9 12.1 L 145 14.9 L 140.8 14.9 L 145.8 1 L 150.5 1 L 155.6 14.9 L 151.4 14.9 Z M 146.9 8.9 L 149.4 8.9 L 148.1 5.1 L 146.9 8.9 Z M 167.1 15.2 C 163 15.2 159.7 12.2 159.7 7.9 C 159.7 3.6 163 0.6 167.1 0.6 C 168.7 0.6 169.9 1.1 171 1.6 C 171 1.6 171 5.5 171 5.5 C 169.9 4.7 168.9 4.4 167.6 4.4 C 165.4 4.4 163.8 5.9 163.8 7.9 C 163.8 10 165.4 11.5 167.6 11.5 C 168.9 11.5 169.9 11.1 171 10.2 C 171 10.2 171 14.2 171 14.2 C 169.9 14.8 168.7 15.2 167.1 15.2 Z M 181.4 9.8 L 177 9.8 L 177 14.9 L 173 14.9 L 173 1 L 177 1 L 177 6.2 L 181.4 6.2 L 181.4 1 L 185.4 1 L 185.4 14.9 L 181.4 14.9 L 181.4 9.8 Z M 197.2 14.9 L 196.3 12.1 L 191.7 12.1 L 190.8 14.9 L 186.6 14.9 L 191.6 1 L 196.3 1 L 201.4 14.9 L 197.2 14.9 Z M 192.7 8.9 L 195.2 8.9 L 194 5.1 L 192.7 8.9 Z M 202.5 1 L 206.6 1 L 206.6 14.9 L 202.5 14.9 L 202.5 1 Z M 221.7 14.9 L 217.9 14.9 L 212.9 7.4 L 212.8 7.4 L 212.8 14.9 L 209 14.9 L 209 1 L 212.9 1 L 217.9 8.3 L 217.9 8.3 L 217.9 1 L 221.7 1 L 221.7 14.9 Z M 224.1 1 L 233.7 1 L 233.7 4.6 L 228.2 4.6 L 228.2 6.3 L 233.2 6.3 L 233.2 9.5 L 228.2 9.5 L 228.2 11.3 L 233.7 11.3 L 233.7 14.9 L 224.1 14.9 L 224.1 1 Z M 248.5 9.8 L 244.2 9.8 L 244.2 14.9 L 240.1 14.9 L 240.1 1 L 244.2 1 L 244.2 6.2 L 248.5 6.2 L 248.5 1 L 252.6 1 L 252.6 14.9 L 248.5 14.9 L 248.5 9.8 Z M 255 1 L 259 1 L 259 14.9 L 255 14.9 L 255 1 Z M 261.2 7.5 L 267.1 7.5 L 267.1 10.4 L 261.2 10.4 L 261.2 7.5 Z M 269.3 1 L 278.6 1 L 278.6 4.6 L 273.4 4.6 L 273.4 7.1 L 278.2 7.1 L 278.2 10.5 L 273.4 10.5 L 273.4 14.9 L 269.3 14.9 L 269.3 1 Z M 280.5 1 L 284.5 1 L 284.5 14.9 L 280.5 14.9 L 280.5 1 Z " stroke="none" fill="#fff"/>
  </g>
</svg>