<?xml version="1.0" standalone="no"?>
<!DOCTYPE svg PUBLIC "-//W3C//DTD SVG 1.1//EN" "http://www.w3.org/Graphics/SVG/1.1/DTD/svg11.dtd">
<svg xmlns="http://www.w3.org/2000/svg" version="1.1" width="57.3px" height="13.4px" viewBox="0 0 57.3 13.4">
  <desc>Interrupteur</desc>
  <defs/>
  <g id="Polygon20638">
    <path d="M 0.8 0.4 L 1.3 0.4 L 1.3 5.8 L 0.8 5.8 L 0.8 0.4 Z M 5.8 3.2 C 5.76 3.22 5.8 5.8 5.8 5.8 L 5.3 5.8 C 5.3 5.8 5.27 3.43 5.3 3.4 C 5.3 2.7 4.9 2.3 4.3 2.3 C 3.7 2.3 3.2 2.8 3.2 3.4 C 3.21 3.38 3.2 5.8 3.2 5.8 L 2.7 5.8 L 2.7 1.9 L 3.1 1.9 L 3.2 2.5 C 3.2 2.5 3.17 2.5 3.2 2.5 C 3.4 2.1 3.8 1.8 4.4 1.8 C 5.2 1.8 5.8 2.4 5.8 3.2 Z M 7.6 1.9 L 8.7 1.9 L 8.7 2.3 L 7.6 2.3 C 7.6 2.3 7.6 4.45 7.6 4.5 C 7.6 5.1 8 5.4 8.5 5.4 C 8.6 5.4 8.7 5.4 8.8 5.3 C 8.8 5.3 8.8 5.8 8.8 5.8 C 8.8 5.8 8.6 5.8 8.4 5.8 C 7.7 5.8 7.1 5.3 7.1 4.5 C 7.11 4.47 7.1 2.3 7.1 2.3 L 6.5 2.3 L 6.5 1.9 L 7.1 1.9 L 7.1 1 L 7.6 1 L 7.6 1.9 Z M 12.8 4 C 12.8 4 9.9 4 9.9 4 C 9.9 4.9 10.5 5.4 11.3 5.4 C 11.7 5.4 12.2 5.2 12.6 4.8 C 12.6 4.8 12.6 5.4 12.6 5.4 C 12.2 5.7 11.8 5.9 11.3 5.9 C 10.1 5.9 9.4 5.1 9.4 3.9 C 9.4 2.6 10.2 1.8 11.2 1.8 C 12.1 1.8 12.8 2.5 12.8 3.8 C 12.8 3.9 12.8 3.9 12.8 4 Z M 12.3 3.6 C 12.3 2.7 11.8 2.3 11.2 2.3 C 10.5 2.3 9.9 2.8 9.9 3.6 C 9.9 3.6 12.3 3.6 12.3 3.6 Z M 13.8 1.9 L 14.2 1.9 L 14.3 2.5 C 14.3 2.5 14.3 2.53 14.3 2.5 C 14.6 2 15.1 1.9 15.4 1.9 C 15.5 1.9 15.6 1.9 15.7 1.9 C 15.7 1.9 15.7 2.4 15.7 2.4 C 15.6 2.3 15.5 2.3 15.4 2.3 C 14.9 2.3 14.3 2.7 14.3 3.5 C 14.33 3.46 14.3 5.8 14.3 5.8 L 13.8 5.8 L 13.8 1.9 Z M 16.4 1.9 L 16.8 1.9 L 16.9 2.5 C 16.9 2.5 16.9 2.53 16.9 2.5 C 17.2 2 17.7 1.9 18 1.9 C 18.1 1.9 18.2 1.9 18.3 1.9 C 18.3 1.9 18.3 2.4 18.3 2.4 C 18.2 2.3 18.1 2.3 18 2.3 C 17.5 2.3 16.9 2.7 16.9 3.5 C 16.94 3.46 16.9 5.8 16.9 5.8 L 16.4 5.8 L 16.4 1.9 Z M 19 4.3 C 19 4.31 19 1.9 19 1.9 L 19.5 1.9 C 19.5 1.9 19.49 4.34 19.5 4.3 C 19.5 5 19.9 5.4 20.5 5.4 C 21.1 5.4 21.6 5 21.6 4.3 C 21.56 4.33 21.6 1.9 21.6 1.9 L 22.1 1.9 C 22.1 1.9 22.05 4.31 22.1 4.3 C 22.1 5.2 21.5 5.9 20.5 5.9 C 19.6 5.9 19 5.2 19 4.3 Z M 23.3 1.9 L 23.7 1.9 C 23.7 1.9 23.76 2.66 23.8 2.7 C 24.1 2.1 24.6 1.8 25.2 1.8 C 26.1 1.8 26.9 2.6 26.9 3.8 C 26.9 5.1 26.1 5.9 25.2 5.9 C 24.6 5.9 24.1 5.6 23.8 5.1 C 23.79 5.06 23.8 7.3 23.8 7.3 L 23.3 7.3 L 23.3 1.9 Z M 26.5 3.8 C 26.5 2.9 25.9 2.3 25.1 2.3 C 24.4 2.3 23.8 2.9 23.8 3.8 C 23.8 4.8 24.4 5.4 25.1 5.4 C 25.9 5.4 26.5 4.8 26.5 3.8 Z M 28.6 1.9 L 29.7 1.9 L 29.7 2.3 L 28.6 2.3 C 28.6 2.3 28.57 4.45 28.6 4.5 C 28.6 5.1 28.9 5.4 29.4 5.4 C 29.6 5.4 29.7 5.4 29.8 5.3 C 29.8 5.3 29.8 5.8 29.8 5.8 C 29.8 5.8 29.6 5.8 29.4 5.8 C 28.6 5.8 28.1 5.3 28.1 4.5 C 28.08 4.47 28.1 2.3 28.1 2.3 L 27.5 2.3 L 27.5 1.9 L 28.1 1.9 L 28.1 1 L 28.6 1 L 28.6 1.9 Z M 33.8 4 C 33.8 4 30.8 4 30.8 4 C 30.9 4.9 31.5 5.4 32.2 5.4 C 32.7 5.4 33.2 5.2 33.6 4.8 C 33.6 4.8 33.6 5.4 33.6 5.4 C 33.2 5.7 32.7 5.9 32.2 5.9 C 31.1 5.9 30.3 5.1 30.3 3.9 C 30.3 2.6 31.2 1.8 32.2 1.8 C 33.1 1.8 33.8 2.5 33.8 3.8 C 33.8 3.9 33.8 3.9 33.8 4 Z M 33.3 3.6 C 33.3 2.7 32.7 2.3 32.2 2.3 C 31.5 2.3 30.9 2.8 30.8 3.6 C 30.8 3.6 33.3 3.6 33.3 3.6 Z M 34.8 4.3 C 34.76 4.31 34.8 1.9 34.8 1.9 L 35.3 1.9 C 35.3 1.9 35.25 4.34 35.3 4.3 C 35.3 5 35.6 5.4 36.3 5.4 C 36.9 5.4 37.3 5 37.3 4.3 C 37.32 4.33 37.3 1.9 37.3 1.9 L 37.8 1.9 C 37.8 1.9 37.81 4.31 37.8 4.3 C 37.8 5.2 37.2 5.9 36.3 5.9 C 35.3 5.9 34.8 5.2 34.8 4.3 Z M 39.1 1.9 L 39.4 1.9 L 39.5 2.5 C 39.5 2.5 39.51 2.53 39.5 2.5 C 39.8 2 40.3 1.9 40.6 1.9 C 40.7 1.9 40.8 1.9 40.9 1.9 C 40.9 1.9 40.9 2.4 40.9 2.4 C 40.8 2.3 40.7 2.3 40.6 2.3 C 40.1 2.3 39.5 2.7 39.5 3.5 C 39.55 3.46 39.5 5.8 39.5 5.8 L 39.1 5.8 L 39.1 1.9 Z " stroke="none" fill="#fff"/>
  </g>
</svg>